<svg width="20" height="20" viewBox="0 0 20 20" fill="none" xmlns="http://www.w3.org/2000/svg">
<path d="M10 0.5C8.12108 0.5 6.28435 1.05717 4.72209 2.10104C3.15982 3.14491 1.94218 4.62861 1.22315 6.36451C0.504116 8.1004 0.315985 10.0105 0.682544 11.8534C1.0491 13.6962 1.95389 15.3889 3.28249 16.7175C4.61109 18.0461 6.30383 18.9509 8.14665 19.3175C9.98947 19.684 11.8996 19.4959 13.6355 18.7769C15.3714 18.0578 16.8551 16.8402 17.899 15.2779C18.9428 13.7157 19.5 11.8789 19.5 10C19.5 8.75244 19.2543 7.5171 18.7769 6.36451C18.2994 5.21191 17.5997 4.16464 16.7175 3.28249C15.8354 2.40033 14.7881 1.70056 13.6355 1.22314C12.4829 0.745725 11.2476 0.5 10 0.5M8.93112 3.88333C8.92991 3.71581 8.99479 3.55456 9.11168 3.43455C9.22858 3.31454 9.38806 3.24543 9.55556 3.24222H10.3978C10.5644 3.24193 10.7243 3.30775 10.8424 3.42524C10.9605 3.54273 11.0272 3.70229 11.0278 3.86889V10.2022C11.0282 10.2844 11.0125 10.3658 10.9814 10.4419C10.9504 10.5179 10.9047 10.5871 10.8469 10.6455C10.7891 10.7039 10.7204 10.7504 10.6447 10.7822C10.569 10.8141 10.4877 10.8307 10.4056 10.8311H9.55556C9.38902 10.83 9.22962 10.7634 9.11176 10.6457C8.99389 10.528 8.92701 10.3688 8.92556 10.2022L8.93112 3.88333ZM10 16.5189C8.61563 16.5225 7.26596 16.0859 6.14599 15.2722C5.02602 14.4584 4.19375 13.3097 3.76943 11.992C3.3451 10.6742 3.3507 9.25569 3.78541 7.94134C4.22012 6.62699 5.06143 5.48487 6.18778 4.68C6.25481 4.63002 6.33108 4.59382 6.41218 4.57352C6.49329 4.55321 6.57762 4.54919 6.66029 4.56169C6.74296 4.5742 6.82232 4.60298 6.8938 4.64636C6.96527 4.68974 7.02743 4.74688 7.07667 4.81444C7.0924 4.83619 7.10686 4.85882 7.12 4.88222L7.53556 5.61889C7.61125 5.7535 7.63495 5.91118 7.60219 6.0621C7.56943 6.21301 7.48247 6.34667 7.35778 6.43778C6.6101 6.99129 6.05607 7.76654 5.77454 8.65318C5.49301 9.53983 5.49834 10.4927 5.78976 11.3761C6.08119 12.2596 6.64385 13.0286 7.39768 13.5737C8.1515 14.1188 9.05807 14.4123 9.98834 14.4123C10.9186 14.4123 11.8252 14.1188 12.579 13.5737C13.3328 13.0286 13.8955 12.2596 14.1869 11.3761C14.4783 10.4927 14.4837 9.53983 14.2021 8.65318C13.9206 7.76654 13.3666 6.99129 12.6189 6.43778C12.4978 6.34376 12.4144 6.20946 12.3838 6.05922C12.3532 5.90898 12.3775 5.75276 12.4522 5.61889L12.8678 4.88222C12.9071 4.80964 12.9604 4.74553 13.0245 4.69355C13.0887 4.64158 13.1624 4.60277 13.2416 4.57934C13.3207 4.55591 13.4037 4.54833 13.4858 4.55702C13.5679 4.56571 13.6475 4.59051 13.72 4.63C13.74 4.64096 13.7593 4.6532 13.7778 4.66667C14.906 5.46872 15.7502 6.60856 16.1884 7.92163C16.6267 9.2347 16.6363 10.6531 16.2159 11.972C15.7955 13.2909 14.9669 14.442 13.8496 15.2593C12.7323 16.0766 11.3843 16.5177 10 16.5189" fill="black"/>
</svg>
