<svg width="20" height="20" viewBox="0 0 20 20" fill="none" xmlns="http://www.w3.org/2000/svg">
<path fill-rule="evenodd" clip-rule="evenodd" d="M16.3145 1.59637L18.4024 3.68747C18.7126 4.00195 18.8858 4.42643 18.8841 4.86819C18.8825 5.30996 18.7061 5.73312 18.3935 6.04525H18.4024L16.8879 7.55971C16.8093 7.63821 16.7028 7.68228 16.5918 7.68228C16.4807 7.68228 16.3742 7.63821 16.2957 7.55971L12.439 3.70303C12.3605 3.62448 12.3164 3.51796 12.3164 3.40691C12.3164 3.29585 12.3605 3.18937 12.439 3.11082L13.9534 1.59637C14.2672 1.28446 14.6916 1.10938 15.134 1.10938C15.5764 1.10938 16.0008 1.28446 16.3145 1.59637ZM11.4951 4.64254L15.3517 8.49922C15.4287 8.57807 15.4716 8.68412 15.471 8.79436C15.4703 8.9046 15.4263 9.01014 15.3484 9.08811L6.00503 18.4326L2.03503 18.877C1.92639 18.8892 1.81644 18.8799 1.71141 18.8496C1.60637 18.8193 1.50835 18.7686 1.42291 18.7004C1.33748 18.6322 1.26632 18.5478 1.2135 18.4521C1.16068 18.3564 1.12719 18.2512 1.11503 18.1426C1.10749 18.0809 1.10749 18.0186 1.11503 17.957L1.5595 13.987L10.9039 4.64254C10.9824 4.56438 11.0887 4.52051 11.1995 4.52051C11.3102 4.52051 11.4166 4.56438 11.4951 4.64254Z" fill="black"/>
</svg>
