<svg width="20" height="20" viewBox="0 0 20 20" fill="none" xmlns="http://www.w3.org/2000/svg">
<path d="M10 0.5C8.12108 0.5 6.28435 1.05717 4.72209 2.10104C3.15982 3.14491 1.94218 4.62861 1.22315 6.36451C0.504116 8.1004 0.315985 10.0105 0.682544 11.8534C1.0491 13.6962 1.95389 15.3889 3.28249 16.7175C4.61109 18.0461 6.30382 18.9509 8.14664 19.3175C9.98946 19.684 11.8996 19.4959 13.6355 18.7768C15.3714 18.0578 16.8551 16.8402 17.899 15.2779C18.9428 13.7156 19.5 11.8789 19.5 10C19.5 7.48044 18.4991 5.06408 16.7175 3.28248C14.9359 1.50089 12.5196 0.5 10 0.5V0.5ZM11.9778 15.2233C11.4889 15.4167 11.0989 15.5648 10.8078 15.6678C10.4805 15.7747 10.1376 15.8262 9.79334 15.82C9.29528 15.8508 8.80341 15.6965 8.41222 15.3867C8.25374 15.2516 8.1274 15.0829 8.04244 14.8927C7.95747 14.7026 7.91602 14.4959 7.92111 14.2878C7.92156 14.1105 7.93381 13.9334 7.95778 13.7578C7.98222 13.5778 8.02222 13.3744 8.07556 13.1478L8.68778 10.9856C8.74111 10.7778 8.78778 10.5811 8.82556 10.3978C8.86035 10.2303 8.87859 10.0599 8.88 9.88889C8.89098 9.78631 8.88161 9.68257 8.85244 9.58362C8.82327 9.48467 8.77487 9.39244 8.71 9.31222C8.5189 9.17998 8.28663 9.12082 8.05556 9.14555C7.89071 9.14612 7.7268 9.17044 7.56889 9.21778C7.40445 9.26889 7.26111 9.31444 7.14334 9.35889L7.30445 8.69222C7.70445 8.53 8.08741 8.39185 8.45334 8.27778C8.78804 8.16571 9.13817 8.10648 9.49111 8.10222C9.982 8.07094 10.467 8.22298 10.8522 8.52889C11.0089 8.66735 11.133 8.83879 11.2156 9.03089C11.2983 9.223 11.3373 9.43101 11.33 9.64C11.33 9.73407 11.3189 9.89963 11.2967 10.1367C11.2778 10.3576 11.2369 10.5761 11.1744 10.7889L10.5656 12.9444C10.5156 13.1178 10.4711 13.3156 10.4311 13.5367C10.3979 13.7026 10.3782 13.8709 10.3722 14.04C10.3592 14.1457 10.3696 14.253 10.4029 14.3543C10.4361 14.4555 10.4913 14.5481 10.5644 14.6256C10.7638 14.7486 10.9979 14.8032 11.2311 14.7811C11.4016 14.7775 11.5708 14.7514 11.7344 14.7033C11.8732 14.668 12.0092 14.6223 12.1411 14.5667L11.9778 15.2233ZM11.8667 6.47444C11.5898 6.73547 11.2216 6.87749 10.8411 6.87C10.4598 6.87683 10.0908 6.73496 9.81222 6.47444C9.67715 6.35422 9.56945 6.2064 9.49642 6.04097C9.42338 5.87555 9.38672 5.69637 9.38889 5.51555C9.38773 5.33387 9.42539 5.15404 9.49936 4.9881C9.57332 4.82215 9.68189 4.67392 9.81778 4.55333C10.095 4.29028 10.4645 4.14663 10.8467 4.15333C11.2279 4.14607 11.5966 4.28986 11.8722 4.55333C12.0064 4.67479 12.1137 4.82301 12.1871 4.98846C12.2605 5.1539 12.2984 5.33289 12.2984 5.51389C12.2984 5.69488 12.2605 5.87387 12.1871 6.03932C12.1137 6.20476 12.0064 6.35299 11.8722 6.47444H11.8667Z" fill="black"/>
</svg>
