<svg width="20" height="20" viewBox="0 0 20 20" fill="none" xmlns="http://www.w3.org/2000/svg">
<path d="M17.7354 1.11251L1.43588 10.5157C1.29715 10.5923 1.18279 10.7064 1.10592 10.845C1.02904 10.9836 0.992748 11.1411 1.0012 11.2994C1.00965 11.4576 1.06251 11.6103 1.15371 11.7399C1.24491 11.8696 1.37077 11.9709 1.51688 12.0323L5.25398 13.6006L15.3538 4.7003C15.3941 4.66866 15.4445 4.65272 15.4957 4.65545C15.5468 4.65817 15.5953 4.67938 15.632 4.71512C15.6687 4.75087 15.6912 4.79873 15.6953 4.8498C15.6993 4.90087 15.6847 4.95169 15.6542 4.99282L7.18778 15.3084V18.139C7.18421 18.3142 7.23524 18.4861 7.33378 18.6309C7.43231 18.7757 7.57348 18.8863 7.73768 18.9473C7.90189 19.0082 8.08099 19.0166 8.25015 18.9711C8.41932 18.9257 8.57014 18.8287 8.68172 18.6937L10.9148 15.9767L15.2953 17.8117C15.5018 17.8982 15.7342 17.8994 15.9417 17.8151C16.1491 17.7308 16.3147 17.5677 16.4023 17.3616C16.4265 17.3022 16.4442 17.2404 16.4552 17.1771L18.9874 1.98893C19.015 1.83091 18.997 1.6683 18.9355 1.52016C18.874 1.37202 18.7715 1.24448 18.6401 1.1525C18.5087 1.06052 18.3538 1.00791 18.1935 1.00082C18.0333 0.993741 17.8744 1.03248 17.7354 1.11251Z" fill="black"/>
</svg>
