<svg width="12" height="7" viewBox="0 0 12 7" fill="none" xmlns="http://www.w3.org/2000/svg">
<path d="M5.54123 6.29281L1.14523 1.89914C1.02222 1.77592 0.953125 1.60892 0.953125 1.43481C0.953125 1.26069 1.02222 1.09369 1.14523 0.970474L1.76745 0.348252C1.89074 0.225665 2.05753 0.156856 2.2314 0.156856C2.40526 0.156856 2.57205 0.225665 2.69534 0.348252L6.00789 3.63825L9.32278 0.340474C9.44587 0.217508 9.61274 0.148437 9.78673 0.148438C9.96071 0.148438 10.1276 0.217508 10.2507 0.340474L10.8729 0.962696C10.9959 1.08578 11.0649 1.25265 11.0649 1.42664C11.0649 1.60063 10.9959 1.7675 10.8729 1.89059L6.46678 6.29281C6.34389 6.41525 6.17748 6.484 6.00401 6.484C5.83053 6.484 5.66412 6.41525 5.54123 6.29281Z" fill="#424242"/>
</svg>
