<svg width="160" height="30" viewBox="0 0 160 30" fill="none" xmlns="http://www.w3.org/2000/svg">
<path d="M11.4756 29.5239C9.27286 29.5239 7.29512 29.0976 5.5424 28.2449C3.81336 27.3922 2.45144 26.1961 1.45666 24.6566C0.485552 23.117 0 21.3761 0 19.4339C0 17.4917 0.485552 15.7627 1.45666 14.2468C2.45144 12.7072 3.81336 11.5111 5.5424 10.6585C7.29512 9.80578 9.27286 9.37944 11.4756 9.37944C13.8441 9.37944 15.8693 9.88868 17.5509 10.9072C19.2326 11.9256 20.3932 13.3349 21.0327 15.135L14.8153 18.1904C14.0573 16.4851 12.9323 15.6324 11.4401 15.6324C10.4927 15.6324 9.69919 15.964 9.05969 16.6272C8.44387 17.2904 8.13595 18.226 8.13595 19.4339C8.13595 20.6656 8.44387 21.613 9.05969 22.2762C9.69919 22.9394 10.4927 23.271 11.4401 23.271C12.9323 23.271 14.0573 22.4183 14.8153 20.7129L21.0327 23.7684C20.3932 25.5684 19.2326 26.9777 17.5509 27.9962C15.8693 29.0147 13.8441 29.5239 11.4756 29.5239Z" fill="#2F2F2F"/>
<path d="M31.5929 9.37944C35.0036 9.37944 37.609 10.1492 39.4091 11.6888C41.2092 13.2046 42.1092 15.5495 42.1092 18.7234V29.1686H34.6483V26.6106C33.7246 28.5528 31.8889 29.5239 29.1414 29.5239C27.6019 29.5239 26.2873 29.2634 25.1978 28.7423C24.132 28.1975 23.3148 27.4751 22.7464 26.5751C22.2016 25.6514 21.9292 24.621 21.9292 23.4841C21.9292 21.5656 22.6635 20.109 24.132 19.1142C25.6005 18.1194 27.8269 17.622 30.8113 17.622H34.0443C33.7838 16.1061 32.564 15.3482 30.3849 15.3482C29.5086 15.3482 28.6204 15.4903 27.7203 15.7745C26.8203 16.0351 26.0505 16.4022 25.411 16.8759L22.8529 11.5822C23.9662 10.8953 25.3044 10.3624 26.8676 9.98342C28.4546 9.58077 30.0296 9.37944 31.5929 9.37944ZM31.5574 24.6921C32.1258 24.6921 32.635 24.5381 33.0851 24.2302C33.5351 23.9223 33.8667 23.4604 34.0799 22.8446V21.4946H32.0903C30.456 21.4946 29.6388 22.0393 29.6388 23.1288C29.6388 23.5789 29.8046 23.9578 30.1362 24.2657C30.4915 24.55 30.9652 24.6921 31.5574 24.6921Z" fill="#2F2F2F"/>
<path d="M53.2179 11.8309C54.639 10.1966 56.7352 9.37944 59.5064 9.37944V16.4851C58.8669 16.3903 58.2747 16.343 57.73 16.343C54.9825 16.343 53.6087 17.7404 53.6087 20.5353V29.1686H45.5793V9.73472H53.2179V11.8309Z" fill="#2F2F2F"/>
<path d="M69.4207 11.8309C70.8418 10.1966 72.938 9.37944 75.7092 9.37944V16.4851C75.0697 16.3903 74.4775 16.343 73.9328 16.343C71.1853 16.343 69.8115 17.7404 69.8115 20.5353V29.1686H61.7821V9.73472H69.4207V11.8309Z" fill="#2F2F2F"/>
<path d="M77.9849 9.73472H86.0143V29.1686H77.9849V9.73472ZM81.9996 8.17148C80.5548 8.17148 79.3824 7.79252 78.4823 7.03458C77.606 6.25296 77.1678 5.27001 77.1678 4.08574C77.1678 2.90147 77.606 1.93036 78.4823 1.17243C79.3824 0.39081 80.5548 0 81.9996 0C83.4681 0 84.6405 0.367125 85.5169 1.10137C86.3932 1.83562 86.8314 2.78304 86.8314 3.94363C86.8314 5.17527 86.3932 6.19375 85.5169 6.99905C84.6405 7.78067 83.4681 8.17148 81.9996 8.17148Z" fill="#2F2F2F"/>
<path d="M110.251 19.4339C110.251 19.5523 110.215 20.18 110.144 21.3169H96.6433C96.9276 22.0512 97.4013 22.6196 98.0644 23.0223C98.7276 23.4012 99.5566 23.5907 100.551 23.5907C101.404 23.5907 102.115 23.4841 102.683 23.271C103.275 23.0578 103.915 22.6907 104.602 22.1696L108.794 26.3974C106.899 28.4818 104.069 29.5239 100.303 29.5239C97.9579 29.5239 95.8972 29.0976 94.1208 28.2449C92.3444 27.3685 90.9707 26.1606 89.9995 24.621C89.0285 23.0815 88.5429 21.3524 88.5429 19.4339C88.5429 17.4917 89.0166 15.7627 89.964 14.2468C90.9351 12.7072 92.2497 11.5111 93.9077 10.6585C95.5893 9.80578 97.4723 9.37944 99.5566 9.37944C101.523 9.37944 103.311 9.77025 104.921 10.5519C106.556 11.3335 107.847 12.4822 108.794 13.9981C109.765 15.514 110.251 17.3259 110.251 19.4339ZM99.6277 14.8508C98.7987 14.8508 98.1118 15.0758 97.5671 15.5258C97.0223 15.9758 96.667 16.6153 96.5012 17.4443H102.754C102.588 16.639 102.233 16.0114 101.688 15.5613C101.144 15.0876 100.457 14.8508 99.6277 14.8508Z" fill="#2F2F2F"/>
<path d="M120.423 11.8309C121.844 10.1966 123.94 9.37944 126.712 9.37944V16.4851C126.072 16.3903 125.48 16.343 124.935 16.343C122.188 16.343 120.814 17.7404 120.814 20.5353V29.1686H112.784V9.73472H120.423V11.8309Z" fill="#2F2F2F"/>
<path d="M137.695 9.28125C141.106 9.28125 143.711 10.051 145.511 11.5906C147.311 13.1064 148.211 15.4513 148.211 18.6252V29.0704H140.75V26.5124C139.827 28.4546 137.991 29.4257 135.243 29.4257C133.704 29.4257 132.389 29.1652 131.3 28.6441C130.234 28.0993 129.417 27.3769 128.848 26.4769C128.304 25.5532 128.031 24.5228 128.031 23.3859C128.031 21.4674 128.766 20.0108 130.234 19.016C131.702 18.0212 133.929 17.5238 136.913 17.5238H140.146C139.886 16.0079 138.666 15.25 136.487 15.25C135.611 15.25 134.722 15.3921 133.822 15.6763C132.922 15.9369 132.153 16.304 131.513 16.7777L128.955 11.484C130.068 10.7971 131.406 10.2642 132.97 9.88523C134.557 9.48258 136.132 9.28125 137.695 9.28125ZM137.659 24.5939C138.228 24.5939 138.737 24.4399 139.187 24.132C139.637 23.8241 139.969 23.3622 140.182 22.7464V21.3964H138.192C136.558 21.3964 135.741 21.9411 135.741 23.0307C135.741 23.4807 135.907 23.8596 136.238 24.1676C136.594 24.4518 137.067 24.5939 137.659 24.5939Z" fill="#3074D3"/>
<path d="M155.305 29.4257C153.955 29.4257 152.83 28.9994 151.93 28.1467C151.054 27.2703 150.616 26.1571 150.616 24.8071C150.616 23.457 151.054 22.3675 151.93 21.5385C152.83 20.6858 153.955 20.2595 155.305 20.2595C156.655 20.2595 157.769 20.6858 158.645 21.5385C159.545 22.3675 159.995 23.457 159.995 24.8071C159.995 26.1571 159.545 27.2703 158.645 28.1467C157.769 28.9994 156.655 29.4257 155.305 29.4257Z" fill="#3074D3"/>
</svg>
