<svg xmlns="http://www.w3.org/2000/svg" width="110" height="20" viewBox="0 0 110 20">
  <g id="Truck_-_GMC" data-name="Truck - GMC" transform="translate(136 -9968)">
    <rect id="Rectangle_63551" data-name="Rectangle 63551" width="110" height="20" transform="translate(-136 9968)" fill="#aaa" opacity="0"/>
    <path id="Path_36913" data-name="Path 36913" d="M0,256.7c0-1.782,1.135-2.984,3.282-2.984H17.213v2.526H3.7a.661.661,0,0,0-.715.747V261.2c0,.511.22.841.911.841h9.517c.5,0,.889-.174.889-.818v-.987H8.731v-2.4h8.481V261.7c0,1.852-1.382,2.869-3.55,2.869H3.3c-2.094,0-3.3-1.11-3.3-2.962Zm29.646,7.871,4.761-8.23v8.23H37.39V253.717H32.8l-4.535,7.8-4.536-7.8H19.139v10.855h2.983V256.34l4.76,8.232h2.763m25.354,0H42.52c-2.1,0-3.3-1.108-3.3-2.96V256.7c0-1.782,1.131-2.984,3.278-2.984H55v2.729H42.914a.66.66,0,0,0-.72.595.646.646,0,0,0,0,.15V261c0,.513.223.841.913.841H55v2.728" transform="translate(-136 9718.855)" fill="#aaa"/>
  </g>
</svg>
