<svg xmlns="http://www.w3.org/2000/svg" width="110" height="20" viewBox="0 0 110 20">
  <g id="Truck_-_Kenworth" data-name="Truck - Kenworth" transform="translate(136 -10288)">
    <rect id="Rectangle_63539" data-name="Rectangle 63539" width="110" height="20" transform="translate(-136 10288)" fill="#aaa" opacity="0"/>
    <path id="Union_696" data-name="Union 696" d="M38.981,5.38a5.42,5.42,0,1,1,5.6,5.44l-.141,0A5.377,5.377,0,0,1,38.981,5.38Zm3.8-2.534a2.98,2.98,0,0,0-1.312,3.108A2.981,2.981,0,0,0,44.4,8.473a2.423,2.423,0,0,0,1.059-.207,3.076,3.076,0,0,0,1.768-3.713,2.966,2.966,0,0,0-2.842-2.206A2.849,2.849,0,0,0,42.78,2.846Zm12.79,7.485q-1.332-2.063-2.676-4.119c-.037-.056-.075-.111-.113-.166l-.048.015v4.422H50.484c0-.073-.011-.141-.011-.209q0-4.769,0-9.536c0-.173.041-.232.224-.231.594,0,1.187,0,1.781,0,.679,0,1.357,0,2.036,0a4.328,4.328,0,0,1,1.753.348,2.536,2.536,0,0,1,1.524,1.761,3.57,3.57,0,0,1-.343,2.764,2.177,2.177,0,0,1-1.36,1.044c-.06.016-.119.037-.2.062l2.623,3.988c-.1.005-.161.011-.223.011h-.693c-.57,0-1.14,0-1.709,0h-.007A.318.318,0,0,1,55.57,10.331ZM52.71,4.68v.229c.578,0,1.127.019,1.673-.005a.969.969,0,0,0,.974-.874.985.985,0,0,0-.8-1.3,2.115,2.115,0,0,0-.386-.025c-.361,0-.722,0-1.083,0H52.71ZM22.423,10.329Q20.865,7.123,19.3,3.922c-.032-.065-.07-.125-.1-.188l-.047.016v6.73H16.9V.523c.069,0,.138-.011.206-.012h.719c.606,0,1.213,0,1.819,0a.278.278,0,0,1,.29.189q1.461,2.952,2.933,5.9a.586.586,0,0,0,.148.2V6.6c0-1.953,0-3.907,0-5.861,0-.186.052-.24.238-.237.632.011,1.265,0,1.9,0h.223v9.971c-.061,0-.123.01-.185.01h-.714c-.6,0-1.19,0-1.785,0h-.006A.246.246,0,0,1,22.423,10.329Zm-16.709.012Q4.2,8.126,2.685,5.92a1.248,1.248,0,0,0-.194-.185l-.062.042v4.7H0v-.229Q0,5.5,0,.753C0,.555.054.5.249.506c.652.012,1.3.011,1.957,0,.183,0,.226.058.225.231-.006,1.438,0,2.876,0,4.314v.223l.066.031a1.759,1.759,0,0,0,.157-.182Q4.1,2.908,5.55.687a.338.338,0,0,1,.325-.18c.64.009,1.279,0,1.918,0h.232C7.971.6,7.937.669,7.9.73Q6.492,2.919,5.083,5.105a.289.289,0,0,0,.01.388q1.715,2.4,3.416,4.811c.036.051.067.105.114.18-.086,0-.148.009-.209.009-.8,0-1.6,0-2.4,0H6.006A.311.311,0,0,1,5.714,10.341Zm29.185.153c-.36,0-.359,0-.459-.341q-.795-2.7-1.59-5.408a.316.316,0,0,0-.089-.152L31.3,10.481H28.985L26.282.527c.093-.006.161-.015.228-.015h.583c.451,0,.9,0,1.354-.005.17,0,.23.058.269.215q.729,2.942,1.469,5.882c.007.029.018.057.027.086l.035,0,1.21-4.811c.1-.406.209-.81.3-1.217A.159.159,0,0,1,31.946.51c.562,0,1.124.006,1.685,0,.133,0,.173.056.206.171q.67,2.328,1.349,4.654c.132.457.265.913.436,1.372.07-.336.142-.672.211-1.009Q36.342,3.19,36.849.682c.02-.1.044-.175.179-.174.469,0,.939,0,1.409,0h.683a.854.854,0,0,1,.13.023l-2.324,9.958Zm25.554-.012V2.525H58.372V2.245c0-.516,0-1.032,0-1.547,0-.142.041-.189.187-.189q3.08.006,6.16,0c.113,0,.2,0,.2.158-.007.58,0,1.16,0,1.741a.927.927,0,0,1-.015.107H62.952v7.965Zm11.164,0V6.362H68.375v4.115H66.008c0-.067-.01-.135-.01-.2q0-4.767,0-9.534c0-.173.04-.235.224-.232.457.007.913.006,1.37.005h.567c.063,0,.126.006.205.011V4.314h3.244V.524c.085-.005.148-.012.211-.012h.612c.48,0,.961,0,1.441,0,.164,0,.224.036.224.213q-.008,4.786,0,9.573c0,.057-.006.114-.011.185Zm-62.279,0V.77c0-.258,0-.259.248-.259h5.938v2H11.786V4.334h3.581V6.352H11.822V8.44h3.705v2.037Z" transform="translate(-136 10292.589)" fill="#aaa"/>
  </g>
</svg>
