<svg xmlns="http://www.w3.org/2000/svg" width="110" height="20" viewBox="0 0 110 20">
  <g id="Truck_-_Western_Star" data-name="Truck - Western Star" transform="translate(136 -10608)">
    <rect id="Rectangle_63547" data-name="Rectangle 63547" width="110" height="20" transform="translate(-136 10608)" fill="#aaa" opacity="0"/>
    <path id="Union_700" data-name="Union 700" d="M52.574,10.49V8.475a2.713,2.713,0,0,0,1.6.569,1.147,1.147,0,0,0,1.218-1.162c0-.823-.652-1.136-1.247-1.561a3.532,3.532,0,0,1-1.968-3.176A2.845,2.845,0,0,1,54.97,0a3.636,3.636,0,0,1,1.872.524V2.58a2.414,2.414,0,0,0-1.531-.68.977.977,0,0,0-1.062,1.049c0,1.757,3.215,1.856,3.215,4.747a3.008,3.008,0,0,1-3.074,3.331A3.279,3.279,0,0,1,52.574,10.49Zm-35.364,0V8.475a2.73,2.73,0,0,0,1.6.569,1.147,1.147,0,0,0,1.217-1.162c0-.823-.651-1.136-1.245-1.561a3.53,3.53,0,0,1-1.971-3.176A2.846,2.846,0,0,1,19.606,0a3.624,3.624,0,0,1,1.87.524V2.58A2.411,2.411,0,0,0,19.948,1.9a.979.979,0,0,0-1.063,1.05c0,1.757,3.217,1.856,3.217,4.747a3.009,3.009,0,0,1-3.075,3.331A3.282,3.282,0,0,1,17.21,10.49Zm42,.368v-8.7H57.554V.169H63V2.153H61.324v8.7Zm-13.338,0-2.608-6.45-.027.029.1,1.077.016.441v4.9H41.238V.17h2.028L45.9,6.619l.027-.027a6.872,6.872,0,0,1-.168-1.619V.17h2.112V10.858Zm-17.35,0V.169h4.251V2.153H30.635V4.48h1.887V6.463H30.635V8.874H32.8v1.984Zm-4.573,0v-8.7H22.293V.169h5.444V2.153H26.064v8.7Zm-12.249,0V.169h4.254V2.153H13.814V4.48H15.7V6.463H13.814V8.874h2.169v1.984Zm-4.729,0L5.881,5.216c-.07-.652-.2-1.3-.3-1.956h-.03c-.111.652-.182,1.3-.339,1.956L4,10.858H2.154L0,.17H2.154l.906,5.1c.129.75.157,1.516.228,2.267h.03c.1-.751.154-1.517.311-2.267L4.691.17H6.363L7.725,7.541h.029c.07-.751.082-1.49.212-2.24L8.8.17h2.211L8.8,10.858Zm67.525,0L72.642,5.927h-.03v4.931H70.5V.17h2.126c1.347,0,3.758.142,3.758,3.063A2.976,2.976,0,0,1,74.866,6l1.855,4.861ZM72.612,4.763l.368.013c.966,0,1.348-.651,1.348-1.529A1.2,1.2,0,0,0,72.9,1.915h-.285Zm-5.039,6.094-.4-1.8h-2.14l-.384,1.8h-2.1L65.037.17h2.224l2.567,10.687ZM65.83,4.537l-.454,2.848h1.489l-.54-2.848L66.086,2.92h-.029ZM37.9,10.857,36.045,5.927h-.03v4.931H33.9V.17H36.03c1.347,0,3.757.142,3.757,3.063A2.977,2.977,0,0,1,38.269,6l1.857,4.861ZM36.016,4.763l.369.013c.965,0,1.346-.651,1.346-1.529A1.205,1.205,0,0,0,36.3,1.915h-.283Z" transform="translate(-136 10612.487)" fill="#aaa"/>
  </g>
</svg>
