<svg xmlns="http://www.w3.org/2000/svg" width="110" height="20" viewBox="0 0 110 20">
  <g id="Truck_-_Isuzu" data-name="Truck - Isuzu" transform="translate(136 -10128)">
    <rect id="Rectangle_63555" data-name="Rectangle 63555" width="110" height="20" transform="translate(-136 10128)" fill="#aaa" opacity="0"/>
    <path id="Path_36949" data-name="Path 36949" d="M26.643,424.707c.217,0,1.536-.007,2.6-.081a3.019,3.019,0,0,0,2.436-1.163c.6-.782.6-2.249.6-3.391,0-1.275.017-4.969.011-5.3s-.129-.5-.507-.5-1.446,0-1.812,0l-.653,0c-.378,0-.5.169-.509.5v.354c.006.391-.005,4.118-.007,4.992v.387c-.01.8-.108,1.587-1.246,1.709a10.038,10.038,0,0,1-1.324.075,10.208,10.208,0,0,1-1.331-.075c-1.138-.12-1.207-.9-1.217-1.709v-.387c0-.874-.012-4.6-.007-4.992v-.354c0-.331-.13-.5-.508-.5l-.653,0c-.366,0-1.432,0-1.811,0s-.5.169-.507.5,0,4.023,0,5.3c0,1.142,0,2.609.6,3.391a2.992,2.992,0,0,0,2.421,1.163c1.065.075,2.344.081,2.628.081Zm-23.127-.479c-.008.359-.113.5-.481.509s-2.172,0-2.5,0-.529-.1-.529-.454,0-9.166,0-9.5.156-.492.5-.481,2.116-.009,2.586,0c.356,0,.439.2.441.569.009.492,0,9-.013,9.357m49.143-3.566c.007.827.207,1.381,1.155,1.529a13.969,13.969,0,0,0,2.575.014c.722-.079,1.277-.372,1.31-1.189.036-.69.039-.808.042-1.536,0-1.765-.015-4.33-.009-4.582l0-.107c-.006-.391.172-.556.5-.556l.2-.007c.377,0,1.893.007,2.261.007.331,0,.509.165.5.556l0,.122c.007.369,0,4.274-.008,5.427a7.243,7.243,0,0,1-.508,2.782,2.672,2.672,0,0,1-2.265,1.43,40.942,40.942,0,0,1-5.936.065,3.348,3.348,0,0,1-2.582-1.031c-.717-.807-.754-2.186-.744-3.768-.014-3.49-.024-4.5-.019-4.829v-.2c-.005-.391.173-.556.5-.556l.2-.007c.381,0,1.954.007,2.322.007.33,0,.51.165.5.556s0,4.863,0,5.848m-17.665-6.373c.354-.011,6.695,0,8.677.008,1.755.02,2.4.269,2.881.907a2.159,2.159,0,0,1,.163,2.42,4.029,4.029,0,0,1-1.794,1.452c-.7.361-1.932.908-3.134,1.437-1.61.711-3.067,1.327-3.313,1.455-.332.174-.206.435.057.431.688-.008,7.33-.062,7.684-.063s.472.128.472.51c0,.4,0,1.084,0,1.394-.008.373-.127.475-.48.478-.4,0-7.479.006-7.982.009a7.839,7.839,0,0,1-2.957-.331,2.053,2.053,0,0,1-1.149-1.839c.041-1.428.836-1.885,2.27-2.549,1.594-.723,6.3-2.759,6.58-2.889.347-.162.24-.48-.083-.47-.248.005-7.456.042-7.812.042s-.581-.058-.581-.4,0-1.2,0-1.556.143-.431.5-.442m-18.616,5.369c-1.595-.662-6.247-2.134-6.864-2.44-.3-.128-.277-.507.125-.507.687.01,7.507.023,7.863.026s.505-.138.505-.521c0-.4,0-1.133-.006-1.455s-.123-.451-.417-.452l-8.17.009c-2.2-.005-2.762.318-3.385,1.066a2.557,2.557,0,0,0-.088,2.978c.525.762,1.391,1.1,2.77,1.581,1.67.543,5.6,1.926,5.6,1.926.36.156.333.533-.112.533,0,0-7.5-.067-7.857-.068a.464.464,0,0,0-.531.517c0,.344,0,.974,0,1.332s.1.556.459.568,6.8-.012,8.787-.016c1.509,0,2.967-.47,3.266-2.137.179-1.436-.429-2.326-1.942-2.941" transform="translate(-136 9718.514)" fill="#aaa"/>
  </g>
</svg>
