<svg xmlns="http://www.w3.org/2000/svg" width="110" height="20" viewBox="0 0 110 20">
  <g id="Truck_-_Mack" data-name="Truck - Mack" transform="translate(136 -10368)">
    <rect id="Rectangle_63541" data-name="Rectangle 63541" width="110" height="20" transform="translate(-136 10368)" fill="#3c3c3c" opacity="0"/>
    <path id="Union_697" data-name="Union 697" d="M16.252,8.6a.271.271,0,0,1-.272-.271V4.46c0-.147-.073-.173-.164-.055L12.8,8.38a.615.615,0,0,1-.437.217H8.793a.616.616,0,0,1-.437-.217L5.343,4.4c-.091-.118-.163-.092-.163.055V8.326a.272.272,0,0,1-.272.271H.271A.271.271,0,0,1,0,8.326V.274A.27.27,0,0,1,.271,0H6.249a.621.621,0,0,1,.435.216l3.73,4.923a.2.2,0,0,0,.33,0L14.475.218A.622.622,0,0,1,14.91,0h5.978a.271.271,0,0,1,.272.272V8.326a.271.271,0,0,1-.272.271Zm61.667,0a.873.873,0,0,1-.482-.172l-3.8-3.107a.445.445,0,0,0-.451-.045L70.422,6.731a.5.5,0,0,0-.243.4V8.324a.272.272,0,0,1-.271.272H65.272A.275.275,0,0,1,65,8.324V.272A.275.275,0,0,1,65.272,0h4.636a.272.272,0,0,1,.271.272V2.693a.153.153,0,0,0,.243.145L75.559.129A1.279,1.279,0,0,1,76.07,0h6.835c.15,0,.165.058.032.129L77.389,3.055a.169.169,0,0,0-.03.3l6.194,5.069c.117.1.089.172-.059.172Zm-31.329,0a.612.612,0,0,1-.437-.216l-.646-.85a.96.96,0,0,1-.164-.488V1.558a.957.957,0,0,1,.164-.489l.646-.851A.621.621,0,0,1,46.589,0H62.423A.272.272,0,0,1,62.7.274V2.611a.274.274,0,0,1-.273.273H50.764a.272.272,0,0,0-.271.272V5.443a.273.273,0,0,0,.271.273h11.66a.272.272,0,0,1,.273.271V8.324a.274.274,0,0,1-.273.272Zm-7.818-.005a.624.624,0,0,1-.436-.217l-.844-1.111a.6.6,0,0,0-.434-.218H29.83a.614.614,0,0,0-.436.218l-.842,1.111a.621.621,0,0,1-.437.217H23.137c-.15,0-.2-.1-.109-.216L29.211.218A.622.622,0,0,1,29.647,0H37.24a.614.614,0,0,1,.434.216l6.184,8.158c.091.118.041.216-.109.216ZM32.536,2.669l-1.288,1.7c-.093.118-.044.216.106.216h4.2c.149,0,.2-.1.108-.216l-1.291-1.7a.623.623,0,0,0-.436-.214h-.963A.624.624,0,0,0,32.536,2.669Z" transform="translate(-136 10373.701)" fill="#3c3c3c"/>
  </g>
</svg>
