<svg xmlns="http://www.w3.org/2000/svg" width="110" height="20" viewBox="0 0 110 20">
  <g id="Truck_-_Chevrolet" data-name="Truck - Chevrolet" transform="translate(136 -9728)">
    <rect id="Rectangle_63559" data-name="Rectangle 63559" width="110" height="20" transform="translate(-136 9728)" fill="#aaa" opacity="0"/>
    <path id="Union_691" data-name="Union 691" d="M71.843,9.3c0-.1.01-.191.01-.286q0-4.346,0-8.691V.045h3.1V7.713h6.5V9.3ZM61,9.3c-.133-.028-.266-.059-.4-.082a1.715,1.715,0,0,1-1.482-1.6,6.026,6.026,0,0,1-.058-.9c0-1.521,0-3.043.016-4.564a3.305,3.305,0,0,1,.155-.9A1.721,1.721,0,0,1,60.891.042c.073-.007.146-.011.22-.011C62.822.02,64.532,0,66.243,0q1,0,2,.035a3.377,3.377,0,0,1,.778.124,1.629,1.629,0,0,1,1.175,1.4,4.975,4.975,0,0,1,.087.895q.013,2.248,0,4.5a4.2,4.2,0,0,1-.1.892,1.7,1.7,0,0,1-1.618,1.406,1.6,1.6,0,0,0-.206.05Zm1.669-7.731c-.411,0-.519.107-.52.521q0,1.278,0,2.556t0,2.534c0,.426.113.54.529.54H66.66c.426,0,.547-.1.548-.526q.009-2.568,0-5.135c0-.382-.131-.491-.513-.491H62.664ZM55.174,9.3c-.067-.067-.13-.138-.2-.2q-2.1-1.872-4.208-3.742c-.036-.032-.082-.08-.083-.121-.006-.46,0-.92,0-1.4H54.3c.281,0,.386-.063.4-.323.02-.5.009-1.01,0-1.515-.006-.385-.059-.431-.435-.432H49.809a.439.439,0,0,0-.019.056q0,3.838,0,7.675H46.707V.075h9.277a1.654,1.654,0,0,1,1.787,1.7,13.746,13.746,0,0,1-.048,2.038,1.4,1.4,0,0,1-1.348,1.315c-.61.069-1.23.047-1.846.065-.091,0-.183,0-.274,0l-.024.063c.072.064.139.134.215.193Q56.9,7.33,59.359,9.206a1.019,1.019,0,0,1,.092.091Zm-16.625,0a1.624,1.624,0,0,1-1.241-1.056c-.914-2.152-1.836-4.3-2.747-6.452a.308.308,0,0,0-.337-.227c-2.241.006-4.483,0-6.725.005a1.618,1.618,0,0,0-.307.021.306.306,0,0,0-.285.291c-.01.571,0,1.142,0,1.739h6.514V5.16H26.9V6.977c0,.682.06.742.736.742h6.374V9.3h-7.8a3.85,3.85,0,0,1-.635-.052l-.189-.033a1.666,1.666,0,0,1-1.507-1.539,8.33,8.33,0,0,1-.085-1.16c-.011-1.191-.018-2.382,0-3.573a8.519,8.519,0,0,1,.146-1.549A1.6,1.6,0,0,1,25.392.09a4.682,4.682,0,0,1,.744-.057Q31.615.027,37.094.025a.344.344,0,0,1,.381.259q1.413,3.6,2.838,7.2a.391.391,0,0,0,.744,0c.948-2.392,1.9-4.78,2.85-7.173a.363.363,0,0,1,.409-.284C45,.042,45.68.03,46.394.03c-.2.485-.394.944-.587,1.4q-1.443,3.411-2.888,6.822a1.473,1.473,0,0,1-.864.964c-.082.026-.163.053-.243.08Zm-19.4,0V5.158H14.206c0,.047-.01.076-.01.1q0,2.017.009,4.034H11.074V.046H14.19v3.6h4.943V.053h3.133V.321q0,4.346,0,8.691c0,.1.006.191.01.286ZM2.122,9.3c-.17-.027-.342-.049-.511-.083A1.744,1.744,0,0,1,.058,7.448C.018,6.759.01,6.069.006,5.379,0,4.358-.011,3.335.027,2.315A4.213,4.213,0,0,1,.275,1.056,1.545,1.545,0,0,1,1.617.09a5.453,5.453,0,0,1,.81-.057Q5.954.027,9.481.03h.277V1.566H9.472q-2.877,0-5.753,0H3.655A.514.514,0,0,0,3.4,1.6a.707.707,0,0,0-.262.281.735.735,0,0,0-.038.323q0,2.426,0,4.852a1.72,1.72,0,0,0,0,.176c.039.366.127.45.5.475.1.006.191.008.287.008h6.135V9.3ZM95.7,9.3V1.566H90.146l-2.828,0H85.472a1.692,1.692,0,0,0-.307.02.307.307,0,0,0-.285.291c-.01.571,0,1.142,0,1.739H91.39V5.16H84.869V6.977c0,.681.06.741.736.742h6.374V9.3h-7.8a3.924,3.924,0,0,1-.636-.052l-.189-.033a1.665,1.665,0,0,1-1.507-1.54,8.24,8.24,0,0,1-.086-1.16c-.01-1.191-.018-2.382,0-3.573a8.575,8.575,0,0,1,.146-1.549A1.6,1.6,0,0,1,83.365.09a4.678,4.678,0,0,1,.744-.057c3.653,0,13.675,0,17.91,0h.324V1.561H98.788V9.3Z" transform="translate(-136 9733.352)" fill="#aaa"/>
  </g>
</svg>
