<svg xmlns="http://www.w3.org/2000/svg" width="110" height="20" viewBox="0 0 110 20">
  <g id="Truck_-_Volvo" data-name="Truck - Volvo" transform="translate(136 -10528)">
    <rect id="Rectangle_63545" data-name="Rectangle 63545" width="110" height="20" transform="translate(-136 10528)" fill="#2267ad" opacity="0"/>
    <path id="Union_699" data-name="Union 699" d="M98.436,4.239c0-2.359,2-4.239,5.771-4.239S110,1.88,110,4.239c0,2.393-1.907,4.3-5.771,4.3S98.436,6.632,98.436,4.239Zm3.773-.049c-.026,1.511.579,3.033,1.956,3.057,1.418.026,2.027-1.511,2.053-2.988.028-1.564-.652-2.955-1.943-2.979h-.031C102.975,1.28,102.237,2.636,102.209,4.19Zm-76.084.049C26.126,1.88,28.127,0,31.9,0S37.69,1.88,37.69,4.239c0,2.393-1.907,4.3-5.771,4.3S26.126,6.632,26.126,4.239ZM29.9,4.19c-.026,1.511.579,3.033,1.956,3.057,1.418.026,2.027-1.511,2.053-2.988C33.936,2.7,33.255,1.3,31.965,1.28h-.031C30.664,1.28,29.927,2.636,29.9,4.19ZM77.956,8.3,74.171,1.418H72.308V.171H80.45V1.417H78.48l2.747,5.009,2.709-5.01h-1.62V.171h5.61V1.418H86.062L82.34,8.3ZM5.649,8.3,1.863,1.418H0L0,.171H8.141V1.417H6.172L8.919,6.428l2.709-5.012h-1.62V.171h5.61V1.418H13.754L10.033,8.3ZM50.1,7.031h1.893l0-5.616H50.1V.171H57.6V1.415h-1.87V7.03h1.733a2.467,2.467,0,0,0,2.659-2.5h1.238V8.29H50.1Z" transform="translate(-136 10533.73)" fill="#2267ad"/>
  </g>
</svg>
