<svg xmlns="http://www.w3.org/2000/svg" width="110" height="20" viewBox="0 0 110 20">
  <g id="Truck_-_International" data-name="Truck - International" transform="translate(136 -10208)">
    <rect id="Rectangle_63537" data-name="Rectangle 63537" width="110" height="20" transform="translate(-136 10208)" fill="#aaa" opacity="0"/>
    <path id="Union_695" data-name="Union 695" d="M11.143,8.634,7.553,4.165V8.634H5.186V.013h0L7.169.019l3.456,4.4V.02H13V8.634ZM0,8.634V.023H2.372V8.634Zm104.126,0V0h2.357V6.623H110V8.634Zm-14.55,0L85.985,4.212V8.634H83.626V.04h0L85.6.03,89.06,4.469V.032h2.367v8.6Zm-41.6,0-3.59-4.421V8.634H42.025V.04h0L44,.03l3.457,4.439V.032h2.367v8.6Zm-10.612,0L35.687,5.575h-.9V8.634H32.416V.023L37.628.016A1.792,1.792,0,0,1,39.52,1.989V3.724a1.682,1.682,0,0,1-1.39,1.822l1.787,3.088ZM34.778,3.712h2.5V2.049h-2.5ZM23.952,8.634V.025h5.859V2.049l-3.491-.006V3.428l3.436,0-.007,1.858-3.452,0V6.631l3.531.007v2Zm-6.675,0V2.053H15.035V.026l6.812.011V2.053h-2.2V8.634ZM69.563.046h2.367V8.631H69.563V.046ZM93.1,8.633,96,.038h3.526l2.822,8.594H99.755l-.672-2.014H96.323l-.686,2.014Zm3.571-3.691H98.8L97.761,1.805ZM51.434,8.633,54.325.038h3.524l2.827,8.594H58.086l-.669-2.014H54.656l-.689,2.014Zm3.571-3.691h2.122L56.088,1.805Zm8.034,3.69V2.057H60.8V.046h6.808v2.01h-2.2V8.632Zm16.026-.006h-2.53A2.3,2.3,0,0,1,74.18,6.1V2.633A2.29,2.29,0,0,1,76.557.046H79.1A2.255,2.255,0,0,1,81.5,2.6V6.082c0,1.7-.86,2.544-2.418,2.544Zm-2.518-2h2.583V2.055l-2.583-.007Z" transform="translate(-136 10213.683)" fill="#aaa"/>
  </g>
</svg>
