<svg xmlns="http://www.w3.org/2000/svg" width="110" height="20" viewBox="0 0 110 20">
  <g id="Truck_-_Peterbilt" data-name="Truck - Peterbilt" transform="translate(136 -10448)">
    <rect id="Rectangle_63543" data-name="Rectangle 63543" width="110" height="20" transform="translate(-136 10448)" fill="#aaa" opacity="0"/>
    <path id="Union_698" data-name="Union 698" d="M.852,19.97c-.6-1.21-.546-2.657-.788-4.047C-.358,10.068,1.274,4.157,5.682.954A4.749,4.749,0,0,1,9.9.233a4.04,4.04,0,0,1,2.3,1.931,7.05,7.05,0,0,1-1.029,7.425A5.07,5.07,0,0,1,7.248,11.52c-1.509,0-2.534-.906-3.559-1.931-1.21,2.776-1.086,6.277-.365,9.294A3.288,3.288,0,0,1,1.178,20,1.769,1.769,0,0,1,.852,19.97ZM7.19,2.7a5.758,5.758,0,0,0-2.472,4.83A2.66,2.66,0,0,0,7.01,9.646,3.152,3.152,0,0,0,9.064,8.559a5.547,5.547,0,0,0,1.148-5.494,2.177,2.177,0,0,0-.875-.9,1.442,1.442,0,0,0-.558-.115A3.59,3.59,0,0,0,7.19,2.7ZM58.559,18.153c-.6-.18-.906-.664-1.328-1.087-1.751,1.148-4.4,2.173-6.4.845a4.926,4.926,0,0,1-1.32-1.359A5.187,5.187,0,0,1,45.4,18.1a2.277,2.277,0,0,1-1.689-1.452c-.608-1.509.118-2.956.479-4.345a4.131,4.131,0,0,0-1.931-.058c-.6,2.292-1.148,5.49-4.1,5.912-1.205.185-1.87-.721-2.657-1.509-1.328.906-2.894,1.874-4.583,1.267-2.177-1.566-.3-4.4-.062-6.457a.822.822,0,0,0-.906-.057c-.845.963-.968,2.533-1.632,3.739A4.67,4.67,0,0,1,25,18.1a2.586,2.586,0,0,1-1.958-.293,4.371,4.371,0,0,0-.826-.389c-.251.013-.853.51-1.5.559a3.63,3.63,0,0,1-3.62-1.509c-1.328,1.087-2.956,2.054-4.768,1.632a3.567,3.567,0,0,1-1.509-.726c-1.025.062-2.534,1.571-3.141.062-.3-1.571,2.076-.339,1.9-2.2a5.569,5.569,0,0,1,3.638-5.705,2.385,2.385,0,0,1,1.649.295,2.55,2.55,0,0,1,.546,2.613,8.919,8.919,0,0,1-2.719,3.783.286.286,0,0,0,.3.3c3.563-.726,4.118-4.795,5.322-7.509-.88.194-2.283.233-2.846-.642a9.515,9.515,0,0,1,.545-1.513c.132.264.713.559,2.864.194.277-.515,1.117-2.67,1.571-3.809A5.218,5.218,0,0,1,22.7,3.184c-.215.665-.668,1.76-1.012,2.71,1.465-.625,6.871-2.5,8.723-1.034-.132.387-.95,1.443-1.2,1.9-.1.031-.265-.1-.584-.226A3.45,3.45,0,0,0,27.183,6.3,12.375,12.375,0,0,0,21,8.155c-.783,2.353-1.966,4.39-2.09,7.1a1.408,1.408,0,0,0,.906,1.183,1.156,1.156,0,0,0,1.2-.462c-.968-1.808-.18-4.1,1.025-5.551a3.717,3.717,0,0,1,2.538-1.39,2.031,2.031,0,0,1,1.447.664,3.251,3.251,0,0,1,.119,3.383,10.394,10.394,0,0,1-2.231,3.079c-.123.3.18.361.361.479,1.751-.057,2.354-1.807,2.956-3.079L28.621,9.7c.158-.325.562-.283,1-.242a4.2,4.2,0,0,0,.531.027c-.111.339.372.242,1,.145.839-.13,1.933-.261,2.176.673-.119,1.993-1.144,3.8-1.144,5.8.18.484.783.3,1.087.119a4.6,4.6,0,0,0,1.447-1.385c-.844-4.469.783-8.573,3.08-11.894a4.068,4.068,0,0,1,2.05-1.267A1.64,1.64,0,0,1,41.417,2.7c.845,4.526-2.291,8.327-4.346,11.828a2.261,2.261,0,0,0,.484,1.689c.18.181.6.484.845.123,2.2-2.182,1.28-5.52,1.618-5.846.625-.818,1.988.211,2.93.348a2.792,2.792,0,0,0,1.706-.34c.766-.371,1.313-.742,2.077.406-.845,1.509-2.173,3.558-1.21,5.252a1.358,1.358,0,0,0,1.632.057A4.826,4.826,0,0,0,48.9,14.471c-.66-4.465.906-9.413,4.469-11.89a1.713,1.713,0,0,1,2.068.189c1.39,1.627.347,4.218-.378,5.969-1.148,2.173-2.472,3.981-3.743,5.973a3.473,3.473,0,0,0,1.328,2.116,2.915,2.915,0,0,0,1.76-.106c2.261-1.249,3.264-5.243,4.412-7.9a13.789,13.789,0,0,1-1.614,0c-.514-.088-1.064-.114-1.179-.325.449-1.118.462-1.746.668-1.786a7.385,7.385,0,0,0,2.8.26,14.879,14.879,0,0,0,1.126-2.82A11.91,11.91,0,0,1,62.8,3.893a17.022,17.022,0,0,1-.686,2.454c2.173-.484,4.474-1.773,6.827-1.047.158.286-.3,1.205-.541,1.75-.126.051-.048,0-.168-.046a5.586,5.586,0,0,0-1.882-.011c-1.632.119-3.528,1.254-5.1,1.676-.845,2.353-2.27,4.293-2.27,6.95a1.7,1.7,0,0,0,1.086,1.267,3.748,3.748,0,0,0,2.3-.242,6.865,6.865,0,0,1-.062,1.39,4.49,4.49,0,0,1-2.065.518A3.58,3.58,0,0,1,58.559,18.153Zm-45.334-6.9A3.554,3.554,0,0,0,11.6,14.779a5.383,5.383,0,0,0,1.808-2.054c.086-.274.583-1.532.063-1.532A.629.629,0,0,0,13.225,11.256Zm10.324.022a4.161,4.161,0,0,0-.6,3.26c.845-.906,1.931-1.812,1.931-3.26-.026-.38-.216-.518-.448-.518A1.206,1.206,0,0,0,23.549,11.278ZM39.363,3.848a13.275,13.275,0,0,0-2.653,8.393,17.846,17.846,0,0,0,3.264-7.469c.088-.759-.007-1.17-.235-1.17C39.638,3.6,39.511,3.682,39.363,3.848Zm14.177.928a9.161,9.161,0,0,0-2.529,7.346,16.213,16.213,0,0,0,3.378-7c.09-.386.007-.744-.249-.744C54,4.376,53.8,4.49,53.54,4.776ZM46.12,8.921a1.187,1.187,0,0,1-.483-1.448,2.3,2.3,0,0,1,1.448-1.449,1.145,1.145,0,0,1,1.328.543,1.942,1.942,0,0,1-.6,1.811A2.011,2.011,0,0,1,46.545,9,1.235,1.235,0,0,1,46.12,8.921Z" transform="translate(-136 10448)" fill="#aaa"/>
  </g>
</svg>
