<svg xmlns="http://www.w3.org/2000/svg" width="110" height="20" viewBox="0 0 110 20">
  <g id="Truck_-_Ford" data-name="Truck - Ford" transform="translate(136 -9888)">
    <rect id="Rectangle_63549" data-name="Rectangle 63549" width="110" height="20" transform="translate(-136 9888)" fill="#aaa" opacity="0"/>
    <path id="Union_693" data-name="Union 693" d="M41.3,18.391a.592.592,0,0,0-.075-.161.641.641,0,0,0-.161.081,6.289,6.289,0,0,1-1.588,1.134,3.065,3.065,0,0,1-2.262.3,2.534,2.534,0,0,1-1.828-2.114,4.2,4.2,0,0,1-.014-1.5.75.75,0,0,0-.036-.222.841.841,0,0,0-.2.072,4.929,4.929,0,0,1-1.79.761,1.989,1.989,0,0,1-2.468-1.741c-.02-.144-.04-.289-.061-.433l-.054-.009c-.038.055-.078.108-.114.164q-1.5,2.335-3,4.672a.489.489,0,0,1-.473.262c-.619-.014-1.239,0-1.858,0-.25,0-.309-.09-.176-.3.571-.919,1.158-1.828,1.722-2.752q1.026-1.678,2.02-3.375a2.7,2.7,0,0,0,.279-.679c.124-.477-.175-.748-.65-.6a3.491,3.491,0,0,0-1.194.729,15.613,15.613,0,0,0-2.315,2.51c-.575.743-1.117,1.512-1.707,2.242A6.642,6.642,0,0,1,20.614,19.5a3.8,3.8,0,0,1-2.817.093,3,3,0,0,1-1.849-1.906.628.628,0,0,0-.033-.1c-.047-.081-.1-.158-.149-.237-.069.056-.14.108-.207.166-.427.372-.847.752-1.283,1.114-.192.159-.31.131-.466-.065-.128-.161-.249-.329-.361-.5s-.1-.273.065-.419c.217-.2.432-.394.653-.586a4.763,4.763,0,0,0,1.343-1.922,8.562,8.562,0,0,1,1.971-3.092A6.582,6.582,0,0,1,21.2,10.225a1.636,1.636,0,0,1,.343-.007.483.483,0,0,1,.476.352c.046.147.106.29.157.435.079.223.047.265-.164.369a16.79,16.79,0,0,0-1.586.814,5.043,5.043,0,0,0-2.179,2.7,2.943,2.943,0,0,0-.144,1.406,1.544,1.544,0,0,0,2.163,1.261,3.719,3.719,0,0,0,1.976-1.631,5.527,5.527,0,0,0,.649-4.44c-.1-.406-.069-.521.284-.744a6.692,6.692,0,0,1,.584-.326.506.506,0,0,1,.7.2A3.8,3.8,0,0,1,25,12.241c.02.159.022.319.039.479a1.614,1.614,0,0,0,.057.214c.082-.072.142-.118.194-.172.551-.575,1.083-1.17,1.656-1.722a4.117,4.117,0,0,1,2.138-1.175,2.508,2.508,0,0,1,.868,0,1.356,1.356,0,0,1,1.1,1.247c.029.191.029.387.045.581.005.067.016.133.024.2l.046.025a1.491,1.491,0,0,0,.162-.173,4.379,4.379,0,0,1,1.206-1.162,2.855,2.855,0,0,1,1.75-.511,1.661,1.661,0,0,1,1.556,2.113,1.74,1.74,0,0,1-1.384,1.391,1.183,1.183,0,0,1-1.426-1.3.582.582,0,0,0,.01-.136c-.006-.041-.022-.1-.051-.113a.137.137,0,0,0-.12.032,2.328,2.328,0,0,0-.732,2.07,1.167,1.167,0,0,0,1.51.916,3.546,3.546,0,0,0,1.48-.737c.8-.645,1.572-1.316,2.349-1.985a10.322,10.322,0,0,1,2.284-1.607,3.866,3.866,0,0,1,2.284-.4,2.264,2.264,0,0,1,1.589.891,4.043,4.043,0,0,1,.319.712c.019.043.046.107.077.113s.087-.035.127-.064a.238.238,0,0,0,.05-.069Q46,9.173,47.792,6.443a4.909,4.909,0,0,1,.264-.422.414.414,0,0,1,.258-.161c.745-.013,1.491-.01,2.236-.007.173,0,.2.085.1.252C49.976,7.149,49.3,8.192,48.632,9.24q-2.273,3.573-4.537,7.152c-.147.232-.28.474-.4.719a1.67,1.67,0,0,0-.144.419.526.526,0,0,0,.527.662,1.593,1.593,0,0,0,.937-.291A12.316,12.316,0,0,0,47,16.241c.477-.471.948-.948,1.424-1.422.179-.178.24-.177.431,0,.137.123.27.249.405.372a.181.181,0,0,1,.022.285,18.589,18.589,0,0,1-3.792,3.645,5.075,5.075,0,0,1-2.114.858,2.383,2.383,0,0,1-.341.025A1.68,1.68,0,0,1,41.3,18.391Zm.3-6.491a1.9,1.9,0,0,0-.885.3,6.67,6.67,0,0,0-2.394,2.726,3.933,3.933,0,0,0-.45,1.833.971.971,0,0,0,1.3,1.022,3.006,3.006,0,0,0,1.054-.523,7.444,7.444,0,0,0,2.281-2.832.649.649,0,0,0,.03-.091c-.293-.21-.283-.206-.145-.548a4.01,4.01,0,0,0,.234-.749A.907.907,0,0,0,41.7,11.9ZM2.818,19.276A4.159,4.159,0,0,1,.013,15.438a5.172,5.172,0,0,1,3.447-5.2,2.158,2.158,0,0,1,1.01-.156.683.683,0,0,1,.582.368.5.5,0,0,1-.2.707,13.124,13.124,0,0,0-1.269.875,3.081,3.081,0,0,0-1.116,1.844,2.29,2.29,0,0,0,2,2.71,4.678,4.678,0,0,0,2.867-.641,9.352,9.352,0,0,0,2.039-1.593,32.021,32.021,0,0,0,3.691-4.389c.113-.158.229-.314.343-.473.032-.044.057-.092.117-.191-.246.019-.443.025-.636.052a4.525,4.525,0,0,0-2.015.825.855.855,0,0,1-.423.152.432.432,0,0,1-.424-.577.784.784,0,0,1,.347-.431A6.975,6.975,0,0,1,13.006,8.3c.478-.093.96-.158,1.437-.256a.556.556,0,0,0,.3-.193c.536-.694,1.027-1.424,1.594-2.092a13.417,13.417,0,0,1,4.095-3.409,1.169,1.169,0,0,0,.117-.071.539.539,0,0,0,.065-.077,1.926,1.926,0,0,0-.254-.086c-1.144-.2-2.285-.429-3.434-.6a13.367,13.367,0,0,0-5.293.118A6.022,6.022,0,0,0,8.871,3.016,3.085,3.085,0,0,0,7.861,4.769,1.354,1.354,0,0,0,9.5,6.423a4.176,4.176,0,0,0,2.005-1A5.235,5.235,0,0,0,12.55,4.268c.016-.024.032-.047.049-.071.138-.19.288-.262.447-.215a.424.424,0,0,1,.288.441,1.055,1.055,0,0,1-.07.386,7.141,7.141,0,0,1-2.644,3.367,4.331,4.331,0,0,1-2.666.747A2.8,2.8,0,0,1,5.319,6.636a4.167,4.167,0,0,1,.774-3.282A7.055,7.055,0,0,1,9.072,1.041,11.625,11.625,0,0,1,13.037.067,22.736,22.736,0,0,1,17.62.176c1.72.22,3.434.5,5.151.743,1.683.24,3.365.5,5.053.7a28.246,28.246,0,0,0,4.86.135,27.4,27.4,0,0,0,4.523-.624.558.558,0,0,1,.719.677,1.646,1.646,0,0,1-.533.975,5.84,5.84,0,0,1-1.765,1.112,9.422,9.422,0,0,1-4.069.674,21.741,21.741,0,0,1-5.022-.83L21.872,2.511c-.037-.01-.076-.013-.138-.023.087.309-.114.442-.314.59a20.423,20.423,0,0,0-3.2,2.808,10.381,10.381,0,0,0-1.338,1.879c.062,0,.115.01.167.008.881-.047,1.763-.092,2.644-.142.22-.012.226-.022.212-.251a2.273,2.273,0,0,1,.713-1.911,1.605,1.605,0,0,1,1.31-.487A1.2,1.2,0,0,1,23,6.4a2.187,2.187,0,0,1-1.467,1.795c-.037.014-.075.027-.113.04-.133.045-.14.12-.051.216a.764.764,0,0,0,.1.091c.134.1.268.2.4.292.259.182.3.277.188.468a.443.443,0,0,1-.591.2,3.08,3.08,0,0,1-1.057-.78.455.455,0,0,0-.431-.18c-1.1.1-2.2.193-3.3.307-.74.076-.538-.024-.929.614-1.067,1.738-2.119,3.485-3.333,5.128a17.46,17.46,0,0,1-3.068,3.328,7.251,7.251,0,0,1-3.313,1.58,7.845,7.845,0,0,1-1.34.125A5.034,5.034,0,0,1,2.818,19.276ZM21.6,5.82a.831.831,0,0,0-.289.174,1.379,1.379,0,0,0-.443,1.017c0,.058,0,.128.013.195.015.1.073.143.181.125A1.455,1.455,0,0,0,22.082,6.2c.015-.249-.114-.4-.318-.4A.51.51,0,0,0,21.6,5.82Z" transform="translate(-136 9888)" fill="#aaa"/>
  </g>
</svg>
