<svg height="33" viewBox="0 0 34.5 33" width="34.5" xmlns="http://www.w3.org/2000/svg">
  <g id="NE" transform="translate(-242 -1155)">
    <path
      d="M552.76,951.176a16.294,16.294,0,0,0-32.21-1.75c-.987,4.916-2.214,19.807-2.214,19.807s14.811.282,19.779-.194A16.348,16.348,0,0,0,552.76,951.176Z"
      data-name="Path 2989"
      fill="#b7b7b7"
      id="Path_2989" transform="translate(-276.336 218.685)"/>
    <path d="M695.462,375.73a13.5,13.5,0,1,1-18.438-4.941h0A13.5,13.5,0,0,1,695.462,375.73Z" data-name="Path 2991"
          fill="#fff"
          id="Path_2991" transform="translate(-423.773 789.021)"/>
    <path
      d="M584.485,997.345l-1.528-7.46a1.546,1.546,0,0,0-1.206-1.2l-7.451-1.516c-.963-.2-.761-1.623.276-1.966l15.7-5.178a1.06,1.06,0,0,1,1.344,1.343l-5.17,15.7C586.111,998.1,584.68,998.3,584.485,997.345Z"
      data-name="Path 5834"
      fill="#b7b7b7"
      id="Path_5834" transform="translate(-324.178 184.035)"/>
  </g>
</svg>
