<svg xmlns="http://www.w3.org/2000/svg" width="22" height="22" viewBox="0 0 22 22">
  <g id="Group_46143" data-name="Group 46143" transform="translate(-2001 -1342)">
    <rect id="Rectangle_20157" data-name="Rectangle 20157" width="22" height="22" rx="2" transform="translate(2001 1342)" fill="#dadada"/>
    <path id="times" d="M6.9,85l2.843-2.843a.894.894,0,0,0,0-1.264l-.632-.632a.894.894,0,0,0-1.264,0L5,83.1,2.157,80.262a.894.894,0,0,0-1.264,0l-.632.632a.894.894,0,0,0,0,1.264L3.1,85,.262,87.843a.894.894,0,0,0,0,1.264l.632.632a.894.894,0,0,0,1.264,0L5,86.9l2.843,2.843a.894.894,0,0,0,1.264,0l.632-.632a.894.894,0,0,0,0-1.264Z" transform="translate(2007 1268)" fill="#fff"/>
  </g>
</svg>
