<svg height="19.449" viewBox="0 0 23.111 19.449" width="23.111" xmlns="http://www.w3.org/2000/svg">
  <g data-name="Group 42472" id="Group_42472" transform="translate(-1298.439 -563.871)">
    <path
      d="M24819.992-167.519a12.032,12.032,0,0,1-3.625-.585l1.27-1.269a4.664,4.664,0,0,0,2.355.633,4.405,4.405,0,0,0,4.512-4.28,4.1,4.1,0,0,0-.8-2.424l1.758-1.758a20.045,20.045,0,0,1,5.363,3.771l.006.006a.59.59,0,0,1,0,.816l-.016.015a19.95,19.95,0,0,1-3.262,2.614A14.278,14.278,0,0,1,24819.992-167.519Zm-5.121-1.151h0a19.143,19.143,0,0,1-5.705-3.939.578.578,0,0,1,0-.816,19.241,19.241,0,0,1,3.271-2.623,14.2,14.2,0,0,1,7.555-2.473,12.137,12.137,0,0,1,4.012.719l-1.34,1.339a4.644,4.644,0,0,0-2.672-.831,4.4,4.4,0,0,0-4.51,4.274,4.147,4.147,0,0,0,1.025,2.713l-1.637,1.636Zm5.121-1.328a3.339,3.339,0,0,1-1.418-.311l2.633-2.635a1.957,1.957,0,0,0,1.34.523,2.236,2.236,0,0,0,.611-.093A3.145,3.145,0,0,1,24819.992-170Zm-2.576-1.215h0a2.873,2.873,0,0,1-.643-1.811,3.132,3.132,0,0,1,3.219-3.028,3.27,3.27,0,0,1,1.459.343,1.79,1.79,0,0,0-.8,1.264l-3.232,3.233Z"
      data-name="Subtraction 249"
      fill="#b7b7b7"
      id="Subtraction_249" stroke="rgba(0,0,0,0)" stroke-miterlimit="10" stroke-width="1"
      transform="translate(-23510 745.85)"/>
    <path
      d="M.729,0a.718.718,0,0,1,.729.707V23.34a.718.718,0,0,1-.729.707A.718.718,0,0,1,0,23.34V.707A.718.718,0,0,1,.729,0Z"
      data-name="Path 26329"
      fill="#b7b7b7"
      id="Path_26329" stroke="rgba(0,0,0,0)" stroke-miterlimit="10"
      stroke-width="1" transform="translate(1318.936 564.578) rotate(45)"/>
  </g>
</svg>
