<svg xmlns="http://www.w3.org/2000/svg" width="22" height="22" viewBox="0 0 22 22">
  <g id="Group_46144" data-name="Group 46144" transform="translate(-1973 -1342)">
    <rect id="Rectangle_20156" data-name="Rectangle 20156" width="22" height="22" rx="2" transform="translate(1973 1342)" fill="#dadada"/>
    <path id="check" d="M4.755,74.9.205,70.544a.651.651,0,0,1,0-.948l.99-.948a.722.722,0,0,1,.99,0L5.25,71.583l6.565-6.288a.722.722,0,0,1,.99,0l.99.948a.651.651,0,0,1,0,.948L5.745,74.9a.722.722,0,0,1-.99,0Z" transform="translate(1977 1282.902)" fill="#fff"/>
  </g>
</svg>
