<svg height="12" viewBox="0 0 23.107 12" width="23.107" xmlns="http://www.w3.org/2000/svg">
  <g id="Eaye" transform="translate(0.553 0.5)">
    <g id="Normal" transform="translate(0.001)">
      <path
        d="M21.835,126.092C21.639,125.885,16.916,121,11,121S.36,125.885.164,126.092a.588.588,0,0,0,0,.815C.36,127.115,5.084,132,11,132s10.639-4.885,10.836-5.092A.588.588,0,0,0,21.835,126.092ZM11,130.778a4.284,4.284,0,1,1,0-8.556,4.284,4.284,0,1,1,0,8.556Z"
        data-name="Path 3215"
        fill="#919191"
        id="Path_3215" stroke="rgba(0,0,0,0)" stroke-width="1" transform="translate(0.001 -121)"/>
      <path
        d="M184.867,182.818a1.782,1.782,0,0,1,.812-1.475,3.344,3.344,0,0,0-1.456-.342,3.035,3.035,0,1,0,0,6.059,3.17,3.17,0,0,0,3.168-2.519A1.905,1.905,0,0,1,184.867,182.818Z"
        data-name="Path 3216"
        fill="#919191"
        id="Path_3216" stroke="rgba(0,0,0,0)" stroke-width="1" transform="translate(-173.224 -178.54)"/>
    </g>
  </g>
</svg>
