<svg width="111" height="20" viewBox="0 0 111 20" fill="none" xmlns="http://www.w3.org/2000/svg">
<path d="M52.1309 14.9398L50.8719 12.2028H47.3799L46.5929 10.6028H50.1319L48.2889 6.56083H48.0959L44.1789 14.9398H41.4789L46.4679 5.06083H49.8679L54.7129 14.9388L52.1309 14.9398ZM26.9309 14.9398L25.6709 12.2028H22.1789L21.3919 10.6028H24.9309L23.0869 6.56083H22.8939L18.9769 14.9398H16.2769L21.2659 5.06083H24.6659L29.5039 14.9398H26.9309ZM11.4839 14.9398L8.97291 7.61983H8.81291L6.31291 14.9398H3.44391L0.00390625 5.06083H2.58591L4.82791 12.5008H5.01691L7.56491 5.06083H10.2709L12.8269 12.5248H13.0039L15.4619 5.06083H18.0889L14.4159 14.9398H11.4839ZM75.8899 14.9398V10.9538H70.6899L69.6579 8.94083H75.8869V5.06083H78.2569V14.9388L75.8899 14.9398ZM66.8279 14.9398V5.06083H69.1979V14.9388L66.8279 14.9398ZM56.0279 14.9398L55.0529 12.9898H61.8939C62.0475 12.9953 62.2007 12.9704 62.3447 12.9166C62.4887 12.8628 62.6207 12.7812 62.7331 12.6763C62.8455 12.5714 62.9361 12.4454 62.9997 12.3055C63.0633 12.1656 63.0987 12.0145 63.1039 11.8608C63.0945 11.5516 62.9629 11.2588 62.738 11.0464C62.5131 10.834 62.2131 10.7195 61.9039 10.7278H57.6039C57.1369 10.7326 56.6757 10.6233 56.2606 10.4093C55.8455 10.1953 55.4889 9.88306 55.2219 9.49983C55.1214 9.35174 55.0354 9.19435 54.9649 9.02983C54.8188 8.68834 54.7435 8.32076 54.7435 7.94933C54.7435 7.5779 54.8188 7.21032 54.9649 6.86883C55.2104 6.32358 55.61 5.86197 56.1143 5.54076C56.6187 5.21954 57.206 5.05273 57.8039 5.06083H64.2469V6.86083H58.1809C57.8893 6.85574 57.6077 6.96665 57.3978 7.16917C57.188 7.37169 57.0672 7.64925 57.0619 7.94083C57.0644 8.08529 57.0953 8.22785 57.1529 8.36036C57.2104 8.49287 57.2936 8.61275 57.3975 8.71313C57.5014 8.81351 57.6241 8.89244 57.7585 8.94541C57.8929 8.99838 58.0364 9.02435 58.1809 9.02183H62.4169C62.6693 9.0217 62.9209 9.05021 63.1669 9.10683C63.7945 9.26247 64.3458 9.63739 64.7212 10.1639C65.0966 10.6904 65.2713 11.3338 65.2139 11.9778C65.2133 12.5874 65.0158 13.1805 64.6509 13.6688C64.3505 14.0663 63.9613 14.3879 63.5143 14.6079C63.0674 14.8279 62.5751 14.9402 62.0769 14.9358L56.0279 14.9398ZM30.4029 14.9398V5.06083H37.8439C39.6439 5.06083 41.0999 6.06083 41.0999 7.29983C41.0999 8.40983 40.8789 9.44483 38.3839 9.69983V9.82183C40.9769 9.86083 41.4039 11.0758 41.4039 12.3608C41.4039 13.7828 39.8109 14.9348 37.8449 14.9348L30.4029 14.9398ZM32.7479 13.3678H37.3119C37.7021 13.392 38.0861 13.2613 38.3804 13.004C38.6747 12.7468 38.8557 12.3837 38.8839 11.9938C38.8559 11.6037 38.6751 11.2405 38.3807 10.983C38.0864 10.7255 37.7022 10.5946 37.3119 10.6188H32.7499L32.7479 13.3678ZM32.7479 9.21483H37.2069C37.571 9.23765 37.9295 9.11576 38.2042 8.87568C38.4789 8.63559 38.6477 8.29674 38.6739 7.93283C38.6477 7.56892 38.4789 7.23006 38.2042 6.98998C37.9295 6.7499 37.571 6.62801 37.2069 6.65083H32.7499L32.7479 9.21483Z" fill="#007CF5"/>
</svg>
