<svg width="111" height="20" viewBox="0 0 111 20" fill="none" xmlns="http://www.w3.org/2000/svg">
<path fill-rule="evenodd" clip-rule="evenodd" d="M14.9516 15.3614C14.4105 15.3693 13.8701 15.3227 13.3384 15.2222C12.9333 15.1494 12.5545 14.9718 12.2395 14.707C11.935 14.4242 11.7198 14.0587 11.6201 13.6553C11.4772 13.0762 11.4126 12.4805 11.428 11.8842V7.97719C11.413 7.38223 11.4776 6.78793 11.6201 6.2101C11.719 5.80848 11.9309 5.44356 12.2306 5.15847C12.539 4.89376 12.9124 4.71592 13.3123 4.64324C13.8408 4.54135 14.3784 4.49362 14.9166 4.5008H19.2249C19.7654 4.49346 20.3055 4.53652 20.8381 4.62941C21.2409 4.69431 21.618 4.86892 21.928 5.13406C22.2277 5.41917 22.4395 5.78408 22.5385 6.18568C22.6814 6.76483 22.746 7.36052 22.7306 7.95684V11.0694H15.3179V11.8638C15.3072 11.96 15.3253 12.0572 15.37 12.143C15.4047 12.1859 15.4861 12.2073 15.6142 12.2073H22.4864V15.3622L14.9516 15.3614ZM18.9636 7.87301C18.975 7.76558 18.9537 7.65721 18.9025 7.56208C18.8681 7.53235 18.8277 7.51029 18.784 7.49738C18.7404 7.48447 18.6945 7.481 18.6494 7.48719H15.6142C15.4861 7.48719 15.4047 7.51215 15.37 7.56208C15.3257 7.65938 15.3078 7.76659 15.3179 7.87301V8.90347H18.9636V7.87301ZM0.00390625 15.3615V4.50097H7.67622C8.08594 4.49341 8.49527 4.52997 8.89715 4.61004C9.1856 4.66518 9.45384 4.79705 9.67366 4.99178C9.87837 5.1918 10.022 5.44584 10.088 5.72434C10.1782 6.10443 10.2195 6.49449 10.2109 6.88504V8.04167C10.2201 8.41346 10.1585 8.78361 10.0294 9.13236C9.96563 9.28499 9.86873 9.42151 9.74568 9.53203C9.62264 9.64254 9.47653 9.72428 9.31797 9.77132C9.48952 9.82998 9.64677 9.92417 9.77945 10.0477C9.91213 10.1713 10.0173 10.3215 10.088 10.4884C10.2147 10.8647 10.274 11.2604 10.263 11.6572V12.7789C10.2766 13.2431 10.2264 13.7071 10.114 14.1577C10.0375 14.4585 9.87314 14.7296 9.64192 14.9367C9.40193 15.129 9.11297 15.2505 8.80762 15.2875C8.39834 15.3451 7.98534 15.3723 7.57204 15.3689L0.00390625 15.3615ZM7.30099 11.1697C7.30863 11.0995 7.28977 11.0289 7.24809 10.9719C7.19318 10.929 7.12359 10.9094 7.05436 10.9174H2.96669V12.7081H7.05518C7.12441 12.716 7.19399 12.6964 7.2489 12.6535C7.29194 12.5864 7.31035 12.5064 7.30099 12.4272V11.1697ZM7.30099 7.28957C7.30973 7.21083 7.29104 7.13149 7.24809 7.06492C7.19318 7.02201 7.12359 7.00242 7.05436 7.01039H2.96669V8.61143H7.05518C7.12441 8.6194 7.19399 8.59981 7.2489 8.5569C7.29071 8.49533 7.30918 8.42087 7.30099 8.3469V7.28957ZM36.5938 4.50098V15.3615L46.3734 15.364V12.5591H40.3176V4.50098H36.5938ZM47.2227 15.3615V4.50098H50.9465V12.5591H57.0023V15.364L47.2227 15.3615ZM25.4439 15.3535C26.0289 15.4574 26.6226 15.5045 27.2167 15.4943H35.3375V8.12394C35.3531 7.50455 35.2921 6.88559 35.1559 6.28115C35.0666 5.87309 34.854 5.50232 34.5471 5.21895C34.2268 4.95768 33.8391 4.79232 33.4287 4.74197C32.8625 4.66268 32.2911 4.62649 31.7194 4.63371H24.2311V7.6258H30.9657C31.0125 7.61952 31.0601 7.62301 31.1055 7.63603C31.1509 7.64906 31.1931 7.67135 31.2294 7.7015C31.2814 7.78985 31.3037 7.89257 31.2929 7.99452V8.7751H27.2565C26.6815 8.7674 26.1068 8.80714 25.5383 8.89394C25.1337 8.94956 24.7454 9.0899 24.3988 9.3058C24.1092 9.49908 23.8893 9.78007 23.7712 10.1075C23.631 10.53 23.5662 10.9739 23.5799 11.4188V12.3077C23.5676 12.8364 23.6256 13.3644 23.7525 13.8778C23.8453 14.2539 24.0479 14.5938 24.3344 14.8545C24.6543 15.1149 25.0368 15.2869 25.4439 15.3535ZM27.8165 10.985H31.2864L31.2905 12.3085H27.8174C27.7749 12.3124 27.7322 12.3078 27.6916 12.2948C27.651 12.2817 27.6135 12.2607 27.5813 12.2328C27.5213 12.1397 27.4957 12.0286 27.5089 11.9186V11.3749C27.497 11.2661 27.5192 11.1563 27.5724 11.0607C27.6054 11.0315 27.6442 11.0097 27.6863 10.9967C27.7284 10.9836 27.7728 10.9796 27.8165 10.985Z" fill="#231F20"/>
</svg>
