<svg width="111" height="20" viewBox="0 0 111 20" fill="none" xmlns="http://www.w3.org/2000/svg">
<path fill-rule="evenodd" clip-rule="evenodd" d="M4.3745 3.77499C4.33118 3.8084 4.30131 3.85628 4.29036 3.90989L0.0163555 15.9179C-0.0196445 16.0389 0.0223556 16.0999 0.143356 16.0999H3.12736C3.18194 16.1027 3.23573 16.0859 3.27901 16.0525C3.32229 16.0192 3.35221 15.9714 3.36336 15.9179L3.94536 14.0079H7.96836L8.55036 15.9179C8.56131 15.9715 8.59118 16.0194 8.6345 16.0528C8.67783 16.0862 8.73173 16.1029 8.78636 16.0999H11.7864C11.9064 16.0999 11.9494 16.0389 11.9134 15.9179L7.72835 3.90989C7.7174 3.85628 7.68753 3.8084 7.64421 3.77499C7.60088 3.74158 7.54698 3.72486 7.49235 3.72789H4.52636C4.47173 3.72486 4.41783 3.74158 4.3745 3.77499ZM6.01936 7.49389L7.16836 11.3509H4.76836L5.96836 7.49389H6.01936ZM13.195 16.1002H13.238L13.236 16.0982H15.488C15.5129 16.1017 15.5382 16.0967 15.56 16.0842C15.5916 16.0624 15.6165 16.0323 15.632 15.9972V8.5782L15.661 8.5492C15.6775 8.53748 15.6979 8.53248 15.718 8.5352H18.16C18.1733 8.53541 18.1865 8.53295 18.1989 8.52797C18.2113 8.52299 18.2225 8.51559 18.232 8.5062C18.2466 8.49079 18.258 8.47256 18.2654 8.45262C18.2728 8.43268 18.276 8.41144 18.275 8.3902V6.4272C18.2752 6.41388 18.2727 6.40064 18.2677 6.38828C18.2628 6.37591 18.2554 6.36467 18.246 6.3552L18.232 6.3262C18.219 6.31277 18.2035 6.30205 18.1863 6.29466C18.1691 6.28728 18.1507 6.28339 18.132 6.2832H10.554C10.5227 6.291 10.4953 6.30991 10.4769 6.3364C10.4585 6.36289 10.4503 6.39516 10.454 6.4272V8.3922C10.4521 8.42188 10.4569 8.45161 10.468 8.4792L10.482 8.4932L10.496 8.5072C10.503 8.51561 10.5117 8.52251 10.5215 8.52749C10.5313 8.53247 10.542 8.53543 10.553 8.5362H13.022C13.07 8.5562 13.094 8.5842 13.094 8.6232V16.0002C13.0946 16.0112 13.0975 16.0219 13.1025 16.0317C13.1075 16.0415 13.1145 16.0502 13.123 16.0572C13.1408 16.08 13.1664 16.0954 13.195 16.1002ZM24.2205 16.0996C24.1737 16.1027 24.1271 16.0903 24.0881 16.0643C24.049 16.0382 24.0196 16 24.0045 15.9556L22.5175 12.6066H21.5785C21.5667 12.6049 21.5547 12.606 21.5434 12.6098C21.5321 12.6136 21.5218 12.6199 21.5133 12.6284C21.5049 12.6368 21.4985 12.6471 21.4948 12.6584C21.491 12.6697 21.4899 12.6818 21.4915 12.6936V15.9556C21.4942 15.9752 21.4923 15.9952 21.486 16.0139C21.4796 16.0327 21.469 16.0497 21.4549 16.0637C21.4409 16.0776 21.4237 16.0881 21.4049 16.0944C21.3861 16.1006 21.3661 16.1024 21.3465 16.0996H19.0955C19.0759 16.1024 19.0559 16.1006 19.0371 16.0944C19.0183 16.0881 19.0012 16.0776 18.9872 16.0637C18.9731 16.0497 18.9625 16.0327 18.9561 16.0139C18.9498 15.9952 18.9479 15.9752 18.9505 15.9556V6.42757C18.9477 6.40786 18.9495 6.38777 18.9558 6.36888C18.962 6.34998 18.9726 6.33282 18.9867 6.31874C19.0008 6.30466 19.018 6.29406 19.0369 6.28778C19.0557 6.2815 19.0758 6.27972 19.0955 6.28257H23.0955C23.6049 6.27541 24.1119 6.35348 24.5955 6.51357C25.0088 6.65038 25.3879 6.87405 25.7075 7.16957C26.0041 7.45083 26.2379 7.79161 26.3935 8.16957C26.5559 8.57339 26.6368 9.00535 26.6315 9.44057C26.642 10.0142 26.4976 10.5801 26.2135 11.0786C25.9313 11.556 25.5137 11.9388 25.0135 12.1786L26.8135 15.9166C26.8228 15.9356 26.8276 15.9564 26.8276 15.9776C26.8276 15.9987 26.8228 16.0196 26.8135 16.0386C26.8032 16.0555 26.7884 16.0692 26.7708 16.0782C26.7531 16.0872 26.7333 16.0912 26.7135 16.0896H24.2135L24.2205 16.0996ZM22.9355 10.5126C23.2451 10.5321 23.5503 10.4314 23.7875 10.2316C23.982 10.0271 24.0904 9.75573 24.0904 9.47357C24.0904 9.19141 23.982 8.92004 23.7875 8.71557C23.5503 8.51573 23.2451 8.41508 22.9355 8.43457H21.5785C21.5667 8.4329 21.5547 8.434 21.5434 8.43779C21.5321 8.44157 21.5218 8.44793 21.5133 8.45637C21.5049 8.4648 21.4985 8.47508 21.4948 8.4864C21.491 8.49771 21.4899 8.50975 21.4915 8.52157V10.4216C21.4899 10.4334 21.491 10.4454 21.4948 10.4567C21.4985 10.4681 21.5049 10.4783 21.5133 10.4868C21.5218 10.4952 21.5321 10.5016 21.5434 10.5054C21.5547 10.5091 21.5667 10.5102 21.5785 10.5086H22.9355V10.5126ZM28.8928 15.6658C29.5876 16.0793 30.3844 16.2896 31.1927 16.2728C31.9981 16.2879 32.7916 16.0777 33.4837 15.6658C34.151 15.2565 34.644 14.6157 34.8687 13.8658C34.9267 13.6818 34.9748 13.5008 35.0138 13.3238C35.0528 13.1468 35.0848 12.9548 35.1078 12.7538C35.1308 12.5528 35.1428 12.3248 35.1508 12.0758C35.1588 11.8269 35.1588 11.5321 35.1588 11.1963V11.1958C35.1588 11.0154 35.1564 10.8471 35.1543 10.6913C35.1525 10.5568 35.1508 10.4316 35.1508 10.3158C35.1479 10.0892 35.1335 9.86294 35.1078 9.63781C35.0828 9.43581 35.0528 9.24781 35.0138 9.07481C34.9748 8.90181 34.9257 8.71981 34.8687 8.52681C34.6444 7.77678 34.1512 7.13587 33.4837 6.72681C32.784 6.32917 31.993 6.12012 31.1882 6.12012C30.3834 6.12012 29.5925 6.32917 28.8928 6.72681C28.2255 7.13616 27.7325 7.77696 27.5078 8.52681C27.4498 8.71881 27.4014 8.90148 27.3627 9.07481C27.3219 9.26045 27.2928 9.4485 27.2758 9.63781C27.2564 9.83648 27.2421 10.0625 27.2328 10.3158C27.2234 10.5691 27.2188 10.8625 27.2188 11.1958C27.2194 11.5305 27.2241 11.8238 27.2328 12.0758C27.2414 12.3278 27.2558 12.5538 27.2758 12.7538C27.2938 12.9453 27.3228 13.1356 27.3627 13.3238C27.4017 13.5028 27.4508 13.6828 27.5078 13.8658C27.7321 14.6158 28.2253 15.2567 28.8928 15.6658ZM31.9928 13.7958C31.7558 13.9518 31.4763 14.0304 31.1927 14.0208C30.9092 14.0309 30.6295 13.9523 30.3928 13.7958C30.1719 13.6393 30.0115 13.4116 29.9388 13.1508C29.9083 13.0586 29.8842 12.9644 29.8668 12.8688C29.8453 12.7441 29.831 12.6182 29.8238 12.4918C29.8167 12.3864 29.8127 12.2652 29.8081 12.1288C29.8062 12.0712 29.8041 12.0108 29.8018 11.9478C29.7938 11.7358 29.7937 11.4838 29.7937 11.1938C29.7937 10.9038 29.7968 10.6528 29.8018 10.4398C29.8068 10.2268 29.8138 10.0458 29.8238 9.89581C29.8298 9.76934 29.8442 9.6434 29.8668 9.51881C29.8844 9.42297 29.9084 9.32842 29.9388 9.23581C30.0115 8.97503 30.1718 8.74725 30.3928 8.59081C30.6338 8.44402 30.9105 8.36637 31.1927 8.36637C31.475 8.36637 31.7517 8.44402 31.9928 8.59081C32.2134 8.74754 32.3737 8.97521 32.4467 9.23581C32.4766 9.32857 32.5006 9.42308 32.5188 9.51881C32.5402 9.64356 32.5546 9.76943 32.5618 9.89581C32.5688 10.0012 32.5728 10.1225 32.5774 10.2588C32.5794 10.3165 32.5814 10.3768 32.5838 10.4398C32.5918 10.6517 32.5918 10.9036 32.5918 11.1934V11.1938C32.5918 11.4838 32.5888 11.7348 32.5838 11.9478C32.5788 12.1608 32.5718 12.3418 32.5618 12.4918C32.5546 12.6182 32.5402 12.7441 32.5188 12.8688C32.5012 12.9643 32.4771 13.0585 32.4467 13.1508C32.374 13.4116 32.2137 13.6394 31.9928 13.7958Z" fill="#00498E"/>
</svg>
