<svg xmlns="http://www.w3.org/2000/svg" width="110" height="20" viewBox="0 0 110 20">
  <g id="Trailer_-_Dorsey" data-name="Trailer - Dorsey" transform="translate(-353.877 -9728)">
    <rect id="Rectangle_63535" data-name="Rectangle 63535" width="110" height="20" transform="translate(353.877 9728)" fill="#ef3f35" opacity="0"/>
    <path id="Union_701" data-name="Union 701" d="M38.936,13.348l1.44-4.406L39.958,2.68h2.067l.24,3.451L44.758,2.68H47.25L42.656,9.1l-1.387,4.245Zm-9.28,0h-5.09l.559-1.753h2.93a.294.294,0,0,0,.28-.2L29,9.363a.664.664,0,0,0-.661-.935H27.154c-.993,0-.58-1.262-.58-1.262l1.1-3.488a1.474,1.474,0,0,1,1.415-1h4.527l-.568,1.735H30.188a.412.412,0,0,0-.374.288l-.353,1.053a.541.541,0,0,0-.028.172.533.533,0,0,0,.535.532H31.33a.762.762,0,0,1,.725,1L30.279,12.9a.655.655,0,0,1-.623.451Zm-12.766,0,2.916-8.933h-.627l.554-1.734h5.532c1.261,0,1.021.99,1.021.99s-.4,1.835-.7,2.82a1.906,1.906,0,0,1-1.341,1.206c.763.258.454,1.4.454,1.4L24,11.455a1.325,1.325,0,0,0-.054.373V13.3H21.226V11.842a1.324,1.324,0,0,1,.076-.431l.706-2.2H20.842l-1.361,4.134Zm4.885-6.8h.63c.611,0,.906-.8.906-.8.481-1.228-.505-1.277-.505-1.277h-.434Zm9.29,6.8L34.552,2.678h4.831l-.567,1.735H36.4L35.983,5.7h2.41L37.64,8.012H35.227l-1.143,3.495H36.5l-.6,1.84ZM10.33,13.337c-2.035,0-1.261-1.95-1.261-1.95l2.446-7.439s.394-1.281,1.478-1.281h5.081c1.148,0,.652,1.28.652,1.28l-2.532,8.015A1.674,1.674,0,0,1,14.7,13.337Zm3.306-8.215L11.777,10.8c-.359.931.407.887.407.887h.8A1.139,1.139,0,0,0,14,10.75L15.725,5.3v0s.338-.824-.445-.876h-.958C14.247,4.425,13.841,4.456,13.636,5.122ZM0,13.164,3.617,2.15H2.447L3.118,0H9.307c2.254,0,1.381,2.477,1.381,2.477s-2.633,8.162-3.1,9.5a1.57,1.57,0,0,1-1.462,1.188ZM3.358,11.3H4.58a1.343,1.343,0,0,0,1.2-1.106L7.819,3.742l0,0s.4-.975-.524-1.028H6.165Z" transform="translate(353.877 9731.263)" fill="#ef3f35"/>
  </g>
</svg>
