<svg width="111" height="20" viewBox="0 0 111 20" fill="none" xmlns="http://www.w3.org/2000/svg">
<path fill-rule="evenodd" clip-rule="evenodd" d="M71.5368 6.03998V3L0.0158119 3.00497C0.0163382 3.55495 0.0140948 4.10438 0.0118513 4.65384C0.00983194 5.1484 0.0078125 5.64298 0.0078125 6.138C1.08481 6.119 2.16181 6.11298 3.23981 6.11298V17.021C3.63515 17.021 4.03048 17.0217 4.42581 17.0223C5.21648 17.0237 6.00715 17.025 6.79781 17.021V6.03998H71.5368ZM43.8233 9.27767C44.63 8.48976 45.7108 8.04529 46.8384 8.03768C47.5696 8.02794 48.2972 8.14363 48.9894 8.37969C49.0104 9.45769 49.0424 10.5357 49.0774 11.6147C48.6557 11.1993 48.1248 10.9122 47.5464 10.7867C47.2491 10.7367 46.9439 10.7672 46.6625 10.8752C46.3811 10.9832 46.1338 11.1647 45.9463 11.4007C45.7611 11.6331 45.6443 11.9126 45.6089 12.2078C45.5736 12.5029 45.6212 12.8021 45.7464 13.0717C45.9088 13.4033 46.1713 13.6754 46.4968 13.8497C46.8223 14.0239 47.1944 14.0914 47.5603 14.0427C48.1395 13.9559 48.6742 13.6815 49.0824 13.2617C49.0444 14.3247 49.0123 15.3867 48.9933 16.4497C48.3234 16.6684 47.6231 16.7798 46.9184 16.7797C46.3121 16.8052 45.7073 16.7007 45.1448 16.4733C44.5822 16.2459 44.0748 15.9008 43.6565 15.4612C43.2383 15.0216 42.9189 14.4975 42.7198 13.9243C42.5208 13.3511 42.4466 12.7419 42.5024 12.1377C42.5737 11.0537 43.0443 10.0347 43.8233 9.27767ZM9.36647 8.17001H13.2305C14.102 8.14915 14.9569 8.41086 15.6675 8.91602C15.9439 9.14601 16.1697 9.43086 16.3305 9.75256C16.4912 10.0743 16.5835 10.4258 16.6015 10.785C16.685 11.3744 16.5703 11.9749 16.2755 12.492C15.9334 12.9056 15.4698 13.2009 14.9505 13.336C15.1745 13.5123 15.3722 13.7198 15.5375 13.952C15.7374 14.2519 15.9385 14.5511 16.1396 14.8503C16.5422 15.4491 16.9447 16.0479 17.3375 16.652H13.7785C13.5933 16.2896 13.4137 15.9238 13.2342 15.558L13.2342 15.558L13.2342 15.558L13.2342 15.558L13.2341 15.558L13.2341 15.5579C12.9599 14.9994 12.6857 14.4409 12.3915 13.894C12.3799 14.4267 12.3817 14.9598 12.3836 15.493V15.4931C12.3849 15.8797 12.3863 16.2664 12.3825 16.653C11.9535 16.6482 11.5243 16.6497 11.0952 16.6511H11.095H11.095H11.0949H11.0949H11.0949H11.0948C10.5358 16.653 9.97679 16.6549 9.41847 16.643L9.35547 16.577C9.36755 14.9662 9.36573 13.353 9.36391 11.7394C9.36256 10.5482 9.36122 9.35685 9.36546 8.16602L9.36647 8.17001ZM12.3855 10.492V11.922C12.6911 11.9465 12.9983 11.9035 13.2855 11.796C13.3686 11.7398 13.4392 11.6671 13.4931 11.5825C13.547 11.4978 13.5829 11.403 13.5987 11.304C13.6144 11.2049 13.6097 11.1036 13.5847 11.0064C13.5597 10.9093 13.5151 10.8182 13.4535 10.739C13.2268 10.4965 12.8855 10.4971 12.5708 10.4976C12.5079 10.4978 12.4461 10.4979 12.3865 10.496L12.3855 10.492ZM25.4404 8.1709H19.7404C19.7424 10.9876 19.7384 13.8043 19.7344 16.6279V16.6282V16.6285V16.6288V16.6292L19.7344 16.6619H25.5274V14.3289H22.8374V13.5069H25.2084V11.3009H22.8404V10.5009H25.4404V8.1709ZM29.2322 11.2266L29.2323 11.2261C29.3979 10.2072 29.5634 9.18836 29.7274 8.16925C30.1494 8.17723 30.5719 8.17391 30.9944 8.17059C31.631 8.16559 32.2676 8.16059 32.9024 8.19425C33.0964 8.85983 33.269 9.53267 33.4416 10.2052L33.4416 10.2053L33.4416 10.2055C33.6533 11.0303 33.8647 11.8545 34.1154 12.6642C34.2814 11.6795 34.5651 10.7234 34.8489 9.76702L34.8489 9.76698L34.8489 9.76693L34.8489 9.76689C35.006 9.23737 35.1632 8.70779 35.3004 8.17325H38.4624C38.6832 9.57133 38.914 10.968 39.1449 12.3646L39.1449 12.3647L39.1449 12.365L39.145 12.3654C39.3814 13.7955 39.6177 15.2256 39.8434 16.6573C39.4518 16.6525 39.0602 16.6548 38.6685 16.6571H38.6685H38.6684H38.6684C38.0676 16.6606 37.4668 16.664 36.8664 16.6422C36.7889 15.9291 36.7276 15.214 36.6664 14.4988L36.6663 14.4986C36.5939 13.6533 36.5215 12.808 36.4224 11.9663C36.2858 12.6097 36.0813 13.2302 35.8767 13.8506C35.7952 14.098 35.7136 14.3454 35.6364 14.5942C35.5645 14.8189 35.4918 15.0433 35.4191 15.2676L35.4187 15.269L35.4182 15.2705L35.4176 15.2724L35.4173 15.2734L35.4172 15.2736L35.4171 15.2739C35.2679 15.7343 35.1188 16.1944 34.9774 16.6563C34.8211 16.6563 34.6649 16.6568 34.5087 16.6573H34.5086C34.0589 16.6588 33.6091 16.6604 33.1594 16.6492C32.9569 15.9647 32.746 15.2829 32.5352 14.6011L32.5348 14.5998L32.5347 14.5995C32.3822 14.1064 32.2297 13.6134 32.0804 13.1192C32.0153 12.9027 31.9732 12.681 31.9311 12.4595L31.9311 12.4595C31.8982 12.2862 31.8653 12.113 31.8214 11.9422C31.6915 13.0796 31.5827 14.2217 31.474 15.3632L31.474 15.3634C31.4328 15.7955 31.3917 16.2276 31.3494 16.6592C30.3534 16.6552 29.3567 16.6543 28.3594 16.6563C28.644 14.8456 28.938 13.0365 29.232 11.2275L29.2321 11.2271L29.2322 11.2266ZM51.3024 16.6469L51.3018 16.6488L51.3008 16.6469L51.3024 16.6469ZM51.3024 16.6469C51.8466 15.093 52.3863 13.538 52.9258 11.9831L52.926 11.9827C53.3668 10.7124 53.8076 9.44224 54.2508 8.17285H57.6658C58.1063 9.42005 58.5517 10.6653 58.9971 11.9105C59.5627 13.4918 60.1282 15.0729 60.6838 16.6578H57.4158C57.3224 16.3025 57.2278 15.9482 57.1318 15.5948H54.8188C54.7923 15.7053 54.7684 15.8166 54.7446 15.928L54.7445 15.9282L54.7445 15.9284L54.7445 15.9285C54.6936 16.1658 54.6427 16.4036 54.5658 16.6349C53.7284 16.6703 52.8875 16.6618 52.048 16.6533L52.0478 16.6533C51.7992 16.6508 51.5507 16.6482 51.3024 16.6469ZM55.5673 12.6932L55.5673 12.6931L55.5673 12.6931C55.6874 12.1027 55.8074 11.5124 55.9808 10.9369L55.9818 10.9359C56.0705 11.2375 56.1384 11.5449 56.1848 11.8558C56.251 12.1557 56.3235 12.4543 56.396 12.7529C56.4625 13.0268 56.529 13.3007 56.5908 13.5758H55.3808C55.4474 13.2828 55.5074 12.988 55.5673 12.6932ZM63.2363 8.17149H66.3683C67.3579 8.0743 68.3546 8.26165 69.2413 8.7115C69.5678 8.90618 69.8455 9.17272 70.0535 9.49086C70.2614 9.809 70.394 10.1704 70.4413 10.5475C70.5633 11.1779 70.4788 11.8309 70.2003 12.4095C69.8601 12.8714 69.3715 13.2022 68.8163 13.3465C69.2667 13.7416 69.6441 14.2128 69.9313 14.7385C70.0917 14.98 70.2533 15.2203 70.4149 15.4606C70.6817 15.8572 70.9484 16.2538 71.2094 16.6555C70.8127 16.6555 70.416 16.6562 70.0193 16.6568C69.226 16.6582 68.4327 16.6595 67.6393 16.6555C67.4905 16.3581 67.3448 16.059 67.1991 15.76L67.1985 15.7589C66.8952 15.1362 66.5919 14.5136 66.2603 13.9065C66.2455 14.4298 66.2476 14.9537 66.2497 15.4779V15.478C66.2514 15.8714 66.253 16.2649 66.2474 16.6585H63.2344V8.1765L63.2363 8.17149ZM66.2493 10.5015V11.9315C66.2971 11.9301 66.3465 11.9296 66.3966 11.929C66.741 11.9254 67.1266 11.9213 67.3544 11.6315C67.4333 11.4909 67.4706 11.3308 67.462 11.1699C67.4533 11.0089 67.399 10.8537 67.3054 10.7225C66.9949 10.5173 66.6186 10.4367 66.2513 10.4965L66.2493 10.5015Z" fill="#004B95"/>
</svg>
