<svg width="14" height="14" viewBox="0 0 14 14" fill="none" xmlns="http://www.w3.org/2000/svg">
<path d="M3.21232 2.42244C3.21346 2.49899 3.2146 2.57641 3.2146 2.65507L10.7824 2.65818V2.13163C10.7961 2.03308 10.7869 1.9327 10.7553 1.83833C10.7238 1.74396 10.6709 1.65816 10.6007 1.58766C10.5305 1.51715 10.4449 1.46385 10.3507 1.43192C10.2564 1.4 10.1561 1.39031 10.0575 1.40363H3.93872C3.92241 1.40363 3.90602 1.4032 3.8896 1.40276C3.85667 1.4019 3.82363 1.40103 3.79094 1.40363C3.64186 1.41424 3.50158 1.47817 3.39575 1.58371C3.28992 1.68925 3.22562 1.82935 3.2146 1.9784C3.2079 2.12483 3.21009 2.27193 3.21232 2.42244Z" fill="#6C6C6C"/>
<path fill-rule="evenodd" clip-rule="evenodd" d="M12.6006 3.30202C12.7862 3.30202 12.9643 3.37576 13.0955 3.50704C13.2268 3.63832 13.3006 3.81636 13.3006 4.00202V4.55113H12.6877V9.44335H13.3006V9.99557C13.3006 10.1812 13.2268 10.3593 13.0955 10.4905C12.9643 10.6218 12.7862 10.6956 12.6006 10.6956H1.40056C1.21491 10.6956 1.03686 10.6218 0.905587 10.4905C0.774311 10.3593 0.700562 10.1812 0.700562 9.99557V9.44335H1.31267V4.56124H0.700562V4.00202C0.700562 3.81636 0.774311 3.63832 0.905587 3.50704C1.03686 3.37576 1.21491 3.30202 1.40056 3.30202H12.6006ZM3.22134 9.4309H4.46578V4.56746H3.22134V9.4309ZM9.53067 9.4309H10.7751V4.56513H9.53067V9.4309ZM6.38067 9.4309H7.61812V4.5659H6.37834L6.38067 9.4309Z" fill="#6C6C6C"/>
<path d="M3.71648 12.6001C3.55023 12.5553 3.40653 12.4504 3.31326 12.3057C3.21999 12.161 3.1838 11.9868 3.2117 11.8169C3.21891 11.7138 3.21657 11.6135 3.21417 11.5106C3.21294 11.4581 3.2117 11.4048 3.2117 11.3502H10.774C10.786 11.5951 10.7839 11.8405 10.7678 12.0852C10.7477 12.2102 10.6906 12.3263 10.604 12.4186C10.5174 12.5109 10.4051 12.5752 10.2817 12.6032L3.71648 12.6001Z" fill="#6C6C6C"/>
</svg>
