<svg width="14" height="14" viewBox="0 0 14 14" fill="none" xmlns="http://www.w3.org/2000/svg">
<path d="M6.12547 8.89302C6.33251 9.17435 6.63193 9.37386 6.97129 9.45663L6.67602 6.71388C6.36016 6.85977 6.10759 7.1148 5.96477 7.43206L4.59839 7.57354C4.44931 7.33735 4.24675 7.13953 4.00709 6.99608L4.98439 1.13151C4.99143 1.06844 4.97421 1.00507 4.93622 0.954231C4.89824 0.903394 4.84234 0.868904 4.77986 0.857775L3.7941 0.703993C3.76261 0.698147 3.73028 0.698649 3.69898 0.70546C3.66769 0.712271 3.63807 0.725258 3.61186 0.743662C3.58565 0.762066 3.56338 0.785517 3.54635 0.812639C3.52931 0.839761 3.51787 0.870007 3.51268 0.901609L2.84371 4.9V4.90768L2.52 6.87151C2.16491 7.00143 1.86303 7.24563 1.66178 7.56573C1.46053 7.88584 1.37131 8.26372 1.40814 8.64003C1.45325 9.02765 1.6278 9.38873 1.90356 9.66485C2.17932 9.94097 2.54016 10.116 2.92772 10.1616C3.31528 10.2072 3.7069 10.1208 4.03924 9.91625C4.37158 9.71171 4.62521 9.40104 4.7591 9.03449L6.12547 8.89302Z" fill="#6C6C6C"/>
<path d="M11.7984 12.9981L10.8687 13.1112L9.58003 2.45083L10.5097 2.33857C10.8792 2.29448 11.2512 2.39861 11.5442 2.62818C11.8372 2.85775 12.0273 3.19404 12.0729 3.56345L13.024 11.4288C13.0692 11.7993 12.9657 12.1727 12.7361 12.467C12.5065 12.7613 12.1695 12.9526 11.7991 12.9989L11.7984 12.9981Z" fill="#6C6C6C"/>
<path d="M9.06255 2.51518L10.3443 13.177L9.42164 13.2901C9.23816 13.3123 9.05211 13.2981 8.87414 13.2482C8.69618 13.1983 8.5298 13.1138 8.38457 12.9995C8.23934 12.8852 8.1181 12.7434 8.02781 12.5821C7.93752 12.4209 7.87996 12.2434 7.85842 12.0598L6.90804 4.19066C6.88495 4.00756 6.89837 3.82169 6.94753 3.6438C6.99668 3.46592 7.08059 3.29954 7.1944 3.15426C7.30822 3.00899 7.44969 2.8877 7.61065 2.79741C7.7716 2.70712 7.94885 2.64962 8.13216 2.62821L9.06255 2.51518Z" fill="#6C6C6C"/>
</svg>
