<svg width="14" height="14" viewBox="0 0 14 14" fill="none" xmlns="http://www.w3.org/2000/svg">
<path d="M12.5132 3.8499H11.7253V2.66846C11.7253 2.56408 11.6839 2.46398 11.61 2.39017C11.5362 2.31636 11.4361 2.2749 11.3318 2.2749H8.96887C8.91719 2.2749 8.86601 2.28508 8.81826 2.30486C8.77052 2.32464 8.72713 2.35362 8.69059 2.39017C8.65404 2.42671 8.62505 2.4701 8.60527 2.51785C8.5855 2.5656 8.57532 2.61677 8.57532 2.66846V3.8499H5.42532V2.66846C5.42532 2.61677 5.41514 2.5656 5.39536 2.51785C5.37558 2.4701 5.34659 2.42671 5.31005 2.39017C5.2735 2.35362 5.23012 2.32464 5.18237 2.30486C5.13462 2.28508 5.08344 2.2749 5.03176 2.2749H2.66887C2.5645 2.2749 2.46439 2.31636 2.39059 2.39017C2.31678 2.46398 2.27532 2.56408 2.27532 2.66846V3.8499H1.48743C1.27874 3.85011 1.07865 3.9331 0.931084 4.08067C0.783517 4.22824 0.700523 4.42832 0.700317 4.63702L0.700317 10.937C0.700317 11.1458 0.78322 11.3461 0.93081 11.4939C1.0784 11.6416 1.2786 11.7247 1.48743 11.7249H12.5132C12.722 11.7247 12.9222 11.6416 13.0698 11.4939C13.2174 11.3461 13.3003 11.1458 13.3003 10.937V4.63702C13.3001 4.42832 13.2171 4.22824 13.0695 4.08067C12.922 3.9331 12.7219 3.85011 12.5132 3.8499ZM5.42532 7.19434C5.42532 7.24653 5.40458 7.29659 5.36768 7.33349C5.33078 7.37039 5.28073 7.39113 5.22854 7.39113H2.4721C2.41991 7.39113 2.36986 7.37039 2.33295 7.33349C2.29605 7.29659 2.27532 7.24653 2.27532 7.19434V6.80079C2.27532 6.7486 2.29605 6.69855 2.33295 6.66165C2.36986 6.62474 2.41991 6.60402 2.4721 6.60402H5.22854C5.25438 6.60402 5.27997 6.6091 5.30384 6.61899C5.32772 6.62888 5.34941 6.64337 5.36768 6.66165C5.38595 6.67992 5.40045 6.70162 5.41034 6.72549C5.42023 6.74936 5.42532 6.77495 5.42532 6.80079V7.19434ZM11.7253 7.19434C11.7253 7.24653 11.7046 7.29659 11.6677 7.33349C11.6308 7.37039 11.5807 7.39113 11.5285 7.39113H10.5439V8.37579C10.5439 8.42798 10.5231 8.47803 10.4862 8.51493C10.4493 8.55184 10.3993 8.57257 10.3471 8.57257H9.95587C9.90368 8.57257 9.85363 8.55184 9.81673 8.51493C9.77983 8.47803 9.7591 8.42798 9.7591 8.37579V7.39346H8.77209C8.74625 7.39346 8.72067 7.38837 8.69679 7.37848C8.67292 7.36859 8.65122 7.35409 8.63295 7.33582C8.61468 7.31755 8.60018 7.29586 8.5903 7.27199C8.58041 7.24811 8.57532 7.22252 8.57532 7.19668V6.80312C8.57532 6.77728 8.58041 6.7517 8.5903 6.72782C8.60018 6.70395 8.61468 6.68226 8.63295 6.66398C8.65122 6.64571 8.67292 6.63121 8.69679 6.62132C8.72067 6.61144 8.74625 6.60635 8.77209 6.60635H9.75676V5.61935C9.75676 5.56716 9.77749 5.51711 9.8144 5.4802C9.8513 5.4433 9.90135 5.42257 9.95354 5.42257H10.3448C10.3969 5.42257 10.447 5.4433 10.4839 5.4802C10.5208 5.51711 10.5415 5.56716 10.5415 5.61935V6.60402H11.5262C11.5784 6.60402 11.6284 6.62474 11.6653 6.66165C11.7023 6.69855 11.723 6.7486 11.723 6.80079L11.7253 7.19434Z" fill="#6C6C6C"/>
</svg>
