<svg width="14" height="14" viewBox="0 0 14 14" fill="none" xmlns="http://www.w3.org/2000/svg">
<path d="M5.49352 2.84349C5.89279 2.96434 6.24751 3.20034 6.51322 3.52192C6.77893 3.84351 6.94381 4.23636 6.9872 4.65125C7.0306 5.06614 6.95057 5.48461 6.75714 5.85421C6.56372 6.22381 6.26551 6.52811 5.89989 6.72895C5.53426 6.92979 5.11749 7.01825 4.70181 6.98324C4.28613 6.94823 3.89003 6.79131 3.56315 6.53214C3.23627 6.27298 2.99315 5.92309 2.86428 5.52635C2.7354 5.1296 2.72649 4.70364 2.83866 4.30185C2.91453 4.0301 3.0439 3.77624 3.21919 3.55516C3.39447 3.33408 3.61214 3.15023 3.85942 3.01439C4.10671 2.87856 4.37863 2.79347 4.65923 2.76412C4.93984 2.73478 5.22348 2.76176 5.49352 2.84349Z" fill="#6C6C6C"/>
<path d="M10.9009 9.33526C11.1255 9.40266 11.3252 9.53488 11.4749 9.71535C11.6246 9.89582 11.7177 10.1165 11.7425 10.3497C11.7673 10.5828 11.7227 10.8182 11.6142 11.0261C11.5058 11.234 11.3383 11.4052 11.1329 11.5183C10.9275 11.6314 10.6932 11.6813 10.4596 11.6618C10.2259 11.6423 10.0032 11.5541 9.8194 11.4085C9.63561 11.2629 9.49893 11.0662 9.4265 10.8432C9.35407 10.6202 9.34912 10.3807 9.41227 10.1549C9.50103 9.84881 9.70771 9.59053 9.98687 9.43683C10.266 9.28313 10.5948 9.24659 10.9009 9.33526Z" fill="#6C6C6C"/>
<path fill-rule="evenodd" clip-rule="evenodd" d="M12.6299 8.73797L12.6436 8.75841H12.6421C12.9306 9.08917 13.1331 9.48596 13.2317 9.91365C13.3303 10.3413 13.322 10.7867 13.2074 11.2104L13.2006 11.2173C13.1235 11.4844 13.004 11.7374 12.8464 11.9665C12.6463 12.261 12.3901 12.5131 12.0925 12.7085C11.7948 12.9039 11.4616 13.0386 11.1118 13.1051C10.762 13.1715 10.4025 13.1683 10.054 13.0956C9.70546 13.023 9.37466 12.8823 9.08054 12.6817L2.89521 8.50639C1.98675 8.02177 1.29105 7.21655 0.943446 6.24737C0.595837 5.27819 0.621176 4.21435 1.01453 3.26282C1.40789 2.31129 2.14114 1.5401 3.07163 1.09928C4.00212 0.658453 5.06333 0.579522 6.0488 0.877833C6.9701 1.13137 7.77903 1.68808 8.34493 2.45803L8.39186 2.51933L12.6299 8.73797ZM2.54549 6.67205C2.94416 7.19376 3.50306 7.57019 4.13636 7.74354C4.51342 7.85243 4.90825 7.88594 5.29827 7.84217C5.6883 7.7984 6.06587 7.67819 6.40942 7.48843C6.75296 7.29866 7.05574 7.04306 7.30046 6.73622C7.54517 6.42938 7.72702 6.07732 7.83561 5.70017C7.9402 5.32423 7.96877 4.93121 7.91965 4.5441C7.87053 4.15699 7.7447 3.78356 7.54954 3.44566C7.15369 2.75317 6.50124 2.24426 5.73321 2.02893C4.9705 1.80877 4.15159 1.9003 3.4563 2.28341C2.76102 2.66653 2.2462 3.30991 2.02488 4.07229H2.03169C1.96429 4.32795 1.92996 4.59119 1.92953 4.85558C1.93043 5.51218 2.14682 6.15033 2.54549 6.67205ZM5.30259 9.04145L7.87572 10.7064L7.88026 10.7087C7.84509 10.3859 7.8752 10.0593 7.9688 9.7483C8.06332 9.40903 8.22469 9.09207 8.44341 8.81603C8.66214 8.53999 8.93382 8.31043 9.2425 8.14086C9.72058 7.8861 10.2629 7.77717 10.8023 7.82754L9.15396 5.25442C9.13431 5.51763 9.08635 5.77796 9.01092 6.0309C8.77513 6.85187 8.29313 7.58073 7.62999 8.11909C6.96685 8.65745 6.15449 8.97939 5.30259 9.04145ZM12.0806 11.6488C12.2345 11.455 12.3486 11.2327 12.4165 10.9948C12.4847 10.7578 12.5042 10.5103 12.4737 10.2656C12.4433 10.0209 12.3636 9.78498 12.2394 9.57197C11.9867 9.14012 11.5766 8.82282 11.0952 8.68651C10.9205 8.63469 10.7392 8.60918 10.5571 8.61083C10.1012 8.60816 9.66013 8.77222 9.31682 9.07212C8.97351 9.37201 8.75168 9.78707 8.69307 10.2391C8.63447 10.6912 8.74315 11.1491 8.99864 11.5266C9.25414 11.9041 9.63882 12.1752 10.0803 12.2889H10.0871C10.325 12.3569 10.574 12.3775 10.8199 12.3493C11.0657 12.321 11.3036 12.2447 11.52 12.1245C11.7363 12.0043 11.9268 11.8427 12.0806 11.6488Z" fill="#6C6C6C"/>
</svg>
