<svg width="14" height="14" viewBox="0 0 14 14" fill="none" xmlns="http://www.w3.org/2000/svg">
<path d="M8.24472 11.3112C8.18284 11.3112 8.12347 11.2866 8.07971 11.2429C8.03595 11.1991 8.01135 11.1399 8.01135 11.0781V2.92202C8.01135 2.86014 8.03595 2.80096 8.07971 2.7572C8.12347 2.71344 8.18284 2.68884 8.24472 2.68884H9.05839C9.12027 2.68884 9.17964 2.71344 9.2234 2.7572C9.26716 2.80096 9.29157 2.86014 9.29157 2.92202V3.59954H10.8278C10.8584 3.59954 10.8887 3.60529 10.917 3.61701C10.9453 3.62874 10.9711 3.64623 10.9928 3.6679C11.0144 3.68957 11.0316 3.71555 11.0433 3.74386C11.055 3.77217 11.0611 3.80208 11.0611 3.83272V4.372H11.7331C11.795 4.372 11.8544 4.3966 11.8982 4.44036C11.9419 4.48412 11.9665 4.5433 11.9665 4.60518V4.76089C11.9665 4.82278 11.9419 4.88195 11.8982 4.92571C11.8544 4.96947 11.795 4.99407 11.7331 4.99407H11.0611V6.41671H13.0654C13.1273 6.41671 13.1866 6.44131 13.2304 6.48507C13.2742 6.52883 13.2988 6.58801 13.2988 6.64989V7.35019C13.2988 7.41208 13.2742 7.47126 13.2304 7.51501C13.1866 7.55877 13.1273 7.58337 13.0654 7.58337H11.0611V9.00373H11.7331C11.795 9.00373 11.8544 9.02833 11.8982 9.07209C11.9419 9.11585 11.9665 9.17503 11.9665 9.23691V9.39262C11.9665 9.4545 11.9419 9.51368 11.8982 9.55744C11.8544 9.6012 11.795 9.6258 11.7331 9.6258H11.0611V10.1704C11.0611 10.201 11.055 10.231 11.0433 10.2593C11.0316 10.2876 11.0144 10.3136 10.9928 10.3352C10.9711 10.3569 10.9453 10.3744 10.917 10.3861C10.8887 10.3978 10.8584 10.4036 10.8278 10.4036H9.29157V11.0826C9.29157 11.1445 9.26716 11.2037 9.2234 11.2474C9.17964 11.2912 9.12027 11.3158 9.05839 11.3158L8.24472 11.3112ZM4.02144 11.3112C3.9908 11.3112 3.96051 11.3055 3.9322 11.2938C3.90389 11.282 3.8781 11.2645 3.85643 11.2429C3.83476 11.2212 3.81765 11.1952 3.80592 11.1669C3.7942 11.1386 3.78807 11.1087 3.78807 11.0781V10.399H2.9558C2.35759 10.399 1.78393 10.1612 1.36093 9.73821C0.937936 9.31521 0.700317 8.74137 0.700317 8.14316V5.85616C0.700317 5.25795 0.937936 4.68411 1.36093 4.26111C1.78393 3.83811 2.35759 3.6003 2.9558 3.6003H3.78807V2.92278C3.78807 2.89214 3.7942 2.86223 3.80592 2.83392C3.81765 2.80561 3.83476 2.77963 3.85643 2.75796C3.8781 2.73629 3.90389 2.7188 3.9322 2.70707C3.96051 2.69535 3.9908 2.6896 4.02144 2.6896H4.84043C4.87107 2.6896 4.90136 2.69535 4.92967 2.70707C4.95798 2.7188 4.98377 2.73629 5.00544 2.75796C5.02711 2.77963 5.04422 2.80561 5.05595 2.83392C5.06768 2.86223 5.0738 2.89214 5.0738 2.92278V11.0788C5.0738 11.1095 5.06768 11.1394 5.05595 11.1677C5.04422 11.196 5.02711 11.222 5.00544 11.2436C4.98377 11.2653 4.95798 11.2828 4.92967 11.2945C4.90136 11.3063 4.87107 11.312 4.84043 11.312L4.02144 11.3112ZM5.84607 10.3998C5.78419 10.3998 5.72482 10.3752 5.68106 10.3314C5.6373 10.2877 5.6127 10.2285 5.6127 10.1666V3.83272C5.6127 3.77084 5.6373 3.71166 5.68106 3.6679C5.72482 3.62414 5.78419 3.59954 5.84607 3.59954H7.23282C7.2947 3.59954 7.35407 3.62414 7.39783 3.6679C7.44159 3.71166 7.46619 3.77084 7.46619 3.83272V10.1666C7.46619 10.2285 7.44159 10.2877 7.39783 10.3314C7.35407 10.3752 7.2947 10.3998 7.23282 10.3998H5.84607ZM6.10128 4.4153C6.06964 4.53088 6.08435 4.65458 6.14248 4.75937C6.20062 4.86416 6.2975 4.94226 6.41231 4.9766C6.47017 4.99409 6.53088 4.99953 6.591 4.99331C6.65112 4.9871 6.70941 4.9691 6.76247 4.94014C6.81552 4.91119 6.86238 4.87189 6.90013 4.82469C6.93789 4.7775 6.96575 4.7233 6.98235 4.66519C6.9998 4.60784 7.00576 4.54786 6.99982 4.48821C6.99388 4.42857 6.97621 4.3701 6.94779 4.31731C6.91938 4.26453 6.88076 4.2184 6.83424 4.1806C6.78772 4.1428 6.7343 4.11405 6.67683 4.09705C6.63463 4.08478 6.59088 4.07917 6.54694 4.07958C6.44637 4.08008 6.3485 4.11321 6.26819 4.17376C6.18788 4.23431 6.12944 4.31875 6.10128 4.4153Z" fill="#6C6C6C"/>
</svg>
