<svg width="14" height="14" viewBox="0 0 14 14" fill="none" xmlns="http://www.w3.org/2000/svg">
<path d="M13.3003 7.00032C13.3003 8.24634 12.9308 9.46438 12.2386 10.5004C11.5463 11.5364 10.5624 12.3439 9.41123 12.8208C8.26005 13.2976 6.99333 13.4224 5.77125 13.1793C4.54917 12.9362 3.42662 12.3362 2.54555 11.4551C1.66448 10.574 1.06446 9.45146 0.821373 8.22938C0.578286 7.0073 0.703047 5.74058 1.17988 4.58941C1.65671 3.43823 2.4642 2.45431 3.50023 1.76205C4.53626 1.0698 5.7543 0.700317 7.00032 0.700317C8.67118 0.700317 10.2736 1.36406 11.4551 2.54554C12.6366 3.72702 13.3003 5.32945 13.3003 7.00032ZM7.00032 2.27609C6.84465 2.27609 6.69246 2.32226 6.56302 2.40874C6.43359 2.49523 6.3327 2.61816 6.27312 2.76199C6.21355 2.90581 6.19796 3.06408 6.22833 3.21676C6.2587 3.36945 6.33367 3.50969 6.44375 3.61977C6.55383 3.72985 6.69408 3.80482 6.84676 3.83519C6.99945 3.86556 7.15771 3.84997 7.30154 3.7904C7.44536 3.73082 7.56829 3.62994 7.65478 3.5005C7.74127 3.37106 7.78743 3.21888 7.78743 3.0632C7.78743 2.85445 7.7045 2.65424 7.55689 2.50663C7.40928 2.35902 7.20908 2.27609 7.00032 2.27609ZM7.00032 10.9382C7.41814 10.9382 7.81885 10.7722 8.11429 10.4768C8.40973 10.1813 8.57571 9.78063 8.57571 9.36281C8.57571 8.94499 8.40973 8.54429 8.11429 8.24885C7.81885 7.9534 7.41814 7.78743 7.00032 7.78743H6.95443C6.95443 7.78743 4.43288 2.71865 4.13265 2.84853C3.83243 2.97842 5.87099 8.26498 5.87099 8.26498C5.65542 8.4871 5.51004 8.76778 5.45299 9.07201C5.39595 9.37623 5.42976 9.69053 5.55022 9.97566C5.67067 10.2608 5.87243 10.5041 6.13032 10.6753C6.38821 10.8465 6.69079 10.9379 7.00032 10.9382ZM3.06243 6.21398C2.90676 6.21398 2.75458 6.26015 2.62514 6.34664C2.4957 6.43312 2.39481 6.55605 2.33524 6.69988C2.27566 6.8437 2.26007 7.00197 2.29044 7.15465C2.32082 7.30734 2.39578 7.44758 2.50586 7.55766C2.61594 7.66774 2.75619 7.74271 2.90887 7.77308C3.06156 7.80345 3.21982 7.78786 3.36365 7.72829C3.50747 7.66872 3.6304 7.56783 3.71689 7.43839C3.80338 7.30895 3.84954 7.15677 3.84954 7.00109C3.84964 6.8977 3.82936 6.7953 3.78984 6.69975C3.75032 6.60421 3.69234 6.5174 3.61923 6.44429C3.54612 6.37118 3.45931 6.31321 3.36377 6.27369C3.26822 6.23417 3.16583 6.21388 3.06243 6.21398ZM10.9374 7.78821C11.0931 7.78805 11.2452 7.74175 11.3745 7.65517C11.5039 7.56859 11.6046 7.44561 11.6641 7.30177C11.7235 7.15793 11.739 6.99969 11.7085 6.84706C11.6781 6.69443 11.6031 6.55425 11.493 6.44425C11.3828 6.33425 11.2426 6.25936 11.0899 6.22905C10.9373 6.19874 10.779 6.21438 10.6353 6.27397C10.4915 6.33357 10.3686 6.43446 10.2821 6.56388C10.1957 6.6933 10.1495 6.84545 10.1495 7.00109C10.1494 7.10455 10.1698 7.20702 10.2093 7.30261C10.2489 7.3982 10.3069 7.48505 10.3801 7.55817C10.4533 7.63129 10.5402 7.68925 10.6359 7.72872C10.7315 7.7682 10.834 7.78841 10.9374 7.78821ZM9.75677 3.45754C9.60112 3.45769 9.44902 3.50398 9.31968 3.59057C9.19034 3.67715 9.08958 3.80013 9.03012 3.94397C8.97067 4.08781 8.95519 4.24605 8.98565 4.39868C9.01611 4.55132 9.09114 4.69149 9.20125 4.80149C9.31136 4.9115 9.45161 4.98638 9.60427 5.01669C9.75693 5.047 9.91516 5.03137 10.0589 4.97177C10.2027 4.91217 10.3256 4.81129 10.4121 4.68186C10.4985 4.55244 10.5447 4.40029 10.5447 4.24465C10.5447 4.14122 10.5243 4.0388 10.4847 3.94325C10.4451 3.8477 10.387 3.7609 10.3138 3.6878C10.2407 3.6147 10.1538 3.55674 10.0582 3.51723C9.96263 3.47772 9.8602 3.45744 9.75677 3.45754Z" fill="#6C6C6C"/>
</svg>
