<svg width="14" height="14" viewBox="0 0 14 14" fill="none" xmlns="http://www.w3.org/2000/svg">
<path d="M10.5442 2.27532H8.57564C8.57564 1.8576 8.4097 1.45699 8.11433 1.16162C7.81896 0.866254 7.41835 0.700317 7.00064 0.700317C6.58292 0.700317 6.18231 0.866254 5.88694 1.16162C5.59157 1.45699 5.42564 1.8576 5.42564 2.27532H3.45708C3.14374 2.27532 2.84324 2.39979 2.62167 2.62135C2.40011 2.84292 2.27563 3.14342 2.27563 3.45676V12.1189C2.27563 12.274 2.30619 12.4277 2.36557 12.571C2.42494 12.7143 2.51196 12.8446 2.62167 12.9543C2.73138 13.064 2.86162 13.151 3.00496 13.2104C3.1483 13.2698 3.30193 13.3003 3.45708 13.3003H10.5442C10.6993 13.3003 10.853 13.2698 10.9963 13.2104C11.1397 13.151 11.2699 13.064 11.3796 12.9543C11.4893 12.8446 11.5763 12.7143 11.6357 12.571C11.6951 12.4277 11.7256 12.274 11.7256 12.1189V3.45676C11.7256 3.14342 11.6012 2.84292 11.3796 2.62135C11.158 2.39979 10.8575 2.27532 10.5442 2.27532ZM7.00064 1.68498C7.11739 1.68498 7.23153 1.71961 7.32861 1.78447C7.42569 1.84934 7.50135 1.94154 7.54603 2.04941C7.59071 2.15728 7.6024 2.27597 7.57963 2.39049C7.55685 2.505 7.50062 2.61019 7.41806 2.69275C7.3355 2.77531 7.23032 2.83153 7.1158 2.85431C7.00129 2.87709 6.88259 2.8654 6.77472 2.82071C6.66685 2.77603 6.57466 2.70037 6.50979 2.60329C6.44492 2.50621 6.4103 2.39207 6.4103 2.27532C6.4102 2.19776 6.4254 2.12095 6.45503 2.04929C6.48466 1.97762 6.52814 1.9125 6.58298 1.85766C6.63782 1.80282 6.70293 1.75934 6.7746 1.72971C6.84627 1.70008 6.92308 1.68488 7.00064 1.68498ZM3.88952 5.85387L4.20063 5.54276C4.22542 5.51806 4.25898 5.5042 4.29397 5.5042C4.32896 5.5042 4.36252 5.51806 4.3873 5.54276L4.89441 6.05454L6.06808 4.89409C6.09286 4.8694 6.12642 4.85553 6.16141 4.85553C6.1964 4.85553 6.22996 4.8694 6.25475 4.89409L6.56586 5.20521C6.59055 5.22999 6.60442 5.26355 6.60442 5.29854C6.60442 5.33353 6.59055 5.36709 6.56586 5.39187L4.98541 6.95832C4.96063 6.98301 4.92707 6.99688 4.89208 6.99688C4.85709 6.99688 4.82353 6.98301 4.79875 6.95832L3.8903 6.04054C3.8656 6.01576 3.85174 5.98219 3.85174 5.94721C3.85174 5.91222 3.8656 5.87866 3.8903 5.85387H3.88952ZM4.63775 10.3448C4.52099 10.3448 4.40685 10.3101 4.30977 10.2453C4.21269 10.1804 4.13703 10.0882 4.09235 9.98034C4.04767 9.87247 4.03598 9.75377 4.05876 9.63926C4.08153 9.52475 4.13776 9.41956 4.22032 9.337C4.30288 9.25444 4.40806 9.19822 4.52258 9.17544C4.63709 9.15266 4.75579 9.16435 4.86366 9.20903C4.97153 9.25371 5.06372 9.32938 5.12859 9.42646C5.19346 9.52354 5.22808 9.63767 5.22808 9.75443C5.22818 9.83198 5.21298 9.90879 5.18335 9.98046C5.15372 10.0521 5.11024 10.1172 5.0554 10.1721C5.00057 10.2269 4.93545 10.2704 4.86378 10.3C4.79211 10.3297 4.7153 10.3449 4.63775 10.3448ZM10.1506 9.95121C10.1504 10.0033 10.1296 10.0533 10.0928 10.0901C10.0559 10.127 10.006 10.1478 9.95386 10.148H6.4103C6.35818 10.1478 6.30824 10.127 6.27139 10.0901C6.23453 10.0533 6.21373 10.0033 6.21352 9.95121V9.55765C6.21373 9.50552 6.23453 9.45559 6.27139 9.41873C6.30824 9.38188 6.35818 9.36108 6.4103 9.36087H9.95386C10.006 9.36108 10.0559 9.38188 10.0928 9.41873C10.1296 9.45559 10.1504 9.50552 10.1506 9.55765V9.95121ZM10.1506 6.80121C10.1449 6.85789 10.1174 6.91011 10.0738 6.94684C10.0303 6.98357 9.97413 7.00191 9.9173 6.99798H6.06808L6.86452 6.21243H9.91419C9.97102 6.2085 10.0272 6.22685 10.0707 6.26357C10.1143 6.3003 10.1418 6.35253 10.1475 6.40921V6.80276L10.1506 6.80121Z" fill="#6C6C6C"/>
</svg>
