<svg xmlns="http://www.w3.org/2000/svg" width="19" height="19" viewBox="0 0 19 19">
  <g id="Group_78697" data-name="Group 78697" transform="translate(-536.5 -556.837)">
    <rect id="Rectangle_59959" data-name="Rectangle 59959" width="18" height="18" transform="translate(537 557.337)" fill="none" stroke="rgba(0,0,0,0)" stroke-width="1"/>
    <path id="Path_36410" data-name="Path 36410" d="M5.235,43.158a.893.893,0,0,1-.649-1.007c.014-.2,0-.392,0-.6h9.723a8.264,8.264,0,0,1-.008.945.816.816,0,0,1-.625.666Z" transform="translate(536.542 530.379)" fill="#aaa" stroke="rgba(0,0,0,0)" stroke-width="1"/>
    <path id="Path_36411" data-name="Path 36411" d="M16.3,30.054a.9.9,0,0,1,.9.9v.706h-.788v6.29H17.2v.71a.9.9,0,0,1-.9.9H1.9a.9.9,0,0,1-.9-.9v-.71h.787V31.673H1v-.719a.9.9,0,0,1,.9-.9ZM4.241,37.934h1.6V31.681h-1.6Zm8.112,0h1.6V31.678h-1.6Zm-4.05,0H9.894V31.679H8.3Z" transform="translate(536.9 531.528)" fill="#aaa" stroke="rgba(0,0,0,0)" stroke-width="1"/>
    <path id="Path_36412" data-name="Path 36412" d="M4.591,28.95c0-.3-.013-.586,0-.87a.8.8,0,0,1,.741-.739c.063-.005.127,0,.19,0h7.867a.829.829,0,0,1,.932.936c0,.221,0,.443,0,.677Z" transform="translate(536.541 531.8)" fill="#aaa" stroke="rgba(0,0,0,0)" stroke-width="1"/>
  </g>
</svg>
