<svg xmlns="http://www.w3.org/2000/svg" width="19" height="19" viewBox="0 0 19 19">
  <g id="Group_78702" data-name="Group 78702" transform="translate(-536.5 -620.787)">
    <rect id="Rectangle_59963" data-name="Rectangle 59963" width="18" height="18" transform="translate(537 621.287)" fill="none" stroke="rgba(0,0,0,0)" stroke-width="1"/>
    <path id="Path_36416" data-name="Path 36416" d="M17.6,97.319v2.3a.327.327,0,0,1-.284.324l-1.67.193-.031.131a6.9,6.9,0,0,1-.679,1.651l-.05.1,1.033,1.346a.325.325,0,0,1-.021.426l-1.61,1.629a.323.323,0,0,1-.415.031l-.87-.7a4.075,4.075,0,0,0,.031-1.852c-.092-.355-.2-.7-.324-1.043l-.152-.384c-.01-.021-.01-.031-.021-.051a4.593,4.593,0,0,0,1.043-2.946,4.5,4.5,0,0,0-1.205-3.138,4.561,4.561,0,0,0-6.8,6.074l-.091.212-.152.385a6.922,6.922,0,0,0-.365,1.528,3.874,3.874,0,0,0,.122,1.246l-.851.678a.35.35,0,0,1-.426-.02l-1.6-1.64a.323.323,0,0,1-.02-.426l1.032-1.356-.06-.091a7.617,7.617,0,0,1-.669-1.661l-.031-.112-1.67-.2A.353.353,0,0,1,.5,99.628V97.319A.336.336,0,0,1,.793,97l1.66-.212.041-.112a6.54,6.54,0,0,1,.669-1.66l.06-.1L2.191,93.573a.334.334,0,0,1,.01-.425l1.609-1.63a.312.312,0,0,1,.416-.031l1.326,1.053.112-.061a6.627,6.627,0,0,1,1.63-.678l.112-.031.2-1.7a.317.317,0,0,1,.314-.283h2.268a.317.317,0,0,1,.313.283l.2,1.7.122.031a6.7,6.7,0,0,1,1.62.678l.112.061,1.327-1.053a.311.311,0,0,1,.415.031l1.6,1.62a.313.313,0,0,1,.031.425L14.887,94.91l.071.1a8.142,8.142,0,0,1,.668,1.66l.021.121,1.68.2a.336.336,0,0,1,.274.324" transform="translate(536.95 531.95)" fill="#b7b7b7" stroke="rgba(0,0,0,0)" stroke-width="1"/>
    <path id="Path_36417" data-name="Path 36417" d="M12.576,105.543a1.151,1.151,0,0,1-.078.229,1.8,1.8,0,0,1-.106.245,2.966,2.966,0,0,1-.586.815c-.086.079-.175.16-.261.229a.9.9,0,0,1-.193.134,1.368,1.368,0,0,1-.191.121,3.015,3.015,0,0,1-2.984.01,1.474,1.474,0,0,1-.192-.114,1.222,1.222,0,0,1-.184-.134,2.922,2.922,0,0,1-.349-.31A3.439,3.439,0,0,1,6.9,106c-.035-.08-.078-.169-.113-.245a1.862,1.862,0,0,1-.07-.221,3,3,0,0,1-.14-1.107,5.59,5.59,0,0,1,.367-1.4c0-.01.009-.018.009-.027.026-.054.053-.115.078-.168a1.028,1.028,0,0,1,.069-.169,21.073,21.073,0,0,1,1.169-2.339l.01-.011c.427-.748.889-1.5,1.378-2.224.332.506.671,1.038,1.021,1.614.488.825.836,1.465,1.141,2.092a7.685,7.685,0,0,1,.4.876c.026.053.045.107.071.169s.043.114.069.177c.113.32.213.641.3.962a3.07,3.07,0,0,1-.085,1.565" transform="translate(536.343 531.12)" fill="#b7b7b7" stroke="rgba(0,0,0,0)" stroke-width="1"/>
  </g>
</svg>
