<svg xmlns="http://www.w3.org/2000/svg" width="19" height="19" viewBox="0 0 19 19">
  <g id="Group_78704" data-name="Group 78704" transform="translate(-536.5 -588.844)">
    <rect id="Rectangle_59961" data-name="Rectangle 59961" width="18" height="18" transform="translate(537 589.344)" fill="none" stroke="rgba(0,0,0,0)" stroke-width="1"/>
    <path id="Path_36413" data-name="Path 36413" d="M7.384,61.334a2.8,2.8,0,1,1-3.508,1.927,2.8,2.8,0,0,1,3.508-1.927h0" transform="translate(536.623 531.612)" fill="#aaa" stroke="rgba(0,0,0,0)" stroke-width="1"/>
    <path id="Path_36414" data-name="Path 36414" d="M15.5,70.871a1.573,1.573,0,1,1-1.967,1.083A1.588,1.588,0,0,1,15.5,70.871" transform="translate(535.652 530.654)" fill="#aaa" stroke="rgba(0,0,0,0)" stroke-width="1"/>
    <path id="Path_36415" data-name="Path 36415" d="M16.531,68.849l-.018-.027-5.6-8.217-.062-.081a5.614,5.614,0,0,0-3.034-2.088,5.48,5.48,0,0,0-4.167,10.08l7.893,5.328.28.189a3.578,3.578,0,0,0,4.976-.945,3.418,3.418,0,0,0,.468-.99l.009-.009a3.528,3.528,0,0,0-.747-3.24M5.29,67.508a3.962,3.962,0,0,1-2.916-3.816,4.086,4.086,0,0,1,.135-1.035H2.5a3.959,3.959,0,0,1,4.9-2.7,4.012,4.012,0,0,1,2.4,1.872,3.878,3.878,0,0,1,.378,2.979,3.947,3.947,0,0,1-4.888,2.7m4.941,3.915-3.4-2.2a5.515,5.515,0,0,0,4.9-3.978,4.854,4.854,0,0,0,.189-1.026l2.178,3.4a3.659,3.659,0,0,0-2.061.414,3.493,3.493,0,0,0-1.683,2.124,3.2,3.2,0,0,0-.117,1.269m5.994.378a2.489,2.489,0,0,1-3.078,1.71h-.009a2.469,2.469,0,0,1,.63-4.86,2.422,2.422,0,0,1,.711.1,2.56,2.56,0,0,1,1.512,1.17,2.411,2.411,0,0,1,.234,1.881" transform="translate(536.925 531.914)" fill="#aaa" stroke="rgba(0,0,0,0)" stroke-width="1"/>
  </g>
</svg>
