<svg xmlns="http://www.w3.org/2000/svg" width="19" height="19" viewBox="0 0 19 19">
  <g id="Group_78710" data-name="Group 78710" transform="translate(-536.5 -679.253)">
    <rect id="Rectangle_59967" data-name="Rectangle 59967" width="18" height="18" transform="translate(537 679.753)" fill="none" stroke="rgba(0,0,0,0)" stroke-width="1"/>
    <path id="Path_36421" data-name="Path 36421" d="M12.352,151.134,14.019,165l-1.2.147a1.826,1.826,0,0,1-2.033-1.6L9.55,153.313a1.817,1.817,0,0,1,1.592-2.032Z" transform="translate(536.046 531.662)" fill="#b7b7b7" stroke="rgba(0,0,0,0)" stroke-width="1"/>
    <path id="Path_36422" data-name="Path 36422" d="M16.3,164.741l-1.209.147-1.676-13.864,1.209-.146a1.83,1.83,0,0,1,2.033,1.593L17.894,162.7a1.834,1.834,0,0,1-1.593,2.042" transform="translate(535.658 531.689)" fill="#b7b7b7" stroke="rgba(0,0,0,0)" stroke-width="1"/>
    <path id="Path_36423" data-name="Path 36423" d="M8.838,159.9a1.935,1.935,0,0,1-1.1-.733l-1.777.184a2.255,2.255,0,0,1-4.358-.513,2.219,2.219,0,0,1,1.446-2.3l.421-2.554v-.01l.87-5.2a.313.313,0,0,1,.366-.257l1.282.2a.325.325,0,0,1,.266.356L4.983,156.7a2.316,2.316,0,0,1,.769.751l1.777-.184a1.878,1.878,0,0,1,.925-.934Z" transform="translate(536.841 531.924)" fill="#b7b7b7" stroke="rgba(0,0,0,0)" stroke-width="1"/>
  </g>
</svg>
