<svg width="18" height="18" viewBox="0 0 18 18" fill="none" xmlns="http://www.w3.org/2000/svg">
<path d="M10.2022 6.47916C9.66021 6.22236 9.05001 6.14663 8.46169 6.26314C7.91872 6.37103 7.41993 6.6375 7.02841 7.02887C6.63688 7.42023 6.3702 7.91891 6.26209 8.46184C6.14534 9.05011 6.22083 9.66034 6.4774 10.2024C6.73398 10.7445 7.15805 11.1898 7.68702 11.4724C8.21598 11.7551 8.82181 11.8602 9.41508 11.7722C10.0083 11.6842 10.5576 11.4079 10.9818 10.9839C11.4059 10.5599 11.6826 10.0107 11.7708 9.41748C11.859 8.82425 11.7541 8.21838 11.4717 7.6893C11.1893 7.16022 10.7442 6.73596 10.2022 6.47916Z" fill="#919191"/>
<path fill-rule="evenodd" clip-rule="evenodd" d="M2.08531 3.19941L3.14101 2.13651L3.13741 2.14011C3.23146 2.045 3.34336 1.96937 3.46668 1.91757C3.59001 1.86576 3.72234 1.8388 3.8561 1.83821C3.98987 1.83763 4.12243 1.86343 4.2462 1.91416C4.36998 1.96488 4.48253 2.03952 4.57741 2.13381L5.18671 2.73681C5.81387 2.35509 6.49504 2.07019 7.20721 1.89171V1.02591C7.20721 0.756724 7.31383 0.498497 7.50375 0.307732C7.69367 0.116968 7.95143 0.00919982 8.22061 0.00800979L9.72001 0.00170938C9.9891 0.00147081 10.2473 0.108077 10.4378 0.2981C10.6283 0.488124 10.7356 0.746018 10.7361 1.01511V1.87191C11.4491 2.04478 12.1318 2.32455 12.7611 2.70171L13.3623 2.09331C13.4563 1.99809 13.5682 1.92237 13.6915 1.8705C13.8148 1.81862 13.9472 1.79162 14.081 1.79104C14.2148 1.79045 14.3474 1.81629 14.4712 1.86709C14.595 1.91788 14.7075 1.99262 14.8023 2.08701L15.8634 3.14181C15.9586 3.23586 16.0342 3.34778 16.086 3.47115C16.1378 3.59451 16.1647 3.72689 16.1652 3.86069C16.1657 3.99448 16.1398 4.12706 16.0889 4.25081C16.0381 4.37456 15.9633 4.48705 15.8688 4.58181L15.2631 5.19291C15.6453 5.81907 15.9308 6.49933 16.11 7.21071H16.9758C17.2453 7.21095 17.5038 7.31786 17.6947 7.5081C17.8856 7.69833 17.9934 7.9564 17.9946 8.22591L18 9.72171C17.9993 9.99019 17.8925 10.2475 17.7028 10.4375C17.5131 10.6275 17.256 10.7348 16.9875 10.736H16.1298C15.956 11.4498 15.6763 12.1336 15.3 12.7646L15.9111 13.3667C16.0057 13.4605 16.081 13.572 16.1325 13.6948C16.184 13.8177 16.2108 13.9495 16.2114 14.0827C16.212 14.2159 16.1863 14.348 16.1359 14.4713C16.0855 14.5946 16.0112 14.7067 15.9174 14.8013L14.8608 15.8669C14.767 15.9615 14.6554 16.0366 14.5325 16.0881C14.4097 16.1395 14.2778 16.1663 14.1446 16.1668C14.0114 16.1673 13.8794 16.1415 13.7561 16.091C13.6329 16.0405 13.5208 15.9662 13.4262 15.8723L12.8151 15.2657C12.1876 15.6475 11.5061 15.9327 10.7937 16.1117V16.9766C10.7937 17.246 10.687 17.5045 10.4969 17.6954C10.3068 17.8864 10.0488 17.9942 9.77941 17.9954L8.28001 18.0017C8.14697 18.0024 8.0151 17.9769 7.89192 17.9266C7.76875 17.8763 7.65669 17.8023 7.56216 17.7087C7.46763 17.615 7.39247 17.5037 7.34099 17.381C7.2895 17.2584 7.2627 17.1267 7.26211 16.9937V16.1324C6.54921 15.9588 5.86654 15.6788 5.23711 15.3017L4.63501 15.9128C4.54123 16.0074 4.42974 16.0827 4.30689 16.1342C4.18403 16.1857 4.05223 16.2125 3.91901 16.2131C3.7858 16.2137 3.65377 16.188 3.53047 16.1376C3.40717 16.0872 3.29501 16.0129 3.20041 15.9191L2.13481 14.8616C2.04024 14.7678 1.96509 14.6562 1.91364 14.5333C1.86219 14.4105 1.83545 14.2786 1.83494 14.1454C1.83444 14.0122 1.86019 13.8802 1.91071 13.7569C1.96124 13.6337 2.03555 13.5216 2.12941 13.427L2.73601 12.8168C2.35348 12.1896 2.06824 11.5081 1.89001 10.7954H1.02331C0.753969 10.7954 0.495606 10.6887 0.304816 10.4985C0.114026 10.3084 0.0063626 10.0504 0.00541002 9.78111L1.00187e-05 8.28171C-0.000582619 8.1486 0.0251225 8.01669 0.0756496 7.89355C0.126177 7.77041 0.20053 7.65846 0.294441 7.56413C0.388353 7.4698 0.499972 7.39495 0.62289 7.34387C0.745808 7.2928 0.877603 7.26651 1.01071 7.26651H1.87021C2.04388 6.55378 2.3236 5.87116 2.70001 5.24151L2.09071 4.63941C1.99555 4.54536 1.9199 4.43344 1.8681 4.31007C1.81631 4.18671 1.78939 4.05433 1.78889 3.92053C1.78838 3.78674 1.81431 3.65416 1.86518 3.53041C1.91605 3.40666 1.99086 3.29417 2.08531 3.19941ZM8.03585 4.27358C7.09918 4.46437 6.24014 4.9287 5.56741 5.60781V5.60961C4.66577 6.51893 4.16227 7.74918 4.16767 9.02972C4.17307 10.3103 4.68693 11.5362 5.59621 12.4379C6.27464 13.1113 7.13757 13.5684 8.07581 13.7513C9.01406 13.9342 9.98548 13.8347 10.8672 13.4654C11.7488 13.0961 12.5012 12.4735 13.029 11.6766C13.5568 10.8796 13.8364 9.94397 13.8324 8.98807C13.8283 8.03217 13.5409 7.09894 13.0064 6.30645C12.4718 5.51396 11.7143 4.89781 10.8295 4.53595C9.94474 4.17409 8.97252 4.08278 8.03585 4.27358Z" fill="#919191"/>
</svg>
