<svg xmlns="http://www.w3.org/2000/svg" width="19.025" height="17.999" viewBox="0 0 19.025 17.999">
  <g id="Group_75886" data-name="Group 75886" transform="translate(-1490.488 -118)">
    <rect id="Rectangle_60352" data-name="Rectangle 60352" width="17.999" height="17.999" transform="translate(1491 118)" fill="none"/>
    <path id="Path_31231" data-name="Path 31231" d="M622.8,601.3l-4.051-7.184a.9.9,0,0,0-.777-.454H609.86a.9.9,0,0,0-.777.454l-4.051,7.184a.952.952,0,0,0,0,.915l4.051,7.185a.9.9,0,0,0,.777.462h8.109a.9.9,0,0,0,.777-.462l4.051-7.185A.952.952,0,0,0,622.8,601.3Zm-8.887,4.511A4.05,4.05,0,1,1,618,601.76,4.072,4.072,0,0,1,613.91,605.809Z" transform="translate(886.086 -474.76)" fill="#919191" stroke="rgba(0,0,0,0)" stroke-width="1"/>
  </g>
</svg>
