<svg width="18" height="16" viewBox="0 0 19 19" fill="none" xmlns="http://www.w3.org/2000/svg" viewBox="0 0 19 19">
<path d="M15.6844 15.2218C15.596 15.2218 15.5112 15.1866 15.4487 15.1241C15.3862 15.0616 15.351 14.9771 15.351 14.8887V1.11046C15.351 1.02205 15.3862 0.937512 15.4487 0.875C15.5112 0.812488 15.596 0.777344 15.6844 0.777344H17.6655C17.7539 0.777344 17.8387 0.812488 17.9012 0.875C17.9637 0.937512 17.9989 1.02205 17.9989 1.11046V14.8887C17.9989 14.9771 17.9637 15.0616 17.9012 15.1241C17.8387 15.1866 17.7539 15.2218 17.6655 15.2218H15.6844ZM0.333388 15.2218C0.244982 15.2218 0.160168 15.1866 0.0976563 15.1241C0.0351441 15.0616 0 14.9771 0 14.8887V1.11046C0 1.02205 0.0351441 0.937512 0.0976563 0.875C0.160168 0.812488 0.244982 0.777344 0.333388 0.777344H2.31445C2.35823 0.777344 2.40151 0.785549 2.44195 0.8023C2.48239 0.819052 2.51923 0.844047 2.55018 0.875C2.58114 0.905953 2.60559 0.943065 2.62234 0.983507C2.63909 1.02395 2.64784 1.06669 2.64784 1.11046V14.8887C2.64784 14.9771 2.6127 15.0616 2.55018 15.1241C2.48767 15.1866 2.40286 15.2218 2.31445 15.2218H0.333388ZM3.53109 14.6662C3.44268 14.6662 3.35787 14.6311 3.29536 14.5686C3.23284 14.5061 3.1977 14.4215 3.1977 14.3331V13.5551H14.799V14.3331C14.799 14.4215 14.7638 14.5061 14.7013 14.5686C14.6388 14.6311 14.554 14.6662 14.4656 14.6662H3.53109ZM3.1977 12.9193V11.8082H14.799V12.9193H3.1977ZM3.1977 11.1767V10.0655H14.799V11.1767H3.1977ZM3.1977 9.42969V8.31858H14.799V9.42969H3.1977ZM3.1977 7.68273V6.57161H14.799V7.68273H3.1977ZM3.1977 5.93793V4.82682H14.799V5.93793H3.1977ZM3.1977 4.19206V3.08095H14.799V4.19206H3.1977ZM3.1977 2.4451V1.6671C3.1977 1.5787 3.23284 1.49415 3.29536 1.43164C3.35787 1.36913 3.44268 1.33398 3.53109 1.33398H14.4689C14.5573 1.33398 14.6421 1.36913 14.7046 1.43164C14.7671 1.49415 14.8022 1.5787 14.8022 1.6671V2.4451H3.1977Z" fill="black"/>
</svg>
