<svg width="14" height="14" viewBox="0 0 14 14" fill="none" xmlns="http://www.w3.org/2000/svg">
<path d="M13.2185 6.67974L10.3832 1.71126C10.328 1.61688 10.2488 1.53847 10.1533 1.48386C10.0579 1.42924 9.94956 1.40032 9.83925 1.40002H4.16125C4.05094 1.40032 3.94265 1.42924 3.84719 1.48386C3.75173 1.53847 3.67244 1.61688 3.61729 1.71126L0.781989 6.67974C0.728218 6.77674 0.700012 6.88554 0.700012 6.99613C0.700012 7.10672 0.728218 7.21556 0.781989 7.31255L3.61729 12.281C3.67144 12.3769 3.75028 12.4569 3.84581 12.5129C3.94134 12.5689 4.05017 12.5989 4.16125 12.6H9.83819C9.94928 12.5989 10.0581 12.5689 10.1536 12.5129C10.2492 12.4569 10.328 12.3769 10.3822 12.281L13.2175 7.31255C13.2714 7.21566 13.2998 7.10689 13.3 6.99629C13.3002 6.88569 13.2722 6.77681 13.2185 6.67974ZM6.9971 9.79965C6.43759 9.79402 5.89229 9.62496 5.42984 9.31379C4.96738 9.00262 4.60845 8.56325 4.39827 8.05098C4.1881 7.53871 4.13607 6.97645 4.24871 6.43502C4.36135 5.89359 4.63365 5.39718 5.0313 5.00832C5.42895 4.61945 5.93419 4.35551 6.48338 4.24973C7.03258 4.14395 7.60115 4.20107 8.11756 4.41388C8.63396 4.62668 9.07511 4.98568 9.3854 5.44564C9.69569 5.90561 9.86127 6.44598 9.8613 6.99873C9.85727 7.7453 9.55329 8.45973 9.01619 8.98496C8.47909 9.51019 7.75284 9.80323 6.9971 9.79965Z" fill="#6C6C6C"/>
</svg>
