<svg width="14" height="14" viewBox="0 0 14 14" fill="none" xmlns="http://www.w3.org/2000/svg">
<path d="M13.2945 4.77354V8.37231L13.2937 8.37387C13.311 8.60614 13.2937 8.83968 13.2423 9.06687C13.1803 9.28261 13.0646 9.4791 12.906 9.63798C12.7474 9.79685 12.5511 9.91291 12.3355 9.97531C12.0587 10.0356 11.7746 10.0542 11.4924 10.0305C11.3751 10.0304 11.2627 9.98424 11.1791 9.90209C11.0954 9.81993 11.0474 9.70828 11.0451 9.59109V8.26109H9.69802V9.56542C9.69975 9.6866 9.67631 9.80683 9.62919 9.91848C9.58206 10.0301 9.51227 10.1308 9.42424 10.2141C9.41559 10.0552 9.39532 9.89714 9.36357 9.7412C9.29409 9.47209 9.21139 9.20324 9.11546 8.93465L8.99957 8.64609C8.90267 8.39447 8.79046 8.14901 8.66357 7.91109C8.41468 7.39931 8.13313 6.88131 7.74424 6.22565C7.46735 5.77065 7.19902 5.34987 6.93691 4.95009L6.35746 4.06887L5.77257 4.93998C5.40857 5.4782 5.05235 6.05453 4.71246 6.64487L4.66735 6.71798C4.32073 7.31403 4.01187 7.93124 3.74257 8.56598C3.70964 8.62865 3.6813 8.69364 3.65779 8.76042L3.61346 8.85454L3.54035 8.9922V9.04042C3.51413 9.11035 3.49328 9.18411 3.47241 9.25793C3.46357 9.28922 3.45472 9.32051 3.44546 9.35154L3.25102 9.18431C3.15559 9.10099 3.07935 8.99798 3.02752 8.88238C2.9757 8.76678 2.94952 8.64133 2.95079 8.51465V7.38142H2.04935C2.04935 7.52822 2.04995 7.67502 2.05056 7.82202C2.05177 8.11662 2.05298 8.41203 2.04935 8.70987C2.0498 8.7911 2.02715 8.87078 1.98405 8.93964C1.94095 9.00849 1.87917 9.06367 1.80591 9.09876C1.67025 9.14859 1.5248 9.1659 1.38124 9.14931C1.24236 9.1645 1.10184 9.15127 0.968239 9.11042C0.89067 9.0749 0.824541 9.01845 0.777278 8.94742C0.730016 8.87639 0.703491 8.79358 0.700684 8.70831V4.71909C0.704625 4.60623 0.750186 4.49881 0.828592 4.41754C0.906997 4.33626 1.0127 4.28687 1.12535 4.27887C1.29491 4.27316 1.46446 4.27316 1.63402 4.27887C1.74641 4.28659 1.85186 4.33602 1.9297 4.41746C2.00754 4.49889 2.05215 4.60647 2.05479 4.71909V6.04831H2.95079C2.95079 5.84554 2.95019 5.64277 2.94958 5.44003C2.94837 5.03464 2.94717 4.62936 2.95079 4.22442C2.96629 4.00783 3.05965 3.80416 3.21362 3.65105C3.3676 3.49793 3.57178 3.40571 3.78846 3.39142C4.20368 3.38779 4.61821 3.38901 5.03112 3.39022C5.23697 3.39082 5.44242 3.39142 5.64735 3.39142V2.51098H3.84368C3.7249 2.50895 3.61162 2.46054 3.52805 2.3761C3.44448 2.29166 3.39726 2.17789 3.39646 2.05909V2.0412C3.39096 1.86446 3.39667 1.68755 3.41357 1.51153H3.40891C3.43756 1.41167 3.49942 1.32457 3.58427 1.26461C3.66911 1.20465 3.77187 1.17543 3.87557 1.18176H8.7888C8.87409 1.18144 8.95772 1.20532 9.02999 1.25061C9.10227 1.2959 9.16022 1.36075 9.19713 1.43765C9.23451 1.54173 9.24987 1.65243 9.24224 1.76276C9.24224 1.87863 9.24224 1.99844 9.2368 2.12442C9.22011 2.23159 9.16607 2.3294 9.08422 2.40057C9.00238 2.47173 8.89802 2.51167 8.78957 2.51331H7.00068V3.3922H8.76468C9.00207 3.38375 9.2332 3.46925 9.40794 3.63015C9.58267 3.79106 9.6869 4.01437 9.69802 4.25165V5.16553H11.0451V3.83553C11.0452 3.74648 11.0724 3.65956 11.1229 3.58624C11.1735 3.51292 11.245 3.45665 11.3282 3.42487C11.4273 3.39698 11.5303 3.38568 11.6331 3.39142C11.8413 3.38148 12.05 3.39452 12.2554 3.43031C12.4524 3.47445 12.6368 3.56259 12.795 3.68812C12.9531 3.81366 13.0808 3.97333 13.1685 4.1552C13.2575 4.34887 13.3006 4.56047 13.2945 4.77354Z" fill="#6C6C6C"/>
<path d="M8.42554 9.08819C8.43474 9.11242 8.4439 9.13655 8.45491 9.16321L8.45257 9.16399C8.54357 9.41288 8.62135 9.66254 8.68591 9.91221C8.76959 10.3168 8.74681 10.7363 8.6198 11.1294C8.606 11.1908 8.58566 11.2505 8.55913 11.3075C8.5364 11.373 8.50885 11.4367 8.47669 11.4981C8.36206 11.7339 8.20791 11.9483 8.02091 12.132L8.01628 12.1362C7.95083 12.1964 7.88326 12.2584 7.81791 12.3109C7.77222 12.3516 7.72152 12.3864 7.66702 12.4143C7.6202 12.45 7.57051 12.4817 7.51846 12.5092C7.16542 12.7115 6.76584 12.8185 6.35895 12.8197C5.95205 12.821 5.55184 12.7164 5.19757 12.5162C5.14563 12.4905 5.09571 12.4608 5.04824 12.4275C4.99744 12.3976 4.94953 12.3629 4.90513 12.3241C4.80815 12.2511 4.71712 12.1704 4.63291 12.083C4.46337 11.9042 4.31965 11.7026 4.20591 11.4841C4.19058 11.4491 4.17327 11.4118 4.15635 11.3754C4.14323 11.3471 4.13035 11.3194 4.1188 11.2935C4.09717 11.2374 4.07899 11.18 4.06435 11.1217C3.97435 10.8438 3.93767 10.5514 3.95624 10.2599C4.00353 9.88611 4.09923 9.52008 4.24091 9.17099C4.24091 9.167 4.24275 9.16342 4.24455 9.15993C4.24625 9.15662 4.24791 9.1534 4.24791 9.14999C4.26071 9.1229 4.27383 9.09426 4.28666 9.06623C4.2941 9.04999 4.30144 9.03395 4.30857 9.01854C4.32266 8.97352 4.34062 8.9298 4.36224 8.88788C4.6275 8.26304 4.93116 7.65522 5.27146 7.06788L5.27924 7.0601C5.61213 6.47754 5.97069 5.89577 6.35102 5.33032C6.60924 5.7231 6.87291 6.13766 7.14746 6.58488C7.52702 7.22654 7.80158 7.7251 8.03491 8.21277C8.15276 8.43315 8.25666 8.66071 8.34602 8.8941C8.36144 8.92494 8.37414 8.95713 8.38793 8.99206C8.39222 9.00294 8.39662 9.01409 8.40124 9.02554C8.4101 9.04753 8.41784 9.06789 8.42554 9.08819Z" fill="#6C6C6C"/>
</svg>
