<svg width="14" height="14" viewBox="0 0 14 14" fill="none" xmlns="http://www.w3.org/2000/svg">
<path d="M11.6794 12.0556C11.6175 12.0556 11.5581 12.031 11.5144 11.9872C11.4706 11.9435 11.446 11.8843 11.446 11.8224V2.17764C11.446 2.11576 11.4706 2.05658 11.5144 2.01282C11.5581 1.96906 11.6175 1.94446 11.6794 1.94446H13.0661C13.128 1.94446 13.1874 1.96906 13.2311 2.01282C13.2749 2.05658 13.2995 2.11576 13.2995 2.17764V11.8224C13.2995 11.8843 13.2749 11.9435 13.2311 11.9872C13.1874 12.031 13.128 12.0556 13.0661 12.0556H11.6794ZM0.933675 12.0556C0.871791 12.0556 0.812422 12.031 0.768663 11.9872C0.724905 11.9435 0.700304 11.8843 0.700304 11.8224V2.17764C0.700304 2.11576 0.724905 2.05658 0.768663 2.01282C0.812422 1.96906 0.871791 1.94446 0.933675 1.94446H2.32042C2.35106 1.94446 2.38136 1.9502 2.40967 1.96193C2.43798 1.97365 2.46377 1.99115 2.48543 2.01282C2.5071 2.03448 2.52422 2.06046 2.53594 2.08877C2.54767 2.11708 2.55379 2.147 2.55379 2.17764V11.8224C2.55379 11.8843 2.52919 11.9435 2.48543 11.9872C2.44167 12.031 2.38231 12.0556 2.32042 12.0556H0.933675ZM3.17207 11.6667C3.11018 11.6667 3.05081 11.6421 3.00705 11.5983C2.96329 11.5546 2.93869 11.4954 2.93869 11.4335V10.8889H11.0596V11.4335C11.0596 11.4954 11.035 11.5546 10.9912 11.5983C10.9475 11.6421 10.8881 11.6667 10.8262 11.6667H3.17207ZM2.93869 10.4438V9.66603H11.0596V10.4438H2.93869ZM2.93869 9.22397V8.44619H11.0596V9.22397H2.93869ZM2.93869 8.0011V7.22332H11.0596V8.0011H2.93869ZM2.93869 6.77822V6.00045H11.0596V6.77822H2.93869ZM2.93869 5.55687V4.77909H11.0596V5.55687H2.93869ZM2.93869 4.33476V3.55698H11.0596V4.33476H2.93869ZM2.93869 3.11188V2.56729C2.93869 2.5054 2.96329 2.44622 3.00705 2.40247C3.05081 2.35871 3.11018 2.33411 3.17207 2.33411H10.8285C10.8904 2.33411 10.9498 2.35871 10.9935 2.40247C11.0373 2.44622 11.0619 2.5054 11.0619 2.56729V3.11188H2.93869Z" fill="#6C6C6C"/>
</svg>
