<svg width="14" height="14" viewBox="0 0 14 14" fill="none" xmlns="http://www.w3.org/2000/svg">
<path d="M12.4049 9.20186L11.5603 8.72225L12.2101 8.5492C12.3086 8.52293 12.3926 8.4593 12.4437 8.37222C12.4947 8.28514 12.5088 8.18167 12.4827 8.08443L12.3823 7.71689C12.3557 7.6198 12.2911 7.53705 12.2027 7.48671C12.1144 7.43638 12.0094 7.42255 11.9107 7.44824L10.1411 7.91632L8.54388 7.0049L10.1378 6.09842L11.9073 6.56649C12.0061 6.59221 12.1112 6.57841 12.1998 6.52808C12.2883 6.47776 12.353 6.395 12.3798 6.29785L12.4802 5.93031C12.5063 5.83307 12.4922 5.7296 12.4412 5.64252C12.3901 5.55543 12.3061 5.49181 12.2076 5.46554L11.5569 5.29248L12.4024 4.81288C12.4908 4.76205 12.5552 4.67897 12.5818 4.58164C12.6084 4.48431 12.5951 4.38057 12.5446 4.29289L12.1566 3.63363C12.1051 3.54664 12.021 3.48314 11.9223 3.45691C11.8237 3.43068 11.7186 3.44385 11.6297 3.49354L10.7842 3.97397L10.9599 3.33285C10.9859 3.2356 10.9719 3.13214 10.9208 3.04505C10.8697 2.95797 10.7858 2.89435 10.6872 2.86807L10.3143 2.76919C10.2156 2.74349 10.1106 2.75732 10.0222 2.80765C9.93383 2.85799 9.86926 2.94074 9.8426 3.03783L9.3676 4.78156L7.7996 5.66991V3.76136L9.13763 2.44286C9.21213 2.36891 9.25395 2.26894 9.25395 2.16473C9.25395 2.06053 9.21213 1.96055 9.13763 1.88661L8.85831 1.60725C8.78327 1.53383 8.68182 1.49263 8.57607 1.49263C8.47033 1.49263 8.36887 1.53383 8.29383 1.60725L7.7996 2.09263V1.09468C7.79938 0.990058 7.7571 0.889784 7.68203 0.815805C7.60696 0.741826 7.5052 0.700169 7.39903 0.699951H6.59955C6.49353 0.700386 6.39198 0.74214 6.31709 0.816095C6.2422 0.89005 6.20004 0.990201 6.19982 1.09468V2.08933L5.70726 1.60725C5.63208 1.53378 5.53048 1.49255 5.4246 1.49255C5.31872 1.49255 5.21712 1.53378 5.14194 1.60725L4.85761 1.88579C4.82011 1.92207 4.79033 1.96535 4.76999 2.0131C4.74966 2.06086 4.73919 2.11212 4.73919 2.16391C4.73919 2.21569 4.74966 2.26696 4.76999 2.31471C4.79033 2.36247 4.82011 2.40575 4.85761 2.44203L6.19564 3.76054V5.66991L4.63014 4.77909L4.15514 3.03454C4.1283 2.93738 4.06357 2.85462 3.97506 2.8043C3.88655 2.75398 3.78145 2.74017 3.68265 2.76589L3.30968 2.86478C3.21115 2.89105 3.12717 2.95467 3.07609 3.04176C3.02501 3.12884 3.01098 3.23231 3.03706 3.32955L3.21267 3.97068L2.36804 3.49025C2.32406 3.46529 2.27552 3.44912 2.2252 3.44265C2.17487 3.43619 2.12375 3.43956 2.07475 3.45257C2.02574 3.46558 1.97982 3.48797 1.93961 3.51848C1.89939 3.54898 1.86566 3.58699 1.84036 3.63034L1.45233 4.28959C1.42704 4.33298 1.41068 4.38085 1.40418 4.43048C1.39768 4.4801 1.40117 4.5305 1.41445 4.57879C1.42773 4.62709 1.45054 4.67233 1.48158 4.71193C1.51262 4.75153 1.55127 4.78471 1.59533 4.80958L2.43996 5.28919L1.79018 5.46142C1.74092 5.47433 1.69472 5.49669 1.65423 5.52721C1.61374 5.55773 1.57975 5.59581 1.55419 5.63928C1.52864 5.68274 1.51204 5.73075 1.50532 5.78054C1.4986 5.83034 1.50191 5.88095 1.51505 5.92949L1.6154 6.29702C1.64225 6.39418 1.70698 6.47694 1.79549 6.52726C1.88399 6.57758 1.9891 6.59139 2.08789 6.56567L3.85743 6.0976L5.45136 7.00407L3.85743 7.91055L2.08789 7.4433C1.98909 7.41735 1.88388 7.43106 1.79531 7.48142C1.70675 7.53177 1.64205 7.61467 1.6154 7.71195L1.51505 8.07866C1.48895 8.17601 1.50296 8.27958 1.55403 8.3668C1.60509 8.45401 1.68908 8.5178 1.78767 8.54426L2.43829 8.71649L1.59282 9.19939C1.50448 9.25021 1.44002 9.33329 1.41341 9.43062C1.3868 9.52796 1.40018 9.6317 1.45066 9.71938L1.83868 10.3786C1.88981 10.4659 1.97391 10.5297 2.07262 10.5562C2.17133 10.5826 2.27663 10.5694 2.36553 10.5195L3.211 10.0391L3.03538 10.6794C3.00928 10.7768 3.02329 10.8803 3.07436 10.9676C3.12543 11.0548 3.20941 11.1186 3.30801 11.145L3.68098 11.2439C3.77967 11.2696 3.88466 11.2558 3.97304 11.2054C4.06141 11.1551 4.12598 11.0723 4.15264 10.9753L4.62764 9.23153L6.19731 8.33989V10.2484L4.85928 11.5669C4.82186 11.6033 4.79215 11.6467 4.77187 11.6945C4.75159 11.7423 4.74115 11.7937 4.74115 11.8455C4.74115 11.8973 4.75159 11.9486 4.77187 11.9964C4.79215 12.0442 4.82186 12.0876 4.85928 12.124L5.14194 12.4025C5.21698 12.476 5.31843 12.5172 5.42418 12.5172C5.52993 12.5172 5.63138 12.476 5.70642 12.4025L6.19898 11.9172V12.906C6.1992 13.0105 6.24139 13.1105 6.31631 13.1843C6.39122 13.2582 6.49277 13.2997 6.59872 13.3H7.39903C7.50497 13.2997 7.60652 13.2582 7.68144 13.1843C7.75636 13.1105 7.79854 13.0105 7.79876 12.906V11.9213L8.29132 12.4067C8.36651 12.4801 8.4681 12.5214 8.57398 12.5214C8.67987 12.5214 8.78146 12.4801 8.85664 12.4067L9.1393 12.1281C9.21386 12.054 9.25569 11.9539 9.25569 11.8496C9.25569 11.7453 9.21386 11.6451 9.1393 11.5711L7.80127 10.2525V8.33989L9.37094 9.23153L9.84595 10.9753C9.87261 11.0723 9.93717 11.1551 10.0255 11.2054C10.1139 11.2558 10.2189 11.2696 10.3176 11.2439L10.6906 11.145C10.7892 11.1186 10.8732 11.0548 10.9242 10.9676C10.9753 10.8803 10.9893 10.7768 10.9632 10.6794L10.7876 10.0391L11.633 10.5187C11.6769 10.5438 11.7254 10.56 11.7757 10.5665C11.826 10.573 11.8771 10.5697 11.926 10.5567C11.975 10.5436 12.0209 10.5212 12.061 10.4907C12.1011 10.4601 12.1348 10.422 12.1599 10.3786L12.5479 9.71938C12.5735 9.67626 12.5901 9.62856 12.5967 9.57905C12.6034 9.52955 12.5999 9.47923 12.5866 9.43105C12.5733 9.38287 12.5504 9.33778 12.5192 9.29843C12.488 9.25908 12.4491 9.22625 12.4049 9.20186Z" fill="#6C6C6C"/>
</svg>
