<svg width="14" height="14" viewBox="0 0 14 14" fill="none" xmlns="http://www.w3.org/2000/svg">
<path d="M13.2992 7.94416V6.24952L13.3 6.24657C13.2989 6.18963 13.2782 6.1348 13.2415 6.09131C13.2047 6.04783 13.154 6.01835 13.0981 6.00785L11.8602 5.86049L11.8448 5.77134C11.7261 5.3468 11.5611 4.93663 11.3526 4.54825L11.3003 4.47457L12.0673 3.48211C12.1037 3.43667 12.1216 3.37913 12.1174 3.32105C12.1131 3.26296 12.0871 3.20863 12.0444 3.16896L10.8656 1.97535C10.8264 1.93444 10.7735 1.90947 10.7171 1.90525C10.6606 1.90103 10.6046 1.91787 10.5598 1.95251L9.58206 2.72836L9.49954 2.68341C9.12531 2.46524 8.72399 2.29729 8.30593 2.18386L8.21604 2.16102L8.06868 0.908463C8.06253 0.851461 8.03563 0.798714 7.9931 0.760262C7.95058 0.721811 7.89539 0.700344 7.83806 0.699951H6.167C6.10954 0.700164 6.05418 0.721547 6.01149 0.760015C5.96881 0.798483 5.94181 0.851335 5.93565 0.908463L5.78829 2.16102L5.70576 2.18386C5.28495 2.29607 4.88104 2.46408 4.50478 2.68341L4.42226 2.72836L3.44526 1.95251C3.40036 1.91781 3.34422 1.90095 3.28763 1.90517C3.23105 1.90939 3.17802 1.93438 3.13876 1.97535L1.95325 3.17633C1.91585 3.21955 1.89466 3.27444 1.89331 3.33158C1.89197 3.38872 1.91055 3.44454 1.94588 3.48947L2.70625 4.47899L2.66205 4.55267C2.44247 4.93585 2.27661 5.3474 2.16913 5.77576L2.13892 5.85828L0.915833 6.01448C0.857907 6.0219 0.80447 6.04956 0.764965 6.09257C0.72546 6.13558 0.702432 6.19117 0.699951 6.24952V7.95079C0.703797 8.00927 0.727282 8.06474 0.766601 8.10821C0.805919 8.15167 0.858764 8.18058 0.91657 8.19025L2.14702 8.33761L2.16987 8.42013C2.28548 8.84603 2.45093 9.25681 2.66278 9.64396L2.70699 9.711L1.94662 10.7101C1.91052 10.7553 1.89211 10.8121 1.89482 10.8698C1.89753 10.9276 1.92118 10.9824 1.96135 11.024L3.14023 12.2323C3.18362 12.269 3.23791 12.2904 3.29466 12.293C3.35142 12.2957 3.40747 12.2795 3.45411 12.2471L4.08112 11.7475C4.00158 11.4484 3.97122 11.1383 3.99123 10.8295C4.03786 10.4452 4.12809 10.0675 4.26016 9.70364L4.37216 9.41997L4.43921 9.26377C3.87743 8.59485 3.59819 7.73347 3.66067 6.86219C3.72315 5.9909 4.12243 5.17818 4.7739 4.59626C5.42537 4.01435 6.27783 3.70897 7.15062 3.74484C8.0234 3.78072 8.84792 4.15503 9.44944 4.78845C10.0329 5.41552 10.3511 6.24408 10.3373 7.10052C10.3427 7.89164 10.0708 8.65967 9.5688 9.27113C9.57325 9.27921 9.57525 9.28508 9.57738 9.29129C9.57912 9.29639 9.58095 9.30172 9.58427 9.30871L9.69627 9.59164C9.78763 9.84437 9.8672 10.0986 9.93499 10.3601C10.0322 10.8107 10.0244 11.2776 9.91215 11.7247L10.5532 12.2404C10.5986 12.2733 10.6543 12.289 10.7102 12.2848C10.7662 12.2806 10.8188 12.2568 10.8589 12.2176L12.0452 11.0173C12.0852 10.9757 12.1088 10.921 12.1116 10.8633C12.1145 10.8056 12.0964 10.7489 12.0607 10.7035L11.2995 9.71174L11.3364 9.63806C11.5551 9.25595 11.7233 8.84704 11.8367 8.4216L11.8595 8.32508L13.09 8.18288C13.1478 8.1752 13.201 8.14677 13.2395 8.10286C13.278 8.05895 13.2992 8.00255 13.2992 7.94416Z" fill="#6C6C6C"/>
<path d="M9.09318 11.8659C9.11821 11.8118 9.13747 11.7553 9.15065 11.6972L9.14917 11.6979C9.26946 11.3254 9.29104 10.9281 9.2118 10.5448C9.1477 10.3083 9.07402 10.0718 8.99076 9.83602C8.98154 9.81368 8.97385 9.79321 8.96622 9.77289C8.95801 9.75101 8.94986 9.7293 8.93992 9.70561C8.93341 9.69008 8.92749 9.67523 8.92176 9.66086C8.91065 9.63296 8.90025 9.60686 8.88761 9.58109C8.80296 9.36 8.70453 9.14443 8.59289 8.93566C8.36817 8.47368 8.11176 8.00214 7.7522 7.39428C7.49432 6.96988 7.24455 6.5779 6.99993 6.20508C6.63964 6.73852 6.29923 7.2926 5.98462 7.84372L5.97725 7.85182C5.65475 8.4079 5.36709 8.98347 5.11593 9.5752C5.09533 9.61512 5.07832 9.65679 5.0651 9.69972C5.05717 9.71651 5.04898 9.7344 5.04069 9.75249C5.0297 9.77647 5.01854 9.80082 5.00763 9.8235C5.00763 9.82673 5.00605 9.82978 5.00444 9.83292C5.00274 9.83622 5.00099 9.83961 5.00099 9.84339C4.86654 10.1741 4.77564 10.5208 4.73059 10.8749C4.71367 11.1509 4.74865 11.4275 4.83374 11.6905C4.84753 11.7458 4.86476 11.8002 4.88532 11.8534C4.89396 11.8721 4.90326 11.892 4.91277 11.9123C4.93167 11.9526 4.95143 11.9947 4.96858 12.0339C5.07744 12.2403 5.2143 12.4308 5.37529 12.5998C5.45477 12.6826 5.54076 12.759 5.63243 12.8282C5.67445 12.8652 5.71984 12.8983 5.768 12.9269C5.81297 12.9584 5.86026 12.9865 5.90947 13.0109C6.24508 13.2005 6.62427 13.2996 7.00975 13.2983C7.39523 13.297 7.77374 13.1954 8.10808 13.0035C8.15737 12.9777 8.20444 12.9479 8.2488 12.9144C8.30032 12.8878 8.34812 12.8546 8.39101 12.8156C8.45437 12.7648 8.51995 12.7051 8.58331 12.6469C8.7603 12.4727 8.90632 12.2697 9.01508 12.0464C9.04554 11.9883 9.07165 11.9279 9.09318 11.8659Z" fill="#6C6C6C"/>
</svg>
