<svg width="14" height="14" viewBox="0 0 14 14" fill="none" xmlns="http://www.w3.org/2000/svg">
<path d="M0.700306 7.43659C0.699543 6.80594 0.823472 6.18176 1.06508 5.59924C1.30669 5.01671 1.66124 4.48714 2.10813 4.04216C2.55314 3.59505 3.08215 3.24105 3.66482 2.9993C4.24749 2.75756 4.87229 2.6332 5.50312 2.63396H10.5361V5.69114H9.97914C10.1963 6.2474 10.3077 6.83944 10.3075 7.43659C10.3084 8.06772 10.1845 8.69315 9.94287 9.27621C9.70127 9.85927 9.34671 10.3886 8.89963 10.834C8.45415 11.2809 7.92469 11.6353 7.3418 11.8769C6.7589 12.1185 6.1341 12.2422 5.50312 12.2415C4.22907 12.2411 3.00728 11.7352 2.10661 10.834C1.20594 9.93294 0.700099 8.71064 0.700306 7.43659ZM5.62598 10.076C6.24111 10.0494 6.82711 9.80613 7.28103 9.39015L5.74504 8.0184L5.62598 10.076ZM3.72749 9.39015C4.18081 9.80562 4.76595 10.0489 5.38026 10.076L5.26272 8.0184L3.72749 9.39015ZM6.08494 7.67964L7.45459 9.21545C7.87069 8.76207 8.11369 8.17667 8.14122 7.56191L6.08494 7.67964ZM3.55241 9.21545L4.92435 7.67964L2.86711 7.56191C2.89459 8.17531 3.13696 8.75958 3.55165 9.21241L3.55241 9.21545ZM6.08494 7.19809L8.14217 7.3143C8.11415 6.69994 7.87161 6.11486 7.45687 5.66076L6.08494 7.19809ZM2.86711 7.3143L4.92435 7.19809L3.55241 5.66076C3.13739 6.11375 2.89476 6.69828 2.86711 7.31202V7.3143ZM5.74504 6.85781L7.28103 5.48531C6.82699 5.06961 6.24101 4.82735 5.62598 4.80095L5.74504 6.85781ZM3.72274 5.48531L5.26045 6.85781L5.3778 4.80095C4.76431 4.82815 4.17974 5.06948 3.72578 5.48303L3.72274 5.48531ZM11.5884 6.56538C11.5244 6.57072 11.46 6.56245 11.3997 6.54032C11.3394 6.51818 11.2848 6.48326 11.2394 6.43778C11.1941 6.3923 11.1592 6.33711 11.1373 6.27675C11.1153 6.2164 11.1068 6.15236 11.1124 6.08839V2.25267C11.1043 2.18662 11.1113 2.11965 11.1329 2.0567C11.1545 1.99375 11.1901 1.93684 11.237 1.8896C11.2838 1.84237 11.3407 1.80608 11.4035 1.78403C11.4663 1.76197 11.5332 1.75445 11.5993 1.762C12.0053 1.762 12.4089 1.762 12.8149 1.762C12.8799 1.7554 12.9456 1.76358 13.0071 1.78554C13.0686 1.80751 13.1245 1.84258 13.1706 1.88884C13.2167 1.93511 13.2519 1.99132 13.2737 2.05291C13.2954 2.11449 13.3033 2.18011 13.2965 2.24507C13.2965 3.52477 13.2965 4.80292 13.2965 6.08003C13.3034 6.14494 13.2958 6.21057 13.2743 6.2722C13.2527 6.33383 13.218 6.38981 13.1721 6.43626C13.1262 6.48272 13.0705 6.51877 13.0092 6.54108C12.9478 6.56339 12.8824 6.57152 12.8174 6.56538H11.5892H11.5884Z" fill="#6C6C6C"/>
</svg>
