<svg xmlns="http://www.w3.org/2000/svg" width="18" height="18" viewBox="0 0 18 18">
  <g id="Group_71326" data-name="Group 71326" transform="translate(10804 17187)">
    <path id="Path_36164" data-name="Path 36164" d="M18,9a3.294,3.294,0,0,1-.96,2.33l-5.71,5.71a3.3,3.3,0,0,1-4.66-.01l-5.7-5.7a3.283,3.283,0,0,1,0-4.66L6.67.97a3.283,3.283,0,0,1,4.66,0l5.71,5.7A3.294,3.294,0,0,1,18,9" transform="translate(-10804 -17187)" fill="#919191"/>
    <path id="Path_36165" data-name="Path 36165" d="M13.753,9a.868.868,0,0,1,.1.39v1.63a.875.875,0,0,1-.88.88H5.023a.881.881,0,0,1-.88-.88V9.394a.868.868,0,0,1,.1-.39H1a2.312,2.312,0,0,1,.67-1.62l5.71-5.71a2.294,2.294,0,0,1,3.24,0l5.71,5.71A2.285,2.285,0,0,1,17,9Z" transform="translate(-10804 -17187)" fill="#fff"/>
    <path id="Path_36166" data-name="Path 36166" d="M13.354,9.393v1.632a.382.382,0,0,1-.381.381l-7.946,0a.382.382,0,0,1-.381-.381V9.39a.38.38,0,0,1,.381-.38l2.737,0a.262.262,0,0,1,.244.163,1.232,1.232,0,0,0,1.836.561.175.175,0,0,1,.217.017,1.373,1.373,0,0,0,.949.371,1.307,1.307,0,0,0,1.3-.994.159.159,0,0,1,.153-.114h.508a.382.382,0,0,1,.381.381" transform="translate(-10804 -17187)" fill="#919191"/>
    <path id="Path_36167" data-name="Path 36167" d="M5.312,5.608c.021-.068.038-.136.063-.2a.873.873,0,0,1,.806-.566c.74-.005.815,0,1.555,0a.168.168,0,0,1,.106.054c.488.482.972.969,1.46,1.451.1.1.208.179.326.278H9.523c-1.3,0-1.927,0-3.223,0a.9.9,0,0,1-.979-.764c0-.007-.006-.01-.009-.016Z" transform="translate(-10804 -17187)" fill="#919191"/>
    <path id="Path_36168" data-name="Path 36168" d="M8.521,4.845h2.5V6.61a2.2,2.2,0,0,1-.96-.324A3.082,3.082,0,0,1,9.6,5.927c-.349-.336-.688-.683-1.03-1.025l-.052-.057" transform="translate(-10804 -17187)" fill="#919191"/>
    <path id="Path_36169" data-name="Path 36169" d="M11,7.146c.249.4.5.8.739,1.206a.839.839,0,0,1-.2,1.061.854.854,0,0,1-1.082.008.837.837,0,0,1-.213-1.066c.235-.4.488-.8.734-1.194A.124.124,0,0,1,11,7.146" transform="translate(-10804 -17187)" fill="#919191"/>
  </g>
</svg>
