<svg xmlns="http://www.w3.org/2000/svg" width="812" height="334" viewBox="0 0 812 334">
  <g id="Group_104753" data-name="Group 104753" transform="translate(20658 13925)">
    <rect id="Rectangle_77500" data-name="Rectangle 77500" width="58" height="22" rx="2" transform="translate(-20658 -13901)" fill="#eee"/>
    <rect id="Rectangle_77501" data-name="Rectangle 77501" width="58" height="22" rx="2" transform="translate(-20658 -13805)" fill="#eee"/>
    <rect id="Rectangle_77502" data-name="Rectangle 77502" width="58" height="22" rx="2" transform="translate(-20658 -13709)" fill="#eee"/>
    <rect id="Rectangle_77503" data-name="Rectangle 77503" width="58" height="22" rx="2" transform="translate(-20658 -13853)" fill="#eee"/>
    <rect id="Rectangle_77504" data-name="Rectangle 77504" width="58" height="22" rx="2" transform="translate(-20658 -13757)" fill="#eee"/>
    <rect id="Rectangle_77505" data-name="Rectangle 77505" width="58" height="22" rx="2" transform="translate(-20658 -13661)" fill="#eee"/>
    <rect id="Rectangle_77506" data-name="Rectangle 77506" width="58" height="22" rx="2" transform="translate(-20658 -13877)" fill="#eee"/>
    <rect id="Rectangle_77507" data-name="Rectangle 77507" width="58" height="22" rx="2" transform="translate(-20658 -13781)" fill="#eee"/>
    <rect id="Rectangle_77508" data-name="Rectangle 77508" width="58" height="22" rx="2" transform="translate(-20658 -13685)" fill="#eee"/>
    <rect id="Rectangle_77509" data-name="Rectangle 77509" width="58" height="22" rx="2" transform="translate(-20658 -13829)" fill="#eee"/>
    <rect id="Rectangle_77510" data-name="Rectangle 77510" width="58" height="22" rx="2" transform="translate(-20658 -13733)" fill="#eee"/>
    <rect id="Rectangle_77511" data-name="Rectangle 77511" width="58" height="22" rx="2" transform="translate(-20658 -13637)" fill="#eee"/>
    <rect id="Rectangle_77512" data-name="Rectangle 77512" width="58" height="22" rx="2" transform="translate(-20658 -13613)" fill="#eee"/>
    <rect id="Rectangle_77513" data-name="Rectangle 77513" width="56" height="22" rx="2" transform="translate(-20598 -13901)" fill="#60d5bd"/>
    <rect id="Rectangle_77514" data-name="Rectangle 77514" width="56" height="22" rx="2" transform="translate(-20598 -13925)" fill="#eee"/>
    <rect id="Rectangle_77515" data-name="Rectangle 77515" width="56" height="22" rx="2" transform="translate(-20540 -13925)" fill="#eee"/>
    <rect id="Rectangle_77516" data-name="Rectangle 77516" width="56" height="22" rx="2" transform="translate(-20482 -13925)" fill="#eee"/>
    <rect id="Rectangle_77517" data-name="Rectangle 77517" width="56" height="22" rx="2" transform="translate(-20424 -13925)" fill="#eee"/>
    <rect id="Rectangle_77518" data-name="Rectangle 77518" width="56" height="22" rx="2" transform="translate(-20366 -13925)" fill="#eee"/>
    <rect id="Rectangle_77519" data-name="Rectangle 77519" width="56" height="22" rx="2" transform="translate(-20308 -13925)" fill="#eee"/>
    <rect id="Rectangle_77520" data-name="Rectangle 77520" width="56" height="22" rx="2" transform="translate(-20250 -13925)" fill="#eee"/>
    <rect id="Rectangle_77521" data-name="Rectangle 77521" width="56" height="22" rx="2" transform="translate(-20192 -13925)" fill="#eee"/>
    <rect id="Rectangle_77522" data-name="Rectangle 77522" width="56" height="22" rx="2" transform="translate(-20134 -13925)" fill="#eee"/>
    <rect id="Rectangle_77523" data-name="Rectangle 77523" width="56" height="22" rx="2" transform="translate(-20076 -13925)" fill="#eee"/>
    <rect id="Rectangle_77524" data-name="Rectangle 77524" width="56" height="22" rx="2" transform="translate(-20018 -13925)" fill="#eee"/>
    <rect id="Rectangle_77525" data-name="Rectangle 77525" width="56" height="22" rx="2" transform="translate(-19960 -13925)" fill="#eee"/>
    <rect id="Rectangle_77526" data-name="Rectangle 77526" width="56" height="22" rx="2" transform="translate(-19902 -13925)" fill="#eee"/>
    <rect id="Rectangle_77527" data-name="Rectangle 77527" width="56" height="22" rx="2" transform="translate(-20250 -13757)" fill="#60d5bd"/>
    <rect id="Rectangle_77528" data-name="Rectangle 77528" width="56" height="22" rx="2" transform="translate(-20482 -13853)" fill="#60d5bd"/>
    <rect id="Rectangle_77529" data-name="Rectangle 77529" width="56" height="22" rx="2" transform="translate(-20134 -13709)" fill="#60d5bd"/>
    <rect id="Rectangle_77530" data-name="Rectangle 77530" width="56" height="22" rx="2" transform="translate(-20366 -13805)" fill="#60d5bd"/>
    <rect id="Rectangle_77531" data-name="Rectangle 77531" width="56" height="22" rx="2" transform="translate(-20018 -13661)" fill="#60d5bd"/>
    <rect id="Rectangle_77532" data-name="Rectangle 77532" width="56" height="22" rx="2" transform="translate(-20540 -13901)" fill="#ff8080"/>
    <path id="times" d="M9.249,86.707l3.813-3.813a1.2,1.2,0,0,0,0-1.7l-.848-.847a1.2,1.2,0,0,0-1.7,0L6.707,84.164,2.893,80.351a1.2,1.2,0,0,0-1.7,0L.351,81.2a1.2,1.2,0,0,0,0,1.7l3.813,3.813L.351,90.52a1.2,1.2,0,0,0,0,1.7l.848.848a1.2,1.2,0,0,0,1.7,0l3.813-3.813,3.813,3.813a1.2,1.2,0,0,0,1.7,0l.848-.848a1.2,1.2,0,0,0,0-1.7Z" transform="translate(-20519 -13977)" fill="#fff"/>
    <rect id="Rectangle_77533" data-name="Rectangle 77533" width="56" height="22" rx="2" transform="translate(-20482 -13901)" fill="#ff8080"/>
    <path id="times-2" data-name="times" d="M9.249,86.707l3.813-3.813a1.2,1.2,0,0,0,0-1.7l-.848-.847a1.2,1.2,0,0,0-1.7,0L6.707,84.164,2.893,80.351a1.2,1.2,0,0,0-1.7,0L.351,81.2a1.2,1.2,0,0,0,0,1.7l3.813,3.813L.351,90.52a1.2,1.2,0,0,0,0,1.7l.848.848a1.2,1.2,0,0,0,1.7,0l3.813-3.813,3.813,3.813a1.2,1.2,0,0,0,1.7,0l.848-.848a1.2,1.2,0,0,0,0-1.7Z" transform="translate(-20461 -13977)" fill="#fff"/>
    <rect id="Rectangle_77534" data-name="Rectangle 77534" width="56" height="22" rx="2" transform="translate(-20424 -13901)" fill="#ff8080"/>
    <path id="times-3" data-name="times" d="M9.249,86.707l3.813-3.813a1.2,1.2,0,0,0,0-1.7l-.848-.847a1.2,1.2,0,0,0-1.7,0L6.707,84.164,2.893,80.351a1.2,1.2,0,0,0-1.7,0L.351,81.2a1.2,1.2,0,0,0,0,1.7l3.813,3.813L.351,90.52a1.2,1.2,0,0,0,0,1.7l.848.848a1.2,1.2,0,0,0,1.7,0l3.813-3.813,3.813,3.813a1.2,1.2,0,0,0,1.7,0l.848-.848a1.2,1.2,0,0,0,0-1.7Z" transform="translate(-20403 -13977)" fill="#fff"/>
    <rect id="Rectangle_77535" data-name="Rectangle 77535" width="56" height="22" rx="2" transform="translate(-20366 -13901)" fill="#ff8080"/>
    <path id="times-4" data-name="times" d="M9.249,86.707l3.813-3.813a1.2,1.2,0,0,0,0-1.7l-.848-.847a1.2,1.2,0,0,0-1.7,0L6.707,84.164,2.893,80.351a1.2,1.2,0,0,0-1.7,0L.351,81.2a1.2,1.2,0,0,0,0,1.7l3.813,3.813L.351,90.52a1.2,1.2,0,0,0,0,1.7l.848.848a1.2,1.2,0,0,0,1.7,0l3.813-3.813,3.813,3.813a1.2,1.2,0,0,0,1.7,0l.848-.848a1.2,1.2,0,0,0,0-1.7Z" transform="translate(-20345 -13977)" fill="#fff"/>
    <rect id="Rectangle_77536" data-name="Rectangle 77536" width="56" height="22" rx="2" transform="translate(-20540 -13661)" fill="#ff8080"/>
    <path id="times-5" data-name="times" d="M9.249,86.707l3.813-3.813a1.2,1.2,0,0,0,0-1.7l-.848-.847a1.2,1.2,0,0,0-1.7,0L6.707,84.164,2.893,80.351a1.2,1.2,0,0,0-1.7,0L.351,81.2a1.2,1.2,0,0,0,0,1.7l3.813,3.813L.351,90.52a1.2,1.2,0,0,0,0,1.7l.848.848a1.2,1.2,0,0,0,1.7,0l3.813-3.813,3.813,3.813a1.2,1.2,0,0,0,1.7,0l.848-.848a1.2,1.2,0,0,0,0-1.7Z" transform="translate(-20519 -13737)" fill="#fff"/>
    <rect id="Rectangle_77537" data-name="Rectangle 77537" width="56" height="22" rx="2" transform="translate(-20308 -13901)" fill="#ff8080"/>
    <path id="times-6" data-name="times" d="M9.249,86.707l3.813-3.813a1.2,1.2,0,0,0,0-1.7l-.848-.847a1.2,1.2,0,0,0-1.7,0L6.707,84.164,2.893,80.351a1.2,1.2,0,0,0-1.7,0L.351,81.2a1.2,1.2,0,0,0,0,1.7l3.813,3.813L.351,90.52a1.2,1.2,0,0,0,0,1.7l.848.848a1.2,1.2,0,0,0,1.7,0l3.813-3.813,3.813,3.813a1.2,1.2,0,0,0,1.7,0l.848-.848a1.2,1.2,0,0,0,0-1.7Z" transform="translate(-20287 -13977)" fill="#fff"/>
    <rect id="Rectangle_77538" data-name="Rectangle 77538" width="56" height="22" rx="2" transform="translate(-20482 -13661)" fill="#ff8080"/>
    <path id="times-7" data-name="times" d="M9.249,86.707l3.813-3.813a1.2,1.2,0,0,0,0-1.7l-.848-.847a1.2,1.2,0,0,0-1.7,0L6.707,84.164,2.893,80.351a1.2,1.2,0,0,0-1.7,0L.351,81.2a1.2,1.2,0,0,0,0,1.7l3.813,3.813L.351,90.52a1.2,1.2,0,0,0,0,1.7l.848.848a1.2,1.2,0,0,0,1.7,0l3.813-3.813,3.813,3.813a1.2,1.2,0,0,0,1.7,0l.848-.848a1.2,1.2,0,0,0,0-1.7Z" transform="translate(-20461 -13737)" fill="#fff"/>
    <rect id="Rectangle_77539" data-name="Rectangle 77539" width="56" height="22" rx="2" transform="translate(-20250 -13901)" fill="#ff8080"/>
    <path id="times-8" data-name="times" d="M9.249,86.707l3.813-3.813a1.2,1.2,0,0,0,0-1.7l-.848-.847a1.2,1.2,0,0,0-1.7,0L6.707,84.164,2.893,80.351a1.2,1.2,0,0,0-1.7,0L.351,81.2a1.2,1.2,0,0,0,0,1.7l3.813,3.813L.351,90.52a1.2,1.2,0,0,0,0,1.7l.848.848a1.2,1.2,0,0,0,1.7,0l3.813-3.813,3.813,3.813a1.2,1.2,0,0,0,1.7,0l.848-.848a1.2,1.2,0,0,0,0-1.7Z" transform="translate(-20229 -13977)" fill="#fff"/>
    <rect id="Rectangle_77540" data-name="Rectangle 77540" width="56" height="22" rx="2" transform="translate(-20424 -13661)" fill="#ff8080"/>
    <path id="times-9" data-name="times" d="M9.249,86.707l3.813-3.813a1.2,1.2,0,0,0,0-1.7l-.848-.847a1.2,1.2,0,0,0-1.7,0L6.707,84.164,2.893,80.351a1.2,1.2,0,0,0-1.7,0L.351,81.2a1.2,1.2,0,0,0,0,1.7l3.813,3.813L.351,90.52a1.2,1.2,0,0,0,0,1.7l.848.848a1.2,1.2,0,0,0,1.7,0l3.813-3.813,3.813,3.813a1.2,1.2,0,0,0,1.7,0l.848-.848a1.2,1.2,0,0,0,0-1.7Z" transform="translate(-20403 -13737)" fill="#fff"/>
    <rect id="Rectangle_77541" data-name="Rectangle 77541" width="56" height="22" rx="2" transform="translate(-20192 -13901)" fill="#ff8080"/>
    <path id="times-10" data-name="times" d="M9.249,86.707l3.813-3.813a1.2,1.2,0,0,0,0-1.7l-.848-.847a1.2,1.2,0,0,0-1.7,0L6.707,84.164,2.893,80.351a1.2,1.2,0,0,0-1.7,0L.351,81.2a1.2,1.2,0,0,0,0,1.7l3.813,3.813L.351,90.52a1.2,1.2,0,0,0,0,1.7l.848.848a1.2,1.2,0,0,0,1.7,0l3.813-3.813,3.813,3.813a1.2,1.2,0,0,0,1.7,0l.848-.848a1.2,1.2,0,0,0,0-1.7Z" transform="translate(-20171 -13977)" fill="#fff"/>
    <rect id="Rectangle_77542" data-name="Rectangle 77542" width="56" height="22" rx="2" transform="translate(-20366 -13661)" fill="#ff8080"/>
    <path id="times-11" data-name="times" d="M9.249,86.707l3.813-3.813a1.2,1.2,0,0,0,0-1.7l-.848-.847a1.2,1.2,0,0,0-1.7,0L6.707,84.164,2.893,80.351a1.2,1.2,0,0,0-1.7,0L.351,81.2a1.2,1.2,0,0,0,0,1.7l3.813,3.813L.351,90.52a1.2,1.2,0,0,0,0,1.7l.848.848a1.2,1.2,0,0,0,1.7,0l3.813-3.813,3.813,3.813a1.2,1.2,0,0,0,1.7,0l.848-.848a1.2,1.2,0,0,0,0-1.7Z" transform="translate(-20345 -13737)" fill="#fff"/>
    <rect id="Rectangle_77543" data-name="Rectangle 77543" width="56" height="22" rx="2" transform="translate(-20308 -13637)" fill="#ff8080"/>
    <path id="times-12" data-name="times" d="M9.249,86.707l3.813-3.813a1.2,1.2,0,0,0,0-1.7l-.848-.847a1.2,1.2,0,0,0-1.7,0L6.707,84.164,2.893,80.351a1.2,1.2,0,0,0-1.7,0L.351,81.2a1.2,1.2,0,0,0,0,1.7l3.813,3.813L.351,90.52a1.2,1.2,0,0,0,0,1.7l.848.848a1.2,1.2,0,0,0,1.7,0l3.813-3.813,3.813,3.813a1.2,1.2,0,0,0,1.7,0l.848-.848a1.2,1.2,0,0,0,0-1.7Z" transform="translate(-20287 -13713)" fill="#fff"/>
    <rect id="Rectangle_77544" data-name="Rectangle 77544" width="56" height="22" rx="2" transform="translate(-20134 -13901)" fill="#ff8080"/>
    <path id="times-13" data-name="times" d="M9.249,86.707l3.813-3.813a1.2,1.2,0,0,0,0-1.7l-.848-.847a1.2,1.2,0,0,0-1.7,0L6.707,84.164,2.893,80.351a1.2,1.2,0,0,0-1.7,0L.351,81.2a1.2,1.2,0,0,0,0,1.7l3.813,3.813L.351,90.52a1.2,1.2,0,0,0,0,1.7l.848.848a1.2,1.2,0,0,0,1.7,0l3.813-3.813,3.813,3.813a1.2,1.2,0,0,0,1.7,0l.848-.848a1.2,1.2,0,0,0,0-1.7Z" transform="translate(-20113 -13977)" fill="#fff"/>
    <rect id="Rectangle_77545" data-name="Rectangle 77545" width="56" height="22" rx="2" transform="translate(-20308 -13661)" fill="#ff8080"/>
    <path id="times-14" data-name="times" d="M9.249,86.707l3.813-3.813a1.2,1.2,0,0,0,0-1.7l-.848-.847a1.2,1.2,0,0,0-1.7,0L6.707,84.164,2.893,80.351a1.2,1.2,0,0,0-1.7,0L.351,81.2a1.2,1.2,0,0,0,0,1.7l3.813,3.813L.351,90.52a1.2,1.2,0,0,0,0,1.7l.848.848a1.2,1.2,0,0,0,1.7,0l3.813-3.813,3.813,3.813a1.2,1.2,0,0,0,1.7,0l.848-.848a1.2,1.2,0,0,0,0-1.7Z" transform="translate(-20287 -13737)" fill="#fff"/>
    <rect id="Rectangle_77546" data-name="Rectangle 77546" width="56" height="22" rx="2" transform="translate(-20250 -13637)" fill="#ff8080"/>
    <path id="times-15" data-name="times" d="M9.249,86.707l3.813-3.813a1.2,1.2,0,0,0,0-1.7l-.848-.847a1.2,1.2,0,0,0-1.7,0L6.707,84.164,2.893,80.351a1.2,1.2,0,0,0-1.7,0L.351,81.2a1.2,1.2,0,0,0,0,1.7l3.813,3.813L.351,90.52a1.2,1.2,0,0,0,0,1.7l.848.848a1.2,1.2,0,0,0,1.7,0l3.813-3.813,3.813,3.813a1.2,1.2,0,0,0,1.7,0l.848-.848a1.2,1.2,0,0,0,0-1.7Z" transform="translate(-20229 -13713)" fill="#fff"/>
    <rect id="Rectangle_77547" data-name="Rectangle 77547" width="56" height="22" rx="2" transform="translate(-20076 -13901)" fill="#ff8080"/>
    <path id="times-16" data-name="times" d="M9.249,86.707l3.813-3.813a1.2,1.2,0,0,0,0-1.7l-.848-.847a1.2,1.2,0,0,0-1.7,0L6.707,84.164,2.893,80.351a1.2,1.2,0,0,0-1.7,0L.351,81.2a1.2,1.2,0,0,0,0,1.7l3.813,3.813L.351,90.52a1.2,1.2,0,0,0,0,1.7l.848.848a1.2,1.2,0,0,0,1.7,0l3.813-3.813,3.813,3.813a1.2,1.2,0,0,0,1.7,0l.848-.848a1.2,1.2,0,0,0,0-1.7Z" transform="translate(-20055 -13977)" fill="#fff"/>
    <rect id="Rectangle_77548" data-name="Rectangle 77548" width="56" height="22" rx="2" transform="translate(-20250 -13661)" fill="#ff8080"/>
    <path id="times-17" data-name="times" d="M9.249,86.707l3.813-3.813a1.2,1.2,0,0,0,0-1.7l-.848-.847a1.2,1.2,0,0,0-1.7,0L6.707,84.164,2.893,80.351a1.2,1.2,0,0,0-1.7,0L.351,81.2a1.2,1.2,0,0,0,0,1.7l3.813,3.813L.351,90.52a1.2,1.2,0,0,0,0,1.7l.848.848a1.2,1.2,0,0,0,1.7,0l3.813-3.813,3.813,3.813a1.2,1.2,0,0,0,1.7,0l.848-.848a1.2,1.2,0,0,0,0-1.7Z" transform="translate(-20229 -13737)" fill="#fff"/>
    <rect id="Rectangle_77549" data-name="Rectangle 77549" width="56" height="22" rx="2" transform="translate(-20192 -13637)" fill="#ff8080"/>
    <path id="times-18" data-name="times" d="M9.249,86.707l3.813-3.813a1.2,1.2,0,0,0,0-1.7l-.848-.847a1.2,1.2,0,0,0-1.7,0L6.707,84.164,2.893,80.351a1.2,1.2,0,0,0-1.7,0L.351,81.2a1.2,1.2,0,0,0,0,1.7l3.813,3.813L.351,90.52a1.2,1.2,0,0,0,0,1.7l.848.848a1.2,1.2,0,0,0,1.7,0l3.813-3.813,3.813,3.813a1.2,1.2,0,0,0,1.7,0l.848-.848a1.2,1.2,0,0,0,0-1.7Z" transform="translate(-20171 -13713)" fill="#fff"/>
    <rect id="Rectangle_77550" data-name="Rectangle 77550" width="56" height="22" rx="2" transform="translate(-20018 -13901)" fill="#ff8080"/>
    <path id="times-19" data-name="times" d="M9.249,86.707l3.813-3.813a1.2,1.2,0,0,0,0-1.7l-.848-.847a1.2,1.2,0,0,0-1.7,0L6.707,84.164,2.893,80.351a1.2,1.2,0,0,0-1.7,0L.351,81.2a1.2,1.2,0,0,0,0,1.7l3.813,3.813L.351,90.52a1.2,1.2,0,0,0,0,1.7l.848.848a1.2,1.2,0,0,0,1.7,0l3.813-3.813,3.813,3.813a1.2,1.2,0,0,0,1.7,0l.848-.848a1.2,1.2,0,0,0,0-1.7Z" transform="translate(-19997 -13977)" fill="#fff"/>
    <rect id="Rectangle_77551" data-name="Rectangle 77551" width="56" height="22" rx="2" transform="translate(-20192 -13661)" fill="#ff8080"/>
    <path id="times-20" data-name="times" d="M9.249,86.707l3.813-3.813a1.2,1.2,0,0,0,0-1.7l-.848-.847a1.2,1.2,0,0,0-1.7,0L6.707,84.164,2.893,80.351a1.2,1.2,0,0,0-1.7,0L.351,81.2a1.2,1.2,0,0,0,0,1.7l3.813,3.813L.351,90.52a1.2,1.2,0,0,0,0,1.7l.848.848a1.2,1.2,0,0,0,1.7,0l3.813-3.813,3.813,3.813a1.2,1.2,0,0,0,1.7,0l.848-.848a1.2,1.2,0,0,0,0-1.7Z" transform="translate(-20171 -13737)" fill="#fff"/>
    <rect id="Rectangle_77552" data-name="Rectangle 77552" width="56" height="22" rx="2" transform="translate(-20134 -13637)" fill="#ff8080"/>
    <path id="times-21" data-name="times" d="M9.249,86.707l3.813-3.813a1.2,1.2,0,0,0,0-1.7l-.848-.847a1.2,1.2,0,0,0-1.7,0L6.707,84.164,2.893,80.351a1.2,1.2,0,0,0-1.7,0L.351,81.2a1.2,1.2,0,0,0,0,1.7l3.813,3.813L.351,90.52a1.2,1.2,0,0,0,0,1.7l.848.848a1.2,1.2,0,0,0,1.7,0l3.813-3.813,3.813,3.813a1.2,1.2,0,0,0,1.7,0l.848-.848a1.2,1.2,0,0,0,0-1.7Z" transform="translate(-20113 -13713)" fill="#fff"/>
    <rect id="Rectangle_77553" data-name="Rectangle 77553" width="56" height="22" rx="2" transform="translate(-19960 -13901)" fill="#ff8080"/>
    <path id="times-22" data-name="times" d="M9.249,86.707l3.813-3.813a1.2,1.2,0,0,0,0-1.7l-.848-.847a1.2,1.2,0,0,0-1.7,0L6.707,84.164,2.893,80.351a1.2,1.2,0,0,0-1.7,0L.351,81.2a1.2,1.2,0,0,0,0,1.7l3.813,3.813L.351,90.52a1.2,1.2,0,0,0,0,1.7l.848.848a1.2,1.2,0,0,0,1.7,0l3.813-3.813,3.813,3.813a1.2,1.2,0,0,0,1.7,0l.848-.848a1.2,1.2,0,0,0,0-1.7Z" transform="translate(-19939 -13977)" fill="#fff"/>
    <rect id="Rectangle_77554" data-name="Rectangle 77554" width="56" height="22" rx="2" transform="translate(-20134 -13661)" fill="#ff8080"/>
    <path id="times-23" data-name="times" d="M9.249,86.707l3.813-3.813a1.2,1.2,0,0,0,0-1.7l-.848-.847a1.2,1.2,0,0,0-1.7,0L6.707,84.164,2.893,80.351a1.2,1.2,0,0,0-1.7,0L.351,81.2a1.2,1.2,0,0,0,0,1.7l3.813,3.813L.351,90.52a1.2,1.2,0,0,0,0,1.7l.848.848a1.2,1.2,0,0,0,1.7,0l3.813-3.813,3.813,3.813a1.2,1.2,0,0,0,1.7,0l.848-.848a1.2,1.2,0,0,0,0-1.7Z" transform="translate(-20113 -13737)" fill="#fff"/>
    <rect id="Rectangle_77555" data-name="Rectangle 77555" width="56" height="22" rx="2" transform="translate(-20076 -13637)" fill="#ff8080"/>
    <path id="times-24" data-name="times" d="M9.249,86.707l3.813-3.813a1.2,1.2,0,0,0,0-1.7l-.848-.847a1.2,1.2,0,0,0-1.7,0L6.707,84.164,2.893,80.351a1.2,1.2,0,0,0-1.7,0L.351,81.2a1.2,1.2,0,0,0,0,1.7l3.813,3.813L.351,90.52a1.2,1.2,0,0,0,0,1.7l.848.848a1.2,1.2,0,0,0,1.7,0l3.813-3.813,3.813,3.813a1.2,1.2,0,0,0,1.7,0l.848-.848a1.2,1.2,0,0,0,0-1.7Z" transform="translate(-20055 -13713)" fill="#fff"/>
    <rect id="Rectangle_77556" data-name="Rectangle 77556" width="56" height="22" rx="2" transform="translate(-19902 -13901)" fill="#ff8080"/>
    <path id="times-25" data-name="times" d="M9.249,86.707l3.813-3.813a1.2,1.2,0,0,0,0-1.7l-.848-.847a1.2,1.2,0,0,0-1.7,0L6.707,84.164,2.893,80.351a1.2,1.2,0,0,0-1.7,0L.351,81.2a1.2,1.2,0,0,0,0,1.7l3.813,3.813L.351,90.52a1.2,1.2,0,0,0,0,1.7l.848.848a1.2,1.2,0,0,0,1.7,0l3.813-3.813,3.813,3.813a1.2,1.2,0,0,0,1.7,0l.848-.848a1.2,1.2,0,0,0,0-1.7Z" transform="translate(-19881 -13977)" fill="#fff"/>
    <rect id="Rectangle_77557" data-name="Rectangle 77557" width="56" height="22" rx="2" transform="translate(-20076 -13661)" fill="#ff8080"/>
    <path id="times-26" data-name="times" d="M9.249,86.707l3.813-3.813a1.2,1.2,0,0,0,0-1.7l-.848-.847a1.2,1.2,0,0,0-1.7,0L6.707,84.164,2.893,80.351a1.2,1.2,0,0,0-1.7,0L.351,81.2a1.2,1.2,0,0,0,0,1.7l3.813,3.813L.351,90.52a1.2,1.2,0,0,0,0,1.7l.848.848a1.2,1.2,0,0,0,1.7,0l3.813-3.813,3.813,3.813a1.2,1.2,0,0,0,1.7,0l.848-.848a1.2,1.2,0,0,0,0-1.7Z" transform="translate(-20055 -13737)" fill="#fff"/>
    <rect id="Rectangle_77558" data-name="Rectangle 77558" width="56" height="22" rx="2" transform="translate(-20018 -13637)" fill="#ff8080"/>
    <path id="times-27" data-name="times" d="M9.249,86.707l3.813-3.813a1.2,1.2,0,0,0,0-1.7l-.848-.847a1.2,1.2,0,0,0-1.7,0L6.707,84.164,2.893,80.351a1.2,1.2,0,0,0-1.7,0L.351,81.2a1.2,1.2,0,0,0,0,1.7l3.813,3.813L.351,90.52a1.2,1.2,0,0,0,0,1.7l.848.848a1.2,1.2,0,0,0,1.7,0l3.813-3.813,3.813,3.813a1.2,1.2,0,0,0,1.7,0l.848-.848a1.2,1.2,0,0,0,0-1.7Z" transform="translate(-19997 -13713)" fill="#fff"/>
    <rect id="Rectangle_77559" data-name="Rectangle 77559" width="56" height="22" rx="2" transform="translate(-20598 -13853)" fill="#ff8080"/>
    <path id="times-28" data-name="times" d="M9.249,86.707l3.813-3.813a1.2,1.2,0,0,0,0-1.7l-.848-.847a1.2,1.2,0,0,0-1.7,0L6.707,84.164,2.893,80.351a1.2,1.2,0,0,0-1.7,0L.351,81.2a1.2,1.2,0,0,0,0,1.7l3.813,3.813L.351,90.52a1.2,1.2,0,0,0,0,1.7l.848.848a1.2,1.2,0,0,0,1.7,0l3.813-3.813,3.813,3.813a1.2,1.2,0,0,0,1.7,0l.848-.848a1.2,1.2,0,0,0,0-1.7Z" transform="translate(-20577 -13929)" fill="#fff"/>
    <rect id="Rectangle_77560" data-name="Rectangle 77560" width="56" height="22" rx="2" transform="translate(-20540 -13853)" fill="#ff8080"/>
    <path id="times-29" data-name="times" d="M9.249,86.707l3.813-3.813a1.2,1.2,0,0,0,0-1.7l-.848-.847a1.2,1.2,0,0,0-1.7,0L6.707,84.164,2.893,80.351a1.2,1.2,0,0,0-1.7,0L.351,81.2a1.2,1.2,0,0,0,0,1.7l3.813,3.813L.351,90.52a1.2,1.2,0,0,0,0,1.7l.848.848a1.2,1.2,0,0,0,1.7,0l3.813-3.813,3.813,3.813a1.2,1.2,0,0,0,1.7,0l.848-.848a1.2,1.2,0,0,0,0-1.7Z" transform="translate(-20519 -13929)" fill="#fff"/>
    <rect id="Rectangle_77561" data-name="Rectangle 77561" width="56" height="22" rx="2" transform="translate(-20540 -13877)" fill="#60d5bd"/>
    <rect id="Rectangle_77562" data-name="Rectangle 77562" width="56" height="22" rx="2" transform="translate(-20192 -13733)" fill="#60d5bd"/>
    <rect id="Rectangle_77563" data-name="Rectangle 77563" width="56" height="22" rx="2" transform="translate(-20424 -13829)" fill="#60d5bd"/>
    <rect id="Rectangle_77564" data-name="Rectangle 77564" width="56" height="22" rx="2" transform="translate(-20076 -13685)" fill="#60d5bd"/>
    <rect id="Rectangle_77565" data-name="Rectangle 77565" width="56" height="22" rx="2" transform="translate(-20308 -13781)" fill="#60d5bd"/>
    <rect id="Rectangle_77566" data-name="Rectangle 77566" width="56" height="22" rx="2" transform="translate(-19960 -13637)" fill="#60d5bd"/>
    <rect id="Rectangle_77567" data-name="Rectangle 77567" width="56" height="22" rx="2" transform="translate(-19902 -13613)" fill="#60d5bd"/>
    <rect id="Rectangle_77568" data-name="Rectangle 77568" width="56" height="22" rx="2" transform="translate(-20482 -13877)" fill="#ff8080"/>
    <path id="times-30" data-name="times" d="M9.249,86.707l3.813-3.813a1.2,1.2,0,0,0,0-1.7l-.848-.847a1.2,1.2,0,0,0-1.7,0L6.707,84.164,2.893,80.351a1.2,1.2,0,0,0-1.7,0L.351,81.2a1.2,1.2,0,0,0,0,1.7l3.813,3.813L.351,90.52a1.2,1.2,0,0,0,0,1.7l.848.848a1.2,1.2,0,0,0,1.7,0l3.813-3.813,3.813,3.813a1.2,1.2,0,0,0,1.7,0l.848-.848a1.2,1.2,0,0,0,0-1.7Z" transform="translate(-20461 -13953)" fill="#fff"/>
    <rect id="Rectangle_77569" data-name="Rectangle 77569" width="56" height="22" rx="2" transform="translate(-20424 -13877)" fill="#ff8080"/>
    <path id="times-31" data-name="times" d="M9.249,86.707l3.813-3.813a1.2,1.2,0,0,0,0-1.7l-.848-.847a1.2,1.2,0,0,0-1.7,0L6.707,84.164,2.893,80.351a1.2,1.2,0,0,0-1.7,0L.351,81.2a1.2,1.2,0,0,0,0,1.7l3.813,3.813L.351,90.52a1.2,1.2,0,0,0,0,1.7l.848.848a1.2,1.2,0,0,0,1.7,0l3.813-3.813,3.813,3.813a1.2,1.2,0,0,0,1.7,0l.848-.848a1.2,1.2,0,0,0,0-1.7Z" transform="translate(-20403 -13953)" fill="#fff"/>
    <rect id="Rectangle_77570" data-name="Rectangle 77570" width="56" height="22" rx="2" transform="translate(-20366 -13877)" fill="#ff8080"/>
    <path id="times-32" data-name="times" d="M9.249,86.707l3.813-3.813a1.2,1.2,0,0,0,0-1.7l-.848-.847a1.2,1.2,0,0,0-1.7,0L6.707,84.164,2.893,80.351a1.2,1.2,0,0,0-1.7,0L.351,81.2a1.2,1.2,0,0,0,0,1.7l3.813,3.813L.351,90.52a1.2,1.2,0,0,0,0,1.7l.848.848a1.2,1.2,0,0,0,1.7,0l3.813-3.813,3.813,3.813a1.2,1.2,0,0,0,1.7,0l.848-.848a1.2,1.2,0,0,0,0-1.7Z" transform="translate(-20345 -13953)" fill="#fff"/>
    <rect id="Rectangle_77571" data-name="Rectangle 77571" width="56" height="22" rx="2" transform="translate(-20308 -13877)" fill="#ff8080"/>
    <path id="times-33" data-name="times" d="M9.249,86.707l3.813-3.813a1.2,1.2,0,0,0,0-1.7l-.848-.847a1.2,1.2,0,0,0-1.7,0L6.707,84.164,2.893,80.351a1.2,1.2,0,0,0-1.7,0L.351,81.2a1.2,1.2,0,0,0,0,1.7l3.813,3.813L.351,90.52a1.2,1.2,0,0,0,0,1.7l.848.848a1.2,1.2,0,0,0,1.7,0l3.813-3.813,3.813,3.813a1.2,1.2,0,0,0,1.7,0l.848-.848a1.2,1.2,0,0,0,0-1.7Z" transform="translate(-20287 -13953)" fill="#fff"/>
    <rect id="Rectangle_77572" data-name="Rectangle 77572" width="56" height="22" rx="2" transform="translate(-20308 -13853)" fill="#ff8080"/>
    <path id="times-34" data-name="times" d="M9.249,86.707l3.813-3.813a1.2,1.2,0,0,0,0-1.7l-.848-.847a1.2,1.2,0,0,0-1.7,0L6.707,84.164,2.893,80.351a1.2,1.2,0,0,0-1.7,0L.351,81.2a1.2,1.2,0,0,0,0,1.7l3.813,3.813L.351,90.52a1.2,1.2,0,0,0,0,1.7l.848.848a1.2,1.2,0,0,0,1.7,0l3.813-3.813,3.813,3.813a1.2,1.2,0,0,0,1.7,0l.848-.848a1.2,1.2,0,0,0,0-1.7Z" transform="translate(-20287 -13929)" fill="#fff"/>
    <rect id="Rectangle_77573" data-name="Rectangle 77573" width="56" height="22" rx="2" transform="translate(-20308 -13829)" fill="#ff8080"/>
    <path id="times-35" data-name="times" d="M9.249,86.707l3.813-3.813a1.2,1.2,0,0,0,0-1.7l-.848-.847a1.2,1.2,0,0,0-1.7,0L6.707,84.164,2.893,80.351a1.2,1.2,0,0,0-1.7,0L.351,81.2a1.2,1.2,0,0,0,0,1.7l3.813,3.813L.351,90.52a1.2,1.2,0,0,0,0,1.7l.848.848a1.2,1.2,0,0,0,1.7,0l3.813-3.813,3.813,3.813a1.2,1.2,0,0,0,1.7,0l.848-.848a1.2,1.2,0,0,0,0-1.7Z" transform="translate(-20287 -13905)" fill="#fff"/>
    <rect id="Rectangle_77574" data-name="Rectangle 77574" width="56" height="22" rx="2" transform="translate(-20308 -13805)" fill="#ff8080"/>
    <path id="times-36" data-name="times" d="M9.249,86.707l3.813-3.813a1.2,1.2,0,0,0,0-1.7l-.848-.847a1.2,1.2,0,0,0-1.7,0L6.707,84.164,2.893,80.351a1.2,1.2,0,0,0-1.7,0L.351,81.2a1.2,1.2,0,0,0,0,1.7l3.813,3.813L.351,90.52a1.2,1.2,0,0,0,0,1.7l.848.848a1.2,1.2,0,0,0,1.7,0l3.813-3.813,3.813,3.813a1.2,1.2,0,0,0,1.7,0l.848-.848a1.2,1.2,0,0,0,0-1.7Z" transform="translate(-20287 -13881)" fill="#fff"/>
    <rect id="Rectangle_77575" data-name="Rectangle 77575" width="56" height="22" rx="2" transform="translate(-20250 -13877)" fill="#ff8080"/>
    <path id="times-37" data-name="times" d="M9.249,86.707l3.813-3.813a1.2,1.2,0,0,0,0-1.7l-.848-.847a1.2,1.2,0,0,0-1.7,0L6.707,84.164,2.893,80.351a1.2,1.2,0,0,0-1.7,0L.351,81.2a1.2,1.2,0,0,0,0,1.7l3.813,3.813L.351,90.52a1.2,1.2,0,0,0,0,1.7l.848.848a1.2,1.2,0,0,0,1.7,0l3.813-3.813,3.813,3.813a1.2,1.2,0,0,0,1.7,0l.848-.848a1.2,1.2,0,0,0,0-1.7Z" transform="translate(-20229 -13953)" fill="#fff"/>
    <rect id="Rectangle_77576" data-name="Rectangle 77576" width="56" height="22" rx="2" transform="translate(-20250 -13781)" fill="#ff8080"/>
    <path id="times-38" data-name="times" d="M9.249,86.707l3.813-3.813a1.2,1.2,0,0,0,0-1.7l-.848-.847a1.2,1.2,0,0,0-1.7,0L6.707,84.164,2.893,80.351a1.2,1.2,0,0,0-1.7,0L.351,81.2a1.2,1.2,0,0,0,0,1.7l3.813,3.813L.351,90.52a1.2,1.2,0,0,0,0,1.7l.848.848a1.2,1.2,0,0,0,1.7,0l3.813-3.813,3.813,3.813a1.2,1.2,0,0,0,1.7,0l.848-.848a1.2,1.2,0,0,0,0-1.7Z" transform="translate(-20229 -13857)" fill="#fff"/>
    <rect id="Rectangle_77577" data-name="Rectangle 77577" width="56" height="22" rx="2" transform="translate(-20192 -13877)" fill="#ff8080"/>
    <path id="times-39" data-name="times" d="M9.249,86.707l3.813-3.813a1.2,1.2,0,0,0,0-1.7l-.848-.847a1.2,1.2,0,0,0-1.7,0L6.707,84.164,2.893,80.351a1.2,1.2,0,0,0-1.7,0L.351,81.2a1.2,1.2,0,0,0,0,1.7l3.813,3.813L.351,90.52a1.2,1.2,0,0,0,0,1.7l.848.848a1.2,1.2,0,0,0,1.7,0l3.813-3.813,3.813,3.813a1.2,1.2,0,0,0,1.7,0l.848-.848a1.2,1.2,0,0,0,0-1.7Z" transform="translate(-20171 -13953)" fill="#fff"/>
    <rect id="Rectangle_77578" data-name="Rectangle 77578" width="56" height="22" rx="2" transform="translate(-20192 -13853)" fill="#ff8080"/>
    <path id="times-40" data-name="times" d="M9.249,86.707l3.813-3.813a1.2,1.2,0,0,0,0-1.7l-.848-.847a1.2,1.2,0,0,0-1.7,0L6.707,84.164,2.893,80.351a1.2,1.2,0,0,0-1.7,0L.351,81.2a1.2,1.2,0,0,0,0,1.7l3.813,3.813L.351,90.52a1.2,1.2,0,0,0,0,1.7l.848.848a1.2,1.2,0,0,0,1.7,0l3.813-3.813,3.813,3.813a1.2,1.2,0,0,0,1.7,0l.848-.848a1.2,1.2,0,0,0,0-1.7Z" transform="translate(-20171 -13929)" fill="#fff"/>
    <rect id="Rectangle_77579" data-name="Rectangle 77579" width="56" height="22" rx="2" transform="translate(-20192 -13829)" fill="#ff8080"/>
    <path id="times-41" data-name="times" d="M9.249,86.707l3.813-3.813a1.2,1.2,0,0,0,0-1.7l-.848-.847a1.2,1.2,0,0,0-1.7,0L6.707,84.164,2.893,80.351a1.2,1.2,0,0,0-1.7,0L.351,81.2a1.2,1.2,0,0,0,0,1.7l3.813,3.813L.351,90.52a1.2,1.2,0,0,0,0,1.7l.848.848a1.2,1.2,0,0,0,1.7,0l3.813-3.813,3.813,3.813a1.2,1.2,0,0,0,1.7,0l.848-.848a1.2,1.2,0,0,0,0-1.7Z" transform="translate(-20171 -13905)" fill="#fff"/>
    <rect id="Rectangle_77580" data-name="Rectangle 77580" width="56" height="22" rx="2" transform="translate(-20192 -13805)" fill="#ff8080"/>
    <path id="times-42" data-name="times" d="M9.249,86.707l3.813-3.813a1.2,1.2,0,0,0,0-1.7l-.848-.847a1.2,1.2,0,0,0-1.7,0L6.707,84.164,2.893,80.351a1.2,1.2,0,0,0-1.7,0L.351,81.2a1.2,1.2,0,0,0,0,1.7l3.813,3.813L.351,90.52a1.2,1.2,0,0,0,0,1.7l.848.848a1.2,1.2,0,0,0,1.7,0l3.813-3.813,3.813,3.813a1.2,1.2,0,0,0,1.7,0l.848-.848a1.2,1.2,0,0,0,0-1.7Z" transform="translate(-20171 -13881)" fill="#fff"/>
    <rect id="Rectangle_77581" data-name="Rectangle 77581" width="56" height="22" rx="2" transform="translate(-20192 -13781)" fill="#ff8080"/>
    <path id="times-43" data-name="times" d="M9.249,86.707l3.813-3.813a1.2,1.2,0,0,0,0-1.7l-.848-.847a1.2,1.2,0,0,0-1.7,0L6.707,84.164,2.893,80.351a1.2,1.2,0,0,0-1.7,0L.351,81.2a1.2,1.2,0,0,0,0,1.7l3.813,3.813L.351,90.52a1.2,1.2,0,0,0,0,1.7l.848.848a1.2,1.2,0,0,0,1.7,0l3.813-3.813,3.813,3.813a1.2,1.2,0,0,0,1.7,0l.848-.848a1.2,1.2,0,0,0,0-1.7Z" transform="translate(-20171 -13857)" fill="#fff"/>
    <rect id="Rectangle_77582" data-name="Rectangle 77582" width="56" height="22" rx="2" transform="translate(-20192 -13757)" fill="#ff8080"/>
    <path id="times-44" data-name="times" d="M9.249,86.707l3.813-3.813a1.2,1.2,0,0,0,0-1.7l-.848-.847a1.2,1.2,0,0,0-1.7,0L6.707,84.164,2.893,80.351a1.2,1.2,0,0,0-1.7,0L.351,81.2a1.2,1.2,0,0,0,0,1.7l3.813,3.813L.351,90.52a1.2,1.2,0,0,0,0,1.7l.848.848a1.2,1.2,0,0,0,1.7,0l3.813-3.813,3.813,3.813a1.2,1.2,0,0,0,1.7,0l.848-.848a1.2,1.2,0,0,0,0-1.7Z" transform="translate(-20171 -13833)" fill="#fff"/>
    <rect id="Rectangle_77583" data-name="Rectangle 77583" width="56" height="22" rx="2" transform="translate(-20134 -13877)" fill="#ff8080"/>
    <path id="times-45" data-name="times" d="M9.249,86.707l3.813-3.813a1.2,1.2,0,0,0,0-1.7l-.848-.847a1.2,1.2,0,0,0-1.7,0L6.707,84.164,2.893,80.351a1.2,1.2,0,0,0-1.7,0L.351,81.2a1.2,1.2,0,0,0,0,1.7l3.813,3.813L.351,90.52a1.2,1.2,0,0,0,0,1.7l.848.848a1.2,1.2,0,0,0,1.7,0l3.813-3.813,3.813,3.813a1.2,1.2,0,0,0,1.7,0l.848-.848a1.2,1.2,0,0,0,0-1.7Z" transform="translate(-20113 -13953)" fill="#fff"/>
    <rect id="Rectangle_77584" data-name="Rectangle 77584" width="56" height="22" rx="2" transform="translate(-20134 -13853)" fill="#ff8080"/>
    <path id="times-46" data-name="times" d="M9.249,86.707l3.813-3.813a1.2,1.2,0,0,0,0-1.7l-.848-.847a1.2,1.2,0,0,0-1.7,0L6.707,84.164,2.893,80.351a1.2,1.2,0,0,0-1.7,0L.351,81.2a1.2,1.2,0,0,0,0,1.7l3.813,3.813L.351,90.52a1.2,1.2,0,0,0,0,1.7l.848.848a1.2,1.2,0,0,0,1.7,0l3.813-3.813,3.813,3.813a1.2,1.2,0,0,0,1.7,0l.848-.848a1.2,1.2,0,0,0,0-1.7Z" transform="translate(-20113 -13929)" fill="#fff"/>
    <rect id="Rectangle_77585" data-name="Rectangle 77585" width="56" height="22" rx="2" transform="translate(-20134 -13829)" fill="#ff8080"/>
    <path id="times-47" data-name="times" d="M9.249,86.707l3.813-3.813a1.2,1.2,0,0,0,0-1.7l-.848-.847a1.2,1.2,0,0,0-1.7,0L6.707,84.164,2.893,80.351a1.2,1.2,0,0,0-1.7,0L.351,81.2a1.2,1.2,0,0,0,0,1.7l3.813,3.813L.351,90.52a1.2,1.2,0,0,0,0,1.7l.848.848a1.2,1.2,0,0,0,1.7,0l3.813-3.813,3.813,3.813a1.2,1.2,0,0,0,1.7,0l.848-.848a1.2,1.2,0,0,0,0-1.7Z" transform="translate(-20113 -13905)" fill="#fff"/>
    <rect id="Rectangle_77586" data-name="Rectangle 77586" width="56" height="22" rx="2" transform="translate(-20134 -13805)" fill="#ff8080"/>
    <path id="times-48" data-name="times" d="M9.249,86.707l3.813-3.813a1.2,1.2,0,0,0,0-1.7l-.848-.847a1.2,1.2,0,0,0-1.7,0L6.707,84.164,2.893,80.351a1.2,1.2,0,0,0-1.7,0L.351,81.2a1.2,1.2,0,0,0,0,1.7l3.813,3.813L.351,90.52a1.2,1.2,0,0,0,0,1.7l.848.848a1.2,1.2,0,0,0,1.7,0l3.813-3.813,3.813,3.813a1.2,1.2,0,0,0,1.7,0l.848-.848a1.2,1.2,0,0,0,0-1.7Z" transform="translate(-20113 -13881)" fill="#fff"/>
    <rect id="Rectangle_77587" data-name="Rectangle 77587" width="56" height="22" rx="2" transform="translate(-20134 -13781)" fill="#ff8080"/>
    <path id="times-49" data-name="times" d="M9.249,86.707l3.813-3.813a1.2,1.2,0,0,0,0-1.7l-.848-.847a1.2,1.2,0,0,0-1.7,0L6.707,84.164,2.893,80.351a1.2,1.2,0,0,0-1.7,0L.351,81.2a1.2,1.2,0,0,0,0,1.7l3.813,3.813L.351,90.52a1.2,1.2,0,0,0,0,1.7l.848.848a1.2,1.2,0,0,0,1.7,0l3.813-3.813,3.813,3.813a1.2,1.2,0,0,0,1.7,0l.848-.848a1.2,1.2,0,0,0,0-1.7Z" transform="translate(-20113 -13857)" fill="#fff"/>
    <rect id="Rectangle_77588" data-name="Rectangle 77588" width="56" height="22" rx="2" transform="translate(-20134 -13757)" fill="#ff8080"/>
    <path id="times-50" data-name="times" d="M9.249,86.707l3.813-3.813a1.2,1.2,0,0,0,0-1.7l-.848-.847a1.2,1.2,0,0,0-1.7,0L6.707,84.164,2.893,80.351a1.2,1.2,0,0,0-1.7,0L.351,81.2a1.2,1.2,0,0,0,0,1.7l3.813,3.813L.351,90.52a1.2,1.2,0,0,0,0,1.7l.848.848a1.2,1.2,0,0,0,1.7,0l3.813-3.813,3.813,3.813a1.2,1.2,0,0,0,1.7,0l.848-.848a1.2,1.2,0,0,0,0-1.7Z" transform="translate(-20113 -13833)" fill="#fff"/>
    <rect id="Rectangle_77589" data-name="Rectangle 77589" width="56" height="22" rx="2" transform="translate(-20134 -13733)" fill="#ff8080"/>
    <path id="times-51" data-name="times" d="M9.249,86.707l3.813-3.813a1.2,1.2,0,0,0,0-1.7l-.848-.847a1.2,1.2,0,0,0-1.7,0L6.707,84.164,2.893,80.351a1.2,1.2,0,0,0-1.7,0L.351,81.2a1.2,1.2,0,0,0,0,1.7l3.813,3.813L.351,90.52a1.2,1.2,0,0,0,0,1.7l.848.848a1.2,1.2,0,0,0,1.7,0l3.813-3.813,3.813,3.813a1.2,1.2,0,0,0,1.7,0l.848-.848a1.2,1.2,0,0,0,0-1.7Z" transform="translate(-20113 -13808)" fill="#fff"/>
    <rect id="Rectangle_77590" data-name="Rectangle 77590" width="56" height="22" rx="2" transform="translate(-20076 -13877)" fill="#ff8080"/>
    <path id="times-52" data-name="times" d="M9.249,86.707l3.813-3.813a1.2,1.2,0,0,0,0-1.7l-.848-.847a1.2,1.2,0,0,0-1.7,0L6.707,84.164,2.893,80.351a1.2,1.2,0,0,0-1.7,0L.351,81.2a1.2,1.2,0,0,0,0,1.7l3.813,3.813L.351,90.52a1.2,1.2,0,0,0,0,1.7l.848.848a1.2,1.2,0,0,0,1.7,0l3.813-3.813,3.813,3.813a1.2,1.2,0,0,0,1.7,0l.848-.848a1.2,1.2,0,0,0,0-1.7Z" transform="translate(-20055 -13953)" fill="#fff"/>
    <rect id="Rectangle_77591" data-name="Rectangle 77591" width="56" height="22" rx="2" transform="translate(-20076 -13853)" fill="#ff8080"/>
    <path id="times-53" data-name="times" d="M9.249,86.707l3.813-3.813a1.2,1.2,0,0,0,0-1.7l-.848-.847a1.2,1.2,0,0,0-1.7,0L6.707,84.164,2.893,80.351a1.2,1.2,0,0,0-1.7,0L.351,81.2a1.2,1.2,0,0,0,0,1.7l3.813,3.813L.351,90.52a1.2,1.2,0,0,0,0,1.7l.848.848a1.2,1.2,0,0,0,1.7,0l3.813-3.813,3.813,3.813a1.2,1.2,0,0,0,1.7,0l.848-.848a1.2,1.2,0,0,0,0-1.7Z" transform="translate(-20055 -13929)" fill="#fff"/>
    <rect id="Rectangle_77592" data-name="Rectangle 77592" width="56" height="22" rx="2" transform="translate(-20076 -13829)" fill="#ff8080"/>
    <path id="times-54" data-name="times" d="M9.249,86.707l3.813-3.813a1.2,1.2,0,0,0,0-1.7l-.848-.847a1.2,1.2,0,0,0-1.7,0L6.707,84.164,2.893,80.351a1.2,1.2,0,0,0-1.7,0L.351,81.2a1.2,1.2,0,0,0,0,1.7l3.813,3.813L.351,90.52a1.2,1.2,0,0,0,0,1.7l.848.848a1.2,1.2,0,0,0,1.7,0l3.813-3.813,3.813,3.813a1.2,1.2,0,0,0,1.7,0l.848-.848a1.2,1.2,0,0,0,0-1.7Z" transform="translate(-20055 -13905)" fill="#fff"/>
    <rect id="Rectangle_77593" data-name="Rectangle 77593" width="56" height="22" rx="2" transform="translate(-20076 -13805)" fill="#ff8080"/>
    <path id="times-55" data-name="times" d="M9.249,86.707l3.813-3.813a1.2,1.2,0,0,0,0-1.7l-.848-.847a1.2,1.2,0,0,0-1.7,0L6.707,84.164,2.893,80.351a1.2,1.2,0,0,0-1.7,0L.351,81.2a1.2,1.2,0,0,0,0,1.7l3.813,3.813L.351,90.52a1.2,1.2,0,0,0,0,1.7l.848.848a1.2,1.2,0,0,0,1.7,0l3.813-3.813,3.813,3.813a1.2,1.2,0,0,0,1.7,0l.848-.848a1.2,1.2,0,0,0,0-1.7Z" transform="translate(-20055 -13881)" fill="#fff"/>
    <rect id="Rectangle_77594" data-name="Rectangle 77594" width="56" height="22" rx="2" transform="translate(-20076 -13781)" fill="#ff8080"/>
    <path id="times-56" data-name="times" d="M9.249,86.707l3.813-3.813a1.2,1.2,0,0,0,0-1.7l-.848-.847a1.2,1.2,0,0,0-1.7,0L6.707,84.164,2.893,80.351a1.2,1.2,0,0,0-1.7,0L.351,81.2a1.2,1.2,0,0,0,0,1.7l3.813,3.813L.351,90.52a1.2,1.2,0,0,0,0,1.7l.848.848a1.2,1.2,0,0,0,1.7,0l3.813-3.813,3.813,3.813a1.2,1.2,0,0,0,1.7,0l.848-.848a1.2,1.2,0,0,0,0-1.7Z" transform="translate(-20055 -13857)" fill="#fff"/>
    <rect id="Rectangle_77595" data-name="Rectangle 77595" width="56" height="22" rx="2" transform="translate(-20076 -13757)" fill="#ff8080"/>
    <path id="times-57" data-name="times" d="M9.249,86.707l3.813-3.813a1.2,1.2,0,0,0,0-1.7l-.848-.847a1.2,1.2,0,0,0-1.7,0L6.707,84.164,2.893,80.351a1.2,1.2,0,0,0-1.7,0L.351,81.2a1.2,1.2,0,0,0,0,1.7l3.813,3.813L.351,90.52a1.2,1.2,0,0,0,0,1.7l.848.848a1.2,1.2,0,0,0,1.7,0l3.813-3.813,3.813,3.813a1.2,1.2,0,0,0,1.7,0l.848-.848a1.2,1.2,0,0,0,0-1.7Z" transform="translate(-20055 -13833)" fill="#fff"/>
    <rect id="Rectangle_77596" data-name="Rectangle 77596" width="56" height="22" rx="2" transform="translate(-20076 -13733)" fill="#ff8080"/>
    <path id="times-58" data-name="times" d="M9.249,86.707l3.813-3.813a1.2,1.2,0,0,0,0-1.7l-.848-.847a1.2,1.2,0,0,0-1.7,0L6.707,84.164,2.893,80.351a1.2,1.2,0,0,0-1.7,0L.351,81.2a1.2,1.2,0,0,0,0,1.7l3.813,3.813L.351,90.52a1.2,1.2,0,0,0,0,1.7l.848.848a1.2,1.2,0,0,0,1.7,0l3.813-3.813,3.813,3.813a1.2,1.2,0,0,0,1.7,0l.848-.848a1.2,1.2,0,0,0,0-1.7Z" transform="translate(-20055 -13808)" fill="#fff"/>
    <rect id="Rectangle_77597" data-name="Rectangle 77597" width="56" height="22" rx="2" transform="translate(-20076 -13709)" fill="#ff8080"/>
    <path id="times-59" data-name="times" d="M9.249,86.707l3.813-3.813a1.2,1.2,0,0,0,0-1.7l-.848-.847a1.2,1.2,0,0,0-1.7,0L6.707,84.164,2.893,80.351a1.2,1.2,0,0,0-1.7,0L.351,81.2a1.2,1.2,0,0,0,0,1.7l3.813,3.813L.351,90.52a1.2,1.2,0,0,0,0,1.7l.848.848a1.2,1.2,0,0,0,1.7,0l3.813-3.813,3.813,3.813a1.2,1.2,0,0,0,1.7,0l.848-.848a1.2,1.2,0,0,0,0-1.7Z" transform="translate(-20055 -13785)" fill="#fff"/>
    <rect id="Rectangle_77598" data-name="Rectangle 77598" width="56" height="22" rx="2" transform="translate(-20018 -13877)" fill="#ff8080"/>
    <path id="times-60" data-name="times" d="M9.249,86.707l3.813-3.813a1.2,1.2,0,0,0,0-1.7l-.848-.847a1.2,1.2,0,0,0-1.7,0L6.707,84.164,2.893,80.351a1.2,1.2,0,0,0-1.7,0L.351,81.2a1.2,1.2,0,0,0,0,1.7l3.813,3.813L.351,90.52a1.2,1.2,0,0,0,0,1.7l.848.848a1.2,1.2,0,0,0,1.7,0l3.813-3.813,3.813,3.813a1.2,1.2,0,0,0,1.7,0l.848-.848a1.2,1.2,0,0,0,0-1.7Z" transform="translate(-19997 -13953)" fill="#fff"/>
    <rect id="Rectangle_77599" data-name="Rectangle 77599" width="56" height="22" rx="2" transform="translate(-20018 -13853)" fill="#ff8080"/>
    <path id="times-61" data-name="times" d="M9.249,86.707l3.813-3.813a1.2,1.2,0,0,0,0-1.7l-.848-.847a1.2,1.2,0,0,0-1.7,0L6.707,84.164,2.893,80.351a1.2,1.2,0,0,0-1.7,0L.351,81.2a1.2,1.2,0,0,0,0,1.7l3.813,3.813L.351,90.52a1.2,1.2,0,0,0,0,1.7l.848.848a1.2,1.2,0,0,0,1.7,0l3.813-3.813,3.813,3.813a1.2,1.2,0,0,0,1.7,0l.848-.848a1.2,1.2,0,0,0,0-1.7Z" transform="translate(-19997 -13929)" fill="#fff"/>
    <rect id="Rectangle_77600" data-name="Rectangle 77600" width="56" height="22" rx="2" transform="translate(-20018 -13829)" fill="#ff8080"/>
    <path id="times-62" data-name="times" d="M9.249,86.707l3.813-3.813a1.2,1.2,0,0,0,0-1.7l-.848-.847a1.2,1.2,0,0,0-1.7,0L6.707,84.164,2.893,80.351a1.2,1.2,0,0,0-1.7,0L.351,81.2a1.2,1.2,0,0,0,0,1.7l3.813,3.813L.351,90.52a1.2,1.2,0,0,0,0,1.7l.848.848a1.2,1.2,0,0,0,1.7,0l3.813-3.813,3.813,3.813a1.2,1.2,0,0,0,1.7,0l.848-.848a1.2,1.2,0,0,0,0-1.7Z" transform="translate(-19997 -13905)" fill="#fff"/>
    <rect id="Rectangle_77601" data-name="Rectangle 77601" width="56" height="22" rx="2" transform="translate(-20018 -13805)" fill="#ff8080"/>
    <path id="times-63" data-name="times" d="M9.249,86.707l3.813-3.813a1.2,1.2,0,0,0,0-1.7l-.848-.847a1.2,1.2,0,0,0-1.7,0L6.707,84.164,2.893,80.351a1.2,1.2,0,0,0-1.7,0L.351,81.2a1.2,1.2,0,0,0,0,1.7l3.813,3.813L.351,90.52a1.2,1.2,0,0,0,0,1.7l.848.848a1.2,1.2,0,0,0,1.7,0l3.813-3.813,3.813,3.813a1.2,1.2,0,0,0,1.7,0l.848-.848a1.2,1.2,0,0,0,0-1.7Z" transform="translate(-19997 -13881)" fill="#fff"/>
    <rect id="Rectangle_77602" data-name="Rectangle 77602" width="56" height="22" rx="2" transform="translate(-20018 -13781)" fill="#ff8080"/>
    <path id="times-64" data-name="times" d="M9.249,86.707l3.813-3.813a1.2,1.2,0,0,0,0-1.7l-.848-.847a1.2,1.2,0,0,0-1.7,0L6.707,84.164,2.893,80.351a1.2,1.2,0,0,0-1.7,0L.351,81.2a1.2,1.2,0,0,0,0,1.7l3.813,3.813L.351,90.52a1.2,1.2,0,0,0,0,1.7l.848.848a1.2,1.2,0,0,0,1.7,0l3.813-3.813,3.813,3.813a1.2,1.2,0,0,0,1.7,0l.848-.848a1.2,1.2,0,0,0,0-1.7Z" transform="translate(-19997 -13857)" fill="#fff"/>
    <rect id="Rectangle_77603" data-name="Rectangle 77603" width="56" height="22" rx="2" transform="translate(-20018 -13757)" fill="#ff8080"/>
    <path id="times-65" data-name="times" d="M9.249,86.707l3.813-3.813a1.2,1.2,0,0,0,0-1.7l-.848-.847a1.2,1.2,0,0,0-1.7,0L6.707,84.164,2.893,80.351a1.2,1.2,0,0,0-1.7,0L.351,81.2a1.2,1.2,0,0,0,0,1.7l3.813,3.813L.351,90.52a1.2,1.2,0,0,0,0,1.7l.848.848a1.2,1.2,0,0,0,1.7,0l3.813-3.813,3.813,3.813a1.2,1.2,0,0,0,1.7,0l.848-.848a1.2,1.2,0,0,0,0-1.7Z" transform="translate(-19997 -13833)" fill="#fff"/>
    <rect id="Rectangle_77604" data-name="Rectangle 77604" width="56" height="22" rx="2" transform="translate(-20018 -13733)" fill="#ff8080"/>
    <path id="times-66" data-name="times" d="M9.249,86.707l3.813-3.813a1.2,1.2,0,0,0,0-1.7l-.848-.847a1.2,1.2,0,0,0-1.7,0L6.707,84.164,2.893,80.351a1.2,1.2,0,0,0-1.7,0L.351,81.2a1.2,1.2,0,0,0,0,1.7l3.813,3.813L.351,90.52a1.2,1.2,0,0,0,0,1.7l.848.848a1.2,1.2,0,0,0,1.7,0l3.813-3.813,3.813,3.813a1.2,1.2,0,0,0,1.7,0l.848-.848a1.2,1.2,0,0,0,0-1.7Z" transform="translate(-19997 -13808)" fill="#fff"/>
    <rect id="Rectangle_77605" data-name="Rectangle 77605" width="56" height="22" rx="2" transform="translate(-20018 -13709)" fill="#ff8080"/>
    <path id="times-67" data-name="times" d="M9.249,86.707l3.813-3.813a1.2,1.2,0,0,0,0-1.7l-.848-.847a1.2,1.2,0,0,0-1.7,0L6.707,84.164,2.893,80.351a1.2,1.2,0,0,0-1.7,0L.351,81.2a1.2,1.2,0,0,0,0,1.7l3.813,3.813L.351,90.52a1.2,1.2,0,0,0,0,1.7l.848.848a1.2,1.2,0,0,0,1.7,0l3.813-3.813,3.813,3.813a1.2,1.2,0,0,0,1.7,0l.848-.848a1.2,1.2,0,0,0,0-1.7Z" transform="translate(-19997 -13785)" fill="#fff"/>
    <rect id="Rectangle_77606" data-name="Rectangle 77606" width="56" height="22" rx="2" transform="translate(-20018 -13685)" fill="#ff8080"/>
    <path id="times-68" data-name="times" d="M9.249,86.707l3.813-3.813a1.2,1.2,0,0,0,0-1.7l-.848-.847a1.2,1.2,0,0,0-1.7,0L6.707,84.164,2.893,80.351a1.2,1.2,0,0,0-1.7,0L.351,81.2a1.2,1.2,0,0,0,0,1.7l3.813,3.813L.351,90.52a1.2,1.2,0,0,0,0,1.7l.848.848a1.2,1.2,0,0,0,1.7,0l3.813-3.813,3.813,3.813a1.2,1.2,0,0,0,1.7,0l.848-.848a1.2,1.2,0,0,0,0-1.7Z" transform="translate(-19997 -13761)" fill="#fff"/>
    <rect id="Rectangle_77607" data-name="Rectangle 77607" width="56" height="22" rx="2" transform="translate(-20018 -13613)" fill="#ff8080"/>
    <path id="times-69" data-name="times" d="M9.249,86.707l3.813-3.813a1.2,1.2,0,0,0,0-1.7l-.848-.847a1.2,1.2,0,0,0-1.7,0L6.707,84.164,2.893,80.351a1.2,1.2,0,0,0-1.7,0L.351,81.2a1.2,1.2,0,0,0,0,1.7l3.813,3.813L.351,90.52a1.2,1.2,0,0,0,0,1.7l.848.848a1.2,1.2,0,0,0,1.7,0l3.813-3.813,3.813,3.813a1.2,1.2,0,0,0,1.7,0l.848-.848a1.2,1.2,0,0,0,0-1.7Z" transform="translate(-19997 -13689)" fill="#fff"/>
    <rect id="Rectangle_77608" data-name="Rectangle 77608" width="56" height="22" rx="2" transform="translate(-19960 -13877)" fill="#ff8080"/>
    <path id="times-70" data-name="times" d="M9.249,86.707l3.813-3.813a1.2,1.2,0,0,0,0-1.7l-.848-.847a1.2,1.2,0,0,0-1.7,0L6.707,84.164,2.893,80.351a1.2,1.2,0,0,0-1.7,0L.351,81.2a1.2,1.2,0,0,0,0,1.7l3.813,3.813L.351,90.52a1.2,1.2,0,0,0,0,1.7l.848.848a1.2,1.2,0,0,0,1.7,0l3.813-3.813,3.813,3.813a1.2,1.2,0,0,0,1.7,0l.848-.848a1.2,1.2,0,0,0,0-1.7Z" transform="translate(-19939 -13953)" fill="#fff"/>
    <rect id="Rectangle_77609" data-name="Rectangle 77609" width="56" height="22" rx="2" transform="translate(-19960 -13781)" fill="#ff8080"/>
    <path id="times-71" data-name="times" d="M9.249,86.707l3.813-3.813a1.2,1.2,0,0,0,0-1.7l-.848-.847a1.2,1.2,0,0,0-1.7,0L6.707,84.164,2.893,80.351a1.2,1.2,0,0,0-1.7,0L.351,81.2a1.2,1.2,0,0,0,0,1.7l3.813,3.813L.351,90.52a1.2,1.2,0,0,0,0,1.7l.848.848a1.2,1.2,0,0,0,1.7,0l3.813-3.813,3.813,3.813a1.2,1.2,0,0,0,1.7,0l.848-.848a1.2,1.2,0,0,0,0-1.7Z" transform="translate(-19939 -13857)" fill="#fff"/>
    <rect id="Rectangle_77610" data-name="Rectangle 77610" width="56" height="22" rx="2" transform="translate(-19960 -13757)" fill="#ff8080"/>
    <path id="times-72" data-name="times" d="M9.249,86.707l3.813-3.813a1.2,1.2,0,0,0,0-1.7l-.848-.847a1.2,1.2,0,0,0-1.7,0L6.707,84.164,2.893,80.351a1.2,1.2,0,0,0-1.7,0L.351,81.2a1.2,1.2,0,0,0,0,1.7l3.813,3.813L.351,90.52a1.2,1.2,0,0,0,0,1.7l.848.848a1.2,1.2,0,0,0,1.7,0l3.813-3.813,3.813,3.813a1.2,1.2,0,0,0,1.7,0l.848-.848a1.2,1.2,0,0,0,0-1.7Z" transform="translate(-19939 -13833)" fill="#fff"/>
    <rect id="Rectangle_77611" data-name="Rectangle 77611" width="56" height="22" rx="2" transform="translate(-19960 -13733)" fill="#ff8080"/>
    <path id="times-73" data-name="times" d="M9.249,86.707l3.813-3.813a1.2,1.2,0,0,0,0-1.7l-.848-.847a1.2,1.2,0,0,0-1.7,0L6.707,84.164,2.893,80.351a1.2,1.2,0,0,0-1.7,0L.351,81.2a1.2,1.2,0,0,0,0,1.7l3.813,3.813L.351,90.52a1.2,1.2,0,0,0,0,1.7l.848.848a1.2,1.2,0,0,0,1.7,0l3.813-3.813,3.813,3.813a1.2,1.2,0,0,0,1.7,0l.848-.848a1.2,1.2,0,0,0,0-1.7Z" transform="translate(-19939 -13808)" fill="#fff"/>
    <rect id="Rectangle_77612" data-name="Rectangle 77612" width="56" height="22" rx="2" transform="translate(-19960 -13709)" fill="#ff8080"/>
    <path id="times-74" data-name="times" d="M9.249,86.707l3.813-3.813a1.2,1.2,0,0,0,0-1.7l-.848-.847a1.2,1.2,0,0,0-1.7,0L6.707,84.164,2.893,80.351a1.2,1.2,0,0,0-1.7,0L.351,81.2a1.2,1.2,0,0,0,0,1.7l3.813,3.813L.351,90.52a1.2,1.2,0,0,0,0,1.7l.848.848a1.2,1.2,0,0,0,1.7,0l3.813-3.813,3.813,3.813a1.2,1.2,0,0,0,1.7,0l.848-.848a1.2,1.2,0,0,0,0-1.7Z" transform="translate(-19939 -13785)" fill="#fff"/>
    <rect id="Rectangle_77613" data-name="Rectangle 77613" width="56" height="22" rx="2" transform="translate(-19960 -13685)" fill="#ff8080"/>
    <path id="times-75" data-name="times" d="M9.249,86.707l3.813-3.813a1.2,1.2,0,0,0,0-1.7l-.848-.847a1.2,1.2,0,0,0-1.7,0L6.707,84.164,2.893,80.351a1.2,1.2,0,0,0-1.7,0L.351,81.2a1.2,1.2,0,0,0,0,1.7l3.813,3.813L.351,90.52a1.2,1.2,0,0,0,0,1.7l.848.848a1.2,1.2,0,0,0,1.7,0l3.813-3.813,3.813,3.813a1.2,1.2,0,0,0,1.7,0l.848-.848a1.2,1.2,0,0,0,0-1.7Z" transform="translate(-19939 -13761)" fill="#fff"/>
    <rect id="Rectangle_77614" data-name="Rectangle 77614" width="56" height="22" rx="2" transform="translate(-19960 -13661)" fill="#ff8080"/>
    <path id="times-76" data-name="times" d="M9.249,86.707l3.813-3.813a1.2,1.2,0,0,0,0-1.7l-.848-.847a1.2,1.2,0,0,0-1.7,0L6.707,84.164,2.893,80.351a1.2,1.2,0,0,0-1.7,0L.351,81.2a1.2,1.2,0,0,0,0,1.7l3.813,3.813L.351,90.52a1.2,1.2,0,0,0,0,1.7l.848.848a1.2,1.2,0,0,0,1.7,0l3.813-3.813,3.813,3.813a1.2,1.2,0,0,0,1.7,0l.848-.848a1.2,1.2,0,0,0,0-1.7Z" transform="translate(-19939 -13737)" fill="#fff"/>
    <rect id="Rectangle_77615" data-name="Rectangle 77615" width="56" height="22" rx="2" transform="translate(-20598 -13829)" fill="#ff8080"/>
    <path id="times-77" data-name="times" d="M9.249,86.707l3.813-3.813a1.2,1.2,0,0,0,0-1.7l-.848-.847a1.2,1.2,0,0,0-1.7,0L6.707,84.164,2.893,80.351a1.2,1.2,0,0,0-1.7,0L.351,81.2a1.2,1.2,0,0,0,0,1.7l3.813,3.813L.351,90.52a1.2,1.2,0,0,0,0,1.7l.848.848a1.2,1.2,0,0,0,1.7,0l3.813-3.813,3.813,3.813a1.2,1.2,0,0,0,1.7,0l.848-.848a1.2,1.2,0,0,0,0-1.7Z" transform="translate(-20577 -13905)" fill="#fff"/>
    <rect id="Rectangle_77616" data-name="Rectangle 77616" width="56" height="22" rx="2" transform="translate(-20540 -13829)" fill="#ff8080"/>
    <path id="times-78" data-name="times" d="M9.249,86.707l3.813-3.813a1.2,1.2,0,0,0,0-1.7l-.848-.847a1.2,1.2,0,0,0-1.7,0L6.707,84.164,2.893,80.351a1.2,1.2,0,0,0-1.7,0L.351,81.2a1.2,1.2,0,0,0,0,1.7l3.813,3.813L.351,90.52a1.2,1.2,0,0,0,0,1.7l.848.848a1.2,1.2,0,0,0,1.7,0l3.813-3.813,3.813,3.813a1.2,1.2,0,0,0,1.7,0l.848-.848a1.2,1.2,0,0,0,0-1.7Z" transform="translate(-20519 -13905)" fill="#fff"/>
    <rect id="Rectangle_77617" data-name="Rectangle 77617" width="56" height="22" rx="2" transform="translate(-20598 -13805)" fill="#ff8080"/>
    <path id="times-79" data-name="times" d="M9.249,86.707l3.813-3.813a1.2,1.2,0,0,0,0-1.7l-.848-.847a1.2,1.2,0,0,0-1.7,0L6.707,84.164,2.893,80.351a1.2,1.2,0,0,0-1.7,0L.351,81.2a1.2,1.2,0,0,0,0,1.7l3.813,3.813L.351,90.52a1.2,1.2,0,0,0,0,1.7l.848.848a1.2,1.2,0,0,0,1.7,0l3.813-3.813,3.813,3.813a1.2,1.2,0,0,0,1.7,0l.848-.848a1.2,1.2,0,0,0,0-1.7Z" transform="translate(-20577 -13881)" fill="#fff"/>
    <rect id="Rectangle_77618" data-name="Rectangle 77618" width="56" height="22" rx="2" transform="translate(-20540 -13805)" fill="#ff8080"/>
    <path id="times-80" data-name="times" d="M9.249,86.707l3.813-3.813a1.2,1.2,0,0,0,0-1.7l-.848-.847a1.2,1.2,0,0,0-1.7,0L6.707,84.164,2.893,80.351a1.2,1.2,0,0,0-1.7,0L.351,81.2a1.2,1.2,0,0,0,0,1.7l3.813,3.813L.351,90.52a1.2,1.2,0,0,0,0,1.7l.848.848a1.2,1.2,0,0,0,1.7,0l3.813-3.813,3.813,3.813a1.2,1.2,0,0,0,1.7,0l.848-.848a1.2,1.2,0,0,0,0-1.7Z" transform="translate(-20519 -13881)" fill="#fff"/>
    <rect id="Rectangle_77619" data-name="Rectangle 77619" width="56" height="22" rx="2" transform="translate(-20598 -13781)" fill="#ff8080"/>
    <path id="times-81" data-name="times" d="M9.249,86.707l3.813-3.813a1.2,1.2,0,0,0,0-1.7l-.848-.847a1.2,1.2,0,0,0-1.7,0L6.707,84.164,2.893,80.351a1.2,1.2,0,0,0-1.7,0L.351,81.2a1.2,1.2,0,0,0,0,1.7l3.813,3.813L.351,90.52a1.2,1.2,0,0,0,0,1.7l.848.848a1.2,1.2,0,0,0,1.7,0l3.813-3.813,3.813,3.813a1.2,1.2,0,0,0,1.7,0l.848-.848a1.2,1.2,0,0,0,0-1.7Z" transform="translate(-20577 -13857)" fill="#fff"/>
    <rect id="Rectangle_77620" data-name="Rectangle 77620" width="56" height="22" rx="2" transform="translate(-20540 -13781)" fill="#ff8080"/>
    <path id="times-82" data-name="times" d="M9.249,86.707l3.813-3.813a1.2,1.2,0,0,0,0-1.7l-.848-.847a1.2,1.2,0,0,0-1.7,0L6.707,84.164,2.893,80.351a1.2,1.2,0,0,0-1.7,0L.351,81.2a1.2,1.2,0,0,0,0,1.7l3.813,3.813L.351,90.52a1.2,1.2,0,0,0,0,1.7l.848.848a1.2,1.2,0,0,0,1.7,0l3.813-3.813,3.813,3.813a1.2,1.2,0,0,0,1.7,0l.848-.848a1.2,1.2,0,0,0,0-1.7Z" transform="translate(-20519 -13857)" fill="#fff"/>
    <rect id="Rectangle_77621" data-name="Rectangle 77621" width="56" height="22" rx="2" transform="translate(-20598 -13757)" fill="#ff8080"/>
    <path id="times-83" data-name="times" d="M9.249,86.707l3.813-3.813a1.2,1.2,0,0,0,0-1.7l-.848-.847a1.2,1.2,0,0,0-1.7,0L6.707,84.164,2.893,80.351a1.2,1.2,0,0,0-1.7,0L.351,81.2a1.2,1.2,0,0,0,0,1.7l3.813,3.813L.351,90.52a1.2,1.2,0,0,0,0,1.7l.848.848a1.2,1.2,0,0,0,1.7,0l3.813-3.813,3.813,3.813a1.2,1.2,0,0,0,1.7,0l.848-.848a1.2,1.2,0,0,0,0-1.7Z" transform="translate(-20577 -13833)" fill="#fff"/>
    <rect id="Rectangle_77622" data-name="Rectangle 77622" width="56" height="22" rx="2" transform="translate(-20540 -13757)" fill="#ff8080"/>
    <path id="times-84" data-name="times" d="M9.249,86.707l3.813-3.813a1.2,1.2,0,0,0,0-1.7l-.848-.847a1.2,1.2,0,0,0-1.7,0L6.707,84.164,2.893,80.351a1.2,1.2,0,0,0-1.7,0L.351,81.2a1.2,1.2,0,0,0,0,1.7l3.813,3.813L.351,90.52a1.2,1.2,0,0,0,0,1.7l.848.848a1.2,1.2,0,0,0,1.7,0l3.813-3.813,3.813,3.813a1.2,1.2,0,0,0,1.7,0l.848-.848a1.2,1.2,0,0,0,0-1.7Z" transform="translate(-20519 -13833)" fill="#fff"/>
    <rect id="Rectangle_77623" data-name="Rectangle 77623" width="56" height="22" rx="2" transform="translate(-20598 -13733)" fill="#ff8080"/>
    <path id="times-85" data-name="times" d="M9.249,86.707l3.813-3.813a1.2,1.2,0,0,0,0-1.7l-.848-.847a1.2,1.2,0,0,0-1.7,0L6.707,84.164,2.893,80.351a1.2,1.2,0,0,0-1.7,0L.351,81.2a1.2,1.2,0,0,0,0,1.7l3.813,3.813L.351,90.52a1.2,1.2,0,0,0,0,1.7l.848.848a1.2,1.2,0,0,0,1.7,0l3.813-3.813,3.813,3.813a1.2,1.2,0,0,0,1.7,0l.848-.848a1.2,1.2,0,0,0,0-1.7Z" transform="translate(-20577 -13808)" fill="#fff"/>
    <rect id="Rectangle_77624" data-name="Rectangle 77624" width="56" height="22" rx="2" transform="translate(-20482 -13733)" fill="#ff8080"/>
    <path id="times-86" data-name="times" d="M9.249,86.707l3.813-3.813a1.2,1.2,0,0,0,0-1.7l-.848-.847a1.2,1.2,0,0,0-1.7,0L6.707,84.164,2.893,80.351a1.2,1.2,0,0,0-1.7,0L.351,81.2a1.2,1.2,0,0,0,0,1.7l3.813,3.813L.351,90.52a1.2,1.2,0,0,0,0,1.7l.848.848a1.2,1.2,0,0,0,1.7,0l3.813-3.813,3.813,3.813a1.2,1.2,0,0,0,1.7,0l.848-.848a1.2,1.2,0,0,0,0-1.7Z" transform="translate(-20461 -13808)" fill="#fff"/>
    <rect id="Rectangle_77625" data-name="Rectangle 77625" width="56" height="22" rx="2" transform="translate(-20482 -13781)" fill="#ff8080"/>
    <path id="times-87" data-name="times" d="M9.249,86.707l3.813-3.813a1.2,1.2,0,0,0,0-1.7l-.848-.847a1.2,1.2,0,0,0-1.7,0L6.707,84.164,2.893,80.351a1.2,1.2,0,0,0-1.7,0L.351,81.2a1.2,1.2,0,0,0,0,1.7l3.813,3.813L.351,90.52a1.2,1.2,0,0,0,0,1.7l.848.848a1.2,1.2,0,0,0,1.7,0l3.813-3.813,3.813,3.813a1.2,1.2,0,0,0,1.7,0l.848-.848a1.2,1.2,0,0,0,0-1.7Z" transform="translate(-20461 -13857)" fill="#fff"/>
    <rect id="Rectangle_77626" data-name="Rectangle 77626" width="56" height="22" rx="2" transform="translate(-20366 -13733)" fill="#ff8080"/>
    <path id="times-88" data-name="times" d="M9.249,86.707l3.813-3.813a1.2,1.2,0,0,0,0-1.7l-.848-.847a1.2,1.2,0,0,0-1.7,0L6.707,84.164,2.893,80.351a1.2,1.2,0,0,0-1.7,0L.351,81.2a1.2,1.2,0,0,0,0,1.7l3.813,3.813L.351,90.52a1.2,1.2,0,0,0,0,1.7l.848.848a1.2,1.2,0,0,0,1.7,0l3.813-3.813,3.813,3.813a1.2,1.2,0,0,0,1.7,0l.848-.848a1.2,1.2,0,0,0,0-1.7Z" transform="translate(-20345 -13808)" fill="#fff"/>
    <rect id="Rectangle_77627" data-name="Rectangle 77627" width="56" height="22" rx="2" transform="translate(-20366 -13781)" fill="#ff8080"/>
    <path id="times-89" data-name="times" d="M9.249,86.707l3.813-3.813a1.2,1.2,0,0,0,0-1.7l-.848-.847a1.2,1.2,0,0,0-1.7,0L6.707,84.164,2.893,80.351a1.2,1.2,0,0,0-1.7,0L.351,81.2a1.2,1.2,0,0,0,0,1.7l3.813,3.813L.351,90.52a1.2,1.2,0,0,0,0,1.7l.848.848a1.2,1.2,0,0,0,1.7,0l3.813-3.813,3.813,3.813a1.2,1.2,0,0,0,1.7,0l.848-.848a1.2,1.2,0,0,0,0-1.7Z" transform="translate(-20345 -13857)" fill="#fff"/>
    <rect id="Rectangle_77628" data-name="Rectangle 77628" width="56" height="22" rx="2" transform="translate(-20540 -13733)" fill="#ff8080"/>
    <path id="times-90" data-name="times" d="M9.249,86.707l3.813-3.813a1.2,1.2,0,0,0,0-1.7l-.848-.847a1.2,1.2,0,0,0-1.7,0L6.707,84.164,2.893,80.351a1.2,1.2,0,0,0-1.7,0L.351,81.2a1.2,1.2,0,0,0,0,1.7l3.813,3.813L.351,90.52a1.2,1.2,0,0,0,0,1.7l.848.848a1.2,1.2,0,0,0,1.7,0l3.813-3.813,3.813,3.813a1.2,1.2,0,0,0,1.7,0l.848-.848a1.2,1.2,0,0,0,0-1.7Z" transform="translate(-20519 -13808)" fill="#fff"/>
    <rect id="Rectangle_77629" data-name="Rectangle 77629" width="56" height="22" rx="2" transform="translate(-20424 -13733)" fill="#ff8080"/>
    <path id="times-91" data-name="times" d="M9.249,86.707l3.813-3.813a1.2,1.2,0,0,0,0-1.7l-.848-.847a1.2,1.2,0,0,0-1.7,0L6.707,84.164,2.893,80.351a1.2,1.2,0,0,0-1.7,0L.351,81.2a1.2,1.2,0,0,0,0,1.7l3.813,3.813L.351,90.52a1.2,1.2,0,0,0,0,1.7l.848.848a1.2,1.2,0,0,0,1.7,0l3.813-3.813,3.813,3.813a1.2,1.2,0,0,0,1.7,0l.848-.848a1.2,1.2,0,0,0,0-1.7Z" transform="translate(-20403 -13808)" fill="#fff"/>
    <rect id="Rectangle_77630" data-name="Rectangle 77630" width="56" height="22" rx="2" transform="translate(-20424 -13781)" fill="#ff8080"/>
    <path id="times-92" data-name="times" d="M9.249,86.707l3.813-3.813a1.2,1.2,0,0,0,0-1.7l-.848-.847a1.2,1.2,0,0,0-1.7,0L6.707,84.164,2.893,80.351a1.2,1.2,0,0,0-1.7,0L.351,81.2a1.2,1.2,0,0,0,0,1.7l3.813,3.813L.351,90.52a1.2,1.2,0,0,0,0,1.7l.848.848a1.2,1.2,0,0,0,1.7,0l3.813-3.813,3.813,3.813a1.2,1.2,0,0,0,1.7,0l.848-.848a1.2,1.2,0,0,0,0-1.7Z" transform="translate(-20403 -13857)" fill="#fff"/>
    <rect id="Rectangle_77631" data-name="Rectangle 77631" width="56" height="22" rx="2" transform="translate(-20308 -13733)" fill="#ff8080"/>
    <path id="times-93" data-name="times" d="M9.249,86.707l3.813-3.813a1.2,1.2,0,0,0,0-1.7l-.848-.847a1.2,1.2,0,0,0-1.7,0L6.707,84.164,2.893,80.351a1.2,1.2,0,0,0-1.7,0L.351,81.2a1.2,1.2,0,0,0,0,1.7l3.813,3.813L.351,90.52a1.2,1.2,0,0,0,0,1.7l.848.848a1.2,1.2,0,0,0,1.7,0l3.813-3.813,3.813,3.813a1.2,1.2,0,0,0,1.7,0l.848-.848a1.2,1.2,0,0,0,0-1.7Z" transform="translate(-20287 -13808)" fill="#fff"/>
    <rect id="Rectangle_77632" data-name="Rectangle 77632" width="56" height="22" rx="2" transform="translate(-20250 -13733)" fill="#ff8080"/>
    <path id="times-94" data-name="times" d="M9.249,86.707l3.813-3.813a1.2,1.2,0,0,0,0-1.7l-.848-.847a1.2,1.2,0,0,0-1.7,0L6.707,84.164,2.893,80.351a1.2,1.2,0,0,0-1.7,0L.351,81.2a1.2,1.2,0,0,0,0,1.7l3.813,3.813L.351,90.52a1.2,1.2,0,0,0,0,1.7l.848.848a1.2,1.2,0,0,0,1.7,0l3.813-3.813,3.813,3.813a1.2,1.2,0,0,0,1.7,0l.848-.848a1.2,1.2,0,0,0,0-1.7Z" transform="translate(-20229 -13808)" fill="#fff"/>
    <rect id="Rectangle_77633" data-name="Rectangle 77633" width="56" height="22" rx="2" transform="translate(-20308 -13757)" fill="#ff8080"/>
    <path id="times-95" data-name="times" d="M9.249,86.707l3.813-3.813a1.2,1.2,0,0,0,0-1.7l-.848-.847a1.2,1.2,0,0,0-1.7,0L6.707,84.164,2.893,80.351a1.2,1.2,0,0,0-1.7,0L.351,81.2a1.2,1.2,0,0,0,0,1.7l3.813,3.813L.351,90.52a1.2,1.2,0,0,0,0,1.7l.848.848a1.2,1.2,0,0,0,1.7,0l3.813-3.813,3.813,3.813a1.2,1.2,0,0,0,1.7,0l.848-.848a1.2,1.2,0,0,0,0-1.7Z" transform="translate(-20287 -13833)" fill="#fff"/>
    <rect id="Rectangle_77634" data-name="Rectangle 77634" width="56" height="22" rx="2" transform="translate(-20598 -13709)" fill="#ff8080"/>
    <path id="times-96" data-name="times" d="M9.249,86.707l3.813-3.813a1.2,1.2,0,0,0,0-1.7l-.848-.847a1.2,1.2,0,0,0-1.7,0L6.707,84.164,2.893,80.351a1.2,1.2,0,0,0-1.7,0L.351,81.2a1.2,1.2,0,0,0,0,1.7l3.813,3.813L.351,90.52a1.2,1.2,0,0,0,0,1.7l.848.848a1.2,1.2,0,0,0,1.7,0l3.813-3.813,3.813,3.813a1.2,1.2,0,0,0,1.7,0l.848-.848a1.2,1.2,0,0,0,0-1.7Z" transform="translate(-20577 -13785)" fill="#fff"/>
    <rect id="Rectangle_77635" data-name="Rectangle 77635" width="56" height="22" rx="2" transform="translate(-20482 -13709)" fill="#ff8080"/>
    <path id="times-97" data-name="times" d="M9.249,86.707l3.813-3.813a1.2,1.2,0,0,0,0-1.7l-.848-.847a1.2,1.2,0,0,0-1.7,0L6.707,84.164,2.893,80.351a1.2,1.2,0,0,0-1.7,0L.351,81.2a1.2,1.2,0,0,0,0,1.7l3.813,3.813L.351,90.52a1.2,1.2,0,0,0,0,1.7l.848.848a1.2,1.2,0,0,0,1.7,0l3.813-3.813,3.813,3.813a1.2,1.2,0,0,0,1.7,0l.848-.848a1.2,1.2,0,0,0,0-1.7Z" transform="translate(-20461 -13785)" fill="#fff"/>
    <rect id="Rectangle_77636" data-name="Rectangle 77636" width="56" height="22" rx="2" transform="translate(-20366 -13709)" fill="#ff8080"/>
    <path id="times-98" data-name="times" d="M9.249,86.707l3.813-3.813a1.2,1.2,0,0,0,0-1.7l-.848-.847a1.2,1.2,0,0,0-1.7,0L6.707,84.164,2.893,80.351a1.2,1.2,0,0,0-1.7,0L.351,81.2a1.2,1.2,0,0,0,0,1.7l3.813,3.813L.351,90.52a1.2,1.2,0,0,0,0,1.7l.848.848a1.2,1.2,0,0,0,1.7,0l3.813-3.813,3.813,3.813a1.2,1.2,0,0,0,1.7,0l.848-.848a1.2,1.2,0,0,0,0-1.7Z" transform="translate(-20345 -13785)" fill="#fff"/>
    <rect id="Rectangle_77637" data-name="Rectangle 77637" width="56" height="22" rx="2" transform="translate(-20250 -13709)" fill="#ff8080"/>
    <path id="times-99" data-name="times" d="M9.249,86.707l3.813-3.813a1.2,1.2,0,0,0,0-1.7l-.848-.847a1.2,1.2,0,0,0-1.7,0L6.707,84.164,2.893,80.351a1.2,1.2,0,0,0-1.7,0L.351,81.2a1.2,1.2,0,0,0,0,1.7l3.813,3.813L.351,90.52a1.2,1.2,0,0,0,0,1.7l.848.848a1.2,1.2,0,0,0,1.7,0l3.813-3.813,3.813,3.813a1.2,1.2,0,0,0,1.7,0l.848-.848a1.2,1.2,0,0,0,0-1.7Z" transform="translate(-20229 -13785)" fill="#fff"/>
    <rect id="Rectangle_77638" data-name="Rectangle 77638" width="56" height="22" rx="2" transform="translate(-20540 -13709)" fill="#ff8080"/>
    <path id="times-100" data-name="times" d="M9.249,86.707l3.813-3.813a1.2,1.2,0,0,0,0-1.7l-.848-.847a1.2,1.2,0,0,0-1.7,0L6.707,84.164,2.893,80.351a1.2,1.2,0,0,0-1.7,0L.351,81.2a1.2,1.2,0,0,0,0,1.7l3.813,3.813L.351,90.52a1.2,1.2,0,0,0,0,1.7l.848.848a1.2,1.2,0,0,0,1.7,0l3.813-3.813,3.813,3.813a1.2,1.2,0,0,0,1.7,0l.848-.848a1.2,1.2,0,0,0,0-1.7Z" transform="translate(-20519 -13785)" fill="#fff"/>
    <rect id="Rectangle_77639" data-name="Rectangle 77639" width="56" height="22" rx="2" transform="translate(-20424 -13709)" fill="#ff8080"/>
    <path id="times-101" data-name="times" d="M9.249,86.707l3.813-3.813a1.2,1.2,0,0,0,0-1.7l-.848-.847a1.2,1.2,0,0,0-1.7,0L6.707,84.164,2.893,80.351a1.2,1.2,0,0,0-1.7,0L.351,81.2a1.2,1.2,0,0,0,0,1.7l3.813,3.813L.351,90.52a1.2,1.2,0,0,0,0,1.7l.848.848a1.2,1.2,0,0,0,1.7,0l3.813-3.813,3.813,3.813a1.2,1.2,0,0,0,1.7,0l.848-.848a1.2,1.2,0,0,0,0-1.7Z" transform="translate(-20403 -13785)" fill="#fff"/>
    <rect id="Rectangle_77640" data-name="Rectangle 77640" width="56" height="22" rx="2" transform="translate(-20308 -13709)" fill="#ff8080"/>
    <path id="times-102" data-name="times" d="M9.249,86.707l3.813-3.813a1.2,1.2,0,0,0,0-1.7l-.848-.847a1.2,1.2,0,0,0-1.7,0L6.707,84.164,2.893,80.351a1.2,1.2,0,0,0-1.7,0L.351,81.2a1.2,1.2,0,0,0,0,1.7l3.813,3.813L.351,90.52a1.2,1.2,0,0,0,0,1.7l.848.848a1.2,1.2,0,0,0,1.7,0l3.813-3.813,3.813,3.813a1.2,1.2,0,0,0,1.7,0l.848-.848a1.2,1.2,0,0,0,0-1.7Z" transform="translate(-20287 -13785)" fill="#fff"/>
    <rect id="Rectangle_77641" data-name="Rectangle 77641" width="56" height="22" rx="2" transform="translate(-20192 -13709)" fill="#ff8080"/>
    <path id="times-103" data-name="times" d="M9.249,86.707l3.813-3.813a1.2,1.2,0,0,0,0-1.7l-.848-.847a1.2,1.2,0,0,0-1.7,0L6.707,84.164,2.893,80.351a1.2,1.2,0,0,0-1.7,0L.351,81.2a1.2,1.2,0,0,0,0,1.7l3.813,3.813L.351,90.52a1.2,1.2,0,0,0,0,1.7l.848.848a1.2,1.2,0,0,0,1.7,0l3.813-3.813,3.813,3.813a1.2,1.2,0,0,0,1.7,0l.848-.848a1.2,1.2,0,0,0,0-1.7Z" transform="translate(-20171 -13785)" fill="#fff"/>
    <rect id="Rectangle_77642" data-name="Rectangle 77642" width="56" height="22" rx="2" transform="translate(-20598 -13685)" fill="#ff8080"/>
    <path id="times-104" data-name="times" d="M9.249,86.707l3.813-3.813a1.2,1.2,0,0,0,0-1.7l-.848-.847a1.2,1.2,0,0,0-1.7,0L6.707,84.164,2.893,80.351a1.2,1.2,0,0,0-1.7,0L.351,81.2a1.2,1.2,0,0,0,0,1.7l3.813,3.813L.351,90.52a1.2,1.2,0,0,0,0,1.7l.848.848a1.2,1.2,0,0,0,1.7,0l3.813-3.813,3.813,3.813a1.2,1.2,0,0,0,1.7,0l.848-.848a1.2,1.2,0,0,0,0-1.7Z" transform="translate(-20577 -13761)" fill="#fff"/>
    <rect id="Rectangle_77643" data-name="Rectangle 77643" width="56" height="22" rx="2" transform="translate(-20482 -13685)" fill="#ff8080"/>
    <path id="times-105" data-name="times" d="M9.249,86.707l3.813-3.813a1.2,1.2,0,0,0,0-1.7l-.848-.847a1.2,1.2,0,0,0-1.7,0L6.707,84.164,2.893,80.351a1.2,1.2,0,0,0-1.7,0L.351,81.2a1.2,1.2,0,0,0,0,1.7l3.813,3.813L.351,90.52a1.2,1.2,0,0,0,0,1.7l.848.848a1.2,1.2,0,0,0,1.7,0l3.813-3.813,3.813,3.813a1.2,1.2,0,0,0,1.7,0l.848-.848a1.2,1.2,0,0,0,0-1.7Z" transform="translate(-20461 -13761)" fill="#fff"/>
    <rect id="Rectangle_77644" data-name="Rectangle 77644" width="56" height="22" rx="2" transform="translate(-20308 -13685)" fill="#ff8080"/>
    <path id="times-106" data-name="times" d="M9.249,86.707l3.813-3.813a1.2,1.2,0,0,0,0-1.7l-.848-.847a1.2,1.2,0,0,0-1.7,0L6.707,84.164,2.893,80.351a1.2,1.2,0,0,0-1.7,0L.351,81.2a1.2,1.2,0,0,0,0,1.7l3.813,3.813L.351,90.52a1.2,1.2,0,0,0,0,1.7l.848.848a1.2,1.2,0,0,0,1.7,0l3.813-3.813,3.813,3.813a1.2,1.2,0,0,0,1.7,0l.848-.848a1.2,1.2,0,0,0,0-1.7Z" transform="translate(-20287 -13761)" fill="#fff"/>
    <rect id="Rectangle_77645" data-name="Rectangle 77645" width="56" height="22" rx="2" transform="translate(-20366 -13685)" fill="#ff8080"/>
    <path id="times-107" data-name="times" d="M9.249,86.707l3.813-3.813a1.2,1.2,0,0,0,0-1.7l-.848-.847a1.2,1.2,0,0,0-1.7,0L6.707,84.164,2.893,80.351a1.2,1.2,0,0,0-1.7,0L.351,81.2a1.2,1.2,0,0,0,0,1.7l3.813,3.813L.351,90.52a1.2,1.2,0,0,0,0,1.7l.848.848a1.2,1.2,0,0,0,1.7,0l3.813-3.813,3.813,3.813a1.2,1.2,0,0,0,1.7,0l.848-.848a1.2,1.2,0,0,0,0-1.7Z" transform="translate(-20345 -13761)" fill="#fff"/>
    <rect id="Rectangle_77646" data-name="Rectangle 77646" width="56" height="22" rx="2" transform="translate(-20192 -13685)" fill="#ff8080"/>
    <path id="times-108" data-name="times" d="M9.249,86.707l3.813-3.813a1.2,1.2,0,0,0,0-1.7l-.848-.847a1.2,1.2,0,0,0-1.7,0L6.707,84.164,2.893,80.351a1.2,1.2,0,0,0-1.7,0L.351,81.2a1.2,1.2,0,0,0,0,1.7l3.813,3.813L.351,90.52a1.2,1.2,0,0,0,0,1.7l.848.848a1.2,1.2,0,0,0,1.7,0l3.813-3.813,3.813,3.813a1.2,1.2,0,0,0,1.7,0l.848-.848a1.2,1.2,0,0,0,0-1.7Z" transform="translate(-20171 -13761)" fill="#fff"/>
    <rect id="Rectangle_77647" data-name="Rectangle 77647" width="56" height="22" rx="2" transform="translate(-20540 -13685)" fill="#ff8080"/>
    <path id="times-109" data-name="times" d="M9.249,86.707l3.813-3.813a1.2,1.2,0,0,0,0-1.7l-.848-.847a1.2,1.2,0,0,0-1.7,0L6.707,84.164,2.893,80.351a1.2,1.2,0,0,0-1.7,0L.351,81.2a1.2,1.2,0,0,0,0,1.7l3.813,3.813L.351,90.52a1.2,1.2,0,0,0,0,1.7l.848.848a1.2,1.2,0,0,0,1.7,0l3.813-3.813,3.813,3.813a1.2,1.2,0,0,0,1.7,0l.848-.848a1.2,1.2,0,0,0,0-1.7Z" transform="translate(-20519 -13761)" fill="#fff"/>
    <rect id="Rectangle_77648" data-name="Rectangle 77648" width="56" height="22" rx="2" transform="translate(-20424 -13685)" fill="#ff8080"/>
    <path id="times-110" data-name="times" d="M9.249,86.707l3.813-3.813a1.2,1.2,0,0,0,0-1.7l-.848-.847a1.2,1.2,0,0,0-1.7,0L6.707,84.164,2.893,80.351a1.2,1.2,0,0,0-1.7,0L.351,81.2a1.2,1.2,0,0,0,0,1.7l3.813,3.813L.351,90.52a1.2,1.2,0,0,0,0,1.7l.848.848a1.2,1.2,0,0,0,1.7,0l3.813-3.813,3.813,3.813a1.2,1.2,0,0,0,1.7,0l.848-.848a1.2,1.2,0,0,0,0-1.7Z" transform="translate(-20403 -13761)" fill="#fff"/>
    <rect id="Rectangle_77649" data-name="Rectangle 77649" width="56" height="22" rx="2" transform="translate(-20250 -13685)" fill="#ff8080"/>
    <path id="times-111" data-name="times" d="M9.249,86.707l3.813-3.813a1.2,1.2,0,0,0,0-1.7l-.848-.847a1.2,1.2,0,0,0-1.7,0L6.707,84.164,2.893,80.351a1.2,1.2,0,0,0-1.7,0L.351,81.2a1.2,1.2,0,0,0,0,1.7l3.813,3.813L.351,90.52a1.2,1.2,0,0,0,0,1.7l.848.848a1.2,1.2,0,0,0,1.7,0l3.813-3.813,3.813,3.813a1.2,1.2,0,0,0,1.7,0l.848-.848a1.2,1.2,0,0,0,0-1.7Z" transform="translate(-20229 -13761)" fill="#fff"/>
    <rect id="Rectangle_77650" data-name="Rectangle 77650" width="56" height="22" rx="2" transform="translate(-20134 -13685)" fill="#ff8080"/>
    <path id="times-112" data-name="times" d="M9.249,86.707l3.813-3.813a1.2,1.2,0,0,0,0-1.7l-.848-.847a1.2,1.2,0,0,0-1.7,0L6.707,84.164,2.893,80.351a1.2,1.2,0,0,0-1.7,0L.351,81.2a1.2,1.2,0,0,0,0,1.7l3.813,3.813L.351,90.52a1.2,1.2,0,0,0,0,1.7l.848.848a1.2,1.2,0,0,0,1.7,0l3.813-3.813,3.813,3.813a1.2,1.2,0,0,0,1.7,0l.848-.848a1.2,1.2,0,0,0,0-1.7Z" transform="translate(-20113 -13761)" fill="#fff"/>
    <rect id="Rectangle_77651" data-name="Rectangle 77651" width="56" height="22" rx="2" transform="translate(-20598 -13661)" fill="#ff8080"/>
    <path id="times-113" data-name="times" d="M9.249,86.707l3.813-3.813a1.2,1.2,0,0,0,0-1.7l-.848-.847a1.2,1.2,0,0,0-1.7,0L6.707,84.164,2.893,80.351a1.2,1.2,0,0,0-1.7,0L.351,81.2a1.2,1.2,0,0,0,0,1.7l3.813,3.813L.351,90.52a1.2,1.2,0,0,0,0,1.7l.848.848a1.2,1.2,0,0,0,1.7,0l3.813-3.813,3.813,3.813a1.2,1.2,0,0,0,1.7,0l.848-.848a1.2,1.2,0,0,0,0-1.7Z" transform="translate(-20577 -13737)" fill="#fff"/>
    <rect id="Rectangle_77652" data-name="Rectangle 77652" width="56" height="22" rx="2" transform="translate(-20598 -13637)" fill="#ff8080"/>
    <path id="times-114" data-name="times" d="M9.249,86.707l3.813-3.813a1.2,1.2,0,0,0,0-1.7l-.848-.847a1.2,1.2,0,0,0-1.7,0L6.707,84.164,2.893,80.351a1.2,1.2,0,0,0-1.7,0L.351,81.2a1.2,1.2,0,0,0,0,1.7l3.813,3.813L.351,90.52a1.2,1.2,0,0,0,0,1.7l.848.848a1.2,1.2,0,0,0,1.7,0l3.813-3.813,3.813,3.813a1.2,1.2,0,0,0,1.7,0l.848-.848a1.2,1.2,0,0,0,0-1.7Z" transform="translate(-20577 -13713)" fill="#fff"/>
    <rect id="Rectangle_77653" data-name="Rectangle 77653" width="56" height="22" rx="2" transform="translate(-20540 -13637)" fill="#ff8080"/>
    <path id="times-115" data-name="times" d="M9.249,86.707l3.813-3.813a1.2,1.2,0,0,0,0-1.7l-.848-.847a1.2,1.2,0,0,0-1.7,0L6.707,84.164,2.893,80.351a1.2,1.2,0,0,0-1.7,0L.351,81.2a1.2,1.2,0,0,0,0,1.7l3.813,3.813L.351,90.52a1.2,1.2,0,0,0,0,1.7l.848.848a1.2,1.2,0,0,0,1.7,0l3.813-3.813,3.813,3.813a1.2,1.2,0,0,0,1.7,0l.848-.848a1.2,1.2,0,0,0,0-1.7Z" transform="translate(-20519 -13713)" fill="#fff"/>
    <rect id="Rectangle_77654" data-name="Rectangle 77654" width="56" height="22" rx="2" transform="translate(-19902 -13661)" fill="#ff8080"/>
    <path id="times-116" data-name="times" d="M9.249,86.707l3.813-3.813a1.2,1.2,0,0,0,0-1.7l-.848-.847a1.2,1.2,0,0,0-1.7,0L6.707,84.164,2.893,80.351a1.2,1.2,0,0,0-1.7,0L.351,81.2a1.2,1.2,0,0,0,0,1.7l3.813,3.813L.351,90.52a1.2,1.2,0,0,0,0,1.7l.848.848a1.2,1.2,0,0,0,1.7,0l3.813-3.813,3.813,3.813a1.2,1.2,0,0,0,1.7,0l.848-.848a1.2,1.2,0,0,0,0-1.7Z" transform="translate(-19881 -13737)" fill="#fff"/>
    <rect id="Rectangle_77655" data-name="Rectangle 77655" width="56" height="22" rx="2" transform="translate(-20598 -13613)" fill="#ff8080"/>
    <path id="times-117" data-name="times" d="M9.249,86.707l3.813-3.813a1.2,1.2,0,0,0,0-1.7l-.848-.847a1.2,1.2,0,0,0-1.7,0L6.707,84.164,2.893,80.351a1.2,1.2,0,0,0-1.7,0L.351,81.2a1.2,1.2,0,0,0,0,1.7l3.813,3.813L.351,90.52a1.2,1.2,0,0,0,0,1.7l.848.848a1.2,1.2,0,0,0,1.7,0l3.813-3.813,3.813,3.813a1.2,1.2,0,0,0,1.7,0l.848-.848a1.2,1.2,0,0,0,0-1.7Z" transform="translate(-20577 -13689)" fill="#fff"/>
    <rect id="Rectangle_77656" data-name="Rectangle 77656" width="56" height="22" rx="2" transform="translate(-20540 -13613)" fill="#ffcb86"/>
    <text id="_4_5" data-name="4/5" transform="translate(-20522 -13597)" fill="#fff" font-size="12" font-family="Montserrat-Black, Montserrat" font-weight="800"><tspan x="0" y="0">4/5</tspan></text>
    <rect id="Rectangle_77657" data-name="Rectangle 77657" width="56" height="22" rx="2" transform="translate(-20366 -13613)" fill="#ffcb86"/>
    <text id="_4_5-2" data-name="4/5" transform="translate(-20348 -13597)" fill="#fff" font-size="12" font-family="Montserrat-Black, Montserrat" font-weight="800"><tspan x="0" y="0">4/5</tspan></text>
    <rect id="Rectangle_77658" data-name="Rectangle 77658" width="56" height="22" rx="2" transform="translate(-20366 -13637)" fill="#ffcb86"/>
    <text id="_3" data-name="3" transform="translate(-20338 -13621)" fill="#fff" font-size="12" font-family="Montserrat-Black, Montserrat" font-weight="800"><tspan x="-3.684" y="0">3</tspan></text>
    <rect id="Rectangle_77659" data-name="Rectangle 77659" width="56" height="22" rx="2" transform="translate(-20366 -13757)" fill="#ffcb86"/>
    <text id="_6" data-name="6" transform="translate(-20338 -13741)" fill="#fff" font-size="12" font-family="Montserrat-Black, Montserrat" font-weight="800"><tspan x="-3.966" y="0">6</tspan></text>
    <rect id="Rectangle_77660" data-name="Rectangle 77660" width="56" height="22" rx="2" transform="translate(-20192 -13613)" fill="#ffcb86"/>
    <text id="_4_5-3" data-name="4/5" transform="translate(-20174 -13597)" fill="#fff" font-size="12" font-family="Montserrat-Black, Montserrat" font-weight="800"><tspan x="0" y="0">4/5</tspan></text>
    <rect id="Rectangle_77661" data-name="Rectangle 77661" width="56" height="22" rx="2" transform="translate(-20482 -13613)" fill="#ffcb86"/>
    <text id="_4_5-4" data-name="4/5" transform="translate(-20464 -13597)" fill="#fff" font-size="12" font-family="Montserrat-Black, Montserrat" font-weight="800"><tspan x="0" y="0">4/5</tspan></text>
    <rect id="Rectangle_77662" data-name="Rectangle 77662" width="56" height="22" rx="2" transform="translate(-20482 -13637)" fill="#ffcb86"/>
    <text id="_3-2" data-name="3" transform="translate(-20454 -13621)" fill="#fff" font-size="12" font-family="Montserrat-Black, Montserrat" font-weight="800"><tspan x="-3.684" y="0">3</tspan></text>
    <rect id="Rectangle_77663" data-name="Rectangle 77663" width="56" height="22" rx="2" transform="translate(-20482 -13757)" fill="#ffcb86"/>
    <text id="_6-2" data-name="6" transform="translate(-20454 -13741)" fill="#fff" font-size="12" font-family="Montserrat-Black, Montserrat" font-weight="800"><tspan x="-3.966" y="0">6</tspan></text>
    <rect id="Rectangle_77664" data-name="Rectangle 77664" width="56" height="22" rx="2" transform="translate(-20308 -13613)" fill="#ffcb86"/>
    <text id="_4_5-5" data-name="4/5" transform="translate(-20290 -13597)" fill="#fff" font-size="12" font-family="Montserrat-Black, Montserrat" font-weight="800"><tspan x="0" y="0">4/5</tspan></text>
    <rect id="Rectangle_77665" data-name="Rectangle 77665" width="56" height="22" rx="2" transform="translate(-20134 -13613)" fill="#ffcb86"/>
    <text id="_4_5-6" data-name="4/5" transform="translate(-20116 -13597)" fill="#fff" font-size="12" font-family="Montserrat-Black, Montserrat" font-weight="800"><tspan x="0" y="0">4/5</tspan></text>
    <rect id="Rectangle_77666" data-name="Rectangle 77666" width="56" height="22" rx="2" transform="translate(-20424 -13613)" fill="#ffcb86"/>
    <text id="_4_5-7" data-name="4/5" transform="translate(-20406 -13597)" fill="#fff" font-size="12" font-family="Montserrat-Black, Montserrat" font-weight="800"><tspan x="0" y="0">4/5</tspan></text>
    <rect id="Rectangle_77667" data-name="Rectangle 77667" width="56" height="22" rx="2" transform="translate(-20424 -13637)" fill="#ffcb86"/>
    <text id="_3-3" data-name="3" transform="translate(-20396 -13621)" fill="#fff" font-size="12" font-family="Montserrat-Black, Montserrat" font-weight="800"><tspan x="-3.684" y="0">3</tspan></text>
    <rect id="Rectangle_77668" data-name="Rectangle 77668" width="56" height="22" rx="2" transform="translate(-20424 -13757)" fill="#ffcb86"/>
    <text id="_6-3" data-name="6" transform="translate(-20396 -13741)" fill="#fff" font-size="12" font-family="Montserrat-Black, Montserrat" font-weight="800"><tspan x="-3.966" y="0">6</tspan></text>
    <rect id="Rectangle_77669" data-name="Rectangle 77669" width="56" height="22" rx="2" transform="translate(-20250 -13613)" fill="#ffcb86"/>
    <text id="_4_5-8" data-name="4/5" transform="translate(-20232 -13597)" fill="#fff" font-size="12" font-family="Montserrat-Black, Montserrat" font-weight="800"><tspan x="0" y="0">4/5</tspan></text>
    <rect id="Rectangle_77670" data-name="Rectangle 77670" width="56" height="22" rx="2" transform="translate(-20076 -13613)" fill="#ffcb86"/>
    <text id="_4_5-9" data-name="4/5" transform="translate(-20058 -13597)" fill="#fff" font-size="12" font-family="Montserrat-Black, Montserrat" font-weight="800"><tspan x="0" y="0">4/5</tspan></text>
    <rect id="Rectangle_77671" data-name="Rectangle 77671" width="56" height="22" rx="2" transform="translate(-19960 -13613)" fill="#ffcb86"/>
    <text id="_4_5-10" data-name="4/5" transform="translate(-19942 -13597)" fill="#fff" font-size="12" font-family="Montserrat-Black, Montserrat" font-weight="800"><tspan x="0" y="0">4/5</tspan></text>
    <rect id="Rectangle_77672" data-name="Rectangle 77672" width="56" height="22" rx="2" transform="translate(-19902 -13637)" fill="#ffcb86"/>
    <text id="_4_5-11" data-name="4/5" transform="translate(-19884 -13621)" fill="#fff" font-size="12" font-family="Montserrat-Black, Montserrat" font-weight="800"><tspan x="0" y="0">4/5</tspan></text>
    <rect id="Rectangle_77673" data-name="Rectangle 77673" width="56" height="22" rx="2" transform="translate(-19902 -13685)" fill="#ffcb86"/>
    <text id="_4_5-12" data-name="4/5" transform="translate(-19884 -13669)" fill="#fff" font-size="12" font-family="Montserrat-Black, Montserrat" font-weight="800"><tspan x="0" y="0">4/5</tspan></text>
    <rect id="Rectangle_77674" data-name="Rectangle 77674" width="56" height="22" rx="2" transform="translate(-19902 -13733)" fill="#ffcb86"/>
    <text id="_4_5-13" data-name="4/5" transform="translate(-19884 -13717)" fill="#fff" font-size="12" font-family="Montserrat-Black, Montserrat" font-weight="800"><tspan x="0" y="0">4/5</tspan></text>
    <rect id="Rectangle_77675" data-name="Rectangle 77675" width="56" height="22" rx="2" transform="translate(-19902 -13781)" fill="#ffcb86"/>
    <text id="_4_5-14" data-name="4/5" transform="translate(-19884 -13765)" fill="#fff" font-size="12" font-family="Montserrat-Black, Montserrat" font-weight="800"><tspan x="0" y="0">4/5</tspan></text>
    <rect id="Rectangle_77676" data-name="Rectangle 77676" width="56" height="22" rx="2" transform="translate(-19902 -13829)" fill="#ffcb86"/>
    <text id="_4_5-15" data-name="4/5" transform="translate(-19884 -13813)" fill="#fff" font-size="12" font-family="Montserrat-Black, Montserrat" font-weight="800"><tspan x="0" y="0">4/5</tspan></text>
    <rect id="Rectangle_77677" data-name="Rectangle 77677" width="56" height="22" rx="2" transform="translate(-19902 -13709)" fill="#ffcb86"/>
    <text id="_4_5-16" data-name="4/5" transform="translate(-19884 -13693)" fill="#fff" font-size="12" font-family="Montserrat-Black, Montserrat" font-weight="800"><tspan x="0" y="0">4/5</tspan></text>
    <rect id="Rectangle_77678" data-name="Rectangle 77678" width="56" height="22" rx="2" transform="translate(-19902 -13757)" fill="#ffcb86"/>
    <text id="_4_5-17" data-name="4/5" transform="translate(-19884 -13741)" fill="#fff" font-size="12" font-family="Montserrat-Black, Montserrat" font-weight="800"><tspan x="0" y="0">4/5</tspan></text>
    <rect id="Rectangle_77679" data-name="Rectangle 77679" width="56" height="22" rx="2" transform="translate(-19902 -13805)" fill="#ffcb86"/>
    <text id="_4_5-18" data-name="4/5" transform="translate(-19884 -13789)" fill="#fff" font-size="12" font-family="Montserrat-Black, Montserrat" font-weight="800"><tspan x="0" y="0">4/5</tspan></text>
    <rect id="Rectangle_77680" data-name="Rectangle 77680" width="56" height="22" rx="2" transform="translate(-19902 -13853)" fill="#ffcb86"/>
    <text id="_4_5-19" data-name="4/5" transform="translate(-19884 -13837)" fill="#fff" font-size="12" font-family="Montserrat-Black, Montserrat" font-weight="800"><tspan x="0" y="0">4/5</tspan></text>
    <rect id="Rectangle_77681" data-name="Rectangle 77681" width="56" height="22" rx="2" transform="translate(-19902 -13877)" fill="#ffcb86"/>
    <text id="_4_5-20" data-name="4/5" transform="translate(-19884 -13861)" fill="#fff" font-size="12" font-family="Montserrat-Black, Montserrat" font-weight="800"><tspan x="0" y="0">4/5</tspan></text>
    <text id="A" transform="translate(-20633 -13885)" fill="#919191" font-size="12" font-family="Montserrat-Bold, Montserrat" font-weight="700"><tspan x="0" y="0">A</tspan></text>
    <text id="A-2" data-name="A" transform="translate(-20574 -13909)" fill="#919191" font-size="12" font-family="Montserrat-Bold, Montserrat" font-weight="700"><tspan x="0" y="0">A</tspan></text>
    <text id="E" transform="translate(-20633 -13789)" fill="#919191" font-size="12" font-family="Montserrat-Bold, Montserrat" font-weight="700"><tspan x="0" y="0">E</tspan></text>
    <text id="E-2" data-name="E" transform="translate(-20342 -13909)" fill="#919191" font-size="12" font-family="Montserrat-Bold, Montserrat" font-weight="700"><tspan x="0" y="0">E</tspan></text>
    <text id="J" transform="translate(-20632 -13693)" fill="#919191" font-size="12" font-family="Montserrat-Bold, Montserrat" font-weight="700"><tspan x="0" y="0">J</tspan></text>
    <text id="J-2" data-name="J" transform="translate(-20109 -13909)" fill="#919191" font-size="12" font-family="Montserrat-Bold, Montserrat" font-weight="700"><tspan x="0" y="0">J</tspan></text>
    <text id="C" transform="translate(-20633 -13837)" fill="#919191" font-size="12" font-family="Montserrat-Bold, Montserrat" font-weight="700"><tspan x="0" y="0">C</tspan></text>
    <text id="C-2" data-name="C" transform="translate(-20458 -13909)" fill="#919191" font-size="12" font-family="Montserrat-Bold, Montserrat" font-weight="700"><tspan x="0" y="0">C</tspan></text>
    <text id="G" transform="translate(-20633 -13741)" fill="#919191" font-size="12" font-family="Montserrat-Bold, Montserrat" font-weight="700"><tspan x="0" y="0">G</tspan></text>
    <text id="G-2" data-name="G" transform="translate(-20226 -13909)" fill="#919191" font-size="12" font-family="Montserrat-Bold, Montserrat" font-weight="700"><tspan x="0" y="0">G</tspan></text>
    <text id="L" transform="translate(-20632 -13645)" fill="#919191" font-size="12" font-family="Montserrat-Bold, Montserrat" font-weight="700"><tspan x="0" y="0">L</tspan></text>
    <text id="L-2" data-name="L" transform="translate(-19993 -13909)" fill="#919191" font-size="12" font-family="Montserrat-Bold, Montserrat" font-weight="700"><tspan x="0" y="0">L</tspan></text>
    <text id="B" transform="translate(-20633 -13861)" fill="#919191" font-size="12" font-family="Montserrat-Bold, Montserrat" font-weight="700"><tspan x="0" y="0">B</tspan></text>
    <text id="B-2" data-name="B" transform="translate(-20516 -13909)" fill="#919191" font-size="12" font-family="Montserrat-Bold, Montserrat" font-weight="700"><tspan x="0" y="0">B</tspan></text>
    <text id="F" transform="translate(-20633 -13765)" fill="#919191" font-size="12" font-family="Montserrat-Bold, Montserrat" font-weight="700"><tspan x="0" y="0">F</tspan></text>
    <text id="F-2" data-name="F" transform="translate(-20284 -13909)" fill="#919191" font-size="12" font-family="Montserrat-Bold, Montserrat" font-weight="700"><tspan x="0" y="0">F</tspan></text>
    <text id="K" transform="translate(-20633 -13669)" fill="#919191" font-size="12" font-family="Montserrat-Bold, Montserrat" font-weight="700"><tspan x="0" y="0">K</tspan></text>
    <text id="K-2" data-name="K" transform="translate(-20052 -13909)" fill="#919191" font-size="12" font-family="Montserrat-Bold, Montserrat" font-weight="700"><tspan x="0" y="0">K</tspan></text>
    <text id="D" transform="translate(-20634 -13813)" fill="#919191" font-size="12" font-family="Montserrat-Bold, Montserrat" font-weight="700"><tspan x="0" y="0">D</tspan></text>
    <text id="D-2" data-name="D" transform="translate(-20401 -13909)" fill="#919191" font-size="12" font-family="Montserrat-Bold, Montserrat" font-weight="700"><tspan x="0" y="0">D</tspan></text>
    <text id="H" transform="translate(-20634 -13717)" fill="#919191" font-size="12" font-family="Montserrat-Bold, Montserrat" font-weight="700"><tspan x="0" y="0">H</tspan></text>
    <text id="H-2" data-name="H" transform="translate(-20169 -13909)" fill="#919191" font-size="12" font-family="Montserrat-Bold, Montserrat" font-weight="700"><tspan x="0" y="0">H</tspan></text>
    <text id="N" transform="translate(-20634 -13621)" fill="#919191" font-size="12" font-family="Montserrat-Bold, Montserrat" font-weight="700"><tspan x="0" y="0">N</tspan></text>
    <text id="N-2" data-name="N" transform="translate(-19937 -13909)" fill="#919191" font-size="12" font-family="Montserrat-Bold, Montserrat" font-weight="700"><tspan x="0" y="0">N</tspan></text>
    <text id="S" transform="translate(-20633 -13597)" fill="#919191" font-size="12" font-family="Montserrat-Bold, Montserrat" font-weight="700"><tspan x="0" y="0">S</tspan></text>
    <text id="S-2" data-name="S" transform="translate(-19878 -13909)" fill="#919191" font-size="12" font-family="Montserrat-Bold, Montserrat" font-weight="700"><tspan x="0" y="0">S</tspan></text>
    <rect id="Rectangle_77682" data-name="Rectangle 77682" width="56" height="22" rx="2" transform="translate(-20598 -13877)" fill="#ff8080"/>
    <path id="times-118" data-name="times" d="M9.249,86.707l3.813-3.813a1.2,1.2,0,0,0,0-1.7l-.848-.847a1.2,1.2,0,0,0-1.7,0L6.707,84.164,2.893,80.351a1.2,1.2,0,0,0-1.7,0L.351,81.2a1.2,1.2,0,0,0,0,1.7l3.813,3.813L.351,90.52a1.2,1.2,0,0,0,0,1.7l.848.848a1.2,1.2,0,0,0,1.7,0l3.813-3.813,3.813,3.813a1.2,1.2,0,0,0,1.7,0l.848-.848a1.2,1.2,0,0,0,0-1.7Z" transform="translate(-20577 -13953)" fill="#fff"/>
    <rect id="Rectangle_77683" data-name="Rectangle 77683" width="56" height="22" rx="2" transform="translate(-19960 -13853)" fill="#ffcb86"/>
    <text id="_3-4" data-name="3" transform="translate(-19932 -13837)" fill="#fff" font-size="12" font-family="Montserrat-Black, Montserrat" font-weight="800"><tspan x="-3.684" y="0">3</tspan></text>
    <rect id="Rectangle_77684" data-name="Rectangle 77684" width="56" height="22" rx="2" transform="translate(-19960 -13829)" fill="#ffcb86"/>
    <text id="_3-5" data-name="3" transform="translate(-19932 -13813)" fill="#fff" font-size="12" font-family="Montserrat-Black, Montserrat" font-weight="800"><tspan x="-3.684" y="0">3</tspan></text>
    <rect id="Rectangle_77685" data-name="Rectangle 77685" width="56" height="22" rx="2" transform="translate(-19960 -13805)" fill="#ffcb86"/>
    <text id="_3-6" data-name="3" transform="translate(-19932 -13789)" fill="#fff" font-size="12" font-family="Montserrat-Black, Montserrat" font-weight="800"><tspan x="-3.684" y="0">3</tspan></text>
    <rect id="Rectangle_77686" data-name="Rectangle 77686" width="56" height="22" rx="2" transform="translate(-20250 -13853)" fill="#ffcb86"/>
    <text id="_6-4" data-name="6" transform="translate(-20222 -13837)" fill="#fff" font-size="12" font-family="Montserrat-Black, Montserrat" font-weight="800"><tspan x="-3.966" y="0">6</tspan></text>
    <rect id="Rectangle_77687" data-name="Rectangle 77687" width="56" height="22" rx="2" transform="translate(-20366 -13853)" fill="#ffcb86"/>
    <text id="_2" data-name="2" transform="translate(-20338 -13837)" fill="#fff" font-size="12" font-family="Montserrat-Black, Montserrat" font-weight="800"><tspan x="-3.648" y="0">2</tspan></text>
    <rect id="Rectangle_77688" data-name="Rectangle 77688" width="56" height="22" rx="2" transform="translate(-20424 -13805)" fill="#ffcb86"/>
    <text id="_2-2" data-name="2" transform="translate(-20396 -13789)" fill="#fff" font-size="12" font-family="Montserrat-Black, Montserrat" font-weight="800"><tspan x="-3.648" y="0">2</tspan></text>
    <rect id="Rectangle_77689" data-name="Rectangle 77689" width="56" height="22" rx="2" transform="translate(-20366 -13829)" fill="#ffcb86"/>
    <text id="_2-3" data-name="2" transform="translate(-20338 -13813)" fill="#fff" font-size="12" font-family="Montserrat-Black, Montserrat" font-weight="800"><tspan x="-3.648" y="0">2</tspan></text>
    <rect id="Rectangle_77690" data-name="Rectangle 77690" width="56" height="22" rx="2" transform="translate(-20482 -13829)" fill="#ffcb86"/>
    <text id="_2-4" data-name="2" transform="translate(-20454 -13813)" fill="#fff" font-size="12" font-family="Montserrat-Black, Montserrat" font-weight="800"><tspan x="-3.648" y="0">2</tspan></text>
    <rect id="Rectangle_77691" data-name="Rectangle 77691" width="56" height="22" rx="2" transform="translate(-20424 -13853)" fill="#ffcb86"/>
    <text id="_2-5" data-name="2" transform="translate(-20396 -13837)" fill="#fff" font-size="12" font-family="Montserrat-Black, Montserrat" font-weight="800"><tspan x="-3.648" y="0">2</tspan></text>
    <rect id="Rectangle_77692" data-name="Rectangle 77692" width="56" height="22" rx="2" transform="translate(-20482 -13805)" fill="#ffcb86"/>
    <text id="_2-6" data-name="2" transform="translate(-20454 -13789)" fill="#fff" font-size="12" font-family="Montserrat-Black, Montserrat" font-weight="800"><tspan x="-3.648" y="0">2</tspan></text>
    <rect id="Rectangle_77693" data-name="Rectangle 77693" width="56" height="22" rx="2" transform="translate(-20250 -13829)" fill="#ffcb86"/>
    <text id="_6-5" data-name="6" transform="translate(-20222 -13813)" fill="#fff" font-size="12" font-family="Montserrat-Black, Montserrat" font-weight="800"><tspan x="-3.966" y="0">6</tspan></text>
    <rect id="Rectangle_77694" data-name="Rectangle 77694" width="56" height="22" rx="2" transform="translate(-20250 -13805)" fill="#ffcb86"/>
    <text id="_6-6" data-name="6" transform="translate(-20222 -13789)" fill="#fff" font-size="12" font-family="Montserrat-Black, Montserrat" font-weight="800"><tspan x="-3.966" y="0">6</tspan></text>
  </g>
</svg>
