<svg xmlns="http://www.w3.org/2000/svg" width="18" height="18" viewBox="0 0 18 18" fill="none">
<path d="M17.0356 11.3317L11.3278 17.0357C10.7089 17.6532 9.87055 18 8.9965 18C8.12245 18 7.28408 17.6532 6.66525 17.0357L0.9634 11.3317C0.34644 10.7126 0 9.87415 0 9C0 8.12585 0.34644 7.28737 0.9634 6.66834L6.66525 0.964285C7.28408 0.34678 8.12245 0 8.9965 0C9.87055 0 10.7089 0.34678 11.3278 0.964285L17.0356 6.66834C17.6532 7.28745 18 8.12636 18 9.001C18 9.87564 17.6532 10.7145 17.0356 11.3337" fill="#FF906D"/>
<path d="M6.39784 5.66797V12.3227H4.88985V6.90385H3.58984V5.66797H6.39784Z" fill="white"/>
<path d="M7.37598 12.1328C7.28991 12.0452 7.22242 11.9411 7.17757 11.8268C7.13272 11.7124 7.11143 11.5902 7.11498 11.4674C7.11003 11.3451 7.13068 11.2232 7.17563 11.1095C7.22058 10.9957 7.28883 10.8927 7.37598 10.8069C7.55071 10.6448 7.78018 10.5547 8.01846 10.5547C8.25675 10.5547 8.48623 10.6448 8.66097 10.8069C8.74778 10.8929 8.81574 10.996 8.86051 11.1097C8.90527 11.2234 8.92587 11.3452 8.92098 11.4674C8.92448 11.5901 8.90327 11.7122 8.8586 11.8266C8.81393 11.9409 8.74671 12.045 8.66097 12.1328C8.49052 12.3033 8.25942 12.399 8.01846 12.399C7.77751 12.399 7.54643 12.3033 7.37598 12.1328Z" fill="white"/>
<path d="M13.3787 8.40458C13.7183 8.56894 14.0033 8.82761 14.1999 9.14969C14.3964 9.47176 14.4961 9.84363 14.4871 10.2209C14.496 10.6341 14.3825 11.0408 14.161 11.3897C13.9432 11.7266 13.635 11.9954 13.2717 12.1653C12.88 12.3489 12.4518 12.4413 12.0193 12.4355C11.6216 12.4571 11.2239 12.3918 10.854 12.244C10.4842 12.0963 10.1509 11.8696 9.87758 11.5798C9.32218 10.8917 9.04611 10.0196 9.10432 9.1371C9.08694 8.46564 9.23211 7.79993 9.52746 7.19672C9.78615 6.6802 10.1934 6.25292 10.6968 5.96985C11.23 5.68295 11.8282 5.53885 12.4334 5.55155C12.7704 5.55062 13.1063 5.5906 13.4337 5.67064C13.722 5.73697 13.9972 5.85095 14.248 6.00788L13.6898 7.13968C13.3266 6.90651 12.9006 6.79053 12.4694 6.80745C12.2283 6.79493 11.9873 6.83228 11.7613 6.91716C11.5353 7.00205 11.3293 7.13265 11.156 7.3008C10.8078 7.69681 10.6217 8.20959 10.6348 8.73682C10.8487 8.53329 11.1021 8.37594 11.3793 8.27454C11.6566 8.17315 11.9517 8.12987 12.2463 8.1474C12.6397 8.14228 13.0287 8.23005 13.3817 8.40358M12.7255 11.0184C12.826 10.9278 12.9051 10.816 12.957 10.691C13.0089 10.5661 13.0323 10.4311 13.0256 10.2959C13.032 10.1601 13.0084 10.0244 12.9566 9.89871C12.9047 9.77298 12.8258 9.66021 12.7255 9.56841C12.4932 9.39075 12.2084 9.29533 11.916 9.29714C11.6236 9.29895 11.3401 9.39789 11.11 9.57842C11.0109 9.66897 10.9316 9.77903 10.877 9.90169C10.8224 10.0244 10.7937 10.157 10.7928 10.2912C10.7919 10.4255 10.8187 10.5585 10.8715 10.6819C10.9244 10.8053 11.0022 10.9165 11.1 11.0084C11.3346 11.2029 11.634 11.3016 11.9382 11.2846C12.2246 11.2971 12.5054 11.2022 12.7255 11.0184Z" fill="white"/>
</svg>