<svg width="18" height="18" viewBox="0 0 18 18" fill="none" xmlns="http://www.w3.org/2000/svg">
<path d="M17.0356 11.3317L11.3278 17.0357C10.7089 17.6532 9.87055 18 8.9965 18C8.12245 18 7.28408 17.6532 6.66525 17.0357L0.963411 11.3317C0.346451 10.7126 0 9.87415 0 9C0 8.12585 0.346451 7.28737 0.963411 6.66834L6.66525 0.964285C7.28408 0.34678 8.12245 0 8.9965 0C9.87055 0 10.7089 0.34678 11.3278 0.964285L17.0356 6.66834C17.6532 7.28745 18 8.12636 18 9.001C18 9.87564 17.6532 10.7145 17.0356 11.3337" fill="#FF906D"/>
<path d="M6.50917 5.66797V12.3227H5.00117V6.90385H3.70117V5.66797H6.50917Z" fill="white"/>
<path d="M7.48825 12.1328C7.40205 12.0453 7.33441 11.9412 7.28939 11.8268C7.24437 11.7125 7.22289 11.5902 7.22625 11.4674C7.22149 11.3451 7.24234 11.2231 7.28746 11.1094C7.33259 10.9957 7.40098 10.8926 7.48825 10.8069C7.66298 10.6448 7.89247 10.5547 8.13075 10.5547C8.36903 10.5547 8.59852 10.6448 8.77325 10.8069C8.85993 10.8929 8.92774 10.9961 8.97233 11.1098C9.01693 11.2235 9.03733 11.3453 9.03225 11.4674C9.03594 11.59 9.01492 11.7121 8.97042 11.8265C8.92592 11.9408 8.85886 12.045 8.77325 12.1328C8.6028 12.3033 8.3717 12.399 8.13075 12.399C7.88979 12.399 7.6587 12.3033 7.48825 12.1328Z" fill="white"/>
<path d="M14.3058 11.0684V12.3233H9.3792V11.3225L11.893 8.89882C12.1076 8.7055 12.2899 8.47916 12.4332 8.22834C12.5232 8.05658 12.5712 7.86589 12.5732 7.67194C12.5801 7.55622 12.5597 7.4405 12.5137 7.33411C12.4676 7.22773 12.3972 7.13366 12.3081 7.05951C12.081 6.90159 11.8068 6.82604 11.5309 6.84536C11.2638 6.841 10.9993 6.89782 10.7576 7.01147C10.5248 7.12525 10.3255 7.29769 10.1795 7.51183L9.0791 6.78932C9.34058 6.39642 9.70448 6.08255 10.1314 5.88167C10.6115 5.65547 11.1373 5.54314 11.6679 5.55344C12.104 5.54416 12.5372 5.62667 12.9393 5.79561C13.2803 5.93986 13.5739 6.17703 13.7866 6.4801C13.9912 6.78827 14.096 7.152 14.0867 7.52184C14.0886 7.8732 14.012 8.22055 13.8626 8.53856C13.6413 8.94894 13.3478 9.31606 12.9964 9.62233L11.4959 11.0674L14.3058 11.0684Z" fill="white"/>
</svg>
