<svg xmlns="http://www.w3.org/2000/svg" width="18" height="18" viewBox="0 0 18 18" fill="none">
<path d="M17.0366 11.3313L11.3288 17.0352C10.7099 17.653 9.8713 18 8.997 18C8.12271 18 7.28412 17.653 6.66525 17.0352L0.963411 11.3313C0.346451 10.7123 0 9.87387 0 8.99975C0 8.12563 0.346451 7.28717 0.963411 6.66816L6.66525 0.964258C7.28408 0.34677 8.12245 0 8.9965 0C9.87055 0 10.7089 0.34677 11.3278 0.964258L17.0356 6.66816C17.6532 7.28725 18 8.12614 18 9.00075C18 9.87536 17.6532 10.7143 17.0356 11.3333" fill="#FF906D"/>
<path d="M6.50039 5.66797V12.3225H4.99238V6.90381H3.69238V5.66797H6.50039Z" fill="white"/>
<path d="M7.19922 12.1318C7.11315 12.0442 7.04567 11.9401 7.00082 11.8258C6.95597 11.7114 6.93467 11.5892 6.93822 11.4664C6.93327 11.3441 6.95394 11.2222 6.99889 11.1085C7.04384 10.9948 7.11208 10.8917 7.19922 10.8059C7.37395 10.6438 7.60344 10.5537 7.84172 10.5537C8.08 10.5537 8.30949 10.6438 8.48422 10.8059C8.57103 10.8919 8.63899 10.995 8.68376 11.1087C8.72852 11.2224 8.74912 11.3442 8.74422 11.4664C8.74773 11.5891 8.72651 11.7112 8.68184 11.8255C8.63718 11.9399 8.56997 12.044 8.48422 12.1318C8.31377 12.3022 8.08268 12.398 7.84172 12.398C7.60077 12.398 7.36967 12.3022 7.19922 12.1318Z" fill="white"/>
<path d="M13.7833 9.02826C14.0901 9.37482 14.2533 9.8254 14.2395 10.2881C14.2416 10.6658 14.1376 11.0365 13.9394 11.3579C13.7198 11.7024 13.404 11.9748 13.0311 12.1414C12.562 12.3533 12.051 12.4559 11.5366 12.4416C11.0788 12.4417 10.6231 12.3794 10.1821 12.2565C9.77614 12.1504 9.39279 11.9713 9.05078 11.7281L9.63697 10.5503C9.89629 10.7463 10.1877 10.8956 10.4982 10.9916C10.8214 11.096 11.159 11.1491 11.4986 11.1487C11.8123 11.1661 12.124 11.0883 12.3929 10.9256C12.4971 10.8572 12.5819 10.763 12.639 10.6522C12.6961 10.5414 12.7237 10.4177 12.719 10.2931C12.719 9.74809 12.3122 9.47557 11.4986 9.47557H10.8123V8.45287L12.1538 6.90381H9.37789V5.66797H13.9414V6.66865L12.4729 8.37782C12.9727 8.43633 13.4368 8.66616 13.7863 9.02826" fill="white"/>
</svg>