<svg xmlns="http://www.w3.org/2000/svg" width="18" height="18" viewBox="0 0 18 18" fill="none">
<path d="M17.0356 11.3317L11.3278 17.0357C10.7089 17.6532 9.87055 18 8.9965 18C8.12245 18 7.28408 17.6532 6.66525 17.0357L0.963415 11.3317C0.346455 10.7126 0 9.87415 0 9C0 8.12585 0.346455 7.28737 0.963415 6.66834L6.66525 0.964285C7.28408 0.34678 8.12245 0 8.9965 0C9.87055 0 10.7089 0.34678 11.3278 0.964285L17.0356 6.66834C17.6532 7.28745 18 8.12636 18 9.001C18 9.87564 17.6532 10.7145 17.0356 11.3337" fill="#FF906D"/>
<path d="M6.48672 5.66797V12.3227H4.97871V6.90385H3.67871V5.66797H6.48672Z" fill="white"/>
<path d="M7.27832 12.1328C7.19226 12.0452 7.12476 11.9411 7.07991 11.8268C7.03506 11.7124 7.01377 11.5902 7.01732 11.4674C7.01237 11.3451 7.03303 11.2232 7.07798 11.1095C7.12293 10.9957 7.19118 10.8927 7.27832 10.8069C7.45306 10.6448 7.68254 10.5547 7.92082 10.5547C8.1591 10.5547 8.38858 10.6448 8.56332 10.8069C8.65013 10.8929 8.71808 10.996 8.76285 11.1097C8.80762 11.2234 8.82821 11.3452 8.82332 11.4674C8.82683 11.5901 8.80561 11.7122 8.76094 11.8266C8.71627 11.9409 8.64906 12.045 8.56332 12.1328C8.39287 12.3033 8.16177 12.399 7.92082 12.399C7.67986 12.399 7.44877 12.3033 7.27832 12.1328Z" fill="white"/>
<path d="M13.682 8.73024C13.8976 8.91456 14.0687 9.1454 14.1824 9.40539C14.2961 9.66538 14.3493 9.94776 14.3382 10.2313C14.3457 10.6316 14.2355 11.0252 14.0212 11.3633C13.8069 11.7013 13.4979 11.9689 13.1328 12.1327C12.6619 12.3455 12.1488 12.4481 11.6323 12.4329C11.1742 12.4329 10.7182 12.3706 10.2769 12.2477C9.87086 12.1416 9.48752 11.9626 9.14551 11.7194L9.7457 10.5405C10.0042 10.7358 10.2941 10.8854 10.603 10.9828C10.9261 11.0876 11.2637 11.1406 11.6033 11.14C11.9177 11.1571 12.2298 11.0774 12.4976 10.9118C12.6017 10.8422 12.6862 10.747 12.7431 10.6354C12.8 10.5238 12.8274 10.3995 12.8227 10.2743C12.8289 10.1461 12.8007 10.0186 12.741 9.90496C12.6814 9.79131 12.5925 9.69565 12.4836 9.62788C12.1167 9.45308 11.7103 9.37784 11.3052 9.40973H9.63766L9.97377 5.66406H13.9501V6.90495H11.2312L11.1311 8.16884H11.6623C12.3854 8.11067 13.1059 8.30946 13.697 8.73024" fill="white"/>
</svg>