<svg width="18" height="18" viewBox="0 0 18 18" fill="none" xmlns="http://www.w3.org/2000/svg">
<path d="M17.0357 11.3317L11.3288 17.0357C10.7101 17.6532 9.87186 18 8.99795 18C8.12404 18 7.28581 17.6532 6.66708 17.0357L0.966152 11.3317C0.65987 11.0256 0.416897 10.6621 0.251116 10.2621C0.0853358 9.86197 0 9.43311 0 9C0 8.56689 0.0853358 8.13803 0.251116 7.73795C0.416897 7.33786 0.65987 6.9744 0.966152 6.66834L6.66708 0.964285C7.28581 0.34678 8.12404 0 8.99795 0C9.87186 0 10.7101 0.34678 11.3288 0.964285L17.0357 6.66834C17.6532 7.28745 18 8.12636 18 9.001C18 9.87564 17.6532 10.7145 17.0357 11.3337" fill="#FF906D"/>
<path d="M6.09706 5.66797V12.3227H4.58906V6.90385H3.28906V5.66797H6.09706Z" fill="white"/>
<path d="M7.07324 12.1328C6.98718 12.0452 6.91969 11.9411 6.87484 11.8268C6.82999 11.7124 6.8087 11.5902 6.81224 11.4674C6.80729 11.3451 6.82796 11.2232 6.87291 11.1095C6.91786 10.9957 6.9861 10.8927 7.07324 10.8069C7.24798 10.6448 7.47746 10.5547 7.71575 10.5547C7.95403 10.5547 8.18351 10.6448 8.35825 10.8069C8.44506 10.8929 8.51301 10.996 8.55778 11.1097C8.60254 11.2234 8.62314 11.3452 8.61824 11.4674C8.62175 11.5901 8.60054 11.7122 8.55587 11.8266C8.5112 11.9409 8.44399 12.045 8.35825 12.1328C8.1878 12.3033 7.9567 12.399 7.71575 12.399C7.47479 12.399 7.24369 12.3033 7.07324 12.1328Z" fill="white"/>
<path d="M14.8936 10.9247H13.8326V12.3257H12.3616V10.9247H8.85156V9.88797L11.9236 5.66797H13.5066L10.6576 9.67082H12.4086V8.42393H13.8326V9.66981H14.8936V10.9247Z" fill="white"/>
</svg>
