<svg width="18" height="18" viewBox="0 0 18 18" fill="none" xmlns="http://www.w3.org/2000/svg">
<path d="M17.0366 11.3313L11.3288 17.0352C10.7099 17.653 9.87129 18 8.997 18C8.1227 18 7.28412 17.653 6.66525 17.0352L0.963411 11.3313C0.346451 10.7123 0 9.87387 0 8.99975C0 8.12563 0.346451 7.28717 0.963411 6.66816L6.66525 0.964258C7.28408 0.34677 8.12245 0 8.9965 0C9.87055 0 10.7089 0.34677 11.3278 0.964258L17.0356 6.66816C17.6532 7.28725 18 8.12614 18 9.00075C18 9.87536 17.6532 10.7143 17.0356 11.3333" fill="#FF906D"/>
<path d="M7.55312 5.66797V12.3225H6.04512V6.90381H4.74512V5.66797H7.55312Z" fill="white"/>
<path d="M8.53125 12.1318C8.44518 12.0442 8.3777 11.9401 8.33285 11.8258C8.28799 11.7114 8.2667 11.5892 8.27025 11.4664C8.2653 11.3441 8.28596 11.2222 8.33091 11.1085C8.37587 10.9948 8.44411 10.8917 8.53125 10.8059C8.70598 10.6438 8.93547 10.5537 9.17375 10.5537C9.41203 10.5537 9.64152 10.6438 9.81625 10.8059C9.90306 10.8919 9.97102 10.995 10.0158 11.1087C10.0606 11.2224 10.0811 11.3442 10.0762 11.4664C10.0798 11.5891 10.0585 11.7112 10.0139 11.8255C9.96921 11.9399 9.90199 12.044 9.81625 12.1318C9.6458 12.3022 9.4147 12.398 9.17375 12.398C8.9328 12.398 8.7017 12.3022 8.53125 12.1318Z" fill="white"/>
<path d="M12.7494 5.66797V12.3225H11.2414V6.90381H9.94141V5.66797H12.7494Z" fill="white"/>
</svg>
