<svg xmlns="http://www.w3.org/2000/svg" width="18" height="18" viewBox="0 0 18 18">
  <g id="Group_71313" data-name="Group 71313" transform="translate(10907 17509)">
    <path id="Path_36136" data-name="Path 36136" d="M17.034,11.331l-5.706,5.7a3.3,3.3,0,0,1-4.661,0l-5.7-5.7a3.3,3.3,0,0,1,0-4.66l5.7-5.7a3.3,3.3,0,0,1,4.661,0l5.706,5.7a3.3,3.3,0,0,1,0,4.662" transform="translate(-10907 -17509)" fill="#ff6a6a"/>
    <path id="Path_36137" data-name="Path 36137" d="M11.83,13.005c.037-.122.073-.244.11-.365a2.08,2.08,0,0,0-.041-1.289c-.1-.287-.2-.571-.3-.856a2.346,2.346,0,0,1-.062-1.618c.012-.035.019-.071.028-.107V8.76a1.684,1.684,0,0,0-1.176,1.769,2.851,2.851,0,0,1-.976-1.362A2.516,2.516,0,0,1,9.458,7.5c-.036.016-.059.024-.08.035a2.87,2.87,0,0,0-.832.645,2.505,2.505,0,0,0-.551,1.352,4.035,4.035,0,0,0,.053,1.186A3.071,3.071,0,0,0,6.862,9.4c.032.145.062.268.085.393a1.984,1.984,0,0,1-.293,1.456,4.047,4.047,0,0,0-.5.941c-.051.17-.089.343-.138.536-.154-.133-.315-.259-.46-.4A2.912,2.912,0,0,1,4.7,10.757,3.041,3.041,0,0,1,4.8,9.233c.135-.414.309-.816.481-1.216a3.471,3.471,0,0,0,.333-1.422A4.549,4.549,0,0,0,5.4,5.438c-.01-.032-.017-.064-.03-.114.105.01.2.014.3.027a2.88,2.88,0,0,1,1.505.6,1.733,1.733,0,0,1,.56.833c.011.034.023.068.038.113a2.981,2.981,0,0,0,.619-.672A3.441,3.441,0,0,0,8.914,4a4.892,4.892,0,0,0-.263-1.27c0-.011-.006-.024-.015-.064.225.137.436.253.634.387a3.287,3.287,0,0,1,1.388,2.166,5.469,5.469,0,0,1,.008,2.1.217.217,0,0,0,0,.072,4.178,4.178,0,0,1,.953-1.36,3.65,3.65,0,0,1,.779-.593c-.042.169-.088.326-.121.485a2.93,2.93,0,0,0,.375,2.124c.178.305.379.6.546.906a3.342,3.342,0,0,1,.391,1.315.531.531,0,0,0,.017.077V10.7c-.008.059-.017.119-.025.178a2.506,2.506,0,0,1-1,1.687c-.206.16-.433.292-.65.437Z" transform="translate(-10907 -17509)" fill="#fff"/>
  </g>
</svg>
