<svg xmlns="http://www.w3.org/2000/svg" width="18" height="18" viewBox="0 0 18 18">
  <g id="Group_71319" data-name="Group 71319" transform="translate(10905 17375)">
    <path id="Path_36149" data-name="Path 36149" d="M18,9a3.322,3.322,0,0,1-.97,2.33L12.8,15.56l-1.47,1.47a3.2,3.2,0,0,1-.93.65A3.119,3.119,0,0,1,9,18a3.247,3.247,0,0,1-1.4-.31,3.294,3.294,0,0,1-.93-.66L5.2,15.56,2.4,12.77.96,11.33A3.311,3.311,0,0,1,0,9,3.277,3.277,0,0,1,.96,6.67L6.67.96A3.3,3.3,0,0,1,9,0a3.119,3.119,0,0,1,1.4.32,3.161,3.161,0,0,1,.93.64L12.8,2.43l2.8,2.81,1.43,1.43A3.287,3.287,0,0,1,18,9" transform="translate(-10905 -17375)" fill="#fff"/>
    <path id="Path_36150" data-name="Path 36150" d="M17.03,6.67,15.6,5.24,12.8,2.43,11.33.96A3.161,3.161,0,0,0,10.4.32,3.119,3.119,0,0,0,9,0,3.3,3.3,0,0,0,6.67.96L.96,6.67A3.277,3.277,0,0,0,0,9a3.311,3.311,0,0,0,.96,2.33L2.4,12.77l2.8,2.79,1.47,1.47a3.294,3.294,0,0,0,.93.66A3.247,3.247,0,0,0,9,18a3.119,3.119,0,0,0,1.4-.32,3.2,3.2,0,0,0,.93-.65l5.7-5.7A3.322,3.322,0,0,0,18,9a3.287,3.287,0,0,0-.97-2.33M2.4,11.35l-.73-.73a2.312,2.312,0,0,1,0-3.25l.73-.73Zm11.58-.65c0,.03-.03.25-.03.25a2.973,2.973,0,0,1-1.15,1.98v1.22l-2.18,2.18a2,2,0,0,1-.22.19V11.01a.675.675,0,0,1-.14.02.51.51,0,0,1-.31-.11,3.334,3.334,0,0,1-1.14-1.6,2.882,2.882,0,0,1-.13-.65,2.051,2.051,0,0,0-.31.92,3.415,3.415,0,0,0,.05,1.04.519.519,0,0,1-.5.59.438.438,0,0,1-.32-.13v5.43a2.2,2.2,0,0,1-.23-.2L5.2,14.15V12.78a1.059,1.059,0,0,1-.12-.1,3.468,3.468,0,0,1-1-1.83A3.561,3.561,0,0,1,4.2,9.08a12.439,12.439,0,0,1,.47-1.2A2.9,2.9,0,0,0,4.99,6.6,3.8,3.8,0,0,0,4.8,5.57a.581.581,0,0,1,.08-.51.6.6,0,0,1,.32-.22v-1L7.37,1.67a2.2,2.2,0,0,1,.23-.2V5.79a1.117,1.117,0,0,1,.19.24c.02-.03.04-.05.06-.08a2.976,2.976,0,0,0,.44-1.92,4.011,4.011,0,0,0-.24-1.14l-.03-.11a.528.528,0,0,1,.2-.52.521.521,0,0,1,.29-.09.484.484,0,0,1,.26.07l.2.12c.16.09.31.18.46.28a3.581,3.581,0,0,1,.97.97V1.48a2,2,0,0,1,.22.19L12.8,3.85V7.47a2.388,2.388,0,0,0,.16.32c.07.12.14.24.22.36.11.18.23.37.33.56a3.673,3.673,0,0,1,.45,1.51.5.5,0,0,1,.02.12Zm2.35-.08-.73.73V6.64l.73.73A2.308,2.308,0,0,1,17,9a2.285,2.285,0,0,1-.67,1.62" transform="translate(-10905 -17375)" fill="#ff6a6a"/>
    <path id="Path_36151" data-name="Path 36151" d="M11.706,13.005c.037-.122.073-.244.11-.365a2.08,2.08,0,0,0-.041-1.289c-.1-.287-.2-.571-.3-.856a2.346,2.346,0,0,1-.062-1.618c.012-.035.019-.071.028-.107V8.76a1.684,1.684,0,0,0-1.176,1.769,2.851,2.851,0,0,1-.976-1.362A2.516,2.516,0,0,1,9.334,7.5c-.036.016-.059.024-.08.035a2.87,2.87,0,0,0-.832.645,2.505,2.505,0,0,0-.551,1.352,4.035,4.035,0,0,0,.053,1.186A3.07,3.07,0,0,0,6.738,9.4c.032.145.062.268.085.393a1.984,1.984,0,0,1-.293,1.456,4.047,4.047,0,0,0-.5.941c-.051.17-.089.343-.138.536-.154-.133-.315-.259-.46-.4a2.912,2.912,0,0,1-.861-1.565,3.041,3.041,0,0,1,.106-1.524c.135-.414.309-.816.481-1.216a3.471,3.471,0,0,0,.333-1.422A4.549,4.549,0,0,0,5.28,5.438c-.01-.032-.017-.064-.03-.114.105.01.2.014.3.027a2.88,2.88,0,0,1,1.505.6,1.733,1.733,0,0,1,.56.833c.011.034.023.068.038.113a2.981,2.981,0,0,0,.619-.672A3.441,3.441,0,0,0,8.79,4a4.892,4.892,0,0,0-.263-1.27c0-.011-.006-.024-.015-.064.225.137.436.253.634.387a3.287,3.287,0,0,1,1.388,2.166,5.469,5.469,0,0,1,.008,2.1.217.217,0,0,0,0,.072,4.178,4.178,0,0,1,.953-1.36,3.65,3.65,0,0,1,.779-.593c-.042.169-.088.326-.121.485a2.93,2.93,0,0,0,.375,2.124c.178.305.379.6.546.906a3.342,3.342,0,0,1,.391,1.315.531.531,0,0,0,.017.077V10.7c-.008.059-.017.119-.025.178a2.506,2.506,0,0,1-1,1.687c-.206.16-.433.292-.65.437Z" transform="translate(-10905 -17375)" fill="#919191"/>
  </g>
</svg>
