
<svg width="14" height="14" viewBox="0 0 14 14" fill="none" xmlns="http://www.w3.org/2000/svg">
<rect width="14" height="14" rx="2" fill="#FBC88B"/>
<path d="M7 2.5C6.72266 2.5 6.5 2.72266 6.5 3V5.78906L4.52734 3.81641C4.39844 3.69141 4.21875 3.64844 4.05469 3.6875C3.96875 3.70703 3.88672 3.75 3.82031 3.81641C3.625 4.01172 3.625 4.33203 3.82031 4.52734L5.79297 6.5H3C2.72266 6.5 2.5 6.72266 2.5 7C2.5 7.27734 2.72266 7.5 3 7.5H5.78906L3.81641 9.47266C3.625 9.66797 3.625 9.98828 3.81641 10.1797C4.01172 10.375 4.33203 10.375 4.52734 10.1797L6.5 8.20703V11C6.5 11.2773 6.72266 11.5 7 11.5C7.27734 11.5 7.5 11.2773 7.5 11V8.20703L9.47656 10.1836C9.67188 10.3789 9.98828 10.3789 10.1836 10.1836C10.293 10.0742 10.3398 9.92969 10.3281 9.78516C10.3164 9.67188 10.2695 9.5625 10.1836 9.47656L8.20703 7.5H11C11.2773 7.5 11.5 7.27734 11.5 7C11.5 6.72266 11.2773 6.5 11 6.5H8.20703L10.1836 4.52344C10.3789 4.32812 10.3789 4.01172 10.1836 3.81641C9.98828 3.62109 9.67188 3.62109 9.47656 3.81641L7.5 5.79297V3C7.5 2.72266 7.27734 2.5 7 2.5Z" fill="white" fill-opacity="0.7"/>
</svg>
