<svg xmlns="http://www.w3.org/2000/svg" width="18" height="18" viewBox="0 0 18 18"><g transform="translate(-648 765) rotate(-90)"><rect width="18" height="18" transform="translate(747 648)" fill="#919191" opacity="0"/><path d="M11.033,146.963v2.05H5.965v-2.05a1.068,1.068,0,0,0-1.823-.755l-3.83,3.83a1.068,1.068,0,0,0,0,1.51l3.83,3.83a1.068,1.068,0,0,0,1.823-.755v-2.05h5.068v2.05a1.068,1.068,0,0,0,1.823.755l3.83-3.83a1.068,1.068,0,0,0,0-1.51l-3.83-3.83a1.068,1.068,0,0,0-1.823.755Z" transform="translate(747.501 506.207)" fill="#919191"/></g></svg>