<svg xmlns="http://www.w3.org/2000/svg" width="23" height="22" viewBox="0 0 23 22">
  <g id="Group_91602" data-name="Group 91602" transform="translate(3859 11690)">
    <g id="Path_36394" data-name="Path 36394" transform="translate(-3860.417 -11692.079)" fill="#ffde3a">
      <path d="M 21.37928771972656 23.57946014404297 L 4.454207897186279 23.57946014404297 C 3.5764479637146 23.57946014404297 2.7743980884552 23.11346054077148 2.30870795249939 22.33291053771973 C 1.805858016014099 21.49007034301758 1.784178018569946 20.47087097167969 2.250708103179932 19.60654067993164 L 10.71324825286865 3.928130149841309 C 11.16906833648682 3.083640336990356 11.99280834197998 2.579460144042969 12.916748046875 2.579460144042969 C 13.84067821502686 2.579460144042969 14.66441822052002 3.083640336990356 15.12023830413818 3.928130149841309 L 23.58278846740723 19.60654067993164 C 24.04931831359863 20.47087097167969 24.02763748168945 21.49007034301758 23.52478790283203 22.33291053771973 C 23.05909729003906 23.11346054077148 22.25704765319824 23.57946014404297 21.37928771972656 23.57946014404297 Z" stroke="none"/>
      <path d="M 12.916748046875 3.079460144042969 C 12.17959785461426 3.079460144042969 11.52034759521484 3.485500335693359 11.15323829650879 4.165620803833008 L 2.690698623657227 19.84403038024902 C 2.308618545532227 20.55191993713379 2.326337814331055 21.38656997680664 2.73809814453125 22.07673072814941 C 3.118288040161133 22.71397972106934 3.74378776550293 23.07946014404297 4.454208374023438 23.07946014404297 L 21.37928771972656 23.07946014404297 C 22.08970832824707 23.07946014404297 22.71520805358887 22.71397972106934 23.09539794921875 22.07673072814941 C 23.50715827941895 21.38656997680664 23.52487754821777 20.55191993713379 23.14279747009277 19.84403038024902 L 14.68024826049805 4.165630340576172 C 14.31313800811768 3.485500335693359 13.65388774871826 3.079460144042969 12.916748046875 3.079460144042969 M 12.91674709320068 2.079460144042969 C 13.94861030578613 2.079460144042969 14.98047351837158 2.616519927978516 15.56023788452148 3.690639495849609 L 24.02278900146484 19.36904907226562 C 25.16005706787109 21.47605133056641 23.69901847839355 24.07946014404297 21.37928771972656 24.07946014404297 L 4.454208374023438 24.07946014404297 C 2.134477615356445 24.07946014404297 0.6734371185302734 21.47605133056641 1.810708999633789 19.36904907226562 L 10.27324771881104 3.690639495849609 C 10.85301780700684 2.616519927978516 11.88488292694092 2.079460144042969 12.91674709320068 2.079460144042969 Z" stroke="none" fill="#3a3a3a"/>
    </g>
    <path id="Path_36395" data-name="Path 36395" d="M.308-9.8H5.484L4.622-1.926H1.171ZM2.9,3.141A2.62,2.62,0,0,1,1.075,2.5,2.008,2.008,0,0,1,.366.954a1.946,1.946,0,0,1,.709-1.54A2.693,2.693,0,0,1,2.9-1.2a2.693,2.693,0,0,1,1.821.611A1.946,1.946,0,0,1,5.427.954,2.008,2.008,0,0,1,4.718,2.5,2.62,2.62,0,0,1,2.9,3.141Z" transform="translate(-3850.396 -11673.73)" fill="#3a3a3a"/>
  </g>
</svg>
