<svg xmlns="http://www.w3.org/2000/svg" width="14" height="14" viewBox="0 0 14 14" fill="none">
<rect width="14" height="14" rx="2" fill="#ED9292"/>
<path d="M8.32656 7L10.3163 5.01014C10.4335 4.89282 10.4994 4.73372 10.4994 4.56783C10.4994 4.40193 10.4335 4.24283 10.3163 4.12551L9.87397 3.68319C9.75667 3.56589 9.59758 3.5 9.43169 3.5C9.26581 3.5 9.10672 3.56589 8.98941 3.68319L7.00028 5.67305L5.01002 3.68319C4.89271 3.56589 4.73362 3.5 4.56774 3.5C4.40186 3.5 4.24277 3.56589 4.12546 3.68319L3.68318 4.12551C3.56589 4.24283 3.5 4.40193 3.5 4.56783C3.5 4.73372 3.56589 4.89282 3.68318 5.01014L5.67288 7L3.68374 8.98986C3.56646 9.10717 3.50057 9.26628 3.50057 9.43217C3.50057 9.59807 3.56646 9.75717 3.68374 9.87449L4.12602 10.3168C4.24333 10.4341 4.40242 10.5 4.56831 10.5C4.73419 10.5 4.89328 10.4341 5.01059 10.3168L7.00028 8.32695L8.98998 10.3168C9.10729 10.4341 9.26638 10.5 9.43226 10.5C9.59814 10.5 9.75723 10.4341 9.87454 10.3168L10.3168 9.87449C10.4341 9.75717 10.5 9.59807 10.5 9.43217C10.5 9.26628 10.4341 9.10717 10.3168 8.98986L8.32656 7Z" fill="white" fill-opacity="0.7"/>
</svg>