<svg xmlns="http://www.w3.org/2000/svg" width="20" height="19" viewBox="0 0 20 19">
  <g id="Group_104757" data-name="Group 104757" transform="translate(-0.367 0.239)">
    <rect id="Rectangle_101674" data-name="Rectangle 101674" width="20" height="19" rx="2" transform="translate(0.367 -0.239)" fill="#ff8080"/>
    <path id="times" d="M5.726,84.152l2.361-2.361a.742.742,0,0,0,0-1.049l-.525-.525a.742.742,0,0,0-1.049,0L4.152,82.578,1.791,80.217a.742.742,0,0,0-1.049,0l-.525.525a.742.742,0,0,0,0,1.049l2.361,2.361L.217,86.513a.742.742,0,0,0,0,1.049l.525.525a.742.742,0,0,0,1.049,0l2.361-2.361,2.361,2.361a.742.742,0,0,0,1.049,0l.525-.525a.742.742,0,0,0,0-1.049Z" transform="translate(6.367 -75.239)" fill="#fff"/>
  </g>
</svg>
