<svg xmlns="http://www.w3.org/2000/svg" width="18" height="17" viewBox="0 0 18 17">
  <g id="Group_91867" data-name="Group 91867" transform="translate(3859 11690)">
    <g id="Path_36394" data-name="Path 36394" transform="translate(-3860.417 -11692.079)" fill="#ffde3a">
      <path d="M 17.03966331481934 18.57945823669434 L 3.793903350830078 18.57945823669434 C 3.137993335723877 18.57945823669434 2.541463375091553 18.23385810852051 2.198193311691284 17.65498733520508 C 1.835123300552368 17.04272842407227 1.822263360023499 16.30419731140137 2.163793325424194 15.67942810058594 L 8.786683082580566 3.564287662506104 C 9.123793601989746 2.947617769241333 9.733173370361328 2.579457759857178 10.41678333282471 2.579457759857178 C 11.10038375854492 2.579457759857178 11.7097635269165 2.947617769241333 12.04688358306885 3.564287662506104 L 18.66977310180664 15.67942810058594 C 19.01130294799805 16.30419731140137 18.99844360351562 17.04272842407227 18.63537406921387 17.65498733520508 C 18.2921028137207 18.23385810852051 17.6955738067627 18.57945823669434 17.03966331481934 18.57945823669434 Z" stroke="none"/>
      <path d="M 10.41677379608154 3.079458236694336 C 9.911403656005859 3.079458236694336 9.477163314819336 3.343587875366211 9.225403785705566 3.804128646850586 L 2.602523803710938 15.91926765441895 C 2.346523284912109 16.38755798339844 2.356143951416016 16.94107818603516 2.628263473510742 17.39995765686035 C 2.884344100952148 17.831787109375 3.3092041015625 18.07945823669434 3.793903350830078 18.07945823669434 L 17.03966331481934 18.07945823669434 C 17.52436256408691 18.07945823669434 17.94922256469727 17.831787109375 18.20530319213867 17.39995765686035 C 18.4774227142334 16.94107818603516 18.4870433807373 16.38755798339844 18.23104286193848 15.91926765441895 L 11.60815334320068 3.804128646850586 C 11.3563928604126 3.343587875366211 10.92215347290039 3.079458236694336 10.41677379608154 3.079458236694336 M 10.41677856445312 2.079458236694336 C 11.22432613372803 2.079458236694336 12.03187370300293 2.494457244873047 12.48560333251953 3.324457168579102 L 19.10849380493164 15.43959808349609 C 19.99853324890137 17.06772804260254 18.8551025390625 19.07945823669434 17.03966331481934 19.07945823669434 L 3.793903350830078 19.07945823669434 C 1.978464126586914 19.07945823669434 0.8350334167480469 17.06772804260254 1.725072860717773 15.43959808349609 L 8.347953796386719 3.324457168579102 C 8.80168342590332 2.494457244873047 9.609230995178223 2.079458236694336 10.41677856445312 2.079458236694336 Z" stroke="none" fill="#3a3a3a"/>
    </g>
    <path id="Path_36395" data-name="Path 36395" d="M.308-9.8h4L3.641-3.715H.975Zm2,10A2.025,2.025,0,0,1,.9-.293a1.551,1.551,0,0,1-.548-1.2A1.5,1.5,0,0,1,.9-2.68a2.081,2.081,0,0,1,1.407-.472,2.081,2.081,0,0,1,1.407.472,1.5,1.5,0,0,1,.548,1.19,1.551,1.551,0,0,1-.548,1.2A2.025,2.025,0,0,1,2.308.2Z" transform="translate(-3852.308 -11675.2)" fill="#3a3a3a"/>
  </g>
</svg>
