<svg xmlns="http://www.w3.org/2000/svg" width="18" height="18" viewBox="0 0 18 18">
  <g id="Group_71318" data-name="Group 71318" transform="translate(10868 17401)">
    <path id="Path_36147" data-name="Path 36147" d="M17.034,11.331l-5.706,5.7a3.3,3.3,0,0,1-4.661,0l-5.7-5.7a3.3,3.3,0,0,1,0-4.66l5.7-5.7a3.3,3.3,0,0,1,4.661,0l5.706,5.7a3.3,3.3,0,0,1,0,4.662" transform="translate(-10868 -17401)" fill="#919191"/>
    <path id="Path_36148" data-name="Path 36148" d="M12.7,13.113h-.116a.515.515,0,0,1-.407-.454c-.007-.041-.027-.08-.032-.12a.178.178,0,0,0-.1-.137c-.944-.542-1.43-.8-2.372-1.348a.2.2,0,0,0-.2-.015,1.222,1.222,0,0,1-.953,0,.2.2,0,0,0-.2.019c-.9.524-1.276.736-2.184,1.251a.423.423,0,0,0-.246.321.5.5,0,0,1-.405.454H5.374a.464.464,0,0,1-.395-.412,1.274,1.274,0,0,1,.016-.233.487.487,0,0,1-.391-.375v-.154a.15.15,0,0,0,.016-.034.439.439,0,0,1,.521-.33,1.665,1.665,0,0,1,.27.067.19.19,0,0,0,.17-.024c.8-.46,1.061-.606,1.857-1.065.027-.016.052-.033.087-.055-.046-.042-.087-.077-.125-.115A1.115,1.115,0,0,1,7,9.622.134.134,0,0,0,6.924,9.5c-.61-.357-.95-.545-1.558-.908A.292.292,0,0,0,5.1,8.552a1.078,1.078,0,0,1-.289.064c-.214.014-.359-.111-.465-.379V8.083a.5.5,0,0,1,.4-.372c-.007-.039-.011-.07-.017-.1a.451.451,0,0,1,.869-.233c.032.09.047.186.08.276a.235.235,0,0,0,.086.114c.26.153.253.13.515.278a.614.614,0,0,0,.064.027c-.011-.116-.03-.223-.031-.331,0-.433-.006-.866,0-1.3a2.158,2.158,0,0,1,.826-1.7A2.607,2.607,0,0,1,8.52,4.155a3.076,3.076,0,0,1,1.991.34,2.193,2.193,0,0,1,1.181,1.979A9.688,9.688,0,0,1,11.648,8.1a3.794,3.794,0,0,1,.379-.208.518.518,0,0,0,.339-.44.328.328,0,0,1,.036-.108.44.44,0,0,1,.451-.26.427.427,0,0,1,.4.355,1.714,1.714,0,0,1,0,.278l.062.023a.451.451,0,0,1-.24.869c-.091-.018-.179-.049-.27-.067a.165.165,0,0,0-.108.009c-.648.37-1,.57-1.65.945A.1.1,0,0,0,11,9.566a.911.911,0,0,1-.22.582c-.092.112-.2.215-.3.327.03.018.059.037.089.054.724.418,1,.545,1.713.974a.584.584,0,0,0,.6.08.115.115,0,0,1,.028-.007.453.453,0,0,1,.226.878l-.053.021a1.2,1.2,0,0,1,.014.235.465.465,0,0,1-.394.4M8.169,9.428a.835.835,0,0,1-.014-.109c0-.1,0-.2,0-.308a.145.145,0,0,0-.1-.151c-.187-.067-.375-.133-.564-.193a.155.155,0,0,0-.211.1c-.03.089.009.161.114.2a2.351,2.351,0,0,0,.31.1.155.155,0,0,1,.141.2.5.5,0,0,0,.33.548.942.942,0,0,0,.333.078c.34.01.68.007,1.02,0a.929.929,0,0,0,.28-.056.444.444,0,0,0,.328-.387,1.467,1.467,0,0,0,.014-.229c0-.075.015-.115.094-.135.121-.031.238-.077.356-.119s.159-.119.125-.211-.116-.117-.226-.081c-.177.058-.352.12-.529.177a.166.166,0,0,0-.126.18c0,.093,0,.186,0,.279a.673.673,0,0,1-.026.126c-.149-.072-.2-.049-.279.077-.025.042-.087.062-.14.1-.034-.164-.072-.214-.158-.215a.145.145,0,0,0-.1.028,1.051,1.051,0,0,0-.092.162H8.931c-.023-.136-.065-.188-.154-.191s-.14.047-.177.212c-.049-.025-.112-.036-.135-.073-.1-.152-.123-.167-.3-.1M7.335,7.521c.011.079.017.159.033.237a.391.391,0,0,0,.538.307A2.258,2.258,0,0,0,8.36,7.82a.97.97,0,0,0,.254-.283.365.365,0,0,0-.242-.6,1.7,1.7,0,0,0-.551-.008.539.539,0,0,0-.486.589M10.026,6.9a1.233,1.233,0,0,0-.378.052.357.357,0,0,0-.211.534A.818.818,0,0,0,9.5,7.6a1.34,1.34,0,0,0,.666.466A.384.384,0,0,0,10.7,7.8a1.334,1.334,0,0,0,.043-.3.54.54,0,0,0-.465-.567,2.357,2.357,0,0,0-.248-.027M9.005,8.931v0c.058,0,.116,0,.173,0,.147-.01.224-.078.22-.224a1.529,1.529,0,0,0-.209-.789.2.2,0,0,0-.364,0,1.47,1.47,0,0,0-.207.826.177.177,0,0,0,.176.182c.07.008.141.007.211.01" transform="translate(-10868 -17401)" fill="#fff"/>
  </g>
</svg>
