<svg id="Group_60280" data-name="Group 60280" xmlns="http://www.w3.org/2000/svg" width="15" height="15" viewBox="0 0 15 15">
  <path id="Path_33564" data-name="Path 33564" d="M15,7.5A7.5,7.5,0,1,1,7.5,0,7.5,7.5,0,0,1,15,7.5Zm0,0" fill="#4db6a2"/>
  <path id="dollar-sign" d="M4.939,5.47,2.407,4.73A.691.691,0,0,1,2.6,3.375H4.156a1.431,1.431,0,0,1,.8.246.365.365,0,0,0,.457-.047l.816-.8A.38.38,0,0,0,6.188,2.2a3.314,3.314,0,0,0-2.027-.7V.375A.376.376,0,0,0,3.786,0h-.75a.376.376,0,0,0-.375.375V1.5H2.6A2.568,2.568,0,0,0,.047,4.3,2.683,2.683,0,0,0,2.011,6.567l2.4.7a.691.691,0,0,1-.195,1.355H2.665a1.431,1.431,0,0,1-.8-.246.365.365,0,0,0-.457.047l-.816.8A.38.38,0,0,0,.633,9.8a3.314,3.314,0,0,0,2.027.7v1.125A.376.376,0,0,0,3.036,12h.75a.376.376,0,0,0,.375-.375V10.5a2.647,2.647,0,0,0,2.477-1.7,2.574,2.574,0,0,0-1.7-3.321Z" transform="translate(4.164 1.5)" fill="#fff"/>
</svg>
