<svg xmlns="http://www.w3.org/2000/svg" width="17.201" height="17.178" viewBox="0 0 17.201 17.178">
  <path id="Union_1008" data-name="Union 1008" d="M25513.631,20820.389a.61.61,0,0,1-.629-.584v-.916h-1.428a.584.584,0,0,1-.576-.584v-.441a.582.582,0,0,1,.576-.582H25513v-.924a.6.6,0,0,1,.629-.576h3.338a.609.609,0,0,1,.635.576v.924h9.02a.582.582,0,0,1,.576.582v.441a.584.584,0,0,1-.576.584h-9.02v.916a.616.616,0,0,1-.635.584Zm8-5.785a.616.616,0,0,1-.635-.584v-.916h-9.424a.582.582,0,0,1-.576-.582v-.443a.582.582,0,0,1,.576-.582H25521v-.924a.609.609,0,0,1,.635-.576h3.33a.6.6,0,0,1,.635.576v.924h1.025a.582.582,0,0,1,.576.582v.443a.582.582,0,0,1-.576.582h-1.025v.916a.611.611,0,0,1-.635.584Zm-8-5.793a.6.6,0,0,1-.629-.576v-.922h-1.428a.577.577,0,0,1-.576-.576v-.449a.581.581,0,0,1,.576-.576H25513v-.924a.6.6,0,0,1,.629-.576h3.338a.609.609,0,0,1,.635.576v.924h9.02a.581.581,0,0,1,.576.576v.449a.577.577,0,0,1-.576.576h-9.02v.922a.609.609,0,0,1-.635.576Z" transform="translate(-25510.498 -20803.711)" fill="#919191" stroke="rgba(0,0,0,0)" stroke-width="1"/>
</svg>
