<svg xmlns="http://www.w3.org/2000/svg" width="14" height="14" viewBox="0 0 14 14">
  <g id="Contact" transform="translate(-5479 -13569)">
    <rect id="Rectangle_56840" data-name="Rectangle 56840" width="14" height="14" transform="translate(5479 13569)" fill="none"/>
    <path id="Path_35721" data-name="Path 35721" d="M79.1.45A6.65,6.65,0,1,0,85.75,7.1,6.65,6.65,0,0,0,79.1.45m0,2.574a2.36,2.36,0,1,1-2.36,2.36,2.36,2.36,0,0,1,2.36-2.36m0,9.224a5.139,5.139,0,0,1-3.929-1.829,2.99,2.99,0,0,1,2.641-1.6.686.686,0,0,1,.191.03,3.341,3.341,0,0,0,2.193,0,.686.686,0,0,1,.191-.03,2.989,2.989,0,0,1,2.641,1.6A5.139,5.139,0,0,1,79.1,12.249" transform="translate(5406.9 13568.9)" fill="#aaa"/>
  </g>
</svg>
