<svg xmlns="http://www.w3.org/2000/svg" width="18" height="18" viewBox="0 0 18 18"><rect width="18" height="18" fill="#919191" opacity="0"/><path d="M8.01,10.4v6.072a.623.623,0,0,1-.619.628H.979a.625.625,0,0,1-.628-.628V10.391a.623.623,0,0,1,.628-.619H2.933v1.919c0,.131.017.244.148.3a13.127,13.127,0,0,0,2.19,0c.131-.053.157-.157.157-.288V9.772H7.391a.623.623,0,0,1,.619.628" fill="#919191"/><path d="M17.65,10.4v6.072a.625.625,0,0,1-.628.628H10.61a.623.623,0,0,1-.619-.628V10.391a.621.621,0,0,1,.619-.619h1.954v.262c0,.558.009,1.107,0,1.657,0,.131.026.244.157.3a13.127,13.127,0,0,0,2.19,0c.131-.053.157-.157.157-.288V9.772h1.954a.625.625,0,0,1,.628.628" fill="#919191"/><path d="M15.966,1.816V7.3a.918.918,0,0,1-.916.925H2.732A.918.918,0,0,1,1.816,7.3V1.825A.918.918,0,0,1,2.732.9h4.5v.236c0,.863.008,1.718,0,2.573,0,.2.034.375.235.454a23.275,23.275,0,0,0,3.2,0,.377.377,0,0,0,.244-.4V.9H15.05a.916.916,0,0,1,.916.916" fill="#919191"/></svg>