<svg xmlns="http://www.w3.org/2000/svg" width="10" height="14" viewBox="0 0 10 14">
  <path id="grip-vertical" d="M3,32H1a1,1,0,0,0-1,1v2a1,1,0,0,0,1,1H3a1,1,0,0,0,1-1V33A1,1,0,0,0,3,32Zm0,5H1a1,1,0,0,0-1,1v2a1,1,0,0,0,1,1H3a1,1,0,0,0,1-1V38A1,1,0,0,0,3,37Zm0,5H1a1,1,0,0,0-1,1v2a1,1,0,0,0,1,1H3a1,1,0,0,0,1-1V43A1,1,0,0,0,3,42ZM9,32H7a1,1,0,0,0-1,1v2a1,1,0,0,0,1,1H9a1,1,0,0,0,1-1V33A1,1,0,0,0,9,32Zm0,5H7a1,1,0,0,0-1,1v2a1,1,0,0,0,1,1H9a1,1,0,0,0,1-1V38A1,1,0,0,0,9,37Zm0,5H7a1,1,0,0,0-1,1v2a1,1,0,0,0,1,1H9a1,1,0,0,0,1-1V43A1,1,0,0,0,9,42Z" transform="translate(10 46) rotate(180)" fill="#fff"/>
</svg>
