<svg xmlns="http://www.w3.org/2000/svg" width="18" height="18" viewBox="0 0 18 18">
  <g id="Group_112693" data-name="Group 112693" transform="translate(-135 -337)">
    <rect id="Rectangle_61749" data-name="Rectangle 61749" width="18" height="18" rx="6" transform="translate(135 337)" fill="none"/>
    <path id="minus-circle" d="M16.1,8a8.1,8.1,0,1,0,8.1,8.1A8.1,8.1,0,0,0,16.1,8Zm-4.311,9.406a.393.393,0,0,1-.392-.392V15.185a.393.393,0,0,1,.392-.392h8.623a.393.393,0,0,1,.392.392v1.829a.393.393,0,0,1-.392.392Z" transform="translate(127.9 329.9)" fill="#e57373"/>
  </g>
</svg>
