<svg xmlns="http://www.w3.org/2000/svg" width="18" height="18" viewBox="0 0 18 18">
  <g id="Group_71322" data-name="Group 71322" transform="translate(10923 17436)">
    <path id="Path_36138" data-name="Path 36138" d="M17.034,11.331l-5.706,5.7a3.3,3.3,0,0,1-4.661,0l-5.7-5.7a3.3,3.3,0,0,1,0-4.66l5.7-5.7a3.3,3.3,0,0,1,4.661,0l5.706,5.7a3.3,3.3,0,0,1,0,4.662" transform="translate(-10923 -17436)" fill="#ffbf6b"/>
    <path id="Path_36139" data-name="Path 36139" d="M12.988,9.763c-.478-1.246-1-2.446-2.221-2.976a1.526,1.526,0,0,1,.03-.3c.02-.1.15-.56.17-.68-.68.19-.66.37-.97.72l-.02.02v-.02a2.43,2.43,0,0,0-.5-1.37,2.358,2.358,0,0,0-.69-.53.488.488,0,0,0-.07-.03,2.048,2.048,0,0,1,.04,1.38.716.716,0,0,1-.38.47,1.129,1.129,0,0,1-.48.13v-.03c-.03-.71-.32-.87-.59-.92a6.908,6.908,0,0,1,.03,1.1,4.03,4.03,0,0,0-2.325,3.01c0-.748.025-1.37,1.195-3.48a2.881,2.881,0,0,0,.05-1.81,1.554,1.554,0,0,0-.32-.71,2.674,2.674,0,0,1,1.97,1.35,3.416,3.416,0,0,1-.18-1.37,2.128,2.128,0,0,1,1.64-1.66c-.01.04-.04.15-.04.16a3.263,3.263,0,0,0-.06.49,2.768,2.768,0,0,0,.85,2.12.465.465,0,0,1,.03-.09,1.3,1.3,0,0,1,.42-.52,2.739,2.739,0,0,1,1.28-.39,1.948,1.948,0,0,1,.25-.02.944.944,0,0,1-.03.09,3.453,3.453,0,0,0-.17.95,5.5,5.5,0,0,0,.17,1.74,26.492,26.492,0,0,1,.921,3.176" transform="translate(-10923 -17436)" fill="#fff"/>
    <path id="Path_36140" data-name="Path 36140" d="M8.988,8.106a2.732,2.732,0,1,1-2.733,2.732A2.736,2.736,0,0,1,8.988,8.106m0-1a3.732,3.732,0,1,0,3.732,3.732A3.733,3.733,0,0,0,8.988,7.106" transform="translate(-10923 -17436)" fill="#fff"/>
  </g>
</svg>
