<svg xmlns="http://www.w3.org/2000/svg" width="18" height="18" viewBox="0 0 18 18">
  <g id="Group_71324" data-name="Group 71324" transform="translate(10829 17355)">
    <path id="Path_36157" data-name="Path 36157" d="M18,9a3.294,3.294,0,0,1-.96,2.33l-5.71,5.71a3.3,3.3,0,0,1-4.66-.01l-5.7-5.7a3.283,3.283,0,0,1,0-4.66L6.67.97a3.283,3.283,0,0,1,4.66,0l5.71,5.7A3.294,3.294,0,0,1,18,9" transform="translate(-10829 -17355)" fill="#ffbf6b"/>
    <path id="Path_36158" data-name="Path 36158" d="M17,9h-3.84a20.475,20.475,0,0,0-.63-1.96,4.9,4.9,0,0,1-.13-1.56,2.919,2.919,0,0,1,.15-.8c0-.01.03-.09.03-.11a.5.5,0,0,0-.08-.43.538.538,0,0,0-.4-.2c-.11,0-.2.02-.32.03a3.125,3.125,0,0,0-1.51.49.95.95,0,0,0-.19.16,2.109,2.109,0,0,1-.31-1.23,3.464,3.464,0,0,1,.05-.44l.03-.13a.476.476,0,0,0-.12-.47.519.519,0,0,0-.36-.16.425.425,0,0,0-.11.02,2.615,2.615,0,0,0-2.02,2.06.17.17,0,0,0-.01.07,5.4,5.4,0,0,0-1.16-.45.57.57,0,0,0-.13-.01.482.482,0,0,0-.42.23.5.5,0,0,0,.03.58,1.079,1.079,0,0,1,.22.49,2.446,2.446,0,0,1,0,1.47A12.421,12.421,0,0,0,4.687,9H1a2.312,2.312,0,0,1,.67-1.62l5.71-5.71a2.294,2.294,0,0,1,3.24,0l5.71,5.71A2.285,2.285,0,0,1,17,9" transform="translate(-10829 -17355)" fill="#ff6a6a"/>
    <path id="Path_36159" data-name="Path 36159" d="M12.988,10.4c-.478-1.246-1-2.446-2.221-2.976a1.526,1.526,0,0,1,.03-.3c.02-.1.15-.56.17-.68-.68.19-.66.37-.97.72l-.02.02v-.02a2.43,2.43,0,0,0-.5-1.37,2.358,2.358,0,0,0-.69-.53.488.488,0,0,0-.07-.03,2.048,2.048,0,0,1,.04,1.38.716.716,0,0,1-.38.47,1.129,1.129,0,0,1-.48.13v-.03c-.03-.71-.32-.87-.59-.92a6.908,6.908,0,0,1,.03,1.1,4.03,4.03,0,0,0-2.325,3.01c0-.748.025-1.37,1.195-3.48a2.881,2.881,0,0,0,.05-1.81,1.554,1.554,0,0,0-.32-.71,2.674,2.674,0,0,1,1.97,1.35,3.416,3.416,0,0,1-.18-1.37A2.128,2.128,0,0,1,9.367,2.7c-.01.04-.04.15-.04.16a3.263,3.263,0,0,0-.06.49,2.768,2.768,0,0,0,.85,2.12.465.465,0,0,1,.03-.09,1.3,1.3,0,0,1,.42-.52,2.739,2.739,0,0,1,1.28-.39,1.948,1.948,0,0,1,.25-.02.944.944,0,0,1-.03.09,3.453,3.453,0,0,0-.17.95,5.5,5.5,0,0,0,.17,1.74,26.492,26.492,0,0,1,.921,3.176" transform="translate(-10829 -17355)" fill="#fff"/>
    <path id="Path_36160" data-name="Path 36160" d="M8.988,8.749a2.732,2.732,0,1,1-2.733,2.732A2.736,2.736,0,0,1,8.988,8.749m0-1a3.732,3.732,0,1,0,3.732,3.732A3.733,3.733,0,0,0,8.988,7.749" transform="translate(-10829 -17355)" fill="#fff"/>
  </g>
</svg>
