<svg xmlns="http://www.w3.org/2000/svg" width="18" height="18" viewBox="0 0 18 18">
  <g id="Group_71325" data-name="Group 71325" transform="translate(10868 17178)">
    <path id="Path_36161" data-name="Path 36161" d="M0,9A3.294,3.294,0,0,1,.96,6.67L6.67.96a3.3,3.3,0,0,1,4.66.01l5.7,5.7a3.283,3.283,0,0,1,0,4.66l-5.7,5.7a3.283,3.283,0,0,1-4.66,0L.96,11.33A3.294,3.294,0,0,1,0,9" transform="translate(-10868 -17178)" fill="#ffbf6b"/>
    <path id="Path_36162" data-name="Path 36162" d="M17,8.994a2.312,2.312,0,0,1-.67,1.62l-5.71,5.71a2.294,2.294,0,0,1-3.24,0l-5.71-5.71A2.285,2.285,0,0,1,1,8.994h2.51a1.212,1.212,0,0,1-.17-.81A5.7,5.7,0,0,1,5.3,4.664a1.175,1.175,0,0,1,.77-.28,1.235,1.235,0,0,1,1.03.57l1.48,2.36a.731.731,0,0,1,.07.19A1.342,1.342,0,0,1,9,7.464a1.42,1.42,0,0,1,.36.04.438.438,0,0,1,.07-.19l1.48-2.36a1.235,1.235,0,0,1,1.03-.57,1.2,1.2,0,0,1,.77.28,5.7,5.7,0,0,1,1.96,3.52,1.212,1.212,0,0,1-.17.81Z" transform="translate(-10868 -17178)" fill="#fff"/>
    <path id="Path_36163" data-name="Path 36163" d="M9,10A1,1,0,1,0,9,8a1,1,0,0,0,0,2M8.118,7.6,6.639,5.24a.667.667,0,0,0-.99-.167A5.168,5.168,0,0,0,3.872,8.262a.669.669,0,0,0,.666.757H7.329A1.671,1.671,0,0,1,8.118,7.6m4.239-2.531a.666.666,0,0,0-.989.167L9.887,7.6a1.671,1.671,0,0,1,.789,1.415h2.791a.67.67,0,0,0,.666-.757,5.176,5.176,0,0,0-1.776-3.189m-2.47,5.358a1.645,1.645,0,0,1-1.769,0L6.639,12.8a.663.663,0,0,0,.277.958,5.14,5.14,0,0,0,4.173,0,.665.665,0,0,0,.278-.959Z" transform="translate(-10868 -17178)" fill="#919191"/>
  </g>
</svg>
