<svg xmlns="http://www.w3.org/2000/svg" width="12" height="12" viewBox="0 0 12 12" fill="none">
<path d="M9.46587 7.85961L6.43321 10.8923C6.37654 10.9496 6.30906 10.9951 6.23467 11.0262C6.16029 11.0572 6.08048 11.0732 5.99987 11.0732C5.91926 11.0732 5.83946 11.0572 5.76507 11.0262C5.69069 10.9951 5.62321 10.9496 5.56654 10.8923L2.53254 7.85961C2.44727 7.77385 2.38928 7.66478 2.36588 7.54613C2.34249 7.42749 2.35473 7.30457 2.40106 7.19286C2.4474 7.08116 2.52576 6.98567 2.62627 6.91841C2.72678 6.85116 2.84494 6.81516 2.96587 6.81494H9.03254C9.15347 6.81516 9.27164 6.85116 9.37214 6.91841C9.47265 6.98567 9.55101 7.08116 9.59735 7.19286C9.64368 7.30457 9.65592 7.42749 9.63253 7.54613C9.60913 7.66478 9.55115 7.77385 9.46587 7.85961Z" fill="#919191"/>
<path d="M2.96854 5.18407H9.03521C9.15591 5.18333 9.27371 5.14695 9.37381 5.07949C9.47392 5.01204 9.55186 4.91652 9.59787 4.80492C9.64388 4.69332 9.65589 4.57062 9.63241 4.45222C9.60893 4.33382 9.55099 4.22499 9.46587 4.1394L6.43321 1.10674C6.37654 1.04941 6.30906 1.0039 6.23467 0.972834C6.16029 0.941773 6.08048 0.925781 5.99987 0.925781C5.91926 0.925781 5.83946 0.941773 5.76507 0.972834C5.69069 1.0039 5.62321 1.04941 5.56654 1.10674L2.53254 4.1394C2.44711 4.22531 2.38907 4.33463 2.36576 4.45353C2.34244 4.57242 2.35491 4.69556 2.40158 4.80738C2.44824 4.91919 2.52701 5.01466 2.62793 5.08171C2.72885 5.14876 2.84738 5.18438 2.96854 5.18407Z" fill="#919191"/>
</svg>