<svg width="15" height="14" viewBox="0 0 15 14" fill="none" xmlns="http://www.w3.org/2000/svg">
<path d="M12.4572 5.53035V1.68968C12.4531 1.51582 12.3802 1.35069 12.2546 1.23042C12.129 1.11016 11.9608 1.04457 11.787 1.04802H8.74895V3.05118C8.75617 3.11152 8.74227 3.17249 8.70963 3.22375C8.67698 3.275 8.6276 3.31338 8.56987 3.33235C7.78652 3.38381 7.00064 3.38381 6.21729 3.33235C6.06737 3.27693 6.04229 3.15501 6.04229 3.01443C6.04617 2.61586 6.04488 2.21729 6.04359 1.817C6.04294 1.6162 6.04229 1.41498 6.04229 1.2131V1.04802H2.73479C2.64801 1.04608 2.5617 1.06132 2.48083 1.09286C2.39996 1.1244 2.32612 1.17161 2.26356 1.23179C2.201 1.29196 2.15096 1.36391 2.1163 1.44349C2.08164 1.52307 2.06306 1.60872 2.06162 1.69552V5.53035C2.06306 5.61714 2.08164 5.70279 2.1163 5.78237C2.15096 5.86196 2.201 5.9339 2.26356 5.99408C2.32612 6.05425 2.39996 6.10147 2.48083 6.133C2.5617 6.16454 2.64801 6.17978 2.73479 6.17785H11.784C11.8708 6.17978 11.9571 6.16454 12.038 6.133C12.1189 6.10147 12.1927 6.05425 12.2553 5.99408C12.3178 5.9339 12.3679 5.86196 12.4025 5.78237C12.4372 5.70279 12.4558 5.61714 12.4572 5.53035Z" fill="#919191"/>
<path d="M13.6328 8.25701V12.5072C13.6331 12.565 13.622 12.6224 13.6 12.6759C13.578 12.7294 13.5456 12.778 13.5047 12.8189C13.4638 12.8598 13.4152 12.8922 13.3617 12.9142C13.3082 12.9362 13.2508 12.9473 13.193 12.947H8.70482C8.64747 12.9466 8.59075 12.9349 8.53792 12.9126C8.48509 12.8903 8.43718 12.8578 8.39693 12.8169C8.35667 12.7761 8.32487 12.7277 8.30333 12.6746C8.28179 12.6214 8.27094 12.5645 8.2714 12.5072V8.24885C8.27186 8.13404 8.31767 8.02407 8.39885 7.94288C8.48004 7.8617 8.59001 7.81589 8.70482 7.81543H10.0727V7.9986C10.0727 8.12935 10.0735 8.25931 10.0742 8.3888C10.0756 8.64637 10.077 8.90207 10.0727 9.15826C10.0727 9.24985 10.0908 9.32918 10.1824 9.36593C10.6925 9.40863 11.2053 9.40863 11.7154 9.36593C11.807 9.3286 11.8251 9.25626 11.8251 9.1641V7.81718H13.193C13.2508 7.81687 13.3082 7.82804 13.3617 7.85003C13.4152 7.87202 13.4638 7.90441 13.5047 7.94531C13.5456 7.98622 13.578 8.03483 13.6 8.08833C13.622 8.14183 13.6331 8.19917 13.6328 8.25701Z" fill="#919191"/>
<path d="M6.3951 8.26006V12.5102C6.39556 12.5676 6.38471 12.6245 6.36317 12.6776C6.34164 12.7308 6.30983 12.7791 6.26958 12.82C6.22932 12.8608 6.18141 12.8934 6.12858 12.9157C6.07575 12.938 6.01903 12.9497 5.96168 12.9501H1.4706C1.41276 12.9504 1.35542 12.9392 1.30192 12.9172C1.24842 12.8952 1.19981 12.8628 1.1589 12.8219C1.118 12.781 1.08561 12.7324 1.06362 12.6789C1.04162 12.6254 1.03046 12.5681 1.03077 12.5102V8.2519C1.032 8.13637 1.07899 8.02606 1.16145 7.94514C1.2439 7.86421 1.35508 7.8193 1.4706 7.82023H2.84085V9.16189C2.84085 9.25348 2.85252 9.33281 2.94468 9.36956C3.45479 9.41226 3.96758 9.41226 4.47768 9.36956C4.56927 9.33223 4.58735 9.2599 4.58735 9.16773V7.82023H5.96227C6.01962 7.82061 6.07633 7.83229 6.12916 7.85461C6.18199 7.87693 6.2299 7.90944 6.27016 7.95029C6.31041 7.99114 6.34222 8.03953 6.36376 8.09268C6.3853 8.14583 6.39556 8.20271 6.3951 8.26006Z" fill="#919191"/>
</svg>
