<svg width="18" height="16" viewBox="0 0 18 16" fill="none" xmlns="http://www.w3.org/2000/svg">
<path d="M17.0984 13.0641C17.0979 13.601 16.8844 14.1157 16.5047 14.4954C16.1251 14.875 15.6103 15.0885 15.0734 15.0891H2.92344C2.38646 15.0888 1.87154 14.8754 1.49184 14.4957C1.11214 14.116 0.898702 13.601 0.898438 13.0641L0.898438 2.93906C0.898438 2.402 1.11179 1.88693 1.49155 1.50717C1.87131 1.12741 2.38637 0.914063 2.92344 0.914062H15.0734C15.6104 0.914327 16.1253 1.12776 16.505 1.50747C16.8847 1.88717 17.0982 2.40208 17.0984 2.93906V13.0641ZM10.0114 2.93906H2.92344V13.0641H10.0114V2.93906ZM12.7954 2.93906C12.594 2.93906 12.4008 3.01908 12.2584 3.16151C12.116 3.30395 12.0359 3.49713 12.0359 3.69856C12.0359 3.89999 12.116 4.09318 12.2584 4.23561C12.4008 4.37804 12.594 4.45806 12.7954 4.45806H14.3144C14.5159 4.45806 14.7091 4.37804 14.8515 4.23561C14.9939 4.09318 15.0739 3.89999 15.0739 3.69856C15.0739 3.49713 14.9939 3.30395 14.8515 3.16151C14.7091 3.01908 14.5159 2.93906 14.3144 2.93906H12.7954ZM15.0734 6.73906C15.0736 6.63935 15.054 6.5406 15.0159 6.44845C14.9778 6.35631 14.9219 6.27258 14.8514 6.20208C14.7809 6.13157 14.6972 6.07567 14.6051 6.03757C14.5129 5.99947 14.4141 5.97993 14.3144 5.98006H12.7984C12.597 5.98006 12.4038 6.06008 12.2614 6.20251C12.119 6.34495 12.0389 6.53813 12.0389 6.73956C12.0389 6.94099 12.119 7.13418 12.2614 7.27661C12.4038 7.41905 12.597 7.49906 12.7984 7.49906H14.3174C14.4172 7.4988 14.516 7.47883 14.6081 7.44031C14.7001 7.40179 14.7837 7.34547 14.8539 7.27458C14.9241 7.20369 14.9797 7.11962 15.0174 7.02721C15.055 6.9348 15.0741 6.83586 15.0734 6.73606V6.73906ZM12.7984 9.01406C12.597 9.01406 12.4038 9.09408 12.2614 9.23652C12.119 9.37895 12.0389 9.57213 12.0389 9.77356C12.0389 9.975 12.119 10.1682 12.2614 10.3106C12.4038 10.453 12.597 10.5331 12.7984 10.5331H14.3174C14.5189 10.5331 14.7121 10.453 14.8545 10.3106C14.9969 10.1682 15.0769 9.975 15.0769 9.77356C15.0769 9.57213 14.9969 9.37895 14.8545 9.23652C14.7121 9.09408 14.5189 9.01406 14.3174 9.01406H12.7984Z" fill="#919191"/>
</svg>
