<svg xmlns="http://www.w3.org/2000/svg" width="18" height="18" viewBox="0 0 18 18">
  <g id="Group_71320" data-name="Group 71320" transform="translate(10867 17318)">
    <path id="Path_36152" data-name="Path 36152" d="M18,9a3.311,3.311,0,0,1-.96,2.33l-5.71,5.7a2.725,2.725,0,0,1-.25.23,3.251,3.251,0,0,1-.55.36A3.3,3.3,0,0,1,9,18a3.34,3.34,0,0,1-1.54-.38,5.067,5.067,0,0,1-.54-.36,2.725,2.725,0,0,1-.25-.23l-5.7-5.7A3.322,3.322,0,0,1,0,9,3.287,3.287,0,0,1,.97,6.67L6.67.96A3.346,3.346,0,0,1,7.18.54h.01a3.1,3.1,0,0,1,.57-.3A2.877,2.877,0,0,1,8.84,0h.32a2.92,2.92,0,0,1,1.08.24,3.1,3.1,0,0,1,.57.3,2.99,2.99,0,0,1,.52.42l5.71,5.71A3.277,3.277,0,0,1,18,9" transform="translate(-10867 -17318)" fill="#ff6a6a"/>
    <path id="Path_36153" data-name="Path 36153" d="M13.96,10.22a.5.5,0,0,1,.02.12v.36c0,.03-.03.25-.03.25a2.969,2.969,0,0,1-1.19,2.01c-.15.12-.32.23-.48.34l-.2.12a.46.46,0,0,1-.27.09h-.1a.521.521,0,0,1-.41-.21.49.49,0,0,1-.07-.44l.11-.37a1.581,1.581,0,0,0-.04-.98q-.135-.42-.3-.84a3.661,3.661,0,0,1-.17-.67,1.347,1.347,0,0,0-.07.5.478.478,0,0,1-.27.47.465.465,0,0,1-.23.06.51.51,0,0,1-.31-.11,3.334,3.334,0,0,1-1.14-1.6A1.665,1.665,0,0,1,8.73,9c-.02-.11-.04-.22-.05-.33A1.262,1.262,0,0,0,8.52,9a1.828,1.828,0,0,0-.15.59,3.415,3.415,0,0,0,.05,1.04.5.5,0,0,1-.35.56.4.4,0,0,1-.15.03.5.5,0,0,1-.45-.29,2.694,2.694,0,0,0-.16-.29,2.888,2.888,0,0,1-.35.87l-.11.16a2.768,2.768,0,0,0-.34.66c-.03.11-.06.22-.09.34l-.04.18a.518.518,0,0,1-.34.35.389.389,0,0,1-.15.02.516.516,0,0,1-.33-.12l-.13-.12a3.269,3.269,0,0,1-.35-.3,3.468,3.468,0,0,1-1-1.83A3.561,3.561,0,0,1,4.2,9.08c.01-.03.02-.05.03-.08H1a2.335,2.335,0,0,1,.67-1.63l5.71-5.7a2.294,2.294,0,0,1,3.24,0l5.71,5.7A2.308,2.308,0,0,1,17,9H13.65a3.486,3.486,0,0,1,.31,1.22" transform="translate(-10867 -17318)" fill="#fff"/>
    <path id="Path_36154" data-name="Path 36154" d="M11.7,13.005c.037-.122.073-.244.11-.365a2.08,2.08,0,0,0-.041-1.289c-.1-.287-.2-.571-.3-.856a2.346,2.346,0,0,1-.062-1.618c.012-.035.019-.071.028-.107V8.76a1.684,1.684,0,0,0-1.176,1.769,2.851,2.851,0,0,1-.976-1.362A2.516,2.516,0,0,1,9.333,7.5c-.036.016-.059.024-.08.035a2.87,2.87,0,0,0-.832.645A2.505,2.505,0,0,0,7.87,9.531a4.035,4.035,0,0,0,.053,1.186A3.07,3.07,0,0,0,6.737,9.4c.032.145.062.268.085.393a1.984,1.984,0,0,1-.293,1.456,4.047,4.047,0,0,0-.5.941c-.051.17-.089.343-.138.536-.154-.133-.315-.259-.46-.4a2.912,2.912,0,0,1-.861-1.565,3.041,3.041,0,0,1,.106-1.524c.135-.414.309-.816.481-1.216A3.471,3.471,0,0,0,5.49,6.595a4.549,4.549,0,0,0-.211-1.157c-.01-.032-.017-.064-.03-.114.105.01.2.014.3.027a2.88,2.88,0,0,1,1.505.6,1.733,1.733,0,0,1,.56.833c.011.034.023.068.038.113a2.981,2.981,0,0,0,.619-.672A3.441,3.441,0,0,0,8.789,4a4.892,4.892,0,0,0-.263-1.27c0-.011-.006-.024-.015-.064.225.137.436.253.634.387a3.287,3.287,0,0,1,1.388,2.166,5.469,5.469,0,0,1,.008,2.1.217.217,0,0,0,0,.072,4.178,4.178,0,0,1,.953-1.36,3.65,3.65,0,0,1,.779-.593c-.042.169-.088.326-.121.485a2.93,2.93,0,0,0,.375,2.124c.178.305.379.6.546.906a3.342,3.342,0,0,1,.391,1.315.531.531,0,0,0,.017.077V10.7c-.008.059-.017.119-.025.178a2.506,2.506,0,0,1-1,1.687c-.206.16-.433.292-.65.437Z" transform="translate(-10867 -17318)" fill="#919191"/>
  </g>
</svg>
