<svg width="15" height="14" viewBox="0 0 15 14" fill="none" xmlns="http://www.w3.org/2000/svg">
<g clip-path="url(#clip0_15409_34750)">
<path d="M9.5916 10.2941C9.59169 10.6194 9.50281 10.939 9.33389 11.2207C9.16498 11.5024 8.92198 11.7364 8.62934 11.8991C8.33669 12.0618 8.0047 12.1475 7.66675 12.1475C7.32879 12.1476 6.99678 12.062 6.70408 11.8994C6.41138 11.7368 6.16831 11.5029 5.99931 11.2212C5.8303 10.9395 5.74132 10.62 5.7413 10.2947C5.74127 9.96941 5.83022 9.64986 5.99919 9.36816C6.16816 9.08645 6.4112 8.85252 6.70387 8.68988V5.66176C6.70387 5.41605 6.80529 5.1804 6.98581 5.00665C7.16632 4.8329 7.41116 4.73529 7.66645 4.73529C7.92174 4.73529 8.16658 4.8329 8.34709 5.00665C8.52761 5.1804 8.62903 5.41605 8.62903 5.66176V8.68988C8.92168 8.85241 9.16471 9.08623 9.33368 9.36784C9.50265 9.64945 9.59161 9.96892 9.5916 10.2941ZM10.5542 7.84329C11.0442 8.3782 11.3634 9.03781 11.4736 9.74299C11.5838 10.4482 11.4802 11.169 11.1754 11.8189C10.8705 12.4689 10.3773 13.0204 9.75491 13.4073C9.13251 13.7941 8.40736 13.9999 7.66645 14H7.63907C6.90049 13.9949 6.17903 13.7854 5.56071 13.3966C4.94239 13.0078 4.45332 12.456 4.15182 11.807C3.85031 11.158 3.74911 10.4393 3.86026 9.7365C3.97141 9.0337 4.29024 8.37651 4.77872 7.84329V2.77941C4.77872 2.04227 5.08296 1.33531 5.62452 0.814071C6.16607 0.29283 6.90058 0 7.66645 0C8.43232 0 9.16683 0.29283 9.70838 0.814071C10.2499 1.33531 10.5542 2.04227 10.5542 2.77941V7.84329ZM10.0733 10.2941C10.0581 9.92691 9.96476 9.56662 9.7992 9.23546C9.63365 8.90431 9.39934 8.60932 9.11074 8.36871V2.77941C9.10157 2.4167 8.94542 2.07181 8.67564 1.81839C8.40587 1.56498 8.04384 1.42313 7.66688 1.42313C7.28991 1.42313 6.92789 1.56498 6.65811 1.81839C6.38833 2.07181 6.23219 2.4167 6.22301 2.77941V8.36871C5.93618 8.6081 5.70293 8.90115 5.53746 9.23002C5.37198 9.5589 5.27773 9.91673 5.26043 10.2818C5.25972 10.8945 5.51023 11.4827 5.95754 11.9186C6.40485 12.3545 7.01281 12.6029 7.64934 12.6099H7.66645C8.30444 12.6092 8.91611 12.3651 9.36731 11.9309C9.81852 11.4968 10.0724 10.9082 10.0733 10.2941Z" fill="#919191"/>
</g>
<defs>
<clipPath id="clip0_15409_34750">
<rect width="14" height="14" fill="white" transform="translate(0.666504)"/>
</clipPath>
</defs>
</svg>
