<svg width="20" height="20" viewBox="0 0 20 20" fill="none" xmlns="http://www.w3.org/2000/svg">
<path fill-rule="evenodd" clip-rule="evenodd" d="M4.72208 2.10104C6.28435 1.05717 8.12108 0.5 10 0.5C12.5195 0.500295 14.9357 1.50128 16.7172 3.28281C18.4987 5.06434 19.4997 7.48053 19.5 10C19.5 11.8789 18.9428 13.7156 17.899 15.2779C16.8551 16.8402 15.3714 18.0578 13.6355 18.7769C11.8996 19.4959 9.98946 19.684 8.14664 19.3175C6.30382 18.9509 4.61109 18.0461 3.28249 16.7175C1.95389 15.3889 1.0491 13.6962 0.682545 11.8534C0.315985 10.0105 0.504114 8.10041 1.22315 6.36451C1.94218 4.62861 3.15982 3.14491 4.72208 2.10104ZM13.8638 8.88949V5.98533C13.8607 5.85386 13.8057 5.72899 13.711 5.63805C13.6163 5.54712 13.4896 5.49752 13.3585 5.50012H11.0683V7.01484C11.0738 7.06047 11.0633 7.10657 11.0387 7.14533C11.0141 7.18409 10.9768 7.2131 10.9333 7.22745C10.3428 7.26636 9.75036 7.26636 9.15984 7.22745C9.04682 7.18554 9.02791 7.09336 9.02791 6.98705C9.03084 6.68567 9.02987 6.38429 9.02889 6.0816C9.0284 5.92977 9.02791 5.77761 9.02791 5.62495V5.50012H6.53457C6.46915 5.49866 6.40409 5.51019 6.34313 5.53403C6.28216 5.55788 6.2265 5.59358 6.17934 5.63908C6.13218 5.68459 6.09445 5.73899 6.06833 5.79917C6.0422 5.85935 6.02819 5.92411 6.02711 5.98974V8.88949C6.02819 8.95512 6.0422 9.01989 6.06833 9.08006C6.09445 9.14024 6.13218 9.19465 6.17934 9.24015C6.2265 9.28565 6.28216 9.32135 6.34313 9.3452C6.40409 9.36905 6.46915 9.38057 6.53457 9.37911H13.3563C13.4217 9.38057 13.4868 9.36905 13.5477 9.3452C13.6087 9.32135 13.6644 9.28565 13.7115 9.24015C13.7587 9.19465 13.7964 9.14024 13.8225 9.08006C13.8487 9.01989 13.8627 8.95512 13.8638 8.88949ZM14.75 10.9513V14.1651C14.7502 14.2088 14.7418 14.2522 14.7252 14.2927C14.7087 14.3331 14.6842 14.3699 14.6534 14.4008C14.6226 14.4317 14.5859 14.4562 14.5456 14.4729C14.5053 14.4895 14.462 14.4979 14.4184 14.4977H11.035C10.9918 14.4974 10.9491 14.4886 10.9092 14.4717C10.8694 14.4548 10.8333 14.4302 10.8029 14.3993C10.7726 14.3685 10.7486 14.3319 10.7324 14.2917C10.7162 14.2515 10.708 14.2085 10.7083 14.1651V10.9451C10.7087 10.8583 10.7432 10.7751 10.8044 10.7138C10.8656 10.6524 10.9485 10.6177 11.035 10.6174H12.0662V10.7559C12.0662 10.8548 12.0668 10.953 12.0673 11.0509C12.0684 11.2457 12.0695 11.4391 12.0662 11.6328C12.0662 11.702 12.0799 11.762 12.1489 11.7898C12.5335 11.8221 12.92 11.8221 13.3046 11.7898C13.3736 11.7616 13.3872 11.7069 13.3872 11.6372V10.6187H14.4184C14.462 10.6185 14.5053 10.6269 14.5456 10.6435C14.5859 10.6602 14.6226 10.6847 14.6534 10.7156C14.6842 10.7465 14.7087 10.7833 14.7252 10.8237C14.7418 10.8642 14.7502 10.9076 14.75 10.9513ZM9.29388 14.1674V10.9536C9.29423 10.9102 9.28649 10.8672 9.27025 10.827C9.25402 10.7868 9.23004 10.7503 9.19969 10.7194C9.16935 10.6885 9.13323 10.6639 9.0934 10.647C9.05358 10.6301 9.01082 10.6213 8.96759 10.621H7.93112V11.6399C7.93112 11.7096 7.91749 11.7643 7.84845 11.7926C7.4639 11.8248 7.07734 11.8248 6.6928 11.7926C6.62332 11.7648 6.61453 11.7048 6.61453 11.6355V10.621H5.58157C5.49448 10.6203 5.41067 10.6543 5.34852 10.7155C5.28636 10.7767 5.25093 10.8601 5.25 10.9474V14.1674C5.24977 14.2112 5.25819 14.2545 5.27477 14.295C5.29135 14.3354 5.31576 14.3722 5.3466 14.4031C5.37743 14.434 5.41408 14.4585 5.45441 14.4752C5.49474 14.4918 5.53796 14.5002 5.58157 14.5H8.96715C9.01038 14.4997 9.05314 14.4909 9.09296 14.474C9.13279 14.4571 9.16891 14.4325 9.19925 14.4016C9.2296 14.3708 9.25358 14.3342 9.26981 14.294C9.28605 14.2538 9.29423 14.2108 9.29388 14.1674Z" fill="black"/>
</svg>
