<svg width="20" height="20" viewBox="0 0 20 20" fill="none" xmlns="http://www.w3.org/2000/svg">
<path fill-rule="evenodd" clip-rule="evenodd" d="M4.72208 2.10104C6.28435 1.05717 8.12108 0.5 10 0.5C12.5195 0.500295 14.9357 1.50128 16.7172 3.28281C18.4987 5.06434 19.4997 7.48053 19.5 10C19.5 11.8789 18.9428 13.7156 17.899 15.2779C16.8551 16.8402 15.3714 18.0578 13.6355 18.7769C11.8996 19.4959 9.98946 19.684 8.14664 19.3175C6.30382 18.9509 4.61109 18.0461 3.28249 16.7175C1.95389 15.3889 1.0491 13.6962 0.682545 11.8534C0.315985 10.0105 0.504114 8.10041 1.22315 6.36451C1.94218 4.62861 3.15982 3.14491 4.72208 2.10104ZM12.2172 13.5314V15.0091L12.2158 15.0078C12.216 15.1037 12.244 15.1975 12.2967 15.2777C12.3494 15.3579 12.4242 15.421 12.5122 15.4592C12.6002 15.4974 12.6974 15.5091 12.792 15.4929C12.8865 15.4766 12.9744 15.433 13.0446 15.3675L15.3425 13.2353C15.4379 13.1467 15.4944 13.0238 15.4996 12.8936C15.5048 12.7634 15.4584 12.6366 15.3703 12.5406C15.3648 12.5362 15.3601 12.5312 15.3555 12.5265C15.3511 12.5218 15.3469 12.5175 15.3425 12.5141L13.0446 10.3832C12.9744 10.3179 12.8864 10.2744 12.792 10.2582C12.6975 10.242 12.6007 10.2538 12.5129 10.292C12.425 10.3302 12.3499 10.3932 12.2974 10.4734C12.2448 10.5535 12.2172 10.6473 12.2172 10.7431V12.2193H5.15636C4.98496 12.2178 4.81981 12.2842 4.69691 12.4037C4.574 12.5232 4.50339 12.6864 4.5 12.8578C4.5023 13.0328 4.57143 13.2003 4.69359 13.3256C4.81575 13.451 4.98148 13.5246 5.15636 13.5314H12.2172ZM12.2172 7.78024V9.25645H12.2158C12.216 9.35242 12.244 9.44632 12.2967 9.52652C12.3494 9.60672 12.4242 9.66985 12.5122 9.70806C12.6002 9.74628 12.6974 9.75799 12.792 9.74172C12.8865 9.72545 12.9744 9.68182 13.0446 9.61638L15.3425 7.48413C15.438 7.39584 15.4944 7.27327 15.4996 7.14326C15.5048 7.01326 15.4585 6.88646 15.3703 6.79079C15.3605 6.78134 15.3512 6.7714 15.3425 6.76095L13.0446 4.63202C12.9743 4.5666 12.8866 4.52313 12.792 4.50701C12.6973 4.49089 12.6001 4.5027 12.5122 4.54116C12.4242 4.57963 12.3491 4.6431 12.2967 4.72353C12.2443 4.80397 12.2168 4.89793 12.2172 4.99394V6.46816H5.15636C4.98506 6.46705 4.8204 6.53342 4.69757 6.65285C4.57474 6.77228 4.50374 6.93532 4.5 7.10663C4.5023 7.28166 4.57143 7.44914 4.69359 7.57449C4.81575 7.69984 4.98148 7.77347 5.15636 7.78024H12.2172Z" fill="black"/>
</svg>
