<svg width="20" height="20" viewBox="0 0 20 20" fill="none" xmlns="http://www.w3.org/2000/svg">
<path fill-rule="evenodd" clip-rule="evenodd" d="M4.72208 2.10104C6.28435 1.05717 8.12108 0.5 10 0.5C12.5195 0.500295 14.9357 1.50128 16.7172 3.28281C18.4987 5.06434 19.4997 7.48053 19.5 10C19.5 11.8789 18.9428 13.7156 17.899 15.2779C16.8551 16.8402 15.3714 18.0578 13.6355 18.7769C11.8996 19.4959 9.98946 19.684 8.14664 19.3175C6.30382 18.9509 4.61109 18.0461 3.28249 16.7175C1.95389 15.3889 1.0491 13.6962 0.682545 11.8534C0.315985 10.0105 0.504114 8.10041 1.22315 6.36451C1.94218 4.62861 3.15982 3.14491 4.72208 2.10104ZM12.2145 13.5312V15.0105C12.2154 15.1406 12.2675 15.2649 12.3597 15.3566C12.4519 15.4483 12.5764 15.4998 12.7064 15.5C12.8296 15.4994 12.9484 15.4536 13.0399 15.371L15.3411 13.2393C15.4367 13.1498 15.4933 13.0262 15.4983 12.8954C15.5032 12.7646 15.4561 12.6371 15.3677 12.5407C15.3656 12.5379 15.3624 12.5352 15.3588 12.5321C15.3529 12.5271 15.3458 12.5211 15.3411 12.5122L13.0399 10.3871C12.9933 10.3423 12.9384 10.3073 12.8781 10.2841C12.8179 10.2609 12.7531 10.25 12.6885 10.252C12.624 10.2539 12.561 10.2687 12.5022 10.2956C12.4435 10.3224 12.3902 10.3606 12.3464 10.4081C12.2619 10.5008 12.2162 10.6221 12.2178 10.7476V12.2262H11.3188L7.11614 6.7271C7.05346 6.64449 6.97241 6.57746 6.87945 6.53151C6.7865 6.48556 6.68414 6.46186 6.58045 6.46223H5.15503C4.98128 6.46223 4.81446 6.5313 4.6916 6.65417C4.56874 6.77703 4.5 6.94368 4.5 7.11744C4.5 7.2912 4.56874 7.45785 4.6916 7.58072C4.81446 7.70358 4.98128 7.77266 5.15503 7.77266H6.25028L10.4596 13.2718C10.5226 13.352 10.6027 13.417 10.6943 13.4619C10.7858 13.5068 10.886 13.5305 10.988 13.5312H12.2145ZM4.6916 13.3411C4.81415 13.4636 4.9804 13.5325 5.1537 13.5325H6.58442C6.68714 13.5321 6.78792 13.5084 6.88012 13.4631C6.97231 13.4178 7.05297 13.3521 7.11614 13.2711L7.95946 12.1705L7.12542 11.0809L6.25028 12.2256H5.1537C4.9804 12.2256 4.81415 12.2945 4.6916 12.417C4.56906 12.5396 4.5 12.7058 4.5 12.8791C4.5 13.0524 4.56906 13.2185 4.6916 13.3411ZM12.2145 7.78012V9.25945L12.2158 9.26011C12.2171 9.38983 12.2695 9.51376 12.3617 9.60504C12.4538 9.69633 12.578 9.7476 12.7078 9.74759C12.831 9.74729 12.9499 9.70138 13.0412 9.61864L15.3425 7.48674C15.4378 7.39725 15.4943 7.27395 15.4996 7.1433C15.5049 7.01265 15.4587 6.88506 15.371 6.78809C15.3687 6.7858 15.3658 6.78356 15.3627 6.78116C15.3557 6.77575 15.3476 6.76946 15.3425 6.75959L13.0412 4.63465C12.9947 4.59012 12.9396 4.55529 12.8795 4.53221C12.8193 4.50913 12.7549 4.49827 12.6905 4.50022C12.6261 4.50218 12.5628 4.51696 12.5042 4.54365C12.4456 4.57034 12.3928 4.60842 12.3491 4.6557C12.2648 4.74845 12.2192 4.86982 12.2211 4.99516V6.46969H10.974C10.8713 6.4702 10.7696 6.49438 10.6777 6.5403C10.5858 6.58621 10.5058 6.65272 10.4437 6.73456L9.60233 7.83498L10.4317 8.92132L11.3082 7.78012H12.2145Z" fill="black"/>
</svg>
