<svg height="20" viewBox="0 0 50 20" width="50" xmlns="http://www.w3.org/2000/svg">
  <g transform="translate(-597 -258)">
    <path d="M287,410.5v20h-1.5A2.5,2.5,0,0,1,283,428v-5a2.5,2.5,0,0,0,0-5v-5a2.5,2.5,0,0,1,2.5-2.5Z"
          fill="#5673aa" opacity="0.7" transform="translate(314 -152.5)"/>
    <path d="M283,410.5v20h1.5A2.5,2.5,0,0,0,287,428v-5a2.5,2.5,0,0,1,0-5v-5a2.5,2.5,0,0,0-2.5-2.5Z"
          fill="#5673aa" opacity="0.7" transform="translate(360 -152.5)"/>
    <rect fill="#5673aa" height="20" opacity="0.7" transform="translate(601 258)" width="42"/>
  </g>
</svg>
