<svg height="18" viewBox="0 0 18 18" width="18" xmlns="http://www.w3.org/2000/svg">
  <g data-name="Group 9071" id="Group_9071" transform="translate(-270.516 -52.745)">
    <path
      d="M270.516,64.8v1.607a.482.482,0,0,0,.483.482h3.375v3.375a.482.482,0,0,0,.482.482h1.607a.482.482,0,0,0,.482-.482V65.276a.962.962,0,0,0-.964-.96H271A.483.483,0,0,0,270.516,64.8Z"
      data-name="Path 8052"
      fill="#d2d2d1"
      id="Path_8052"/>
    <path
      d="M282.088,53.227v4.987a.962.962,0,0,0,.964.96h4.982a.482.482,0,0,0,.482-.483V57.084a.482.482,0,0,0-.482-.482h-3.375V53.227a.482.482,0,0,0-.482-.482H282.57A.482.482,0,0,0,282.088,53.227Z"
      data-name="Path 8053"
      fill="#d2d2d1"
      id="Path_8053"/>
    <path
      d="M270.516,57.084v1.607a.483.483,0,0,0,.483.483h4.987a.962.962,0,0,0,.959-.965V53.227a.482.482,0,0,0-.482-.482h-1.607a.482.482,0,0,0-.482.482V56.6H271A.482.482,0,0,0,270.516,57.084Z"
      data-name="Path 8054"
      fill="#d2d2d1"
      id="Path_8054"/>
    <path
      d="M283.047,64.316a.963.963,0,0,0-.959.965v4.982a.482.482,0,0,0,.482.482h1.607a.482.482,0,0,0,.482-.482V66.888h3.375a.482.482,0,0,0,.482-.482V64.8a.482.482,0,0,0-.482-.483h-4.987Z"
      data-name="Path 8055"
      fill="#d2d2d1"
      id="Path_8055"/>
  </g>
</svg>
