<svg height="18" viewBox="0 0 18 18" width="18" xmlns="http://www.w3.org/2000/svg">
  <g data-name="Group 8875" id="Group_8875" transform="translate(-53.677 -197.405)">
    <g data-name="Group 8869" id="Group_8869">
      <path
        d="M55.177,197.4h5a1.5,1.5,0,0,1,1.5,1.5h0a1.5,1.5,0,0,1-1.5,1.5h-5a1.5,1.5,0,0,1-1.5-1.5h0A1.5,1.5,0,0,1,55.177,197.4Z"
        data-name="Rectangle 5063-2"
        fill="#919191"
        id="Rectangle_5063-2"/>
      <path
        d="M55.177,202.4h5a1.5,1.5,0,0,1,1.5,1.5h0a1.5,1.5,0,0,1-1.5,1.5h-5a1.5,1.5,0,0,1-1.5-1.5h0A1.5,1.5,0,0,1,55.177,202.4Z"
        data-name="Rectangle 5051-2"
        fill="#919191"
        id="Rectangle_5051-2"/>
      <path
        d="M55.177,207.4h5a1.5,1.5,0,0,1,1.5,1.5h0a1.5,1.5,0,0,1-1.5,1.5h-5a1.5,1.5,0,0,1-1.5-1.5h0A1.5,1.5,0,0,1,55.177,207.4Z"
        data-name="Rectangle 5052-2"
        fill="#919191"
        id="Rectangle_5052-2"/>
      <path
        d="M55.177,212.4h5a1.5,1.5,0,0,1,1.5,1.5h0a1.5,1.5,0,0,1-1.5,1.5h-5a1.5,1.5,0,0,1-1.5-1.5h0A1.5,1.5,0,0,1,55.177,212.4Z"
        data-name="Rectangle 5075-2"
        fill="#919191"
        id="Rectangle_5075-2"/>
    </g>
    <g data-name="Group 8870" id="Group_8870">
      <path
        d="M65.177,197.4h5a1.5,1.5,0,0,1,1.5,1.5h0a1.5,1.5,0,0,1-1.5,1.5h-5a1.5,1.5,0,0,1-1.5-1.5h0A1.5,1.5,0,0,1,65.177,197.4Z"
        data-name="Rectangle 5063-3"
        fill="#919191"
        id="Rectangle_5063-3"/>
      <path
        d="M65.177,202.4h5a1.5,1.5,0,0,1,1.5,1.5h0a1.5,1.5,0,0,1-1.5,1.5h-5a1.5,1.5,0,0,1-1.5-1.5h0A1.5,1.5,0,0,1,65.177,202.4Z"
        data-name="Rectangle 5051-3"
        fill="#919191"
        id="Rectangle_5051-3"/>
      <path
        d="M65.177,207.4h5a1.5,1.5,0,0,1,1.5,1.5h0a1.5,1.5,0,0,1-1.5,1.5h-5a1.5,1.5,0,0,1-1.5-1.5h0A1.5,1.5,0,0,1,65.177,207.4Z"
        data-name="Rectangle 5052-3"
        fill="#919191"
        id="Rectangle_5052-3"/>
      <path
        d="M65.177,212.4h5a1.5,1.5,0,0,1,1.5,1.5h0a1.5,1.5,0,0,1-1.5,1.5h-5a1.5,1.5,0,0,1-1.5-1.5h0A1.5,1.5,0,0,1,65.177,212.4Z"
        data-name="Rectangle 5075-3"
        fill="#919191"
        id="Rectangle_5075-3"/>
    </g>
  </g>
</svg>
