<svg data-name="Group 15286" height="16" id="Group_15286" viewBox="0 0 16 16" width="16"
     xmlns="http://www.w3.org/2000/svg">
  <rect data-name="Rectangle 5807" fill="#fff" height="16" id="Rectangle_5807" opacity="0" rx="3" width="16"/>
  <path
    d="M309.015,399.355l-.159.159a.94.94,0,0,1-1.327,0l-3.239-3.239-3.16,3.159a1.051,1.051,0,1,1-1.486-1.486l3.159-3.159-3.239-3.239a.938.938,0,0,1,0-1.327l.159-.159h0a.939.939,0,0,1,1.327,0l3.239,3.239,3.159-3.159a1.051,1.051,0,1,1,1.486,1.486l-3.16,3.159,3.239,3.239A.938.938,0,0,1,309.015,399.355Z"
    data-name="Path 7153"
    fill="#fff"
    id="Path_7153" transform="translate(-296.29 -386.789)"/>
</svg>
