<svg data-name="Group 15292" height="16" id="Group_15292" viewBox="0 0 16 16" width="16"
     xmlns="http://www.w3.org/2000/svg">
  <rect data-name="Rectangle 5806" fill="#fff" height="16" id="Rectangle_5806" opacity="0" rx="3" width="16"/>
  <path
    d="M636.77,385.214l-7.386,7.841a.957.957,0,0,1-.572.283.852.852,0,0,1-.97-.2l-2.511-2.666a.986.986,0,0,1,0-1.334l.15-.159a.852.852,0,0,1,1.256,0l1.837,1.951,6.789-7.207h0a.953.953,0,0,1,1.406,0,.018.018,0,0,1,.02.006A1.1,1.1,0,0,1,636.77,385.214Z"
    data-name="Path 7164"
    fill="#fff"
    id="Path_7164" transform="translate(-623.071 -380.412)"/>
</svg>
