<svg data-name="Component 680 – 1" height="22" id="Component_680_1" viewBox="0 0 22 22" width="22"
     xmlns="http://www.w3.org/2000/svg">
  <g data-name="Group 3590" id="Group_3590" opacity="0.7" transform="translate(-417.447 -475.851)">
    <g data-name="Subtraction 4" id="Subtraction_4">
      <path
        d="M420.449,497.351a.5.5,0,0,1-.5-.5v-4.537a3.66,3.66,0,0,0,.5.035,3.573,3.573,0,0,0,.5-.035v4.537A.5.5,0,0,1,420.449,497.351Zm-.5-11.963,0-8.537a.5.5,0,1,1,1,0v8.537a3.573,3.573,0,0,0-.5-.035A3.666,3.666,0,0,0,419.945,485.388Z"
        data-name="Path 1927"
        fill="#fff"
        id="Path_1927"/>
      <path
        d="M420.449,497.851a1,1,0,0,1-1-1v-5.172a3.02,3.02,0,0,0,2,0v5.172A1,1,0,0,1,420.449,497.851Zm-1-11.826v0l0-9.172a1,1,0,1,1,2,0v9.17a3.028,3.028,0,0,0-1-.168,2.987,2.987,0,0,0-1,.17Z"
        data-name="Path 1928"
        fill="#606060"
        id="Path_1928"/>
    </g>
    <g data-name="Subtraction 5" id="Subtraction_5">
      <path
        d="M428.449,497.351a.5.5,0,0,1-.5-.5V484.314a3.616,3.616,0,0,0,.5.035,3.551,3.551,0,0,0,.5-.035v12.537A.5.5,0,0,1,428.449,497.351Zm-.5-19.963v-.537a.5.5,0,1,1,1,0v.537a3.573,3.573,0,0,0-.5-.035A3.66,3.66,0,0,0,427.947,477.388Z"
        data-name="Path 1929"
        fill="#fff"
        id="Path_1929"/>
      <path
        d="M428.449,497.851a1,1,0,0,1-1-1V483.679a3.02,3.02,0,0,0,2,0v13.172A1,1,0,0,1,428.449,497.851Zm-1-19.826v0l0-1.172a1,1,0,1,1,2,0v1.17a3.037,3.037,0,0,0-2,0Z"
        data-name="Path 1930"
        fill="#606060"
        id="Path_1930"/>
    </g>
    <g data-name="Subtraction 6" id="Subtraction_6">
      <path
        d="M436.449,497.351a.5.5,0,0,1-.5-.5v-2.535a3.665,3.665,0,0,0,.5.035,3.556,3.556,0,0,0,.5-.035v2.535A.5.5,0,0,1,436.449,497.351Zm.5-9.967a3.56,3.56,0,0,0-1,0l0-10.533a.5.5,0,1,1,1,0Z"
        data-name="Path 1931"
        fill="#fff"
        id="Path_1931"/>
      <path
        d="M436.449,497.851a1,1,0,0,1-1-1v-3.17a3.03,3.03,0,0,0,1,.17,2.974,2.974,0,0,0,1-.17v3.17A1,1,0,0,1,436.449,497.851Zm1-9.83,0,0a3.008,3.008,0,0,0-1.994,0l0-11.168a1,1,0,1,1,2,0v11.17Z"
        data-name="Path 1932"
        fill="#606060"
        id="Path_1932"/>
    </g>
    <g data-name="Path 1926" id="Path_1926">
      <path d="M436.447,487.851a3,3,0,1,1-3,3A3,3,0,0,1,436.447,487.851Z" data-name="Path 1933" fill="none"
            id="Path_1933"/>
      <path d="M436.447,488.851a2,2,0,1,0,2,2,2,2,0,0,0-2-2m0-1a3,3,0,1,1-3,3A3,3,0,0,1,436.447,487.851Z"
            data-name="Path 1934"
            fill="#606060"
            id="Path_1934"/>
    </g>
    <g data-name="Path 1925" id="Path_1925">
      <path d="M428.447,477.851a3,3,0,1,1-3,3A3,3,0,0,1,428.447,477.851Z" data-name="Path 1935" fill="none"
            id="Path_1935"/>
      <path d="M428.447,478.851a2,2,0,1,0,2,2,2,2,0,0,0-2-2m0-1a3,3,0,1,1-3,3A3,3,0,0,1,428.447,477.851Z"
            data-name="Path 1936"
            fill="#606060"
            id="Path_1936"/>
    </g>
    <g data-name="Path 1924" id="Path_1924">
      <path d="M420.447,485.851a3,3,0,1,1-3,3A3,3,0,0,1,420.447,485.851Z" data-name="Path 1937" fill="none"
            id="Path_1937"/>
      <path d="M420.447,486.851a2,2,0,1,0,2,2,2,2,0,0,0-2-2m0-1a3,3,0,1,1-3,3A3,3,0,0,1,420.447,485.851Z"
            data-name="Path 1938"
            fill="#606060"
            id="Path_1938"/>
    </g>
  </g>
</svg>
