<svg height="18" viewBox="0 0 18 18" width="18" xmlns="http://www.w3.org/2000/svg">
  <g data-name="Group 34341" id="Group_34341" transform="translate(-1519 -262)">
    <path d="M2,0H16a2,2,0,0,1,0,4H2A2,2,0,0,1,2,0Z" data-name="Path 12736" fill="#dadada"
          id="Path_12736" transform="translate(1519 262)"/>
    <path d="M2,0H16a2,2,0,0,1,0,4H2A2,2,0,0,1,2,0Z" data-name="Path 12737" fill="#dadada"
          id="Path_12737" transform="translate(1519 269)"/>
    <path d="M2,0H16a2,2,0,0,1,0,4H2A2,2,0,0,1,2,0Z" data-name="Path 12738" fill="#dadada"
          id="Path_12738" transform="translate(1519 276)"/>
  </g>
</svg>
