<svg data-name="Group 3157" height="24" id="Group_3157" viewBox="0 0 20 24" width="20"
     xmlns="http://www.w3.org/2000/svg">
  <g data-name="Group 3156" id="Group_3156">
    <path class="path-element"
          d="M5.418,15.992A11.009,11.009,0,0,0,0,21.41V23a1,1,0,0,0,1,1H19a1,1,0,0,0,1-1V21.41A11,11,0,0,0,5.418,15.992Z"
          data-name="Path 1788"
          fill="#d8d8d8"
          id="Path_1788"/>
    <path class="path-element" d="M9.832,4.216a5,5,0,1,1-5,5A5,5,0,0,1,9.832,4.216Z" data-name="Path 1589"
          fill="#d8d8d8" id="Path_1589"/>
  </g>
  <path class="path-background"
        d="M19,0H1A1,1,0,0,0,0,1V21.41a11,11,0,0,1,20,0V1A1,1,0,0,0,19,0ZM9.832,14.216a5,5,0,1,1,5-5A5,5,0,0,1,9.832,14.216Z"
        data-name="Path 1789"
        fill="#606060"
        id="Path_1789"/>
</svg>
