<svg height="17.998" viewBox="0 0 18.037 17.998" width="18.037" xmlns="http://www.w3.org/2000/svg">
  <g data-name="Group 9084" id="Group_9084" transform="translate(-305.52 -52.746)">
    <path
      d="M323.556,61.738a9,9,0,0,0-16.02-5.615l-.008-.009-1.5-1.495a.3.3,0,0,0-.512.212v4.426a.3.3,0,0,0,.3.3h4.426a.3.3,0,0,0,.212-.512l-1.515-1.515-.009-.009a.844.844,0,0,0,.121-.1,7,7,0,0,1,12.5,4.327v0a6.99,6.99,0,0,1-.122,1.3,1,1,0,0,0,.8,1.169.935.935,0,0,0,.188.018,1,1,0,0,0,.981-.814,9.054,9.054,0,0,0,.157-1.68Z"
      data-name="Path 8092"
      fill="#aaa"
      id="Path_8092"/>
    <path
      d="M320.39,65.616a6.965,6.965,0,0,1-1.96,1.959,1,1,0,0,0,1.11,1.665,8.99,8.99,0,0,0,2.514-2.516,1,1,0,1,0-1.664-1.108Z"
      data-name="Path 8093"
      fill="#aaa"
      id="Path_8093"/>
    <path d="M315.867,68.622a7.1,7.1,0,0,1-1.31.122,1,1,0,0,0,0,2,9.112,9.112,0,0,0,1.681-.156,1,1,0,0,0-.371-1.966Z"
          data-name="Path 8094"
          fill="#aaa"
          id="Path_8094"/>
  </g>
</svg>
