<svg height="16" viewBox="0 0 18 16" width="18" xmlns="http://www.w3.org/2000/svg">
  <g data-name="Group 12030" id="Group_12030" transform="translate(-1639 -181)">
    <path
      d="M963.974,512.676H950.584a2.274,2.274,0,0,0-2.305,2.237v8.5a2.274,2.274,0,0,0,2.305,2.237h.82l1.574,2.645a.792.792,0,0,0,1.351,0l1.574-2.645h8.07a2.275,2.275,0,0,0,2.305-2.237v-8.5a2.274,2.274,0,0,0-2.305-2.237"
      data-name="Path 10563"
      fill="#919191"
      id="Path_10563" transform="translate(690.721 -331.676)"/>
    <g data-name="Group 12028" id="Group_12028" transform="translate(6 30)">
      <g data-name="Group 12028" id="Group_12028-2" transform="translate(-157 -1)">
        <circle cx="1.5" cy="1.5" data-name="Ellipse 2751" fill="#eee" id="Ellipse_2751" r="1.5"
                transform="translate(1793 157)"/>
        <path d="M1.5,0A1.5,1.5,0,1,1,0,1.5,1.5,1.5,0,0,1,1.5,0Z" data-name="Path 10564" fill="#eee"
              id="Path_10564" transform="translate(1797.5 157)"/>
        <circle cx="1.5" cy="1.5" data-name="Ellipse 2753" fill="#eee" id="Ellipse_2753" r="1.5"
                transform="translate(1802 157)"/>
      </g>
    </g>
  </g>
</svg>
