<svg height="18" viewBox="0 0 15.755 18" width="15.755" xmlns="http://www.w3.org/2000/svg">
  <g id="trash" opacity="0.7" transform="translate(0 0)">
    <path d="M32.746,108.361,32,96H45.5l-.746,12.361a1.652,1.652,0,0,1-1.685,1.5H34.43a1.652,1.652,0,0,1-1.685-1.5Z"
          data-name="Path 7317"
          fill="#ff5d5d"
          id="Path_7317" transform="translate(-30.875 -91.861)"/>
    <path
      d="M0,2.813V1.688a.563.563,0,0,1,.563-.563h4.22L5.113.468A.834.834,0,0,1,5.866,0h4.02a.844.844,0,0,1,.756.468l.331.658h4.22a.563.563,0,0,1,.563.563V2.813a.563.563,0,0,1-.563.563H.563A.563.563,0,0,1,0,2.813Z"
      data-name="Path 7318"
      fill="#ff5d5d"
      id="Path_7318"/>
  </g>
</svg>
