<svg height="34.286" viewBox="0 0 38.573 34.286" width="38.573" xmlns="http://www.w3.org/2000/svg">
  <g data-name="Group 6874" id="Group_6874" transform="translate(-1156.666 -833.455)">
    <path
      d="M1195.239,843.633v5.358a1.6,1.6,0,0,1-1.6,1.607h-2.151a1.6,1.6,0,0,1-1.607-1.6v-5.366a4.829,4.829,0,0,0-4.836-4.821h-.032a4.865,4.865,0,0,0-4.775,4.882v4.761h-5.357v-4.721a10.179,10.179,0,1,1,20.358-.1Z"
      data-name="Path 5738"
      fill="#aaa"
      id="Path_5738" opacity="0.4" style="isolation: isolate"/>
    <path
      d="M1183.453,848.455H1159.88a3.214,3.214,0,0,0-3.214,3.214v12.858a3.214,3.214,0,0,0,3.214,3.214h23.573a3.214,3.214,0,0,0,3.214-3.214h0V851.669A3.214,3.214,0,0,0,1183.453,848.455Zm-9.108,11.25a2.678,2.678,0,1,1-5.357,0v-3.214a2.678,2.678,0,1,1,5.357,0Z"
      data-name="Path 5739"
      fill="#aaa"
      id="Path_5739"/>
  </g>
</svg>
