<svg width="16" height="15" viewBox="0 0 16 15" fill="none" xmlns="http://www.w3.org/2000/svg">
<rect x="0.5" y="-0.5" width="15" height="15" rx="7.5" fill="white"/>
<rect x="0.5" y="-0.5" width="15" height="15" rx="7.5" stroke="#1D1D1D"/>
<path d="M9.32656 7L11.3163 5.01014C11.4335 4.89282 11.4994 4.73372 11.4994 4.56783C11.4994 4.40193 11.4335 4.24283 11.3163 4.12551L10.874 3.68319C10.7567 3.56589 10.5976 3.5 10.4317 3.5C10.2658 3.5 10.1067 3.56589 9.98941 3.68319L8.00028 5.67305L6.01002 3.68319C5.89271 3.56589 5.73362 3.5 5.56774 3.5C5.40186 3.5 5.24277 3.56589 5.12546 3.68319L4.68318 4.12551C4.56589 4.24283 4.5 4.40193 4.5 4.56783C4.5 4.73372 4.56589 4.89282 4.68318 5.01014L6.67288 7L4.68374 8.98986C4.56646 9.10717 4.50057 9.26628 4.50057 9.43217C4.50057 9.59807 4.56646 9.75717 4.68374 9.87449L5.12602 10.3168C5.24333 10.4341 5.40242 10.5 5.56831 10.5C5.73419 10.5 5.89328 10.4341 6.01059 10.3168L8.00028 8.32695L9.98998 10.3168C10.1073 10.4341 10.2664 10.5 10.4323 10.5C10.5981 10.5 10.7572 10.4341 10.8745 10.3168L11.3168 9.87449C11.4341 9.75717 11.5 9.59807 11.5 9.43217C11.5 9.26628 11.4341 9.10717 11.3168 8.98986L9.32656 7Z" fill="#1D1D1D"/>
</svg>
