<svg width="18" height="18" viewBox="0 0 18 18" fill="none" xmlns="http://www.w3.org/2000/svg">
<path d="M11.3878 9.0002L14.9692 5.41845C15.1803 5.20728 15.2989 4.9209 15.2989 4.62228C15.2989 4.32367 15.1803 4.03728 14.9692 3.82611L14.1731 3.02994C13.962 2.8188 13.6756 2.7002 13.377 2.7002C13.0784 2.7002 12.792 2.8188 12.5809 3.02994L9.00046 6.61169L5.41799 3.02994C5.20684 2.8188 4.92047 2.7002 4.62188 2.7002C4.32329 2.7002 4.03693 2.8188 3.82578 3.02994L3.02967 3.82611C2.81855 4.03728 2.69995 4.32367 2.69995 4.62228C2.69995 4.9209 2.81855 5.20728 3.02967 5.41845L6.61113 9.0002L3.03069 12.5819C2.81957 12.7931 2.70097 13.0795 2.70097 13.3781C2.70097 13.6767 2.81957 13.9631 3.03069 14.1743L3.8268 14.9705C4.03795 15.1816 4.32431 15.3002 4.6229 15.3002C4.92149 15.3002 5.20785 15.1816 5.41901 14.9705L9.00046 11.3887L12.5819 14.9705C12.7931 15.1816 13.0794 15.3002 13.378 15.3002C13.6766 15.3002 13.963 15.1816 14.1741 14.9705L14.9702 14.1743C15.1813 13.9631 15.3 13.6767 15.3 13.3781C15.3 13.0795 15.1813 12.7931 14.9702 12.5819L11.3878 9.0002Z" fill="#919191"/>
</svg>
