<svg width="24" height="24" viewBox="0 0 24 24" fill="none" xmlns="http://www.w3.org/2000/svg">
<path opacity="0.2" d="M22 0H2C0.89543 0 0 0.89543 0 2V22C0 23.1046 0.89543 24 2 24H22C23.1046 24 24 23.1046 24 22V2C24 0.89543 23.1046 0 22 0Z" fill="#424242"/>
<path d="M7.37977 17H11.8318C15.0378 17 17.2358 15.068 17.2358 12.1C17.2358 9.132 15.0378 7.2 11.8318 7.2H7.37977V17ZM9.64777 15.138V9.062H11.7198C13.6658 9.062 14.9398 10.224 14.9398 12.1C14.9398 13.976 13.6658 15.138 11.7198 15.138H9.64777Z" fill="#424242"/>
</svg>
