<svg id="Trailer_-_Dorsey" data-name="Trailer - Dorsey" xmlns="http://www.w3.org/2000/svg" width="110" height="20" viewBox="0 0 110 20">
  <rect id="Rectangle_63535" data-name="Rectangle 63535" width="110" height="20" transform="translate(0 0)" fill="#000b8c" opacity="0"/>
  <g id="Group_110689" data-name="Group 110689" transform="translate(0 3.728)">
    <path id="Path_50567" data-name="Path 50567" d="M6.922,1.432a.228.228,0,0,1,.236-.182h2.966a.228.228,0,0,1,.236.182L14.545,13.44c.036.121-.007.182-.127.182h-3a.228.228,0,0,1-.236-.182l-.582-1.91H6.577l-.582,1.91a.229.229,0,0,1-.236.182H2.775c-.121,0-.163-.061-.127-.182ZM9.8,8.873,8.651,5.016H8.6L7.4,8.873Z" transform="translate(-2.635 -1.25)" fill="#000b8c"/>
    <path id="Path_50568" data-name="Path 50568" d="M100.135,34.227h-.043a.116.116,0,0,1-.072-.043.08.08,0,0,1-.029-.057V26.75c0-.039-.024-.067-.072-.087H97.45a.082.082,0,0,1-.057-.029l-.014-.014-.014-.014a.2.2,0,0,1-.014-.087V24.554a.133.133,0,0,1,.1-.144h7.578a.141.141,0,0,1,.1.043l.014.029a.1.1,0,0,1,.029.072v1.963a.157.157,0,0,1-.043.116.1.1,0,0,1-.072.029h-2.442a.08.08,0,0,0-.057.014l-.029.029v7.419a.207.207,0,0,1-.072.087.113.113,0,0,1-.072.014h-2.252Z" transform="translate(-86.902 -21.855)" fill="#000b8c"/>
    <path id="Path_50569" data-name="Path 50569" d="M179.679,34.236a.213.213,0,0,1-.216-.144l-1.487-3.349h-.939a.077.077,0,0,0-.087.087v3.262a.128.128,0,0,1-.145.144h-2.251a.128.128,0,0,1-.145-.144V24.564a.128.128,0,0,1,.145-.145h4a4.569,4.569,0,0,1,1.5.231,3.05,3.05,0,0,1,1.112.656,2.9,2.9,0,0,1,.686,1,3.3,3.3,0,0,1,.238,1.271,3.191,3.191,0,0,1-.418,1.638,2.8,2.8,0,0,1-1.2,1.1l1.8,3.738a.139.139,0,0,1,0,.122.107.107,0,0,1-.1.051h-2.5Zm-1.285-5.587a1.205,1.205,0,0,0,.852-.281,1.1,1.1,0,0,0,0-1.516,1.205,1.205,0,0,0-.852-.281h-1.357a.077.077,0,0,0-.087.087v1.9a.077.077,0,0,0,.087.087h1.357Z" transform="translate(-155.462 -21.864)" fill="#000b8c"/>
    <path id="Path_50570" data-name="Path 50570" d="M253.37,33.012a4.322,4.322,0,0,1-2.3-.607,3.18,3.18,0,0,1-1.385-1.8c-.057-.183-.106-.363-.145-.542a5,5,0,0,1-.087-.57q-.03-.3-.043-.678t-.014-.88q0-.5.014-.88t.043-.678a4.5,4.5,0,0,1,.087-.563q.058-.26.145-.548a3.184,3.184,0,0,1,1.385-1.8,4.646,4.646,0,0,1,4.591,0,3.18,3.18,0,0,1,1.385,1.8c.057.193.106.375.145.548s.069.361.094.563a6.712,6.712,0,0,1,.043.678c0,.25.008.544.008.88s0,.631-.008.88-.02.477-.043.678-.055.393-.094.57-.087.358-.145.542a3.184,3.184,0,0,1-1.385,1.8A4.322,4.322,0,0,1,253.37,33.012Zm0-2.252a1.371,1.371,0,0,0,.8-.225,1.178,1.178,0,0,0,.454-.645,2.144,2.144,0,0,0,.072-.282,3.343,3.343,0,0,0,.043-.377c.01-.15.017-.331.022-.544s.008-.464.008-.754,0-.542-.008-.754-.012-.394-.022-.544a3.343,3.343,0,0,0-.043-.377,2.357,2.357,0,0,0-.072-.283,1.183,1.183,0,0,0-.454-.645,1.538,1.538,0,0,0-1.6,0,1.178,1.178,0,0,0-.454.645,2.171,2.171,0,0,0-.072.283,2.9,2.9,0,0,0-.043.377c-.01.15-.017.331-.022.544s-.008.464-.008.754,0,.542.008.754.012.394.022.544a3.35,3.35,0,0,0,.043.377,2.109,2.109,0,0,0,.072.282,1.179,1.179,0,0,0,.454.645A1.363,1.363,0,0,0,253.37,30.76Z" transform="translate(-222.181 -20.467)" fill="#000b8c"/>
  </g>
</svg>
