<svg xmlns="http://www.w3.org/2000/svg" width="110" height="20" viewBox="0 0 110 20">
  <g id="Trailer_-_Utility" data-name="Trailer - Utility" transform="translate(-353.876 -10688)">
    <rect id="Rectangle_63518" data-name="Rectangle 63518" width="110" height="20" transform="translate(353.877 10688)" fill="#aaa" opacity="0"/>
    <path id="Path_37014" data-name="Path 37014" d="M502.175,971c-1.1.019-2.611-.005-3.544-.041l-.2-.008-.027.2a61.093,61.093,0,0,1-1.649,7.381c-.126.518-.323.789-1.06.858a8.022,8.022,0,0,1-1.012-.02l-.377-.023a3.424,3.424,0,0,1-.692-.076c-.22-.067-.26-.153-.272-.178-.053-.107-.029-.3.082-.6a74.058,74.058,0,0,1,3.225-7.353l.143-.288-.319-.032c-.941-.091-2.419-.271-3.444-.449l-.187-.033-.061.18-2.2,6.414-.174.5c-.459,1.3-.822,2.334-.2,3.417a2.362,2.362,0,0,0,1.424,1.1,13.817,13.817,0,0,0,2.241.279l.028,0a13.614,13.614,0,0,0,2.268.022,4.186,4.186,0,0,0,1.989-.815c1.063-.729,1.47-1.834,2.1-3.722L502.487,971Zm48.248-3.349c-1.048-.193-2.149-.356-3.273-.474l-.13-.014-2.774,3.755c-.114-.831-.541-3.985-.541-3.985l-.19-.006c-1.085-.035-2.213-.022-3.4.006l-.28.007h-.018l-.087,0c-2.461.063-5.14.263-8.193.609l-.144.017-.853,2.827,2.512-.259c-.167.562-2.474,8.28-2.474,8.28l.328-.031c1.1-.1,2.192-.185,3.247-.247l.156-.01s2.364-8,2.449-8.278c.758-.042,1.527-.076,2.29-.1l.161,0,.712-2.428c.575,2.185,1.136,4.4,1.673,6.583l-1.19,4.117.284.012c1.065.044,2.112.117,3.113.22l.186.019s1.125-3.947,1.153-4.037c1.817-2.123,3.636-4.213,5.408-6.222l.26-.293Zm-23.76.522-.041.135L523.254,979.3l3.8-.5.041-.138,3.33-10.985-.34.046Zm-4.882.723-.351.053-.965.145-2.464.368-.043.132-3.472,11.019,3.14-.472,4.541-.672.042-.133.847-2.75s-3.266.481-3.847.568c.193-.615,2.573-8.258,2.573-8.258m-5.288.8-3.416.459-.044.135-3.54,11.025,3.808-.515.04-.133,3.5-11.017Zm-5.236,3.274.872-2.706-.344.041c-3.061.358-5.73.576-8.162.661l-.155.007-.936,2.829.32-.01c.688-.026,1.412-.063,2.147-.111-.175.534-2.73,8.323-2.73,8.323l.328-.023c1.043-.071,2.142-.158,3.266-.272l.145-.013s2.617-8.051,2.7-8.318c.257-.029,2.5-.269,2.5-.269Z" transform="translate(-136 9723.396)" fill="#aaa"/>
  </g>
</svg>
