<svg xmlns="http://www.w3.org/2000/svg" width="110" height="20" viewBox="0 0 110 20">
  <g id="Trailer_-_East" data-name="Trailer - East" transform="translate(-353.877 -9808)">
    <rect id="Rectangle_63533" data-name="Rectangle 63533" width="110" height="20" transform="translate(353.877 9808)" fill="#aaa" opacity="0"/>
    <path id="Union_702" data-name="Union 702" d="M20.213,8.812a2.379,2.379,0,0,1-.028-.512,2.879,2.879,0,0,1,.194-.893h3.287l-.025.034a.775.775,0,0,0-.158.451.744.744,0,0,0,.625.678,1.617,1.617,0,0,0,.652.036c.705-.1,1.327-.574,1.277-1.061-.1-.96-2.926-.8-3.672-2.362-.192-.4-1.116-2.735,1.9-4.461a7.318,7.318,0,0,1,2.18-.664c1.949-.265,3.6.408,4.132,1.567a1.993,1.993,0,0,1,.178.844v.122a2.342,2.342,0,0,1-.134.652H27.466a.637.637,0,0,0,.061-.265.6.6,0,0,0-.356-.531,1.341,1.341,0,0,0-.8-.115c-.638.088-1.156.517-1.156.961a.539.539,0,0,0,.123.344,1.252,1.252,0,0,0,.226.184,4.539,4.539,0,0,0,1.323.566s2.69.6,2.518,2.63c-.183,2.185-2.028,3.656-4.781,4.025a6.364,6.364,0,0,1-.84.057C21.881,11.1,20.439,10.187,20.213,8.812Zm11.39,2.01,2.775-7.577H31.266L32.355.275h9.1l-1.089,2.97H37.423l-2.774,7.577Zm-15.46-.06.218-1.828h-3.5l-1.2,1.828H8.312L15.759.3h4.113l-.656,10.464Zm-1.718-4.2h2.22l.494-4.122ZM0,10.759,3.86.228h7.505L10.42,2.806v.009H6.012L5.5,4.206h4L8.585,6.694h-4L4.082,8.08h4.4L7.5,10.759Z" transform="translate(353.877 9812.451)" fill="#aaa"/>
  </g>
</svg>
