<svg xmlns="http://www.w3.org/2000/svg" width="110.624" height="20" viewBox="0 0 110.624 20">
  <g id="Truck_-_Strick" data-name="Truck - Strick" transform="translate(-353.253 -10608)">
    <rect id="Rectangle_63515" data-name="Rectangle 63515" width="110" height="20" transform="translate(353.877 10608)" fill="#aaa" opacity="0"/>
    <path id="Union_711" data-name="Union 711" d="M38.985,9.512a5.178,5.178,0,0,1-1.776-4.061A5.161,5.161,0,0,1,38.986,1.4,5.214,5.214,0,0,1,42.452.279a5.917,5.917,0,0,1,3.6,1.179,1.74,1.74,0,0,0,.683.363c.033,0,.068-.025.2-.148l.07-.064.3.253L46,4.086l-.31-.241V3.6a.374.374,0,0,0-.148-.331A4.248,4.248,0,0,0,42.6,2.155a3.127,3.127,0,0,0-3.222,3.311,3.422,3.422,0,0,0,1.011,2.489,3.134,3.134,0,0,0,2.3.807,4.058,4.058,0,0,0,2.32-.7c.567-.358.681-.545.681-.731V7.071L46,6.83l1.311,2.226-.3.256-.07-.071c-.12-.122-.174-.144-.236-.144a1.858,1.858,0,0,0-.564.317,6.171,6.171,0,0,1-3.7,1.224A5.213,5.213,0,0,1,38.985,9.512ZM.958,9.685c-.34-.177-.342-.177-.379-.177A.663.663,0,0,0,.4,9.637L.33,9.691,0,9.506,1.019,6.9l.382.2-.026.086a.226.226,0,0,0-.008.057.745.745,0,0,0,.244.526,4.646,4.646,0,0,0,2.848.994c1.221,0,2.073-.541,2.073-1.315a.642.642,0,0,0-.405-.605,4.115,4.115,0,0,0-1.276-.256l-.98-.117A4.962,4.962,0,0,1,1.61,5.912a2.651,2.651,0,0,1-1.27-2.4C.34,1.518,1.819.279,4.2.279a7.166,7.166,0,0,1,3.4.906l.109.045c.236.1.255.1.288.1.064,0,.13-.036.242-.135L8.3,1.15l.337.189L7.512,3.85l-.339-.218V3.455c0-.083-.033-.216-.321-.426a4.233,4.233,0,0,0-2.6-.875c-1.172,0-1.929.447-1.929,1.139a.636.636,0,0,0,.34.568c.252.148.344.162,1.471.293l1.006.117A4.588,4.588,0,0,1,7.61,5.1a2.9,2.9,0,0,1,.982,2.244A3.049,3.049,0,0,1,7.4,9.826a5.408,5.408,0,0,1-2.976.812A6.91,6.91,0,0,1,.958,9.685Zm54.215.776v-.433l.087-.017c.239-.047.239-.13.239-.157,0-.065-.048-.136-.275-.458L52.718,5.937,51.536,7.025V9.6c.022.271.072.334.327.409l.078.023v.425H49.02v-.425l.078-.023c.256-.075.3-.137.327-.418V1.312C49.4,1.04,49.353.977,49.1.9L49.02.879V.455h2.921V.879L51.863.9c-.256.075-.305.138-.327.418V4.484l3.28-3c.238-.209.344-.333.344-.4s-.111-.14-.29-.172L54.781.89V.455h3.785V.892l-.093.014a.612.612,0,0,0-.342.141l-.041.033a.973.973,0,0,0-.126.114l-.008.009c-.225.2-.518.467-.794.731L54.278,4.54,57.577,9c.734.959.764.963,1.117,1.014l.093.014v.437Zm-22.707,0v-.425l.078-.023c.256-.075.3-.137.327-.418V1.312C32.849,1.04,32.8.977,32.545.9L32.466.879V.455h2.922V.879L35.31.9c-.256.075-.3.138-.327.418V9.6c.011.266.063.331.327.409l.078.023v.425Zm-5.187,0v-.438l.093-.013c.16-.022.233-.09.233-.142,0-.073-.045-.176-.3-.573L25.59,6.469H23.434V9.6c.023.277.073.339.327.413l.078.024v.424H20.917v-.424L21,10.013c.256-.074.3-.137.328-.418V1.312C21.3,1.04,21.251.977,21,.9L20.917.88V.455h5.544a4.16,4.16,0,0,1,2.665.608A2.894,2.894,0,0,1,30.162,3.47a2.661,2.661,0,0,1-2.3,2.894l1.6,2.567c.62.972.731,1.054,1.078,1.079l.1.007v.445ZM23.434,4.638h2.831c.874,0,1.085-.046,1.356-.205a1.131,1.131,0,0,0,.43-.977,1.113,1.113,0,0,0-.433-.965c-.273-.173-.475-.2-1.353-.2H23.434ZM13.209,10.462v-.425l.078-.023c.256-.075.3-.137.327-.418V2.286h-2.59c-.222.024-.286.064-.357.371l-.02.084h-.4V0h.4l.02.084c.071.306.135.347.357.371h7.292c.221-.023.286-.065.357-.371L18.692,0h.4V2.742h-.4l-.02-.084c-.071-.307-.136-.347-.357-.371h-2.59V9.6c.023.277.073.339.327.414l.078.023v.425Z" transform="translate(353.877 10612.681)" fill="#aaa" stroke="rgba(0,0,0,0)" stroke-miterlimit="10" stroke-width="1"/>
  </g>
</svg>
