<svg width="111" height="20" viewBox="0 0 111 20" fill="none" xmlns="http://www.w3.org/2000/svg">
<path fill-rule="evenodd" clip-rule="evenodd" d="M15.4909 10.6068C14.8585 10.4118 14.2119 10.2664 13.5569 10.1718C14.2166 10.1316 14.8735 10.0555 15.5249 9.9438C17.0829 9.64313 17.8619 8.81813 17.8619 7.4688C17.8655 6.97798 17.6894 6.5028 17.3669 6.1328C16.876 5.62042 16.2334 5.27932 15.5339 5.1598C14.8411 5.03578 14.1375 4.98284 13.4339 5.0018H4.30891L4.17191 5.3258H5.55591L1.38691 15.4668H0.140906L0.00390625 15.7908H11.5039C12.2396 15.8051 12.9753 15.7603 13.7039 15.6568C14.6645 15.5223 15.5571 15.0847 16.2519 14.4078C16.5085 14.1683 16.7146 13.8797 16.8578 13.5592C17.0011 13.2387 17.0786 12.8928 17.0859 12.5418C17.0914 12.0997 16.9313 11.6716 16.6369 11.3418C16.3243 11.0026 15.9296 10.7494 15.4909 10.6068ZM10.2199 10.1718H9.80791L11.7979 5.3258H12.1459C12.3296 5.32247 12.5124 5.35158 12.6859 5.4118C12.9239 5.49913 13.0429 5.63246 13.0429 5.8118C13.0311 6.00548 12.9847 6.19548 12.9059 6.3728L11.6869 9.3298C11.5702 9.63662 11.3405 9.8871 11.0449 10.0298C10.7823 10.1323 10.5017 10.1806 10.2199 10.1718ZM8.24991 15.4718H7.62691L9.68391 10.4648H10.1839C10.3977 10.4589 10.6103 10.4995 10.8069 10.5838C10.9226 10.625 11.0226 10.7011 11.0932 10.8016C11.1638 10.9021 11.2014 11.022 11.2009 11.1448C11.1985 11.3055 11.1645 11.4642 11.1009 11.6118L10.0009 14.2848C9.8769 14.6631 9.63643 14.9924 9.31391 15.2258C8.98839 15.4035 8.62039 15.4886 8.24991 15.4718ZM30.4578 5.42374C30.5945 5.37652 30.7359 5.34558 30.8792 5.33132L29.6289 10.053L33.5669 5.721C33.7097 5.55033 33.9024 5.42864 34.1179 5.373C34.1972 5.35767 34.3079 5.342 34.4499 5.326L31.7609 15.47H30.7899L30.7009 15.794H36.8479L36.9369 15.47H35.8829L38.5719 5.326C38.6996 5.32608 38.826 5.35264 38.9429 5.404C39.1044 5.53544 39.2189 5.71584 39.2689 5.918L40.7689 10.053L42.1069 5H30.9669L30.9664 5.00195H27.5457L27.4457 5.32595C27.6326 5.32406 27.8191 5.34556 28.0007 5.38995C28.3707 5.49529 28.5557 5.83262 28.5557 6.40195C28.5556 7.02978 28.4473 7.65289 28.2357 8.24395L26.6277 12.775C26.4001 13.5405 25.9757 14.2329 25.3967 14.783C24.9334 15.1672 24.3474 15.372 23.7457 15.36C23.4199 15.376 23.0996 15.2717 22.8457 15.067C22.6812 14.9185 22.5525 14.7348 22.469 14.5296C22.3855 14.3244 22.3495 14.103 22.3637 13.882C22.3644 13.581 22.4123 13.2821 22.5057 12.996L24.9397 5.32595H25.9147L26.0217 5.00195H19.0267L18.9197 5.32595H19.9947L18.1737 11.022C17.984 11.564 17.8785 12.1319 17.8607 12.706C17.8397 13.3678 18.0743 14.0123 18.5157 14.506C19.0407 14.9955 19.6634 15.3683 20.3428 15.6C21.0222 15.8316 21.743 15.9168 22.4577 15.85C23.2924 15.8826 24.1246 15.737 24.8987 15.423C25.4241 15.1782 25.8733 14.7957 26.1987 14.316C26.5008 13.8296 26.7445 13.3094 26.9247 12.766L28.6827 7.92595C28.9149 7.14411 29.3049 6.41816 29.8287 5.79295C30.0118 5.62941 30.2257 5.50391 30.4578 5.42374ZM50.0877 15.796L51.4697 11.226L46.6697 14.846C46.3545 15.1119 45.9869 15.3085 45.5907 15.423C45.417 15.4538 45.241 15.4695 45.0647 15.47L48.1257 5.32595H49.2317L49.3257 5.00195H42.5157L42.4157 5.32595H43.4337L40.3647 15.472H39.4477L39.3477 15.796H50.0877ZM63.4941 5.00098L62.1411 9.95898C61.6965 8.60964 61.3271 7.58431 61.0331 6.88298C60.6825 6.06564 60.3215 5.58598 59.9501 5.44398C59.7486 5.36092 59.532 5.32074 59.3141 5.32598H58.9141L57.5331 10.362C57.9467 10.3705 58.3515 10.2425 58.6851 9.99798C59.2966 9.49316 59.8247 8.89516 60.2501 8.22598L58.8671 13.288C58.9078 12.8713 58.9281 12.538 58.9281 12.288C58.9281 11.5186 58.7588 11.0283 58.4201 10.817C58.1104 10.698 57.778 10.6495 57.4471 10.675L56.1311 15.475C56.5433 15.4528 56.9489 15.3618 57.3311 15.206C57.8755 14.9265 58.3936 14.5985 58.8791 14.226C59.4781 13.7817 60.0504 13.3025 60.5931 12.791C60.9398 12.4643 61.4641 11.9373 62.1661 11.21L60.9171 15.794H50.9531L51.0451 15.47H51.8771L54.6621 5.32598H53.7381L53.8301 5.00198L63.4941 5.00098ZM74.6111 15.0825C74.9613 14.6568 75.2017 14.1517 75.3111 13.6115L75.1031 13.6095C75.0379 13.8674 74.9426 14.1168 74.8191 14.3525C74.5931 14.7791 74.3695 14.9925 74.1481 14.9925C73.9681 14.9925 73.8711 14.7948 73.8571 14.3995C73.8476 13.6386 73.776 12.8797 73.6431 12.1305C73.5844 11.7675 73.4435 11.4227 73.2311 11.1225C73.0178 10.8642 72.736 10.6712 72.4181 10.5655C71.9422 10.437 71.456 10.3497 70.9651 10.3045C70.8818 10.2938 70.7018 10.2675 70.4251 10.2255C71.8825 10.0828 72.8348 9.96681 73.2821 9.87748C73.8237 9.79074 74.3296 9.55218 74.7411 9.18948C74.9948 8.95391 75.1957 8.66722 75.3305 8.34833C75.4653 8.02944 75.5309 7.6856 75.5231 7.33948C75.5343 6.79481 75.353 6.26366 75.0111 5.83948C74.6712 5.43146 74.194 5.16157 73.6691 5.08048C73.2089 5.0144 72.7439 4.98796 72.2791 5.00148H64.5791L64.4791 5.32548H65.5171L62.3691 15.4715H61.4281L61.3281 15.7955H68.1281L68.2281 15.4715H67.0931L68.5931 10.6245C68.8102 10.6193 69.0241 10.6769 69.2091 10.7905C69.3086 10.8981 69.3835 11.0259 69.4289 11.1652C69.4743 11.3045 69.4891 11.452 69.4721 11.5975C69.4725 11.7454 69.4655 11.8933 69.4511 12.0405C69.3311 13.0471 69.2711 13.6928 69.2711 13.9775C69.2498 14.2235 69.278 14.4714 69.3541 14.7063C69.4302 14.9413 69.5526 15.1586 69.7141 15.3455C70.3978 15.8211 71.2322 16.0293 72.0591 15.9305C72.5944 15.9491 73.1292 15.8816 73.6431 15.7305C74.0149 15.5989 74.3478 15.3761 74.6111 15.0825ZM69.8121 10.1405C69.4553 10.2778 69.0719 10.3318 68.6911 10.2985L70.2341 5.32548H70.6291C71.2238 5.32548 71.5211 5.54148 71.5211 5.97348C71.5135 6.21865 71.4693 6.46132 71.3901 6.69348L70.6901 8.95448C70.6312 9.20112 70.5231 9.43331 70.3722 9.63712C70.2213 9.84092 70.0308 10.0121 69.8121 10.1405Z" fill="#DBB316"/>
</svg>
