<svg width="111" height="20" viewBox="0 0 111 20" fill="none" xmlns="http://www.w3.org/2000/svg">
<path d="M55.3962 17.997C54.3179 17.9948 53.2396 17.9925 52.1616 17.9957C52.1823 17.6965 52.2215 17.3987 52.2793 17.104C52.9894 13.6555 53.6708 10.2022 54.3892 6.75479C55.5144 6.74996 56.6395 6.74978 57.7647 6.75423C57.1302 9.67297 56.5796 12.6061 55.9651 15.5279C56.7509 15.5343 57.5358 15.5325 58.3213 15.5308C59.4396 15.5284 60.5581 15.5259 61.6763 15.5471C61.6268 16.3686 61.4424 17.1767 61.2366 17.9771C59.9861 17.9956 58.7351 18 57.4843 18C56.7882 17.9999 56.0921 17.9989 55.3962 17.997ZM13.4337 17.9287C13.6525 16.6601 13.9547 15.404 14.1962 14.1383C14.2499 13.8234 14.4075 13.4737 14.2127 13.1708C13.1633 11.4881 12.2149 9.75909 11.1772 8.07088C10.9522 7.65634 10.5172 7.23382 10.7134 6.74579C11.9845 6.75293 13.2555 6.74876 14.5266 6.75841C15.1968 8.09018 15.8162 9.44301 16.532 10.7572C17.8009 9.45796 18.9722 8.08879 20.1931 6.75516C21.4793 6.75154 22.7669 6.73966 24.0537 6.76778C23.9426 7.05165 23.7746 7.31145 23.5595 7.53227C21.6925 9.35114 19.8868 11.2164 18.0335 13.0458C17.7927 13.2607 17.6392 13.5518 17.6007 13.8667C17.3515 15.2183 17.08 16.5661 16.7862 17.9102C16.0999 17.9275 15.4136 17.9319 14.7273 17.9319C14.2964 17.9318 13.8651 17.93 13.4338 17.9286L13.4337 17.9287ZM36.407 17.9216C37.7477 15.9293 38.9933 13.8895 40.3205 11.8901C41.4417 10.1825 42.5158 8.45321 43.6486 6.75154C44.7008 6.75086 45.7532 6.75207 46.8059 6.75516C47.7012 10.484 48.6585 14.2022 49.582 17.9262C48.4073 17.9328 47.2344 17.9298 46.06 17.9298C45.903 17.2886 45.7262 16.651 45.561 16.011C44.0752 16.0038 42.5897 16.0029 41.1045 16.0081C40.6881 16.6367 40.3047 17.2803 39.9181 17.922C39.2975 17.9274 38.6768 17.9305 38.0562 17.9313C37.5065 17.9312 36.9567 17.928 36.407 17.9216ZM42.324 13.6571C43.2999 13.6654 44.2756 13.6642 45.2523 13.6607C45.0685 12.4269 44.8262 11.2005 44.5902 9.97383C43.781 11.1748 43.0439 12.4139 42.3241 13.6571H42.324ZM2.28976 17.9278C2.8624 14.6842 4.58482 8.65004 5.13053 5.40223C4.81882 5.40149 4.45613 5.40223 4.07025 5.40223C3.03747 5.40316 1.83824 5.40418 1.00391 5.38432C1.09369 4.46931 1.62436 2.90016 1.8092 2C3.34324 2.00176 15.3148 2.00139 28.4461 2.00111C44.8606 2.00111 63.0862 2.00028 65.0039 2.00408C64.9344 2.72922 64.4761 4.11547 64.3454 4.83253C64.2903 5.00644 64.3151 5.25709 64.1389 5.38005C63.4045 5.41634 41.7269 5.41012 25.6489 5.4039C16.3545 5.40056 8.93126 5.39648 8.50724 5.40158C7.95147 8.64735 6.23518 14.6829 5.66743 17.9265C5.05416 17.9294 4.44067 17.9309 3.82695 17.9309C3.31455 17.9309 2.80216 17.9298 2.28976 17.9278ZM27.2421 17.9278C27.8153 15.0013 28.4362 12.0829 28.9881 9.15246C28.6763 9.15181 28.3149 9.15246 27.931 9.15246C26.9022 9.15339 25.7113 9.15422 24.8764 9.13622C24.9797 8.31143 25.1351 7.49354 25.3416 6.68714C28.7921 6.68352 35.4134 6.68352 38.8647 6.68779C38.7856 7.35641 38.6635 8.02067 38.5323 8.68345C38.4408 8.78924 38.5398 9.06996 38.3341 9.1248C37.5927 9.16758 35.8207 9.1609 34.3403 9.15431C33.5136 9.1506 32.7779 9.14698 32.3636 9.1519C31.7875 12.0778 31.2049 15.0027 30.6157 17.9267C29.9944 17.929 29.3733 17.9301 28.7524 17.9301C28.2492 17.9304 27.7459 17.9297 27.2425 17.9282L27.2421 17.9278Z" fill="#0147C1"/>
</svg>
