<svg width="111" height="20" viewBox="0 0 111 20" fill="none" xmlns="http://www.w3.org/2000/svg">
<path d="M43.2445 18.8642C42.8184 18.7585 42.3635 18.6549 42.0402 18.3388C41.6497 17.9833 41.573 17.4099 41.6566 16.9158C41.7353 16.5901 41.7271 16.2462 41.8532 15.9321C42.2344 15.93 42.6155 15.9302 42.9965 15.9304C43.3776 15.9306 43.7587 15.9304 44.1399 15.9287C44.2881 15.9283 44.436 15.9415 44.5817 15.968C44.5071 16.2225 44.4858 16.496 44.5941 16.7446C45.1997 17.0167 45.8977 16.9443 46.5218 16.7791C46.9212 16.6579 47.1356 16.2591 47.2157 15.88C47.35 15.2491 47.4925 14.6194 47.6117 13.9858C47.2472 14.3886 46.8725 14.8205 46.3409 15.0067C45.7346 15.2782 45.0578 15.2166 44.4111 15.203C43.8875 15.1419 43.3858 14.9593 42.9471 14.6702C42.4771 14.352 42.2689 13.759 42.2991 13.214C42.2635 12.4801 42.4436 11.7632 42.5525 11.0428C42.6704 10.5696 42.7738 10.093 42.8971 9.6218C43.1115 8.9387 43.3219 8.22372 43.8 7.66796C44.4597 6.88738 45.5264 6.54346 46.532 6.56851C47.0856 6.56377 47.6672 6.53533 48.1749 6.7926C48.3592 6.88802 48.5203 7.02201 48.6469 7.18523C48.7735 7.34845 48.8625 7.53698 48.9079 7.73769C48.9463 7.84601 48.9353 7.98412 49.0415 8.05785C49.0305 7.59884 49.1168 7.15134 49.1956 6.7012C49.5014 6.67806 49.8082 6.67062 50.1148 6.67893C50.2694 6.68042 50.4241 6.68197 50.5787 6.67954C50.7496 6.68211 50.9208 6.68055 51.0921 6.67906C51.4107 6.67622 51.7297 6.67331 52.0474 6.69714C52.0387 6.86342 52.0136 7.02847 51.9728 7.19C51.4096 9.82084 50.849 12.4526 50.2909 15.0852C50.0538 16.098 49.7552 17.1772 48.9688 17.9171C48.3187 18.5805 47.3658 18.8378 46.4622 18.9231C46.0269 19.0077 45.5847 19.0022 45.143 18.9968C44.9451 18.9944 44.7473 18.9919 44.5502 18.9976C44.5144 18.9992 44.4787 19 44.443 19C44.0397 18.9999 43.6441 18.9046 43.2445 18.8642ZM46.8431 8.79172C46.5875 8.83837 46.3081 8.89192 46.1218 9.0869C45.8333 9.35905 45.7484 9.76052 45.6593 10.1295C45.5141 10.7239 45.3901 11.3235 45.2873 11.9283C45.2599 12.2032 45.2462 12.5166 45.4222 12.7495C45.6538 12.9864 46.0141 13.0108 46.3279 13.0298C46.7896 13.0197 47.3007 12.9567 47.6542 12.633C47.9241 12.3 48.0309 11.8741 48.1221 11.4652C48.2447 10.8546 48.3995 10.2473 48.444 9.62444C48.4495 9.35025 48.3755 9.01987 48.0981 8.89469C47.8469 8.79756 47.5792 8.74929 47.3095 8.75252C47.1532 8.75307 46.9973 8.76618 46.8431 8.79172ZM65.4472 15.3249C65.1929 15.3227 64.9389 15.3204 64.6859 15.3241C64.0916 15.3412 63.5 15.2376 62.9479 15.0195C62.4656 14.8414 62.0518 14.417 62.0148 13.8923C61.9819 13.4299 61.9764 12.9438 62.1341 12.5024C63.0897 12.4787 64.0474 12.4739 65.0031 12.5037C65.0065 12.7461 64.9819 12.9898 65.0038 13.2315C65.2401 13.4502 65.5792 13.3473 65.8622 13.4366C66.1793 13.4861 66.4903 13.3893 66.8069 13.3838C67.0803 13.3744 67.3865 13.3006 67.5564 13.0704C67.7516 12.8185 67.6605 12.4821 67.6872 12.1896C67.5181 12.0531 67.3068 11.9778 67.0885 11.9764C66.8791 11.9713 66.6695 11.9714 66.4599 11.9715C66.0977 11.9715 65.7358 11.9715 65.3751 11.9459C65.0099 11.8674 64.6325 11.8836 64.2681 11.8091C63.7673 11.6723 63.1967 11.4923 62.9425 11.0015C62.5966 10.4064 62.7322 9.69214 62.8849 9.06049C63.0767 8.35702 63.3843 7.62524 64.0037 7.18654C64.5188 6.80742 65.1689 6.69572 65.7889 6.60703C66.3109 6.53865 66.8385 6.59823 67.3611 6.54136C67.864 6.55016 68.3661 6.57589 68.8689 6.58198C69.543 6.67202 70.3322 6.76545 70.7576 7.35986C71.1002 7.90349 71.0481 8.60216 70.8283 9.18168C69.9377 9.18912 69.0471 9.19786 68.1572 9.17694C68.1292 9.01107 68.1188 8.84182 68.0743 8.67934C68.0037 8.52634 67.8194 8.49181 67.6728 8.4539C67.32 8.39161 66.9604 8.41734 66.6048 8.41944C66.3109 8.43433 65.954 8.47563 65.8006 8.762C65.6279 9.00295 65.6773 9.3076 65.6704 9.58456C65.93 9.73689 66.2404 9.70236 66.5288 9.74366C67.0775 9.82084 67.6324 9.79105 68.1846 9.82016C68.7703 9.92306 69.3964 9.90621 69.9253 10.2149C70.4398 10.4614 70.6535 11.0611 70.6638 11.5926C70.6193 12.3285 70.4316 13.0677 70.0452 13.7035C69.5854 14.416 68.8614 14.9221 68.0284 15.113C67.3372 15.2993 66.6272 15.3278 65.9157 15.3278C65.7596 15.3277 65.6035 15.3262 65.4472 15.3249ZM13.8382 14.9985C13.4367 14.8089 13.2285 14.3798 13.1463 13.9688C13.0723 13.1882 13.2442 12.4015 13.5395 11.6799C13.6637 11.3726 13.8514 11.0942 14.0905 10.8625C14.3295 10.6308 14.6148 10.4508 14.9281 10.334C15.478 10.111 16.0693 10.0053 16.6634 10.0239C16.8238 10.0291 16.9861 10.0264 17.1489 10.0239C17.6264 10.0163 18.1073 10.0085 18.5528 10.1973C18.8357 10.3043 18.9864 10.5819 19.1378 10.8216C19.2851 10.1622 19.5023 9.50007 19.4578 8.81765C19.455 8.63418 19.2886 8.5042 19.1337 8.43447C18.6739 8.2857 18.1776 8.28878 17.7198 8.44327C17.3992 8.58679 17.3204 8.96388 17.2121 9.25974C16.8857 9.30692 16.5554 9.32214 16.226 9.30516C16.0542 9.30191 15.8822 9.29839 15.7111 9.30449C15.5578 9.29981 15.4039 9.30252 15.2502 9.3053C14.9361 9.32169 14.6211 9.30599 14.3102 9.25845C14.4219 8.56249 14.6213 7.82117 15.1762 7.33711C15.7989 6.77046 16.6785 6.64995 17.4875 6.57548C18.287 6.56736 19.0865 6.56465 19.8852 6.57683C20.6532 6.64995 21.4992 6.78129 22.0515 7.36893C22.4591 7.85163 22.4522 8.52458 22.3467 9.11154C22.3234 9.65924 22.1679 10.1873 22.063 10.7221C21.774 12.0716 21.486 13.4207 21.1992 14.7693C21.1601 14.9108 21.1848 15.0868 21.0622 15.1918C20.8376 15.2162 20.6115 15.2238 20.3858 15.2143C20.2659 15.2124 20.146 15.2103 20.0264 15.2134C19.8158 15.2101 19.6051 15.2119 19.3943 15.2134C19.0107 15.2168 18.6275 15.2202 18.2452 15.1922C18.2795 15.0033 18.324 14.8165 18.3692 14.6303C18.4138 14.4909 18.4486 14.3486 18.4733 14.2044C18.213 14.4861 17.9732 14.7975 17.6293 14.9864C17.1637 15.2258 16.6434 15.3424 16.1188 15.3249C16.0047 15.324 15.8894 15.3249 15.7735 15.3261C15.6864 15.3269 15.5988 15.3277 15.5113 15.3277C14.9319 15.3276 14.3483 15.2934 13.8382 14.9985ZM17.173 11.7692C16.8654 11.824 16.514 11.8871 16.3194 12.1545C16.1037 12.4672 16.0145 12.912 16.2304 13.2458C16.5661 13.3958 16.9318 13.393 17.2935 13.3903C17.3826 13.3897 17.471 13.389 17.5588 13.3903C17.854 13.3883 18.1836 13.3931 18.4206 13.1914C18.7056 12.972 18.7857 12.599 18.8159 12.2625C18.8253 12.19 18.8114 12.1164 18.7761 12.0521C18.7408 11.9878 18.6859 11.9361 18.6193 11.9045C18.3209 11.792 18.0029 11.7392 17.6837 11.7491C17.513 11.7494 17.3416 11.7588 17.173 11.7692ZM53.6509 15.0648C53.2105 14.9125 52.7844 14.6377 52.5836 14.2064C52.3 13.675 52.3548 13.0576 52.3733 12.4794C52.5281 11.2877 52.7864 10.1115 53.1454 8.96368C53.3308 8.39487 53.6669 7.88552 54.1189 7.48858C54.571 7.09164 55.1223 6.8216 55.7157 6.70655C56.1247 6.64833 56.5316 6.56106 56.9474 6.57115C57.1712 6.57115 57.3952 6.57079 57.6195 6.57006C58.1487 6.56858 58.678 6.56709 59.2074 6.57683C59.748 6.63235 60.3131 6.70682 60.7817 6.99996C61.1425 7.25753 61.3983 7.634 61.5031 8.06151C61.6162 8.65118 61.5449 9.25364 61.486 9.84541C61.2366 11.0619 60.9715 12.288 60.4687 13.4314C60.1419 14.1118 59.5713 14.6934 58.8512 14.9608C58.1308 15.2176 57.3686 15.3411 56.6029 15.325C56.4441 15.3241 56.2846 15.325 56.1248 15.326C56.0121 15.3266 55.8991 15.3273 55.7861 15.3273C55.0636 15.3271 54.3395 15.2992 53.6509 15.0648ZM56.4176 13.1753C56.7464 13.1828 57.0821 13.1904 57.3735 13.0216C57.7517 12.8375 57.9325 12.434 58.0648 12.061C58.2806 11.3975 58.3887 10.707 58.521 10.0239C58.5562 9.75582 58.5619 9.4848 58.5381 9.21553C58.4847 8.89327 58.1428 8.71522 57.8352 8.7247C57.7278 8.72612 57.6196 8.72355 57.5112 8.72097C57.2137 8.71421 56.9146 8.70696 56.6268 8.78285C56.3077 8.88982 56.0741 9.16401 55.9521 9.46595C55.6952 10.061 55.5835 10.7035 55.4465 11.3325C55.3985 11.7949 55.2341 12.2715 55.3739 12.7318C55.4711 13.0447 55.8171 13.1848 56.1247 13.1733C56.1546 13.1725 56.1847 13.1722 56.215 13.1722C56.2821 13.1722 56.3495 13.1737 56.4176 13.1753ZM37.01 15.3241C36.8562 15.323 36.7013 15.3241 36.5457 15.325C35.6844 15.3306 34.8048 15.3361 34.0087 14.9789C33.4799 14.767 33.038 14.3154 32.9332 13.7494C32.7619 13.1286 32.8962 12.4861 32.9722 11.8627C33.1017 11.1708 33.2415 10.4796 33.4333 9.80114C33.6161 9.17694 33.7881 8.52769 34.1888 7.99827C34.6827 7.299 35.5021 6.89543 36.3296 6.72144C36.7598 6.64833 37.1907 6.55084 37.6305 6.56979C37.8467 6.57379 38.0633 6.57176 38.2799 6.56979C38.6803 6.566 39.0808 6.56221 39.4795 6.59687C40.1433 6.69775 40.8867 6.84946 41.3135 7.41409C41.5779 7.70926 41.6519 8.1026 41.7601 8.46886C41.7784 8.76623 41.7782 9.06442 41.7595 9.36176C41.656 9.69214 41.6745 10.0449 41.5779 10.3766C41.4731 10.7496 41.4628 11.1476 41.2881 11.4991C39.4878 11.5058 37.6877 11.5058 35.8878 11.4991C35.7809 11.9351 35.6597 12.3968 35.7652 12.8449C35.8399 13.153 36.1646 13.2972 36.4571 13.3216C36.9394 13.3683 37.4689 13.3886 37.9033 13.1422C38.1903 12.9715 38.2355 12.6209 38.3642 12.3446C38.6722 12.345 38.9802 12.3447 39.2884 12.3437C39.8844 12.3423 40.4798 12.3409 41.075 12.348C41.162 12.541 41.0545 12.7516 41.0065 12.9424C40.7921 13.7088 40.3345 14.4494 39.611 14.8374C38.8871 15.2229 38.0527 15.3267 37.2386 15.3268C37.1625 15.3268 37.0859 15.3259 37.01 15.3241ZM36.7394 8.81948C36.405 9.0869 36.3496 9.53033 36.2304 9.91223C37.1223 9.90948 38.014 9.90923 38.9055 9.91149C38.9028 9.55809 39.1144 9.17965 38.9048 8.84994C38.6274 8.55883 38.1801 8.65497 37.8197 8.60622C37.4558 8.6306 37.0463 8.58395 36.7394 8.81948ZM2.97906 15.1109C2.294 14.8997 1.65279 14.4494 1.34794 13.7921C1.20354 13.4799 1.1043 13.1493 1.05316 12.8098C0.925053 12.2445 1.08056 11.6758 1.13948 11.1132C1.41144 9.53981 1.73685 7.97058 2.22598 6.448C2.59385 5.27272 3.41524 4.22743 4.53188 3.66416C5.27243 3.26947 6.11093 3.10225 6.94054 3.02236C7.73288 2.99528 8.52603 2.99887 9.31906 3.00245C9.62295 3.00381 9.92691 3.00516 10.2308 3.00476C10.5274 3.01897 10.8295 2.99934 11.1201 3.07043C11.8113 3.17468 12.5662 3.3744 13.0136 3.94715C13.4992 4.63356 13.4849 5.52863 13.3492 6.32133C13.3102 6.52443 13.3486 6.78109 13.1876 6.93673C12.7359 6.96848 12.2822 6.96381 11.8286 6.95873C11.5478 6.95569 11.2663 6.95271 10.986 6.95873C10.8607 6.95257 10.7343 6.95609 10.6079 6.95961C10.3561 6.96638 10.1039 6.97349 9.86039 6.90457C9.87272 6.62768 9.92616 6.30001 9.71721 6.07727C9.47607 5.83084 9.10409 5.83491 8.78416 5.78481C8.14631 5.69341 7.50242 5.77127 6.86874 5.85792C6.46319 5.92901 6.07134 6.11992 5.82609 6.45572C5.40683 7.02711 5.2801 7.73796 5.11637 8.40955C4.93476 9.28492 4.6978 10.1549 4.6197 11.0465C4.53339 11.3762 4.53407 11.7451 4.69581 12.0532C4.81227 12.2752 5.05684 12.3903 5.28976 12.4574C5.83095 12.5637 6.3879 12.6259 6.93869 12.5562C7.4272 12.4899 7.96079 12.5007 8.38005 12.2049C8.79314 11.8975 8.9644 11.3851 9.05004 10.9017C9.07812 10.8157 9.10621 10.7297 9.13423 10.643C8.84972 10.6391 8.56515 10.6411 8.28051 10.643C7.81036 10.6462 7.3402 10.6498 6.8708 10.6267C6.88108 10.3031 6.97561 9.99171 7.04556 9.67826C7.13393 9.24159 7.22093 8.80425 7.33534 8.37367C7.47646 8.35946 7.61827 8.35065 7.76076 8.34998C8.64526 8.3512 9.52983 8.35156 10.4145 8.35106C10.9452 8.35106 11.4759 8.35106 12.0067 8.35106C12.0827 8.35153 12.1589 8.35106 12.2351 8.34998C12.4656 8.34164 12.6964 8.35131 12.9254 8.37888C12.8384 8.93058 12.7034 9.47428 12.6116 10.0254C12.361 11.2291 12.1903 12.5025 11.4936 13.5526C10.8517 14.5444 9.6796 15.0914 8.52254 15.216C7.85804 15.328 7.18271 15.3257 6.50916 15.3233C6.30823 15.3226 6.10737 15.3219 5.90699 15.3243C5.72374 15.3226 5.5398 15.3237 5.35552 15.3249C5.23749 15.3256 5.11925 15.3264 5.00107 15.3264C4.31917 15.3262 3.63706 15.3017 2.97906 15.1109ZM22.9964 15.1928C23.0055 15.0278 23.034 14.8645 23.0814 14.706C23.8685 11.0489 24.6565 7.3919 25.4455 3.73518C25.4873 3.53749 25.5099 3.33236 25.5969 3.14686C25.8275 3.11249 26.0611 3.10162 26.2939 3.11443C26.42 3.11714 26.5462 3.11971 26.6717 3.11504C26.883 3.12032 27.0949 3.11761 27.3068 3.11504C27.6873 3.10239 28.0682 3.11309 28.4474 3.14706C28.0993 4.97971 27.6602 6.79612 27.2917 8.62606C26.871 10.5359 26.4584 12.448 26.0538 14.3623C25.9798 14.6399 25.9468 14.9283 25.8441 15.1984C25.3589 15.2099 24.8731 15.2176 24.3874 15.2176C23.924 15.2174 23.4596 15.2103 22.9964 15.1928ZM27.7884 15.1712C27.9028 14.5612 28.0611 13.9607 28.17 13.3501C28.8516 10.2805 29.4942 7.20151 30.1669 4.12994C30.2443 3.80362 30.2793 3.46505 30.3971 3.14896C30.5212 3.1203 30.6486 3.10846 30.7759 3.11375C31.439 3.11642 32.1021 3.11642 32.7653 3.11375C32.9351 3.11202 33.1047 3.12698 33.2715 3.15844C32.6372 6.06211 32.0207 8.96917 31.3883 11.8728C31.3191 12.187 31.2499 12.5018 31.1944 12.8187C31.019 13.5377 30.869 14.2641 30.7293 14.9905C30.6964 15.0602 30.6649 15.13 30.6334 15.1997C30.2523 15.2185 29.8707 15.2161 29.4893 15.2137C29.2809 15.2124 29.0725 15.2111 28.8641 15.2133C28.7579 15.2109 28.6514 15.2124 28.5448 15.2141C28.4774 15.2151 28.41 15.2162 28.3428 15.2162C28.1571 15.2197 27.971 15.2046 27.7884 15.1712Z" fill="#DE1A26"/>
</svg>
