<svg xmlns="http://www.w3.org/2000/svg" width="110" height="20" viewBox="0 0 110 20">
  <g id="Trailer_-_Fruehauf" data-name="Trailer - Fruehauf" transform="translate(-353.877 -9968)">
    <rect id="Rectangle_63527" data-name="Rectangle 63527" width="110" height="20" transform="translate(353.877 9968)" fill="#aaa" opacity="0"/>
    <path id="Union_704" data-name="Union 704" d="M21.636,10.424a3.762,3.762,0,0,1-2.329-3.453q0-3.146,0-6.292V.308h3.073s.007,2.178.008,3.129c0,.973-.015,1.946.008,2.919A3.766,3.766,0,0,0,22.567,7.4a1.257,1.257,0,0,0,2.417.01A3.285,3.285,0,0,0,25.166,6.4c.017-1.892.008-3.784.008-5.676v-.4h3.067V6.8A3.784,3.784,0,0,1,24.9,10.722a6.947,6.947,0,0,1-1.159.1A5.6,5.6,0,0,1,21.636,10.424Zm39.346.1a3.775,3.775,0,0,1-2.605-3.586q0-3.145,0-6.291V.334H61.47v.35c0,1.9-.017,3.805.013,5.707a3.052,3.052,0,0,0,.29,1.273,1.2,1.2,0,0,0,2.138.029,2.885,2.885,0,0,0,.316-1.265c.033-1.912.014-3.826.014-5.739V.324h3.073v6.51a3.822,3.822,0,0,1-3.373,3.895,7.064,7.064,0,0,1-1.106.09A5.923,5.923,0,0,1,60.982,10.529ZM14.9,10.345c-.463-1.035-.953-2.057-1.4-3.1-.141-.324-.309-.492-.673-.424a2.216,2.216,0,0,1-.379,0v3.75H9.582V.307h.231c1.5,0,3-.027,4.5.007a3.159,3.159,0,0,1,3.046,1.848,3.306,3.306,0,0,1-.939,4.067l-.162.137,2.1,4.226H17.018c-.576,0-1.152-.009-1.728,0h-.02A.351.351,0,0,1,14.9,10.345ZM12.448,2.916V4.187c.546,0,1.077.02,1.6-.008a.633.633,0,0,0,.569-.644.6.6,0,0,0-.561-.611c-.214-.012-.428-.015-.644-.015C13.1,2.908,12.777,2.916,12.448,2.916ZM54.407,9.148H51.9s-.328,1.031-.458,1.434H48.378c.153-.454.446-1.32.446-1.32L52.024.3h2.283l3.671,10.292-3.108,0Zm-1.92-2.395h1.378l-.688-2.167ZM1.195,10.589C.8,10.583.4,10.557,0,10.54v-.065C.043,9.983.059,9.486.134,9a4.834,4.834,0,0,1,3.9-3.934,3.8,3.8,0,0,1,.616-.032c1.05,0,2.1,0,3.173,0V7.872c-.441,0-.861-.006-1.28,0-.148,0-.3,0-.446,0a7.34,7.34,0,0,0-1.177.058A2.239,2.239,0,0,0,3,10.231c0,.106,0,.212,0,.36l-1.093,0C1.669,10.593,1.432,10.592,1.195,10.589Zm67.579-.019a4.847,4.847,0,0,1,3.163-5.3,4.487,4.487,0,0,1,1.334-.233c1.063-.033,2.127-.01,3.22-.01V7.872c-.577,0-1.138-.007-1.7,0a8.085,8.085,0,0,0-1.232.06A2.285,2.285,0,0,0,71.67,10.2c0,.117,0,.233,0,.37Zm-24.448,0V6.764H41.809v3.8H38.746V.329h3.032v3.7h2.552V.326h3.032V10.569Zm-14.306-.005V.327H37V2.915H32.883V4.052h3.949V6.73H32.882v1.2H37v2.638ZM0,6.647C.014,6.066.049,5.485.037,4.9A5,5,0,0,1,4.983,0c.824.027,1.65,0,2.475,0h.371V2.883c-.642,0-1.28-.005-1.916,0h-.2a3.87,3.87,0,0,0-.8.054A2.309,2.309,0,0,0,3.162,4.388a.47.47,0,0,1-.256.238A5.286,5.286,0,0,0,.226,6.587,1.234,1.234,0,0,1,0,6.777Zm68.7.069a20.151,20.151,0,0,1,.19-2.986A4.882,4.882,0,0,1,73.66.006c.825,0,1.651,0,2.477,0H76.5V2.883c-.737,0-1.462.013-2.187,0A2.437,2.437,0,0,0,71.8,4.457a.333.333,0,0,1-.174.159A5.181,5.181,0,0,0,68.8,6.731Z" transform="translate(353.877 9972.589)" fill="#aaa"/>
  </g>
</svg>
