<svg width="110" height="20" viewBox="0 0 110 20" fill="none" xmlns="http://www.w3.org/2000/svg">
<g clip-path="url(#clip0_14282_117601)">
<path d="M7.82132 3.80041C9.1452 3.80041 10.4691 3.79953 11.793 3.80041C12.6691 3.8013 13.3489 4.50272 13.4138 5.33665C13.5307 6.85169 12.9898 8.24658 12.6454 9.67682C12.2818 11.1857 11.9346 12.7034 11.4659 14.1831C10.957 15.7882 10.2927 16.638 8.2553 16.8492C6.9433 16.9852 5.60481 16.8757 4.27819 16.8757C3.24302 16.8757 2.20877 16.8757 1.17361 16.8748C1.03656 16.8748 0.897686 16.888 0.763379 16.8704C0.0132729 16.7741 -0.113724 16.5895 0.0626099 15.8686C0.123824 15.6177 0.133875 15.335 0.26544 15.1239C0.41802 14.8801 0.644605 14.6027 0.903167 14.5161C1.30426 14.3809 1.508 14.1203 1.60302 13.7899C1.90544 12.7387 2.16583 11.6768 2.44541 10.6194C2.7396 9.5072 3.06212 8.4003 3.32251 7.28014C3.41296 6.89144 3.49976 6.44709 2.96071 6.1856C2.59616 6.00804 2.6793 5.63171 2.75331 5.31987C2.83005 5.00008 2.98812 4.69795 3.05481 4.37728C3.14709 3.93557 3.40839 3.7907 3.8506 3.79511C5.17448 3.80925 6.49836 3.80041 7.82224 3.80041H7.82132ZM6.71032 14.4119C7.42662 14.3915 7.91725 14.0417 8.03146 13.373C8.11278 12.8933 8.19592 12.6009 8.31835 12.1274C8.65366 10.8323 8.98805 9.53724 9.32336 8.24217C9.43117 7.82432 9.54995 7.40823 9.64862 6.98862C9.75552 6.53278 9.65593 6.34197 9.14885 6.27306C8.70025 6.21122 8.23246 6.28896 7.77747 6.25716C7.20004 6.21741 7.12786 6.63526 7.01914 7.00099C6.88026 7.46919 6.79072 7.95153 6.66921 8.42503C6.21421 10.1936 5.75373 11.9613 5.29782 13.7299C5.21377 14.0558 5.41385 14.3491 5.75099 14.3995C6.0461 14.4437 6.41339 14.4198 6.71215 14.4119H6.71032Z" fill="#326AB3"/>
<path d="M27.8759 16.9631C26.3227 16.9631 24.7704 16.964 23.2172 16.9631C22.6078 16.9631 22.4827 16.8077 22.6307 16.2246C22.712 15.9039 22.8244 15.5903 22.9002 15.2688C23.0181 14.7688 23.2647 14.4225 23.8148 14.2581C24.352 14.0974 24.3904 13.5435 24.5174 13.1203C25.0473 11.3562 25.537 9.57964 26.0386 7.80665C26.1601 7.37732 26.225 6.92678 26.3986 6.51865C26.5859 6.07606 26.4086 5.78189 26.0587 5.60167C25.6777 5.40556 25.6905 5.11933 25.7663 4.82339C25.8805 4.37904 26.0386 3.94352 26.1976 3.51154C26.3172 3.18556 26.5356 2.99652 26.9358 3.00005C28.4735 3.01418 30.0111 3.00447 31.5488 3.00623C32.1737 3.00623 32.3574 3.20942 32.2139 3.79246C32.1107 4.21031 32.0074 4.64406 31.8037 5.01863C31.6758 5.25273 31.377 5.41969 31.123 5.56545C30.8416 5.728 30.5739 5.82959 30.4698 6.20504C29.9517 8.06284 29.3935 9.91003 28.849 11.7599C28.6699 12.3677 28.4808 12.9737 28.3108 13.5841C28.1975 13.9922 28.3538 14.2475 28.8216 14.305C29.2099 14.3527 29.6247 14.3553 30.0029 14.274C30.4862 14.1707 30.5337 13.6954 30.6644 13.32C30.7685 13.0214 30.8553 12.7166 30.933 12.411C31.0362 12.0081 31.3158 11.8429 31.7206 11.8412C32.3757 11.8376 33.0307 11.8544 33.684 11.8367C34.6753 11.8102 34.6251 12.145 34.4688 12.8323C34.1883 14.0638 33.7681 15.2652 33.3871 16.4737C33.2729 16.8368 32.9759 16.9711 32.5794 16.9684C31.0116 16.9578 29.4428 16.964 27.875 16.964L27.8759 16.9631Z" fill="#326AB3"/>
<path d="M38.4304 7.86407C38.9018 7.86407 39.3742 7.86054 39.8456 7.86495C40.2687 7.86937 40.5364 8.19535 40.435 8.59641C40.0083 10.2846 39.5725 11.971 39.1467 13.6601C39.0636 13.9914 38.8872 14.3801 39.3614 14.5665C39.9635 14.8032 40.6305 14.6292 40.7904 14.1627C41.0508 13.4012 41.2454 12.6177 41.4482 11.8394C41.7314 10.7528 41.9763 9.65738 42.275 8.57521C42.4587 7.91001 42.5638 7.86495 43.2517 7.86495C43.8301 7.86495 44.4084 7.87202 44.9868 7.8623C45.3358 7.857 45.5231 8.01425 45.4637 8.34023C45.3294 9.0761 45.1759 9.81021 45.0014 10.5381C44.7492 11.5867 44.4459 12.6247 44.2165 13.6769C44.1343 14.0558 44.0859 14.4772 44.5683 14.7564C44.7154 14.8412 44.8049 15.1954 44.7583 15.3889C44.3033 17.2644 44.3636 16.9428 42.6624 16.9622C42.1234 16.9684 41.5825 16.979 41.0444 16.9569C40.7072 16.9428 40.3829 16.8403 40.2678 16.4817C40.1673 16.1681 39.948 16.2025 39.7077 16.2635C39.6666 16.2741 39.6236 16.3006 39.5953 16.3315C38.7136 17.26 37.5524 16.9543 36.4843 16.9428C35.7671 16.9349 35.3258 16.085 35.5305 15.2573C35.8895 13.8041 36.2514 12.3509 36.6424 10.9056C36.7475 10.5169 36.6908 10.2828 36.3107 10.0823C36.1508 9.99749 35.9782 9.7466 35.99 9.58317C36.0175 9.18741 36.1289 8.79253 36.2459 8.40913C36.3674 8.00983 36.6671 7.83934 37.1056 7.86054C37.546 7.88086 37.9882 7.86495 38.4295 7.86495L38.4304 7.86407Z" fill="#326AB3"/>
<path d="M65.8463 16.9631C65.2524 16.9631 64.6595 16.9649 64.0656 16.9631C62.5535 16.9569 62.0903 16.1053 62.305 14.9825C62.6257 13.3032 63.024 11.6336 63.4809 9.98424C63.8847 8.52927 64.527 8.07167 66.1003 7.9586C67.0349 7.89146 67.9751 7.86495 68.9116 7.87379C69.5383 7.87997 70.1642 7.97803 70.79 8.03633C71.8343 8.13263 72.1093 8.93564 71.9504 9.65385C71.5475 11.4648 71.1007 13.2679 70.6046 15.0567C70.2208 16.4419 69.3008 16.8509 67.8993 16.9543C67.2186 17.0047 66.5306 16.9631 65.8454 16.9631H65.8463ZM65.6864 14.0673C65.6489 14.343 65.7924 14.5506 65.9386 14.6451C66.4064 14.9481 67.4388 14.9145 67.6233 14.146C67.8755 13.0965 68.1578 12.0532 68.4009 11.0019C68.5425 10.3906 68.4319 10.1883 67.8143 10.1097C67.1382 10.024 66.6585 10.1371 66.4904 10.8623C66.4255 11.1433 66.3579 11.4233 66.2876 11.7025C66.0902 12.4834 65.8901 13.2643 65.6855 14.0673H65.6864Z" fill="#326AB3"/>
<path d="M16.5403 16.9631C15.7335 16.9631 14.9268 16.9667 14.12 16.9622C13.4467 16.9578 12.7934 16.563 12.7093 16.0382C12.6609 15.7379 12.7468 15.4083 12.8172 15.1018C13.1561 13.6141 13.4859 12.123 13.8724 10.6468C14.0277 10.054 14.2351 9.44006 14.575 8.93387C14.9816 8.32786 15.7317 8.16178 16.4389 8.14234C17.9446 8.10171 19.453 8.14676 20.9605 8.12291C21.7718 8.11054 22.6645 8.6185 22.4397 9.74572C22.2634 10.6327 22.0231 11.5081 21.8111 12.3889C21.7061 12.827 21.4155 12.9975 20.9578 12.9922C19.8157 12.9799 18.6746 12.9878 17.5325 12.9887C16.6033 12.9887 16.1319 13.4224 16.0533 14.343C16.0186 14.7529 16.1547 14.9658 16.6289 15.0453C17.379 15.1698 17.7207 15.0665 18.1666 14.5037C18.3082 14.3244 18.5923 14.1716 18.8235 14.1539C19.4439 14.1062 20.0706 14.1451 20.6946 14.1354C21.0976 14.1292 21.2401 14.365 21.1889 14.684C20.9724 16.0338 20.3009 17.0188 18.6874 16.9684C17.9729 16.9463 17.2566 16.9649 16.5412 16.9649L16.5403 16.9631ZM17.8249 11.6371C17.9391 11.6371 18.077 11.6397 18.1702 11.6327C18.5174 11.6062 18.8125 11.4083 18.9149 11.1901C19.0464 10.9109 19.083 10.4781 18.945 10.2175C18.7212 9.79519 17.3004 9.91622 17.1067 10.3588C16.9697 10.6724 16.8464 11.0964 16.9642 11.373C17.0428 11.5576 17.4987 11.6362 17.824 11.6353L17.8249 11.6371Z" fill="#326AB3"/>
<path d="M49.3686 16.9631C48.6085 16.9631 47.8474 16.964 47.0872 16.9631C46.3262 16.9614 45.8913 16.5736 45.9406 15.8412C45.9845 15.1963 46.0831 14.5479 46.233 13.918C46.5299 12.6742 46.8433 11.4321 47.2215 10.2095C47.4107 9.60084 47.65 8.94359 48.0731 8.48687C48.3801 8.15648 49.0205 7.99835 49.5221 7.97538C50.9638 7.91001 52.412 7.92414 53.8565 7.96301C54.6523 7.98421 55.3996 8.41178 55.078 9.46568C54.9739 9.80756 54.9483 10.1724 54.8861 10.5266C54.8185 10.91 54.57 11.0549 54.1836 11.0461C53.7276 11.0355 53.2699 11.0275 52.8149 11.0487C52.4832 11.0646 52.253 10.9525 52.1397 10.6583C51.9625 10.1971 51.5504 10.0849 51.1338 10.0902C50.5372 10.0982 50.3764 10.2731 50.2174 10.8906C49.9515 11.9215 49.6902 12.9525 49.4326 13.9852C49.3485 14.3209 49.513 14.5408 49.82 14.6804C50.2695 14.8862 50.8551 14.7714 51.1036 14.365C51.3448 13.971 51.6664 13.8315 52.115 13.8668C52.5938 13.9048 53.078 13.8986 53.5513 13.9675C53.8437 14.0099 54.0191 14.2343 53.9688 14.5444C53.7541 15.8659 53.1283 17.04 51.3339 16.9649C50.6806 16.9375 50.0255 16.9605 49.3714 16.9605L49.3686 16.9631Z" fill="#326AB3"/>
<path d="M57.5887 16.9622C56.9501 16.9622 56.3114 16.9658 55.6728 16.9614C55.1977 16.9578 55.0351 16.8209 55.0734 16.3571C55.1292 15.6707 55.2434 15.0064 56.0766 14.7361C56.2612 14.676 56.4631 14.4437 56.5143 14.2537C56.8158 13.1433 57.0789 12.0231 57.3448 10.9039C57.4151 10.6088 57.3128 10.3623 57.0515 10.1777C56.7198 9.9436 56.6111 9.65473 56.7893 9.26515C56.845 9.00543 56.8962 8.81815 56.9729 8.55754C57.0195 8.06284 57.3174 7.92591 57.7733 7.94888C58.4357 7.98333 59.0981 8.01867 59.7614 8.03015C60.0428 8.03457 60.326 7.97361 60.6083 7.95241C60.9537 7.92679 61.1492 8.09376 61.0889 8.4215C60.9391 9.24218 60.7774 10.0611 60.5837 10.8729C60.3534 11.8376 60.0601 12.789 59.8427 13.7564C59.7522 14.1601 59.7787 14.5347 60.2173 14.8659C60.8185 15.3209 60.3187 16.0276 60.2072 16.434C60.0711 16.8032 59.8802 16.9843 59.459 16.9675C58.8368 16.9437 58.2118 16.9614 57.5887 16.9614V16.9622Z" fill="#326AB3"/>
<path d="M61.2671 4.42321C61.4772 5.39937 60.326 6.35433 59.3393 6.15203C58.3571 5.98595 58.0647 4.93029 58.644 4.20766C59.2781 3.31807 60.9647 3.20146 61.2634 4.40731L61.2671 4.42321Z" fill="#326AB3"/>
</g>
<defs>
<clipPath id="clip0_14282_117601">
<rect width="110" height="20" fill="white"/>
</clipPath>
</defs>
</svg>
