<svg xmlns="http://www.w3.org/2000/svg" width="110" height="20" viewBox="0 0 110 20">
  <g id="Trailer_-_Ravens" data-name="Trailer - Ravens" transform="translate(-353.877 -10528)">
    <rect id="Rectangle_63513" data-name="Rectangle 63513" width="110" height="20" transform="translate(353.877 10528)" fill="#aaa" opacity="0"/>
    <path id="Union_710" data-name="Union 710" d="M58.493,10.351A3.432,3.432,0,0,1,57.45,7.374Q59,7.271,60.56,7.2c.114.6.19,1.354.826,1.641a1.934,1.934,0,0,0,2.392-.619.914.914,0,0,0-.339-1.247.992.992,0,0,0-.132-.062c-1.317-.556-2.885-.585-4-1.578a2.355,2.355,0,0,1-.6-2.593A4.224,4.224,0,0,1,62.5.066c1.407-.108,2.993-.19,4.2.671a2.838,2.838,0,0,1,.9,2.447c-1.024.079-2.049.154-3.075.168-.168-.5-.284-1.191-.91-1.291-.852-.291-2,.164-1.9,1.2,1.522.705,3.353.677,4.706,1.747,1.121.9.977,2.614.293,3.737a5.072,5.072,0,0,1-4.2,2.341c-.3.014-.615.026-.928.026A5.32,5.32,0,0,1,58.493,10.351Zm-33.024.566C24.807,7.334,24.009,3.784,23.36.208c1.143,0,2.288,0,3.433,0,.379,2.534.678,5.081,1.059,7.61C29.2,5.334,30.314,2.724,31.6.206q1.673.006,3.35,0c-1.927,3.58-3.928,7.121-5.828,10.718-.609.014-1.219.023-1.829.023S26.078,10.938,25.469,10.917Zm26.71-.011c-.992-1.931-1.886-3.913-2.967-5.8-.353,1.941-.68,3.886-1.038,5.827-1.032,0-2.064,0-3.1-.006.6-3.58,1.249-7.152,1.885-10.726q1.557,0,3.116,0c1,1.934,1.889,3.928,2.983,5.811.389-1.931.665-3.882,1.06-5.812h3.122c-.64,3.566-1.3,7.129-1.867,10.707-.524.015-1.048.024-1.573.024C53.262,10.937,52.72,10.928,52.179,10.905ZM0,10.924C.622,7.352,1.261,3.779,1.883.206v0C3.934.2,5.987.206,8.039.2a3.3,3.3,0,0,1,2.628.9,3.065,3.065,0,0,1,.043,3.123A4.137,4.137,0,0,1,8.061,6.2a2.427,2.427,0,0,1,1.27,1.254C9.8,8.53,10.12,9.669,10.5,10.779c1.9-3.357,3.731-6.749,5.6-10.124.124-.2.238-.476.526-.441C17.289.188,17.942.194,18.6.2c.464,0,.929.009,1.393,0C20.7,3.776,21.442,7.348,22.12,10.93c-1.155,0-2.309.012-3.464-.012-.066-.593-.14-1.183-.215-1.775-1.265-.012-2.528-.019-3.791.006-.265.6-.541,1.191-.82,1.785-2.338-.012-4.677-.006-7.016,0Q6.228,9.322,5.651,7.711a1.97,1.97,0,0,0-.613-.978,3.855,3.855,0,0,0-.928-.187C3.837,8,3.574,9.447,3.344,10.9c-.582.024-1.167.032-1.751.032C1.061,10.936.53,10.93,0,10.924ZM15.8,6.859c.786-.01,1.574-.012,2.36-.008-.166-1.258-.323-2.516-.5-3.772C16.935,4.285,16.409,5.592,15.8,6.859ZM4.452,4.533A7.015,7.015,0,0,0,7,4.308a1.1,1.1,0,0,0,.412-1.747,3.859,3.859,0,0,0-1.788-.22c-.264.009-.527.017-.784,0Q4.642,3.438,4.452,4.533Zm29.618,6.4Q35,5.565,35.962.206q1.674,0,3.349,0c1.851,0,3.7,0,5.554-.01-.152.763-.292,1.528-.407,2.3-.721.01-1.442.006-2.163,0-1.151-.007-2.3-.013-3.454.038-.08.547-.17,1.093-.256,1.637,1.143.041,2.286.035,3.43.03.573,0,1.147-.006,1.72,0-.12.729-.252,1.458-.375,2.187-1.114.017-2.227.014-3.34.012-.612,0-1.224,0-1.836,0-.122.7-.244,1.4-.379,2.09q.965,0,1.929,0c1.271,0,2.542-.006,3.814.014-.141.811-.289,1.617-.421,2.43q-1.872.009-3.746.008Q36.729,10.935,34.07,10.932Z" transform="translate(353.877 10532.443)" fill="#aaa"/>
  </g>
</svg>
