<svg xmlns="http://www.w3.org/2000/svg" width="110" height="20" viewBox="0 0 110 20">
  <g id="Trailer_-_Hudson" data-name="Trailer - Hudson" transform="translate(-353.876 -10128)">
    <rect id="Rectangle_63531" data-name="Rectangle 63531" width="110" height="20" transform="translate(353.877 10128)" fill="#aaa" opacity="0"/>
    <path id="Union_705" data-name="Union 705" d="M26.412,13.5c-1.093-.2-1.446-1.657-1.7-2.551-.205-.716-.373-1.441-.564-2.161a6.191,6.191,0,0,1-.263-3.06,2.965,2.965,0,0,1,.235-.626,2.741,2.741,0,0,1,2.734-1.238,4.889,4.889,0,0,1,.531.06A5.126,5.126,0,0,0,28.407,4c.1,0,.111-.053.08-.149-.142-.44-.279-.878-.4-1.321a.165.165,0,0,1,.035-.177.207.207,0,0,1,.078-.028,8.9,8.9,0,0,0,1.585-.567q.547-.237,1.071-.521A2.294,2.294,0,0,1,31.87.857a.353.353,0,0,1,.214.036.278.278,0,0,1,.09.269c-.035.3-.1.594-.124.894-.1,1.154-.086,2.319-.111,3.476Q31.9,7.322,31.9,9.111c0,1.283-.236,2.737.641,3.8a.176.176,0,0,1,.058.135c-.014.072-.1.092-.178.1-.632.046-1.272.067-1.906.061l-.928.008a1.939,1.939,0,0,1-.765-.059c-.181-.074-.132-.3-.271-.37s-.294.128-.391.183a3.352,3.352,0,0,1-1.524.545A1.252,1.252,0,0,1,26.412,13.5Zm1.057-7.746c-.439.307-.4.823-.375,1.3a12.256,12.256,0,0,0,.224,1.771c.077.4.169.791.268,1.183a1.776,1.776,0,0,0,.367.9.25.25,0,0,0,.424-.047,3.489,3.489,0,0,0,.205-1.79q-.009-.775.048-1.55c.01-.147.026-.3.039-.444a3.212,3.212,0,0,0-.023-.959.652.652,0,0,0-.669-.528A.893.893,0,0,0,27.468,5.749Zm13.924,5.7a6.449,6.449,0,0,1-.456-3.235c.006-.094.012-.189.019-.282a5.748,5.748,0,0,1,.935-3.2,4.133,4.133,0,0,1,5.982-.094,4.242,4.242,0,0,1,.943,2.232c.355,1.921.323,4.24-1.3,5.61a4.213,4.213,0,0,1-2.7.951A3.7,3.7,0,0,1,41.392,11.444ZM44.37,5.6a4.145,4.145,0,0,0-.193,2,12.625,12.625,0,0,0,.273,2.409c.065.305.455,1.651,1,1.214.35-.279.371-.9.4-1.3s.028-.806.013-1.209a14.43,14.43,0,0,0-.136-1.5,5.863,5.863,0,0,0-.255-1.352,1.2,1.2,0,0,0-.5-.585.411.411,0,0,0-.189-.052C44.6,5.221,44.475,5.4,44.37,5.6ZM9.29,13.331a.188.188,0,0,1-.13-.106c-.021-.067-.035-.175,0-.217.909-1.03.674-2.428.693-3.691,0-.049,0-.1,0-.149,0-.529,0-.874.019-1.417,0-.033,0-.066,0-.1a1.616,1.616,0,0,1,.019-.193c.018-.178-.164-.17-.308-.162-.033,0-.064,0-.091,0l-.641-.01c-.3,0-.605-.009-.907-.014a2.621,2.621,0,0,0-.841,0,.221.221,0,0,0-.148.244c.012.748-.027,1.495-.039,2.242A9.928,9.928,0,0,0,6.965,11.5,4.515,4.515,0,0,0,7.5,12.952c.036.065.073.146.032.207a.192.192,0,0,1-.119.066,3.449,3.449,0,0,1-.868.069h-.2q-1.6.014-3.206.037c-.15,0-.4.062-.5-.092a.257.257,0,0,1,0-.243,1.167,1.167,0,0,1,.145-.207,3.026,3.026,0,0,0,.5-1.478A14.486,14.486,0,0,0,3.3,9.6c-.007-.794,0-1.588.013-2.382.006-.476.014-.952.019-1.429.007-.705.014-1.411.017-2.116,0-.277,0-.554,0-.831A3.548,3.548,0,0,0,3.29,1.731,1.207,1.207,0,0,0,2.823,1.1,1.011,1.011,0,0,0,2.4.949a1.474,1.474,0,0,0-1.087.45,1.9,1.9,0,0,0-.437.785c-.034.095.01.154.107.129.081-.022.134-.093.211-.127a.808.808,0,0,1,.3-.057,1.465,1.465,0,0,1,1.3.783,1.378,1.378,0,0,1-.171,1.461A1.365,1.365,0,0,1,1.141,4.9,1.6,1.6,0,0,1,.214,4.12a1.759,1.759,0,0,1-.17-.555A3.133,3.133,0,0,1,.922.779,2.4,2.4,0,0,1,2.242.1C2.855.037,3.474.034,4.09.029L5.818.014a12.4,12.4,0,0,1,1.7.03.466.466,0,0,1,.11.025c.083.033.1.093.056.175-.157.332-.377.631-.532.964a3.776,3.776,0,0,0-.161,1.569c-.008.676-.046,1.352-.051,2.028a.144.144,0,0,0,.021.086c.065.1.284.09.444.085.05,0,.094,0,.126,0q.355.015.711.02c.267,0,.534,0,.8-.01.247-.006.495-.012.742-.01.08,0,.112-.025.117-.112,0-.036.005-.072.009-.107-.016-.6-.013-.947.007-1.444,0-.047,0-.094,0-.141C9.9,2.795,9.9,2.418,9.9,2.041a2.164,2.164,0,0,0-.1-.674c-.071-.214-.179-.412-.27-.617A1.885,1.885,0,0,0,9.362.441.382.382,0,0,1,9.371.11.168.168,0,0,1,9.494.028c.116-.01.233-.015.351-.016.265,0,.533.013.795.015l1.194,0q.98,0,1.96,0a.224.224,0,0,1,.224.1c.066.115-.034.226-.1.31a2.41,2.41,0,0,0-.232.35,2.382,2.382,0,0,0-.265.793c-.053.365-.02.735-.04,1.1-.009.176-.022.347-.025.523s-.006.359-.007.539c0,.087,0,.175,0,.271,0,.257-.007.612-.008.894,0,.094,0,.18,0,.251-.01.609-.016,1.292,0,1.868l0,.131c-.011.278-.019.595-.02.915,0,.053,0,.107,0,.161-.009.487-.015,1.006-.017,1.534,0,.052,0,.105,0,.158a9.568,9.568,0,0,0,.063,2.058,2.356,2.356,0,0,0,.554.936.467.467,0,0,1,.089.178.105.105,0,0,1-.1.141c-.712.068-1.421.057-2.136.059-.429,0-.857.009-1.285.017l-.643.011c-.114,0-.254.023-.383.023A.7.7,0,0,1,9.29,13.331Zm45.66-.044a.292.292,0,0,1-.154-.041.278.278,0,0,1-.085-.208,6.026,6.026,0,0,1,.106-.907,4.184,4.184,0,0,0-.11-1.028q-.219-1.132-.456-2.261Q54.13,8.265,54,7.69c-.047-.214-.118-.422-.155-.638a1.266,1.266,0,0,0-.178-.612.125.125,0,0,0-.065-.049c-.058-.013-.1.049-.129.1a2.254,2.254,0,0,0-.1.877c-.011.315-.037.63-.047.945q-.034,1.107-.019,2.215a7.067,7.067,0,0,0,.158,1.64,1.765,1.765,0,0,0,.365.737.266.266,0,0,1,.066.1.163.163,0,0,1-.081.169c-.291.182-.866.065-1.192.062q-.661-.006-1.322-.02L50.173,13.2c-.043,0-.117,0-.205.01-.242.015-.588.03-.667-.085-.044-.065,0-.151.035-.219a6.7,6.7,0,0,0,.722-3.117c.035-.9.05-1.807.065-2.711a6.654,6.654,0,0,0-.046-1.5,5.092,5.092,0,0,0-.616-1.161c-.029-.061-.046-.148.011-.183a.151.151,0,0,1,.068-.017,15.015,15.015,0,0,0,3.667-.646c.071-.024.164-.042.206.019a.887.887,0,0,1,.1.538c-.012.247-.062.508-.062.694,0,.038.022.1.05.108a.128.128,0,0,0,.118-.031,3.13,3.13,0,0,1,.991-.691,1.242,1.242,0,0,1,1.154-.194,1.442,1.442,0,0,1,.606.821c.72,1.792,1.192,3.7,1.734,5.552a7.144,7.144,0,0,0,1.042,2.473.882.882,0,0,1,.127.22c.034.086-.009.147-.1.165a.513.513,0,0,1-.1.006c-1,0-2.016.078-3.023.078C55.68,13.324,55.314,13.314,54.95,13.287ZM16.9,13.221A1.912,1.912,0,0,1,15.787,12.1a5.43,5.43,0,0,1-.452-1.468,9.363,9.363,0,0,1-.048-2.368,10.783,10.783,0,0,0,.053-1.9A8.978,8.978,0,0,0,14.835,4.2a.206.206,0,0,1,.019-.231c.075-.082.187-.051.283-.049.142,0,.286-.01.427-.019q.43-.024.859-.071a16.568,16.568,0,0,0,2.068-.342c.23-.056.246.032.2.231a14.684,14.684,0,0,0-.3,2.024c-.074.764-.069,1.534-.1,2.3a13.353,13.353,0,0,0,.066,1.891c.028.263.03,1.349.514,1.233a.319.319,0,0,0,.116-.063,1.318,1.318,0,0,0,.479-1.046q.029-.588.056-1.177c.034-.785.058-1.572.048-2.358,0-.118,0-.235-.007-.352a6.726,6.726,0,0,0-.1-1.035,4.317,4.317,0,0,1-.188-.982c.007-.138.034-.158.167-.158a12.863,12.863,0,0,0,1.848-.122c.3-.042.6-.1.9-.164.224-.051.507-.263.738-.214.166.035.025.289,0,.383a3.819,3.819,0,0,0-.13.633,27.1,27.1,0,0,0-.142,2.953c-.005.674-.024,1.349-.037,2.023L22.6,10.512a3.091,3.091,0,0,0,.268,1.3,6.879,6.879,0,0,0,.347.683c.073.127.331.427.255.587-.051.106-.27.094-.427.083-.05,0-.094-.007-.123-.007l-.691,0c-.826,0-1.647-.016-2.471-.07a.358.358,0,0,1-.153-.033.3.3,0,0,1-.124-.185,1.344,1.344,0,0,1-.089-.348c0-.131-.1-.158-.208-.082a3.571,3.571,0,0,1-1.861.845A1.377,1.377,0,0,1,16.9,13.221Zm17.2-.051c-.211.005-.621.02-.758-.19a.372.372,0,0,1-.119-.224.59.59,0,0,1,.032-.2,5.717,5.717,0,0,0,.035-1.478A12.9,12.9,0,0,0,33.2,9.475a.61.61,0,0,1,.008-.288.1.1,0,0,1,.042-.057c.045-.026.1.013.136.049a15.325,15.325,0,0,0,2,1.825,2.469,2.469,0,0,0,1.273.554c.44.006.938-.417.732-.891a.692.692,0,0,0-.259-.29,8.911,8.911,0,0,0-.909-.45q-.49-.247-.968-.517a3.164,3.164,0,0,1-1.353-1.282,4.292,4.292,0,0,1-.471-1.841,3.04,3.04,0,0,1,.219-1.377,1.811,1.811,0,0,1,1.24-.989,8.454,8.454,0,0,1,2.119-.265,3.237,3.237,0,0,1,2.569.965,1.617,1.617,0,0,1,.258,1.117,4.185,4.185,0,0,1-1.074,1.821c-.053.074.017.1.062.134a3.15,3.15,0,0,1,1.143,1.093,3.173,3.173,0,0,1-.224,2.93,2.768,2.768,0,0,1-1.326,1.166,3.886,3.886,0,0,1-1.334.236c-.18.008-.36.012-.537.019-.615.026-1.234.034-1.851.034ZM37.217,5.2a1.909,1.909,0,0,0-.424.09.832.832,0,0,0-.486.4.811.811,0,0,0,.114.82c.1.133.89.78,1.027.48s.26-.589.374-.889c.082-.213.213-.583.014-.765a.7.7,0,0,0-.474-.142C37.314,5.2,37.265,5.2,37.217,5.2Z" transform="translate(353.876 10131.242)" fill="#aaa"/>
  </g>
</svg>
