<svg xmlns="http://www.w3.org/2000/svg" width="110" height="20" viewBox="0 0 110 20">
  <g id="Trailer_-_Manac" data-name="Trailer - Manac" transform="translate(-353.877 -10368)">
    <rect id="Rectangle_63509" data-name="Rectangle 63509" width="110" height="20" transform="translate(353.877 10368)" fill="#ef3f35" opacity="0"/>
    <path id="Union_708" data-name="Union 708" d="M48.1,9.984a5.091,5.091,0,0,1-3.164-.8,2,2,0,0,1-.6-1.924,3.085,3.085,0,0,1,1.535-2.33,6.385,6.385,0,0,1,3.4-.818l.907-.054c1.275-.126,1.832-.07,2.5-.153.414-.052.975-.049,1.16-.734a.7.7,0,0,0-.391-.8,4.659,4.659,0,0,0-1.629-.225,3.648,3.648,0,0,0-1.591.261c-.293.182-.711.454-.761.889l-3.667,0a4.037,4.037,0,0,1,1.636-2.188A9.177,9.177,0,0,1,52.2.164c2.54,0,4.11.414,4.732,1.049a2.451,2.451,0,0,1,.4,2.442L56.4,7.9a3.026,3.026,0,0,0-.124,1.209c.024.18.11.51.11.51H52.812V8.787H52.76a4.778,4.778,0,0,1-1.667.9,10.792,10.792,0,0,1-2.545.3Q48.324,9.993,48.1,9.984ZM51.117,5.72a9.53,9.53,0,0,0-2.368.384.968.968,0,0,0-.437.946.849.849,0,0,0,.384.678,1.8,1.8,0,0,0,1.109.2,4.906,4.906,0,0,0,2.329-.493A2.574,2.574,0,0,0,53.366,5.97a1.577,1.577,0,0,0,.086-.625h0A23.233,23.233,0,0,1,51.117,5.72ZM22.748,9.959a5.091,5.091,0,0,1-3.164-.8,2,2,0,0,1-.6-1.923,3.086,3.086,0,0,1,1.535-2.332,6.385,6.385,0,0,1,3.4-.818l.907-.054c1.274-.127,1.832-.072,2.5-.154.415-.052.976-.049,1.16-.734a.7.7,0,0,0-.391-.8,4.666,4.666,0,0,0-1.629-.225,3.642,3.642,0,0,0-1.591.262c-.294.182-.712.453-.761.889l-3.667-.005a4.038,4.038,0,0,1,1.635-2.189A9.172,9.172,0,0,1,26.847.135c2.539,0,4.11.414,4.732,1.049a2.451,2.451,0,0,1,.4,2.442l-.932,4.247a3.031,3.031,0,0,0-.124,1.21c.024.18.11.51.11.51H27.459v-.83h-.052a4.777,4.777,0,0,1-1.667.9,10.766,10.766,0,0,1-2.545.305Q22.972,9.969,22.748,9.959Zm3.016-4.268a9.567,9.567,0,0,0-2.369.384.97.97,0,0,0-.437.947.852.852,0,0,0,.384.678,1.8,1.8,0,0,0,1.109.2,4.911,4.911,0,0,0,2.33-.493,2.574,2.574,0,0,0,1.232-1.467,1.589,1.589,0,0,0,.087-.626A23.206,23.206,0,0,1,25.764,5.691Zm37.26,4.244c-1.33,0-3.3-.1-4.494-1.121a3.581,3.581,0,0,1-.961-3.754,5.841,5.841,0,0,1,2.437-3.736A9.578,9.578,0,0,1,65.271.009c2.309,0,3.588.545,4.272,1.143a3.42,3.42,0,0,1,.975,2.771H66.766a1.3,1.3,0,0,0-.516-1.139,2.965,2.965,0,0,0-1.476-.46,3.6,3.6,0,0,0-2.117.623,3.36,3.36,0,0,0-1.37,2.7,2,2,0,0,0,.46,1.37c.311.489,1.214.6,1.868.6a3.914,3.914,0,0,0,1.814-.48,3.6,3.6,0,0,0,1-1.3l3.79,0a6.5,6.5,0,0,1-2.384,3.006A8.492,8.492,0,0,1,63.64,9.958Q63.332,9.958,63.024,9.936ZM7.152,9.594l1.1-5.354a.99.99,0,0,0-.262-1.1,1.445,1.445,0,0,0-1.039-.283,2.271,2.271,0,0,0-1.393.331A1.924,1.924,0,0,0,4.7,4.467L3.569,9.594H0L1.887.374l3.551,0-.267,1.4A6.3,6.3,0,0,1,6.782.685,4.677,4.677,0,0,1,8.955.166a4.389,4.389,0,0,1,1.984.283,2.437,2.437,0,0,1,1.228,1.3,5.554,5.554,0,0,1,1.39-.986,5.64,5.64,0,0,1,2.6-.613,3.379,3.379,0,0,1,2.645.8c.873.89.5,2.058.3,3.039L17.955,9.593H14.309L15.39,4.311A1.475,1.475,0,0,0,15.3,3.246c-.2-.307-.759-.362-1.168-.362a2.623,2.623,0,0,0-1.51.384,1.91,1.91,0,0,0-.755,1.1L10.8,9.594ZM32,9.592,33.89.372h3.476l-.3,1.391A5.478,5.478,0,0,1,38.8.6,6.36,6.36,0,0,1,41.2.155a3.717,3.717,0,0,1,2.644.721,3,3,0,0,1,.614,3.053L43.3,9.592H39.653l1.054-5.136A1.26,1.26,0,0,0,40.3,3.123a1.445,1.445,0,0,0-1.05-.285,2.776,2.776,0,0,0-1.619.48,2.352,2.352,0,0,0-1.084,1.53l-.991,4.744Z" transform="translate(353.877 10373.004)" fill="#ef3f35"/>
  </g>
</svg>
