<svg width="111" height="20" viewBox="0 0 111 20" fill="none" xmlns="http://www.w3.org/2000/svg">
<path fill-rule="evenodd" clip-rule="evenodd" d="M19.811 3.84243L19.8109 3.84268C19.7923 3.89387 19.7736 3.94501 19.7543 3.99586C18.2049 8.15986 16.6579 12.3249 15.1133 16.4909C18.8346 16.4982 22.556 16.4982 26.2773 16.4909C26.5343 15.7899 26.7948 15.0901 27.0553 14.3902C27.2367 13.9029 27.4181 13.4155 27.5983 12.9279H20.7093C20.8819 12.4612 21.0556 11.9945 21.2303 11.5279H28.0983C28.4896 10.4839 28.8783 9.43885 29.2643 8.39285C28.2833 8.39028 27.3021 8.39102 26.3209 8.39175H26.3209H26.3209C25.0126 8.39273 23.7043 8.39371 22.3963 8.38686C22.4977 8.12177 22.5957 7.85669 22.6936 7.59206L22.694 7.59082L22.6941 7.59058C22.7563 7.42245 22.8184 7.2545 22.8813 7.08685C23.6433 7.08685 24.4053 7.08574 25.1673 7.08463C26.6913 7.08241 28.2153 7.08019 29.7393 7.08685C30.0391 6.3122 30.3269 5.53243 30.6148 4.75255L30.615 4.75224C30.7678 4.33822 30.9206 3.92418 31.0753 3.51086C29.5127 3.50875 27.9501 3.50948 26.3875 3.51022C24.2391 3.51122 22.0907 3.51223 19.9423 3.50586C19.8935 3.61652 19.8522 3.72955 19.8111 3.84234L19.811 3.84243ZM2.83945 11.5236C2.22422 13.1802 1.60901 14.8368 0.992188 16.4925L5.33719 16.4935C5.91186 14.9415 6.48884 13.3901 7.06818 11.8395H11.0212C10.4445 13.3901 9.86852 14.9408 9.29318 16.4915H13.6362C15.2495 12.1661 16.8585 7.83915 18.4632 3.51048C17.9807 3.51048 17.4979 3.50981 17.015 3.50915C16.0488 3.50781 15.082 3.50648 14.1152 3.51048C13.8029 4.35702 13.4878 5.20264 13.1726 6.04835C12.9197 6.72715 12.6667 7.40602 12.4152 8.08548H8.46419C9.03219 6.56014 9.59885 5.03448 10.1642 3.50848C9.68181 3.50848 9.19956 3.50937 8.71733 3.51026C7.753 3.51204 6.78882 3.51381 5.82419 3.50848C4.82469 6.17793 3.83205 8.85081 2.83945 11.5236ZM32.5024 3.51172H40.2184C39.7764 4.70239 39.3337 5.89305 38.8904 7.08372C38.7071 7.08372 38.5238 7.08305 38.3405 7.08238C37.9737 7.08105 37.6068 7.07972 37.2394 7.08372C36.9089 7.99021 36.5706 8.89412 36.2322 9.79814C35.8427 10.8388 35.4532 11.8796 35.0754 12.9247C35.4786 12.9201 35.8819 12.9216 36.2854 12.9232C36.4873 12.9239 36.6893 12.9247 36.8914 12.9247C36.7157 13.402 36.538 13.8784 36.3604 14.3548L36.3601 14.3555L36.3601 14.3556C36.096 15.0638 35.832 15.772 35.5743 16.4827C34.0165 16.4933 32.458 16.4914 30.8997 16.4895H30.899H30.899C29.8166 16.4882 28.7343 16.4868 27.6523 16.4897C28.093 15.301 28.534 14.1127 28.9753 12.9247H30.7244C31.0425 12.0723 31.3596 11.2193 31.6766 10.3663L31.6767 10.366C32.0831 9.27269 32.4895 8.17923 32.8984 7.08672C32.5157 7.08072 32.1331 7.08272 31.7504 7.08472H31.7503C31.559 7.08572 31.3677 7.08672 31.1763 7.08672C31.6197 5.89338 32.0617 4.70172 32.5024 3.51172ZM46.1661 3.51465H41.8181C40.2094 7.83798 38.6021 12.1647 36.9961 16.4947H47.4331C47.8944 15.256 48.3554 14.017 48.8161 12.7776H42.7221C43.8721 9.69098 45.0201 6.60332 46.1661 3.51465Z" fill="#D1202F"/>
</svg>
