<svg width="111" height="20" viewBox="0 0 111 20" fill="none" xmlns="http://www.w3.org/2000/svg">
<path d="M8.46391 2.32598C8.74791 1.88798 8.86391 1.23698 9.35691 1.00098C9.81983 1.2113 10.2462 1.49419 10.6199 1.83898C12.4399 1.87598 14.4349 1.45498 16.0749 2.47098C16.7113 2.93417 17.1616 3.60914 17.3449 4.3746C17.5282 5.14005 17.4325 5.94578 17.0749 6.64698C16.3069 8.05291 15.0978 9.16718 13.6339 9.81797C12.9009 10.206 12.0859 10.408 11.3529 10.796C11.7169 11.2618 11.9706 11.8041 12.0949 12.3821C12.2193 12.96 12.2111 13.5586 12.0709 14.133C11.5191 15.089 10.6513 15.8227 9.61691 16.208C7.41348 17.1876 5.01442 17.6478 2.60491 17.553C2.37355 18.0514 2.11275 18.5355 1.82391 19.003C1.45191 18.58 0.477912 17.993 0.771912 17.419C0.546912 17.21 0.326905 17 0.103905 16.789C0.116678 16.0263 0.0832854 15.2636 0.00390625 14.505C0.695317 14.6723 1.4079 14.735 2.1179 14.691C2.63279 13.8889 3.06819 13.0386 3.41791 12.152C3.01791 12.16 2.61791 12.175 2.22391 12.187C2.22391 11.663 2.21591 11.14 2.21091 10.618C2.93491 10.382 3.70091 10.295 4.41091 10.018C4.76045 9.63822 5.03918 9.19896 5.23391 8.72098C5.76191 7.62098 6.38991 6.56598 6.84691 5.43098C5.14691 5.73098 3.54691 6.45698 1.82791 6.65498C2.25616 5.82402 2.73126 5.01805 3.25091 4.24097C3.41391 4.00697 3.56191 3.72198 3.86191 3.64098C5.36691 3.10698 6.92391 2.74098 8.46191 2.31898M8.76191 5.08498C8.12791 6.59298 7.19691 7.96598 6.68491 9.52398C9.01085 9.10297 11.2753 8.39385 13.4259 7.41298C14.0849 6.98298 15.0259 6.45297 14.8989 5.53197C14.9849 4.99197 14.3559 4.80597 13.9489 4.68497C12.2101 4.52441 10.4566 4.65966 8.76291 5.08498M6.34991 11.426C6.11341 11.4465 5.88721 11.5321 5.6964 11.6733C5.50558 11.8145 5.35762 12.0058 5.26891 12.226C4.85505 12.9394 4.51784 13.6946 4.26291 14.479C5.75527 14.3988 7.22022 14.0452 8.58491 13.436C9.03991 13.165 9.72391 12.869 9.69691 12.249C9.48929 11.883 9.17155 11.5919 8.78891 11.417C7.97623 11.3374 7.15748 11.3428 6.34591 11.433L6.34991 11.426Z" fill="#BD0912"/>
<path d="M22.2285 14.3616C22.2196 14.7647 22.1298 15.162 21.9644 15.5298C21.7989 15.8976 21.5613 16.2284 21.2655 16.5026C20.6162 17.0389 19.7896 17.3126 18.9485 17.2696C18.4494 17.2949 17.9514 17.2019 17.4951 16.9982C17.0387 16.7946 16.637 16.486 16.3225 16.0976C15.6459 15.1465 15.3153 13.9926 15.3855 12.8276C15.3094 11.6121 15.6478 10.4067 16.3455 9.40855C16.6701 9.00647 17.0854 8.68714 17.5574 8.47679C18.0294 8.26644 18.5445 8.17109 19.0605 8.19855C19.5443 8.17446 20.0266 8.26902 20.4655 8.47399C20.9044 8.67896 21.2865 8.98812 21.5785 9.37455C22.2289 10.3599 22.5409 11.5302 22.4675 12.7086C22.4675 12.8659 22.4675 12.9839 22.4675 13.0626C22.4675 13.1412 22.4639 13.2116 22.4565 13.2736L17.5245 13.2816C17.4935 13.8823 17.6178 14.4809 17.8855 15.0196C17.991 15.2021 18.1446 15.3521 18.3297 15.4532C18.5147 15.5543 18.7239 15.6025 18.9345 15.5926C19.2538 15.6104 19.5675 15.5027 19.8085 15.2926C20.0508 15.0376 20.208 14.7137 20.2585 14.3656L22.2285 14.3616ZM17.5795 11.6726H20.1985C20.2239 11.1792 20.1065 10.689 19.8605 10.2606C19.7547 10.1071 19.6111 9.98349 19.4437 9.90153C19.2763 9.81958 19.0906 9.78205 18.9045 9.79255C18.7205 9.79068 18.5389 9.83557 18.377 9.92302C18.215 10.0105 18.0779 10.1376 17.9785 10.2926C17.718 10.7057 17.5796 11.1841 17.5795 11.6726ZM29.2285 17.0726L29.1545 15.8336C28.918 16.262 28.578 16.6243 28.1655 16.8876C27.7709 17.1257 27.3174 17.2484 26.8565 17.2416C26.4061 17.245 25.9623 17.1333 25.5672 16.9172C25.172 16.7011 24.8386 16.3876 24.5985 16.0066C23.9786 15.0334 23.6757 13.892 23.7315 12.7396C23.6745 11.5896 23.9703 10.4496 24.5795 9.47255C24.8178 9.09334 25.1497 8.78184 25.5432 8.568C25.9368 8.35416 26.3787 8.24518 26.8265 8.25155C27.2899 8.24071 27.7475 8.3558 28.1505 8.58455C28.5556 8.83576 28.8906 9.18524 29.1245 9.60055V4.64355H31.3335V15.3336C31.3335 15.7722 31.3399 16.1279 31.3525 16.4006C31.3652 16.6732 31.3839 16.8996 31.4085 17.0796L29.2285 17.0726ZM25.9855 12.7596C25.948 13.4754 26.0885 14.1894 26.3945 14.8376C26.4949 15.0574 26.6562 15.2438 26.8593 15.3746C27.0625 15.5054 27.2989 15.5752 27.5405 15.5756C27.7896 15.5736 28.0332 15.5018 28.2436 15.3683C28.4539 15.2349 28.6226 15.0451 28.7305 14.8206C29.0539 14.1835 29.2053 13.4731 29.1695 12.7596C29.2053 12.0419 29.054 11.3272 28.7305 10.6856C28.6233 10.4602 28.4548 10.2695 28.2444 10.1353C28.034 10.0011 27.7901 9.92878 27.5405 9.92655C27.298 9.92752 27.0609 9.99841 26.8576 10.1307C26.6544 10.263 26.4936 10.4512 26.3945 10.6726C26.0891 11.3241 25.9486 12.0409 25.9855 12.7596ZM37.9475 17.0766C37.9429 17.0539 37.9379 17.0229 37.9325 16.9836C37.8879 16.5509 37.8605 16.1912 37.8505 15.9046C37.5739 16.3432 37.2046 16.7159 36.7685 16.9966C36.3655 17.2377 35.9032 17.3617 35.4335 17.3546C35.1019 17.3648 34.772 17.3013 34.4679 17.1687C34.1637 17.036 33.8927 16.8376 33.6745 16.5876C33.2064 16.0364 32.9632 15.329 32.9935 14.6066C32.9675 14.1642 33.0496 13.7222 33.2329 13.3188C33.4163 12.9154 33.6952 12.5628 34.0455 12.2916C34.9577 11.7 36.0367 11.4193 37.1215 11.4916C37.1762 11.4916 37.2592 11.4959 37.3705 11.5046C37.4819 11.5132 37.5675 11.5176 37.6275 11.5176C37.6275 11.4729 37.6299 11.4112 37.6345 11.3326C37.6392 11.2539 37.6415 11.1949 37.6415 11.1556C37.6717 10.7482 37.5823 10.3409 37.3845 9.98355C37.2915 9.85749 37.1678 9.75726 37.0252 9.69234C36.8825 9.62742 36.7257 9.59996 36.5695 9.61255C36.4299 9.60316 36.2899 9.62524 36.1599 9.67716C36.0299 9.72908 35.9133 9.80953 35.8185 9.91255C35.6228 10.1853 35.5178 10.5128 35.5185 10.8486L33.3095 10.8406C33.2865 10.4676 33.3486 10.0944 33.491 9.74892C33.6334 9.40349 33.8524 9.09493 34.1315 8.84655C34.8438 8.35356 35.7037 8.11989 36.5675 8.18456C37.0601 8.17649 37.5501 8.25641 38.0145 8.42056C38.4113 8.55975 38.7677 8.79429 39.0525 9.10355C39.3022 9.37312 39.4845 9.69798 39.5845 10.0516C39.7074 10.6233 39.7585 11.2082 39.7365 11.7926V14.4396C39.7365 14.6476 39.7465 14.9526 39.7665 15.3546C39.7865 15.7566 39.8162 16.3312 39.8555 17.0786L37.9475 17.0766ZM37.6125 12.9206L37.3675 12.9126C36.7929 12.8761 36.2208 13.0156 35.7275 13.3126C35.5434 13.4388 35.3945 13.61 35.295 13.8098C35.1954 14.0096 35.1485 14.2315 35.1585 14.4546C35.1469 14.7561 35.2547 15.05 35.4585 15.2726C35.5554 15.3771 35.6735 15.4598 35.8049 15.515C35.9363 15.5701 36.078 15.5966 36.2205 15.5926C36.4291 15.5995 36.6357 15.5504 36.8188 15.4503C37.0019 15.3503 37.1548 15.2029 37.2615 15.0236C37.5343 14.5218 37.6607 13.9536 37.6265 13.3836C37.6265 13.2656 37.6265 13.1742 37.6265 13.1096C37.6265 13.0449 37.6219 12.9816 37.6125 12.9196V12.9206ZM41.7185 17.0766V11.0986C41.7185 10.6099 41.7112 10.1406 41.6965 9.69055C41.6819 9.24055 41.6595 8.81322 41.6295 8.40855H43.6675L43.7495 9.95955C43.9135 9.46366 44.2397 9.03743 44.6755 8.74955C45.1517 8.46279 45.701 8.32068 46.2565 8.34055H46.3235L46.3165 10.6166L46.0165 10.5916C45.9499 10.5862 45.8892 10.5836 45.8345 10.5836C45.5865 10.5693 45.3381 10.6046 45.1038 10.6871C44.8695 10.7697 44.6539 10.898 44.4695 11.0646C44.2995 11.2404 44.1678 11.4495 44.0826 11.6787C43.9974 11.908 43.9606 12.1524 43.9745 12.3966V17.0756L41.7185 17.0766ZM52.7425 17.0766L52.6685 15.8376C52.432 16.266 52.092 16.6283 51.6795 16.8916C51.2849 17.1297 50.8314 17.2524 50.3705 17.2456C49.9201 17.249 49.4763 17.1373 49.0812 16.9212C48.686 16.7051 48.3526 16.3916 48.1125 16.0106C47.4926 15.0374 47.1897 13.896 47.2455 12.7436C47.1885 11.5936 47.4843 10.4536 48.0935 9.47655C48.3313 9.0966 48.663 8.7843 49.0566 8.56974C49.4501 8.35519 49.8923 8.2456 50.3405 8.25155C50.8039 8.24071 51.2615 8.3558 51.6645 8.58455C52.0696 8.83576 52.4046 9.18524 52.6385 9.60055V4.64355H54.8475V15.3336C54.8475 15.7722 54.8539 16.1279 54.8665 16.4006C54.8792 16.6732 54.8979 16.8996 54.9225 17.0796L52.7425 17.0766ZM49.4995 12.7596C49.462 13.4754 49.6025 14.1894 49.9085 14.8376C50.0089 15.0574 50.1702 15.2438 50.3733 15.3746C50.5765 15.5054 50.8129 15.5752 51.0545 15.5756C51.3036 15.5736 51.5472 15.5018 51.7576 15.3683C51.9679 15.2349 52.1366 15.0451 52.2445 14.8206C52.5679 14.1835 52.7192 13.4731 52.6835 12.7596C52.7193 12.0419 52.568 11.3272 52.2445 10.6856C52.1373 10.4602 51.9688 10.2695 51.7584 10.1353C51.548 10.0011 51.3041 9.92878 51.0545 9.92655C50.812 9.92752 50.5749 9.99841 50.3716 10.1307C50.1684 10.263 50.0076 10.4512 49.9085 10.6726C49.6031 11.3241 49.4626 12.0409 49.4995 12.7596Z" fill="black"/>
</svg>
