<svg xmlns="http://www.w3.org/2000/svg" width="110" height="20" viewBox="0 0 110 20">
  <g id="Truck_-_Vanguard" data-name="Truck - Vanguard" transform="translate(-353.877 -10768)">
    <rect id="Rectangle_63519" data-name="Rectangle 63519" width="110" height="20" transform="translate(353.877 10768)" fill="#2267ad" opacity="0"/>
    <path id="Union_712" data-name="Union 712" d="M9.978,18.315q-1.918-.021-3.838,0c-.273,0-.353-.073-.362-.353-.071-2.18-.161-4.359-.248-6.538q-.083-2.1-.172-4.2C5.32,6.3,5.273,5.376,5.252,4.454c-.007-.286-.116-.35-.379-.348-1.5.01-3,.005-4.5,0C.26,4.109.149,4.1,0,4.093c.062-.114.1-.191.143-.26.4-.622.807-1.241,1.2-1.866a.415.415,0,0,1,.4-.214c1.259,0,2.519-.007,3.779-.017,1.009-.009,2.018-.024,3.028-.035.105,0,.21,0,.35,0q.176,4.8.35,9.574l.09.01c.124-.318.249-.636.372-.955Q11.649,5.322,13.578.311C13.685.03,13.846,0,14.1,0l16.43,0h.8l18.4,0,.047,0H73.67L73,2.825s-.125.242-.3.223a1.591,1.591,0,0,0-.173,0l-52.4,0c-1.135,0-2.27.018-3.4,0a.484.484,0,0,0-.535.381Q13.34,10.705,10.481,17.98a.447.447,0,0,1-.489.335ZM31.7,16.935c-.91-.179-1.2-.645-1-1.674.324-1.654.748-3.288,1.136-4.929.234-.988.481-1.973.722-2.96.023-.093.051-.185.078-.277A2.143,2.143,0,0,1,34.676,5.4a15.868,15.868,0,0,1,3.821.05c.817.131,1.118.453,1.022,1.268s-.308,1.616-.48,2.42a.237.237,0,0,1-.18.134c-.931.009-1.862.006-2.838.006.13-.553.245-1.055.367-1.556.056-.23.088-.445-.2-.549a.489.489,0,0,0-.649.316c-.134.429-.235.869-.34,1.306q-.685,2.851-1.363,5.7a.614.614,0,0,0-.032.11c-.005.2-.089.443.2.528a.524.524,0,0,0,.664-.311c.171-.637.317-1.281.48-1.955l-.55-.026c.136-.578.263-1.136.406-1.69a.251.251,0,0,1,.2-.122c1.1,0,2.191,0,3.287.006.017,0,.034.016.079.039-.149.633-.3,1.273-.451,1.912-.3,1.239-.607,2.475-.9,3.716-.048.208-.135.275-.33.248a.578.578,0,0,0-.144,0c-.568.068-1.072.025-1.214-.674,0-.022-.04-.037,0,0a10.67,10.67,0,0,1-1.5.633,4.656,4.656,0,0,1-1.166.143A6.119,6.119,0,0,1,31.7,16.935Zm7.937-.088c-.673-.125-1-.448-.851-1.28.261-1.47.622-2.923.962-4.378.424-1.81.875-3.614,1.3-5.424.066-.281.157-.4.466-.385.759.025,1.52.008,2.279.008h.354L43.128,9.611q-.6,2.5-1.2,5c-.055.229-.094.449.2.539a.5.5,0,0,0,.661-.34c.145-.537.268-1.079.4-1.619q.9-3.745,1.8-7.493c.056-.237.146-.328.4-.322.548.012,1.1.01,1.646.008h.72c.093,0,.186.008.316.013-.142.589-.278,1.144-.412,1.7-.616,2.563-1.226,5.127-1.853,7.686a6.033,6.033,0,0,1-.412,1.1,1.609,1.609,0,0,1-1.207.936,12.9,12.9,0,0,1-2.363.223A11.942,11.942,0,0,1,39.632,16.847Zm-11.007.118c-.806-.022-1.613-.008-2.448-.008-.051-1.863-.1-3.683-.15-5.5l-.063-.013a2.212,2.212,0,0,0-.077.221c-.4,1.668-.808,3.335-1.2,5-.049.206-.118.3-.355.3-.464-.013-.927-.011-1.391-.009l-.6,0c-.084,0-.168-.009-.288-.015.067-.3.125-.579.191-.855q1.241-5.187,2.48-10.374c.059-.248.157-.34.423-.332.493.015.987.012,1.48.01.218,0,.436,0,.654,0,.1,0,.206.009.365.017v5.72l.1.019c.028-.087.062-.172.083-.26.422-1.741.846-3.482,1.256-5.227a.293.293,0,0,1,.349-.273c.748.011,1.5,0,2.293,0-.034.181-.055.327-.089.469q-1.289,5.382-2.575,10.765c-.06.253-.157.343-.409.343Zm28.518,0c-.778-.021-1.557-.007-2.336-.007H54.5c.237-1,.464-1.957.693-2.914Q56.2,9.85,57.2,5.657a.293.293,0,0,1,.347-.274c.505,0,1.011,0,1.516,0,.851,0,1.7,0,2.551.019a7.635,7.635,0,0,1,1.472.224.829.829,0,0,1,.68.881,4.673,4.673,0,0,1-.075,1c-.164.738-.35,1.472-.568,2.2a2.086,2.086,0,0,1-1.494,1.5,1.054,1.054,0,0,0-.169.084.76.76,0,0,0,.139.09,1.075,1.075,0,0,1,.8,1.461c-.267,1.314-.605,2.613-.924,3.916-.019.076-.125.185-.192.185-.923.01-1.846.005-2.769,0-.017,0-.033-.016-.076-.038.153-.644.305-1.295.461-1.945s.318-1.3.474-1.955c.114-.475-.044-.668-.53-.673a.247.247,0,0,0-.293.228c-.316,1.353-.654,2.7-.966,4.054-.059.256-.156.343-.407.343Zm2.973-9.787a.465.465,0,0,0-.3.182,1.29,1.29,0,0,0-.168.53c-.139.719-.307,1.431-.485,2.142a.222.222,0,0,0,.1.19.69.69,0,0,0,.884-.453q.248-.987.472-1.98c.036-.158.078-.366-.053-.493a.505.505,0,0,0-.232-.108.521.521,0,0,0-.214-.009ZM16.262,16.962c-.826-.014-1.652-.006-2.524-.006.047-.13.079-.226.116-.319Q16.032,11.169,18.206,5.7a.412.412,0,0,1,.456-.318c.98.018,1.962.007,2.943.007h.35c0,.208.012.4,0,.583q-.133,1.708-.276,3.416c-.088,1.071-.179,2.142-.266,3.214s-.169,2.144-.252,3.216c-.024.306-.029.615-.071.918-.011.082-.125.213-.194.214-.856.013-1.712.006-2.567,0-.016,0-.033-.018-.076-.042.1-.725.194-1.463.3-2.249-.411,0-.792-.011-1.171.011-.062,0-.137.145-.169.236-.21.6-.415,1.2-.609,1.8-.056.174-.127.26-.326.26Zm2.356-4.128c.171.005.252-.044.277-.237.12-.939.261-1.877.392-2.815.058-.412.109-.825.163-1.238l-.08-.021-1.485,4.308.467,0C18.443,12.83,18.531,12.831,18.618,12.834Zm45.718,4.121c-.515,0-1.031-.01-1.546,0-.017,0-.033-.016-.075-.038.151-.635.3-1.277.455-1.918q1.117-4.654,2.23-9.309c.053-.223.136-.309.38-.306,1.327.016,2.654,0,3.981.019a6.958,6.958,0,0,1,1.229.13A1.076,1.076,0,0,1,71.978,7c-.259,1.257-.551,2.507-.844,3.756-.313,1.334-.643,2.664-.969,4-.043.176-.105.348-.158.522a2.1,2.1,0,0,1-1.946,1.572,24.651,24.651,0,0,1-2.673.118C65.037,16.961,64.686,16.958,64.336,16.955Zm3.631-9.431q-.765,3.2-1.537,6.394c-.093.388-.179.777-.271,1.181.712.12.94-.032,1.088-.662q.414-1.761.833-3.521c.253-1.061.512-2.121.762-3.183.072-.308-.012-.5-.246-.517-.2-.017-.318-.039-.4-.039C68.054,7.176,68.034,7.243,67.966,7.524ZM46.209,16.957c.037-.122.061-.221.1-.314q2.19-5.494,4.378-10.989a.361.361,0,0,1,.4-.272c.716.008,1.432.007,2.147.006h.94c.084,0,.169.01.28.017-.309,3.862-.615,7.686-.923,11.531H50.708c.1-.757.194-1.5.295-2.283-.4,0-.757-.013-1.108.01-.077.005-.182.125-.214.214-.223.623-.426,1.253-.651,1.875a.331.331,0,0,1-.222.2c-.5.008-1.008.01-1.519.01Zm4.754-4.119c.316.046.385-.119.419-.386.119-.939.256-1.877.383-2.815.049-.357.092-.715.137-1.072l-.087-.012-1.472,4.28c.153,0,.284-.008.406-.008A1.48,1.48,0,0,1,50.963,12.838Z" transform="translate(353.877 10768.843)" fill="#2267ad"/>
  </g>
</svg>
