<svg width="111" height="20" viewBox="0 0 111 20" fill="none" xmlns="http://www.w3.org/2000/svg">
<path fill-rule="evenodd" clip-rule="evenodd" d="M50.8038 4.19138C49.818 4.44006 48.9093 4.92964 48.1594 5.61617C47.3357 6.41005 46.7206 7.39492 46.3687 8.48344C46.3311 7.72465 46.3349 6.96375 46.3388 6.20191V6.20186V6.20181V6.20176V6.20171V6.20165V6.20158V6.20151V6.20144C46.3418 5.58962 46.3449 4.97718 46.3265 4.36475C45.3766 4.35591 44.4278 4.35787 43.4779 4.36475C43.4601 5.21191 43.4662 6.05978 43.4723 6.90768V6.90787C43.4807 8.07139 43.4891 9.23497 43.4357 10.3969C42.562 9.25989 41.7188 8.09956 40.8756 6.93914C40.2502 6.07855 39.6248 5.21791 38.9869 4.36671C38.7217 4.36671 38.4564 4.36595 38.1911 4.36518C37.6604 4.36366 37.1297 4.36213 36.6 4.36671L36.5969 5.96229C36.5904 9.26132 36.5839 12.5603 36.6 15.8594C37.2398 15.8633 37.8795 15.862 38.5193 15.8607C38.8392 15.86 39.1591 15.8594 39.479 15.8594C39.4881 15.0199 39.485 14.1803 39.4819 13.3408V13.3407V13.3407V13.3406V13.3405V13.3402C39.4776 12.1887 39.4734 11.0371 39.5006 9.88515C39.8427 10.2899 40.1491 10.7226 40.455 11.1547L40.4552 11.155L40.4555 11.1553L40.4557 11.1556L40.4558 11.1558C40.5713 11.3189 40.6868 11.482 40.8041 11.6434C41.2901 12.3421 41.7894 13.0318 42.2885 13.7214C42.8014 14.4299 43.3141 15.1381 43.8119 15.8554C44.6507 15.8761 45.4896 15.8692 46.3285 15.8554C46.3472 15.2349 46.3427 14.6138 46.3381 13.9927C46.3321 13.1843 46.3261 12.3759 46.3717 11.5688C46.6615 12.3577 47.0652 13.1 47.57 13.772C48.3965 14.7747 49.5206 15.4884 50.7796 15.8098C52.0386 16.1312 53.3673 16.0436 54.5732 15.5598C55.7792 15.0759 56.7999 14.2209 57.4876 13.1184C58.1753 12.016 58.4944 10.7233 58.3987 9.42741C56.1558 9.41169 53.9139 9.41169 51.673 9.42741V11.7407C52.1561 11.7536 52.6391 11.7526 53.1223 11.7517C53.6658 11.7506 54.2095 11.7495 54.7535 11.7682C54.4746 12.1452 54.1109 12.4512 53.6918 12.6615C53.2727 12.8717 52.8099 12.9803 52.341 12.9783C51.7718 12.9847 51.2124 12.83 50.7273 12.5321C50.2422 12.2342 49.8512 11.8052 49.5994 11.2947C49.2765 10.6339 49.2144 9.8756 49.4256 9.17103C49.5967 8.60355 49.9319 8.09937 50.389 7.722C50.8461 7.34463 51.4046 7.11092 51.9942 7.05029C52.7634 6.95991 53.5373 7.17429 54.1503 7.64752C54.2154 7.6958 54.2787 7.75112 54.3425 7.80691C54.5513 7.98949 54.7659 8.17703 55.0668 8.13866C55.4086 8.137 55.7505 8.13814 56.0924 8.13929C56.7628 8.14153 57.4334 8.14377 58.104 8.12491C57.7695 7.16481 57.2018 6.30279 56.4519 5.61625C55.702 4.9297 54.7934 4.4401 53.8076 4.19141C52.8218 3.94272 51.7896 3.94271 50.8038 4.19138ZM3.02146 4.3018C2.01659 4.27626 1.00976 4.27233 0.00390625 4.3018L0.0148961 4.35304C0.153631 4.99993 0.292104 5.64559 0.455753 6.27913C1.27589 8.95329 2.00939 11.6549 2.74273 14.356C2.87542 14.8447 3.00811 15.3334 3.1413 15.822C3.80491 15.8514 4.46904 15.8467 5.13292 15.8421H5.13294H5.13295H5.13296H5.13298H5.13307H5.13317H5.13327H5.13337C5.37833 15.8404 5.62325 15.8387 5.8681 15.8387C6.15017 15.0237 6.39856 14.1968 6.64681 13.3703C6.97519 12.2771 7.30334 11.1846 7.70889 10.1218C7.90629 10.6157 8.06088 11.1253 8.2155 11.6351L8.21551 11.6351C8.25401 11.762 8.2925 11.889 8.33166 12.0156C8.47043 12.5017 8.62151 12.9845 8.77261 13.4673C9.01725 14.249 9.26191 15.0308 9.4544 15.8269C10.3777 15.8554 11.3021 15.8524 12.2244 15.8269C12.5804 14.5302 12.9282 13.2313 13.2761 11.9323C13.5885 10.7655 13.901 9.59861 14.2194 8.43326C14.3665 7.85973 14.5288 7.28858 14.6912 6.71683L14.6912 6.71682L14.6912 6.71681L14.6912 6.71681L14.6912 6.7168L14.6913 6.71674L14.6913 6.71672L14.6913 6.7167C14.9183 5.9176 15.1457 5.11732 15.3324 4.3077C14.6997 4.34568 14.0662 4.33301 13.4329 4.32035C13.1164 4.31402 12.8 4.3077 12.4837 4.3077C12.3379 4.49589 12.2371 4.71497 12.1891 4.94814C12.1027 5.26314 12.017 5.57846 11.9313 5.89387L11.9312 5.89428L11.9311 5.89462L11.931 5.89484L11.931 5.89502L11.931 5.89506L11.931 5.89509L11.931 5.89512C11.5255 7.38709 11.1196 8.88092 10.638 10.3507C10.4116 9.76225 10.2268 9.15862 10.085 8.54426C9.8394 7.66782 9.61042 6.78683 9.38141 5.90577L9.3814 5.90574L9.38139 5.90569L9.38138 5.90565L9.38137 5.90561L9.38136 5.90558C9.24131 5.36675 9.10125 4.82789 8.95737 4.29002C8.11916 4.28216 7.28029 4.28216 6.44077 4.29002C6.19148 5.07298 5.9817 5.86713 5.77194 6.6612L5.77193 6.66123L5.77193 6.66124L5.77193 6.66124L5.77193 6.66125L5.77192 6.66125C5.64116 7.15627 5.51041 7.65126 5.37009 8.14349C5.19481 8.88471 4.9807 9.6162 4.72866 10.335C4.52883 9.77667 4.35898 9.2081 4.21984 8.63168C4.02155 7.86948 3.80642 7.11216 3.5913 6.35488L3.59129 6.35487L3.59129 6.35486L3.59129 6.35484L3.59129 6.35483C3.39722 5.67165 3.20315 4.98849 3.02146 4.3018ZM17.5939 4.34446C17.9482 4.34767 18.303 4.34788 18.6579 4.3481C19.0635 4.34834 19.4693 4.34858 19.8747 4.3533C20.7345 6.58604 21.6281 8.80587 22.5218 11.026L22.522 11.0265L22.5222 11.027L22.5224 11.0277C23.1682 12.6319 23.814 14.2363 24.4472 15.846C23.4237 15.863 22.4002 15.863 21.3766 15.846C21.1788 15.2982 20.9525 14.7612 20.6989 14.237C20.4711 14.1864 20.2375 14.1662 20.0044 14.1771C18.9455 14.1836 17.8863 14.1836 16.8267 14.1771C16.6161 14.7409 16.3676 15.2899 16.0831 15.8204C15.4295 15.8842 14.7705 15.8714 14.112 15.8586H14.112H14.1119H14.1119C13.7561 15.8516 13.4005 15.8447 13.0459 15.8499C13.602 14.4359 14.1627 13.0237 14.7233 11.6114C15.4383 9.81035 16.1534 8.00913 16.8592 6.20391C16.9395 6.00027 17.0162 5.79526 17.0928 5.59029C17.2494 5.1714 17.4059 4.75271 17.5939 4.34642V4.34446ZM17.5998 11.85C18.3493 11.8805 19.1007 11.8766 19.8512 11.8628C19.5775 10.9524 19.2255 10.0666 18.8746 9.1836L18.8746 9.18354L18.8746 9.18342L18.8744 9.18298L18.8742 9.18253L18.874 9.18208C18.8284 9.06716 18.7827 8.95228 18.7373 8.8374C18.318 9.80357 17.969 10.804 17.622 11.7984L17.622 11.7984L17.6047 11.8481L17.5998 11.85ZM27.1186 4.36338C26.4796 4.3636 25.8408 4.36383 25.2024 4.35309C25.1796 5.20576 25.1858 6.05885 25.1921 6.91181V6.9119V6.91216V6.91223V6.91231C25.1955 7.38079 25.1989 7.84924 25.1975 8.31757C25.2019 9.43127 25.1985 10.5446 25.1951 11.6579C25.1908 13.0494 25.1866 14.4409 25.1975 15.833C27.3847 15.8376 29.5716 15.8376 31.7581 15.833C31.7581 15.5665 31.7596 15.2999 31.761 15.0334C31.7638 14.5003 31.7667 13.9673 31.7581 13.4343C31.0947 13.4188 30.4317 13.4207 29.7685 13.4225C29.2475 13.424 28.7265 13.4255 28.2052 13.4185C28.1623 11.4794 28.1705 9.53905 28.1787 7.59879V7.59862V7.59857V7.59853C28.1833 6.52055 28.1879 5.44259 28.1836 4.36488C27.8286 4.36313 27.4736 4.36325 27.1186 4.36338ZM32.5234 4.35423C33.1887 4.34965 33.8535 4.35117 34.5185 4.3527C34.8511 4.35347 35.1837 4.35423 35.5164 4.35423C35.5164 5.44836 35.5175 6.5432 35.5186 7.63847V7.63974V7.64026C35.5214 10.3793 35.5242 13.121 35.5095 15.8606C34.5082 15.8698 33.508 15.8698 32.5087 15.8606C32.4924 13.8751 32.4961 11.8902 32.4998 9.90543V9.9054C32.5021 8.65587 32.5044 7.40636 32.5018 6.15671L32.4996 5.91876V5.91857C32.4944 5.39552 32.4893 4.87451 32.5234 4.35423ZM63.8031 4.3683C63.0501 4.32145 62.2945 4.33623 61.5439 4.41251L61.5429 4.40858C61.1816 5.2297 60.8572 6.06624 60.5327 6.90303C60.3199 7.45165 60.1071 8.00038 59.8838 8.54495C59.6655 9.09557 59.4468 9.64605 59.2281 10.1965C58.4824 12.0736 57.7366 13.9508 57.0067 15.8344C57.7282 15.8545 58.4493 15.8502 59.1702 15.8459C59.4729 15.8441 59.7756 15.8423 60.0783 15.8423C60.1724 15.6301 60.2574 15.414 60.3424 15.1979C60.4623 14.8929 60.5822 14.588 60.7276 14.2942C60.7684 14.1806 60.8885 14.1777 60.9995 14.175C61.0383 14.174 61.076 14.1731 61.1087 14.1675C61.4133 14.1675 61.7177 14.169 62.022 14.1706C62.6303 14.1736 63.2384 14.1767 63.8473 14.1675C64.1189 14.1517 64.3914 14.1692 64.6587 14.2196C64.8413 14.5626 64.977 14.9262 65.1127 15.2901C65.1822 15.4763 65.2518 15.6626 65.3276 15.8462C66.3511 15.86 67.3756 15.8551 68.4002 15.8462C68.2812 15.5475 68.1623 15.2488 68.0434 14.9501C66.638 11.4197 65.2322 7.88858 63.8031 4.3683ZM63.8248 11.8503C63.0753 11.8926 62.3199 11.8857 61.5655 11.8562C61.8729 10.8759 62.2393 9.91032 62.6322 8.96045L62.7442 8.91232C63.1175 9.88871 63.4777 10.868 63.8248 11.8503Z" fill="#00568D"/>
</svg>
