<svg width="111" height="20" viewBox="0 0 111 20" fill="none" xmlns="http://www.w3.org/2000/svg">
<path fill-rule="evenodd" clip-rule="evenodd" d="M49.6507 4.80687C50.2996 3.84987 51.6356 3.88888 52.6266 4.18788C52.79 4.25066 52.9341 4.35522 53.0444 4.49112C53.1547 4.62701 53.2274 4.78947 53.2552 4.96226C53.283 5.13506 53.265 5.31214 53.203 5.4758C53.1409 5.63945 53.037 5.78396 52.9016 5.89488C52.0305 6.25703 51.057 6.28796 50.1646 5.98187L49.7646 5.49588L49.531 5.86868L49.5308 5.86898L49.5306 5.86932C48.618 7.32572 47.7062 8.78086 46.7646 10.2199C47.2816 11.0032 47.7791 11.8002 48.2767 12.5974L48.2768 12.5975L48.2769 12.5976L48.277 12.5978C48.846 13.5093 49.4152 14.421 50.0136 15.3129C49.9779 13.6841 49.9821 12.0552 49.9863 10.4269V10.4268V10.4266V10.4264C49.9896 9.14183 49.993 7.85756 49.9767 6.57388C50.9684 6.86528 52.0229 6.86528 53.0146 6.57388C52.9705 8.99495 52.9811 11.4179 52.9916 13.8398V13.8401V13.8408V13.8415V13.8421C52.9943 14.4395 52.9969 15.0367 52.9986 15.6339C51.8187 15.6419 50.6388 15.6407 49.4589 15.6396C48.5738 15.6387 47.6887 15.6379 46.8036 15.6409C46.3765 14.9442 45.9761 14.2313 45.5761 13.5191L45.576 13.519L45.5759 13.5189C45.1078 12.6855 44.6402 11.8529 44.1306 11.0479C44.1418 12.1122 44.1452 13.177 44.1486 14.2415V14.2418V14.242V14.2423C44.15 14.7079 44.1515 15.1734 44.1537 15.6389C43.8987 15.6389 43.6437 15.6393 43.3888 15.6397C42.6251 15.6411 41.8617 15.6424 41.0977 15.6319C41.1227 12.0249 41.1317 8.41587 41.0977 4.80987C42.1187 4.79887 43.1396 4.80287 44.1606 4.80987C44.1493 6.42521 44.1447 8.04188 44.1467 9.65988C44.5575 8.97821 44.9297 8.27169 45.3018 7.56548L45.3018 7.56544C45.7938 6.63167 46.2855 5.69844 46.8656 4.82388C47.4543 4.79404 48.0438 4.79927 48.6335 4.8045C48.9725 4.80751 49.3116 4.81052 49.6507 4.80687ZM28.1223 4.16186C28.8967 3.91253 29.7354 3.95412 30.4813 4.27885C30.6294 4.36702 30.7513 4.4931 30.8345 4.6441C30.9176 4.7951 30.959 4.96554 30.9543 5.13784C30.9496 5.31015 30.899 5.4781 30.8078 5.62436C30.7166 5.77061 30.588 5.88987 30.4353 5.96986C29.5967 6.27918 28.6735 6.2685 27.8423 5.93986C27.684 5.83528 27.5591 5.68737 27.4825 5.51377C27.406 5.34018 27.381 5.14823 27.4105 4.96081C27.44 4.77339 27.5228 4.59841 27.649 4.45675C27.7752 4.31509 27.9395 4.21272 28.1223 4.16186ZM69.4717 4.60853C68.4721 4.42865 67.4425 4.51953 66.4898 4.87175C65.3076 5.36721 64.336 6.26089 63.7438 7.39775C63.8168 6.53879 63.8168 5.67884 63.8168 4.82089V4.82075C62.8988 4.81375 61.9838 4.81175 61.0658 4.82075C61.0929 6.33151 61.0912 7.84358 61.0895 9.35552V9.3561C61.0886 10.1347 61.0878 10.9134 61.0908 11.6918C60.4918 10.3984 59.9228 9.09313 59.354 7.78819L59.3539 7.78808C58.9209 6.79464 58.4879 5.80139 58.0418 4.81375C57.5649 4.81375 57.0884 4.81275 56.612 4.81175H56.6119C55.6599 4.80975 54.7089 4.80775 53.7578 4.81375C53.7848 8.42275 53.7788 12.0317 53.7578 15.6407C54.373 15.6454 54.9887 15.6439 55.6048 15.6423C55.913 15.6415 56.2214 15.6407 56.5298 15.6407C56.5238 13.1954 56.5208 10.7498 56.5208 8.30376C57.1645 9.56931 57.7876 10.8454 58.4109 12.1218L58.4112 12.1224C58.9856 13.2987 59.56 14.4751 60.1508 15.6438H63.8098C63.8188 14.7928 63.8068 13.9417 63.7428 13.0927C64.1688 13.9059 64.7728 14.6125 65.5098 15.1597C66.7083 15.8628 68.1255 16.0952 69.4858 15.8118C70.1618 15.7049 70.7999 15.4297 71.3417 15.0115C71.8834 14.5933 72.3112 14.0456 72.5858 13.4187C72.6108 12.817 72.6066 12.2171 72.6023 11.6179C72.5987 11.1158 72.5951 10.6143 72.6088 10.1127H69.6088C69.6228 11.1517 69.6228 12.1937 69.6228 13.2377C69.2088 13.4665 68.7342 13.5614 68.2641 13.5092C67.794 13.4571 67.3516 13.2606 66.9978 12.9467C66.6101 12.4096 66.3528 11.7895 66.2464 11.1356C66.14 10.4818 66.1874 9.81212 66.3848 9.17975C66.5354 8.59867 66.8881 8.09023 67.3795 7.74554C67.871 7.40086 68.4692 7.24247 69.0668 7.29875C69.6821 7.31911 70.2845 7.48098 70.8271 7.77182C71.3698 8.06265 71.8381 8.47463 72.1958 8.97575C72.1568 7.94831 72.1658 6.92386 72.1748 5.89642L72.1748 5.89474C71.4047 5.23251 70.4714 4.78842 69.4717 4.60853ZM1.00491 4.80664H14.9179C16.0009 4.83164 17.3179 5.12564 17.8069 6.21564C18.1229 6.91075 18.2059 7.6893 18.0438 8.43542C17.8816 9.18155 17.4829 9.85538 16.9069 10.3566C16.3917 10.6929 15.8058 10.9057 15.1949 10.9786C15.6078 11.5429 15.9999 12.1222 16.392 12.7015L16.3921 12.7016C16.7303 13.2012 17.0684 13.7007 17.4199 14.1906C17.9765 12.323 18.5484 10.4603 19.1203 8.59754L19.1204 8.5973C19.5081 7.33432 19.8959 6.0713 20.2789 4.80664H25.1839C25.8806 7.081 26.5549 9.36302 27.2297 11.6463L27.2297 11.6464C27.3637 12.0998 27.4977 12.5532 27.6319 13.0066C27.7082 11.5479 27.6903 10.0841 27.6724 8.62156V8.62154L27.6724 8.62125C27.664 7.93723 27.6556 7.25349 27.6569 6.57065C28.6517 6.8694 29.7129 6.86626 30.7059 6.56165C30.6586 9.54231 30.6773 12.5249 30.6961 15.5056V15.5058L30.6969 15.6356C28.8319 15.6466 26.9689 15.6426 25.1029 15.6356C24.8849 14.8606 24.6559 14.0896 24.4259 13.3186H20.8399C20.7313 13.6981 20.6267 14.0791 20.5219 14.4603L20.5218 14.4607C20.4143 14.8519 20.3068 15.2433 20.1949 15.6336C19.0248 15.6396 17.8546 15.6376 16.6851 15.6356H16.6846C16.1002 15.6346 15.5159 15.6336 14.9319 15.6336C14.5479 15.0089 14.1781 14.3755 13.8081 13.742L13.8081 13.742L13.8081 13.742C13.336 12.9335 12.8637 12.1247 12.3619 11.3336C12.4207 12.3846 12.4179 13.4372 12.4151 14.4903V14.4903V14.4906C12.4141 14.8693 12.4131 15.248 12.4149 15.6266C11.7743 15.6313 11.1334 15.6298 10.4919 15.6282C10.171 15.6274 9.85002 15.6266 9.52891 15.6266C9.54109 14.3424 9.53974 13.0586 9.53839 11.7755V11.7755C9.53697 10.425 9.53555 9.07529 9.54991 7.72664C8.94995 7.72197 8.34645 7.72353 7.74293 7.72508H7.74279C7.44102 7.72586 7.13924 7.72664 6.83791 7.72664C6.84544 8.82929 6.84351 9.9323 6.84159 11.0351V11.0351C6.83891 12.5666 6.83623 14.0976 6.85891 15.6266C6.18556 15.634 5.51178 15.6315 4.83814 15.6291H4.83806C4.50128 15.6279 4.16454 15.6266 3.82791 15.6266C3.83724 14.456 3.83551 13.2853 3.83378 12.1147C3.83162 10.6517 3.82946 9.18884 3.84891 7.72664C3.34701 7.72187 2.84399 7.72215 2.34149 7.72243H2.34143H2.34134C1.89475 7.72268 1.44855 7.72293 1.00391 7.71964V4.80664H1.00491ZM21.5309 10.8196C22.2559 10.8286 22.9829 10.8266 23.7079 10.8196C23.3389 9.48164 23.0079 8.13565 22.7079 6.77965C22.4809 7.477 22.2847 8.18365 22.0886 8.89031C21.9099 9.53444 21.7311 10.1786 21.5289 10.8156L21.5309 10.8196ZM12.4132 9.0466V9.04666C12.4133 9.19841 12.4135 9.35012 12.4139 9.50165C13.0929 9.54604 13.7746 9.53064 14.4509 9.45564C14.6374 9.39318 14.8041 9.2825 14.934 9.13483C15.0639 8.98716 15.1524 8.80776 15.1906 8.61482C15.2288 8.42189 15.2152 8.22227 15.1514 8.03625C15.0875 7.85024 14.9756 7.68442 14.8269 7.55563C14.0338 7.36103 13.2132 7.3042 12.4009 7.38763L12.3979 7.38364C12.412 7.93359 12.4126 8.49034 12.4132 9.0466ZM34.3944 4.81462C33.3844 4.80762 32.3744 4.80762 31.3654 4.80762C31.3643 6.09817 31.3651 7.38847 31.366 8.67856C31.3675 11.0002 31.369 13.3211 31.3594 15.6416H38.1964C38.1874 14.7566 38.1894 13.8726 38.1964 12.9896H34.3714C34.3776 11.9253 34.3752 10.861 34.3727 9.79687C34.3689 8.13546 34.3651 6.47448 34.3944 4.81462Z" fill="black"/>
</svg>
