<svg xmlns="http://www.w3.org/2000/svg" width="110" height="20" viewBox="0 0 110 20">
  <g id="Trailer_-_Hyundai" data-name="Trailer - Hyundai" transform="translate(-353.877 -10208)">
    <rect id="Rectangle_63505" data-name="Rectangle 63505" width="110" height="20" transform="translate(353.877 10208)" fill="#2267ad" opacity="0"/>
    <path id="Path_36997" data-name="Path 36997" d="M551.948,496.957H547.9c-.679.04-.869.209-.869,1.033v2.272h4.914Zm2.154-1.819v9.908h-2.154V502.2h-4.914v2.848H544.88v-7.767c0-1.373.556-2.141,2.154-2.141Zm-11.374,2.139v5.362c0,1.707-.959,2.405-2.154,2.405H533.78v-9.907h6.793a1.9,1.9,0,0,1,2.154,2.14m-2.18.6a.85.85,0,0,0-.91-.917h-3.7v6.19h3.7c.844-.043.91-.549.91-.95Zm-50.67-2.737h2.154v3.905h4.819v-3.905H499v9.907h-2.154V501h-4.819v4.043h-2.154Zm12.817,0,2.7,4.05,2.667-4.05h2.615l-4.207,6.334v3.573h-2.154v-3.574l-4.236-6.333Zm20.073,0h6.94c.989,0,1.947.139,1.919,2.14v7.767h-2.154v-7.055c0-.853-.1-1.033-.772-1.033h-3.78v8.088h-2.154Zm35.642,9.909h-2.154v-9.907h2.154Zm-46.655,0h6.94c1.38,0,1.947-.4,1.919-2.389v-7.519h-2.154v7.072c0,.848-.1.951-.772.951h-3.78v-8.023h-2.154Z" transform="translate(-136 9717.909)" fill="#2267ad" fill-rule="evenodd"/>
  </g>
</svg>
