<svg width="111" height="20" viewBox="0 0 111 20" fill="none" xmlns="http://www.w3.org/2000/svg">
<path d="M44.7901 4.03779C45.5958 4.03244 46.4007 3.98104 47.2067 4.00755C48.2273 4.04556 49.2531 4.02521 50.2689 4.14701C50.9593 4.23294 51.679 4.3949 52.2232 4.84408C52.5136 5.06894 52.6963 5.39419 52.8273 5.72639C53.0908 6.48048 53.04 7.30979 52.8034 8.06414C52.7394 8.28177 52.5073 8.39233 52.3372 8.52082C51.5477 8.99169 50.5766 8.91005 49.6948 8.83911C49.4503 8.80163 49.1641 8.85463 48.9558 8.6967C48.7116 8.41214 48.6737 8.02399 48.4811 7.71186C48.4281 7.68199 48.3679 7.66629 48.3067 7.66635C46.6809 7.44738 45.0308 7.43667 43.3968 7.57025C43.1243 7.59595 42.8028 7.57507 42.5902 7.77637C42.3946 7.95091 42.2092 8.16667 42.16 8.42847C41.8721 9.71285 41.668 11.0312 41.7988 12.3488C43.8358 12.53 45.9145 12.749 47.938 12.3437C48.0699 12.3258 48.1105 12.1839 48.1699 12.0889C48.3188 11.8295 48.3907 11.5342 48.5487 11.2805C48.7418 11.1335 48.9838 11.0706 49.2121 10.9946C50.2222 10.7052 51.3623 10.7544 52.296 11.2507C52.4414 11.3281 52.4622 11.5069 52.4916 11.6485C52.5993 12.2816 52.5699 12.9557 52.3037 13.5494C52.1026 14.0604 51.8362 14.5591 51.4293 14.9441C51.144 15.1977 50.807 15.3899 50.4404 15.5081C48.6308 16.1374 46.6738 15.9744 44.789 15.9958C43.3619 15.9755 41.9273 16.0622 40.5074 15.8834C39.9566 15.8127 39.3876 15.756 38.8833 15.5127C38.5261 15.3574 38.2119 15.1277 37.8729 14.9417C37.6391 15.2276 37.4913 15.6331 37.113 15.7662C36.1504 15.9209 35.1615 15.9642 34.1939 15.8259C33.8324 15.7825 33.5036 15.5689 33.3069 15.2728C33.0393 14.897 32.8965 14.4577 32.6951 14.0484C31.8831 14.0096 31.0699 13.9801 30.2568 13.9879C28.7753 13.9914 27.2938 13.9828 25.8125 13.9916C25.3683 14.5557 25.0192 15.2383 24.3744 15.616C24.0684 15.8138 23.6863 15.8272 23.333 15.8609C22.497 15.9356 21.6298 15.9597 20.826 15.6861C20.6776 15.6428 20.5403 15.5673 20.3911 15.5284C20.2101 15.5531 20.0483 15.6521 19.8724 15.6968C19.2727 15.8652 18.6365 15.9677 18.014 15.8762C17.7248 15.8234 17.43 15.7522 17.1816 15.5932C16.869 15.3558 16.7254 14.9556 16.7391 14.5779C16.7094 14.1383 16.8256 13.7108 16.8907 13.2798C17.0273 12.3129 17.1626 11.3458 17.2967 10.3783C17.3995 9.61782 17.5173 8.85811 17.5588 8.09145C17.2377 8.44025 16.9817 8.83938 16.7248 9.23369C16.1339 10.1867 15.5059 11.1172 14.9024 12.0624C14.4642 12.7437 14.0041 13.4118 13.5967 14.1113C13.2401 14.6935 12.839 15.2851 12.2357 15.6494C12.1209 15.7255 11.9803 15.7466 11.8498 15.7825C11.121 15.9452 10.3452 15.976 9.6249 15.7584C9.33095 15.7097 9.13399 15.4658 8.96669 15.2474C8.56561 14.6957 8.39666 14.0323 8.16041 13.4073C7.48902 11.7136 6.79812 10.0261 6.20639 8.30372C6.15282 8.13856 6.02838 8.00926 5.92042 7.87569C5.86795 8.21592 5.84405 8.5591 5.80476 8.90068C5.73609 9.507 5.63719 10.1096 5.5523 10.7138C5.44654 11.481 5.40698 12.2551 5.31083 13.0234C5.24408 13.5593 5.24655 14.1078 5.09161 14.6301C5.01123 14.9676 4.82426 15.272 4.55703 15.5006C4.19084 15.7937 3.70295 15.8344 3.25132 15.8837C2.68679 15.9487 2.10358 15.8874 1.57669 15.6754C1.50416 15.643 1.42038 15.6195 1.37175 15.5533C1.12589 15.2359 1.02259 14.8343 1.00721 14.4422C0.971223 13.6621 1.23989 12.9123 1.29428 12.1397C1.38741 10.9303 1.5874 9.73293 1.74783 8.53126C1.88519 7.45648 1.96952 6.37099 2.23654 5.31656C2.35906 4.684 2.99557 4.27122 3.62164 4.20483C4.46143 4.10499 5.30946 4.20135 6.15282 4.17967C6.80224 4.2142 7.45193 4.12131 8.10052 4.17807C8.58182 4.24392 9.10679 4.46101 9.32574 4.91207C9.90702 5.95527 10.1238 7.13766 10.5485 8.24109C10.8229 9.05165 11.0957 9.86356 11.4278 10.6541C11.666 10.3189 11.8657 9.95993 12.0888 9.61568C12.9753 8.23466 13.7601 6.79502 14.6411 5.41105C14.9285 4.97418 15.2749 4.53276 15.7801 4.3253C15.9748 4.2316 16.1979 4.22786 16.41 4.20965C17.5448 4.15023 18.6818 4.15799 19.8178 4.1695C20.2381 4.18984 20.6603 4.17967 21.0792 4.22545C21.238 4.25707 21.3882 4.32037 21.5206 4.41136C21.653 4.50235 21.7646 4.61906 21.8484 4.75414C22.0385 5.02745 22.0212 5.37572 22.0001 5.69106C21.9517 6.59532 21.7789 7.4862 21.6765 8.38484C21.5355 9.47675 21.3682 10.5657 21.2468 11.6603C21.1575 12.4326 21.0347 13.2009 20.9183 13.9697C21.4257 13.3195 21.8814 12.6334 22.344 11.9529C22.9525 11.0572 23.5808 10.1746 24.184 9.27544C25.0246 8.01622 25.8556 6.75085 26.7116 5.50153C26.9888 5.08179 27.305 4.65937 27.7564 4.4048C28.1399 4.17459 28.6168 4.20403 29.0483 4.1869C29.8988 4.1529 30.7507 4.15799 31.6018 4.17164C32.0015 4.19279 32.4045 4.17485 32.802 4.2308C33.2569 4.32851 33.5918 4.69899 33.7745 5.09999C34.3025 6.19218 34.7093 7.33415 35.1661 8.45497C35.3867 8.99276 35.6299 9.52119 35.8568 10.0563C36.2447 10.9905 36.5949 11.9398 37.0188 12.8593C37.1548 13.1572 37.2842 13.4581 37.4182 13.7569C37.4369 13.2009 37.4169 12.6443 37.432 12.0883C37.4842 11.2395 37.596 10.3955 37.7111 9.55304C37.8388 8.82679 37.9317 8.09466 38.08 7.37189C38.2278 6.6957 38.4396 6.00506 38.8934 5.45843C39.1723 5.09705 39.5645 4.83552 39.9813 4.64545C40.4738 4.40828 41.0208 4.31084 41.5603 4.23348C42.6301 4.08544 43.7127 4.08678 44.7901 4.03779ZM28.8929 9.12527C28.528 9.6901 28.1292 10.2351 27.8053 10.824C29.0167 10.903 30.2301 10.8492 31.443 10.854C31.1191 9.67538 30.5994 8.55964 30.0986 7.44524C29.6582 7.97794 29.267 8.54706 28.8929 9.12527Z" fill="#B42C4D"/>
</svg>
