<svg xmlns="http://www.w3.org/2000/svg" width="110" height="20" viewBox="0 0 110 20">
  <g id="Trailer_-_Great_Dane" data-name="Trailer - Great Dane" transform="translate(-354 -10048)">
    <rect id="Rectangle_63529" data-name="Rectangle 63529" width="110" height="20" transform="translate(354 10048)" fill="#aaa" opacity="0"/>
    <path id="Union_706" data-name="Union 706" d="M26.634,13.279c-.27-.012-.541-.01-.812-.008-.238,0-.476,0-.714,0a.861.861,0,0,1-.934-1.049,4.765,4.765,0,0,1,.216-1.038,11.222,11.222,0,0,1,1.2-2.689,2.257,2.257,0,0,1,2.1-1.13c.535.022,1.071.018,1.607.014.345,0,.689-.005,1.034,0a.3.3,0,0,0,.332-.226c.217-.544.184-.605-.406-.6q-1.757.006-3.513.016h-.3c.216-.535.414-1.034.623-1.528a.222.222,0,0,1,.173-.084c1.607,0,3.215-.023,4.822,0,1.027.017,1.547.777,1.252,1.839a16.885,16.885,0,0,1-.675,1.759c-.362.9-.734,1.79-1.1,2.687-.131.323-.112.348.226.349h.879c-.251.565-.484,1.093-.725,1.618a.175.175,0,0,1-.137.068c-1.1,0-2.21,0-3.344,0l.242-.7a2.4,2.4,0,0,1-1.841.7Q26.741,13.284,26.634,13.279Zm.98-3.823c-.251.644-.527,1.279-.79,1.919a1.663,1.663,0,0,0-.053.191.782.782,0,0,0,.151.034h1.644a.357.357,0,0,0,.355-.241c.318-.754.634-1.51.969-2.311-.58,0-1.113.023-1.642-.008l-.065,0A.549.549,0,0,0,27.614,9.456Zm9.649,3.826c-.578-.009-1.157-.008-1.735-.007-.439,0-.879,0-1.318,0a.949.949,0,0,1-1.069-1.079,2.219,2.219,0,0,1,.1-.666c.309-.839.637-1.671.967-2.5.3-.748.61-1.492.915-2.238.024-.058.045-.118.083-.22H34.125c.222-.545.422-1.043.633-1.537.019-.045.112-.08.173-.083a6.826,6.826,0,0,1,.727,0c.179.013.254-.061.314-.219.154-.407.32-.809.5-1.208a.325.325,0,0,1,.193-.176c.84-.154,1.683-.3,2.526-.439a.322.322,0,0,1,.087.014l-.828,2.021H40.47c-.149.369-.282.7-.418,1.036-.238.583-.239.583-.861.583-.4,0-.808,0-1.211,0a.243.243,0,0,0-.27.175c-.6,1.479-1.21,2.954-1.813,4.432-.134.33-.071.43.285.434.411.005.823,0,1.235,0h.837c-.195.484-.391.931-.553,1.389a.373.373,0,0,1-.417.29Zm-25.42,0c-.767-.011-1.534,0-2.341,0,.383-.937.751-1.839,1.121-2.74.734-1.79,1.471-3.58,2.2-5.373a.3.3,0,0,1,.335-.221c.686.011,1.372,0,2.1,0-.1.264-.181.5-.287.8.18-.158.315-.284.457-.4a1.636,1.636,0,0,1,1.114-.4c.491.01.983,0,1.5,0-.023.082-.035.143-.058.2-.221.545-.451,1.087-.663,1.636a.251.251,0,0,1-.283.187c-.606-.008-1.212-.005-1.817,0a.721.721,0,0,0-.777.524q-1.145,2.785-2.286,5.572a.281.281,0,0,1-.3.218Zm40.86-.013a.892.892,0,0,1-.956-1.145,9.6,9.6,0,0,1,.987-2.869,6.259,6.259,0,0,1,.724-1.138,1.923,1.923,0,0,1,1.607-.749c.466,0,.931,0,1.4,0s.958,0,1.438,0a.3.3,0,0,0,.335-.223c.217-.558.189-.608-.426-.606q-1.744.006-3.488.016h-.3c.217-.532.406-1.011.611-1.484a.258.258,0,0,1,.192-.127c1.607-.007,3.215-.025,4.821,0a1.289,1.289,0,0,1,1.26,1.8,10.253,10.253,0,0,1-.484,1.313c-.43,1.061-.871,2.117-1.3,3.177-.127.311-.1.347.232.347h.877c-.25.561-.483,1.089-.723,1.614a.174.174,0,0,1-.133.071c-1.1,0-2.21,0-3.345,0l.244-.72c-.125.1-.2.161-.266.22a1.939,1.939,0,0,1-1.259.49c-.4.006-.8.011-1.194.011C53.264,13.277,52.983,13.274,52.7,13.267Zm3.351-1.662a.445.445,0,0,0,.468-.3c.157-.379.317-.757.474-1.137.15-.363.3-.727.457-1.118-.611,0-1.19.01-1.769-.005a.4.4,0,0,0-.428.271q-.361.87-.725,1.738c-.068.161-.134.323-.217.523.115.011.178.023.241.023h.875C55.637,11.6,55.845,11.6,56.054,11.606Zm-39,1.662a.939.939,0,0,1-1.017-1.24,10.471,10.471,0,0,1,.542-1.672c.451-1.148.928-2.285,1.4-3.424a4.047,4.047,0,0,1,.9-1.368,2.078,2.078,0,0,1,1.5-.619q1.6,0,3.2,0a1.493,1.493,0,0,1,1.549,2.133c-.343.964-.758,1.9-1.156,2.846-.029.068-.175.122-.267.122-1.381.008-2.762.011-4.144,0a.366.366,0,0,0-.419.284c-.1.313-.252.611-.374.917-.089.223-.035.309.208.338a2.9,2.9,0,0,0,.338.017q1.768,0,3.537,0h.311c-.225.558-.426,1.066-.64,1.57a.238.238,0,0,1-.185.1q-1.484,0-2.969.006Q18.212,13.277,17.056,13.268Zm3.8-6.63a.34.34,0,0,0-.233.18c-.231.5-.444,1.014-.68,1.561.7,0,1.337,0,1.974-.007a.283.283,0,0,0,.2-.153c.192-.435.371-.875.55-1.316a2.25,2.25,0,0,0,.069-.273l-.915,0C21.487,6.628,21.169,6.63,20.851,6.638Zm48.8,6.628a.915.915,0,0,1-.967-1.132,5.931,5.931,0,0,1,.355-1.3c.5-1.268,1.024-2.525,1.545-3.784A4.381,4.381,0,0,1,71.493,5.6a2.132,2.132,0,0,1,1.585-.66c1,0,2,.016,3,0A1.639,1.639,0,0,1,77.9,6.052V6.78c-.391.977-.791,1.952-1.168,2.935a.446.446,0,0,1-.5.346c-.831-.012-1.662-.011-2.493-.01-.526,0-1.052,0-1.578,0a.3.3,0,0,0-.336.224c-.116.326-.264.641-.391.963-.1.241-.045.32.217.351a2.663,2.663,0,0,0,.313.015H75.82c-.224.554-.426,1.069-.646,1.577-.024.056-.156.091-.237.091q-2.193.009-4.387,0h-.411C69.976,13.276,69.815,13.275,69.653,13.266Zm4.855-4.883a.255.255,0,0,0,.28-.194c.168-.427.348-.849.521-1.274.031-.078.05-.162.076-.25a.534.534,0,0,0-.118-.037c-.572,0-1.145-.013-1.717.007a.408.408,0,0,0-.29.206c-.231.494-.436,1-.665,1.537l1.075,0C73.954,8.378,74.231,8.379,74.509,8.383ZM64.6,13.275c.065-.166.117-.307.174-.447Q65.935,10,67.1,7.166a1.592,1.592,0,0,0,.079-.2.239.239,0,0,0-.235-.334c-.469-.008-.937,0-1.405,0-.23,0-.311.177-.383.351q-.441,1.061-.875,2.124l-1.711,4.165H60.009c.139-.345.271-.677.406-1.009q1.453-3.548,2.9-7.1a.3.3,0,0,1,.335-.222c.734.012,1.468.005,2.239.005l-.237.641a.743.743,0,0,0,.121-.064,2.169,2.169,0,0,1,1.734-.581c.208.014.418.012.629.011a7.187,7.187,0,0,1,.75.022,1.05,1.05,0,0,1,.988,1.268,4.764,4.764,0,0,1-.287,1.094c-.774,1.922-1.567,3.837-2.359,5.751-.031.074-.116.178-.178.179-.5.007-1.008.009-1.52.009Zm-24.444,0c.075-.186.138-.347.2-.507.147-.358.3-.714.439-1.075a.215.215,0,0,1,.248-.166c.1.006.195,0,.292,0s.209,0,.313,0a.408.408,0,0,0,.458-.3q1.334-3.27,2.681-6.534.542-1.32,1.083-2.641c.033-.08.062-.163.111-.291H44.9c.248-.6.462-1.127.693-1.649a.294.294,0,0,1,.226-.113C46.573,0,47.324,0,48.075,0c1.373,0,2.747.043,4.119.006a2.174,2.174,0,0,1,2.243,2.175A3.114,3.114,0,0,1,54.2,3.555c-.977,2.4-1.948,4.8-2.929,7.191a4.5,4.5,0,0,1-1.438,1.972,2.679,2.679,0,0,1-1.645.55q-3.865,0-7.731.007h-.3Zm8.486-11.3Q46.988,6,45.32,10.018l-.622,1.5c.7,0,1.381.017,2.056-.007a1.144,1.144,0,0,0,.908-.494,6.748,6.748,0,0,0,.715-1.145q1.1-2.489,2.13-5.005a17.762,17.762,0,0,0,.73-2.2c.179-.684-.042-.917-.759-.925-.2,0-.4,0-.606,0-.3,0-.6,0-.9-.006h-.019C48.781,1.741,48.709,1.815,48.644,1.973ZM4.634,13.259c-.765-.021-1.531-.016-2.3-.012-.357,0-.715,0-1.071,0a3.143,3.143,0,0,1-.387-.022A.939.939,0,0,1,0,12.247,3.5,3.5,0,0,1,.31,10.788q1.7-4.165,3.421-8.324A4.7,4.7,0,0,1,5.035.6,2.452,2.452,0,0,1,6.636,0q3.405,0,6.811,0c.054,0,.108.007.188.013-.033.092-.056.167-.085.238-.187.455-.382.907-.558,1.366a.286.286,0,0,1-.319.212c-.6,0-1.2,0-1.8,0-1.007,0-2.014,0-3.02-.011a.886.886,0,0,0-.925.619Q6.21,4.172,5.5,5.9,4.5,8.332,3.5,10.761a2.636,2.636,0,0,0-.146.435c-.046.214.046.338.26.339.84.006,1.681.011,2.521,0,.308-.005.458-.246.565-.5.257-.609.507-1.221.759-1.833q.4-.973.8-1.947c.036-.088.068-.176.116-.3H6.457c.269-.665.514-1.277.768-1.886a.214.214,0,0,1,.163-.1c1.486-.005,2.972,0,4.5,0-.033.094-.056.165-.084.234q-1.6,3.907-3.191,7.816a.332.332,0,0,1-.371.244c-.638-.013-1.277-.005-1.915-.005h-.3l.332-.841H6.332c-.013,0-.022,0-.024,0a1.7,1.7,0,0,1-1.588.845Z" transform="translate(354 10051.358)" fill="#aaa"/>
  </g>
</svg>
