<svg xmlns="http://www.w3.org/2000/svg" width="110" height="20" viewBox="0 0 110 20">
  <g id="Truck_-_Wilson" data-name="Truck - Wilson" transform="translate(-353.877 -10928)">
    <rect id="Rectangle_63523" data-name="Rectangle 63523" width="110" height="20" transform="translate(353.877 10928)" fill="#aaa" opacity="0"/>
    <path id="Union_714" data-name="Union 714" d="M33.167,8.031c0-3.205,2.069-4.972,4.633-4.972a4.229,4.229,0,0,1,4.418,4.589c0,3.223-1.979,4.935-4.556,4.935A4.282,4.282,0,0,1,33.167,8.031Zm3.006-.037c0,1.038.43,2.039,1.443,2.039,1.15,0,1.595-1.274,1.595-2.422,0-1.074-.43-2-1.426-2C36.649,5.609,36.173,6.81,36.173,7.994Zm-10.3,4.189-.23-2.64a5.545,5.545,0,0,0,2.225.656c.337,0,1-.018,1-.546,0-.856-2.669-1.876-2.669-4.007,0-1.511.936-2.586,3.1-2.586a14.477,14.477,0,0,1,2.638.31l.123,2.494a4.1,4.1,0,0,0-1.8-.418c-.369,0-1.059,0-1.059.455,0,.984,2.671,1.712,2.671,4.061,0,2-1.919,2.622-3.284,2.622A11.442,11.442,0,0,1,25.878,12.183Zm-4.955.182c.292-4.043.46-8.086.552-12.147h3.053c-.169,2.04-.506,8.959-.552,12.147Zm28.291,0c.092-1.585.23-3.169.23-4.753,0-.892-.23-1.712-1.12-1.712-.783,0-1.3.637-1.519,1.493a29.636,29.636,0,0,0-.383,4.971H43.368c.307-3.005.415-6.046.46-9.087H46.82l-.077,1.184.031.036a3.162,3.162,0,0,1,2.869-1.439c1.5,0,2.808.674,2.808,2.9,0,.493-.215,4.134-.215,6.411Zm-33.17,0c.261-2.75.369-5.463.4-9.087h3.068c-.261,3.023-.276,6.064-.276,9.087Zm-7.376,0c-.337-2.513-.859-4.971-1.043-7.43H7.594c-.414,2.459-1.1,4.917-1.641,7.43H2.194C1.534,8.3.783,4.262,0,.218H3.053C3.421,3.1,4.065,5.9,4.434,8.686h.03C5,5.9,5.692,3.1,6.2.218H9.665c.307,2.859.737,5.682,1.12,8.45h.031C11.4,5.863,12.3,3.077,12.964.218h2.992C14.79,4.262,13.654,8.3,12.58,12.365ZM16.52,2.149,16.551,0h2.976L19.45,2.149Z" transform="translate(353.877 10931.708)" fill="#aaa"/>
  </g>
</svg>
