<svg width="111" height="20" viewBox="0 0 111 20" fill="none" xmlns="http://www.w3.org/2000/svg">
<path d="M63.0302 15.8661C62.1017 15.7525 61.0781 15.4451 60.5676 14.6132C59.9367 13.5846 59.962 12.3389 59.8907 11.1823C59.8624 9.82442 59.8639 8.46075 60.0529 7.11295C60.1927 6.13551 60.6629 5.11844 61.6078 4.65951C62.8696 4.04615 64.3189 4.06363 65.6938 4.00535C65.9021 4.00725 66.1142 4.00535 66.3275 4.00302C67.4657 3.99195 68.6495 3.98088 69.6444 4.56495C70.5803 5.16083 70.8141 6.32637 70.8214 7.34475C70.4777 7.34796 70.1338 7.34723 69.7902 7.34664C69.1907 7.34548 68.5913 7.34431 67.9927 7.36369C67.9496 6.9355 67.8186 6.44729 67.3499 6.29723C66.5375 6.02041 65.6507 6.08889 64.8055 6.10491C64.0526 6.10491 63.2371 6.49537 63.0288 7.25151C62.6821 8.37916 62.7818 9.5782 62.7565 10.7423C62.7848 11.6208 62.7848 12.5984 63.3547 13.3298C63.8487 13.8897 64.6317 13.8796 65.3434 13.8696C65.4633 13.8678 65.5815 13.8663 65.6951 13.8674C66.3932 13.8368 67.2517 13.9038 67.7441 13.3167C68.1994 12.6858 68.1607 11.8583 68.1563 11.1198C67.3528 11.1343 66.5507 11.1358 65.7487 11.14C65.7576 10.5849 65.7384 10.03 65.7725 9.47622C66.6663 9.49662 67.56 9.49385 68.4539 9.49079C69.2713 9.48817 70.0885 9.48554 70.906 9.50084C70.8168 11.1282 71.0446 12.8213 70.4864 14.3888C70.1531 15.3169 69.1487 15.7583 68.2159 15.8574C67.3396 15.9524 66.4586 16 65.577 16C64.7247 16.0001 63.873 15.9554 63.0256 15.8658L63.0302 15.8661ZM51.2857 4.05634C51.866 4.05197 52.4463 4.05416 53.0266 4.05634C53.9911 4.05999 54.9558 4.06363 55.9199 4.0374C57.2189 7.98273 58.3899 11.9689 59.6742 15.9186C58.7455 15.9171 57.8187 15.9069 56.8917 15.9258C56.6149 15.193 56.3188 14.4631 56.1105 13.7099C56.1015 13.6589 56.0852 13.5569 56.0762 13.5059C54.4424 13.4928 52.8027 13.4258 51.1734 13.5336L51.1079 13.704C50.8713 14.4412 50.6526 15.1843 50.4353 15.926C49.5202 15.9406 48.6051 15.936 47.6915 15.9435C48.8914 11.9821 50.0895 8.01974 51.2857 4.05634ZM51.6711 11.9179C51.7008 11.9747 51.7604 12.0869 51.7901 12.1422C53.0757 12.1976 54.3733 12.1932 55.6618 12.1524C55.6812 12.0956 55.7229 11.9805 55.7437 11.9237C55.0042 9.77328 54.3704 7.58806 53.6486 5.43313C52.9746 7.58937 52.3734 9.76891 51.6711 11.9179ZM15.7468 4.05926C17.3032 4.05353 18.8592 4.05304 20.4146 4.0578C21.6569 8.01187 22.8802 11.9718 24.1345 15.9215C23.5459 15.9149 22.957 15.9155 22.3683 15.9161H21.3403C21.0693 15.1818 20.818 14.4417 20.5397 13.7102C18.8881 13.7102 17.2379 13.7189 15.5877 13.7043C15.3273 14.4386 15.1265 15.1904 14.8929 15.932C13.9777 15.9349 13.0626 15.9407 12.1475 15.9422C13.366 11.9862 14.5505 8.02076 15.7468 4.05926ZM18.0338 5.63404C17.4312 7.72748 16.7958 9.81233 16.153 11.8944C17.4953 11.9061 18.8379 11.9114 20.181 11.9104C19.5099 9.75274 18.7957 7.60962 18.1425 5.44901C18.1157 5.49447 18.0606 5.58771 18.0338 5.63404ZM27.1731 15.9242C26.7015 15.9263 26.2299 15.9282 25.7596 15.9116C25.8087 13.8034 25.7849 11.6923 25.8087 9.58418C25.8041 7.75283 25.8844 5.92003 25.8399 4.08869C27.566 4.0712 29.2935 4.13239 31.0196 4.14988C32.1504 7.19775 33.3021 10.2383 34.4256 13.2877C34.7038 13.2977 34.9835 13.3022 35.2663 13.3066C35.22 10.2529 35.1709 7.19872 35.119 4.14405C35.5701 4.14405 36.0213 4.13691 36.473 4.12948C36.9431 4.12147 37.4133 4.11345 37.8839 4.11491C37.8527 8.03693 37.8522 11.9604 37.8824 15.8853C36.1415 15.9043 34.402 15.9216 32.6626 15.9187C31.4737 12.7339 30.2625 9.55635 29.0706 6.37299C28.8191 6.35987 28.5692 6.34968 28.3207 6.34093C28.3757 9.53887 28.4457 12.7352 28.4695 15.9333C28.0372 15.9206 27.6053 15.9225 27.1731 15.9242ZM4.3773 15.8999C3.25686 11.9617 2.1437 8.02222 1.00391 4.08971C1.39837 4.0951 1.79254 4.09379 2.187 4.09248C2.74187 4.09058 3.29644 4.08869 3.85041 4.10573C4.70451 7.26287 5.56159 10.4215 6.44247 13.5728C6.57341 13.7185 7.09569 13.8119 7.13438 13.5014C8.04354 10.3632 8.93484 7.21916 9.86185 4.08534C10.8142 4.10136 11.7679 4.11739 12.7231 4.12322C11.5312 8.04669 10.3334 11.9702 9.15937 15.898C8.38066 15.9064 7.60195 15.9104 6.82324 15.9101C6.00803 15.9101 5.19267 15.9067 4.37716 15.8998L4.3773 15.8999ZM72.4004 15.8939C72.4226 11.9705 72.4345 8.04567 72.387 4.12365C75.2349 4.11783 78.083 4.07995 80.931 4.11783C80.9117 4.81277 80.9146 5.50772 80.9087 6.20413C80.2614 6.20559 79.6143 6.20491 78.9675 6.20209C77.6795 6.19859 76.3916 6.19495 75.1042 6.21666C75.1011 7.17385 75.1027 7.9839 75.0966 8.94109L75.1027 9.12175C76.0806 9.18003 77.0603 9.17245 78.0405 9.16444C78.7858 9.15832 79.5314 9.1522 80.2763 9.17551C80.2822 9.58651 80.2733 10.4343 80.254 10.8451C79.4771 10.8332 78.7004 10.8339 77.9236 10.8344C77.1721 10.8344 76.4208 10.8354 75.6695 10.8247C75.3719 10.8393 75.1649 10.7985 75.1115 11.1831C75.0631 12.0405 75.0602 12.8998 75.1027 13.7575C75.1681 13.7619 75.0371 13.7757 75.1027 13.7786C77.0817 13.7874 79.0249 13.7923 81.0039 13.8114C80.9994 14.5033 80.9786 15.1955 81.0009 15.8875C79.6592 15.8992 78.3176 15.9044 76.9761 15.9031C75.4503 15.9031 73.9251 15.9 72.4003 15.8938L72.4004 15.8939ZM44.1586 15.8716C43.6172 15.8744 43.0762 15.877 42.5358 15.8546C42.5745 12.6728 42.5358 9.49079 42.5565 6.30888C41.5089 6.29004 40.4629 6.27596 39.4183 6.26663C39.4405 5.55274 39.4496 4.83885 39.4555 4.12642C41.0259 4.13215 42.5965 4.13337 44.1674 4.13006C45.7381 4.1289 47.3091 4.13011 48.8804 4.13371C48.8506 4.86945 48.8685 5.60519 48.8655 6.34239C47.7168 6.32199 46.5681 6.32199 45.4208 6.3016C45.4001 9.49224 45.394 12.6844 45.3821 15.8765C44.9734 15.8676 44.5655 15.8695 44.1577 15.8715L44.1586 15.8716Z" fill="#E2121A"/>
</svg>
