<svg xmlns="http://www.w3.org/2000/svg" width="110" height="20" viewBox="0 0 110 20">
  <g id="Truck_-_Polar" data-name="Truck - Polar" transform="translate(-353.877 -10448)">
    <rect id="Rectangle_63511" data-name="Rectangle 63511" width="110" height="20" transform="translate(353.877 10448)" fill="#dbb357" opacity="0"/>
    <path id="Union_709" data-name="Union 709" d="M16.787,10.424A5.033,5.033,0,0,1,14.5,9.235a4.327,4.327,0,0,1-1.241-2.3,7.473,7.473,0,0,1-.15-2.116,5.488,5.488,0,0,1,.691-2.47A4.175,4.175,0,0,1,15.723.67a6.88,6.88,0,0,1,2.594-.61c1.009-.032,2.021-.093,3.026-.04A6.716,6.716,0,0,1,24.932,1.08a4.294,4.294,0,0,1,1.745,2.678,7.521,7.521,0,0,1,.14,2.216A4.7,4.7,0,0,1,25.4,9.267a4.826,4.826,0,0,1-2.235,1.147,14.932,14.932,0,0,1-1.757.26c-.478.051-.961.055-1.442.08h-.089A12.814,12.814,0,0,1,16.787,10.424Zm3.195-7.935c-.251.024-.506.027-.753.074a2.094,2.094,0,0,0-1.652,1.28A4.178,4.178,0,0,0,17.4,6.357,2.128,2.128,0,0,0,18.993,8.1a3.667,3.667,0,0,0,1.625.079,2.144,2.144,0,0,0,1.793-1.429,4.256,4.256,0,0,0,.113-2.427,2.158,2.158,0,0,0-1.107-1.513,2.93,2.93,0,0,0-1.387-.319Zm39.87,7.632c-.029-.184-.042-.369-.056-.554-.036-.454-.054-.911-.106-1.364a.934.934,0,0,0-1.007-.939c-.5-.01-.992-.008-1.487-.007-.38,0-.759,0-1.139,0-.2,0-.194.1-.194.242,0,.859,0,1.719,0,2.578v.286H51.954V.313h.271c2.73,0,5.46-.01,8.19.008A9.133,9.133,0,0,1,62.091.5,2.293,2.293,0,0,1,63.86,2.182a2.67,2.67,0,0,1-.38,2.6,1.866,1.866,0,0,1-.861.588.748.748,0,0,0-.1.054,5.909,5.909,0,0,1,.625.448,1.7,1.7,0,0,1,.471,1.14c.071.731.088,1.469.169,2.2a3.969,3.969,0,0,0,.27.854,2.323,2.323,0,0,0,.169.308H63.9c-1.242,0-2.483-.006-3.725.006h-.007A.271.271,0,0,1,59.852,10.121ZM55.875,4.755c1.036,0,2.046.021,3.054-.009.473-.014.9-.24.87-.993a.83.83,0,0,0-.87-.877c-.118-.009-.237-.01-.356-.01h-2.7Zm-8.8,5.611a.269.269,0,0,1-.183-.151c-.108-.262-.183-.538-.3-.8a.316.316,0,0,0-.229-.161c-1.267-.01-2.534,0-3.8-.01-.2,0-.235.152-.288.271-.119.275-.214.56-.321.847h-4.2l.708-1.679q.972-2.3,1.944-4.606.771-1.813,1.562-3.617a.3.3,0,0,1,.223-.144q2.27-.012,4.541,0a.265.265,0,0,1,.2.131Q48.419,3.922,49.894,7.4q.6,1.409,1.2,2.818c.019.045.032.093.053.154H49.691C48.816,10.373,47.945,10.372,47.074,10.366ZM44.421,3.392l-1.173,3.4h2.413l-1.176-3.4Zm-16.372,6.98a.775.775,0,0,1-.109-.022V.325h3.931V7.7H37.55c-.113.258-.21.482-.309.707-.258.591-.511,1.183-.782,1.769a.353.353,0,0,1-.247.185q-2.535.009-5.07.007ZM0,10.366V.313H.27C2.907.313,5.543.3,8.179.322A4.668,4.668,0,0,1,10.716.91a2.63,2.63,0,0,1,1.2,1.912,5.75,5.75,0,0,1,.1,1.154,3.229,3.229,0,0,1-.958,2.385,3.309,3.309,0,0,1-1.731.794,12.394,12.394,0,0,1-2.3.1c-.342-.006-.683-.011-1.024,0-.687.014-1.375,0-2.1,0v3.109Zm3.926-7.7V4.805c1.014,0,2.015.026,3.014-.01a.857.857,0,0,0,.931-.78c.11-.753-.145-1.218-.883-1.294-.537-.055-1.08-.047-1.621-.057-.184,0-.368,0-.554,0Z" transform="translate(353.877 10452.623)" fill="#dbb357"/>
  </g>
</svg>
