<svg width="111" height="20" viewBox="0 0 111 20" fill="none" xmlns="http://www.w3.org/2000/svg">
<path fill-rule="evenodd" clip-rule="evenodd" d="M46.1445 3.50674C47.526 3.49956 48.9076 3.50069 50.2892 3.50182C51.1316 3.50251 51.974 3.5032 52.8163 3.50201C53.2654 3.50524 53.7145 3.50358 54.1636 3.50193C54.8836 3.49927 55.6034 3.49662 56.3227 3.5141C56.3175 4.0038 56.3184 4.49337 56.3194 4.98288V4.98291C56.3203 5.49271 56.3212 6.00244 56.3153 6.51218L56.2798 6.47778C55.9281 6.13675 55.5662 5.78589 55.1122 5.58605C54.8841 5.48155 54.6343 5.48537 54.3879 5.48913C54.3183 5.4902 54.249 5.49126 54.1805 5.48987C53.9747 5.49201 53.7688 5.49076 53.5628 5.48952C53.2123 5.4874 52.8617 5.48528 52.5117 5.49985C52.5161 7.17035 52.5155 8.84085 52.5148 10.5114C52.5143 11.8584 52.5138 13.2054 52.5159 14.5524C52.5286 15.2478 52.83 15.8922 53.1504 16.4951C51.9478 16.4988 50.7451 16.4998 49.543 16.4946C49.8571 15.8749 50.1238 15.2052 50.1202 14.4993C50.122 13.1997 50.1215 11.8999 50.1211 10.6001V10.5936C50.1205 8.8951 50.1199 7.1966 50.1244 5.49828C49.6668 5.48607 49.209 5.48784 48.7511 5.48961C48.4398 5.49081 48.1286 5.49201 47.8175 5.48882C47.7896 5.48906 47.7613 5.48878 47.733 5.48849C47.5816 5.48694 47.4259 5.48535 47.293 5.56503C46.9566 5.7602 46.6821 6.03509 46.4087 6.3089C46.3221 6.39567 46.2355 6.48233 46.1472 6.56632C46.1451 6.05649 46.1455 5.54667 46.1458 5.03679V5.03676V5.03446C46.1462 4.52531 46.1466 4.01609 46.1445 3.50674ZM5.76187 3.5025C4.50922 3.50094 3.25656 3.49939 2.00391 3.50945C2.00588 4.05513 2.00559 4.60082 2.0053 5.14658C2.00504 5.6196 2.00479 6.09268 2.00601 6.56587C2.09621 6.48047 2.18383 6.39236 2.27145 6.30425L2.27145 6.30424C2.4276 6.14721 2.58378 5.99015 2.75463 5.84841C2.77566 5.83178 2.79682 5.81472 2.81818 5.79751C3.00737 5.64505 3.21157 5.4805 3.4659 5.48994C3.81222 5.49039 4.15855 5.49027 4.50487 5.49014C4.96661 5.48997 5.42835 5.48979 5.89009 5.491C5.98193 5.47001 5.97995 5.5508 5.9783 5.61866C5.97784 5.63749 5.9774 5.65532 5.979 5.6697C5.97703 7.2454 5.97732 8.82109 5.97761 10.3968C5.97787 11.7624 5.97812 13.128 5.9769 14.4936C5.98374 15.2027 5.71438 15.8739 5.3982 16.4957C6.60136 16.5004 7.80504 16.4994 9.0082 16.4962C8.67834 15.8776 8.369 15.2137 8.37163 14.4979C8.37058 13.0349 8.37085 11.5718 8.37111 10.1087C8.37137 8.64534 8.37163 7.18196 8.37058 5.71858C8.37163 5.64079 8.37742 5.56248 8.38321 5.48469C8.80471 5.49247 9.22639 5.4914 9.64803 5.49033H9.64805H9.64806H9.64807H9.64808C9.93794 5.48959 10.2278 5.48885 10.5175 5.491C10.7916 5.48994 11.0494 5.604 11.2746 5.75065C11.5306 5.91023 11.7515 6.11448 11.9719 6.31835L11.9719 6.3184L11.972 6.3184L11.972 6.31841L11.972 6.31842C12.0405 6.38177 12.1089 6.44508 12.1784 6.507L12.1774 6.2175C12.1744 5.31639 12.1715 4.41528 12.1805 3.51418C11.3406 3.49764 10.5003 3.5001 9.66 3.50257C9.13811 3.5041 8.61621 3.50563 8.09439 3.50261C7.31688 3.50442 6.53938 3.50346 5.76187 3.5025ZM17.2533 3.50292C16.2699 3.5008 15.2863 3.49868 14.303 3.50666C14.6334 4.19889 14.8938 4.94683 14.8844 5.72316C14.8852 7.87703 14.8851 10.0312 14.885 12.1854L14.8849 14.3384C14.9049 15.1006 14.6019 15.818 14.2852 16.495C15.4831 16.4982 16.6815 16.5013 17.8794 16.4934C17.5521 15.8564 17.2607 15.1705 17.2596 14.4425C17.259 12.7812 17.2591 11.12 17.2592 9.45886V9.45885V9.45884V9.45883V9.45883V9.44662C17.2593 8.20498 17.2593 6.96333 17.2591 5.72158C17.2596 4.95873 17.5289 4.23293 17.7909 3.52686V3.52686V3.52685V3.52685V3.52685L17.7994 3.50403L17.2533 3.50292ZM20.1623 3.50406C20.4627 3.50457 20.7631 3.50358 21.0636 3.5026C21.6868 3.50054 22.3101 3.49849 22.9327 3.50984C22.9819 3.57348 23.0097 3.64972 23.0373 3.7256V3.72561V3.72561C23.0507 3.76255 23.0642 3.7994 23.08 3.83467C23.6292 5.19756 24.1789 6.56022 24.7287 7.92286C25.3728 9.51941 26.0168 11.1159 26.66 12.7128C26.6811 12.7543 26.7074 12.7937 26.7389 12.8294C27.4748 10.9672 28.2129 9.10594 28.9511 7.2447L28.9515 7.24367L28.9518 7.24284L28.9521 7.24201C29.4374 6.01835 29.9227 4.79471 30.4073 3.57081C30.4228 3.49944 30.4879 3.50106 30.5491 3.50259C30.5708 3.50313 30.592 3.50366 30.6104 3.50091C30.9894 3.50403 31.3683 3.50318 31.7473 3.50233C32.2616 3.50117 32.7759 3.50001 33.2903 3.50879C33.0293 4.02494 32.8141 4.57052 32.7258 5.14449C32.6739 5.44539 32.6757 5.75021 32.6775 6.05432V6.05439V6.05446V6.05453C32.678 6.13601 32.6784 6.21744 32.6779 6.29873L32.6778 9.01565V9.01571V9.01576V9.01582C32.6777 10.827 32.6775 12.638 32.6779 14.4488C32.6832 15.1773 32.9925 15.8554 33.3102 16.4956C32.1066 16.4998 30.9029 16.5003 29.6992 16.495C29.9449 16.0441 30.1837 15.5815 30.2942 15.0759C30.3735 14.76 30.3697 14.4356 30.366 14.1119V14.1119C30.3646 13.9955 30.3632 13.8792 30.3658 13.7634C30.3631 13.1879 30.3645 12.6121 30.3659 12.0364C30.3681 11.1064 30.3704 10.1763 30.3558 9.24688L30.3167 9.31497L30.2774 9.38354C29.3941 11.7556 28.5081 14.1266 27.6212 16.4971C27.4032 16.4947 27.185 16.4964 26.9668 16.4981C26.5804 16.5011 26.1941 16.5042 25.8088 16.484C25.3145 15.1246 24.8067 13.77 24.2988 12.4154C23.9873 11.5844 23.6757 10.7534 23.3672 9.92123C23.3341 9.83879 23.3043 9.75495 23.2745 9.67111L23.2745 9.67106C23.2207 9.51972 23.167 9.36839 23.0932 9.22533C23.0736 10.2744 23.0763 11.3242 23.079 12.3741C23.0808 13.0465 23.0825 13.7188 23.0784 14.391C23.0611 15.1463 23.3841 15.8533 23.7508 16.4956C22.546 16.4987 21.3413 16.5013 20.1366 16.4945C20.3864 15.9915 20.6232 15.4733 20.7242 14.9172C20.7704 14.6737 20.7695 14.4258 20.7686 14.1788L20.7684 14.0767C20.7679 12.8865 20.7681 11.6963 20.7682 10.5061V10.4944V10.4944V10.4944V10.4944C20.7684 8.90281 20.7685 7.31134 20.7673 5.72003C20.7715 4.94003 20.4922 4.19787 20.1623 3.50406ZM38.8295 3.5019C37.7991 3.5013 36.7687 3.5007 35.7383 3.50466C36.0655 4.30727 36.2943 5.16349 36.2796 6.036V13.4455C36.279 13.541 36.2794 13.6367 36.2798 13.7324V13.7325V13.7326C36.2814 14.1119 36.2831 14.4921 36.2196 14.8673C36.1344 15.4302 35.9445 15.9685 35.7393 16.4972C36.1211 16.4969 36.503 16.4972 36.8848 16.4976H36.8848H36.8849C37.6168 16.4984 38.3488 16.4991 39.081 16.4946C38.7264 15.7582 38.4934 14.9519 38.4997 14.1293C38.5001 13.7169 38.4996 13.3045 38.4992 12.8921C38.4983 12.0993 38.4975 11.3065 38.5023 10.5137C38.8677 10.5132 39.2332 10.5142 39.5986 10.5153C40.4239 10.5177 41.2491 10.52 42.0739 10.5047C42.1313 10.5011 42.189 10.4978 42.2471 10.4945C42.8271 10.4613 43.4375 10.4263 43.931 10.0948C44.3887 9.77519 44.5102 9.18808 44.5418 8.66615C44.5778 8.1858 44.5751 7.70421 44.5723 7.22274C44.5711 7.00195 44.5698 6.78117 44.5723 6.56056L44.5722 6.42644C44.5719 5.89223 44.5716 5.35437 44.4697 4.82815C44.4018 4.47756 44.2282 4.13276 43.9299 3.92357C43.588 3.68284 43.164 3.60715 42.7568 3.56195C42.1821 3.5009 41.6038 3.50156 41.0264 3.50221C40.9029 3.50235 40.7795 3.5025 40.6561 3.50203C40.0472 3.50262 39.4384 3.50226 38.8295 3.5019ZM38.4991 6.50282L38.4992 5.49147C39.2694 5.48884 40.0395 5.48831 40.8103 5.49147C40.8671 5.49342 40.9241 5.49474 40.9813 5.49607C41.263 5.5026 41.5476 5.50919 41.8188 5.59133C42.0787 5.6665 42.2822 5.87989 42.3622 6.13639C42.489 6.54321 42.4911 6.97894 42.4601 7.40101C42.4306 7.71585 42.3775 8.07274 42.1144 8.28246C41.8507 8.48826 41.5098 8.5023 41.1856 8.51565L41.1856 8.51566C41.1314 8.51789 41.0777 8.5201 41.0249 8.52319C40.2702 8.53167 39.5151 8.52917 38.7604 8.52666H38.7603H38.7601L38.4992 8.52581C38.4988 7.85161 38.4989 7.17718 38.4991 6.50282ZM67.0039 3.50857C64.0767 3.49648 61.1491 3.50121 58.2214 3.50647L58.2287 3.52649C58.4373 4.10336 58.6476 4.68509 58.7449 5.29302C58.7861 5.5426 58.7848 5.79483 58.7835 6.04656C58.7832 6.1129 58.7828 6.17921 58.7833 6.24542V13.5488C58.7809 13.6781 58.7821 13.8077 58.7833 13.9375C58.7867 14.2929 58.79 14.6489 58.7191 14.9989C58.6134 15.5245 58.4082 16.0281 58.1367 16.4896C58.2735 16.4953 58.4103 16.4995 58.5481 16.4985C59.6891 16.4964 60.8301 16.4972 61.9711 16.498C63.6491 16.4991 65.3271 16.5003 67.0049 16.4922C67.0018 15.976 67.0023 15.4596 67.0029 14.9432C67.0033 14.4911 67.0037 14.0391 67.0018 13.5871C66.9021 13.6546 66.8027 13.7258 66.7025 13.7975C66.2377 14.1302 65.7574 14.474 65.1731 14.5091C63.8353 14.5117 62.4969 14.5127 61.1586 14.5085C61.1559 13.3412 61.1538 12.1743 61.1596 11.0074C61.472 11.0046 61.7846 11.005 62.0971 11.0054C62.2993 11.0057 62.5015 11.006 62.7037 11.0053C62.744 11.0054 62.7848 11.0049 62.8257 11.0043C63.0481 11.0012 63.2757 10.998 63.4796 11.0984C63.92 11.2991 64.2749 11.6357 64.6226 11.9655C64.6437 11.9856 64.6648 12.0056 64.6859 12.0256C64.6838 10.7084 64.6844 9.39172 64.6854 8.07454C64.5538 8.16511 64.4257 8.26511 64.2972 8.36549C63.9491 8.63739 63.5973 8.9121 63.1608 9.0096C62.4916 9.02222 61.8204 9.028 61.1517 9.00593C61.1588 8.34635 61.1578 7.68661 61.1567 7.0268C61.1559 6.51513 61.155 6.00341 61.158 5.4917C61.8637 5.48895 62.5693 5.48939 63.2749 5.48984C63.7845 5.49016 64.2942 5.49048 64.8038 5.48959C64.8303 5.48949 64.8569 5.48926 64.8836 5.48904C65.1236 5.487 65.3689 5.48491 65.5971 5.57054C66.0273 5.71568 66.3954 5.98079 66.7606 6.24388C66.8411 6.30187 66.9214 6.35976 67.0023 6.41624C67.0033 5.95471 67.0031 5.49317 67.0029 5.03164C67.0027 4.52395 67.0025 4.01626 67.0039 3.50857Z" fill="#E66C2A"/>
</svg>
