<svg xmlns="http://www.w3.org/2000/svg" width="110" height="20" viewBox="0 0 110 20">
  <g id="Trailer_-_Fontaine" data-name="Trailer - Fontaine" transform="translate(-353.877 -9888)">
    <rect id="Rectangle_63525" data-name="Rectangle 63525" width="110" height="20" transform="translate(353.877 9888)" fill="#aaa" opacity="0"/>
    <path id="Union_703" data-name="Union 703" d="M12.421,8.96a2.571,2.571,0,0,1-2.572-2.6V2.6A2.572,2.572,0,0,1,12.421,0h7.057A2.572,2.572,0,0,1,22.05,2.6V6.359a2.571,2.571,0,0,1-2.572,2.6Zm.241-5.418V5.417a1.317,1.317,0,0,0,1.354,1.3h3.716a1.316,1.316,0,0,0,1.354-1.3V3.542a1.316,1.316,0,0,0-1.354-1.3H14.016A1.316,1.316,0,0,0,12.662,3.542ZM68.426,8.855,63.2,2.379V8.855H60.512V.106H64.6l5.159,6.388V.106h2.684V8.855Zm-29.243,0v-6.7H35.44V.106H45.735l0,2.051H41.893v6.7Zm-8.476,0L25.479,2.379V8.855H22.8V.106h4.09l5.157,6.388V.106h2.683V8.855Zm22.584,0L52.378,7.2H46.944L46.03,8.855H43.121L47.947.106h3.424L56.2,8.855ZM47.931,5.4h3.462L49.662,2.271Zm8.876,3.452V.106h2.706V8.854Zm16.449,0V.105h9.769V2.156H75.962V3.536H82.6V5.324H75.962V6.8h7.063V8.854ZM0,8.854V.105H9.253V2.156H2.7V3.785H8.948v2.05H2.71V8.854Z" transform="translate(353.877 9893.52)" fill="#aaa"/>
  </g>
</svg>
