<svg xmlns="http://www.w3.org/2000/svg" width="110" height="20" viewBox="0 0 110 20">
  <g id="Trailer_-_Kaufman" data-name="Trailer - Kaufman" transform="translate(-353.877 -10288)">
    <rect id="Rectangle_63507" data-name="Rectangle 63507" width="110" height="20" transform="translate(353.877 10288)" fill="#aaa" opacity="0"/>
    <path id="Union_707" data-name="Union 707" d="M.021,19.909v-.493c.018-.01.037-.031.058-.033.31-.03.622-.039.928-.089a3.2,3.2,0,0,0,1.037-.342,1.009,1.009,0,0,0,.463-.589,4.872,4.872,0,0,0,.244-1.573q0-4.542,0-9.084V4.784A12.443,12.443,0,0,0,2.656,2a1.642,1.642,0,0,0-.578-.958A2.033,2.033,0,0,0,1.3.73,6.019,6.019,0,0,0,.3.594C.26.592.23.592.2.592c-.111,0-.15,0-.2-.136A2.876,2.876,0,0,1,.014,0H8.56c.183.007.227.055.208.23s.01.291-.127.353a1.069,1.069,0,0,1-.4.033,1.837,1.837,0,0,0-.24,0,5.271,5.271,0,0,0-1.249.3,1.035,1.035,0,0,0-.346.19.964.964,0,0,0-.218.346A5.048,5.048,0,0,0,5.948,3.4c-.011.729-.028,1.458-.015,2.187.021,1.1.049,2.2-.014,3.3-.007.125-.011.25-.017.366.12.075.181,0,.245-.057.594-.51,1.19-1.016,1.777-1.533Q9.2,6.547,10.467,5.41c.3-.273.574-.578.87-.857.517-.488,1.012-1,1.482-1.53a4.9,4.9,0,0,0,.818-1.2.738.738,0,0,0-.307-.968,2.461,2.461,0,0,0-1.27-.269A.875.875,0,0,1,11.966.6c-.108-.013-.215-.03-.322-.046C11.624.4,11.6.255,11.59.106c0-.032.068-.083.113-.1A.7.7,0,0,1,11.893,0h7.753c.086,0,.074.492.038.538-.075.094-.416.076-.55.1a6.77,6.77,0,0,0-1.188.281,9.621,9.621,0,0,0-3.216,2.247c-1.111,1-2.2,2.012-3.3,3.021L10.8,6.76c-.305.279-.631.536-.933.818-.243.227-.464.478-.7.718a.144.144,0,0,0-.013.213c.071.085.147.167.223.249q1.647,1.769,3.323,3.513c.352.37.7.744,1.051,1.116,1.608,1.706,3.234,3.417,4.937,5.045a3.292,3.292,0,0,0,1.319.744c.361.115.734.125,1.1.227v.5H11.78a2.865,2.865,0,0,1-.053-.341c-.006-.131.045-.2.164-.181a7.824,7.824,0,0,0,1.286-.093.746.746,0,0,0,.712-.513.554.554,0,0,0,.013-.323,3.47,3.47,0,0,0-.593-1.137,15.587,15.587,0,0,0-1.345-1.481c-1.076-1.07-2.053-2.226-3.091-3.33-.419-.446-.847-.883-1.27-1.325-.192-.2-.379-.408-.571-.61a.355.355,0,0,0-.149-.115.281.281,0,0,0-.215.025c-.218.2-.422.409-.631.616a.475.475,0,0,0-.134.37c.025,1.153.026,2.307.024,3.461,0,.577,0,1.153,0,1.73a5.169,5.169,0,0,0,.147,1.559,1.381,1.381,0,0,0,1.052.94,8.115,8.115,0,0,0,1.1.2,1.209,1.209,0,0,0,.213.013c.186-.007.246.046.235.23-.005.094-.022.189-.036.306ZM28.345,13.8a3.869,3.869,0,0,0-.083-.735,2.418,2.418,0,0,0-.32.275,3.394,3.394,0,0,1-1.031.748,2.242,2.242,0,0,1-1.735.177,1.784,1.784,0,0,1-.5-.254,1.643,1.643,0,0,1-.828-1.208,6.653,6.653,0,0,1-.076-.676c-.007-1.374,0-2.748,0-4.122,0-.159-.008-.318-.02-.477a.635.635,0,0,0-.616-.639,1.878,1.878,0,0,1-.238-.015c-.112-.026-.213-.086-.193-.223s.133-.119.234-.115c.487.018.973.04,1.46.049.218,0,.437-.026.656-.029a1.461,1.461,0,0,1,.251.035V11.1c0,.278-.011.556,0,.834a4.179,4.179,0,0,0,.084.678.982.982,0,0,0,.834.742,1.95,1.95,0,0,0,1.771-.643.776.776,0,0,0,.238-.562q0-1.805,0-3.61c0-.279,0-.557,0-.835a.729.729,0,0,0-.73-.811c-.1-.012-.2-.01-.3-.023a.344.344,0,0,1-.169-.047c-.048-.04-.111-.129-.1-.163a.24.24,0,0,1,.171-.122c.178-.008.357.016.535.02.437.011.873.024,1.309.025.187,0,.373-.029.56-.043.171-.013.226.042.226.226,0,1.931-.011,3.862-.01,5.793a2.048,2.048,0,0,0,.084.43c.063.287.279.362.535.377.089.005.179,0,.269,0,.105,0,.195.047.186.144a.275.275,0,0,1-.15.189,2.775,2.775,0,0,1-.406.085c-.232.052-.468.093-.694.167-.382.125-.756.272-1.172.423C28.366,14.375,28.346,13.84,28.345,13.8Zm23.578.413a1.638,1.638,0,0,1-1.066-1.384,2.076,2.076,0,0,1,.578-1.694,3.584,3.584,0,0,1,1.25-.846c.722-.328,1.459-.623,2.191-.929.108-.045.191-.1.194-.231A7,7,0,0,0,55,7.616a.823.823,0,0,0-.613-.69,1.727,1.727,0,0,0-1.411.165.731.731,0,0,0-.294.806,1.149,1.149,0,0,1,.1.547.832.832,0,0,1-1.334.424,1.266,1.266,0,0,1-.252-.292.485.485,0,0,1-.068-.45,2.357,2.357,0,0,1,1.737-1.555,4.607,4.607,0,0,1,1.565-.128,2.39,2.39,0,0,1,1.523.6,1.6,1.6,0,0,1,.41.614,3.36,3.36,0,0,1,.231,1.218c-.02,1.224-.008,2.449-.006,3.674,0,.109.016.217.022.326a.55.55,0,0,0,.9.391c.1-.062.2-.112.3-.167.2.331.08.483-.111.6a4.227,4.227,0,0,1-1.2.578,1.084,1.084,0,0,1-1.31-.78c-.067-.256-.117-.278-.32-.1a4.442,4.442,0,0,1-1.727.91,1.7,1.7,0,0,1-.466.065A2,2,0,0,1,51.923,14.215Zm1.305-3.593a1.717,1.717,0,0,0-.794,1.814,1.237,1.237,0,0,0,.9.929,1.691,1.691,0,0,0,1.24-.285.966.966,0,0,0,.519-.87c-.01-.7,0-1.409,0-2.113a2.579,2.579,0,0,0-.047-.339A5.649,5.649,0,0,0,53.228,10.621ZM17.195,14.359a1.861,1.861,0,0,1-1.224-.577,1.641,1.641,0,0,1-.44-1.5,2.233,2.233,0,0,1,.845-1.4,7.447,7.447,0,0,1,1.834-.976c.42-.178.844-.346,1.267-.518.257-.1.267-.11.262-.394-.008-.437-.017-.874-.042-1.309a.91.91,0,0,0-.735-.794,1.985,1.985,0,0,0-1.113.1.71.71,0,0,0-.472.858,3.257,3.257,0,0,1,.046.562.745.745,0,0,1-.891.641,1.39,1.39,0,0,1-.409-.175.7.7,0,0,1-.26-.905A2.288,2.288,0,0,1,17.5,6.579a3.674,3.674,0,0,1,1.294-.168,2.77,2.77,0,0,1,1.839.641,1.972,1.972,0,0,1,.6,1.445c.025,1.243.017,2.486.028,3.73,0,.227.049.455.04.681-.018.459.557.634.914.358.077-.06.145-.131.236-.215.165.247.173.422,0,.576a2.812,2.812,0,0,1-1.461.688,1.025,1.025,0,0,1-1.019-.631c-.033-.083-.055-.171-.091-.253-.08-.182-.162-.208-.316-.074a4.522,4.522,0,0,1-1.1.706,2.677,2.677,0,0,1-1.11.3Q17.271,14.366,17.195,14.359Zm2.263-4.519a5.359,5.359,0,0,0-1.564.784,1.917,1.917,0,0,0-.72.882,1.494,1.494,0,0,0-.027,1.074,1.088,1.088,0,0,0,.648.7,1.54,1.54,0,0,0,1.495-.215.98.98,0,0,0,.46-.793c0-.356.006-.712.007-1.068,0-.378,0-.756.005-1.134,0-.2-.016-.27-.115-.27A.741.741,0,0,0,19.458,9.841ZM49.98,14.3a12.086,12.086,0,0,0-3.146-.017c-.166.021-.407-.021-.39-.187.013-.131.181-.17.312-.18a.981.981,0,0,0,.625-.215,1.083,1.083,0,0,0,.216-.8l0-3.909a2.076,2.076,0,0,0-.218-1.138c-.585-.913-1.782-.467-2.451.056a1.363,1.363,0,0,0-.426.47,2.213,2.213,0,0,0-.08.939q0,.545,0,1.091,0,1.091.005,2.182a2.265,2.265,0,0,0,.1.794.767.767,0,0,0,.568.514,1.719,1.719,0,0,1,.406.039c.127.051.206.246.091.32a.265.265,0,0,1-.177.02,14.03,14.03,0,0,0-3.282.011c-.131.016-.3.015-.352-.1s.069-.257.2-.289.268,0,.4-.029a.687.687,0,0,0,.478-.448,2.032,2.032,0,0,0,.1-.674c.035-1.284.07-2.571-.022-3.852a1.81,1.81,0,0,0-.5-1.335,1.523,1.523,0,0,0-1.567-.011,1.808,1.808,0,0,0-.81.658,2.4,2.4,0,0,0-.227,1.261l.013,3.18a2.212,2.212,0,0,0,.1.812.753.753,0,0,0,.6.5,1.169,1.169,0,0,0,.141,0,.8.8,0,0,1,.191.005c.109.02.22.112.2.221a.815.815,0,0,1-.269.032l-3.5.023a.234.234,0,0,1-.1-.013c-.126-.054-.056-.264.072-.311a.614.614,0,0,1,.248-.019,1.051,1.051,0,0,0,.16,0,.684.684,0,0,0,.53-.457,2.013,2.013,0,0,0,.091-.727q.005-2.154.011-4.308c0-.317-.063-.721-.371-.8a1.376,1.376,0,0,0-.484.057c-.209.028-.5-.14-.234-.311a4.5,4.5,0,0,1,.855-.326c.149-.055,1.675-.532,1.671-.585l.1,1.228a6.541,6.541,0,0,1,1.471-.983,2.4,2.4,0,0,1,1.729-.139,1.836,1.836,0,0,1,1.163,1.283,6.115,6.115,0,0,1,1.9-1.243,2.238,2.238,0,0,1,2.167.284A2.234,2.234,0,0,1,48.979,8.1a6.647,6.647,0,0,1,.107,1.418q.005,1.656.011,3.311a1.861,1.861,0,0,0,.069.605.632.632,0,0,0,.408.422.939.939,0,0,0,.238.019.887.887,0,0,1,.251.023c.158.046.279.268.149.368a.208.208,0,0,1-.13.037A.729.729,0,0,1,49.98,14.3Zm11.277-.045a10.71,10.71,0,0,0-1.934-.057c-.307.017-.613.046-.921.066-.09.006-.205.009-.2-.113a.328.328,0,0,1,.125-.213.447.447,0,0,1,.227-.055.615.615,0,0,0,.584-.473,2.454,2.454,0,0,0,.111-.64q.015-2.164,0-4.33a3.585,3.585,0,0,0-.106-.673.321.321,0,0,0-.258-.259,1.116,1.116,0,0,0-.616-.04.745.745,0,0,1-.191,0c0-.32.028-.346.27-.4a7.139,7.139,0,0,0,.776-.2c.432-.142.858-.3,1.286-.456.132-.047.222-.011.232.128.018.246.008.495.01.742,0,.083,0,.166,0,.291a1.315,1.315,0,0,0,.219-.1c.2-.148.393-.3.591-.455a2.772,2.772,0,0,1,1.875-.637,1.75,1.75,0,0,1,.545.124,1.981,1.981,0,0,1,1.17,1.378A4.2,4.2,0,0,1,65.2,9.12c-.01,1.214-.005,2.429,0,3.643a3.927,3.927,0,0,0,.037.473.685.685,0,0,0,.6.67c.087.02.177.028.263.053.105.031.127.116.109.215s-.087.115-.177.108c-.495-.037-.989-.1-1.484-.1-.545,0-1.091.052-1.636.081a.477.477,0,0,1-.174,0c-.049-.017-.116-.069-.119-.109a.217.217,0,0,1,.075-.17,1.825,1.825,0,0,1,.278-.1,2.705,2.705,0,0,0,.349-.162.6.6,0,0,0,.275-.43,9.363,9.363,0,0,0,.1-1.812c.019-.806,0-1.612-.013-2.418a2.963,2.963,0,0,0-.284-1.322.671.671,0,0,0-.3-.314,1.42,1.42,0,0,0-1.365.053,2.873,2.873,0,0,0-.761.539c-.277.3-.219.607-.21.993.031,1.308,0,2.615,0,3.922.007.473.134.848.632.973.126.028.255.04.379.073.078.02.165.069.123.166-.026.061-.1.14-.156.143l-.073,0A3.169,3.169,0,0,1,61.257,14.252ZM31.409,14.02c.131-.029.251-.057.371-.081.175-.036.353-.058.524-.1a.7.7,0,0,0,.535-.614,5.946,5.946,0,0,0,.078-1c-.014-1.01-.02-2.021-.008-3.032q.009-.758.033-1.515c.007-.2.051-.443-.178-.525a5.171,5.171,0,0,0-.785-.006c-.245.007-.452.015-.454.007-.026-.1-.052-.2-.073-.293-.049-.218.028-.294.24-.306.142-.008.283,0,.423,0a2.514,2.514,0,0,0,.8-.066s.053-1.01.071-1.115a4.426,4.426,0,0,1,.349-1.136,2.542,2.542,0,0,1,1.7-1.495,3.342,3.342,0,0,1,1.739.025,1.486,1.486,0,0,1,.869.542.694.694,0,0,1-1.163.755c-.12-.157-.237-.317-.347-.481a.858.858,0,0,0-1.015-.431c-.68.174-.707,1.063-.708,1.635s.031,1.135,0,1.7c-.005.1.953.076,1.035.076.216,0,.432-.007.648-.013.2-.006.428-.045.409.226,0,.04-.01.079-.015.118-.033.276-.067.279-.338.266-.5-.024-1.01-.026-1.515-.018-.214,0-.267.069-.254.247.068.919.014,1.839.008,2.759,0,.556,0,1.112.007,1.668a6.188,6.188,0,0,0,.118,1.544.768.768,0,0,0,.669.519c.212.046.433.054.65.08a1.124,1.124,0,0,1,.13.033c.018.3.011.294-.233.285-.724-.028-1.444-.1-2.172-.1-.627.006-1.249.055-1.871.1l-.042,0C31.5,14.281,31.444,14.2,31.409,14.02Z" transform="translate(353.877 10288.046)" fill="#aaa"/>
  </g>
</svg>
