<svg xmlns="http://www.w3.org/2000/svg" width="18" height="18" viewBox="0 0 18 18">
  <g id="Group_111131" data-name="Group 111131" transform="translate(14079 -18666)">
    <g id="Group_110696" data-name="Group 110696" transform="translate(-252 2410)">
      <rect id="Rectangle_116154" data-name="Rectangle 116154" width="18" height="18" rx="9" transform="translate(-13827 16256)" fill="#3074d3" opacity="0.2"/>
    </g>
    <g id="_000000ff" data-name="#000000ff" transform="translate(-14075.1 18584.176)">
      <path id="Path_42571" data-name="Path 42571" d="M.709,87.523a1.239,1.239,0,0,1,.517-.1q3.939,0,7.878,0a1.18,1.18,0,0,1,1.186,1.139v.067a1.181,1.181,0,0,1-1.2,1.145h-7.9A1.18,1.18,0,0,1,0,88.634v-.069A1.185,1.185,0,0,1,.709,87.523Z" transform="translate(0 0)" fill="#3074d3"/>
      <path id="Path_42572" data-name="Path 42572" d="M.3,307.571a1.185,1.185,0,0,1,.906-.394H9.1a1.18,1.18,0,0,1,1.186,1.144v.068A1.18,1.18,0,0,1,9.1,309.528H1.428A2.215,2.215,0,0,1,.9,309.5a1.179,1.179,0,0,1-.767-.594A1.193,1.193,0,0,1,0,308.389v-.068A1.182,1.182,0,0,1,.3,307.571Z" transform="translate(0 -215.328)" fill="#3074d3"/>
    </g>
  </g>
</svg>
