<svg xmlns="http://www.w3.org/2000/svg" width="18" height="18" viewBox="0 0 18 18">
  <g id="Clear_All" data-name="Clear All" transform="translate(-1242 -1540)">
    <path id="Path_35362" data-name="Path 35362" d="M1.985,7.9a7.171,7.171,0,0,0-1.35,3.27l1.815-.918a.188.188,0,0,1,.255.085.192.192,0,0,1-.011.188L.138,14.407C.028,15.427,0,16.2,0,16.2s6.546-.343,8.254-2.071A8.8,8.8,0,0,0,10.1,9.116L6.968,6A8.52,8.52,0,0,0,1.985,7.9M15.9.3A1.013,1.013,0,0,0,14.472.292v0l-4.3,4.227L8.909,3.266a.347.347,0,0,0-.494.006.341.341,0,0,0-.082.135L7.747,5.186,10.882,8.3l1.8-.614a.347.347,0,0,0,.219-.439.334.334,0,0,0-.084-.135l-1.2-1.193L15.9,1.705a.978.978,0,0,0,.026-1.38L15.9.3" transform="translate(1242.9 1540.9)" fill="#aaa"/>
    <rect id="Rectangle_63457" data-name="Rectangle 63457" width="18" height="18" transform="translate(1242 1540)" fill="#aaa" opacity="0"/>
  </g>
</svg>