<svg xmlns="http://www.w3.org/2000/svg" width="18" height="18" viewBox="0 0 18 18">
  <rect id="Rectangle_52139" data-name="Rectangle 52139" width="18" height="18" rx="1" fill="#b7b7b7"/>
  <g id="Confirm" transform="translate(2 2)">
    <rect id="Rectangle_62296" data-name="Rectangle 62296" width="14" height="14" fill="#6c6c6c" opacity="0"/>
    <path id="Path_36501" data-name="Path 36501" d="M4.72,11.721.833,7.834a.7.7,0,0,1,0-.99l.99-.99a.7.7,0,0,1,.99,0l2.4,2.4,5.971-5.974a.7.7,0,0,1,.99,0l.99.99a.7.7,0,0,1,0,.99L5.71,11.718a.7.7,0,0,1-.99,0Z" transform="translate(0 0)" fill="#6c6c6c"/>
  </g>
</svg>
