<svg data-name="4-fav" height="55" id="_4-fav" viewBox="0 0 44 55" width="44" xmlns="http://www.w3.org/2000/svg">
  <path
    d="M551.868,162.338a21.953,21.953,0,0,0-17.7,35.01c4.008,5.4,17.741,19.99,17.741,19.99s13.641-14.585,17.649-19.99a21.953,21.953,0,0,0-17.7-35.01Zm0,37.234a15.274,15.274,0,1,1,15.3-15.274A15.288,15.288,0,0,1,551.868,199.572Z"
    data-name="Path 2805"
    fill="#4b7ee3"
    id="Path_2805" transform="translate(-529.868 -162.338)"/>
  <path d="M15.4,0A15.4,15.4,0,1,1,0,15.4,15.4,15.4,0,0,1,15.4,0Z" data-name="Path 2808" fill="#fff"
        id="Path_2808" transform="translate(6.6 6.6)"/>
  <path
    d="M13.321,5.543a.716.716,0,0,0-.611-.509L8.855,4.669,7.331.946a.7.7,0,0,0-1.306,0L4.5,4.669.645,5.034a.718.718,0,0,0-.611.509.763.763,0,0,0,.207.787L3.156,9,2.3,12.947a.757.757,0,0,0,.276.765.684.684,0,0,0,.78.036l3.325-2.074L10,13.748a.685.685,0,0,0,.781-.036.757.757,0,0,0,.276-.765L10.2,9,13.114,6.33a.763.763,0,0,0,.207-.787Zm-6.579,6.09"
    fill="#fff"
    id="star" stroke="#4b7ee3" stroke-width="1" transform="translate(15.644 34.147)"/>
  <path d="M13.6-2.94H11.32V0H8.16V-2.94H.62V-5.12L7.22-14h3.4L4.5-5.58H8.26V-8.2h3.06v2.62H13.6Z" data-name="Path 5463"
        fill="#4b7ee3"
        id="Path_5463" transform="translate(14 29)"/>
</svg>
