<svg width="18" height="18" viewBox="0 0 18 18" fill="none" xmlns="http://www.w3.org/2000/svg">
<path d="M15.0749 0.900879H2.9249C2.38784 0.900879 1.87277 1.11423 1.49301 1.49399C1.11325 1.87375 0.899902 2.38882 0.899902 2.92588V15.0759C0.900141 15.6129 1.11357 16.1278 1.49327 16.5075C1.87298 16.8872 2.38791 17.1006 2.9249 17.1009H15.0749C15.3409 17.1009 15.6043 17.0485 15.85 16.9466C16.0958 16.8448 16.3191 16.6956 16.5071 16.5075C16.6952 16.3193 16.8443 16.096 16.946 15.8502C17.0477 15.6044 17.1 15.341 17.0999 15.075V2.92588C17.0999 2.65995 17.0475 2.39663 16.9458 2.15094C16.844 1.90526 16.6948 1.68203 16.5068 1.49399C16.3188 1.30595 16.0955 1.15679 15.8498 1.05502C15.6042 0.953257 15.3408 0.900879 15.0749 0.900879ZM7.4699 13.1976C7.59059 13.3184 7.65838 13.4822 7.65838 13.653C7.65838 13.8238 7.59059 13.9876 7.4699 14.1084L7.0145 14.5647C6.89368 14.6854 6.72988 14.7532 6.5591 14.7532C6.38832 14.7532 6.22453 14.6854 6.1037 14.5647L5.453 13.9077L4.7987 14.5611C4.73901 14.6209 4.6681 14.6684 4.59003 14.7008C4.51197 14.7332 4.42827 14.7499 4.34375 14.7499C4.25923 14.7499 4.17554 14.7332 4.09747 14.7008C4.0194 14.6684 3.94849 14.6209 3.8888 14.5611L3.4325 14.1057C3.31187 13.985 3.2441 13.8214 3.2441 13.6507C3.2441 13.4801 3.31187 13.3165 3.4325 13.1958L4.0859 12.5424L3.4325 11.889C3.31214 11.7683 3.24455 11.6049 3.24455 11.4345C3.24455 11.2641 3.31214 11.1006 3.4325 10.98L3.8888 10.5246C3.9484 10.4649 4.01918 10.4176 4.09709 10.3853C4.175 10.353 4.25851 10.3363 4.34285 10.3363C4.42719 10.3363 4.51071 10.353 4.58862 10.3853C4.66653 10.4176 4.7373 10.4649 4.7969 10.5246L5.4512 11.1771L6.1046 10.5246C6.16429 10.4647 6.2352 10.4173 6.31327 10.3849C6.39134 10.3525 6.47503 10.3358 6.55955 10.3358C6.64407 10.3358 6.72777 10.3525 6.80583 10.3849C6.8839 10.4173 6.95481 10.4647 7.0145 10.5246L7.4708 10.98C7.59122 11.1008 7.65883 11.2644 7.65883 11.4349C7.65883 11.6055 7.59122 11.7691 7.4708 11.8899L6.8165 12.5433L7.4699 13.1976ZM7.9847 5.77798C7.9847 5.86244 7.96805 5.94608 7.9357 6.0241C7.90335 6.10212 7.85594 6.173 7.79617 6.23268C7.7364 6.29237 7.66546 6.33968 7.58739 6.37192C7.50932 6.40416 7.42567 6.4207 7.3412 6.42058H6.4205V7.34488C6.4205 7.51555 6.35271 7.67922 6.23203 7.7999C6.11135 7.92058 5.94767 7.98838 5.777 7.98838H5.1353C4.96464 7.98838 4.80096 7.92058 4.68028 7.7999C4.5596 7.67922 4.4918 7.51555 4.4918 7.34488V6.42058H3.5675C3.39707 6.42058 3.23363 6.35288 3.11312 6.23237C2.9926 6.11186 2.9249 5.94841 2.9249 5.77798V5.13088C2.9249 4.96037 2.99258 4.79683 3.11306 4.67617C3.23355 4.55552 3.39699 4.48762 3.5675 4.48738H4.4918V3.56848C4.4918 3.39781 4.5596 3.23414 4.68028 3.11346C4.80096 2.99278 4.96464 2.92498 5.1353 2.92498H5.7779C5.94857 2.92498 6.11225 2.99278 6.23293 3.11346C6.35361 3.23414 6.4214 3.39781 6.4214 3.56848V4.49188H7.3457C7.51621 4.49212 7.67966 4.56002 7.80014 4.68067C7.92063 4.80133 7.9883 4.96487 7.9883 5.13538L7.9847 5.77798ZM15.0713 14.1066C15.0713 14.277 15.0036 14.4405 14.8831 14.561C14.7626 14.6815 14.5991 14.7492 14.4287 14.7492H10.6487C10.5643 14.7493 10.4807 14.7328 10.4027 14.7006C10.3247 14.6684 10.2538 14.6212 10.1941 14.5616C10.1343 14.502 10.0869 14.4312 10.0545 14.3533C10.0221 14.2754 10.0053 14.1919 10.0052 14.1075V13.464C10.0052 13.3795 10.0219 13.2959 10.0542 13.2179C10.0866 13.1398 10.134 13.069 10.1937 13.0093C10.2535 12.9496 10.3244 12.9023 10.4025 12.87C10.4806 12.8378 10.5642 12.8213 10.6487 12.8214H14.4242C14.5087 12.8213 14.5923 12.8378 14.6704 12.87C14.7485 12.9023 14.8194 12.9496 14.8792 13.0093C14.9389 13.069 14.9864 13.1398 15.0187 13.2179C15.0511 13.2959 15.0677 13.3795 15.0677 13.464L15.0713 14.1066ZM15.0713 11.6244C15.0711 11.7949 15.0032 11.9583 14.8825 12.0788C14.7619 12.1993 14.5983 12.267 14.4278 12.267H10.6559C10.4854 12.267 10.3219 12.1993 10.2012 12.0788C10.0805 11.9583 10.0126 11.7949 10.0124 11.6244V10.9809C10.0124 10.8102 10.0802 10.6465 10.2009 10.5259C10.3216 10.4052 10.4852 10.3374 10.6559 10.3374H14.4314C14.6021 10.3374 14.7657 10.4052 14.8864 10.5259C15.0071 10.6465 15.0749 10.8102 15.0749 10.9809L15.0713 11.6244ZM15.0713 5.77438C15.0713 5.94505 15.0035 6.10872 14.8828 6.2294C14.7621 6.35008 14.5985 6.41788 14.4278 6.41788H10.6559C10.4854 6.41788 10.3219 6.35021 10.2012 6.22972C10.0805 6.10924 10.0126 5.94579 10.0124 5.77528V5.13088C10.0124 4.96021 10.0802 4.79654 10.2009 4.67586C10.3216 4.55518 10.4852 4.48738 10.6559 4.48738H14.4314C14.6021 4.48738 14.7657 4.55518 14.8864 4.67586C15.0071 4.79654 15.0749 4.96021 15.0749 5.13088L15.0713 5.77438Z" fill="#919191"/>
</svg>
