<svg width="10" height="7" viewBox="0 0 10 7" fill="none" xmlns="http://www.w3.org/2000/svg">
<path d="M0.759278 6.10098L9.24053 6.10098C9.37092 6.10106 9.4984 6.06218 9.60684 5.98924C9.71528 5.9163 9.79981 5.81259 9.84972 5.69124C9.89963 5.56989 9.91268 5.43634 9.88722 5.30752C9.86176 5.17869 9.79893 5.06036 9.70669 4.96752L5.46606 0.695402C5.3424 0.570909 5.17473 0.500977 4.9999 0.500977C4.82508 0.500977 4.65741 0.570909 4.53374 0.695402L0.29312 4.96752C0.200878 5.06036 0.13805 5.17869 0.112588 5.30752C0.0871262 5.43635 0.100176 5.56989 0.150086 5.69124C0.199996 5.8126 0.284521 5.9163 0.392963 5.98924C0.501405 6.06218 0.628889 6.10106 0.759278 6.10098Z" fill="#919191"/>
</svg>
