<svg width="18" height="14" viewBox="0 0 18 14" fill="none" xmlns="http://www.w3.org/2000/svg">
<path fill-rule="evenodd" clip-rule="evenodd" d="M12.3749 2.27744H15.7499C16.1079 2.27744 16.4513 2.41967 16.7045 2.67285C16.9577 2.92602 17.0999 3.2694 17.0999 3.62744V5.65244C17.0999 6.01048 16.9577 6.35386 16.7045 6.60704C16.4513 6.86021 16.1079 7.00244 15.7499 7.00244H10.3499V6.66494C10.3499 6.57543 10.3143 6.48958 10.2511 6.42629C10.1878 6.363 10.1019 6.32744 10.0124 6.32744H7.9874C7.89789 6.32744 7.81205 6.363 7.74875 6.42629C7.68546 6.48958 7.6499 6.57543 7.6499 6.66494V7.00244H2.2499C1.89186 7.00244 1.54848 6.86021 1.29531 6.60704C1.04213 6.35386 0.899902 6.01048 0.899902 5.65244V3.62744C0.899902 3.2694 1.04213 2.92602 1.29531 2.67285C1.54848 2.41967 1.89186 2.27744 2.2499 2.27744H5.6249V1.60244C5.6249 1.2444 5.76713 0.90102 6.02031 0.647846C6.27348 0.394672 6.61686 0.252441 6.9749 0.252441H11.0249C11.3829 0.252441 11.7263 0.394672 11.9795 0.647846C12.2327 0.90102 12.3749 1.2444 12.3749 1.60244V2.27744ZM6.9749 2.27744H11.0249V1.60244H6.9749V2.27744Z" fill="#919191"/>
<path d="M16.7311 7.33352C16.7936 7.32764 16.8565 7.33928 16.9127 7.36716C16.9691 7.39521 17.0165 7.43848 17.0496 7.49208C17.0827 7.54568 17.1001 7.60748 17.0999 7.67047V12.4036C17.0999 12.7616 16.9577 13.105 16.7045 13.3581C16.4513 13.6113 16.1079 13.7536 15.7499 13.7536H2.2499C1.89186 13.7536 1.54848 13.6113 1.29531 13.3581C1.04213 13.105 0.899902 12.7616 0.899902 12.4036V7.67047C0.899902 7.60779 0.917356 7.54633 0.950308 7.49301C0.983259 7.4397 1.03041 7.39662 1.08647 7.36859C1.14253 7.34056 1.20529 7.32869 1.26771 7.33431C1.33014 7.33994 1.38976 7.36285 1.4399 7.40045C1.67208 7.57941 1.95677 7.67685 2.2499 7.67766H7.6499V8.69016C7.6499 8.77968 7.68546 8.86552 7.74875 8.92882C7.81205 8.99211 7.89789 9.02767 7.9874 9.02767H10.0115C10.101 9.02767 10.1869 8.99211 10.2502 8.92882C10.3134 8.86552 10.349 8.77968 10.349 8.69016V7.67766H15.749C16.0421 7.67685 16.3268 7.57941 16.559 7.40045C16.609 7.36257 16.6686 7.3394 16.7311 7.33352Z" fill="#919191"/>
</svg>
