<svg width="18" height="18" viewBox="0 0 18 18" fill="none" xmlns="http://www.w3.org/2000/svg">
<path d="M8.99922 0.451172C7.30819 0.451172 5.65514 0.952621 4.2491 1.89211C2.84306 2.83159 1.74718 4.16692 1.10005 5.72923C0.452922 7.29154 0.283605 9.01066 0.613509 10.6692C0.943413 12.3277 1.75772 13.8512 2.95346 15.0469C4.1492 16.2427 5.67266 17.057 7.3312 17.3869C8.98974 17.7168 10.7089 17.5475 12.2712 16.9003C13.8335 16.2532 15.1688 15.1573 16.1083 13.7513C17.0478 12.3453 17.5492 10.6922 17.5492 9.00117C17.5492 6.73357 16.6484 4.55884 15.045 2.95541C13.4415 1.35197 11.2668 0.451172 8.99922 0.451172ZM8.99922 3.76117C9.59957 3.76097 10.1865 3.93883 10.6858 4.27224C11.185 4.60566 11.5742 5.07965 11.804 5.63427C12.0338 6.18888 12.094 6.7992 11.977 7.38803C11.8599 7.97685 11.5708 8.51773 11.1463 8.94224C10.7218 9.36675 10.1809 9.65583 9.59208 9.7729C9.00325 9.88998 8.39293 9.82979 7.83832 9.59995C7.2837 9.37012 6.80971 8.98096 6.47629 8.4817C6.14288 7.98245 5.96503 7.39552 5.96522 6.79517C5.96522 6.39674 6.0437 6.00221 6.19617 5.63411C6.34865 5.26601 6.57212 4.93154 6.85386 4.64981C7.42284 4.08082 8.19455 3.76117 8.99922 3.76117ZM8.99922 15.6212C8.0369 15.6207 7.08628 15.4101 6.21384 15.004C5.34139 14.5979 4.56817 14.0062 3.94822 13.2702C4.27312 12.6492 4.76162 12.1288 5.36088 11.7654C5.96015 11.4019 6.64736 11.2093 7.34822 11.2082C7.43127 11.2092 7.51375 11.222 7.59322 11.2462C8.5065 11.5632 9.49995 11.5632 10.4132 11.2462C10.4927 11.222 10.5752 11.2092 10.6582 11.2082C11.3591 11.2092 12.0464 11.4018 12.6456 11.7652C13.2449 12.1287 13.7334 12.6491 14.0582 13.2702C13.4374 14.0072 12.6629 14.5996 11.789 15.0057C10.9151 15.4118 9.96289 15.6219 8.99922 15.6212Z" fill="#919191"/>
</svg>
