<svg width="18" height="18" viewBox="0 0 18 18" fill="none" xmlns="http://www.w3.org/2000/svg">
<path d="M8.99922 0.451172C7.30819 0.451172 5.65514 0.952621 4.2491 1.89211C2.84306 2.83159 1.74718 4.16692 1.10005 5.72923C0.452923 7.29154 0.283605 9.01066 0.613508 10.6692C0.943412 12.3277 1.75772 13.8512 2.95346 15.0469C4.1492 16.2427 5.67266 17.057 7.3312 17.3869C8.98974 17.7168 10.7089 17.5475 12.2712 16.9003C13.8335 16.2532 15.1688 15.1573 16.1083 13.7513C17.0478 12.3453 17.5492 10.6922 17.5492 9.00117C17.5494 7.87833 17.3283 6.76647 16.8987 5.72907C16.469 4.69168 15.8392 3.74908 15.0453 2.95512C14.2513 2.16115 13.3087 1.53137 12.2713 1.10173C11.2339 0.672103 10.1221 0.451041 8.99922 0.451172ZM8.99922 2.65817C10.489 2.66061 11.9304 3.18684 13.0713 4.14477C14.2123 5.1027 14.98 6.43133 15.2402 7.89817H12.0032C11.8106 7.5645 11.5337 7.28727 11.2002 7.09423C10.8668 6.90118 10.4885 6.79909 10.1032 6.79817H7.89722C7.51193 6.79909 7.13364 6.90118 6.8002 7.09423C6.46676 7.28727 6.18987 7.5645 5.99722 7.89817H2.75822C3.01826 6.43124 3.78594 5.1025 4.92691 4.14453C6.06788 3.18657 7.50943 2.66041 8.99922 2.65817ZM2.75822 10.1042H6.24922L7.89922 12.3112V15.2432C6.62017 15.0149 5.44187 14.4 4.52315 13.4812C3.60444 12.5625 2.98949 11.3842 2.76122 10.1052M10.1052 15.2432V12.3112L11.7492 10.1042H15.2352C15.007 11.3832 14.392 12.5615 13.4733 13.4802C12.5546 14.399 11.3763 15.0139 10.0972 15.2422" fill="#919191"/>
</svg>
