<svg width="18" height="18" viewBox="0 0 18 18" fill="none" xmlns="http://www.w3.org/2000/svg">
<path d="M8.9999 14.0961C8.46751 14.0967 7.94846 13.9295 7.51659 13.6182L0.899907 8.8372V15.5814C0.899907 15.9842 1.05992 16.3705 1.34474 16.6553C1.62956 16.9401 2.01586 17.1001 2.41866 17.1001H15.5811C15.9839 17.1001 16.3702 16.9401 16.6551 16.6553C16.9399 16.3705 17.0999 15.9842 17.0999 15.5814V8.8372L10.4842 13.6182C10.0513 13.9281 9.53236 14.0952 8.9999 14.0961ZM16.5177 6.05589C16.2393 5.83416 15.974 5.62862 15.5811 5.33095V3.93776C15.5811 3.53496 15.4211 3.14867 15.1363 2.86385C14.8515 2.57903 14.4652 2.41902 14.0624 2.41902H11.6101C11.5089 2.34815 11.4238 2.28436 11.3216 2.21652C10.791 1.82064 9.737 0.887122 8.9999 0.900284C8.26584 0.888134 7.20879 1.82165 6.67722 2.21652C6.57597 2.2874 6.48789 2.35118 6.38866 2.41902H3.9374C3.53461 2.41902 3.14831 2.57903 2.86349 2.86385C2.57867 3.14867 2.41866 3.53496 2.41866 3.93776V5.33297C2.02682 5.62963 1.76256 5.83922 1.48108 6.0569C1.29956 6.19858 1.15283 6.37988 1.0521 6.58695C0.951371 6.79402 0.899314 7.02138 0.899907 7.25164V7.58779L3.9374 9.78287V3.93776H14.0624V9.78287L17.0999 7.58779V7.25164C17.101 7.02104 17.049 6.79328 16.9481 6.58595C16.8471 6.37861 16.6999 6.19726 16.5177 6.05589ZM8.73766 9.91956C8.47271 9.86613 8.21313 9.78887 7.96209 9.68871L7.81932 9.63809C7.7407 9.6084 7.65693 9.5947 7.57294 9.59779C7.48896 9.60087 7.40643 9.62069 7.33019 9.65607C7.25395 9.69145 7.18554 9.74168 7.12896 9.80383C7.07238 9.86598 7.02877 9.93879 7.00068 10.018C6.9726 10.0972 6.96059 10.1812 6.96538 10.2651C6.97017 10.3491 6.99165 10.4312 7.02857 10.5067C7.06549 10.5822 7.1171 10.6496 7.18038 10.7049C7.24366 10.7602 7.31735 10.8023 7.39711 10.8288L7.53481 10.8784C7.80707 10.9798 8.08579 11.0631 8.36911 11.1275V11.5325C8.36911 11.6156 8.38548 11.6978 8.41728 11.7746C8.44908 11.8514 8.49569 11.9212 8.55446 11.9799C8.61322 12.0387 8.68298 12.0853 8.75976 12.1171C8.83653 12.1489 8.91882 12.1653 9.00192 12.1653C9.08502 12.1653 9.16731 12.1489 9.24409 12.1171C9.32087 12.0853 9.39063 12.0387 9.44939 11.9799C9.50815 11.9212 9.55476 11.8514 9.58656 11.7746C9.61837 11.6978 9.63473 11.6156 9.63473 11.5325V11.1447C9.9673 11.1025 10.2781 10.9566 10.5231 10.7278C10.7681 10.499 10.9348 10.1989 10.9996 9.86995C11.2406 8.47372 9.9476 8.10416 9.17708 7.88243L8.99585 7.83079C8.20509 7.59994 8.22432 7.48553 8.25267 7.33062C8.29925 7.05927 8.79537 6.99244 9.26011 7.06433C9.45797 7.10083 9.65239 7.15401 9.84128 7.22329C9.99999 7.27807 10.1739 7.26757 10.3249 7.19408C10.4759 7.1206 10.5914 6.99016 10.6462 6.83146C10.701 6.67276 10.6905 6.4988 10.617 6.34784C10.5435 6.19689 10.4131 6.08131 10.2544 6.02653C10.0526 5.95624 9.84666 5.89842 9.63777 5.85339V5.4565C9.63777 5.28866 9.5711 5.12771 9.45243 5.00903C9.33375 4.89036 9.17279 4.82369 9.00496 4.82369C8.83713 4.82369 8.67617 4.89036 8.55749 5.00903C8.43882 5.12771 8.37215 5.28866 8.37215 5.4565V5.83112C8.0361 5.8689 7.72131 6.01449 7.47491 6.2461C7.22851 6.47772 7.06375 6.7829 7.00527 7.11597C6.7643 8.49397 8.07751 8.88175 8.63742 9.04578L8.82575 9.10045C9.75826 9.36573 9.78357 9.46394 9.74915 9.65327C9.70865 9.92563 9.20847 9.99246 8.73766 9.91956Z" fill="#919191"/>
</svg>
