<svg width="14" height="16" viewBox="0 0 14 16" fill="none" xmlns="http://www.w3.org/2000/svg">
<path d="M12.366 0.564153H6.19201L6.16951 0.516453C6.11282 0.366298 6.01214 0.236745 5.88063 0.144736C5.74912 0.0527268 5.5929 0.00254521 5.43241 0.000753299H1.77481C1.43957 -0.00116909 1.11721 0.129737 0.878225 0.364844C0.639239 0.599951 0.503075 0.920127 0.499512 1.25535V14.7464C0.503075 15.0817 0.639209 15.4019 0.878169 15.6372C1.11713 15.8724 1.43949 16.0035 1.77481 16.0019H11.2797C11.3533 16.0018 11.4257 15.9837 11.4907 15.9492C11.5556 15.9147 11.6111 15.8648 11.6523 15.8039C11.6936 15.7427 11.7198 15.6726 11.7285 15.5994C11.7373 15.5261 11.7284 15.4518 11.7027 15.3827H12.366C12.5159 15.3816 12.6641 15.351 12.8021 15.2927C12.9402 15.2344 13.0654 15.1494 13.1706 15.0427C13.2758 14.936 13.359 14.8096 13.4153 14.6707C13.4717 14.5318 13.5002 14.3832 13.4991 14.2334V1.73775C13.5066 1.43558 13.394 1.14276 13.186 0.923453C12.978 0.704144 12.6916 0.576235 12.3894 0.567753H12.366M12.2166 14.0327H11.2095L10.6443 12.5216C10.8153 12.4933 10.9681 12.3984 11.0693 12.2578C11.1705 12.1171 11.2119 11.942 11.1843 11.771C11.1628 11.6126 11.0834 11.4678 10.9614 11.3646C10.8394 11.2614 10.6834 11.207 10.5237 11.2121H10.1547L9.69301 9.97275H10.6362C10.8092 9.96382 10.9722 9.8888 11.0914 9.7632C11.2107 9.63759 11.2772 9.47098 11.2772 9.29775C11.2772 9.12453 11.2107 8.95792 11.0914 8.83231C10.9722 8.7067 10.8092 8.63169 10.6362 8.62275H9.19621L8.73271 7.38075H10.6326C10.8036 7.38533 10.9695 7.32221 11.0942 7.20512C11.2189 7.08803 11.2923 6.92643 11.2985 6.75549C11.3046 6.58454 11.2431 6.41808 11.1271 6.2923C11.0112 6.16652 10.8503 6.09161 10.6794 6.08385H8.23951L7.77421 4.84905H10.6344C10.8074 4.84012 10.9704 4.7651 11.0897 4.6395C11.2089 4.51389 11.2754 4.34728 11.2754 4.17405C11.2754 4.00083 11.2089 3.83422 11.0897 3.70861C10.9704 3.583 10.8074 3.50799 10.6344 3.49905H7.28101L6.68611 1.91685H12.2166V14.0291V14.0327Z" fill="#919191"/>
</svg>
