<svg id="Group_78366" data-name="Group 78366" xmlns="http://www.w3.org/2000/svg" width="18" height="18" viewBox="0 0 18 18">
  <rect id="Rectangle_63252" data-name="Rectangle 63252" width="18" height="18" fill="#aaa" opacity="0"/>
  <path id="Path_36695" data-name="Path 36695" d="M10.631,15.075H.506A.512.512,0,0,0,0,15.581v1.013a.511.511,0,0,0,.506.506H10.631a.512.512,0,0,0,.507-.506V15.581a.512.512,0,0,0-.507-.506M15.6,4.3,13.045,1.732a.512.512,0,0,0-.715,0l-.357.357a.511.511,0,0,0,0,.716L13.166,4V5.96a1.77,1.77,0,0,0,1.519,1.746v5.087a.76.76,0,0,1-1.519,0V11.785A2.784,2.784,0,0,0,10.382,9h-.26V2.925A2.025,2.025,0,0,0,8.1.9H3.038A2.027,2.027,0,0,0,1.013,2.925V14.063h9.112V10.519h.256a1.265,1.265,0,0,1,1.265,1.265v.882a2.374,2.374,0,0,0,2.041,2.4,2.286,2.286,0,0,0,2.5-2.044c.007-.076.011-.151.011-.227V5.728A2.029,2.029,0,0,0,15.6,4.3M8.1,6.975H3.038V2.925H8.1Z" transform="translate(0 0)" fill="#aaa"/>
</svg>
