<svg width="18" height="18" viewBox="0 0 18 18" fill="none" xmlns="http://www.w3.org/2000/svg">
<path d="M7.05523 2.20848C7.76724 2.29925 8.44286 2.57564 9.01433 3.00994C9.5858 3.44424 10.033 4.02117 10.3112 4.68287C10.6793 5.54303 10.8013 6.48854 10.6636 7.41398C10.5643 7.93097 10.6013 8.46491 10.7711 8.96322C10.9409 9.46154 11.2375 9.90706 11.6317 10.2559C11.9352 10.5454 12.2943 10.7702 12.6872 10.9167C13.0801 11.0633 13.4987 11.1285 13.9176 11.1085C14.3182 11.0885 14.7088 10.9771 15.0597 10.7829C15.4106 10.5886 15.7124 10.3167 15.942 9.98783C16.4194 9.40997 16.7213 8.7074 16.8118 7.96331C16.9022 7.21922 16.7776 6.46478 16.4526 5.78933C15.6247 3.88712 14.1014 2.37307 12.1941 1.55689C10.2869 0.740703 8.13987 0.684052 6.19223 1.39852C5.60037 1.60992 5.03812 1.89646 4.51927 2.25111C5.35304 2.06649 6.21538 2.05103 7.05523 2.20564V2.20848Z" fill="#919191"/>
<path d="M17.0613 8.48203C17.0605 8.48383 17.0597 8.48561 17.0589 8.48739C17.0552 8.49605 17.0514 8.50462 17.0484 8.51356C16.7599 9.51609 16.2073 10.4227 15.4484 11.1386C15.0249 11.572 14.5068 11.9014 13.9347 12.1011C13.3626 12.3008 12.752 12.3653 12.1508 12.2896C11.2453 12.1691 10.3838 11.826 9.64328 11.2911C9.39226 11.0971 9.12509 10.925 8.8447 10.7767C8.31449 10.5203 7.72108 10.4239 7.13698 10.4992C6.55287 10.5746 6.00337 10.8185 5.55562 11.2011C5.17358 11.4637 4.87048 11.8256 4.679 12.2478C4.48752 12.67 4.41492 13.1364 4.46905 13.5969C4.56137 14.3596 4.87598 15.0784 5.37372 15.6637C5.87145 16.2491 6.53034 16.6751 7.26836 16.8888C8.16398 17.1145 9.09544 17.1606 10.0089 17.0242C11.5968 16.8257 13.0905 16.1622 14.3024 15.1172C15.5143 14.0722 16.3902 12.6923 16.8201 11.1509C17.0701 10.2807 17.1533 9.37109 17.0655 8.46998V8.47188C17.0641 8.47531 17.0627 8.47869 17.0613 8.48203Z" fill="#919191"/>
<path d="M6.83496 8.32266C5.95287 8.6843 5.18196 9.27254 4.60024 10.0278C4.18107 10.5782 3.91024 11.227 3.81371 11.912C3.71717 12.5971 3.79815 13.2955 4.04891 13.9402C4.33409 14.8004 4.80646 15.5866 5.43199 16.2422C4.62318 15.8573 3.88802 15.3337 3.25979 14.6953C1.90717 13.3593 1.08177 11.5804 0.93508 9.6849C0.833964 8.61643 0.95139 7.53856 1.28021 6.51693C1.60902 5.4953 2.14235 4.55129 2.84771 3.74239C3.36935 3.17298 4.04542 2.76768 4.79346 2.57592C5.5415 2.38416 6.32918 2.41422 7.06042 2.66245C7.4669 2.79546 7.83295 3.02952 8.12424 3.34268C8.41553 3.65584 8.62252 4.03785 8.7258 4.45288C8.90564 5.01266 8.92397 5.6118 8.77869 6.18152C8.63341 6.75124 8.33041 7.26845 7.90448 7.67375C7.59301 7.95681 7.22987 8.17714 6.83496 8.32266Z" fill="#919191"/>
</svg>
