<svg width="18" height="18" viewBox="0 0 18 18" fill="none" xmlns="http://www.w3.org/2000/svg">
<path d="M14.5127 1.48491C13.5546 2.38297 13.8696 3.45012 13.3495 3.93712C12.3564 4.86759 10.6271 2.55206 9.73392 1.17914C9.67542 1.08964 9.59512 1.01691 9.50078 0.967953C9.40644 0.918997 9.30123 0.895471 9.19529 0.899642C9.08936 0.903814 8.98627 0.935542 8.89597 0.991769C8.80567 1.048 8.7312 1.12682 8.67974 1.22065C7.8196 2.82948 5.9853 5.74439 4.56706 4.41703C3.73892 3.64148 4.33502 2.63407 3.41987 1.7765C3.06615 1.46016 2.6095 1.28716 2.13752 1.29071C1.66555 1.29426 1.21149 1.47411 0.862449 1.79574C0.820161 1.83565 0.780093 1.8779 0.742429 1.9223C0.54542 2.05764 0.378822 2.23353 0.253509 2.43846C0.128196 2.6434 0.0469851 2.87279 0.0151779 3.11165C-0.0166292 3.35051 0.00168223 3.59348 0.068917 3.82469C0.136152 4.0559 0.250798 4.27016 0.405373 4.45348C0.438378 4.49398 0.474384 4.53246 0.511391 4.57093C1.46455 5.46292 2.61174 5.16525 3.12582 5.65023C4.36203 6.80749 1.67958 8.8051 0.383369 9.66064C0.307165 9.70986 0.243194 9.7762 0.196428 9.85451C0.149661 9.93282 0.121357 10.021 0.113714 10.1122C0.106071 10.2034 0.119295 10.2951 0.152358 10.3803C0.185421 10.4654 0.237434 10.5417 0.304356 10.6032L7.06248 16.9312C7.16377 17.0258 7.29307 17.0839 7.43033 17.0966C7.56758 17.1092 7.70511 17.0756 7.8216 17.0011C8.9948 16.2498 12.1873 14.0203 10.8611 12.7811C10.346 12.2971 9.0168 12.7811 8.06064 11.8861C7.89011 11.7315 7.75379 11.5421 7.66061 11.3304C7.56744 11.1188 7.51952 10.8895 7.51999 10.6578C7.52046 10.4261 7.56932 10.197 7.66335 9.98576C7.75739 9.77448 7.89448 9.58571 8.06564 9.43182C8.11666 9.3845 8.17008 9.33989 8.22567 9.29817C8.54268 8.94302 8.97826 8.71913 9.44856 8.66959C9.91887 8.62006 10.3906 8.74838 10.7731 9.02987C10.8211 9.06631 10.8671 9.10479 10.9121 9.14529C11.8273 10.0029 11.2312 11.0103 12.0573 11.7838C13.2785 12.9279 15.0918 10.3663 16.324 8.95595C16.3806 8.88987 16.4222 8.81201 16.4458 8.72787C16.4694 8.64374 16.4744 8.55538 16.4606 8.46905C16.4468 8.38271 16.4144 8.30051 16.3657 8.22824C16.3171 8.15597 16.2533 8.0954 16.179 8.0508C15.2238 7.44332 13.6426 6.22126 14.6507 5.27764C15.4799 4.50107 16.551 5.05591 17.4742 4.19328C17.6404 4.042 17.7732 3.85687 17.8638 3.65001C17.9544 3.44316 18.0008 3.21925 18 2.99297C17.9991 2.7667 17.9511 2.54315 17.8589 2.337C17.7667 2.13085 17.6326 1.94674 17.4652 1.79675C17.4226 1.75687 17.3778 1.71936 17.3312 1.68437C16.9983 1.30393 16.5377 1.06221 16.0387 1.00608C15.5398 0.949961 15.038 1.08344 14.6307 1.38063C14.588 1.41217 14.5469 1.44597 14.5077 1.48187" fill="#919191"/>
</svg>
