<svg width="18" height="18" viewBox="0 0 18 18" fill="none" xmlns="http://www.w3.org/2000/svg">
<path d="M0.900391 8.87837V2.42037C0.900391 2.0175 1.06043 1.63114 1.3453 1.34627C1.63016 1.0614 2.01653 0.901367 2.41939 0.901367H8.87739C9.28024 0.901418 9.66656 1.06149 9.95139 1.34637L16.6514 8.04637C16.9362 8.33123 17.0962 8.71755 17.0962 9.12037C17.0962 9.52318 16.9362 9.90951 16.6514 10.1944L10.2004 16.6564C9.91553 16.9412 9.52921 17.1012 9.12639 17.1012C8.72357 17.1012 8.33725 16.9412 8.05239 16.6564L1.35239 9.95637C1.20959 9.81544 1.09612 9.64761 1.01854 9.46259C0.940964 9.27756 0.900806 9.079 0.900391 8.87837V8.87837ZM4.44439 2.92637C4.14396 2.92637 3.85028 3.01546 3.60048 3.18236C3.35068 3.34927 3.15599 3.58651 3.04102 3.86407C2.92605 4.14163 2.89597 4.44705 2.95458 4.74171C3.01319 5.03637 3.15786 5.30703 3.3703 5.51946C3.58273 5.7319 3.85339 5.87657 4.14805 5.93518C4.44271 5.99379 4.74813 5.96371 5.02569 5.84874C5.30325 5.73377 5.54048 5.53908 5.70739 5.28928C5.8743 5.03948 5.96339 4.7458 5.96339 4.44537C5.96339 4.0425 5.80335 3.65614 5.51849 3.37127C5.23362 3.0864 4.84725 2.92637 4.44439 2.92637Z" fill="#919191"/>
</svg>
