<svg width="18" height="16" viewBox="0 0 18 16" fill="none" xmlns="http://www.w3.org/2000/svg">
<path d="M15.5876 6.1116V1.1736C15.5823 0.950068 15.4886 0.737748 15.3271 0.583124C15.1656 0.4285 14.9494 0.344171 14.7259 0.348599H10.8199V2.9241C10.8292 3.00168 10.8113 3.08007 10.7693 3.14597C10.7273 3.21187 10.6638 3.26121 10.5896 3.2856C9.58246 3.35176 8.57204 3.35176 7.56487 3.2856C7.37212 3.21435 7.33988 3.0576 7.33988 2.87685C7.34487 2.3644 7.34321 1.85195 7.34155 1.33729C7.34071 1.07913 7.33988 0.820407 7.33988 0.560849V0.348599H3.08738C2.9758 0.346112 2.86483 0.365707 2.76086 0.406256C2.65688 0.446805 2.56195 0.507508 2.48151 0.584875C2.40108 0.662242 2.33673 0.754746 2.29218 0.857068C2.24762 0.95939 2.22373 1.06951 2.22187 1.1811V6.1116C2.22373 6.22319 2.24762 6.33331 2.29218 6.43563C2.33673 6.53795 2.40108 6.63046 2.48151 6.70782C2.56195 6.78519 2.65688 6.84589 2.76086 6.88644C2.86483 6.92699 2.9758 6.94659 3.08738 6.9441H14.7221C14.8337 6.94659 14.9447 6.92699 15.0486 6.88644C15.1526 6.84589 15.2476 6.78519 15.328 6.70782C15.4084 6.63046 15.4728 6.53795 15.5173 6.43563C15.5619 6.33331 15.5858 6.22319 15.5876 6.1116Z" fill="#919191"/>
<path d="M17.0991 9.61731V15.0818C17.0995 15.1562 17.0852 15.2299 17.0569 15.2987C17.0286 15.3675 16.987 15.43 16.9344 15.4826C16.8818 15.5352 16.8193 15.5768 16.7505 15.6051C16.6817 15.6334 16.608 15.6477 16.5336 15.6473H10.7631C10.6894 15.6468 10.6165 15.6318 10.5486 15.6031C10.4806 15.5744 10.419 15.5326 10.3673 15.4801C10.3155 15.4276 10.2746 15.3654 10.2469 15.297C10.2192 15.2287 10.2053 15.1555 10.2059 15.0818V9.60681C10.2065 9.4592 10.2654 9.31781 10.3697 9.21343C10.4741 9.10905 10.6155 9.05015 10.7631 9.04956H12.5219V9.28506C12.5219 9.45317 12.5228 9.62027 12.5237 9.78676C12.5256 10.1179 12.5274 10.4467 12.5219 10.7761C12.5219 10.8938 12.5451 10.9958 12.6629 11.0431C13.3187 11.098 13.978 11.098 14.6339 11.0431C14.7516 10.9951 14.7749 10.9021 14.7749 10.7836V9.05181H16.5336C16.608 9.05141 16.6817 9.06577 16.7505 9.09405C16.8193 9.12232 16.8818 9.16396 16.9344 9.21655C16.987 9.26915 17.0286 9.33164 17.0569 9.40043C17.0852 9.46922 17.0995 9.54294 17.0991 9.61731Z" fill="#919191"/>
<path d="M7.79349 9.62123V15.0857C7.79409 15.1595 7.78014 15.2326 7.75244 15.3009C7.72475 15.3693 7.68386 15.4315 7.6321 15.484C7.58035 15.5365 7.51874 15.5783 7.45082 15.607C7.38289 15.6357 7.30998 15.6507 7.23624 15.6512H1.46199C1.38762 15.6516 1.3139 15.6373 1.24512 15.609C1.17633 15.5807 1.11383 15.5391 1.06124 15.4865C1.00865 15.4339 0.967007 15.3714 0.938728 15.3026C0.91045 15.2338 0.896095 15.1601 0.896492 15.0857V9.61073C0.898076 9.4622 0.958498 9.32037 1.06451 9.21633C1.17052 9.11228 1.31346 9.05453 1.46199 9.05573H3.22374V10.7807C3.22374 10.8985 3.23874 11.0005 3.35724 11.0477C4.0131 11.1026 4.67239 11.1026 5.32824 11.0477C5.44599 10.9997 5.46924 10.9067 5.46924 10.7882V9.05573H7.23699C7.31073 9.05622 7.38364 9.07124 7.45157 9.09994C7.51949 9.12863 7.5811 9.17043 7.63285 9.22296C7.68461 9.27548 7.7255 9.33769 7.75319 9.40603C7.78089 9.47437 7.79409 9.5475 7.79349 9.62123Z" fill="#919191"/>
</svg>
