<svg width="18" height="14" viewBox="0 0 18 14" fill="none" xmlns="http://www.w3.org/2000/svg">
<path d="M0.499023 2.9175V13.1388C0.499147 13.2159 0.518122 13.2917 0.554293 13.3598C0.590464 13.4279 0.642735 13.486 0.706546 13.5293C0.770358 13.5725 0.843773 13.5994 0.920392 13.6078C0.997011 13.6161 1.07451 13.6056 1.14612 13.5771L5.22042 11.7222V0.389404L1.09302 2.0409C0.9178 2.111 0.767579 2.23196 0.661712 2.38819C0.555845 2.54443 0.499182 2.72878 0.499023 2.9175H0.499023ZM6.16902 11.7231L11.839 13.6131V2.2794L6.16902 0.389404V11.7231ZM16.8511 0.423603L12.7768 2.2794V13.6113L16.9051 11.9598C17.0804 11.8898 17.2307 11.7689 17.3366 11.6126C17.4425 11.4564 17.4991 11.272 17.4991 11.0832V0.861906C17.4991 0.784722 17.4801 0.708726 17.4439 0.640569C17.4076 0.572412 17.3553 0.514166 17.2913 0.470923C17.2274 0.42768 17.1539 0.400757 17.0771 0.392508C17.0004 0.384259 16.9228 0.394934 16.8511 0.423603Z" fill="#919191"/>
</svg>
