<svg width="18" height="12" viewBox="0 0 18 12" fill="none" xmlns="http://www.w3.org/2000/svg">
<path d="M17.3175 10.2769L13.2405 0.943913C13.1736 0.784198 13.0613 0.647559 12.9177 0.550814C12.774 0.454069 12.6052 0.401442 12.432 0.399414H9.58204L9.65704 1.07442C9.66051 1.107 9.65709 1.13994 9.64698 1.17111C9.63687 1.20228 9.62031 1.23097 9.59838 1.25531C9.57644 1.27965 9.54963 1.2991 9.51967 1.31238C9.48972 1.32567 9.4573 1.3325 9.42454 1.33242H8.57479C8.54202 1.3325 8.50961 1.32567 8.47965 1.31238C8.4497 1.2991 8.42288 1.27965 8.40095 1.25531C8.37901 1.23097 8.36245 1.20228 8.35235 1.17111C8.34224 1.13994 8.33881 1.107 8.34229 1.07442L8.41729 0.399414H5.56729C5.39411 0.401442 5.2253 0.454069 5.08165 0.550814C4.938 0.647559 4.82577 0.784198 4.75879 0.943913L0.678038 10.2769C0.613587 10.4161 0.584497 10.569 0.59335 10.7221C0.602203 10.8752 0.648726 11.0238 0.728788 11.1546C0.80885 11.2854 0.919974 11.3945 1.05229 11.472C1.18461 11.5496 1.33403 11.5932 1.48729 11.5992H7.23154L7.53154 8.74917C7.54359 8.63446 7.59771 8.52829 7.68344 8.45114C7.76918 8.37399 7.88045 8.33134 7.99579 8.33141H10.0028C10.1181 8.33134 10.2294 8.37399 10.3151 8.45114C10.4009 8.52829 10.455 8.63446 10.467 8.74917L10.767 11.5992H16.5083C16.6615 11.5932 16.811 11.5496 16.9433 11.472C17.0756 11.3945 17.1867 11.2854 17.2668 11.1546C17.3468 11.0238 17.3934 10.8752 17.4022 10.7221C17.4111 10.569 17.382 10.4161 17.3175 10.2769ZM8.19454 2.47691C8.20066 2.41956 8.22781 2.36652 8.27075 2.32801C8.31368 2.28951 8.36936 2.26827 8.42704 2.26841H9.57304C9.63071 2.26827 9.68639 2.28951 9.72933 2.32801C9.77227 2.36652 9.79942 2.41956 9.80554 2.47691L9.93979 3.74816C9.94494 3.79696 9.93977 3.8463 9.92464 3.89297C9.9095 3.93965 9.88472 3.98262 9.85191 4.01911C9.8191 4.05559 9.77899 4.08478 9.73418 4.10477C9.68937 4.12476 9.64086 4.13512 9.59179 4.13517H8.40904C8.35993 4.13524 8.31137 4.12496 8.2665 4.10501C8.22163 4.08505 8.18147 4.05587 8.14864 4.01936C8.11581 3.98284 8.09104 3.93982 8.07594 3.8931C8.06085 3.84637 8.05577 3.79698 8.06104 3.74816L8.19454 2.47691ZM9.80554 7.40141H8.19304C8.12757 7.40147 8.06282 7.38774 8.00301 7.36112C7.94319 7.33451 7.88965 7.2956 7.84586 7.24693C7.80207 7.19826 7.76901 7.14092 7.74884 7.07863C7.72867 7.01635 7.72184 6.95052 7.72879 6.88542L7.87879 5.48516C7.89084 5.37046 7.94496 5.26429 8.03069 5.18714C8.11643 5.10999 8.2277 5.06734 8.34304 5.06741H9.66004C9.77537 5.06734 9.88665 5.10999 9.97238 5.18714C10.0581 5.26429 10.1122 5.37046 10.1243 5.48516L10.2743 6.88542C10.2809 6.95072 10.2737 7.01669 10.2531 7.07902C10.2326 7.14134 10.199 7.19862 10.1548 7.24711C10.1106 7.2956 10.0566 7.33421 9.9964 7.36041C9.93621 7.38662 9.87118 7.39982 9.80554 7.39916V7.40141Z" fill="#919191"/>
</svg>
