<svg width="18" height="18" viewBox="0 0 18 18" fill="none" xmlns="http://www.w3.org/2000/svg">
<path d="M17.0984 6.46704C17.0978 7.28613 16.9167 8.09501 16.5678 8.8361C16.219 9.57718 15.711 10.2322 15.0802 10.7546C14.4493 11.277 13.711 11.6539 12.9179 11.8585C12.1247 12.063 11.2963 12.0902 10.4914 11.938L9.73144 12.793C9.66017 12.8733 9.5727 12.9375 9.47479 12.9815C9.37688 13.0254 9.27076 13.0481 9.16344 13.048H7.98544V14.314C7.98544 14.5153 7.90547 14.7084 7.76313 14.8507C7.62079 14.9931 7.42774 15.073 7.22644 15.073H5.96144V16.339C5.96144 16.4391 5.94167 16.5381 5.90328 16.6304C5.86489 16.7228 5.80862 16.8066 5.73772 16.8772C5.66682 16.9477 5.58267 17.0035 5.49012 17.0414C5.39757 17.0793 5.29845 17.0986 5.19844 17.098H1.65744C1.45614 17.098 1.26308 17.0181 1.12074 16.8757C0.978403 16.7334 0.898438 16.5403 0.898438 16.339V13.869C0.898385 13.6677 0.978228 13.4746 1.12044 13.332L6.24044 8.21204C5.9881 7.4466 5.9049 6.63552 5.9966 5.83479C6.0883 5.03406 6.35271 4.26278 6.77157 3.57421C7.19042 2.88564 7.75375 2.29619 8.42263 1.84656C9.09152 1.39694 9.85003 1.09785 10.6458 0.969969C11.4415 0.842083 12.2556 0.888442 13.0316 1.10584C13.8077 1.32325 14.5274 1.70651 15.1409 2.22917C15.7544 2.75183 16.2472 3.40142 16.5851 4.1331C16.9231 4.86477 17.0982 5.66108 17.0984 6.46704ZM11.5294 4.94804C11.5294 5.24847 11.6185 5.54216 11.7854 5.79195C11.9523 6.04175 12.1896 6.23645 12.4671 6.35142C12.7447 6.46638 13.0501 6.49647 13.3448 6.43786C13.6394 6.37924 13.9101 6.23457 14.1225 6.02214C14.335 5.8097 14.4796 5.53904 14.5382 5.24438C14.5969 4.94973 14.5668 4.64431 14.4518 4.36675C14.3368 4.08919 14.1421 3.85195 13.8923 3.68504C13.6426 3.51813 13.3489 3.42904 13.0484 3.42904C12.6456 3.42904 12.2592 3.58908 11.9743 3.87395C11.6895 4.15881 11.5294 4.54518 11.5294 4.94804Z" fill="#919191"/>
</svg>
