<svg width="18" height="18" viewBox="0 0 18 18" fill="none" xmlns="http://www.w3.org/2000/svg">
<path d="M16.1437 6.85869H11.1437V1.85869C11.1437 1.47987 10.9933 1.11655 10.7255 0.848587C10.4577 0.580626 10.0945 0.429953 9.71569 0.429688H8.28669C8.09903 0.429688 7.91321 0.46665 7.73983 0.538464C7.56646 0.610278 7.40893 0.715537 7.27623 0.848232C7.14354 0.980927 7.03828 1.13846 6.96646 1.31183C6.89465 1.48521 6.85769 1.67103 6.85769 1.85869V6.85869H1.85769C1.47904 6.85895 1.11598 7.00949 0.848232 7.27723C0.580487 7.54498 0.429952 7.90804 0.429688 8.28669V9.71569C0.429688 10.0947 0.580242 10.4582 0.848232 10.7261C1.11622 10.9941 1.47969 11.1447 1.85869 11.1447H6.85869V16.1447C6.85869 16.5237 7.00924 16.8872 7.27723 17.1551C7.54522 17.4231 7.90869 17.5737 8.28769 17.5737H9.71669C10.0957 17.5737 10.4592 17.4231 10.7271 17.1551C10.9951 16.8872 11.1457 16.5237 11.1457 16.1447V11.1447H16.1457C16.5247 11.1447 16.8882 10.9941 17.1561 10.7261C17.4241 10.4582 17.5747 10.0947 17.5747 9.71569V8.28669C17.5746 8.09894 17.5374 7.91307 17.4654 7.73968C17.3934 7.56629 17.288 7.40879 17.1551 7.27617C17.0222 7.14356 16.8645 7.03843 16.6909 6.96679C16.5174 6.89516 16.3314 6.85843 16.1437 6.85869Z" fill="#3074D3"/>
</svg>
