<svg width="18" height="18" viewBox="0 0 18 18" fill="none" xmlns="http://www.w3.org/2000/svg">
<path d="M10.2022 6.48014C9.66021 6.22334 9.05001 6.1476 8.46169 6.26411C7.91872 6.372 7.41993 6.63848 7.02841 7.02984C6.63688 7.42121 6.3702 7.91989 6.26209 8.46281C6.14534 9.05109 6.22083 9.66132 6.4774 10.2034C6.73398 10.7455 7.15805 11.1908 7.68702 11.4734C8.21598 11.7561 8.82181 11.8612 9.41508 11.7732C10.0083 11.6852 10.5576 11.4088 10.9818 10.9848C11.4059 10.5608 11.6826 10.0117 11.7708 9.41846C11.859 8.82523 11.7541 8.21936 11.4717 7.69027C11.1893 7.16119 10.7442 6.73694 10.2022 6.48014Z" fill="#919191"/>
<path fill-rule="evenodd" clip-rule="evenodd" d="M2.08531 3.20039L3.14101 2.13749L3.13741 2.14109C3.23146 2.04597 3.34336 1.97035 3.46668 1.91854C3.59001 1.86674 3.72234 1.83977 3.8561 1.83919C3.98987 1.8386 4.12243 1.86441 4.2462 1.91513C4.36998 1.96586 4.48253 2.0405 4.57741 2.13479L5.18671 2.73779C5.81387 2.35607 6.49504 2.07116 7.20721 1.89269V1.02689C7.20721 0.757701 7.31383 0.499473 7.50375 0.308709C7.69367 0.117944 7.95143 0.0101764 8.22061 0.00898635L9.72001 0.00268595C9.9891 0.00244737 10.2473 0.109053 10.4378 0.299077C10.6283 0.4891 10.7356 0.746995 10.7361 1.01609V1.87289C11.4491 2.04575 12.1318 2.32552 12.7611 2.70269L13.3623 2.09429C13.4563 1.99907 13.5682 1.92335 13.6915 1.87147C13.8148 1.8196 13.9472 1.7926 14.081 1.79201C14.2148 1.79143 14.3474 1.81727 14.4712 1.86806C14.595 1.91885 14.7075 1.99359 14.8023 2.08799L15.8634 3.14279C15.9586 3.23684 16.0342 3.34876 16.086 3.47213C16.1378 3.59549 16.1647 3.72787 16.1652 3.86167C16.1657 3.99546 16.1398 4.12804 16.0889 4.25179C16.0381 4.37554 15.9633 4.48802 15.8688 4.58279L15.2631 5.19389C15.6453 5.82004 15.9308 6.50031 16.11 7.21169H16.9758C17.2453 7.21192 17.5038 7.31884 17.6947 7.50907C17.8856 7.69931 17.9934 7.95738 17.9946 8.22689L18 9.72269C17.9993 9.99117 17.8925 10.2485 17.7028 10.4385C17.5131 10.6285 17.256 10.7358 16.9875 10.737H16.1298C15.956 11.4508 15.6763 12.1346 15.3 12.7656L15.9111 13.3677C16.0057 13.4615 16.081 13.573 16.1325 13.6958C16.184 13.8187 16.2108 13.9505 16.2114 14.0837C16.212 14.2169 16.1863 14.3489 16.1359 14.4722C16.0855 14.5955 16.0112 14.7077 15.9174 14.8023L14.8608 15.8679C14.767 15.9625 14.6554 16.0376 14.5325 16.0891C14.4097 16.1405 14.2778 16.1673 14.1446 16.1678C14.0114 16.1683 13.8794 16.1425 13.7561 16.092C13.6329 16.0415 13.5208 15.9671 13.4262 15.8733L12.8151 15.2667C12.1876 15.6485 11.5061 15.9337 10.7937 16.1127V16.9776C10.7937 17.247 10.687 17.5055 10.4969 17.6964C10.3068 17.8873 10.0488 17.9952 9.77941 17.9964L8.28001 18.0027C8.14697 18.0034 8.0151 17.9779 7.89192 17.9276C7.76875 17.8773 7.65669 17.8033 7.56216 17.7096C7.46763 17.616 7.39247 17.5047 7.34099 17.382C7.2895 17.2593 7.2627 17.1277 7.26211 16.9947V16.1334C6.54921 15.9598 5.86654 15.6798 5.23711 15.3027L4.63501 15.9138C4.54123 16.0084 4.42974 16.0836 4.30689 16.1352C4.18403 16.1867 4.05223 16.2135 3.91901 16.2141C3.7858 16.2147 3.65377 16.189 3.53047 16.1386C3.40717 16.0881 3.29501 16.0139 3.20041 15.9201L2.13481 14.8626C2.04024 14.7688 1.96509 14.6572 1.91364 14.5343C1.86219 14.4114 1.83545 14.2796 1.83494 14.1464C1.83444 14.0132 1.86019 13.8812 1.91071 13.7579C1.96124 13.6346 2.03555 13.5225 2.12941 13.428L2.73601 12.8178C2.35348 12.1906 2.06824 11.5091 1.89001 10.7964H1.02331C0.753969 10.7964 0.495606 10.6896 0.304816 10.4995C0.114026 10.3094 0.0063626 10.0514 0.00541002 9.78209L1.00187e-05 8.28269C-0.000582619 8.14958 0.0251225 8.01767 0.0756496 7.89453C0.126177 7.77138 0.20053 7.65943 0.294441 7.5651C0.388353 7.47077 0.499972 7.39592 0.62289 7.34485C0.745808 7.29378 0.877603 7.26748 1.01071 7.26749H1.87021C2.04388 6.55475 2.3236 5.87214 2.70001 5.24249L2.09071 4.64039C1.99555 4.54633 1.9199 4.43441 1.8681 4.31105C1.81631 4.18768 1.78939 4.0553 1.78889 3.92151C1.78838 3.78771 1.81431 3.65513 1.86518 3.53139C1.91605 3.40764 1.99086 3.29515 2.08531 3.20039ZM8.03585 4.27455C7.09918 4.46535 6.24014 4.92967 5.56741 5.60879V5.61059C4.66577 6.51991 4.16227 7.75016 4.16767 9.0307C4.17307 10.3112 4.68693 11.5372 5.59621 12.4389C6.27464 13.1123 7.13757 13.5694 8.07581 13.7523C9.01406 13.9351 9.98548 13.8356 10.8672 13.4663C11.7488 13.097 12.5012 12.4745 13.029 11.6775C13.5568 10.8806 13.8364 9.94495 13.8324 8.98905C13.8283 8.03315 13.5409 7.09992 13.0064 6.30743C12.4718 5.51493 11.7143 4.89878 10.8295 4.53692C9.94474 4.17506 8.97252 4.08376 8.03585 4.27455Z" fill="#919191"/>
</svg>
