<svg width="18" height="14" viewBox="0 0 18 14" fill="none" xmlns="http://www.w3.org/2000/svg">
<path d="M5.71348 0.364103C6.0267 0.645705 6.05201 1.12348 5.77043 1.43672L3.49251 3.96797C3.3533 4.12301 3.15715 4.21477 2.94834 4.21793C2.73953 4.2211 2.54021 4.14199 2.39151 3.99645L1.12283 2.73082C0.8286 2.4334 0.8286 1.95246 1.12283 1.65504C1.41706 1.35762 1.90112 1.35762 2.19536 1.65504L2.89455 2.3543L4.6378 0.417892C4.91937 0.10465 5.39711 0.0793373 5.71032 0.360939L5.71348 0.364103ZM7.98825 2.19293C7.98825 1.63289 8.44067 1.18043 9.00066 1.18043H16.0875C16.6475 1.18043 17.0999 1.63289 17.0999 2.19293C17.0999 2.75297 16.6475 3.20543 16.0875 3.20543H9.00066C8.44067 3.20543 7.98825 2.75297 7.98825 2.19293ZM5.96342 7.25543C5.96342 6.69539 6.41584 6.24293 6.97583 6.24293H16.0875C16.6475 6.24293 17.0999 6.69539 17.0999 7.25543C17.0999 7.81547 16.6475 8.26793 16.0875 8.26793H6.97583C6.41584 8.26793 5.96342 7.81547 5.96342 7.25543ZM5.96342 12.3179C5.96342 11.7579 6.41584 11.3054 6.97583 11.3054H16.0875C16.6475 11.3054 17.0999 11.7579 17.0999 12.3179C17.0999 12.878 16.6475 13.3304 16.0875 13.3304H6.97583C6.41584 13.3304 5.96342 12.878 5.96342 12.3179ZM2.41998 10.7992C2.82275 10.7992 3.20901 10.9592 3.49381 11.244C3.7786 11.5288 3.9386 11.9151 3.9386 12.3179C3.9386 12.7207 3.7786 13.107 3.49381 13.3919C3.20901 13.6767 2.82275 13.8367 2.41998 13.8367C2.01722 13.8367 1.63096 13.6767 1.34616 13.3919C1.06136 13.107 0.901367 12.7207 0.901367 12.3179C0.901367 11.9151 1.06136 11.5288 1.34616 11.244C1.63096 10.9592 2.01722 10.7992 2.41998 10.7992Z" fill="#919191"/>
<path d="M2.41998 5.73668C2.82275 5.73668 3.20901 5.89669 3.49381 6.18151C3.7786 6.46633 3.9386 6.85263 3.9386 7.25543C3.9386 7.65823 3.7786 8.04453 3.49381 8.32935C3.20901 8.61417 2.82275 8.77418 2.41998 8.77418C2.01722 8.77418 1.63096 8.61417 1.34616 8.32935C1.06136 8.04453 0.901367 7.65823 0.901367 7.25543C0.901367 6.85263 1.06136 6.46633 1.34616 6.18151C1.63096 5.89669 2.01722 5.73668 2.41998 5.73668Z" fill="#919191"/>
</svg>
