<svg width="18" height="18" viewBox="0 0 18 18" fill="none" xmlns="http://www.w3.org/2000/svg">
<path d="M8.99991 0.900879C7.39788 0.900879 5.83183 1.37594 4.49979 2.26598C3.16775 3.15601 2.12955 4.42106 1.51648 5.90114C0.903412 7.38123 0.743005 9.00986 1.05555 10.5811C1.36809 12.1524 2.13954 13.5956 3.27234 14.7284C4.40515 15.8612 5.84843 16.6327 7.41967 16.9452C8.99092 17.2578 10.6196 17.0974 12.0996 16.4843C13.5797 15.8712 14.8448 14.833 15.7348 13.501C16.6248 12.169 17.0999 10.6029 17.0999 9.00088C17.0999 6.85263 16.2465 4.79236 14.7275 3.27331C13.2084 1.75427 11.1482 0.900879 8.99991 0.900879ZM9.21591 13.9329L8.52291 10.2879C8.48664 10.0854 8.3898 9.89875 8.24517 9.75251C8.10054 9.60628 7.91494 9.50738 7.71291 9.46888L4.06791 8.77588C3.95059 8.75329 3.84534 8.68917 3.77145 8.59528C3.69756 8.50139 3.65999 8.38402 3.66561 8.26468C3.66561 8.24848 3.66561 8.23138 3.67101 8.21518C3.68088 8.12061 3.71755 8.03082 3.7767 7.95637C3.83585 7.88191 3.91502 7.82589 4.00491 7.79488L12.2939 5.05888C12.3958 5.02285 12.507 5.02285 12.6089 5.05888C12.6733 5.08056 12.7329 5.11449 12.7844 5.15878C12.8597 5.22532 12.9144 5.31209 12.9418 5.40877C12.9693 5.50546 12.9683 5.60799 12.9392 5.70418L10.2032 13.9932C10.1674 14.1006 10.097 14.1932 10.0031 14.2565C9.90919 14.3197 9.79696 14.3501 9.68394 14.3429C9.57092 14.3358 9.46346 14.2914 9.37831 14.2167C9.29316 14.142 9.23511 14.0413 9.21321 13.9302" fill="#919191"/>
</svg>
