<svg width="16" height="18" viewBox="0 0 16 18" fill="none" xmlns="http://www.w3.org/2000/svg">
<path d="M15.6367 11.5061L15.4125 9.33911C15.365 8.88465 15.1849 8.45398 14.8944 8.10027C14.6039 7.74657 14.2157 7.48533 13.7778 7.34879L13.1146 1.06164C13.1126 1.03738 13.1056 1.01379 13.0939 0.992394C13.0823 0.970996 13.0663 0.952256 13.0469 0.937373C13.0276 0.92249 13.0053 0.911792 12.9816 0.905964C12.9579 0.900137 12.9332 0.899307 12.9091 0.90353L11.3959 1.06164C11.3713 1.06396 11.3474 1.07111 11.3256 1.08268C11.3038 1.09425 11.2846 1.11 11.2689 1.12903C11.2533 1.14805 11.2416 1.16998 11.2345 1.19353C11.2274 1.21709 11.2251 1.2418 11.2277 1.26625L11.4706 3.58208C11.4274 3.2397 11.2499 2.92824 10.9769 2.71566C10.7039 2.50309 10.3575 2.40666 10.0134 2.44742L4.19395 3.05195C4.01992 3.06976 3.85117 3.1218 3.69751 3.20508C3.54385 3.28835 3.40834 3.40119 3.29884 3.53703C3.18934 3.67288 3.10804 3.82904 3.05965 3.99643C3.01127 4.16382 2.99676 4.33911 3.01698 4.51213L2.76477 2.1498C2.76243 2.12533 2.75525 2.10156 2.74364 2.07986C2.73202 2.05817 2.7162 2.03899 2.69709 2.02342C2.67798 2.00785 2.65596 1.99621 2.6323 1.98917C2.60865 1.98213 2.58383 1.97982 2.55927 1.98239L1.04603 2.1405C1.02145 2.14282 0.997575 2.14998 0.975788 2.16154C0.954001 2.17311 0.934731 2.18886 0.919095 2.20789C0.90346 2.22692 0.891768 2.24884 0.884695 2.27239C0.877622 2.29595 0.87531 2.32066 0.877889 2.34511L1.5411 8.62297C1.14164 8.84787 0.817208 9.18451 0.608004 9.59119C0.3988 9.99787 0.314009 10.4567 0.364132 10.9109L0.588321 13.0779C0.625544 13.4421 0.748031 13.7925 0.945948 14.1011C1.14387 14.4096 1.41169 14.6676 1.72792 14.8543L1.87738 16.2587C1.8902 16.3815 1.9272 16.5005 1.98626 16.609C2.04532 16.7176 2.12528 16.8134 2.22158 16.8912C2.31787 16.9689 2.42861 17.027 2.54746 17.0621C2.66631 17.0972 2.79094 17.1086 2.91423 17.0957L3.85767 16.9934C3.98145 16.9819 4.10166 16.9458 4.21126 16.8874C4.32087 16.829 4.41765 16.7494 4.49595 16.6532C4.57425 16.5571 4.63248 16.4463 4.66724 16.3275C4.70199 16.2086 4.71257 16.0841 4.69835 15.9611L4.5956 15.0217L12.1245 14.2405L12.2272 15.1705V15.1798C12.24 15.3023 12.277 15.4209 12.3362 15.529C12.3954 15.6371 12.4755 15.7324 12.572 15.8094C12.6684 15.8863 12.7793 15.9435 12.8981 15.9775C13.0169 16.0116 13.1413 16.0218 13.2641 16.0076L14.1982 15.9146H14.2075C14.4558 15.8871 14.6833 15.7634 14.8406 15.5702C14.998 15.377 15.0726 15.1298 15.0482 14.8822L14.8987 13.4778C15.1669 13.2287 15.3732 12.9209 15.5013 12.5787C15.6294 12.2364 15.6757 11.8693 15.6367 11.5061ZM3.36259 12.3153C3.23908 12.3294 3.11399 12.3189 2.99462 12.2843C2.87526 12.2497 2.76403 12.1917 2.66746 12.1138C2.57089 12.0358 2.49092 11.9394 2.43225 11.8303C2.37357 11.7212 2.33736 11.6015 2.32575 11.4782C2.31281 11.3555 2.32429 11.2314 2.35955 11.113C2.3948 10.9947 2.45313 10.8845 2.53121 10.7886C2.60928 10.6927 2.70557 10.6131 2.81457 10.5543C2.92356 10.4955 3.04313 10.4586 3.16643 10.4459C3.20379 10.4459 3.23182 10.4366 3.26918 10.4366C3.50164 10.4404 3.72473 10.5284 3.89668 10.6842C4.06863 10.84 4.17763 11.0529 4.20328 11.2829C4.2175 11.4059 4.20692 11.5305 4.17217 11.6493C4.13741 11.7681 4.07918 11.8789 4.00088 11.975C3.92258 12.0712 3.8258 12.1508 3.71619 12.2092C3.60659 12.2677 3.48637 12.3037 3.36259 12.3153ZM3.43452 8.52066L3.73343 6.36294C3.75792 6.15613 3.85288 5.96392 4.00246 5.81837C4.15204 5.67282 4.34721 5.58272 4.55544 5.56309L10.16 4.97716C10.3711 4.94814 10.5857 4.99366 10.7666 5.10579C10.9475 5.21793 11.0832 5.3896 11.1502 5.591L11.8975 7.63711L3.43452 8.52066ZM5.87252 11.1062C5.86552 11.0516 5.86976 10.9962 5.88497 10.9433C5.90018 10.8903 5.92605 10.8411 5.96101 10.7984C5.99597 10.7558 6.03928 10.7207 6.0883 10.6953C6.13732 10.6698 6.19104 10.6546 6.24616 10.6505L9.59023 10.2971C9.64568 10.2892 9.70215 10.2925 9.7563 10.3067C9.81044 10.321 9.86117 10.3459 9.90547 10.38C9.94976 10.4141 9.98672 10.4568 10.0142 10.5054C10.0416 10.554 10.059 10.6076 10.0652 10.663C10.0715 10.7184 10.0665 10.7745 10.0506 10.828C10.0346 10.8815 10.0081 10.9312 9.97253 10.9743C9.93694 11.0173 9.89303 11.0528 9.84341 11.0787C9.79379 11.1046 9.73947 11.1202 9.68365 11.1248L6.33023 11.4782C6.27563 11.4838 6.22048 11.4785 6.16793 11.4628C6.11537 11.4471 6.06643 11.4212 6.02393 11.3867C5.98142 11.3521 5.94616 11.3096 5.92018 11.2615C5.8942 11.2133 5.87801 11.1606 5.87252 11.1062ZM9.87047 12.9756L6.52639 13.329C6.41491 13.3401 6.30356 13.3067 6.21685 13.236C6.13014 13.1654 6.07516 13.0634 6.06401 12.9524C6.05286 12.8414 6.08646 12.7305 6.15741 12.6442C6.22835 12.5578 6.33084 12.5031 6.44232 12.492L9.7864 12.1479C9.89664 12.1368 10.0068 12.1697 10.0926 12.2395C10.1785 12.3093 10.233 12.4101 10.2441 12.5199C10.2553 12.6297 10.2222 12.7393 10.1521 12.8248C10.082 12.9103 9.98071 12.9645 9.87047 12.9756ZM12.7662 11.3294C12.7288 11.3294 12.7008 11.3387 12.6634 11.3387C12.4075 11.3484 12.1578 11.2583 11.9676 11.0874C11.7775 10.9165 11.6618 10.6785 11.6453 10.424C11.6288 10.1695 11.7128 9.9186 11.8794 9.72484C12.0459 9.53107 12.2819 9.40971 12.537 9.38662C12.7921 9.36353 13.0462 9.44053 13.2451 9.60122C13.444 9.76191 13.572 9.99358 13.6019 10.2469C13.6318 10.5002 13.5612 10.7551 13.4051 10.9573C13.2489 11.1595 13.0197 11.293 12.7662 11.3294Z" fill="#919191"/>
</svg>
