<svg width="14" height="8" viewBox="0 0 14 8" fill="none" xmlns="http://www.w3.org/2000/svg">
<path d="M1.54258 0.300001L12.4507 0.3C12.6186 0.299797 12.7827 0.349775 12.9223 0.443596C13.0619 0.537417 13.1707 0.670857 13.2348 0.826997C13.299 0.983137 13.3157 1.15495 13.2827 1.32064C13.2498 1.48634 13.1688 1.63845 13.0499 1.75771L7.59641 7.24958C7.5177 7.32897 7.42421 7.39194 7.3213 7.43491C7.21839 7.47788 7.10807 7.5 6.99666 7.5C6.88525 7.5 6.77494 7.47788 6.67202 7.43491C6.56911 7.39194 6.47563 7.32897 6.39691 7.24958L0.948592 1.75771C0.829993 1.63876 0.749039 1.48712 0.715945 1.3219C0.68285 1.15669 0.699097 0.985303 0.762635 0.829373C0.826174 0.673443 0.934158 0.539951 1.07296 0.445739C1.21177 0.351527 1.37518 0.300815 1.54258 0.300001Z" fill="#919191"/>
</svg>
