<svg width="14" height="8" viewBox="0 0 14 8" fill="none" xmlns="http://www.w3.org/2000/svg">
<path d="M1.54855 7.7L12.453 7.7C12.6207 7.70011 12.7846 7.65012 12.924 7.55634C13.0634 7.46256 13.1721 7.32922 13.2363 7.1732C13.3004 7.01717 13.3172 6.84547 13.2845 6.67984C13.2517 6.5142 13.171 6.36207 13.0524 6.2427L7.60013 0.749975C7.44113 0.589913 7.22555 0.500001 7.00078 0.500001C6.77601 0.500001 6.56043 0.589913 6.40143 0.749975L0.949205 6.2427C0.830607 6.36207 0.749828 6.5142 0.717092 6.67984C0.684356 6.84547 0.701134 7.01717 0.765304 7.1732C0.829473 7.32922 0.938148 7.46256 1.07757 7.55634C1.217 7.65012 1.38091 7.70011 1.54855 7.7Z" fill="#919191"/>
</svg>
