<svg width="14" height="12" viewBox="0 0 14 12" fill="none" xmlns="http://www.w3.org/2000/svg">
<path d="M5.19862 8.81911H4.28025V0.864102C4.28025 0.74115 4.22905 0.623243 4.13786 0.536303C4.04668 0.449363 3.92299 0.400513 3.79404 0.400513H2.46992C2.34096 0.400513 2.21728 0.449363 2.12609 0.536303C2.03491 0.623243 1.9837 0.74115 1.9837 0.864102V8.81911H1.06533C0.994016 8.81896 0.92422 8.83875 0.864587 8.87604C0.804954 8.91333 0.758111 8.96648 0.729846 9.02891C0.701581 9.09133 0.693167 9.16029 0.705601 9.22724C0.718034 9.29419 0.750774 9.35619 0.799802 9.40557L2.86432 11.4921C2.93086 11.5589 3.02246 11.5978 3.11907 11.6004C3.21568 11.6029 3.30942 11.5689 3.37973 11.5056L3.39468 11.4921L5.45915 9.40557C5.50781 9.35612 5.5403 9.29421 5.55257 9.22743C5.56485 9.16065 5.55641 9.09188 5.52828 9.02961C5.50016 8.96734 5.45356 8.91426 5.39424 8.87687C5.33492 8.83947 5.26543 8.8194 5.19432 8.81911H5.19862ZM11.2334 5.07035H6.91358C6.80401 5.07053 6.69896 5.11217 6.62155 5.1861C6.54413 5.26004 6.50067 5.36023 6.50067 5.46471V6.53714C6.50067 6.64161 6.54413 6.74182 6.62155 6.81575C6.69896 6.88969 6.80401 6.93132 6.91358 6.9315H11.2334C11.3431 6.9315 11.4483 6.88995 11.5258 6.81599C11.6034 6.74204 11.647 6.64173 11.647 6.53714V5.46471C11.6466 5.36047 11.6029 5.26062 11.5256 5.18697C11.4482 5.11333 11.3434 5.07189 11.2341 5.07171L11.2334 5.07035ZM12.8871 1.85169H6.91358C6.80401 1.85187 6.69896 1.8935 6.62155 1.96744C6.54413 2.04138 6.50067 2.14158 6.50067 2.24605V3.31849C6.50067 3.42296 6.54413 3.52317 6.62155 3.5971C6.69896 3.67104 6.80401 3.71266 6.91358 3.71284H12.8871C12.9967 3.71266 13.1017 3.67104 13.1791 3.5971C13.2565 3.52317 13.3 3.42296 13.3 3.31849V2.24605C13.2996 2.14193 13.2561 2.04218 13.1789 1.96856C13.1017 1.89494 12.997 1.85341 12.8878 1.85305L12.8871 1.85169ZM9.57963 8.289H6.91358C6.80401 8.28918 6.69896 8.33082 6.62155 8.40475C6.54413 8.47869 6.50067 8.5789 6.50067 8.68338V9.7558C6.50067 9.86027 6.54413 9.96049 6.62155 10.0344C6.69896 10.1084 6.80401 10.15 6.91358 10.1502H9.58176C9.63608 10.1502 9.68987 10.14 9.74005 10.1201C9.79023 10.1003 9.83582 10.0713 9.87423 10.0347C9.91263 9.99803 9.94312 9.95457 9.96391 9.90672C9.98469 9.85888 9.99537 9.80759 9.99537 9.7558V8.68338C9.9948 8.57914 9.95099 8.47935 9.87349 8.40583C9.79598 8.33231 9.69109 8.29105 9.58176 8.29105L9.57963 8.289Z" fill="#6692F1"/>
</svg>
