<svg xmlns="http://www.w3.org/2000/svg" width="55.995" height="20.999" viewBox="0 0 55.995 20.999"><g transform="translate(17886.5 24247.5)"><rect width="54.995" height="19.993" transform="translate(-17886 -24247)" fill="#aaa" stroke="rgba(0,0,0,0)" stroke-width="1" opacity="0"/><path d="M10.712,137.813A2.187,2.187,0,1,0,8.525,140h0a2.184,2.184,0,0,0,2.185-2.185Zm23.684,0a2.181,2.181,0,1,0,0,.013v-.013m-28.677.068a2.8,2.8,0,0,1,4.789-2.064,2.858,2.858,0,0,1,.828,2.064H29.4a2.863,2.863,0,0,1,.825-2.064,2.809,2.809,0,0,1,4.8,2.064h3.526a.377.377,0,0,0,.377-.375v-1.9a.369.369,0,0,0-.364-.374h-.13c0-6.022-.129-9.8-1.694-9.8H15.458c-5.068,0-5.13,0-5.63,1.053L8.54,129.349l-3.615.66c-2.127.4-3.676,1.764-3.676,4.059v1.627c0,1.252.537,2.188,2.738,2.188Zm-1.381-6.137A2.864,2.864,0,0,0,2.9,133.161a3.554,3.554,0,0,1-.609.055A3,3,0,0,1,4.423,131.1a2.222,2.222,0,0,1-.085.644m11-5.219a.4.4,0,0,1,.125.262v1.886a.675.675,0,0,1-.623.658l-4.613.24a.2.2,0,0,1-.2-.283l1.035-2.48a.663.663,0,0,1,.6-.344l3.381-.039a.459.459,0,0,1,.291.1Z" transform="translate(-17886 -24367.002)" fill="#aaa" stroke="rgba(0,0,0,0)" stroke-width="1"/></g></svg>