<svg xmlns="http://www.w3.org/2000/svg" width="55" height="20" viewBox="0 0 113.295 44.205">
  <path id="Path_41643" 
    data-name="Path 41643" 
    d="M22.842,79.2a6,6,0,1,0-6,6,6,6,0,0,0,6-6m70.32,0a6,6,0,1,0-6,6h.012a6,6,0,0,0,5.986-6Zm15.881,0a6,6,0,1,0-6,6h.012a6,6,0,0,0,5.986-6Zm-99.3,2.424a7.5,7.5,0,1,1,14.2,0H62.728a.6.6,0,0,0,.586-.6v-.9H76.674v.48a.919.919,0,0,0,.9.9h1.2a.909.909,0,0,0,.9-.9V79.2a7.543,7.543,0,0,1,.3-2.081,4.541,4.541,0,0,1,.422-1.087,5.014,5.014,0,0,1,.334-.624,5.881,5.881,0,0,1,.643-.96,9.14,9.14,0,0,1,.665-.7H63.313V44.241A2.23,2.23,0,0,0,61.1,42H58.914c-12.458,0-24.835,2.916-30.365,7.633h-1.1a1.352,1.352,0,0,0-1.2.586l-1.654,1.8c-.2.257-.146.59.61.59h.96L23.4,58.765c-3.65.689-11.184,2.062-13.284,2.451-5.1.975-8.827,4.244-8.827,9.764V74.87A4.426,4.426,0,0,0,3.777,79.4v1.623a.614.614,0,0,0,.61.61ZM8.694,65.392a6.945,6.945,0,0,0-3.451,3.394,6.89,6.89,0,0,1-1.471.146A7.2,7.2,0,0,1,8.91,63.827a5,5,0,0,1-.216,1.565M39.328,52.848a.891.891,0,0,1,.3.629V58a1.662,1.662,0,0,1-1.514,1.608l-11.04.566a.481.481,0,0,1-.48-.7l2.467-5.933A1.583,1.583,0,0,1,30.5,52.7l8.129-.094a1.114,1.114,0,0,1,.7.24m73.3,28.652a.921.921,0,0,0,.9-.9V74.369a.614.614,0,0,0-.6-.61h-4.757a5.941,5.941,0,0,1,.648.7,6.163,6.163,0,0,1,.665.96,4.685,4.685,0,0,1,.329.624,5.344,5.344,0,0,1,.422,1.087,7.548,7.548,0,0,1,.3,2.081v1.383a.9.9,0,0,0,.89.9h.01Zm-16.8-4.368a7.463,7.463,0,0,1,2.086-3.36l-7.834-3.094a.718.718,0,0,0-.938.276l-.094.29a.687.687,0,0,0,.463.816l3.055,1.2-.3.516a7.468,7.468,0,0,1,2.062,3.356Z" 
    transform="translate(-0.74 -41.498)" 
    fill="#aaa" 
    stroke="rgba(0,0,0,0)" 
    stroke-width="1"/>
</svg>
