<svg xmlns="http://www.w3.org/2000/svg" width="24" height="24" viewBox="0 0 24 24">
  <path id="Subtraction_493" data-name="Subtraction 493" d="M1044,402h-22a1,1,0,0,1-1-1V379a1,1,0,0,1,1-1h22a1,1,0,0,1,1,1v22A1,1,0,0,1,1044,402ZM1033,391.9h0l2.842,2.842a.893.893,0,0,0,1.264,0l.632-.632a.9.9,0,0,0,0-1.264L1034.9,390l2.843-2.842a.9.9,0,0,0,0-1.264l-.632-.633a.895.895,0,0,0-1.264,0L1033,388.1l-2.843-2.843a.895.895,0,0,0-1.264,0l-.632.633a.893.893,0,0,0,0,1.264L1031.1,390l-2.843,2.843a.893.893,0,0,0,0,1.264l.632.632a.893.893,0,0,0,1.264,0L1033,391.9Z" transform="translate(-1021 -378)" fill="#FFF"/>
</svg>
