<svg width="20" height="20" viewBox="0 0 20 20" fill="none" xmlns="http://www.w3.org/2000/svg">
<path d="M18.9889 8.80625V13.9507C19.0132 14.2824 18.987 14.6158 18.9111 14.9396C18.8218 15.2466 18.6571 15.5264 18.432 15.7535C18.2069 15.9806 17.9285 16.1477 17.6222 16.2396C17.224 16.3211 16.8165 16.3472 16.4111 16.3174C16.2431 16.3174 16.0821 16.2506 15.9633 16.1319C15.8445 16.0131 15.7778 15.852 15.7778 15.684V13.7785H13.8556V14.6396C13.8542 14.7252 13.8467 14.8106 13.8333 14.8951C13.7891 15.208 13.6307 15.4934 13.3886 15.6965C13.1466 15.8996 12.838 16.0059 12.5222 15.9951H8.04445C7.7048 15.9968 7.37192 15.9002 7.08603 15.7168C6.80013 15.5334 6.57344 15.2712 6.43333 14.9618H5.41111C5.10084 14.9431 4.80796 14.8122 4.58715 14.5934C4.36634 14.3746 4.23267 14.083 4.21111 13.7729V12.5285H2.92222C2.92222 13.1618 2.93333 13.784 2.92222 14.4285C2.92251 14.544 2.89038 14.6573 2.8295 14.7555C2.76861 14.8537 2.6814 14.9329 2.57778 14.984C2.3826 15.0559 2.17276 15.0788 1.96667 15.0507C1.7687 15.077 1.56734 15.058 1.37778 14.9951C1.26871 14.9447 1.17572 14.865 1.10905 14.765C1.04239 14.665 1.00465 14.5486 1 14.4285V8.72847C1.00366 8.56729 1.06709 8.41323 1.17796 8.29619C1.28884 8.17915 1.43926 8.1075 1.6 8.09514C1.84444 8.08402 2.08889 8.08402 2.33333 8.09514C2.49408 8.1075 2.64449 8.17915 2.75537 8.29619C2.86625 8.41323 2.92967 8.56729 2.93333 8.72847V10.6285H4.21111C4.21111 9.75069 4.2 8.88402 4.21111 8.01736C4.23451 7.70793 4.36876 7.41733 4.5892 7.19893C4.80964 6.98053 5.10148 6.84899 5.41111 6.82847C6.3 6.81736 7.18889 6.82847 8.06667 6.82847V5.57291H5.48889C5.31921 5.56896 5.15759 5.49979 5.03757 5.37978C4.91756 5.25977 4.8484 5.09814 4.84444 4.92847V4.89514C4.83915 4.64283 4.85028 4.39044 4.87778 4.13958H4.86667C4.90932 3.99828 4.99825 3.87542 5.11917 3.79078C5.24009 3.70614 5.38597 3.66462 5.53333 3.67291H12.5544C12.6753 3.67439 12.7933 3.70947 12.8954 3.77422C12.9974 3.83898 13.0794 3.93086 13.1322 4.03958C13.1876 4.18858 13.2103 4.34771 13.1989 4.50625C13.1989 4.67291 13.1989 4.83958 13.1878 5.01736C13.1682 5.17132 13.0931 5.31281 12.9764 5.41515C12.8597 5.51749 12.7096 5.57361 12.5544 5.57291H9.99889V6.82847H12.5211C12.8607 6.81818 13.1907 6.94168 13.4401 7.17236C13.6895 7.40305 13.8383 7.72246 13.8544 8.0618V9.3618H15.7767V7.4618C15.7772 7.335 15.8156 7.21125 15.8869 7.10636C15.9581 7.00146 16.059 6.92019 16.1767 6.87291C16.318 6.83628 16.4641 6.82129 16.61 6.82847C16.9074 6.81338 17.2056 6.83202 17.4989 6.88403C17.7807 6.94744 18.0448 7.07317 18.2716 7.25198C18.4985 7.4308 18.6825 7.65815 18.81 7.91736C18.9358 8.19637 18.9977 8.50031 18.9889 8.80625Z" fill="black"/>
</svg>
