<svg width="18" height="18" viewBox="0 0 18 18" fill="#aaa" xmlns="http://www.w3.org/2000/svg">
<path fill-rule="evenodd" clip-rule="evenodd" d="M14.7391 5.65724L17.0491 14.5012C17.1137 14.7313 17.1251 14.973 17.0825 15.2081C17.0399 15.4432 16.9443 15.6655 16.803 15.8582C16.6618 16.0509 16.4786 16.2089 16.2672 16.3203C16.0558 16.4317 15.8219 16.4936 15.5831 16.5012H2.42111C2.18248 16.4933 1.94877 16.4312 1.73766 16.3197C1.52656 16.2081 1.34357 16.0501 1.20254 15.8574C1.06151 15.6647 0.966134 15.4425 0.923614 15.2076C0.881094 14.9726 0.892547 14.7311 0.957106 14.5012L3.26711 5.66124C3.32002 5.44109 3.44482 5.24487 3.62177 5.1036C3.79871 4.96234 4.0177 4.88409 4.24411 4.88124H6.12311C6.00307 4.57213 5.94005 4.24383 5.93711 3.91224V3.90124C5.94759 3.50938 6.03527 3.12344 6.19511 2.7655C6.35494 2.40757 6.58381 2.08467 6.8686 1.8153C7.15339 1.54593 7.48851 1.33538 7.85478 1.19569C8.22105 1.056 8.61127 0.989925 9.00311 1.00124H9.03411C9.81797 0.988402 10.5749 1.28726 11.1385 1.83215C11.7021 2.37704 12.0264 3.1234 12.0401 3.90724C12.0402 4.23912 11.9771 4.56799 11.8541 4.87624H13.7611C13.9876 4.87961 14.2066 4.95815 14.3836 5.09952C14.5607 5.24089 14.6857 5.43708 14.7391 5.65724ZM9.71173 3.21239C9.5212 3.03068 9.26632 2.93207 9.00311 2.93824C8.73751 2.93219 8.48006 3.0301 8.28561 3.2111C8.09115 3.39211 7.97507 3.6419 7.96211 3.90724C7.97507 4.17259 8.09115 4.42238 8.28561 4.60338C8.48006 4.78439 8.73751 4.8823 9.00311 4.87624C9.26624 4.88215 9.52098 4.78345 9.71144 4.6018C9.90191 4.42014 10.0126 4.17036 10.0191 3.90724C10.0128 3.64403 9.90225 3.3941 9.71173 3.21239Z" fill="#919191"/>
</svg>
