<svg width="90" height="90" viewBox="0 0 90 90" fill="none" xmlns="http://www.w3.org/2000/svg">
<g opacity="0.4" clip-path="url(#clip0_11628_24019)">
<path d="M89.9301 20.2586V20.3486L81.9301 59.5486L79.7801 70.0286C79.5321 71.1721 78.8674 72.1824 77.9154 72.8627C76.9634 73.5429 75.7922 73.8445 74.6301 73.7086L20.0001 67.4186C18.3201 67.2086 17.2801 65.3086 17.7301 63.2886L23.0001 40.3486L26.6901 24.2386C26.857 23.3791 27.2794 22.59 27.9021 21.9745C28.5248 21.3589 29.3187 20.9456 30.1801 20.7886L85.8601 16.0186C88.5301 15.7886 90.4001 17.7186 89.9301 20.2586Z" fill="#919191"/>
<path d="M89.9301 20.2586L81.9301 59.5186L79.7801 70.0286C79.5321 71.1721 78.8674 72.1824 77.9154 72.8627C76.9634 73.5429 75.7922 73.8445 74.6301 73.7086L20.0001 67.4186C18.3201 67.2086 17.2801 65.3086 17.7301 63.2886L23.0001 40.3486C31.1118 33.6361 40.6574 28.877 50.9001 26.4386C50.9001 26.4386 60.1701 25.9086 70.6601 17.3186L85.8501 16.0186C88.5301 15.7886 90.4001 17.7186 89.9301 20.2586Z" fill="#6C6C6C"/>
<path d="M84.83 23.0984L79.53 69.5084C79.3768 70.751 78.7443 71.8845 77.7672 72.6672C76.7902 73.45 75.546 73.82 74.3 73.6985L25 68.6084C24.2148 68.459 23.5113 68.028 23.0215 67.3964C22.5317 66.7648 22.2893 65.9761 22.34 65.1784L22 44.4284L21.75 30.1384V28.3284C21.75 26.1184 23.37 23.9584 25.24 23.7884L80.63 18.8984C81.4743 18.8083 82.3259 18.9793 83.07 19.3884C83.367 19.5612 83.6395 19.7731 83.88 20.0184C84.255 20.4305 84.5345 20.9201 84.6987 21.4524C84.8629 21.9848 84.9078 22.5468 84.83 23.0984Z" fill="#E5E5E5"/>
<path d="M84.83 23.0978L79.53 69.5078C79.3768 70.7503 78.7443 71.8838 77.7672 72.6666C76.7902 73.4493 75.546 73.8194 74.3 73.6978L25 68.6078C24.2148 68.4583 23.5113 68.0273 23.0215 67.3957C22.5317 66.7642 22.2893 65.9755 22.34 65.1778L22 44.4278C37.66 31.8978 67.93 30.1778 74.55 28.5178C76.7185 28.0505 78.7244 27.0167 80.3633 25.5218C82.0023 24.0269 83.2157 22.1243 83.88 20.0078C84.2564 20.421 84.5367 20.9122 84.701 21.4464C84.8652 21.9807 84.9093 22.5446 84.83 23.0978Z" fill="#CCCCCC"/>
<path d="M78.4761 68.9475C78.5968 69.5723 78.5666 70.2169 78.3881 70.8278C78.2096 71.4386 77.888 71.998 77.4499 72.4596C77.0118 72.9211 76.4699 73.2715 75.8692 73.4816C75.2685 73.6917 74.6264 73.7554 73.9961 73.6675L21.9961 67.6675C20.4961 67.4875 19.1461 65.9675 18.7761 64.0575L12.3561 30.3275L11.8161 27.5175C11.3761 25.1575 12.6061 22.8775 14.4361 22.7175L68.2661 18.0675C69.3968 17.9804 70.5167 18.3394 71.3861 19.0675C72.3803 19.8919 73.0121 21.0729 73.1461 22.3575L78.4761 68.9475Z" fill="#EEEEEE"/>
<path d="M78.4794 68.9534C78.6 69.5783 78.5698 70.2229 78.3914 70.8337C78.2129 71.4445 77.8912 72.0039 77.4531 72.4655C77.015 72.927 76.4732 73.2774 75.8725 73.4875C75.2718 73.6976 74.6296 73.7613 73.9994 73.6734L21.9994 67.6734C20.4994 67.4934 19.1494 65.9734 18.7794 64.0634L12.3594 30.3334L21.8194 27.7234L37.3994 26.7234C37.3994 26.7234 63.2994 26.1434 71.3994 19.0234C72.3936 19.8479 73.0253 21.0289 73.1594 22.3134L78.4794 68.9534Z" fill="#DADADA"/>
<path d="M74.7395 73.7837L17.3095 67.9037C16.6527 67.7673 16.0442 67.4582 15.5467 67.0082C15.0492 66.5582 14.6808 65.9836 14.4795 65.3437L13.9995 64.0037L0.249531 26.9037C-0.430469 25.0537 0.339532 23.1137 1.82953 22.9737L25.8295 20.6437C26.4104 20.618 26.9869 20.7551 27.494 21.0395C28.0012 21.324 28.4187 21.7445 28.6995 22.2537L32.4095 28.2037C32.7116 28.7311 33.1488 29.1685 33.6761 29.4708C34.2034 29.7731 34.8018 29.9294 35.4095 29.9237L62.2895 28.4037C63.2544 28.3877 64.198 28.6879 64.9762 29.2585C65.7545 29.8291 66.3246 30.6387 66.5995 31.5637L77.9995 69.7837C78.1788 70.2724 78.2278 70.7994 78.1417 71.3128C78.0556 71.8262 77.8373 72.3084 77.5085 72.7119C77.1796 73.1155 76.7514 73.4265 76.2659 73.6144C75.7804 73.8023 75.2544 73.8606 74.7395 73.7837Z" fill="#CCCCCC"/>
<path d="M74.74 73.7812L17.31 67.9012C16.6532 67.7649 16.0446 67.4558 15.5472 67.0057C15.0497 66.5557 14.6813 65.9811 14.48 65.3412L14 64.0012C17.89 63.7612 50.78 60.7412 57.2 28.6812L62.3 28.3912C63.2649 28.3752 64.2085 28.6755 64.9867 29.2461C65.7649 29.8166 66.335 30.6262 66.61 31.5512L78 69.7812C78.1792 70.27 78.2282 70.797 78.1421 71.3104C78.056 71.8238 77.8378 72.3059 77.5089 72.7095C77.1801 73.113 76.7518 73.424 76.2664 73.6119C75.7809 73.7998 75.2549 73.8582 74.74 73.7812Z" fill="#AAAAAA"/>
<path d="M41.5473 45.3522L19.7873 45.2422C19.0473 45.2422 18.6473 46.0722 18.9573 46.9422L20.4773 51.1622C20.6069 51.5814 20.8537 51.9548 21.1886 52.2383C21.5235 52.5218 21.9325 52.7035 22.3673 52.7622L44.6773 53.5622L41.5473 45.3522Z" fill="#2F2F2F"/>
<path d="M54.05 51.0121L46.32 57.0121C45.68 57.5121 44.61 57.0121 44.26 56.1021L39.61 43.7921C39.18 42.6721 40.08 41.7921 41.1 42.2621L53.5 48.5521C54.5 49.0621 54.81 50.4321 54.05 51.0121Z" fill="#2F2F2F"/>
</g>
<defs>
<clipPath id="clip0_11628_24019">
<rect width="90" height="90" fill="white"/>
</clipPath>
</defs>
</svg>
