<svg width="18" height="18" viewBox="0 0 18 18" fill="none" xmlns="http://www.w3.org/2000/svg">
<path d="M12.7605 2.30543C12.6722 0.934827 11.0694 0.0921196 9.84464 0.598896C9.06144 0.892596 8.46061 1.68347 8.51051 2.5377C8.52779 3.52438 9.43193 4.33637 10.386 4.41699C11.603 4.61663 12.8872 3.57045 12.7605 2.30543Z" fill="#FAB15C"/>
<path d="M5.50555 7.09979C5.48286 7.109 5.4602 7.11819 5.43759 7.12737C5.36848 7.44411 5.29553 7.75892 5.21875 8.07374C5.91749 7.83571 6.70452 7.59959 7.4167 7.92401C7.75263 8.16012 7.77375 8.62274 7.76031 8.99515C7.65225 9.9721 7.36681 10.9137 7.08158 11.8547C6.75369 12.9363 6.42608 14.0171 6.36859 15.1494C6.2227 16.3453 7.27273 17.3781 8.41873 17.4836C9.6585 17.727 10.8392 17.2564 11.9724 16.8047C12.0814 16.7613 12.1901 16.718 12.2983 16.6755C12.375 16.3569 12.4556 16.0383 12.5363 15.7196L12.5034 15.7299C11.8326 15.9403 11.095 16.1718 10.4113 15.8885C9.92371 15.6965 9.9429 15.0745 9.97362 14.6388C10.0878 13.7058 10.3616 12.804 10.6353 11.9026C10.9692 10.8029 11.3029 9.70389 11.3461 8.5498C11.4152 7.55544 10.6877 6.61292 9.7279 6.38064C8.28601 5.9711 6.83113 6.56169 5.50555 7.09979Z" fill="#FAB15C"/>
</svg>
