<svg xmlns="http://www.w3.org/2000/svg" width="18.001" height="18.001" viewBox="0 0 18.001 18.001">
  <g id="PM_-_Reefer_Unit" data-name="PM - Reefer Unit" transform="translate(-18412.354 2937.857)">
    <rect id="Rectangle_53345" data-name="Rectangle 53345" width="18.001" height="18.001" transform="translate(18412.354 -2937.857)" fill="#e57373" opacity="0"/>
    <path id="exclamation" d="M21.344,14.428a2.672,2.672,0,1,1-2.672-2.672A2.675,2.675,0,0,1,21.344,14.428ZM16.309.842l.454,9.084a.8.8,0,0,0,.8.762H19.78a.8.8,0,0,0,.8-.762L21.034.842a.8.8,0,0,0-.8-.842H17.11A.8.8,0,0,0,16.309.842Z" transform="translate(18402.682 -2937.406)" fill="#e57373"/>
  </g>
</svg>
