<svg width="90" height="90" viewBox="0 0 90 90" fill="none" xmlns="http://www.w3.org/2000/svg">
<g opacity="0.4" clip-path="url(#clip0_11625_30681)">
<path d="M89.897 19.1097L81.217 76.7597C80.347 82.5197 74.117 86.4497 67.607 85.3797L62.687 84.5797L13.417 76.5797C12.4795 76.4711 11.573 76.177 10.7503 75.7144C9.92759 75.2518 9.20525 74.6301 8.62535 73.8854C8.04546 73.1408 7.61962 72.2881 7.37268 71.3772C7.12574 70.4663 7.06263 69.5153 7.18704 68.5797L15.267 14.9797C15.6513 13.0378 16.7107 11.2946 18.2574 10.0591C19.8041 8.82359 21.7382 8.17551 23.717 8.22971L78.867 8.50971H79.187C85.857 8.49971 90.767 13.3497 89.897 19.1097Z" fill="#919191"/>
<path d="M88.1038 12.4613L77.4338 75.4613L69.0838 82.7613C69.0838 82.7613 24.4338 78.3613 13.6438 76.4013C7.12375 75.2113 3.71375 72.3213 2.05375 70.2213C1.43904 69.4843 0.946153 68.6538 0.59375 67.7613C0.59375 67.7613 60.4438 5.59125 71.2138 4.28125H72.0838C72.4612 4.28102 72.8384 4.30105 73.2138 4.34125C73.4013 4.35135 73.5883 4.37138 73.7738 4.40125C82.3737 5.50125 88.1038 12.4613 88.1038 12.4613Z" fill="#919191"/>
<path d="M82.7819 14.9431L74.1119 72.5431C73.2419 78.3131 67.0019 82.2331 60.4919 81.1731L55.5819 80.3731L6.31191 72.3731C4.70678 72.1242 3.21838 71.3835 2.05191 70.2531C1.27311 69.5083 0.684851 68.5871 0.336769 67.5672C-0.0113132 66.5473 -0.109012 65.4586 0.0519121 64.3931L8.15191 10.7631C8.53414 8.81933 9.59261 7.07383 11.1395 5.83632C12.6864 4.59881 14.6217 3.94932 16.6019 4.00309L71.2119 4.28309H72.0819C72.4594 4.28286 72.8366 4.30289 73.2119 4.34309C73.3995 4.35319 73.5864 4.37322 73.7719 4.40309C79.5619 5.18309 83.5819 9.68309 82.7819 14.9431Z" fill="#CCCCCC"/>
<path d="M82.7903 14.9391L74.1103 72.5491C73.2403 78.3091 67.0003 82.2291 60.4903 81.1691L55.5703 80.3691C60.1703 79.9191 67.8603 77.8391 69.1803 69.0691L77.0003 17.5191C77.0003 17.5191 78.6803 8.51906 71.8103 4.28906H72.1303C78.7403 4.31906 83.6503 9.17906 82.7903 14.9391Z" fill="#AAAAAA"/>
<path d="M67.0707 48.3536C61.8407 65.3536 44.5107 75.3536 29.0707 70.9436C27.0747 70.3803 25.1541 69.5778 23.3507 68.5536C12.4407 62.3336 7.35066 48.6736 11.5207 35.2536C16.3207 19.6636 32.0307 9.25358 47.2107 12.1136C50.9334 12.7987 54.46 14.294 57.5407 16.4936C66.7107 23.0736 71.0007 35.5236 67.0707 48.3536Z" fill="#AAAAAA"/>
<path d="M59.6625 46.3017C55.0025 62.5517 39.3325 72.1617 25.3825 67.9517C23.5758 67.4051 21.8454 66.6323 20.2325 65.6517C10.4025 59.6517 5.85252 46.6517 9.57252 33.7517C13.8825 18.7617 28.0025 8.83172 41.7125 11.5717C45.0892 12.2384 48.2676 13.672 51.0025 15.7617C59.3325 22.0917 63.2225 34.0017 59.6625 46.3017Z" fill="#3B73ED"/>
<path d="M41.8978 11.6782C36.7527 10.5962 31.4228 10.7677 26.3578 12.1782C18.5378 14.5682 7.25781 48.4482 7.25781 48.4482C9.42096 54.5287 13.1415 59.9354 18.0478 64.1282C25.8978 70.5082 47.9778 65.1282 52.3978 52.3482C56.8178 39.5682 56.4278 16.6482 41.8978 11.6782Z" fill="#3B73ED"/>
<path d="M59.6566 46.2978C54.9966 62.5478 39.3266 72.1578 25.3766 67.9478C23.5698 67.4012 21.8395 66.6284 20.2266 65.6478C22.6766 66.6478 28.4566 68.6478 32.8866 66.4578C38.6566 63.6378 31.2966 61.6678 27.3766 62.6578C23.4566 63.6478 27.8666 55.7878 35.7166 52.8378C43.5666 49.8878 46.5066 28.8378 44.5466 24.3778C42.5866 19.9178 45.5466 16.0378 48.4666 17.5078C50.6366 18.5878 51.9966 17.5578 50.9966 15.7578C59.3266 22.0878 63.2166 33.9978 59.6566 46.2978Z" fill="#0B49D1"/>
<path d="M51.4932 39.3275C49.2632 54.1675 36.6932 64.7575 24.0032 63.0975C19.1898 62.4546 14.7859 60.0496 11.6432 56.3475C7.1532 51.1475 4.96319 43.5875 6.17319 35.5675C8.17319 21.9175 19.4632 11.2075 31.7632 11.6375C36.2327 11.7833 40.5174 13.4562 43.9032 16.3775C49.7332 21.3975 52.9232 29.8675 51.4932 39.3275Z" fill="#92B1F5"/>
<path d="M51.4906 39.3328C49.2606 54.1728 36.6906 64.7628 24.0006 63.1028C19.1873 62.4599 14.7833 60.0549 11.6406 56.3528C14.5106 58.8268 18.043 60.4053 21.8006 60.8928C34.5106 62.5728 47.0706 51.9628 49.3006 37.1328C50.5406 28.9428 48.3006 21.4928 43.9206 16.3828C49.7306 21.4028 52.9206 29.8728 51.4906 39.3328Z" fill="#6692F1"/>
<path d="M31.3035 18.759L28.4435 34.009C28.3136 34.69 27.962 35.3088 27.4435 35.769C27.2224 35.98 26.9596 36.1424 26.672 36.2457C26.3844 36.3491 26.0783 36.3911 25.7735 36.369C25.4786 36.3121 25.1989 36.1937 24.9527 36.0215C24.7065 35.8494 24.4993 35.6273 24.3446 35.3698C24.1899 35.1123 24.0912 34.8251 24.0548 34.5269C24.0184 34.2287 24.0453 33.9262 24.1335 33.639L26.9035 18.759C27.0035 18.0959 27.3158 17.483 27.7936 17.0124C28.2714 16.5418 28.8889 16.2389 29.5535 16.149C30.7835 16.119 31.5735 17.279 31.3035 18.759Z" fill="white"/>
<path d="M43.4787 39.4819C40.9987 50.6019 31.2487 57.7619 22.4787 55.8919C14.1487 54.1519 9.38874 44.9819 11.1187 35.3019C11.9626 30.4814 14.291 26.0448 17.7787 22.6119C18.1886 22.1869 18.7486 21.9393 19.3387 21.9219C19.7616 21.9442 20.1623 22.1183 20.4672 22.4122C20.7721 22.7061 20.9608 23.1001 20.9987 23.5219C21.0833 24.0654 21.0367 24.6213 20.8627 25.1432C20.6887 25.6651 20.3925 26.1378 19.9987 26.5219C17.3814 28.9838 15.6279 32.2242 14.9987 35.7619C13.7387 42.7619 17.1587 49.2219 22.9987 50.4519C29.3587 51.7819 36.3587 46.4519 37.9987 38.4519C38.4777 36.5319 38.5471 34.5326 38.2025 32.584C37.8579 30.6354 37.1071 28.7812 35.9987 27.1419C35.6668 26.6408 35.4897 26.053 35.4897 25.4519C35.4897 24.8508 35.6668 24.263 35.9987 23.7619C37.0687 21.9519 39.3087 21.4919 40.3887 22.8919C43.5987 27.0319 44.9987 33.0219 43.4787 39.4819Z" fill="white"/>
</g>
<defs>
<clipPath id="clip0_11625_30681">
<rect width="90" height="90" fill="white"/>
</clipPath>
</defs>
</svg>
