<svg width="90" height="90" viewBox="0 0 90 90" fill="none" xmlns="http://www.w3.org/2000/svg">
<g opacity="0.4" clip-path="url(#clip0_11628_13907)">
<path d="M89.8964 40.8387L77.8964 83.7787C77.6969 84.5565 77.2247 85.2368 76.5658 85.6957C75.9069 86.1545 75.1051 86.3614 74.3064 86.2787L22.5964 80.7288C22.3587 80.6713 22.1357 80.5646 21.9418 80.4156C21.7479 80.2667 21.5873 80.0787 21.4705 79.8639C21.3536 79.6491 21.2831 79.4122 21.2635 79.1684C21.2438 78.9247 21.2755 78.6795 21.3564 78.4488L25.6064 64.0687L25.7764 63.5187L28.1464 55.4588L32.8264 39.6488C32.9952 38.9731 33.3791 38.3707 33.9202 37.9323C34.4614 37.494 35.1304 37.2435 35.8264 37.2188L87.5364 37.5288C87.947 37.5303 88.3509 37.6333 88.7121 37.8287C89.0732 38.0242 89.3805 38.3059 89.6064 38.6488C89.8046 38.9734 89.9329 39.336 89.9828 39.7131C90.0327 40.0902 90.0033 40.4737 89.8964 40.8387Z" fill="#919191"/>
<path d="M89.8964 40.8384L77.8964 83.7784C77.6969 84.5562 77.2247 85.2365 76.5658 85.6953C75.9069 86.1542 75.1051 86.3611 74.3064 86.2784L22.5964 80.7284C22.3587 80.6709 22.1357 80.5643 21.9418 80.4153C21.7479 80.2664 21.5873 80.0784 21.4705 79.8636C21.3536 79.6488 21.2831 79.4118 21.2635 79.1681C21.2438 78.9244 21.2755 78.6792 21.3564 78.4484L25.6064 64.0684L25.7764 63.5184L36.3564 61.8084C46.4364 60.4684 69.7064 56.8884 89.6064 38.6484C89.8046 38.9731 89.9329 39.3357 89.9828 39.7128C90.0327 40.0899 90.0033 40.4733 89.8964 40.8384Z" fill="#6C6C6C"/>
<path d="M70.0909 46.8426L22.1109 63.6526C21.8524 63.7268 21.5812 63.7459 21.3149 63.7085C21.0486 63.6712 20.7931 63.5784 20.565 63.436C20.3368 63.2937 20.1411 63.105 19.9906 62.8822C19.84 62.6594 19.7379 62.4074 19.6909 62.1426L18.7909 58.7926L10.5409 27.7926C10.3928 27.2554 10.433 26.6836 10.655 26.1723C10.8769 25.6611 11.2672 25.2413 11.7609 24.9826L56.9109 4.82265C57.1763 4.68345 57.4695 4.60566 57.7689 4.59501C58.0684 4.58437 58.3664 4.64114 58.641 4.76114C58.9155 4.88114 59.1596 5.0613 59.3552 5.2883C59.5508 5.51531 59.6928 5.78336 59.7709 6.07265L67.5009 30.5526L71.6509 43.6526C71.8513 44.2829 71.801 44.9662 71.5104 45.5604C71.2199 46.1546 70.7114 46.6138 70.0909 46.8426Z" fill="#E5E5E5"/>
<path d="M70.0891 46.8416L22.1091 63.6516C21.8506 63.7257 21.5794 63.7448 21.3131 63.7075C21.0468 63.6701 20.7913 63.5773 20.5631 63.4349C20.335 63.2926 20.1393 63.1039 19.9887 62.8811C19.8381 62.6583 19.7361 62.4063 19.6891 62.1416L18.7891 58.7916C27.1191 55.8916 39.8491 51.2116 50.5891 46.2816C62.5891 40.7516 66.3991 34.4716 67.4991 30.6016L71.6491 43.6516C71.8495 44.2819 71.7992 44.9652 71.5086 45.5593C71.218 46.1535 70.7096 46.6127 70.0891 46.8416Z" fill="#CCCCCC"/>
<path d="M65.0004 43.3715L19.7104 64.6515C19.466 64.7513 19.2032 64.798 18.9394 64.7884C18.6756 64.7789 18.4169 64.7132 18.1804 64.596C17.944 64.4787 17.7352 64.3124 17.5679 64.1082C17.4007 63.9039 17.2788 63.6664 17.2104 63.4115L16.2904 60.9315L5.0804 30.4215C4.88517 29.9066 4.86981 29.3409 5.03684 28.8162C5.20387 28.2915 5.54346 27.8387 6.0004 27.5315L48.2004 3.29149C48.4513 3.13879 48.7328 3.04323 49.0248 3.01162C49.3169 2.98 49.6123 3.0131 49.8901 3.10856C50.1679 3.20403 50.4212 3.35951 50.6321 3.56395C50.8431 3.7684 51.0063 4.0168 51.1104 4.29149L60.5704 26.8015L66.1704 40.1415C66.4106 40.7291 66.4238 41.385 66.2076 41.9819C65.9914 42.5787 65.5612 43.074 65.0004 43.3715Z" fill="#EEEEEE"/>
<path d="M64.9991 43.3725L19.7091 64.6525C19.4647 64.7523 19.2019 64.799 18.9381 64.7894C18.6743 64.7799 18.4156 64.7143 18.1791 64.597C17.9426 64.4797 17.7338 64.3134 17.5666 64.1092C17.3993 63.9049 17.2774 63.6675 17.2091 63.4125L16.2891 60.9325C22.9791 59.0125 53.2891 49.1325 60.1191 28.1125C60.2591 27.6625 60.4091 27.2325 60.5691 26.8125L66.1691 40.1525C66.4064 40.7389 66.4181 41.3925 66.2021 41.9871C65.986 42.5817 65.5575 43.0752 64.9991 43.3725Z" fill="#DADADA"/>
<path d="M74.2192 86.2678L20.2792 80.7278C19.6728 80.6263 19.1018 80.3733 18.6193 79.9922C18.1368 79.6111 17.7584 79.1142 17.5192 78.5478L16.7792 76.9478L0.349185 41.5678C-0.560815 39.5678 0.349185 37.5078 2.16918 37.5078L26.2592 37.6478C26.7731 37.6688 27.2748 37.8112 27.7232 38.0632C28.1716 38.3152 28.554 38.6697 28.8392 39.0978L33.1392 45.0978C33.4307 45.5437 33.8218 45.9158 34.2817 46.1848C34.7416 46.4538 35.2576 46.6123 35.7892 46.6478L60.4792 47.2278C61.2447 47.265 61.9835 47.5213 62.6075 47.9663C63.2315 48.4113 63.7146 49.0262 63.9992 49.7378L76.7392 82.6478C77.5392 84.6478 76.2792 86.4778 74.2192 86.2678Z" fill="#CCCCCC"/>
<path d="M74.2213 86.2703L20.2812 80.7303C19.6748 80.6288 19.1039 80.3758 18.6214 79.9947C18.1389 79.6136 17.7604 79.1167 17.5212 78.5503L16.7812 76.9503C20.7812 76.8003 52.4512 74.6403 55.7812 47.0703L60.4812 47.1803C61.2525 47.2216 61.9953 47.4854 62.6199 47.9396C63.2445 48.3939 63.7243 49.0193 64.0013 49.7403L76.7412 82.6503C77.5412 84.6503 76.2813 86.4803 74.2213 86.2703Z" fill="#AAAAAA"/>
<path d="M22.2021 63.4379L33.7821 69.8179C34.6821 70.3179 35.4621 69.4579 34.9921 68.4879L29.3521 56.8579C29.2997 56.7044 29.2127 56.565 29.0979 56.4504C28.9831 56.3358 28.8435 56.2491 28.6899 56.1969C28.5363 56.1448 28.3728 56.1285 28.212 56.1495C28.0511 56.1705 27.8972 56.2281 27.7621 56.3179L21.7621 61.5679C21.6483 61.7131 21.5686 61.882 21.5288 62.0622C21.4891 62.2423 21.4904 62.4291 21.5327 62.6087C21.575 62.7883 21.6571 62.956 21.7729 63.0996C21.8888 63.2431 22.0355 63.3588 22.2021 63.4379Z" fill="#2F2F2F"/>
<path d="M29.8516 58.6484L32.2816 58.7684C32.2816 58.7684 53.2016 58.7684 54.2816 75.7684C54.2816 76.3184 53.6316 76.4184 53.2816 75.9084C51.4716 72.9084 46.5516 67.7384 33.9816 66.9084L29.8516 58.6484Z" fill="#2F2F2F"/>
</g>
<defs>
<clipPath id="clip0_11628_13907">
<rect width="90" height="90" fill="white"/>
</clipPath>
</defs>
</svg>
