<svg width="14" height="14" viewBox="0 0 14 14" fill="none" xmlns="http://www.w3.org/2000/svg">
<path d="M9.388 7.0002L12.9695 3.41845C13.1806 3.20728 13.2992 2.9209 13.2992 2.62228C13.2992 2.32367 13.1806 2.03728 12.9695 1.82611L12.1734 1.02994C11.9622 0.818803 11.6758 0.700195 11.3772 0.700195C11.0787 0.700195 10.7923 0.818803 10.5811 1.02994L7.0007 4.61169L3.41823 1.02994C3.20708 0.818803 2.92072 0.700195 2.62213 0.700195C2.32354 0.700195 2.03717 0.818803 1.82602 1.02994L1.02992 1.82611C0.818798 2.03728 0.700195 2.32367 0.700195 2.62228C0.700195 2.9209 0.818798 3.20728 1.02992 3.41845L4.61137 7.0002L1.03093 10.5819C0.819816 10.7931 0.701213 11.0795 0.701213 11.3781C0.701213 11.6767 0.819816 11.9631 1.03093 12.1743L1.82704 12.9705C2.03819 13.1816 2.32455 13.3002 2.62314 13.3002C2.92174 13.3002 3.2081 13.1816 3.41925 12.9705L7.0007 9.3887L10.5822 12.9705C10.7933 13.1816 11.0797 13.3002 11.3783 13.3002C11.6769 13.3002 11.9632 13.1816 12.1744 12.9705L12.9705 12.1743C13.1816 11.9631 13.3002 11.6767 13.3002 11.3781C13.3002 11.0795 13.1816 10.7931 12.9705 10.5819L9.388 7.0002Z" fill="#E66767"/>
</svg>
 