<svg width="90" height="90" viewBox="0 0 90 90" fill="none" xmlns="http://www.w3.org/2000/svg">
<g opacity="0.4">
<path d="M71.9976 80.3118L6.47764 68.9418C4.85764 68.6618 3.79764 66.8318 4.09764 64.8518L11.8176 13.6518C11.9173 12.7352 12.3193 11.8779 12.9603 11.2151C13.6014 10.5524 14.4448 10.122 15.3576 9.99184L82.5676 7.85184C83.1344 7.79919 83.7056 7.87765 84.2372 8.08114C84.7688 8.28463 85.2464 8.60769 85.6331 9.02533C86.0198 9.44297 86.3052 9.94399 86.4673 10.4896C86.6293 11.0352 86.6637 11.6108 86.5676 12.1718L77.1976 76.5818C77.1107 77.1726 76.9057 77.7398 76.595 78.2497C76.2842 78.7596 75.874 79.2018 75.3888 79.5498C74.9036 79.8979 74.3533 80.1447 73.7707 80.2756C73.1881 80.4065 72.5851 80.4188 71.9976 80.3118Z" fill="#424242"/>
<path d="M6.25942 68.8869C5.02183 68.555 3.86274 67.98 2.84976 67.1953C1.83678 66.4107 0.990199 65.4322 0.359415 64.3169C-1.44059 60.7669 25.6194 41.7669 25.6194 41.7669L78.2194 5.0369C78.2194 5.0369 84.6094 4.6469 86.4094 10.3469C88.2094 16.0469 22.8494 61.3469 22.8494 61.3469L6.25942 68.8869Z" fill="#424242"/>
<path d="M43.1819 74.4522L41.8319 74.2722C41.5819 73.9322 41.3419 73.5822 41.1119 73.2722C40.4482 72.2411 39.8567 71.1652 39.3419 70.0522C38.8427 68.9441 38.4249 67.8011 38.0919 66.6322C37.7639 65.4684 37.5232 64.2818 37.3719 63.0822C37.2338 61.8908 37.1804 60.6911 37.2119 59.4922C37.2549 60.6858 37.3786 61.8752 37.5819 63.0522C37.8051 64.2251 38.1092 65.3812 38.4919 66.5122C38.8949 67.6297 39.3726 68.7189 39.9219 69.7722C40.4812 70.8172 41.1163 71.8199 41.8219 72.7722C42.2519 73.3522 42.7019 73.9122 43.1819 74.4522Z" fill="#424242"/>
<path d="M82.5207 9.3293L77.5907 43.1993L73.1507 73.7693C73.0586 74.3515 72.8518 74.9096 72.5422 75.4111C72.2326 75.9127 71.8264 76.3478 71.3473 76.6911C70.8681 77.0344 70.3256 77.2791 69.7511 77.4109C69.1766 77.5428 68.5816 77.5593 68.0007 77.4593L2.44075 66.0893C0.810747 65.7693 -0.249253 63.9793 0.0507468 61.9993L0.100747 61.6593L7.77075 10.7693C7.8708 9.85384 8.27323 8.99787 8.91438 8.33681C9.55552 7.67574 10.3988 7.24731 11.3107 7.1193L78.5207 4.9993C79.088 4.94834 79.6594 5.0283 80.1908 5.23303C80.7223 5.43776 81.1997 5.76178 81.5861 6.18013C81.9726 6.59847 82.2578 7.09997 82.4199 7.64596C82.5819 8.19195 82.6164 8.76786 82.5207 9.3293Z" fill="#AAAAAA"/>
<path d="M77.5907 43.2031L73.1507 73.7731C73.0586 74.3553 72.8518 74.9134 72.5422 75.415C72.2326 75.9165 71.8264 76.3516 71.3473 76.6949C70.8681 77.0382 70.3256 77.2829 69.7511 77.4148C69.1766 77.5466 68.5816 77.5631 68.0007 77.4631L2.44075 66.0931C0.810747 65.7731 -0.249253 63.9831 0.0507468 62.0031L0.100747 61.6631C0.230747 62.6031 1.10075 64.1531 5.18075 64.8031C12.3475 65.9189 19.5877 66.4972 26.8407 66.5331C27.5707 66.5331 28.3207 66.5331 29.0807 66.5331C30.4607 66.5331 31.8807 66.4731 33.3107 66.4031C43.6507 65.8831 55.0007 63.9231 63.8307 58.7731C70.0947 55.349 74.9627 49.8406 77.5907 43.2031Z" fill="#6C6C6C"/>
<path d="M32.4912 36.6519L8.4912 35.1819C8.25184 35.1407 8.02384 35.0495 7.82204 34.9144C7.62024 34.7792 7.44915 34.6031 7.31992 34.3975C7.19069 34.1918 7.1062 33.9613 7.07196 33.7208C7.03773 33.4804 7.0545 33.2354 7.1212 33.0019L8.1212 26.1719C8.17729 25.6607 8.40603 25.184 8.76965 24.8203C9.13327 24.4567 9.61003 24.228 10.1212 24.1719L34.2712 24.7119C34.5442 24.7239 34.8111 24.7958 35.0531 24.9227C35.2951 25.0495 35.5062 25.2281 35.6714 25.4458C35.8365 25.6635 35.9517 25.9148 36.0087 26.182C36.0657 26.4493 36.0632 26.7258 36.0012 26.9919L34.8712 34.5019C34.8095 35.0907 34.5324 35.6359 34.0931 36.0328C33.6537 36.4297 33.0832 36.6502 32.4912 36.6519Z" fill="white"/>
<path d="M30.2185 51.6619L6.34852 49.0219C6.11039 48.9659 5.88591 48.8627 5.68835 48.7184C5.49078 48.5742 5.32415 48.3918 5.19829 48.182C5.07243 47.9722 4.98991 47.7394 4.95559 47.4972C4.92128 47.255 4.93587 47.0083 4.99852 46.7719L5.99852 39.9219C6.02726 39.4008 6.24721 38.9086 6.61623 38.5396C6.98526 38.1706 7.47743 37.9506 7.99852 37.9219L31.9985 39.6219C32.2722 39.6618 32.5346 39.758 32.7692 39.9045C33.0038 40.0509 33.2055 40.2444 33.3615 40.4728C33.5175 40.7012 33.6244 40.9594 33.6755 41.2312C33.7267 41.503 33.7209 41.7824 33.6585 42.0519L32.5285 49.5719C32.4804 50.1483 32.215 50.6848 31.7861 51.0729C31.3572 51.4609 30.7968 51.6715 30.2185 51.6619Z" fill="white"/>
<path d="M69.3376 38.9081L39.5176 37.0781C39.2396 37.0456 38.9716 36.9551 38.7309 36.8125C38.4901 36.6699 38.2819 36.4784 38.1198 36.2503C37.9577 36.0222 37.8453 35.7627 37.7897 35.4884C37.7342 35.2142 37.7369 34.9313 37.7976 34.6581L38.9376 27.0781C39.0101 26.4776 39.293 25.9222 39.7359 25.5104C40.1789 25.0985 40.7534 24.8568 41.3576 24.8281L71.3576 25.4981C71.6792 25.5001 71.9966 25.5725 72.2872 25.7104C72.5778 25.8483 72.8347 26.0482 73.0397 26.2961C73.2446 26.544 73.3928 26.8338 73.4736 27.1452C73.5545 27.4565 73.5661 27.7818 73.5076 28.0981L72.2576 36.5081C72.1543 37.1987 71.7986 37.8264 71.2592 38.2697C70.7197 38.7131 70.035 38.9406 69.3376 38.9081Z" fill="white"/>
<path d="M66.8619 55.7684L37.2119 52.4384C36.9302 52.3898 36.6614 52.2844 36.4217 52.1288C36.182 51.9731 35.9764 51.7703 35.8174 51.5328C35.6585 51.2953 35.5494 51.0279 35.4969 50.747C35.4444 50.466 35.4494 50.1774 35.5119 49.8984L36.6519 42.3084C36.7182 41.7153 37.0005 41.1672 37.445 40.7689C37.8894 40.3705 38.465 40.1497 39.0619 40.1484L68.8519 42.2684C69.1793 42.2888 69.4987 42.3781 69.7892 42.5304C70.0797 42.6827 70.3348 42.8946 70.5377 43.1523C70.7407 43.4101 70.8869 43.7077 70.9669 44.0258C71.0469 44.344 71.0588 44.6754 71.0019 44.9984L69.7519 53.4284C69.6689 54.1176 69.3207 54.7474 68.7812 55.1842C68.2417 55.6211 67.5533 55.8306 66.8619 55.7684Z" fill="white"/>
<path d="M31.4078 57.1991L30.2778 64.7691C30.2312 65.139 30.0984 65.4929 29.8899 65.802C29.6815 66.1112 29.4033 66.3671 29.0778 66.5491C28.7355 66.7337 28.3429 66.8038 27.9578 66.7491L26.8478 66.5691L4.23783 62.8891C3.75247 62.7489 3.34091 62.425 3.09067 61.9862C2.84043 61.5473 2.77125 61.0281 2.89784 60.5391L3.89784 53.6691C3.92845 53.1597 4.15261 52.6813 4.52441 52.3318C4.89622 51.9823 5.38755 51.7881 5.89784 51.7891L29.7678 54.6691C30.0444 54.7222 30.3073 54.8308 30.5408 54.9881C30.7744 55.1454 30.9737 55.3483 31.1269 55.5846C31.2801 55.8209 31.3839 56.0857 31.4322 56.3632C31.4805 56.6406 31.4722 56.9249 31.4078 57.1991Z" fill="white"/>
<path d="M68.4679 61.941L67.2179 70.391C67.1762 70.7229 67.0687 71.043 66.9015 71.3327C66.7344 71.6224 66.5111 71.8758 66.2446 72.078C65.9782 72.2801 65.674 72.427 65.35 72.5099C65.026 72.5929 64.6887 72.6103 64.3579 72.561L34.9079 67.821C34.5344 67.7519 34.1872 67.5808 33.9049 67.3266C33.6225 67.0725 33.4159 66.7452 33.3079 66.381C33.1829 65.994 33.1487 65.5834 33.2079 65.181L34.3479 57.571C34.4062 56.9849 34.6882 56.4438 35.1351 56.0601C35.5821 55.6765 36.1597 55.4798 36.7479 55.511L63.8279 58.771L66.3579 59.071C66.6877 59.1146 67.0053 59.2244 67.2916 59.3938C67.5779 59.5631 67.8271 59.7886 68.0242 60.0566C68.2212 60.3247 68.3621 60.6297 68.4383 60.9535C68.5146 61.2774 68.5247 61.6132 68.4679 61.941Z" fill="white"/>
<path d="M26.8516 66.5312C27.5816 66.5312 28.3216 66.5312 29.0816 66.5312C28.7392 66.7159 28.3467 66.786 27.9616 66.7312L26.8516 66.5312Z" fill="#CCCCCC"/>
<path d="M68.4725 61.9434L67.2225 70.3934C67.1808 70.7253 67.0733 71.0455 66.9061 71.3352C66.739 71.6248 66.5156 71.8782 66.2492 72.0804C65.9828 72.2825 65.6786 72.4294 65.3546 72.5124C65.0306 72.5953 64.6933 72.6127 64.3625 72.5634L34.9125 67.8234C34.539 67.7543 34.1918 67.5832 33.9095 67.329C33.6271 67.0749 33.4205 66.7477 33.3125 66.3834C43.6525 65.8834 55.0025 63.9234 63.8325 58.7734L66.3625 59.0734C66.6923 59.117 67.0099 59.2268 67.2962 59.3962C67.5825 59.5656 67.8317 59.791 68.0288 60.059C68.2258 60.3271 68.3667 60.6321 68.4429 60.956C68.5192 61.2798 68.5292 61.6156 68.4725 61.9434Z" fill="#CCCCCC"/>
<path d="M89.1366 61.0778C87.5754 67.1926 84.1292 72.661 79.2866 76.7078C74.39 80.8089 68.4214 83.4219 62.0866 84.2378C55.3541 85.0629 48.5223 84.172 42.2266 81.6478C37.1116 79.4772 32.6366 76.0349 29.2266 71.6478L30.6666 71.8778C34.0995 75.4753 38.3201 78.2274 42.9966 79.9178C48.9385 81.9526 55.2966 82.4615 61.4866 81.3978C67.0382 80.3783 72.1773 77.7775 76.2866 73.9078C80.2062 70.2163 82.8562 65.3784 83.8566 60.0878C84.8042 54.9295 84.0533 49.6031 81.7166 44.9078C79.338 40.2058 75.6038 36.3253 70.9966 33.7678C66.373 31.1816 61.1189 29.9382 55.8266 30.1778V22.5078C57.5295 22.5205 59.2297 22.6441 60.9166 22.8778C62.6051 23.1189 64.2755 23.4731 65.9166 23.9378C67.5438 24.41 69.1375 24.9913 70.6866 25.6778C72.2166 26.3676 73.6968 27.1628 75.1166 28.0578C80.6852 31.533 85.0629 36.6222 87.6666 42.6478C90.147 48.468 90.663 54.938 89.1366 61.0778Z" fill="#2F2F2F"/>
<path d="M34.2494 25.1102L53.4294 14.3102C53.6818 14.156 53.9702 14.0708 54.2659 14.0631C54.5615 14.0553 54.854 14.1253 55.1142 14.266C55.3743 14.4067 55.593 14.6132 55.7483 14.8649C55.9036 15.1165 55.9902 15.4046 55.9994 15.7002V36.7002C55.9894 36.9967 55.9037 37.2857 55.7505 37.5398C55.5974 37.7938 55.3818 38.0045 55.1243 38.1518C54.8668 38.2991 54.5759 38.3781 54.2792 38.3813C53.9826 38.3846 53.69 38.3119 53.4294 38.1702L34.2494 27.9702C33.99 27.8321 33.7731 27.6261 33.6218 27.3742C33.4705 27.1223 33.3906 26.834 33.3906 26.5402C33.3906 26.2464 33.4705 25.9581 33.6218 25.7062C33.7731 25.4543 33.99 25.2483 34.2494 25.1102Z" fill="#2F2F2F"/>
<path d="M50.5686 13.4993C51.4059 13.024 52.3916 12.8814 53.3293 13.1001C54.267 13.3188 55.0879 13.8826 55.6286 14.6793C57.6286 17.5793 49.8486 19.9193 49.8486 19.9193L56.0886 25.7693V36.6793C56.0886 36.6793 56.0886 40.9693 48.2886 36.2893C44.9886 34.2893 49.0686 14.8493 49.0686 14.8493L50.5686 13.4993Z" fill="#2F2F2F"/>
<path d="M86.5538 60.5863C84.9454 66.7944 81.3963 72.3265 76.4237 76.3763C71.441 80.4343 65.3916 82.9659 59.0037 83.6663C52.7991 84.3779 46.5182 83.3748 40.8438 80.7663C36.0571 78.6262 31.9183 75.2635 28.8438 71.0163L30.7938 71.4063C33.701 74.8103 37.4187 77.4274 41.6037 79.0163C46.9368 81.1312 52.7493 81.7367 58.4038 80.7663C63.9942 79.8425 69.1916 77.3012 73.3537 73.4563C77.3682 69.7619 80.0887 64.8748 81.1138 59.5163C82.0826 54.2707 81.31 48.8521 78.9138 44.0863C76.486 39.3358 72.6844 35.4262 68.0037 32.8663C63.3506 30.3113 58.0741 29.1126 52.7738 29.4063V21.7663C54.4751 21.7563 56.1753 21.8565 57.8638 22.0663C59.5506 22.289 61.221 22.6231 62.8638 23.0663C64.4945 23.5215 66.0917 24.0896 67.6437 24.7663C69.1928 25.4482 70.6959 26.2298 72.1437 27.1063C77.8279 30.5639 82.3161 35.6802 85.0037 41.7663C87.581 47.6972 88.1259 54.3136 86.5538 60.5863Z" fill="#424242"/>
<path d="M31.4266 24.7673L50.4266 13.5973C50.662 13.4419 50.9347 13.3524 51.2165 13.338C51.4982 13.3236 51.7787 13.3849 52.0287 13.5155C52.2787 13.6462 52.4892 13.8414 52.6383 14.0808C52.7874 14.3203 52.8697 14.5953 52.8766 14.8773V36.0773C52.8687 36.3612 52.7886 36.6383 52.6438 36.8826C52.499 37.1269 52.2943 37.3302 52.0491 37.4733C51.8038 37.6165 51.5261 37.6947 51.2422 37.7007C50.9583 37.7066 50.6776 37.6401 50.4266 37.5073L31.4266 27.5073C31.1775 27.3756 30.9691 27.1784 30.8237 26.937C30.6784 26.6956 30.6016 26.4191 30.6016 26.1373C30.6016 25.8556 30.6784 25.5791 30.8237 25.3377C30.9691 25.0963 31.1775 24.8991 31.4266 24.7673Z" fill="#424242"/>
</g>
</svg>
