<svg width="18" height="14" viewBox="0 0 18 14" fill="none" xmlns="http://www.w3.org/2000/svg">
<path d="M6.06937 13.0716L1.06937 8.07158C0.985768 7.98801 0.919448 7.88878 0.874201 7.77957C0.828953 7.67035 0.805664 7.5533 0.805664 7.43508C0.805664 7.31687 0.828953 7.19981 0.874201 7.0906C0.919448 6.98139 0.985768 6.88216 1.06937 6.79858L2.34437 5.52758C2.42795 5.44398 2.52718 5.37766 2.63639 5.33241C2.7456 5.28716 2.86266 5.26388 2.98087 5.26388C3.09909 5.26388 3.21614 5.28716 3.32536 5.33241C3.43457 5.37766 3.5338 5.44398 3.61737 5.52758L6.70537 8.61558L14.3804 0.935583C14.4639 0.851979 14.5632 0.785659 14.6724 0.740412C14.7816 0.695164 14.8987 0.671875 15.0169 0.671875C15.1351 0.671875 15.2521 0.695164 15.3614 0.740412C15.4706 0.785659 15.5698 0.851979 15.6534 0.935583L16.9264 2.20858C17.01 2.29216 17.0763 2.39139 17.1215 2.5006C17.1668 2.60981 17.1901 2.72687 17.1901 2.84508C17.1901 2.9633 17.1668 3.08035 17.1215 3.18957C17.0763 3.29878 17.01 3.39801 16.9264 3.48158L7.34237 13.0676C7.2588 13.1512 7.15957 13.2175 7.05035 13.2628C6.94114 13.308 6.82409 13.3313 6.70587 13.3313C6.58766 13.3313 6.4706 13.308 6.36139 13.2628C6.25218 13.2175 6.15295 13.1512 6.06937 13.0676V13.0716Z" fill="#6692F1"/>
</svg>
