<svg width="18" height="18" viewBox="0 0 18 18" fill="none" xmlns="http://www.w3.org/2000/svg">
<path d="M3.57144 15.0114L3.55544 15.0004C3.51876 14.9643 3.48964 14.9213 3.46976 14.8738C3.44987 14.8263 3.43964 14.7754 3.43964 14.7239C3.43964 14.6725 3.44987 14.6215 3.46976 14.574C3.48964 14.5266 3.51876 14.4835 3.55544 14.4474L4.85544 13.1474C4.92542 13.0771 5.01953 13.036 5.11869 13.0325C5.21784 13.0289 5.31463 13.0632 5.38944 13.1284C6.38569 14.0075 7.66978 14.4907 8.99844 14.4864C9.89209 14.4852 10.7719 14.2657 11.5614 13.847C12.3509 13.4283 13.0261 12.823 13.5284 12.0839C14.0307 11.3447 14.3448 10.4941 14.4434 9.6059C14.5421 8.71771 14.4222 7.81887 14.0943 6.98754C13.7664 6.15622 13.2404 5.41758 12.562 4.83587C11.8836 4.25415 11.0734 3.84696 10.2018 3.64972C9.33019 3.45248 8.42359 3.47115 7.56084 3.70411C6.69808 3.93707 5.90531 4.37727 5.25144 4.98642L3.39844 3.14242C4.53824 2.0532 5.97113 1.32028 7.5214 1.03354C9.07167 0.746798 10.6719 0.918706 12.1259 1.52818C13.5799 2.13765 14.8244 3.1582 15.7069 4.46466C16.5893 5.77112 17.0713 7.30671 17.0938 8.88312C17.1162 10.4595 16.6781 12.0082 15.8333 13.3393C14.9884 14.6703 13.7734 15.7259 12.3373 16.3765C10.9013 17.0271 9.30658 17.2445 7.74878 17.0021C6.19097 16.7596 4.73779 16.0677 3.56744 15.0114H3.57144ZM1.68244 7.69142C1.57971 7.69182 1.47791 7.67194 1.38287 7.63293C1.28783 7.59392 1.20143 7.53654 1.1286 7.46409C1.05577 7.39163 0.997956 7.30552 0.958461 7.21068C0.918965 7.11585 0.898568 7.01415 0.898438 6.91142V2.53042C0.898863 2.37536 0.945204 2.22389 1.03162 2.09513C1.11803 1.96637 1.24063 1.86609 1.38397 1.80694C1.52731 1.74778 1.68496 1.73241 1.83703 1.76275C1.9891 1.79309 2.12877 1.86779 2.23844 1.97742L6.61544 6.35442C6.7252 6.46405 6.79992 6.60381 6.83013 6.75597C6.86033 6.90813 6.84466 7.06584 6.78509 7.20908C6.72552 7.35232 6.62475 7.47464 6.49555 7.56051C6.36636 7.64639 6.21457 7.69195 6.05944 7.69142H1.68244Z" fill="#919191"/>
</svg>
