<svg xmlns="http://www.w3.org/2000/svg" width="120" height="18" viewBox="0 0 120 18">
  <g id="Bank_-_Meta_Bank" data-name="Bank - Meta Bank" transform="translate(17821 3539)">
    <rect id="Rectangle_64039" data-name="Rectangle 64039" width="120" height="18" transform="translate(-17821 -3539)" fill="#aaa" opacity="0"/>
    <g id="Capital-One-Logo" transform="translate(-17846.619 -3679.672)">
      <g id="Capital_One" data-name="Capital One" transform="translate(25.62 143.672)">
        <path id="Path_38757" data-name="Path 38757" d="M871.7,323.538a7.013,7.013,0,0,1,2.347-.228,4.365,4.365,0,0,1,2.043.653,4.56,4.56,0,0,1,2.042,3.874c.932-.188,1.829-.507,2.738-.777-.322,1.131-.539,2.289-.793,3.436.305-.4.677-.733.995-1.119a13.723,13.723,0,0,1,1.961-1.748,2.318,2.318,0,0,1,1.733-.544.667.667,0,0,1,.6.6,5.925,5.925,0,0,1-.346,2.069c-.262.865-.458,1.747-.719,2.613a3.846,3.846,0,0,0-.259,1.421c.058.24.355.243.522.118a3.065,3.065,0,0,0,.939-1.137,4.707,4.707,0,0,1,.222-1.782,5.618,5.618,0,0,1,1.006-1.87,5.954,5.954,0,0,1,.992-1.03,5.507,5.507,0,0,1,1.7-.911,3.65,3.65,0,0,1,1.588-.044,1.5,1.5,0,0,1,1.068.907,2.1,2.1,0,0,1-.322,1.8,3.353,3.353,0,0,1-1.224.931,8.747,8.747,0,0,1-3.613.75,2.585,2.585,0,0,0,.072,1.544,1.6,1.6,0,0,0,1.155.975,2.177,2.177,0,0,0,1.575-.246,2.994,2.994,0,0,0,.733-.494,4.179,4.179,0,0,0,.734-.845l.276.2a5.177,5.177,0,0,1-.658.98c-.163.164-.316.336-.482.5a3.651,3.651,0,0,1-2.458.917,2.237,2.237,0,0,1-1.746-.739,2.808,2.808,0,0,1-.519-1,3.71,3.71,0,0,1-1.76,1.707,1.306,1.306,0,0,1-.956-.133.982.982,0,0,1-.289-.925,16.059,16.059,0,0,1,.56-2.158c.2-.862.521-1.693.714-2.558a2.136,2.136,0,0,0,.016-1.014.692.692,0,0,0-.787.043,7.447,7.447,0,0,0-1.3,1.047c-.64.619-1.262,1.257-1.878,1.9-.264,1.188-.47,2.388-.737,3.576-.442,0-.883,0-1.323,0,.191-.705.32-1.425.5-2.133.178-.806.4-1.6.541-2.416.13-.567.292-1.127.391-1.7a.262.262,0,0,0-.233-.3,2.865,2.865,0,0,0-.927.045,6.718,6.718,0,0,1-.525,2.63,6.594,6.594,0,0,1-2.781,3.288,6.957,6.957,0,0,1-2.359.812,6.388,6.388,0,0,1-2.794-.206,4.186,4.186,0,0,1-1.774-1.221,4.747,4.747,0,0,1-1.025-2.366,6.993,6.993,0,0,1,4.826-7.685m.947.3a3.859,3.859,0,0,0-1.15.464,6.114,6.114,0,0,0-2,2.369,8.9,8.9,0,0,0-.842,2.812,6.219,6.219,0,0,0,.094,2.275,3.922,3.922,0,0,0,1.356,2.092,2.7,2.7,0,0,0,2.172.5,3.638,3.638,0,0,0,1.946-.935,6.234,6.234,0,0,0,.909-1.109,8.915,8.915,0,0,0,.729-1.544,10.629,10.629,0,0,0,.469-2.417,5.163,5.163,0,0,0-.564-2.893,3.423,3.423,0,0,0-1.235-1.291,2.636,2.636,0,0,0-1.887-.323m16.785,3.8a3.752,3.752,0,0,0-1,.884,8.057,8.057,0,0,0-1.379,2.606,4.6,4.6,0,0,0,3-1.042,2.512,2.512,0,0,0,.748-1.073,1.284,1.284,0,0,0-.21-1.379A1,1,0,0,0,889.433,327.64Z" transform="translate(-812.012 -323.221)" fill="#e13338"/>
        <path id="Path_38756" data-name="Path 38756" d="M31.254,322.519a11.3,11.3,0,0,1,2.4-.219,8.134,8.134,0,0,1,2.992.526c-.087.794-.264,1.574-.4,2.361a5.1,5.1,0,0,0-4.456-.351,3.641,3.641,0,0,0-1.948,1.96,1.859,1.859,0,0,0,.78,2.358,3.956,3.956,0,0,0,2.392.448,12.584,12.584,0,0,0,2.142-.294c-.153.806-.307,1.613-.455,2.421-.844.091-1.692.139-2.54.152a9.037,9.037,0,0,1-3.923-.6,5.368,5.368,0,0,1-1.564-.912,3.118,3.118,0,0,1-.959-1.569,4.427,4.427,0,0,1,.121-2.223,5.757,5.757,0,0,1,.873-1.611,10.335,10.335,0,0,1,.737-.754,9.065,9.065,0,0,1,1.251-.837A9.171,9.171,0,0,1,31.254,322.519Z" transform="translate(-25.62 -322.298)" fill="#026cb6"/>
        <path id="Path_38758" data-name="Path 38758" d="M785.328,325.351c.121-.588.17-1.188.314-1.771,1.083.051,2.169.077,3.254.094-.172,1.158-.429,2.3-.581,3.465q-.329,1.852-.658,3.705c-.087.7-.231,1.4-.355,2.1-1.111,0-2.221,0-3.332,0,.221-1.559.59-3.1.814-4.655C784.967,327.31,785.146,326.33,785.328,325.351Z" transform="translate(-734.571 -323.496)" fill="#026cb6"/>
        <path id="Path_38759" data-name="Path 38759" d="M505.777,325.4a2.264,2.264,0,0,1,1.791.391.619.619,0,0,1,.2.677,1.317,1.317,0,0,1-.679.637,2.955,2.955,0,0,1-1.921.19,1.219,1.219,0,0,1-.87-.62.725.725,0,0,1,.229-.774A2.178,2.178,0,0,1,505.777,325.4Z" transform="translate(-473.074 -325.169)" fill="#026cb6"/>
        <path id="Path_38760" data-name="Path 38760" d="M558.855,331.732c.742-.128,1.472-.317,2.21-.472-.126.7-.248,1.408-.38,2.111.562,0,1.125,0,1.687,0-.11.448-.216.9-.326,1.342-.537.005-1.073,0-1.609,0-.18.924-.351,1.85-.529,2.774-.12.877-.318,1.741-.47,2.612q-1.657,0-3.315,0c.218-1.362.491-2.715.746-4.071.1-.427.122-.865.225-1.29-.411,0-.822,0-1.233,0,.086-.457.172-.913.263-1.368.422,0,.843,0,1.264,0,.091-.449.151-.9.249-1.352C558.034,331.894,558.451,331.835,558.855,331.732Z" transform="translate(-521.32 -330.676)" fill="#026cb6"/>
        <path id="Path_38761" data-name="Path 38761" d="M180.431,361.429a30.587,30.587,0,0,1,4.672-.4,5.06,5.06,0,0,1,2.613.569,1.191,1.191,0,0,1,.548.99,9.016,9.016,0,0,1-.184,1.271c-.155,1.126-.405,2.238-.588,3.36a.729.729,0,0,0,.344.6c0,.035,0,.1,0,.139-1.144-.008-2.287,0-3.431,0-.014-.286-.033-.572-.026-.858a6.367,6.367,0,0,1-3.068.9,7.526,7.526,0,0,1-1.458-.086,2.047,2.047,0,0,1-1.479-1.068,1.6,1.6,0,0,1,.274-1.519,3.051,3.051,0,0,1,.993-.7,10.886,10.886,0,0,1,2.725-.539,11.618,11.618,0,0,0,2.206-.317c.159-.064.354-.132.416-.309a.487.487,0,0,0-.141-.614,2.47,2.47,0,0,0-.986-.188,18.489,18.489,0,0,0-4.078.511c.237-.572.408-1.168.645-1.74m2.092,3.874c-.349.07-.749.285-.789.677-.041.279.236.476.481.524a2.531,2.531,0,0,0,2.111-.514,2.231,2.231,0,0,0,.39-1.124A14.4,14.4,0,0,1,182.523,365.3Z" transform="translate(-168.333 -358.507)" fill="#026cb6"/>
        <path id="Path_38762" data-name="Path 38762" d="M632.985,361.637a28,28,0,0,1,5.285-.361,3.641,3.641,0,0,1,2.22.73,1.361,1.361,0,0,1,.3,1.251c-.216,1.238-.453,2.471-.67,3.708a1.454,1.454,0,0,0,.01.825,1.721,1.721,0,0,0,.3.294c-.118.142-.316.082-.475.1-1-.02-2-.01-3.006-.012-.023-.278,0-.558-.037-.834a6.663,6.663,0,0,1-2.621.866,7.978,7.978,0,0,1-1.9-.065,2.107,2.107,0,0,1-1.463-1.054,1.586,1.586,0,0,1,.487-1.74,4.021,4.021,0,0,1,1.953-.821c.989-.178,1.994-.252,2.993-.358a3.351,3.351,0,0,0,.973-.262.528.528,0,0,0,.206-.692,1.2,1.2,0,0,0-.9-.319,17.13,17.13,0,0,0-4.3.5c.232-.578.441-1.166.649-1.752m2.658,3.8a2.082,2.082,0,0,0-1.162.367.509.509,0,0,0-.014.792,1.384,1.384,0,0,0,.736.166,2.328,2.328,0,0,0,1.718-.6,2.263,2.263,0,0,0,.341-1.07A10.621,10.621,0,0,1,635.643,365.438Z" transform="translate(-591.396 -358.72)" fill="#026cb6"/>
        <path id="Path_38763" data-name="Path 38763" d="M330.568,363.8a5.1,5.1,0,0,1,2.474-.57,3.079,3.079,0,0,1,2.025.625,2.679,2.679,0,0,1,.689.939,4.023,4.023,0,0,1,.018,2.445,4.146,4.146,0,0,1-2.182,2.453,4.58,4.58,0,0,1-2.113.4,3.553,3.553,0,0,1-1.328-.21,2.84,2.84,0,0,1-.846-.6c-.186,1.005-.361,2.013-.543,3.019-1.081,0-2.163.006-3.243,0,.066-.364.144-.724.184-1.092.25-1.464.558-2.92.777-4.389.216-1.167.432-2.333.642-3.5.964-.008,1.927,0,2.891,0-.075.377-.138.758-.232,1.131a2.477,2.477,0,0,1,.787-.65m.416,1.142a2.507,2.507,0,0,0-.689.335,2.108,2.108,0,0,0-.664,1.581,1.123,1.123,0,0,0,.29.842,1.39,1.39,0,0,0,1.154.337,1.714,1.714,0,0,0,1.055-.462,2.231,2.231,0,0,0,.6-1.757,1.093,1.093,0,0,0-.813-.885A1.8,1.8,0,0,0,330.985,364.942Z" transform="translate(-305.984 -360.559)" fill="#026cb6"/>
        <path id="Path_38764" data-name="Path 38764" d="M484.625,364.31c1.093.007,2.185-.005,3.279.006-.138.939-.324,1.87-.491,2.8-.244,1.3-.438,2.6-.687,3.9-1.092,0-2.184,0-3.276,0,.2-1.475.541-2.929.76-4.4C484.336,365.849,484.486,365.08,484.625,364.31Z" transform="translate(-453.627 -361.573)" fill="#026cb6"/>
      </g>
    </g>
  </g>
</svg>
