<svg xmlns="http://www.w3.org/2000/svg" width="120" height="18" viewBox="0 0 120 18">
  <g id="Bank_-_Chase" data-name="Bank - Chase" transform="translate(17821 3847)">
    <rect id="Rectangle_64028" data-name="Rectangle 64028" width="120" height="18" transform="translate(-17821 -3847)" fill="#aaa" opacity="0"/>
    <g id="Group_6069" data-name="Group 6069" transform="translate(-17821 -3843.955)">
      <g id="logo" transform="translate(67.672)">
        <path id="logo-ne" d="M571.644,405.623a.416.416,0,0,0-.416.416h0v2.982h7.861l-3.592-3.4h-3.853" transform="translate(-567.331 -405.623)" fill="#117aca"/>
        <path id="logo-se" d="M595.459,422.837a.417.417,0,0,0-.416-.417h-2.978V430.3l3.393-3.6v-3.859" transform="translate(-583.417 -418.583)" fill="#117aca"/>
        <path id="logo-sw" d="M562.826,446.659a.416.416,0,0,0,.416-.416h0v-2.986h-7.86l3.592,3.4h3.853" transform="translate(-555.098 -434.659)" fill="#117aca"/>
        <path id="logo-nw" d="M554.135,414.333a.416.416,0,0,0,.415.417h2.978v-7.875l-3.393,3.6v3.861" transform="translate(-554.135 -406.589)" fill="#117aca"/>
      </g>
      <g id="type">
        <path id="H" d="M321.9,405.623v4.742h-6.64v-4.742h-2.4v11.97h2.4V412.45h6.611v5.142h2.4v-11.97H321.9" transform="translate(-300.197 -405.623)" fill="#fff"/>
        <path id="E" d="M492.095,405.623v11.941h10.589l-1.347-2.114h-6.809v-3h6.611v-2.027h-6.611V407.68h6.811l1.316-2.057h-10.56" transform="translate(-438.567 -405.623)" fill="#fff"/>
        <path id="C" d="M261.1,405.623a3.463,3.463,0,0,0-3.778,3.742v4.456a3.461,3.461,0,0,0,3.749,3.771h7.556l-1.4-2.171h-5.667c-1.2,0-1.746-.429-1.746-1.8v-4.056c0-1.314.43-1.828,1.775-1.828h5.724l1.345-2.114H261.1" transform="translate(-257.322 -405.623)" fill="#fff"/>
        <path id="S" d="M435.827,405.623a2.8,2.8,0,0,0-2.919,3.114v.571c0,2.342,1.431,3.228,2.862,3.228h5.008c.516,0,.945.086.945.971v1.028c0,.8-.4.971-.973.971h-6.611l-1.345,2.114h8.1c1.946,0,3.293-.971,3.293-3.2v-.828a2.864,2.864,0,0,0-3.148-3.2h-4.779c-.544,0-.887-.143-.887-.942v-.829c0-.657.258-.914.859-.914h6.3l1.314-2.057-8.013-.029" transform="translate(-392.787 -405.623)" fill="#fff"/>
        <path id="A" d="M374.185,405.623l-5.695,11.97h2.69l1.116-2.457h6.182l1.116,2.457h2.69l-5.724-11.97Zm1.174,2.485,2.175,4.971h-4.35l2.175-4.971" transform="translate(-343.144 -405.623)" fill="#fff"/>
      </g>
    </g>
  </g>
</svg>
