<svg xmlns="http://www.w3.org/2000/svg" width="120" height="18" viewBox="0 0 120 18">
  <g id="Bank_-_Citi_Bank" data-name="Bank - Citi Bank" transform="translate(17821 3791)">
    <rect id="Rectangle_64030" data-name="Rectangle 64030" width="120" height="18" transform="translate(-17821 -3791)" fill="#aaa" opacity="0"/>
    <g id="layer1" transform="translate(-17821 -3791)">
      <g id="g4940">
        <path id="path1274" d="M265.445,674.574l-.048.047a3.6,3.6,0,0,1-2.577,1.212,3.46,3.46,0,0,1,0-6.913,3.6,3.6,0,0,1,2.577,1.217l.048.048,1.232-1.506-.033-.041a4.679,4.679,0,0,0-3.763-1.819,5.675,5.675,0,0,0-3.9,1.446,5.931,5.931,0,0,0,0,8.225,5.656,5.656,0,0,0,3.9,1.448,4.678,4.678,0,0,0,3.763-1.82l.033-.038Z" transform="translate(-257.322 -660.533)" fill="#0091b8"/>
        <path id="path1276" d="M304.719,678.331h2.175v-10.74h-2.175v10.74Z" transform="translate(-294.12 -661.131)" fill="#0091b8"/>
        <path id="path1278" d="M329.647,664.594a3.128,3.128,0,0,1-1.605.537c-.7,0-1.021-.375-1.021-1.211v-5.7h2.216V656.2h-2.216v-3.342l-2.132,1.154V656.2H323.05v2.023h1.839v6.062a2.521,2.521,0,0,0,2.411,2.809,3.4,3.4,0,0,0,1.931-.492l.021-.016.524-2.071-.129.079Z" transform="translate(-308.353 -649.729)" fill="#0091b8"/>
        <path id="path1280" d="M360.611,678.331h2.177v-10.74h-2.177v10.74Z" transform="translate(-337.515 -661.131)" fill="#0091b8"/>
        <path id="path1282" d="M415.059,649.521v10.245l.678-1.067s3.044-4.455,3.435-5.023h1.357c-.289.393-2.683,3.725-2.683,3.725s3.118,6.572,3.3,6.947h-1.333c-.073-.153-2.752-5.89-2.752-5.89l-2,2.834v3.055h-1.241V650.238c.109-.063.949-.551,1.241-.717Zm-10.2,5.427a3.281,3.281,0,0,1,2.818-1.5c2.341,0,3.581,1.51,3.581,4.367v6.535h-1.245v-6.264c0-2.431-.834-3.56-2.643-3.56-1.73,0-2.764,1.331-2.764,3.56v6.264h-1.241V653.676h1.241v1.655Zm-7.631-1.5c2.409,0,3.58,1.114,3.58,3.406v7.5h-1.242V662.79l-.242.27a4.146,4.146,0,0,1-3.211,1.518,3.026,3.026,0,0,1-3.256-3.366c0-2.483,2.027-3.365,3.926-3.365a5.4,5.4,0,0,1,2.578.61l.2.115V657.04c0-1.7-.82-2.559-2.441-2.559a5.524,5.524,0,0,0-2.827.782c-.082-.19-.368-.831-.448-1.014a7.287,7.287,0,0,1,3.378-.8Zm-3.153,7.662a2.158,2.158,0,0,0,2.3,2.474,3.822,3.822,0,0,0,3.166-1.7l.023-.038V659.5l-.069-.04a5.206,5.206,0,0,0-2.8-.641C395.059,658.821,394.076,659.676,394.076,661.108Zm-9.587-11.587v5.709l.24-.267a4.032,4.032,0,0,1,3.09-1.517c2.329,0,3.665,1.963,3.665,5.387,0,3.49-1.518,5.746-3.868,5.746a3.6,3.6,0,0,1-2.886-1.413l-.242-.285v1.467H383.25V650.238c.105-.063.948-.551,1.239-.717Zm.03,6.638-.03.04v5.555l.022.034A3.571,3.571,0,0,0,387.5,663.5c1.834,0,2.764-1.563,2.764-4.646,0-2.753-1.03-4.331-2.826-4.331a3.688,3.688,0,0,0-2.919,1.636" transform="translate(-355.091 -647.147)" fill="#006898"/>
        <path id="path1284" d="M315.676,643.579a10.512,10.512,0,0,0-17.321,0l-.1.147h2.507l.028-.031a8.481,8.481,0,0,1,12.454,0l.028.031h2.507Z" transform="translate(-289.1 -639.025)" fill="#e65041"/>
      </g>
    </g>
  </g>
</svg>
