<svg xmlns="http://www.w3.org/2000/svg" width="120" height="18" viewBox="0 0 120 18">
  <g id="Bank_-_Fifth_Third" data-name="Bank - Fifth Third" transform="translate(17821 3763)">
    <rect id="Rectangle_64031" data-name="Rectangle 64031" width="120" height="18" transform="translate(-17821 -3763)" fill="#aaa" opacity="0"/>
    <g id="Group_80748" data-name="Group 80748" transform="translate(-18074.771 -4556.536)">
      <g id="Group_8202" data-name="Group 8202" transform="translate(253.774 797.191)">
        <path id="Subtraction_110" data-name="Subtraction 110" d="M11.956,10.672H3.178A3.187,3.187,0,0,1,0,7.493V0H8.774a3.189,3.189,0,0,1,3.182,3.189v7.482ZM.566.57h0V7.493A2.611,2.611,0,0,0,3.171,10.1h8.214V3.178A2.608,2.608,0,0,0,8.784.57Z" transform="translate(0 0)" fill="#5d79cc"/>
      </g>
      <g id="Group_8204" data-name="Group 8204" transform="translate(269.226 797.199)">
        <g id="Group_8203" data-name="Group 8203" transform="translate(0)">
          <path id="Path_7289" data-name="Path 7289" d="M332.065,802.486c0,1.1-1.06,1.421-2.273,1.421h-3.144v2.981c1.093.189,1.589.651,1.589.942v.069h-3.725v-9.643c-.65-.223-1.144-.667-1.144-.977v-.05h9.774v2.688h-.069c-.307,0-.768-.5-.974-1.164h-5.451v3.614h5.417Z" transform="translate(-323.367 -797.228)" fill="#e5e5e5"/>
          <path id="Path_7290" data-name="Path 7290" d="M374.633,813.7h-3.861v-.087c0-.291.41-.77.957-.941v-6.954c-.546-.171-.957-.651-.957-.942v-.085h3.861v.085c0,.292-.409.771-.956.942v6.954c.547.172.956.651.956.941Z" transform="translate(-360.246 -803.031)" fill="#e5e5e5"/>
          <path id="Path_7291" data-name="Path 7291" d="M401.172,809.111c0,.958-.923,1.336-1.983,1.336h-2.58v2.226c.785.137,1.486.651,1.486.941v.087h-3.434v-7.982c-.547-.171-.957-.651-.957-.942v-.085h8.373v2.432h-.085c-.29,0-.769-.412-.94-.959H396.61v2.81h4.562Z" transform="translate(-378.087 -803.031)" fill="#e5e5e5"/>
          <path id="Path_7292" data-name="Path 7292" d="M443.084,804.692v2.432H443c-.291,0-.769-.412-.94-.959h-2.2v6.508c.718.172,1.3.651,1.3.941v.087h-4.546v-.087c0-.291.582-.77,1.3-.941v-6.508h-2.337c-.171.547-.65.959-.94.959h-.085v-2.432Z" transform="translate(-409.864 -803.031)" fill="#e5e5e5"/>
          <path id="Path_7293" data-name="Path 7293" d="M479.006,808.391a12.236,12.236,0,0,1,2.734-.256,14.326,14.326,0,0,1,2.769.256v-2.672c-.547-.171-.957-.651-.957-.942v-.085h3.862v.085c0,.292-.411.771-.957.942v6.954c.546.172.957.651.957.941v.087h-2.9v-3.666a14.316,14.316,0,0,0-2.769-.257,12.212,12.212,0,0,0-2.734.257v2.638c.547.172.957.651.957.941v.087h-2.905v-7.982c-.547-.171-.956-.651-.956-.942v-.085h3.862v.085c0,.292-.411.771-.957.942Z" transform="translate(-442.188 -803.031)" fill="#e5e5e5"/>
          <path id="Path_7294" data-name="Path 7294" d="M570.776,797.228v2.688h-.034c-.325,0-.786-.5-1.009-1.164H566.47v8.136c.632.189,1.144.667,1.144.977v.034h-4.442v-.034c0-.31.478-.788,1.145-.977v-8.136H561.07c-.2.668-.649,1.164-.974,1.164h-.051v-2.688Z" transform="translate(-507.491 -797.228)" fill="#e5e5e5"/>
          <path id="Path_7295" data-name="Path 7295" d="M613.663,808.391a12.215,12.215,0,0,1,2.734-.256,14.325,14.325,0,0,1,2.768.256v-2.672c-.546-.171-.957-.651-.957-.942v-.085h3.862v.085c0,.292-.41.771-.957.942v6.954c.547.172.957.651.957.941v.087h-2.905v-3.666a14.315,14.315,0,0,0-2.768-.257,12.191,12.191,0,0,0-2.734.257v2.638c.547.172.956.651.956.941v.087h-2.9v-7.982c-.547-.171-.957-.651-.957-.942v-.085h3.862v.085c0,.292-.41.771-.956.942Z" transform="translate(-546.944 -803.031)" fill="#e5e5e5"/>
          <path id="Path_7296" data-name="Path 7296" d="M671.426,813.7h-3.862v-.087c0-.291.41-.77.957-.941v-6.954c-.547-.171-.957-.651-.957-.942v-.085h3.862v.085c0,.292-.411.771-.958.942v6.954c.548.172.958.651.958.941Z" transform="translate(-591.136 -803.031)" fill="#e5e5e5"/>
          <path id="Path_7297" data-name="Path 7297" d="M694.681,813.7h-2.905v-7.982c-.545-.171-.956-.651-.956-.942v-.085h6.3c2.188,0,3.623.718,3.623,2.671,0,1.507-.956,2.262-2.46,2.536l1.915,2.774c.477.069,1.11.565,1.11.941v.087h-2.718l-2.427-3.666h-2.443v2.638c.547.172.957.651.957.941Zm2.17-5c1.642,0,1.949-.531,1.949-1.267s-.308-1.268-1.949-1.268h-3.127V808.7Z" transform="translate(-609.228 -803.031)" fill="#e5e5e5"/>
          <path id="Path_7298" data-name="Path 7298" d="M743.663,805.719c-.547-.171-.956-.651-.956-.942v-.085h6.237a4.505,4.505,0,0,1,0,9.009h-5.281Zm4.6,6.51c2.135,0,3.177-.652,3.177-3.033s-1.042-3.031-3.177-3.031h-2.65v6.064Z" transform="translate(-649.594 -803.031)" fill="#e5e5e5"/>
        </g>
      </g>
      <path id="Path_50593" data-name="Path 50593" d="M265.445,805.713l-.025,1.523-2.9,0v-1.532Zm.192,3.89a.989.989,0,0,0,.146-.891,1.329,1.329,0,0,0-.508-.732,1.412,1.412,0,0,0-.708-.288l-2.044,0a1.653,1.653,0,0,1,1.066,1.04c.217,1.047-.982,1.246-.982,1.246h2.241A1.184,1.184,0,0,0,265.637,809.6Zm3.955.412a1.312,1.312,0,0,0,.771-.416.932.932,0,0,0,.184-.83,1.213,1.213,0,0,0-.472-.675,1.171,1.171,0,0,0-.679-.241l-1.9,0a1.479,1.479,0,0,1,.971.969s.3.944-.942,1.192c0,0-.017,0,0,0a1.923,1.923,0,0,1,.648.436,1.278,1.278,0,0,1,.289.552c.2.975-.97,1.215-.97,1.215l1.859,0a1.255,1.255,0,0,0,.992-.419.961.961,0,0,0,.241-.8,1.112,1.112,0,0,0-.376-.635,2.629,2.629,0,0,0-.61-.349C269.587,810.013,269.592,810.015,269.592,810.015Zm-3.654,2.336,1.8-6.815-.426-.014-1.8,6.83Z" transform="translate(-6.805 -6.477)" fill="#fff"/>
    </g>
  </g>
</svg>
