<svg viewBox="0 0 18 18" fill="none" xmlns="http://www.w3.org/2000/svg">
<rect width="18" height="18" rx="1" fill="white" fill-opacity="0.7"/>
<path d="M6.72061 13.7223L2.83172 9.83345C2.7667 9.76845 2.71512 9.69127 2.67992 9.60633C2.64473 9.52139 2.62662 9.43034 2.62662 9.3384C2.62662 9.24645 2.64473 9.15541 2.67992 9.07047C2.71512 8.98552 2.7667 8.90835 2.83172 8.84334L3.82339 7.85479C3.88839 7.78976 3.96557 7.73818 4.05051 7.70299C4.13546 7.66779 4.2265 7.64968 4.31845 7.64968C4.41039 7.64968 4.50143 7.66779 4.58638 7.70299C4.67132 7.73818 4.7485 7.78976 4.8135 7.85479L7.21528 10.2566L13.1847 4.28323C13.2497 4.21821 13.3269 4.16662 13.4118 4.13143C13.4968 4.09624 13.5878 4.07812 13.6798 4.07812C13.7717 4.07812 13.8628 4.09624 13.9477 4.13143C14.0327 4.16662 14.1098 4.21821 14.1748 4.28323L15.1649 5.27334C15.23 5.33835 15.2816 5.41552 15.3167 5.50047C15.3519 5.58541 15.3701 5.67645 15.3701 5.7684C15.3701 5.86034 15.3519 5.95139 15.3167 6.03633C15.2816 6.12127 15.23 6.19845 15.1649 6.26345L7.71072 13.7192C7.64572 13.7843 7.56854 13.8358 7.4836 13.871C7.39866 13.9062 7.30761 13.9243 7.21567 13.9243C7.12372 13.9243 7.03268 13.9062 6.94774 13.871C6.86279 13.8358 6.78562 13.7843 6.72061 13.7192V13.7223Z" fill="#1D1D1D"/>
</svg>
