<svg viewBox="0 0 18 18" fill="none" xmlns="http://www.w3.org/2000/svg">
<rect width="18" height="18" rx="1" fill="white" fill-opacity="0.7"/>
<path d="M10.8572 9.0001L13.6428 6.21429C13.807 6.05005 13.8992 5.82731 13.8992 5.59505C13.8992 5.3628 13.807 5.14005 13.6428 4.97581L13.0236 4.35657C12.8593 4.19235 12.6366 4.1001 12.4044 4.1001C12.1721 4.1001 11.9494 4.19235 11.7852 4.35657L9.0004 7.14237L6.21403 4.35657C6.04981 4.19235 5.82708 4.1001 5.59484 4.1001C5.3626 4.1001 5.13988 4.19235 4.97565 4.35657L4.35646 4.97581C4.19225 5.14005 4.10001 5.3628 4.10001 5.59505C4.10001 5.82731 4.19225 6.05005 4.35646 6.21429L7.14203 9.0001L4.35725 11.7859C4.19304 11.9501 4.1008 12.1729 4.1008 12.4051C4.1008 12.6374 4.19304 12.8601 4.35725 13.0244L4.97644 13.6436C5.14067 13.8078 5.3634 13.9001 5.59563 13.9001C5.82787 13.9001 6.0506 13.8078 6.21483 13.6436L9.0004 10.8578L11.786 13.6436C11.9502 13.8078 12.1729 13.9001 12.4052 13.9001C12.6374 13.9001 12.8601 13.8078 13.0244 13.6436L13.6436 13.0244C13.8078 12.8601 13.9 12.6374 13.9 12.4051C13.9 12.1729 13.8078 11.9501 13.6436 11.7859L10.8572 9.0001Z" fill="#1D1D1D"/>
</svg>
