<svg width="26" height="26" viewBox="0 0 26 26" fill="none" xmlns="http://www.w3.org/2000/svg">
<path d="M20.8841 18.91L19.1235 17.1515C19.0525 17.0806 18.9681 17.0245 18.8752 16.9865C18.7823 16.9484 18.6828 16.9292 18.5824 16.9299H18.0783C19.1366 15.6234 19.7125 13.9925 19.7091 12.3116C19.7118 10.6346 19.1445 9.00641 18.1 7.69385C17.0555 6.3813 15.5958 5.46223 13.9602 5.08725C12.3246 4.71228 10.61 4.90366 9.09743 5.63001C7.58488 6.35636 6.36409 7.57461 5.63512 9.08511C4.90614 10.5956 4.71223 12.3088 5.08515 13.9438C5.45807 15.5789 6.37571 17.0388 7.68768 18.0845C8.99965 19.1301 10.6281 19.6994 12.3063 19.699C13.9844 19.6986 15.6126 19.1286 16.9241 18.0823V18.5729C16.9233 18.6729 16.9425 18.7721 16.9806 18.8646C17.0187 18.9571 17.0749 19.0411 17.1458 19.1117L18.9074 20.8797C19.0502 21.0208 19.2429 21.0999 19.4438 21.0999C19.6446 21.0999 19.8373 21.0208 19.9801 20.8797L20.8813 19.9924C21.0215 19.8478 21.1 19.6544 21.1 19.4531C21.1 19.2517 21.0215 19.0583 20.8813 18.9138M12.3055 17.1695C11.345 17.1669 10.4069 16.8799 9.60953 16.3447C8.81219 15.8096 8.19143 15.0503 7.82565 14.1628C7.45986 13.2753 7.36547 12.2994 7.55438 11.3584C7.7433 10.4173 8.20705 9.55327 8.88707 8.87543C9.56708 8.19759 10.4329 7.73634 11.375 7.54994C12.3172 7.36353 13.2936 7.46033 14.1807 7.82811C15.0679 8.1959 15.8261 8.81816 16.3596 9.61631C16.893 10.4145 17.1779 11.3527 17.1781 12.3125C17.1778 12.9513 17.0515 13.5838 16.8064 14.1738C16.5613 14.7637 16.2022 15.2996 15.7496 15.7507C15.297 16.2018 14.7599 16.5593 14.1689 16.8028C13.5779 17.0462 12.9447 17.1708 12.3055 17.1695Z" fill="#919191"/>
</svg>
