<svg xmlns="http://www.w3.org/2000/svg" width="18" height="18.097" viewBox="0 0 18 18.097">
  <g id="Group_78875" data-name="Group 78875" transform="translate(-1980 -1103.903)">
    <rect id="Rectangle_63591" data-name="Rectangle 63591" width="18" height="18" transform="translate(1980 1104)" fill="#aaa" opacity="0"/>
    <path id="Path_37063" data-name="Path 37063" d="M15.8,15.043H2.2a.516.516,0,0,0-.52.52v1.01a.525.525,0,0,0,.52.53H15.8a.525.525,0,0,0,.52-.53v-1.01a.516.516,0,0,0-.52-.52M5.98,6.353h-.5v1.53h.44a.9.9,0,0,0,.6-.18.786.786,0,0,0,.21-.62.653.653,0,0,0-.75-.73m0,0h-.5v1.53h.44a.9.9,0,0,0,.6-.18.786.786,0,0,0,.21-.62.653.653,0,0,0-.75-.73m9.26.29a6.255,6.255,0,1,0-12.51.03v7.32H15.27Zm-7.23,4.24H6.85a.556.556,0,0,1-.11-.26c-.01-.09-.02-.2-.03-.3L6.68,9.3a.864.864,0,0,0-.15-.49.591.591,0,0,0-.48-.18H5.48v2.25H4.4V5.553H6.39a1.53,1.53,0,0,1,1.04.34,1.348,1.348,0,0,1,.37,1.04,1.6,1.6,0,0,1-.21.87,1.031,1.031,0,0,1-.67.44v.02a.926.926,0,0,1,.58.26,1.052,1.052,0,0,1,.24.64c.01.1.01.21.02.33s.01.25.01.39c.01.28.03.5.05.65a.43.43,0,0,0,.19.31Zm1.66,0H8.6V5.553H9.67Zm4.02-3.01a1.385,1.385,0,0,1-.34.5,1.555,1.555,0,0,1-.54.29,2.454,2.454,0,0,1-.69.09h-.57v2.13H10.47V5.553h1.88a1.538,1.538,0,0,1,.69.14,1.375,1.375,0,0,1,.45.36,1.325,1.325,0,0,1,.25.52,2.247,2.247,0,0,1,.07.58,2.013,2.013,0,0,1-.12.72m-1.7-1.52h-.44v1.61h.47a.7.7,0,0,0,.52-.19.818.818,0,0,0,.2-.6,1,1,0,0,0-.17-.62.753.753,0,0,0-.58-.2m-6.01,0h-.5v1.53h.44a.9.9,0,0,0,.6-.18.786.786,0,0,0,.21-.62.653.653,0,0,0-.75-.73m0,0h-.5v1.53h.44a.9.9,0,0,0,.6-.18.786.786,0,0,0,.21-.62.653.653,0,0,0-.75-.73m0,0h-.5v1.53h.44a.9.9,0,0,0,.6-.18.786.786,0,0,0,.21-.62.653.653,0,0,0-.75-.73" transform="translate(1980 1104)" fill="#aaa" stroke="rgba(0,0,0,0)" stroke-width="1"/>
  </g>
</svg>
