<svg xmlns="http://www.w3.org/2000/svg" width="28" height="28" viewBox="0 0 28 28">
  <rect id="Rectangle_79502" data-name="Rectangle 79502" width="28" height="28" rx="2" fill="#fff" opacity="0"/>
  <g id="Info" transform="translate(-1059 -425)">
    <rect id="Rectangle_62571" data-name="Rectangle 62571" width="18" height="18" transform="translate(1064 430)" fill="#aaa" opacity="0"/>
    <path id="Path_24500" data-name="Path 24500" d="M8.55,0A8.55,8.55,0,1,0,17.1,8.55,8.55,8.55,0,0,0,8.55,0Zm1.78,13.251q-.66.261-1.053.4a2.778,2.778,0,0,1-.913.137,1.821,1.821,0,0,1-1.243-.39,1.259,1.259,0,0,1-.442-.989,3.594,3.594,0,0,1,.033-.477c.022-.162.058-.345.106-.549l.551-1.946c.048-.187.09-.364.124-.529a2.346,2.346,0,0,0,.049-.458.706.706,0,0,0-.153-.519A.872.872,0,0,0,6.8,7.781a1.544,1.544,0,0,0-.438.065c-.148.046-.277.087-.383.127l.145-.6Q6.664,7.154,7.158,7a3.058,3.058,0,0,1,.934-.158,1.787,1.787,0,0,1,1.225.384,1.275,1.275,0,0,1,.43,1q0,.127-.03.447a2.988,2.988,0,0,1-.11.587l-.548,1.94c-.045.156-.085.334-.121.533a2.817,2.817,0,0,0-.053.453.651.651,0,0,0,.173.527.968.968,0,0,0,.6.14,1.736,1.736,0,0,0,.453-.07,2.576,2.576,0,0,0,.366-.123Zm-.1-7.874a1.308,1.308,0,0,1-.923.356,1.321,1.321,0,0,1-.926-.356A1.137,1.137,0,0,1,8,4.514a1.148,1.148,0,0,1,.386-.866,1.312,1.312,0,0,1,.926-.36,1.3,1.3,0,0,1,.923.36,1.166,1.166,0,0,1,0,1.729Z" transform="translate(1064.45 430.45)" fill="#aaa"/>
  </g>
</svg>