<svg xmlns="http://www.w3.org/2000/svg" width="18" height="18" viewBox="0 0 18 18">
    <g id="Group_99347" data-name="Group 99347" transform="translate(-641 -339)">
      <path id="Union_676" data-name="Union 676" d="M.9,16.2H.877A.879.879,0,0,1,0,15.3V.9A.9.9,0,0,1,.9,0h8.41V4.182a.679.679,0,0,0,.693.68h4.17V15.3a.9.9,0,0,1-.906.9ZM10.629,4.062a.507.507,0,0,1-.5-.512V.012h.184a.747.747,0,0,1,.545.218l3.1,3.1a.752.752,0,0,1,.225.531v.2Z" transform="translate(642.912 339.9)" fill="#AAAAAA" stroke="rgba(0,0,0,0)" stroke-width="1"/>
      <rect id="Rectangle_55038" data-name="Rectangle 55038" width="18" height="18" transform="translate(641 339)" fill="none"/>
    </g>
</svg>  