<svg xmlns="http://www.w3.org/2000/svg" width="18" height="18" viewBox="0 0 18 18">
  <g id="Drag" transform="translate(-935.139 -1357)" opacity="0.7">
    <rect id="Rectangle_63459" data-name="Rectangle 63459" width="18" height="18" rx="2" transform="translate(935.139 1357)" fill="#f27b8e" opacity="0"/>
    <path id="grip-vertical" d="M3,0H1A1,1,0,0,0,0,1V3A1,1,0,0,0,1,4H3A1,1,0,0,0,4,3V1A1,1,0,0,0,3,0ZM3,5H1A1,1,0,0,0,0,6V8A1,1,0,0,0,1,9H3A1,1,0,0,0,4,8V6A1,1,0,0,0,3,5Zm0,5H1a1,1,0,0,0-1,1v2a1,1,0,0,0,1,1H3a1,1,0,0,0,1-1V11A1,1,0,0,0,3,10ZM9,0H7A1,1,0,0,0,6,1V3A1,1,0,0,0,7,4H9a1,1,0,0,0,1-1V1A1,1,0,0,0,9,0ZM9,5H7A1,1,0,0,0,6,6V8A1,1,0,0,0,7,9H9a1,1,0,0,0,1-1V6A1,1,0,0,0,9,5Zm0,5H7a1,1,0,0,0-1,1v2a1,1,0,0,0,1,1H9a1,1,0,0,0,1-1V11A1,1,0,0,0,9,10Z" transform="translate(951.139 1361) rotate(90)" fill="#f27b8e" stroke="rgba(0,0,0,0)" stroke-width="1"/>
  </g>
</svg>