<svg xmlns="http://www.w3.org/2000/svg" width="18" height="18" viewBox="0 0 18 18">
  <g id="Hidden" transform="translate(-836 -700)">
    <rect id="Rectangle_73495" data-name="Rectangle 73495" width="18" height="18" transform="translate(836 700)" fill="#919191" opacity="0"/>
    <path id="Union_824" data-name="Union 824" d="M8.229,9.364a.7.7,0,0,1-.7-.7V7.405a.7.7,0,0,1,.7-.7h.6a.7.7,0,0,1,.7.7V8.663a.7.7,0,0,1-.7.7Zm-3.7-.65-.557-.2a.7.7,0,0,1-.417-.9L3.98,6.428a.7.7,0,0,1,.9-.422l.565.206a.7.7,0,0,1,.417.9L5.429,8.294a.71.71,0,0,1-.663.462A.679.679,0,0,1,4.525,8.714Zm7.112-.424-.429-1.18a.7.7,0,0,1,.417-.9l.56-.2a.7.7,0,0,1,.9.417l.432,1.185a.7.7,0,0,1-.419.9l-.565.2a.725.725,0,0,1-.239.043A.7.7,0,0,1,11.637,8.289ZM.708,6.632.254,6.245a.688.688,0,0,1-.088-.982l.806-.972a.708.708,0,0,1,.987-.085l.462.387a.7.7,0,0,1,.085.982L1.7,6.546a.691.691,0,0,1-.535.246A.7.7,0,0,1,.708,6.632Zm14.655-.1-.809-.964a.7.7,0,0,1,.085-.984L15.1,4.2a.706.706,0,0,1,.989.088l.8.964a.692.692,0,0,1-.085.987l-.455.382a.7.7,0,0,1-.989-.085ZM4.719,4.63a8.84,8.84,0,0,1-3.41-3A.707.707,0,0,1,1.562.608L2.531.085a.69.69,0,0,1,.9.2A6.144,6.144,0,0,0,5.816,2.383a6.169,6.169,0,0,0,2.7.63A6.17,6.17,0,0,0,13.641.3.674.674,0,0,1,14.53.085L15.5.608a.7.7,0,0,1,.246,1.02A8.632,8.632,0,0,1,8.518,5.514,8.635,8.635,0,0,1,4.719,4.63Z" transform="translate(836.469 704.949)" fill="#919191"/>
  </g>
</svg>