<svg xmlns="http://www.w3.org/2000/svg" width="28" height="28" viewBox="0 0 28 28">
  <rect id="Rectangle_79499" data-name="Rectangle 79499" width="28" height="28" rx="2" fill="#fff" opacity="0"/>
  <g id="Routing_-_Stop_Picker" data-name="Routing - Stop Picker" transform="translate(-1 -1)">
    <rect id="Rectangle_6258" data-name="Rectangle 6258" width="18" height="18" transform="translate(6 6)" fill="#aaa" opacity="0"/>
    <path id="hand-point-up" d="M4.133,0A1.4,1.4,0,0,1,5.468,1.417V4.577a1.461,1.461,0,0,1,2.162.2,1.368,1.368,0,0,1,1.9.52c1.5-.284,2.171.694,2.171,2.3,0,.087-.006.42-.006.506.005,1.961-.947,2.433-1.167,3.915a.739.739,0,0,1-.722.641H4.578a1.461,1.461,0,0,1-1.336-.9c-.4-.914-1.494-3.019-2.356-3.4A1.345,1.345,0,0,1,0,7.087a1.469,1.469,0,0,1,2.039-1.4,4.1,4.1,0,0,1,.759.448V1.417A1.425,1.425,0,0,1,4.133,0Zm.011,13.162h5.85a.746.746,0,0,1,.731.759v1.519a.746.746,0,0,1-.731.759H4.144a.746.746,0,0,1-.731-.759V13.922A.746.746,0,0,1,4.144,13.162Zm5.119.886a.633.633,0,1,0,.609.633A.621.621,0,0,0,9.262,14.048Z" transform="translate(9.15 6.9)" fill="#aaa"/>
  </g>
</svg>