<svg xmlns="http://www.w3.org/2000/svg" width="18" height="18" viewBox="0 0 18 18">
  <g id="Routing_-_Reverse" data-name="Routing - Reverse" transform="translate(-641 -283)">
    <rect id="Rectangle_55036" data-name="Rectangle 55036" width="18" height="18" transform="translate(641 283)" fill="#aaa" opacity="0"/>
    <path id="Union_675" data-name="Union 675" d="M3.361,15.941.254,12.827a.872.872,0,0,1,0-1.224L3.361,8.492A.873.873,0,0,1,4.85,9.1v1.671h7.875a.576.576,0,0,0,.576-.578V9.517a.327.327,0,0,1,.133-.284L15.6,7.146a.353.353,0,0,1,.6.253v2.795a3.481,3.481,0,0,1-3.475,3.476H4.85v1.654a.872.872,0,0,1-.879.877A.848.848,0,0,1,3.361,15.941ZM0,8.794V6a3.477,3.477,0,0,1,3.475-3.47H11.35V.872A.877.877,0,0,1,12.84.253l3.107,3.115a.884.884,0,0,1,0,1.23L12.84,7.7a.871.871,0,0,1-1.49-.606V5.428H3.475A.572.572,0,0,0,2.9,6v.683a.328.328,0,0,1-.133.281L.6,9.048a.347.347,0,0,1-.246.1A.354.354,0,0,1,0,8.794Z" transform="translate(641.9 283.9)" fill="#aaa" stroke="rgba(0,0,0,0)" stroke-width="1"/>
  </g>
</svg>