<svg xmlns="http://www.w3.org/2000/svg" width="28" height="28" viewBox="0 0 28 28">
  <rect id="Rectangle_79503" data-name="Rectangle 79503" width="28" height="28" rx="2" fill="#fff" opacity="0"/>
  <g id="Settings" transform="translate(-87 -961)">
    <rect id="Rectangle_52469" data-name="Rectangle 52469" width="18" height="18" transform="translate(92 966)" fill="none"/>
    <path id="Path_35325" data-name="Path 35325" d="M3.141,2.135,2.085,3.2a1.016,1.016,0,0,0,.005,1.436L2.7,5.24a7.327,7.327,0,0,0-.83,2.025H1.011A1.011,1.011,0,0,0,0,8.279l.005,1.5a1.018,1.018,0,0,0,1.018,1.014h.862a7.269,7.269,0,0,0,.846,2.021l-.607.61a1.014,1.014,0,0,0,.005,1.435L3.2,15.916A1.015,1.015,0,0,0,4.63,15.91l.607-.613a7.3,7.3,0,0,0,2.025.831v.861A1.012,1.012,0,0,0,8.277,18l1.5-.006a1.019,1.019,0,0,0,1.014-1.019v-.861a7.323,7.323,0,0,0,2.021-.846l.611.607a1.015,1.015,0,0,0,1.435-.005L15.915,14.8a1.014,1.014,0,0,0-.006-1.435l-.61-.606a7.36,7.36,0,0,0,.83-2.029h.858A1.017,1.017,0,0,0,18,9.716l-.005-1.5a1.02,1.02,0,0,0-1.019-1.015h-.862a7.287,7.287,0,0,0-.847-2.018l.606-.611a1.016,1.016,0,0,0-.005-1.436L14.8,2.085a1.016,1.016,0,0,0-1.436.006l-.6.61a7.272,7.272,0,0,0-2.025-.83V1.013A1.015,1.015,0,0,0,9.718,0l-1.5.006A1.018,1.018,0,0,0,7.207,1.024v.862a7.3,7.3,0,0,0-2.02.845l-.609-.6a1.017,1.017,0,0,0-1.436.006M5.573,5.6a4.832,4.832,0,1,1,.029,6.83h0A4.829,4.829,0,0,1,5.572,5.6h0Z" transform="translate(92 966)" fill="#aaa"/>
    <path id="Path_35326" data-name="Path 35326" d="M9.145,6.951a2.8,2.8,0,1,1-2.2,2.2,2.8,2.8,0,0,1,2.2-2.2" transform="translate(91.31 965.31)" fill="#aaa"/>
  </g>
</svg>