<svg xmlns="http://www.w3.org/2000/svg" width="18" height="18" viewBox="0 0 18 18">
  <g id="Routing_-_Layers" data-name="Routing - Layers" transform="translate(-1450 -180)">
    <rect id="Rectangle_63461" data-name="Rectangle 63461" width="18" height="18" transform="translate(1450 180)" fill="#aaa" opacity="0"/>
    <path id="layer-group" d="M.39,4.676,7.761,8.02a.81.81,0,0,0,.674,0L15.8,4.676a.707.707,0,0,0,0-1.267L8.434.066a.81.81,0,0,0-.674,0L.39,3.409A.707.707,0,0,0,.39,4.676ZM15.8,7.469l-1.838-.833L8.852,8.955a1.824,1.824,0,0,1-1.51,0L2.229,6.636.39,7.469a.706.706,0,0,0,0,1.266l7.37,3.341a.813.813,0,0,0,.674,0L15.8,8.735A.706.706,0,0,0,15.8,7.469Zm0,4.044-1.831-.83L8.852,13a1.824,1.824,0,0,1-1.51,0L2.222,10.683l-1.831.83a.706.706,0,0,0,0,1.266l7.37,3.341a.813.813,0,0,0,.674,0L15.8,12.779A.706.706,0,0,0,15.8,11.513Z" transform="translate(1450.902 180.908)" fill="#aaa"/>
  </g>
</svg>