<svg xmlns="http://www.w3.org/2000/svg" width="28" height="28" viewBox="0 0 28 28">
  <rect id="Rectangle_79501" data-name="Rectangle 79501" width="28" height="28" rx="2" fill="#fff" opacity="0"/>
  <g id="Keyboard_Shortcuts" data-name="Keyboard Shortcuts" transform="translate(22745 10968)">
    <rect id="Rectangle_35939" data-name="Rectangle 35939" width="18" height="18" transform="translate(-22740 -10963)" fill="#aaa" opacity="0"/>
    <path id="Path_35486" data-name="Path 35486" d="M14.7,12.6H1.5A1.539,1.539,0,0,1,0,11.025V1.575A1.539,1.539,0,0,1,1.5,0H14.7a1.54,1.54,0,0,1,1.5,1.575v9.45A1.54,1.54,0,0,1,14.7,12.6M4,3.806V2.494A.383.383,0,0,0,3.625,2.1H2.376A.384.384,0,0,0,2,2.494V3.806a.384.384,0,0,0,.374.394H3.626A.383.383,0,0,0,4,3.806m3.4,0V2.494A.385.385,0,0,0,7.027,2.1H5.778a.384.384,0,0,0-.375.393V3.806a.384.384,0,0,0,.374.394H7.028A.384.384,0,0,0,7.4,3.807h0Zm3.394,0V2.494a.384.384,0,0,0-.375-.393H9.173a.386.386,0,0,0-.376.393V3.806a.386.386,0,0,0,.375.394h1.251a.384.384,0,0,0,.374-.394Zm3.4,0V2.494a.385.385,0,0,0-.375-.393H12.576a.384.384,0,0,0-.375.393V3.806a.384.384,0,0,0,.374.394h1.251a.384.384,0,0,0,.374-.394ZM5.5,6.956V5.644a.384.384,0,0,0-.375-.393H3.876a.384.384,0,0,0-.375.393h0V6.957a.384.384,0,0,0,.374.394H5.125A.384.384,0,0,0,5.5,6.958v0Zm3.6,0V5.644a.385.385,0,0,0-.374-.393H7.476a.385.385,0,0,0-.376.393h0V6.957a.383.383,0,0,0,.374.394H8.726A.383.383,0,0,0,9.1,6.957h0Zm3.6,0V5.644a.384.384,0,0,0-.375-.393H11.075a.384.384,0,0,0-.375.393h0V6.957a.384.384,0,0,0,.374.394h1.251a.384.384,0,0,0,.375-.393v0ZM4,10.106V8.794A.384.384,0,0,0,3.623,8.4H2.376A.384.384,0,0,0,2,8.794H2v1.312a.384.384,0,0,0,.374.394H3.626A.383.383,0,0,0,4,10.107H4Zm7.2,0V8.794a.384.384,0,0,0-.375-.393H5.376A.384.384,0,0,0,5,8.794H5v1.312a.384.384,0,0,0,.374.394h5.45a.384.384,0,0,0,.374-.394h0Zm3,0V8.794a.384.384,0,0,0-.375-.393H12.575a.384.384,0,0,0-.375.393h0v1.312a.384.384,0,0,0,.374.394h1.251a.384.384,0,0,0,.375-.393v0Z" transform="translate(-22739.1 -10960.3)" fill="#aaa"/>
  </g>
</svg>