<svg height="47.698" viewBox="0 0 138.342 47.698" width="138.342" xmlns="http://www.w3.org/2000/svg">
  <g data-name="Group 8059" id="Group_8059" transform="translate(430.545 -340.551)">
    <g data-name="Group 8056" id="Group_8056">
      <path
        d="M-346.257,356.1H-405.43v31.4h65.376V342.187l-5.858,13.682A.375.375,0,0,1-346.257,356.1Zm-37.787,27.761a.366.366,0,0,1-.395.331v.005H-400a.366.366,0,0,1-.395-.331v-5.984a.366.366,0,0,1,.395-.331h15.563a.366.366,0,0,1,.395.331Z"
        data-name="Path 7127"
        fill="#eee"
        id="Path_7127"/>
      <path d="M-333.481,355.869l-5.823-13.6V387.5h24.611V356.1h-18.444A.374.374,0,0,1-333.481,355.869Z"
            data-name="Path 7128"
            fill="#eee" id="Path_7128"/>
    </g>
    <g data-name="Group 8057" id="Group_8057">
      <path
        d="M-384.439,377.547H-400a.366.366,0,0,0-.395.331v5.984a.366.366,0,0,0,.395.331h15.563v-.005a.366.366,0,0,0,.395-.331v-5.979A.366.366,0,0,0-384.439,377.547Zm-8.27,5.012h-5.816a.228.228,0,0,1-.227-.228.227.227,0,0,1,.227-.227h5.816a.227.227,0,0,1,.227.227A.228.228,0,0,1-392.709,382.559Zm6.269-1.462h-12.085a.227.227,0,0,1-.227-.227.227.227,0,0,1,.227-.227h12.085a.227.227,0,0,1,.227.227A.227.227,0,0,1-386.44,381.1Zm0-1.462h-12.085a.227.227,0,0,1-.227-.227.227.227,0,0,1,.227-.227h12.085a.227.227,0,0,1,.227.227A.227.227,0,0,1-386.44,379.635Z"
        data-name="Path 7129"
        fill="#fff"
        id="Path_7129"/>
      <path d="M-406,341.3l-6.016,14.044H-346.5l6.014-14.044H-406Z" data-name="Path 7130" fill="#fff" id="Path_7130"/>
      <path d="M-314.318,341.88l-.248-.578H-338.9l6.014,14.044h24.338Z" data-name="Path 7131" fill="#fff"
            id="Path_7131"/>
    </g>
    <path d="M-333.481,355.869l-5.823-13.6V387.5h24.611V356.1h-18.444A.374.374,0,0,1-333.481,355.869Z"
          data-name="Path 7132"
          fill="none" id="Path_7132"/>
    <path d="M-346.257,356.1H-405.43v31.4h65.376V342.187l-5.858,13.682A.375.375,0,0,1-346.257,356.1Z"
          data-name="Path 7133"
          fill="none" id="Path_7133"/>
    <path d="M-340.49,341.3H-406l-6.016,14.044H-346.5Z" data-name="Path 7134" fill="none" id="Path_7134"/>
    <path d="M-314.318,341.88l-.248-.578H-338.9l6.014,14.044h24.338Z" data-name="Path 7135" fill="none" id="Path_7135"/>
    <path d="M-346.257,356.1H-405.43v31.4h65.376V342.187l-5.858,13.682A.375.375,0,0,1-346.257,356.1Z"
          data-name="Path 7136"
          fill="none" id="Path_7136"/>
    <path d="M-314.318,341.88l-.248-.578H-338.9l6.014,14.044h24.338Z" data-name="Path 7137" fill="none" id="Path_7137"/>
    <path d="M-333.481,355.869l-5.823-13.6V387.5h24.611V356.1h-18.444A.374.374,0,0,1-333.481,355.869Z"
          data-name="Path 7138"
          fill="none" id="Path_7138"/>
    <path d="M-340.49,341.3H-406l-6.016,14.044H-346.5Z" data-name="Path 7139" fill="none" id="Path_7139"/>
    <g data-name="Group 8058" id="Group_8058">
      <path
        d="M-386.44,379.181h-12.085a.227.227,0,0,0-.227.227.227.227,0,0,0,.227.227h12.085a.227.227,0,0,0,.227-.227A.227.227,0,0,0-386.44,379.181Z"
        data-name="Path 7140"
        fill="#aaa"
        id="Path_7140"/>
      <path
        d="M-386.44,380.643h-12.085a.227.227,0,0,0-.227.227.227.227,0,0,0,.227.227h12.085a.227.227,0,0,0,.227-.227A.227.227,0,0,0-386.44,380.643Z"
        data-name="Path 7141"
        fill="#aaa"
        id="Path_7141"/>
      <path
        d="M-392.709,382.1h-5.816a.227.227,0,0,0-.227.227.228.228,0,0,0,.227.228h5.816a.228.228,0,0,0,.227-.228A.227.227,0,0,0-392.709,382.1Z"
        data-name="Path 7142"
        fill="#aaa"
        id="Path_7142"/>
      <path
        d="M-292.578,387.5h-21.365V356.1h5.96a.375.375,0,0,0,.313-.168.375.375,0,0,0,.032-.354l-6.334-14.792a.384.384,0,0,0-.125-.152l-.034-.022a.364.364,0,0,0-.187-.057H-406.25a.375.375,0,0,0-.345.227l-6.337,14.8a.378.378,0,0,0,.032.354.375.375,0,0,0,.313.168h6.407v31.4h-23.99a.375.375,0,0,0-.375.375.375.375,0,0,0,.375.375h137.592a.375.375,0,0,0,.375-.375A.375.375,0,0,0-292.578,387.5ZM-405.8,355.346h-6.214L-406,341.3h65.512l-6.014,14.044Zm65.751,32.153H-405.43V356.1h59.173a.375.375,0,0,0,.345-.227l5.858-13.682Zm25.361,0H-339.3V342.272l5.823,13.6a.374.374,0,0,0,.344.227h18.444Zm-18.2-32.153L-338.9,341.3h24.338l.247.578,5.767,13.466h-24.338Z"
        data-name="Path 7143"
        fill="#aaa"
        id="Path_7143"/>
    </g>
  </g>
</svg>
