<svg height="37" viewBox="0 0 114.453 37" width="114.453"
     xmlns="http://www.w3.org/2000/svg">
  <defs>
    <clipPath id="clip-path">
      <rect data-name="Rectangle 3159" fill="none" height="37" id="Rectangle_3159" width="114.452"/>
    </clipPath>
  </defs>
  <g id="BOX" transform="translate(0 -5.399)">
    <path d="M0,33.853H0Z" data-name="Path 4256" fill="#ddd" id="Path_4256" transform="translate(0 8.068)"/>
    <g data-name="Group 5782" id="Group_5782" transform="translate(0 5.399)">
      <g clip-path="url(#clip-path)" data-name="Group 5781" id="Group_5781" transform="translate(0 0)">
        <line data-name="Line 1439" fill="none" id="Line_1439" stroke="#aaa" stroke-linejoin="round"
              stroke-width="0.75" transform="translate(0.001 36.595)" x2="114.452"/>
      </g>
    </g>
    <rect data-name="Rectangle 3160" fill="#eee" height="36.195" id="Rectangle_3160"
          transform="translate(23.131 5.802)" width="50.674"/>
    <g data-name="Group 5784" id="Group_5784" transform="translate(0 5.399)">
      <g clip-path="url(#clip-path)" data-name="Group 5783" id="Group_5783" transform="translate(0 0)">
        <rect data-name="Rectangle 3161" fill="none" height="36.189" id="Rectangle_3161"
              stroke="#aaa" stroke-linejoin="round" stroke-width="0.75" transform="translate(22.965 0.405)"
              width="51.132"/>
      </g>
    </g>
    <rect data-name="Rectangle 3163" fill="#eee" height="36.195" id="Rectangle_3163"
          transform="translate(74.233 5.802)" width="19.216"/>
    <g data-name="Group 5786" id="Group_5786" transform="translate(0 5.399)">
      <g clip-path="url(#clip-path)" data-name="Group 5785" id="Group_5785" transform="translate(0 0)">
        <rect data-name="Rectangle 3164" fill="none" height="36.189" id="Rectangle_3164"
              stroke="#aaa" stroke-linejoin="round" stroke-width="0.75" transform="translate(74.097 0.405)"
              width="19.39"/>
      </g>
    </g>
    <path d="M18.661.375h50.67l-4.84,11.3H13.82Z" data-name="Path 4257" fill="#fff"
          id="Path_4257" transform="translate(4.069 5.426)"/>
    <g data-name="Group 5788" id="Group_5788" transform="translate(0 5.399)">
      <g clip-path="url(#clip-path)" data-name="Group 5787" id="Group_5787" transform="translate(0 0)">
        <path d="M18.705.375H69.833l-4.883,11.4H13.82Z" data-name="Path 4258" fill="none"
              id="Path_4258" stroke="#aaa" stroke-linejoin="round" stroke-width="0.75"
              transform="translate(3.917 0.031)"/>
      </g>
    </g>
    <path d="M57.735.375l4.84,11.3H81.79L76.951.375Z" data-name="Path 4259" fill="#fff"
          id="Path_4259" transform="translate(16.724 5.426)"/>
    <g data-name="Group 5790" id="Group_5790" transform="translate(0 5.399)">
      <g clip-path="url(#clip-path)" data-name="Group 5789" id="Group_5789" transform="translate(0 0)">
        <path d="M57.735.375l4.883,11.4h19.39L77.124.375Z" data-name="Path 4260" fill="none"
              id="Path_4260" stroke="#aaa" stroke-linejoin="round" stroke-width="0.75"
              transform="translate(16.362 0.031)"/>
        <path
          d="M33.442,31.692h-12a.283.283,0,0,1-.3-.256V26.828a.283.283,0,0,1,.3-.256h12a.283.283,0,0,1,.3.256v4.608a.283.283,0,0,1-.3.256"
          data-name="Path 4261"
          fill="#f9f9f9"
          id="Path_4261" transform="translate(5.992 2.152)"/>
        <rect data-name="Rectangle 3167" fill="#b7b7b7" height="0.35" id="Rectangle_3167"
              transform="translate(28.4 29.807)" width="9.665"/>
        <rect data-name="Rectangle 3168" fill="#b7b7b7" height="0.349" id="Rectangle_3168"
              transform="translate(28.402 30.935)" width="9.665"/>
        <rect data-name="Rectangle 3169" fill="#b7b7b7" height="0.35" id="Rectangle_3169"
              transform="translate(28.4 31.966)" width="4.833"/>
      </g>
    </g>
  </g>
</svg>
