<svg height="1.201" viewBox="0 0 26.869 1.201" width="26.869" xmlns="http://www.w3.org/2000/svg">
  <g data-name="Line Up" id="Line_Up" transform="translate(-91.863 -100.559)">
    <path d="M114.175,100.559H98.295a.6.6,0,0,0,0,1.2h15.88a.6.6,0,0,0,0-1.2Z" data-name="Path 7085" fill="#b7b7b7"
          id="Path_7085"/>
    <path
      d="M96.33,100.74a.585.585,0,0,0-.65-.13.533.533,0,0,0-.2.13.641.641,0,0,0-.13.19.627.627,0,0,0,.13.65.6.6,0,0,0,.43.18.56.56,0,0,0,.42-.18.571.571,0,0,0,.13-.65A.5.5,0,0,0,96.33,100.74Z"
      data-name="Path 7086"
      fill="#b7b7b7"
      id="Path_7086"/>
    <path d="M118.132,100.56h-1.14a.6.6,0,0,0,0,1.2h1.14a.6.6,0,0,0,0-1.2Z" data-name="Path 7087" fill="#b7b7b7"
          id="Path_7087"/>
    <path d="M93.3,100.56h-.835a.6.6,0,0,0,0,1.2H93.3a.6.6,0,1,0,0-1.2Z" data-name="Path 7088" fill="#b7b7b7"
          id="Path_7088"/>
  </g>
</svg>
