<svg width="90" height="90" viewBox="0 0 90 90" fill="none" xmlns="http://www.w3.org/2000/svg">
<g opacity="0.4" clip-path="url(#clip0_8576_106430)">
<path d="M88.333 58.9421C87.183 61.2621 84.903 65.4421 82.223 67.5521C82.1132 67.6506 81.9962 67.7408 81.873 67.8221C79.943 69.2021 74.413 69.7021 67.093 69.5821H66.843C66.5249 69.2242 66.3136 68.7842 66.233 68.3121C64.9275 67.7286 63.513 67.4286 62.083 67.4321L59.323 67.2821C21.503 65.2221 9.15302 60.5521 8.00302 60.5521H7.80302C7.64272 60.5717 7.48706 60.6191 7.34302 60.6921C7.25992 60.7341 7.17282 60.7676 7.08302 60.7921C6.96968 60.8298 6.85212 60.8533 6.73302 60.8621C6.39566 60.9028 6.05346 60.8652 5.73302 60.7521L4.95302 60.4921C3.13302 59.8021 1.95302 59.1321 1.53302 58.4921C1.10718 57.8133 0.79318 57.0705 0.60302 56.2921C0.011429 53.6454 -0.157327 50.9216 0.103019 48.2221L0.163019 47.5021C0.466734 44.1677 0.991218 40.8571 1.73302 37.5921C1.76232 37.4712 1.81663 37.3578 1.89245 37.2592C1.96827 37.1606 2.06391 37.079 2.17321 37.0197C2.28251 36.9603 2.40303 36.9245 2.52701 36.9146C2.65099 36.9047 2.77568 36.9209 2.89302 36.9621L6.00302 36.3221C6.66924 36.3564 7.33679 36.3564 8.00302 36.3221C16.373 34.2721 49.923 36.4021 68.573 37.2521C71.383 37.3821 73.853 37.4821 75.853 37.5321C76.749 37.5607 77.6458 37.5105 78.533 37.3821C87.333 36.1421 88.773 30.2621 89.533 38.3821C90.003 42.5121 90.733 54.1421 88.333 58.9421Z" fill="#ED9292"/>
<path d="M89.0616 56.9672C89.0616 57.0772 88.9916 57.1872 88.9616 57.2972C88.9316 57.4072 88.8416 57.6872 88.7816 57.8672C88.6595 58.235 88.5091 58.5927 88.3316 58.9372C87.1816 61.2572 84.9016 65.4372 82.2216 67.5472C82.1117 67.6457 81.9947 67.7359 81.8716 67.8172C81.2128 68.2379 80.485 68.5392 79.7216 68.7072C77.0016 69.4172 72.5416 69.7072 67.0916 69.5772H66.8416C66.5234 69.2192 66.3121 68.7792 66.2316 68.3072C64.926 67.7237 63.5116 67.4237 62.0816 67.4272L59.3216 67.2772C21.5016 65.2172 9.15156 60.5472 8.00156 60.5472H7.80156C7.64126 60.5668 7.4856 60.6142 7.34156 60.6872C7.25846 60.7291 7.17136 60.7626 7.08156 60.7872C6.96822 60.8248 6.85067 60.8484 6.73156 60.8572C6.39421 60.8979 6.05201 60.8602 5.73156 60.7472L4.95156 60.4872C3.13156 59.7972 1.95156 59.1272 1.53156 58.4872C1.10572 57.8084 0.791723 57.0656 0.601562 56.2872C8.23156 57.7272 53.8616 65.0272 68.6016 37.2072C71.4116 37.3372 73.8816 37.4372 75.8816 37.4872C76.7776 37.5157 77.6743 37.4656 78.5616 37.3372C83.8316 36.5972 86.4616 34.1872 87.8916 34.1172C88.8916 34.1172 89.2816 35.0572 89.6116 38.2972C89.6069 38.3604 89.6069 38.4239 89.6116 38.4872C89.9316 42.3272 90.5216 51.5772 89.0616 56.9672Z" fill="#DF3C3C"/>
<path d="M87.1216 53.69C87.1216 53.69 72.6316 54.95 49.2916 53.69C32.8025 52.8244 16.378 50.998 0.101562 48.22C0.101563 47.98 0.101562 47.74 0.171563 47.5C4.71156 48.5 22.0016 51.93 51.1716 52.93C61.5216 53.29 73.3716 53.34 86.6816 52.87C86.6716 52.88 86.6716 53.69 87.1216 53.69Z" fill="#C20C0C"/>
<path d="M87.1191 53.6938C87.1191 53.6938 72.6291 54.9538 49.2891 53.6938C49.9191 53.4438 50.5391 53.1838 51.1591 52.9038C61.5091 53.2638 73.3591 53.3137 86.6691 52.8438C86.6691 52.8837 86.6691 53.6938 87.1191 53.6938Z" fill="#C20C0C"/>
<path d="M89.0602 56.9673C89.0602 57.0773 88.9902 57.1873 88.9602 57.2973C88.9302 57.4073 88.8402 57.6873 88.7802 57.8673C88.6581 58.2351 88.5077 58.5928 88.3302 58.9373C87.1802 61.2573 84.9002 65.4373 82.2202 67.5473C82.1103 67.6458 81.9933 67.736 81.8702 67.8173C81.2114 68.238 80.4836 68.5393 79.7202 68.7073L79.4502 68.6273C76.6602 67.6973 75.8502 60.8373 75.7302 56.6273C75.6823 51.9795 76.1079 47.3389 77.0002 42.7773C77.0002 42.7773 77.4002 39.1473 80.6302 38.7773C83.0502 36.3473 85.6302 36.2973 86.9102 35.0773C87.2602 34.7373 87.5602 34.4273 87.8002 34.1873C88.9902 32.9973 89.1002 33.1873 89.5202 38.3673C89.5155 38.4305 89.5155 38.494 89.5202 38.5573C89.8702 42.3273 90.5102 51.5773 89.0602 56.9673Z" fill="#C20C0C"/>
<path d="M88.9975 33.8293C88.9975 33.9493 88.7675 34.1093 88.3675 34.2993L79.0875 39.9593C76.9975 41.2193 77.8275 41.2193 73.7975 41.2193L66.4375 40.8493L1.90753 37.5293C1.50753 37.5293 2.09753 36.6693 3.11753 36.3193L13.5175 32.5893C14.1195 32.3846 14.7517 32.2832 15.3875 32.2893L67.5975 33.1593L87.5275 33.4993C88.4275 33.4993 88.9975 33.5893 88.9975 33.8293Z" fill="#F4BEBE"/>
<path d="M88.9981 33.8309C88.9981 33.9509 88.7681 34.1109 88.3681 34.3009L79.0881 39.9609C76.9981 41.2209 77.8281 41.2209 73.7981 41.2209L66.4381 40.8509C67.1481 40.6509 70.8481 39.5509 70.3281 37.4709C69.7581 35.1609 63.3281 36.3709 63.3281 36.3709C64.9288 35.5667 66.3825 34.4984 67.6281 33.2109L87.5581 33.5509C88.4281 33.5009 88.9981 33.5909 88.9981 33.8309Z" fill="#ED9292"/>
<path d="M73.6965 36.5625L71.7865 37.5625C71.3063 37.8153 70.7688 37.9393 70.2265 37.9225L16.4965 35.7225L13.0565 35.5825C12.9757 35.5775 12.8989 35.5454 12.8386 35.4914C12.7783 35.4374 12.7379 35.3647 12.7241 35.2849C12.7102 35.2052 12.7236 35.123 12.7622 35.0519C12.8007 34.9807 12.8621 34.9245 12.9365 34.8925L13.6065 34.5925C14.0429 34.3969 14.5185 34.3045 14.9965 34.3225H16.7665L70.6165 35.7525L73.6165 35.8325C73.6644 35.8273 73.7129 35.8315 73.7592 35.845C73.8055 35.8585 73.8487 35.881 73.8863 35.9112C73.9239 35.9413 73.9552 35.9786 73.9784 36.0209C74.0016 36.0632 74.0162 36.1096 74.0215 36.1575C74.0267 36.2055 74.0225 36.254 74.009 36.3003C73.9955 36.3466 73.973 36.3897 73.9428 36.4273C73.9127 36.465 73.8754 36.4963 73.8331 36.5194C73.7908 36.5426 73.7444 36.5573 73.6965 36.5625Z" fill="#C20C0C"/>
<path d="M75.4997 22.6095L73.4397 34.7995C73.3321 35.5413 72.9561 36.2179 72.3828 36.7008C71.8096 37.1838 71.079 37.4395 70.3297 37.4195L41.2697 36.1495L16.6097 35.0795C16.412 35.066 16.2194 35.0108 16.0447 34.9174C15.8699 34.824 15.717 34.6945 15.596 34.5376C15.475 34.3807 15.3887 34.1999 15.3428 34.0071C15.2969 33.8144 15.2924 33.6141 15.3297 33.4195L17.3297 21.6895C17.4358 21.1373 17.7341 20.6405 18.1716 20.2873C18.6091 19.934 19.1575 19.747 19.7197 19.7595H72.9097C73.2761 19.7461 73.6411 19.8129 73.979 19.9551C74.317 20.0973 74.6199 20.3116 74.8665 20.583C75.1131 20.8544 75.2976 21.1763 75.4069 21.5263C75.5163 21.8763 75.5479 22.246 75.4997 22.6095Z" fill="#E66767"/>
<path d="M75.5034 22.6095L73.4434 34.7995C73.3359 35.5413 72.9599 36.2179 72.3866 36.7008C71.8133 37.1838 71.0827 37.4395 70.3334 37.4195L41.2734 36.1495L58.2234 19.7595H72.9134C73.2799 19.7461 73.6448 19.8129 73.9828 19.9551C74.3208 20.0973 74.6237 20.3116 74.8703 20.583C75.1169 20.8544 75.3013 21.1763 75.4107 21.5263C75.5201 21.8763 75.5517 22.246 75.5034 22.6095Z" fill="#C20C0C"/>
<path d="M66.2315 68.3037C65.876 68.1027 65.4962 67.9481 65.1015 67.8437C64.1227 67.58 63.115 67.4389 62.1015 67.4237L60.1015 67.3137H59.3115L57.4115 67.2237C55.6715 67.1137 53.9915 67.0137 52.4115 66.8937L50.7215 66.7737C49.2315 66.6737 47.7915 66.5537 46.4015 66.4437L44.0915 66.2237C42.5915 66.0937 41.1615 65.9637 39.7815 65.8237L38.1615 65.6637L33.8515 65.1837L32.8515 65.0637C31.4215 64.8937 30.0615 64.7137 28.7715 64.5437L27.1115 64.3137C25.7115 64.1137 24.4015 63.9137 23.1715 63.7137L21.4215 63.4337C19.9115 63.1737 18.5515 62.9237 17.3215 62.6837L15.7015 62.3637C14.2715 62.0637 13.0615 61.7937 12.0515 61.5537C9.54147 60.9637 8.29147 60.5537 7.95147 60.5537H7.75147C7.59117 60.5733 7.43551 60.6207 7.29147 60.6937C7.20837 60.7357 7.12127 60.7692 7.03147 60.7937C6.91813 60.8314 6.80058 60.8549 6.68147 60.8637C6.30147 59.8637 6.09147 58.6737 7.10147 58.2537C7.75147 57.9937 9.10147 58.3737 12.7315 59.1037C13.8615 59.3337 15.2315 59.5937 16.8715 59.8737L17.8715 60.0537C19.2015 60.2837 20.6915 60.5237 22.3715 60.7637L23.8115 60.9737L27.8815 61.5137L29.3415 61.6937L33.7615 62.1937L34.4015 62.2637C35.8315 62.4137 37.3215 62.5737 38.9115 62.7237L40.3315 62.8537C41.7515 62.9937 43.2415 63.1237 44.8015 63.2537L46.8015 63.4237C48.2415 63.5437 49.7315 63.6637 51.2715 63.7737L52.7815 63.8837L57.7815 64.2337L60.4615 64.4037L63.0915 64.5537C63.5633 64.5493 64.0259 64.6846 64.421 64.9426C64.8161 65.2007 65.1259 65.5699 65.3115 66.0037C65.7554 66.7081 66.0671 67.4875 66.2315 68.3037Z" fill="#C20C0C"/>
<path d="M16.8937 59.9028C16.4307 60.6755 16.039 61.4889 15.7238 62.3328C15.3879 63.213 15.1008 64.111 14.8637 65.0228C13.8369 69.4074 13.2871 73.8901 13.2238 78.3928C13.2198 78.5241 13.1851 78.6527 13.1224 78.7682C13.0598 78.8837 12.9709 78.9828 12.8629 79.0577C12.755 79.1326 12.6309 79.1811 12.5008 79.1994C12.3707 79.2176 12.2381 79.2051 12.1137 79.1628L10.5938 78.6428C10.306 78.5457 10.0553 78.3619 9.87623 78.1166C9.69716 77.8713 9.59848 77.5765 9.59375 77.2728C9.7014 72.9341 10.2917 68.6209 11.3538 64.4128C11.6138 63.3328 11.8637 62.3528 12.0737 61.5228C12.3937 60.3628 12.6337 59.5228 12.7537 59.1328C13.8837 59.3628 15.2537 59.6228 16.8937 59.9028Z" fill="#E5E5E5"/>
<path d="M16.8916 59.9028C16.4285 60.6755 16.0368 61.4889 15.7216 62.3328C15.3858 63.213 15.0986 64.111 14.8616 65.0228C13.5516 64.7828 12.3716 64.5828 11.3516 64.4128C11.6116 63.3328 11.8616 62.3528 12.0716 61.5228C12.3916 60.3628 12.6316 59.5228 12.7516 59.1328C13.8816 59.3628 15.2516 59.6228 16.8916 59.9028Z" fill="#CCCCCC"/>
<path d="M22.4337 60.7881C22.0527 61.6391 21.7189 62.5104 21.4337 63.3981C21.1637 64.2681 20.9137 65.1881 20.6937 66.1381C19.4861 72.123 18.8731 78.2126 18.8637 84.3181C18.8623 84.4527 18.8287 84.585 18.7655 84.7038C18.7024 84.8227 18.6116 84.9246 18.5009 85.0011C18.3901 85.0775 18.2626 85.1263 18.1291 85.1432C17.9956 85.16 17.86 85.1446 17.7337 85.0981L15.7337 84.3681C15.4498 84.2741 15.2017 84.0951 15.0228 83.8554C14.844 83.6158 14.7431 83.327 14.7337 83.0281C14.5737 77.3881 15.7337 70.3781 16.6837 65.3681C16.8837 64.3681 17.0737 63.4581 17.2537 62.6481C17.4837 61.6481 17.6837 60.7181 17.8337 60.0781C19.2637 60.3081 20.7537 60.5481 22.4337 60.7881Z" fill="#E5E5E5"/>
<path d="M17.9278 60.0781C19.2578 60.3081 20.7478 60.5481 22.4278 60.7881C22.0468 61.6391 21.713 62.5104 21.4278 63.3981C21.1578 64.2681 20.9078 65.1881 20.6878 66.1381C19.2978 65.8581 17.9878 65.5981 16.7578 65.3681C16.9578 64.3681 17.1478 63.4581 17.3278 62.6481C17.5578 61.6481 17.7578 60.7181 17.9078 60.0781H17.9278Z" fill="#CCCCCC"/>
<path d="M27.9434 61.5391C27.6434 62.4191 27.3834 63.3391 27.1334 64.2791C26.8834 65.2191 26.6334 66.3391 26.4234 67.3791C25.542 71.8956 24.9607 76.4656 24.6834 81.0591C24.6751 81.1935 24.6346 81.324 24.5653 81.4395C24.496 81.5549 24.3999 81.6521 24.2852 81.7227C24.1705 81.7933 24.0405 81.8352 23.9062 81.8451C23.7719 81.8549 23.6371 81.8322 23.5134 81.7791L21.6034 80.9491C21.3319 80.8335 21.1012 80.6394 20.9408 80.3917C20.7804 80.144 20.6978 79.8541 20.7034 79.5591C20.9305 75.1804 21.5429 70.8303 22.5334 66.5591C22.7534 65.5591 22.9734 64.6191 23.1934 63.7191C23.4134 62.8191 23.6534 61.8691 23.8734 61.0391L27.9434 61.5391Z" fill="#E5E5E5"/>
<path d="M23.8713 61L27.9412 61.54C27.6412 62.42 27.3812 63.34 27.1312 64.28C26.8812 65.22 26.6312 66.34 26.4212 67.38L22.5312 66.52C22.7512 65.52 22.9712 64.58 23.1912 63.68C23.4112 62.78 23.6513 61.83 23.8713 61Z" fill="#CCCCCC"/>
<path d="M33.8231 62.2234C33.4357 63.1399 33.1018 64.0782 32.8231 65.0334C32.4831 66.2234 32.1931 67.4734 31.9531 68.7534C31.039 74.1655 30.5808 79.6447 30.5831 85.1334C30.5818 85.268 30.5481 85.4003 30.485 85.5192C30.4219 85.638 30.3311 85.74 30.2203 85.8164C30.1096 85.8929 29.9821 85.9416 29.8486 85.9585C29.715 85.9753 29.5794 85.9599 29.4531 85.9134L27.4531 85.2034C27.1692 85.1063 26.9216 84.9252 26.743 84.6841C26.5644 84.443 26.4633 84.1533 26.4531 83.8534C26.456 78.4813 26.9852 73.1224 28.0331 67.8534C28.2531 66.6634 28.4731 65.5534 28.6731 64.5634C28.8731 63.5734 29.1031 62.5634 29.2831 61.7734L33.8231 62.2234Z" fill="#E5E5E5"/>
<path d="M33.8216 62.2219C33.4341 63.1384 33.1002 64.0766 32.8216 65.0319C32.4816 66.2219 32.1916 67.4719 31.9516 68.7519C30.6516 68.4119 29.3616 68.0919 28.1016 67.7519C28.3216 66.5619 28.5416 65.4519 28.7416 64.4619C28.9416 63.4719 29.1716 62.4619 29.3516 61.6719L33.8216 62.2219Z" fill="#CCCCCC"/>
<path d="M39.0039 62.7503C38.6939 63.6703 38.4339 64.6303 38.1939 65.6303C37.8439 67.1103 37.5539 68.6303 37.3339 70.2103C36.7214 74.624 36.4107 79.0743 36.4039 83.5303C36.403 83.6633 36.3706 83.7943 36.3092 83.9123C36.2479 84.0303 36.1594 84.1321 36.051 84.2093C35.9426 84.2864 35.8174 84.3367 35.6858 84.356C35.5542 84.3753 35.4199 84.3631 35.2939 84.3203L33.0039 83.5403C32.7239 83.4462 32.4787 83.27 32.3003 83.0345C32.122 82.7991 32.0187 82.5153 32.0039 82.2203C31.9565 77.8099 32.3417 73.4055 33.1539 69.0703C33.3839 67.7003 33.6339 66.3903 33.8839 65.1803C34.0939 64.1803 34.2939 63.1803 34.4939 62.3203C35.8939 62.4403 37.3839 62.6003 39.0039 62.7503Z" fill="#E5E5E5"/>
<path d="M38.9984 62.7491C38.6884 63.6691 38.4284 64.6291 38.1884 65.6291C37.8384 67.1091 37.5484 68.6291 37.3284 70.2091C35.9184 69.7991 34.5284 69.4091 33.1484 69.0391C33.3784 67.6691 33.6284 66.3591 33.8784 65.1491C34.0884 64.1491 34.2884 63.1491 34.4884 62.2891C35.8884 62.4391 37.3784 62.5991 38.9984 62.7491Z" fill="#CCCCCC"/>
<path d="M44.8601 63.2763C44.5601 64.2063 44.3101 65.1863 44.0901 66.1863C43.6601 68.0863 43.3501 70.0763 43.0901 72.0163C42.6444 75.8368 42.4174 79.6798 42.4101 83.5262C42.4092 83.6593 42.3768 83.7902 42.3154 83.9082C42.2541 84.0263 42.1656 84.1281 42.0572 84.2052C41.9488 84.2823 41.8236 84.3326 41.692 84.3519C41.5604 84.3712 41.4261 84.359 41.3001 84.3162L39.0001 83.5363C38.7186 83.4446 38.4719 83.269 38.2931 83.0331C38.1143 82.7971 38.0121 82.512 38.0001 82.2163C37.9389 78.364 38.2335 74.5143 38.8801 70.7163C39.1401 68.9863 39.4401 67.3362 39.7501 65.8162C39.9501 64.8162 40.1601 63.8163 40.3601 62.9062C41.8101 63.0162 43.3001 63.1463 44.8601 63.2763Z" fill="#E5E5E5"/>
<path d="M40.3906 62.8828C41.8106 63.0228 43.3006 63.1528 44.8606 63.2828C44.5606 64.2128 44.3106 65.1928 44.0906 66.1928C43.6606 68.0928 43.3506 70.0828 43.0906 72.0228C41.6906 71.5528 40.2906 71.1128 38.8906 70.6928C39.1506 68.9628 39.4506 67.3128 39.7606 65.7928C40.0006 64.7528 40.1906 63.7728 40.3906 62.8828Z" fill="#CCCCCC"/>
<path d="M51.3838 63.8031C51.1238 64.7431 50.8938 65.7231 50.6838 66.7231C50.1692 69.2386 49.7821 71.7785 49.5238 74.3331C48.9138 80.0031 48.8138 85.3331 48.8038 87.6131C48.8013 87.7493 48.7662 87.8829 48.7013 88.0027C48.6365 88.1224 48.5438 88.2249 48.431 88.3013C48.3183 88.3778 48.1889 88.426 48.0536 88.442C47.9183 88.458 47.7812 88.4412 47.6538 88.3931L45.3838 87.5031C45.1134 87.3959 44.8803 87.2119 44.7133 86.9738C44.5463 86.7356 44.4526 86.4539 44.4438 86.1631C44.389 81.686 44.6933 77.2116 45.3538 72.7831C45.6638 70.5131 46.0138 68.3431 46.3538 66.3931C46.5438 65.3931 46.7238 64.3931 46.9038 63.4531C48.3538 63.5731 49.8438 63.6931 51.3838 63.8031Z" fill="#E5E5E5"/>
<path d="M51.3816 63.8031C51.1216 64.7431 50.8916 65.7231 50.6816 66.7231C50.167 69.2386 49.7799 71.7785 49.5216 74.3331C48.1416 73.7931 46.7516 73.2731 45.3516 72.7831C45.6616 70.5131 46.0116 68.3431 46.3516 66.3931C46.5416 65.3931 46.7216 64.3931 46.9016 63.4531C48.3516 63.5731 49.8416 63.6931 51.3816 63.8031Z" fill="#CCCCCC"/>
<path d="M57.9318 64.2206C57.7318 65.2206 57.5618 66.1506 57.4118 67.1306C56.9049 70.5013 56.5712 73.8958 56.4118 77.3006C56.2818 79.8806 56.2618 81.9906 56.2618 83.2206C56.2625 83.3545 56.2312 83.4866 56.1706 83.6059C56.1099 83.7253 56.0216 83.8284 55.9129 83.9067C55.8043 83.9849 55.6786 84.0361 55.5462 84.0559C55.4138 84.0758 55.2786 84.0637 55.1518 84.0206L52.1518 83.0206C51.8702 82.9229 51.6244 82.743 51.4461 82.5041C51.2679 82.2652 51.1653 81.9784 51.1518 81.6806C51.0831 79.4622 51.1465 77.2416 51.3418 75.0306C51.5718 72.2706 51.9618 69.4606 52.4018 66.8206C52.5718 65.8206 52.7418 64.8206 52.9218 63.8906L57.9318 64.2206Z" fill="#E5E5E5"/>
<path d="M52.8934 63.9062L57.8934 64.2563C57.6934 65.2563 57.5234 66.1862 57.3734 67.1662C56.8666 70.5369 56.5328 73.9314 56.3734 77.3363C54.7334 76.5363 53.0234 75.7763 51.2734 75.0463C51.5034 72.2863 51.8934 69.4763 52.3334 66.8363C52.5434 65.8363 52.7134 64.8562 52.8934 63.9062Z" fill="#CCCCCC"/>
<path d="M64.0001 81.6597C64.0001 84.1097 64.0001 86.1097 64.0601 87.2997C64.0624 87.4331 64.0332 87.5651 63.9751 87.6851C63.9169 87.8051 63.8313 87.9098 63.7251 87.9906C63.619 88.0714 63.4954 88.1261 63.3642 88.1502C63.233 88.1744 63.098 88.1674 62.9701 88.1297L59.8701 87.2197C59.5908 87.1244 59.3463 86.9479 59.1682 86.7126C58.99 86.4774 58.8862 86.1943 58.8701 85.8997C58.71 83.459 58.71 81.0104 58.8701 78.5697C59.1001 74.6797 59.6101 70.7197 60.1601 67.3097C60.3201 66.3097 60.4901 65.3097 60.6601 64.4297L63.2901 64.5797C63.7619 64.5752 64.2245 64.7106 64.6196 64.9686C65.0146 65.2266 65.3245 65.5958 65.5101 66.0297C65.3801 66.6197 65.2601 67.2297 65.1501 67.8397C64.4172 72.4106 64.0328 77.0305 64.0001 81.6597Z" fill="#E5E5E5"/>
<path d="M65.4572 66.0297C65.3272 66.6197 65.2072 67.2297 65.0972 67.8397C64.3811 72.4119 64.0134 77.0318 63.9972 81.6597C62.3457 80.5356 60.633 79.504 58.8672 78.5697C59.0972 74.6797 59.6072 70.7197 60.1572 67.3097C60.3172 66.3097 60.4872 65.3097 60.6572 64.4297L63.2872 64.5797C63.7505 64.585 64.2023 64.7249 64.5876 64.9823C64.9728 65.2398 65.275 65.6037 65.4572 66.0297Z" fill="#CCCCCC"/>
<path d="M5.95125 45.0069C7.28778 45.0069 8.37125 43.7846 8.37125 42.2769C8.37125 40.7691 7.28778 39.5469 5.95125 39.5469C4.61472 39.5469 3.53125 40.7691 3.53125 42.2769C3.53125 43.7846 4.61472 45.0069 5.95125 45.0069Z" fill="#C20C0C"/>
<path d="M5.95031 44.3963C6.98861 44.3963 7.83031 43.4471 7.83031 42.2762C7.83031 41.1054 6.98861 40.1562 5.95031 40.1562C4.91202 40.1562 4.07031 41.1054 4.07031 42.2762C4.07031 43.4471 4.91202 44.3963 5.95031 44.3963Z" fill="#ED9292"/>
<path d="M6.31065 40.8072L6.16065 42.0572C6.1544 42.1106 6.12963 42.1601 6.09065 42.1972C6.06289 42.2115 6.03187 42.2184 6.00065 42.2172C5.97413 42.2124 5.94885 42.2023 5.92632 42.1876C5.90379 42.1728 5.88447 42.1536 5.86953 42.1312C5.85458 42.1088 5.84432 42.0836 5.83936 42.0571C5.8344 42.0307 5.83484 42.0035 5.84065 41.9772L5.98065 40.7372C5.98573 40.6832 6.01146 40.6333 6.05246 40.5979C6.09345 40.5625 6.14655 40.5443 6.20064 40.5472C6.24656 40.5707 6.28274 40.6097 6.30285 40.6572C6.32296 40.7047 6.32572 40.7578 6.31065 40.8072Z" fill="#C20C0C"/>
<path d="M7.36092 42.547C7.32283 42.9309 7.13637 43.2847 6.84125 43.5331C6.54613 43.7815 6.16567 43.9049 5.78092 43.877C5.37698 43.7992 5.01971 43.566 4.78595 43.2275C4.55219 42.889 4.46061 42.4723 4.53092 42.067C4.57129 41.6381 4.77982 41.2426 5.11092 40.967C5.15921 40.9485 5.21262 40.9485 5.26092 40.967C5.30096 40.976 5.33783 40.9957 5.36773 41.0238C5.39762 41.0519 5.41944 41.0876 5.43092 41.127C5.44179 41.1735 5.44011 41.2221 5.42605 41.2678C5.412 41.3135 5.38607 41.3546 5.35092 41.387C5.19828 41.5307 5.08559 41.7116 5.0239 41.9119C4.96221 42.1123 4.95363 42.3252 4.999 42.5299C5.04436 42.7345 5.14213 42.9239 5.28271 43.0794C5.42329 43.2349 5.60186 43.3512 5.80092 43.417C5.94337 43.4307 6.08712 43.4154 6.2235 43.372C6.35989 43.3287 6.48608 43.2581 6.59447 43.1647C6.70286 43.0713 6.79121 42.9568 6.85419 42.8283C6.91717 42.6998 6.95347 42.5599 6.96092 42.417C7.00061 42.1001 6.92229 41.7798 6.74092 41.517C6.7162 41.4763 6.70312 41.4296 6.70312 41.382C6.70312 41.3344 6.7162 41.2877 6.74092 41.247C6.75753 41.2179 6.78155 41.1937 6.81052 41.1769C6.8395 41.16 6.87241 41.1512 6.90592 41.1512C6.93943 41.1512 6.97234 41.16 7.00131 41.1769C7.03029 41.1937 7.0543 41.2179 7.07092 41.247C7.20326 41.4335 7.29707 41.6445 7.34686 41.8678C7.39666 42.091 7.40144 42.3219 7.36092 42.547Z" fill="#C20C0C"/>
<path d="M48.5628 49.2506C50.4571 49.2506 51.9928 47.715 51.9928 45.8206C51.9928 43.9263 50.4571 42.3906 48.5628 42.3906C46.6685 42.3906 45.1328 43.9263 45.1328 45.8206C45.1328 47.715 46.6685 49.2506 48.5628 49.2506Z" fill="#C20C0C"/>
<path d="M51.5765 45.8112C51.5812 46.5228 51.3369 47.2137 50.8859 47.7642C50.4348 48.3147 49.8055 48.6901 49.1069 48.8255C48.4082 48.9609 47.6842 48.8478 47.0602 48.5056C46.4362 48.1635 45.9515 47.6139 45.69 46.9521C45.4284 46.2902 45.4066 45.5577 45.6282 44.8815C45.8498 44.2052 46.301 43.6277 46.9035 43.249C47.506 42.8703 48.222 42.7142 48.9274 42.8077C49.6329 42.9013 50.2835 43.2385 50.7665 43.7612C51.2868 44.317 51.5764 45.0498 51.5765 45.8112Z" fill="#E66767"/>
<path d="M51.5769 45.8122C51.5873 46.4297 51.4069 47.0355 51.0602 47.5467C50.7136 48.0579 50.2176 48.4496 49.64 48.6684C49.0624 48.8872 48.4313 48.9224 47.833 48.7691C47.2347 48.6159 46.6982 48.2817 46.2969 47.8122C46.6617 46.8255 47.2581 45.9408 48.036 45.2325C48.8138 44.5243 49.7504 44.0132 50.7669 43.7422C51.292 44.303 51.5819 45.0439 51.5769 45.8122Z" fill="#C20C0C"/>
<path d="M61.4806 50.0628C63.6014 50.0628 65.3206 48.3436 65.3206 46.2228C65.3206 44.102 63.6014 42.3828 61.4806 42.3828C59.3599 42.3828 57.6406 44.102 57.6406 46.2228C57.6406 48.3436 59.3599 50.0628 61.4806 50.0628Z" fill="#C20C0C"/>
<path d="M64.9069 46.2213C64.9049 46.8992 64.702 47.5614 64.3239 48.1241C63.9459 48.6869 63.4095 49.1249 62.7826 49.383C62.1556 49.6411 61.4663 49.7076 60.8016 49.5741C60.1369 49.4406 59.5267 49.1132 59.048 48.6331C58.5693 48.153 58.2436 47.5418 58.1121 46.8767C57.9805 46.2117 58.049 45.5225 58.3089 44.8964C58.5688 44.2702 59.0085 43.7351 59.5723 43.3586C60.1361 42.9822 60.7989 42.7813 61.4769 42.7813C62.1172 42.7802 62.7448 42.9605 63.2869 43.3013C63.782 43.6111 64.1903 44.0415 64.4737 44.5522C64.757 45.0629 64.9061 45.6372 64.9069 46.2213Z" fill="#F4BEBE"/>
<path d="M64.91 46.2169C64.9121 46.9028 64.7085 47.5736 64.3255 48.1427C63.9424 48.7117 63.3976 49.1529 62.7613 49.4091C62.125 49.6653 61.4265 49.7249 60.756 49.5801C60.0855 49.4353 59.4739 49.0928 59 48.5969C59.34 46.5969 60.35 43.9169 63.28 43.2969C63.777 43.6055 64.1873 44.0354 64.4725 44.5462C64.7576 45.057 64.9082 45.6319 64.91 46.2169Z" fill="#ED9292"/>
<path d="M75.78 4.7L75.54 6.14L70.54 35.8L70.19 37.91L16.5 35.72L16.62 35.05L16.73 34.37L21.82 3.91C21.8981 3.38495 22.1602 2.90472 22.5595 2.5549C22.9587 2.20509 23.4692 2.00844 24 2H73.61C73.9395 2.00853 74.2633 2.08874 74.5587 2.23504C74.8541 2.38135 75.1141 2.59024 75.3206 2.84719C75.5271 3.10414 75.6752 3.40299 75.7545 3.72296C75.8339 4.04293 75.8426 4.37633 75.78 4.7Z" fill="#E5E5E5"/>
<path d="M75.54 6.14062L70.54 35.8006L70.19 37.9106L16.5 35.7206L16.62 35.0506C23.05 34.5806 65.67 30.5406 75.54 6.14062Z" fill="#CCCCCC"/>
<path d="M61.4015 6.88875L61.1415 8.34875C61.0844 8.67976 60.9109 8.97949 60.6525 9.19398C60.394 9.40848 60.0674 9.52365 59.7315 9.51875L25.8715 9.30875C25.666 9.30884 25.4629 9.26399 25.2766 9.17735C25.0902 9.09071 24.925 8.96437 24.7926 8.80718C24.6602 8.65 24.5637 8.46576 24.51 8.26739C24.4562 8.06901 24.4465 7.86128 24.4815 7.65875L24.6815 6.40875C24.7379 6.07753 24.9091 5.77674 25.1651 5.55915C25.4211 5.34155 25.7455 5.22104 26.0815 5.21875H60.0015C60.2093 5.21843 60.4147 5.26374 60.6031 5.35147C60.7915 5.4392 60.9584 5.56722 61.0919 5.72649C61.2254 5.88576 61.3223 6.07239 61.3758 6.27322C61.4293 6.47404 61.4381 6.68417 61.4015 6.88875Z" fill="#919191"/>
<path d="M34.1662 23.4138C34.1085 23.7509 33.9311 24.0559 33.6665 24.2727C33.402 24.4895 33.0681 24.6035 32.7262 24.5938L23.3162 24.3138C23.1221 24.3017 22.9325 24.2499 22.7593 24.1615C22.586 24.0732 22.4328 23.9502 22.309 23.8002C22.1853 23.6502 22.0936 23.4763 22.0398 23.2894C21.986 23.1026 21.9712 22.9066 21.9962 22.7138C22.0537 22.3757 22.2307 22.0696 22.495 21.8511C22.7593 21.6327 23.0934 21.5165 23.4362 21.5238L32.8462 21.7638C33.0452 21.7751 33.2395 21.8282 33.4167 21.9196C33.5938 22.0111 33.7496 22.1388 33.8741 22.2944C33.9987 22.45 34.089 22.6301 34.1393 22.823C34.1896 23.0158 34.1988 23.2171 34.1662 23.4138Z" fill="#919191"/>
<path d="M64.2231 34.5188V34.6888C64.1609 35.0266 63.9791 35.3308 63.711 35.5457C63.4429 35.7605 63.1065 35.8716 62.7631 35.8588L24.4431 34.2188L21.6731 34.0988C21.4714 34.0903 21.2738 34.039 21.0935 33.9481C20.9132 33.8573 20.7544 33.729 20.6276 33.5719C20.5008 33.4148 20.4089 33.2325 20.3581 33.0371C20.3074 32.8417 20.2988 32.6377 20.3331 32.4388C20.3792 32.1003 20.5465 31.7901 20.8039 31.5657C21.0614 31.3414 21.3916 31.2181 21.7331 31.2188H21.7831L36.7831 31.8088L62.8531 32.8088C63.0625 32.8117 63.2687 32.8609 63.4568 32.9529C63.6449 33.0449 63.8104 33.1773 63.9413 33.3408C64.0722 33.5042 64.1654 33.6945 64.2141 33.8982C64.2629 34.1019 64.2659 34.3138 64.2231 34.5188Z" fill="#919191"/>
<path d="M39.3668 17.7119V17.7819C39.3097 18.1155 39.1352 18.4178 38.8748 18.6341C38.6144 18.8505 38.2853 18.9667 37.9468 18.9619L24.2968 18.6819C24.093 18.6791 23.8922 18.6321 23.7083 18.5442C23.5243 18.4563 23.3617 18.3295 23.2314 18.1727C23.1012 18.0159 23.0066 17.8327 22.954 17.6357C22.9014 17.4387 22.8921 17.2327 22.9268 17.0319C22.9821 16.6973 23.1561 16.3938 23.4169 16.1771C23.6777 15.9604 24.0078 15.8449 24.3468 15.8519L37.9968 16.0519C38.2011 16.0561 38.4021 16.1044 38.586 16.1934C38.7699 16.2824 38.9325 16.4101 39.0625 16.5677C39.1926 16.7253 39.2871 16.9091 39.3396 17.1065C39.3921 17.304 39.4014 17.5105 39.3668 17.7119Z" fill="#919191"/>
<path d="M64.2175 34.5216V34.6916C64.1553 35.0294 63.9735 35.3336 63.7054 35.5485C63.4373 35.7633 63.1008 35.8745 62.7575 35.8616L24.4375 34.2216C27.9175 33.7216 32.1975 32.9716 36.8075 31.8516L62.8775 32.8516C63.0802 32.8598 63.2788 32.9114 63.4599 33.0028C63.641 33.0943 63.8005 33.2235 63.9274 33.3817C64.0544 33.54 64.146 33.7236 64.196 33.9202C64.2461 34.1168 64.2534 34.3219 64.2175 34.5216Z" fill="#6C6C6C"/>
</g>
<defs>
<clipPath id="clip0_8576_106430">
<rect width="90" height="90" fill="white"/>
</clipPath>
</defs>
</svg>
