<svg xmlns="http://www.w3.org/2000/svg" width="18" height="18" viewBox="0 0 18 18"><g transform="translate(-1980 -1142.533)"><rect width="18" height="18" transform="translate(1980 1142.533)" fill="#919191" opacity="0"/><path d="M10.689,39.813A4.018,4.018,0,0,0,5.25,41.965H7.819Zm2.061,2.152A4.035,4.035,0,0,0,11.6,40.4L9.506,41.965ZM9,47.534a3.915,3.915,0,0,0,4-4.557H5a3.915,3.915,0,0,0,4,4.557M4.444,48.916v6.717H8.5L5.387,48.624a4.206,4.206,0,0,0-.943.292m-2.532,5.2a1.518,1.518,0,0,0,1.519,1.518V49.566A4.226,4.226,0,0,0,1.912,52.8Zm8.1-1.519H8.26l1.35,3.037h.4a1.518,1.518,0,1,0,0-3.037m1.823-4.05h-.529a5.508,5.508,0,0,1-4.612,0H6.461l1.35,3.037h2.2a2.535,2.535,0,0,1,2.532,2.532,2.505,2.505,0,0,1-.519,1.518h2.544a1.517,1.517,0,0,0,1.518-1.518V52.8a4.252,4.252,0,0,0-4.252-4.253" transform="translate(1980 1104)" fill="#919191"/></g></svg>