<svg xmlns="http://www.w3.org/2000/svg" xmlns:xlink="http://www.w3.org/1999/xlink" width="18" height="18" viewBox="0 0 18 18"><defs><clipPath id="a"><rect width="18" height="18" transform="translate(0.45 80.193)" fill="#919191" opacity="0"/></clipPath></defs><g transform="translate(-570.45 -1100.193)"><g transform="translate(570 1020)" opacity="0"><g clip-path="url(#a)"><rect width="18" height="18" transform="translate(0.45 80.193)" fill="#919191"/></g></g><path d="M10.66,86.657v.01l.011-.01Z" transform="translate(570 1020)" fill="#919191"/><path d="M14.5,84.081c-.305-.754-.621-1.508-.906-2.262a1.243,1.243,0,0,0-.887-.876l-6.51.01a1.115,1.115,0,0,0-.815.672c-.326.836-.662,1.682-1.009,2.517a1.134,1.134,0,0,0,0,.815c.337.846.673,1.7,1.019,2.547a1.022,1.022,0,0,0,1,.662h.458a.642.642,0,0,0,.01.133,1.089,1.089,0,0,0,1.243.9c.1-.01.2,0,.306,0,0,.153.01.275,0,.408a1.12,1.12,0,0,1-.622,1.029,3.111,3.111,0,0,0-.652.418,3.554,3.554,0,0,0-.509,4.992,3.409,3.409,0,0,0,3.566,1.3,3.53,3.53,0,0,0,2.822-2.985,1.661,1.661,0,0,0-.051-.968A1.037,1.037,0,0,0,11,93.739a2.831,2.831,0,0,1-.092.571,1.516,1.516,0,0,1-1.661,1.049,1.551,1.551,0,0,1-.57-2.873,5.244,5.244,0,0,0,.876-.621,3.048,3.048,0,0,0,.917-2.007c.01-.214.02-.439.03-.673.775.071,1.417-.081,1.549-1.029h.4a1.041,1.041,0,0,0,1.1-.744c.316-.794.631-1.589.957-2.384a1.174,1.174,0,0,0,0-.947M7.1,85.874c-.3-.886-.591-1.763-.887-2.649h1.08c.235.683.887,2.649.887,2.649Zm2.251,0c-.3-.876-.581-1.752-.876-2.649h1.08l.886,2.649Zm1.335.744v-.01h.01Zm.927-.744c-.3-.886-.591-1.763-.886-2.649h1.09l.886,2.649Z" transform="translate(570 1020)" fill="#919191"/></g></svg>