<svg xmlns="http://www.w3.org/2000/svg" width="18" height="18" viewBox="0 0 18 18"><path d="M-21.039,713.79a9,9,0,0,0-9,9,9,9,0,0,0,9,9,9,9,0,0,0,9-9A9,9,0,0,0-21.039,713.79Zm-.69,2.932a.689.689,0,0,1,.69-.689.688.688,0,0,1,.689.689V721.3a.689.689,0,0,1-.689.69.69.69,0,0,1-.69-.69Zm.69,12.113a6.058,6.058,0,0,1-6.051-6.05,6.056,6.056,0,0,1,3.119-5.294.688.688,0,0,1,.937.268.688.688,0,0,1-.268.937,4.679,4.679,0,0,0-2.409,4.089,4.677,4.677,0,0,0,4.672,4.671,4.676,4.676,0,0,0,4.671-4.671,4.679,4.679,0,0,0-2.409-4.089.688.688,0,0,1-.268-.937.689.689,0,0,1,.937-.268,6.057,6.057,0,0,1,3.119,5.294A6.057,6.057,0,0,1-21.039,728.835Z" transform="translate(30.039 -713.79)" fill="#91a4c7"/></svg>