<svg xmlns="http://www.w3.org/2000/svg" width="16" height="16" viewBox="0 0 16 16"><g transform="translate(-1130 -190)"><g transform="translate(-5169 -11884)"><rect width="16" height="16" transform="translate(6299 12074)" fill="#ef5350" opacity="0"/><path d="M7.585,85.5l3.127-3.127a.983.983,0,0,0,0-1.39l-.695-.7a.983.983,0,0,0-1.39,0L5.5,83.415,2.373,80.288a.983.983,0,0,0-1.39,0l-.7.7a.983.983,0,0,0,0,1.39L3.415,85.5.288,88.627a.983.983,0,0,0,0,1.39l.7.7a.983.983,0,0,0,1.39,0L5.5,87.585l3.127,3.127a.983.983,0,0,0,1.39,0l.695-.7a.983.983,0,0,0,0-1.39Z" transform="translate(6301.5 11996.5)" fill="#ef5350"/></g></g></svg>