<svg xmlns="http://www.w3.org/2000/svg" width="18" height="18" viewBox="0 0 18 18"><g transform="translate(-6028.367 -13487)"><rect width="18" height="18" transform="translate(6028.367 13487)" fill="#aaa" opacity="0"/><path d="M82.823,9.321l-4.452,4.442a2.916,2.916,0,0,1-2.078.844,3.1,3.1,0,0,1-2.181-.9,3,3,0,0,1-.879-2.108,2.937,2.937,0,0,1,.859-2.113l3.483-3.468A1.014,1.014,0,0,1,79,7.46l-3.48,3.46a.923.923,0,0,0-.266.66.991.991,0,0,0,.282.7,1.063,1.063,0,0,0,.749.3.9.9,0,0,0,.643-.253l4.458-4.447A2.908,2.908,0,0,0,77.28,3.777L70.146,10.9a2.91,2.91,0,0,0,3.924,4.29l.231-.188.268.137a2.474,2.474,0,0,0,1.046.242h.035l.189-.008a.377.377,0,0,1,.282.649l-.428.429a4.935,4.935,0,0,1-6.978-6.982l7.13-7.13a4.934,4.934,0,1,1,6.979,6.976Z" transform="translate(5961.6 13486.6)" fill="#aaa"/></g></svg>