<svg width="14" height="12" viewBox="0 0 14 12" fill="none" xmlns="http://www.w3.org/2000/svg">
<path d="M0.906769 4.32686L5.2373 0.545036C5.32299 0.470173 5.42794 0.421858 5.53975 0.405803C5.65155 0.389747 5.76554 0.406622 5.86822 0.454433C5.97091 0.502244 6.058 0.578991 6.11921 0.675603C6.18042 0.772216 6.21319 0.884653 6.21363 0.999624V3.00398C10.1654 3.02643 13.3 3.83298 13.3 7.64607C13.2611 8.40393 13.0572 9.14351 12.7032 9.8113C12.3491 10.4791 11.8537 11.0584 11.2528 11.5073C11.1804 11.564 11.0924 11.5963 11.0011 11.5996C10.9097 11.6029 10.8197 11.577 10.7436 11.5256C10.6674 11.4741 10.609 11.3997 10.5765 11.3127C10.544 11.2258 10.539 11.1306 10.5623 11.0406C11.6748 7.40956 10.03 6.44506 6.21363 6.38733V8.59052C6.21319 8.70549 6.18042 8.81793 6.11921 8.91454C6.058 9.01116 5.97091 9.0879 5.86822 9.13572C5.76554 9.18353 5.65155 9.2004 5.53975 9.18435C5.42794 9.16829 5.32299 9.11997 5.2373 9.04511L0.906769 5.25928C0.841773 5.20097 0.789714 5.12924 0.754054 5.04885C0.718394 4.96847 0.699951 4.88128 0.699951 4.79307C0.699951 4.70486 0.718394 4.61767 0.754054 4.53728C0.789714 4.4569 0.841773 4.38517 0.906769 4.32686Z" fill="#919191"/>
</svg>
