<svg width="18" height="16" viewBox="0 0 18 16" fill="none" xmlns="http://www.w3.org/2000/svg">
<path d="M1.47643 3.51706H16.5204C16.6736 3.5168 16.8205 3.45582 16.9288 3.34748C17.0372 3.23914 17.0982 3.09228 17.0984 2.93906V1.49106C17.0984 1.41521 17.0835 1.34009 17.0544 1.27002C17.0254 1.19995 16.9828 1.1363 16.9291 1.08271C16.8754 1.02912 16.8117 0.986636 16.7415 0.957698C16.6714 0.928759 16.5963 0.913932 16.5204 0.914063H1.47643C1.40057 0.913932 1.32543 0.928759 1.25531 0.957698C1.18519 0.986636 1.12147 1.02912 1.06778 1.08271C1.0141 1.1363 0.971504 1.19995 0.942445 1.27002C0.913385 1.34009 0.898438 1.41521 0.898438 1.49106V2.93906C0.898703 3.09228 0.959671 3.23914 1.06801 3.34748C1.17635 3.45582 1.32321 3.5168 1.47643 3.51706ZM1.47643 9.30306H16.5204C16.5965 9.30293 16.6717 9.28783 16.7419 9.25861C16.8121 9.22939 16.8759 9.18663 16.9296 9.13277C16.9832 9.07891 17.0258 9.01501 17.0547 8.94471C17.0837 8.87442 17.0986 8.7991 17.0984 8.72306V7.27906C17.0986 7.20303 17.0837 7.12771 17.0547 7.05741C17.0258 6.98712 16.9832 6.92321 16.9296 6.86936C16.8759 6.8155 16.8121 6.77274 16.7419 6.74352C16.6717 6.7143 16.5965 6.69919 16.5204 6.69906H1.47643C1.40039 6.69919 1.32513 6.7143 1.25493 6.74352C1.18473 6.77274 1.12098 6.8155 1.06731 6.86936C1.01364 6.92321 0.9711 6.98712 0.942124 7.05741C0.913148 7.12771 0.898307 7.20303 0.898438 7.27906V8.72506C0.898438 8.87845 0.959291 9.02557 1.06766 9.13412C1.17603 9.24268 1.32304 9.3038 1.47643 9.30406V9.30306ZM1.47643 15.0881H16.5204C16.5963 15.0882 16.6714 15.0734 16.7415 15.0444C16.8117 15.0155 16.8754 14.973 16.9291 14.9194C16.9828 14.8658 17.0254 14.8022 17.0544 14.7321C17.0835 14.662 17.0984 14.5869 17.0984 14.5111V13.0641C17.0986 12.9881 17.0837 12.9128 17.0547 12.8426C17.0257 12.7723 16.9832 12.7085 16.9295 12.6547C16.8758 12.6009 16.812 12.5583 16.7419 12.5292C16.6717 12.5 16.5964 12.4851 16.5204 12.4851H1.47643C1.40044 12.4851 1.3252 12.5 1.25501 12.5292C1.18481 12.5583 1.12105 12.6009 1.06737 12.6547C1.01368 12.7085 0.971128 12.7723 0.94214 12.8426C0.913151 12.9128 0.898307 12.9881 0.898438 13.0641V14.5111C0.898438 14.5869 0.913385 14.662 0.942445 14.7321C0.971504 14.8022 1.0141 14.8658 1.06778 14.9194C1.12147 14.973 1.18519 15.0155 1.25531 15.0444C1.32543 15.0734 1.40057 15.0882 1.47643 15.0881Z" fill="#919191"/>
</svg>
