<svg xmlns="http://www.w3.org/2000/svg" width="18" height="18" viewBox="0 0 18 18"><g transform="translate(-17175 15749)"><rect width="18" height="18" transform="translate(17175 -15749)" fill="#919191" opacity="0"/><path d="M2.485,3.229v.887a11.221,11.221,0,0,0,4.6.935,11.227,11.227,0,0,0,4.6-.935V3.229l.695-.706a.789.789,0,0,0,.226-.553.78.78,0,0,0-.583-.759L7.336.019a1,1,0,0,0-.491,0L2.152,1.211a.78.78,0,0,0-.588.759.788.788,0,0,0,.226.553ZM6.046,1.922,7,1.526a.3.3,0,0,1,.092-.018.284.284,0,0,1,.091.018l.949.4a.237.237,0,0,1,.146.219,1.9,1.9,0,0,1-1.215,1.9A1.939,1.939,0,0,1,5.9,2.112.229.229,0,0,1,6.046,1.922ZM3.1,5.444a4.078,4.078,0,0,0-.062.62,4.022,4.022,0,1,0,8.043,0,4.015,4.015,0,0,0-.061-.619,12.2,12.2,0,0,1-3.932.619A12.78,12.78,0,0,1,3.1,5.444Zm7.025,5.683H9.112L7.087,13.151,5.062,11.126H4.05A4.05,4.05,0,0,0,0,15.176a1.013,1.013,0,0,0,1.012,1.012h12.15a1.013,1.013,0,0,0,1.012-1.012A4.05,4.05,0,0,0,10.125,11.126Zm1.218,2.7-.5.486.118.687a.151.151,0,0,1-.22.159l-.617-.323-.618.324A.151.151,0,0,1,9.287,15l.118-.687-.5-.486a.151.151,0,0,1,.084-.258l.69-.1.309-.625a.152.152,0,0,1,.272,0l.312.625.691.1A.15.15,0,0,1,11.343,13.825Z" transform="translate(17176.912 -15748.088)" fill="#919191"/></g></svg>