<svg xmlns="http://www.w3.org/2000/svg" width="18" height="18" viewBox="0 0 18 18"><g transform="translate(-772 -57)"><rect width="18" height="18" transform="translate(772 57)" fill="#b7b7b7" opacity="0"/><path d="M6.834,1H9.366a.758.758,0,0,1,.759.759V6.175H12.9a.632.632,0,0,1,.446,1.079L8.533,12.07a.613.613,0,0,1-.864,0L2.851,7.254A.632.632,0,0,1,3.3,6.175H6.075V1.759A.758.758,0,0,1,6.834,1ZM16.2,12v3.544a.758.758,0,0,1-.759.759H.759A.758.758,0,0,1,0,15.541V12a.758.758,0,0,1,.759-.759H5.4l1.55,1.55a1.621,1.621,0,0,0,2.3,0l1.55-1.55h4.642A.758.758,0,0,1,16.2,12Zm-3.923,2.784a.633.633,0,1,0-.633.633A.635.635,0,0,0,12.277,14.781Zm2.025,0a.633.633,0,1,0-.633.633A.635.635,0,0,0,14.3,14.781Z" transform="translate(772.9 57.35)" fill="#b7b7b7"/></g></svg>