<svg xmlns="http://www.w3.org/2000/svg" width="16" height="16" viewBox="0 0 16 16"><g transform="translate(7.122 -712.808)"><path d="M5.568,726.127a1.9,1.9,0,0,1-1.319.554H4.223a1.923,1.923,0,0,1-1.911-1.9v-1.434H-1.461a1.908,1.908,0,0,1-1.9-1.9v-1.324a1.908,1.908,0,0,1,1.908-1.886H2.315v-1.451a1.909,1.909,0,0,1,3.258-1.321L7.1,716.986v-2.4a1.778,1.778,0,0,0-1.778-1.778H-5.343a1.778,1.778,0,0,0-1.779,1.778V727.03a1.779,1.779,0,0,0,1.779,1.778H5.321A1.778,1.778,0,0,0,7.1,727.03v-2.424Z" transform="translate(0)" fill="#dadada"/><path d="M9.3,720.727l0-.005-3.974-3.957a.669.669,0,0,0-.945,0h0a.671.671,0,0,0-.194.46V719.9H-.831a.66.66,0,0,0-.666.653v0h0v1.313a.662.662,0,0,0,.665.657H4.179V725.2a.668.668,0,0,0,1.14.463L9.3,721.709a.692.692,0,0,0,.006-.979Z" transform="translate(-0.625 -0.418)" fill="#dadada"/></g></svg>