<svg xmlns="http://www.w3.org/2000/svg" width="18" height="18" viewBox="0 0 18 18"><g transform="translate(-925 -1587)"><rect width="18" height="18" transform="translate(925 1587)" fill="none"/><path d="M14.878,4.321l-3.1-3.1A.771.771,0,0,0,11.242,1h-.2V4.51a.542.542,0,0,0,.54.54h3.51V4.861a.786.786,0,0,0-.216-.54M11.7,6.058A1.654,1.654,0,0,1,10.036,4.4V1H3.259a.761.761,0,0,0-.756.756V16.444a.755.755,0,0,0,.756.756h6.3A5.853,5.853,0,0,1,13.3,6.85a5.67,5.67,0,0,1,1.8.288V6.058Z" transform="translate(924.75 1586.9)" fill="#aaa"/><path d="M13.95,8.5A4.95,4.95,0,1,1,9,13.45,4.95,4.95,0,0,1,13.95,8.5m-2.778,6H13.95v1.7a.288.288,0,0,0,.491.2l2.738-2.752a.285.285,0,0,0,0-.4l-2.738-2.754a.288.288,0,0,0-.491.2v1.7H11.172a.288.288,0,0,0-.287.287v1.534a.288.288,0,0,0,.287.287" transform="translate(924.1 1586.15)" fill="#aaa"/></g></svg>