<svg xmlns="http://www.w3.org/2000/svg" width="18" height="18" viewBox="0 0 18 18"><g transform="translate(-1710 -205)"><rect width="18" height="18" transform="translate(1710 205)" fill="#4db6a2" opacity="0"/><path d="M12.15,45.134V38.047a.989.989,0,0,1,1.012-.984h2.025a1.007,1.007,0,0,1,1.012.984v7.059a.989.989,0,0,1-1.012.984H13.162A.918.918,0,0,1,12.15,45.134ZM0,38.078A1.518,1.518,0,0,1,1.519,36.56H6.154a7.724,7.724,0,0,1-1.092-3.038A1.53,1.53,0,0,1,6.629,32c2,0,.834,2.409,3.424,4.48l.516.411a1.525,1.525,0,0,1,.566,1.183h0l0,5.063a1.518,1.518,0,0,1-.607,1.215l-1.08.81a5.048,5.048,0,0,1-3.036,1.013H4.556a1.509,1.509,0,0,1-1.479-1.852A1.5,1.5,0,0,1,2.251,42.1a1.509,1.509,0,0,1-.836-2.51A1.514,1.514,0,0,1,0,38.078Z" transform="translate(1710.9 173.9)" fill="#4db6a2"/></g></svg>