<svg width="18" height="18" viewBox="0 0 18 18" fill="none" xmlns="http://www.w3.org/2000/svg">
<path d="M14.961 16.2H3.03979C2.44947 16.2 1.91259 15.8889 1.60365 15.368C1.27688 14.8169 1.26531 14.1523 1.57269 13.59L7.53329 2.68633C7.83669 2.13133 8.38513 1.79999 9.00038 1.79999C9.61562 1.79999 10.1641 2.13133 10.4675 2.68633L16.4281 13.59C16.7354 14.1523 16.7239 14.8169 16.3971 15.368C16.0882 15.8889 15.5513 16.2 14.961 16.2Z" fill="#FFDE3A"/>
<path d="M8.9999 2.25001C8.54506 2.25001 8.15425 2.48772 7.92766 2.90221L1.96707 13.8058C1.73667 14.2273 1.74533 14.7255 1.99024 15.1385C2.22071 15.5271 2.60308 15.75 3.03931 15.75H14.9605C15.3967 15.75 15.7791 15.5271 16.0096 15.1385C16.2545 14.7255 16.2631 14.2273 16.0327 13.8058L10.0721 2.90221C9.84555 2.48772 9.45474 2.25001 8.9999 2.25001ZM8.9999 1.35001C9.72669 1.35001 10.4535 1.72351 10.8618 2.47051L16.8224 13.3741C17.6235 14.8394 16.5944 16.65 14.9605 16.65H3.03931C1.40542 16.65 0.376329 14.8394 1.17736 13.3741L7.13796 2.47051C7.54631 1.72351 8.27311 1.35001 8.9999 1.35001Z" fill="#3A3A3A"/>
<path d="M7.2002 5.85001H10.8002L10.1999 11.3265H7.8005L7.2002 5.85001ZM9.0002 14.85C8.53672 14.8688 8.08354 14.7101 7.733 14.4063C7.57645 14.2736 7.4511 14.108 7.36585 13.9214C7.2806 13.7347 7.23756 13.5315 7.2398 13.3263C7.23604 13.1226 7.27847 12.9206 7.36388 12.7356C7.4493 12.5506 7.57549 12.3873 7.733 12.258C8.08854 11.9656 8.53933 11.8144 8.9993 11.8332C9.45926 11.8144 9.91005 11.9656 10.2656 12.258C10.4235 12.3876 10.5499 12.5513 10.6353 12.7368C10.7207 12.9223 10.763 13.1248 10.7588 13.329C10.761 13.5342 10.718 13.7374 10.6327 13.9241C10.5475 14.1107 10.4221 14.2763 10.2656 14.409C9.9151 14.7114 9.46269 14.869 9.0002 14.85Z" fill="#3A3A3A"/>
</svg>
