<svg xmlns="http://www.w3.org/2000/svg" width="18" height="14.4" viewBox="0 0 18 14.4"><path d="M9,75.247A4.035,4.035,0,0,0,13.02,71.5l2.95-2.28A9.374,9.374,0,0,1,17,70.786a.91.91,0,0,1,0,.821A9.021,9.021,0,0,1,9,76.6,8.736,8.736,0,0,1,6.811,76.3L8.27,75.173A4.054,4.054,0,0,0,9,75.247M.175,76.881l3.109-2.4A9.316,9.316,0,0,1,1,71.607a.91.91,0,0,1,0-.821A9.021,9.021,0,0,1,9,65.8a8.666,8.666,0,0,1,4.143,1.06l3.578-2.766a.45.45,0,0,1,.631.079h0l.552.711a.45.45,0,0,1-.079.631L1.28,78.3a.45.45,0,0,1-.631-.079h0L.1,77.512a.45.45,0,0,1,.079-.631m5.167-3.994,1.105-.854A2.665,2.665,0,0,1,9.713,68.6a1.34,1.34,0,0,0-.262.793,1.312,1.312,0,0,0,.043.281l2.07-1.6A4,4,0,0,0,9,67.147a4.048,4.048,0,0,0-4.05,4.046v0a3.954,3.954,0,0,0,.391,1.691Z" transform="translate(-0.001 -63.997)" fill="#6c6c6c"/></svg>