<svg xmlns="http://www.w3.org/2000/svg" width="16" height="16" viewBox="0 0 16 16"><g transform="translate(-14.747 -712.793)"><path d="M29.194,712.793H18.53a1.778,1.778,0,0,0-1.777,1.778v3.667h2.652v-1.454a1.911,1.911,0,0,1,3.26-1.324l3.975,3.964c.012.012.025.025.037.039a1.943,1.943,0,0,1-.034,2.706l-3.981,3.961a1.908,1.908,0,0,1-1.252.551l-.068,0h-.028a1.922,1.922,0,0,1-1.91-1.9v-1.429H16.75v3.662a1.777,1.777,0,0,0,1.777,1.777H29.192a1.777,1.777,0,0,0,1.778-1.777V714.573A1.778,1.778,0,0,0,29.194,712.793Z" transform="translate(-0.223)" fill="#dadada"/><path d="M25.537,720.724l-3.974-3.964a.669.669,0,0,0-.946,0h0a.67.67,0,0,0-.194.461V719.9H15.413a.661.661,0,0,0-.666.655v0h0v1.315a.661.661,0,0,0,.665.658h5.012V725.2a.667.667,0,0,0,.677.658h0a.672.672,0,0,0,.461-.194l3.979-3.959a.694.694,0,0,0,0-.978Z" transform="translate(0 -0.419)" fill="#dadada"/></g></svg>