<svg xmlns="http://www.w3.org/2000/svg" width="18" height="18" viewBox="0 0 18 18"><g transform="translate(-1980 -1181.066)"><rect width="18" height="18" transform="translate(1980 1181.066)" fill="#aaa" opacity="0"/><path d="M15.91,80.412l-6.3-2.63a1.585,1.585,0,0,0-1.21,0l-6.3,2.63a1.576,1.576,0,0,0-.98,1.45c0,6.52,3.76,11.02,7.27,12.48a1.585,1.585,0,0,0,1.21,0c2.82-1.17,7.28-5.21,7.28-12.48a1.583,1.583,0,0,0-.97-1.45m-2.68,4.11-4.86,4.82a.41.41,0,0,1-.58,0L4.98,86.5a.4.4,0,0,1,.01-.57l.96-.96a.41.41,0,0,1,.58,0l1.56,1.58,3.61-3.58a.41.41,0,0,1,.58,0l.96.97a.42.42,0,0,1-.01.58" transform="translate(1980 1104)" fill="#aaa" stroke="rgba(0,0,0,0)" stroke-width="1"/></g></svg>