<svg xmlns="http://www.w3.org/2000/svg" width="18" height="18" viewBox="0 0 18 18"><g transform="translate(-6299 -12074)"><rect width="18" height="18" transform="translate(6299 12074)" fill="#aaa" opacity="0"/><g transform="translate(6047 11782)"><g transform="translate(253 293)"><path d="M15.958,6.542a.858.858,0,0,0-.731-.609l-4.619-.438L8.782,1.035a.837.837,0,0,0-1.565,0L5.392,5.495.773,5.932a.86.86,0,0,0-.731.609.914.914,0,0,0,.248.943L3.781,10.68,2.751,15.411a.907.907,0,0,0,.331.916.819.819,0,0,0,.935.043L8,13.885l3.982,2.485a.821.821,0,0,0,.935-.043.907.907,0,0,0,.331-.916L12.218,10.68,15.71,7.485a.914.914,0,0,0,.248-.943Zm-7.881,7.3" transform="translate(0 -0.496)" fill="#6d82c7"/></g></g></g></svg>