<svg width="14" height="10" viewBox="0 0 14 10" fill="none" xmlns="http://www.w3.org/2000/svg">
<path d="M9.08692 1.7156V3.47359H4.91308V1.7156C4.91302 1.5345 4.8614 1.35749 4.76475 1.20693C4.6681 1.05638 4.53075 0.939042 4.37007 0.869748C4.20939 0.800455 4.03258 0.782317 3.862 0.817629C3.69143 0.852942 3.53473 0.940113 3.41172 1.06813L0.257463 4.35259C0.0926079 4.52433 0 4.75722 0 5.00005C0 5.24287 0.0926079 5.47576 0.257463 5.64751L3.41172 8.93196C3.53473 9.05999 3.69143 9.14716 3.862 9.18247C4.03258 9.21778 4.20939 9.19964 4.37007 9.13035C4.53075 9.06106 4.6681 8.94372 4.76475 8.79317C4.8614 8.64261 4.91302 8.4656 4.91308 8.2845V6.5265H9.08692V8.2845C9.08698 8.4656 9.1386 8.64261 9.23525 8.79317C9.3319 8.94372 9.46925 9.06106 9.62993 9.13035C9.79061 9.19964 9.96742 9.21778 10.138 9.18247C10.3086 9.14716 10.4653 9.05999 10.5883 8.93196L13.7425 5.64751C13.9074 5.47576 14 5.24287 14 5.00005C14 4.75722 13.9074 4.52433 13.7425 4.35259L10.5883 1.06813C10.4653 0.940113 10.3086 0.852942 10.138 0.817629C9.96742 0.782317 9.79061 0.800455 9.62993 0.869748C9.46925 0.939042 9.3319 1.05638 9.23525 1.20693C9.1386 1.35749 9.08698 1.5345 9.08692 1.7156Z" fill="#6C6C6C"/>
</svg>
