<svg xmlns="http://www.w3.org/2000/svg" width="17" height="15.252" viewBox="0 0 17 15.252"><g transform="translate(-502.5 -120.486)"><path d="M13.276,32.058a.734.734,0,0,0-1.255.52v1.472h-1.5L4.808,26.6a1.011,1.011,0,0,0-.8-.392H1a.981.981,0,1,0,0,1.962h2.5l5.71,7.454a1,1,0,0,0,.8.392h2v1.469A.754.754,0,0,0,13.3,38l2.476-2.451a.725.725,0,0,0,0-1.041Zm-2.758-3.893h1.5v1.472a.737.737,0,0,0,1.255.52l2.476-2.451a.725.725,0,0,0,0-1.041l-2.476-2.451a.754.754,0,0,0-1.283.521V26.2H10.018a1.009,1.009,0,0,0-.8.393L7.951,28.249l1.224,1.634ZM3.506,34.051H1a.981.981,0,1,0,0,1.962H4.007a1.009,1.009,0,0,0,.8-.393l1.265-1.651L4.821,32.334Z" transform="translate(503 97.003)" fill="#6d82c7" stroke="rgba(0,0,0,0)" stroke-miterlimit="10" stroke-width="1"/></g></svg>