<svg xmlns="http://www.w3.org/2000/svg" width="18" height="18" viewBox="0 0 18 18"><g transform="translate(-1952 -821)"><rect width="18" height="18" transform="translate(1952 821)" fill="#aaa" opacity="0"/><path d="M14.681,76.15H1.519A1.519,1.519,0,0,1,0,74.631V63.519A1.519,1.519,0,0,1,1.519,62H14.681A1.519,1.519,0,0,1,16.2,63.519V74.631A1.519,1.519,0,0,1,14.681,76.15ZM3.544,65.772a1.772,1.772,0,1,0,1.772,1.772A1.772,1.772,0,0,0,3.544,65.772ZM2.025,74.125h12.15V70.581l-2.769-2.769a.38.38,0,0,0-.537,0L6.581,72.1,4.825,70.343a.38.38,0,0,0-.537,0L2.025,72.606Z" transform="translate(1952.9 760.924)" fill="#aaa"/></g></svg>