<svg xmlns="http://www.w3.org/2000/svg" width="18" height="18" viewBox="0 0 18 18"><g transform="translate(-889 -480)"><rect width="18" height="18" transform="translate(889 480)" fill="#919191" opacity="0"/><path d="M13.38.9H11.03A2.025,2.025,0,1,1,6.98.9H4.63A2.031,2.031,0,0,0,2.6,2.929v12.15A2.029,2.029,0,0,0,4.63,17.1H6.98a2.025,2.025,0,0,1,4.05,0h2.35a2.027,2.027,0,0,0,2.02-2.02V2.929A2.029,2.029,0,0,0,13.38.9M9.94,12.689v.69a.625.625,0,0,1-.63.62H8.69a.625.625,0,0,1-.63-.62v-.7a2.888,2.888,0,0,1-1.24-.44.47.47,0,0,1-.06-.72l.69-.69a.5.5,0,0,1,.55-.08.9.9,0,0,0,.4.09H9.68a.326.326,0,0,0,.09-.64l-1.96-.56a2.283,2.283,0,0,1-1.67-1.87,2.192,2.192,0,0,1,1.92-2.46v-.68A.627.627,0,0,1,8.69,4h.62a.627.627,0,0,1,.63.63v.69a2.777,2.777,0,0,1,1.24.45.459.459,0,0,1,.06.71l-.68.69a.519.519,0,0,1-.56.08.9.9,0,0,0-.4-.09H8.32a.331.331,0,0,0-.09.65l1.96.56a2.258,2.258,0,0,1,1.67,1.86,2.192,2.192,0,0,1-1.92,2.46" transform="translate(889 480)" fill="#919191" stroke="rgba(0,0,0,0)" stroke-width="1"/></g></svg>