<svg xmlns="http://www.w3.org/2000/svg" width="18" height="18" viewBox="0 0 18 18"><g transform="translate(-5966.58 -13493)"><rect width="18" height="18" transform="translate(5966.58 13493)" fill="#6f9ee0" opacity="0"/><path d="M105.19.9A4.84,4.84,0,0,0,100.4,5.76V7.987H93.535a1.519,1.519,0,0,0-1.519,1.519v6.075A1.519,1.519,0,0,0,93.535,17.1h11.137a1.519,1.519,0,0,0,1.519-1.519V9.506a1.519,1.519,0,0,0-1.519-1.519h-1.744V5.737a2.279,2.279,0,1,1,4.557-.029V8.24A.757.757,0,0,0,108.24,9h1.017a.757.757,0,0,0,.759-.755V5.708A4.814,4.814,0,0,0,105.195.9h0m-4.821,12.4a1.266,1.266,0,1,1-2.531,0V11.783a1.266,1.266,0,0,1,2.531,0Z" transform="translate(5874.564 13493)" fill="#6f9ee0"/></g></svg>