<svg xmlns="http://www.w3.org/2000/svg" width="18" height="18" viewBox="0 0 18 18"><g transform="translate(-1920 -740)"><rect width="18" height="18" transform="translate(1920 740)" fill="#919191" opacity="0"/><path d="M.894,15.772V14.63a.43.43,0,0,1,.427-.432H16.669a.427.427,0,0,1,.427.427v1.147a.427.427,0,0,1-.427.427H1.324a.431.431,0,0,1-.43-.427m11.754-3.454a2.19,2.19,0,0,1-.553-1.6v-.094a.214.214,0,0,1,.212-.21H13.4a.21.21,0,0,1,.212.21v.011a2.471,2.471,0,0,0,.043.478.8.8,0,0,0,.158.362.748.748,0,0,0,.308.231,1.233,1.233,0,0,0,.488.086.961.961,0,0,0,.628-.228.846.846,0,0,0,.279-.7,1.234,1.234,0,0,0-.07-.434.883.883,0,0,0-.224-.334A1.577,1.577,0,0,0,14.8,9.83a5.56,5.56,0,0,0-.635-.247,5.339,5.339,0,0,1-.875-.37,2.312,2.312,0,0,1-.614-.467,1.626,1.626,0,0,1-.362-.622,2.509,2.509,0,0,1-.118-.816,2.088,2.088,0,0,1,.622-1.658,2.478,2.478,0,0,1,1.7-.55,3.789,3.789,0,0,1,.931.111,1.975,1.975,0,0,1,.738.359,1.65,1.65,0,0,1,.483.63,2.219,2.219,0,0,1,.174.92.212.212,0,0,1-.212.212H15.6a.213.213,0,0,1-.212-.2,1.337,1.337,0,0,0-.182-.625.7.7,0,0,0-.63-.289,1.08,1.08,0,0,0-.421.072.732.732,0,0,0-.268.2.67.67,0,0,0-.137.279,1.507,1.507,0,0,0-.038.328,1.08,1.08,0,0,0,.148.582,1.312,1.312,0,0,0,.633.438l1.167.5a3.47,3.47,0,0,1,.7.4,1.871,1.871,0,0,1,.437.442,1.447,1.447,0,0,1,.228.521,2.975,2.975,0,0,1,.062.631,2.072,2.072,0,0,1-.689,1.733,3.043,3.043,0,0,1-1.921.542,2.523,2.523,0,0,1-1.826-.563Zm-5.461,0a2.185,2.185,0,0,1-.55-1.6v-.094a.211.211,0,0,1,.209-.21H7.94a.21.21,0,0,1,.209.21v.011a2.647,2.647,0,0,0,.043.478.854.854,0,0,0,.158.362.757.757,0,0,0,.311.231,1.233,1.233,0,0,0,.488.086.953.953,0,0,0,.625-.228.839.839,0,0,0,.279-.7,1.232,1.232,0,0,0-.067-.434.845.845,0,0,0-.228-.334,1.581,1.581,0,0,0-.413-.267,5.878,5.878,0,0,0-.638-.247,5.486,5.486,0,0,1-.872-.37,2.326,2.326,0,0,1-.617-.467,1.694,1.694,0,0,1-.362-.622,2.619,2.619,0,0,1-.115-.816,2.1,2.1,0,0,1,.62-1.658A2.484,2.484,0,0,1,9.067,5.1,3.789,3.789,0,0,1,10,5.211a1.985,1.985,0,0,1,.735.359,1.665,1.665,0,0,1,.485.63,2.217,2.217,0,0,1,.172.92.21.21,0,0,1-.208.212H10.143a.213.213,0,0,1-.212-.2,1.3,1.3,0,0,0-.18-.625.7.7,0,0,0-.633-.289A1.08,1.08,0,0,0,8.7,6.29a.764.764,0,0,0-.268.2.67.67,0,0,0-.137.279,1.5,1.5,0,0,0-.035.328,1.107,1.107,0,0,0,.145.582,1.342,1.342,0,0,0,.633.438l1.167.5a3.586,3.586,0,0,1,.7.4,1.93,1.93,0,0,1,.437.442,1.492,1.492,0,0,1,.225.521,2.846,2.846,0,0,1,.064.631,2.072,2.072,0,0,1-.689,1.733,3.049,3.049,0,0,1-1.921.542,2.533,2.533,0,0,1-1.832-.563ZM16.663,3.8H1.323a.43.43,0,0,1-.432-.426V2.223A.426.426,0,0,1,1.317,1.8H16.663a.426.426,0,0,1,.429.426V3.366a.43.43,0,0,1-.427.432ZM.973,7.428a3.473,3.473,0,0,1,.348-1.237,1.944,1.944,0,0,1,.773-.8A2.717,2.717,0,0,1,3.452,5.1a2.715,2.715,0,0,1,1.357.29,1.941,1.941,0,0,1,.774.8,3.494,3.494,0,0,1,.346,1.237A14.393,14.393,0,0,1,6.009,9a14.342,14.342,0,0,1-.08,1.578,3.484,3.484,0,0,1-.346,1.232,1.848,1.848,0,0,1-.774.789,2.863,2.863,0,0,1-1.357.274A2.865,2.865,0,0,1,2.094,12.6a1.851,1.851,0,0,1-.773-.789,3.463,3.463,0,0,1-.348-1.232A14.608,14.608,0,0,1,.894,9,14.66,14.66,0,0,1,.973,7.428M2.447,10.29a3.6,3.6,0,0,0,.146.863.969.969,0,0,0,.317.484.884.884,0,0,0,.542.153.886.886,0,0,0,.542-.153.96.96,0,0,0,.315-.484,3.635,3.635,0,0,0,.148-.863Q4.493,9.759,4.493,9T4.457,7.717a3.7,3.7,0,0,0-.148-.863.963.963,0,0,0-.315-.489.893.893,0,0,0-.542-.153.891.891,0,0,0-.542.153.971.971,0,0,0-.317.489,3.66,3.66,0,0,0-.146.863Q2.409,8.243,2.41,9t.037,1.289" transform="translate(1920 740)" fill="#919191" stroke="rgba(0,0,0,0)" stroke-width="1"/></g></svg>