<svg xmlns="http://www.w3.org/2000/svg" width="18" height="18" viewBox="0 0 18 18"><g transform="translate(-1012 -260)"><g transform="translate(-4341 -400)"><rect width="18" height="18" transform="translate(5353 660)" fill="#aaa" opacity="0"/><path d="M16.2,5.569A5.572,5.572,0,0,1,9.593,11.04l-.76.855a.759.759,0,0,1-.568.255H7.087v1.266a.759.759,0,0,1-.759.759H5.063v1.266A.759.759,0,0,1,4.3,16.2H.759A.759.759,0,0,1,0,15.441v-2.47a.76.76,0,0,1,.222-.537l5.12-5.12A5.569,5.569,0,1,1,16.2,5.569ZM10.631,4.05A1.519,1.519,0,1,0,12.15,2.531,1.519,1.519,0,0,0,10.631,4.05Z" transform="translate(5353.9 660.9)" fill="#aaa"/></g></g></svg>