<svg xmlns="http://www.w3.org/2000/svg" width="18.286" height="16" viewBox="0 0 18.286 16"><path d="M742.562,532.14a5.658,5.658,0,0,0-6.385,4.928,5.815,5.815,0,0,0,4.739,6.639,5.658,5.658,0,0,0,6.384-4.928c.007-.051.014-.1.02-.153h0a5.728,5.728,0,0,0-4.746-6.485Zm.8,5.991a1.579,1.579,0,0,1-1.375-1.743,1.55,1.55,0,0,1,1.676-1.43,1.58,1.58,0,0,1,1.375,1.743l0,.033a1.524,1.524,0,0,1-1.659,1.4l-.013,0Z" transform="translate(-729.086 -532.076)" fill="#b1b1b1"/><path d="M729.868,547.636l-.012,0a.837.837,0,0,1-.655-.927l.085-.695a.677.677,0,0,1,.243-.451l.425-.354,4.881-4.079,2-1.662a6.2,6.2,0,0,0,.342.973l-6.349,5.3a.27.27,0,0,0-.091.175.257.257,0,0,0,.05.182.216.216,0,0,0,.149.1.223.223,0,0,0,.185-.056l6.283-5.242a5.831,5.831,0,0,0,1.779,1.979l-1.895,1.58,0-.007a.554.554,0,0,1-.405.106l-1.316-.208-.133,1.41-.008.05a.582.582,0,0,1-.653.508l-1.317-.208-.132,1.409-.006.035a.594.594,0,0,1-.665.522h0l-.67-.106-2.093-.327-.007,0Z" transform="translate(-729.195 -532.076)" fill="#b1b1b1"/></svg>