<svg xmlns="http://www.w3.org/2000/svg" width="18" height="17" viewBox="0 0 18 17"><g transform="translate(-289.12 -412.526)"><path d="M293.124,429.526a1,1,0,0,1-1-1v-5h12v5a1,1,0,0,1-1,1Zm-1-14v-2a1,1,0,0,1,1-1h10a1,1,0,0,1,1,1v2Z" fill="#dadada"/><path d="M305.52,416.53h-14.8a1.6,1.6,0,0,0-1.6,1.6v6.8a1.6,1.6,0,0,0,1.6,1.6h.4v-3a1,1,0,0,1,1-1h12a.99.99,0,0,1,1,1v3h.4a1.6,1.6,0,0,0,1.6-1.6v-6.8A1.592,1.592,0,0,0,305.52,416.53Zm-1.65,3.995h-2.33a.751.751,0,0,1,0-1.5h2.33a.751.751,0,0,1,0,1.5Z" fill="#dadada"/></g></svg>