<svg xmlns="http://www.w3.org/2000/svg" width="19" height="19" viewBox="0 0 19 19"><g transform="translate(0.5 0.5)"><rect width="18" height="18" fill="none" stroke="rgba(0,0,0,0)" stroke-width="1"/><path d="M32.1,132.989a8.912,8.912,0,0,1,16,0,.91.91,0,0,1,0,.821,8.912,8.912,0,0,1-16,0,.91.91,0,0,1,0-.821m8,4.461a4.05,4.05,0,1,0-4.05-4.05,4.05,4.05,0,0,0,4.05,4.05h0m0-6.75a2.68,2.68,0,0,1,.712.107,1.346,1.346,0,0,0,1.882,1.882A2.694,2.694,0,1,1,40.1,130.7" transform="translate(-31.101 -124.4)" fill="#aaa" stroke="rgba(0,0,0,0)" stroke-width="1"/></g></svg>