<svg xmlns="http://www.w3.org/2000/svg" width="16" height="18" viewBox="0 0 16 18"><g transform="translate(0 0)"><path d="M32.757,108.361,32,96H45.714l-.757,12.361a1.669,1.669,0,0,1-1.711,1.5H34.468a1.669,1.669,0,0,1-1.711-1.5Z" transform="translate(-30.857 -91.861)" fill="#ff8080"/><path d="M0,2.813V1.688a.567.567,0,0,1,.571-.563H4.857L5.193.468A.849.849,0,0,1,5.957,0h4.082a.859.859,0,0,1,.768.468l.336.658h4.286A.567.567,0,0,1,16,1.688V2.813a.567.567,0,0,1-.571.563H.571A.567.567,0,0,1,0,2.813Z" transform="translate(0 0)" fill="#ff8080"/></g></svg>