<svg width="18" height="18" viewBox="0 0 18 18" fill="none" xmlns="http://www.w3.org/2000/svg">
<path d="M9.00313 0.449219C7.3121 0.449219 5.65904 0.950668 4.253 1.89015C2.84696 2.82964 1.75109 4.16497 1.10396 5.72728C0.45683 7.28958 0.287511 9.0087 0.617415 10.6672C0.947318 12.3258 1.76163 13.8492 2.95737 15.045C4.1531 16.2407 5.67657 17.055 7.33511 17.3849C8.99364 17.7148 10.7128 17.5455 12.2751 16.8984C13.8374 16.2513 15.1727 15.1554 16.1122 13.7493C17.0517 12.3433 17.5531 10.6902 17.5531 8.99922C17.5531 7.87642 17.332 6.76461 16.9023 5.72728C16.4726 4.68994 15.8428 3.7474 15.0489 2.95346C14.255 2.15951 13.3124 1.52973 12.2751 1.10005C11.2377 0.670371 10.1259 0.449219 9.00313 0.449219ZM8.04113 3.49422C8.04005 3.34345 8.09844 3.19832 8.20364 3.09031C8.30884 2.9823 8.45238 2.92011 8.60313 2.91722H9.36113C9.51107 2.91695 9.65499 2.97619 9.76129 3.08194C9.8676 3.18768 9.9276 3.33128 9.92813 3.48122V9.18122C9.92852 9.25515 9.91435 9.32844 9.88642 9.3969C9.85849 9.46536 9.81736 9.52764 9.76535 9.5802C9.71335 9.63276 9.65151 9.67456 9.58335 9.70322C9.5152 9.73187 9.44206 9.74683 9.36813 9.74722H8.60313C8.45325 9.74617 8.30978 9.68624 8.20371 9.58035C8.09763 9.47445 8.03744 9.3311 8.03613 9.18122L8.04113 3.49422ZM9.00313 14.8662C7.7572 14.8695 6.54249 14.4765 5.53452 13.7442C4.52655 13.0118 3.7775 11.9779 3.39561 10.792C3.01372 9.60601 3.01876 8.32934 3.40999 7.14643C3.80123 5.96351 4.55841 4.9356 5.57213 4.21122C5.63245 4.16623 5.7011 4.13366 5.77409 4.11538C5.84709 4.09711 5.92298 4.09349 5.99738 4.10474C6.07179 4.116 6.14322 4.1419 6.20754 4.18094C6.27187 4.21999 6.32781 4.27141 6.37213 4.33222C6.38628 4.35179 6.3993 4.37216 6.41113 4.39322L6.78513 5.05622C6.85325 5.17737 6.87458 5.31928 6.8451 5.45511C6.81561 5.59093 6.73735 5.71122 6.62513 5.79322C5.95222 6.29138 5.45359 6.9891 5.20021 7.78709C4.94684 8.58507 4.95163 9.44264 5.21391 10.2377C5.47619 11.0328 5.98259 11.7249 6.66104 12.2155C7.33948 12.7062 8.15539 12.9702 8.99263 12.9702C9.82987 12.9702 10.6458 12.7062 11.3242 12.2155C12.0027 11.7249 12.5091 11.0328 12.7713 10.2377C13.0336 9.44264 13.0384 8.58507 12.785 7.78709C12.5317 6.9891 12.033 6.29138 11.3601 5.79322C11.2511 5.7086 11.1761 5.58773 11.1486 5.45252C11.121 5.3173 11.1429 5.17671 11.2101 5.05622L11.5841 4.39322C11.6195 4.32789 11.6675 4.27019 11.7252 4.22342C11.7829 4.17664 11.8493 4.14171 11.9205 4.12063C11.9918 4.09954 12.0665 4.09272 12.1404 4.10054C12.2143 4.10836 12.2859 4.13068 12.3511 4.16622C12.3692 4.17608 12.3865 4.1871 12.4031 4.19922C13.4185 4.92106 14.1783 5.94692 14.5727 7.12868C14.9671 8.31045 14.9758 9.58698 14.5974 10.774C14.2191 11.961 13.4733 12.9971 12.4678 13.7326C11.4622 14.4682 10.249 14.8651 9.00313 14.8662Z" fill="#919191"/>
</svg>
