<svg height="12.001" viewBox="0 0 12 12.001" width="12" xmlns="http://www.w3.org/2000/svg">
  <path
    d="M392.4,378.264l-3.887-3.887,3.791-3.791a1.261,1.261,0,1,0-1.783-1.783l-3.791,3.791-3.887-3.887a1.127,1.127,0,0,0-1.594,0l-.19.19a1.127,1.127,0,0,0,0,1.593l3.887,3.887-3.791,3.791a1.261,1.261,0,1,0,1.783,1.783l3.792-3.791,3.887,3.887a1.125,1.125,0,0,0,1.593,0l.19-.19A1.127,1.127,0,0,0,392.4,378.264Z"
    data-name="Path 1969"
    fill="#fff"
    id="Path_1969" opacity="0.7" transform="translate(-380.724 -368.377)"/>
</svg>
