<svg height="32" viewBox="0 0 32 32" width="32" xmlns="http://www.w3.org/2000/svg">
  <g data-name="Group 34138" id="Group_34138" transform="translate(-167 14775)">
    <rect data-name="Rectangle 14832" fill="#fff" height="32" id="Rectangle_14832" rx="3"
          transform="translate(167 -14775)" width="32"/>
    <g data-name="Group 34136" id="Group_34136" transform="translate(175 -14767)">
      <g id="ICON" transform="translate(0)">
        <path
          d="M790.708,359.5l1.16-1.159a.5.5,0,0,1,.853.331,5.769,5.769,0,0,0,.3,1.647.5.5,0,0,1-.118.519l-.409.409a2.25,2.25,0,1,0,3.149,3.216l.012-.012,2.1-2.1a2.249,2.249,0,0,0,0-3.18,2.353,2.353,0,0,0-.323-.268.5.5,0,0,1-.217-.394,1.246,1.246,0,0,1,.367-.932l.658-.656a.5.5,0,0,1,.643-.054,4.752,4.752,0,0,1,.653,7.241l-.011.012-2.1,2.1a4.75,4.75,0,0,1-6.718-6.718Z"
          data-name="Path 5731"
          fill="#d1d1d1"
          id="Path_5731" style="isolation: isolate" transform="translate(-789.318 -351.61)"/>
        <path
          d="M808.372,350.656a2.25,2.25,0,1,0-3.149-3.215l-.012.012-2.1,2.1a2.25,2.25,0,0,0,0,3.181,2.359,2.359,0,0,0,.323.268.5.5,0,0,1,.217.394,1.245,1.245,0,0,1-.366.932l-.658.658a.5.5,0,0,1-.643.054,4.751,4.751,0,0,1-.653-7.243l.011-.012,2.1-2.1a4.75,4.75,0,0,1,6.718,6.718L809,353.563a.5.5,0,0,1-.853-.331,5.756,5.756,0,0,0-.3-1.647.5.5,0,0,1,.118-.519Z"
          data-name="Path 5732"
          fill="#d1d1d1"
          id="Path_5732" transform="translate(-795.55 -344.297)"/>
      </g>
    </g>
  </g>
</svg>
