<svg data-name="Full Screen" height="32" id="Full_Screen"
     viewBox="0 0 32 32" width="32" xmlns="http://www.w3.org/2000/svg">
  <defs>
    <clipPath id="clip-path">
      <rect data-name="Rectangle 3105" fill="none" height="18" id="Rectangle_3105" width="18"/>
    </clipPath>
  </defs>
  <rect data-name="Rectangle 3106" fill="#fff" height="32" id="Rectangle_3106" opacity="0.8" rx="5" width="32"/>
  <g data-name="Group 5692" id="Group_5692" opacity="0.7" transform="translate(7 7)">
    <g clip-path="url(#clip-path)" data-name="Group 5692" id="Group_5692-2" transform="translate(0 -0.001)">
      <path
        d="M.643,7.021H6.379a.643.643,0,0,0,.643-.643V.643A.643.643,0,0,0,6.379,0H5.742A.643.643,0,0,0,5.1.643V5.1H.643A.643.643,0,0,0,0,5.742v.637a.643.643,0,0,0,.643.643"
        data-name="Path 3536"
        fill="#919191"
        id="Path_3536"/>
      <path
        d="M17.721,7.021h5.736a.643.643,0,0,0,.643-.643V5.742a.643.643,0,0,0-.643-.643H19V.643A.643.643,0,0,0,18.358,0h-.637a.643.643,0,0,0-.643.643V6.379a.643.643,0,0,0,.643.643"
        data-name="Path 3537"
        fill="#919191"
        id="Path_3537" transform="translate(-6.1)"/>
      <path
        d="M.643,19H5.1v4.456a.643.643,0,0,0,.643.643h.637a.643.643,0,0,0,.643-.643V17.721a.643.643,0,0,0-.643-.643H.643A.643.643,0,0,0,0,17.721v.637A.643.643,0,0,0,.643,19"
        data-name="Path 3538"
        fill="#919191"
        id="Path_3538" transform="translate(0 -6.1)"/>
      <path
        d="M17.721,24.1h.637A.643.643,0,0,0,19,23.456V19h4.456a.643.643,0,0,0,.643-.643v-.636a.643.643,0,0,0-.643-.643H17.721a.643.643,0,0,0-.643.643v5.735a.643.643,0,0,0,.643.643"
        data-name="Path 3539"
        fill="#919191"
        id="Path_3539" transform="translate(-6.1 -6.1)"/>
    </g>
  </g>
</svg>
