<svg data-name="Time Ruler" height="24.137" id="Time_Ruler"
     viewBox="0 0 1324 24.137" width="1324" xmlns="http://www.w3.org/2000/svg"
     xmlns:xlink="http://www.w3.org/1999/xlink">
  <defs>
    <clipPath id="clip">
      <use xlink:href="#fill"/>
    </clipPath>
    <clipPath id="clip-2">
      <use xlink:href="#fill-2"/>
    </clipPath>
    <clipPath id="clip-3">
      <use xlink:href="#fill-3"/>
    </clipPath>
    <clipPath id="clip-4">
      <use xlink:href="#fill-4"/>
    </clipPath>
    <clipPath id="clip-5">
      <use xlink:href="#fill-5"/>
    </clipPath>
    <clipPath id="clip-6">
      <use xlink:href="#fill-6"/>
    </clipPath>
    <clipPath id="clip-7">
      <use xlink:href="#fill-7"/>
    </clipPath>
    <clipPath id="clip-8">
      <use xlink:href="#fill-8"/>
    </clipPath>
    <clipPath id="clip-9">
      <use xlink:href="#fill-9"/>
    </clipPath>
    <clipPath id="clip-10">
      <use xlink:href="#fill-10"/>
    </clipPath>
    <clipPath id="clip-11">
      <use xlink:href="#fill-11"/>
    </clipPath>
    <clipPath id="clip-12">
      <use xlink:href="#fill-12"/>
    </clipPath>
    <clipPath id="clip-13">
      <use xlink:href="#fill-13"/>
    </clipPath>
    <clipPath id="clip-14">
      <use xlink:href="#fill-14"/>
    </clipPath>
    <clipPath id="clip-15">
      <use xlink:href="#fill-15"/>
    </clipPath>
    <clipPath id="clip-16">
      <use xlink:href="#fill-16"/>
    </clipPath>
    <clipPath id="clip-17">
      <use xlink:href="#fill-17"/>
    </clipPath>
    <clipPath id="clip-18">
      <use xlink:href="#fill-18"/>
    </clipPath>
    <clipPath id="clip-19">
      <use xlink:href="#fill-19"/>
    </clipPath>
    <clipPath id="clip-20">
      <use xlink:href="#fill-20"/>
    </clipPath>
    <clipPath id="clip-21">
      <use xlink:href="#fill-21"/>
    </clipPath>
    <clipPath id="clip-22">
      <use xlink:href="#fill-22"/>
    </clipPath>
  </defs>
  <text data-name="6" fill="#919191" font-family="Montserrat-Bold, Montserrat" font-size="12" font-weight="700"
        id="_6" transform="translate(335.567 21.137)">
    <tspan x="-3.822" y="0">6</tspan>
  </text>
  <text data-name="6" fill="#919191" font-family="Montserrat-Bold, Montserrat" font-size="12" font-weight="700"
        id="_6-2" transform="translate(988.433 21.137)">
    <tspan x="-3.822" y="0">6</tspan>
  </text>
  <text fill="#919191" font-family="Montserrat-SemiBold, Montserrat" font-size="12" font-weight="600"
        id="N" transform="translate(661.455 21.137)">
    <tspan x="-4.86" y="0">N</tspan>
  </text>
  <text fill="#919191" font-family="Montserrat-SemiBold, Montserrat" font-size="12" font-weight="600"
        id="M" transform="translate(1318 21.137)">
    <tspan x="-5.73" y="0">M</tspan>
  </text>
  <text data-name="M" fill="#919191" font-family="Montserrat-SemiBold, Montserrat" font-size="12" font-weight="600"
        id="M-2" transform="translate(6 21.137)">
    <tspan x="-5.73" y="0">M</tspan>
  </text>
  <g data-name="Rectangle 1226" fill="#919191" id="Rectangle_1226" stroke="#919191" stroke-width="1"
     transform="translate(4.664 0.02)">
    <rect height="1" stroke="none" width="1314.58"/>
    <rect fill="none" width="1313.58" x="0.5" y="0.5"/>
  </g>
  <g data-name="Group 6205" id="Group_6205" transform="translate(4.664)">
    <rect data-name="Rectangle 1227" fill="#919191" height="9" id="Rectangle_1227" width="2.68"/>
    <g data-name="Rectangle 1247" fill="#b7b7b7" id="Rectangle_1247" stroke="#919191" stroke-width="1"
       transform="translate(874.709 1)">
      <rect height="6" id="fill" stroke="none" width="0.679"/>
      <path clip-path="url(#clip)"
            d="M0,0.5h0.6790065169334412M0.5,0v6M0.6790065169334412,5.5h-0.6790065169334412M0.17900651693344116,6v-6"
            fill="none"/>
    </g>
    <g data-name="Rectangle 3505" fill="#b7b7b7" id="Rectangle_3505" stroke="#919191" stroke-width="1"
       transform="translate(1092.573 1)">
      <rect height="6" id="fill-2" stroke="none" width="0.679"/>
      <path clip-path="url(#clip-2)"
            d="M0,0.5h0.6790065169334412M0.5,0v6M0.6790065169334412,5.5h-0.6790065169334412M0.17900651693344116,6v-6"
            fill="none"/>
    </g>
    <g data-name="Rectangle 1238" fill="#b7b7b7" id="Rectangle_1238" stroke="#919191" stroke-width="1"
       transform="translate(439.181 1)">
      <rect height="6" id="fill-3" stroke="none" width="0.679"/>
      <path clip-path="url(#clip-3)"
            d="M0,0.5h0.6790065169334412M0.5,0v6M0.6790065169334412,5.5h-0.6790065169334412M0.17900651693344116,6v-6"
            fill="none"/>
    </g>
    <g data-name="Rectangle 3501" fill="#b7b7b7" id="Rectangle_3501" stroke="#919191" stroke-width="1"
       transform="translate(221.316 1)">
      <rect height="6" id="fill-4" stroke="none" width="0.679"/>
      <path clip-path="url(#clip-4)"
            d="M0,0.5h0.6790065169334412M0.5,0v6M0.6790065169334412,5.5h-0.6790065169334412M0.17900651693344116,6v-6"
            fill="none"/>
    </g>
    <rect data-name="Rectangle 1242" fill="#919191" height="9" id="Rectangle_1242" transform="translate(655.946)"
          width="2.68"/>
    <rect data-name="Rectangle 1255" fill="#919191" height="9" id="Rectangle_1255" transform="translate(1311.9)"
          width="2.68"/>
    <g data-name="Rectangle 1245" fill="#b7b7b7" id="Rectangle_1245" stroke="#919191" stroke-width="1"
       transform="translate(765.827 1)">
      <rect height="6" id="fill-5" stroke="none" width="0.679"/>
      <path clip-path="url(#clip-5)"
            d="M0,0.5h0.6790065169334412M0.5,0v6M0.6790065169334412,5.5h-0.6790065169334412M0.17900651693344116,6v-6"
            fill="none"/>
    </g>
    <g data-name="Rectangle 1232" fill="#b7b7b7" id="Rectangle_1232" stroke="#919191" stroke-width="1"
       transform="translate(330.299 1)">
      <rect height="6" id="fill-6" stroke="none" width="0.679"/>
      <path clip-path="url(#clip-6)"
            d="M0,0.5h0.6790065169334412M0.5,0v6M0.6790065169334412,5.5h-0.6790065169334412M0.17900651693344116,6v-6"
            fill="none"/>
    </g>
    <g data-name="Rectangle 3499" fill="#b7b7b7" id="Rectangle_3499" stroke="#919191" stroke-width="1"
       transform="translate(112.434 1)">
      <rect height="6" id="fill-7" stroke="none" width="0.679"/>
      <path clip-path="url(#clip-7)"
            d="M0,0.5h0.6790065169334412M0.5,0v6M0.6790065169334412,5.5h-0.6790065169334412M0.17900651693344116,6v-6"
            fill="none"/>
    </g>
    <g data-name="Rectangle 1249" fill="#b7b7b7" id="Rectangle_1249" stroke="#919191" stroke-width="1"
       transform="translate(983.592 1)">
      <rect height="6" id="fill-8" stroke="none" width="0.679"/>
      <path clip-path="url(#clip-8)"
            d="M0,0.5h0.6790065169334412M0.5,0v6M0.6790065169334412,5.5h-0.6790065169334412M0.17900651693344116,6v-6"
            fill="none"/>
    </g>
    <g data-name="Rectangle 3503" fill="#b7b7b7" id="Rectangle_3503" stroke="#919191" stroke-width="1"
       transform="translate(1201.456 1)">
      <rect height="6" id="fill-9" stroke="none" width="0.679"/>
      <path clip-path="url(#clip-9)"
            d="M0,0.5h0.6790065169334412M0.5,0v6M0.6790065169334412,5.5h-0.6790065169334412M0.17900651693344116,6v-6"
            fill="none"/>
    </g>
    <g data-name="Rectangle 1236" fill="#b7b7b7" id="Rectangle_1236" stroke="#919191" stroke-width="1"
       transform="translate(548.063 1)">
      <rect height="6" id="fill-10" stroke="none" width="0.679"/>
      <path clip-path="url(#clip-10)"
            d="M0,0.5h0.6790065169334412M0.5,0v6M0.6790065169334412,5.5h-0.6790065169334412M0.17900651693344116,6v-6"
            fill="none"/>
    </g>
    <g data-name="Rectangle 1244" fill="#b7b7b7" id="Rectangle_1244" stroke="#919191" stroke-width="1"
       transform="translate(711.382 1)">
      <rect height="6" id="fill-11" stroke="none" width="0.679"/>
      <path clip-path="url(#clip-11)"
            d="M0,0.5h0.6790065169334412M0.5,0v6M0.6790065169334412,5.5h-0.6790065169334412M0.17900651693344116,6v-6"
            fill="none"/>
    </g>
    <g data-name="Rectangle 1233" fill="#b7b7b7" id="Rectangle_1233" stroke="#919191" stroke-width="1"
       transform="translate(275.861 1)">
      <rect height="6" id="fill-12" stroke="none" width="0.679"/>
      <path clip-path="url(#clip-12)"
            d="M0,0.5h0.6790065169334412M0.5,0v6M0.6790065169334412,5.5h-0.6790065169334412M0.17900651693344116,6v-6"
            fill="none"/>
    </g>
    <g data-name="Rectangle 3498" fill="#b7b7b7" id="Rectangle_3498" stroke="#919191" stroke-width="1"
       transform="translate(57.997 1)">
      <rect height="6" id="fill-13" stroke="none" width="0.679"/>
      <path clip-path="url(#clip-13)"
            d="M0,0.5h0.6790065169334412M0.5,0v6M0.6790065169334412,5.5h-0.6790065169334412M0.17900651693344116,6v-6"
            fill="none"/>
    </g>
    <g data-name="Rectangle 1248" fill="#b7b7b7" id="Rectangle_1248" stroke="#919191" stroke-width="1"
       transform="translate(929.147 1)">
      <rect height="6" id="fill-14" stroke="none" width="0.679"/>
      <path clip-path="url(#clip-14)"
            d="M0,0.5h0.6790065169334412M0.5,0v6M0.6790065169334412,5.5h-0.6790065169334412M0.17900651693344116,6v-6"
            fill="none"/>
    </g>
    <g data-name="Rectangle 3504" fill="#b7b7b7" id="Rectangle_3504" stroke="#919191" stroke-width="1"
       transform="translate(1147.011 1)">
      <rect height="6" id="fill-15" stroke="none" width="0.679"/>
      <path clip-path="url(#clip-15)"
            d="M0,0.5h0.6790065169334412M0.5,0v6M0.6790065169334412,5.5h-0.6790065169334412M0.17900651693344116,6v-6"
            fill="none"/>
    </g>
    <g data-name="Rectangle 1237" fill="#b7b7b7" id="Rectangle_1237" stroke="#919191" stroke-width="1"
       transform="translate(493.626 1)">
      <rect height="6" id="fill-16" stroke="none" width="0.679"/>
      <path clip-path="url(#clip-16)"
            d="M0,0.5h0.6790065169334412M0.5,0v6M0.6790065169334412,5.5h-0.6790065169334412M0.17900651693344116,6v-6"
            fill="none"/>
    </g>
    <g data-name="Rectangle 1246" fill="#b7b7b7" id="Rectangle_1246" stroke="#919191" stroke-width="1"
       transform="translate(820.265 1)">
      <rect height="6" id="fill-17" stroke="none" width="0.679"/>
      <path clip-path="url(#clip-17)"
            d="M0,0.5h0.6790065169334412M0.5,0v6M0.6790065169334412,5.5h-0.6790065169334412M0.17900651693344116,6v-6"
            fill="none"/>
    </g>
    <g data-name="Rectangle 1231" fill="#b7b7b7" id="Rectangle_1231" stroke="#919191" stroke-width="1"
       transform="translate(384.743 1)">
      <rect height="6" id="fill-18" stroke="none" width="0.679"/>
      <path clip-path="url(#clip-18)"
            d="M0,0.5h0.6790065169334412M0.5,0v6M0.6790065169334412,5.5h-0.6790065169334412M0.17900651693344116,6v-6"
            fill="none"/>
    </g>
    <g data-name="Rectangle 3500" fill="#b7b7b7" id="Rectangle_3500" stroke="#919191" stroke-width="1"
       transform="translate(166.879 1)">
      <rect height="6" id="fill-19" stroke="none" width="0.679"/>
      <path clip-path="url(#clip-19)"
            d="M0,0.5h0.6790065169334412M0.5,0v6M0.6790065169334412,5.5h-0.6790065169334412M0.17900651693344116,6v-6"
            fill="none"/>
    </g>
    <g data-name="Rectangle 1250" fill="#b7b7b7" id="Rectangle_1250" stroke="#919191" stroke-width="1"
       transform="translate(1038.029 1)">
      <rect height="6" id="fill-20" stroke="none" width="0.679"/>
      <path clip-path="url(#clip-20)"
            d="M0,0.5h0.6790065169334412M0.5,0v6M0.6790065169334412,5.5h-0.6790065169334412M0.17900651693344116,6v-6"
            fill="none"/>
    </g>
    <g data-name="Rectangle 3502" fill="#b7b7b7" id="Rectangle_3502" stroke="#919191" stroke-width="1"
       transform="translate(1255.893 1)">
      <rect height="6" id="fill-21" stroke="none" width="0.679"/>
      <path clip-path="url(#clip-21)"
            d="M0,0.5h0.6790065169334412M0.5,0v6M0.6790065169334412,5.5h-0.6790065169334412M0.17900651693344116,6v-6"
            fill="none"/>
    </g>
    <g data-name="Rectangle 1235" fill="#b7b7b7" id="Rectangle_1235" stroke="#919191" stroke-width="1"
       transform="translate(602.508 1)">
      <rect height="6" id="fill-22" stroke="none" width="0.679"/>
      <path clip-path="url(#clip-22)"
            d="M0,0.5h0.6790065169334412M0.5,0v6M0.6790065169334412,5.5h-0.6790065169334412M0.17900651693344116,6v-6"
            fill="none"/>
    </g>
  </g>
</svg>
