<?xml version="1.0" standalone="no"?>
<!DOCTYPE svg PUBLIC "-//W3C//DTD SVG 20010904//EN"
 "http://www.w3.org/TR/2001/REC-SVG-20010904/DTD/svg10.dtd">
<svg version="1.0" xmlns="http://www.w3.org/2000/svg"
 width="500.000000pt" height="500.000000pt" viewBox="0 0 500.000000 500.000000"
 preserveAspectRatio="xMidYMid meet">
<metadata>
Created by potrace 1.14, written by Peter Selinger 2001-2017
</metadata>
<g transform="translate(0.000000,500.000000) scale(0.100000,-0.100000)"
fill="#000000" stroke="none">
<path d="M2375 4783 c-65 -115 -140 -244 -166 -288 -48 -81 -627 -1084 -660
-1142 -20 -36 -237 -411 -267 -463 -12 -19 -36 -62 -55 -95 -52 -91 -70 -122
-127 -220 -29 -49 -64 -110 -78 -134 -14 -25 -38 -68 -55 -95 -30 -51 -39 -68
-104 -181 -19 -33 -42 -73 -52 -90 -10 -16 -29 -50 -43 -75 -14 -25 -66 -115
-115 -200 -430 -743 -583 -1010 -583 -1015 0 -3 18 6 41 21 23 14 61 37 85 50
24 14 322 187 662 386 339 198 632 369 650 379 277 159 1460 853 1496 878 55
38 168 151 206 206 65 94 130 236 143 310 3 17 10 53 16 80 16 77 6 267 -18
360 -20 73 -30 103 -64 175 -6 14 -95 169 -196 345 -101 176 -198 345 -214
375 -16 30 -36 62 -43 71 -8 8 -14 18 -14 21 0 4 -39 73 -86 155 -48 81 -95
163 -105 181 -29 49 -57 99 -78 136 -31 55 -46 76 -51 76 -3 0 -59 -93 -125
-207z"/>
<path d="M3245 1789 c-87 -16 -138 -31 -225 -69 -47 -21 -375 -207 -730 -415
-355 -207 -883 -516 -1175 -687 -291 -170 -537 -314 -545 -319 -8 -5 -127 -74
-265 -154 l-249 -145 914 0 915 0 80 46 c96 56 122 71 435 254 279 164 340
188 468 188 45 0 102 -6 126 -13 50 -15 143 -61 165 -82 94 -86 100 -95 230
-321 l42 -72 754 0 c415 0 755 2 755 5 0 3 -50 92 -111 198 -62 106 -119 206
-129 222 -9 17 -93 161 -185 320 -92 160 -176 306 -187 325 -184 323 -234 396
-333 487 -116 108 -259 183 -414 219 -78 19 -265 26 -336 13z"/>
</g>
</svg>
