<?xml version="1.0" standalone="no"?>
<!DOCTYPE svg PUBLIC "-//W3C//DTD SVG 20010904//EN"
 "http://www.w3.org/TR/2001/REC-SVG-20010904/DTD/svg10.dtd">
<svg version="1.0" xmlns="http://www.w3.org/2000/svg"
 width="261.000000pt" height="261.000000pt" viewBox="0 0 261.000000 261.000000"
 preserveAspectRatio="xMidYMid meet">
<metadata>
Created by potrace 1.14, written by Peter Selinger 2001-2017
</metadata>
<g transform="translate(0.000000,261.000000) scale(0.100000,-0.100000)"
fill="#000000" stroke="none">
<path d="M1229 2478 c-42 -73 -125 -218 -186 -323 -60 -104 -228 -395 -373
-645 -144 -250 -274 -475 -288 -500 -14 -25 -97 -168 -184 -319 -87 -150 -157
-275 -156 -277 3 -2 972 559 1158 671 14 8 101 58 195 112 238 137 312 214
359 371 23 79 16 211 -15 287 -24 58 -399 717 -423 743 -10 10 -28 -16 -87
-120z"/>
<path d="M1705 942 c-42 -4 -123 -31 -165 -55 -34 -18 -254 -147 -393 -230
-37 -22 -66 -41 -64 -43 2 -2 30 1 62 7 159 29 337 -47 485 -207 61 -67 173
-216 246 -328 42 -66 53 -76 79 -77 37 -1 572 -1 603 0 l22 1 -26 47 c-14 27
-46 82 -71 123 -25 41 -56 95 -70 120 -140 250 -270 463 -305 498 -49 51 -120
102 -142 102 -8 0 -17 4 -20 9 -14 21 -163 42 -241 33z"/>
<path d="M1033 560 c-39 -10 -98 -32 -130 -48 -131 -66 -866 -502 -848 -503
11 0 225 -1 476 -2 l455 0 210 121 c237 137 273 150 372 127 12 -3 22 -3 22 0
0 11 -80 136 -112 175 -42 51 -130 113 -188 132 -65 21 -173 21 -257 -2z"/>
</g>
</svg>
