<?xml version="1.0" standalone="no"?>
<!DOCTYPE svg PUBLIC "-//W3C//DTD SVG 20010904//EN"
 "http://www.w3.org/TR/2001/REC-SVG-20010904/DTD/svg10.dtd">
<svg version="1.0" xmlns="http://www.w3.org/2000/svg"
 width="700.000000pt" height="700.000000pt" viewBox="0 0 700.000000 700.000000"
 preserveAspectRatio="xMidYMid meet">
<metadata>
Created by potrace 1.14, written by Peter Selinger 2001-2017
</metadata>
<g transform="translate(0.000000,700.000000) scale(0.100000,-0.100000)"
fill="#000000" stroke="none">
<path d="M3510 6884 c-44 -19 -86 -58 -111 -104 -11 -19 -32 -56 -47 -81 -15
-25 -74 -128 -132 -228 -136 -236 -116 -200 -317 -551 -96 -168 -184 -317
-194 -332 -10 -15 -19 -29 -19 -31 0 -5 -22 -43 -325 -567 -100 -173 -199
-346 -221 -383 -21 -38 -46 -81 -55 -95 -21 -35 -226 -391 -347 -602 -52 -91
-125 -217 -162 -280 -37 -63 -79 -135 -92 -160 -14 -25 -57 -99 -95 -165 -39
-66 -123 -212 -188 -325 -65 -113 -159 -275 -208 -360 -49 -85 -122 -211 -162
-280 -39 -69 -116 -201 -170 -294 -73 -127 -97 -178 -98 -206 -2 -93 101 -153
187 -109 14 8 229 133 478 279 248 146 472 277 497 291 25 15 195 113 376 219
861 503 1399 817 1438 839 23 13 54 31 69 40 15 9 139 81 275 160 317 185 393
235 481 316 203 188 342 452 379 720 14 97 6 366 -12 395 -2 3 -6 21 -9 40
-14 88 -84 257 -164 395 -16 28 -62 106 -102 175 -40 69 -84 145 -98 170 -14
25 -58 101 -97 170 -40 69 -82 141 -93 160 -10 19 -68 118 -127 220 -59 102
-117 203 -130 225 -105 186 -160 275 -189 302 -55 51 -147 67 -216 37z"/>
<path d="M4531 2828 c-113 -23 -252 -73 -347 -126 -68 -38 -798 -463 -904
-526 -30 -18 -147 -87 -260 -152 -113 -65 -208 -123 -212 -128 -12 -18 2 -26
28 -16 46 18 181 50 255 60 129 19 284 14 424 -14 33 -7 140 -45 195 -70 32
-14 160 -85 174 -97 6 -5 40 -31 74 -58 235 -184 436 -444 691 -893 124 -218
155 -254 270 -311 l66 -32 755 -3 c550 -2 766 0 795 8 91 27 147 102 148 200
1 65 12 43 -258 510 -103 179 -239 413 -300 520 -62 107 -142 246 -179 309
-36 62 -66 115 -66 116 0 10 -139 229 -172 273 -58 75 -185 192 -268 246 -142
94 -302 159 -465 189 -115 22 -327 19 -444 -5z"/>
<path d="M2989 1806 c-2 -2 -33 -6 -69 -10 -96 -9 -276 -42 -350 -64 -117 -36
-119 -37 -520 -272 -96 -57 -211 -124 -255 -149 -60 -35 -649 -379 -755 -441
-8 -5 -73 -43 -143 -85 -71 -41 -132 -75 -136 -75 -4 0 -24 -15 -43 -34 -56
-55 -55 -126 2 -181 l31 -30 887 -2 c768 -1 943 3 1022 20 8 2 33 7 55 12 122
23 269 89 500 225 77 45 155 91 174 102 19 11 102 59 185 108 231 135 257 146
394 180 55 14 55 31 -5 131 -132 222 -299 392 -472 479 -51 26 -146 57 -216
71 -48 10 -278 22 -286 15z"/>
</g>
</svg>
