<svg data-name="Full Screen" height="32" id="Full_Screen"
     viewBox="0 0 32 32" width="32" xmlns="http://www.w3.org/2000/svg">
  <defs>
    <clipPath id="clip-path">
      <rect data-name="Rectangle 3105" fill="none" height="18" id="Rectangle_3105" width="18"/>
    </clipPath>
  </defs>
  <rect data-name="Rectangle 3106" fill="#fff" height="32" id="Rectangle_3106" opacity="0.8" rx="2" width="32"/>
  <g data-name="Group 5692" id="Group_5692" opacity="0.7" transform="translate(7 7)">
    <g clip-path="url(#clip-path)" data-name="Group 5692" id="Group_5692-2" transform="translate(0 -0.001)">
      <path
        d="M6.378,0H.643A.643.643,0,0,0,0,.643V6.378a.643.643,0,0,0,.643.643H1.28a.643.643,0,0,0,.643-.643V1.923H6.378a.643.643,0,0,0,.643-.643V.643A.643.643,0,0,0,6.378,0"
        data-name="Path 3536"
        fill="#919191"
        id="Path_3536" transform="translate(0 0)"/>
      <path
        d="M23.456,0H17.721a.643.643,0,0,0-.643.643V1.28a.643.643,0,0,0,.643.643h4.456V6.378a.643.643,0,0,0,.643.643h.637a.643.643,0,0,0,.643-.643V.643A.643.643,0,0,0,23.456,0"
        data-name="Path 3537"
        fill="#919191"
        id="Path_3537" transform="translate(-6.099 0)"/>
      <path
        d="M6.378,22.177H1.923V17.721a.643.643,0,0,0-.643-.643H.643A.643.643,0,0,0,0,17.721v5.736a.643.643,0,0,0,.643.643H6.378a.643.643,0,0,0,.643-.643v-.637a.643.643,0,0,0-.643-.643"
        data-name="Path 3538"
        fill="#919191"
        id="Path_3538" transform="translate(0 -6.099)"/>
      <path
        d="M23.456,17.078h-.637a.643.643,0,0,0-.643.643v4.456H17.721a.643.643,0,0,0-.643.643v.636a.643.643,0,0,0,.643.643h5.736a.643.643,0,0,0,.643-.643V17.721a.643.643,0,0,0-.643-.643"
        data-name="Path 3539"
        fill="#919191"
        id="Path_3539" transform="translate(-6.099 -6.099)"/>
    </g>
  </g>
</svg>
