<svg height="22" viewBox="0 0 18 22" width="18" xmlns="http://www.w3.org/2000/svg">
  <g data-name="map indicator" id="map_indicator" transform="translate(-1193 -520)">
    <g id="Pin" transform="translate(1193 520)">
      <path
        d="M538.868,162.338a8.894,8.894,0,0,0-9,8.784,8.606,8.606,0,0,0,1.761,5.22c1.639,2.162,7.239,8,7.239,8s5.6-5.834,7.239-8a8.607,8.607,0,0,0,1.761-5.22A8.894,8.894,0,0,0,538.868,162.338Z"
        data-name="Path 2805"
        fill="#ff5d5d"
        id="Path_2805" transform="translate(-529.868 -162.338)"/>
      <path d="M6,0A6,6,0,1,1,0,6,6,6,0,0,1,6,0Z" data-name="Path 2808" fill="#fff" id="Path_2808"
            transform="translate(3 3)"/>
    </g>
  </g>
</svg>
