<svg height="12" viewBox="0 0 12 12" width="12" xmlns="http://www.w3.org/2000/svg">
  <g id="clock" transform="translate(-8 -8)">
    <path
      d="M220,104.29a.29.29,0,0,1,.29-.29h1.161a.29.29,0,0,1,.29.29v3.331l1.536,1.118a.29.29,0,0,1,.063.406l-.682.939a.292.292,0,0,1-.406.063l-2.134-1.551a.292.292,0,0,1-.119-.235Z"
      data-name="Path 10634"
      fill="#b7b7b7"
      id="Path_10634" opacity="0.4" transform="translate(-206.871 -93.677)"/>
    <path
      d="M14,8a6,6,0,1,0,6,6A6,6,0,0,0,14,8Zm2.47,7.469-.682.939a.292.292,0,0,1-.406.063l-2.134-1.551a.292.292,0,0,1-.119-.235V10.613a.29.29,0,0,1,.29-.29h1.161a.29.29,0,0,1,.29.29v3.331l1.536,1.118a.29.29,0,0,1,.063.406Z"
      data-name="Path 10635"
      fill="#b7b7b7"
      id="Path_10635"/>
  </g>
</svg>
