<svg height="44" viewBox="0 0 44 44" width="44" xmlns="http://www.w3.org/2000/svg">
  <g id="cloud-drizzle" opacity="0.7">
    <path
      d="M33.375,360A1.375,1.375,0,0,0,32,361.375v3.438a1.375,1.375,0,0,0,2.75,0v-3.437A1.375,1.375,0,0,0,33.375,360Zm8.25,6.875a1.375,1.375,0,0,0-1.375,1.375v3.438a1.375,1.375,0,0,0,2.75,0V368.25A1.375,1.375,0,0,0,41.625,366.875ZM49.875,360a1.375,1.375,0,0,0-1.375,1.375v3.438a1.375,1.375,0,0,0,2.75,0v-3.437A1.375,1.375,0,0,0,49.875,360Zm8.25,6.875a1.375,1.375,0,0,0-1.375,1.375v3.438a1.375,1.375,0,0,0,2.75,0V368.25A1.375,1.375,0,0,0,58.125,366.875ZM66.375,360A1.375,1.375,0,0,0,65,361.375v3.438a1.375,1.375,0,0,0,2.75,0v-3.437A1.375,1.375,0,0,0,66.375,360Z"
      data-name="Path 10638"
      fill="#cbebff"
      id="Path_10638" opacity="0.7" transform="translate(-29.25 -329.063)"/>
    <path
      d="M44,19.25a8.25,8.25,0,0,1-8.25,8.25H8.25A8.229,8.229,0,0,1,5.68,11.447,9.773,9.773,0,0,1,5.5,9.625a9.592,9.592,0,0,1,18.133-4.4,6.848,6.848,0,0,1,12.117,4.4,6.711,6.711,0,0,1-.138,1.392c.043,0,.086-.017.138-.017A8.25,8.25,0,0,1,44,19.25Z"
      data-name="Path 10639"
      fill="#cbebff"
      id="Path_10639" transform="translate(0 0)"/>
  </g>
</svg>
