<svg height="36" viewBox="0 0 44 36" width="44" xmlns="http://www.w3.org/2000/svg">
  <g id="clouds" opacity="0.7">
    <path
      d="M11.11,20.25H6.6A6.676,6.676,0,0,1,0,13.5,6.676,6.676,0,0,1,6.6,6.75c.041,0,.076.014.11.014A7.625,7.625,0,0,1,21.484,5.112,6.414,6.414,0,0,1,24.2,4.5a6.7,6.7,0,0,1,6.119,9.19,7.493,7.493,0,0,0-2.172.83A9.7,9.7,0,0,0,20.9,11.25,9.967,9.967,0,0,0,11.11,20.25Z"
      data-name="Path 10636"
      fill="#cbebff"
      id="Path_10636" opacity="0.6" transform="translate(0 0)"/>
    <path
      d="M163.2,207.75a6.676,6.676,0,0,1-6.6,6.75h-22a6.754,6.754,0,0,1-2.056-13.134,8.173,8.173,0,0,1-.144-1.491,7.962,7.962,0,0,1,2.254-5.57,7.567,7.567,0,0,1,12.252,1.97,5.412,5.412,0,0,1,4.194-2.025,5.656,5.656,0,0,1,5.39,6.764c.034,0,.069-.014.11-.014A6.676,6.676,0,0,1,163.2,207.75Z"
      data-name="Path 10637"
      fill="#cbebff"
      id="Path_10637" transform="translate(-119.2 -178.5)"/>
  </g>
</svg>
