<svg id="Group_39070" data-name="Group 39070" xmlns="http://www.w3.org/2000/svg" width="20.404" height="16.762" viewBox="0 0 20.404 16.762">
  <path id="Path_12438" data-name="Path 12438" d="M691.516,381.65h-.007c.448-1.587-1.284-3.567-3.467-3.224a3.458,3.458,0,0,0-1.4.44,4.936,4.936,0,0,0-6.127-1.844,5.336,5.336,0,0,0-2.6,4.586v.057a4,4,0,0,0,.67,7.955h0a2.261,2.261,0,0,1-.3-1.09,2.287,2.287,0,0,1,2.251-2.314h1.235v-3.654a2.28,2.28,0,0,1,2.265-2.287h1.4a2.277,2.277,0,0,1,2.258,2.287v3.654h1.238a2.271,2.271,0,0,1,1.58.663l.47.465v.207a2.292,2.292,0,0,1,.205.949,2.261,2.261,0,0,1-.3,1.121h.026a4.006,4.006,0,0,0,.6-7.969Z" transform="translate(-674.539 -376.607)" fill="#919191"/>
  <path id="Path_12439" data-name="Path 12439" d="M688.772,387.388h0a.7.7,0,0,0-.483-.2h-2.8V381.94a.69.69,0,0,0-.685-.7h-1.376a.692.692,0,0,0-.688.7v5.245h-2.8a.7.7,0,0,0-.485,1.191l4.143,4.164a.724.724,0,0,0,1.023,0l0,0,4.149-4.159A.7.7,0,0,0,688.772,387.388Z" transform="translate(-673.911 -375.989)" fill="#919191"/>
</svg>
