<svg xmlns="http://www.w3.org/2000/svg" width="18" height="18" viewBox="0 0 18 18">
  <g id="envelope-open-text" transform="translate(-333.49 -384.89)">
    <path id="Path_24279" data-name="Path 24279" d="M348.11,387.13H336.86a1.127,1.127,0,0,0-1.12,1.13v5.68l5.76,4.16a1.681,1.681,0,0,0,1.98,0l5.76-4.16v-5.68A1.129,1.129,0,0,0,348.11,387.13Zm-2.25,6.76a.559.559,0,0,1-.56.56h-5.62a.559.559,0,0,1-.56-.56v-.57a.559.559,0,0,1,.56-.56h5.62a.553.553,0,0,1,.56.56Zm.01-2.82a.568.568,0,0,1-.57.56h-5.62a.559.559,0,0,1-.56-.56v-.56a.559.559,0,0,1,.56-.56h5.62a.568.568,0,0,1,.57.56Z" fill="#5673aa"/>
    <path id="Path_11884" data-name="Path 11884" d="M344.14,399.01a2.791,2.791,0,0,1-3.3,0l-7.35-5.31v7.5a1.694,1.694,0,0,0,1.69,1.69H349.8a1.7,1.7,0,0,0,1.69-1.69v-7.5Zm6.7-8.4v.01c-.05-.04-.27-.21-.6-.45v3.05l1.25-.91v-.37A1.687,1.687,0,0,0,350.84,390.61Zm-16.7.01a1.668,1.668,0,0,0-.65,1.32v.37l1.25.91v-3.06C334.41,390.4,334.19,390.57,334.14,390.62Zm8.35-5.73a4.783,4.783,0,0,0-2.31,1.24h4.62A4.783,4.783,0,0,0,342.49,384.89Z" fill="#5673aa"/>
  </g>
</svg>
