<svg xmlns="http://www.w3.org/2000/svg" width="18.177" height="19.036" viewBox="0 0 18.177 19.036">
  <g id="Group_79025" data-name="Group 79025" transform="translate(-541.287 -103.876)">
    <g id="Group_74243" data-name="Group 74243" transform="translate(541.787 113.806)">
      <path id="right-left" d="M1.074,5.367H11.806l0,2.416a.806.806,0,0,0,1.353.59L16.92,4.884a.805.805,0,0,0,0-1.181L13.162.214A.805.805,0,0,0,11.809.8l0,2.416H1.074A1.067,1.067,0,0,0,0,4.263,1.119,1.119,0,0,0,1.074,5.367Z" transform="translate(0 0.001)" fill="#6d82c7" stroke="rgba(0,0,0,0)" stroke-miterlimit="10" stroke-width="1"/>
    </g>
    <g id="Group_74244" data-name="Group 74244" transform="translate(541.787 104.394)">
      <path id="right-left-2" data-name="right-left" d="M1.074,5.367H11.806l0,2.416a.806.806,0,0,0,1.353.59L16.92,4.884a.805.805,0,0,0,0-1.181L13.162.214A.805.805,0,0,0,11.809.8l0,2.416H1.074A1.067,1.067,0,0,0,0,4.263,1.119,1.119,0,0,0,1.074,5.367Z" transform="translate(0 0.001)" fill="#6d82c7" stroke="rgba(0,0,0,0)" stroke-miterlimit="10" stroke-width="1"/>
    </g>
  </g>
</svg>
