<svg xmlns="http://www.w3.org/2000/svg" width="19" height="17.032" viewBox="0 0 19 17.032">
  <path id="shuffle" d="M14.936,33.066a.826.826,0,0,0-1.412.585v1.656h-1.69L5.41,26.921a1.137,1.137,0,0,0-.9-.441H1.127a1.1,1.1,0,1,0,0,2.207H3.944l6.424,8.386a1.127,1.127,0,0,0,.9.441h2.253v1.653a.848.848,0,0,0,1.444.586L17.752,37a.816.816,0,0,0,0-1.171Zm-3.1-4.379h1.689v1.656a.829.829,0,0,0,1.412.585l2.786-2.758a.816.816,0,0,0,0-1.171l-2.786-2.758a.848.848,0,0,0-1.444.586V26.48H11.27a1.135,1.135,0,0,0-.9.442L8.945,28.78l1.377,1.838Zm-7.889,6.62H1.127a1.1,1.1,0,1,0,0,2.207H4.508a1.135,1.135,0,0,0,.9-.442l1.423-1.858L5.424,33.376Z" transform="translate(0.5 -23.482)" fill="#6d82c7" stroke="rgba(0,0,0,0)" stroke-miterlimit="10" stroke-width="1"/>
</svg>
