<svg id="SSN" xmlns="http://www.w3.org/2000/svg" width="18" height="18" viewBox="0 0 18 18">
  <rect id="Rectangle_62665" data-name="Rectangle 62665" width="18" height="18" fill="#aaa" opacity="0"/>
  <path id="Union_689" data-name="Union 689" d="M0,13.975V12.832A.429.429,0,0,1,.432,12.4H15.777a.427.427,0,0,1,.427.432v1.143a.428.428,0,0,1-.427.427H.432A.431.431,0,0,1,0,13.975Zm6.008-3.454a2.188,2.188,0,0,1-.553-1.6V8.825a.213.213,0,0,1,.212-.21H6.762a.211.211,0,0,1,.212.21v.011a2.414,2.414,0,0,0,.043.479.8.8,0,0,0,.158.362.746.746,0,0,0,.308.23,1.228,1.228,0,0,0,.488.086A.966.966,0,0,0,8.6,9.767a.85.85,0,0,0,.279-.7,1.245,1.245,0,0,0-.07-.435A.881.881,0,0,0,8.583,8.3a1.573,1.573,0,0,0-.416-.268,5.642,5.642,0,0,0-.636-.247,5.316,5.316,0,0,1-.874-.37,2.3,2.3,0,0,1-.614-.467,1.614,1.614,0,0,1-.362-.622,2.5,2.5,0,0,1-.118-.815,2.087,2.087,0,0,1,.622-1.658,2.475,2.475,0,0,1,1.7-.55,3.76,3.76,0,0,1,.931.11,1.989,1.989,0,0,1,.738.359,1.66,1.66,0,0,1,.483.63,2.226,2.226,0,0,1,.174.92A.212.212,0,0,1,10,5.533H8.967a.213.213,0,0,1-.212-.2,1.34,1.34,0,0,0-.182-.625.7.7,0,0,0-.63-.289,1.077,1.077,0,0,0-.421.072.734.734,0,0,0-.268.2.669.669,0,0,0-.137.279,1.456,1.456,0,0,0-.038.327,1.073,1.073,0,0,0,.148.582,1.31,1.31,0,0,0,.633.438l1.167.5a3.483,3.483,0,0,1,.7.395,1.889,1.889,0,0,1,.437.442,1.462,1.462,0,0,1,.228.521,3.041,3.041,0,0,1,.062.631,2.073,2.073,0,0,1-.689,1.732,3.041,3.041,0,0,1-1.921.542A2.523,2.523,0,0,1,6.011,10.521Zm-5.461,0A2.186,2.186,0,0,1,0,8.919V8.825a.21.21,0,0,1,.209-.21H1.3a.21.21,0,0,1,.209.21v.011a2.632,2.632,0,0,0,.043.479.858.858,0,0,0,.158.362.755.755,0,0,0,.311.23,1.219,1.219,0,0,0,.488.086.958.958,0,0,0,.625-.228.842.842,0,0,0,.279-.7,1.245,1.245,0,0,0-.067-.435A.857.857,0,0,0,3.122,8.3a1.6,1.6,0,0,0-.413-.268,5.916,5.916,0,0,0-.638-.247,5.388,5.388,0,0,1-.872-.37,2.317,2.317,0,0,1-.617-.467A1.686,1.686,0,0,1,.22,6.325,2.582,2.582,0,0,1,.1,5.51a2.1,2.1,0,0,1,.62-1.658A2.482,2.482,0,0,1,2.43,3.3a3.776,3.776,0,0,1,.931.11,2,2,0,0,1,.735.359,1.667,1.667,0,0,1,.485.63,2.227,2.227,0,0,1,.172.92.21.21,0,0,1-.209.212H3.506a.213.213,0,0,1-.212-.2,1.31,1.31,0,0,0-.18-.625.7.7,0,0,0-.633-.289,1.077,1.077,0,0,0-.421.072.759.759,0,0,0-.268.2.668.668,0,0,0-.137.279,1.456,1.456,0,0,0-.035.327,1.1,1.1,0,0,0,.145.582,1.338,1.338,0,0,0,.633.438l1.167.5a3.592,3.592,0,0,1,.705.395,1.946,1.946,0,0,1,.437.442,1.506,1.506,0,0,1,.225.521A2.868,2.868,0,0,1,5,8.8a2.073,2.073,0,0,1-.689,1.732,3.047,3.047,0,0,1-1.921.542A2.53,2.53,0,0,1,.55,10.521Zm14.074.439a.212.212,0,0,1-.2-.14l-1.8-5.12H12.6v5.051a.212.212,0,0,1-.212.209h-.968a.209.209,0,0,1-.209-.209V3.661a.21.21,0,0,1,.209-.212h1.387a.209.209,0,0,1,.2.14l1.781,5h.021V3.661a.211.211,0,0,1,.212-.212h.966a.212.212,0,0,1,.212.212v7.09a.212.212,0,0,1-.212.209ZM15.772,2H.432A.429.429,0,0,1,0,1.572V.427A.426.426,0,0,1,.429,0H15.772A.428.428,0,0,1,16.2.427V1.569A.43.43,0,0,1,15.775,2Z" transform="translate(0.895 1.798)" fill="#aaa"/>
</svg>
