<svg id="tag" xmlns="http://www.w3.org/2000/svg" width="15.001" height="15.001" viewBox="0 0 15.001 15.001">
  <g id="Group_2716" data-name="Group 2716" transform="translate(0)">
    <path id="Path_1568" data-name="Path 1568" d="M.54,0H6.433a.536.536,0,0,1,.379.157l8.036,8.036a.536.536,0,0,1,0,.758h0L8.955,14.844a.536.536,0,0,1-.758,0L.161,6.808A.536.536,0,0,1,0,6.429V.536A.536.536,0,0,1,.54,0ZM3.755,4.822A1.071,1.071,0,1,0,2.683,3.75,1.071,1.071,0,0,0,3.755,4.822Z" transform="translate(-0.004)" fill="#47b68b"/>
  </g>
</svg>
