<svg width="20" height="20" viewBox="0 0 20 20" fill="none" xmlns="http://www.w3.org/2000/svg">
<path d="M11.125 1H15.0625C15.9941 1 16.75 1.75551 16.75 2.6875V10H3.25V2.6875C3.25 1.75551 4.00551 1 4.9375 1H5.5L6.625 3.25L7.75 1H8.875L10 3.25L11.125 1ZM16.75 11.125V12.25C16.75 13.491 15.741 14.5 14.5 14.5H12.25V16.75C12.25 17.991 11.241 19 10 19C8.75898 19 7.75 17.991 7.75 16.75V14.5H5.5C4.25723 14.5 3.25 13.491 3.25 12.25V11.125H16.75ZM10 17.3125C10.3094 17.3125 10.5625 17.0594 10.5625 16.75C10.5625 16.4406 10.3094 16.1875 10 16.1875C9.69063 16.1875 9.4375 16.4406 9.4375 16.75C9.4375 17.0594 9.69063 17.3125 10 17.3125Z" fill="black"/>
</svg>
