<svg width="20" height="20" viewBox="0 0 20 20" fill="none" xmlns="http://www.w3.org/2000/svg">
<path d="M13.4955 9.4644C13.2221 9.50371 12.9971 9.27619 12.9971 9.00004V8.49504C12.9971 8.2189 13.2244 8.00121 13.4919 7.93272C13.8356 7.84472 14.1527 7.66583 14.4078 7.41072C14.7819 7.03659 14.9921 6.52915 14.9921 6.00004C14.9921 5.47094 14.7819 4.9635 14.4078 4.58936C14.1527 4.33425 13.8356 4.15537 13.4919 4.06737C13.2244 3.99887 12.9971 3.78119 12.9971 3.50504V3.00004C12.9971 2.7239 13.2221 2.49637 13.4955 2.53569C14.2395 2.6427 14.9342 2.9874 15.472 3.52517C16.1284 4.18155 16.4971 5.07179 16.4971 6.00004C16.4971 6.21262 16.4778 6.42321 16.4401 6.62945C17.0142 6.79008 17.543 7.09619 17.972 7.52517C18.6284 8.18155 18.9971 9.07178 18.9971 10C18.9971 10.9283 18.6284 11.8185 17.972 12.4749C17.543 12.9039 17.0142 13.21 16.4401 13.3706C16.4778 13.5769 16.4971 13.7875 16.4971 14C16.4971 14.9283 16.1284 15.8185 15.472 16.4749C14.9342 17.0127 14.2395 17.3574 13.4955 17.4644C13.2221 17.5037 12.9971 17.2762 12.9971 17V16.495C12.9971 16.2189 13.2244 16.0012 13.4919 15.9327C13.8356 15.8447 14.1527 15.6658 14.4078 15.4107C14.7819 15.0366 14.9921 14.5292 14.9921 14C14.9921 13.4709 14.7819 12.9635 14.4078 12.5894C14.1527 12.3343 13.8356 12.1554 13.4919 12.0674C13.2244 11.9989 12.9971 11.7812 12.9971 11.505V11C12.9971 10.7239 13.2221 10.4964 13.4955 10.5357C14.2395 10.6427 14.9342 10.9874 15.472 11.5252C15.6139 11.6671 15.7424 11.8199 15.8566 11.9817C15.8998 11.9612 15.9453 11.9447 15.9919 11.9327C16.3356 11.8447 16.6527 11.6658 16.9078 11.4107C17.2819 11.0366 17.4921 10.5291 17.4921 10C17.4921 9.47094 17.2819 8.9635 16.9078 8.58936C16.6527 8.33425 16.3356 8.15537 15.9919 8.06737C15.9453 8.05542 15.8998 8.03893 15.8566 8.01838C15.7424 8.18017 15.6139 8.33301 15.472 8.47492C14.9342 9.01269 14.2395 9.35739 13.4955 9.4644Z" fill="black"/>
<path d="M5.49713 5.00004C5.22098 5.00004 4.99713 5.2239 4.99713 5.50004V6.00004C4.99713 6.27619 5.22098 6.50004 5.49713 6.50004H8.99713C9.27327 6.50004 9.49713 6.27619 9.49713 6.00004V5.50004C9.49713 5.2239 9.27327 5.00004 8.99713 5.00004H5.49713Z" fill="black"/>
<path d="M6.99713 8.50004C6.99713 9.05233 6.54941 9.50004 5.99713 9.50004C5.44484 9.50004 4.99713 9.05233 4.99713 8.50004C4.99713 7.94776 5.44484 7.50004 5.99713 7.50004C6.54941 7.50004 6.99713 7.94776 6.99713 8.50004Z" fill="black"/>
<path d="M6.99713 11.5C6.99713 12.0523 6.54941 12.5 5.99713 12.5C5.44484 12.5 4.99713 12.0523 4.99713 11.5C4.99713 10.9478 5.44484 10.5 5.99713 10.5C6.54941 10.5 6.99713 10.9478 6.99713 11.5Z" fill="black"/>
<path d="M8.49713 9.50004C9.04941 9.50004 9.49713 9.05233 9.49713 8.50004C9.49713 7.94776 9.04941 7.50004 8.49713 7.50004C7.94484 7.50004 7.49713 7.94776 7.49713 8.50004C7.49713 9.05233 7.94484 9.50004 8.49713 9.50004Z" fill="black"/>
<path d="M9.49713 11.5C9.49713 12.0523 9.04941 12.5 8.49713 12.5C7.94484 12.5 7.49713 12.0523 7.49713 11.5C7.49713 10.9478 7.94484 10.5 8.49713 10.5C9.04941 10.5 9.49713 10.9478 9.49713 11.5Z" fill="black"/>
<path d="M1.12654 8.75937C1.05507 8.49264 1.21336 8.21847 1.48009 8.147L3.41194 7.62936C3.67867 7.55789 3.95284 7.71618 4.02431 7.98292L4.15372 8.46588C4.22519 8.73261 4.0669 9.00678 3.80017 9.07825L1.86832 9.59589C1.60159 9.66736 1.32742 9.50907 1.25595 9.24234L1.12654 8.75937Z" fill="black"/>
<path d="M10.4801 6.147C10.2134 6.21847 10.0551 6.49264 10.1265 6.75937L10.2559 7.24234C10.3274 7.50907 10.6016 7.66736 10.8683 7.59589L12.8002 7.07825C13.0669 7.00678 13.2252 6.73261 13.1537 6.46588L13.0243 5.98292C12.9528 5.71618 12.6787 5.55789 12.4119 5.62936L10.4801 6.147Z" fill="black"/>
<path d="M1.12654 11.3169C1.05507 11.5836 1.21336 11.8578 1.48009 11.9293L3.41194 12.4469C3.67867 12.5184 3.95284 12.3601 4.02431 12.0933L4.15372 11.6104C4.22519 11.3436 4.0669 11.0695 3.80017 10.998L1.86832 10.4804C1.60159 10.4089 1.32742 10.5672 1.25595 10.8339L1.12654 11.3169Z" fill="black"/>
<path d="M10.4801 13.9293C10.2134 13.8578 10.0551 13.5836 10.1265 13.3169L10.2559 12.8339C10.3274 12.5672 10.6016 12.4089 10.8683 12.4804L12.8002 12.998C13.0669 13.0695 13.2252 13.3436 13.1537 13.6104L13.0243 14.0933C12.9528 14.3601 12.6787 14.5184 12.4119 14.4469L10.4801 13.9293Z" fill="black"/>
<path d="M4.99713 14C4.99713 13.7239 5.22098 13.5 5.49713 13.5H8.99713C9.27327 13.5 9.49713 13.7239 9.49713 14V14.5C9.49713 14.7762 9.27327 15 8.99713 15H5.49713C5.22098 15 4.99713 14.7762 4.99713 14.5V14Z" fill="black"/>
</svg>
