<svg xmlns="http://www.w3.org/2000/svg" xmlns:xlink="http://www.w3.org/1999/xlink" width="32" height="32" viewBox="0 0 32 32"><defs><clipPath id="a"><rect width="32" height="32" fill="#dadada" opacity="0"/></clipPath></defs><g transform="translate(-570.08 -1140.193)"><g transform="translate(570.08 1140.193)" opacity="0"><g transform="translate(0)"><g clip-path="url(#a)"><rect width="32" height="32" transform="translate(0.001 0)" fill="#dadada"/></g></g></g><path d="M9.025,149.366a3.4,3.4,0,0,1-2.99-2.272,3.329,3.329,0,0,1,1.02-3.648A.457.457,0,0,0,7.236,143q-.885-8.875-1.758-17.749l-.028-.293a1.814,1.814,0,0,0-.293.014c-.919.082-1.84.139-2.756.247a1.319,1.319,0,0,1-1.525-.748l-.046-.468a1.322,1.322,0,0,1,.8-.981l2.206-.22c.414-.027.82-.044,1.234-.076a2.262,2.262,0,0,1,2.6,1.865v0a2.409,2.409,0,0,1,.032.32q.859,8.693,1.712,17.387l.037.329c.126.018.247.032.363.059a3.286,3.286,0,0,1,2.3,1.63.4.4,0,0,0,.457.226c4.2-.423,8.395-.821,12.59-1.253a3.59,3.59,0,0,1,2.873.882,14.567,14.567,0,0,0,1.38,1.015,2.115,2.115,0,0,1,.7.759l.044.469a1.318,1.318,0,0,1-.8.978l-.469.05a2.587,2.587,0,0,1-.45-.181c-.645-.459-1.291-.916-1.908-1.406a1.354,1.354,0,0,0-1.042-.332L12.7,146.783a.294.294,0,0,0-.293.235,3.3,3.3,0,0,1-1.8,2.052c-.236.1-.478.172-.715.263l-.734.071a.615.615,0,0,0-.139-.037m3.682-6.188a4.205,4.205,0,0,0-1.993-1.406.317.317,0,0,1-.252-.308q-.36-3.768-.734-7.531a.858.858,0,0,1,.64-1.031l.009,0a.759.759,0,0,1,.236-.023l6.869-.681,6.791-.668c.725-.071,1.056.2,1.132.939q.421,4.293.844,8.578a.877.877,0,0,1-.6,1.084l-.007,0a.82.82,0,0,1-.293.027l-12.2,1.209a.372.372,0,0,1-.089,0,.415.415,0,0,1-.352-.18Zm10.121-5.863h-.1c-1.086.1-2.172.21-3.259.32a.868.868,0,0,0-.821.907v.041a.852.852,0,0,0,.956.724h.027c.544-.053,1.086-.11,1.63-.165s1.065-.1,1.6-.158a.839.839,0,0,0,.82-.859v0a.85.85,0,0,0-.85-.827Zm-13.4-6.3a.857.857,0,0,1-.023-.224q-.331-3.677-.724-7.344a1.067,1.067,0,0,1,.514-1.18l9.963-.985a1.075,1.075,0,0,1,.734,1.06q.347,3.675.725,7.344a.956.956,0,0,1-.725,1.138.992.992,0,0,1-.229.021q-4.555.413-9.1.9a1.033,1.033,0,0,1-.208.021.957.957,0,0,1-.923-.747Zm7.956-3.337h-.036q-1.171.08-2.329.233a.83.83,0,0,0-.711.926.847.847,0,0,0,.93.736c.379-.032.754-.078,1.127-.112l1.051-.1h.05a.855.855,0,0,0,.766-.884.825.825,0,0,0-.823-.795Z" transform="translate(570.583 1020.849)" fill="#dadada"/></g></svg>