<svg xmlns="http://www.w3.org/2000/svg" xmlns:xlink="http://www.w3.org/1999/xlink" width="32" height="32" viewBox="0 0 32 32"><defs><clipPath id="a"><rect width="32" height="32" fill="#aaa" opacity="0"/></clipPath></defs><g transform="translate(-570.45 -1100.193)"><g transform="translate(570.45 1100.193)" opacity="0"><g transform="translate(0 0)"><g clip-path="url(#a)"><rect width="32" height="32" transform="translate(0)" fill="#aaa"/></g></g></g><path d="M10.66,86.657v.018l.02-.018Z" transform="translate(577.941 1025.027)" fill="#aaa"/><path d="M22.437,86.522c-.542-1.34-1.1-2.681-1.611-4.021a2.21,2.21,0,0,0-1.577-1.557l-11.573.018a1.982,1.982,0,0,0-1.449,1.195c-.58,1.486-1.177,2.99-1.794,4.475a2.016,2.016,0,0,0,0,1.449c.6,1.5,1.2,3.024,1.812,4.528a1.816,1.816,0,0,0,1.776,1.177h.814a1.142,1.142,0,0,0,.018.236,1.936,1.936,0,0,0,2.21,1.593c.181-.018.363,0,.544,0,0,.272.018.489,0,.725A1.991,1.991,0,0,1,10.5,98.168a5.53,5.53,0,0,0-1.159.743,6.318,6.318,0,0,0-.9,8.875,6.061,6.061,0,0,0,6.34,2.318,6.276,6.276,0,0,0,5.017-5.307,2.953,2.953,0,0,0-.091-1.721,1.844,1.844,0,0,0-3.5.615,5.032,5.032,0,0,1-.164,1.015,2.694,2.694,0,0,1-2.953,1.865,2.758,2.758,0,0,1-1.013-5.108,9.323,9.323,0,0,0,1.557-1.1,5.419,5.419,0,0,0,1.63-3.568c.018-.38.036-.78.053-1.2,1.378.126,2.519-.144,2.754-1.829h.706a1.85,1.85,0,0,0,1.957-1.323c.562-1.412,1.122-2.825,1.7-4.238a2.086,2.086,0,0,0,0-1.684M9.271,89.709C8.745,88.134,8.221,86.575,7.694,85h1.92c.418,1.214,1.577,4.709,1.577,4.709Zm4,0c-.524-1.557-1.033-3.115-1.557-4.709h1.92l1.575,4.709Zm2.373,1.323v-.018h.018Zm1.648-1.323c-.526-1.575-1.051-3.134-1.575-4.709h1.938l1.575,4.709Z" transform="translate(572.994 1020.583)" fill="#aaa"/></g></svg>