<svg id="Showed" xmlns="http://www.w3.org/2000/svg" width="14" height="14" viewBox="0 0 14 14">
  <rect id="Rectangle_44878" data-name="Rectangle 44878" width="14" height="14" fill="#aaa" opacity="0"/>
  <path id="Path_33737" data-name="Path 33737" d="M32.077,131.881a6.931,6.931,0,0,1,12.448,0,.708.708,0,0,1,0,.639,6.931,6.931,0,0,1-12.448,0,.708.708,0,0,1,0-.639M38.3,135.35a3.15,3.15,0,1,0-3.15-3.15,3.15,3.15,0,0,0,3.15,3.15h0m0-5.25a2.085,2.085,0,0,1,.554.083,1.047,1.047,0,0,0,1.463,1.463A2.1,2.1,0,1,1,38.3,130.1" transform="translate(-31.301 -125.2)" fill="#aaa"/>
</svg>
