<svg xmlns="http://www.w3.org/2000/svg" width="17" height="17" viewBox="0 0 17 17">
  <path id="Path_41075" data-name="Path 41075" d="M43.206,3.586l6,6a2,2,0,0,1,0,2.828l-6,6a2,2,0,0,1-2.828,0l-6-6a2,2,0,0,1,0-2.828l6-6a2,2,0,0,1,2.828,0" transform="translate(-33.292 -2.5)" fill="#ffcc80" stroke="rgba(0,0,0,0)" stroke-miterlimit="10" stroke-width="1"/>
  <path id="Path_41076" data-name="Path 41076" d="M37.322,3.22l2.25,2.25a.749.749,0,0,1,0,1.06l-2.25,2.25a.749.749,0,0,1-1.06,0l-2.25-2.25a.749.749,0,0,1,0-1.06l2.25-2.25a.749.749,0,0,1,1.06,0" transform="translate(-28.292 2.5)" fill="#fff"/>
</svg>
