<svg xmlns="http://www.w3.org/2000/svg" width="32" height="32" viewBox="0 0 32 32"><defs><style>.a{fill:#b7b7b7;}.b{fill:#fff;}</style></defs><g transform="translate(18932 -5521)"><path class="a" d="M16,0A16,16,0,1,1,0,16,16,16,0,0,1,16,0Z" transform="translate(-18932 5521)"/><path class="b" d="M5.534,6.814.193,1.681a.617.617,0,0,1,0-.9l.623-.6a.678.678,0,0,1,.932,0L6,4.253,10.252.185a.678.678,0,0,1,.932,0l.623.6a.617.617,0,0,1,0,.9L6.466,6.814A.679.679,0,0,1,5.534,6.814Z" transform="translate(-18910 5540) rotate(180)"/></g></svg>