<svg xmlns="http://www.w3.org/2000/svg" width="46.783" height="18.004" viewBox="0 0 46.783 18.004"><path d="M38.8,15.813A2.188,2.188,0,1,1,40.988,18,2.189,2.189,0,0,1,38.8,15.813Zm-34.264,0A2.188,2.188,0,1,1,6.723,18,2.183,2.183,0,0,1,4.535,15.813Zm39.178.691a2.811,2.811,0,1,0-5.451,0H20.551a.256.256,0,0,1-.254-.252v-.375H18.361a.252.252,0,0,1-.252-.248v-1H9.258a2.682,2.682,0,0,0-1.451-1.4H31.1V4.367a.936.936,0,0,1,.938-.937h.537c5.068,0,5.123,0,5.635,1.061l1.275,2.85c1.441.275,3.023.566,3.623.672,2.119.395,3.678,1.762,3.678,4.057v1.625a1.81,1.81,0,0,1-1.051,1.883v.676a.249.249,0,0,1-.246.252Zm-.023-6.762a2.881,2.881,0,0,1,1.434,1.412,2.978,2.978,0,0,0,.609.061A2.986,2.986,0,0,0,43.6,9.09,2.066,2.066,0,0,0,43.689,9.742ZM32.7,4.514a.422.422,0,0,0-.123.275V6.678a.671.671,0,0,0,.615.654l4.623.25a.208.208,0,0,0,.2-.289L36.957,4.82a.61.61,0,0,0-.584-.359l-3.4-.047A.519.519,0,0,0,32.7,4.514ZM.383,16.457a.386.386,0,0,1-.377-.375v-2.6a.256.256,0,0,1,.254-.252H5.635a2.661,2.661,0,0,0-1.443,1.4h-2.8a3.25,3.25,0,0,0-.133.877v.574a.373.373,0,0,1-.367.375ZM.252,12.705A.256.256,0,0,1,0,12.451V.936A.939.939,0,0,1,.941,0H29.633a.938.938,0,0,1,.936.936v11.77Z" fill="#aaa"/></svg>