<svg xmlns="http://www.w3.org/2000/svg" width="23.146" height="23" viewBox="0 0 23.146 23"><g transform="translate(-650.334 -1003.166)"><g transform="translate(650.98 1003.963)"><path d="M673.36,1006.654v.142a1,1,0,0,1-.275.7,1.177,1.177,0,0,1-.6.375c-.6.145-1.192.319-1.786.482-.031.008-.062.019-.128.04l.154.037c.543.124,1.086.244,1.627.374a1.09,1.09,0,0,1-.058,2.14.988.988,0,0,1-.3-.026q-1.642-.33-3.283-.665c-.294-.06-.589-.123-.883-.183-.028-.005-.057-.008-.114-.017.049.192.092.367.137.544.183.725.367,1.448.534,2.175.067.284.107.576.151.864.014.092.069.114.136.141a2.338,2.338,0,0,1,1.366,2.852c-.037.105-.072.211-.11.315a.161.161,0,0,0,.05.2.851.851,0,0,1,.275.458c.138.559.286,1.116.418,1.676a1.045,1.045,0,0,1-.509,1.134.121.121,0,0,0-.065.167c.148.572.289,1.146.436,1.718a.174.174,0,0,1-.04.193.589.589,0,0,0-.143.7c.118.359.19.733.285,1.1a.22.22,0,0,1-.03.2c-.183.275-.362.55-.543.83-.018.027-.039.053-.061.086-.335-.183-.666-.367-.995-.557a.207.207,0,0,1-.064-.119q-.458-1.794-.906-3.588l-.034-.134c-.044,0-.083-.01-.124-.01a1.2,1.2,0,0,1-.963-.58.251.251,0,0,1-.028-.083c-.155-.612-.314-1.224-.458-1.839a.621.621,0,0,1,.032-.324.353.353,0,0,0-.153-.466,2.138,2.138,0,0,1-.633-.834c-.012-.023-.025-.046-.038-.068a.3.3,0,0,0-.035-.04l-1.18.3c-.776.193-1.551.383-2.326.578a.255.255,0,0,1-.207-.033q-2.027-1.215-4.055-2.426a.224.224,0,0,0-.2-.029c-.16.046-.323.083-.5.127l-.031-.124q-.775-3.117-1.558-6.241a.136.136,0,0,1,.07-.18l.01,0c.682-.4,1.36-.8,2.041-1.2a.445.445,0,0,1,.154-.055l2.464-.312c.84-.105,1.679-.214,2.519-.32a13.484,13.484,0,0,0,2.212-.458,11.545,11.545,0,0,0,3.667-1.833c.125-.092.248-.188.377-.274s.246-.15.367-.224l.151-.039a2.146,2.146,0,0,1,.473.012,1.033,1.033,0,0,1,.795.789.994.994,0,0,1-.283,1.049c-.1.092-.2.189-.3.284a.258.258,0,0,0,.113-.008c.578-.134,1.161-.254,1.733-.405a1.081,1.081,0,0,1,1.089.505l.092.153Zm-7.615,4.675a.228.228,0,0,0-.092-.13c-.27-.171-.535-.352-.82-.495a2.2,2.2,0,0,0-1.882-.117,2.249,2.249,0,0,0-1.339,2.638,2.321,2.321,0,0,0,1.017,1.375.208.208,0,0,0,.183.034q.793-.2,1.589-.4c.235-.058.472-.1.706-.162a1.366,1.366,0,0,1,1,.149c.133.07.183-.037.264-.092a.163.163,0,0,0,.059-.2c-.119-.433-.57-2.165-.684-2.6Zm3.374,5.522a.41.41,0,0,0,.325-.259,1.974,1.974,0,0,0,.076-1,1.763,1.763,0,0,0-.972-1.218.42.42,0,0,0-.507.018.993.993,0,0,1-.85.147,1.428,1.428,0,0,0-.24-.043.287.287,0,0,0-.3.335c.023.12.048.241.078.359a1.013,1.013,0,0,1-.008.528,1.428,1.428,0,0,1-.415.7c-.124.114-.124.138-.045.287a2.12,2.12,0,0,0,.574.672.164.164,0,0,0,.159.037c.351-.1,1.766-.47,2.121-.565Zm.092,1.545a.307.307,0,0,0,.2-.383.259.259,0,0,0-.021-.052c-.057-.162-.106-.183-.251-.092a2.148,2.148,0,0,1-.807.331c-.258.041-.521.048-.783.064-.128.007-.155.026-.159.155a.34.34,0,0,0,.325.356.331.331,0,0,0,.086-.006c.222-.048,1.164-.284,1.4-.376Z" transform="translate(-651.36 -1003.991)" fill="#b7b7b7" stroke="rgba(0,0,0,0)" stroke-width="1"/><path d="M650.98,1009.076c.037-.011.071-.024.106-.033l3.036-.767c.1-.025.133-.009.159.092q1.034,4.125,2.074,8.245c.009.035.015.071.021.1l-2.475.624Z" transform="translate(-650.98 -1004.347)" fill="#b7b7b7" stroke="rgba(0,0,0,0)" stroke-width="1"/></g><rect width="22" height="22" transform="translate(650.98 1003.666)" fill="#b7b7b7" stroke="rgba(0,0,0,0)" stroke-width="1" opacity="0"/></g></svg>