<svg width="14" height="14" viewBox="0 0 14 14" fill="none" xmlns="http://www.w3.org/2000/svg">
<path d="M8.85716 6.99998L11.6427 4.21417C11.8069 4.04993 11.8992 3.82719 11.8992 3.59493C11.8992 3.36268 11.8069 3.13993 11.6427 2.97569L11.0235 2.35644C10.8593 2.19223 10.6366 2.09998 10.4043 2.09998C10.1721 2.09998 9.94938 2.19223 9.78515 2.35644L7.00037 5.14225L4.214 2.35644C4.04977 2.19223 3.82705 2.09998 3.59481 2.09998C3.36257 2.09998 3.13985 2.19223 2.97562 2.35644L2.35643 2.97569C2.19222 3.13993 2.09998 3.36268 2.09998 3.59493C2.09998 3.82719 2.19222 4.04993 2.35643 4.21417L5.142 6.99998L2.35722 9.78578C2.19301 9.95002 2.10077 10.1728 2.10077 10.405C2.10077 10.6373 2.19301 10.86 2.35722 11.0243L2.97641 11.6435C3.14064 11.8077 3.36337 11.9 3.5956 11.9C3.82784 11.9 4.05057 11.8077 4.2148 11.6435L7.00037 8.8577L9.78595 11.6435C9.95018 11.8077 10.1729 11.9 10.4051 11.9C10.6374 11.9 10.8601 11.8077 11.0243 11.6435L11.6435 11.0243C11.8077 10.86 11.9 10.6373 11.9 10.405C11.9 10.1728 11.8077 9.95002 11.6435 9.78578L8.85716 6.99998Z" fill="#1D1D1D"/>
</svg>
