<svg width="14" height="14" viewBox="0 0 14 14" fill="none" xmlns="http://www.w3.org/2000/svg">
<path d="M4.72064 11.7223L0.831754 7.83345C0.766729 7.76845 0.715147 7.69127 0.679954 7.60633C0.644762 7.52139 0.626648 7.43034 0.626648 7.3384C0.626648 7.24645 0.644762 7.15541 0.679954 7.07047C0.715147 6.98552 0.766729 6.90835 0.831754 6.84334L1.82342 5.85479C1.88842 5.78976 1.9656 5.73818 2.05054 5.70299C2.13549 5.66779 2.22653 5.64968 2.31848 5.64968C2.41042 5.64968 2.50146 5.66779 2.58641 5.70299C2.67135 5.73818 2.74853 5.78976 2.81353 5.85479L5.21531 8.25656L11.1848 2.28323C11.2498 2.21821 11.3269 2.16662 11.4119 2.13143C11.4968 2.09624 11.5879 2.07812 11.6798 2.07812C11.7718 2.07812 11.8628 2.09624 11.9477 2.13143C12.0327 2.16662 12.1099 2.21821 12.1749 2.28323L13.165 3.27334C13.23 3.33835 13.2816 3.41552 13.3168 3.50047C13.352 3.58541 13.3701 3.67645 13.3701 3.7684C13.3701 3.86034 13.352 3.95139 13.3168 4.03633C13.2816 4.12127 13.23 4.19845 13.165 4.26345L5.71075 11.7192C5.64575 11.7843 5.56857 11.8358 5.48363 11.871C5.39869 11.9062 5.30764 11.9243 5.2157 11.9243C5.12375 11.9243 5.03271 11.9062 4.94777 11.871C4.86282 11.8358 4.78565 11.7843 4.72064 11.7192V11.7223Z" fill="#1D1D1D"/>
</svg>
