<svg width="14" height="14" viewBox="0 0 14 14" fill="none" xmlns="http://www.w3.org/2000/svg">
<path d="M1.47107 1.94463L1.47107 2.72241C1.47106 2.774 1.48132 2.82509 1.50125 2.87268C1.52119 2.92027 1.55039 2.96342 1.58716 2.99961C1.62394 3.03581 1.66754 3.06432 1.71545 3.0835C1.76335 3.10267 1.81459 3.11212 1.86618 3.11129L12.1344 3.1113C12.186 3.11212 12.2372 3.10267 12.2851 3.0835C12.333 3.06433 12.3766 3.03581 12.4134 2.99962C12.4502 2.96342 12.4794 2.92027 12.4993 2.87268C12.5193 2.82509 12.5295 2.77401 12.5295 2.72241L12.5295 1.94463C12.5295 1.89303 12.5193 1.84195 12.4993 1.79436C12.4794 1.74677 12.4502 1.70362 12.4134 1.66742C12.3766 1.63123 12.333 1.60271 12.2851 1.58354C12.2372 1.56437 12.186 1.55492 12.1344 1.55574L9.17107 1.55574L8.94318 1.10152C8.89324 1.00372 8.81714 0.921692 8.72336 0.864568C8.62957 0.807445 8.52177 0.777464 8.41196 0.777963L5.59329 0.777962C5.48353 0.776727 5.37562 0.806325 5.28185 0.863387C5.18807 0.920449 5.11219 1.00269 5.06285 1.10074L4.82951 1.55574L1.86618 1.55574C1.81459 1.55491 1.76335 1.56436 1.71545 1.58354C1.66754 1.60271 1.62394 1.63122 1.58716 1.66742C1.55039 1.70361 1.52119 1.74676 1.50126 1.79435C1.48132 1.84195 1.47106 1.89303 1.47107 1.94463Z" fill="#919191"/>
<path d="M2.24763 3.63945L2.77263 12.1857L2.7734 12.1857C2.80335 12.4763 2.94226 12.7448 3.16217 12.9372C3.38209 13.1295 3.6667 13.2315 3.95874 13.2224L10.0425 13.2225C10.3347 13.2317 10.6195 13.1298 10.8396 12.9374C11.0597 12.7451 11.1987 12.4764 11.2286 12.1857L11.7536 3.63945L2.24763 3.63945Z" fill="#919191"/>
</svg>
