<svg width="14" height="14" viewBox="0 0 14 14" fill="none" xmlns="http://www.w3.org/2000/svg">
<path d="M11.4202 1.11882L12.8816 2.58259C13.0988 2.80273 13.22 3.09986 13.2189 3.4091C13.2177 3.71833 13.0943 4.01455 12.8754 4.23304L12.8816 4.23304L11.8215 5.29316C11.7665 5.34811 11.692 5.37896 11.6142 5.37896C11.5365 5.37896 11.462 5.34811 11.407 5.29316L8.7073 2.59349C8.65235 2.5385 8.62147 2.46394 8.62147 2.3862C8.62147 2.30846 8.65235 2.23392 8.7073 2.17894L9.76739 1.11882C9.98701 0.900484 10.2841 0.777927 10.5938 0.777927C10.9035 0.777927 11.2006 0.900485 11.4202 1.11882Z" fill="#919191"/>
<path d="M8.04654 3.25115L10.7462 5.95082C10.8001 6.00601 10.8301 6.08025 10.8297 6.15742C10.8292 6.23458 10.7984 6.30846 10.7438 6.36304L4.2035 12.9042L1.4245 13.2153C1.34846 13.2238 1.27149 13.2173 1.19797 13.1961C1.12444 13.1749 1.05583 13.1394 0.996024 13.0916C0.936219 13.0439 0.886405 12.9848 0.849431 12.9178C0.812456 12.8508 0.789014 12.7772 0.780502 12.7012C0.775228 12.658 0.775228 12.6144 0.780502 12.5713L1.09163 9.79226L7.63273 3.25114C7.68768 3.19643 7.76206 3.16572 7.83961 3.16572C7.91715 3.16572 7.99158 3.19643 8.04654 3.25115Z" fill="#919191"/>
</svg>
