<svg width="6" height="18" viewBox="0 0 6 18" fill="none" xmlns="http://www.w3.org/2000/svg">
<path d="M5.67134 14.8784C5.67134 15.4068 5.51464 15.9234 5.22105 16.3628C4.92746 16.8022 4.51018 17.1446 4.02196 17.3468C3.53375 17.5491 2.99653 17.602 2.47824 17.4989C1.95995 17.3958 1.48387 17.1413 1.1102 16.7677C0.736539 16.394 0.482071 15.9179 0.378977 15.3996C0.275883 14.8813 0.328794 14.3441 0.53102 13.8559C0.733246 13.3677 1.07571 12.9504 1.51509 12.6568C1.95447 12.3632 2.47105 12.2065 2.99949 12.2065C3.70787 12.2073 4.387 12.4891 4.8879 12.99C5.38879 13.4909 5.67055 14.17 5.67134 14.8784ZM0.636621 1.29313L1.0906 10.3766C1.10037 10.5821 1.18894 10.776 1.33792 10.9179C1.48689 11.0598 1.68481 11.1388 1.89055 11.1386H4.10743C4.31317 11.1388 4.51108 11.0598 4.66006 10.9179C4.80903 10.776 4.89761 10.5821 4.90738 10.3766L5.36136 1.29313C5.36706 1.1846 5.35059 1.07604 5.31296 0.974085C5.27532 0.87213 5.2173 0.778913 5.14244 0.700124C5.06758 0.621335 4.97745 0.558626 4.87755 0.515824C4.77766 0.473022 4.67008 0.451025 4.5614 0.451175H1.43758C1.32881 0.450889 1.22113 0.472786 1.12111 0.515527C1.0211 0.558269 0.930849 0.620957 0.855883 0.699761C0.780917 0.778564 0.722808 0.871827 0.685108 0.97385C0.647409 1.07587 0.63091 1.18451 0.636621 1.29313Z" fill="#E66767"/>
</svg>
