<svg xmlns="http://www.w3.org/2000/svg" width="26" height="26" viewBox="0 0 26 26">
  <g id="Group_98601" data-name="Group 98601" transform="translate(-568 -894)">
    <rect id="Rectangle_67935" data-name="Rectangle 67935" width="26" height="26" rx="2" transform="translate(568 894)" fill="#f3f3f3"/>
    <path id="times" d="M6.9,85l2.843-2.843a.894.894,0,0,0,0-1.264l-.632-.632a.894.894,0,0,0-1.264,0L5,83.1,2.157,80.262a.894.894,0,0,0-1.264,0l-.632.632a.894.894,0,0,0,0,1.264L3.1,85,.262,87.843a.894.894,0,0,0,0,1.264l.632.632a.894.894,0,0,0,1.264,0L5,86.9l2.843,2.843a.894.894,0,0,0,1.264,0l.632-.632a.894.894,0,0,0,0-1.264Z" transform="translate(576 822)" fill="#aaa"/>
  </g>
</svg>
