<svg width="28" height="28" viewBox="0 0 28 28" fill="none" xmlns="http://www.w3.org/2000/svg">
<path d="M16.3186 18.2039L16.2976 18.2159L1.51861 26.8319C1.41582 26.8919 1.33566 26.9841 1.29051 27.0943C1.24535 27.2044 1.23771 27.3264 1.26878 27.4413C1.29984 27.5562 1.36787 27.6577 1.46237 27.7301C1.55687 27.8025 1.67257 27.8418 1.79161 27.8419H8.83961C9.79897 27.8415 10.741 27.5864 11.5696 27.1029L14.5126 25.3859C14.8321 25.1999 15.1851 25.0786 15.5514 25.0291C15.9177 24.9796 16.2902 25.0028 16.6476 25.0973C17.005 25.1919 17.3402 25.3559 17.6342 25.5801C17.9281 25.8043 18.1749 26.0842 18.3606 26.4039L18.3676 26.4149L18.6736 26.9429C18.8324 27.2167 19.0604 27.444 19.3347 27.602C19.609 27.7599 19.9201 27.843 20.2366 27.8429H26.3186C26.4774 27.8438 26.6336 27.8026 26.7713 27.7236C26.9091 27.6446 27.0235 27.5305 27.1029 27.393C27.1823 27.2555 27.2239 27.0994 27.2235 26.9406C27.2231 26.7819 27.1807 26.626 27.1006 26.4889L23.4186 20.1039C22.7285 18.911 21.5931 18.0408 20.2618 17.6846C18.9305 17.3283 17.5123 17.5151 16.3186 18.2039Z" fill="url(#paint0_linear_246_1121)"/>
<path d="M8.64844 22.6789C13.5764 19.8009 16.2164 22.3189 18.6984 26.9039C18.8545 27.1899 19.0849 27.4285 19.3653 27.5945C19.6456 27.7604 19.9656 27.8477 20.2914 27.8469H26.3224C26.4814 27.8479 26.6377 27.8067 26.7756 27.7277C26.9135 27.6486 27.028 27.5344 27.1074 27.3968C27.1869 27.2591 27.2285 27.1029 27.2279 26.9439C27.2274 26.785 27.1848 26.629 27.1044 26.4919L23.4194 20.1069C23.0777 19.5153 22.6228 18.9969 22.0806 18.5812C21.5384 18.1655 20.9197 17.8607 20.2596 17.6842C19.5996 17.5078 18.9113 17.4631 18.234 17.5528C17.5568 17.6425 16.9038 17.8648 16.3124 18.2069L16.2914 18.2189L8.64844 22.6789Z" fill="url(#paint1_linear_246_1121)"/>
<path d="M13.0609 0.454494L0.846909 21.6085C0.786753 21.7118 0.762517 21.8321 0.777986 21.9507C0.793455 22.0693 0.847758 22.1793 0.932411 22.2638C1.01706 22.3482 1.1273 22.4022 1.24589 22.4173C1.36448 22.4325 1.48475 22.4079 1.58791 22.3475L16.3189 13.7475C17.5091 13.0547 18.3759 11.9181 18.729 10.5871C19.0822 9.25601 18.893 7.83921 18.2029 6.64749L14.6249 0.454494C14.5463 0.316461 14.4325 0.201702 14.2952 0.121875C14.1578 0.0420491 14.0018 0 13.8429 0C13.684 0 13.528 0.0420491 13.3907 0.121875C13.2533 0.201702 13.1395 0.316461 13.0609 0.454494Z" fill="url(#paint2_linear_246_1121)"/>
<defs>
<linearGradient id="paint0_linear_246_1121" x1="3.22399" y1="28.2976" x2="4.85778" y2="18.4221" gradientUnits="userSpaceOnUse">
<stop stop-color="#6F9EE0"/>
<stop offset="1" stop-color="#255BB9"/>
</linearGradient>
<linearGradient id="paint1_linear_246_1121" x1="9.57741" y1="18.9656" x2="24.7879" y2="18.5985" gradientUnits="userSpaceOnUse">
<stop stop-color="#6F9EE0"/>
<stop offset="1" stop-color="#255BB9"/>
</linearGradient>
<linearGradient id="paint2_linear_246_1121" x1="9.83822" y1="0" x2="0.482198" y2="23.6353" gradientUnits="userSpaceOnUse">
<stop stop-color="#6F9EE0"/>
<stop offset="1" stop-color="#255BB9"/>
</linearGradient>
</defs>
</svg>
