<svg height="21" viewBox="0 0 21 21" width="21" xmlns="http://www.w3.org/2000/svg">
  <g data-name="Group 33766" id="Group_33766" transform="translate(-754 -931)">
    <path d="M10.5,0A10.5,10.5,0,1,1,0,10.5,10.5,10.5,0,0,1,10.5,0Z" data-name="Path 11901" fill="#f96c62"
          id="Path_11901" opacity="0.2" transform="translate(754 931)"/>
    <path d="M9.13,0A9.13,9.13,0,1,1,0,9.13,9.13,9.13,0,0,1,9.13,0Z" data-name="Path 11902" fill="#f96c62"
          id="Path_11902" opacity="0.4" transform="translate(755.37 932.37)"/>
    <path d="M5.478,0A5.478,5.478,0,1,1,0,5.478,5.478,5.478,0,0,1,5.478,0Z" data-name="Path 11903" fill="#fff"
          id="Path_11903" transform="translate(759.022 936.023)"/>
    <path
      d="M-1.942-8.548a1.614,1.614,0,0,1,.966.469,1.293,1.293,0,0,1,.336.907A1.432,1.432,0,0,1-.86-6.4a1.526,1.526,0,0,1-.668.565,2.558,2.558,0,0,1-1.1.212,3.77,3.77,0,0,1-1-.134,2.567,2.567,0,0,1-.832-.38l.431-.849a2.09,2.09,0,0,0,.633.318,2.441,2.441,0,0,0,.736.113A1.167,1.167,0,0,0-2-6.717a.517.517,0,0,0,.24-.455q0-.589-.9-.589h-.507v-.733l.986-1.116H-4.215v-.89H-.86v.719Z"
      data-name="Path 12455"
      fill="#f96c62"
      id="Path_12455" transform="translate(766.975 949.603)"/>
  </g>
</svg>
