<svg data-name="Group 23457" height="32" id="Group_23457" viewBox="0 0 32 32" width="32"
     xmlns="http://www.w3.org/2000/svg">
  <g data-name="Group 12143" id="Group_12143" transform="translate(-1640 -124)">
    <rect data-name="Rectangle 6257" fill="#fff" height="32" id="Rectangle_6257" rx="3" transform="translate(1640 124)"
          width="32"/>
    <path
      d="M-543.333,3786.034a8,8,0,0,0-8,8,8,8,0,0,0,8,8,8,8,0,0,0,8-8A8,8,0,0,0-543.333,3786.034Zm1.238,12.551a1.238,1.238,0,0,1-1.238,1.238,1.238,1.238,0,0,1-1.238-1.238v-5.068a1.238,1.238,0,0,1,1.238-1.238,1.238,1.238,0,0,1,1.238,1.238Zm-1.238-7.4a1.416,1.416,0,0,1-1.416-1.416,1.416,1.416,0,0,1,1.416-1.416,1.416,1.416,0,0,1,1.416,1.416A1.416,1.416,0,0,1-543.333,3791.19Z"
      data-name="Path 10571"
      fill="#dadada"
      id="Path_10571" opacity="0.98" transform="translate(2199.334 -3654.034)"/>
  </g>
</svg>
