<svg height="18" viewBox="0 0 19 18" width="19" xmlns="http://www.w3.org/2000/svg">
  <path
    d="M7.594,1h2.813a.842.842,0,0,1,.844.844V6.75h3.083a.7.7,0,0,1,.5,1.2L9.482,13.3a.681.681,0,0,1-.96,0L3.168,7.949a.7.7,0,0,1,.5-1.2H6.75V1.844A.842.842,0,0,1,7.594,1ZM18,13.219v3.938a.842.842,0,0,1-.844.844H.844A.842.842,0,0,1,0,17.156V13.219a.842.842,0,0,1,.844-.844H6L7.724,14.1a1.8,1.8,0,0,0,2.552,0L12,12.375h5.157A.842.842,0,0,1,18,13.219Zm-4.359,3.094a.7.7,0,1,0-.7.7A.705.705,0,0,0,13.641,16.313Zm2.25,0a.7.7,0,1,0-.7.7A.705.705,0,0,0,15.891,16.313Z"
    fill="#dadada"
    id="download" stroke="rgba(0,0,0,0)" stroke-width="1" transform="translate(0.5 -0.5)"/>
</svg>
