<svg data-name="Group 56614" height="16" id="Group_56614" viewBox="0 0 16 16" width="16"
     xmlns="http://www.w3.org/2000/svg">
  <path
    d="M690.046,380.822l-1.88-1.882a1.507,1.507,0,0,0-2.125,0l-1.363,1.363h0a.377.377,0,0,0,0,.533l3.471,3.471h0a.377.377,0,0,0,.532,0l1.363-1.363h-.008A1.505,1.505,0,0,0,690.046,380.822Z"
    data-name="Path 7775"
    fill="#dadada"
    id="Path_7775" transform="translate(-674.479 -378.501)"/>
  <path
    d="M689.819,384.4l-3.471-3.471h0a.376.376,0,0,0-.532,0l-8.41,8.41-.4,3.573a.688.688,0,0,0,0,.167.75.75,0,0,0,.828.661l3.573-.4,8.409-8.41h0A.377.377,0,0,0,689.819,384.4Z"
    data-name="Path 7776"
    fill="#dadada"
    id="Path_7776" transform="translate(-676.999 -377.746)"/>
</svg>
