<svg data-name="Group 53204" height="18" id="Group_53204" viewBox="0 0 18 18" width="18"
     xmlns="http://www.w3.org/2000/svg">
  <path
    d="M-64.342,911.21v2a.508.508,0,0,1-.5.5h-3.25a.248.248,0,0,0-.25.25v3.25a.508.508,0,0,1-.5.5h-2a.5.5,0,0,1-.5-.5v-5.5a1,1,0,0,1,1-1h5.5A.5.5,0,0,1-64.342,911.21Z"
    data-name="Path 31241"
    fill="#dadada"
    id="Path_31241" transform="translate(71.342 -910.71)"/>
  <path
    d="M-64.342,926.21v2a.508.508,0,0,1-.5.5h-5.5a1,1,0,0,1-1-1v-5.5a.5.5,0,0,1,.5-.5h2a.5.5,0,0,1,.5.5v3.25a.254.254,0,0,0,.25.25h3.25A.5.5,0,0,1-64.342,926.21Z"
    data-name="Path 31242"
    fill="#dadada"
    id="Path_31242" transform="translate(71.342 -910.71)"/>
  <path
    d="M-53.342,922.21v5.5a1,1,0,0,1-1,1h-5.5a.5.5,0,0,1-.5-.5v-2a.5.5,0,0,1,.5-.5h3.25a.254.254,0,0,0,.25-.25v-3.25a.5.5,0,0,1,.5-.5h2A.5.5,0,0,1-53.342,922.21Z"
    data-name="Path 31243"
    fill="#dadada"
    id="Path_31243" transform="translate(71.342 -910.71)"/>
  <path
    d="M-53.342,911.71v5.5a.508.508,0,0,1-.5.5h-2a.5.5,0,0,1-.5-.5v-3.25a.248.248,0,0,0-.25-.25h-3.25a.5.5,0,0,1-.5-.5v-2a.5.5,0,0,1,.5-.5h5.5A1,1,0,0,1-53.342,911.71Z"
    data-name="Path 31244"
    fill="#dadada"
    id="Path_31244" transform="translate(71.342 -910.71)"/>
</svg>
