<svg xmlns="http://www.w3.org/2000/svg" width="18" height="18" viewBox="0 0 18 18"><g transform="translate(-2053.829 -954.683)"><rect width="18" height="18" transform="translate(2053.829 954.683)" fill="#919191" opacity="0"/><path d="M339.715,10.939A5.293,5.293,0,0,0,337.4,8.051a5.016,5.016,0,0,0-1.727-.621,5.448,5.448,0,0,0,.312-1.758,5.444,5.444,0,0,0-1.279-3.5.246.246,0,0,0-.312-.054.265.265,0,0,0-.111.3,3.76,3.76,0,1,1-7.294,1.2,3.962,3.962,0,0,1,.207-1.2.265.265,0,0,0-.111-.3.246.246,0,0,0-.312.054,5.455,5.455,0,0,0-1.284,3.505,5.388,5.388,0,0,0,.312,1.758,5.119,5.119,0,0,0-1.727.617,5.352,5.352,0,0,0-2.324,2.889.26.26,0,0,0,.111.3.245.245,0,0,0,.312-.047,3.638,3.638,0,0,1,.914-.784,3.7,3.7,0,0,1,5.071,1.315c.018.03.034.06.051.09a3.9,3.9,0,0,1-1.374,5.243,3.644,3.644,0,0,1-1.121.418.263.263,0,0,0-.2.253.255.255,0,0,0,.2.25,5.086,5.086,0,0,0,5.015-1.865,5.1,5.1,0,0,0,5.014,1.867.253.253,0,0,0,.2-.25.26.26,0,0,0-.2-.253,3.5,3.5,0,0,1-1.117-.418,3.889,3.889,0,0,1-1.374-5.243,3.706,3.706,0,0,1,5.038-1.454l.087.049a3.794,3.794,0,0,1,.91.784.252.252,0,0,0,.423-.259M330.7,12.085a1.5,1.5,0,1,1,1.5-1.5,1.484,1.484,0,0,1-1.467,1.5H330.7m3.059,1.8a2.888,2.888,0,0,0,.851,1.9,6.482,6.482,0,0,0,2.6-4.793,2.651,2.651,0,0,0-2.049.273,4.543,4.543,0,0,1-1.4,2.617m-4.111-7.655a4.072,4.072,0,0,1,2.172,0,2.811,2.811,0,0,0,1.48-1.62,6.513,6.513,0,0,0-5.135,0,2.89,2.89,0,0,0,1.479,1.62Zm-2.8,9.555a2.882,2.882,0,0,0,.848-1.907,4.469,4.469,0,0,1-1.4-2.609,2.656,2.656,0,0,0-2.049-.274,6.478,6.478,0,0,0,2.6,4.793Z" transform="translate(1732.097 953.6)" fill="#919191"/></g></svg>