<svg xmlns="http://www.w3.org/2000/svg" width="18.001" height="18" viewBox="0 0 18.001 18"><g transform="translate(-1633.999 -203)"><rect width="18" height="18" transform="translate(1634 203)" fill="#919191" opacity="0"/><path d="M4.023,6.2l-.349,1.3a2.652,2.652,0,0,0-.068.967l-.99.815A.254.254,0,0,1,2.2,9.041l.434-2.157a.254.254,0,0,0-.225-.3L.224,6.369A.255.255,0,0,1,.107,5.9L1.94,4.686A.255.255,0,0,0,2,4.312L.6,2.613A.255.255,0,0,1,.844,2.2L3,2.636a.255.255,0,0,0,.3-.225L3.517.221A.255.255,0,0,1,3.982.1L5.2,1.937a.255.255,0,0,0,.374.056l1.7-1.4a.254.254,0,0,1,.411.247L7.365,2.42c-.076.086-.153.171-.222.264l-.9,1.209-.3.4A2.713,2.713,0,0,0,4.023,6.2Zm13.91,3.727-.349,1.3a1.762,1.762,0,0,1-.494.826,1.881,1.881,0,0,1-.246.2l-.393,1.469a.9.9,0,0,1-1.1.636l-.869-.233a.9.9,0,0,1-.636-1.1l.233-.869L7.12,10.292l-.233.869a.9.9,0,0,1-1.1.636l-.869-.233a.9.9,0,0,1-.636-1.1l.393-1.469A1.874,1.874,0,0,1,4.557,8.7a1.762,1.762,0,0,1-.015-.962l.349-1.3A1.787,1.787,0,0,1,5.929,5.247a1.809,1.809,0,0,1,.52-.133l.51-.681.9-1.209a3.168,3.168,0,0,1,1.067-.91,3.088,3.088,0,0,1,.423-.183,3.122,3.122,0,0,1,.907-.17,3.175,3.175,0,0,1,.94.107l3.45.924a3.17,3.17,0,0,1,.868.378,3.133,3.133,0,0,1,1.445,2.292l.179,1.5.1.845a1.814,1.814,0,0,1,.64.842,1.776,1.776,0,0,1,.049,1.08ZM7.182,6.582a.849.849,0,0,0-1.1.634.849.849,0,0,0,.637,1.1c.522.14,1.281.436,1.42-.084a1.731,1.731,0,0,0-.955-1.649Zm8.173.792-.179-1.5a1.35,1.35,0,0,0-.991-1.144l-3.45-.924a1.35,1.35,0,0,0-1.43.5L8.4,5.51l4.837,1.3Zm.52,1.537a1.731,1.731,0,0,0-1.652.95c-.139.52.666.643,1.188.783a.9.9,0,1,0,.464-1.733Z" transform="translate(1634.006 204.81)" fill="#919191"/></g></svg>