<svg xmlns="http://www.w3.org/2000/svg" width="19" height="19" viewBox="0 0 19 19"><g transform="translate(-6056.943 -13486.5)"><rect width="18" height="18" transform="translate(6057.443 13487)" fill="none" stroke="rgba(0,0,0,0)" stroke-width="1"/><path d="M97.487.9h5.272a.959.959,0,0,1,.964.953V3.759a.959.959,0,0,1-.964.953H97.487a.958.958,0,0,1-.964-.953V1.853A.958.958,0,0,1,97.487.9" transform="translate(5962 13486.999)" fill="#aaa" stroke="rgba(0,0,0,0)" stroke-width="1"/><path d="M106.127.9H111.4a.959.959,0,0,1,.964.953V3.759a.959.959,0,0,1-.964.953h-5.272a.958.958,0,0,1-.964-.953V1.853A.958.958,0,0,1,106.127.9" transform="translate(5962 13486.999)" fill="#aaa" stroke="rgba(0,0,0,0)" stroke-width="1"/><path d="M97.487,7.094h5.272a.959.959,0,0,1,.964.953V9.953a.959.959,0,0,1-.964.953H97.487a.958.958,0,0,1-.964-.953V8.047a.958.958,0,0,1,.964-.953" transform="translate(5962 13487)" fill="#aaa" stroke="rgba(0,0,0,0)" stroke-width="1"/><path d="M106.127,7.094H111.4a.959.959,0,0,1,.964.953V9.953a.959.959,0,0,1-.964.953h-5.272a.958.958,0,0,1-.964-.953V8.047a.958.958,0,0,1,.964-.953" transform="translate(5962 13487)" fill="#aaa" stroke="rgba(0,0,0,0)" stroke-width="1"/><path d="M97.487,13.288h5.272a.959.959,0,0,1,.964.953v1.906a.959.959,0,0,1-.964.953H97.487a.958.958,0,0,1-.964-.953V14.241a.958.958,0,0,1,.964-.953" transform="translate(5962 13487)" fill="#aaa" stroke="rgba(0,0,0,0)" stroke-width="1"/><path d="M106.127,13.288H111.4a.959.959,0,0,1,.964.953v1.906a.959.959,0,0,1-.964.953h-5.272a.958.958,0,0,1-.964-.953V14.241a.958.958,0,0,1,.964-.953" transform="translate(5962 13487)" fill="#aaa" stroke="rgba(0,0,0,0)" stroke-width="1"/></g></svg>