<svg xmlns="http://www.w3.org/2000/svg" width="18" height="18" viewBox="0 0 18 18"><g transform="translate(-425 -544)"><rect width="18" height="18" transform="translate(425 544)" fill="#aaa" opacity="0"/><path d="M690.046,380.822l-1.879-1.882a1.507,1.507,0,0,0-2.125,0l-1.363,1.363h0a.377.377,0,0,0,0,.533l3.471,3.471h0a.377.377,0,0,0,.533,0l1.363-1.363h-.008A1.505,1.505,0,0,0,690.046,380.822Z" transform="translate(-248.479 166.498)" fill="#aaa"/><path d="M689.819,384.4l-3.471-3.471h0a.377.377,0,0,0-.532,0l-8.41,8.41-.4,3.573a.688.688,0,0,0,0,.167.749.749,0,0,0,.828.661l3.573-.4,8.409-8.41h0A.377.377,0,0,0,689.819,384.4Z" transform="translate(-250.999 167.254)" fill="#aaa"/></g></svg>