<svg xmlns="http://www.w3.org/2000/svg" width="18" height="18" viewBox="0 0 18 18"><rect width="18" height="18" fill="#aaa" opacity="0"/><path d="M7.352,12.541a5.474,5.474,0,0,1,.39-2.03,5.473,5.473,0,0,1-2.06-.5h-.53A4.253,4.253,0,0,0,.9,14.261v1.32a1.519,1.519,0,0,0,1.52,1.52h7.31a5.539,5.539,0,0,1-2.38-4.56M7.992.9a4.05,4.05,0,1,0,.7,8.04,5.405,5.405,0,0,1,2.65-1.72A4.045,4.045,0,0,0,7.992.9" fill="#919191"/><g transform="translate(-1922.6 -537)"><path d="M4.555,0A4.555,4.555,0,1,1,0,4.555,4.555,4.555,0,0,1,4.555,0Z" transform="translate(1931 545)" fill="#919191"/><path d="M5.9,34.286,3.84,36.056a.281.281,0,0,1-.465-.213v-1.02c-1.818.026-2.6.477-2.07,2.176a.209.209,0,0,1-.329.218A2.394,2.394,0,0,1,0,35.412c0-1.784,1.493-2.161,3.375-2.183v-.937a.281.281,0,0,1,.465-.213L5.9,33.849A.293.293,0,0,1,5.9,34.286Z" transform="translate(1932.699 514.99)" fill="#f1f1f1"/></g></svg>