<svg xmlns="http://www.w3.org/2000/svg" width="18" height="18" viewBox="0 0 18 18"><g transform="translate(-925 -1618.841)"><rect width="18" height="18" transform="translate(925 1618.841)" fill="none"/><path d="M15.878,36.161l-3.1-3.1a.771.771,0,0,0-.54-.225h-.2v3.51a.542.542,0,0,0,.54.54h3.51V36.7a.786.786,0,0,0-.216-.54M12.7,37.907a1.667,1.667,0,0,1-1.665-1.665v-3.4H4.259A.761.761,0,0,0,3.5,33.6v5.382a5.67,5.67,0,0,1,1.8-.288A5.853,5.853,0,0,1,9.047,49.04h6.291a.762.762,0,0,0,.765-.756V37.907Z" transform="translate(924.65 1586.9)" fill="#aaa"/><path d="M4.95,40.341A4.95,4.95,0,1,1,0,45.291a4.95,4.95,0,0,1,4.95-4.95m-2.778,6H4.95v1.7a.288.288,0,0,0,.491.2l2.738-2.752a.285.285,0,0,0,0-.405L5.441,42.335a.288.288,0,0,0-.491.2v1.7H2.172a.288.288,0,0,0-.287.287v1.534a.288.288,0,0,0,.287.287" transform="translate(925 1586.15)" fill="#aaa"/></g></svg>