<svg xmlns="http://www.w3.org/2000/svg" width="16.979" height="17.778" viewBox="0 0 16.979 17.778"><g transform="translate(-502.501 -119.483)"><g transform="translate(-38.786 15.606)"><g transform="translate(541.787 113.149)"><path d="M1,4.993h9.983l0,2.247a.749.749,0,0,0,1.259.549l3.5-3.246a.749.749,0,0,0,0-1.1L12.244.2a.749.749,0,0,0-1.259.549l0,2.247H1a.992.992,0,0,0-1,.971A1.041,1.041,0,0,0,1,4.993Z" transform="translate(0 0.001)" fill="#6d82c7" stroke="rgba(0,0,0,0)" stroke-miterlimit="10" stroke-width="1"/></g><g transform="translate(541.787 104.394)"><path d="M1,4.993h9.983l0,2.247a.749.749,0,0,0,1.259.549l3.5-3.246a.749.749,0,0,0,0-1.1L12.244.2a.749.749,0,0,0-1.259.549l0,2.247H1a.992.992,0,0,0-1,.971A1.041,1.041,0,0,0,1,4.993Z" transform="translate(0 0.001)" fill="#6d82c7" stroke="rgba(0,0,0,0)" stroke-miterlimit="10" stroke-width="1"/></g></g></g></svg>