<svg xmlns="http://www.w3.org/2000/svg" width="18" height="18" viewBox="0 0 18 18"><g transform="translate(-5995.289 -13493)"><rect width="18" height="18" transform="translate(5995.289 13493)" fill="none"/><path d="M135.294,7.988h-.76V5.71a4.809,4.809,0,1,0-9.618,0V7.988h-.76a1.519,1.519,0,0,0-1.519,1.519v6.075a1.52,1.52,0,0,0,1.519,1.519h11.138a1.519,1.519,0,0,0,1.518-1.519V9.507a1.519,1.519,0,0,0-1.518-1.519m-4.3,5.316a1.266,1.266,0,0,1-2.532,0V11.785a1.266,1.266,0,1,1,2.532,0ZM132,7.988h-4.556V5.71a2.278,2.278,0,1,1,4.556,0Z" transform="translate(5874.564 13492.999)" fill="#aaa"/></g></svg>