<svg xmlns="http://www.w3.org/2000/svg" width="19" height="19" viewBox="0 0 19 19"><g transform="translate(0.5 0.5)"><rect width="18" height="18" fill="none" stroke="rgba(0,0,0,0)" stroke-width="1"/><path d="M4.86,37.67a2.835,2.835,0,1,0-2.835-2.835A2.834,2.834,0,0,0,4.86,37.67Zm1.944.81h-.21a3.914,3.914,0,0,1-3.468,0h-.21A2.917,2.917,0,0,0,0,41.4v.729A1.215,1.215,0,0,0,1.215,43.34h7.29A1.215,1.215,0,0,0,9.72,42.125V41.4A2.917,2.917,0,0,0,6.8,38.48Zm5.346-.81a2.43,2.43,0,1,0-2.43-2.43A2.431,2.431,0,0,0,12.15,37.67Zm1.215.81h-.1a3.192,3.192,0,0,1-2.238,0h-.1a2.811,2.811,0,0,0-1.41.39,3.7,3.7,0,0,1,1,2.526v.972c0,.056-.013.109-.015.162h4.47A1.215,1.215,0,0,0,16.2,41.315,2.834,2.834,0,0,0,13.365,38.48Z" transform="translate(0.9 -28.67)" fill="#536bc2" stroke="rgba(0,0,0,0)" stroke-width="1"/></g></svg>