<svg xmlns="http://www.w3.org/2000/svg" width="19" height="19" viewBox="0 0 19 19"><g transform="translate(0.5 0.5)"><rect width="18" height="18" fill="none" stroke="rgba(0,0,0,0)" stroke-width="1"/><path d="M5.67,6.48A3.24,3.24,0,1,0,2.43,3.24,3.24,3.24,0,0,0,5.67,6.48ZM8.1,8.1a1.6,1.6,0,0,1,.205-.772,3.464,3.464,0,0,0-.367-.038H7.515a4.406,4.406,0,0,1-3.691,0H3.4a3.4,3.4,0,0,0-3.4,3.4v1.054A1.215,1.215,0,0,0,1.215,12.96h7.11a1.608,1.608,0,0,1-.225-.81Zm7.29-.81h-.81V5.265a2.025,2.025,0,1,0-4.05,0V7.29H9.72a.81.81,0,0,0-.81.81v4.05a.81.81,0,0,0,.81.81h5.67a.81.81,0,0,0,.81-.81V8.1A.81.81,0,0,0,15.39,7.29Zm-2.835,3.645a.81.81,0,1,1,.81-.81A.81.81,0,0,1,12.555,10.935Zm.81-3.645h-1.62V5.265a.81.81,0,1,1,1.62,0Z" transform="translate(0.9 2.52)" fill="#536bc2"/></g></svg>