<svg width="14" height="10" viewBox="0 0 14 10" fill="none" xmlns="http://www.w3.org/2000/svg">
<path d="M12.5993 0.102539H1.3993C1.21069 0.105609 1.031 0.183439 0.899746 0.318927C0.768488 0.454415 0.696392 0.636476 0.699304 0.825095V9.18387C0.696392 9.37249 0.768488 9.55455 0.899746 9.69004C1.031 9.82553 1.21069 9.90336 1.3993 9.90643H12.5993C12.7879 9.90336 12.9676 9.82553 13.0989 9.69004C13.2301 9.55455 13.3022 9.37249 13.2993 9.18387V0.825095C13.3022 0.636476 13.2301 0.454415 13.0989 0.318927C12.9676 0.183439 12.7879 0.105609 12.5993 0.102539ZM2.7993 2.70265C2.86033 2.5904 2.96341 2.50697 3.0859 2.47066C3.2084 2.43435 3.3403 2.44813 3.45264 2.50898L3.46897 2.51831C3.50193 2.53802 3.53247 2.56151 3.55997 2.58832L7.00086 5.23276L10.441 2.58832C10.5319 2.49972 10.6543 2.45079 10.7813 2.45224C10.9083 2.4537 11.0295 2.50543 11.1184 2.5961L11.1332 2.61165C11.2224 2.71045 11.27 2.83994 11.266 2.97303C11.2619 3.10611 11.2065 3.23247 11.1114 3.32565C11.0849 3.35223 11.0554 3.37572 11.0235 3.39565L8.92819 5.00565L11.0235 6.61565C11.1364 6.68589 11.2178 6.7971 11.2506 6.92599C11.2833 7.05488 11.265 7.19145 11.1993 7.3071C11.164 7.37251 11.114 7.42883 11.0532 7.47159C10.9925 7.51435 10.9226 7.54238 10.8491 7.55347C10.7756 7.56456 10.7005 7.5584 10.6298 7.53548C10.5591 7.51257 10.4948 7.47352 10.4417 7.42143L8.11386 5.63254L7.29253 6.26254C7.20908 6.32693 7.10665 6.36186 7.00125 6.36186C6.89585 6.36186 6.79341 6.32693 6.70997 6.26254L5.88864 5.63254L3.56075 7.42143C3.50645 7.45414 3.44622 7.47581 3.38352 7.48519C3.32082 7.49457 3.25689 7.49148 3.19539 7.47609C3.13389 7.4607 3.07604 7.4333 3.02515 7.39549C2.97426 7.35768 2.93135 7.3102 2.89886 7.25576L2.88953 7.2402C2.8338 7.14118 2.81228 7.02654 2.82831 6.91405C2.84434 6.80156 2.89702 6.6975 2.97819 6.61798L5.07353 5.00798L2.97819 3.39798C2.86423 3.3285 2.78182 3.21736 2.74842 3.08814C2.71503 2.95891 2.73328 2.82176 2.7993 2.70576V2.70265Z" fill="#919191"/>
</svg>
