<svg width="22" height="22" viewBox="0 0 22 22" fill="none" xmlns="http://www.w3.org/2000/svg">
<rect width="22" height="22" rx="2" fill="#DADADA"/>
<g clip-path="url(#clip0_17471_12561)">
<path d="M12.7894 5.94444C12.7894 6.32902 12.6757 6.70495 12.462 7.02471C12.2483 7.34448 11.9446 7.5938 11.5893 7.74096C11.234 7.88814 10.8431 7.92651 10.4659 7.85148C10.0887 7.77645 9.74207 7.59135 9.47013 7.31942C9.1982 7.04748 9.01272 6.70102 8.93769 6.32384C8.86266 5.94665 8.90141 5.55558 9.04858 5.20028C9.19576 4.84497 9.44508 4.5414 9.76484 4.32775C10.0846 4.11409 10.4603 4 10.8449 4C11.3606 4 11.855 4.20482 12.2197 4.56947C12.5844 4.93412 12.7894 5.42874 12.7894 5.94444ZM12.7894 11C12.7894 11.3846 12.6757 11.7605 12.462 12.0803C12.2483 12.4001 11.9446 12.6493 11.5893 12.7965C11.234 12.9437 10.8431 12.982 10.4659 12.9071C10.0887 12.832 9.74207 12.6469 9.47014 12.375C9.1982 12.103 9.01272 11.7565 8.93769 11.3794C8.86266 11.0022 8.90141 10.6111 9.04859 10.2558C9.19576 9.90053 9.44508 9.59696 9.76484 9.3833C10.0846 9.16964 10.4603 9.05556 10.8449 9.05556C11.3606 9.05556 11.855 9.26037 12.2197 9.62503C12.5844 9.98968 12.7894 10.4843 12.7894 11ZM12.7894 16.0555C12.7894 16.4401 12.6757 16.8161 12.462 17.1358C12.2483 17.4556 11.9446 17.7049 11.5893 17.8521C11.234 17.9992 10.8431 18.0376 10.4659 17.9626C10.0887 17.8876 9.74207 17.7025 9.47014 17.4305C9.1982 17.1586 9.01272 16.8122 8.93769 16.4349C8.86266 16.0578 8.90141 15.6667 9.04859 15.3114C9.19576 14.9561 9.44508 14.6525 9.76484 14.4389C10.0846 14.2252 10.4603 14.1111 10.8449 14.1111C11.3606 14.1111 11.855 14.316 12.2197 14.6806C12.5844 15.0452 12.7894 15.5398 12.7894 16.0555Z" fill="#424242"/>
</g>
<defs>
<clipPath id="clip0_17471_12561">
<rect width="14" height="14" fill="white" transform="translate(4 4)"/>
</clipPath>
</defs>
</svg>
