<svg width="14" height="14" viewBox="0 0 14 14" fill="none" xmlns="http://www.w3.org/2000/svg">
<path d="M13.4698 10.3256L10.2988 3.06657C10.2467 2.94234 10.1595 2.83607 10.0477 2.76082C9.936 2.68558 9.80471 2.64464 9.67001 2.64307H7.45335L7.51168 3.16807C7.51438 3.19341 7.51172 3.21903 7.50386 3.24328C7.496 3.26752 7.48312 3.28983 7.46606 3.30876C7.449 3.3277 7.42814 3.34282 7.40484 3.35315C7.38154 3.36349 7.35633 3.3688 7.33085 3.36873H6.66993C6.64445 3.3688 6.61923 3.36349 6.59594 3.35315C6.57264 3.34282 6.55178 3.3277 6.53472 3.30876C6.51766 3.28983 6.50478 3.26752 6.49692 3.24328C6.48906 3.21903 6.48639 3.19341 6.4891 3.16807L6.54743 2.64307H4.33076C4.19607 2.64464 4.06477 2.68558 3.95304 2.76082C3.84132 2.83607 3.75403 2.94234 3.70193 3.06657L0.528014 10.3256C0.477886 10.4338 0.45526 10.5528 0.462146 10.6718C0.469032 10.7909 0.505216 10.9065 0.567486 11.0082C0.629757 11.11 0.716186 11.1948 0.819101 11.2551C0.922016 11.3154 1.03823 11.3494 1.15743 11.354H5.62518L5.85851 9.13732C5.86789 9.0481 5.90998 8.96552 5.97666 8.90552C6.04334 8.84552 6.12989 8.81234 6.2196 8.8124H7.7806C7.8703 8.81234 7.95685 8.84552 8.02353 8.90552C8.09022 8.96552 8.13231 9.0481 8.14168 9.13732L8.37501 11.354H12.8404C12.9596 11.3494 13.0758 11.3154 13.1788 11.2551C13.2817 11.1948 13.3681 11.11 13.4304 11.0082C13.4926 10.9065 13.5288 10.7909 13.5357 10.6718C13.5426 10.5528 13.52 10.4338 13.4698 10.3256ZM6.37418 4.2589C6.37894 4.21429 6.40006 4.17304 6.43345 4.14309C6.46685 4.11314 6.51016 4.09662 6.55501 4.09673H7.44635C7.49121 4.09662 7.53451 4.11314 7.56791 4.14309C7.6013 4.17304 7.62242 4.21429 7.62718 4.2589L7.7316 5.24765C7.7356 5.2856 7.73159 5.32398 7.71981 5.36028C7.70804 5.39658 7.68877 5.43 7.66325 5.45838C7.63773 5.48676 7.60653 5.50946 7.57168 5.52501C7.53683 5.54056 7.49909 5.54862 7.46093 5.54865H6.54101C6.50282 5.54871 6.46505 5.54071 6.43015 5.52519C6.39525 5.50967 6.36402 5.48698 6.33848 5.45858C6.31294 5.43018 6.29368 5.39672 6.28194 5.36037C6.2702 5.32403 6.26625 5.28562 6.27035 5.24765L6.37418 4.2589ZM7.62718 8.08907H6.37301C6.32209 8.08911 6.27173 8.07843 6.22521 8.05773C6.17869 8.03703 6.13704 8.00677 6.10298 7.96891C6.06893 7.93106 6.04322 7.88646 6.02753 7.83801C6.01184 7.78957 6.00653 7.73837 6.01193 7.68773L6.1286 6.59865C6.13797 6.50943 6.18006 6.42686 6.24675 6.36685C6.31343 6.30685 6.39998 6.27367 6.48968 6.27373H7.51401C7.60372 6.27367 7.69027 6.30685 7.75695 6.36685C7.82363 6.42686 7.86572 6.50943 7.8751 6.59865L7.99176 7.68773C7.99694 7.73853 7.99133 7.78983 7.97532 7.83831C7.95931 7.88679 7.93324 7.93134 7.89883 7.96905C7.86442 8.00677 7.82244 8.0368 7.77563 8.05718C7.72882 8.07756 7.67823 8.08783 7.62718 8.08732V8.08907Z" fill="#919191"/>
</svg>
