<svg width="14" height="14" viewBox="0 0 14 14" fill="none" xmlns="http://www.w3.org/2000/svg">
<g clip-path="url(#clip0_17411_9985)">
<path d="M8.78936 1.94444C8.78936 2.32902 8.67565 2.70495 8.46199 3.02471C8.24834 3.34448 7.94457 3.5938 7.58928 3.74096C7.23398 3.88814 6.84309 3.92651 6.4659 3.85148C6.08871 3.77645 5.74207 3.59135 5.47013 3.31942C5.1982 3.04748 5.01272 2.70102 4.93769 2.32384C4.86266 1.94665 4.90141 1.55558 5.04858 1.20028C5.19576 0.844973 5.44508 0.541404 5.76484 0.327745C6.0846 0.114087 6.46034 3.36e-08 6.84492 0C7.36061 -4.508e-08 7.85504 0.204818 8.2197 0.569472C8.58435 0.934125 8.78936 1.42874 8.78936 1.94444ZM8.78936 6.99999C8.78936 7.38457 8.67565 7.76054 8.46199 8.0803C8.24834 8.40006 7.94457 8.64933 7.58928 8.79654C7.23398 8.94368 6.84309 8.98204 6.4659 8.90707C6.08872 8.83203 5.74207 8.64688 5.47014 8.375C5.1982 8.10305 5.01272 7.75655 4.93769 7.37939C4.86266 7.00223 4.90141 6.61113 5.04859 6.25583C5.19576 5.90053 5.44508 5.59696 5.76484 5.3833C6.0846 5.16964 6.46034 5.05556 6.84492 5.05556C7.36061 5.05556 7.85504 5.26037 8.2197 5.62503C8.58435 5.98968 8.78936 6.4843 8.78936 6.99999ZM8.78936 12.0555C8.78936 12.4401 8.67565 12.8161 8.46199 13.1358C8.24834 13.4556 7.94457 13.7049 7.58928 13.8521C7.23398 13.9992 6.84309 14.0376 6.4659 13.9626C6.08872 13.8876 5.74207 13.7025 5.47014 13.4305C5.1982 13.1586 5.01272 12.8122 4.93769 12.4349C4.86266 12.0578 4.90141 11.6667 5.04859 11.3114C5.19576 10.9561 5.44508 10.6525 5.76484 10.4389C6.0846 10.2252 6.46034 10.1111 6.84492 10.1111C7.36061 10.1111 7.85504 10.316 8.2197 10.6806C8.58435 11.0452 8.78936 11.5398 8.78936 12.0555Z" fill="#424242"/>
</g>
<defs>
<clipPath id="clip0_17411_9985">
<rect width="14" height="14" fill="white"/>
</clipPath>
</defs>
</svg>
