<svg width="14" height="14" viewBox="0 0 14 14" fill="none" xmlns="http://www.w3.org/2000/svg">
<path d="M12.0555 8.94708C11.671 8.94708 11.2951 8.83337 10.9753 8.61971C10.6555 8.40605 10.4062 8.10229 10.259 7.74699C10.1118 7.39169 10.0735 7.0008 10.1485 6.62362C10.2236 6.24643 10.4087 5.89979 10.6806 5.62785C10.9525 5.35591 11.299 5.17043 11.6761 5.09541C12.0534 5.02038 12.4444 5.05913 12.7997 5.2063C13.155 5.35347 13.4586 5.60279 13.6723 5.92255C13.8859 6.24232 14 6.61806 14 7.00263C14 7.51833 13.7952 8.01276 13.4306 8.37742C13.0659 8.74207 12.5712 8.94708 12.0555 8.94708ZM6.99999 8.94708C6.61541 8.94708 6.23948 8.83337 5.91972 8.61971C5.59996 8.40605 5.35064 8.10229 5.20347 7.74699C5.0563 7.39169 5.01793 7.0008 5.09296 6.62362C5.16798 6.24643 5.35308 5.89979 5.62502 5.62785C5.89695 5.35591 6.24341 5.17043 6.62059 5.09541C6.99778 5.02038 7.38885 5.05913 7.74417 5.2063C8.09949 5.35347 8.40301 5.60279 8.61672 5.92255C8.83036 6.24232 8.94446 6.61806 8.94446 7.00263C8.94446 7.51833 8.73964 8.01276 8.37494 8.37742C8.01031 8.74207 7.51569 8.94708 6.99999 8.94708ZM1.94443 8.94708C1.55986 8.94708 1.18393 8.83337 0.864164 8.61971C0.544404 8.40605 0.295083 8.10229 0.147912 7.74699C0.000741881 7.39169 -0.0376288 7.0008 0.0373979 6.62362C0.112425 6.24643 0.297527 5.89979 0.569462 5.62785C0.8414 5.35591 1.18786 5.17043 1.56504 5.09541C1.94223 5.02038 2.3333 5.05913 2.6886 5.2063C3.0439 5.35347 3.34748 5.60279 3.56113 5.92255C3.77479 6.24232 3.88888 6.61806 3.88888 7.00263C3.88888 7.51833 3.68407 8.01276 3.31941 8.37742C2.95476 8.74207 2.46014 8.94708 1.94443 8.94708Z" fill="#919191"/>
</svg>
