<svg width="14" height="14" viewBox="0 0 14 14" fill="none" xmlns="http://www.w3.org/2000/svg">
<path d="M13.2999 1.88148C13.3007 4.90953 12.0986 7.81389 9.95815 9.9557C7.81766 12.0975 4.91403 13.3013 1.88598 13.3024H1.88131C1.74782 13.3022 1.61832 13.2569 1.51393 13.1737C1.40954 13.0905 1.33643 12.9744 1.30653 12.8443L0.988422 11.4684L0.808756 10.6906L0.713867 10.2854C0.683204 10.1494 0.701008 10.0069 0.764204 9.88268C0.8274 9.75842 0.932017 9.66014 1.05998 9.60481L3.81098 8.42337C3.92861 8.37258 4.05963 8.36166 4.18404 8.39227C4.30846 8.42289 4.41945 8.49335 4.50009 8.59293L4.8112 8.97248L5.33076 9.60637L5.71965 10.087C7.63532 9.18395 9.17731 7.64278 10.0814 5.72759L9.60387 5.3387L8.97076 4.81837L8.5912 4.50726C8.49135 4.42666 8.4207 4.31552 8.39007 4.19091C8.35944 4.0663 8.37054 3.93508 8.42165 3.81737L9.60076 1.05937C9.65628 0.932971 9.7542 0.829926 9.87759 0.768015C10.001 0.706104 10.1421 0.689213 10.2766 0.720258L10.685 0.812036L11.4628 0.990924L12.8348 1.30826C12.9648 1.33847 13.0807 1.41179 13.1638 1.5163C13.2468 1.6208 13.292 1.75033 13.2921 1.88381" fill="#919191"/>
</svg>
