<svg width="14" height="14" viewBox="0 0 14 14" fill="none" xmlns="http://www.w3.org/2000/svg">
<path d="M6.99961 0.350098C5.68437 0.350098 4.39866 0.740113 3.30507 1.47082C2.21148 2.20154 1.35913 3.24012 0.855812 4.45525C0.352489 5.67038 0.220799 7.00747 0.477391 8.29745C0.733982 9.58742 1.36733 10.7723 2.29735 11.7024C3.22737 12.6324 4.41229 13.2657 5.70226 13.5223C6.99223 13.7789 8.32933 13.6472 9.54445 13.1439C10.7596 12.6406 11.7982 11.7882 12.5289 10.6946C13.2596 9.60105 13.6496 8.31534 13.6496 7.0001C13.6496 5.23641 12.949 3.54495 11.7019 2.29784C10.4548 1.05072 8.7633 0.350098 6.99961 0.350098ZM6.99961 2.92454C7.46655 2.92439 7.92305 3.06272 8.31136 3.32204C8.69967 3.58137 9.00235 3.95003 9.18111 4.38139C9.35987 4.81276 9.40668 5.28745 9.31562 5.74543C9.22457 6.2034 8.99973 6.62409 8.66956 6.95426C8.33938 7.28444 7.9187 7.50928 7.46072 7.60033C7.00275 7.69139 6.52805 7.64458 6.09669 7.46582C5.66532 7.28706 5.29666 6.98438 5.03733 6.59607C4.77801 6.20776 4.63968 5.75126 4.63984 5.28432C4.63984 4.97443 4.70087 4.66757 4.81946 4.38127C4.93805 4.09497 5.11187 3.83483 5.331 3.61571C5.77354 3.17316 6.37376 2.92454 6.99961 2.92454ZM6.99961 12.149C6.25114 12.1486 5.51177 11.9848 4.8332 11.669C4.15463 11.3531 3.55323 10.8929 3.07105 10.3204C3.32376 9.83743 3.7037 9.43271 4.16979 9.15004C4.63589 8.86737 5.17039 8.7175 5.7155 8.71665C5.78009 8.71748 5.84425 8.72743 5.90606 8.74621C6.61638 8.99276 7.38907 8.99276 8.09939 8.74621C8.1612 8.72743 8.22535 8.71748 8.28994 8.71665C8.83507 8.71742 9.36961 8.86725 9.83572 9.14993C10.3018 9.43261 10.6818 9.83738 10.9344 10.3204C10.4515 10.8937 9.84913 11.3544 9.16942 11.6703C8.48971 11.9862 7.74913 12.1495 6.99961 12.149Z" fill="#919191"/>
</svg>
