<svg width="18" height="18" viewBox="0 0 18 18" fill="none" xmlns="http://www.w3.org/2000/svg">
<path d="M12.2578 16.3778V14.1988H10.4512C10.301 14.1977 10.1534 14.1629 10.0186 14.0968C9.88369 14.0306 9.76567 13.9348 9.67285 13.8167L3.47266 5.71688H1.85938C1.60344 5.71688 1.35773 5.61514 1.17676 5.43417C0.995785 5.2532 0.894531 5.00773 0.894531 4.7518C0.894531 4.49586 0.995785 4.2504 1.17676 4.06942C1.35773 3.88845 1.60344 3.78671 1.85938 3.78671H3.95898C4.11172 3.78616 4.26249 3.82108 4.39941 3.88876C4.53634 3.95644 4.65573 4.05517 4.74805 4.17684L10.9385 12.2767H12.2627V10.0987C12.2603 9.91398 12.3277 9.73524 12.4521 9.59872C12.5166 9.52878 12.5951 9.47245 12.6816 9.43295C12.7682 9.39345 12.861 9.37163 12.9561 9.36874C13.0511 9.36585 13.1466 9.38193 13.2354 9.4161C13.3241 9.45028 13.405 9.50181 13.4736 9.56771L16.8633 12.6978C16.8743 12.7188 16.8943 12.7288 16.9023 12.7398C17.0327 12.8819 17.102 13.0696 17.0947 13.2623C17.0874 13.455 17.004 13.6371 16.8633 13.7689L13.4736 16.9088C13.3389 17.0303 13.1639 17.0979 12.9824 17.0987C12.7909 17.0985 12.6075 17.0226 12.4717 16.8875C12.3359 16.7525 12.2591 16.5693 12.2578 16.3778ZM1.85742 14.2008C1.60215 14.2008 1.35726 14.0993 1.17676 13.9188C0.996254 13.7383 0.894531 13.4936 0.894531 13.2384C0.894531 12.9831 0.996254 12.7382 1.17676 12.5577C1.35726 12.3772 1.60215 12.2757 1.85742 12.2757H3.47266L4.76172 10.5897L5.99023 12.1947L4.74805 13.8158C4.655 13.9351 4.53619 14.0318 4.40039 14.0985C4.26459 14.1652 4.11613 14.2001 3.96484 14.2008H1.85742ZM12.2578 7.90683V5.72787H10.9229L9.63184 7.40878L8.41016 5.80868L9.64941 4.18783C9.74097 4.06729 9.85872 3.96932 9.99414 3.9017C10.1296 3.83407 10.2793 3.79846 10.4307 3.79769H12.2676V1.62582C12.2648 1.4412 12.3318 1.26244 12.4561 1.12582C12.5205 1.05618 12.5982 1.0001 12.6846 0.96078C12.7709 0.921462 12.8641 0.899701 12.959 0.896815C13.0538 0.89393 13.1487 0.909939 13.2373 0.943934C13.3259 0.97793 13.407 1.02922 13.4756 1.09481L16.8652 4.2247C16.8762 4.2457 16.8962 4.25569 16.9072 4.26669C17.0364 4.40951 17.1045 4.59745 17.0967 4.78988C17.0888 4.98232 17.0057 5.16393 16.8652 5.29574L13.4756 8.43588C13.341 8.55775 13.1659 8.62538 12.9844 8.62582C12.7933 8.62583 12.6104 8.55031 12.4746 8.41586C12.3388 8.2814 12.2616 8.09887 12.2598 7.9078L12.2578 7.90683Z" fill="#6692F1"/>
</svg>
