<svg xmlns="http://www.w3.org/2000/svg" width="55.999" height="21" viewBox="0 0 55.999 21"><g transform="translate(17886.5 24127.5)"><rect width="54.999" height="20" transform="translate(-17886 -24127)" fill="#aaa" stroke="rgba(0,0,0,0)" stroke-width="1" opacity="0"/><path d="M8.109,257.5a2.5,2.5,0,1,0-2.5,2.5,2.5,2.5,0,0,0,2.5-2.5m21.672,0a2.5,2.5,0,1,0-2.5,2.5h.006a2.5,2.5,0,0,0,2.494-2.5m-16.49,1a.242.242,0,0,0,.246-.238v-.381h5.435a.252.252,0,0,0,.254-.25v-1h5.051a3.085,3.085,0,0,1,.861-1.4l-3.263-1.274a.285.285,0,0,0-.383.107l-.039.129a.287.287,0,0,0,.191.34l1.276.494-.123.2H13.7a.254.254,0,0,0,.248-.254v-4.979a.918.918,0,0,0-.563-.852v-5.674a1.186,1.186,0,0,1,1.181-1.189h0a.583.583,0,0,0,.514-.246l.675-.752c.091-.133-.109-.254-.246-.254h-.963a2.419,2.419,0,0,0-2.41,2.426v5.7a.924.924,0,0,0-.537.838v-3.612a.932.932,0,0,0-.927-.937h-.548c-5.061,0-5.121,0-5.645,1.053L1.513,253.12a2.584,2.584,0,0,0-.236.938,1.439,1.439,0,0,0-.016.254v1.375a1.853,1.853,0,0,0,1.221,1.965,3.13,3.13,0,0,1,5.334-2.367,3.074,3.074,0,0,1,.746,3.209Zm-9.076-5.334a2.855,2.855,0,0,0-1.549,1.289,2.517,2.517,0,0,1-.613.014,2.973,2.973,0,0,1,2.3-1.946,2.5,2.5,0,0,1-.139.639ZM10,246.526a.312.312,0,0,1,.125.26v1.888a.657.657,0,0,1-.615.646l-4.621.252a.209.209,0,0,1-.216-.2.2.2,0,0,1,.016-.087l1.037-2.474a.653.653,0,0,1,.6-.352l3.385-.035a.407.407,0,0,1,.289.106m21.275,11.922a.387.387,0,0,0,.375-.375v-2.606a.248.248,0,0,0-.249-.247H29.414a2.935,2.935,0,0,1,.275.283,4.4,4.4,0,0,1,.279.4c.045.092.1.176.137.262a2.6,2.6,0,0,1,.168.451,3.3,3.3,0,0,1,.131.877v.576a.379.379,0,0,0,.377.375Z" transform="translate(-17886 -24366.998)" fill="#aaa" stroke="rgba(0,0,0,0)" stroke-width="1"/></g></svg>