<svg xmlns="http://www.w3.org/2000/svg" width="417" height="355" viewBox="0 0 417 355">
  <g id="Layer_2" data-name="Layer 2" transform="translate(-353.7 -270.438)">
    <ellipse id="Ellipse_4168" data-name="Ellipse 4168" cx="12.72" cy="12.717" rx="12.72" ry="12.717" transform="translate(710.03 304.287)" fill="#dadada"/>
    <ellipse id="Ellipse_4169" data-name="Ellipse 4169" cx="7.146" cy="7.144" rx="7.146" ry="7.144" transform="translate(400.448 430.664)" fill="#dadada"/>
    <ellipse id="Ellipse_4170" data-name="Ellipse 4170" cx="7.146" cy="7.144" rx="7.146" ry="7.144" transform="translate(446.641 295.393)" fill="#dadada"/>
    <path id="Path_23761" data-name="Path 23761" d="M909.647,697.944s-16.478-11.607-15.967-25.134,8.5-24.21,17.832-23.857,16.484,11.613,15.967,25.14S909.647,697.944,909.647,697.944Z" transform="translate(-246.317 -202.212)" fill="#97a8dc"/>
    <ellipse id="Ellipse_4365" data-name="Ellipse 4365" cx="12.508" cy="23.666" rx="12.508" ry="23.666" transform="translate(657.136 486.332)" fill="#97a8dc"/>
    <path id="Path_23762" data-name="Path 23762" d="M922.166,802.956c-7.668,5.334-5.242,22.084,5.438,37.416s42.631,10.64,42.631,10.64a113.584,113.584,0,0,0-14.852-29.94C944.7,805.74,929.823,797.628,922.166,802.956Z" transform="translate(-257.275 -271.744)" fill="#97a8dc"/>
    <path id="Path_23763" data-name="Path 23763" d="M926.054,686.164a50.406,50.406,0,0,1-13.422,12.271s-16.484-11.613-15.967-25.14a33.359,33.359,0,0,1,2.5-11.635,30.9,30.9,0,0,0-5.487,16.952c-.511,13.527,15.967,25.134,15.967,25.134S921.818,696.488,926.054,686.164Z" transform="translate(-246.317 -208.014)" fill="#536bc2"/>
    <path id="Path_23764" data-name="Path 23764" d="M916.495,731a40.769,40.769,0,0,0-1.708,11.9c0,13.048,5.6,23.672,12.508,23.672,2.893,0,5.552-1.881,7.673-5-2.175,7.03-6.189,11.765-10.8,11.765-6.907,0-12.508-10.6-12.508-23.672C911.66,742.058,913.558,735.317,916.495,731Z" transform="translate(-254.524 -239.655)" fill="#536bc2"/>
    <path id="Path_23765" data-name="Path 23765" d="M921.375,805.61c-1.289,7.715,2.116,19.181,9.609,29.957,7.875,11.33,27.387,11.722,37.035,11.156,1.518,3.844,2.214,6.247,2.214,6.247s-31.972,4.692-42.631-10.64C917.328,827.569,914.74,811.558,921.375,805.61Z" transform="translate(-257.289 -273.701)" fill="#536bc2"/>
    <path id="Path_23766" data-name="Path 23766" d="M960.017,876.872a8.907,8.907,0,0,0,1.256-.1,2.14,2.14,0,0,0,.255-.054l-.886,17.4,17.914,29.359H966.624L954.66,896.292Z" transform="translate(-274.139 -306.15)" fill="#536bc2"/>
    <path id="Path_23767" data-name="Path 23767" d="M950.52,698.818l38.96-19.643,10.789-39.1A8.619,8.619,0,0,0,988.6,629.858l-.462,7.742L982.8,678.3l-32.265,14.973Z" transform="translate(-272.251 -193.191)" fill="#536bc2"/>
    <path id="Path_23768" data-name="Path 23768" d="M868.53,622.917s-10.485-41.679-20.965-46.882-29.7-1.734-27.958,10.422,5.242,5.208,5.242,3.474-3.5-3.474-3.5-3.474-1.746-8.693,8.75-10.422,15.722,0,19.219,3.474,13.6,28.059,13.775,29.658,3.7,13.761,3.7,13.761S868.53,624.651,868.53,622.917Z" transform="translate(-212.481 -167.874)" fill="#536bc2"/>
    <path id="Path_23769" data-name="Path 23769" d="M904.666,912.274l-11.42-34.768,17.223-23.525V852.29L886.79,875.962l4.465,36.312Z" transform="translate(-243.179 -295.002)" fill="#536bc2"/>
    <path id="Path_23770" data-name="Path 23770" d="M793.671,663.722l39.357,31.017.81-5.671-40.461-31.985L739.033,613.16l-3.383,6.758Z" transform="translate(-174.234 -185.883)" fill="#536bc2"/>
    <path id="Path_23771" data-name="Path 23771" d="M1006.723,637.4l3.312-2.5s6.836-5.948,5.145-11.02-6.765-10.145-8.456-5.073-3.453,9.33-3.453,9.33Z" transform="translate(-296.314 -187.501)" fill="#536bc2"/>
    <path id="Path_23772" data-name="Path 23772" d="M708.474,563.36s13.8,21.845-6.205,21.361-9.153-21.2-9.153-21.2Z" transform="translate(-153.491 -163.158)" fill="#536bc2"/>
    <path id="Path_23773" data-name="Path 23773" d="M927.675,618.068s-14.64-39.623-11.252-47.539,16.038-11.113,21.057,0-.408,6.22-1.267,4.714.272-4.148.272-4.148-3.3-8.117-10.121-6.236-8.946,5.083-9.245,9.243,6.145,28.782,6.825,30.239,4.7,13.152,4.7,13.152S928.534,619.569,927.675,618.068Z" transform="translate(-256.465 -163.15)" fill="#536bc2"/>
    <ellipse id="Ellipse_4366" data-name="Ellipse 4366" cx="1.36" cy="1.631" rx="1.36" ry="1.631" transform="translate(655.776 463.981)" fill="#536bc2"/>
    <ellipse id="Ellipse_4367" data-name="Ellipse 4367" cx="1.36" cy="1.631" rx="1.36" ry="1.631" transform="translate(670.732 463.981)" fill="#536bc2"/>
    <path id="Path_12859" data-name="Path 12859" d="M432.525,727.474a6.644,6.644,0,0,0,4.574,8.22h0l139.221,39.58a6.656,6.656,0,0,0,8.223-4.578h0l53.464-187.912a6.654,6.654,0,0,0-4.6-8.221h0l-139.221-39.58a6.657,6.657,0,0,0-8.228,4.578Z" transform="translate(-35.84 -150.092)" fill="#dadada"/>
    <line id="Line_3167" data-name="Line 3167" x1="92.451" transform="translate(640.277 617.299)" fill="none" stroke="#707070" stroke-width="1"/>
    <path id="Path_23774" data-name="Path 23774" d="M1008.375,606.223c-.043-.511.207-21.579-3.3-25.308l-.076-.19a.594.594,0,0,0,0,.1h0v-.092c.234-1.18.261-2.332.49-3.5a9.337,9.337,0,0,1,.68-2.86c.223-.4-.065-.625.087-.952a5.793,5.793,0,0,0,.348-1.087,4.427,4.427,0,0,1,2.284-2.719,5.98,5.98,0,0,0,.544-.418l.255-.294c.4-1.06,1.425-2.985-.261-4.089a7.689,7.689,0,0,0-5.014-.718c-1.816.7-3.486,1.386-5.221,2.142a17.4,17.4,0,0,0-3.116,3.36,27.951,27.951,0,0,0-4.068,8.471c-.131.467-.277.544-.794.408a86.189,86.189,0,0,0-12.916-2.256,8.638,8.638,0,0,0-5.438,1.207c-2.409,1.479-3.421,4.833-1.088,6.339a10.328,10.328,0,0,0,1.343.712c-3.263.19-4.769,1.12-5.335,2.969-.718,2.387.2,3.588,3.045,4.681-.2.081-.343.147-.484.2a4.138,4.138,0,0,0-2.79,3.447,3.111,3.111,0,0,0,1.778,3.425,8.99,8.99,0,0,0,1.773.663c-1.729.582-2.175,2.1-2.23,3.806a3.561,3.561,0,0,0,2,3.376c1.055.511,8.913,5.344,9.506,5.518h0a51.4,51.4,0,0,0,10.7,2.479c2.806.065,6.265-3.98,10.572-2.316C1001.561,612.622,1008.631,610.784,1008.375,606.223Z" transform="translate(-279.998 -163.445)" fill="#536bc2"/>
    <g id="Group_34749" data-name="Group 34749" transform="translate(414.335 389.544)">
      <path id="Path_12820" data-name="Path 12820" d="M614.414,769.283l-143.43-18.665a6.644,6.644,0,0,1-5.732-7.448l25.2-193.621a6.656,6.656,0,0,1,7.456-5.736l143.43,18.665a6.644,6.644,0,0,1,5.737,7.448L621.87,763.536a6.651,6.651,0,0,1-7.45,5.736Z" transform="translate(-465.196 -543.757)" fill="#f7f7f7"/>
      <ellipse id="Ellipse_4162" data-name="Ellipse 4162" cx="29.182" cy="29.174" rx="29.182" ry="29.174" transform="translate(57.012 134.546)" fill="#f3f3f3"/>
      <path id="Path_12822" data-name="Path 12822" d="M695.425,717.912l13.6,1.767a3.415,3.415,0,0,1,2.948,3.806h0a3.421,3.421,0,0,1-3.807,2.952h0l-13.6-1.767a3.42,3.42,0,0,1-2.948-3.806h0a3.415,3.415,0,0,1,3.807-2.947Z" transform="translate(-568.471 -623.218)" fill="#536bc2"/>
      <path id="Path_12823" data-name="Path 12823" d="M646.845,711.587l13.6,1.767a3.414,3.414,0,0,1,2.948,3.806h0a3.415,3.415,0,0,1-3.807,2.947l-13.6-1.767a3.414,3.414,0,0,1-2.948-3.806h0A3.41,3.41,0,0,1,646.845,711.587Z" transform="translate(-546.31 -620.329)" fill="#536bc2"/>
      <path id="Path_12824" data-name="Path 12824" d="M598.259,705.269l13.6,1.767a3.42,3.42,0,0,1,2.948,3.806h0A3.415,3.415,0,0,1,611,713.788h0l-13.6-1.767a3.414,3.414,0,0,1-2.942-3.806h0A3.42,3.42,0,0,1,598.259,705.269Z" transform="translate(-524.149 -617.447)" fill="#536bc2"/>
      <path id="Path_12825" data-name="Path 12825" d="M549.671,698.983l13.6,1.767a3.415,3.415,0,0,1,2.948,3.806h0a3.415,3.415,0,0,1-3.807,2.947h0l-13.6-1.762a3.425,3.425,0,0,1-2.953-3.806h0a3.421,3.421,0,0,1,3.807-2.947Z" transform="translate(-501.98 -614.581)" fill="#dadada"/>
      <path id="Path_12826" data-name="Path 12826" d="M534.107,670.607,648.24,685.455a3.42,3.42,0,0,1,2.947,3.806h0a3.426,3.426,0,0,1-3.807,2.947L533.225,677.381a3.415,3.415,0,0,1-2.948-3.806h0a3.42,3.42,0,0,1,3.829-2.969Z" transform="translate(-494.872 -601.628)" fill="#dadada"/>
      <path id="Path_12827" data-name="Path 12827" d="M537.46,644.738l114.134,14.848a3.42,3.42,0,0,1,2.948,3.806h0a3.415,3.415,0,0,1-3.807,2.947h0L536.573,651.512a3.42,3.42,0,0,1-2.948-3.833h0a3.415,3.415,0,0,1,3.807-2.941Z" transform="translate(-496.398 -589.825)" fill="#dadada"/>
      <path id="Path_12828" data-name="Path 12828" d="M540.832,618.866l114.134,14.848a3.414,3.414,0,0,1,2.947,3.806h0a3.421,3.421,0,0,1-3.807,2.947L539.951,625.635A3.415,3.415,0,0,1,537,621.829h0a3.42,3.42,0,0,1,3.834-2.963Z" transform="translate(-497.938 -578.018)" fill="#dadada"/>
      <path id="Path_12829" data-name="Path 12829" d="M544.191,592.976,658.33,607.835a3.414,3.414,0,0,1,2.948,3.806h0a3.415,3.415,0,0,1-3.807,2.952h0L543.315,599.762a3.415,3.415,0,0,1-2.948-3.806h0a3.41,3.41,0,0,1,3.823-2.979Z" transform="translate(-499.475 -566.204)" fill="#dadada"/>
    </g>
    <path id="Path_23775" data-name="Path 23775" d="M636.706,827.295l-.31-.038a74.521,74.521,0,0,0-10.844-.544l-5.27.152-5.156.478a138.378,138.378,0,0,0-20.062,3.507,150.007,150.007,0,0,0-19.241,5.779c-3.529,1.267-6.994,2.719-10.431,4.235-1.142-1.9-2.344-3.768-3.627-5.627-1.664-2.631-3.693-5.105-5.639-7.639a77.591,77.591,0,0,0-6.689-7.269l-.228-.207a.631.631,0,0,0-.9.033.641.641,0,0,0-.141.63c3.742,11.537,7.744,22.982,11.736,34.426a1.191,1.191,0,0,0,1.517.712c12.644-4.349,25.261-8.786,37.8-13.445l18.844-6.883c6.3-2.245,12.508-4.73,18.773-7.1a.64.64,0,0,0-.141-1.234Z" transform="translate(-88.695 -280.245)" fill="#26a690"/>
    <path id="Path_23776" data-name="Path 23776" d="M374.061,289.726l14.412-2.985L374.279,283.8l-3.192-22.96L367.85,284.1l-14.15,2.642,14.368,2.686,3.018,23.215Z" transform="translate(0 9.598)" fill="#b7b7b7"/>
    <path id="Path_23777" data-name="Path 23777" d="M530.634,225.727c-.261,4.752,7.124,5.165,7.385.4S530.9,220.97,530.634,225.727Z" transform="translate(146.112 51.658)" fill="#dadada"/>
    <path id="Path_23778" data-name="Path 23778" d="M561.271,234.979a1.727,1.727,0,0,0,2.763,2.071A1.727,1.727,0,0,0,561.271,234.979Z" transform="translate(132.296 46.206)" fill="#dadada"/>
    <path id="Path_23779" data-name="Path 23779" d="M501.309,298.89a1.728,1.728,0,0,0-2.8,2.022A1.728,1.728,0,0,0,501.309,298.89Z" transform="translate(160.917 17.052)" fill="#dadada"/>
    <path id="Path_23780" data-name="Path 23780" d="M414.081,392.687l8.788-1.55-8.658-1.533-1.947-11.934-1.974,12.091-8.631,1.375,8.767,1.392,1.838,12.07Z" transform="translate(-21.878 -43.714)" fill="#b7b7b7"/>
    <path id="Path_23781" data-name="Path 23781" d="M1109.64,387.36c-.464,8.458,12.68,9.193,13.145.716S1110.1,378.892,1109.64,387.36Z" transform="translate(-548.857 -93.941)" fill="#dadada"/>
    <path id="Path_23782" data-name="Path 23782" d="M1140.549,394.509c-2.381,3.174,2.536,6.861,4.917,3.687S1142.9,391.345,1140.549,394.509Z" transform="translate(-549.828 -94.325)" fill="#dadada"/>
    <path id="Path_23783" data-name="Path 23783" d="M1082.755,458.438c-2.314-3.2-7.3.387-4.985,3.6S1085.078,461.651,1082.755,458.438Z" transform="translate(-547.816 -96.392)" fill="#dadada"/>
    <path id="Path_23784" data-name="Path 23784" d="M1013.061,400.726l14.411-2.985-14.194-2.941-3.192-22.96-3.236,23.259L992.7,397.741l14.368,2.686,3.018,23.215Z" transform="translate(-256.773 -41.054)" fill="#b7b7b7"/>
    <path id="Path_23787" data-name="Path 23787" d="M882.309,330.89a1.728,1.728,0,0,0-2.8,2.023A1.728,1.728,0,0,0,882.309,330.89Z" transform="translate(-239.704 -56.757)" fill="#fff"/>
  </g>
</svg>
