<svg xmlns="http://www.w3.org/2000/svg" xmlns:xlink="http://www.w3.org/1999/xlink" width="264" height="86" viewBox="0 0 264 86">
  <defs>
    <linearGradient id="linear-gradient" x1="0.076" y1="1.044" x2="0.424" y2="0.207" gradientUnits="objectBoundingBox">
      <stop offset="0" stop-color="#6d82c7"/>
      <stop offset="1" stop-color="#3551b7"/>
    </linearGradient>
    <linearGradient id="linear-gradient-2" x1="0.5" y1="0" x2="0.146" y2="1.106" xlink:href="#linear-gradient"/>
  </defs>
  <g id="Group_91937" data-name="Group 91937" transform="translate(-241.008 -457.847)">
    <path id="Path_11668" data-name="Path 11668" d="M7.424,16.379H15.91V-2.169h7.372V-8.734H.052v6.565H7.424Zm33.118,0H49.6L44.317,8.63A8.408,8.408,0,0,0,49.064.737c0-5.812-4.459-9.471-11.471-9.471H25.475V16.379h8.486V10.065h2.3ZM40.506.737c0,1.83-1.115,2.942-3.452,2.942H33.961V-2.2h3.092C39.391-2.2,40.506-1.092,40.506.737Zm23.8,16.216c7.731,0,12.262-4.341,12.262-11.875V-8.734H68.23V4.827c0,3.839-1.474,5.274-3.848,5.274s-3.848-1.435-3.848-5.274V-8.734H52.048V5.078C52.048,12.612,56.579,16.953,64.31,16.953Zm29.163,0c4.926,0,8.81-1.794,11.291-5.023L99.406,7.159A6.8,6.8,0,0,1,93.9,10.1c-3.524,0-5.9-2.44-5.9-6.278s2.373-6.278,5.9-6.278a6.8,6.8,0,0,1,5.5,2.942l5.358-4.771C102.283-7.514,98.4-9.308,93.473-9.308c-8.091,0-14.024,5.417-14.024,13.13S85.382,16.953,93.473,16.953Zm30.277-.574h9.817L122.995,2.316l10.068-11.05h-9.241L115.552.378V-8.734h-8.342V16.379h8.342V10.172l1.906-2.117Z" transform="translate(305.545 472.969)" fill="#ccc"/>
    <g id="Group_26111" data-name="Group 26111" transform="translate(330.849 488.316)">
      <path id="Path_11614" data-name="Path 11614" d="M42.3,25.006A31.871,31.871,0,0,1,31.93,23.347a19.434,19.434,0,0,1-7.57-4.366l1.4-2.27a23.35,23.35,0,0,0,7.22,4.1,26.549,26.549,0,0,0,9.408,1.659q7.351,0,10.852-2.488a8.036,8.036,0,0,0,3.5-6.941,6.629,6.629,0,0,0-1.882-4.977,11.476,11.476,0,0,0-4.682-2.707,67.639,67.639,0,0,0-7.526-1.746,70.947,70.947,0,0,1-8.8-2.139A13.106,13.106,0,0,1,28.3-2.061a9.612,9.612,0,0,1-2.275-6.81,10.653,10.653,0,0,1,4.244-8.6q4.245-3.449,12.383-3.449a28.985,28.985,0,0,1,8.4,1.266,20.189,20.189,0,0,1,6.826,3.361l-1.488,2.27a19.4,19.4,0,0,0-6.345-3.187A25.86,25.86,0,0,0,42.563-18.3q-6.739,0-10.152,2.576A8.079,8.079,0,0,0,29-8.958,7.069,7.069,0,0,0,30.924-3.72a11.715,11.715,0,0,0,4.77,2.838A70.759,70.759,0,0,0,43.438,1a62.844,62.844,0,0,1,8.489,2.052A13.2,13.2,0,0,1,57.4,6.5a9.145,9.145,0,0,1,2.232,6.548,10.227,10.227,0,0,1-4.463,8.731Q50.7,25.006,42.3,25.006Zm41.132,0a31.871,31.871,0,0,1-10.371-1.659,19.434,19.434,0,0,1-7.57-4.366l1.4-2.27a23.35,23.35,0,0,0,7.22,4.1,26.549,26.549,0,0,0,9.408,1.659q7.351,0,10.852-2.488a8.035,8.035,0,0,0,3.5-6.941,6.628,6.628,0,0,0-1.882-4.977,11.476,11.476,0,0,0-4.682-2.707,67.637,67.637,0,0,0-7.526-1.746,70.948,70.948,0,0,1-8.8-2.139A13.106,13.106,0,0,1,69.43-2.061a9.612,9.612,0,0,1-2.275-6.81,10.653,10.653,0,0,1,4.244-8.6q4.244-3.449,12.383-3.449a28.985,28.985,0,0,1,8.4,1.266,20.189,20.189,0,0,1,6.826,3.361l-1.488,2.27a19.4,19.4,0,0,0-6.345-3.187A25.86,25.86,0,0,0,83.7-18.3q-6.739,0-10.152,2.576a8.079,8.079,0,0,0-3.413,6.767A7.069,7.069,0,0,0,72.056-3.72a11.715,11.715,0,0,0,4.77,2.838A70.76,70.76,0,0,0,84.571,1,62.843,62.843,0,0,1,93.06,3.047,13.2,13.2,0,0,1,98.529,6.5a9.145,9.145,0,0,1,2.232,6.548A10.227,10.227,0,0,1,96.3,21.775Q91.834,25.006,83.433,25.006Zm63.449,0a31.871,31.871,0,0,1-10.371-1.659,19.434,19.434,0,0,1-7.57-4.366l1.4-2.27a23.35,23.35,0,0,0,7.22,4.1,26.549,26.549,0,0,0,9.408,1.659q7.351,0,10.852-2.488a8.036,8.036,0,0,0,3.5-6.941,6.628,6.628,0,0,0-1.882-4.977,11.476,11.476,0,0,0-4.682-2.707,67.636,67.636,0,0,0-7.526-1.746,70.948,70.948,0,0,1-8.8-2.139,13.106,13.106,0,0,1-5.557-3.536,9.612,9.612,0,0,1-2.275-6.81,10.653,10.653,0,0,1,4.245-8.6q4.244-3.449,12.383-3.449a28.985,28.985,0,0,1,8.4,1.266,20.188,20.188,0,0,1,6.826,3.361l-1.488,2.27a19.4,19.4,0,0,0-6.345-3.187,25.86,25.86,0,0,0-7.483-1.091q-6.739,0-10.152,2.576a8.079,8.079,0,0,0-3.413,6.767A7.069,7.069,0,0,0,135.5-3.72a11.716,11.716,0,0,0,4.77,2.838A70.759,70.759,0,0,0,148.019,1a62.845,62.845,0,0,1,8.489,2.052,13.2,13.2,0,0,1,5.47,3.449,9.144,9.144,0,0,1,2.232,6.548,10.227,10.227,0,0,1-4.463,8.731Q155.283,25.006,146.882,25.006Z" transform="translate(-24.36 30.525)" fill="#536bc2"/>
      <path id="Path_11615" data-name="Path 11615" d="M96.651-15.367h2.888V29.948H96.651Zm84.89,42.433a10.842,10.842,0,0,1-4.026,2.314,15.724,15.724,0,0,1-5.076.829q-5.513,0-8.533-3.1T160.888,18.6V-12.835h-8.576v-2.532h8.576V-25.32h2.888v9.953h14.965v2.532H163.776v31q0,4.627,2.275,7.072t6.651,2.445a10.52,10.52,0,0,0,7.351-2.707Z" transform="translate(-7.382 25.32)" fill="#536bc2"/>
    </g>
    <g id="Group_26112" data-name="Group 26112" transform="translate(241.009 457.847)">
      <path id="Path_11665" data-name="Path 11665" d="M2257.01,1198.075a15.544,15.544,0,0,0-21.267-5.635l-49.25,28.664h31.382l12.553-7.307a8.408,8.408,0,0,1,11.5,3.048l2.467,4.259h25.939Z" transform="translate(-2186.492 -1135.531)" fill="url(#linear-gradient)"/>
      <path id="Path_11666" data-name="Path 11666" d="M2217.24,1205.716c15.685-9.129,23.6,0,31.465,15.388h25.94l-13.328-23.03a15.544,15.544,0,0,0-21.268-5.635Z" transform="translate(-2190.8 -1135.531)" fill="#6d82c7"/>
      <path id="Path_11667" data-name="Path 11667" d="M2240.56,1165.813c.151-.207.29-.42.431-.633.118-.182.241-.361.353-.546.118-.2.224-.409.334-.614a15.1,15.1,0,0,0,.67-1.411c.048-.117.1-.232.149-.351.111-.288.2-.582.3-.876.042-.133.088-.263.125-.4.088-.3.162-.61.23-.919.028-.123.055-.245.078-.368.065-.325.119-.65.163-.979.014-.1.023-.2.034-.294.041-.357.071-.712.087-1.072,0-.038,0-.078,0-.117a15.368,15.368,0,0,0-.653-5.015h0a15.39,15.39,0,0,0-1.4-3.266l-13.017-22.5-32.4,55.984h0l-4.055,7.009-1.414,2.441,0-.006-3.956,6.836,49.215-28.645c.432-.251.845-.523,1.242-.808.132-.095.255-.2.384-.3.258-.2.512-.4.755-.608.145-.127.282-.257.422-.388.209-.2.414-.4.61-.6.141-.147.278-.295.411-.448.179-.2.349-.409.515-.619C2240.307,1166.145,2240.438,1165.982,2240.56,1165.813Z" transform="translate(-2186.51 -1126.458)" fill="url(#linear-gradient-2)"/>
    </g>
  </g>
</svg>
