<svg id="Group_6080" data-name="Group 6080" xmlns="http://www.w3.org/2000/svg" width="99.99" height="12.961" viewBox="0 0 99.99 12.961">
  <path id="path68" d="M280.116,1290.384l-2.443,3.3,3.816,6.744Z" transform="translate(-272.665 -1287.488)" fill="#6ec72e"/>
  <path id="path70" d="M306.613,1304.663l-.061-.081-2.948,6.541h7.814Z" transform="translate(-292.216 -1298.182)" fill="#6ec72e"/>
  <path id="path72" d="M290.424,1291.591l1.919-10.389-1.919-2.552-1.918,2.592Z" transform="translate(-280.833 -1278.65)" fill="#6ec72e"/>
  <path id="path74" d="M262.128,1304.663l-4.806,6.46h7.733l-2.867-6.541Z" transform="translate(-257.322 -1298.182)" fill="#6ec72e"/>
  <path id="path76" d="M300.034,1300.306l3.614-6.805-2.443-3.281-1.212,10.086Z" transform="translate(-289.494 -1287.365)" fill="#6ec72e"/>
  <path id="path78" d="M355.155,1279.684h-.969v5.225h.848a3.084,3.084,0,0,0,2.262-.527,2.668,2.668,0,0,0,.747-2.066,2.775,2.775,0,0,0-.323-1.418,2.182,2.182,0,0,0-.969-.891,3.868,3.868,0,0,0-1.595-.324m-.3,5.934h-.667v4.313a2.3,2.3,0,0,0,.222,1.114,1.044,1.044,0,0,0,.525.466,3.186,3.186,0,0,0,.828.1v.222h-6.017v-.243c.667,0,1.11-.162,1.292-.446a2.166,2.166,0,0,0,.283-1.215V1280.9a1.662,1.662,0,0,0-.383-1.3,1.7,1.7,0,0,0-1.212-.385v-.243h6.906a6.076,6.076,0,0,1,2.3.405,3.532,3.532,0,0,1,1.514,1.154,2.83,2.83,0,0,1,.525,1.7,3,3,0,0,1-.323,1.418,2.814,2.814,0,0,1-.889.992,4.363,4.363,0,0,1-1.232.607,5.632,5.632,0,0,1,1.736,2l1.535,2.592a6.69,6.69,0,0,0,.707,1.054,2.456,2.456,0,0,0,.585.506,1.689,1.689,0,0,0,.545.162v.243h-3.958c-.4-.708-.706-1.3-.929-1.742-.687-1.357-1.191-2.268-1.494-2.795a3.261,3.261,0,0,0-.969-1.134,2.9,2.9,0,0,0-1.433-.526" transform="translate(-326.987 -1278.894)" fill="#409629"/>
  <path id="path80" d="M420.046,1290.9v2.146l-.323-.021a6.651,6.651,0,0,0-.3-.851,1.2,1.2,0,0,0-.5-.546,1.655,1.655,0,0,0-.889-.2h-2.3l.02,4.03H417.5a1.717,1.717,0,0,0,1.131-.3c.242-.223.606-.384.666-.81h.3l.02,2.957h-.4a1.759,1.759,0,0,0-.808-1.053,2.159,2.159,0,0,0-.989-.223h-1.7l-.04,2.977c0,1.154.626,1.317,1.534,1.317h.666a2.884,2.884,0,0,0,1.07-.244,1.5,1.5,0,0,0,.686-.546,3.984,3.984,0,0,0,.363-1.114h.3v2.369h-8.137v-.2c.545,0,.929-.1,1.11-.365a1.569,1.569,0,0,0,.242-.911v-6.926a1.789,1.789,0,0,0-.222-.911c-.141-.243-.5-.385-1.05-.385h-.081v-.2h7.875Z" transform="translate(-374.069 -1287.859)" fill="#409629"/>
  <path id="path82" d="M462.115,1293.132h-.2a5.811,5.811,0,0,0-1.535-2.207,3.5,3.5,0,0,0-2.14-.668,3.061,3.061,0,0,0-1.595.405,2.8,2.8,0,0,0-.989,1.073,5.655,5.655,0,0,0-.5,1.458,10.868,10.868,0,0,0-.141,1.681,5.585,5.585,0,0,0,.847,3.341,2.753,2.753,0,0,0,2.342,1.154c.706,0,1.151-.1,1.312-.3a1.549,1.549,0,0,0,.283-.932v-1.154a2.7,2.7,0,0,0-.06-.608c-.02-.162-.1-.2-.242-.324a2.3,2.3,0,0,0-.989-.243v-.223h4.765v.223c-.606.081-1.232.3-1.232.992v2.45a8.392,8.392,0,0,1-3.635.749,8.53,8.53,0,0,1-1.494-.1c-.444-.081-.828-.2-1.191-.3a5.178,5.178,0,0,1-.889-.446,3.48,3.48,0,0,1-.667-.527,5.7,5.7,0,0,1-.767-.931,5.354,5.354,0,0,1-.768-2.775,4.975,4.975,0,0,1,3.251-4.739,5.556,5.556,0,0,1,2-.365,4.266,4.266,0,0,1,1.07.141c.283.061.747.324,1.433.547a2.6,2.6,0,0,0,.707.1.986.986,0,0,0,.747-.689h.2l.081,3.22Z" transform="translate(-404.568 -1287.056)" fill="#409629"/>
  <path id="path84" d="M503.772,1290.342v-.2h4.866v.2c-.545,0-.888.1-1.05.364a.893.893,0,0,0-.242.689v7.311a3,3,0,0,0,.061.628,1.041,1.041,0,0,0,.323.506,1.308,1.308,0,0,0,.828.223h.06v.2h-4.865v-.2c.525,0,.888-.1,1.05-.365a1.778,1.778,0,0,0,.242-.972v-7.33a.822.822,0,0,0-.3-.749,1.244,1.244,0,0,0-.969-.3" transform="translate(-443.115 -1287.304)" fill="#409629"/>
  <path id="path86" d="M535.735,1293.743a14.224,14.224,0,0,0,.162,2.066,4.109,4.109,0,0,0,.828,1.9,2.353,2.353,0,0,0,2,.891,2.277,2.277,0,0,0,2.4-1.5,9.807,9.807,0,0,0,.525-3.038,11.658,11.658,0,0,0-.222-2.268,4.258,4.258,0,0,0-.848-1.8,2.3,2.3,0,0,0-1.837-.749,2.332,2.332,0,0,0-2,.85,4.352,4.352,0,0,0-.828,1.823,9.967,9.967,0,0,0-.182,1.823m-2.443.142a5.194,5.194,0,0,1,.363-2,5.078,5.078,0,0,1,1.07-1.681,5.536,5.536,0,0,1,1.7-1.134,5.809,5.809,0,0,1,2.281-.405,6.2,6.2,0,0,1,2.282.405,4.993,4.993,0,0,1,1.7,1.134,5.287,5.287,0,0,1,1.07,1.681,5.655,5.655,0,0,1,.364,2.045,5.124,5.124,0,0,1-.364,2,4.951,4.951,0,0,1-1.01,1.661,4.4,4.4,0,0,1-1.7,1.134,5.985,5.985,0,0,1-2.3.405,6.121,6.121,0,0,1-2.443-.465,4.453,4.453,0,0,1-1.7-1.235,4.951,4.951,0,0,1-.969-1.7,5.031,5.031,0,0,1-.344-1.843" transform="translate(-465.386 -1286.189)" fill="#409629"/>
  <path id="path88" d="M587.978,1290.139l6.017,6.318v-4.577a1.582,1.582,0,0,0-.444-1.215c-.242-.223-.444-.243-.929-.324v-.2h3.332v.2c-.384.061-.546.021-.808.2a1.1,1.1,0,0,0-.444.506,2.142,2.142,0,0,0-.141.85v8.365h-.283l-7.391-8.02v5.833a2.7,2.7,0,0,0,.222,1.316c.2.324.848.384,1.373.445v.2h-3.554v-.2c.99-.081,1.212-.587,1.192-1.5v-6.765c-.4-.587-.546-1.194-1.212-1.215v-.223Z" transform="translate(-504.303 -1287.304)" fill="#409629"/>
  <path id="path90" d="M643.382,1291.521H643.1a3.358,3.358,0,0,0-.908-1.5,3.02,3.02,0,0,0-1.819-.547,2.206,2.206,0,0,0-.808.162,1.865,1.865,0,0,0-.586.465.968.968,0,0,0-.222.708,1.257,1.257,0,0,0,.081.466,2.763,2.763,0,0,0,.384.547,4.813,4.813,0,0,0,.929.709,8.041,8.041,0,0,1,.848.546,12.817,12.817,0,0,1,1.737,1.114,2.4,2.4,0,0,1,.808.911,2.489,2.489,0,0,1,.3,1.235,2.746,2.746,0,0,1-.242,1.154,2.661,2.661,0,0,1-.606.911,2.924,2.924,0,0,1-1.11.587,4.5,4.5,0,0,1-1.413.222,6.3,6.3,0,0,1-1.8-.283,2.42,2.42,0,0,1-.283-.061.818.818,0,0,0-.3-.02.449.449,0,0,0-.464.365h-.242v-3.035h.2a4,4,0,0,0,.626,1.681,2.49,2.49,0,0,0,1.07.689,2.791,2.791,0,0,0,1.111.222,2.044,2.044,0,0,0,1.292-.465,1.346,1.346,0,0,0,.525-1.053,1.144,1.144,0,0,0-.222-.709,3.02,3.02,0,0,0-.626-.607c-.262-.2-.828-.547-1.615-1.053-.4-.283-.767-.526-1.07-.769a4.4,4.4,0,0,1-.687-.709,2.743,2.743,0,0,1-.4-.668,2.846,2.846,0,0,1-.2-.709,2.666,2.666,0,0,1,.323-1.58,3.48,3.48,0,0,1,1.111-1.194,3.751,3.751,0,0,1,1.837-.385,3.827,3.827,0,0,1,.828.081.875.875,0,0,1,.283.06,2.021,2.021,0,0,0,.3.061c.223.02.363.06.464.06.162,0,.283-.02.323-.081a2.562,2.562,0,0,0,.2-.223h.222l.1,2.694Z" transform="translate(-543.856 -1286.316)" fill="#409629"/>
</svg>
