<svg xmlns="http://www.w3.org/2000/svg" width="111.406" height="12" viewBox="0 0 111.406 12">
  <g id="Group_80750" data-name="Group 80750" transform="translate(-0.066 0.001)">
    <g id="Group_8479" data-name="Group 8479" transform="translate(13.078 0.001)">
      <g id="g21079" transform="translate(0 0.179)">
        <path id="path21081" d="M57.6,8.791c0,1.823-.636,2.748-2.836,2.748H53.383V6.333H54.84c2.041,0,2.756.714,2.756,2.458m2.942.185c0-2.193-1.749-2.933-3.949-3.013V5.884c1.829-.185,3.392-.925,3.392-2.748,0-2.114-1.749-2.458-3.578-2.458-2.279,0-4.956.079-7.235,0v.555c.451,0,1.643,0,1.643.634v9.038c0,.555-1.193.634-1.643.634v.555c2.2-.079,4.85,0,7.049,0,2.2.079,4.32-.74,4.32-3.118m-3.392-5.5a1.987,1.987,0,0,1-2.279,2.273H53.489V1.365h1.458c1.643-.159,2.2.661,2.2,2.114" transform="translate(-49.169 -0.678)" fill="#0079c1"/>
      </g>
      <g id="g21083" transform="translate(12.484 0.223)">
        <path id="path21085" d="M109.924,12.263H106.8v-.555c.451,0,1.749,0,1.749-.634v-8.4h0l-4.77,9.778h-.451L98.741,2.669h0v8.4c0,.634,1.378.634,1.829.634v.555a38.778,38.778,0,0,0-4.293,0v-.555c.451,0,1.643-.079,1.643-.634V2.035c0-.634-1.193-.634-1.643-.634V.846a42.2,42.2,0,0,0,4.479,0L104.7,9.065,108.732.846a38.777,38.777,0,0,0,4.293,0V1.4c-.451,0-1.643,0-1.643.634v9.038c0,.634,1.193.634,1.643.634v.555h-3.1" transform="translate(-96.276 -0.846)" fill="#0079c1"/>
      </g>
      <g id="g21087" transform="translate(30.116)">
        <path id="path21089" d="M175.793,5.948C175.793,2.116,173.514,0,169.3,0s-6.493,2.114-6.493,5.946,2.279,5.946,6.493,5.946,6.493-2.22,6.493-5.946m-3.021,0c0,2.273-.186,5.391-3.472,5.391s-3.472-3.118-3.472-5.391S166.093.557,169.3.557s3.472,3.092,3.472,5.391" transform="translate(-162.807 -0.002)" fill="#0079c1"/>
      </g>
    </g>
    <path id="Subtraction_108" data-name="Subtraction 108" d="M6,12a6,6,0,1,1,6-6A6.006,6.006,0,0,1,6,12ZM4.649,2.843a.238.238,0,0,0-.187.083L3.223,4.483V8.658H8.851V6.889H8.8V4.483L7.555,2.926a.242.242,0,0,0-.184-.083.233.233,0,0,0-.186.083L6.153,4.271a.235.235,0,0,1-.185.079c-.052,0-.059-.011-.071-.034a.214.214,0,0,0-.034-.046L4.834,2.926A.239.239,0,0,0,4.649,2.843ZM8.778,6.889H3.241L4.436,5.355a.241.241,0,0,1,.185-.079.2.2,0,0,1,.188.106L5.837,6.731A.187.187,0,0,0,6,6.81a.253.253,0,0,0,.188-.079L7.212,5.382A.27.27,0,0,1,7.4,5.276a.237.237,0,0,1,.185.079l1.2,1.532Z" transform="translate(0.066 -0.001)" fill="#ed1d24"/>
    <g id="g21099" transform="translate(59.548 0.35)">
      <path id="path21101" d="M232.122,12.659V12.1c.451,0,1.643,0,1.643-.555V7.162h-5.406v4.387c0,.555,1.193.555,1.643.555v.555c-1.749-.079-3.763-.079-5.486,0V12.1c.451,0,1.643,0,1.643-.555V2.432c0-.555-1.193-.555-1.643-.555V1.322c1.749.079,3.763.079,5.486,0v.555c-.451,0-1.643,0-1.643.555V6.449h5.406V2.432c0-.555-1.193-.555-1.643-.555V1.322c1.749.079,3.763.079,5.486,0v.555c-.451,0-1.643,0-1.643.555V11.47c0,.555,1.193.555,1.643.555v.555c-1.749-.026-3.763-.026-5.486.079" transform="translate(-224.516 -1.322)" fill="#0079c1"/>
    </g>
    <g id="g21103" transform="translate(73.637 3.732)">
      <path id="path21105" d="M282.791,17.767c-1.643.185-3.021.264-3.021,2.114,0,.74.265,1.559,1.272,1.559,1.378,0,1.749-1.189,1.749-2.193v-1.48Zm1.378,4.308c-.636,0-1.272-.079-1.272-.819a3.817,3.817,0,0,1-2.65.925c-1.749,0-2.571-.819-2.571-2.378,0-2.643,3.207-2.458,5.221-2.563V16.049a1.278,1.278,0,0,0-1.458-1.374c-1.087,0-1.458.555-1.458,1.454,0,.449-.371.449-.742.449-.557,0-1.007,0-1.007-.634,0-1.454,1.749-1.823,3.021-1.823,2.12,0,3.578.264,3.578,2.458v3.647c0,1.084.08,1.189,1.272,1.269v.555c-.663.026-1.3.026-1.935.026" transform="translate(-277.676 -14.12)" fill="#0079c1"/>
    </g>
    <g id="g21107" transform="translate(82.635 3.839)">
      <path id="path21109" d="M317.965,16.984c-1.564,0-.265-1.744-1.378-1.744-1.193,0-1.458,1.929-1.458,2.748v3.277c0,.634,1.007.634,1.458.634v.555c-1.643-.079-3.286-.079-4.956,0V21.9c.451,0,1.378,0,1.378-.634v-5.47c0-.555-.928-.634-1.378-.634v-.449h3.392V15.9h0a2.582,2.582,0,0,1,2.12-1.374,1.446,1.446,0,0,1,1.643,1.454c.079.634-.106,1-.822,1" transform="translate(-311.631 -14.526)" fill="#0079c1"/>
    </g>
    <g id="g21111" transform="translate(90.803 3.839)">
      <path id="path21113" d="M348.785,16.984c-1.564,0-.265-1.744-1.378-1.744-1.193,0-1.458,1.929-1.458,2.748v3.277c0,.634,1.007.634,1.458.634v.555c-1.643-.079-3.286-.079-4.956,0V21.9c.451,0,1.378,0,1.378-.634v-5.47c0-.555-.928-.634-1.378-.634v-.449h3.392V15.9h0a2.582,2.582,0,0,1,2.12-1.374,1.446,1.446,0,0,1,1.643,1.454c.08.634,0,1-.822,1" transform="translate(-342.451 -14.526)" fill="#0079c1"/>
    </g>
    <g id="g21115" transform="translate(99.08 0.335)">
      <path id="path21117" d="M376.172,3.434a1.134,1.134,0,0,1-1.193-1.084,1.073,1.073,0,0,1,1.193-1.084,1.134,1.134,0,0,1,1.193,1.084,1.3,1.3,0,0,1-1.193,1.084m-2.491,9.117V12c.451,0,1.378-.079,1.378-.634V5.892c0-.555-1.007-.555-1.378-.555V4.888c1.087,0,2.279.079,3.472,0v6.58c0,.555,1.007.634,1.378.634v.555a29.474,29.474,0,0,0-4.85-.106" transform="translate(-373.681 -1.267)" fill="#0079c1"/>
    </g>
    <g id="g21119" transform="translate(105.161 3.873)">
      <path id="path21121" d="M399.57,22.58a10.852,10.852,0,0,1-2.942-.449V19.752h.822a2.137,2.137,0,0,0,2.12,2.378c.928,0,1.829-.37,1.829-1.269,0-1.929-4.664-1-4.664-3.753,0-1.744,1.458-2.458,3.207-2.458a8.094,8.094,0,0,1,2.465.449V17.11h-.742c-.079-1.084-.557-1.929-1.935-1.929-.822,0-1.458.264-1.458,1.084,0,1.823,4.664.74,4.664,3.832.133,1.744-1.723,2.484-3.366,2.484" transform="translate(-396.628 -14.652)" fill="#0079c1"/>
    </g>
  </g>
</svg>
