<svg xmlns="http://www.w3.org/2000/svg" width="60.787" height="18" viewBox="0 0 60.787 18">
  <g id="Group_80749" data-name="Group 80749" transform="translate(-3224 -856.157)">
    <g id="Group_8225" data-name="Group 8225" transform="translate(3259.812 864.052)">
      <path id="Path_7302" data-name="Path 7302" d="M432.336,1433.122a3.212,3.212,0,0,0-1.775.635v-4.343h-1.99v.734h1.1v8.87l.016-.01,0,.01a6.455,6.455,0,0,0,2.071.257,2.9,2.9,0,0,0,3.146-3.11C434.9,1433.748,433.488,1433.122,432.336,1433.122Zm-.468,5.439a5.055,5.055,0,0,1-1.307-.121v-3.949a2.819,2.819,0,0,1,1.766-.656,1.912,1.912,0,0,1,1.7,2.133C434.024,1437.084,433.614,1438.561,431.868,1438.561Z" transform="translate(-428.571 -1429.415)" fill="#d2171e"/>
      <path id="Path_7303" data-name="Path 7303" d="M465.956,1449.088a1.786,1.786,0,0,0-1.983-1.81,5.887,5.887,0,0,0-2.332.391v.753a5.388,5.388,0,0,1,2.024-.406c1.134,0,1.4.543,1.4,1.087v.8h-1.712s-2.188,0-2.188,1.827a1.667,1.667,0,0,0,1.9,1.7,3.019,3.019,0,0,0,2-.874v.742H467v-.733h-1.046Zm-2.714,3.639c-1,0-1.185-.624-1.185-1.05a1.2,1.2,0,0,1,1.3-1.093h1.719v1.3A2.95,2.95,0,0,1,463.241,1452.727Z" transform="translate(-454.422 -1443.571)" fill="#d2171e"/>
      <path id="Path_7304" data-name="Path 7304" d="M495.264,1429.415h-1.99v.734h1.1v8.269h-1.071a.632.632,0,0,1-.622-.69v-2.7s.022-1.975-1.69-1.975a3.077,3.077,0,0,0-2.2,1.046v-.881H486.8v.734h1.1v5.191h.888v-4.136a3.246,3.246,0,0,1,1.968-1.184c1,0,1.046.709,1.046,1.236v2.91s-.044,1.174,1.5,1.174h3v-.726h-1.041Z" transform="translate(-474.748 -1429.415)" fill="#d2171e"/>
      <path id="Path_7305" data-name="Path 7305" d="M533.714,1448.361v-.741h-2.89v.741h1l-2.163,2.246,1.546,1.916a2.723,2.723,0,0,0,1.9,1.2,1.75,1.75,0,0,0,.6-.1v-.738h-.034a1.22,1.22,0,0,1-.444.1,1.588,1.588,0,0,1-1.1-.631c-.4-.484-1.395-1.731-1.395-1.731l2.1-2.26Z" transform="translate(-508.74 -1443.841)" fill="#d2171e"/>
    </g>
    <path id="Path_7306" data-name="Path 7306" d="M256.838,1421.3c3.457,1.689,5.563,5.4,7.779,8.756V1417.5c-1.241,1.6-3.258,3-7.779,3.8" transform="translate(2967.428 -555.922)" fill="#f5a01f"/>
    <path id="Path_7307" data-name="Path 7307" d="M255.553,1391.375s4.166,6.356,4.61,7.178c.576-.133,4.986-2.444,2.349-4.711C260.1,1391.953,255.553,1391.375,255.553,1391.375Z" transform="translate(2968.447 -535.218)" fill="#732726"/>
    <g id="Group_8226" data-name="Group 8226" transform="translate(3234.349 857.557)">
      <path id="Path_7308" data-name="Path 7308" d="M307.238,1427.079v-5.044h-1.684v-2.023h1.684V1417.5h2.549v2.511h2.637v2.023h-2.637v4.911c0,.911.532,1.11,1.285,1.11a4.061,4.061,0,0,0,1.485-.244v1.867a9.973,9.973,0,0,1-2.3.333c-2.393,0-3.014-1.155-3.014-2.933" transform="translate(-305.554 -1413.478)" fill="#54595c"/>
      <path id="Path_7309" data-name="Path 7309" d="M342.171,1433.577c0-3.422,2.105-5.156,5.142-5.156a10.758,10.758,0,0,1,3.5.667v3.266h-2.105v-1.866a4.308,4.308,0,0,0-1.108-.134c-1.862,0-2.793,1.2-2.793,3.178,0,1.933.865,3.223,2.881,3.223a6.838,6.838,0,0,0,3.081-.867v2.023a6.987,6.987,0,0,1-3.457.822c-3.169-.067-5.142-1.845-5.142-5.156" transform="translate(-334.592 -1422.133)" fill="#54595c"/>
      <path id="Path_7310" data-name="Path 7310" d="M390.533,1412.411h1.573v-5.778h-1.861v-2.022h1.861v-2.889c0-2.689,1.684-3.6,3.7-3.6a10.548,10.548,0,0,1,1.861.2v1.866a11.68,11.68,0,0,0-1.241-.088c-.953,0-1.817.289-1.817,1.688v2.845H397v2.022h-2.393v5.778h1.972v1.978h-6.05v-2Z" transform="translate(-372.715 -1398.122)" fill="#54595c"/>
    </g>
  </g>
</svg>
