<svg id="Group_6078" data-name="Group 6078" xmlns="http://www.w3.org/2000/svg" width="111.123" height="13.297" viewBox="0 0 111.123 13.297">
  <g id="Group_6076" data-name="Group 6076" transform="translate(39.28)">
    <path id="Path_4769" data-name="Path 4769" d="M412.376,1016.106h6.4v1.852h-3.916v2.248h3.625v1.852h-3.625v3.669h-2.506v-9.62Z" transform="translate(-412.353 -1016.083)"/>
    <path id="Path_4770" data-name="Path 4770" d="M440.275,1016.106h6.772v1.852h-4.289v2H446.8v1.852h-4.044v2.062h4.393v1.875h-6.875Z" transform="translate(-433.201 -1016.083)"/>
    <path id="Path_4771" data-name="Path 4771" d="M470.36,1016.014h3.826a6.044,6.044,0,0,1,3.437.815,4.754,4.754,0,0,1,1.713,3.994c0,2.143-.641,3.727-2.459,4.484a7.276,7.276,0,0,1-2.646.373h-3.858v-9.666Zm2.564,7.791h1.084c1.678-.023,2.739-.768,2.739-3.017,0-2.936-2.063-2.936-2.809-2.936l-1-.023C472.924,1017.831,472.924,1023.805,472.924,1023.805Z" transform="translate(-455.663 -1016.014)"/>
    <path id="Path_4772" data-name="Path 4772" d="M508.218,1016.106h6.795v1.852H510.7v2h4.067v1.852H510.7v2.062h4.393v1.875h-6.875Z" transform="translate(-483.929 -1016.083)"/>
    <path id="Path_4773" data-name="Path 4773" d="M538.027,1016.014h4.2c1.632,0,2.249.1,2.772.687a2.608,2.608,0,0,1,.629,1.875,1.851,1.851,0,0,1-.839,1.794,3.234,3.234,0,0,1-1.375.5v.058c1.748.058,1.853.874,2.063,2.376a16.435,16.435,0,0,0,.42,2.376h-2.717a15.2,15.2,0,0,1-.292-2.189c-.1-1.164-.152-1.584-1.27-1.584h-1.061v3.773h-2.518Zm2.518,4.146h.933a3.141,3.141,0,0,0,1.037-.081,1.129,1.129,0,0,0,.665-1.108c0-1.188-.979-1.188-1.713-1.188h-.934v2.377Z" transform="translate(-506.185 -1016.014)"/>
    <path id="Path_4774" data-name="Path 4774" d="M573.335,1016.014H576.4l3.566,9.667h-2.832l-.629-1.933H572.88l-.606,1.933h-2.506Zm2.6,5.94-1.165-4.041h-.047l-1.247,4.041Z" transform="translate(-529.884 -1016.014)"/>
    <path id="Path_4775" data-name="Path 4775" d="M611.077,1016.014h2.541v7.745h4.067v1.9H611.1v-9.643Z" transform="translate(-560.726 -1016.014)"/>
  </g>
  <g id="Group_6077" data-name="Group 6077" transform="translate(0 0.012)">
    <path id="Path_4776" data-name="Path 4776" d="M257.322,1016.06h3.462l3.066,7.186-.047-7.186h2.191v9.667h-3.382l-3.122-7.5.023,7.5h-2.191Z" transform="translate(-257.322 -1016.06)"/>
    <path id="Path_4777" data-name="Path 4777" d="M297.828,1016.06h3.066l3.567,9.667h-2.833l-.629-1.934h-3.624l-.606,1.934h-2.506Zm2.588,5.94-1.164-4.065H299.2l-1.247,4.041C297.956,1022,300.415,1022,300.415,1022Z" transform="translate(-284.902 -1016.06)"/>
    <path id="Path_4778" data-name="Path 4778" d="M327.013,1016.06h2.772l2.063,7,2.17-7H336.5l-3.3,9.667h-2.983Z" transform="translate(-309.355 -1016.06)"/>
    <path id="Path_4779" data-name="Path 4779" d="M366.958,1016.06l1.982,4.041,2.04-4.041h2.588l-3.52,6.254v3.412h-2.518v-3.54l-3.485-6.126Z" transform="translate(-337.004 -1016.06)"/>
  </g>
  <rect id="Rectangle_3321" data-name="Rectangle 3321" width="96.216" height="2.539" transform="translate(0 10.758)"/>
  <path id="Path_4780" data-name="Path 4780" d="M656.778,1022.645a6.6,6.6,0,0,0-6.037-6.584,5.091,5.091,0,0,0-.584-.047,4.337,4.337,0,0,0-.559.047,6.655,6.655,0,0,0-4.709,2.571h0l-.128.174-.128.174h0a6.518,6.518,0,0,0-1.131,3.676,6.605,6.605,0,0,0,6.038,6.584,3.827,3.827,0,0,0,1.188,0A6.659,6.659,0,0,0,656.778,1022.645Zm-3.578,4.875h-.932a7.558,7.558,0,0,0,.641-1.838h1.552a5.837,5.837,0,0,1-1.261,1.837Zm-7.342-1.838h1.552a9.586,9.586,0,0,0,.641,1.838h-.933a5.849,5.849,0,0,1-1.262-1.839Zm-1.889-2.838h.865a7.818,7.818,0,0,0,.443,2.419h-.711a5.621,5.621,0,0,1-.6-2.421Zm1.958-3.4a6.041,6.041,0,0,1,1.2-1.687h.933a7.117,7.117,0,0,0-.536,1.4h0l-.047.2-.047.2h0c0,.023,0,.046-.023.046h-1.552c.025-.059.048-.106.072-.152Zm8.544.14h-1.552a10.245,10.245,0,0,0-.641-1.838h.933a6.947,6.947,0,0,1,1.26,1.837Zm1.889,2.85H655.5a7.828,7.828,0,0,0-.443-2.419h.711a5.7,5.7,0,0,1,.594,2.419Zm-1.27,0h-1.841a12.247,12.247,0,0,0-.245-2.419h1.62a7.139,7.139,0,0,1,.467,2.419Zm-7.214-2.992a6.88,6.88,0,0,1,.665-1.687h1.422v1.839h-2.107a.318.318,0,0,1,.018-.151Zm.42-2.105h-.689a5.855,5.855,0,0,1,1.177-.665,4.059,4.059,0,0,0-.49.666Zm1.666-.882v.886h-1.177A2,2,0,0,1,649.96,1016.457Zm.408.886v-.886a1.93,1.93,0,0,1,1.154.886Zm1.434.407a8.194,8.194,0,0,1,.688,1.838h-2.111v-1.841ZM649.96,1020v2.421H647.5a14.563,14.563,0,0,1,.245-2.419Zm0,2.838v2.419h-2.214a14.094,14.094,0,0,1-.268-2.419Zm0,2.838v1.838h-1.422a8.192,8.192,0,0,1-.688-1.838Zm0,2.256v.887a1.931,1.931,0,0,1-1.154-.887Zm.408,0h1.154a1.944,1.944,0,0,1-1.154.887Zm0-.419v-1.836h2.107a7.794,7.794,0,0,1-.688,1.838Zm0-2.245v-2.43h2.45a14.282,14.282,0,0,1-.245,2.419h-2.2Zm0-2.838V1020h2.2a12.157,12.157,0,0,1,.245,2.419h-2.448Zm1.678-5.1a3.577,3.577,0,0,0-.513-.665,4.2,4.2,0,0,1,1.2.665ZM647.3,1020a14.411,14.411,0,0,0-.245,2.419h-1.842a7.315,7.315,0,0,1,.466-2.419Zm-2.495,2.431h-.861a5.836,5.836,0,0,1,.595-2.419h.711a7.555,7.555,0,0,0-.444,2.421Zm.408.407h1.841a12.228,12.228,0,0,0,.245,2.419h-1.62a7.955,7.955,0,0,1-.465-2.418Zm3.077,5.1a3.57,3.57,0,0,0,.513.665,4.188,4.188,0,0,1-1.2-.665Zm3.753,0h.688a4.654,4.654,0,0,1-1.2.665,4.85,4.85,0,0,0,.513-.665Zm.979-2.664a14.2,14.2,0,0,0,.244-2.42h1.841a7.836,7.836,0,0,1-.466,2.42Zm2.471-2.431h.863a6.022,6.022,0,0,1-.594,2.419h-.711a7.486,7.486,0,0,0,.442-2.421Zm.082-3.257h-.665a7.087,7.087,0,0,0-1.131-1.838h.2a6.9,6.9,0,0,1,1.6,1.837Zm-9.231-1.838h.2a6.675,6.675,0,0,0-.909,1.326h0l-.093.2-.093.2h0a.347.347,0,0,0-.046.128h-.641a3.772,3.772,0,0,1,.338-.558,6.57,6.57,0,0,1,1.247-1.293Zm-1.6,7.933h.665a7.079,7.079,0,0,0,1.131,1.838h-.2a6.241,6.241,0,0,1-1.6-1.839Zm9.231,1.838h-.2a6.01,6.01,0,0,0,1.13-1.838h.665a6.244,6.244,0,0,1-1.6,1.837Z" transform="translate(-545.655 -1016.014)"/>
</svg>
