<svg xmlns="http://www.w3.org/2000/svg" width="120" height="18" viewBox="0 0 120 18">
  <g id="Bank_-_Wells_Fargo" data-name="Bank - Wells Fargo" transform="translate(17821 3567)">
    <rect id="Rectangle_64038" data-name="Rectangle 64038" width="120" height="18" transform="translate(-17821 -3567)" fill="#aaa" opacity="0"/>
    <g id="Group_80746" data-name="Group 80746" transform="translate(-17821 -3566.353)">
      <path id="Subtraction_522" data-name="Subtraction 522" d="M-7317.181-10935.968H-7431v-16.68h113.82v16.679Zm-31.781-8.051h.734c1.564,0,2.232.662,2.232,2.215v.479c0,1.331.541,1.9,1.809,1.9s1.921-.739,1.921-2.2v-.25h-.923v.25c0,.6-.16.877-.5.877s-.539-.193-.539-1.154v-.539a1.684,1.684,0,0,0-1.8-1.889v-.019c.616-.034,2.623-.29,2.623-2.183a2.147,2.147,0,0,0-.729-1.725,3.4,3.4,0,0,0-2.245-.653h-6.086v1.025h.973c.432,0,.577.127.577.5v6.138c0,.352-.167.5-.577.5h-.379c-.763,0-1.223-.119-1.468-.745l-3.032-7.416h-1.776l-2.958,7.416c-.259.626-.718.745-1.473.745v1.03h4.368v-1.03h-.984c-.3,0-.439-.08-.439-.261a1.124,1.124,0,0,1,.083-.383l.478-1.275h3.3s.435,1.179.486,1.309a1.2,1.2,0,0,1,.085.379c0,.167-.109.231-.391.231h-1.031v1.03h9.258v-1.033h-1.02c-.419,0-.575-.135-.575-.5v-2.772Zm22.955-5.168a5.076,5.076,0,0,0-3.664,1.4,4.818,4.818,0,0,0-1.386,3.473,4.834,4.834,0,0,0,1.386,3.476,5.067,5.067,0,0,0,3.664,1.406,5.064,5.064,0,0,0,3.662-1.406,4.839,4.839,0,0,0,1.385-3.476,4.818,4.818,0,0,0-1.387-3.473A5.072,5.072,0,0,0-7326.007-10949.187Zm-11.331,0a4.228,4.228,0,0,0-3.262,1.387,5.2,5.2,0,0,0-1.205,3.486,5.2,5.2,0,0,0,1.215,3.5,4.227,4.227,0,0,0,3.251,1.384,4.279,4.279,0,0,0,2.905-.986l.52.7h.948v-3.187c0-.52.181-.687.745-.687h.258v-1.031h-4.28v1.031h.632c.483,0,.739.226.739.651v.533c0,1.135-.754,1.786-2.07,1.786a2.314,2.314,0,0,1-2-1.056,4.747,4.747,0,0,1-.666-2.639,4.757,4.757,0,0,1,.659-2.619,2.256,2.256,0,0,1,1.952-1.059,2.894,2.894,0,0,1,2.611,2.218h1.149v-3.137h-.979l-.344.751-.031-.027A3.987,3.987,0,0,0-7337.337-10949.187Zm-45.321,8.647h0l.012.011.028.026a3.909,3.909,0,0,0,2.768,1.062c2.336,0,3.788-1.085,3.788-2.831,0-1.552-1.1-2.524-3.375-2.975-.181-.044-.346-.078-.52-.114l-.075-.016c-.122-.025-.248-.051-.378-.082-1.227-.26-1.891-.552-1.891-1.347,0-.715.763-1.2,1.9-1.2a2.7,2.7,0,0,1,2.724,2.24h1.044v-3.14h-.753l-.467.69a3.574,3.574,0,0,0-2.606-.968,4.285,4.285,0,0,0-2.415.675,2.445,2.445,0,0,0-1.1,2.091c0,1.455.993,2.4,2.952,2.82.241.051.437.091.626.129.22.045.43.088.688.143,1.026.215,1.976.536,1.976,1.422,0,.636-.677,1.28-1.971,1.28a2.878,2.878,0,0,1-3.139-2.554h-1.072v3.458h.949l.31-.825Zm-10.819-.2v1.03h8.573v-3.458h-1.077c-.143,1.61-.472,2.428-1.872,2.428h-2.111v-6.5c0-.488.193-.638.825-.638h.78v-1.022h-5.118v1.022h.808c.542,0,.753.169.753.6v5.921c0,.424-.2.613-.66.613Zm-9.508,0v1.03h8.568v-3.458h-1.066c-.149,1.645-.469,2.428-1.883,2.428h-2.108v-6.5c0-.488.193-.638.825-.638h.786v-1.022h-5.121v1.022h.811c.54,0,.75.169.75.6v5.921c0,.424-.205.613-.666.613Zm-10.143,0v1.03h9.17v-3.458h-1.011c-.164,1.725-.71,2.428-1.883,2.428h-2.792v-3.23h.665c.867,0,1.221.45,1.221,1.554v.192h.979v-4.48h-.979v.179c0,1.093-.354,1.539-1.221,1.539h-.665v-2.889l2.455,0c1.854,0,1.98.792,2.189,2.105v.009h1.042v-3.142h-12.71v1.022h.676c.4,0,.6.138.6.42a1.194,1.194,0,0,1-.083.4l-.011.034c0,.014-.009.028-.014.043l-1.784,5.009h-.028l-1.531-5.127a1.549,1.549,0,0,1-.118-.467c0-.2.134-.308.4-.308h.739v-1.022h-4.186v1.022h.33a.743.743,0,0,1,.833.517l.233.654-1.668,4.824h-.03l-1.753-5.13a1.589,1.589,0,0,1-.126-.5c0-.169.114-.365.434-.365h.588v-1.022h-4.052v1.022h.2c.531,0,.729.115.847.494l2.625,7.672h1.946l1.625-4.771h.027l1.465,4.771h1.924l2.529-7.322a1.057,1.057,0,0,1,1.22-.844h.283c.68,0,.921.205.921.783v5.385c0,.823-.238.968-.739.968Zm43.191-.006v1.031h5.126v-1.031h-.7c-.643,0-.882-.193-.882-.712v-2.5h.572c.883,0,1.243.391,1.243,1.35v.3h.973v-4.229h-.973v.182c0,.626-.2,1.372-1.157,1.372h-.663v-2.9h1.822c1.979,0,2.254.915,2.408,2.111h1v-3.137h-8.769v1.025h.926c.422,0,.654.184.654.517v5.938a.632.632,0,0,1-.707.682Zm43.931.223c-1.306,0-2.862-.657-2.862-3.788s1.556-3.79,2.862-3.79,2.853.657,2.853,3.79S-7324.705-10940.525-7326.007-10940.525Zm-30.148-3.155h0l-2.539-.009,1.248-3.34h.041l1.25,3.348Zm8.917-1.363h-1.724v-2.837h1.724c1.177,0,1.88.53,1.88,1.418S-7346.063-10945.044-7347.238-10945.044Z" transform="translate(7431.002 10952.661)" fill="#b31e30"/>
    </g>
  </g>
</svg>
