<svg xmlns="http://www.w3.org/2000/svg" width="97.686" height="11.997" viewBox="0 0 97.686 11.997">
  <g id="Group_6079" data-name="Group 6079" transform="translate(0 0)">
    <path id="Path_4781" data-name="Path 4781" d="M266.281,1154.225h-1.244a.691.691,0,0,0-.075-.574l-2.014-3.5a4.987,4.987,0,0,0-.9-1.2h.025c.821.45,2.411,1.349,5.494,3.173l.174.1c.572.325.92.849.821,1.224-.149.475-.969.774-2.289.774m-4.023,3.473-.174.1c-.572.325-1.168.375-1.443.1-.373-.375-.2-1.224.472-2.4l.622-1.049a.659.659,0,0,0,.547.225h4a6.385,6.385,0,0,0,1.493-.15h-.025C266.952,1154.975,265.361,1155.949,262.254,1157.7Zm-2.136-7.42v-.2c0-.674.274-1.2.671-1.3.5-.125,1.145.45,1.815,1.6l.621,1.049a.617.617,0,0,0-.448.35l-2.014,3.5a7.026,7.026,0,0,0-.623,1.374v-.025C260.091,1155.724,260.069,1153.875,260.118,1150.278Zm3.18-2.923a6,6,0,1,0,5.966,6v0A6,6,0,0,0,263.3,1147.355Z" transform="translate(-257.322 -1147.355)" fill="#f58025"/>
    <path id="Path_4782" data-name="Path 4782" d="M324.977,1147.355h-5.295v.525h.1c1.864.225,2.04.474,2.04,1.424v10.043h2.113v-5.221h.846c1.99,0,6.14,0,6.14-3.4S327.065,1147.355,324.977,1147.355Zm-.224,5.871h-.82v-3.9c0-.924,0-1.074,1.715-1.074,1.914,0,2.958.9,2.958,2.5.025,2.174-1.939,2.473-3.853,2.473Z" transform="translate(-305.503 -1147.355)" fill="#0069aa"/>
    <path id="Path_4783" data-name="Path 4783" d="M379.925,1147.355h-1.244v9.344c-.3-.475-6.562-9.344-6.562-9.344H367.67v.525h.1c1.815.225,2.04.325,2.04,1.649v9.818h1.367V1149.3c.323.475,7.084,10.043,7.084,10.043h1.815v-11.992Z" transform="translate(-342.58 -1147.355)" fill="#0069aa"/>
    <path id="Path_4784" data-name="Path 4784" d="M429.275,1153c0,3.173,1.94,6.345,6.339,6.345a14.509,14.509,0,0,0,4.077-.475l.1-.025v-.974l-.174.025a12.574,12.574,0,0,1-2.786.425c-3.5,0-5.2-1.9-5.2-5.8-.025-2.6,1.244-4.172,3.331-4.172,1.443,0,2.239.55,2.461,1.624l.025.1h2.312v-.125c-.05-.6-.647-2.6-4.648-2.6C431.239,1147.38,429.275,1149.278,429.275,1153Z" transform="translate(-390.177 -1147.355)" fill="#0069aa"/>
    <path id="Path_4785" data-name="Path 4785" d="M491.277,1152.926a2.673,2.673,0,0,0,2.014-2.648c0-2.923-3.406-2.923-4.549-2.923h-6.065v.525l.5.1c1.244.225,1.914.375,1.914,1.5v9.868h3.555c1.467,0,5.369,0,5.369-3.273A3.081,3.081,0,0,0,491.277,1152.926Zm-4.251-3.473c0-1.049,0-1.2,1.294-1.2,1.891,0,2.787.7,2.787,2.148,0,1.924-1.865,2.123-3.257,2.123H487C487.026,1152.3,487.026,1149.453,487.026,1149.453Zm1.517,8.944c-1.517,0-1.517,0-1.517-1.3v-3.622h.846c1.168,0,3.928,0,3.928,2.573,0,1.549-1.07,2.348-3.258,2.348Z" transform="translate(-431.437 -1147.355)" fill="#0069aa"/>
    <path id="Path_4786" data-name="Path 4786" d="M539.611,1147.355h-3.579v.525l.1.025c1.019.2,1.443.375,1.443.7a2.489,2.489,0,0,1-.249.849v.025l-4.2,9.868h1.493s1.493-3.747,1.566-3.9H541c.075.125,1.665,3.9,1.665,3.9h2.189ZM536.5,1154.5c.125-.3,1.891-4.447,2.04-4.871.2.475,1.914,4.572,2.04,4.871Z" transform="translate(-470.413 -1147.355)" fill="#0069aa"/>
    <path id="Path_4787" data-name="Path 4787" d="M638.691,1159.346h1.94v-5.621c.348.374,5.494,5.621,5.494,5.621l2.04-.025-6.318-6.37,6.264-5.6H646s-5.046,4.447-5.369,4.747v-4.722H636.75v.5l.2.025c1.592.225,1.715.3,1.715,1.5v9.943Z" transform="translate(-550.478 -1147.355)" fill="#0069aa" fill-rule="evenodd"/>
    <path id="Path_4788" data-name="Path 4788" d="M591.718,1147.355h-1.244v9.344c-.324-.475-6.563-9.344-6.563-9.344h-4.448v.525h.1c1.791.225,2.04.325,2.04,1.649v9.818h1.367v-10.068c.321.475,7.083,10.068,7.083,10.068h1.815v-11.992Z" transform="translate(-506.217 -1147.355)" fill="#0069aa"/>
  </g>
</svg>
