<svg xmlns="http://www.w3.org/2000/svg" width="120" height="18" viewBox="0 0 120 18">
  <g id="Group_112615" data-name="Group 112615" transform="translate(-3436 -781)">
    <rect id="Rectangle_87464" data-name="Rectangle 87464" width="120" height="18" transform="translate(3436 781)" fill="#aaa" opacity="0"/>
    <g id="Group_112613" data-name="Group 112613">
      <path id="Path_41747" data-name="Path 41747" d="M52.152,10.062c0-.665.007-1.246,0-1.828-.01-.693-.033-1.387-.05-2.081,0-.119,0-.238-.012-.358-.043-.611-.158-.723-.77-.753-.042,0-.082-.013-.121-.092h2.39c-.062.049-.083.08-.109.085-.6.1-.667.172-.678.8-.029,1.778-.054,3.557-.086,5.334,0,.235-.034.469-.058.808a17.059,17.059,0,0,1-1.809-1.705c-.583-.568-1.153-1.148-1.718-1.732s-1.114-1.178-1.7-1.8a1.457,1.457,0,0,0-.031.218c.034,1.322.048,2.644.117,3.965.031.621.14.675.764.73a.139.139,0,0,1,.116.083H43.8c.25-.141.167-.323.094-.511-.2-.525-.4-1.052-.593-1.582a.3.3,0,0,0-.33-.233c-.564.012-1.129,0-1.692.012a.382.382,0,0,0-.3.163c-.2.489-.4.985-.555,1.491-.134.428-.037.538.415.576a.17.17,0,0,1,.14.089H38.7c.02-.038.028-.068.037-.068.626.007.909-.389,1.115-.912q1.105-2.811,2.238-5.612a2.7,2.7,0,0,1,.265-.426,2.333,2.333,0,0,1,.3.427c.719,1.765,1.427,3.534,2.142,5.3a4.987,4.987,0,0,0,.326.672,1,1,0,0,0,1.218.494.647.647,0,0,0,.349-.356,1.78,1.78,0,0,0,.07-.61c.028-1.832.049-3.665.076-5.5a3.74,3.74,0,0,1,.047-.393l.09-.03,5.183,5.342m-9.113-1.1-.861-2.365-.09.017-.866,2.348Z" transform="translate(3439.226 782.393)" fill="#0e477b"/>
      <path id="Path_41748" data-name="Path 41748" d="M9.194,4.927a.946.946,0,0,1,.212-.047c1.051.011,2.1,0,3.15.051a1.589,1.589,0,0,1,1.379.736A1.707,1.707,0,0,1,13.9,7.545,10.327,10.327,0,0,1,13.041,8.6a.164.164,0,0,0,.03.072c.626.763,1.244,1.533,1.886,2.282a1.82,1.82,0,0,0,1.614.678.448.448,0,0,0,.47-.437c.028-.3.063-.606.065-.908.007-1.443,0-2.886,0-4.33,0-.108,0-.217-.012-.325-.039-.438-.176-.57-.609-.6-.09-.005-.179-.018-.269-.028,0-.034,0-.067,0-.1h4.314c-.034.373-.072.8-.113,1.247-.073-.033-.1-.037-.106-.049-.152-.613-.265-.71-.906-.735-.314-.012-.629-.008-.944-.009-.054,0-.107.007-.192.012v2.5c.7-.094,1.422.192,2.123-.258-.042.491-.082.969-.125,1.458-.053-.022-.083-.026-.087-.038-.173-.637-.172-.646-.843-.7-.29-.025-.585-.009-.878-.017-.169-.005-.228.072-.225.235.007.716-.005,1.432.012,2.148.01.406.172.576.574.607a7.4,7.4,0,0,0,1.04,0,.717.717,0,0,0,.715-.6.714.714,0,0,1,.132-.286,2.39,2.39,0,0,1-.117,1.253c-.031.08-.239.13-.365.13-.585,0-1.17-.035-1.755-.038-1.086-.008-2.17-.023-3.254.005a1.7,1.7,0,0,1-1.472-.678c-.433-.556-.873-1.109-1.256-1.7a.882.882,0,0,0-.935-.467,2.449,2.449,0,0,1-.333,0c0,.8-.012,1.577.015,2.352,0,.106.193.239.323.3a4.891,4.891,0,0,1,.484.15H9.34c.011-.031.015-.064.025-.066.623-.12.694-.187.705-.849.016-.954.01-1.91.011-2.864,0-.705,0-1.411,0-2.116,0-.652-.1-.752-.739-.8A1.17,1.17,0,0,1,9.2,5c0-.024,0-.048,0-.072M11.9,8.5a1.006,1.006,0,0,0,1.127-.81,2.415,2.415,0,0,0,.1-.41,1.57,1.57,0,0,0-1.648-1.991c-.231.014-.32.091-.315.333.013.758,0,1.517,0,2.275,0,.551.022.574.574.6.054,0,.108,0,.163,0" transform="translate(3436.766 782.407)" fill="#0e477b"/>
      <path id="Path_41749" data-name="Path 41749" d="M51.518,12.721q-20.769,0-41.54-.006a3.819,3.819,0,0,1-.694-.13,3.978,3.978,0,0,1,.7-.127q41.567-.01,83.133,0a1.932,1.932,0,0,1,.631.114c-.046.286-.42.142-.64.142q-20.795.013-41.592.008" transform="translate(3436.774 783.038)" fill="#0e477b"/>
      <path id="Path_41750" data-name="Path 41750" d="M22.478,6.782c0,.821-.008,1.622,0,2.421.009.585.017,1.171.068,1.754s.154.644.732.692a.177.177,0,0,1,.143.088h-2.44l-.011-.04a.737.737,0,0,1,.154-.047c.531-.049.623-.12.649-.686.032-.757.029-1.518.04-2.276.017-1.193.031-2.386.052-3.578,0-.115.031-.23.064-.46l5.275,5.435c0-.2,0-.31,0-.42-.024-1.258-.043-2.514-.074-3.772-.015-.671-.085-.73-.9-.938h2.4c-.073.053-.1.082-.122.087-.589.1-.664.179-.674.765q-.045,2.75-.089,5.5c0,.191-.035.381-.063.69a37.09,37.09,0,0,1-2.673-2.6c-.857-.855-1.689-1.734-2.535-2.607" transform="translate(3437.748 782.388)" fill="#0e477b"/>
      <path id="Path_41751" data-name="Path 41751" d="M33.068,11.738a1.55,1.55,0,0,0,.015-.494c-.18-.533-.4-1.054-.584-1.585a.315.315,0,0,0-.347-.257c-.564.014-1.129.013-1.692,0a.3.3,0,0,0-.328.237c-.142.4-.3.79-.445,1.186-.232.639-.179.731.477.9H27.857c.05-.036.077-.074.1-.074.573.014.847-.332,1.039-.816.632-1.6,1.277-3.2,1.919-4.8.129-.322.249-.648.391-.964a2.345,2.345,0,0,1,.243-.359,1.78,1.78,0,0,1,.257.345c.4.962.778,1.929,1.166,2.895.335.833.66,1.672,1.011,2.5.256.6.467,1.275,1.381,1.192-.02.031-.038.063-.057.093Zm-1.7-5.149-.076-.005c-.289.778-.58,1.556-.88,2.363h1.812c-.295-.813-.576-1.585-.857-2.357" transform="translate(3438.322 782.393)" fill="#0e477b"/>
      <path id="Path_41752" data-name="Path 41752" d="M46.919,20.636H44.881c.794-.072.935-.726,1.162-1.292.67-1.66,1.328-3.325,1.995-4.988.069-.174.164-.337.309-.631.154.316.265.506.347.708.659,1.63,1.311,3.262,1.97,4.891a5.127,5.127,0,0,0,.345.708,1.151,1.151,0,0,0,1.42.417.843.843,0,0,0,.269-.623c.048-1.611.064-3.223.087-4.835.007-.357,0-.713,0-1.07l.158-.058,4.938,5.081a3.346,3.346,0,0,0,.062-.429c-.015-1.167-.025-2.335-.056-3.5-.018-.692-.125-.8-.781-.952H59.18c-.549.061-.615.437-.619.883q-.035,2.591-.089,5.182c0,.2-.036.406-.056.623l-5.038-4.805c0,.817,0,1.693,0,2.569,0,.329.026.657.043.986.044.845.046.845.873,1.126H49.934c-.09-.324-.145-.595-.24-.851-.524-1.415-.527-1.39-2.034-1.426a.707.707,0,0,0-.833.6c-.072.284-.207.554-.3.833-.192.557-.151.636.394.855M48.182,15.7l-.122,0c-.268.72-.536,1.438-.815,2.186h1.734c-.279-.767-.539-1.477-.8-2.187" transform="translate(3463.162 773.382)" fill="#0e477b"/>
      <path id="Path_41753" data-name="Path 41753" d="M59.014,4.922V6.179l-.057.008c-.025-.042-.073-.083-.073-.126a.567.567,0,0,0-.575-.588c-.544-.061-1.092-.082-1.659-.122-.011.154-.024.248-.024.342q0,2.455.007,4.912c0,.043,0,.087,0,.13.029.762.088.822.861.9.031,0,.06.02.089.079h-2.8c.772-.2.675-.31.69-1.052.034-1.637.02-3.274.025-4.911v-.4c-.687.048-1.341.078-1.99.154-.126.014-.241.2-.345.313a1.471,1.471,0,0,0-.149.261l-.106-.031c.073-.421.145-.842.2-1.185,1.035.021,2,.048,2.974.057s1.948,0,2.929,0" transform="translate(3440.41 782.405)" fill="#0e477b"/>
      <path id="Path_41754" data-name="Path 41754" d="M35.138,9.958c.021.107.044.212.06.321a1.375,1.375,0,0,0,2,1.078,1.072,1.072,0,0,0,.471-1.521,3.74,3.74,0,0,0-.716-.824c-.368-.351-.783-.654-1.149-1.005a1.966,1.966,0,0,1-.642-1.282,1.666,1.666,0,0,1,1.563-1.907,10.056,10.056,0,0,1,1.581.061c.231.013.3.145.27.375-.041.359-.048.719-.068,1.08l-.087.012c-.023-.08-.05-.163-.069-.245a1.268,1.268,0,0,0-1.916-.75.913.913,0,0,0-.2,1.343,8.248,8.248,0,0,0,.873.819c.368.335.771.637,1.1,1.005a1.981,1.981,0,0,1,.374,2.211,1.87,1.87,0,0,1-1.82,1.143,9.752,9.752,0,0,1-1.537-.167c-.2-.027-.278-.167-.267-.377.026-.454.035-.91.05-1.365l.133-.005" transform="translate(3438.914 782.4)" fill="#0e477b"/>
      <path id="Path_41755" data-name="Path 41755" d="M56.89,20.511H54.558c.57-.1.6-.528.6-.963,0-1.612,0-3.224.012-4.836.007-.564-.319-.7-.782-.771h2.429c-.546.076-.6.468-.6.9,0,.624,0,1.247,0,1.936a1.4,1.4,0,0,0,.273-.166c.623-.656,1.254-1.3,1.847-1.987.133-.153.13-.424.209-.708h1.878c-1.528.417-2.212,1.839-3.336,2.708a11.7,11.7,0,0,0,4.152,3.829,2.516,2.516,0,0,1-2.749-.707c-.636-.689-1.236-1.41-1.852-2.117-.105-.12-.212-.238-.378-.427,0,.983-.041,1.878.03,2.764.016.207.411.385.595.544" transform="translate(3469.278 773.505)" fill="#0e477b"/>
      <path id="Path_41756" data-name="Path 41756" d="M45.019,16.695c.266.143.4.209.526.281A1.858,1.858,0,0,1,46.621,19a1.947,1.947,0,0,1-1.89,1.525c-.95.041-1.9.008-2.9-.03.741-.108.677-.662.682-1.15.015-1.481.023-2.963.008-4.444-.008-.746-.069-.789-.777-.976h.641c.689,0,1.379-.015,2.067.008a1.387,1.387,0,0,1,1.4.825,1.508,1.508,0,0,1-.473,1.7,2.5,2.5,0,0,1-.363.24m-1.492,1.617h-.02c.023.426.031.851.076,1.274a.7.7,0,0,0,.194.424,1.258,1.258,0,0,0,1.656-.312,1.925,1.925,0,0,0-1.223-2.613c-.615-.087-.682-.03-.684.588,0,.212,0,.426,0,.639m0-2.864h0c0,.3-.018.593.008.887.011.127.127.355.174.35a2.184,2.184,0,0,0,1.009-.212c.434-.316.378-.851.265-1.321a1.147,1.147,0,0,0-.83-.9c-.454-.125-.611-.012-.626.454-.008.247,0,.493,0,.74" transform="translate(3461.147 773.508)" fill="#0e477b"/>
      <path id="Path_41757" data-name="Path 41757" d="M8.846,0V10.834a8.517,8.517,0,0,0-2.518-3.5,18.5,18.5,0,0,1-2.389-2.7,5.9,5.9,0,0,1-.506-.888,2.316,2.316,0,0,1,.009-2.173A1.65,1.65,0,0,0,2.426,2.721a3.248,3.248,0,0,0,.486,2.426A12.937,12.937,0,0,0,4.848,7.49c.664.688,1.492,1.451,2.119,2.154a6.657,6.657,0,0,1,1.739,3.363.908.908,0,0,1,0,.374c-.086-.152-.169-.3-.259-.453a14.85,14.85,0,0,0-2.8-3.245A31.733,31.733,0,0,1,3,6.886,3.607,3.607,0,0,1,1.986,4.342a2.366,2.366,0,0,0-.32,1.519,4.448,4.448,0,0,0,1.14,2.585,40.087,40.087,0,0,0,3.163,3.138c.575.527,1.156,1.177,1.7,1.737.08.082.147.177.254.308H0V0Z" transform="translate(3436 782)" fill="#00987a"/>
    </g>
  </g>
</svg>
