<svg id="Group_6065" data-name="Group 6065" xmlns="http://www.w3.org/2000/svg" width="44.568" height="12.479" viewBox="0 0 44.568 12.479">
  <path id="Path_4755" data-name="Path 4755" d="M301.811,172.681a13.872,13.872,0,0,1,0,2.971l-.16-.044a3,3,0,0,0-1.716-2.215,5.761,5.761,0,0,0-2.261-.1l-.131.2.187,9.958c.3.611,1.146.559,1.784.6.051.089-.051.364-.051.364l-6.766-.072c-.079-.046-.134-.135-.055-.2.689-.118,1.7-.033,1.9-.806l-.108-10.026a4.517,4.517,0,0,0-2.917.38,2.715,2.715,0,0,0-1.043,1.91c-.079.091-.213.023-.292.047a18.093,18.093,0,0,1,0-2.926l2.228-.058Zm-33.1,2.372a2.317,2.317,0,0,1-.909,2.365,5.82,5.82,0,0,1-1.771.827,8.121,8.121,0,0,0,1.144.4,3.023,3.023,0,0,1,2.088,2.389,2.67,2.67,0,0,1-1.173,2.479c-2.191,1.4-5.381.691-8.059.887l-2.573-.006c-.051-.067-.028-.158-.029-.25.557-.14,1.326.014,1.64-.578l.127-.84-.1-9.049c-.191-.7-1.067-.608-1.7-.716-.051-.046-.106-.158-.028-.226l.079-.046c3.025.1,5.863-.284,8.706.244a3.588,3.588,0,0,1,2.564,2.115Zm-6.434-1.663c.013,1.542,0,3.288.064,4.6a2.836,2.836,0,0,0,2.832-1.015,2.752,2.752,0,0,0-.154-2.813A3,3,0,0,0,262.278,173.39Zm.042,5.377-.022,3.879c0,.386-.048.727.381,1a2.76,2.76,0,0,0,2.3-.355,2.838,2.838,0,0,0,.448-3.541c-.485-1.087-1.971-1.143-3.111-.978Z" transform="translate(-257.322 -172.38)" fill="#922b3f" fill-rule="evenodd"/>
  <path id="Path_4756" data-name="Path 4756" d="M323.736,172.706a2.087,2.087,0,0,1-.249,2.182,6.9,6.9,0,0,1-1.267,1.118,16.567,16.567,0,0,0,2.233,3.072l.993.993c.451-.138.553-.707.869-1.049.075-.591.895-1.275.143-1.839-.16-.113-.506,0-.429-.27,1.037-.1,2.208-.058,3.458-.088,0,.091.107.181.029.25-.212.182-.558.094-.8.208-1.563.689-1.657,2.279-2.633,3.373.271.519.911.812,1.392,1.172a1.6,1.6,0,0,0,1.619-.509c.133,0,.214.068.214.181a3.062,3.062,0,0,1-1.822,1.961,2.492,2.492,0,0,1-1.622.146,7.449,7.449,0,0,1-1.683-.92,14.07,14.07,0,0,0-1.3.757,5.624,5.624,0,0,1-7.01-1.595h-.135a4.921,4.921,0,0,1-4.163,1.682l-7.312-.025c-.107-.022-.028-.113-.055-.181a3.41,3.41,0,0,0,1.433-.394l.287-.546c.1-3.358-.051-6.238-.079-9.6-.271-.657-1.1-.675-1.762-.716v-.226q3.314-.089,6.627-.039c1.7.08,3.46.275,4.43,1.676a2.109,2.109,0,0,1,.284,2.153,3.921,3.921,0,0,1-2.514,1.739,6.259,6.259,0,0,1,2.808,1.662h.107a6.419,6.419,0,0,1,3.038-2.582c-.434-1.087-1.508-2.26-.695-3.513a3.653,3.653,0,0,1,3.714-1.337A2.893,2.893,0,0,1,323.736,172.706Zm-14.684-.116a43.358,43.358,0,0,0,.064,4.559l.532.042a2.679,2.679,0,0,0,2.384-1.217,2.522,2.522,0,0,0-.234-2.653,2.807,2.807,0,0,0-2.747-.732Zm11.869.519c-.446.842.385,1.5.737,2.2a2.227,2.227,0,0,0,1.376-1.1,1.167,1.167,0,0,0-.222-1.2,1.4,1.4,0,0,0-1.889.1Zm-1.563,4.182a1.972,1.972,0,0,0-.939,2.161,4,4,0,0,0,2.841,2.728,2.069,2.069,0,0,0,1.885-.374,22.515,22.515,0,0,1-1.987-2.1,23.792,23.792,0,0,0-1.8-2.417Zm-10.266.653c.039,1.5-.108,3.04.063,4.515a1.288,1.288,0,0,0,1.122.467,2.65,2.65,0,0,0,1.856-.782,3.087,3.087,0,0,0-.19-3.652A3.156,3.156,0,0,0,309.091,177.943Z" transform="translate(-293.105 -171.51)" fill="#922b3f" fill-rule="evenodd"/>
</svg>
