<svg xmlns="http://www.w3.org/2000/svg" width="113.818" height="16.681" viewBox="0 0 113.818 16.681">
  <g id="Group_80746" data-name="Group 80746" transform="translate(-0.002 -0.013)">
    <path id="Path_7167" data-name="Path 7167" d="M257.322,1674.441H371.141V1657.76H257.322Z" transform="translate(-257.32 -1657.746)" fill="#b31e30"/>
    <g id="Group_8132" data-name="Group 8132" transform="translate(3.781 3.485)">
      <path id="Path_7168" data-name="Path 7168" d="M288.634,1672.521v2.888h.667c.84,0,1.22-.407,1.22-1.54v-.178h.979v4.48h-.979v-.191c0-1.123-.38-1.553-1.22-1.553h-.667v3.231h2.792c1.269,0,1.733-.836,1.883-2.428h1.013v3.456h-9.17v-1.027h.776c.483,0,.74-.133.74-.968V1673.3c0-.6-.277-.783-.923-.783h-.283a1.056,1.056,0,0,0-1.219.842l-2.529,7.322H279.79l-1.466-4.771H278.3l-1.626,4.771h-1.946l-2.626-7.671c-.117-.377-.313-.492-.846-.492h-.193V1671.5h4.052v1.024h-.59c-.306,0-.433.182-.433.363a1.531,1.531,0,0,0,.126.5l1.753,5.128H276l1.669-4.823-.233-.654a.746.746,0,0,0-.833-.515h-.33V1671.5h4.185v1.024h-.74c-.286,0-.4.122-.4.307a1.522,1.522,0,0,0,.117.466l1.533,5.127H281l1.783-5.008a1.454,1.454,0,0,0,.107-.473c0-.218-.107-.419-.6-.419h-.673V1671.5h12.709v3.142h-1.043c-.21-1.328-.33-2.115-2.189-2.115Z" transform="translate(-271.06 -1671.223)" fill="#ffcc02"/>
      <path id="Path_7169" data-name="Path 7169" d="M367.733,1680.685v-3.456h-1.066c-.143,1.579-.433,2.428-1.883,2.428h-2.109v-6.5c0-.509.213-.638.826-.638h.786V1671.5h-5.122v1.024h.81c.56,0,.75.182.75.6v5.92c0,.482-.267.615-.663.615h-.9v1.027Z" transform="translate(-334.931 -1671.223)" fill="#ffcc02"/>
      <path id="Path_7170" data-name="Path 7170" d="M402.3,1680.685v-3.456h-1.076c-.14,1.579-.44,2.428-1.873,2.428H397.24v-6.5c0-.509.213-.638.826-.638h.78V1671.5h-5.118v1.024h.81c.566,0,.753.182.753.6v5.92c0,.482-.266.615-.66.615h-.9v1.027Z" transform="translate(-359.986 -1671.223)" fill="#ffcc02"/>
      <path id="Path_7171" data-name="Path 7171" d="M434.391,1671.459a3.6,3.6,0,0,0-2.606-.968c-1.75,0-3.519.879-3.519,2.766,0,1.708,1.373,2.484,2.952,2.821.523.109.836.168,1.313.271,1.186.247,1.976.6,1.976,1.42,0,.618-.663,1.282-1.97,1.282a2.881,2.881,0,0,1-3.139-2.554h-1.073v3.456h.95l.31-.826a3.932,3.932,0,0,0,2.809,1.1c2.159,0,3.789-.951,3.789-2.831,0-1.823-1.519-2.607-3.375-2.973-.333-.083-.633-.132-.973-.212-1.153-.244-1.893-.528-1.893-1.348,0-.71.756-1.2,1.9-1.2a2.683,2.683,0,0,1,2.726,2.24h1.043v-3.139h-.753Z" transform="translate(-385.024 -1670.491)" fill="#ffcc02"/>
    </g>
    <g id="Group_8133" data-name="Group 8133" transform="translate(61.064 3.475)">
      <path id="Path_7172" data-name="Path 7172" d="M484.676,1672.491c2.053,0,2.266,1.024,2.406,2.114h1v-3.138h-8.767v1.024h.926c.42,0,.653.188.653.519v5.937a.63.63,0,0,1-.707.68h-.873v1.031h5.125v-1.031h-.7c-.646,0-.883-.191-.883-.71v-2.5h.573c.867,0,1.243.373,1.243,1.348v.3h.973v-4.229h-.973v.182c0,.714-.26,1.371-1.16,1.371h-.66v-2.9Z" transform="translate(-479.314 -1671.189)" fill="#ffcc02"/>
      <path id="Path_7173" data-name="Path 7173" d="M625.715,1670.449h0a4.881,4.881,0,1,0,5.045,4.873A4.772,4.772,0,0,0,625.715,1670.449Zm0,8.663c-2.209,0-2.862-1.811-2.862-3.79s.653-3.789,2.862-3.789,2.852,1.807,2.852,3.789S627.911,1679.112,625.715,1679.112Z" transform="translate(-581.783 -1670.449)" fill="#ffcc02"/>
      <path id="Path_7174" data-name="Path 7174" d="M587.156,1676.046h.633c.46,0,.74.2.74.651v.535c0,1.054-.65,1.784-2.069,1.784-1.78,0-2.666-1.586-2.666-3.694,0-2.081.887-3.677,2.609-3.677a2.887,2.887,0,0,1,2.612,2.22h1.15v-3.138h-.98l-.343.75a3.921,3.921,0,0,0-2.782-1.027c-2.742,0-4.465,2.071-4.465,4.873,0,2.822,1.749,4.883,4.465,4.883a4.273,4.273,0,0,0,2.906-.988l.52.7h.95v-3.185c0-.542.2-.687.743-.687h.26v-1.031h-4.282Z" transform="translate(-553.461 -1670.449)" fill="#ffcc02"/>
      <path id="Path_7175" data-name="Path 7175" d="M525.444,1678.763c0,.615-.173.875-.5.875s-.54-.211-.54-1.152v-.539a1.692,1.692,0,0,0-1.8-1.89v-.02c.836-.047,2.622-.4,2.622-2.181,0-1.431-.953-2.379-2.972-2.379H516.16v1.024h.973c.436,0,.58.132.58.5v6.138c0,.364-.18.5-.58.5h-.377c-.736,0-1.216-.1-1.469-.746l-3.032-7.414h-1.776l-2.956,7.414c-.263.641-.73.746-1.473.746v1.031h4.365v-1.031h-.983c-.273,0-.44-.062-.44-.261a1.17,1.17,0,0,1,.083-.383l.477-1.275h3.306s.437,1.186.487,1.308a1.222,1.222,0,0,1,.083.38c0,.161-.106.231-.39.231h-1.03v1.031h9.257v-1.034h-1.02c-.4,0-.573-.125-.573-.5v-2.775h.733c1.553,0,2.232.638,2.232,2.217v.479c0,1.249.457,1.9,1.809,1.9,1.156,0,1.919-.608,1.919-2.194v-.251h-.923Zm-15.5-2.068,1.246-3.341h.043l1.25,3.347Zm11.456-1.355h-1.723V1672.5H521.4c1.293,0,1.879.611,1.879,1.417h0C523.271,1674.805,522.588,1675.34,521.4,1675.34Z" transform="translate(-498.696 -1671.198)" fill="#ffcc02"/>
    </g>
  </g>
</svg>
