<svg xmlns="http://www.w3.org/2000/svg" width="54.986" height="20" viewBox="0 0 54.986 20">
  <g id="Group_110394" data-name="Group 110394" transform="translate(0 0)">
    <rect id="Rectangle_115695" data-name="Rectangle 115695" width="54.986" height="19.996" transform="translate(0 0.002)" fill="#aaa" opacity="0"/>
    <path id="Union_1423" data-name="Union 1423" d="M40.113,0a.251.251,0,0,0-.248.251V.312H22.795a.168.168,0,0,0-.165.164V3.527H22.3a2.822,2.822,0,0,1-1.384,1.25h2.6a.378.378,0,0,0,.379-.376V1.562h2.133V4.887l-7.08,1.4L17.709,4.777h1a2.791,2.791,0,0,1-1.4-1.25h-1.35a2.791,2.791,0,0,1-1.4,1.25h1.538l1.449,1.8-6.9,1.364V4.777H12.36a2.811,2.811,0,0,1-1.4-1.25h-.314V.564a.255.255,0,0,0-.254-.251H.314A.314.314,0,0,0,0,.63v.622a.309.309,0,0,0,.314.31h9.07l-7.241,6.6H.314A.316.316,0,0,0,0,8.489V9.1a.31.31,0,0,0,.314.312h9.07v6.434H9.07a.331.331,0,0,0-.331.327v.613a.313.313,0,0,0,.314.31h.331v2.653A.254.254,0,0,0,9.637,20h.755a.255.255,0,0,0,.254-.251V17.1H26.024v2.653a.252.252,0,0,0,.254.251h.755a.255.255,0,0,0,.254-.251V17.1H40.152v2.653a.255.255,0,0,0,.253.251h.755a.252.252,0,0,0,.254-.251V17.1h.76a.244.244,0,0,0,.248-.244V16.1a.25.25,0,0,0-.248-.251h-.76V4.689L52.655,3.654a.316.316,0,0,0,.292-.351L52.9,2.7a.321.321,0,0,0-.352-.288l-1.454.137-2.585-.989h4.237a.238.238,0,0,0,.243-.234V.552a.243.243,0,0,0-.243-.239H41.717V.251A.255.255,0,0,0,41.463,0Zm-5.84,1.54.016.022h-.016Zm-1.334,0v.022h-.016Zm8.475.022h3.6L48.263,2.8l-6.849.637Zm-1.262,0V3.549L35.248,4l-.959-2.441Zm-12.866,0h5.636L31.854,4.33l-4.567.41Zm6.319,1.7.342.862-.695.061Zm-24.221,0v4.9H3.994Zm26.327,1.96,4.441-.41v11.03h-.3ZM32.747,5.5l1.669-.164L38.5,15.846H28.724Zm-5.46.5,4.05-.371L27.363,15.846h-.076ZM19.83,7.386l6.193-1.223v8.87ZM10.646,9.209l7.8-1.545,6.612,8.182H10.646ZM17.6,2.189a2.21,2.21,0,0,0,4.419,0,2.21,2.21,0,0,0-4.419,0Zm-6.342,0A2.207,2.207,0,1,0,13.467,0,2.2,2.2,0,0,0,11.257,2.189Z" transform="translate(53.98 20) rotate(180)" fill="#aaa"/>
  </g>
</svg>
