<svg xmlns="http://www.w3.org/2000/svg" width="54.997" height="20.501" viewBox="0 0 54.997 20.501">
  <g id="Trailer_-_Container" data-name="Trailer - Container" transform="translate(-146 -244.121)">
    <rect id="Rectangle_61172" data-name="Rectangle 61172" width="54.997" height="19.999" transform="translate(146 244.121)" fill="#6c6c6c" opacity="0"/>
    <path id="Path_36447" data-name="Path 36447" d="M52.559,138.121H1.937a.928.928,0,0,0-.937.937v11.874a.25.25,0,0,0,.25.25h52a.25.25,0,0,0,.25-.25V139.058a.928.928,0,0,0-.937-.937m-44.4.989h.562V150.2H8.162Zm7.437,0h.7V150.2h-.7Zm7.575,0h.7V150.2h-.7Zm7.575,0h.712V150.2h-.712Zm7.587,0h.7V150.2h-.7Zm7.575,0h.7V150.2h-.7Z" transform="translate(146.25 106)" fill="#aaa"/>
    <path id="Union_720" data-name="Union 720" d="M1053.11-9676.466a.25.25,0,0,1-.25-.251v-.126a.242.242,0,0,1,.25-.248h.036v-2.425h-.848l-1.188-1.964h-21.4v1.249h-.688a3.1,3.1,0,0,0-.987-1.249,3.137,3.137,0,0,0-1.876-.624,3.02,3.02,0,0,0-1.861.624,2.977,2.977,0,0,0-1,1.249h-.9a3.1,3.1,0,0,0-.987-1.249,3.137,3.137,0,0,0-1.876-.624,3.019,3.019,0,0,0-1.861.624,3.1,3.1,0,0,0-.987,1.249H1016v-1.249h-1.563l-1.188,1.937v1.152a.384.384,0,0,1-.374.374h-.5a.376.376,0,0,1-.374-.374v-4.238a.25.25,0,0,1,.25-.25h52a.251.251,0,0,1,.25.25v.9a.251.251,0,0,1-.25.25h-7.8l-1.2,1.964h-.848v2.425h.049a.242.242,0,0,1,.25.248v.126a.25.25,0,0,1-.25.251Zm-29.448-2.506a2.5,2.5,0,0,1,2.5-2.5,2.5,2.5,0,0,1,2.5,2.5,2.5,2.5,0,0,1-2.5,2.5A2.5,2.5,0,0,1,1023.662-9678.972Zm-6.62,0a2.5,2.5,0,0,1,2.5-2.5,2.5,2.5,0,0,1,2.5,2.5,2.5,2.5,0,0,1-2.5,2.5A2.5,2.5,0,0,1,1017.043-9678.972Z" transform="translate(-864.75 9940.588)" fill="#dadada" stroke="rgba(0,0,0,0)" stroke-miterlimit="10" stroke-width="1"/>
  </g>
</svg>
