<svg xmlns="http://www.w3.org/2000/svg" width="55.5" height="20.999" viewBox="0 0 55.5 20.999"><g transform="translate(-146 -104.5)"><rect width="55" height="20" transform="translate(146 105)" fill="#aaa" opacity="0"/><path d="M1023.662-9604.5a2.5,2.5,0,0,1,2.5-2.5,2.5,2.5,0,0,1,2.5,2.5,2.5,2.5,0,0,1-2.5,2.5A2.5,2.5,0,0,1,1023.662-9604.5Zm-6.619,0a2.5,2.5,0,0,1,2.5-2.5,2.5,2.5,0,0,1,2.5,2.5,2.5,2.5,0,0,1-2.5,2.5A2.5,2.5,0,0,1,1017.043-9604.5Zm36.07,2.5a.253.253,0,0,1-.251-.252v-.125a.251.251,0,0,1,.251-.249h.036v-2.412h-.85l-1.186-1.963h-10.026v.625h-11.374v.625h-.688a3.109,3.109,0,0,0-.988-1.25,3.135,3.135,0,0,0-1.874-.626,3.026,3.026,0,0,0-1.864.626,2.987,2.987,0,0,0-1,1.25h-.9a3.1,3.1,0,0,0-.985-1.25,3.142,3.142,0,0,0-1.876-.626,3.019,3.019,0,0,0-1.862.626,3.109,3.109,0,0,0-.988,1.25H1016V-9607h-1.562l-1.188,1.938v1.149a.383.383,0,0,1-.374.374h-.5a.374.374,0,0,1-.374-.374v-17.147a.934.934,0,0,1,.937-.937h49.75a.562.562,0,0,1,.563.563l1.562,0a.937.937,0,0,1,.937.939v8.862a.944.944,0,0,1-.937.937h-1.562v2.763a.945.945,0,0,1-.937.938h-5.863l-1.2,1.963h-.85v2.412h.051a.249.249,0,0,1,.249.249v.125a.251.251,0,0,1-.249.252Zm6.774-8.752a.119.119,0,0,0,.125.126h.314a.124.124,0,0,0,.123-.126.133.133,0,0,0-.123-.125h-.314A.126.126,0,0,0,1059.886-9610.755Zm-2.437,0a.119.119,0,0,0,.125.126h.611a.126.126,0,0,0,.126-.126.135.135,0,0,0-.126-.125h-.611A.126.126,0,0,0,1057.45-9610.755Zm-2.437,0a.126.126,0,0,0,.123.126h.613a.126.126,0,0,0,.126-.126.135.135,0,0,0-.126-.125h-.613A.134.134,0,0,0,1055.013-9610.755Zm-2.427,0a.119.119,0,0,0,.125.126h.6a.117.117,0,0,0,.123-.126.124.124,0,0,0-.123-.125h-.6A.126.126,0,0,0,1052.586-9610.755Zm-2.437,0a.119.119,0,0,0,.126.126h.611a.126.126,0,0,0,.126-.126.135.135,0,0,0-.126-.125h-.611A.126.126,0,0,0,1050.15-9610.755Zm-2.437,0a.126.126,0,0,0,.123.126h.613a.126.126,0,0,0,.126-.126.135.135,0,0,0-.126-.125h-.613A.135.135,0,0,0,1047.713-9610.755Zm-2.427,0a.119.119,0,0,0,.126.126h.6a.117.117,0,0,0,.123-.126.124.124,0,0,0-.123-.125h-.6A.126.126,0,0,0,1045.286-9610.755Zm-2.437,0a.119.119,0,0,0,.126.126h.611a.126.126,0,0,0,.125-.126.135.135,0,0,0-.125-.125h-.611A.126.126,0,0,0,1042.85-9610.755Zm-2.437,0a.126.126,0,0,0,.123.126h.613a.126.126,0,0,0,.125-.126.135.135,0,0,0-.125-.125h-.613A.134.134,0,0,0,1040.413-9610.755Zm-2.427,0a.119.119,0,0,0,.126.126h.6a.117.117,0,0,0,.123-.126.124.124,0,0,0-.123-.125h-.6A.126.126,0,0,0,1037.986-9610.755Zm-2.437,0a.119.119,0,0,0,.126.126h.611a.126.126,0,0,0,.125-.126.135.135,0,0,0-.125-.125h-.611A.126.126,0,0,0,1035.55-9610.755Zm-2.437,0a.126.126,0,0,0,.123.126h.613a.126.126,0,0,0,.126-.126.135.135,0,0,0-.126-.125h-.613A.134.134,0,0,0,1033.113-9610.755Zm-2.427,0a.119.119,0,0,0,.126.126h.6a.117.117,0,0,0,.123-.126.124.124,0,0,0-.123-.125h-.6A.126.126,0,0,0,1030.687-9610.755Zm-2.437,0a.119.119,0,0,0,.125.126h.611a.126.126,0,0,0,.126-.126.135.135,0,0,0-.126-.125h-.611A.126.126,0,0,0,1028.25-9610.755Zm-2.437,0a.124.124,0,0,0,.123.126h.613a.126.126,0,0,0,.126-.126.135.135,0,0,0-.126-.125h-.613A.132.132,0,0,0,1025.813-9610.755Zm-2.427,0a.119.119,0,0,0,.126.126h.6a.117.117,0,0,0,.123-.126.124.124,0,0,0-.123-.125h-.6A.126.126,0,0,0,1023.387-9610.755Zm-2.437,0a.119.119,0,0,0,.126.126h.611a.126.126,0,0,0,.126-.126.135.135,0,0,0-.126-.125h-.611A.126.126,0,0,0,1020.95-9610.755Zm-2.437,0a.124.124,0,0,0,.123.126h.613a.126.126,0,0,0,.126-.126.135.135,0,0,0-.126-.125h-.613A.132.132,0,0,0,1018.513-9610.755Zm-2.427,0a.119.119,0,0,0,.126.126h.6a.117.117,0,0,0,.123-.126.124.124,0,0,0-.123-.125h-.6A.126.126,0,0,0,1016.087-9610.755Zm-2.137,0a.119.119,0,0,0,.126.126h.312a.126.126,0,0,0,.126-.126.135.135,0,0,0-.126-.125h-.312A.126.126,0,0,0,1013.95-9610.755Zm45.937-3.75a.119.119,0,0,0,.125.126h.314a.124.124,0,0,0,.123-.126.131.131,0,0,0-.123-.123h-.314A.124.124,0,0,0,1059.886-9614.5Zm-2.437,0a.119.119,0,0,0,.125.126h.611a.126.126,0,0,0,.126-.126.133.133,0,0,0-.126-.123h-.611A.124.124,0,0,0,1057.45-9614.5Zm-2.437,0a.126.126,0,0,0,.123.126h.613a.126.126,0,0,0,.126-.126.133.133,0,0,0-.126-.123h-.613A.133.133,0,0,0,1055.013-9614.5Zm-2.427,0a.119.119,0,0,0,.125.126h.6a.117.117,0,0,0,.123-.126.122.122,0,0,0-.123-.123h-.6A.124.124,0,0,0,1052.586-9614.5Zm-2.437,0a.119.119,0,0,0,.126.126h.611a.126.126,0,0,0,.126-.126.133.133,0,0,0-.126-.123h-.611A.124.124,0,0,0,1050.15-9614.5Zm-2.437,0a.126.126,0,0,0,.123.126h.613a.126.126,0,0,0,.126-.126.133.133,0,0,0-.126-.123h-.613A.133.133,0,0,0,1047.713-9614.5Zm-2.427,0a.119.119,0,0,0,.126.126h.6a.117.117,0,0,0,.123-.126.122.122,0,0,0-.123-.123h-.6A.124.124,0,0,0,1045.286-9614.5Zm-2.437,0a.119.119,0,0,0,.126.126h.611a.126.126,0,0,0,.125-.126.133.133,0,0,0-.125-.123h-.611A.124.124,0,0,0,1042.85-9614.5Zm-2.437,0a.126.126,0,0,0,.123.126h.613a.126.126,0,0,0,.125-.126.133.133,0,0,0-.125-.123h-.613A.133.133,0,0,0,1040.413-9614.5Zm-2.427,0a.119.119,0,0,0,.126.126h.6a.117.117,0,0,0,.123-.126.122.122,0,0,0-.123-.123h-.6A.124.124,0,0,0,1037.986-9614.5Zm-2.437,0a.119.119,0,0,0,.126.126h.611a.126.126,0,0,0,.125-.126.133.133,0,0,0-.125-.123h-.611A.124.124,0,0,0,1035.55-9614.5Zm-2.437,0a.126.126,0,0,0,.123.126h.613a.126.126,0,0,0,.126-.126.133.133,0,0,0-.126-.123h-.613A.133.133,0,0,0,1033.113-9614.5Zm-2.427,0a.119.119,0,0,0,.126.126h.6a.117.117,0,0,0,.123-.126.122.122,0,0,0-.123-.123h-.6A.124.124,0,0,0,1030.687-9614.5Zm-2.437,0a.119.119,0,0,0,.125.126h.611a.126.126,0,0,0,.126-.126.133.133,0,0,0-.126-.123h-.611A.124.124,0,0,0,1028.25-9614.5Zm-2.437,0a.124.124,0,0,0,.123.126h.613a.126.126,0,0,0,.126-.126.133.133,0,0,0-.126-.123h-.613A.131.131,0,0,0,1025.813-9614.5Zm-2.427,0a.119.119,0,0,0,.126.126h.6a.117.117,0,0,0,.123-.126.122.122,0,0,0-.123-.123h-.6A.124.124,0,0,0,1023.387-9614.5Zm-2.437,0a.119.119,0,0,0,.126.126h.611a.126.126,0,0,0,.126-.126.133.133,0,0,0-.126-.123h-.611A.124.124,0,0,0,1020.95-9614.5Zm-2.437,0a.124.124,0,0,0,.123.126h.613a.126.126,0,0,0,.126-.126.133.133,0,0,0-.126-.123h-.613A.131.131,0,0,0,1018.513-9614.5Zm-2.427,0a.119.119,0,0,0,.126.126h.6a.117.117,0,0,0,.123-.126.122.122,0,0,0-.123-.123h-.6A.124.124,0,0,0,1016.087-9614.5Zm-2.137,0a.119.119,0,0,0,.126.126h.312a.126.126,0,0,0,.126-.126.133.133,0,0,0-.126-.123h-.312A.124.124,0,0,0,1013.95-9614.5Zm49.3-1.562h1.524a.31.31,0,0,0,.314-.312.31.31,0,0,0-.314-.313h-1.524Zm0-1.874h1.524a.31.31,0,0,0,.314-.313.31.31,0,0,0-.314-.312h-1.524Zm-3.364-.313a.118.118,0,0,0,.125.126h.314a.123.123,0,0,0,.123-.126.132.132,0,0,0-.123-.123h-.314A.125.125,0,0,0,1059.886-9618.255Zm-2.437,0a.118.118,0,0,0,.125.126h.611a.125.125,0,0,0,.126-.126.134.134,0,0,0-.126-.123h-.611A.125.125,0,0,0,1057.45-9618.255Zm-2.437,0a.124.124,0,0,0,.123.126h.613a.125.125,0,0,0,.126-.126.135.135,0,0,0-.126-.123h-.613A.134.134,0,0,0,1055.013-9618.255Zm-2.427,0a.118.118,0,0,0,.125.126h.6a.116.116,0,0,0,.123-.126.123.123,0,0,0-.123-.123h-.6A.125.125,0,0,0,1052.586-9618.255Zm-2.437,0a.118.118,0,0,0,.126.126h.611a.125.125,0,0,0,.126-.126.135.135,0,0,0-.126-.123h-.611A.126.126,0,0,0,1050.15-9618.255Zm-2.437,0a.125.125,0,0,0,.123.126h.613a.125.125,0,0,0,.126-.126.135.135,0,0,0-.126-.123h-.613A.134.134,0,0,0,1047.713-9618.255Zm-2.427,0a.118.118,0,0,0,.126.126h.6a.116.116,0,0,0,.123-.126.123.123,0,0,0-.123-.123h-.6A.126.126,0,0,0,1045.286-9618.255Zm-2.437,0a.118.118,0,0,0,.126.126h.611a.125.125,0,0,0,.125-.126.134.134,0,0,0-.125-.123h-.611A.126.126,0,0,0,1042.85-9618.255Zm-2.437,0a.125.125,0,0,0,.123.126h.613a.125.125,0,0,0,.125-.126.134.134,0,0,0-.125-.123h-.613A.134.134,0,0,0,1040.413-9618.255Zm-2.427,0a.118.118,0,0,0,.126.126h.6a.116.116,0,0,0,.123-.126.123.123,0,0,0-.123-.123h-.6A.126.126,0,0,0,1037.986-9618.255Zm-2.437,0a.118.118,0,0,0,.126.126h.611a.125.125,0,0,0,.125-.126.134.134,0,0,0-.125-.123h-.611A.125.125,0,0,0,1035.55-9618.255Zm-2.437,0a.125.125,0,0,0,.123.126h.613a.125.125,0,0,0,.126-.126.134.134,0,0,0-.126-.123h-.613A.134.134,0,0,0,1033.113-9618.255Zm-2.427,0a.118.118,0,0,0,.126.126h.6a.116.116,0,0,0,.123-.126.123.123,0,0,0-.123-.123h-.6A.125.125,0,0,0,1030.687-9618.255Zm-2.437,0a.118.118,0,0,0,.125.126h.611a.125.125,0,0,0,.126-.126.134.134,0,0,0-.126-.123h-.611A.125.125,0,0,0,1028.25-9618.255Zm-2.437,0a.123.123,0,0,0,.123.126h.613a.125.125,0,0,0,.126-.126.134.134,0,0,0-.126-.123h-.613A.132.132,0,0,0,1025.813-9618.255Zm-2.427,0a.118.118,0,0,0,.126.126h.6a.116.116,0,0,0,.123-.126.123.123,0,0,0-.123-.123h-.6A.126.126,0,0,0,1023.387-9618.255Zm-2.437,0a.118.118,0,0,0,.126.126h.611a.125.125,0,0,0,.126-.126.135.135,0,0,0-.126-.123h-.611A.126.126,0,0,0,1020.95-9618.255Zm-2.437,0a.123.123,0,0,0,.123.126h.613a.125.125,0,0,0,.126-.126.134.134,0,0,0-.126-.123h-.613A.132.132,0,0,0,1018.513-9618.255Zm-2.427,0a.118.118,0,0,0,.126.126h.6a.116.116,0,0,0,.123-.126.123.123,0,0,0-.123-.123h-.6A.125.125,0,0,0,1016.087-9618.255Zm-2.137,0a.118.118,0,0,0,.126.126h.312a.125.125,0,0,0,.126-.126.134.134,0,0,0-.126-.123h-.312A.125.125,0,0,0,1013.95-9618.255Zm49.3-1.287h1.524a.31.31,0,0,0,.314-.312.316.316,0,0,0-.314-.312h-1.524Z" transform="translate(-864.75 9727)" fill="#aaa" stroke="rgba(0,0,0,0)" stroke-miterlimit="10" stroke-width="1"/></g></svg>