<svg xmlns="http://www.w3.org/2000/svg" width="55" height="21" viewBox="0 0 55 21">
  <g id="Trailer_-_Dumper" data-name="Trailer - Dumper" transform="translate(-146 -217.229)">
    <rect id="Rectangle_61174" data-name="Rectangle 61174" width="55" height="20" transform="translate(146 217.729)" fill="#aaa" opacity="0"/>
    <path id="Union_721" data-name="Union 721" d="M1023.663-9651.771a2.5,2.5,0,0,1,2.5-2.5,2.5,2.5,0,0,1,2.5,2.5,2.5,2.5,0,0,1-2.5,2.5A2.5,2.5,0,0,1,1023.663-9651.771Zm-6.62,0a2.5,2.5,0,0,1,2.5-2.5,2.5,2.5,0,0,1,2.5,2.5,2.5,2.5,0,0,1-2.5,2.5A2.5,2.5,0,0,1,1017.043-9651.771Zm30.494,2.5a.253.253,0,0,1-.25-.25v-.127a.251.251,0,0,1,.25-.249h.051v-2.412h-.849l-1.189-1.964h-1.075l-1.861,3.063h-6.025l-1.1-1.812h-6.462a3.121,3.121,0,0,0-.988-1.25,3.138,3.138,0,0,0-1.876-.623,3.006,3.006,0,0,0-1.861.623,2.977,2.977,0,0,0-1,1.25h-.9a3.12,3.12,0,0,0-.988-1.25,3.148,3.148,0,0,0-1.876-.623,3.019,3.019,0,0,0-1.864.623,3.094,3.094,0,0,0-.985,1.25H1016v-1.25h-1.563l-1.187,1.939v1.136a.377.377,0,0,1-.376.376h-.5a.369.369,0,0,1-.374-.376v-4.226a.251.251,0,0,1,.25-.25h29.013v-.523H1012.25a.251.251,0,0,1-.25-.25v-9.227a.928.928,0,0,1,.937-.937h46.551l.9-2.5a.26.26,0,0,1,.238-.162h3.623a.251.251,0,0,1,.25.249v.9a.251.251,0,0,1-.25.25h-1.8l-4.15,11.5a.256.256,0,0,1-.226.175h-13.451v.523H1058a.251.251,0,0,1,.25.25v.9a.249.249,0,0,1-.25.25h-7.125l-1.189,1.964h-.849v2.412h.039a.251.251,0,0,1,.25.249v.127a.253.253,0,0,1-.25.25Z" transform="translate(-864.75 9887)" fill="#aaa" stroke="rgba(0,0,0,0)" stroke-miterlimit="10" stroke-width="1"/>
  </g>
</svg>
