<svg xmlns="http://www.w3.org/2000/svg" width="55" height="20.976" viewBox="0 0 55 20.976">
  <g id="Trailer_-_Car_Hauler" data-name="Trailer - Car Hauler" transform="translate(-146 -301.535)">
    <rect id="Rectangle_61176" data-name="Rectangle 61176" width="55" height="20" transform="translate(146 302.011)" fill="#aaa" opacity="0"/>
    <path id="Union_718" data-name="Union 718" d="M1025.555-9687.2a2.187,2.187,0,0,1,2.19-2.187,2.188,2.188,0,0,1,2.187,2.187,2.189,2.189,0,0,1-2.187,2.188A2.188,2.188,0,0,1,1025.555-9687.2Zm-6.284,0a2.187,2.187,0,0,1,2.187-2.187,2.187,2.187,0,0,1,2.187,2.187,2.187,2.187,0,0,1-2.187,2.188A2.187,2.187,0,0,1,1019.271-9687.2Zm28.828,2.183a.251.251,0,0,1-.248-.251v-.124a.25.25,0,0,1,.248-.251h.051v-.312h-17.364a.25.25,0,0,1-.248-.251v-2.326h-.326a2.79,2.79,0,0,0-1.374-1.249h1.7v-5.425l1.461-.8-4.175-7.227-4.2,1.3,1.513,12.149h1.513a2.763,2.763,0,0,0-1.388,1.249h-1.337a2.772,2.772,0,0,0-1.388-1.249h1.337l-1.461-11.774-6.713,2.1,1.525,12.249h.188v-2.574h2.95a2.782,2.782,0,0,0-1.388,1.249h-.312v2.326a.251.251,0,0,1-.251.251h-6.162a.25.25,0,0,1-.248-.251v-.75a.251.251,0,0,1,.248-.251h3.7l-1.461-11.874-1.875.587a.255.255,0,0,1-.312-.163l-.227-.724a.266.266,0,0,1,.163-.312l16.971-5.28a.255.255,0,0,1,.2.021l9.168,5.332H1049.4l14.926,4.659a.252.252,0,0,1,.175.239v4.827a.252.252,0,0,1-.251.251h-8.026l-3.249,1.249-1.413,2.438H1049.4v.312h.036a.251.251,0,0,1,.251.251v.124a.252.252,0,0,1-.251.251Zm1.3-2.189h1.437l5.212-9.024-6.649-2.075Zm-8.812,0h7.563v-11.16h-7.563Zm-6.876-8.311,4.8,8.311h.826v-11.16h-.438Zm-1.924,1.05v7.261h5.288l-4.45-7.711Zm22.836,3.2h8.625v-2.713l-5.975-1.863Zm-25.586-12.351,4.051,7.012,4.211-2.312-8.137-4.739Z" transform="translate(-864.75 10007.027)" fill="#aaa" stroke="rgba(0,0,0,0)" stroke-miterlimit="10" stroke-width="1"/>
  </g>
</svg>
