<svg xmlns="http://www.w3.org/2000/svg" width="54.997" height="20.501" viewBox="0 0 54.997 20.501"><rect width="54.997" height="19.999" transform="translate(0 0)" fill="#aaa" opacity="0"/><path d="M1.937,138.121H52.559a.928.928,0,0,1,.937.937v11.874a.25.25,0,0,1-.25.25h-52a.25.25,0,0,1-.25-.25V139.058a.928.928,0,0,1,.937-.937m44.4.989h-.562V150.2h.562Zm-7.437,0h-.7V150.2h.7Zm-7.575,0h-.7V150.2h.7Zm-7.575,0h-.712V150.2h.712Zm-7.587,0h-.7V150.2h.7Zm-7.575,0h-.7V150.2h.7Z" transform="translate(0.25 -138.121)" fill="#aaa"/><path d="M41.11,0a.25.25,0,0,0-.25.251V.377a.242.242,0,0,0,.25.248h.036V3.05H40.3L39.11,5.014H17.71V3.765h-.688a3.1,3.1,0,0,1-.987,1.249,3.137,3.137,0,0,1-1.876.624A3.02,3.02,0,0,1,12.3,5.014a2.977,2.977,0,0,1-1-1.249h-.9a3.1,3.1,0,0,1-.987,1.249,3.137,3.137,0,0,1-1.876.624,3.019,3.019,0,0,1-1.861-.624,3.1,3.1,0,0,1-.987-1.249H4V5.014H2.437L1.249,3.077V1.925a.384.384,0,0,0-.374-.374h-.5A.376.376,0,0,0,0,1.925V6.163a.25.25,0,0,0,.25.25h52a.251.251,0,0,0,.25-.25v-.9a.251.251,0,0,0-.25-.25h-7.8l-1.2-1.964H42.4V.625h.049A.242.242,0,0,0,42.7.377V.251A.25.25,0,0,0,42.446,0ZM11.662,2.506a2.5,2.5,0,1,0,2.5-2.5A2.5,2.5,0,0,0,11.662,2.506Zm-6.62,0a2.5,2.5,0,1,0,2.5-2.5A2.5,2.5,0,0,0,5.042,2.506Z" transform="translate(53.746 20.001) rotate(180)" fill="#aaa" stroke="rgba(0,0,0,0)" stroke-miterlimit="10" stroke-width="1" opacity="0.4"/></svg>