<svg xmlns="http://www.w3.org/2000/svg" width="55" height="20.501" viewBox="0 0 55 20.501"><g transform="translate(-146 -186.953)"><rect width="55" height="20" transform="translate(146 186.953)" fill="#aaa" opacity="0"/><path d="M1053.117-9640.812a.253.253,0,0,1-.25-.252v-.124a.251.251,0,0,1,.25-.249h.039v-3.14h-22.876a3.1,3.1,0,0,0-.987-1.249,3.127,3.127,0,0,0-1.874-.625,3.023,3.023,0,0,0-1.864.625,2.969,2.969,0,0,0-1,1.249h-4.4a3.117,3.117,0,0,0-.987-1.249,3.134,3.134,0,0,0-1.876-.625,3.011,3.011,0,0,0-1.862.625,3.076,3.076,0,0,0-.987,1.249h-.764l-.424.688v1.151a.383.383,0,0,1-.376.373h-.5a.375.375,0,0,1-.376-.373v-4.237a.251.251,0,0,1,.25-.25h52a.249.249,0,0,1,.25.25v.9a.249.249,0,0,1-.25.249h-6.582l-3.263,1.249v3.14h.051a.249.249,0,0,1,.25.249v.124a.251.251,0,0,1-.25.252Zm-28.2-2.507a2.5,2.5,0,0,1,2.5-2.5,2.5,2.5,0,0,1,2.5,2.5,2.5,2.5,0,0,1-2.5,2.5A2.5,2.5,0,0,1,1024.917-9643.319Zm-10.124,0a2.5,2.5,0,0,1,2.5-2.5,2.5,2.5,0,0,1,2.5,2.5,2.5,2.5,0,0,1-2.5,2.5A2.5,2.5,0,0,1,1014.793-9643.319Zm35.02-4.432v-11.357a.937.937,0,0,1,.936-.938.937.937,0,0,1,.938.938V-9648a.251.251,0,0,1-.25.252Zm-2.5,0v-11.357a.939.939,0,0,1,.938-.938.939.939,0,0,1,.938.938v11.357Zm-5,0V-9658.5a1,1,0,0,1,1-1h2.369a1,1,0,0,1,1,1v10.754Zm-30.062,0a.251.251,0,0,1-.25-.252v-9.857a.937.937,0,0,1,.938-.936h6.228v11.045Zm22.561,0V-9658.8h6.875v11.046Zm-7.5,0V-9658.8h6.875v11.046Zm-7.5,0V-9658.8h6.873v11.046Z" transform="translate(-864.75 9847.767)" fill="#aaa" stroke="rgba(0,0,0,0)" stroke-miterlimit="10" stroke-width="1"/></g></svg>