<svg xmlns="http://www.w3.org/2000/svg" width="55" height="20.5" viewBox="0 0 55 20.5"><rect width="55" height="20" transform="translate(0 0)" fill="#aaa" opacity="0"/><path d="M41.114,0a.251.251,0,0,0-.252.252V.377a.251.251,0,0,0,.252.249h.037V3.039H40.3L39.113,5h-21.4V3.751h-.687a3.124,3.124,0,0,1-2.861,1.876A3.012,3.012,0,0,1,12.3,5a2.985,2.985,0,0,1-1-1.25h-.9A3.124,3.124,0,0,1,7.539,5.627,3.007,3.007,0,0,1,5.676,5a3.113,3.113,0,0,1-.988-1.25H4V5H2.438L1.25,3.064V1.927a.376.376,0,0,0-.374-.376h-.5A.37.37,0,0,0,0,1.927V6.152a.243.243,0,0,0,.249.25h52a.243.243,0,0,0,.249-.25v-.9A.25.25,0,0,0,52.25,5h-7.8l-1.2-1.962H42.4V.626h.051A.25.25,0,0,0,42.7.377V.252A.251.251,0,0,0,42.451,0ZM11.662,2.5a2.5,2.5,0,1,0,2.5-2.5A2.5,2.5,0,0,0,11.662,2.5Zm-6.617,0A2.5,2.5,0,1,0,7.544,0,2.5,2.5,0,0,0,5.045,2.5Z" transform="translate(53.75 20) rotate(180)" fill="#aaa" stroke="rgba(0,0,0,0)" stroke-miterlimit="10" stroke-width="1"/></svg>