<svg xmlns="http://www.w3.org/2000/svg" width="54.997" height="20.499" viewBox="0 0 54.997 20.499">
  <g id="Trailer_-_Side_Kit" data-name="Trailer - Side Kit" transform="translate(-146 -160.886)">
    <rect id="Rectangle_61162" data-name="Rectangle 61162" width="54.997" height="19.999" transform="translate(146 160.886)" fill="#aaa" opacity="0"/>
    <path id="Union_723" data-name="Union 723" d="M1053.11-9628.259a.249.249,0,0,1-.249-.25v-.125a.249.249,0,0,1,.249-.25h.039v-3.137h-22.875a3.092,3.092,0,0,0-.988-1.25,3.132,3.132,0,0,0-1.874-.624,3.005,3.005,0,0,0-1.864.624,3,3,0,0,0-1,1.25h-4.4a3.091,3.091,0,0,0-.988-1.25,3.133,3.133,0,0,0-1.876-.624,3,3,0,0,0-1.862.624,3.091,3.091,0,0,0-.988,1.25h-.763l-.424.7v1.138a.377.377,0,0,1-.375.375h-.5a.368.368,0,0,1-.375-.375v-4.236a.253.253,0,0,1,.252-.252h51.983a.253.253,0,0,1,.252.252v.9a.245.245,0,0,1-.252.249h-6.573l-3.263,1.25v3.137h.051a.251.251,0,0,1,.249.25v.125a.251.251,0,0,1-.249.25Zm-28.2-2.5a2.5,2.5,0,0,1,2.5-2.5,2.5,2.5,0,0,1,2.5,2.5,2.5,2.5,0,0,1-2.5,2.5A2.5,2.5,0,0,1,1024.912-9630.757Zm-10.124,0a2.5,2.5,0,0,1,2.5-2.5,2.5,2.5,0,0,1,2.5,2.5,2.5,2.5,0,0,1-2.5,2.5A2.5,2.5,0,0,1,1014.788-9630.757Zm42.51-4.437v-6.062a.318.318,0,0,0-.312-.312.327.327,0,0,0-.312.313v6.063H1049.8v-5.762a.31.31,0,0,0-.312-.312.318.318,0,0,0-.312.313v5.762H1042.3v-5.762a.31.31,0,0,0-.312-.312.318.318,0,0,0-.312.313v5.762H1034.8v-5.762a.31.31,0,0,0-.312-.312.318.318,0,0,0-.312.313v5.762h-6.863v-5.762a.318.318,0,0,0-.312-.312.31.31,0,0,0-.312.313v5.762h-6.875v-5.762a.318.318,0,0,0-.312-.312.31.31,0,0,0-.312.313v5.762h-6.936a.251.251,0,0,1-.252-.25V-9645.8a.247.247,0,0,1,.3-.245,16.737,16.737,0,0,0,3.438.291,16.293,16.293,0,0,0,3.5-.3,1.035,1.035,0,0,1,.535,0,16.254,16.254,0,0,0,3.481.3,16.11,16.11,0,0,0,3.474-.3,1.179,1.179,0,0,1,.521-.037,23.652,23.652,0,0,0,3.505.342,16.028,16.028,0,0,0,3.481-.3,1.112,1.112,0,0,1,.537,0,16.028,16.028,0,0,0,3.481.3,16.255,16.255,0,0,0,3.486-.3,1.188,1.188,0,0,1,.523-.037,23.414,23.414,0,0,0,3.491.342,16.256,16.256,0,0,0,3.486-.3,1.188,1.188,0,0,1,.523-.037,23.573,23.573,0,0,0,3.5.342c.813,0,1.576-.036,2.2-.1h.048a11.572,11.572,0,0,1,2.878.566l5.938,1.976a.253.253,0,0,1,.172.237v7.633a.251.251,0,0,1-.249.25Z" transform="translate(-864.741 9809.144)" fill="#aaa" stroke="rgba(0,0,0,0)" stroke-miterlimit="10" stroke-width="1"/>
  </g>
</svg>
