<svg xmlns="http://www.w3.org/2000/svg" width="55" height="20.999" viewBox="0 0 55 20.999"><g transform="translate(0 0.499)"><rect width="55" height="20" transform="translate(0 0)" fill="#aaa" opacity="0"/><path d="M41.112,0a.25.25,0,0,0-.249.251V.374a.251.251,0,0,0,.249.252h.039v2.41H40.3L39.113,5H29.087V4.376H17.712V3.749h-.687a3.122,3.122,0,0,1-2.863,1.877A3,3,0,0,1,12.3,5a2.964,2.964,0,0,1-1-1.25h-.9A3.084,3.084,0,0,1,9.412,5a3.115,3.115,0,0,1-1.874.627A3.008,3.008,0,0,1,5.674,5a3.078,3.078,0,0,1-.986-1.25H4V5H2.437L1.25,3.063V1.927A.375.375,0,0,0,.875,1.55h-.5A.368.368,0,0,0,0,1.927V19.061A.93.93,0,0,0,.938,20H51.562a.938.938,0,0,0,.938-.938V5.938A.945.945,0,0,0,51.562,5h-7.11l-1.2-1.963H42.4V.626h.048A.253.253,0,0,0,42.7.374V.251A.252.252,0,0,0,42.449,0Zm3.726,7.188V6.876a.151.151,0,0,1,.15-.15.154.154,0,0,1,.162.15v.312a.164.164,0,0,1-.162.162A.162.162,0,0,1,44.838,7.188Zm-7.5,0V6.876a.151.151,0,0,1,.15-.15.154.154,0,0,1,.162.15v.312a.164.164,0,0,1-.162.162A.162.162,0,0,1,37.338,7.188Zm-7.5,0V6.876a.151.151,0,0,1,.15-.15.154.154,0,0,1,.164.15v.312a.165.165,0,0,1-.164.162A.162.162,0,0,1,29.836,7.188Zm-7.5,0V6.876a.151.151,0,0,1,.15-.15.154.154,0,0,1,.164.15v.312a.164.164,0,0,1-.164.162A.162.162,0,0,1,22.337,7.188Zm-7.5,0V6.876A.154.154,0,0,1,15,6.726a.151.151,0,0,1,.15.15v.312A.162.162,0,0,1,15,7.35.164.164,0,0,1,14.837,7.188Zm-7.5,0V6.876a.154.154,0,0,1,.162-.15.151.151,0,0,1,.15.15v.312a.162.162,0,0,1-.15.162A.164.164,0,0,1,7.338,7.188Zm37.5,2.238V8.863a.161.161,0,0,1,.15-.15.164.164,0,0,1,.162.15v.563a.165.165,0,0,1-.162.162A.164.164,0,0,1,44.838,9.426Zm-7.5,0V8.863a.161.161,0,0,1,.15-.15.164.164,0,0,1,.162.15v.563a.165.165,0,0,1-.162.162A.164.164,0,0,1,37.338,9.426Zm-7.5,0V8.863a.161.161,0,0,1,.15-.15.164.164,0,0,1,.164.15v.563a.166.166,0,0,1-.164.162A.164.164,0,0,1,29.836,9.426Zm-7.5,0V8.863a.161.161,0,0,1,.15-.15.164.164,0,0,1,.164.15v.563a.166.166,0,0,1-.164.162A.164.164,0,0,1,22.337,9.426Zm-7.5,0V8.863A.164.164,0,0,1,15,8.713a.161.161,0,0,1,.15.15v.563a.164.164,0,0,1-.15.162A.165.165,0,0,1,14.837,9.426Zm-7.5,0V8.863a.164.164,0,0,1,.162-.15.161.161,0,0,1,.15.15v.563a.164.164,0,0,1-.15.162A.165.165,0,0,1,7.338,9.426Zm37.5,2.236V11.1a.16.16,0,0,1,.15-.147.163.163,0,0,1,.162.147v.563a.165.165,0,0,1-.162.162A.163.163,0,0,1,44.838,11.662Zm-7.5,0V11.1a.16.16,0,0,1,.15-.147.163.163,0,0,1,.162.147v.563a.165.165,0,0,1-.162.162A.163.163,0,0,1,37.338,11.662Zm-7.5,0V11.1a.16.16,0,0,1,.15-.147.163.163,0,0,1,.164.147v.563a.165.165,0,0,1-.164.162A.163.163,0,0,1,29.836,11.662Zm-7.5,0V11.1a.16.16,0,0,1,.15-.147.163.163,0,0,1,.164.147v.563a.165.165,0,0,1-.164.162A.163.163,0,0,1,22.337,11.662Zm-7.5,0V11.1A.163.163,0,0,1,15,10.952a.16.16,0,0,1,.15.147v.563a.163.163,0,0,1-.15.162A.165.165,0,0,1,14.837,11.662Zm-7.5,0V11.1a.163.163,0,0,1,.162-.147.16.16,0,0,1,.15.147v.563a.163.163,0,0,1-.15.162A.165.165,0,0,1,7.338,11.662Zm37.5,2.236v-.561a.152.152,0,0,1,.15-.149.155.155,0,0,1,.162.149V13.9a.166.166,0,0,1-.162.165A.164.164,0,0,1,44.838,13.9Zm-7.5,0v-.561a.152.152,0,0,1,.15-.149.155.155,0,0,1,.162.149V13.9a.156.156,0,1,1-.312,0Zm-7.5,0v-.561a.152.152,0,0,1,.15-.149.155.155,0,0,1,.164.149V13.9a.166.166,0,0,1-.164.165A.164.164,0,0,1,29.836,13.9Zm-7.5,0v-.561a.152.152,0,0,1,.15-.149.155.155,0,0,1,.164.149V13.9a.166.166,0,0,1-.164.165A.164.164,0,0,1,22.337,13.9Zm-7.5,0v-.561A.155.155,0,0,1,15,13.188a.152.152,0,0,1,.15.149V13.9a.156.156,0,1,1-.312,0Zm-7.5,0v-.561a.155.155,0,0,1,.162-.149.152.152,0,0,1,.15.149V13.9a.156.156,0,1,1-.312,0Zm37.5,2.239v-.563a.152.152,0,0,1,.15-.149.155.155,0,0,1,.162.149v.563a.156.156,0,1,1-.312,0Zm-7.5,0v-.563a.152.152,0,0,1,.15-.149.155.155,0,0,1,.162.149v.563a.156.156,0,1,1-.312,0Zm-7.5,0v-.563a.152.152,0,0,1,.15-.149.155.155,0,0,1,.164.149v.563a.168.168,0,0,1-.164.164A.166.166,0,0,1,29.836,16.138Zm-7.5,0v-.563a.152.152,0,0,1,.15-.149.155.155,0,0,1,.164.149v.563a.167.167,0,0,1-.164.164A.166.166,0,0,1,22.337,16.138Zm-7.5,0v-.563A.155.155,0,0,1,15,15.425a.152.152,0,0,1,.15.149v.563a.156.156,0,1,1-.312,0Zm-7.5,0v-.563a.155.155,0,0,1,.162-.149.152.152,0,0,1,.15.149v.563a.156.156,0,1,1-.312,0Zm37.5,1.987v-.312a.151.151,0,0,1,.15-.15.154.154,0,0,1,.162.15v.312a.164.164,0,0,1-.162.162A.162.162,0,0,1,44.838,18.125Zm-7.5,0v-.312a.151.151,0,0,1,.15-.15.154.154,0,0,1,.162.15v.312a.164.164,0,0,1-.162.162A.162.162,0,0,1,37.338,18.125Zm-7.5,0v-.312a.151.151,0,0,1,.15-.15.154.154,0,0,1,.164.15v.312a.165.165,0,0,1-.164.162A.162.162,0,0,1,29.836,18.125Zm-7.5,0v-.312a.151.151,0,0,1,.15-.15.154.154,0,0,1,.164.15v.312a.164.164,0,0,1-.164.162A.162.162,0,0,1,22.337,18.125Zm-7.5,0v-.312a.154.154,0,0,1,.162-.15.151.151,0,0,1,.15.15v.312a.162.162,0,0,1-.15.162A.164.164,0,0,1,14.837,18.125Zm-7.5,0v-.312a.154.154,0,0,1,.162-.15.151.151,0,0,1,.15.15v.312a.162.162,0,0,1-.15.162A.164.164,0,0,1,7.338,18.125ZM11.663,2.5a2.5,2.5,0,1,0,2.5-2.5A2.5,2.5,0,0,0,11.663,2.5Zm-6.62,0A2.5,2.5,0,1,0,7.543,0,2.5,2.5,0,0,0,5.043,2.5Z" transform="translate(53.741 20) rotate(180)" fill="#aaa" stroke="rgba(0,0,0,0)" stroke-miterlimit="10" stroke-width="1"/></g></svg>