<svg xmlns="http://www.w3.org/2000/svg" width="55" height="20.501" viewBox="0 0 55 20.501">
  <g id="Trailer_-_Flat_Bed" data-name="Trailer - Flat Bed" transform="translate(-146 -329.262)">
    <rect id="Rectangle_61164" data-name="Rectangle 61164" width="55" height="20" transform="translate(146 329.262)" fill="#aaa" opacity="0"/>
    <path id="Union_717" data-name="Union 717" d="M1053.112-9711.324a.252.252,0,0,1-.249-.252v-.124a.252.252,0,0,1,.249-.251h.039v-3.137h-22.876a3.106,3.106,0,0,0-.988-1.251,3.12,3.12,0,0,0-1.873-.624,3.011,3.011,0,0,0-1.863.624,2.973,2.973,0,0,0-1,1.251h-4.4a3.127,3.127,0,0,0-.988-1.251,3.127,3.127,0,0,0-1.875-.624,3.011,3.011,0,0,0-1.863.624,3.148,3.148,0,0,0-.988,1.251h-.761l-.427.688v1.149a.383.383,0,0,1-.373.375h-.5a.377.377,0,0,1-.376-.375v-4.236a.25.25,0,0,1,.249-.251h52a.252.252,0,0,1,.251.251v.9a.252.252,0,0,1-.251.249h-6.587l-3.263,1.251v3.137h.051a.252.252,0,0,1,.249.251v.124a.252.252,0,0,1-.249.252Zm-28.2-2.508a2.5,2.5,0,0,1,2.5-2.5,2.5,2.5,0,0,1,2.5,2.5,2.5,2.5,0,0,1-2.5,2.5A2.5,2.5,0,0,1,1024.911-9713.832Zm-10.124,0a2.5,2.5,0,0,1,2.5-2.5,2.5,2.5,0,0,1,2.5,2.5,2.5,2.5,0,0,1-2.5,2.5A2.5,2.5,0,0,1,1014.788-9713.832Z" transform="translate(-864.75 10060.588)" fill="#aaa" stroke="rgba(0,0,0,0)" stroke-miterlimit="10" stroke-width="1"/>
  </g>
</svg>
