<svg xmlns="http://www.w3.org/2000/svg" width="55.251" height="20.5" viewBox="0 0 55.251 20.5">
  <g id="Trailer_-_Tanker" data-name="Trailer - Tanker" transform="translate(-145.749 -274.829)">
    <rect id="Rectangle_61175" data-name="Rectangle 61175" width="55" height="20" transform="translate(146 274.829)" fill="#aaa" opacity="0"/>
    <path id="Union_719" data-name="Union 719" d="M1053.114-9673.271a.251.251,0,0,1-.251-.251v-.124a.251.251,0,0,1,.251-.251h.036v-3.812h-.851l-1.187-1.963h-6.638l-1.861,3.063h-6.025l-1.863-3.062h-5.013v2.649h-.686a3.1,3.1,0,0,0-.988-1.248,3.116,3.116,0,0,0-1.875-.625,3.007,3.007,0,0,0-1.863.625,2.975,2.975,0,0,0-1,1.248h-.9a3.082,3.082,0,0,0-.988-1.248,3.116,3.116,0,0,0-1.875-.625,3,3,0,0,0-1.861.625,3.083,3.083,0,0,0-.988,1.248H1016v-1.248h-1.562l-1.189,1.937v1.136a.375.375,0,0,1-.375.377h-.5a.368.368,0,0,1-.375-.377v-4.223a.25.25,0,0,1,.248-.251H1016a5,5,0,0,1-5-5v-2.5a5,5,0,0,1,5-5h43.5a5,5,0,0,1,5,5v2.5a5,5,0,0,1-5,5h-3.048l-1.2,1.963h-.849v3.812h.049a.251.251,0,0,1,.251.251v.124a.251.251,0,0,1-.251.251Zm-29.442-2.5a2.5,2.5,0,0,1,2.5-2.5,2.5,2.5,0,0,1,2.5,2.5,2.5,2.5,0,0,1-2.5,2.5A2.5,2.5,0,0,1,1023.672-9675.771Zm-6.619,0a2.5,2.5,0,0,1,2.5-2.5,2.5,2.5,0,0,1,2.5,2.5,2.5,2.5,0,0,1-2.5,2.5A2.5,2.5,0,0,1,1017.053-9675.771Z" transform="translate(-864.75 9968.1)" fill="#aaa" stroke="rgba(0,0,0,0)" stroke-miterlimit="10" stroke-width="1"/>
  </g>
</svg>
