<svg width="50" height="18" viewBox="0 0 50 18" fill="none" xmlns="http://www.w3.org/2000/svg">
<path d="M35 17C33.8954 17 33 16.1046 33 15C33 13.8954 33.8954 13 35 13C36.1046 13 37 13.8954 37 15C37 16.1046 36.1046 17 35 17Z" fill="#aaa"/>
<path d="M30 17C28.8954 17 28 16.1046 28 15C28 13.8954 28.8954 13 30 13C31.1046 13 32 13.8954 32 15C32 16.1046 31.1046 17 30 17Z" fill="#aaa"/>
<path d="M3.5 1L4.167 3H40C40.552 3 41 3.448 41 4V11H12V11.5H41V15C41 15.552 40.552 16 40 16V14L39.5 13H38V14H37.291C36.904 13.118 36.023 12.5 35 12.5C33.977 12.5 33.096 13.118 32.709 14H32.29C31.903 13.118 31.022 12.5 29.999 12.5C28.976 12.5 28.095 13.118 27.708 14H23.999L22.999 15H17.999L16.999 14H13.999V16.5C14.275 16.5 14.499 16.724 14.499 17H12.499C12.499 16.724 12.723 16.5 12.999 16.5V14H12.499L11.009 12.51L1.999 12.5C1.447 12.5 0.998999 12.052 0.998999 11.5H8.999V11H4.999L1.999 2H0.998999C0.447 2 0 1.552 0 1H3.5Z" fill="#aaa"/>
</svg>
