<svg width="50" height="18" viewBox="0 0 50 18" fill="none" xmlns="http://www.w3.org/2000/svg">
<path d="M36 17C34.8954 17 34 16.1046 34 15C34 13.8954 34.8954 13 36 13C37.1046 13 38 13.8954 38 15C38 16.1046 37.1046 17 36 17Z" fill="#aaa"/>
<path d="M31 17C29.8954 17 29 16.1046 29 15C29 13.8954 29.8954 13 31 13C32.1046 13 33 13.8954 33 15C33 16.1046 32.1046 17 31 17Z" fill="#aaa"/>
<path d="M1 4H41C41 3.448 40.552 3 40 3H2C1.448 3 1 3.448 1 4Z" fill="#aaa"/>
<path d="M1 4.5H5.5V5.5C5.5 5.776 5.724 6 6 6V4.5H11.5V5.5C11.5 5.776 11.724 6 12 6V4.5H17.5V5.5C17.5 5.776 17.724 6 18 6V4.5H23.5V5.5C23.5 5.776 23.724 6 24 6V4.5H29.5V5.5C29.5 5.776 29.724 6 30 6V4.5H35.5V5.5C35.5 5.776 35.724 6 36 6V4.5H41V9L38 11.5H40C40.552 11.5 41 11.948 41 12.5V15C41 15.552 40.552 16 40 16V14L39.5 13H39V14H38.291C37.904 13.118 37.023 12.5 36 12.5C34.977 12.5 34.096 13.118 33.709 14H33.29C32.903 13.118 32.022 12.5 30.999 12.5C29.976 12.5 29.095 13.118 28.708 14H27.999V13L26.499 14.5V15.5H22.499C21.947 15.5 21.499 15.052 21.499 14.5H22.499L20.499 12.5H19.499L17.499 14.5H18.499C18.499 15.052 18.051 15.5 17.499 15.5H13.999V16.5C14.275 16.5 14.499 16.724 14.499 17H12.499C12.499 16.724 12.723 16.5 12.999 16.5V13.501L9.999 12.501H1.999C1.447 12.501 1 12.053 1 11.501H3.999L1 9.001V4.5Z" fill="#aaa"/>
</svg>
