<svg xmlns="http://www.w3.org/2000/svg" width="55" height="20.5" viewBox="0 0 55 20.5"><g transform="translate(-146 -412.152)"><rect width="54.999" height="20" transform="translate(146 412.152)" fill="#aaa" opacity="0"/><path d="M1053.125-9748.448a.251.251,0,0,1-.25-.25v-.125a.251.251,0,0,1,.25-.25h.037v-2.9h-23.887a2.8,2.8,0,0,0-1.376-1.251h25.262v-1.376a.25.25,0,0,1,.25-.249h10.838a.25.25,0,0,1,.25.249v1.126a.251.251,0,0,1-.25.25h-6.576l-3.261,1.251v2.9h.049a.251.251,0,0,1,.25.25v.125a.251.251,0,0,1-.25.25Zm-28.514-2.191a2.189,2.189,0,0,1,2.189-2.188,2.189,2.189,0,0,1,2.186,2.188,2.189,2.189,0,0,1-2.186,2.188A2.189,2.189,0,0,1,1024.612-9750.64Zm-9.5,0a2.189,2.189,0,0,1,2.186-2.188,2.189,2.189,0,0,1,2.189,2.188,2.189,2.189,0,0,1-2.189,2.188A2.189,2.189,0,0,1,1015.113-9750.64Zm-2.737.879a.385.385,0,0,1-.377-.375v-2.837a.251.251,0,0,1,.25-.25h3.964a2.775,2.775,0,0,0-1.388,1.251h-1.148l-.426.713v1.123a.375.375,0,0,1-.375.375Zm7.393-2.211a2.765,2.765,0,0,0-1.388-1.251h7.325a2.759,2.759,0,0,0-1.386,1.251Z" transform="translate(-864.75 10180.6)" fill="#aaa" stroke="rgba(0,0,0,0)" stroke-miterlimit="10" stroke-width="1"/></g></svg>