<svg xmlns="http://www.w3.org/2000/svg" width="55" height="20.005" viewBox="0 0 55 20.005">
  <g id="Trailer_-_Dry_Bulk" data-name="Trailer - Dry Bulk" transform="translate(0 0.001)">
    <rect id="BG" width="55" height="20.001" transform="translate(0 -0.001)" fill="#aaa" opacity="0"/>
    <path id="Shape" d="M20289.107,23759.883a.256.256,0,0,1-.25-.252v-.131a.252.252,0,0,1,.25-.25h.043v-3.811h-.848l-.34-.561h-22.254v1.252h-.691a2.958,2.958,0,0,0-.99-1.252,3.067,3.067,0,0,0-3.727,0,2.985,2.985,0,0,0-1,1.252h-.9a3.149,3.149,0,0,0-.99-1.252,3.1,3.1,0,0,0-1.877-.631,3.072,3.072,0,0,0-1.861.631,3.149,3.149,0,0,0-.99,1.252h-.68v-1.252h-1.568l-1.18,1.943v1.127a.386.386,0,0,1-.383.383h-.5a.37.37,0,0,1-.369-.363v-4.24a.238.238,0,0,1,.238-.25h.811l3.082-11.51a1.309,1.309,0,0,1,1.26-.971h46.85a.256.256,0,0,1,.25.25v.5a.245.245,0,0,1-.25.252h-46.893a.258.258,0,0,0-.238.189l-3.029,11.289h2.559l1.2-1.2v-7.43l-.7-.746.371-1.395a.246.246,0,0,1,.25-.209h46.492a.247.247,0,0,1,.246.25v1.479l-1.969,2v6.047l1.2,1.2h.512a.248.248,0,0,1,.25.25v.9a.244.244,0,0,1-.25.25h-8.652l-.34.561h-.846v3.811h.047a.252.252,0,0,1,.25.25v.131a.248.248,0,0,1-.25.252Zm-34.709-6.4h43.564l-3.316-3.3-1.687,1.719a3.012,3.012,0,0,1-2.318,1.09h-3.912l-.959-2.33a.752.752,0,0,0-1.391,0l-.619,1.5-.328.826h-5.271l-.961-2.33a.75.75,0,0,0-1.389,0l-.955,2.33h-5.258l-.955-2.33a.755.755,0,0,0-1.395,0l-.949,2.33h-3.6a3.03,3.03,0,0,1-2.318-1.09l-2.111-2.273Zm41.131-4.2,1.748,1.754v-3.535Zm-40.439,1.754,2.318-2.332-2.318-2.5Zm4.566,6.344a2.5,2.5,0,1,1,2.5,2.5A2.5,2.5,0,0,1,20259.656,23757.377Zm-6.619,0a2.5,2.5,0,1,1,2.5,2.5A2.5,2.5,0,0,1,20253.037,23757.377Zm27.484-.3a1,1,0,0,1-.93-.621l-.441-1.078h3.279l-.441,1.078a.986.986,0,0,1-.93.621Zm-8.562,0a.994.994,0,0,1-.932-.621l-.439-1.078h3.279l-.436,1.078a1,1,0,0,1-.93.621Z" transform="translate(-20246.746 -23739.879)" fill="#aaa"/>
  </g>
</svg>
