<svg xmlns="http://www.w3.org/2000/svg" width="55" height="20.999" viewBox="0 0 55 20.999"><g transform="translate(-146 -133.107)"><rect width="55" height="20" transform="translate(146 133.607)" fill="#aaa" opacity="0"/><path d="M1053.112-9613.395a.25.25,0,0,1-.249-.251v-.123a.251.251,0,0,1,.249-.252h.039v-2.41h-.851l-1.187-1.963h-10.026v.623h-11.375v.627h-.687a3.1,3.1,0,0,0-.986-1.25,3.122,3.122,0,0,0-1.876-.627,3,3,0,0,0-1.862.627,2.964,2.964,0,0,0-1,1.25h-.9a3.084,3.084,0,0,0-.989-1.25,3.115,3.115,0,0,0-1.874-.627,3.008,3.008,0,0,0-1.864.627,3.078,3.078,0,0,0-.986,1.25H1016v-1.25h-1.564l-1.187,1.937v1.136a.375.375,0,0,1-.375.377h-.5a.368.368,0,0,1-.375-.377v-17.134a.93.93,0,0,1,.938-.938h50.623a.938.938,0,0,1,.938.938v13.123a.945.945,0,0,1-.938.938h-7.11l-1.2,1.963h-.849v2.41h.048a.253.253,0,0,1,.251.252v.123a.252.252,0,0,1-.251.251Zm3.726-7.187v.312a.151.151,0,0,0,.15.15.154.154,0,0,0,.162-.15v-.312a.164.164,0,0,0-.162-.162A.162.162,0,0,0,1056.838-9620.582Zm-7.5,0v.312a.151.151,0,0,0,.15.15.154.154,0,0,0,.162-.15v-.312a.164.164,0,0,0-.162-.162A.162.162,0,0,0,1049.338-9620.582Zm-7.5,0v.312a.151.151,0,0,0,.15.15.154.154,0,0,0,.164-.15v-.312a.165.165,0,0,0-.164-.162A.162.162,0,0,0,1041.836-9620.582Zm-7.5,0v.312a.151.151,0,0,0,.15.15.154.154,0,0,0,.164-.15v-.312a.164.164,0,0,0-.164-.162A.162.162,0,0,0,1034.337-9620.582Zm-7.5,0v.312a.154.154,0,0,0,.162.15.151.151,0,0,0,.15-.15v-.312a.162.162,0,0,0-.15-.162A.164.164,0,0,0,1026.837-9620.582Zm-7.5,0v.312a.154.154,0,0,0,.162.15.151.151,0,0,0,.15-.15v-.312a.162.162,0,0,0-.15-.162A.164.164,0,0,0,1019.337-9620.582Zm37.5-2.238v.563a.161.161,0,0,0,.15.15.164.164,0,0,0,.162-.15v-.562a.165.165,0,0,0-.162-.162A.164.164,0,0,0,1056.838-9622.82Zm-7.5,0v.563a.161.161,0,0,0,.15.15.164.164,0,0,0,.162-.15v-.562a.165.165,0,0,0-.162-.162A.164.164,0,0,0,1049.338-9622.82Zm-7.5,0v.563a.161.161,0,0,0,.15.15.164.164,0,0,0,.164-.15v-.562a.166.166,0,0,0-.164-.162A.164.164,0,0,0,1041.836-9622.82Zm-7.5,0v.563a.161.161,0,0,0,.15.15.164.164,0,0,0,.164-.15v-.562a.166.166,0,0,0-.164-.162A.164.164,0,0,0,1034.337-9622.82Zm-7.5,0v.563a.164.164,0,0,0,.162.15.161.161,0,0,0,.15-.15v-.562a.164.164,0,0,0-.15-.162A.165.165,0,0,0,1026.837-9622.82Zm-7.5,0v.563a.164.164,0,0,0,.162.15.161.161,0,0,0,.15-.15v-.562a.164.164,0,0,0-.15-.162A.165.165,0,0,0,1019.337-9622.82Zm37.5-2.236v.563a.16.16,0,0,0,.15.147.163.163,0,0,0,.162-.147v-.562a.165.165,0,0,0-.162-.162A.163.163,0,0,0,1056.838-9625.057Zm-7.5,0v.563a.16.16,0,0,0,.15.147.163.163,0,0,0,.162-.147v-.562a.165.165,0,0,0-.162-.162A.163.163,0,0,0,1049.338-9625.057Zm-7.5,0v.563a.16.16,0,0,0,.15.147.163.163,0,0,0,.164-.147v-.562a.165.165,0,0,0-.164-.162A.163.163,0,0,0,1041.836-9625.057Zm-7.5,0v.563a.16.16,0,0,0,.15.147.163.163,0,0,0,.164-.147v-.562a.165.165,0,0,0-.164-.162A.163.163,0,0,0,1034.337-9625.057Zm-7.5,0v.563a.163.163,0,0,0,.162.147.16.16,0,0,0,.15-.147v-.562a.163.163,0,0,0-.15-.162A.165.165,0,0,0,1026.837-9625.057Zm-7.5,0v.563a.163.163,0,0,0,.162.147.16.16,0,0,0,.15-.147v-.562a.163.163,0,0,0-.15-.162A.165.165,0,0,0,1019.337-9625.057Zm37.5-2.236v.561a.152.152,0,0,0,.15.149.155.155,0,0,0,.162-.149v-.561a.166.166,0,0,0-.162-.165A.164.164,0,0,0,1056.838-9627.293Zm-7.5,0v.561a.152.152,0,0,0,.15.149.155.155,0,0,0,.162-.149v-.561a.166.166,0,0,0-.162-.165A.164.164,0,0,0,1049.338-9627.293Zm-7.5,0v.561a.152.152,0,0,0,.15.149.155.155,0,0,0,.164-.149v-.561a.166.166,0,0,0-.164-.165A.164.164,0,0,0,1041.836-9627.293Zm-7.5,0v.561a.152.152,0,0,0,.15.149.155.155,0,0,0,.164-.149v-.561a.166.166,0,0,0-.164-.165A.164.164,0,0,0,1034.337-9627.293Zm-7.5,0v.561a.155.155,0,0,0,.162.149.152.152,0,0,0,.15-.149v-.561a.164.164,0,0,0-.15-.165A.166.166,0,0,0,1026.837-9627.293Zm-7.5,0v.561a.155.155,0,0,0,.162.149.152.152,0,0,0,.15-.149v-.561a.164.164,0,0,0-.15-.165A.166.166,0,0,0,1019.337-9627.293Zm37.5-2.239v.563a.152.152,0,0,0,.15.149.155.155,0,0,0,.162-.149v-.563a.167.167,0,0,0-.162-.164A.165.165,0,0,0,1056.838-9629.532Zm-7.5,0v.563a.152.152,0,0,0,.15.149.155.155,0,0,0,.162-.149v-.563a.167.167,0,0,0-.162-.164A.166.166,0,0,0,1049.338-9629.532Zm-7.5,0v.563a.152.152,0,0,0,.15.149.155.155,0,0,0,.164-.149v-.563a.168.168,0,0,0-.164-.164A.166.166,0,0,0,1041.836-9629.532Zm-7.5,0v.563a.152.152,0,0,0,.15.149.155.155,0,0,0,.164-.149v-.563a.167.167,0,0,0-.164-.164A.166.166,0,0,0,1034.337-9629.532Zm-7.5,0v.563a.155.155,0,0,0,.162.149.152.152,0,0,0,.15-.149v-.563a.166.166,0,0,0-.15-.164A.167.167,0,0,0,1026.837-9629.532Zm-7.5,0v.563a.155.155,0,0,0,.162.149.152.152,0,0,0,.15-.149v-.563a.166.166,0,0,0-.15-.164A.167.167,0,0,0,1019.337-9629.532Zm37.5-1.987v.312a.151.151,0,0,0,.15.15.154.154,0,0,0,.162-.15v-.312a.164.164,0,0,0-.162-.162A.162.162,0,0,0,1056.838-9631.52Zm-7.5,0v.312a.151.151,0,0,0,.15.15.154.154,0,0,0,.162-.15v-.312a.164.164,0,0,0-.162-.162A.162.162,0,0,0,1049.338-9631.52Zm-7.5,0v.312a.151.151,0,0,0,.15.15.154.154,0,0,0,.164-.15v-.312a.165.165,0,0,0-.164-.162A.162.162,0,0,0,1041.836-9631.52Zm-7.5,0v.312a.151.151,0,0,0,.15.15.154.154,0,0,0,.164-.15v-.312a.164.164,0,0,0-.164-.162A.162.162,0,0,0,1034.337-9631.52Zm-7.5,0v.312a.154.154,0,0,0,.162.15.151.151,0,0,0,.15-.15v-.312a.162.162,0,0,0-.15-.162A.164.164,0,0,0,1026.837-9631.52Zm-7.5,0v.312a.154.154,0,0,0,.162.15.151.151,0,0,0,.15-.15v-.312a.162.162,0,0,0-.15-.162A.164.164,0,0,0,1019.337-9631.52Zm4.325,15.625a2.5,2.5,0,0,1,2.5-2.5,2.5,2.5,0,0,1,2.5,2.5,2.5,2.5,0,0,1-2.5,2.5A2.5,2.5,0,0,1,1023.663-9615.895Zm-6.62,0a2.5,2.5,0,0,1,2.5-2.5,2.5,2.5,0,0,1,2.5,2.5,2.5,2.5,0,0,1-2.5,2.5A2.5,2.5,0,0,1,1017.043-9615.895Z" transform="translate(-864.741 9767.001)" fill="#aaa" stroke="rgba(0,0,0,0)" stroke-miterlimit="10" stroke-width="1"/></g></svg>