<svg width="50" height="18" viewBox="0 0 50 18" fill="none" xmlns="http://www.w3.org/2000/svg">
<path d="M36 17C34.8954 17 34 16.1046 34 15C34 13.8954 34.8954 13 36 13C37.1046 13 38 13.8954 38 15C38 16.1046 37.1046 17 36 17Z" fill="#DF3C3C"/>
<path d="M31 17C29.8954 17 29 16.1046 29 15C29 13.8954 29.8954 13 31 13C32.1046 13 33 13.8954 33 15C33 16.1046 32.1046 17 31 17Z" fill="#DF3C3C"/>
<path d="M7 3H35L41 11.5V15C41 15.552 40.552 16 40 16V14L39.5 13H39V14H38.291C37.904 13.118 37.023 12.5 36 12.5C34.977 12.5 34.096 13.118 33.709 14H33.29C32.903 13.118 32.022 12.5 30.999 12.5C29.976 12.5 29.095 13.118 28.708 14H27.999V12.5H26.499L25.499 13.5V15H16.499V13.5L15.499 12.5H13.999V16.5C14.275 16.5 14.499 16.724 14.499 17H12.499C12.499 16.724 12.723 16.5 12.999 16.5V13.501L9.999 12.501H1.999C1.447 12.501 1 12.052 1 11.5L6.999 3.001L7 3ZM39.776 11.5L38.385 9.529L36.414 11.5H39.776ZM35 11.5L37.8 8.7L34.697 4.304L31.251 7.75L35.001 11.5H35ZM33.585 11.5L30.542 8.457L27.999 11H13.999L11.456 8.457L8.413 11.5H33.585ZM7.304 4.304L4.201 8.701L7.001 11.501L10.751 7.751L7.304 4.304ZM5.586 11.5L3.615 9.529L2.224 11.5H5.586Z" fill="#DF3C3C"/>
</svg>
