<svg xmlns="http://www.w3.org/2000/svg" width="55" height="20" viewBox="0 0 55 20">
  <g id="Trailer_-_Low_Boy_RGN" data-name="Trailer - Low Boy / RGN" transform="translate(-146 -354.442)">
    <rect id="Rectangle_61167" data-name="Rectangle 61167" width="55" height="20" transform="translate(146 354.442)" fill="#aaa" opacity="0"/>
    <path id="Path_36467" data-name="Path 36467" d="M18.82,262.942a2.5,2.5,0,1,0-2.5,2.5,2.5,2.5,0,0,0,2.5-2.5" transform="translate(149.455 109)" fill="#aaa"/>
    <path id="Path_36469" data-name="Path 36469" d="M53.5,258.046v2a.251.251,0,0,1-.25.25H46.525a1.254,1.254,0,0,0-1.25,1.25v2.112a1.344,1.344,0,0,1-1.35,1.35H25.05l-1.612-2.663h-1.05a3.12,3.12,0,0,0-2.862-1.875,3.013,3.013,0,0,0-1.862.625,3.1,3.1,0,0,0-.987,1.25h-.937a3.085,3.085,0,0,0-2.837-1.862,3.035,3.035,0,0,0-1.837.612,3.1,3.1,0,0,0-.987,1.25H9.15a3.12,3.12,0,0,0-2.862-1.875,3.013,3.013,0,0,0-1.862.625,3.1,3.1,0,0,0-.987,1.25H2.675l-.425.688v1.15a.384.384,0,0,1-.375.375h-.5A.376.376,0,0,1,1,264.183v-4.237a.251.251,0,0,1,.25-.25H24.612l1.612,2.65h16.55v-.8a3.753,3.753,0,0,1,3.75-3.75H53.25a.251.251,0,0,1,.25.25" transform="translate(146.25 108.338)" fill="#aaa"/>
    <path id="Path_36479" data-name="Path 36479" d="M8.23,262.942a2.5,2.5,0,1,0-2.5,2.5,2.5,2.5,0,0,0,2.5-2.5" transform="translate(146.807 109)" fill="#aaa"/>
    <path id="Path_36480" data-name="Path 36480" d="M13.525,262.942a2.5,2.5,0,1,0-2.5,2.5,2.5,2.5,0,0,0,2.5-2.5" transform="translate(148.131 109)" fill="#aaa"/>
  </g>
</svg>
