<svg xmlns="http://www.w3.org/2000/svg" width="19" height="19" viewBox="0 0 19 19"><g transform="translate(-5478.5 -13568.5)"><rect width="18" height="18" transform="translate(5479 13569)" fill="none" stroke="rgba(0,0,0,0)" stroke-width="1"/><path d="M81,.45A8.55,8.55,0,1,0,89.55,9,8.55,8.55,0,0,0,81,.45m0,3.31a3.035,3.035,0,1,1-3.034,3.034A3.034,3.034,0,0,1,81,3.76m0,11.86a6.608,6.608,0,0,1-5.051-2.351,3.844,3.844,0,0,1,3.4-2.062.882.882,0,0,1,.245.038,4.3,4.3,0,0,0,2.82,0,.882.882,0,0,1,.245-.038,3.843,3.843,0,0,1,3.4,2.062A6.608,6.608,0,0,1,81,15.62" transform="translate(5407 13569)" fill="#919191" stroke="rgba(0,0,0,0)" stroke-width="1"/></g></svg>