<svg xmlns="http://www.w3.org/2000/svg" width="54.997" height="20.499" viewBox="0 0 54.997 20.499"><rect width="54.997" height="19.999" transform="translate(0)" fill="#aaa" opacity="0"/><path d="M41.111,0a.249.249,0,0,0-.249.25V.375a.249.249,0,0,0,.249.25h.039V3.762H18.275a3.092,3.092,0,0,1-.988,1.25,3.132,3.132,0,0,1-1.874.624,3.005,3.005,0,0,1-1.864-.624,3,3,0,0,1-1-1.25h-4.4a3.091,3.091,0,0,1-.988,1.25,3.133,3.133,0,0,1-1.876.624,3,3,0,0,1-1.862-.624,3.091,3.091,0,0,1-.988-1.25H1.675l-.424-.7V1.925A.377.377,0,0,0,.876,1.55h-.5A.368.368,0,0,0,0,1.925V6.161a.253.253,0,0,0,.252.252H52.235a.253.253,0,0,0,.252-.252v-.9a.245.245,0,0,0-.252-.249H45.662L42.4,3.762V.625h.051A.251.251,0,0,0,42.7.375V.25A.251.251,0,0,0,42.45,0Zm-28.2,2.5a2.5,2.5,0,1,0,2.5-2.5A2.5,2.5,0,0,0,12.913,2.5ZM2.789,2.5A2.5,2.5,0,1,0,5.287,0,2.5,2.5,0,0,0,2.789,2.5ZM45.3,6.936V13a.318.318,0,0,1-.312.313A.327.327,0,0,1,44.675,13V6.936H37.8V12.7a.31.31,0,0,1-.312.313.318.318,0,0,1-.312-.312V6.936H30.3V12.7a.31.31,0,0,1-.312.313.318.318,0,0,1-.312-.312V6.936H22.8V12.7a.31.31,0,0,1-.312.313.318.318,0,0,1-.312-.312V6.936H15.312V12.7A.318.318,0,0,1,15,13.01a.31.31,0,0,1-.312-.312V6.936H7.812V12.7a.318.318,0,0,1-.312.313.31.31,0,0,1-.312-.312V6.936H.252A.251.251,0,0,0,0,7.186V17.544a.247.247,0,0,0,.3.245A16.737,16.737,0,0,1,3.738,17.5a16.293,16.293,0,0,1,3.5.3,1.035,1.035,0,0,0,.535,0,16.254,16.254,0,0,1,3.481-.3,16.11,16.11,0,0,1,3.474.3,1.179,1.179,0,0,0,.521.037A23.652,23.652,0,0,1,18.75,17.5a16.028,16.028,0,0,1,3.481.3,1.112,1.112,0,0,0,.537,0,16.028,16.028,0,0,1,3.481-.3,16.255,16.255,0,0,1,3.486.3,1.188,1.188,0,0,0,.523.037,23.414,23.414,0,0,1,3.491-.342,16.256,16.256,0,0,1,3.486.3,1.188,1.188,0,0,0,.523.037,23.573,23.573,0,0,1,3.5-.342c.813,0,1.576.036,2.2.1h.048a11.572,11.572,0,0,0,2.878-.566l5.938-1.976a.253.253,0,0,0,.172-.237V7.186a.251.251,0,0,0-.249-.25Z" transform="translate(53.74 19.999) rotate(180)" fill="#aaa" stroke="rgba(0,0,0,0)" stroke-miterlimit="10" stroke-width="1"/></svg>