<svg xmlns="http://www.w3.org/2000/svg" width="55" height="20.005" viewBox="0 0 55 20.005"><g transform="translate(0 0.001)"><rect width="55" height="20.001" transform="translate(0 -0.001)" fill="#aaa" opacity="0"/><path d="M41.107,0a.256.256,0,0,0-.25.252V.383a.252.252,0,0,0,.25.25h.043V4.443H40.3L39.963,5H17.709V3.752h-.691A2.958,2.958,0,0,1,16.027,5,3.067,3.067,0,0,1,12.3,5a2.985,2.985,0,0,1-1-1.252h-.9A3.149,3.149,0,0,1,9.408,5a3.1,3.1,0,0,1-1.877.631A3.072,3.072,0,0,1,5.67,5a3.149,3.149,0,0,1-.99-1.252H4V5H2.432L1.252,3.061V1.934a.386.386,0,0,0-.383-.383h-.5A.37.37,0,0,0,0,1.914v4.24a.238.238,0,0,0,.238.25h.811l3.082,11.51a1.309,1.309,0,0,0,1.26.971H52.24a.256.256,0,0,0,.25-.25v-.5a.245.245,0,0,0-.25-.252H5.348a.258.258,0,0,1-.238-.189L2.08,6.4H4.639l1.2,1.2v7.43l-.7.746.371,1.395a.246.246,0,0,0,.25.209H52.252a.247.247,0,0,0,.246-.25V15.654l-1.969-2V7.6l1.2-1.2h.512a.248.248,0,0,0,.25-.25v-.9A.244.244,0,0,0,52.24,5H43.588l-.34-.561H42.4V.633h.047a.252.252,0,0,0,.25-.25V.252A.248.248,0,0,0,42.449,0ZM6.4,6.4H49.963l-3.316,3.3L44.959,7.99A3.012,3.012,0,0,0,42.641,6.9H38.729L37.77,9.23a.752.752,0,0,1-1.391,0l-.619-1.5L35.432,6.9H30.16L29.2,9.23a.75.75,0,0,1-1.389,0L26.855,6.9H21.6l-.955,2.33a.755.755,0,0,1-1.395,0L18.3,6.9H14.7a3.03,3.03,0,0,0-2.318,1.09l-2.111,2.273Zm41.131,4.2L49.277,8.85v3.535ZM7.09,8.85l2.318,2.332L7.09,13.68Zm4.566-6.344a2.5,2.5,0,1,0,2.5-2.5A2.5,2.5,0,0,0,11.656,2.506Zm-6.619,0a2.5,2.5,0,1,0,2.5-2.5A2.5,2.5,0,0,0,5.037,2.506Zm27.484.3a1,1,0,0,0-.93.621L31.15,4.5H34.43l-.441-1.078a.986.986,0,0,0-.93-.621Zm-8.562,0a.994.994,0,0,0-.932.621L22.588,4.5h3.279l-.436-1.078A1,1,0,0,0,24.5,2.8Z" transform="translate(53.746 20.004) rotate(180)" fill="#aaa"/></g></svg>