<svg xmlns="http://www.w3.org/2000/svg" width="55" height="20.5" viewBox="0 0 55 20.5"><rect width="54.999" height="20" transform="translate(0)" fill="#aaa" opacity="0"/><path d="M41.126,0a.251.251,0,0,0-.25.25V.375a.251.251,0,0,0,.25.25h.037v2.9H17.276A2.8,2.8,0,0,1,15.9,4.774H41.163V6.15a.25.25,0,0,0,.25.249H52.251a.25.25,0,0,0,.25-.249V5.024a.251.251,0,0,0-.25-.25H45.675L42.414,3.523V.625h.049a.251.251,0,0,0,.25-.25V.25a.251.251,0,0,0-.25-.25ZM12.613,2.191A2.187,2.187,0,1,0,14.8,0,2.189,2.189,0,0,0,12.613,2.191Zm-9.5,0A2.187,2.187,0,1,0,5.3,0,2.189,2.189,0,0,0,3.114,2.191ZM.377,1.313A.385.385,0,0,0,0,1.688V4.524a.251.251,0,0,0,.25.25H4.213A2.775,2.775,0,0,1,2.825,3.523H1.677l-.426-.713V1.688a.375.375,0,0,0-.375-.375ZM7.77,3.523A2.765,2.765,0,0,1,6.382,4.774h7.325a2.759,2.759,0,0,1-1.386-1.251Z" transform="translate(53.75 20) rotate(180)" fill="#aaa" stroke="rgba(0,0,0,0)" stroke-miterlimit="10" stroke-width="1"/></svg>