<svg xmlns="http://www.w3.org/2000/svg" width="55" height="20.501" viewBox="0 0 55 20.501"><rect width="55" height="20" fill="#aaa" opacity="0"/><path d="M41.117,0a.253.253,0,0,0-.25.252V.376a.251.251,0,0,0,.25.249h.039v3.14H18.28a3.119,3.119,0,0,1-2.861,1.874,3.023,3.023,0,0,1-1.864-.625,2.969,2.969,0,0,1-1-1.249h-4.4A3.119,3.119,0,0,1,5.292,5.639,3.011,3.011,0,0,1,3.43,5.014a3.076,3.076,0,0,1-.987-1.249H1.68l-.424-.688V1.925A.383.383,0,0,0,.88,1.552h-.5A.375.375,0,0,0,0,1.925V6.162a.251.251,0,0,0,.25.25h52a.249.249,0,0,0,.25-.25v-.9a.249.249,0,0,0-.25-.249H45.667L42.4,3.765V.625h.051A.249.249,0,0,0,42.7.376V.252A.251.251,0,0,0,42.455,0Zm-28.2,2.507a2.5,2.5,0,1,0,2.5-2.5A2.5,2.5,0,0,0,12.917,2.507Zm-10.124,0a2.5,2.5,0,1,0,2.5-2.5A2.5,2.5,0,0,0,2.793,2.507Zm35.02,4.432V18.3a.937.937,0,1,0,1.874,0V7.19a.251.251,0,0,0-.25-.252Zm-2.5,0V18.3a.938.938,0,1,0,1.876,0V6.938Zm-5,0V17.692a1,1,0,0,0,1,1h2.369a1,1,0,0,0,1-1V6.938ZM.25,6.938A.251.251,0,0,0,0,7.19v9.857a.937.937,0,0,0,.938.936H7.166V6.938Zm22.561,0V17.986h6.875V6.94Zm-7.5,0V17.986h6.875V6.94Zm-7.5,0V17.986h6.873V6.94Z" transform="translate(53.75 20.001) rotate(180)" fill="#aaa" stroke="rgba(0,0,0,0)" stroke-miterlimit="10" stroke-width="1"/></svg>