<svg xmlns="http://www.w3.org/2000/svg" width="55.251" height="20.5" viewBox="0 0 55.251 20.5"><g transform="translate(0 0.001)"><rect width="55" height="20" transform="translate(0 -0.001)" fill="#aaa" opacity="0"/><path d="M42.115,0a.251.251,0,0,0-.251.251V.375a.251.251,0,0,0,.251.251h.036V4.438H41.3L40.113,6.4H33.475L31.614,3.338H25.589L23.726,6.4H18.713V3.751h-.686a3.123,3.123,0,0,1-2.863,1.873A3.007,3.007,0,0,1,13.3,5a2.975,2.975,0,0,1-1-1.248h-.9A3.082,3.082,0,0,1,10.413,5a3.116,3.116,0,0,1-1.875.625A3,3,0,0,1,6.677,5a3.083,3.083,0,0,1-.988-1.248H5V5H3.439L2.25,3.063V1.927a.375.375,0,0,0-.375-.377h-.5A.368.368,0,0,0,1,1.927V6.149A.25.25,0,0,0,1.25,6.4H5a5,5,0,0,0-5,5v2.5a5,5,0,0,0,5,5H48.5a5,5,0,0,0,5-5V11.4a5,5,0,0,0-5-5H45.452l-1.2-1.963H43.4V.626h.049A.251.251,0,0,0,43.7.375V.251A.251.251,0,0,0,43.45,0ZM12.673,2.5a2.5,2.5,0,1,0,2.5-2.5A2.5,2.5,0,0,0,12.673,2.5Zm-6.619,0A2.5,2.5,0,1,0,8.555,0,2.5,2.5,0,0,0,6.054,2.5Z" transform="translate(54.751 19.999) rotate(180)" fill="#aaa" stroke="rgba(0,0,0,0)" stroke-miterlimit="10" stroke-width="1"/></g></svg>