<svg xmlns="http://www.w3.org/2000/svg" width="14" height="14" viewBox="0 0 14 14">
  <g id="Group_93037" data-name="Group 93037" transform="translate(-68 -1318)">
    <rect id="Rectangle_76640" data-name="Rectangle 76640" width="14" height="14" transform="translate(68 1318)" fill="#4db6a2" opacity="0"/>
    <path id="Path_38766" data-name="Path 38766" d="M1.8,11.052a.348.348,0,0,1-.246-.1L.1,9.512A.346.346,0,0,1,0,9.266a.35.35,0,0,1,.1-.248L3.566,5.557a1.365,1.365,0,0,1,1.935,0L7.477,7.534,9.5,5.507,7.66,3.536a.349.349,0,0,1,.255-.588h5.543A.543.543,0,0,1,14,3.491V9.062a.349.349,0,0,1-.354.351.336.336,0,0,1-.235-.1L11.442,7.444l-3,3a1.369,1.369,0,0,1-1.933-.005L4.513,8.466,2.048,10.95a.348.348,0,0,1-.247.1" transform="translate(68 1318)" fill="#4db6a2"/>
  </g>
</svg>
