<svg xmlns="http://www.w3.org/2000/svg" width="15" height="9.104" viewBox="0 0 15 9.104">
  <path id="Path_38766" data-name="Path 38766" d="M1.8,2.948a.348.348,0,0,0-.246.1L.1,4.488a.346.346,0,0,0-.1.246.35.35,0,0,0,.1.248L3.566,8.443a1.365,1.365,0,0,0,1.935,0L7.477,6.466,9.5,8.493,7.66,10.464a.349.349,0,0,0,.255.588h5.543A.543.543,0,0,0,14,10.509V4.938a.349.349,0,0,0-.354-.351.336.336,0,0,0-.235.1L11.442,6.556l-3-3a1.369,1.369,0,0,0-1.933.005L4.513,5.534,2.048,3.05a.348.348,0,0,0-.247-.1" transform="translate(0.5 -2.448)" fill="#e57373" stroke="rgba(0,0,0,0)" stroke-width="1"/>
</svg>
