<svg height="16" viewBox="0 0 16.777 16" width="16.777" xmlns="http://www.w3.org/2000/svg">
  <path
    d="M9.149,2.764a1.176,1.176,0,0,1,2.216,0l1.268,3.562a1.176,1.176,0,0,0,1.078.781l3.786.1a1.176,1.176,0,0,1,.682,2.112l-2.993,2.277a1.176,1.176,0,0,0-.415,1.273l1.076,3.6a1.176,1.176,0,0,1-1.791,1.308L10.92,15.629a1.176,1.176,0,0,0-1.327,0L6.456,17.773a1.176,1.176,0,0,1-1.791-1.308l1.076-3.6a1.176,1.176,0,0,0-.415-1.273L2.334,9.315A1.176,1.176,0,0,1,3.017,7.2l3.786-.1a1.176,1.176,0,0,0,1.078-.781Z"
    data-name="Path 12663"
    fill="#ff5d5d"
    id="Path_12663" transform="translate(-1.868 -1.982)"/>
</svg>
