<svg xmlns="http://www.w3.org/2000/svg" width="55.999" height="21" viewBox="0 0 55.999 21"><g transform="translate(17886.5 24287.5)"><rect width="54.999" height="20" transform="translate(-17886 -24287)" fill="#aaa" stroke="rgba(0,0,0,0)" stroke-width="1" opacity="0"/><path d="M9.244,97.81A2.188,2.188,0,1,0,7.055,100h0A2.189,2.189,0,0,0,9.244,97.81m34.264,0A2.188,2.188,0,1,0,41.319,100h0a2.183,2.183,0,0,0,2.188-2.178V97.81ZM4.33,98.5a2.811,2.811,0,1,1,5.451,0H27.493a.256.256,0,0,0,.254-.252v-.375h1.936a.251.251,0,0,0,.252-.248v-1h8.851a2.681,2.681,0,0,1,1.451-1.4H16.944V86.364a.936.936,0,0,0-.935-.937h-.54c-5.068,0-5.123,0-5.635,1.061l-1.275,2.85c-1.441.275-3.023.566-3.623.672-2.119.395-3.678,1.762-3.678,4.057v1.625a1.809,1.809,0,0,0,1.051,1.883v.676a.249.249,0,0,0,.246.252Zm.023-6.762a2.882,2.882,0,0,0-1.434,1.412,2.961,2.961,0,0,1-.609.061,2.985,2.985,0,0,1,2.134-2.125,2.083,2.083,0,0,1-.089.652Zm10.991-5.228a.424.424,0,0,1,.123.275v1.889a.672.672,0,0,1-.615.654l-4.623.25a.207.207,0,0,1-.216-.2.2.2,0,0,1,.016-.09l1.058-2.473a.611.611,0,0,1,.584-.359l3.4-.047a.519.519,0,0,1,.273.1M47.661,98.454a.387.387,0,0,0,.377-.375v-2.6a.256.256,0,0,0-.254-.252H42.409a2.66,2.66,0,0,1,1.443,1.4h2.8a3.258,3.258,0,0,1,.133.877v.574a.373.373,0,0,0,.367.375Zm.131-3.752a.256.256,0,0,0,.252-.254V82.933A.94.94,0,0,0,47.1,82H18.411a.938.938,0,0,0-.936.936V94.7Z" transform="translate(-17886 -24366.998)" fill="#aaa" stroke="rgba(0,0,0,0)" stroke-width="1"/></g></svg>