<svg width="24" height="24" viewBox="0 0 24 24" fill="none" xmlns="http://www.w3.org/2000/svg">
<path opacity="0.2" d="M22 0H2C0.89543 0 0 0.89543 0 2V22C0 23.1046 0.89543 24 2 24H22C23.1046 24 24 23.1046 24 22V2C24 0.89543 23.1046 0 22 0Z" fill="#FFA726"/>
<path d="M16.6975 17L14.4995 13.85C15.7735 13.304 16.5155 12.226 16.5155 10.756C16.5155 8.558 14.8775 7.2 12.2595 7.2H8.01747V17H10.2855V14.27H12.2595H12.3715L14.2615 17H16.6975ZM14.2195 10.756C14.2195 11.82 13.5195 12.464 12.1335 12.464H10.2855V9.048H12.1335C13.5195 9.048 14.2195 9.678 14.2195 10.756Z" fill="#FFA726"/>
</svg>
