<svg xmlns="http://www.w3.org/2000/svg" width="18" height="18" viewBox="0 0 18 18">
  <g id="Group_81783" data-name="Group 81783" transform="translate(-725 -247)">
    <rect id="Rectangle_64004" data-name="Rectangle 64004" width="18" height="18" rx="5" transform="translate(725 247)" fill="none"/>
    <path id="droplet" d="M16,16.365c0-2.42,3.382-7.593,4.989-9.912a1,1,0,0,1,1.66,0c1.607,2.319,4.989,7.492,4.989,9.912a5.819,5.819,0,1,1-11.638,0Zm3.174,0a.529.529,0,0,0-1.058,0,3.708,3.708,0,0,0,3.7,3.733.529.529,0,1,0,0-1.058A2.651,2.651,0,0,1,19.174,16.365Z" transform="translate(712.181 241.886)"/>
  </g>
</svg>
