<svg xmlns="http://www.w3.org/2000/svg" width="18" height="18" viewBox="0 0 18 18">
  <g id="GPS_Available" data-name="GPS Available" transform="translate(-6028.367 -13487)">
    <rect id="Rectangle_56835" data-name="Rectangle 56835" width="18" height="18" transform="translate(6028.367 13487)" fill="#b7b7b7" opacity="0"/>
    <path id="location" d="M17.438,7.875H15.649a6.745,6.745,0,0,0-5.524-5.524V.563A.562.562,0,0,0,9.563,0H8.438a.562.562,0,0,0-.562.563V2.351A6.745,6.745,0,0,0,2.351,7.875H.563A.562.562,0,0,0,0,8.438V9.563a.562.562,0,0,0,.563.563H2.351a6.745,6.745,0,0,0,5.524,5.524v1.789A.562.562,0,0,0,8.438,18H9.563a.562.562,0,0,0,.563-.562V15.649a6.745,6.745,0,0,0,5.524-5.524h1.789A.562.562,0,0,0,18,9.563V8.438A.562.562,0,0,0,17.438,7.875ZM9,13.5A4.5,4.5,0,1,1,13.5,9,4.5,4.5,0,0,1,9,13.5ZM9,5.906A3.094,3.094,0,1,0,12.094,9,3.094,3.094,0,0,0,9,5.906Z" transform="translate(6028.367 13487)" fill="#b7b7b7"/>
  </g>
</svg>
