<svg id="Group_96979" data-name="Group 96979" xmlns="http://www.w3.org/2000/svg" xmlns:xlink="http://www.w3.org/1999/xlink" width="18" height="18" viewBox="0 0 18 18">
  <defs>
    <clipPath id="clip-path">
      <rect id="Rectangle_83693" data-name="Rectangle 83693" width="18" height="18" fill="#b7b7b7"/>
    </clipPath>
  </defs>
  <g id="Group_96912" data-name="Group 96912" clip-path="url(#clip-path)">
    <g id="Group_96911" data-name="Group 96911">
      <g id="Group_96910" data-name="Group 96910" clip-path="url(#clip-path)">
        <g id="Group_96909" data-name="Group 96909" opacity="0">
          <g id="Group_96908" data-name="Group 96908">
            <g id="Group_96907" data-name="Group 96907" clip-path="url(#clip-path)">
              <rect id="Rectangle_83690" data-name="Rectangle 83690" width="18" height="18" fill="#b7b7b7"/>
            </g>
          </g>
        </g>
        <path id="Path_41041" data-name="Path 41041" d="M17.091,7.925v4.63a2.952,2.952,0,0,1-.07.89,1.724,1.724,0,0,1-1.16,1.17,3.978,3.978,0,0,1-1.09.07.57.57,0,0,1-.57-.57V12.4h-1.73v.775a1.641,1.641,0,0,1-.02.23,1.152,1.152,0,0,1-1.18.99H7.241a1.583,1.583,0,0,1-1.45-.93h-.92a1.152,1.152,0,0,1-1.08-1.07V11.275H2.631c0,.57.01,1.13,0,1.71a.556.556,0,0,1-.31.5,1.144,1.144,0,0,1-.55.06,1.187,1.187,0,0,1-.53-.05.587.587,0,0,1-.34-.51V7.855a.585.585,0,0,1,.54-.57q.33-.015.66,0a.585.585,0,0,1,.54.57v1.71h1.15c0-.79-.01-1.57,0-2.35a1.16,1.16,0,0,1,1.08-1.07c.8-.01,1.6,0,2.39,0V5.015H4.941a.594.594,0,0,1-.58-.58v-.03a5.234,5.234,0,0,1,.03-.68h-.01a.592.592,0,0,1,.6-.42H11.3a.586.586,0,0,1,.52.33,1,1,0,0,1,.06.42c0,.15,0,.3-.01.46a.572.572,0,0,1-.57.5H9v1.13h2.27a1.166,1.166,0,0,1,1.2,1.11v1.17H14.2V6.715a.574.574,0,0,1,.36-.53,1.3,1.3,0,0,1,.39-.04,3.551,3.551,0,0,1,.8.05,1.741,1.741,0,0,1,1.18.93,1.819,1.819,0,0,1,.16.8" fill="#b7b7b7"/>
      </g>
    </g>
  </g>
</svg>
