<svg xmlns="http://www.w3.org/2000/svg" xmlns:xlink="http://www.w3.org/1999/xlink" width="29.361" height="32.66" viewBox="0 0 29.361 32.66">
  <defs>
    <filter id="Path_40392" x="0" y="0" width="29.361" height="32.66" filterUnits="userSpaceOnUse">
      <feOffset input="SourceAlpha"/>
      <feGaussianBlur stdDeviation="2" result="blur"/>
      <feFlood flood-opacity="0.149"/>
      <feComposite operator="in" in2="blur"/>
      <feComposite in="SourceGraphic"/>
    </filter>
  </defs>
  <g id="Group_97992" data-name="Group 97992" transform="translate(-816.207 -506.063)">
    <rect id="Rectangle_80568" data-name="Rectangle 80568" width="22" height="22" transform="translate(819 511.367)" fill="#ab47bc" opacity="0"/>
    <g transform="matrix(1, 0, 0, 1, 816.21, 506.06)" filter="url(#Path_40392)">
      <path id="Path_40392-2" data-name="Path 40392" d="M20.567,95.373a8.163,8.163,0,0,1-8.1,8.1l-1.13.01v.01a4.064,4.064,0,0,1-3.85,4.22,1.548,1.548,0,0,1-.22.01,4.071,4.071,0,0,1-4.06-3.86V91.653a4.594,4.594,0,0,1,4.58-4.59h4.68a8.22,8.22,0,0,1,8.1,8.31" transform="translate(2.79 -81.06)" fill="#fff"/>
    </g>
    <path id="Path_40395" data-name="Path 40395" d="M12.44,101.473H9.34v2.069a2.069,2.069,0,1,1-4.132.222c0-.034,0-.067,0-.1V91.649a2.585,2.585,0,0,1,2.58-2.585H12.44a6.206,6.206,0,0,1,0,12.411Zm0-4.136a2.069,2.069,0,1,0,.117-4.137H9.336v4.137Z" transform="translate(819 425)" fill="#ab47bc"/>
  </g>
</svg>
