<svg xmlns="http://www.w3.org/2000/svg" xmlns:xlink="http://www.w3.org/1999/xlink" width="32.002" height="32.01" viewBox="0 0 32.002 32.01">
  <defs>
    <filter id="Path_40390" x="0" y="0" width="32.002" height="32.01" filterUnits="userSpaceOnUse">
      <feOffset input="SourceAlpha"/>
      <feGaussianBlur stdDeviation="2" result="blur"/>
      <feFlood flood-opacity="0.149"/>
      <feComposite operator="in" in2="blur"/>
      <feComposite in="SourceGraphic"/>
    </filter>
  </defs>
  <g id="Group_97993" data-name="Group 97993" transform="translate(-813.996 -460.004)">
    <rect id="Rectangle_80566" data-name="Rectangle 80566" width="22" height="22" transform="translate(819 465.012)" fill="#ab47bc" opacity="0"/>
    <g transform="matrix(1, 0, 0, 1, 814, 460)" filter="url(#Path_40390)">
      <path id="Path_40390-2" data-name="Path 40390" d="M21,57.234v1.28a2.479,2.479,0,0,1-2.39,2.5H3.618A2.475,2.475,0,0,1,1,58.4v-1.08A2.486,2.486,0,0,1,2.6,54.9V44.274a3.146,3.146,0,0,1,2.26-3.13,3.544,3.544,0,0,1,.97-.13h10.3c.04,0,.08-.01.12-.01a3.157,3.157,0,0,1,3.14,2.9l.01.08v.06a1.044,1.044,0,0,1,0,.25v10.62a2.467,2.467,0,0,1,1.6,2.32" transform="translate(5 -35)" fill="#fff"/>
    </g>
    <path id="Path_40394" data-name="Path 40394" d="M18.684,56.779c-.148-.057-.3-.106-.454-.157a1.068,1.068,0,0,1-.83-1.156V44.236a.83.83,0,0,0,0-.141v0a1.154,1.154,0,0,0-1.223-1.081H5.829a1.454,1.454,0,0,0-.409.058,1.147,1.147,0,0,0-.82,1.162V55.495a1.06,1.06,0,0,1-.79,1.114c-.144.048-.3.1-.444.148A.486.486,0,0,0,3,57.269V58.4c0,.446.167.609.616.609H18.48a.415.415,0,0,0,.061,0,.474.474,0,0,0,.456-.49c.006-.434,0-.867,0-1.3a.452.452,0,0,0-.313-.444m-8.75-5.234v.745a.331.331,0,0,1,0,.063v0a.553.553,0,0,1-.585.519H7.785a.554.554,0,0,1-.517-.589V50.8a.534.534,0,0,1,0-.08.555.555,0,0,1,.594-.513H9.344a.548.548,0,0,1,.081,0h0a.556.556,0,0,1,.506.6Zm0-3.51a.451.451,0,0,1,0,.052v0a.551.551,0,0,1-.58.521h-1.5a.353.353,0,0,1-.065,0h0a.553.553,0,0,1-.521-.583V46.462h0a.553.553,0,0,1,.587-.517H9.412a.553.553,0,0,1,.524.58q0,.755,0,1.511m4.794,4.256a.417.417,0,0,1,0,.05.553.553,0,0,1-.575.53H12.593a.552.552,0,0,1-.524-.579V50.751a.553.553,0,0,1,.566-.54H13.4V50.2h.811a.555.555,0,0,1,.519.587Zm0-4.251v.034h0a.551.551,0,0,1-.566.536H12.589a.555.555,0,0,1-.518-.588q0-.751,0-1.5a.451.451,0,0,1,0-.052.551.551,0,0,1,.574-.526h1.562a.552.552,0,0,1,.525.579q0,.759,0,1.516" transform="translate(819 425)" fill="#ab47bc"/>
  </g>
</svg>
