<svg xmlns="http://www.w3.org/2000/svg" xmlns:xlink="http://www.w3.org/1999/xlink" width="46" height="33.999" viewBox="0 0 46 33.999">
  <defs>
    <filter id="Path_41074" x="12" y="0" width="34" height="33.999" filterUnits="userSpaceOnUse">
      <feOffset input="SourceAlpha"/>
      <feGaussianBlur stdDeviation="2" result="blur"/>
      <feFlood flood-opacity="0.149"/>
      <feComposite operator="in" in2="blur"/>
      <feComposite in="SourceGraphic"/>
    </filter>
    <filter id="Path_41074-2" x="0" y="0" width="34" height="33.999" filterUnits="userSpaceOnUse">
      <feOffset input="SourceAlpha"/>
      <feGaussianBlur stdDeviation="2" result="blur-2"/>
      <feFlood flood-opacity="0.149"/>
      <feComposite operator="in" in2="blur-2"/>
      <feComposite in="SourceGraphic"/>
    </filter>
  </defs>
  <g id="Group_98008" data-name="Group 98008" transform="translate(-11244 -11262)">
    <g transform="matrix(1, 0, 0, 1, 11244, 11262)" filter="url(#Path_41074)">
      <path id="Path_41074-3" data-name="Path 41074" d="M44.015.921l7.857,7.857a3.142,3.142,0,0,1,0,4.444l-7.857,7.857a3.142,3.142,0,0,1-4.444,0l-7.857-7.857a3.139,3.139,0,0,1,0-4.444L39.571.921a3.142,3.142,0,0,1,4.444,0" transform="translate(-12.79 6)" fill="#fff"/>
    </g>
    <path id="Path_41075" data-name="Path 41075" d="M43.206,3.586l6,6a2,2,0,0,1,0,2.828l-6,6a2,2,0,0,1-2.828,0l-6-6a2,2,0,0,1,0-2.828l6-6a2,2,0,0,1,2.828,0" transform="translate(11231.207 11268)" fill="#ef9a9a"/>
    <path id="Path_41076" data-name="Path 41076" d="M39.675,3.366l3.75,3.75a1.249,1.249,0,0,1,0,1.767l-3.75,3.75a1.249,1.249,0,0,1-1.767,0l-3.75-3.75a1.249,1.249,0,0,1,0-1.767l3.75-3.75a1.249,1.249,0,0,1,1.767,0" transform="translate(11234.207 11271)" fill="#fff"/>
  </g>
  <g id="Group_98001" data-name="Group 98001" transform="translate(-11256 -11262)">
    <g transform="matrix(1, 0, 0, 1, 11256, 11262)" filter="url(#Path_41074-2)">
      <path id="Path_41074-4" data-name="Path 41074" d="M44.015.921l7.857,7.857a3.142,3.142,0,0,1,0,4.444l-7.857,7.857a3.142,3.142,0,0,1-4.444,0l-7.857-7.857a3.139,3.139,0,0,1,0-4.444L39.571.921a3.142,3.142,0,0,1,4.444,0" transform="translate(-24.79 6)" fill="#fff"/>
    </g>
    <path id="Path_41075-2" data-name="Path 41075" d="M43.206,3.586l6,6a2,2,0,0,1,0,2.828l-6,6a2,2,0,0,1-2.828,0l-6-6a2,2,0,0,1,0-2.828l6-6a2,2,0,0,1,2.828,0" transform="translate(11231.207 11268)" fill="#ef5350"/>
    <path id="Path_41076-2" data-name="Path 41076" d="M39.675,3.366l3.75,3.75a1.249,1.249,0,0,1,0,1.767l-3.75,3.75a1.249,1.249,0,0,1-1.767,0l-3.75-3.75a1.249,1.249,0,0,1,0-1.767l3.75-3.75a1.249,1.249,0,0,1,1.767,0" transform="translate(11234.207 11271)" fill="#fff"/>
  </g>
</svg>
