<svg xmlns="http://www.w3.org/2000/svg" width="18" height="18" viewBox="0 0 18 18">
  <g id="Group_97152" data-name="Group 97152" transform="translate(-6023.999 -13493)">
    <rect id="Rectangle_56818" data-name="Rectangle 56818" width="18" height="18" transform="translate(6023.999 13493)" fill="none"/>
    <path id="Path_35702" data-name="Path 35702" d="M150.913,4.516h15.044a.579.579,0,0,0,.578-.578V2.49a.577.577,0,0,0-.578-.577H150.913a.577.577,0,0,0-.578.577V3.938a.579.579,0,0,0,.578.578m0,5.786h15.044a.579.579,0,0,0,.578-.58V8.278a.579.579,0,0,0-.578-.58H150.913a.579.579,0,0,0-.578.58V9.724a.579.579,0,0,0,.578.579Zm0,5.785h15.044a.577.577,0,0,0,.578-.577V14.063a.578.578,0,0,0-.578-.579H150.913a.578.578,0,0,0-.578.579V15.51a.577.577,0,0,0,.578.577" transform="translate(5874.564 13493)" fill="#aaa"/>
  </g>
</svg>
