<svg xmlns="http://www.w3.org/2000/svg" xmlns:xlink="http://www.w3.org/1999/xlink" width="33.999" height="45" viewBox="0 0 33.999 45">
  <defs>
    <linearGradient id="linear-gradient" x1="0.5" x2="0.5" y2="1" gradientUnits="objectBoundingBox">
      <stop offset="0" stop-color="#536bc2" stop-opacity="0"/>
      <stop offset="1" stop-color="#536bc2"/>
    </linearGradient>
    <filter id="Path_41047" x="0" y="11" width="33.999" height="34" filterUnits="userSpaceOnUse">
      <feOffset input="SourceAlpha"/>
      <feGaussianBlur stdDeviation="2" result="blur"/>
      <feFlood flood-opacity="0.302"/>
      <feComposite operator="in" in2="blur"/>
      <feComposite in="SourceGraphic"/>
    </filter>
  </defs>
  <path id="Path_41058" data-name="Path 41058" d="M0,0H18L14,28H4Z" transform="translate(7.999)" fill="url(#linear-gradient)"/>
  <g transform="matrix(1, 0, 0, 1, 0, 0)" filter="drop-shadow(0px 0px 2px #0000004D)">
    <path id="Path_41047-2" data-name="Path 41047" d="M44.015.921l7.857,7.857a3.142,3.142,0,0,1,0,4.444l-7.857,7.857a3.142,3.142,0,0,1-4.444,0l-7.857-7.857a3.139,3.139,0,0,1,0-4.444L39.571.921a3.142,3.142,0,0,1,4.444,0" transform="translate(28 -13.79) rotate(90)" fill="#fff"/>
  </g>
  <path id="Path_41050" data-name="Path 41050" d="M43.206,3.586l6,6a2,2,0,0,1,0,2.828l-6,6a2,2,0,0,1-2.828,0l-6-6a2,2,0,0,1,0-2.828l6-6a2,2,0,0,1,2.828,0" transform="translate(27.999 -13.793) rotate(90)" fill="#536bc2"/>
  <path
    id="Path_33426"
    data-name="Path 33426"
    d="M4.726.208,1.816,5.981a.378.378,0,0,0,.55.483L4.638,4.92a.756.756,0,0,1,.85,0L7.762,6.465a.378.378,0,0,0,.55-.483L5.4.208a.378.378,0,0,0-.675,0"
    transform="translate(12 24)"
    fill="#fff"
/>
</svg>
