<svg xmlns="http://www.w3.org/2000/svg" width="18" height="18" viewBox="0 0 18 18">
  <g id="Group_97112" data-name="Group 97112" transform="translate(-6057.443 -13487)">
    <rect id="Rectangle_56829" data-name="Rectangle 56829" width="18" height="18" transform="translate(6057.443 13487)" fill="none"/>
    <path id="Path_35710" data-name="Path 35710" d="M97.487.9h5.272a.959.959,0,0,1,.964.953V3.759a.959.959,0,0,1-.964.953H97.487a.958.958,0,0,1-.964-.953V1.853A.958.958,0,0,1,97.487.9" transform="translate(5962 13486.999)" fill="#AAAAAA"/>
    <path id="Path_35711" data-name="Path 35711" d="M106.127.9H111.4a.959.959,0,0,1,.964.953V3.759a.959.959,0,0,1-.964.953h-5.272a.958.958,0,0,1-.964-.953V1.853A.958.958,0,0,1,106.127.9" transform="translate(5962 13486.999)" fill="#AAAAAA"/>
    <path id="Path_35712" data-name="Path 35712" d="M97.487,7.094h5.272a.959.959,0,0,1,.964.953V9.953a.959.959,0,0,1-.964.953H97.487a.958.958,0,0,1-.964-.953V8.047a.958.958,0,0,1,.964-.953" transform="translate(5962 13487)" fill="#AAAAAA"/>
    <path id="Path_35713" data-name="Path 35713" d="M106.127,7.094H111.4a.959.959,0,0,1,.964.953V9.953a.959.959,0,0,1-.964.953h-5.272a.958.958,0,0,1-.964-.953V8.047a.958.958,0,0,1,.964-.953" transform="translate(5962 13487)" fill="#AAAAAA"/>
    <path id="Path_35714" data-name="Path 35714" d="M97.487,13.288h5.272a.959.959,0,0,1,.964.953v1.906a.959.959,0,0,1-.964.953H97.487a.958.958,0,0,1-.964-.953V14.241a.958.958,0,0,1,.964-.953" transform="translate(5962 13487)" fill="#AAAAAA"/>
    <path id="Path_35715" data-name="Path 35715" d="M106.127,13.288H111.4a.959.959,0,0,1,.964.953v1.906a.959.959,0,0,1-.964.953h-5.272a.958.958,0,0,1-.964-.953V14.241a.958.958,0,0,1,.964-.953" transform="translate(5962 13487)" fill="#AAAAAA"/>
  </g>
</svg>
