<svg xmlns="http://www.w3.org/2000/svg" width="18" height="18" viewBox="0 0 18 18">
  <g id="Linked" transform="translate(-6028.367 -13487)">
    <rect id="Rectangle_56835" data-name="Rectangle 56835" width="18" height="18" transform="translate(6028.367 13487)" fill="#fff" opacity="0"/>
    <path id="unlink" d="M10.1,13.477a.4.4,0,0,1,0,.563L8.612,15.523A5.047,5.047,0,0,1,1.475,8.386L2.958,6.9a.4.4,0,0,1,.563,0L4.837,8.218a.4.4,0,0,1,0,.563L3.353,10.264a2.391,2.391,0,0,0,3.381,3.381l1.483-1.483a.4.4,0,0,1,.563,0ZM8.218,4.837a.4.4,0,0,0,.563,0l1.483-1.483a2.391,2.391,0,1,1,3.381,3.381L12.162,8.217a.4.4,0,0,0,0,.563L13.477,10.1a.4.4,0,0,0,.563,0l1.483-1.483A5.047,5.047,0,0,0,8.386,1.475L6.9,2.958a.4.4,0,0,0,0,.563L8.218,4.837Zm7.8,11.929.751-.751a.8.8,0,0,0,0-1.127L2.111.233a.8.8,0,0,0-1.127,0L.233.984a.8.8,0,0,0,0,1.127L14.888,16.766A.8.8,0,0,0,16.014,16.766Z" transform="translate(6028.867 13487.5)" fill="#fff"/>
  </g>
</svg>