<svg xmlns="http://www.w3.org/2000/svg" width="13.999" height="14" viewBox="0 0 13.999 14">
  <path id="Path_41046" data-name="Path 41046" d="M8.414.586l5,5a2,2,0,0,1,0,2.828l-5,5a2,2,0,0,1-2.828,0l-5-5a2,2,0,0,1,0-2.828l5-5a2,2,0,0,1,2.828,0" transform="translate(0)" fill="#97A8DC"/>
  <g id="Group_97077" data-name="Group 97077" transform="translate(3312 -10939)">
    <path id="Path_33425" data-name="Path 33425" d="M8,4A4,4,0,1,1,4,0,4,4,0,0,1,8,4" transform="translate(-3309 10942)" fill="#fff" opacity="0"/>
    <path id="Path_33426" data-name="Path 33426" d="M4.726.208,1.816,5.981a.378.378,0,0,0,.55.483L4.638,4.92a.756.756,0,0,1,.85,0L7.762,6.465a.378.378,0,0,0,.55-.483L5.4.208a.378.378,0,0,0-.675,0" transform="translate(-3310.064 10942)" fill="#fff"/>
  </g>
</svg>
