<svg width="18" height="18" viewBox="0 0 18 18" fill="none" xmlns="http://www.w3.org/2000/svg">
<path d="M15.8139 5.96302H2.1857C2.08335 5.96302 1.9852 5.92299 1.91283 5.85172C1.84046 5.78046 1.7998 5.6838 1.7998 5.58302V4.44402C1.7998 4.04116 1.96232 3.6548 2.25161 3.36993C2.5409 3.08506 2.93326 2.92502 3.34237 2.92502H4.88392V1.28002C4.88392 1.17924 4.92458 1.08259 4.99695 1.01132C5.06932 0.94006 5.16747 0.900024 5.26982 0.900024H6.55546C6.65781 0.900024 6.75596 0.94006 6.82833 1.01132C6.9007 1.08259 6.94136 1.17924 6.94136 1.28002V2.92502H11.0542V1.28002C11.0542 1.17942 11.0947 1.08291 11.1669 1.01168C11.239 0.940442 11.3369 0.900289 11.4391 0.900024L12.7247 0.900024C12.7754 0.900024 12.8256 0.909853 12.8724 0.92895C12.9192 0.948047 12.9618 0.976038 12.9976 1.01132C13.0334 1.04661 13.0618 1.0885 13.0812 1.1346C13.1006 1.18071 13.1106 1.23012 13.1106 1.28002V2.92502H14.6532C15.0623 2.92502 15.4546 3.08506 15.7439 3.36993C16.0332 3.6548 16.1957 4.04116 16.1957 4.44402V5.58302C16.1957 5.68312 16.1557 5.77917 16.0842 5.85032C16.0127 5.92147 15.9156 5.96197 15.8139 5.96302ZM2.1857 6.97502H15.8139C15.8646 6.97502 15.9148 6.98485 15.9616 7.00395C16.0084 7.02304 16.0509 7.05103 16.0868 7.08632C16.1226 7.12161 16.151 7.1635 16.1704 7.2096C16.1898 7.25571 16.1998 7.30512 16.1998 7.35502V15.582C16.1997 15.7818 16.1595 15.9797 16.0816 16.1642C16.0037 16.3487 15.8896 16.5162 15.7458 16.6572C15.6021 16.7982 15.4315 16.9099 15.2438 16.9859C15.0561 17.0619 14.8551 17.1007 14.6522 17.1H3.34237C3.1398 17.1 2.93921 17.0607 2.75206 16.9844C2.5649 16.9081 2.39485 16.7962 2.25161 16.6551C2.10837 16.5141 1.99475 16.3466 1.91723 16.1623C1.8397 15.978 1.7998 15.7805 1.7998 15.581L1.7998 7.35502C1.7998 7.25424 1.84046 7.15758 1.91283 7.08632C1.9852 7.01506 2.08335 6.97502 2.1857 6.97502ZM12.8943 10.011L11.9895 9.11102C11.9171 9.03988 11.8191 8.99992 11.7168 8.99992C11.6146 8.99992 11.5165 9.03988 11.4441 9.11102L8.0371 12.438L6.55952 10.972C6.48717 10.9009 6.3891 10.8609 6.28686 10.8609C6.18461 10.8609 6.08654 10.9009 6.01419 10.972L5.10023 11.863C5.02798 11.9343 4.98741 12.0308 4.98741 12.1315C4.98741 12.2322 5.02798 12.3288 5.10023 12.4L7.75478 15.035C7.82714 15.1062 7.9252 15.1461 8.02745 15.1461C8.1297 15.1461 8.22776 15.1062 8.30012 15.035L12.8933 10.548C12.9655 10.4768 13.0061 10.3802 13.0061 10.2795C13.0061 10.1788 12.9655 10.0823 12.8933 10.011H12.8943Z" fill="#919191"/>
</svg>
