<svg width="14" height="14" viewBox="0 0 14 14" fill="none" xmlns="http://www.w3.org/2000/svg">
<path d="M11.5727 11.3173L10.4738 10.1915C10.328 10.0419 10.246 9.8391 10.246 9.62762C10.246 9.41614 10.328 9.2133 10.4738 9.06374L11.5727 7.93597C11.7186 7.78646 11.9164 7.70232 12.1226 7.70232C12.3288 7.70232 12.5266 7.78646 12.6725 7.93597L13.7722 9.06374C13.918 9.2133 14 9.41614 14 9.62762C14 9.8391 13.918 10.0419 13.7722 10.1915L12.6725 11.3173C12.5265 11.4666 12.3287 11.5504 12.1226 11.5502C11.9165 11.5504 11.7187 11.4666 11.5727 11.3173ZM6.49571 11.3173L5.39601 10.1915C5.25021 10.0419 5.16893 9.8391 5.16893 9.62762C5.16893 9.41614 5.25021 9.2133 5.39601 9.06374L6.49571 7.93597C6.64146 7.78719 6.83916 7.70349 7.04481 7.70349C7.25045 7.70349 7.4474 7.78719 7.59314 7.93597L8.69285 9.06374C8.83864 9.2133 8.92069 9.41614 8.92069 9.62762C8.92069 9.8391 8.83864 10.0419 8.69285 10.1915L7.59314 11.3173C7.52127 11.3913 7.43586 11.4503 7.34176 11.4902C7.24766 11.5302 7.14666 11.5504 7.04481 11.5502C6.94282 11.5505 6.8421 11.5302 6.74786 11.4902C6.65361 11.4502 6.56768 11.3914 6.49571 11.3173ZM1.32755 11.3173L0.22784 10.1915C0.0820449 10.0419 0 9.8391 0 9.62762C0 9.41614 0.0820449 9.2133 0.22784 9.06374L1.32755 7.93597C1.47339 7.78646 1.67118 7.70232 1.8774 7.70232C2.08362 7.70232 2.28141 7.78646 2.42725 7.93597L3.5262 9.06374C3.672 9.2133 3.75404 9.41614 3.75404 9.62762C3.75404 9.8391 3.672 10.0419 3.5262 10.1915L2.42725 11.3173C2.28131 11.4666 2.08353 11.5504 1.8774 11.5502C1.7752 11.5504 1.67417 11.5302 1.57969 11.4902C1.48521 11.4503 1.39914 11.3913 1.32679 11.3173H1.32755ZM9.01031 8.69106L7.9106 7.56914C7.7648 7.41958 7.68276 7.21673 7.68276 7.00526C7.68276 6.79378 7.7648 6.59093 7.9106 6.44137L9.00803 5.31361C9.15387 5.1641 9.35167 5.07996 9.55788 5.07996C9.7641 5.07996 9.9619 5.1641 10.1077 5.31361L11.2074 6.44137C11.3532 6.59093 11.4353 6.79378 11.4353 7.00526C11.4353 7.21673 11.3532 7.41958 11.2074 7.56914L10.1077 8.69534C9.9618 8.84463 9.76401 8.92838 9.55788 8.92822C9.35207 8.92754 9.15485 8.84288 9.00955 8.6934L9.01031 8.69106ZM3.88923 8.69106L2.78952 7.56524C2.64372 7.41568 2.56168 7.21284 2.56168 7.00136C2.56168 6.78988 2.64372 6.58704 2.78952 6.43748L3.88923 5.30972C4.03503 5.16044 4.23229 5.07645 4.43832 5.07645C4.64435 5.07645 4.84237 5.16044 4.98817 5.30972L6.08788 6.43748C6.23368 6.58704 6.31572 6.78988 6.31572 7.00136C6.31572 7.21284 6.23368 7.41568 6.08788 7.56524L4.98817 8.69106C4.91616 8.7651 4.83026 8.824 4.73603 8.86396C4.6418 8.90393 4.54105 8.92417 4.43908 8.92393C4.23302 8.92495 4.03498 8.842 3.88847 8.6934L3.88923 8.69106ZM6.45091 6.06402L5.3512 4.93782C5.2054 4.78826 5.12336 4.5858 5.12336 4.37433C5.12336 4.16285 5.2054 3.96 5.3512 3.81044L6.45091 2.68268C6.59665 2.5339 6.79359 2.4502 6.99924 2.4502C7.20489 2.4502 7.40259 2.5339 7.54833 2.68268L8.64956 3.81044C8.79536 3.96 8.8774 4.16285 8.8774 4.37433C8.8774 4.5858 8.79536 4.78826 8.64956 4.93782L7.54833 6.06402C7.47669 6.13847 7.39108 6.19745 7.29695 6.23771C7.20282 6.27796 7.10199 6.29865 7 6.29846C6.89794 6.29899 6.79667 6.27871 6.70229 6.23887C6.60791 6.19904 6.52227 6.14042 6.45015 6.06636L6.45091 6.06402Z" fill="#56B4AC"/>
</svg>
