<svg width="18" height="18" viewBox="0 0 18 18" fill="none" xmlns="http://www.w3.org/2000/svg">
<path d="M1.91406 15.5804C1.91433 15.9831 2.07448 16.3692 2.35932 16.6539C2.64416 16.9385 3.03037 17.0984 3.43306 17.0984H14.5711C14.9736 17.0982 15.3595 16.9382 15.6442 16.6535C15.9288 16.3689 16.0888 15.983 16.0891 15.5804V6.97344H1.91406V15.5804ZM3.93906 9.50444C3.93959 9.37023 3.99321 9.24168 4.0882 9.14687C4.1832 9.05206 4.31185 8.9987 4.44606 8.99844H7.48306C7.61718 8.9987 7.74573 9.0521 7.84057 9.14693C7.9354 9.24177 7.9888 9.37032 7.98906 9.50444V12.5424C7.9888 12.6766 7.9354 12.8051 7.84057 12.8999C7.74573 12.9948 7.61718 13.0482 7.48306 13.0484H4.44606C4.31185 13.0482 4.1832 12.9948 4.0882 12.9C3.99321 12.8052 3.93959 12.6766 3.93906 12.5424V9.50444ZM14.5711 2.92344H13.0511V1.40544C13.0508 1.2714 12.9976 1.1429 12.903 1.04793C12.8084 0.952962 12.6801 0.899229 12.5461 0.898438H11.5331C11.3987 0.898702 11.2699 0.952203 11.1749 1.04723C11.0798 1.14225 11.0263 1.27105 11.0261 1.40544V2.92344H6.97706V1.40544C6.9768 1.27123 6.92344 1.14257 6.82863 1.04758C6.73382 0.952583 6.60527 0.898966 6.47106 0.898438H5.45806C5.32368 0.898702 5.19487 0.952203 5.09985 1.04723C5.00483 1.14225 4.95133 1.27105 4.95106 1.40544V2.92344H3.43306C3.03037 2.92344 2.64416 3.08334 2.35932 3.36799C2.07448 3.65264 1.91433 4.03875 1.91406 4.44144V5.96044H16.0891V4.44144C16.0888 4.03892 15.9288 3.65296 15.6442 3.36834C15.3595 3.08372 14.9736 2.9237 14.5711 2.92344Z" fill="#919191"/>
</svg>
