<svg width="14" height="14" viewBox="0 0 14 14" fill="none" xmlns="http://www.w3.org/2000/svg">
<path d="M3.1374 6.2318L2.86594 7.24292C2.80225 7.48824 2.78432 7.74321 2.81305 7.99503L2.04301 8.62893C2.01193 8.65601 1.97316 8.67269 1.93213 8.67664C1.89109 8.68058 1.84985 8.67159 1.81418 8.65093C1.77851 8.63027 1.7502 8.59896 1.73321 8.5614C1.71622 8.52384 1.71141 8.48191 1.71944 8.44148L2.05701 6.7638C2.06211 6.73684 2.06154 6.70911 2.05533 6.68238C2.04912 6.65566 2.03741 6.63052 2.02094 6.60856C2.00448 6.58661 1.98362 6.56833 1.9597 6.55488C1.93578 6.54144 1.90932 6.53312 1.88201 6.53047L0.182476 6.36324C0.141076 6.35992 0.101763 6.34369 0.0700821 6.31683C0.0384013 6.28997 0.0159511 6.25385 0.00589798 6.21355C-0.00415518 6.17326 -0.00130408 6.13082 0.0140492 6.09223C0.0294024 6.05364 0.0564831 6.02084 0.0914719 5.99846L1.51721 5.05423C1.54052 5.03914 1.56041 5.01932 1.57557 4.99605C1.59074 4.97278 1.60085 4.94659 1.60525 4.91917C1.60965 4.89175 1.60824 4.86371 1.60111 4.83686C1.59398 4.81002 1.5813 4.78497 1.56388 4.76334L0.474936 3.44189C0.448949 3.41045 0.433288 3.37176 0.430088 3.3311C0.426888 3.29043 0.436304 3.24977 0.457053 3.21465C0.477802 3.17953 0.508874 3.15167 0.546037 3.13485C0.583199 3.11803 0.624644 3.11308 0.664723 3.12067L2.3417 3.45978C2.36865 3.46476 2.39634 3.46409 2.42302 3.45783C2.4497 3.45157 2.47479 3.43985 2.49672 3.42341C2.51864 3.40697 2.53692 3.38616 2.5504 3.3623C2.56388 3.33844 2.57227 3.31204 2.57504 3.28478L2.74383 1.58143C2.7474 1.54064 2.7635 1.50196 2.78994 1.47069C2.81637 1.43942 2.85184 1.41709 2.89147 1.40678C2.93109 1.39647 2.97294 1.39868 3.01127 1.4131C3.04959 1.42752 3.08251 1.45344 3.10551 1.48732L4.05289 2.91611C4.06824 2.93918 4.08825 2.95879 4.11164 2.97366C4.13503 2.98852 4.16127 2.99833 4.18868 3.00243C4.21609 3.00653 4.24405 3.00485 4.27077 2.99748C4.29749 2.99012 4.32236 2.97723 4.3438 2.95966L5.66608 1.87077C5.6976 1.84459 5.73647 1.82886 5.77732 1.82575C5.81817 1.82264 5.85898 1.8323 5.89409 1.8534C5.92921 1.8745 5.95689 1.906 5.97332 1.94353C5.98974 1.98106 5.99409 2.02277 5.98577 2.06288L5.73686 3.29178C5.67775 3.35867 5.61786 3.42478 5.56419 3.49711L4.86415 4.43745L4.63081 4.74857C4.27384 4.84347 3.94804 5.03041 3.68596 5.2907C3.42389 5.55098 3.23474 5.8755 3.1374 6.2318ZM13.9568 9.1306L13.6854 10.1417C13.6194 10.3874 13.4864 10.6098 13.3011 10.7842C13.2418 10.8413 13.1778 10.8933 13.1098 10.9397L12.8041 12.0823C12.756 12.2612 12.6389 12.4137 12.4785 12.5064C12.3181 12.5991 12.1276 12.6245 11.9485 12.577L11.2726 12.3957C11.0937 12.3476 10.9412 12.2305 10.8485 12.0702C10.7557 11.9098 10.7304 11.7192 10.7779 11.5402L10.9591 10.8643L5.5463 9.41449L5.36507 10.0904C5.31693 10.2693 5.19985 10.4218 5.03948 10.5145C4.8791 10.6072 4.68852 10.6326 4.50947 10.5851L3.83355 10.4038C3.65466 10.3557 3.50215 10.2386 3.40943 10.0783C3.3167 9.91789 3.29133 9.72731 3.33886 9.54827L3.64454 8.4057C3.6075 8.33196 3.5768 8.2552 3.55276 8.17626C3.47953 7.93276 3.47549 7.67369 3.54109 7.42803L3.81255 6.41691C3.86712 6.21095 3.96831 6.0203 4.1083 5.85968C4.24829 5.69906 4.42334 5.57277 4.61992 5.49057C4.74885 5.43617 4.88517 5.4013 5.02438 5.38713L5.42107 4.85746L6.12111 3.91712C6.3414 3.62215 6.62499 3.3803 6.95104 3.20933C7.05701 3.15376 7.16699 3.10618 7.28005 3.067C7.50736 2.98822 7.74512 2.94366 7.98553 2.93477C8.23204 2.92585 8.47849 2.9539 8.71668 3.018L11.4001 3.73667C11.6386 3.80032 11.8662 3.89943 12.0753 4.03067C12.3841 4.22476 12.6454 4.4857 12.8399 4.79423C13.0345 5.10277 13.1573 5.45104 13.1992 5.81335L13.3385 6.98003L13.4162 7.63725C13.6436 7.80126 13.8169 8.02925 13.9141 8.29215C14.0137 8.56139 14.0271 8.85499 13.9522 9.13215L13.9568 9.1306ZM5.59452 6.52891C5.50601 6.49941 5.41224 6.48899 5.3194 6.49836C5.22657 6.50772 5.13677 6.53666 5.05593 6.58325C4.97509 6.62984 4.90504 6.69303 4.8504 6.76866C4.79576 6.8443 4.75777 6.93065 4.73893 7.02203C4.70943 7.1107 4.6991 7.20463 4.70861 7.2976C4.71812 7.39056 4.74725 7.48045 4.79409 7.56132C4.84092 7.64219 4.90439 7.7122 4.98029 7.76672C5.05619 7.82124 5.1428 7.85903 5.2344 7.87759C5.64042 7.98648 6.23078 8.2167 6.33889 7.81226C6.35415 7.54925 6.2919 7.28754 6.15987 7.05956C6.02783 6.83158 5.83181 6.64735 5.59608 6.52969L5.59452 6.52891ZM11.9516 7.14492L11.8124 5.97824C11.7875 5.76989 11.7008 5.57377 11.5634 5.41517C11.426 5.25658 11.2443 5.14278 11.0416 5.08846L8.35811 4.36979C8.15508 4.31593 7.94056 4.32419 7.74228 4.39352C7.54399 4.46285 7.37106 4.59005 7.24583 4.75868L6.5419 5.69513L10.3042 6.70625L11.9516 7.14492ZM12.3561 8.34037C12.0931 8.3243 11.8312 8.38574 11.6028 8.51708C11.3744 8.64842 11.1895 8.84389 11.0711 9.07926C10.963 9.48371 11.5892 9.57938 11.9952 9.68827C12.0863 9.7208 12.1831 9.7341 12.2796 9.72733C12.3761 9.72056 12.4701 9.69386 12.5558 9.64894C12.6414 9.60401 12.7169 9.54181 12.7773 9.46628C12.8377 9.39075 12.8818 9.30351 12.9068 9.21008C12.9318 9.11665 12.9372 9.01905 12.9226 8.92343C12.908 8.82782 12.8738 8.73627 12.822 8.65455C12.7703 8.57283 12.7022 8.50273 12.622 8.44865C12.5418 8.39458 12.4512 8.35771 12.3561 8.34037Z" fill="#6692F1"/>
</svg>
