<svg width="14" height="14" viewBox="0 0 14 14" fill="none" xmlns="http://www.w3.org/2000/svg">
<path d="M8.33531 0.995801C7.94337 0.814916 7.518 0.714826 7.08532 0.701683C6.65264 0.688539 6.22181 0.762619 5.81928 0.919371C5.41676 1.07612 5.05106 1.31223 4.74465 1.6132C4.43825 1.91416 4.19761 2.27361 4.03752 2.66947H6.06749L8.33531 0.995801ZM9.96386 2.66947C9.76616 2.19699 9.45422 1.77917 9.05516 1.45233L7.40052 2.66947H9.96386ZM7.00069 7.00062C7.45897 7.01658 7.91512 6.93206 8.33613 6.75318C8.75715 6.57429 9.13249 6.30553 9.435 5.96633C9.73751 5.62713 9.95961 5.22598 10.0852 4.79191C10.2109 4.35784 10.2369 3.90171 10.1614 3.45653H3.83998C3.76449 3.90171 3.79051 4.35784 3.91614 4.79191C4.04177 5.22598 4.26388 5.62713 4.56639 5.96633C4.8689 6.30553 5.24424 6.57429 5.66525 6.75318C6.08626 6.93206 6.54241 7.01658 7.00069 7.00062ZM3.40064 8.07544V13.2994H6.6056L4.14578 7.84834C3.8892 7.89499 3.6391 7.97121 3.40064 8.07544ZM1.3999 12.1196C1.3999 12.2747 1.43095 12.4283 1.49128 12.5716C1.55161 12.7149 1.64004 12.845 1.7515 12.9547C1.86297 13.0643 1.9953 13.1513 2.14092 13.2106C2.28654 13.2698 2.4426 13.3003 2.60018 13.3002V8.58096C2.22562 8.88847 1.92406 9.27302 1.71669 9.70755C1.50933 10.1421 1.40119 10.616 1.3999 11.0961V12.1196ZM7.80035 10.9382H6.41596L7.4827 13.3002H7.79877C8.117 13.3002 8.4222 13.1758 8.64722 12.9543C8.87224 12.7328 8.99866 12.4324 8.99866 12.1192C8.99866 11.806 8.87224 11.5056 8.64722 11.2841C8.4222 11.0627 8.117 10.9382 7.79877 10.9382M9.23927 7.78846H8.82127C8.24992 8.0477 7.62825 8.18195 6.99911 8.18195C6.36997 8.18195 5.74831 8.0477 5.17696 7.78846H4.99443L6.06117 10.1504H7.79956C8.33 10.151 8.83853 10.3587 9.2136 10.7279C9.58868 11.097 9.79967 11.5975 9.8003 12.1196C9.79879 12.5467 9.65469 12.9616 9.39019 13.3002H11.4004C11.558 13.3003 11.714 13.2698 11.8596 13.2105C12.0051 13.1512 12.1374 13.0643 12.2488 12.9546C12.3602 12.845 12.4486 12.7148 12.5088 12.5715C12.5691 12.4282 12.6 12.2747 12.5999 12.1196V11.0961C12.6 10.6618 12.5132 10.2317 12.3444 9.83039C12.1756 9.42909 11.9281 9.06445 11.6161 8.7573C11.3041 8.45014 10.9337 8.20649 10.526 8.04025C10.1183 7.87401 9.68056 7.78846 9.23927 7.78846Z" fill="#FAB15C"/>
</svg>
