<svg width="10" height="14" viewBox="0 0 10 14" fill="none" xmlns="http://www.w3.org/2000/svg">
<path d="M9.1139 2.87882C8.86537 2.2711 8.60787 1.66338 8.37563 1.05566C8.32868 0.885442 8.23712 0.730511 8.1102 0.606531C7.98328 0.482551 7.82551 0.393921 7.65285 0.349609L2.34808 0.357671C2.20075 0.386614 2.06296 0.451236 1.94707 0.545758C1.83117 0.64028 1.74077 0.76175 1.68397 0.899296C1.41832 1.57311 1.14453 2.25498 0.861772 2.92798C0.779474 3.13938 0.779474 3.37347 0.861772 3.58487C1.13638 4.26674 1.41018 4.95505 1.69212 5.63773C1.75378 5.80025 1.86577 5.93935 2.01211 6.03517C2.15844 6.13099 2.33164 6.17863 2.50698 6.1713H2.88019C2.87914 6.20721 2.88187 6.24314 2.88834 6.2785C2.92618 6.50717 3.0539 6.71175 3.24365 6.84764C3.43339 6.98353 3.66977 7.0397 3.90121 7.00389C3.9827 6.99583 4.06419 7.00389 4.15056 7.00389C4.15056 7.1272 4.15871 7.22554 4.15056 7.33274C4.15454 7.50434 4.10897 7.6735 4.0192 7.82039C3.92943 7.96729 3.79918 8.08583 3.64372 8.1621C3.45312 8.25208 3.27464 8.36525 3.11243 8.49901C2.51909 8.97888 2.14227 9.67182 2.06452 10.426C1.98678 11.1802 2.21445 11.9341 2.69766 12.5225C3.02246 12.9624 3.47211 13.2969 3.9895 13.4834C4.50689 13.67 5.06866 13.7002 5.60347 13.5703C6.19263 13.4567 6.73112 13.1637 7.14348 12.7323C7.55584 12.3009 7.82142 11.7526 7.90301 11.1644C7.9679 10.9061 7.95343 10.6344 7.86145 10.3842C7.78096 10.2212 7.64904 10.0886 7.48561 10.0063C7.32218 9.92397 7.13612 9.89648 6.95551 9.92797C6.7749 9.95945 6.60955 10.0482 6.48443 10.1808C6.3593 10.3134 6.28118 10.4827 6.26188 10.6631C6.25284 10.8186 6.22772 10.9728 6.18691 11.1233C6.0995 11.4002 5.91533 11.6373 5.66735 11.7923C5.41938 11.9472 5.12377 12.0097 4.83342 11.9688C4.57369 11.9327 4.33176 11.8175 4.14116 11.6393C3.95057 11.4611 3.82075 11.2286 3.76971 10.9742C3.71867 10.7197 3.74893 10.4558 3.8563 10.2191C3.96367 9.98244 4.14283 9.78465 4.36895 9.65319C4.62358 9.51095 4.86277 9.34322 5.08277 9.15267C5.52735 8.72469 5.79391 8.14763 5.83 7.53504C5.83815 7.36256 5.8463 7.18121 5.85444 6.9926C6.48596 7.04983 7.00911 6.92732 7.11667 6.16324H7.44261C7.63924 6.18216 7.83638 6.13261 8.00001 6.02314C8.16365 5.91366 8.28353 5.75113 8.33896 5.56358C8.59646 4.92362 8.85314 4.28286 9.11879 3.64209C9.17237 3.52184 9.20005 3.39186 9.20005 3.26045C9.20005 3.12904 9.17237 2.99907 9.11879 2.87882M3.08391 4.32396C2.83945 3.60985 2.60232 2.90299 2.36112 2.18888H3.24118C3.43267 2.73938 3.96396 4.32396 3.96396 4.32396H3.08391ZM4.91817 4.32396C4.67371 3.61791 4.44473 2.91186 4.20434 2.18888H5.0844L5.80637 4.32396H4.91817ZM6.00601 4.92362V4.91556H6.01416L6.00601 4.92362ZM6.76139 4.32396C6.51693 3.60985 6.2798 2.90299 6.03942 2.18888H6.92762L7.64959 4.32396H6.76139Z" fill="#B370F0"/>
</svg>
