<svg width="15" height="15" viewBox="0 0 15 15" fill="none" xmlns="http://www.w3.org/2000/svg">
<path d="M2.87707 13.9439L13.9433 2.87656C14.1136 2.70641 14.2295 2.48956 14.2764 2.25346C14.3234 2.01737 14.2992 1.77265 14.207 1.5503C14.1148 1.32794 13.9587 1.13796 13.7584 1.00441C13.5582 0.87085 13.3228 0.79973 13.0821 0.80005H2.01685C1.69424 0.80005 1.38482 0.928154 1.15661 1.15621C0.928397 1.38426 0.80006 1.69361 0.799805 2.01625V13.0846C0.800136 13.3251 0.871728 13.5602 1.00554 13.76C1.13935 13.9599 1.32939 14.1157 1.55165 14.2076C1.77391 14.2996 2.01842 14.3236 2.25432 14.2767C2.49022 14.2297 2.70693 14.1139 2.87707 13.9439Z" fill="#6692F1"/>
</svg>
