<svg width="18" height="18" viewBox="0 0 18 18" fill="none" xmlns="http://www.w3.org/2000/svg">
<path d="M15.8139 5.96302H2.1857C2.08344 5.96276 1.98544 5.92264 1.91313 5.85143C1.84082 5.78022 1.80007 5.68372 1.7998 5.58302V4.44402C1.7998 4.04116 1.96232 3.6548 2.25161 3.36993C2.5409 3.08506 2.93326 2.92502 3.34237 2.92502H4.88392V1.28002C4.88419 1.17932 4.92493 1.08282 4.99725 1.01162C5.06956 0.940409 5.16756 0.900288 5.26982 0.900024L6.55546 0.900024C6.65772 0.900288 6.75572 0.940409 6.82803 1.01162C6.90035 1.08282 6.94109 1.17932 6.94136 1.28002V2.92502H11.0542V1.28002C11.0545 1.1795 11.0951 1.08314 11.1672 1.01197C11.2392 0.940788 11.337 0.900552 11.4391 0.900024H12.7247C12.827 0.900288 12.925 0.940409 12.9973 1.01162C13.0696 1.08282 13.1103 1.17932 13.1106 1.28002V2.92502H14.6532C15.0623 2.92502 15.4546 3.08506 15.7439 3.36993C16.0332 3.6548 16.1957 4.04116 16.1957 4.44402V5.58302C16.1955 5.68304 16.1553 5.77894 16.0839 5.85003C16.0124 5.92113 15.9155 5.96171 15.8139 5.96302ZM2.1857 6.97502H15.8139C15.9162 6.97529 16.0142 7.01541 16.0865 7.08661C16.1588 7.15782 16.1995 7.25432 16.1998 7.35502V15.582C16.1997 15.7818 16.1595 15.9797 16.0816 16.1642C16.0037 16.3487 15.8896 16.5162 15.7458 16.6572C15.6021 16.7982 15.4315 16.9099 15.2438 16.9859C15.0561 17.0619 14.8551 17.1007 14.6522 17.1H3.34237C3.1398 17.1 2.93921 17.0607 2.75206 16.9844C2.5649 16.9081 2.39485 16.7962 2.25161 16.6551C2.10837 16.5141 1.99475 16.3466 1.91723 16.1623C1.8397 15.978 1.7998 15.7805 1.7998 15.581L1.7998 7.35502C1.80007 7.25432 1.84082 7.15782 1.91313 7.08661C1.98544 7.01541 2.08344 6.97529 2.1857 6.97502ZM12.3408 11.405C12.3406 11.3043 12.2998 11.2078 12.2275 11.1366C12.1552 11.0654 12.0572 11.0253 11.955 11.025H10.0255V9.12502C10.0252 9.02432 9.98446 8.92782 9.91215 8.85661C9.83984 8.78541 9.74184 8.74528 9.63958 8.74502H8.35495C8.25269 8.74528 8.15469 8.78541 8.08238 8.85661C8.01007 8.92782 7.96933 9.02432 7.96906 9.12502V11.025H6.03958C5.93732 11.0253 5.83932 11.0654 5.76701 11.1366C5.69469 11.2078 5.65395 11.3043 5.65368 11.405V12.67C5.65395 12.7707 5.69469 12.8672 5.76701 12.9384C5.83932 13.0096 5.93732 13.0498 6.03958 13.05H7.96906V14.95C7.96933 15.0507 8.01007 15.1472 8.08238 15.2184C8.15469 15.2896 8.25269 15.3298 8.35495 15.33H9.63958C9.74184 15.3298 9.83984 15.2896 9.91215 15.2184C9.98446 15.1472 10.0252 15.0507 10.0255 14.95V13.05H11.955C12.0572 13.0498 12.1552 13.0096 12.2275 12.9384C12.2998 12.8672 12.3406 12.7707 12.3408 12.67V11.405Z" fill="#919191"/>
</svg>
