<svg width="26" height="35" viewBox="0 0 26 35" fill="none" xmlns="http://www.w3.org/2000/svg">
<rect width="26" height="26" rx="2" fill="#EEEEEE"/>
<path d="M19.5 15.5031C19.0055 15.5031 18.5222 15.3569 18.1111 15.0822C17.7 14.8075 17.3794 14.4169 17.1901 13.9601C17.0009 13.5033 16.9516 13.0007 17.0481 12.5158C17.1446 12.0308 17.3826 11.5852 17.7322 11.2355C18.0818 10.8859 18.5273 10.6474 19.0122 10.5509C19.4972 10.4545 19.9999 10.5043 20.4568 10.6935C20.9136 10.8827 21.3039 11.2033 21.5786 11.6144C21.8533 12.0256 22 12.5086 22 13.0031C22 13.6661 21.7367 14.3018 21.2679 14.7707C20.799 15.2395 20.163 15.5031 19.5 15.5031ZM13 15.5031C12.5055 15.5031 12.0222 15.3569 11.6111 15.0822C11.1999 14.8075 10.8794 14.4169 10.6902 13.9601C10.501 13.5033 10.4516 13.0007 10.5481 12.5158C10.6445 12.0308 10.8825 11.5852 11.2322 11.2355C11.5818 10.8859 12.0272 10.6474 12.5122 10.5509C12.9971 10.4545 13.4999 10.5043 13.9568 10.6935C14.4136 10.8827 14.8039 11.2033 15.0786 11.6144C15.3533 12.0256 15.5 12.5086 15.5 13.0031C15.5 13.6661 15.2367 14.3018 14.7678 14.7707C14.299 15.2395 13.663 15.5031 13 15.5031ZM6.49998 15.5031C6.00553 15.5031 5.5222 15.3569 5.11107 15.0822C4.69995 14.8075 4.37939 14.4169 4.19017 13.9601C4.00095 13.5033 3.95162 13.0007 4.04808 12.5158C4.14455 12.0308 4.38253 11.5852 4.73217 11.2355C5.0818 10.8859 5.52725 10.6474 6.01219 10.5509C6.49715 10.4545 6.99996 10.5043 7.45677 10.6935C7.91359 10.8827 8.3039 11.2033 8.5786 11.6144C8.8533 12.0256 8.99999 12.5086 8.99999 13.0031C8.99999 13.6661 8.73665 14.3018 8.26781 14.7707C7.79897 15.2395 7.16303 15.5031 6.49998 15.5031Z" fill="#424242"/>
<path d="M12.5977 24.6337V21.2917C12.5977 20.9963 12.715 20.7129 12.9239 20.504C13.1329 20.2951 13.4162 20.1777 13.7117 20.1777C14.0071 20.1777 14.2905 20.2951 14.4994 20.504C14.7083 20.7129 14.8257 20.9963 14.8257 21.2917V24.6337" fill="#FFFFFE"/>
<path d="M12.5977 24.6337V21.2917C12.5977 20.9963 12.715 20.7129 12.9239 20.504C13.1329 20.2951 13.4162 20.1777 13.7117 20.1777C14.0071 20.1777 14.2905 20.2951 14.4994 20.504C14.7083 20.7129 14.8257 20.9963 14.8257 21.2917V24.6337" stroke="#000001" stroke-miterlimit="10"/>
<path d="M14.8242 24.6344V21.8494C14.8242 21.5539 14.9416 21.2706 15.1505 21.0616C15.3594 20.8527 15.6428 20.7354 15.9382 20.7354C16.2337 20.7354 16.517 20.8527 16.7259 21.0616C16.9349 21.2706 17.0522 21.5539 17.0522 21.8494V24.6344" fill="#FFFFFE"/>
<path d="M14.8242 24.6344V21.8494C14.8242 21.5539 14.9416 21.2706 15.1505 21.0616C15.3594 20.8527 15.6428 20.7354 15.9382 20.7354C16.2337 20.7354 16.517 20.8527 16.7259 21.0616C16.9349 21.2706 17.0522 21.5539 17.0522 21.8494V24.6344" stroke="#000001" stroke-miterlimit="10"/>
<path d="M17.0544 24.634V22.406C17.0544 22.1105 17.1717 21.8272 17.3806 21.6183C17.5896 21.4094 17.8729 21.292 18.1684 21.292C18.4638 21.292 18.7472 21.4094 18.9561 21.6183C19.165 21.8272 19.2824 22.1105 19.2824 22.406V27.698C19.2824 27.698 19.8394 33.268 14.2694 33.268C12.8019 33.2375 11.4037 32.6384 10.3694 31.597L6.47536 27.14C6.32508 26.996 6.2055 26.823 6.12381 26.6316C6.04211 26.4401 6 26.2341 6 26.026C6 25.8179 6.04211 25.6119 6.12381 25.4204C6.2055 25.229 6.32508 25.056 6.47536 24.912C6.47536 24.912 7.31136 24.076 8.70336 25.469L9.67036 26.436C9.72819 26.4925 9.80137 26.5308 9.88079 26.546C9.96021 26.5612 10.0424 26.5528 10.117 26.5216C10.1916 26.4905 10.2554 26.4381 10.3005 26.3709C10.3456 26.3038 10.3698 26.2249 10.3704 26.144V17.114C10.3704 16.8185 10.4877 16.5352 10.6966 16.3263C10.9056 16.1174 11.1889 16 11.4844 16C11.7798 16 12.0632 16.1174 12.2721 16.3263C12.481 16.5352 12.5984 16.8185 12.5984 17.114V24.634" fill="#FFFFFE"/>
<path d="M17.0544 24.634V22.406C17.0544 22.1105 17.1717 21.8272 17.3806 21.6183C17.5896 21.4094 17.8729 21.292 18.1684 21.292C18.4638 21.292 18.7472 21.4094 18.9561 21.6183C19.165 21.8272 19.2824 22.1105 19.2824 22.406V27.698C19.2824 27.698 19.8394 33.268 14.2694 33.268C12.8019 33.2375 11.4037 32.6384 10.3694 31.597L6.47536 27.14C6.32508 26.996 6.2055 26.823 6.12381 26.6316C6.04211 26.4401 6 26.2341 6 26.026C6 25.8179 6.04211 25.6119 6.12381 25.4204C6.2055 25.229 6.32508 25.056 6.47536 24.912C6.47536 24.912 7.31136 24.076 8.70336 25.469L9.67036 26.436C9.72819 26.4925 9.80137 26.5308 9.88079 26.546C9.96021 26.5612 10.0424 26.5528 10.117 26.5216C10.1916 26.4905 10.2554 26.4381 10.3005 26.3709C10.3456 26.3038 10.3698 26.2249 10.3704 26.144V17.114C10.3704 16.8185 10.4877 16.5352 10.6966 16.3263C10.9056 16.1174 11.1889 16 11.4844 16C11.7798 16 12.0632 16.1174 12.2721 16.3263C12.481 16.5352 12.5984 16.8185 12.5984 17.114V24.634" stroke="#000001" stroke-miterlimit="10"/>
</svg>
