<svg width="26" height="26" viewBox="0 0 26 26" fill="none" xmlns="http://www.w3.org/2000/svg">
<path d="M19.5 15.5032C19.0055 15.5032 18.5222 15.357 18.1111 15.0823C17.7 14.8076 17.3794 14.417 17.1901 13.9602C17.0009 13.5034 16.9516 13.0008 17.0481 12.5159C17.1446 12.0309 17.3826 11.5852 17.7322 11.2356C18.0818 10.8859 18.5273 10.6475 19.0122 10.551C19.4972 10.4545 19.9999 10.5044 20.4568 10.6936C20.9136 10.8828 21.3039 11.2034 21.5786 11.6145C21.8533 12.0256 22 12.5087 22 13.0032C22 13.6662 21.7367 14.3019 21.2679 14.7707C20.799 15.2396 20.163 15.5032 19.5 15.5032ZM13 15.5032C12.5055 15.5032 12.0222 15.357 11.6111 15.0823C11.1999 14.8076 10.8794 14.417 10.6902 13.9602C10.501 13.5034 10.4516 13.0008 10.5481 12.5159C10.6445 12.0309 10.8825 11.5852 11.2322 11.2356C11.5818 10.8859 12.0272 10.6475 12.5122 10.551C12.9971 10.4545 13.4999 10.5044 13.9568 10.6936C14.4136 10.8828 14.8039 11.2034 15.0786 11.6145C15.3533 12.0256 15.5 12.5087 15.5 13.0032C15.5 13.6662 15.2367 14.3019 14.7678 14.7707C14.299 15.2396 13.663 15.5032 13 15.5032ZM6.49998 15.5032C6.00553 15.5032 5.5222 15.357 5.11107 15.0823C4.69995 14.8076 4.37939 14.417 4.19017 13.9602C4.00095 13.5034 3.95162 13.0008 4.04808 12.5159C4.14455 12.0309 4.38253 11.5852 4.73217 11.2356C5.0818 10.8859 5.52725 10.6475 6.01219 10.551C6.49715 10.4545 6.99996 10.5044 7.45677 10.6936C7.91359 10.8828 8.3039 11.2034 8.5786 11.6145C8.8533 12.0256 8.99999 12.5087 8.99999 13.0032C8.99999 13.6662 8.73665 14.3019 8.26781 14.7707C7.79897 15.2396 7.16303 15.5032 6.49998 15.5032Z" fill="#919191"/>
</svg>
