<svg width="14" height="14" viewBox="0 0 14 14" fill="none" xmlns="http://www.w3.org/2000/svg">
<path d="M3.06084 2.27259H1.48584C1.28038 2.27152 1.08272 2.35124 0.935482 2.49455C0.788244 2.63786 0.703217 2.83329 0.69873 3.03871L0.69873 8.52904C0.69922 8.63125 0.720074 8.73234 0.760075 8.8264C0.800077 8.92046 0.858423 9.0056 0.931705 9.07686C1.00499 9.14811 1.09173 9.20405 1.18688 9.24139C1.28202 9.27874 1.38366 9.29675 1.48584 9.29437H3.06084C3.26617 9.29545 3.46372 9.21584 3.61093 9.0727C3.75815 8.92955 3.84327 8.73432 3.84795 8.52904V3.06048C3.84805 2.95705 3.82777 2.85461 3.78826 2.75903C3.74875 2.66344 3.69079 2.57658 3.61769 2.50341C3.54459 2.43023 3.45778 2.37219 3.36224 2.33258C3.26669 2.29298 3.16427 2.27259 3.06084 2.27259ZM12.1982 7.39504C12.341 7.24054 12.4398 7.05053 12.4841 6.84484C12.5284 6.63915 12.5167 6.42533 12.4502 6.22571C12.3837 6.02609 12.2648 5.84799 12.106 5.71C11.9471 5.57201 11.7541 5.4792 11.5472 5.44126C11.6412 5.28836 11.6993 5.11614 11.7172 4.93754C11.735 4.75895 11.7122 4.57863 11.6504 4.41013C11.5885 4.24163 11.4893 4.08934 11.3602 3.96469C11.231 3.84005 11.0753 3.7463 10.9047 3.69048C10.9259 3.61268 10.9364 3.53234 10.9358 3.4517C10.9354 3.13884 10.8109 2.83893 10.5895 2.61785C10.3681 2.39677 10.068 2.27259 9.75517 2.27259H8.31084C7.45906 2.27254 6.63023 2.54872 5.94873 3.05971L5.10873 3.6897C4.9645 3.79707 4.8469 3.93618 4.76503 4.09627C4.68316 4.25636 4.63923 4.43314 4.63662 4.61293V8.55082C4.63676 8.72727 4.67644 8.90145 4.75276 9.06054C4.82908 9.21964 4.94009 9.35961 5.07762 9.47015L5.47895 9.7906C7.49417 11.4239 6.58806 13.2976 8.14129 13.2976C8.29934 13.3013 8.45655 13.2735 8.60372 13.2157C8.75089 13.158 8.88507 13.0715 8.99841 12.9612C9.11175 12.851 9.20197 12.7193 9.2638 12.5738C9.32563 12.4283 9.35783 12.2719 9.35851 12.1138C9.24495 11.2752 8.95552 10.47 8.50917 9.75093H12.1157C12.4222 9.75191 12.7169 9.63347 12.9375 9.42076C13.158 9.20804 13.2871 8.91776 13.2972 8.61151C13.3073 8.30525 13.1977 8.00709 12.9917 7.78028C12.7856 7.55347 12.4993 7.41585 12.1935 7.3966L12.1982 7.39504Z" fill="#919191" fill-opacity="0.4"/>
</svg>
