<svg width="24" height="24" viewBox="0 0 24 24" fill="none" xmlns="http://www.w3.org/2000/svg">
<g clip-path="url(#clip0_16994_33201)">
<rect y="12.001" width="16.9718" height="16.9718" rx="1" transform="rotate(-45 0 12.001)" fill="#6692F1"/>
<g clip-path="url(#clip1_16994_33201)">
<path d="M12.5078 17.6892L16.8723 9.03207C16.9292 8.91993 16.9471 8.79207 16.9234 8.66862C16.8996 8.54517 16.8354 8.43314 16.7409 8.35017C16.6465 8.2672 16.5271 8.21801 16.4016 8.21033C16.2761 8.20266 16.1516 8.23694 16.0478 8.30778L12.6398 10.6221C12.4518 10.7498 12.2298 10.8181 12.0025 10.8181C11.7752 10.8181 11.5532 10.7498 11.3652 10.6221L7.95378 8.30778C7.84991 8.23694 7.72544 8.20266 7.59995 8.21033C7.47446 8.21801 7.35509 8.2672 7.26063 8.35017C7.16617 8.43314 7.10199 8.54517 7.0782 8.66862C7.05441 8.79207 7.07235 8.91993 7.12921 9.03207L11.4955 17.6892C11.5428 17.783 11.6152 17.8617 11.7047 17.9168C11.7941 17.9718 11.897 18.001 12.0021 18.001C12.1071 18.001 12.21 17.9718 12.2995 17.9168C12.3889 17.8617 12.4613 17.783 12.5086 17.6892" fill="white"/>
</g>
</g>
<defs>
<clipPath id="clip0_16994_33201">
<rect y="12.001" width="16.9718" height="16.9718" rx="1" transform="rotate(-45 0 12.001)" fill="white"/>
</clipPath>
<clipPath id="clip1_16994_33201">
<rect width="12" height="12" fill="white" transform="translate(18 18.001) rotate(-180)"/>
</clipPath>
</defs>
</svg>
