<svg width="14" height="12" viewBox="0 0 14 12" fill="none" xmlns="http://www.w3.org/2000/svg">
<path d="M10.1487 10.9145V5.40236C10.1492 5.30015 10.1701 5.19906 10.2101 5.105C10.2501 5.01094 10.3084 4.9258 10.3817 4.85454C10.455 4.78329 10.5417 4.72735 10.6369 4.69001C10.732 4.65266 10.8337 4.63465 10.9358 4.63703H12.5108C12.7162 4.63596 12.9137 4.71556 13.0609 4.8587C13.2081 5.00185 13.2933 5.19708 13.298 5.40236V10.8927C13.2975 10.9949 13.2766 11.096 13.2366 11.1901C13.1966 11.2841 13.1383 11.3693 13.065 11.4405C12.9917 11.5118 12.905 11.5677 12.8098 11.6051C12.7147 11.6424 12.613 11.6604 12.5108 11.658H10.9358C10.8336 11.6687 10.7302 11.6571 10.6329 11.6241C10.5355 11.5911 10.4464 11.5375 10.3716 11.4669C10.2969 11.3963 10.2383 11.3104 10.1998 11.215C10.1614 11.1197 10.1439 11.0172 10.1487 10.9145ZM0.698731 5.42647C0.698731 5.27136 0.729295 5.11777 0.788678 4.97447C0.848061 4.83118 0.935098 4.70098 1.04482 4.59134C1.15453 4.48169 1.28478 4.39474 1.42811 4.33545C1.57145 4.27617 1.72506 4.24571 1.88018 4.24581H5.48517C5.03879 3.52679 4.74936 2.72158 4.63584 1.88292C4.63662 1.72472 4.66894 1.56826 4.7309 1.4227C4.79287 1.27714 4.88323 1.14539 4.99672 1.03517C5.1102 0.924942 5.24452 0.838453 5.39183 0.780756C5.53913 0.723059 5.69646 0.695312 5.85462 0.69914C7.41017 0.69914 6.50329 2.57281 8.51773 4.18358L8.91906 4.50325C9.05626 4.61421 9.16698 4.75439 9.24313 4.91357C9.31929 5.07274 9.35897 5.24691 9.35929 5.42336V9.36125C9.35938 9.54461 9.31676 9.72547 9.23481 9.8895C9.15287 10.0535 9.03384 10.1962 8.88717 10.3063L8.04718 10.9362C7.36636 11.4481 6.53758 11.7246 5.68584 11.7241H4.24229C4.06486 11.7253 3.88948 11.6861 3.72935 11.6097C3.56922 11.5333 3.42851 11.4215 3.31779 11.2829C3.20706 11.1442 3.12922 10.9823 3.0901 10.8092C3.05099 10.6362 3.05162 10.4565 3.09195 10.2837C2.92205 10.2305 2.76658 10.1391 2.63744 10.0166C2.5083 9.89404 2.40892 9.74356 2.34692 9.57667C2.28491 9.40979 2.26191 9.23093 2.2797 9.05379C2.29748 8.87664 2.35557 8.70592 2.44951 8.55469C2.24262 8.51693 2.04967 8.42427 1.89086 8.2864C1.73204 8.14853 1.61319 7.97052 1.54673 7.77099C1.48028 7.57145 1.46865 7.35773 1.51308 7.15216C1.55751 6.9466 1.65636 6.75675 1.79929 6.60247C1.50078 6.58291 1.22091 6.45048 1.01651 6.23206C0.812101 6.01364 0.698486 5.72562 0.698731 5.42647Z" fill="#56B4AC"/>
</svg>
