<svg width="30" height="33" viewBox="0 0 30 33" fill="none" xmlns="http://www.w3.org/2000/svg">
<g filter="url(#filter0_f_16331_20667)">
<path d="M15 31C18.3137 31 21 30.1046 21 29C21 27.8954 18.3137 27 15 27C11.6863 27 9 27.8954 9 29C9 30.1046 11.6863 31 15 31Z" fill="black" fill-opacity="0.6"/>
</g>
<g filter="url(#filter1_d_16331_20667)">
<path d="M26 14.9732C25.9991 16.7715 25.5554 18.542 24.708 20.1289C23.8606 21.7157 22.6355 23.0702 21.1405 24.0732C21.1165 24.0912 20.7609 24.3102 20.6207 24.4022C17.2485 26.5422 15.8954 27.9872 15.3505 28.8022C15.2859 28.8991 15.1854 28.9665 15.0712 28.9897C14.9569 29.0129 14.8381 28.9901 14.7406 28.9262C14.6916 28.8932 14.6494 28.8511 14.6164 28.8022C14.0716 27.9912 12.7135 26.5462 9.34626 24.4022C9.19302 24.3072 8.8515 24.0912 8.82646 24.0732C7.25656 23.0103 5.9886 21.5601 5.14572 19.8635C4.30285 18.1669 3.91368 16.2815 4.01603 14.3904C4.11837 12.4993 4.70874 10.6667 5.72981 9.0707C6.75088 7.47466 8.16796 6.16936 9.84342 5.28155C11.5189 4.39375 13.3958 3.95361 15.292 4.00387C17.1881 4.05413 19.039 4.5931 20.6649 5.56842C22.2908 6.54374 23.6365 7.92228 24.5713 9.57017C25.5062 11.2181 25.9983 13.0793 26 14.9732Z" fill="white"/>
</g>
<circle cx="15" cy="15" r="9" fill="#B370F0"/>
<path d="M20.3978 14.9906C20.3969 15.1496 20.3335 15.3019 20.2213 15.4146C20.109 15.5272 19.9569 15.5912 19.7979 15.5927H19.198L19.2077 18.595C19.2073 18.6458 19.2041 18.6964 19.198 18.7468V19.0502C19.198 19.2491 19.119 19.4398 18.9783 19.5804C18.8377 19.721 18.6469 19.8 18.448 19.8H18.1477C18.1267 19.8 18.1065 19.7831 18.0855 19.8C18.0589 19.7847 18.033 19.8 18.0048 19.8H16.9471C16.8486 19.8 16.7511 19.7806 16.6601 19.7429C16.5691 19.7053 16.4864 19.65 16.4168 19.5804C16.3471 19.5108 16.2919 19.4281 16.2542 19.3372C16.2165 19.2462 16.1971 19.1487 16.1971 19.0502V17.3998C16.1972 17.321 16.1817 17.243 16.1516 17.1702C16.1215 17.0974 16.0774 17.0312 16.0216 16.9755C15.9659 16.9198 15.8997 16.8756 15.8269 16.8455C15.7541 16.8154 15.676 16.8 15.5972 16.8001H14.4007C14.3219 16.8 14.2439 16.8154 14.171 16.8455C14.0982 16.8756 14.032 16.9198 13.9763 16.9755C13.9206 17.0312 13.8764 17.0974 13.8463 17.1702C13.8162 17.243 13.8007 17.321 13.8009 17.3998V19.0494C13.8009 19.2483 13.7218 19.439 13.5812 19.5796C13.4405 19.7202 13.2497 19.7992 13.0508 19.7992H12.0013C11.973 19.7992 11.9447 19.7992 11.9205 19.7992C11.8963 19.7992 11.8753 19.7992 11.8527 19.7992H11.5508C11.3518 19.7992 11.1611 19.7202 11.0204 19.5796C10.8797 19.439 10.8007 19.2483 10.8007 19.0494V16.951C10.8007 16.9341 10.8007 16.9155 10.8007 16.8986V15.5927H10.2009C10.1216 15.5936 10.043 15.5786 9.96959 15.5486C9.89621 15.5186 9.82957 15.4743 9.7736 15.4182C9.71763 15.3621 9.67345 15.2954 9.64367 15.2219C9.61388 15.1485 9.5991 15.0699 9.60018 14.9906C9.5988 14.9068 9.61473 14.8237 9.64696 14.7463C9.67918 14.669 9.72702 14.5991 9.78749 14.5411L14.5953 10.3515C14.6499 10.2988 14.715 10.2582 14.7864 10.2323C14.8577 10.2065 14.9338 10.1959 15.0095 10.2014C15.1524 10.1992 15.2919 10.2456 15.4051 10.333L20.1927 14.5411C20.2624 14.5924 20.3178 14.6606 20.3539 14.7392C20.3899 14.8179 20.4053 14.9044 20.3986 14.9906H20.3978Z" fill="white"/>
<defs>
<filter id="filter0_f_16331_20667" x="7" y="25" width="16" height="8" filterUnits="userSpaceOnUse" color-interpolation-filters="sRGB">
<feFlood flood-opacity="0" result="BackgroundImageFix"/>
<feBlend mode="normal" in="SourceGraphic" in2="BackgroundImageFix" result="shape"/>
<feGaussianBlur stdDeviation="1" result="effect1_foregroundBlur_16331_20667"/>
</filter>
<filter id="filter1_d_16331_20667" x="0" y="0" width="30" height="32.9985" filterUnits="userSpaceOnUse" color-interpolation-filters="sRGB">
<feFlood flood-opacity="0" result="BackgroundImageFix"/>
<feColorMatrix in="SourceAlpha" type="matrix" values="0 0 0 0 0 0 0 0 0 0 0 0 0 0 0 0 0 0 127 0" result="hardAlpha"/>
<feOffset/>
<feGaussianBlur stdDeviation="2"/>
<feComposite in2="hardAlpha" operator="out"/>
<feColorMatrix type="matrix" values="0 0 0 0 0 0 0 0 0 0 0 0 0 0 0 0 0 0 0.15 0"/>
<feBlend mode="normal" in2="BackgroundImageFix" result="effect1_dropShadow_16331_20667"/>
<feBlend mode="normal" in="SourceGraphic" in2="effect1_dropShadow_16331_20667" result="shape"/>
</filter>
</defs>
</svg>
