<svg width="30" height="33" viewBox="0 0 30 33" fill="none" xmlns="http://www.w3.org/2000/svg">
<g filter="url(#filter0_f_16331_20764)">
<path d="M15 31C18.3137 31 21 30.1046 21 29C21 27.8954 18.3137 27 15 27C11.6863 27 9 27.8954 9 29C9 30.1046 11.6863 31 15 31Z" fill="black" fill-opacity="0.6"/>
</g>
<g filter="url(#filter1_d_16331_20764)">
<path d="M26 14.9732C25.9991 16.7715 25.5554 18.542 24.708 20.1289C23.8606 21.7157 22.6355 23.0702 21.1405 24.0732C21.1165 24.0912 20.7609 24.3102 20.6207 24.4022C17.2485 26.5422 15.8954 27.9872 15.3505 28.8022C15.2859 28.8991 15.1854 28.9665 15.0712 28.9897C14.9569 29.0129 14.8381 28.9901 14.7406 28.9262C14.6916 28.8932 14.6494 28.8511 14.6164 28.8022C14.0716 27.9912 12.7135 26.5462 9.34626 24.4022C9.19302 24.3072 8.8515 24.0912 8.82646 24.0732C7.25656 23.0103 5.9886 21.5601 5.14572 19.8635C4.30285 18.1669 3.91368 16.2815 4.01603 14.3904C4.11837 12.4993 4.70874 10.6667 5.72981 9.0707C6.75088 7.47466 8.16796 6.16936 9.84342 5.28155C11.5189 4.39375 13.3958 3.95361 15.292 4.00387C17.1881 4.05413 19.039 4.5931 20.6649 5.56842C22.2908 6.54374 23.6365 7.92228 24.5713 9.57017C25.5062 11.2181 25.9983 13.0793 26 14.9732Z" fill="white"/>
</g>
<circle cx="15" cy="15" r="9" fill="#B370F0"/>
<path d="M14.9983 20.3335H10.0783C9.77835 20.3335 9.66915 20.2249 9.66915 19.9273V19.1719C9.66259 19.0952 9.68358 19.0187 9.72833 18.9562C9.77309 18.8936 9.83869 18.849 9.91335 18.8305C10.0111 18.7963 10.1101 18.7657 10.2097 18.7321C10.3712 18.6903 10.5128 18.5928 10.6093 18.4567C10.7058 18.3207 10.7511 18.1549 10.7371 17.9887V10.4797C10.7277 10.3082 10.7762 10.1385 10.8749 9.99797C10.9736 9.85745 11.1168 9.75426 11.2813 9.70505C11.3699 9.67935 11.4616 9.66642 11.5537 9.66665H18.4537C18.6571 9.6545 18.8569 9.72348 19.0094 9.85845C19.1619 9.99343 19.2547 10.1834 19.2673 10.3867C19.2697 10.418 19.2697 10.4495 19.2673 10.4809V17.9707C19.2487 18.1446 19.2948 18.3193 19.3969 18.4615C19.4989 18.6036 19.6498 18.7031 19.8205 18.7411C19.9213 18.7747 20.0245 18.8077 20.1205 18.8461C20.1829 18.8659 20.2371 18.9056 20.2748 18.9591C20.3125 19.0127 20.3316 19.077 20.3293 19.1425C20.3293 19.4311 20.3335 19.7197 20.3293 20.0089C20.3306 20.0535 20.3224 20.098 20.3053 20.1393C20.2881 20.1806 20.2623 20.2177 20.2297 20.2483C20.1971 20.2789 20.1584 20.3022 20.1161 20.3166C20.0738 20.3311 20.0289 20.3364 19.9843 20.3323H14.9983M12.5131 12.5119V13.0117C12.5104 13.0601 12.5172 13.1086 12.5333 13.1544C12.5493 13.2002 12.5743 13.2424 12.6067 13.2785C12.6391 13.3146 12.6783 13.344 12.722 13.3649C12.7658 13.3858 12.8133 13.3979 12.8617 13.4005C12.8761 13.4016 12.8906 13.4016 12.9049 13.4005H13.9039C14.001 13.4047 14.0958 13.3704 14.1677 13.3049C14.2395 13.2395 14.2825 13.1483 14.2873 13.0513C14.2879 13.0399 14.2879 13.0284 14.2873 13.0171C14.2897 12.6807 14.2897 12.3449 14.2873 12.0097C14.2898 11.9613 14.2826 11.913 14.2664 11.8674C14.2501 11.8218 14.225 11.7799 14.1925 11.744C14.16 11.7081 14.1208 11.6789 14.077 11.6582C14.0333 11.6375 13.9859 11.6256 13.9375 11.6233C13.9252 11.6224 13.9127 11.6224 13.9003 11.6233H12.9043C12.856 11.6202 12.8075 11.6268 12.7616 11.6425C12.7158 11.6583 12.6735 11.6829 12.6371 11.715C12.6008 11.7471 12.5712 11.786 12.5499 11.8296C12.5286 11.8731 12.5161 11.9205 12.5131 11.9689C12.5131 11.9833 12.5131 11.9975 12.5131 12.0115V12.5113M16.5895 13.3999H17.1115C17.16 13.4011 17.2082 13.3928 17.2535 13.3754C17.2987 13.358 17.34 13.3318 17.3751 13.2983C17.4102 13.2649 17.4383 13.2248 17.4578 13.1805C17.4774 13.1361 17.4879 13.0883 17.4889 13.0399V13.0195C17.4913 12.6831 17.4913 12.3463 17.4889 12.0091C17.4913 11.9607 17.4841 11.9124 17.4677 11.8668C17.4514 11.8213 17.4262 11.7794 17.3937 11.7435C17.3611 11.7077 17.3219 11.6787 17.2781 11.658C17.2343 11.6374 17.1869 11.6256 17.1385 11.6233H16.0975C16.0494 11.6212 16.0012 11.6286 15.9559 11.6451C15.9106 11.6616 15.869 11.6869 15.8334 11.7195C15.7979 11.7521 15.7691 11.7913 15.7487 11.8351C15.7284 11.8788 15.7168 11.9261 15.7147 11.9743C15.7142 11.9858 15.7142 11.9975 15.7147 12.0091C15.7123 12.3415 15.7123 12.6743 15.7147 13.0075C15.7087 13.1052 15.7417 13.2014 15.8065 13.2749C15.8713 13.3483 15.9626 13.3931 16.0603 13.3993H16.5913M14.2873 15.3565V14.8675C14.2958 14.7697 14.2651 14.6725 14.202 14.5974C14.1389 14.5222 14.0485 14.4752 13.9507 14.4667C13.9328 14.4652 13.9147 14.4652 13.8967 14.4667H12.9073C12.8589 14.4631 12.8102 14.4691 12.764 14.4843C12.7179 14.4996 12.6752 14.5238 12.6384 14.5555C12.6016 14.5873 12.5715 14.626 12.5497 14.6694C12.5279 14.7129 12.5148 14.7602 12.5113 14.8087C12.5102 14.8264 12.5102 14.8443 12.5113 14.8621V15.8497C12.5081 15.8981 12.5144 15.9468 12.53 15.9928C12.5456 16.0388 12.5702 16.0813 12.6022 16.1178C12.6343 16.1543 12.6732 16.1842 12.7168 16.2056C12.7604 16.227 12.8079 16.2396 12.8563 16.2427C12.8703 16.2435 12.8844 16.2435 12.8983 16.2427H13.8991C13.9476 16.2455 13.9962 16.2387 14.042 16.2228C14.0879 16.2068 14.1302 16.1819 14.1664 16.1496C14.2026 16.1173 14.2321 16.0781 14.2532 16.0344C14.2742 15.9906 14.2865 15.9431 14.2891 15.8947C14.2903 15.8807 14.2903 15.8666 14.2891 15.8527V15.3547M16.6003 14.4667H16.0873C15.9896 14.4644 15.8949 14.501 15.8241 14.5686C15.7534 14.6361 15.7123 14.7289 15.7099 14.8267V14.8477C15.7099 15.1843 15.7099 15.5209 15.7099 15.8551C15.7075 15.9033 15.7146 15.9516 15.7309 15.9971C15.7471 16.0426 15.7722 16.0845 15.8046 16.1203C15.837 16.1561 15.8762 16.1852 15.9199 16.2059C15.9636 16.2266 16.0109 16.2385 16.0591 16.2409H17.1001C17.1978 16.2448 17.2931 16.2097 17.365 16.1435C17.4368 16.0772 17.4795 15.9851 17.4835 15.8875C17.4841 15.8765 17.4841 15.8654 17.4835 15.8545V14.8549C17.4887 14.758 17.4555 14.663 17.3911 14.5903C17.3268 14.5177 17.2365 14.4733 17.1397 14.4667H16.5997" fill="white"/>
<defs>
<filter id="filter0_f_16331_20764" x="7" y="25" width="16" height="8" filterUnits="userSpaceOnUse" color-interpolation-filters="sRGB">
<feFlood flood-opacity="0" result="BackgroundImageFix"/>
<feBlend mode="normal" in="SourceGraphic" in2="BackgroundImageFix" result="shape"/>
<feGaussianBlur stdDeviation="1" result="effect1_foregroundBlur_16331_20764"/>
</filter>
<filter id="filter1_d_16331_20764" x="0" y="0" width="30" height="32.9985" filterUnits="userSpaceOnUse" color-interpolation-filters="sRGB">
<feFlood flood-opacity="0" result="BackgroundImageFix"/>
<feColorMatrix in="SourceAlpha" type="matrix" values="0 0 0 0 0 0 0 0 0 0 0 0 0 0 0 0 0 0 127 0" result="hardAlpha"/>
<feOffset/>
<feGaussianBlur stdDeviation="2"/>
<feComposite in2="hardAlpha" operator="out"/>
<feColorMatrix type="matrix" values="0 0 0 0 0 0 0 0 0 0 0 0 0 0 0 0 0 0 0.15 0"/>
<feBlend mode="normal" in2="BackgroundImageFix" result="effect1_dropShadow_16331_20764"/>
<feBlend mode="normal" in="SourceGraphic" in2="effect1_dropShadow_16331_20764" result="shape"/>
</filter>
</defs>
</svg>
