<svg width="22" height="22" viewBox="0 0 22 22" fill="none" xmlns="http://www.w3.org/2000/svg">
<rect width="22" height="22" rx="11" fill="#919191" fill-opacity="0.2"/>
<path d="M6.29823 11.0553L7.38411 9.9719L8.34356 10.9314L7.25623 12.016C6.93009 12.386 6.75721 12.8663 6.77281 13.3593C6.7884 13.8522 6.99129 14.3207 7.34016 14.6693C7.68904 15.018 8.15766 15.2205 8.65063 15.2357C9.14359 15.251 9.62383 15.0777 9.99357 14.7513L11.0794 13.6672L12.0362 14.624L10.9502 15.71C10.6458 16.0196 10.283 16.2658 9.88292 16.4345C9.48282 16.6032 9.05329 16.691 8.61908 16.6928C8.18488 16.6947 7.75461 16.6106 7.35308 16.4453C6.95156 16.28 6.58672 16.0369 6.27963 15.7299C5.97253 15.423 5.72925 15.0583 5.56381 14.6568C5.39837 14.2553 5.31406 13.8251 5.31572 13.3909C5.31739 12.9567 5.40501 12.5271 5.57353 12.127C5.74204 11.7268 5.98812 11.3639 6.29757 11.0593L6.29823 11.0553Z" fill="#919191" fill-opacity="0.4"/>
<path d="M12.6323 10.0404L10.1775 7.58565C10.3324 7.54823 10.4916 7.5299 10.6516 7.53134C11.1964 7.53187 11.7189 7.7475 12.1056 8.13134C12.4785 8.50419 12.6892 9.00928 12.6916 9.53667C12.6937 9.70681 12.6737 9.87612 12.6323 10.0404Z" fill="#919191" fill-opacity="0.4"/>
<path d="M14.6261 12.0342L13.6712 11.0793L14.7496 10.0027C15.1022 9.64929 15.305 9.1736 15.3158 8.67452C15.3266 8.17544 15.1447 7.6914 14.8077 7.32305C14.4708 6.9547 14.0049 6.73041 13.5068 6.69681C13.0087 6.66322 12.5169 6.82291 12.1336 7.14267L11.9796 7.268L11.8009 7.17667C11.5831 7.0725 11.345 7.01742 11.1036 7.01534L11.0802 7.01534L10.9542 7.02067C10.9029 7.02362 10.8519 7.01074 10.8081 6.98378C10.7643 6.95682 10.7298 6.91708 10.7093 6.86991C10.6888 6.82274 10.6833 6.77042 10.6935 6.72001C10.7036 6.6696 10.729 6.62353 10.7662 6.588L11.0516 6.302C11.3572 5.99655 11.72 5.75428 12.1193 5.58904C12.5185 5.42379 12.9464 5.33881 13.3785 5.33893C13.8106 5.33906 14.2385 5.42429 14.6376 5.58976C15.0368 5.75523 15.3994 5.99771 15.7049 6.30334C16.0104 6.60897 16.2526 6.97177 16.4179 7.37102C16.5831 7.77028 16.6681 8.19818 16.668 8.63028C16.6678 9.06238 16.5826 9.49023 16.4171 9.88939C16.2517 10.2886 16.0092 10.6512 15.7036 10.9567L14.6261 12.0342Z" fill="#919191" fill-opacity="0.4"/>
<path d="M9.27879 11.8666L10.2342 12.822L9.7969 13.2573C9.66836 13.3779 9.49782 13.4435 9.32161 13.4402C9.14541 13.4368 8.97748 13.3648 8.8536 13.2394C8.72973 13.1141 8.6597 12.9453 8.65845 12.7691C8.6572 12.5929 8.72482 12.4231 8.8469 12.296L9.27879 11.8666Z" fill="#919191" fill-opacity="0.4"/>
<path d="M15.973 15.0031C16.0902 14.8859 16.0902 14.6959 15.973 14.5788L7.6506 6.25636C7.53344 6.1392 7.34349 6.1392 7.22633 6.25636L6.25841 7.22428C6.14125 7.34144 6.14125 7.53139 6.25841 7.64855L14.5808 15.971C14.698 16.0881 14.8879 16.0881 15.0051 15.971L15.973 15.0031Z" fill="#919191" fill-opacity="0.4"/>
</svg>
