<svg width="14" height="12" viewBox="0 0 14 12" fill="none" xmlns="http://www.w3.org/2000/svg">
<path d="M0.35256 11.5969V10.6531C0.352123 10.559 0.388775 10.4686 0.454474 10.4016C0.520174 10.3347 0.609557 10.2967 0.703013 10.2961H13.2996C13.3926 10.2961 13.4817 10.3333 13.5475 10.3994C13.6132 10.4656 13.6501 10.5554 13.6501 10.649V11.5969C13.6501 11.6433 13.641 11.6891 13.6234 11.732C13.6058 11.7748 13.58 11.8137 13.5475 11.8464C13.5149 11.8792 13.4763 11.9052 13.4338 11.9229C13.3912 11.9407 13.3457 11.9498 13.2996 11.9498H0.705476C0.612367 11.9496 0.523097 11.9124 0.457029 11.8464C0.390961 11.7803 0.353424 11.6907 0.35256 11.5969ZM9.99947 8.74237C9.84047 8.56332 9.71845 8.35418 9.64052 8.12716C9.5626 7.90014 9.53033 7.65976 9.5456 7.42006V7.34237C9.54646 7.29632 9.56511 7.25243 9.59761 7.22002C9.6301 7.18761 9.67387 7.16924 9.7196 7.16882H10.6167C10.6394 7.1686 10.662 7.17293 10.6831 7.18155C10.7042 7.19017 10.7234 7.20292 10.7396 7.21906C10.7558 7.2352 10.7686 7.25441 10.7774 7.27557C10.7861 7.29673 10.7907 7.31944 10.7907 7.34237V7.35146C10.7897 7.48398 10.8015 7.61629 10.8259 7.7465C10.8437 7.85557 10.8882 7.95843 10.9556 8.04568C11.0219 8.13043 11.1091 8.19625 11.2084 8.23658C11.3358 8.28732 11.472 8.3115 11.6089 8.30766C11.7976 8.30894 11.9805 8.24209 12.1244 8.11923C12.2043 8.04718 12.2666 7.95744 12.3063 7.85706C12.3461 7.75669 12.3622 7.64841 12.3533 7.54072C12.3557 7.41866 12.3362 7.29717 12.2959 7.18204C12.2565 7.07701 12.1936 6.98255 12.112 6.90601C12.0089 6.81469 11.892 6.74048 11.7657 6.68617C11.5963 6.60746 11.4222 6.53929 11.2445 6.48204C10.9966 6.4018 10.7563 6.29947 10.5264 6.17626C10.3381 6.07693 10.1678 5.94647 10.0225 5.79031C9.88653 5.64345 9.78501 5.4678 9.72535 5.27626C9.65635 5.05838 9.62363 4.83051 9.6285 4.60188C9.60868 4.34976 9.64413 4.09635 9.73234 3.85956C9.82056 3.62277 9.95939 3.4084 10.139 3.23163C10.5318 2.91067 11.0292 2.74861 11.5342 2.77708C11.7917 2.77569 12.0484 2.8065 12.2983 2.86882C12.5187 2.92392 12.725 3.025 12.904 3.16551C13.0763 3.304 13.2124 3.48272 13.3005 3.68617C13.4012 3.92651 13.4499 4.18572 13.4433 4.4465C13.4433 4.49297 13.4249 4.53754 13.3923 4.57039C13.3597 4.60325 13.3154 4.62171 13.2693 4.62171H12.4223C12.3778 4.62158 12.3351 4.60443 12.3028 4.57372C12.2705 4.54302 12.251 4.50108 12.2483 4.45642C12.2415 4.27448 12.1902 4.09705 12.0989 3.93989C12.0407 3.85831 11.9625 3.79338 11.8718 3.75151C11.7811 3.70963 11.6812 3.69224 11.5818 3.70105C11.4639 3.69753 11.3464 3.71776 11.2363 3.76055C11.1513 3.79782 11.076 3.8544 11.0164 3.92584C10.9614 3.99277 10.9229 4.07175 10.9039 4.15642C10.8837 4.24536 10.8732 4.33626 10.8727 4.4275C10.8673 4.59617 10.9094 4.76294 10.9942 4.90849C11.1275 5.07874 11.3085 5.20483 11.5137 5.27047L12.4715 5.68369C12.6751 5.77103 12.8679 5.88198 13.046 6.01427C13.185 6.11505 13.3062 6.23851 13.4047 6.37956C13.4947 6.50921 13.5583 6.65556 13.5918 6.81014C13.6272 6.98165 13.6442 7.15647 13.6427 7.33163C13.6662 7.59825 13.6272 7.8667 13.529 8.11543C13.4308 8.36416 13.2761 8.58624 13.0772 8.76386C12.6166 9.08742 12.0612 9.24522 11.5006 9.21179C10.9598 9.26055 10.4216 9.09345 10.0019 8.7465L9.99947 8.74237ZM5.51744 8.74237C5.35868 8.56325 5.23699 8.35404 5.15948 8.12699C5.08197 7.89995 5.0502 7.65961 5.06604 7.42006V7.34237C5.06625 7.29655 5.08437 7.25266 5.11647 7.22018C5.14856 7.1877 5.19207 7.16925 5.23757 7.16882H6.13545C6.18102 7.16903 6.22465 7.18742 6.2568 7.21994C6.28894 7.25246 6.30699 7.29648 6.30699 7.34237V7.35146C6.30685 7.48395 6.31866 7.61617 6.34228 7.7465C6.36169 7.85506 6.40611 7.95753 6.47196 8.04568C6.53915 8.13053 6.62712 8.19632 6.7272 8.23658C6.85456 8.28732 6.99082 8.3115 7.12772 8.30766C7.31564 8.30894 7.49773 8.24205 7.64068 8.11923C7.721 8.04746 7.78354 7.95776 7.8233 7.85732C7.86306 7.75687 7.87894 7.64845 7.86967 7.54072C7.87282 7.41881 7.85419 7.29732 7.81468 7.18204C7.77541 7.07613 7.71119 6.98141 7.62755 6.90601C7.52668 6.8151 7.41231 6.74065 7.28859 6.68535C7.11813 6.60712 6.94329 6.53896 6.76496 6.48121C6.51809 6.40025 6.27864 6.29795 6.04928 6.17543C5.86026 6.07615 5.6891 5.9457 5.54288 5.78948C5.40843 5.64154 5.30711 5.46623 5.24578 5.27543C5.17917 5.05706 5.14732 4.82945 5.15139 4.60105C5.13204 4.34912 5.16755 4.09598 5.25544 3.8593C5.34333 3.62263 5.48148 3.40813 5.66025 3.2308C6.05464 2.90939 6.55389 2.74761 7.06042 2.77708C7.31846 2.77555 7.57569 2.80637 7.82617 2.86882C8.04552 2.92447 8.25096 3.02552 8.42941 3.16551C8.6019 3.30415 8.73848 3.4828 8.82746 3.68617C8.92771 3.92661 8.97584 4.18583 8.96863 4.4465C8.96885 4.4693 8.9646 4.49191 8.95614 4.51305C8.94768 4.53419 8.93516 4.55344 8.91931 4.56971C8.90346 4.58598 8.88458 4.59895 8.86375 4.60787C8.84292 4.61679 8.82055 4.62149 8.79792 4.62171H7.94353C7.8991 4.62158 7.85638 4.60443 7.82406 4.57372C7.79174 4.54302 7.77225 4.50108 7.76954 4.45642C7.76455 4.27442 7.71372 4.09668 7.6218 3.93989C7.56341 3.85793 7.48474 3.79276 7.3936 3.75086C7.30247 3.70897 7.20204 3.69179 7.10228 3.70105C6.98514 3.69786 6.86854 3.71808 6.75921 3.76055C6.67467 3.79862 6.59955 3.85507 6.53926 3.92584C6.48434 3.99277 6.44583 4.07175 6.42681 4.15642C6.40737 4.24544 6.39774 4.33635 6.39809 4.4275C6.39305 4.5958 6.43423 4.76224 6.5171 4.90849C6.65145 5.07764 6.83206 5.20348 7.03662 5.27047L7.99442 5.68369C8.19765 5.77179 8.39038 5.88268 8.56893 6.01427C8.7073 6.11572 8.82842 6.23909 8.92759 6.37956C9.01594 6.50987 9.07863 6.65604 9.11226 6.81014C9.14901 6.98145 9.16663 7.15637 9.16478 7.33163C9.18825 7.59825 9.14932 7.8667 9.05111 8.11543C8.9529 8.36416 8.79816 8.58624 8.5993 8.76386C8.13855 9.08706 7.58324 9.24483 7.02267 9.21179C6.4803 9.26098 5.94041 9.09391 5.51908 8.7465L5.51744 8.74237ZM13.2947 1.7027H0.704655C0.611338 1.70315 0.521646 1.66635 0.4552 1.60037C0.388755 1.5344 0.350965 1.4446 0.350098 1.35064V0.3994C0.350748 0.306457 0.387871 0.217543 0.453369 0.152053C0.518868 0.0865632 0.607427 0.0498111 0.699731 0.0498134H13.2947C13.3408 0.0494864 13.3866 0.0583514 13.4293 0.0758979C13.472 0.0934443 13.5108 0.119326 13.5435 0.15205C13.5763 0.184775 13.6022 0.223697 13.62 0.266574C13.6377 0.309451 13.6468 0.355436 13.6468 0.401879V1.34403C13.6473 1.43814 13.6106 1.52858 13.5449 1.59551C13.4792 1.66244 13.3898 1.7004 13.2964 1.70105L13.2947 1.7027ZM0.417398 4.70105C0.448622 4.34536 0.545485 3.99865 0.703013 3.67874C0.846016 3.40083 1.06652 3.17103 1.33744 3.01758C1.682 2.84154 2.06606 2.75867 2.452 2.77708C2.83759 2.75848 3.22137 2.84107 3.56573 3.01675C3.83705 3.16996 4.05788 3.3998 4.20098 3.67791C4.35757 3.99808 4.45385 4.34471 4.48496 4.70022C4.53039 5.13203 4.55231 5.56601 4.55062 6.00022C4.55254 6.43582 4.53062 6.87119 4.48496 7.30435C4.45354 7.65849 4.35726 8.00371 4.20098 8.32254C4.06025 8.60006 3.83859 8.82759 3.56573 8.9746C3.21848 9.14069 2.83605 9.21844 2.452 9.20105C2.06774 9.21877 1.68504 9.1413 1.33744 8.97543C1.06499 8.82816 0.843656 8.60067 0.703013 8.32336C0.545794 8.00479 0.448934 7.6595 0.417398 7.30518C0.372408 6.87169 0.350764 6.43607 0.35256 6.00022C0.351053 5.56631 0.372697 5.13263 0.417398 4.70105ZM1.62716 7.06634C1.63815 7.3081 1.67839 7.54761 1.74699 7.77956C1.79124 7.93646 1.88201 8.07602 2.00716 8.17956C2.13778 8.26941 2.29399 8.31382 2.452 8.30601C2.60999 8.3137 2.76616 8.2693 2.89684 8.17956C3.02174 8.07611 3.112 7.93645 3.15537 7.77956C3.22425 7.54762 3.26503 7.30814 3.27684 7.06634C3.29653 6.77378 3.30638 6.4184 3.30638 6.00022C3.30638 5.58204 3.29653 5.2286 3.27684 4.93989C3.26452 4.69815 3.22375 4.45873 3.15537 4.22667C3.11262 4.06835 3.02232 3.92719 2.89684 3.82254C2.76598 3.73318 2.60994 3.68882 2.452 3.69609C2.29404 3.6887 2.13796 3.73307 2.00716 3.82254C1.88139 3.92725 1.79057 4.06831 1.74699 4.22667C1.67886 4.45873 1.63863 4.69818 1.62716 4.93989C1.60637 5.2297 1.59625 5.58314 1.59679 6.00022C1.59734 6.4173 1.60746 6.7724 1.62716 7.06551" fill="#FAB15C"/>
</svg>
