<svg width="22" height="22" viewBox="0 0 22 22" fill="none" xmlns="http://www.w3.org/2000/svg">
<rect width="22" height="22" rx="11" fill="#919191"/>
<g clip-path="url(#clip0_16994_4828)">
<path d="M16.3949 10.2833V13.3699C16.4095 13.5689 16.3938 13.769 16.3482 13.9633C16.2947 14.1475 16.1958 14.3154 16.0608 14.4516C15.9257 14.5879 15.7587 14.6881 15.5749 14.7433C15.336 14.7922 15.0914 14.8079 14.8482 14.7899C14.7474 14.7899 14.6508 14.7499 14.5795 14.6786C14.5083 14.6074 14.4682 14.5107 14.4682 14.4099V13.2666H13.3149V13.7833C13.3141 13.8346 13.3096 13.8859 13.3016 13.9366C13.275 14.1243 13.18 14.2956 13.0348 14.4174C12.8895 14.5392 12.7044 14.6031 12.5149 14.5966H9.82823C9.62444 14.5976 9.42472 14.5396 9.25318 14.4296C9.08164 14.3196 8.94562 14.1622 8.86156 13.9766H8.24823C8.06207 13.9654 7.88634 13.8868 7.75385 13.7556C7.62136 13.6243 7.54117 13.4493 7.52823 13.2633V12.5166H6.7549C6.7549 12.8966 6.76156 13.2699 6.7549 13.6566C6.75507 13.7259 6.73579 13.7939 6.69926 13.8528C6.66273 13.9118 6.6104 13.9593 6.54823 13.9899C6.43112 14.0331 6.30522 14.0468 6.18156 14.0299C6.06278 14.0457 5.94196 14.0343 5.82823 13.9966C5.76279 13.9663 5.70699 13.9185 5.66699 13.8585C5.627 13.7985 5.60435 13.7286 5.60156 13.6566V10.2366C5.60376 10.1399 5.64181 10.0474 5.70834 9.97722C5.77487 9.907 5.86512 9.86401 5.96156 9.85659C6.10823 9.84993 6.2549 9.84993 6.40156 9.85659C6.49801 9.86401 6.58826 9.907 6.65478 9.97722C6.72131 10.0474 6.75937 10.1399 6.76156 10.2366V11.3766H7.52823C7.52823 10.8499 7.52156 10.3299 7.52823 9.80993C7.54227 9.62427 7.62282 9.44991 7.75508 9.31887C7.88735 9.18783 8.06245 9.1089 8.24823 9.09659C8.78156 9.08993 9.3149 9.09659 9.84156 9.09659V8.34326H8.2949C8.19309 8.34089 8.09611 8.29939 8.02411 8.22738C7.9521 8.15538 7.9106 8.0584 7.90823 7.95659V7.93659C7.90505 7.78521 7.91173 7.63378 7.92823 7.48326H7.92156C7.94715 7.39848 8.00051 7.32477 8.07307 7.27398C8.14562 7.22319 8.23314 7.19829 8.32156 7.20326H12.5342C12.6067 7.20414 12.6776 7.22519 12.7388 7.26405C12.8 7.3029 12.8492 7.35803 12.8809 7.42326C12.9141 7.51266 12.9277 7.60814 12.9209 7.70326C12.9209 7.80326 12.9209 7.90326 12.9142 8.00993C12.9025 8.1023 12.8574 8.1872 12.7874 8.2486C12.7174 8.31001 12.6273 8.34367 12.5342 8.34326H11.0009V9.09659H12.5142C12.718 9.09042 12.916 9.16452 13.0656 9.30293C13.2153 9.44134 13.3045 9.63299 13.3142 9.83659V10.6166H14.4676V9.47659C14.4679 9.40051 14.4909 9.32626 14.5337 9.26332C14.5764 9.20039 14.637 9.15162 14.7076 9.12326C14.7924 9.10128 14.88 9.09229 14.9676 9.09659C15.146 9.08754 15.3249 9.09872 15.5009 9.12993C15.67 9.16798 15.8284 9.24341 15.9646 9.3507C16.1007 9.45799 16.2111 9.5944 16.2876 9.74993C16.363 9.91733 16.4002 10.0997 16.3949 10.2833Z" fill="white"/>
</g>
<defs>
<clipPath id="clip0_16994_4828">
<rect width="12" height="12" fill="white" transform="translate(5 5)"/>
</clipPath>
</defs>
</svg>
