<svg width="30" height="33" viewBox="0 0 30 33" fill="none" xmlns="http://www.w3.org/2000/svg">
<circle cx="15" cy="29" r="3" fill="#DF3C3C" stroke="#2F2F2F" stroke-width="2"/>
<g filter="url(#filter0_d_18055_34238)">
<path d="M26 14.9732C25.9991 16.7715 25.5554 18.542 24.708 20.1289C23.8606 21.7157 22.6355 23.0702 21.1405 24.0732C21.1165 24.0912 20.7609 24.3102 20.6207 24.4022C17.2485 26.5422 15.8954 27.9872 15.3505 28.8022C15.2859 28.8991 15.1854 28.9665 15.0712 28.9897C14.9569 29.0129 14.8381 28.9901 14.7406 28.9262C14.6916 28.8932 14.6494 28.8511 14.6164 28.8022C14.0716 27.9912 12.7135 26.5462 9.34626 24.4022C9.19302 24.3072 8.8515 24.0912 8.82646 24.0732C7.25656 23.0103 5.9886 21.5601 5.14572 19.8635C4.30285 18.1669 3.91368 16.2815 4.01603 14.3904C4.11837 12.4993 4.70874 10.6667 5.72981 9.0707C6.75088 7.47466 8.16796 6.16936 9.84342 5.28155C11.5189 4.39375 13.3958 3.95361 15.292 4.00387C17.1881 4.05413 19.039 4.5931 20.6649 5.56842C22.2908 6.54374 23.6365 7.92228 24.5713 9.57017C25.5062 11.2181 25.9983 13.0793 26 14.9732Z" fill="#ED9292"/>
</g>
<circle cx="15" cy="15" r="9" fill="#DF3C3C"/>
<path d="M13.0462 19.0477L9.71291 15.7144C9.65718 15.6587 9.61297 15.5925 9.5828 15.5197C9.55264 15.4469 9.53711 15.3689 9.53711 15.2901C9.53711 15.2112 9.55264 15.1332 9.5828 15.0604C9.61297 14.9876 9.65718 14.9214 9.71291 14.8657L10.5629 14.0184C10.6186 13.9627 10.6848 13.9184 10.7576 13.8883C10.8304 13.8581 10.9084 13.8426 10.9872 13.8426C11.0661 13.8426 11.1441 13.8581 11.2169 13.8883C11.2897 13.9184 11.3559 13.9627 11.4116 14.0184L13.4702 16.0771L18.5869 10.9571C18.6426 10.9013 18.7088 10.8571 18.7816 10.8269C18.8544 10.7968 18.9324 10.7812 19.0112 10.7812C19.0901 10.7812 19.1681 10.7968 19.2409 10.8269C19.3137 10.8571 19.3799 10.9013 19.4356 10.9571L20.2842 11.8057C20.34 11.8614 20.3842 11.9276 20.4144 12.0004C20.4445 12.0732 20.4601 12.1512 20.4601 12.2301C20.4601 12.3089 20.4445 12.3869 20.4144 12.4597C20.3842 12.5325 20.34 12.5987 20.2842 12.6544L13.8949 19.0451C13.8392 19.1008 13.773 19.145 13.7002 19.1752C13.6274 19.2053 13.5494 19.2209 13.4706 19.2209C13.3918 19.2209 13.3137 19.2053 13.2409 19.1752C13.1681 19.145 13.102 19.1008 13.0462 19.0451V19.0477Z" fill="white"/>
<defs>
<filter id="filter0_d_18055_34238" x="0" y="0" width="30" height="32.9985" filterUnits="userSpaceOnUse" color-interpolation-filters="sRGB">
<feFlood flood-opacity="0" result="BackgroundImageFix"/>
<feColorMatrix in="SourceAlpha" type="matrix" values="0 0 0 0 0 0 0 0 0 0 0 0 0 0 0 0 0 0 127 0" result="hardAlpha"/>
<feOffset/>
<feGaussianBlur stdDeviation="2"/>
<feComposite in2="hardAlpha" operator="out"/>
<feColorMatrix type="matrix" values="0 0 0 0 0 0 0 0 0 0 0 0 0 0 0 0 0 0 0.15 0"/>
<feBlend mode="normal" in2="BackgroundImageFix" result="effect1_dropShadow_18055_34238"/>
<feBlend mode="normal" in="SourceGraphic" in2="effect1_dropShadow_18055_34238" result="shape"/>
</filter>
</defs>
</svg>
