<svg width="30" height="33" viewBox="0 0 30 33" fill="none" xmlns="http://www.w3.org/2000/svg">
<circle cx="15" cy="29" r="3" fill="#DF3C3C" stroke="#2F2F2F" stroke-width="2"/>
<g filter="url(#filter0_d_18055_34248)">
<path d="M26 14.9732C25.9991 16.7715 25.5554 18.542 24.708 20.1289C23.8606 21.7157 22.6355 23.0702 21.1405 24.0732C21.1165 24.0912 20.7609 24.3102 20.6207 24.4022C17.2485 26.5422 15.8954 27.9872 15.3505 28.8022C15.2859 28.8991 15.1854 28.9665 15.0712 28.9897C14.9569 29.0129 14.8381 28.9901 14.7406 28.9262C14.6916 28.8932 14.6494 28.8511 14.6164 28.8022C14.0716 27.9912 12.7135 26.5462 9.34626 24.4022C9.19302 24.3072 8.8515 24.0912 8.82646 24.0732C7.25656 23.0103 5.9886 21.5601 5.14572 19.8635C4.30285 18.1669 3.91368 16.2815 4.01603 14.3904C4.11837 12.4993 4.70874 10.6667 5.72981 9.0707C6.75088 7.47466 8.16796 6.16936 9.84342 5.28155C11.5189 4.39375 13.3958 3.95361 15.292 4.00387C17.1881 4.05413 19.039 4.5931 20.6649 5.56842C22.2908 6.54374 23.6365 7.92228 24.5713 9.57017C25.5062 11.2181 25.9983 13.0793 26 14.9732Z" fill="#ED9292"/>
</g>
<circle cx="15" cy="15" r="9" fill="#DF3C3C"/>
<path d="M12.1189 19V17.845L15.0889 15.04C15.3235 14.8273 15.4959 14.6367 15.6059 14.468C15.7159 14.2993 15.7892 14.1453 15.8259 14.006C15.8699 13.8667 15.8919 13.7383 15.8919 13.621C15.8919 13.313 15.7855 13.0783 15.5729 12.917C15.3675 12.7483 15.0632 12.664 14.6599 12.664C14.3372 12.664 14.0365 12.7263 13.7579 12.851C13.4865 12.9757 13.2555 13.17 13.0649 13.434L11.7669 12.598C12.0602 12.158 12.4709 11.8097 12.9989 11.553C13.5269 11.2963 14.1355 11.168 14.8249 11.168C15.3969 11.168 15.8955 11.2633 16.3209 11.454C16.7535 11.6373 17.0872 11.8977 17.3219 12.235C17.5639 12.5723 17.6849 12.9757 17.6849 13.445C17.6849 13.6943 17.6519 13.9437 17.5859 14.193C17.5272 14.435 17.4025 14.6917 17.2119 14.963C17.0285 15.2343 16.7572 15.5387 16.3979 15.876L13.9339 18.197L13.5929 17.548H17.9379V19H12.1189Z" fill="white"/>
<defs>
<filter id="filter0_d_18055_34248" x="0" y="0" width="30" height="32.9985" filterUnits="userSpaceOnUse" color-interpolation-filters="sRGB">
<feFlood flood-opacity="0" result="BackgroundImageFix"/>
<feColorMatrix in="SourceAlpha" type="matrix" values="0 0 0 0 0 0 0 0 0 0 0 0 0 0 0 0 0 0 127 0" result="hardAlpha"/>
<feOffset/>
<feGaussianBlur stdDeviation="2"/>
<feComposite in2="hardAlpha" operator="out"/>
<feColorMatrix type="matrix" values="0 0 0 0 0 0 0 0 0 0 0 0 0 0 0 0 0 0 0.15 0"/>
<feBlend mode="normal" in2="BackgroundImageFix" result="effect1_dropShadow_18055_34248"/>
<feBlend mode="normal" in="SourceGraphic" in2="effect1_dropShadow_18055_34248" result="shape"/>
</filter>
</defs>
</svg>
