<svg width="14" height="14" viewBox="0 0 14 14" fill="none" xmlns="http://www.w3.org/2000/svg">
<path d="M5.1888 12.5987L6.58795 11.199H12.3799C12.4366 11.1988 12.4906 11.22 12.5316 11.2591C12.5725 11.2983 12.5976 11.3529 12.5999 11.4095V12.3813C12.5995 12.4394 12.5755 12.4948 12.5343 12.5358C12.4932 12.5768 12.438 12.5998 12.3799 12.6L5.1888 12.5987ZM1.404 12.1298C1.39854 12.0913 1.39854 12.0522 1.404 12.0136L1.6841 9.5123L7.56626 3.628C7.59036 3.60334 7.61919 3.58396 7.65097 3.57059C7.68274 3.55722 7.71624 3.55009 7.75071 3.55009C7.78519 3.55009 7.82005 3.55722 7.85182 3.57059C7.8836 3.58396 7.91243 3.60334 7.93654 3.628L10.3645 6.0569C10.3889 6.08103 10.4074 6.10999 10.4206 6.14164C10.4338 6.17329 10.4411 6.20713 10.4411 6.24142C10.4411 6.27571 10.4338 6.30955 10.4206 6.3412C10.4074 6.37285 10.3889 6.40181 10.3645 6.42595L4.48103 12.3103L1.9806 12.5946C1.96311 12.5946 1.94344 12.5946 1.92595 12.5946C1.79717 12.5942 1.67271 12.5472 1.57616 12.462C1.47961 12.3767 1.41758 12.259 1.40127 12.1312L1.404 12.1298ZM10.9644 5.46368L8.53637 3.03478C8.51168 3.01026 8.49235 2.9808 8.47898 2.94867C8.46561 2.91654 8.45848 2.88232 8.45848 2.84752C8.45848 2.81272 8.46561 2.7785 8.47898 2.74638C8.49235 2.71425 8.51168 2.68479 8.53637 2.66026L9.49008 1.7062C9.6877 1.50991 9.95489 1.40002 10.2334 1.40002C10.5119 1.40002 10.7791 1.50991 10.9767 1.7062L12.2911 3.02248C12.4868 3.22073 12.5952 3.48883 12.5944 3.76742C12.5937 4.046 12.4838 4.31248 12.287 4.50962H12.2911L11.3374 5.46368C11.2877 5.51262 11.22 5.54022 11.1502 5.54022C11.0804 5.54022 11.0141 5.51262 10.9644 5.46368Z" fill="#919191" fill-opacity="0.4"/>
</svg>
