<svg width="36" height="34" viewBox="0 0 36 34" fill="none" xmlns="http://www.w3.org/2000/svg">
<g filter="url(#filter0_d_3203_10729)">
<rect x="7" y="6" width="22" height="22" rx="11" fill="white" shape-rendering="crispEdges"/>
<rect x="9" y="8" width="18" height="18" rx="9" fill="#E66767"/>
<path d="M17.2298 19.79H20.8598V21H15.1838V20.043L18.2418 17.139C18.9898 16.424 19.1218 15.973 19.1218 15.544C19.1218 14.84 18.6378 14.433 17.6918 14.433C16.9438 14.433 16.3168 14.686 15.8878 15.236L14.8868 14.466C15.4808 13.663 16.5478 13.19 17.8128 13.19C19.4848 13.19 20.5628 14.037 20.5628 15.401C20.5628 16.149 20.3538 16.831 19.2868 17.832L17.2298 19.79Z" fill="white"/>
</g>
<defs>
<filter id="filter0_d_3203_10729" x="0" y="0" width="36" height="34" filterUnits="userSpaceOnUse" color-interpolation-filters="sRGB">
<feFlood flood-opacity="0" result="BackgroundImageFix"/>
<feColorMatrix in="SourceAlpha" type="matrix" values="0 0 0 0 0 0 0 0 0 0 0 0 0 0 0 0 0 0 127 0" result="hardAlpha"/>
<feOffset/>
<feGaussianBlur stdDeviation="3"/>
<feComposite in2="hardAlpha" operator="out"/>
<feColorMatrix type="matrix" values="0 0 0 0 0 0 0 0 0 0 0 0 0 0 0 0 0 0 0.3 0"/>
<feBlend mode="normal" in2="BackgroundImageFix" result="effect1_dropShadow_3203_10729"/>
<feBlend mode="normal" in="SourceGraphic" in2="effect1_dropShadow_3203_10729" result="shape"/>
</filter>
</defs>
</svg>
