<svg width="24" height="24" viewBox="0 0 24 24" fill="none" xmlns="http://www.w3.org/2000/svg">
<g clip-path="url(#clip0_16994_32765)">
<rect y="12" width="16.9718" height="16.9718" rx="1" transform="rotate(-45 0 12)" fill="#FAB15C"/>
<g clip-path="url(#clip1_16994_32765)">
<path d="M17.3949 11.2833V14.3699C17.4095 14.5689 17.3938 14.769 17.3482 14.9633C17.2947 15.1475 17.1958 15.3154 17.0608 15.4516C16.9257 15.5879 16.7587 15.6881 16.5749 15.7433C16.336 15.7922 16.0914 15.8079 15.8482 15.7899C15.7474 15.7899 15.6508 15.7499 15.5795 15.6786C15.5083 15.6074 15.4682 15.5107 15.4682 15.4099V14.2666H14.3149V14.7833C14.3141 14.8346 14.3096 14.8859 14.3016 14.9366C14.275 15.1243 14.18 15.2956 14.0348 15.4174C13.8895 15.5392 13.7044 15.6031 13.5149 15.5966H10.8282C10.6244 15.5976 10.4247 15.5396 10.2532 15.4296C10.0816 15.3196 9.94562 15.1622 9.86156 14.9766H9.24823C9.06207 14.9654 8.88634 14.8868 8.75385 14.7556C8.62136 14.6243 8.54117 14.4493 8.52823 14.2633V13.5166H7.7549C7.7549 13.8966 7.76156 14.2699 7.7549 14.6566C7.75507 14.7259 7.73579 14.7939 7.69926 14.8528C7.66273 14.9118 7.6104 14.9593 7.54823 14.9899C7.43112 15.0331 7.30522 15.0468 7.18156 15.0299C7.06278 15.0457 6.94196 15.0343 6.82823 14.9966C6.76279 14.9663 6.70699 14.9185 6.66699 14.8585C6.627 14.7985 6.60435 14.7286 6.60156 14.6566V11.2366C6.60376 11.1399 6.64181 11.0474 6.70834 10.9772C6.77487 10.907 6.86512 10.864 6.96156 10.8566C7.10823 10.8499 7.2549 10.8499 7.40156 10.8566C7.49801 10.864 7.58826 10.907 7.65478 10.9772C7.72131 11.0474 7.75937 11.1399 7.76156 11.2366V12.3766H8.52823C8.52823 11.8499 8.52156 11.3299 8.52823 10.8099C8.54227 10.6243 8.62282 10.4499 8.75508 10.3189C8.88735 10.1878 9.06245 10.1089 9.24823 10.0966C9.78156 10.0899 10.3149 10.0966 10.8416 10.0966V9.34326H9.2949C9.19309 9.34089 9.09611 9.29939 9.02411 9.22738C8.9521 9.15538 8.9106 9.0584 8.90823 8.95659V8.93659C8.90505 8.78521 8.91173 8.63378 8.92823 8.48326H8.92156C8.94715 8.39848 9.00051 8.32477 9.07307 8.27398C9.14562 8.22319 9.23314 8.19829 9.32156 8.20326H13.5342C13.6067 8.20414 13.6776 8.22519 13.7388 8.26405C13.8 8.3029 13.8492 8.35803 13.8809 8.42326C13.9141 8.51266 13.9277 8.60814 13.9209 8.70326C13.9209 8.80326 13.9209 8.90326 13.9142 9.00993C13.9025 9.1023 13.8574 9.1872 13.7874 9.2486C13.7174 9.31001 13.6273 9.34367 13.5342 9.34326H12.0009V10.0966H13.5142C13.718 10.0904 13.916 10.1645 14.0656 10.3029C14.2153 10.4413 14.3045 10.633 14.3142 10.8366V11.6166H15.4676V10.4766C15.4679 10.4005 15.4909 10.3263 15.5337 10.2633C15.5764 10.2004 15.637 10.1516 15.7076 10.1233C15.7924 10.1013 15.88 10.0923 15.9676 10.0966C16.146 10.0875 16.3249 10.0987 16.5009 10.1299C16.67 10.168 16.8284 10.2434 16.9646 10.3507C17.1007 10.458 17.2111 10.5944 17.2876 10.7499C17.363 10.9173 17.4002 11.0997 17.3949 11.2833Z" fill="white"/>
</g>
</g>
<defs>
<clipPath id="clip0_16994_32765">
<rect y="12" width="16.9718" height="16.9718" rx="1" transform="rotate(-45 0 12)" fill="white"/>
</clipPath>
<clipPath id="clip1_16994_32765">
<rect width="12" height="12" fill="white" transform="translate(6 6)"/>
</clipPath>
</defs>
</svg>
