<svg width="31" height="34" viewBox="0 0 31 34" fill="none" xmlns="http://www.w3.org/2000/svg">
<path d="M15.4067 33.7009C17.6159 33.7009 19.4067 31.9101 19.4067 29.7009C19.4067 27.4918 17.6159 25.7009 15.4067 25.7009C13.1976 25.7009 11.4067 27.4918 11.4067 29.7009C11.4067 31.9101 13.1976 33.7009 15.4067 33.7009Z" fill="#64B5F6"/>
<path d="M15.4067 31.7009C16.5113 31.7009 17.4067 30.8055 17.4067 29.7009C17.4067 28.5964 16.5113 27.7009 15.4067 27.7009C14.3022 27.7009 13.4067 28.5964 13.4067 29.7009C13.4067 30.8055 14.3022 31.7009 15.4067 31.7009Z" fill="white"/>
<g filter="url(#filter0_d_443_36670)">
<path d="M26.4069 15.6751C26.406 17.4734 25.963 19.2439 25.1169 20.8308C24.2708 22.4176 23.0476 23.7722 21.5549 24.7751C21.5309 24.7931 21.1759 25.0121 21.0359 25.1041C17.6689 27.2441 16.3179 28.6891 15.7739 29.5041C15.7093 29.601 15.6091 29.6684 15.495 29.6916C15.3809 29.7148 15.2622 29.692 15.1649 29.6281C15.116 29.5951 15.0739 29.553 15.0409 29.5041C14.4969 28.6931 13.1409 27.2481 9.77892 25.1041C9.62592 25.0091 9.28492 24.7931 9.25992 24.7751C7.69244 23.7122 6.42645 22.262 5.58487 20.5654C4.7433 18.8688 4.35473 16.9834 4.45692 15.0923C4.5591 13.2012 5.14856 11.3687 6.16806 9.77261C7.18755 8.17656 8.60243 6.87126 10.2753 5.98346C11.9482 5.09565 13.8222 4.65551 15.7154 4.70577C17.6086 4.75604 19.4566 5.295 21.0801 6.27032C22.7035 7.24565 24.0471 8.62418 24.9805 10.2721C25.9138 11.92 26.4052 13.7812 26.4069 15.6751Z" fill="white"/>
</g>
<path d="M15.4067 24.7009C20.3773 24.7009 24.4067 20.6715 24.4067 15.7009C24.4067 10.7304 20.3773 6.70093 15.4067 6.70093C10.4362 6.70093 6.40674 10.7304 6.40674 15.7009C6.40674 20.6715 10.4362 24.7009 15.4067 24.7009Z" fill="#64B5F6"/>
<path d="M13.328 11.0009V12.4309H14.868V18.7009H16.65V11.0009H13.328Z" fill="white"/>
<defs>
<filter id="filter0_d_443_36670" x="0.440918" y="0.701904" width="29.9661" height="32.9985" filterUnits="userSpaceOnUse" color-interpolation-filters="sRGB">
<feFlood flood-opacity="0" result="BackgroundImageFix"/>
<feColorMatrix in="SourceAlpha" type="matrix" values="0 0 0 0 0 0 0 0 0 0 0 0 0 0 0 0 0 0 127 0" result="hardAlpha"/>
<feOffset/>
<feGaussianBlur stdDeviation="2"/>
<feColorMatrix type="matrix" values="0 0 0 0 0 0 0 0 0 0 0 0 0 0 0 0 0 0 0.149 0"/>
<feBlend mode="normal" in2="BackgroundImageFix" result="effect1_dropShadow_443_36670"/>
<feBlend mode="normal" in="SourceGraphic" in2="effect1_dropShadow_443_36670" result="shape"/>
</filter>
</defs>
</svg>
