<svg xmlns="http://www.w3.org/2000/svg" width="23" height="23.004" viewBox="0 0 23 23.004"><g transform="translate(-476.717 -894.4)"><rect width="22" height="22" transform="translate(477.217 894.902)" fill="#f3f3f3" stroke="rgba(0,0,0,0)" stroke-width="1" opacity="0"/><g transform="translate(478.099 894.902)"><path d="M488.478,894.909h7.483a.614.614,0,0,1,.7.512.623.623,0,0,1,0,.193v15.114a.6.6,0,0,1-.367.607.744.744,0,0,1-.287.048H481.035a1.121,1.121,0,0,1-.337-.037.568.568,0,0,1-.4-.555c0-1.3.007-2.61.009-3.914,0-.5-.007-1-.01-1.5v-9.74c0-.509.217-.726.733-.726Zm6.9,15.188V896.2h-13.8v13.9Z" transform="translate(-478.356 -894.902)" fill="#f3f3f3" stroke="rgba(0,0,0,0)" stroke-width="1"/><path d="M480.952,913.566h15.161v4.214a.608.608,0,0,1-.538.673.56.56,0,0,1-.136,0H493.9a.611.611,0,0,1-.665-.553.632.632,0,0,1,0-.117V916.57c0-.109-.034-.141-.142-.141h-9.142c-.036,0-.071.005-.13.01v1.351a.609.609,0,0,1-.554.66.625.625,0,0,1-.1,0h-1.557a.607.607,0,0,1-.664-.545.672.672,0,0,1,0-.122v-4.039Zm7.567,1.918h1.491c.183,0,.254-.071.258-.252v-.45c0-.208-.065-.284-.275-.284-.412,0-.825,0-1.235,0h-1.727a.228.228,0,0,0-.25.2.213.213,0,0,0,0,.049v.45c0,.22.065.282.29.283Q487.8,915.486,488.519,915.485Z" transform="translate(-478.41 -896.457)" fill="#f3f3f3" stroke="rgba(0,0,0,0)" stroke-width="1"/><path d="M479.48,900.95c-.344,0-.684.007-1.023,0a.3.3,0,0,1-.275-.337c-.006-.305,0-.611,0-.917v-1.071c0-.275.119-.38.391-.376s.526,0,.79-.01c.081,0,.138.007.138.114V900.9A.353.353,0,0,1,479.48,900.95Z" transform="translate(-478.179 -895.18)" fill="#f3f3f3" stroke="rgba(0,0,0,0)" stroke-width="1"/><path d="M498.826,900.952V898.4c0-.117.026-.167.154-.162.269.009.537,0,.806,0a.32.32,0,0,1,.358.353q.005.993,0,1.986c0,.266-.118.375-.383.375Z" transform="translate(-479.9 -895.179)" fill="#f3f3f3" stroke="rgba(0,0,0,0)" stroke-width="1"/><g transform="translate(3.829 1.896)"><path d="M486.89,906.763l.431-.257-.431-.257Z" transform="translate(-482.734 -897.743)" fill="#f3f3f3" stroke="rgba(0,0,0,0)" stroke-width="1"/><path d="M488.318,896.979a.442.442,0,0,0-.11-.009h-5.714c-.128,0-.138.055-.138.156v12.347c0,.156.046.183.183.183h5.788Zm-.431,1.934a.071.071,0,0,1-.064.073h-.147v6.389h.147a.065.065,0,0,1,.064.073v.568a.071.071,0,0,1-.064.073h-.147v1.558h.147a.063.063,0,0,1,.064.064v.578a.063.063,0,0,1-.064.064h-.147v.853a.063.063,0,0,1-.064.064h-.266a.063.063,0,0,1-.064-.064v-.853h-.147a.063.063,0,0,1-.064-.064v-.578a.063.063,0,0,1,.064-.064h.147v-1.586l-.046.027-.651.385a.418.418,0,0,1-.183.046.413.413,0,0,1-.174-.046.358.358,0,0,1-.174-.312V905.3a.353.353,0,0,1,.532-.312l.66.385.037.018v-6.408h-.147a.071.071,0,0,1-.064-.073v-.568a.071.071,0,0,1,.064-.073h.147v-.843a.071.071,0,0,1,.064-.073h.266a.071.071,0,0,1,.064.073v.843h.147a.071.071,0,0,1,.064.073Z" transform="translate(-482.356 -896.97)" fill="#f3f3f3" stroke="rgba(0,0,0,0)" stroke-width="1"/></g><g transform="translate(10.426 1.896)"><path d="M491.494,906.763l-.431-.257.431-.257Z" transform="translate(-489.679 -897.743)" fill="#f3f3f3" stroke="rgba(0,0,0,0)" stroke-width="1"/><path d="M489.562,896.979a.441.441,0,0,1,.11-.009H495.4c.128,0,.137.055.137.156v12.347c0,.156-.045.183-.183.183h-5.8Zm.431,1.934a.071.071,0,0,0,.064.073h.147v6.389h-.147a.065.065,0,0,0-.064.073v.568a.071.071,0,0,0,.064.073h.147v1.558h-.147a.063.063,0,0,0-.064.064v.578a.063.063,0,0,0,.064.064h.147v.853a.063.063,0,0,0,.064.064h.266a.063.063,0,0,0,.064-.064v-.853h.147a.063.063,0,0,0,.064-.064v-.578a.063.063,0,0,0-.064-.064H490.6v-1.586l.046.027.651.385a.419.419,0,0,0,.183.046.412.412,0,0,0,.174-.046.358.358,0,0,0,.174-.312V905.3a.353.353,0,0,0-.532-.312l-.66.385-.037.018v-6.408h.147a.071.071,0,0,0,.064-.073v-.568a.071.071,0,0,0-.064-.073H490.6v-.843a.071.071,0,0,0-.064-.073h-.266a.071.071,0,0,0-.064.073v.843h-.147a.071.071,0,0,0-.064.073Z" transform="translate(-489.553 -896.97)" fill="#f3f3f3" stroke="rgba(0,0,0,0)" stroke-width="1"/></g><path d="M487.727,906.14v.018l-.037-.018Z" transform="translate(-478.972 -895.838)" fill="#f3f3f3" stroke="rgba(0,0,0,0)" stroke-width="1"/><path d="M487.68,906.918l.046-.027v.027Z" transform="translate(-478.971 -895.901)" fill="#f3f3f3" stroke="rgba(0,0,0,0)" stroke-width="1"/></g></g></svg>