<svg xmlns="http://www.w3.org/2000/svg" width="18" height="18" viewBox="0 0 18 18">
  <g id="Violation_-_Crash_Indicator" data-name="Violation - Crash Indicator" transform="translate(-1865.576 -954.399)">
    <rect id="Rectangle_63575" data-name="Rectangle 63575" width="18" height="18" transform="translate(1865.576 954.399)" fill="#aaa" opacity="0"/>
    <path id="Path_37050" data-name="Path 37050" d="M139.782,4.44l1.054-3.249a.781.781,0,0,1,1.487,0l1.125,3.474,2.3-.837a.724.724,0,0,1,.792.181.747.747,0,0,1,.212.822l-.838,2.3,3.474,1.125a.782.782,0,0,1,0,1.488l-3.363,1.089,1.725,3.281a.8.8,0,0,1-1.056,1.057l-3.282-1.725-1.089,3.362a.781.781,0,0,1-1.487,0l-1.09-3.362-3.282,1.725a.75.75,0,0,1-.918-.166.737.737,0,0,1-.139-.891l1.726-3.281-3.362-1.089a.782.782,0,0,1,0-1.488L137.019,7.2l-3.653-5.328A.783.783,0,0,1,134.455.787Z" transform="translate(1732.997 954.399)" fill="#aaa"/>
  </g>
</svg>
