<svg xmlns="http://www.w3.org/2000/svg" width="18" height="18" viewBox="0 0 18 18"><g transform="translate(-2004.072 -955.482)"><rect width="18" height="18" transform="translate(2004.072 955.482)" fill="#aaa" opacity="0"/><path d="M8.2,16.2a1.9,1.9,0,0,1-1.9-1.9V8.643A3.8,3.8,0,0,1,8.679,5.122V1.9A.476.476,0,0,1,8.2,1.427V.475A.476.476,0,0,1,8.679,0h2.854a.48.48,0,0,1,.476.474v.951a.478.478,0,0,1-.478.478v3.22a3.8,3.8,0,0,1,2.378,3.521V14.3a1.9,1.9,0,0,1-1.9,1.9Zm0-2.361h3.8l0-4.707H8.2ZM0,13.72V9.74a2.5,2.5,0,0,1,5,0V13.72a2.5,2.5,0,0,1-5,0Zm1.429-.02a1.071,1.071,0,0,0,2.143,0V11.824H1.429ZM2.54,5.5a3.033,3.033,0,0,1-.657-4.238L1.9,1.252a.158.158,0,0,1,.226,0L6.136,5.268l.015.018a.154.154,0,0,1-.029.216,3.033,3.033,0,0,1-3.582,0Zm4.025-.669L2.548.818,2.533.8A.154.154,0,0,1,2.565.583,3.031,3.031,0,0,1,6.8,4.819l-.015.017a.156.156,0,0,1-.109.044A.161.161,0,0,1,6.566,4.834Z" transform="translate(2006.117 956.383)" fill="#aaa" stroke="rgba(0,0,0,0)" stroke-miterlimit="10" stroke-width="1"/></g></svg>