<svg xmlns="http://www.w3.org/2000/svg" width="18" height="18" viewBox="0 0 18 18"><g transform="translate(-2097.951 -954.683)"><rect width="18" height="18" transform="translate(2097.951 954.683)" fill="#aaa" opacity="0"/><path d="M380.7,2.983H367.2a1.349,1.349,0,0,0-1.35,1.35v.45h16.2v-.45a1.349,1.349,0,0,0-1.35-1.35m-14.85,11.25a1.349,1.349,0,0,0,1.35,1.35h13.5a1.349,1.349,0,0,0,1.35-1.35V5.683h-16.2Zm10.35-6.75h3.6a.45.45,0,1,1,0,.9h-3.6a.45.45,0,0,1,0-.9m0,1.8h3.6a.45.45,0,1,1,0,.9h-3.6a.45.45,0,0,1,0-.9m0,1.8h3.6a.45.45,0,1,1,0,.9h-3.6a.45.45,0,0,1,0-.9m-5.4-3.6a1.8,1.8,0,1,1-1.8,1.8,1.8,1.8,0,0,1,1.8-1.8m-1.8,4.5h3.6a1.349,1.349,0,0,1,1.35,1.35.449.449,0,0,1-.45.45h-5.4a.452.452,0,0,1-.45-.45,1.349,1.349,0,0,1,1.35-1.35" transform="translate(1732.997 954.399)" fill="#aaa"/></g></svg>