<svg xmlns="http://www.w3.org/2000/svg" width="18" height="18" viewBox="0 0 18 18"><g transform="translate(-1914.854 -955.482)"><g transform="translate(1914.854 955.482)"><rect width="18" height="18" fill="#aaa" opacity="0"/><path d="M195.92,1.983a1.013,1.013,0,0,1,0,2.025v.347a5.06,5.06,0,0,1-1.484,3.58l-2.146,2.148,2.145,2.148a5.062,5.062,0,0,1,1.484,3.579v.348a1.012,1.012,0,1,1,0,2.025H185.8a1.012,1.012,0,0,1,0-2.025V15.81a5.059,5.059,0,0,1,1.487-3.579l2.142-2.148-2.142-2.148a5.063,5.063,0,0,1-1.487-3.58V4.008a1.013,1.013,0,0,1,0-2.025ZM188.3,6.033h5.091a3.018,3.018,0,0,0,.506-1.678V4.008H187.82v.347a3.248,3.248,0,0,0,.477,1.678m0,8.1h5.091a2.989,2.989,0,0,0-.383-.471l-2.148-2.146-2.148,2.146a6,6,0,0,0-.411.471Z" transform="translate(-181.857 -1.083)" fill="#aaa"/></g></g></svg>