<svg xmlns="http://www.w3.org/2000/svg" width="18.1" height="18.1" viewBox="0 0 18.1 18.1"><g transform="translate(-17174.949 15749.05)"><rect width="18" height="18" transform="translate(17175 -15749)" fill="#aaa" opacity="0"/><path d="M9.55,1A8.55,8.55,0,1,0,18.1,9.55,8.549,8.549,0,0,0,9.55,1m0,2.207a6.349,6.349,0,0,1,6.241,5.24H12.554a2.2,2.2,0,0,0-1.9-1.1H8.448a2.2,2.2,0,0,0-1.9,1.1H3.309A6.348,6.348,0,0,1,9.55,3.207M3.309,10.653H6.8L8.45,12.86v2.932a6.353,6.353,0,0,1-5.138-5.138m7.344,5.138V12.86L12.3,10.653h3.486a6.353,6.353,0,0,1-5.138,5.138" transform="translate(17174.449 -15749.55)" fill="#aaa" stroke="rgba(0,0,0,0)" stroke-width="1"/></g></svg>