<svg xmlns="http://www.w3.org/2000/svg" width="18" height="18" viewBox="0 0 18 18"><g transform="translate(-570.45 -980.492)"><rect width="18" height="18" transform="translate(570.45 980.492)" fill="#aaa" opacity="0"/><path d="M53.67,1.184H44.53A2.527,2.527,0,0,0,42,3.714v9.11a2.529,2.529,0,0,0,1.01,2.03v1.52a1.007,1.007,0,0,0,1.01,1.01h1.02a1.014,1.014,0,0,0,1.01-1.01v-1.02h6.1v1.02a1.007,1.007,0,0,0,1.01,1.01h1.02a1.02,1.02,0,0,0,1.01-1.01v-1.52a2.558,2.558,0,0,0,1.01-2.03V3.714a2.527,2.527,0,0,0-2.53-2.53M44.4,13.314a.45.45,0,0,1-.9,0,.45.45,0,0,1,.9-.01Zm1.45,0a.45.45,0,1,1-.9,0,.45.45,0,0,1,.9-.01Zm2.8-9.91a.2.2,0,0,1,.2-.2h.5a.2.2,0,0,1,.2.2V11a.2.2,0,0,1-.2.2h-.5a.2.2,0,0,1-.2-.2Zm2.25,10.36H47.3a.45.45,0,1,1,0-.9h3.6a.45.45,0,0,1,0,.9m2.35-.45a.45.45,0,0,1-.9,0,.45.45,0,0,1,.9-.01Zm1.45,0a.45.45,0,0,1-.9,0,.45.45,0,0,1,.9-.01Z" transform="translate(530.35 980.208)" fill="#aaa" stroke="rgba(0,0,0,0)" stroke-width="1"/></g></svg>