<svg xmlns="http://www.w3.org/2000/svg" width="18" height="18" viewBox="0 0 18 18"><g transform="translate(-1818.886 -954.399)"><rect width="18" height="18" transform="translate(1818.886 954.399)" fill="#aaa" opacity="0"/><path d="M103.357,11.763l-.244-2.344a2.538,2.538,0,0,0-1.781-2.153l-.723-6.8a.191.191,0,0,0-.224-.171L98.736.465a.2.2,0,0,0-.183.221l.265,2.505a1.427,1.427,0,0,0-1.588-1.227l-6.342.654A1.426,1.426,0,0,0,89.6,4.2l-.275-2.555a.2.2,0,0,0-.224-.181l-1.649.171a.2.2,0,0,0-.183.221L88,8.644a2.518,2.518,0,0,0-1.283,2.475l.244,2.344A2.53,2.53,0,0,0,88.2,15.385l.163,1.519a1.025,1.025,0,0,0,1.13.905l1.028-.111a1.013,1.013,0,0,0,.916-1.117l-.112-1.016,8.2-.845.112,1.006v.01a1.013,1.013,0,0,0,1.13.9l1.018-.1h.01a1.026,1.026,0,0,0,.916-1.117l-.163-1.519a2.53,2.53,0,0,0,.8-2.133m-13.376.875a1.017,1.017,0,1,1-.214-2.022c.041,0,.071-.01.112-.01a1.037,1.037,0,0,1,1.018.916,1.013,1.013,0,0,1-.916,1.117m.081-4.1L90.388,6.2a.991.991,0,0,1,.9-.865L97.392,4.7a.994.994,0,0,1,1.079.664l.814,2.213Zm2.657,2.8a.44.44,0,0,1,.407-.493l3.644-.382a.451.451,0,1,1,.1.9l-3.655.382a.454.454,0,0,1-.5-.4m4.357,2.022-3.644.382a.455.455,0,1,1-.092-.905l3.644-.372a.45.45,0,1,1,.092.9m3.156-1.781c-.041,0-.071.01-.112.01a1.069,1.069,0,1,1,.112-.01" transform="translate(1732.85 954.346)" fill="#aaa"/></g></svg>