<svg width="10" height="7" viewBox="0 0 10 7" fill="none" xmlns="http://www.w3.org/2000/svg">
<path d="M0.756049 0.900976L9.24017 0.900979C9.37071 0.900821 9.49836 0.939693 9.60693 1.01266C9.7155 1.08564 9.8001 1.18942 9.85002 1.31087C9.89993 1.43231 9.9129 1.56594 9.88729 1.69481C9.86167 1.82368 9.79863 1.942 9.70615 2.03475L5.46458 6.30621C5.40336 6.36795 5.33065 6.41693 5.25061 6.45036C5.17056 6.48378 5.08476 6.50098 4.99811 6.50098C4.91146 6.50098 4.82565 6.48378 4.74561 6.45036C4.66557 6.41693 4.59286 6.36795 4.53164 6.30621L0.294056 2.03475C0.201812 1.94224 0.138849 1.82429 0.113108 1.69579C0.0873682 1.56729 0.100005 1.43399 0.149424 1.31271C0.198842 1.19143 0.28283 1.0876 0.390791 1.01433C0.498751 0.941053 0.625849 0.90161 0.756049 0.900976Z" fill="#CCCCCC"/>
</svg>
