<svg width="18" height="16" viewBox="0 0 18 16" fill="none" xmlns="http://www.w3.org/2000/svg">
<path d="M3.93544 0.921889H1.91044C1.64627 0.920514 1.39214 1.023 1.20283 1.20726C1.01353 1.39151 0.904205 1.64278 0.898438 1.90689L0.898438 8.96589C0.899066 9.0973 0.925879 9.22728 0.97731 9.34821C1.02874 9.46914 1.10376 9.57862 1.19798 9.67023C1.29219 9.76184 1.40373 9.83376 1.52606 9.88177C1.64839 9.92979 1.77906 9.95295 1.91044 9.94989H3.93544C4.19944 9.95127 4.45342 9.84892 4.6427 9.66488C4.83198 9.48084 4.94141 9.22982 4.94744 8.96589V1.93489C4.94757 1.80191 4.92149 1.6702 4.87069 1.5473C4.81989 1.42441 4.74537 1.31273 4.65138 1.21865C4.5574 1.12457 4.44579 1.04994 4.32294 0.999018C4.2001 0.948098 4.06842 0.921889 3.93544 0.921889ZM15.6834 7.50789C15.8671 7.30925 15.994 7.06495 16.051 6.8005C16.108 6.53604 16.093 6.26113 16.0075 6.00447C15.922 5.74781 15.7691 5.51882 15.5649 5.34141C15.3606 5.164 15.1125 5.04467 14.8464 4.99589C14.9673 4.7993 15.042 4.57787 15.065 4.34825C15.088 4.11863 15.0586 3.88679 14.9791 3.67015C14.8996 3.45351 14.7721 3.2577 14.606 3.09745C14.44 2.93719 14.2398 2.81665 14.0204 2.74489C14.0477 2.64485 14.0611 2.54156 14.0604 2.43789C14.0599 2.03564 13.8997 1.65004 13.6151 1.36579C13.3305 1.08155 12.9447 0.921888 12.5424 0.921889H10.6854C9.59029 0.921817 8.52465 1.27691 7.64844 1.93389L6.56844 2.74389C6.38299 2.88193 6.23179 3.06079 6.12654 3.26662C6.02128 3.47245 5.96479 3.69973 5.96144 3.93089V8.99389C5.96161 9.22076 6.01264 9.4447 6.11076 9.64925C6.20888 9.85381 6.35161 10.0338 6.52844 10.1759L7.04444 10.5879C9.63544 12.6879 8.47044 15.0969 10.4674 15.0969C10.6707 15.1017 10.8728 15.0659 11.062 14.9916C11.2512 14.9174 11.4237 14.8062 11.5695 14.6644C11.7152 14.5227 11.8312 14.3534 11.9107 14.1663C11.9902 13.9792 12.0316 13.7782 12.0324 13.5749C11.8864 12.4966 11.5143 11.4614 10.9404 10.5369H15.5774C15.9714 10.5381 16.3504 10.3859 16.634 10.1124C16.9175 9.83889 17.0834 9.46568 17.0964 9.07192C17.1094 8.67816 16.9686 8.29482 16.7036 8.0032C16.4387 7.71159 16.0706 7.53464 15.6774 7.50989L15.6834 7.50789Z" fill="#919191" fill-opacity="0.4"/>
</svg>
