<svg width="18" height="16" viewBox="0 0 18 16" fill="none" xmlns="http://www.w3.org/2000/svg">
<path d="M13.0484 14.0329V6.94589C13.0491 6.81447 13.0759 6.6845 13.1273 6.56357C13.1787 6.44263 13.2538 6.33316 13.348 6.24155C13.4422 6.14994 13.5537 6.07802 13.6761 6.03C13.7984 5.98198 13.9291 5.95883 14.0604 5.96188H16.0854C16.3494 5.96051 16.6034 6.06285 16.7927 6.2469C16.982 6.43094 17.0914 6.68195 17.0974 6.94589V14.0049C17.0968 14.1363 17.07 14.2663 17.0186 14.3872C16.9671 14.5081 16.8921 14.6176 16.7979 14.7092C16.7037 14.8008 16.5921 14.8728 16.4698 14.9208C16.3475 14.9688 16.2168 14.9919 16.0854 14.9889H14.0604C13.929 15.0026 13.7961 14.9877 13.6709 14.9453C13.5457 14.9029 13.4311 14.8339 13.335 14.7431C13.2389 14.6524 13.1636 14.5419 13.1141 14.4193C13.0647 14.2967 13.0423 14.1649 13.0484 14.0329ZM0.898438 6.97688C0.898438 6.77745 0.937735 6.57998 1.01408 6.39574C1.09043 6.2115 1.20234 6.04412 1.3434 5.90314C1.48447 5.76217 1.65193 5.65038 1.83622 5.57415C2.02051 5.49792 2.21801 5.45876 2.41744 5.45889H7.05244C6.47851 4.53444 6.10639 3.49916 5.96044 2.42088C5.96144 2.21748 6.00299 2.01633 6.08266 1.82918C6.16233 1.64202 6.27851 1.47264 6.42442 1.33092C6.57033 1.1892 6.74303 1.078 6.93242 1.00382C7.12181 0.929638 7.3241 0.893964 7.52744 0.898885C9.52744 0.898885 8.36144 3.30788 10.9514 5.37888L11.4674 5.78988C11.6438 5.93255 11.7862 6.11278 11.8841 6.31744C11.982 6.52209 12.033 6.74602 12.0334 6.97289V12.0359C12.0336 12.2716 11.9788 12.5042 11.8734 12.7151C11.768 12.926 11.615 13.1094 11.4264 13.2509L10.3464 14.0609C9.47111 14.7189 8.40553 15.0745 7.31044 15.0739H5.45444C5.22632 15.0753 5.00083 15.025 4.79495 14.9268C4.58907 14.8285 4.40815 14.6848 4.26579 14.5066C4.12344 14.3283 4.02335 14.1201 3.97306 13.8976C3.92277 13.6751 3.92358 13.444 3.97544 13.2219C3.757 13.1535 3.5571 13.036 3.39107 12.8785C3.22503 12.7209 3.09726 12.5274 3.01753 12.3129C2.93781 12.0983 2.90824 11.8683 2.93111 11.6406C2.95397 11.4128 3.02865 11.1933 3.14944 10.9989C2.88343 10.9503 2.63536 10.8312 2.43117 10.6539C2.22698 10.4767 2.07417 10.2478 1.98873 9.99126C1.90328 9.73472 1.88834 9.45993 1.94546 9.19563C2.00258 8.93134 2.12967 8.68724 2.31344 8.48889C1.92965 8.46374 1.56981 8.29346 1.30701 8.01264C1.0442 7.73182 0.898123 7.3615 0.898438 6.97688Z" fill="#919191" fill-opacity="0.4"/>
</svg>
