<svg width="14" height="14" viewBox="0 0 14 14" fill="none" xmlns="http://www.w3.org/2000/svg">
<path d="M11.4202 1.11971L12.8817 2.58348C13.0989 2.80361 13.2201 3.10075 13.2189 3.40998C13.2178 3.71922 13.0943 4.01544 12.8755 4.23393L12.8817 4.23393L11.8216 5.29404C11.7666 5.349 11.692 5.37985 11.6143 5.37985C11.5366 5.37985 11.462 5.349 11.407 5.29404L8.70736 2.59437C8.65241 2.53939 8.62153 2.46482 8.62153 2.38708C8.62153 2.30935 8.65241 2.23481 8.70736 2.17982L9.76745 1.11971C9.98707 0.901369 10.2842 0.778812 10.5938 0.778812C10.9035 0.778812 11.2006 0.90137 11.4202 1.11971Z" fill="#DADADA"/>
<path d="M8.0466 3.25203L10.7462 5.9517C10.8002 6.0069 10.8302 6.08113 10.8297 6.1583C10.8293 6.23547 10.7985 6.30935 10.7439 6.36393L4.20356 12.905L1.42456 13.2161C1.34852 13.2247 1.27155 13.2182 1.19803 13.197C1.1245 13.1758 1.05589 13.1402 0.996085 13.0925C0.93628 13.0448 0.886466 12.9857 0.849492 12.9187C0.812517 12.8517 0.789075 12.7781 0.780563 12.702C0.775289 12.6589 0.775289 12.6153 0.780563 12.5721L1.09169 9.79314L7.63279 3.25203C7.68774 3.19732 7.76212 3.1666 7.83967 3.1666C7.91722 3.1666 7.99165 3.19732 8.0466 3.25203Z" fill="#DADADA"/>
</svg>
