<svg width="16" height="16" viewBox="0 0 16 16" fill="none" xmlns="http://www.w3.org/2000/svg">
<path d="M5.67149 15.198L7.47039 13.3985H14.9172C14.9901 13.3982 15.0595 13.4255 15.1122 13.4758C15.1649 13.5261 15.197 13.5963 15.2 13.6691V14.9186C15.1996 14.9933 15.1686 15.0645 15.1157 15.1172C15.0628 15.1699 14.9919 15.1996 14.9172 15.1998L5.67149 15.198ZM0.805317 14.5953C0.798293 14.5457 0.798293 14.4954 0.805317 14.4459L1.16545 11.2299L8.72822 3.66434C8.75921 3.63264 8.79628 3.60772 8.83714 3.59053C8.87799 3.57334 8.92106 3.56417 8.96538 3.56417C9.0097 3.56417 9.05452 3.57334 9.09538 3.59053C9.13623 3.60772 9.1733 3.63264 9.20429 3.66434L12.326 6.78721C12.3573 6.81825 12.3811 6.85547 12.398 6.89617C12.415 6.93686 12.4244 6.98037 12.4244 7.02446C12.4244 7.06854 12.415 7.11205 12.398 7.15275C12.3811 7.19344 12.3573 7.23067 12.326 7.2617L4.7615 14.8272L1.54666 15.1928C1.52418 15.1928 1.49888 15.1928 1.47639 15.1928C1.31082 15.1924 1.1508 15.1319 1.02667 15.0223C0.902534 14.9127 0.822773 14.7613 0.801804 14.597L0.805317 14.5953ZM13.0972 6.02451L9.9755 2.90164C9.94377 2.87011 9.91891 2.83223 9.90172 2.79092C9.88453 2.74961 9.87537 2.70562 9.87537 2.66087C9.87537 2.61613 9.88453 2.57214 9.90172 2.53083C9.91891 2.48952 9.94377 2.45164 9.9755 2.42011L11.2017 1.19346C11.4558 0.941091 11.7993 0.799805 12.1574 0.799805C12.5154 0.799805 12.859 0.941091 13.113 1.19346L14.803 2.88582C15.0546 3.14071 15.194 3.48541 15.193 3.84359C15.192 4.20178 15.0507 4.54439 14.7978 4.79785H14.803L13.5768 6.02451C13.5129 6.08742 13.4258 6.12292 13.3361 6.12292C13.2465 6.12292 13.1612 6.08742 13.0972 6.02451Z" fill="#919191" fill-opacity="0.4"/>
</svg>
