<svg width="18" height="16" viewBox="0 0 18 16" fill="none" xmlns="http://www.w3.org/2000/svg">
<path d="M6.68383 11.6237H5.50306V1.39585C5.50306 1.23777 5.43723 1.08617 5.31999 0.974392C5.20276 0.862612 5.04373 0.799805 4.87793 0.799805H3.17549C3.0097 0.799805 2.85067 0.862612 2.73343 0.974392C2.6162 1.08617 2.55036 1.23777 2.55036 1.39585V11.6237H1.3696C1.27791 11.6235 1.18817 11.649 1.1115 11.6969C1.03483 11.7448 0.974601 11.8132 0.93826 11.8935C0.901919 11.9737 0.891101 12.0624 0.907087 12.1485C0.923074 12.2345 0.965167 12.3143 1.0282 12.3777L3.68258 15.0604C3.76814 15.1463 3.88591 15.1964 4.01012 15.1996C4.13433 15.2029 4.25486 15.1591 4.34526 15.0778L4.36447 15.0604L7.0188 12.3777C7.08136 12.3142 7.12313 12.2346 7.13891 12.1487C7.15469 12.0628 7.14384 11.9744 7.10768 11.8944C7.07152 11.8143 7.0116 11.746 6.93534 11.698C6.85907 11.6499 6.76973 11.6241 6.6783 11.6237H6.68383ZM14.4428 6.80388H8.88878C8.7479 6.80412 8.61284 6.85764 8.51331 6.95271C8.41377 7.04777 8.35789 7.17659 8.35789 7.31091V8.68975C8.35789 8.82408 8.41377 8.95291 8.51331 9.04797C8.61284 9.14303 8.7479 9.19656 8.88878 9.19679H14.4428C14.5838 9.19679 14.7191 9.14336 14.8188 9.04828C14.9185 8.95319 14.9746 8.82423 14.9746 8.68975V7.31091C14.9741 7.17689 14.918 7.04851 14.8185 6.95382C14.719 6.85914 14.5842 6.80586 14.4437 6.80563L14.4428 6.80388ZM16.569 2.66561H8.88878C8.7479 2.66584 8.61284 2.71937 8.51331 2.81443C8.41377 2.90949 8.35789 3.03832 8.35789 3.17264V4.55149C8.35789 4.68581 8.41377 4.81464 8.51331 4.90971C8.61284 5.00477 8.7479 5.05828 8.88878 5.05851H16.569C16.7099 5.05828 16.8449 5.00477 16.9444 4.90971C17.044 4.81464 17.0999 4.68581 17.0999 4.55149V3.17264C17.0994 3.03878 17.0434 2.91053 16.9442 2.81587C16.8449 2.72121 16.7103 2.66781 16.5699 2.66735L16.569 2.66561ZM12.3166 10.9421H8.88878C8.7479 10.9424 8.61284 10.9959 8.51331 11.091C8.41377 11.186 8.35789 11.3149 8.35789 11.4492V12.828C8.35789 12.9624 8.41377 13.0912 8.51331 13.1863C8.61284 13.2813 8.7479 13.3348 8.88878 13.3351H12.3193C12.3891 13.3351 12.4583 13.3219 12.5228 13.2965C12.5873 13.271 12.6459 13.2336 12.6953 13.1866C12.7447 13.1395 12.7839 13.0836 12.8106 13.0221C12.8374 12.9606 12.8511 12.8946 12.8511 12.828V11.4492C12.8503 11.3152 12.794 11.1869 12.6944 11.0924C12.5947 10.9978 12.4599 10.9448 12.3193 10.9448L12.3166 10.9421Z" fill="#6692F1"/>
</svg>
