<svg width="12" height="14" viewBox="0 0 12 14" fill="none" xmlns="http://www.w3.org/2000/svg">
<path d="M0.471069 1.94551L0.471069 2.72329C0.471062 2.77489 0.481323 2.82597 0.501255 2.87356C0.521186 2.92116 0.550389 2.96431 0.587163 3.0005C0.623936 3.03669 0.667544 3.06521 0.715447 3.08438C0.763349 3.10356 0.814589 3.113 0.86618 3.11218L11.1344 3.11218C11.186 3.11301 11.2372 3.10356 11.2851 3.08439C11.333 3.06521 11.3766 3.0367 11.4134 3.0005C11.4502 2.96431 11.4794 2.92116 11.4993 2.87357C11.5193 2.82597 11.5295 2.77489 11.5295 2.72329L11.5295 1.94552C11.5295 1.89392 11.5193 1.84284 11.4993 1.79524C11.4794 1.74765 11.4502 1.7045 11.4134 1.66831C11.3766 1.63211 11.333 1.6036 11.2851 1.58442C11.2372 1.56525 11.186 1.5558 11.1344 1.55663L8.17107 1.55663L7.94318 1.1024C7.89324 1.0046 7.81714 0.922577 7.72336 0.865453C7.62957 0.80833 7.52177 0.778349 7.41196 0.778848L4.59329 0.778847C4.48353 0.777612 4.37562 0.80721 4.28185 0.864272C4.18807 0.921334 4.11219 1.00357 4.06285 1.10162L3.82951 1.55662L0.86618 1.55662C0.814589 1.5558 0.76335 1.56525 0.715447 1.58442C0.667545 1.60359 0.623936 1.63211 0.587163 1.6683C0.55039 1.7045 0.521187 1.74765 0.501255 1.79524C0.481324 1.84283 0.471062 1.89391 0.471069 1.94551Z" fill="#919191"/>
<path d="M1.24763 3.64033L1.77263 12.1866L1.7734 12.1866C1.80335 12.4772 1.94226 12.7457 2.16217 12.9381C2.38209 13.1304 2.6667 13.2323 2.95874 13.2233L9.04252 13.2233C9.33468 13.2325 9.61949 13.1307 9.83957 12.9383C10.0597 12.746 10.1987 12.4773 10.2286 12.1866L10.7536 3.64034L1.24763 3.64033Z" fill="#919191"/>
</svg>
