<svg width="20" height="20" viewBox="0 0 20 20" fill="none" xmlns="http://www.w3.org/2000/svg">
<path d="M10.1394 18.2833L9.91433 18.1201C9.94988 18.1063 9.9823 18.0855 10.0097 18.0589C10.0371 18.0323 10.0588 18.0005 10.0737 17.9654C10.0886 17.9303 10.0963 17.8925 10.0964 17.8543C10.0964 17.8162 10.0889 17.7784 10.0741 17.7432C10.0415 17.6026 10.0741 17.4428 10.0313 17.3078C9.95376 17.1093 9.86395 16.9158 9.76243 16.7283L9.55766 16.7677C9.54191 16.7317 9.52616 16.6923 9.50703 16.6552C9.47215 16.5843 9.48453 16.4932 9.34726 16.4898C9.282 16.4898 9.22237 16.348 9.15598 16.2738C9.05135 16.1613 8.89945 16.0589 8.8477 15.9227C8.77231 15.727 8.51015 15.6741 8.51015 15.4311C8.50184 15.3887 8.48153 15.3497 8.45165 15.3185C8.33913 15.1689 8.22662 15.0204 8.12085 14.8876L7.91495 15.0001C7.88345 14.9045 7.85645 14.8066 7.81932 14.7121C7.79998 14.6707 7.77415 14.6328 7.74281 14.5996C7.66405 14.5051 7.58416 14.4128 7.4919 14.3059C7.41949 14.3425 7.33678 14.3533 7.25742 14.3365C7.17805 14.3197 7.10678 14.2764 7.05535 14.2137L7.15999 14.0393L6.93496 13.8491L6.70993 13.9864L6.56141 13.6207H6.58616L6.49165 13.2359L6.28913 13.1965L6.32401 13.1673L5.98646 12.6733C5.80307 12.8399 5.73781 12.8196 5.62642 12.6542C5.57165 12.5749 5.49505 12.5131 5.40589 12.4764C5.32012 12.4562 5.24455 12.4057 5.19307 12.3341C5.14159 12.2626 5.11768 12.1749 5.12573 12.0871H5.26637C5.26637 12.0646 5.26637 12.05 5.26075 12.0455C5.16476 11.9568 5.09161 11.8463 5.04754 11.7233C5.00346 11.6002 4.98976 11.4684 5.00759 11.3389C5.01509 7.96575 5.01509 4.59445 5.00759 1.22503V1H14.4768V18.9899C14.4104 18.9899 14.3575 19 14.3035 19C13.1255 19 11.9475 19 10.7694 19C10.6659 19 10.5905 18.9887 10.55 18.8751C10.5343 18.8312 10.4758 18.7986 10.4308 18.7693C10.3446 18.7201 10.2726 18.6495 10.2216 18.5644C10.1706 18.4793 10.1422 18.3825 10.1394 18.2833Z" fill="black"/>
</svg>
