<svg width="20" height="20" viewBox="0 0 20 20" fill="none" xmlns="http://www.w3.org/2000/svg">
<path fill-rule="evenodd" clip-rule="evenodd" d="M9.64581 16.2283C9.64959 16.2176 9.65253 16.2053 9.65547 16.193C9.66213 16.165 9.66877 16.1371 9.68516 16.1293C9.7014 16.1216 9.7288 16.1309 9.75786 16.1407C9.77106 16.1452 9.78461 16.1498 9.79761 16.1529C9.8009 16.135 9.78857 16.1144 9.77521 16.0921C9.74758 16.0461 9.7156 15.9927 9.80885 15.9404L9.77512 15.9134L9.76002 15.9241L9.74951 15.9317C9.73252 15.9439 9.71552 15.9562 9.69753 15.9674L9.58509 16.0337L9.512 15.9078L9.44003 15.9764C9.45921 15.9085 9.48759 15.8432 9.51605 15.7777C9.58606 15.6166 9.65659 15.4543 9.59183 15.2489C9.56814 15.3016 9.55333 15.3578 9.54798 15.4153C9.55919 15.4764 9.55475 15.5394 9.5351 15.5984C9.51544 15.6574 9.48119 15.7104 9.43554 15.7526C9.41209 15.7833 9.39351 15.8175 9.38044 15.8538C9.33124 15.8527 9.28412 15.8338 9.2479 15.8004C9.21168 15.7671 9.18885 15.7217 9.18366 15.6728L9.08021 15.8212C9.01586 15.7678 9.03217 15.7125 9.0484 15.6576C9.06053 15.6165 9.07262 15.5755 9.05098 15.5356C9.03746 15.5813 9.02093 15.626 9.0015 15.6694C8.98386 15.704 8.96237 15.7361 8.94081 15.7684C8.9294 15.7855 8.91794 15.8026 8.90705 15.8201L8.8036 15.7369L8.76537 15.7099C8.71895 15.741 8.66316 15.755 8.60756 15.7495C8.55196 15.7439 8.50002 15.7192 8.46065 15.6795L8.54948 15.5491C8.51387 15.5649 8.48179 15.5865 8.45099 15.6074C8.3719 15.6608 8.30126 15.7085 8.2009 15.6357C8.23131 15.6203 8.2609 15.606 8.2898 15.5921C8.33675 15.5694 8.38196 15.5476 8.42579 15.5232L8.42971 15.521L8.43733 15.517L8.45326 15.5091C8.49682 15.488 8.54209 15.466 8.52362 15.3939C8.52362 15.388 8.53965 15.3773 8.56054 15.3632C8.57142 15.3559 8.58364 15.3477 8.59558 15.3388C8.55824 15.3221 8.53466 15.2905 8.51228 15.2604C8.47683 15.2128 8.44437 15.1693 8.36501 15.1953C8.37283 15.1991 8.38158 15.2025 8.39037 15.206C8.41312 15.215 8.43614 15.2242 8.44395 15.2398C8.46531 15.287 8.49566 15.3668 8.47542 15.3871C8.42833 15.4285 8.36832 15.4524 8.30562 15.4545C8.27708 15.4545 8.24687 15.4339 8.21695 15.4134C8.20443 15.4048 8.19196 15.3963 8.17969 15.3893L8.21121 15.3542C8.23219 15.3307 8.25318 15.3072 8.27416 15.2847L8.35859 15.1971L8.20765 15.1893C8.22452 15.1162 8.22452 15.1162 8.38194 15.105L8.23801 14.9532C8.23801 14.9532 8.22564 14.9532 8.22339 14.9644C8.19838 15.0495 8.18573 15.0925 8.1614 15.1006C8.13651 15.109 8.09941 15.0808 8.02437 15.024C8.0075 15.0116 7.96702 15.0026 7.9569 15.0128C7.88943 15.0813 7.82309 15.0634 7.75 15.0206L7.8557 15.1499C7.75913 15.1625 7.66146 15.1369 7.58352 15.0785C7.50558 15.0201 7.45356 14.9336 7.43853 14.8373C7.49947 14.8149 7.5304 14.8455 7.56243 14.8772C7.58655 14.901 7.61129 14.9255 7.64993 14.9284L7.49813 14.7339C7.5431 14.7272 7.58806 14.7431 7.63194 14.7585C7.70657 14.7848 7.77806 14.81 7.84108 14.7215L7.53524 14.6867V14.6484L7.31035 14.789L7.22377 14.5517C7.24469 14.5305 7.26963 14.5136 7.29714 14.5021C7.32465 14.4906 7.35418 14.4846 7.384 14.4846C7.41382 14.4846 7.44335 14.4906 7.47085 14.5021C7.49836 14.5136 7.52331 14.5305 7.54423 14.5517L7.57909 14.491C7.53443 14.3741 7.45411 14.3865 7.37373 14.3988C7.31648 14.4076 7.25921 14.4165 7.21477 14.3786C7.27922 14.2336 7.37598 14.2611 7.46455 14.2863C7.4996 14.2963 7.53337 14.3059 7.56335 14.3044C7.55179 14.2879 7.53761 14.2714 7.52322 14.2547C7.49143 14.2178 7.45864 14.1797 7.4509 14.1379C7.43629 14.0446 7.5105 13.985 7.60832 13.985H7.7084C7.74294 13.9883 7.77763 13.9804 7.80735 13.9625L7.52287 13.9209L7.62294 13.7545L7.59933 13.7388C7.58253 13.762 7.56209 13.7818 7.54163 13.8017C7.49773 13.8443 7.45372 13.887 7.44528 13.9637C7.44528 14.0007 7.40379 14.0378 7.37002 14.068L7.36095 14.0761C7.34928 14.087 7.32847 14.0882 7.30782 14.0894C7.29862 14.0899 7.28942 14.0905 7.28111 14.0918C7.27632 14.0685 7.27369 14.0448 7.27324 14.021C7.27324 14.0112 7.27417 14.0013 7.27507 13.9917C7.27892 13.9504 7.28229 13.9144 7.21027 13.9153C7.19341 13.9153 7.16305 13.8748 7.16305 13.8523C7.16305 13.7399 7.16305 13.6342 7.26874 13.5678C7.31075 13.5504 7.34804 13.5233 7.37755 13.4887C7.40707 13.4541 7.42796 13.413 7.43853 13.3688C7.44239 13.3472 7.46369 13.3288 7.48467 13.3107C7.49429 13.3024 7.50385 13.2941 7.51162 13.2856L7.57234 13.3688L7.59933 13.2305C7.63823 13.1758 7.69141 13.1328 7.75308 13.1062C7.81475 13.0796 7.88253 13.0705 7.94903 13.0798C7.97039 13.0798 7.99963 13.0596 8.01987 13.0382C7.83209 13.0169 7.83209 13.0169 7.8006 12.7875C7.78701 12.795 7.7729 12.8048 7.75875 12.8147C7.72607 12.8375 7.69313 12.8604 7.66567 12.855C7.63881 12.8496 7.61352 12.8185 7.58479 12.7833C7.57144 12.7669 7.55732 12.7496 7.54198 12.7335C7.5475 12.7585 7.55505 12.7823 7.56217 12.8047C7.57684 12.8509 7.58969 12.8914 7.57909 12.9247C7.56335 12.9741 7.5015 13.0157 7.4509 13.0484C7.43998 13.0556 7.41869 13.0478 7.39039 13.0375C7.37498 13.0318 7.35748 13.0254 7.33846 13.0202L7.26312 13.1046C7.24224 13.0492 7.23502 12.9897 7.24206 12.931C7.24911 12.8722 7.27022 12.8161 7.3036 12.7672C7.22602 12.774 7.22039 12.7807 7.18104 12.964H7.09221C7.10191 12.9907 7.10649 13.0189 7.1057 13.0472C7.1057 13.0617 7.09017 13.0731 7.07456 13.0846C7.06717 13.09 7.05976 13.0954 7.05398 13.1012L7.01462 13.0832C7.02202 13.0552 7.02915 13.027 7.03629 12.9988C7.04976 12.9455 7.06328 12.8921 7.07871 12.8392C7.10564 12.7634 7.12265 12.6844 7.12931 12.6042L6.93141 13.0191C6.87632 12.9269 6.86957 12.8786 6.94491 12.828C6.97646 12.7944 6.99448 12.7503 6.99551 12.7043C7.01237 12.5693 7.06185 12.3883 7.14281 12.3669L7.18441 12.1319C7.17484 12.1293 7.16474 12.1293 7.15518 12.1319C7.06434 12.1505 6.97629 12.1808 6.89318 12.2219C6.83491 12.2626 6.79462 12.3242 6.78074 12.3939C6.77081 12.456 6.77184 12.518 6.77287 12.58C6.7737 12.6305 6.77453 12.6809 6.76949 12.7313C6.76949 12.7616 6.72901 12.7897 6.68741 12.8111L6.66717 12.9472L6.64018 12.955C6.62238 12.9321 6.60658 12.9076 6.59296 12.8819C6.51987 12.711 6.53673 12.6413 6.63906 12.557L6.69978 12.1319L6.67954 12.1207L6.52886 12.4142C6.47503 12.3282 6.4284 12.238 6.38943 12.1443C6.3826 12.1238 6.40549 12.0936 6.43077 12.0602C6.44294 12.0441 6.45566 12.0273 6.4659 12.0105C6.46261 12.0081 6.45894 12.0049 6.45493 12.0015C6.44382 11.9919 6.43017 11.9801 6.4153 11.9768C6.30285 11.9532 6.28149 11.9014 6.34783 11.8115C6.37661 11.7834 6.3988 11.7492 6.4128 11.7115C6.4268 11.6738 6.43226 11.6334 6.42879 11.5933C6.42879 11.5742 6.46365 11.5304 6.48051 11.5304C6.52394 11.5315 6.56612 11.5451 6.60195 11.5697C6.64524 11.6074 6.68308 11.6509 6.7144 11.699C6.7445 11.7383 6.76839 11.7819 6.78524 11.8283C6.8055 11.9089 6.83066 11.9881 6.86057 12.0656C6.86057 12.0342 6.86395 12.0015 6.86735 11.9686C6.87795 11.866 6.88871 11.7618 6.7976 11.6912C6.65963 11.554 6.5792 11.3694 6.57272 11.175C6.66234 11.1542 6.70944 11.2104 6.75715 11.2673C6.80221 11.3211 6.84781 11.3755 6.93029 11.3662C6.92171 11.3546 6.91494 11.3437 6.90884 11.3339C6.89894 11.3179 6.89082 11.3048 6.87969 11.2965C6.82186 11.2564 6.77644 11.2009 6.7486 11.1363C6.72077 11.0717 6.71165 11.0006 6.72227 10.931C6.73242 10.8869 6.75694 10.8473 6.79198 10.8186C6.7993 10.8118 6.807 10.8052 6.81457 10.7988C6.85934 10.7607 6.89979 10.7263 6.83246 10.6589C6.82684 10.6533 6.82825 10.6415 6.83009 10.6261C6.8312 10.6168 6.83246 10.6062 6.83246 10.5948L6.34558 10.9895L6.28486 11.292C6.18412 11.2314 6.10714 11.1381 6.06672 11.0277C6.04662 10.9918 6.02229 10.9578 5.99772 10.9235C5.97004 10.8848 5.94205 10.8457 5.91942 10.8029C5.8481 10.693 5.78962 10.5752 5.74513 10.452C5.7323 10.4098 5.75291 10.3579 5.77397 10.3048C5.78428 10.2789 5.7947 10.2526 5.80135 10.2271H5.84633L5.86762 10.2684C5.88559 10.3031 5.90364 10.3379 5.92054 10.3733C5.92435 10.3813 5.92768 10.3898 5.931 10.3983C5.94827 10.4424 5.96499 10.4851 6.04423 10.4408C6.03512 10.4325 6.02602 10.4255 6.01765 10.4192C6.00225 10.4075 5.98934 10.3977 5.98351 10.3846C5.95913 10.343 5.94668 10.2955 5.94753 10.2474C5.95165 10.2292 5.98961 10.2178 6.02465 10.2072C6.0374 10.2033 6.04977 10.1996 6.05997 10.1957C6.11155 10.1779 6.16371 10.1619 6.21561 10.146L6.27699 10.1271L6.26575 10.09C6.2197 10.0932 6.17377 10.0971 6.12788 10.101C6.0292 10.1093 5.93072 10.1177 5.83171 10.1192C5.81935 10.1192 5.80549 10.1205 5.79122 10.1219C5.72372 10.1284 5.64723 10.1358 5.67879 10.0068C5.67879 9.99763 5.66081 9.98338 5.64117 9.9678C5.63175 9.96033 5.62195 9.95256 5.61357 9.94491L5.69453 9.86845L5.55173 9.84258L5.58658 9.53111C5.66521 9.56769 5.68816 9.64484 5.7113 9.72264C5.73582 9.80506 5.76056 9.88822 5.85195 9.92467L5.87219 9.69303C5.74625 9.68629 5.68666 9.63344 5.66305 9.47602C5.66305 9.45361 5.67207 9.42855 5.681 9.40375C5.68507 9.39246 5.68912 9.38122 5.69228 9.37032C5.73135 9.37781 5.76919 9.39068 5.80473 9.40855C5.82846 9.43212 5.8462 9.46104 5.85645 9.49288C5.86554 9.51107 5.87314 9.53039 5.88075 9.54974C5.88631 9.56389 5.89188 9.57806 5.89805 9.59183L5.97339 9.54573C5.91837 9.46968 5.88328 9.38106 5.87129 9.28797C5.85931 9.19487 5.87083 9.10025 5.9048 9.01275C5.95314 9.05023 6.01055 9.07425 6.07119 9.08235C6.13182 9.09044 6.19352 9.08234 6.25 9.05885C6.22281 9.04215 6.19422 9.02786 6.16455 9.01612C5.98801 8.97114 5.96664 8.90368 6.08134 8.76312C6.15709 8.66843 6.23087 8.57242 6.30721 8.47307L6.37819 8.38081C6.27699 8.38081 6.18816 8.3527 6.21065 8.21102L6.17242 8.22002C6.15538 8.27165 6.14554 8.32538 6.14318 8.37969C6.14593 8.4812 6.12595 8.58205 6.0847 8.67485C6.04346 8.76765 5.98199 8.85006 5.9048 8.91605C5.89677 8.92279 5.88764 8.92811 5.87781 8.93179C5.87781 8.93179 5.87107 8.93179 5.84858 8.92279C5.8585 8.8967 5.87132 8.87181 5.88681 8.84858C5.91801 8.81185 5.94098 8.76886 5.95417 8.7225C5.96736 8.67614 5.97046 8.6275 5.96327 8.57984C5.93787 8.30711 5.96809 8.03207 6.0521 7.77137C6.07572 7.69153 6.07684 7.54648 6.03186 7.51612C5.91927 7.44631 5.84416 7.34437 5.76971 7.24332C5.69546 7.14254 5.62186 7.04264 5.51237 6.97639L5.45623 6.94248C5.31091 6.85459 5.16567 6.76675 5.01425 6.69303C4.96297 6.67747 4.91894 6.64411 4.89008 6.59897C4.86122 6.55382 4.84942 6.49985 4.85682 6.44678C4.85783 6.4431 4.85783 6.43922 4.85682 6.43554C4.84429 6.40674 4.8286 6.37795 4.81293 6.34922C4.7766 6.28258 4.74045 6.21627 4.74438 6.15105C4.75258 6.09917 4.74533 6.04603 4.72353 5.99824C4.70174 5.95045 4.66636 5.91014 4.62182 5.88231C4.60495 5.87107 4.59933 5.83508 4.59708 5.81035C4.59896 5.73879 4.59368 5.66722 4.58134 5.5967C4.46822 5.24063 4.35229 4.88569 4.23633 4.53068C4.1886 4.38456 4.14087 4.23843 4.09333 4.09221L4.0896 4.08132C4.08093 4.05636 4.07089 4.02744 4.07871 4.00787C4.09685 3.95501 4.10004 3.89817 4.08794 3.84361C4.07584 3.78905 4.04891 3.73889 4.01012 3.69865C3.87555 3.48553 3.76254 3.25952 3.67279 3.02399C3.57416 2.81417 3.45394 2.6152 3.31409 2.43029C3.28217 2.39816 3.26068 2.35714 3.25246 2.3126C3.24423 2.26806 3.24964 2.22207 3.26799 2.18066C3.27673 2.16082 3.28124 2.13937 3.28124 2.11769C3.28124 2.09601 3.27673 2.07457 3.26799 2.05472C3.19614 1.93187 3.1173 1.81323 3.03186 1.6994C3.01724 1.67466 2.96664 1.67466 2.93403 1.68478C2.88561 1.69205 2.83844 1.7014 2.79162 1.71067C2.72972 1.72294 2.66844 1.73509 2.6057 1.74213C2.52474 1.75112 2.46177 1.76124 2.46177 1.86807C2.45973 1.88674 2.45339 1.90468 2.44324 1.92048C2.4331 1.93628 2.41942 1.94952 2.4033 1.95915C2.35821 1.98107 2.31922 2.01379 2.2898 2.05439C2.26038 2.09499 2.24143 2.14223 2.23463 2.1919C2.22842 2.23552 2.2067 2.27544 2.17345 2.30435C2.1402 2.33326 2.09766 2.34923 2.0536 2.34933C1.90212 2.35361 1.75425 2.39658 1.62406 2.47414C1.52849 2.53036 1.46552 2.49438 1.47901 2.38643C1.50608 2.12931 1.44758 1.87043 1.31259 1.64993C1.24382 1.52991 1.18556 1.40101 1.12569 1.26854C1.08572 1.18008 1.04502 1.09004 1 1C1.09103 1.02231 1.18022 1.04462 1.26823 1.06663C1.45523 1.1134 1.637 1.15887 1.81972 1.20015C2.82175 1.43273 3.83508 1.61363 4.8557 1.74213C5.98014 1.88044 7.10458 2.00975 8.22901 2.10982C9.06054 2.18385 9.89573 2.22404 10.7305 2.2642L11.003 2.27736C11.5237 2.30292 12.0456 2.3177 12.571 2.33258L12.572 2.33261C12.7858 2.33866 13.0008 2.34475 13.2159 2.35157C13.2223 2.37706 13.2269 2.403 13.2294 2.42916C13.2424 2.77138 13.2551 3.1136 13.2678 3.45582C13.2868 3.9693 13.3059 4.48278 13.3261 4.99625C13.3467 5.51282 13.3678 6.02938 13.389 6.54608L13.3891 6.54844C13.4106 7.07471 13.4322 7.60112 13.4532 8.12782C13.4921 9.10233 13.5296 10.0768 13.5656 11.0514C13.5794 11.1766 13.6372 11.293 13.7286 11.3797C13.7387 11.3916 13.7497 11.4028 13.7613 11.4145C13.7704 11.4238 13.7799 11.4333 13.7894 11.4438L13.6286 11.5112L13.6476 11.5297C13.6797 11.5607 13.7119 11.5918 13.741 11.6237C13.7535 11.6374 13.7624 11.654 13.7669 11.672C13.7905 11.7676 13.8355 11.8014 13.9355 11.7564C13.9614 11.7451 14.0154 11.7721 14.048 11.7957C14.0753 11.8214 14.0921 11.8562 14.0952 11.8936C14.1003 11.983 14.1603 12.0127 14.2201 12.0423C14.2528 12.0585 14.2854 12.0746 14.3089 12.1005L14.4089 12.006L14.5214 12.0926C14.5256 12.096 14.5309 12.0987 14.5361 12.1014C14.5449 12.1059 14.5534 12.1103 14.5562 12.1173C14.5978 12.2105 14.6395 12.3041 14.6743 12.3996C14.6957 12.4569 14.7249 12.4749 14.7867 12.4535C14.8162 12.4467 14.8464 12.4437 14.8767 12.4445V12.5435C14.8767 12.5488 14.8739 12.5563 14.8716 12.5625C14.8695 12.5682 14.8678 12.5728 14.8688 12.5738C14.9416 12.625 14.9413 12.6981 14.9411 12.7712C14.9408 12.8314 14.9406 12.8915 14.9813 12.9393C14.988 12.9484 14.9937 12.9582 14.9981 12.9685L15.0746 13.1203C15.0892 13.1125 15.1039 13.1025 15.1185 13.0926C15.1503 13.071 15.1821 13.0495 15.2129 13.0495C15.295 13.0574 15.3759 13.0756 15.4535 13.1035C15.4536 13.1313 15.4467 13.1588 15.4333 13.1833C15.4123 13.2037 15.3879 13.2205 15.3613 13.2328C15.4022 13.3059 15.448 13.3762 15.4985 13.443C15.5143 13.455 15.5328 13.4631 15.5523 13.4666C15.5718 13.4702 15.5919 13.469 15.611 13.4633C15.671 13.4424 15.7293 13.4169 15.7852 13.3868C15.7885 13.3921 15.7927 13.397 15.7966 13.4016C15.8035 13.4096 15.8096 13.4168 15.8089 13.4239C15.8049 13.4904 15.8221 13.5563 15.8581 13.6123C15.8941 13.6683 15.9469 13.7114 16.009 13.7354C16.0342 13.7492 16.0477 13.7866 16.0609 13.8233C16.0659 13.8373 16.0709 13.8512 16.0765 13.8636C16.089 13.8913 16.101 13.9208 16.1129 13.9499L16.1181 13.9626L16.1264 13.9828L16.1349 14.003C16.1493 13.9997 16.1633 13.9948 16.1765 13.9884C16.3092 13.8759 16.3666 13.8883 16.4509 14.0491C16.4726 14.0908 16.5012 14.1287 16.5299 14.1666C16.5577 14.2034 16.5856 14.2403 16.6072 14.2807C16.6357 14.345 16.6576 14.4121 16.6724 14.4809C16.6747 14.4888 16.6751 14.499 16.6755 14.5088C16.6761 14.5227 16.6766 14.5359 16.6825 14.5405C16.7223 14.5687 16.7627 14.595 16.8043 14.622C16.8523 14.6532 16.9018 14.6853 16.9535 14.7226L16.9254 14.8272L17.1413 14.8969C17.1778 14.9046 17.2099 14.926 17.2309 14.9569C17.2519 14.9877 17.2601 15.0255 17.2538 15.0622C17.2459 15.1544 17.2481 15.2219 17.3831 15.2399C17.4584 15.25 17.5461 15.3613 17.5798 15.4468C17.6439 15.6042 17.6574 15.6199 17.8047 15.5221C17.8115 15.5221 17.8227 15.5221 17.825 15.53C18.0115 15.8137 18.1386 16.1324 18.1983 16.4667C18.2043 16.5492 18.2023 16.6292 18.2003 16.709C18.1993 16.7488 18.1983 16.7887 18.1983 16.8287C18.1975 16.8551 18.2025 16.8812 18.2128 16.9055C18.223 16.9298 18.2384 16.9515 18.2579 16.9693C18.2908 16.986 18.3171 17.0132 18.3326 17.0467C18.3481 17.0801 18.3519 17.1178 18.3433 17.1537C18.3393 17.1976 18.3608 17.2279 18.3821 17.2578C18.3908 17.2701 18.3994 17.2823 18.4063 17.2954C18.4419 17.3652 18.4979 17.3917 18.5522 17.4173C18.5854 17.433 18.6178 17.4483 18.6447 17.473C18.7079 17.5457 18.7644 17.6239 18.8134 17.7069C18.7662 17.7127 18.7222 17.7188 18.6803 17.7245C18.6003 17.7356 18.5277 17.7456 18.4547 17.7508C18.2305 17.7665 18.0064 17.7827 17.7822 17.7989L17.7802 17.799C17.1402 17.8453 16.5002 17.8915 15.8595 17.9273C15.555 17.9446 15.2494 17.9438 14.9439 17.943C14.8319 17.9427 14.7199 17.9424 14.608 17.943C14.3745 17.943 14.1411 17.9448 13.9077 17.9466C13.5575 17.9493 13.2074 17.952 12.8572 17.9487C12.5102 17.9487 12.1632 17.9378 11.8159 17.927C11.6499 17.9218 11.484 17.9167 11.3178 17.9127H11.2425C11.23 17.8663 11.2226 17.8391 11.206 17.8309C11.1822 17.8193 11.1394 17.8466 11.0356 17.9127C10.9828 17.8115 11.0098 17.7766 11.2538 17.6226L11.4517 17.6833L11.4618 17.6563L11.3493 17.6012L11.4112 17.4966L10.9468 17.7564C10.9676 17.7294 10.9502 17.6957 10.9331 17.6626C10.9068 17.6116 10.8811 17.5619 10.9963 17.5394C10.8658 17.4629 10.858 17.2256 10.9794 17.0041C10.9673 17.0096 10.9558 17.0136 10.9455 17.0171C10.9264 17.0236 10.9114 17.0288 10.9063 17.039C10.8836 17.0818 10.8464 17.1132 10.8094 17.1444C10.7494 17.1951 10.69 17.2451 10.6949 17.3426C10.6949 17.3538 10.6038 17.3898 10.5937 17.3797C10.5484 17.3355 10.5158 17.28 10.4993 17.2189C10.4891 17.1559 10.4903 17.075 10.5791 17.0446C10.5948 17.0446 10.6083 17.0255 10.6151 16.9963L10.4464 17.0435C10.4383 16.9953 10.4239 16.9477 10.4095 16.9003C10.3681 16.7638 10.327 16.6281 10.4363 16.4813C10.4573 16.4306 10.4601 16.3741 10.4442 16.3216C10.4442 16.2991 10.3969 16.2822 10.3654 16.2744C10.3972 16.3386 10.4076 16.4112 10.3953 16.4818C10.3829 16.5523 10.3485 16.6171 10.2969 16.6668C10.2631 16.7091 10.2337 16.7547 10.2092 16.8029L10.226 16.8433C10.1361 16.8597 10.0439 16.8597 9.9539 16.8433C9.89689 16.8221 9.85211 16.7686 9.80689 16.7146C9.79236 16.6972 9.77779 16.6798 9.76275 16.6634C9.75236 16.653 9.74434 16.6406 9.73626 16.628C9.7286 16.6161 9.72088 16.6041 9.71102 16.5937C9.67684 16.5648 9.65492 16.524 9.6497 16.4795C9.64448 16.435 9.65635 16.3903 9.68291 16.3542C9.73576 16.2699 9.73014 16.2665 9.65255 16.2283H9.64581ZM12.2556 17.5236C12.1688 17.5411 12.0885 17.5841 12.0084 17.627C11.8519 17.7108 11.6963 17.7941 11.4955 17.6855C11.4966 17.6873 11.4976 17.689 11.4986 17.6907C11.6973 17.7935 11.8516 17.711 12.0064 17.6282C12.0862 17.5856 12.1661 17.5429 12.2523 17.5254C12.2523 17.5345 12.2523 17.5473 12.2457 17.5522C12.246 17.552 12.2463 17.5519 12.2466 17.5517C12.2512 17.5494 12.2527 17.5399 12.2539 17.5322C12.2544 17.5286 12.2549 17.5254 12.2556 17.5236ZM12.2415 17.5545C12.2074 17.5715 12.1736 17.5896 12.1398 17.6078C12.0298 17.6668 11.9199 17.7257 11.8011 17.7482C11.9283 17.7258 12.0452 17.6616 12.1619 17.5976C12.1884 17.583 12.2149 17.5685 12.2415 17.5545Z" fill="black"/>
<path d="M8.51407 17.402C8.51407 17.3615 8.51406 17.3222 8.50619 17.275L8.3319 17.2491L8.30155 17.3402L8.27456 17.3481L8.20821 17.1974L8.12726 17.284C8.05867 17.1715 8.06654 16.9736 8.14413 16.9601C8.25975 16.9506 8.37595 16.9506 8.49157 16.9601V16.932L8.18011 16.8926L8.20372 16.7802L8.09803 16.8758L8.01931 16.5711L7.71234 16.5317L7.6696 16.6318C7.56503 16.5058 7.56505 16.4811 7.65725 16.2225L7.4942 16.2045V16.3383C7.47317 16.3254 7.4519 16.3148 7.43222 16.305C7.39191 16.2848 7.35824 16.268 7.3469 16.2416C7.3008 16.137 7.24007 16.1291 7.1445 16.1663C7.10172 16.1738 7.05795 16.1738 7.01518 16.1663C7.02414 16.1238 7.04011 16.0832 7.06242 16.0459C7.11077 15.9897 7.10402 15.9335 7.05004 15.9066C6.95784 15.8571 6.95559 15.7941 6.99157 15.7064C7.06084 15.6769 7.13556 15.6623 7.21084 15.6637C7.25048 15.6736 7.28236 15.714 7.3184 15.7596C7.33553 15.7813 7.35359 15.8042 7.37388 15.8256C7.37657 15.7871 7.36542 15.7505 7.35483 15.7158C7.3345 15.6492 7.31624 15.5894 7.402 15.5355L7.03318 15.4152L7.02306 15.4421L7.28505 15.5545C7.24487 15.5762 7.20358 15.5957 7.16136 15.613C7.11662 15.6336 7.06776 15.6435 7.01854 15.6421C6.96933 15.6407 6.92109 15.628 6.87759 15.605C6.83409 15.5819 6.79649 15.5491 6.7677 15.5092C6.73891 15.4692 6.71972 15.4232 6.71159 15.3747C6.68703 15.3011 6.65811 15.2289 6.625 15.1588C6.7545 15.0958 6.90077 15.0759 7.04239 15.102C7.18402 15.1281 7.31358 15.1988 7.41212 15.3038C7.54531 15.4111 7.69106 15.5017 7.84616 15.5737C8.0781 15.6924 8.32512 15.7791 8.58041 15.8312C8.6882 15.8795 8.799 15.9208 8.91212 15.9549C8.97601 15.9631 9.03469 15.9944 9.07714 16.0429C9.11959 16.0913 9.14287 16.1536 9.14262 16.218C9.16607 16.3512 9.21953 16.4773 9.29892 16.5868C9.32959 16.6379 9.36607 16.689 9.40255 16.7402C9.44632 16.8015 9.49009 16.8628 9.52382 16.9241C9.548 16.999 9.5605 17.0771 9.56092 17.1558C9.56092 17.1805 9.56093 17.2154 9.5778 17.2278C9.68199 17.3154 9.79124 17.3969 9.90499 17.4717C10.0445 17.5311 10.1766 17.6066 10.2986 17.6966C10.3133 17.712 10.331 17.7274 10.3496 17.7435C10.4277 17.8111 10.5204 17.8913 10.4605 18.034C10.4605 18.0418 10.4665 18.0541 10.4725 18.0661C10.475 18.0713 10.4775 18.0764 10.4796 18.0812C10.4932 18.1121 10.5135 18.1396 10.5339 18.1671C10.581 18.2308 10.6281 18.2946 10.592 18.4005C10.5784 18.4438 10.6062 18.4999 10.6351 18.558C10.649 18.586 10.6631 18.6145 10.673 18.6423L10.7427 18.4545C10.7484 18.4804 10.7533 18.5034 10.7578 18.5243C10.7683 18.5733 10.7763 18.6109 10.7866 18.6479C10.7946 18.6769 10.8026 18.6981 10.81 18.7178C10.8162 18.7341 10.822 18.7494 10.827 18.7671C10.836 18.7884 10.8395 18.8116 10.8372 18.8346C10.8372 18.8492 10.8034 18.8706 10.7933 18.8672C10.6955 18.8334 10.6557 18.8931 10.6134 18.9566C10.6036 18.9712 10.5938 18.986 10.583 18.9999C10.5725 18.987 10.5534 18.9837 10.5344 18.9804C10.4969 18.9738 10.4598 18.9674 10.4897 18.8874C10.3766 18.9401 10.2887 18.8913 10.2024 18.8434C10.1746 18.828 10.1469 18.8126 10.1186 18.8008C9.95602 18.7338 9.79854 18.6548 9.64749 18.5647C9.53742 18.4985 9.43276 18.4215 9.32798 18.3444C9.27434 18.3049 9.22067 18.2654 9.16622 18.2274L9.51593 17.9125L9.49459 17.8833C9.43949 17.9811 9.36076 17.9778 9.26968 17.9654C9.17591 17.9665 9.08234 17.9744 8.98971 17.989C8.94295 17.9903 8.89695 17.9769 8.85814 17.9508C8.78718 17.8948 8.71925 17.8352 8.65462 17.772L8.80979 17.718V17.6933L8.69734 17.7012L8.6119 17.5887L8.73559 17.5977C8.71985 17.5257 8.71984 17.5257 8.5287 17.5156L8.5939 17.3874L8.51969 17.4032L8.51407 17.402Z" fill="black"/>
<path d="M4.05685 11.3343L3.97252 11.2218C3.98979 11.2227 4.00532 11.222 4.01903 11.2214C4.04014 11.2205 4.05695 11.2198 4.06922 11.2252C4.15693 11.277 4.19179 11.2297 4.20753 11.1532C4.21765 10.9823 4.26 10.8148 4.33234 10.6596C4.38697 10.5544 4.43321 10.445 4.47065 10.3324C4.49998 10.2611 4.53099 10.1903 4.5621 10.1192L4.60108 10.0299C4.50369 10.0668 4.40322 10.0951 4.30086 10.1143C4.18054 10.1255 4.15131 10.1401 4.15693 10.2582C4.16691 10.3455 4.14844 10.4337 4.10428 10.5097C4.06011 10.5856 3.99261 10.6453 3.9118 10.6799C3.91038 10.6808 3.90794 10.6792 3.90467 10.6769C3.90021 10.6739 3.8942 10.6697 3.88706 10.6697L3.89831 10.6011L3.76563 10.5877V10.5562L3.78532 10.5522C3.91619 10.5257 4.04787 10.499 4.11533 10.3673C4.16277 10.2747 4.13356 10.1901 4.10166 10.0978C4.08592 10.0522 4.06953 10.0047 4.06136 9.95348L3.79374 10.1042L3.80835 10.0637C3.8567 9.93773 3.83309 9.89727 3.69591 9.86691C3.66085 9.85806 3.62744 9.84364 3.59696 9.82419C3.51488 9.77021 3.48114 9.79158 3.4609 9.88266C3.44419 9.94464 3.42354 10.0055 3.39906 10.0648C3.37048 10.1154 3.35547 10.1725 3.35547 10.2306C3.35547 10.2888 3.37048 10.3459 3.39906 10.3965C3.44542 10.4759 3.48673 10.5582 3.52275 10.6428L3.50139 10.6574L3.41143 10.609C3.44741 10.7395 3.49688 10.78 3.57222 10.7698L3.77687 10.9947L3.76113 11.015L3.61158 10.943L3.58347 10.9553C3.59758 11.0604 3.63033 11.162 3.68017 11.2556C3.73889 11.3298 3.82629 11.3291 3.9223 11.3283C3.966 11.328 4.01148 11.3276 4.05685 11.3343Z" fill="black"/>
<path d="M4.40531 11.5444H4.12083C4.0736 11.649 4.12122 11.7241 4.16932 11.7999C4.19565 11.8414 4.22213 11.8832 4.23327 11.9301L4.15568 11.9413C4.15864 11.9679 4.17089 11.9949 4.18304 12.0216C4.2125 12.0865 4.24133 12.15 4.13545 12.2033C4.09375 12.1436 4.06961 12.1091 4.05725 12.0707C4.04029 12.0181 4.0455 11.9583 4.05786 11.8165L3.93867 11.9537C3.89858 11.8559 3.86881 11.7541 3.84984 11.6501C3.84984 11.5782 3.83747 11.5377 3.76663 11.5051C3.74778 11.4972 3.73552 11.4746 3.72333 11.452C3.71806 11.4423 3.7128 11.4326 3.70703 11.4241C3.71374 11.4193 3.72044 11.4137 3.7272 11.4081C3.74424 11.3938 3.76161 11.3793 3.78012 11.3769C3.9364 11.3795 4.09161 11.3508 4.23664 11.2925C4.24789 11.2858 4.28837 11.3027 4.29736 11.3195C4.32013 11.363 4.34078 11.4073 4.36243 11.4538C4.37604 11.483 4.39012 11.5132 4.40531 11.5444Z" fill="black"/>
<path d="M5.92785 11.3569C5.95262 11.4158 5.97738 11.4747 6.00252 11.5333L6.06885 11.5254C6.07312 11.5001 6.081 11.4733 6.08888 11.4464C6.1059 11.3884 6.12292 11.3304 6.10371 11.2882C6.00305 11.0798 5.89042 10.8774 5.76638 10.6821C5.74691 10.651 5.7102 10.6306 5.67341 10.6102C5.65706 10.6011 5.6407 10.5921 5.62582 10.582L5.58984 10.6113L5.62687 10.6935C5.65687 10.7604 5.68697 10.8274 5.71803 10.8935C5.73208 10.9235 5.74692 10.9531 5.76172 10.9826C5.78244 11.0239 5.80311 11.0652 5.82147 11.1072C5.8577 11.1901 5.8928 11.2736 5.92785 11.3569Z" fill="black"/>
<path d="M5.67327 11.3407C5.56093 11.3118 5.51566 11.2301 5.46966 11.1472C5.43509 11.0848 5.40011 11.0217 5.33594 10.9798C5.57657 10.9348 5.82732 11.3744 5.87904 11.6083C5.84718 11.6062 5.81612 11.5973 5.78795 11.5823C5.75979 11.5672 5.73515 11.5463 5.71569 11.521C5.69622 11.4957 5.68237 11.4665 5.67506 11.4354C5.66774 11.4043 5.66713 11.372 5.67327 11.3407Z" fill="black"/>
<path d="M3.92036 12.5008L4.378 12.6132L4.11264 12.2275C3.91249 12.4243 3.91249 12.4243 3.92036 12.5008Z" fill="black"/>
<path d="M7.98318 16.6031C7.98971 16.6365 7.99637 16.6688 8.00288 16.7005C8.01652 16.7668 8.02952 16.83 8.03942 16.8932C8.03946 16.924 8.03488 16.9547 8.0259 16.9842C8.01404 16.9809 8.00095 16.9788 7.9877 16.9766C7.96075 16.9723 7.93308 16.9678 7.91348 16.9527C7.86571 16.9088 7.82478 16.8581 7.79204 16.8021C7.75304 16.7363 7.79154 16.7314 7.82723 16.7268C7.84401 16.7247 7.86017 16.7226 7.86736 16.7144L7.76953 16.6232L7.78978 16.5918L7.98318 16.6031Z" fill="black"/>
<path d="M6.85836 12.7284L6.84766 12.8541L6.95897 12.7844L6.9331 12.7709C6.94545 12.7064 6.96121 12.6426 6.98032 12.5798C6.99378 12.5405 7.01088 12.5035 7.02785 12.4667C7.0449 12.4298 7.06183 12.3932 7.07479 12.3549C7.07863 12.3396 7.07868 12.3237 7.07496 12.3084C7.07124 12.2931 7.06384 12.2789 7.05341 12.2672C7.01181 12.2413 6.89148 12.3133 6.89148 12.3661C6.87885 12.4856 6.86877 12.6051 6.85836 12.7284Z" fill="black"/>
<path d="M5.40769 10.5953L5.53698 10.3705L5.34022 10.4975L5.32447 10.475L5.28286 10.5762C5.18729 10.4739 5.2379 10.4042 5.50777 10.249C5.52963 10.2715 5.5468 10.2981 5.55831 10.3273C5.56982 10.3565 5.57543 10.3877 5.5748 10.4191C5.57417 10.4505 5.56732 10.4814 5.55466 10.5101C5.54199 10.5388 5.52375 10.5647 5.50101 10.5863C5.49147 10.6054 5.46676 10.602 5.44038 10.5984C5.42945 10.5969 5.41823 10.5953 5.40769 10.5953Z" fill="black"/>
<path d="M4.74152 12.8592L4.66394 12.7568L4.62458 12.8603L4.55823 12.7984C4.49981 12.8482 4.52017 12.9011 4.53809 12.9477C4.55053 12.98 4.56178 13.0093 4.54474 13.0323L4.69653 13.1661C4.70371 13.1524 4.71271 13.1373 4.72198 13.1218C4.74756 13.0788 4.77517 13.0325 4.77187 13.002C4.76881 12.9737 4.73299 12.948 4.69341 12.9196C4.67479 12.9062 4.65533 12.8923 4.63806 12.8771L4.74152 12.8592Z" fill="black"/>
<path d="M9.81249 16.8027L10.2049 17.2008C10.0295 17.2548 9.76413 16.9984 9.78212 16.8263L9.81249 16.8027Z" fill="black"/>
<path d="M7.40256 13.3179L7.40352 13.3137C7.35657 13.1692 7.44657 13.1033 7.53278 13.0403C7.56003 13.0203 7.5869 13.0007 7.60895 12.9789C7.6522 12.9452 7.6994 12.9168 7.7495 12.8945C7.80797 12.9912 7.77313 13.0441 7.69779 13.0947C7.60793 13.1549 7.5224 13.2229 7.43665 13.2912L7.40545 13.316L7.40694 13.3179L7.40129 13.3234L7.40256 13.3179Z" fill="black"/>
<path d="M7.40129 13.3234C7.39018 13.3699 7.37437 13.4151 7.35409 13.4585C7.3431 13.4773 7.31948 13.4885 7.29589 13.4997C7.28571 13.5045 7.27554 13.5093 7.26639 13.5147L7.23828 13.4798L7.40129 13.3234Z" fill="black"/>
<path d="M6.92578 13.5815L7.0382 13.749C7.07994 13.6623 7.11676 13.5734 7.14842 13.4825C7.15377 13.4634 7.13829 13.438 7.1229 13.4127C7.11567 13.4009 7.10846 13.3891 7.10343 13.3779C7.09309 13.3834 7.08179 13.3882 7.07048 13.393C7.04491 13.4038 7.01928 13.4146 7.00447 13.4341C6.97365 13.4807 6.94732 13.53 6.92578 13.5815Z" fill="black"/>
<path d="M4.36867 11.805C4.16965 11.7724 4.13142 11.7251 4.18764 11.5801C4.38667 11.5958 4.41702 11.6329 4.36867 11.805Z" fill="black"/>
<path d="M7.08085 14.2043C7.09611 14.2141 7.11122 14.2238 7.12317 14.2329L7.1603 14.2025L7.14939 14.147C7.14191 14.1093 7.13442 14.0716 7.12993 14.0439C7.12723 14.0273 7.12489 14.0106 7.12255 13.994C7.11905 13.969 7.11554 13.9441 7.11082 13.9191C7.10686 13.9033 7.10158 13.888 7.09507 13.873C7.07943 13.8762 7.06453 13.8823 7.05121 13.891C7.04532 13.8964 7.04249 13.9069 7.03993 13.9163C7.03711 13.9268 7.03462 13.936 7.02874 13.936C6.94402 13.9703 6.96697 14.017 6.99007 14.0639C7.00254 14.0893 7.01506 14.1147 7.01072 14.1384C7.00431 14.1552 7.04302 14.18 7.08085 14.2043Z" fill="black"/>
<path d="M6.38984 12.6064L6.19531 12.2342L6.22342 12.2129C6.31636 12.2807 6.39317 12.3683 6.44832 12.4693C6.45308 12.4774 6.44095 12.5013 6.42439 12.5338C6.4136 12.5549 6.40093 12.5798 6.38984 12.6064Z" fill="black"/>
<path d="M6.65161 10.9199L6.49307 11.2842C6.43685 11.0245 6.45259 10.9863 6.65161 10.9199Z" fill="black"/>
<path d="M9.64102 16.2281C9.61602 16.2545 9.59344 16.2832 9.57356 16.3136C9.55816 16.3422 9.54612 16.3723 9.53212 16.4071C9.52465 16.4257 9.51661 16.4458 9.50723 16.4677L9.4375 16.3687L9.54995 16.2191C9.54995 16.2101 9.54123 16.198 9.53161 16.1847C9.50755 16.1512 9.47782 16.1099 9.56457 16.0898L9.64329 16.2304L9.64102 16.2281Z" fill="black"/>
<path d="M6.3627 11.5816C6.3627 11.5385 6.35275 11.496 6.33362 11.4574L6.30214 11.4473L6.28542 11.502C6.26692 11.5622 6.24848 11.6221 6.23467 11.6834C6.2313 11.6991 6.25717 11.7374 6.27517 11.7374C6.2868 11.7376 6.29829 11.7348 6.30854 11.7293C6.31878 11.7238 6.32742 11.7157 6.33362 11.7059C6.35275 11.6672 6.3627 11.6247 6.3627 11.5816Z" fill="black"/>
<path d="M7.9503 15.1201C8.01283 15.1383 8.07435 15.1596 8.13468 15.1841C8.1467 15.1898 8.15302 15.2079 8.15932 15.2261C8.16186 15.2334 8.1644 15.2407 8.16731 15.2472C8.11177 15.2581 8.05526 15.2634 7.99865 15.2629C7.98204 15.2586 7.96659 15.2507 7.95353 15.2396C7.94047 15.2285 7.93014 15.2145 7.9233 15.1988C7.91748 15.1813 7.93071 15.1571 7.94119 15.138C7.94489 15.1312 7.94825 15.1251 7.9503 15.1201Z" fill="black"/>
<path d="M10.3209 17.1898C10.3459 17.2165 10.3768 17.2371 10.4111 17.2497L10.3054 16.8887C10.2833 16.9178 10.2683 16.9517 10.2617 16.9877C10.2551 17.0237 10.257 17.0607 10.2672 17.0958C10.2775 17.1309 10.2959 17.1631 10.3209 17.1898Z" fill="black"/>
<path d="M10.6693 18.1211L10.811 18.346C10.8044 18.3508 10.7977 18.3563 10.791 18.3618C10.7728 18.3769 10.7542 18.3922 10.7345 18.3955C10.7213 18.3956 10.7083 18.3924 10.6967 18.3861C10.6851 18.3798 10.6753 18.3707 10.6682 18.3595C10.6553 18.3044 10.649 18.2479 10.6427 18.1917C10.6407 18.1745 10.6388 18.1573 10.6367 18.1402L10.6693 18.1211Z" fill="black"/>
<path d="M4.32334 12.2001L4.46839 12.1574C4.46839 12.1505 4.46943 12.1399 4.4706 12.128C4.47363 12.0972 4.47751 12.0577 4.46614 12.0528C4.4098 12.0371 4.35143 12.0299 4.29297 12.0315L4.32334 12.2001Z" fill="black"/>
<path d="M9.2285 16.0967C9.31621 16.1405 9.31732 16.1472 9.30382 16.4407L9.27236 16.4486L9.19141 16.1113L9.2285 16.0967Z" fill="black"/>
<path d="M6.21566 11.8248C6.18225 11.7663 6.14466 11.7103 6.10321 11.6572L6.06049 11.6629C6.05145 11.6993 6.053 11.7377 6.06495 11.7733C6.0769 11.809 6.09875 11.8405 6.12795 11.8641C6.14797 11.8838 6.1698 11.9015 6.19317 11.917C6.1959 11.9074 6.2001 11.8971 6.2043 11.8868C6.21389 11.8632 6.22348 11.8396 6.21566 11.8248Z" fill="black"/>
<path d="M5.64595 10.995C5.46604 10.9106 5.44918 10.8443 5.56837 10.7139L5.64595 10.995Z" fill="black"/>
<path d="M6.97748 13.4083L7.0247 13.152L6.97748 13.1328C6.94643 13.1902 6.92009 13.25 6.89876 13.3116C6.89581 13.3234 6.91319 13.341 6.93691 13.365C6.94936 13.3777 6.96356 13.392 6.97748 13.4083Z" fill="black"/>
<path d="M9.16406 16.0154C9.19209 15.9688 9.22698 15.9268 9.26752 15.8906C9.27566 15.8847 9.30278 15.9065 9.33095 15.9292C9.34559 15.941 9.36052 15.953 9.37321 15.9615V15.9963L9.19443 16.0435L9.16406 16.0154Z" fill="black"/>
<path d="M8.5069 17.4658C8.51036 17.4409 8.51319 17.4206 8.51329 17.4005C8.50879 17.3972 8.50442 17.3927 8.50005 17.3882C8.49131 17.3792 8.48258 17.3702 8.47283 17.3702C8.44054 17.3632 8.40787 17.3579 8.375 17.3545C8.37601 17.3643 8.37611 17.3749 8.37621 17.3855C8.37645 17.4102 8.37668 17.4351 8.38849 17.45C8.42218 17.4769 8.46021 17.4978 8.50094 17.5119C8.5029 17.4946 8.505 17.4795 8.5069 17.4658Z" fill="black"/>
<path d="M5.46147 9.62512L5.39062 9.36426C5.52556 9.42947 5.54018 9.50706 5.46147 9.62512Z" fill="black"/>
<path d="M5.19935 9.62737C5.16898 9.51492 5.19935 9.4778 5.26345 9.46094C5.27283 9.46094 5.28602 9.47345 5.29924 9.486C5.30502 9.49148 5.31081 9.49698 5.31629 9.50143L5.19935 9.62737Z" fill="black"/>
</svg>
