<svg width="20" height="20" viewBox="0 0 20 20" fill="none" xmlns="http://www.w3.org/2000/svg">
<path fill-rule="evenodd" clip-rule="evenodd" d="M2.7505 18.8606C2.7542 18.9069 2.75791 18.9533 2.76163 19H10.1034C10.1112 18.9494 10.1112 18.91 10.1112 18.8706C10.1112 18.247 10.112 17.6234 10.1128 16.9998C10.1143 15.7525 10.1158 14.5052 10.1112 13.258C10.1066 13.1829 10.1212 13.1078 10.1537 13.0398C10.1862 12.9719 10.2354 12.9134 10.2969 12.8699C10.4325 12.7583 10.5686 12.6472 10.7047 12.5361C11.237 12.1016 11.7694 11.6669 12.2746 11.2037C12.9674 10.5685 13.6508 9.92156 14.3338 9.27501C14.853 8.78347 15.3721 8.29213 15.8949 7.80625C16.2337 7.48742 16.5821 7.18336 16.9366 6.87384C17.1 6.73121 17.2648 6.58742 17.4305 6.4405C17.3799 6.42365 17.331 6.40648 17.2829 6.38964C17.1738 6.35139 17.0695 6.31484 16.9625 6.2875C16.7956 6.26461 16.6302 6.23117 16.4675 6.18738C16.3268 6.13111 16.1908 6.0635 16.0548 5.99592C15.9135 5.92567 15.7722 5.85547 15.626 5.79812C15.4122 5.6936 15.1685 5.66771 14.9375 5.725C14.439 5.84525 13.9525 6.01055 13.484 6.21887C13.4401 6.23428 13.3943 6.24374 13.3479 6.247L13.6111 6.04225L13.5807 5.99162L12.9058 6.29537C13.091 6.19942 13.2379 6.04302 13.322 5.85213C13.3638 5.78925 13.3895 5.71711 13.3969 5.642C13.4044 5.56689 13.3933 5.4911 13.3647 5.42125C13.3316 5.33969 13.2936 5.26009 13.2556 5.1805C13.2177 5.1009 13.1797 5.02131 13.1465 4.93975C13.0775 4.77874 13.019 4.61547 12.9606 4.4524C12.9476 4.41608 12.9346 4.37977 12.9215 4.3435C12.9037 4.26595 12.8777 4.19052 12.8439 4.1185C12.6386 3.85414 12.514 3.53617 12.485 3.20275C12.4875 3.17563 12.4813 3.14842 12.4672 3.12512C12.4531 3.10182 12.4318 3.08367 12.4066 3.07334C12.3814 3.063 12.3536 3.06104 12.3272 3.06773C12.3008 3.07442 12.2772 3.08941 12.26 3.1105C12.1475 3.23763 12.1059 3.18475 12.0699 3.06437H11.3004L11.2554 3.21062H11.2318L11.1991 3.025C11.171 3.06582 11.1385 3.10353 11.1024 3.1375C11.0591 3.1624 11.0135 3.18311 10.9662 3.19938C10.9314 3.11777 10.8843 3.04191 10.8267 2.97438C10.7621 2.94071 10.6913 2.92043 10.6186 2.91475C10.6794 2.77638 10.6636 2.74375 10.4769 2.6695C10.4636 2.52096 10.4809 2.37128 10.5275 2.22962C10.5676 2.15745 10.5916 2.07748 10.598 1.99517C10.6044 1.91286 10.5931 1.83014 10.5646 1.75262C10.539 1.65335 10.5217 1.55213 10.5129 1.45C10.5083 1.35046 10.5099 1.24738 10.5114 1.14652C10.5121 1.09691 10.5129 1.04785 10.5129 1H2V8.18987C2.09975 9.67112 2.20138 11.152 2.30487 12.6325C2.43388 14.4633 2.56363 16.294 2.69412 18.1248C2.71119 18.3685 2.73066 18.6122 2.7505 18.8606ZM11.0612 3.90635C11.0592 3.90914 11.0572 3.91198 11.0551 3.91488L11.1676 3.31525C11.1676 3.32293 11.1676 3.33048 11.1676 3.3379L11.0612 3.90635Z" fill="black"/>
</svg>
