<svg width="20" height="19" viewBox="0 0 20 19" fill="none" xmlns="http://www.w3.org/2000/svg">
<path d="M11.0387 13.924L11.0486 13.914C11.0462 13.9181 11.0428 13.9216 11.0387 13.924Z" fill="black"/>
<path fill-rule="evenodd" clip-rule="evenodd" d="M11.0534 13.9092L11.0486 13.914L11.0498 13.9116L11.051 13.9083L11.0534 13.9092ZM11.0534 13.9092C11.088 13.8745 11.1229 13.8401 11.1578 13.8057C11.2616 13.7033 11.3657 13.6006 11.4616 13.4909C11.4826 13.467 11.4756 13.4211 11.4687 13.3749C11.4652 13.3516 11.4616 13.3283 11.4616 13.3076L11.411 13.2873L11.1298 13.6979L10.8373 13.7676C10.8449 13.9891 10.9884 14.0219 11.1252 14.0532C11.1704 14.0635 11.2149 14.0737 11.2535 14.0905L10.7867 14.5292C10.6292 14.3301 10.5482 14.3042 10.3738 14.4403L10.6179 14.4538L10.6449 14.4921C10.6291 14.5044 10.6133 14.5195 10.5975 14.5347C10.5641 14.5669 10.5305 14.5992 10.4953 14.6046C10.3844 14.6127 10.3017 14.6704 10.2193 14.7279C10.1764 14.7578 10.1336 14.7877 10.087 14.8104C10.0415 14.8332 9.99606 14.8603 9.95417 14.8853L9.925 14.9027L9.81814 14.5315L9.25568 14.8374C9.12069 14.9117 9.09482 14.9117 9.0307 14.852L8.77872 14.9578L8.81584 14.7238L8.439 14.8768C8.30851 14.7294 8.31976 14.6912 8.52224 14.5911C8.47602 14.5545 8.42863 14.5169 8.38052 14.4786C8.33386 14.4415 8.28639 14.4037 8.23877 14.3661C8.22864 14.3582 8.20277 14.3526 8.19715 14.3582C8.15411 14.4032 8.0986 14.427 8.04442 14.4503C8.00513 14.4672 7.96654 14.4837 7.93392 14.5078C7.90228 14.5302 7.90187 14.5955 7.90147 14.6611C7.90129 14.6912 7.9011 14.7213 7.89792 14.7474C7.89429 14.7568 7.88977 14.7659 7.88442 14.7744C7.81003 14.7459 7.74493 14.6974 7.69631 14.6343C7.64768 14.5712 7.61741 14.4959 7.60882 14.4167C7.59491 14.2971 7.52751 14.2593 7.44755 14.2144C7.4305 14.2048 7.41288 14.1949 7.39509 14.1839L7.43221 14.374C7.4281 14.374 7.42306 14.3777 7.41772 14.3817C7.41136 14.3864 7.40458 14.3914 7.39846 14.3908C7.24323 14.3751 7.10486 14.3908 7.02162 14.5539C6.99102 14.5622 6.95904 14.5641 6.92769 14.5594C6.89634 14.5548 6.86627 14.5437 6.83939 14.5269C6.6974 14.402 6.56849 14.2629 6.45467 14.1119C6.44241 14.0728 6.43939 14.0315 6.44583 13.9911C6.45227 13.9507 6.468 13.9123 6.49179 13.879C6.54851 13.8173 6.57933 13.7362 6.57786 13.6524C6.5764 13.5687 6.54276 13.4887 6.48392 13.429C6.4518 13.3845 6.42535 13.3361 6.40517 13.2851C6.39392 13.2665 6.3865 13.2459 6.38335 13.2245C6.3802 13.203 6.38139 13.1812 6.38684 13.1602C6.3923 13.1392 6.40191 13.1195 6.4151 13.1023C6.4283 13.0851 6.44481 13.0708 6.46367 13.0601C6.52805 13.0104 6.57335 12.9401 6.59191 12.861C6.61778 12.6866 6.53116 12.6292 6.35568 12.6225C6.16765 12.6159 5.98108 12.5868 5.79997 12.5359C5.70233 12.4889 5.61333 12.4258 5.53674 12.3491C5.50818 12.3362 5.47508 12.3253 5.4424 12.3145C5.36955 12.2904 5.29874 12.267 5.28477 12.2243C5.24677 12.0977 5.24677 11.9628 5.28477 11.8362C5.29197 11.812 5.30136 11.7891 5.31047 11.767C5.34118 11.6922 5.36878 11.6251 5.29939 11.5392C5.28139 11.5167 5.30951 11.438 5.33764 11.3997C5.38938 11.3277 5.41863 11.2703 5.35563 11.1849C5.33342 11.1351 5.32525 11.0803 5.33201 11.0262C5.30201 9.55862 5.27502 8.08949 5.25102 6.61886C5.25102 6.4535 5.25102 6.30951 5.05304 6.21277C4.96426 6.16877 4.89932 6.07656 4.83423 5.98413C4.80447 5.94187 4.77468 5.89956 4.74256 5.8618C4.70693 5.80625 4.66377 5.7559 4.61432 5.71219C4.52549 5.65596 4.4344 5.59974 4.34332 5.54351C4.2522 5.48727 4.16099 5.43096 4.07212 5.37472C4.05135 5.36122 4.03322 5.34317 4.01518 5.32521C3.99414 5.30426 3.97321 5.28343 3.94838 5.2701C3.82826 5.19466 3.69897 5.13492 3.56366 5.09237C3.50331 5.08067 3.44078 5.09196 3.38833 5.12401C3.33588 5.15606 3.29731 5.20657 3.28018 5.2656C3.27532 5.2892 3.26495 5.31131 3.24992 5.33014C3.2349 5.34897 3.21564 5.36398 3.19371 5.37396C3.17178 5.38394 3.14781 5.38859 3.12374 5.38755C3.09967 5.38651 3.07619 5.3798 3.0552 5.36797C2.95897 5.33797 2.85627 5.33545 2.75868 5.36069C2.66109 5.38593 2.57249 5.43793 2.50287 5.51083C2.43411 5.57372 2.34516 5.61002 2.25202 5.6132C2.12771 5.61399 2.00514 5.64242 1.89318 5.69644C1.78981 5.77558 1.66168 5.81541 1.53166 5.80882C1.40164 5.80222 1.27819 5.74964 1.18336 5.66044C1.17313 5.65175 1.15988 5.64608 1.14678 5.64047C1.13106 5.63374 1.11556 5.6271 1.10574 5.61545C1.05959 5.56639 1.02365 5.50865 1 5.44559C1 5.42646 1.07649 5.36909 1.12711 5.35109C1.55008 5.20711 1.98204 5.06424 2.41063 4.92475C2.72174 4.78856 3.00276 4.59204 3.23744 4.34655C3.30033 4.27059 3.3328 4.17398 3.32856 4.07545C3.33455 3.80114 3.33256 3.52683 3.33056 3.25185C3.32956 3.11411 3.32856 2.97621 3.32856 2.83805V2.66594H4.22848V2.36672H5.94509C5.94798 2.37127 5.95134 2.37521 5.95436 2.37877C5.95956 2.38489 5.96379 2.38986 5.96308 2.39484C5.94059 2.5782 6.0182 2.65694 6.20494 2.68507C6.35263 2.71366 6.49422 2.76771 6.6234 2.8448C6.67465 2.87275 6.71303 2.92375 6.75149 2.97485C6.76876 2.99779 6.78604 3.02075 6.80451 3.04166C6.8132 3.03428 6.82004 3.02941 6.82517 3.02576C6.83332 3.01996 6.83714 3.01725 6.83714 3.01241C6.96312 2.75369 6.98787 2.73119 7.26572 2.79756C7.39298 2.82665 7.52654 2.80614 7.63919 2.74019C7.80568 2.65694 7.96767 2.5827 8.1319 2.74919C8.14988 2.76039 8.17023 2.76723 8.19132 2.76919C8.21241 2.77114 8.23366 2.76814 8.25339 2.76044C8.27364 2.75256 8.28376 2.69182 8.27926 2.65694C8.26956 2.61279 8.27069 2.56695 8.28255 2.52332C8.29441 2.4797 8.31666 2.4396 8.34739 2.40644C8.37811 2.37328 8.41641 2.34805 8.459 2.33291C8.5016 2.31776 8.54723 2.31315 8.59199 2.31947C8.67412 2.32522 8.75205 2.33757 8.83017 2.34994C8.85903 2.35451 8.88795 2.3591 8.91709 2.36334C8.93119 2.3681 8.94611 2.37002 8.96096 2.36897C9.16599 2.31748 9.36772 2.25362 9.56503 2.17774C9.79545 2.07778 10.0412 2.01768 10.2917 2C10.3108 2.21261 10.3525 2.23398 10.5639 2.28123C10.6667 2.30371 10.7658 2.34131 10.8659 2.37928C10.951 2.41159 11.0369 2.44417 11.1264 2.46796C11.4054 2.54445 11.6889 2.61532 11.9701 2.66932C12.0881 2.68011 12.1999 2.7269 12.2905 2.80336C12.381 2.87981 12.4459 2.98224 12.4763 3.09678C12.4891 3.14525 12.5056 3.19264 12.5258 3.23852C12.5996 3.40091 12.6744 3.56131 12.7539 3.73179L12.7699 3.7661L12.6709 3.82797L12.7991 3.96521C12.8409 3.87773 12.9097 3.80605 12.9954 3.76085C13.0812 3.71565 13.1792 3.69935 13.275 3.71436C13.3777 3.6961 13.4721 3.64614 13.5449 3.57149C13.9319 3.25882 14.4004 3.06362 14.8948 3.00904C14.9472 3.01128 14.999 3.02036 15.0489 3.03604L14.7565 3.26777L14.7801 3.31389C14.8247 3.30377 14.8692 3.29315 14.9136 3.28253C15.0026 3.26128 15.0917 3.24002 15.1817 3.22277C15.2975 3.19297 15.4165 3.17748 15.536 3.17665C15.5968 3.17665 15.6958 3.24977 15.7036 3.30039C15.7176 3.39725 15.6256 3.39835 15.5506 3.39925L15.5405 3.39938C15.5169 3.39938 15.4933 3.39938 15.4382 3.41176C15.4718 3.43393 15.5113 3.44577 15.5493 3.45717C15.6386 3.48392 15.7198 3.50822 15.6969 3.65811L15.7408 3.62774C15.7477 3.54921 15.7698 3.47279 15.806 3.40276C15.8583 3.35711 15.9196 3.32299 15.986 3.30264C15.9637 3.26996 15.9388 3.23925 15.9162 3.2115C15.8729 3.15806 15.8384 3.11559 15.8488 3.09116C15.8851 3.00944 15.9504 2.94411 16.0321 2.9078L16.0537 2.89877C16.1279 2.86719 16.2277 2.82473 16.2931 2.94942C16.2998 2.96292 16.4652 2.96517 16.4855 2.83693C16.4896 2.79854 16.4983 2.76078 16.5113 2.72444C16.4771 2.96589 16.3702 3.1912 16.2048 3.37043C16.0394 3.54966 15.8234 3.67433 15.5855 3.72786C15.6283 3.92247 15.5129 4.03796 15.398 4.15297C15.38 4.17091 15.3621 4.18885 15.3448 4.20707C15.2548 4.29818 15.2559 4.3803 15.3605 4.44442L15.1783 4.68628L15.3774 4.59291L15.2649 5.0035C15.2177 5.0035 15.1524 5.0035 15.1524 5.017C15.1113 5.11587 15.0808 5.21881 15.0613 5.3241C15.0596 5.33548 15.0585 5.34716 15.0574 5.35869C15.0519 5.41549 15.0467 5.46883 14.9747 5.46696C14.8369 5.46696 14.763 5.54997 14.6891 5.63291C14.6539 5.67248 14.6186 5.71204 14.5765 5.74256C14.5439 5.76636 14.5151 5.79586 14.4864 5.82528C14.4527 5.85983 14.4191 5.89426 14.3796 5.91917C14.2302 6.01403 14.0808 6.10443 13.9285 6.19663C13.8514 6.24328 13.7736 6.29038 13.6946 6.33876H14.2278L14.2053 6.54237L14.3102 6.49808C14.4133 6.4547 14.5046 6.41633 14.5945 6.37476C14.6127 6.36632 14.6307 6.35686 14.6483 6.34755C14.746 6.296 14.835 6.24905 14.9207 6.40626C14.9406 6.41642 14.9625 6.42173 14.9848 6.42173C15.0071 6.42173 15.0291 6.41642 15.0489 6.40626C15.1604 6.26324 15.2914 6.28678 15.414 6.30879C15.4573 6.31656 15.4995 6.32414 15.5394 6.32414C15.5412 6.41032 15.5479 6.49634 15.5597 6.58174C15.581 6.69423 15.5754 6.76398 15.4528 6.82135C15.3562 6.87402 15.2831 6.96123 15.248 7.06552C15.213 7.16981 15.2186 7.28349 15.2638 7.3838C15.3508 7.54419 15.4465 7.69966 15.5507 7.84951L15.3999 8.02499L15.4314 8.06999C15.5277 7.96513 15.6036 8.01197 15.6757 8.05647C15.698 8.07021 15.7199 8.08373 15.7419 8.09249L15.8544 8.00025C15.8625 8.01215 15.8727 8.02405 15.8828 8.03599C15.9062 8.06353 15.9297 8.09123 15.9297 8.11949C15.9295 8.23275 15.9186 8.34575 15.8971 8.45696C15.8836 8.49569 15.8815 8.53749 15.891 8.57739C15.9006 8.61728 15.9215 8.65358 15.9511 8.68194C16.0231 8.75281 16.0546 8.85855 15.8859 8.93954C16.0625 8.97667 16.2031 9.03179 16.2233 9.21402C16.2339 9.25229 16.2359 9.29239 16.2293 9.33152C16.2227 9.37064 16.2076 9.40785 16.1851 9.44054C16.1626 9.47322 16.1332 9.5006 16.099 9.52073C16.0648 9.54087 16.0266 9.55329 15.9871 9.55712C16.0599 9.5839 16.1394 9.58631 16.2136 9.56399C16.2879 9.54168 16.3529 9.49584 16.3988 9.43338C16.5327 9.54587 16.5215 9.59424 16.4258 9.72473C16.385 9.8209 16.3628 9.92398 16.3606 10.0285C16.5604 9.95902 16.7767 9.95234 16.9804 10.0093C17.0783 10.0177 17.1769 10.0089 17.2718 9.98346C17.3605 9.96749 17.452 9.98318 17.5303 10.0278C17.6087 10.0724 17.6688 10.1431 17.7004 10.2276C17.7105 10.2448 17.7523 10.2446 17.7938 10.2444C17.8119 10.2443 17.8301 10.2442 17.8455 10.2456L17.8522 10.2073L17.9343 10.2838H17.9692C18.0377 10.2286 18.1209 10.1947 18.2085 10.1863C18.296 10.178 18.3842 10.1954 18.4619 10.2366C18.5074 10.2516 18.5512 10.2679 18.5945 10.2839C18.6582 10.3076 18.7209 10.331 18.7859 10.3491C18.9771 10.4064 19.0109 10.4615 18.9974 10.6494C18.7428 10.8089 18.4399 10.8731 18.1424 10.8305C18.1002 10.8259 18.0553 10.8486 18.0097 10.8716C17.9884 10.8824 17.967 10.8932 17.9456 10.9014C17.9543 10.9217 17.9641 10.9416 17.9748 10.961L18.0963 11.1309C18.0265 11.1376 17.9573 11.1497 17.8893 11.1669C17.8036 11.1846 17.7236 11.2232 17.6565 11.2793C17.5392 11.4237 17.4292 11.5739 17.3269 11.7293C17.2882 11.7214 17.2588 11.6906 17.2275 11.6579C17.1741 11.602 17.1153 11.5406 16.9962 11.5774L17.0918 11.6483L17.0617 11.6803C16.9658 11.7822 16.8692 11.8848 16.7746 11.9948C16.7287 12.0352 16.6906 12.0836 16.6621 12.1377C16.6148 12.2636 16.5496 12.2681 16.4427 12.2085C16.4844 12.1399 16.5219 12.0689 16.5552 11.9959C16.5979 11.8834 16.6272 11.7811 16.4945 11.6944C16.4638 11.6745 16.4525 11.626 16.4406 11.5751C16.435 11.5511 16.4292 11.5266 16.4213 11.5043C16.3369 11.5225 16.3042 11.468 16.2666 11.4052C16.239 11.3593 16.2088 11.3088 16.1536 11.2793C16.1725 11.3361 16.1994 11.3899 16.2335 11.4391C16.346 11.5516 16.31 11.6573 16.2267 11.7574C16.1707 11.8248 16.1209 11.8733 16.0689 11.9238C16.0436 11.9484 16.0177 11.9735 15.9905 12.0015L16.0569 12.1039C15.9207 12.1509 15.864 12.2614 15.8076 12.3714C15.7708 12.4432 15.7341 12.5148 15.6755 12.5685C15.584 12.5036 15.4716 12.4753 15.3602 12.489C15.2489 12.5027 15.1467 12.5576 15.0737 12.6427C14.9807 12.7541 14.8546 12.8329 14.7137 12.8677C14.2437 12.9962 13.7998 13.206 13.4021 13.4875C13.3419 13.528 13.2777 13.5618 13.2137 13.5956C13.1939 13.606 13.1742 13.6164 13.1546 13.627C13.1497 13.6295 13.1437 13.6312 13.1378 13.6328C13.1273 13.6358 13.1174 13.6386 13.1152 13.645C13.0536 13.8061 12.9187 13.8416 12.7833 13.8772C12.7012 13.8988 12.619 13.9205 12.5528 13.9701C12.5156 13.9949 12.4802 14.0223 12.447 14.0522C12.3773 14.1231 12.3132 14.1647 12.2221 14.0871C12.2029 14.0714 12.1388 14.0871 12.1096 14.1062C12.039 14.1808 11.948 14.2329 11.8479 14.2559C11.7478 14.279 11.6432 14.2719 11.5471 14.2356C11.5373 14.2314 11.5254 14.2277 11.5135 14.2241C11.4872 14.216 11.461 14.2079 11.4571 14.194C11.413 14.0229 11.2796 13.9816 11.1479 13.9407C11.1159 13.9308 11.0839 13.9209 11.0534 13.9092Z" fill="black"/>
<path d="M15.7149 10.6404C15.8645 10.6719 15.9376 10.7968 15.9264 11.0094L15.9228 11.0031C15.9332 10.7966 15.8602 10.6783 15.7149 10.6404Z" fill="black"/>
<path d="M8.37384 16.5898C8.34309 16.6923 8.32126 16.7973 8.30859 16.9036L8.35585 16.9295C8.38915 16.8978 8.42033 16.864 8.44921 16.8283C8.56057 16.673 8.86093 16.6517 8.94755 16.7912C8.9744 16.8284 9.00992 16.8585 9.05104 16.8789C9.05707 16.8827 9.07371 16.8677 9.09081 16.8524C9.09922 16.8448 9.10775 16.8372 9.11516 16.8316C9.10539 16.8215 9.0945 16.8118 9.08359 16.8021C9.0581 16.7794 9.03249 16.7565 9.02067 16.7282C8.93906 16.5856 8.88415 16.4293 8.85867 16.2669C8.85811 16.2463 8.85975 16.2271 8.86128 16.2092C8.86586 16.1557 8.86954 16.1127 8.81143 16.0723C8.71132 16.0026 8.63933 16.0701 8.59883 16.1398C8.51232 16.2838 8.43708 16.4342 8.37384 16.5898Z" fill="black"/>
<path d="M16.168 2.82689L16.188 2.77768C16.2059 2.73355 16.2177 2.70434 16.2321 2.6739L16.2662 2.60664C16.3118 2.51657 16.3573 2.4265 16.4087 2.33643C16.4233 2.30944 16.4559 2.27344 16.4795 2.27344C16.4959 2.27664 16.5114 2.28345 16.5248 2.29338C16.5382 2.3033 16.5493 2.31609 16.5572 2.33081C16.5774 2.36149 16.5906 2.39625 16.5958 2.43262C16.601 2.46898 16.5981 2.50605 16.5874 2.54118C16.5767 2.57631 16.5583 2.60864 16.5336 2.63586C16.509 2.66308 16.4786 2.68452 16.4447 2.69865L16.4302 2.70492C16.3587 2.73582 16.2796 2.77003 16.168 2.82689Z" fill="black"/>
</svg>
