<svg width="20" height="21" viewBox="0 0 20 21" fill="none" xmlns="http://www.w3.org/2000/svg">
<path d="M1.67962 3.59234C1.71551 3.74694 1.75197 3.904 1.7875 4.06713L2.05524 4.07051H2.34773C2.49961 4.07726 2.52098 4.11663 2.49961 4.26513C2.46513 4.41248 2.45262 4.56411 2.46248 4.71512C2.47939 4.78121 2.48283 4.85003 2.47258 4.91749C2.46234 4.98494 2.43863 5.04964 2.40286 5.10773C2.37598 5.14143 2.35694 5.18069 2.34713 5.22266C2.33731 5.26464 2.33697 5.30827 2.34613 5.35039C2.35529 5.39251 2.37371 5.43206 2.40006 5.46618C2.42642 5.50029 2.46004 5.5281 2.49848 5.5476C2.61392 5.62283 2.73873 5.68259 2.86972 5.72534C2.93696 5.74235 2.99858 5.77662 3.0485 5.82477C3.09842 5.87291 3.13491 5.93326 3.15434 5.99983C3.18367 6.10795 3.20473 6.21814 3.21734 6.32945C3.24509 6.5505 3.27179 6.7705 3.29844 6.99008C3.33336 7.27784 3.3682 7.56489 3.40521 7.85266C3.44228 8.03305 3.52785 8.1999 3.6527 8.33527C3.82206 8.57652 3.97719 8.82744 4.11731 9.08676C4.14516 9.13368 4.16899 9.18297 4.1928 9.23223C4.22095 9.29045 4.24908 9.34864 4.28381 9.40287C4.42068 9.55355 4.5055 9.74424 4.52575 9.94679C4.54601 10.1493 4.50063 10.353 4.39631 10.5278C4.32239 10.6507 4.26383 10.7822 4.22194 10.9193C4.16906 11.0757 4.22081 11.1477 4.38506 11.1792C4.48202 11.2062 4.58415 11.2087 4.68231 11.1865C4.78048 11.1643 4.87161 11.1181 4.94754 11.0521C5.06679 10.9452 5.15679 10.9778 5.15004 11.1365C5.14641 11.3189 5.11258 11.4994 5.04992 11.6708C5.01285 11.7774 4.93518 11.8649 4.83382 11.9145C4.73246 11.964 4.61563 11.9714 4.5088 11.9352C4.37772 11.8964 4.23794 11.8983 4.10797 11.9407C3.978 11.9831 3.86396 12.0639 3.78095 12.1726C3.70402 12.2525 3.60131 12.3027 3.49096 12.3142C3.38062 12.3257 3.26975 12.2979 3.17796 12.2356C3.03509 12.1186 3.03734 12.0398 3.17796 11.9273C3.26121 11.8598 3.34333 11.7912 3.41983 11.7158C3.53536 11.5748 3.6642 11.4452 3.80457 11.3288C3.87115 11.2825 3.92452 11.2197 3.95944 11.1465C3.99435 11.0733 4.0096 10.9923 4.00369 10.9115C4.01157 10.8305 3.97782 10.7855 3.8912 10.7855C3.73257 10.7753 3.57395 10.7607 3.41758 10.7382C3.35531 10.7242 3.29016 10.7307 3.23194 10.7569C3.17371 10.7831 3.12556 10.8274 3.09472 10.8833C2.94397 11.1117 2.7741 11.132 2.52661 11.0093C2.35383 10.9341 2.17603 10.8709 1.99449 10.8203C1.90562 10.7911 1.85387 10.8338 1.81112 10.9137C1.78264 10.9664 1.74827 11.0156 1.71383 11.0648C1.68435 11.107 1.65482 11.1492 1.62888 11.1938L1.61995 11.2092C1.56647 11.3011 1.51128 11.396 1.46013 11.4919C1.41908 11.6232 1.35592 11.7465 1.27339 11.8564C1.21482 11.8975 1.17083 11.9562 1.14778 12.0239C1.12473 12.0917 1.1238 12.165 1.14514 12.2333C1.1969 12.4272 1.28885 12.608 1.41502 12.764C1.54119 12.92 1.69876 13.0477 1.8775 13.1389C1.95129 13.1682 2.01836 13.2122 2.07464 13.2682C2.13092 13.3242 2.17523 13.391 2.2049 13.4646C2.23457 13.5383 2.24896 13.6172 2.24722 13.6966C2.24547 13.7759 2.22762 13.8541 2.19474 13.9264C2.11603 14.0993 2.2001 14.1499 2.30268 14.2116L2.30724 14.2144C2.44915 14.2999 2.57396 14.2315 2.69455 14.1654C2.70874 14.1576 2.72288 14.1498 2.73697 14.1424C2.98447 14.0096 3.08797 14.0614 3.13746 14.3471C3.15546 14.4514 3.17446 14.5556 3.19346 14.6599C3.20296 14.712 3.21246 14.7641 3.22184 14.8162C3.22357 14.8434 3.23091 14.8699 3.2434 14.8941C3.25589 14.9182 3.27325 14.9395 3.29439 14.9567C3.31553 14.9738 3.33999 14.9863 3.36623 14.9935C3.39247 15.0007 3.41991 15.0024 3.44683 14.9985C3.57428 14.9854 3.70234 14.9794 3.83045 14.9805C3.95104 14.9774 4.07075 15.002 4.18031 15.0525C4.41907 15.1819 4.68725 15.2474 4.95879 15.2426C5.08592 15.2482 5.15229 15.1909 5.16241 15.0536C5.17499 14.89 5.19264 14.7249 5.21031 14.5596C5.22266 14.4441 5.23502 14.3285 5.24566 14.2133C5.25804 14.0704 5.34353 14.0445 5.45266 14.0895C5.47674 14.0994 5.50088 14.1092 5.525 14.119C5.61017 14.1534 5.69512 14.1878 5.77665 14.229C5.87203 14.2795 5.97677 14.3098 6.08436 14.3182C6.19196 14.3265 6.30012 14.3126 6.40213 14.2774C6.49481 14.2468 6.5878 14.2179 6.6807 14.189C6.83701 14.1404 6.99304 14.092 7.14686 14.0355C8.66482 13.4813 10.1817 12.9237 11.6974 12.3627C11.7483 12.3337 11.8085 12.3257 11.8652 12.3404C11.922 12.3551 11.9707 12.3913 12.0011 12.4414C12.1017 12.5767 12.209 12.7071 12.3184 12.8402C12.3583 12.8886 12.3985 12.9375 12.4387 12.987C12.7283 12.7008 12.975 12.3741 13.1711 12.0173C13.2052 11.9687 13.2234 11.9107 13.2234 11.8514C13.2234 11.792 13.2052 11.7341 13.1711 11.6854C13.0293 11.4728 12.8853 11.2613 12.7312 11.0588C12.6168 10.9513 12.5371 10.812 12.5024 10.6589C12.4678 10.5057 12.4797 10.3457 12.5366 10.1994C12.5782 10.1161 12.5299 10.0824 12.4657 10.0464C12.2334 9.92689 12.008 9.79431 11.7907 9.64924C11.6792 9.56673 11.5497 9.5117 11.4129 9.48863C11.2761 9.46557 11.1357 9.47511 11.0033 9.51649C10.9461 9.53753 10.8833 9.53778 10.8259 9.51722C10.7685 9.49665 10.7202 9.45658 10.6894 9.404C10.6575 9.33846 10.6093 9.28215 10.5495 9.2404C10.4898 9.19864 10.4203 9.17283 10.3478 9.1654C10.2753 9.15796 10.202 9.16916 10.135 9.19792C10.068 9.22667 10.0095 9.27205 9.96492 9.32975C9.74667 9.54349 9.5453 9.76849 9.34731 9.99348C9.26542 10.0849 9.20029 10.19 9.15494 10.304C9.01239 10.6392 8.77851 10.9277 8.47995 11.1365C8.44508 11.1691 8.36296 11.186 8.34608 11.1691C8.32774 11.1499 8.31412 11.1267 8.30631 11.1013C8.2985 11.0759 8.29671 11.049 8.30108 11.0228C8.34998 10.868 8.42369 10.7221 8.51933 10.5908C8.92737 10.1309 9.35103 9.68231 9.77427 9.23421L9.82429 9.18125C9.90588 9.11172 9.99152 9.04711 10.0808 8.98776C10.142 8.94289 10.1949 8.88769 10.2372 8.82464C10.3204 8.67839 10.2844 8.57939 10.1247 8.52764C9.98519 8.4809 9.84319 8.44224 9.70103 8.40354C9.63107 8.38449 9.56106 8.36544 9.4913 8.3454C9.44291 8.32833 9.39057 8.32584 9.34078 8.33824C9.29098 8.35064 9.24592 8.37738 9.21118 8.41515C9.16193 8.46371 9.10147 8.49938 9.03515 8.519C8.96883 8.53862 8.89869 8.54159 8.83095 8.52764C8.75395 8.51568 8.67701 8.5033 8.60007 8.49093C8.29366 8.44166 7.9874 8.3924 7.67897 8.36902C7.59126 8.36679 7.50508 8.34551 7.42641 8.30666C7.34774 8.26781 7.27846 8.21232 7.22336 8.14403C7.12385 8.02162 6.99711 7.92415 6.85324 7.85941C6.60575 7.76536 6.35825 7.69128 6.11075 7.61719C6.02076 7.59026 5.93076 7.56332 5.84077 7.53542C5.60115 7.46117 5.39416 7.3543 5.35928 7.06743C5.35431 7.04226 5.34395 7.01847 5.32891 6.99768C5.29262 6.93857 5.27049 6.87186 5.26425 6.80278C5.258 6.7337 5.26781 6.66411 5.29291 6.59944C5.30237 6.56729 5.31083 6.53533 5.31922 6.50365C5.33079 6.45998 5.34221 6.41683 5.35591 6.37445C5.36868 6.3447 5.37543 6.31271 5.37577 6.28034C5.37612 6.24797 5.37005 6.21585 5.35791 6.18583C5.34578 6.15582 5.32783 6.1285 5.30509 6.10546C5.28234 6.08242 5.25527 6.06411 5.22541 6.05158C5.09227 5.98729 4.95511 5.93168 4.8148 5.88509C4.76618 5.87064 4.72259 5.84284 4.68899 5.80486C4.65538 5.76688 4.6331 5.72023 4.62468 5.67022C4.57652 5.48273 4.51831 5.29797 4.45031 5.11673C4.42413 5.03265 4.37276 4.95864 4.30314 4.90472C4.23352 4.85079 4.14902 4.81956 4.06107 4.81524C3.98695 4.80709 3.91577 4.78167 3.85325 4.74104C3.79074 4.7004 3.73861 4.64567 3.70108 4.58125C3.66183 4.5089 3.60243 4.4495 3.53008 4.41025C3.46365 4.38347 3.40404 4.3422 3.35558 4.28946C3.30712 4.23672 3.27104 4.17383 3.24996 4.10538C3.16808 3.90388 3.02733 3.73177 2.8461 3.61152C2.75001 3.53508 2.6608 3.45039 2.57948 3.3584C2.56399 3.34325 2.54913 3.3259 2.53422 3.30848C2.50042 3.269 2.46639 3.22924 2.42423 3.2144C2.25997 3.13137 2.11859 3.00931 2.01249 2.85891C1.75375 2.58667 1.48263 2.3223 1.21039 2.05906C1.14776 2.00986 1.08073 1.96656 1.01014 1.92969C1.00312 1.95534 0.999713 1.98184 1.00002 2.00844C1.01728 2.07003 1.03442 2.13162 1.05156 2.19319C1.12487 2.45662 1.19807 2.71962 1.28014 2.98041C1.29543 3.01147 1.31673 3.03919 1.34279 3.06198C1.36886 3.08476 1.39918 3.10216 1.43201 3.11316C1.48146 3.12913 1.52541 3.15871 1.55883 3.1985C1.59226 3.23829 1.6138 3.28669 1.621 3.33815C1.6402 3.42254 1.65982 3.50706 1.67962 3.59234Z" fill="black"/>
<path d="M15.8775 18.4946C15.9935 18.4612 16.1064 18.418 16.215 18.3652C16.2567 18.466 16.2666 18.577 16.2435 18.6836C16.2204 18.7901 16.1653 18.8871 16.0856 18.9615C16.0152 19.0288 15.9484 19.0998 15.8854 19.1741C15.7886 19.2989 15.819 19.3653 15.9765 19.3856C16.5142 19.4553 16.7538 19.2764 16.8393 18.7421C16.8402 18.7363 16.8412 18.7306 16.8421 18.7249C16.847 18.6949 16.8517 18.6655 16.8517 18.6352C16.8562 18.4991 16.89 18.3655 16.9508 18.2436C17.0115 18.1217 17.0979 18.0143 17.2038 17.9287C17.264 17.88 17.3119 17.8179 17.3437 17.7474C17.3755 17.6769 17.3904 17.5999 17.3872 17.5226C17.3939 17.4516 17.4063 17.3813 17.4244 17.3123C17.4415 17.3212 17.4569 17.3276 17.4696 17.3328C17.4901 17.3413 17.5031 17.3466 17.5031 17.355C17.5583 17.4849 17.6049 17.6183 17.6426 17.7544C17.6673 17.8636 17.6869 17.9742 17.7064 18.0849C17.7321 18.2308 17.7578 18.3767 17.7956 18.5193C17.8338 18.6611 17.9261 18.6622 18.0116 18.5407C18.0394 18.5004 18.0659 18.4596 18.0951 18.4147C18.1132 18.387 18.1323 18.3576 18.1533 18.3258C18.1866 18.3615 18.2178 18.3991 18.2467 18.4384C18.2659 18.4868 18.2976 18.5294 18.3384 18.5618C18.3793 18.5942 18.4279 18.6154 18.4795 18.6231C18.5311 18.6309 18.5838 18.6249 18.6324 18.6059C18.6809 18.5869 18.7237 18.5555 18.7563 18.5148C18.837 18.4456 18.901 18.3591 18.9437 18.2617C18.9863 18.1643 19.0065 18.0586 19.0027 17.9524C18.9959 17.6554 18.9813 17.3584 18.9656 17.0614C18.955 16.9832 18.9392 16.9058 18.9183 16.8297C18.8891 16.846 18.8617 16.8607 18.8358 16.8747C18.776 16.907 18.724 16.935 18.6753 16.968C18.4424 17.1233 18.3806 17.1041 18.2906 16.8443C18.2794 16.8107 18.268 16.7766 18.2535 16.7441C18.1781 16.581 18.1151 16.5619 18.0003 16.6935C17.9208 16.7848 17.851 16.8852 17.7782 16.9899C17.7459 17.0363 17.7131 17.0835 17.6786 17.1311C17.571 17.0478 17.569 16.9277 17.567 16.8073C17.5653 16.6986 17.5635 16.5895 17.4839 16.5068C17.5642 16.4308 17.6372 16.3475 17.7022 16.2581C17.7737 16.1478 17.8258 16.0261 17.8563 15.8982C17.8878 15.7351 17.8282 15.6788 17.6628 15.6878C17.5914 15.6917 17.5202 15.701 17.4491 15.7103C17.3779 15.7196 17.3068 15.7289 17.2354 15.7328C17.1895 15.7418 17.1421 15.7377 17.0985 15.7209C17.0549 15.7042 17.0168 15.6755 16.9888 15.6382C16.9607 15.6008 16.9437 15.5564 16.9398 15.5098C16.9359 15.4633 16.9451 15.4166 16.9665 15.3751C16.9938 15.3184 17.0074 15.256 17.0062 15.1931C17.0049 15.1301 16.9888 15.0684 16.9592 15.0129C16.9296 14.9573 16.8874 14.9095 16.8359 14.8733C16.7844 14.8372 16.725 14.8136 16.6627 14.8047C16.5272 14.7773 16.3871 14.7812 16.2532 14.8159C15.8999 14.9193 15.5538 15.0459 15.2171 15.1951C14.9917 15.2725 14.753 15.3039 14.5152 15.2873V15.0691C14.5298 14.7755 14.4904 14.7237 14.2002 14.6686C14.1701 14.6619 14.1397 14.657 14.109 14.6539C14.0519 14.6409 13.992 14.6476 13.9391 14.6729C13.8862 14.6982 13.8434 14.7407 13.8177 14.7935C13.7485 14.9025 13.669 15.0046 13.5803 15.0983C13.5695 14.955 13.5774 14.8109 13.604 14.6697C13.7194 14.1067 13.7524 13.5299 13.7018 12.9575C13.6712 12.8047 13.6108 12.6594 13.5241 12.53C13.4723 12.4366 13.3778 12.4321 13.2833 12.4906C13.0639 12.5994 12.8771 12.7642 12.7416 12.9682C12.6061 13.1722 12.5268 13.4083 12.5116 13.6527C12.5093 13.7247 12.5015 13.7967 12.4936 13.8676C12.3655 14.906 12.3316 15.9539 12.3923 16.9984C12.4621 17.3315 12.4034 17.6786 12.2281 17.9703C12.218 17.982 12.2103 17.9956 12.2057 18.0103C12.2011 18.025 12.1995 18.0405 12.2011 18.0559C12.2045 18.0666 12.2078 18.0782 12.2112 18.0902C12.2271 18.146 12.2452 18.2097 12.2832 18.2291C12.3109 18.2405 12.336 18.2574 12.3571 18.2786C12.3782 18.2999 12.3948 18.3251 12.4061 18.3529C12.4173 18.3806 12.4228 18.4103 12.4224 18.4403C12.422 18.4702 12.4156 18.4998 12.4036 18.5272C12.3631 18.6532 12.3072 18.7738 12.2371 18.8861C12.1665 18.9852 12.1299 19.1047 12.133 19.2264C12.136 19.3481 12.1785 19.4655 12.254 19.5611C12.2856 19.6132 12.3361 19.6512 12.3949 19.6671C12.4538 19.683 12.5165 19.6757 12.5701 19.6466C13.073 19.4598 13.5769 19.2731 14.0922 19.128C14.3447 19.0657 14.5882 18.9712 14.8166 18.8467L14.8396 18.8335C15.0131 18.7332 15.1878 18.6323 15.3656 18.5396C15.4208 18.5165 15.4802 18.5051 15.54 18.5058C15.6526 18.5101 15.7654 18.5063 15.8775 18.4946Z" fill="black"/>
</svg>
