<svg width="20" height="21" viewBox="0 0 20 21" fill="none" xmlns="http://www.w3.org/2000/svg">
<path fill-rule="evenodd" clip-rule="evenodd" d="M16.1109 8.69737C16.1724 8.67654 16.2316 8.6494 16.2875 8.61638C16.4386 8.50673 16.5887 8.39542 16.7388 8.28407C16.9151 8.15327 17.0915 8.02243 17.2696 7.89422C17.3016 7.87143 17.338 7.85466 17.3754 7.83747C17.4155 7.81903 17.4567 7.8001 17.4945 7.77274C17.4283 7.75582 17.3588 7.75669 17.293 7.77525C17.2272 7.79382 17.1675 7.82943 17.1199 7.87847C16.9756 8.02015 16.8194 8.14923 16.6531 8.2643C16.6344 8.27599 16.6134 8.28372 16.5916 8.28701C16.5697 8.2903 16.5474 8.28908 16.526 8.28342C16.6394 8.18251 16.7373 8.06571 16.8346 7.94969C17.0267 7.72042 17.2164 7.49414 17.5181 7.39928L17.7577 7.71087L17.625 7.88185L17.7701 8.03371C17.7701 8.00729 17.7682 7.984 17.7666 7.96349C17.7638 7.92901 17.7617 7.9023 17.7701 7.88185C17.7785 7.86522 17.7868 7.84754 17.7952 7.82959C17.8293 7.75649 17.8655 7.6788 17.9242 7.649C17.9469 7.63623 17.9724 7.62904 17.9984 7.62804C18.0244 7.62704 18.0504 7.63225 18.074 7.64324C18.0976 7.65423 18.1183 7.67069 18.1343 7.69125C18.1503 7.71181 18.1612 7.73589 18.1661 7.76149C18.1721 7.78347 18.2348 7.79214 18.2811 7.79853L18.2977 7.80086L18.2992 7.80105C18.3886 7.81222 18.4741 7.82291 18.4428 7.94372L18.7892 7.8841L18.6003 8.17431L18.6284 8.19231L18.7409 8.13832L18.7577 8.16531L18.4203 8.40716C18.4462 8.51177 18.4462 8.51177 18.7161 8.48028L18.8432 8.70525C18.6218 8.7426 18.4138 8.83635 18.2392 8.97746C18.2173 8.9863 18.1848 8.98148 18.1466 8.9758C18.0632 8.96341 17.9522 8.94694 17.8635 9.05958L18.1233 9.22043L18.0535 9.24224C17.9578 9.2721 17.8794 9.29655 17.7982 9.32392C17.7656 9.33517 17.7161 9.35542 17.7116 9.37792C17.6877 9.51158 17.5921 9.53936 17.4948 9.56761C17.4685 9.57525 17.4421 9.58294 17.4169 9.59276C17.3801 9.60672 17.3466 9.62853 17.313 9.65035C17.287 9.66724 17.261 9.68413 17.2336 9.69738C17.2194 9.7042 17.2048 9.71205 17.1901 9.71999C17.1393 9.74737 17.0865 9.77584 17.0412 9.76712C16.9045 9.74213 16.7909 9.79204 16.6774 9.84188C16.6172 9.86833 16.557 9.89476 16.4934 9.90997C16.4082 9.93553 16.3248 9.96672 16.2437 10.0033V9.96059C16.2038 9.94143 16.166 9.92279 16.1264 9.90324L16.0693 9.8751C16.0371 9.85926 16.0029 9.83914 15.9678 9.8184C15.9356 9.79938 15.9025 9.77983 15.8691 9.76262L15.0997 10.0607C15.03 9.96509 14.9456 9.90547 14.8185 9.97634C14.7262 10.027 14.706 10.0697 14.8039 10.1383C14.9861 10.2688 14.9737 10.3689 14.7645 10.4645C14.6753 10.5053 14.5848 10.5439 14.4941 10.5826C14.4122 10.6175 14.3298 10.6527 14.2482 10.6895V10.739C14.3012 10.7607 14.3568 10.7754 14.4135 10.7829C14.4897 10.7829 14.5659 10.7801 14.642 10.7773C14.7535 10.7733 14.865 10.7692 14.976 10.7739C15.1609 10.7779 15.3454 10.7941 15.5283 10.8222C15.5675 10.8288 15.602 10.8627 15.6296 10.8898C15.6399 10.8999 15.6493 10.9092 15.6576 10.9156L15.5125 11.1406C15.5087 11.1464 15.5051 11.1529 15.5015 11.1595C15.4925 11.1758 15.4834 11.1923 15.4698 11.1979C15.4143 11.2154 15.358 11.23 15.301 11.2418V11.0922C15.174 11.0612 15.1724 11.1529 15.1704 11.263C15.1702 11.2767 15.1699 11.2907 15.1694 11.3048L15.0986 11.1991C15.0677 11.1944 15.0398 11.1906 15.0141 11.1871C14.965 11.1803 14.9236 11.1746 14.8837 11.1664C14.7982 11.1484 14.6587 11.2699 14.6587 11.3588C14.655 11.3771 14.6468 11.3942 14.6348 11.4085C14.6228 11.4229 14.6075 11.434 14.5901 11.4409C14.4156 11.4695 14.2394 11.486 14.0626 11.4904C13.9761 11.4784 13.8922 11.4525 13.814 11.4139L13.8983 11.7143C13.8679 11.7009 13.841 11.6866 13.8167 11.6736C13.7692 11.6482 13.7316 11.628 13.6959 11.631C13.5812 11.6437 13.4681 11.6682 13.3584 11.7041C13.3414 11.7092 13.3301 11.7289 13.3183 11.7496C13.3089 11.7658 13.2993 11.7826 13.2864 11.793C13.1676 11.888 13.109 11.8006 13.0488 11.7109L13.0412 11.6996L12.8455 11.7862L12.9917 11.8582C12.9174 11.8706 12.8452 11.8813 12.7749 11.8918C12.6218 11.9146 12.4773 11.936 12.337 11.9707C12.2343 12.0125 12.1378 12.0681 12.0502 12.1361C12.046 12.1361 12.0434 12.1411 12.0407 12.1464C12.0383 12.1511 12.0359 12.1559 12.0322 12.1574C11.9671 12.1832 11.9081 12.2221 11.8589 12.2719C11.8097 12.3217 11.7714 12.3812 11.7465 12.4465L11.6959 12.2913L11.4641 12.3678L11.544 12.559C11.5227 12.5424 11.507 12.529 11.4946 12.5183C11.4742 12.5009 11.4624 12.4908 11.4484 12.4859C11.4343 12.4811 11.4184 12.4747 11.402 12.4682C11.3528 12.4485 11.2996 12.4271 11.2819 12.4432C11.1989 12.5195 11.0999 12.5304 11.0009 12.5412C10.9657 12.545 10.9306 12.5489 10.8961 12.5556C10.8005 12.5736 10.7431 12.6164 10.7454 12.7255C10.7454 12.748 10.697 12.7907 10.6711 12.7907C10.5785 12.7907 10.486 12.7858 10.3869 12.7806C10.3439 12.7783 10.2997 12.7759 10.2538 12.7739L10.2403 12.613L10.1019 12.6276C10.1097 12.6564 10.1285 12.6852 10.1471 12.7138C10.1956 12.7882 10.2427 12.8606 10.0907 12.9224L9.90396 12.5365L9.81959 12.8897L9.74648 12.7772L9.62837 12.9224L9.51588 12.7379L9.51539 12.7391C9.36515 13.1012 9.36377 13.1045 9.13005 13.0562C9.10383 13.0511 9.08138 13.029 9.05782 13.0059C9.04499 12.9932 9.03184 12.9803 9.01757 12.9696L9.03219 12.9235L8.89271 12.9628C8.89961 12.9726 8.90607 12.9804 8.91162 12.9872C8.92143 12.9991 8.92839 13.0075 8.92983 13.0168C8.93909 13.0693 8.94458 13.1199 8.95062 13.1755L8.95232 13.1912C8.90331 13.1967 8.85368 13.1929 8.80609 13.1799C8.73475 13.143 8.66779 13.0986 8.60147 13.0546C8.57892 13.0396 8.55643 13.0247 8.53388 13.0101C8.54833 13.0559 8.56329 13.1013 8.57818 13.1465C8.61774 13.2666 8.65682 13.3852 8.68461 13.5062C8.69276 13.5442 8.65791 13.5939 8.62641 13.6388C8.61877 13.6497 8.61133 13.6603 8.60474 13.6704C8.56583 13.6597 8.52814 13.645 8.49226 13.6265L8.44389 13.6918L7.96357 13.6254C7.96093 13.6182 7.95892 13.609 7.95677 13.5991C7.94613 13.5502 7.93209 13.4857 7.82072 13.5793C7.7979 13.5958 7.77072 13.6052 7.74259 13.6063C7.71445 13.6074 7.68662 13.6002 7.66258 13.5855C7.63854 13.5708 7.61937 13.5494 7.60748 13.5239C7.59559 13.4983 7.59151 13.4699 7.59574 13.442C7.62459 13.29 7.66215 13.1398 7.70823 12.9921C7.58163 13.0289 7.45824 13.0759 7.33927 13.1327C7.30553 13.1507 7.3089 13.2677 7.32128 13.3341C7.32692 13.3643 7.33936 13.3904 7.35004 13.4128C7.36276 13.4395 7.373 13.4609 7.36627 13.478C7.34527 13.5253 7.32122 13.5711 7.29428 13.6153C7.27023 13.6424 7.24304 13.6666 7.21329 13.6873C7.18291 13.6571 7.15714 13.6226 7.1368 13.5849C7.13046 13.5664 7.13387 13.5439 7.13703 13.5229C7.14004 13.503 7.14283 13.4845 7.1368 13.4724C7.1071 13.419 7.06458 13.3737 7.01306 13.3408C6.99844 13.3318 6.93207 13.388 6.90733 13.4252L6.90253 13.4325C6.85575 13.504 6.85549 13.5044 6.68235 13.4184C6.65437 13.4584 6.65239 13.5092 6.65035 13.5614C6.64665 13.656 6.64277 13.7553 6.48325 13.8031L6.66436 13.9685L6.63961 14.0045L6.85108 14.0506V14.09L6.51363 14.0708L6.61374 14.2272L6.64298 14.2126V14.1383C6.66661 14.1383 6.70935 14.1473 6.71048 14.153C6.71007 14.1907 6.70669 14.2283 6.70035 14.2654L6.79822 14.2879C6.73635 14.433 6.63511 14.4162 6.5215 14.3543L6.12667 14.8234H5.87695V14.8594L6.01081 14.9066C5.97594 15.09 5.92757 15.1158 5.60699 15.1316C5.61616 15.1475 5.6292 15.168 5.6425 15.1889C5.67162 15.2347 5.70203 15.2825 5.69585 15.2879C5.61347 15.357 5.52412 15.4173 5.42926 15.4679C5.35324 15.5034 5.2751 15.5342 5.19529 15.5602L5.35502 15.73L5.18404 15.9212L5.07943 15.6884L5.01306 15.7503C5.02881 15.8252 5.04456 15.9021 5.0603 15.9809L5.01081 16.0056L4.85783 15.7941L4.82296 15.8087C4.82891 15.8236 4.83643 15.8387 4.84395 15.8538C4.86201 15.8901 4.88013 15.9265 4.87695 15.9606C4.86178 16.0232 4.83712 16.0832 4.80384 16.1383C4.76824 16.1029 4.73481 16.0653 4.70372 16.0258C4.69346 16.0115 4.68554 15.9957 4.67739 15.9795C4.66768 15.9602 4.65766 15.9402 4.64298 15.9212C4.639 15.9603 4.65015 16.0032 4.66123 16.0458C4.68774 16.1479 4.7138 16.2481 4.53049 16.2902L4.50462 16.1642L4.37301 16.4027H4.34377L4.37076 16.2036L4.27965 16.3273L4.14467 16.018L4.09405 16.0315C4.11365 16.0951 4.12573 16.1608 4.13004 16.2272C4.12044 16.2963 4.10347 16.3642 4.07942 16.4297C4.01932 16.4144 3.96062 16.3941 3.90395 16.3689C3.89195 16.3629 3.89236 16.3321 3.89273 16.3034C3.89285 16.2944 3.89297 16.2856 3.8927 16.2778C3.89195 16.2561 3.8922 16.2233 3.89245 16.1906L3.8927 16.1428L3.82408 16.1338C3.82057 16.1528 3.81488 16.1725 3.80918 16.1922C3.7966 16.2357 3.784 16.2793 3.79484 16.3149L3.80162 16.3364C3.83098 16.4287 3.85694 16.5103 3.77234 16.5939C3.76061 16.6056 3.76417 16.6317 3.76807 16.6603C3.77016 16.6755 3.77234 16.6915 3.77234 16.7064L3.53724 16.6771L3.58674 16.7694C3.4505 16.7941 3.44924 16.892 3.4478 17.0032C3.44741 17.0334 3.447 17.0646 3.44388 17.0956L3.15479 16.7266L2.88595 16.9516L3.05693 16.9977L2.8927 17.2519L2.76896 17.1158C2.91519 17.0112 2.91069 16.991 2.74421 16.9077C2.7152 16.8851 2.69622 16.852 2.69135 16.8155C2.69025 16.7658 2.67916 16.7168 2.65873 16.6715L2.6306 16.739C2.53355 16.673 2.54733 16.5884 2.56139 16.502C2.57129 16.4412 2.58133 16.3795 2.55299 16.3228L2.50912 16.3487L2.19528 15.8267L2.06255 16L1.97368 15.775L1.92982 15.7874C1.94536 15.8713 1.96564 15.9543 1.99056 16.036L1.99613 16.0511C2.01242 16.0953 2.02061 16.1175 2.01475 16.1351C2.00882 16.1528 1.98853 16.1657 1.94772 16.1917L1.94669 16.1923C1.93666 16.1988 1.93211 16.2143 1.92548 16.237C1.92169 16.2499 1.91723 16.2651 1.91069 16.2823L1.83195 16.1057L1.74534 16.1867C1.74534 16.1506 1.74206 16.12 1.73855 16.0873C1.73702 16.073 1.73545 16.0584 1.73409 16.0427L1.6216 16.1046V15.7818C1.51924 15.7907 1.48437 15.7323 1.50912 15.6085C1.54432 15.4968 1.5554 15.3788 1.54163 15.2625C1.52786 15.1461 1.48956 15.034 1.42925 14.9336C1.39365 14.8807 1.42802 14.7734 1.45701 14.683C1.4619 14.6677 1.46665 14.6529 1.47087 14.6389C1.5253 14.5164 1.57189 14.3905 1.61035 14.2621C1.68193 13.9721 1.86081 13.72 2.11092 13.5568C2.15215 13.5219 2.19733 13.4906 2.24199 13.4596C2.27653 13.4357 2.31076 13.4119 2.34264 13.3869C2.36013 13.3716 2.36912 13.3469 2.38032 13.316C2.38641 13.2993 2.39315 13.2807 2.40226 13.2609C2.33329 13.2511 2.26303 13.2561 2.19613 13.2755C2.12922 13.2949 2.0672 13.3282 2.01418 13.3734C1.83533 13.5557 1.6441 13.7266 1.45175 13.8909C1.75374 13.4838 2.14161 13.1481 2.58786 12.9077L2.67447 13.2452C2.91023 13.1569 3.11696 13.005 3.27177 12.8065L2.70934 13.0427L2.66885 13.0045C2.70472 12.9372 2.74853 12.8745 2.79933 12.8177C2.87686 12.7521 2.96136 12.6951 3.0513 12.6479C3.19593 12.5683 3.34055 12.49 3.48518 12.4117C3.67801 12.3073 3.87084 12.2029 4.06368 12.0956L4.1448 12.0499C4.38125 11.9168 4.61812 11.7835 4.84321 11.6321C5.20384 11.3962 5.60751 11.2337 6.03106 11.1541C6.12429 11.1332 6.2128 11.095 6.29203 11.0416C6.34135 11.0025 6.37587 10.9477 6.38989 10.8864C6.38989 10.8731 6.34014 10.8454 6.29643 10.821C6.28439 10.8143 6.27274 10.8078 6.26278 10.802C6.25862 10.7996 6.25406 10.7977 6.24934 10.7957C6.2362 10.7902 6.22179 10.7842 6.21104 10.766C6.31804 10.7772 6.42432 10.7945 6.52937 10.8177C6.59911 10.8391 6.65648 10.8864 6.58337 10.9763C6.55268 11.0203 6.53406 11.0715 6.52937 11.1248C6.51647 11.2289 6.50935 11.3341 6.5022 11.4396C6.49938 11.4812 6.49656 11.5229 6.49338 11.5646L6.55637 11.5815L6.65986 11.4409C6.77469 11.4754 6.87851 11.5393 6.96099 11.6264C7.04347 11.7134 7.10176 11.8205 7.13005 11.937L7.23579 11.7896L6.96807 11.4983C7.14372 11.1821 7.43319 11.108 7.72032 11.0345C7.80094 11.0138 7.8814 10.9932 7.95907 10.9673C8.02426 10.9458 8.08756 10.919 8.15094 10.8922C8.19691 10.8727 8.24298 10.8532 8.28978 10.8357C8.32633 10.825 8.36418 10.8193 8.40227 10.8189C8.5168 10.8045 8.63218 10.7981 8.7476 10.7997C8.8253 10.8137 8.90091 10.8375 8.97257 10.8706L9.20429 10.6771C8.83729 10.5818 8.45835 10.5405 8.07943 10.5545C7.97196 10.5864 7.86882 10.6313 7.77235 10.6884C7.76509 10.5454 7.67582 10.558 7.57391 10.5723L7.54737 10.5759C7.51545 10.5759 7.4827 10.5675 7.4498 10.5591C7.41662 10.5507 7.38328 10.5421 7.35052 10.5421C7.2065 10.5412 7.06257 10.5498 6.9197 10.568C6.83625 10.5802 6.75334 10.5983 6.67057 10.6164C6.5849 10.6351 6.49932 10.6539 6.41351 10.6659C6.38177 10.6704 6.34699 10.6511 6.31223 10.6318C6.29525 10.6223 6.27827 10.6129 6.26166 10.6063C6.16913 10.5541 6.06471 10.5267 5.95851 10.5267C5.8523 10.5267 5.74789 10.5541 5.65536 10.6063C5.62673 10.6256 5.60954 10.6614 5.59234 10.6972C5.58047 10.722 5.56861 10.7467 5.55299 10.766C5.52484 10.8008 5.49059 10.8368 5.45518 10.874C5.44251 10.8873 5.42962 10.9008 5.41688 10.9145C5.3359 10.7176 5.16154 10.6704 4.86458 10.7874C4.88201 10.7421 4.89504 10.6972 4.90729 10.655C4.93221 10.5692 4.95393 10.4944 5.00294 10.4499C5.17197 10.3169 5.34849 10.1937 5.53162 10.081C5.58931 10.0372 5.64451 9.99025 5.69698 9.94035C5.71355 9.92241 5.73121 9.90551 5.74984 9.88973C5.81169 9.84758 5.87373 9.80599 5.93573 9.76443C6.02586 9.704 6.11615 9.64346 6.20541 9.58151C6.23501 9.56274 6.25695 9.53402 6.26728 9.50053C6.28843 9.41445 6.32848 9.33416 6.38451 9.26548C6.44055 9.1968 6.51116 9.14145 6.59124 9.10345C6.59927 9.0981 6.61008 9.09712 6.63006 9.09532C6.64367 9.09409 6.66157 9.09247 6.68573 9.08883L6.55187 9.32055L6.59462 9.35542C6.5972 9.33559 6.60838 9.33393 6.62169 9.33196C6.64311 9.32879 6.67005 9.32479 6.6756 9.24293C6.72221 8.99981 6.85281 8.78082 7.04456 8.62426C7.06369 8.60513 7.09807 8.60012 7.1317 8.59522C7.14552 8.59321 7.15922 8.59121 7.17167 8.58826C7.18705 8.58462 7.20463 8.5836 7.22129 8.58263C7.25092 8.58091 7.27768 8.57935 7.28415 8.56352C7.35052 8.43866 7.44389 8.45778 7.5395 8.5084C7.61813 8.55215 7.69333 8.60179 7.76447 8.65688C7.84922 8.72044 7.93193 8.78654 8.01911 8.85622C8.06153 8.89013 8.10501 8.92488 8.1503 8.96059L8.06256 8.99996L8.30328 9.02921V8.93809C8.3658 8.93809 8.42841 8.92955 8.49089 8.92102C8.63863 8.90086 8.78561 8.8808 8.9287 8.97409H8.79035L8.92983 9.10007H8.68461V9.16194H9.41577L9.42927 9.19906L9.06256 9.3318C9.1683 9.46115 9.31341 9.46228 9.55188 9.31155L9.5215 9.44653L9.89271 9.34529L9.7881 9.21031L10.8677 9.38844L10.7589 9.41279L11.1154 9.51515V9.57139L10.7409 9.72325C10.8533 9.72325 10.8668 9.78174 10.8173 9.8751C10.8543 9.85256 10.8888 9.82673 10.9223 9.80173C10.9906 9.75066 11.0542 9.70306 11.1244 9.694C11.2547 9.69851 11.3834 9.72357 11.5058 9.76824L11.4473 9.91222L11.4709 9.9336L11.8083 9.72775L11.8162 9.69738H11.6936C12.1366 9.5868 12.5427 9.36182 12.8713 9.04496C12.934 9.00296 13.0022 8.96966 13.0738 8.94597L13.0786 9.04819C13.0827 9.13915 13.0863 9.21814 13.0929 9.29693C13.0929 9.31265 13.0998 9.32805 13.1066 9.34347C13.1125 9.35673 13.1184 9.37002 13.1199 9.38354C13.1404 9.64237 13.3335 9.71471 13.5174 9.78362C13.5557 9.79796 13.5936 9.81216 13.6295 9.82786C13.6905 9.84562 13.7555 9.84437 13.8158 9.82427C13.8761 9.80418 13.9288 9.76619 13.967 9.71537C14.0643 9.63119 14.1689 9.5559 14.2797 9.4904C14.2703 9.46127 14.2588 9.42776 14.2463 9.39108C14.2167 9.30452 14.181 9.20031 14.1526 9.09445C14.1287 9.0053 14.1117 8.91405 14.0947 8.82285C14.0869 8.78057 14.079 8.7383 14.0704 8.69625C14.0677 8.68138 14.0658 8.66635 14.0648 8.65125C14.0491 8.43303 14.0513 8.42628 14.2066 8.2598C14.2244 8.24228 14.2358 8.21933 14.2392 8.19456C14.2446 8.10822 14.2752 8.02537 14.3272 7.95621C14.3791 7.88705 14.4502 7.83461 14.5316 7.80536C14.7195 7.67756 14.8695 7.50155 14.9658 7.2958C15.0029 7.23037 15.0467 7.16893 15.0963 7.11244C15.217 7.01997 15.2975 6.88466 15.3213 6.73449C15.3213 6.71222 15.3392 6.69147 15.3578 6.67003C15.371 6.65465 15.3846 6.63892 15.3922 6.622C15.4066 6.58347 15.4146 6.5428 15.4158 6.50164V6.31379H15.4686C15.4686 6.35091 15.4686 6.38803 15.463 6.42628L15.4979 6.4409C15.5275 6.38745 15.5565 6.33348 15.5854 6.27949C15.6508 6.15738 15.7163 6.03518 15.7904 5.91897C15.8422 5.82074 15.92 5.73864 16.0153 5.68162C16.1306 5.62374 16.2333 5.54352 16.3173 5.44561C16.4013 5.3477 16.465 5.23407 16.5046 5.11132C16.5868 4.92009 16.634 4.88634 16.8174 4.97971C16.8639 5.01311 16.9204 5.02974 16.9776 5.02688C17.0348 5.02402 17.0893 5.00184 17.1323 4.96396C17.1455 4.95282 17.167 4.95159 17.2017 4.9496C17.223 4.94838 17.2494 4.94687 17.2819 4.94259L16.9737 5.35541C16.9843 5.37027 16.9938 5.38691 17.0031 5.40319C17.0234 5.43868 17.0427 5.4725 17.0704 5.48252C17.1422 5.50991 17.2204 5.51577 17.2954 5.49939C17.4327 5.4589 17.472 5.52976 17.4574 5.63213C17.4327 5.78502 17.3951 5.93555 17.3449 6.08207C17.3358 6.1102 17.3025 6.13011 17.2691 6.15013C17.253 6.15973 17.2369 6.16936 17.2234 6.17993C17.2502 6.19397 17.2733 6.21413 17.2909 6.23877C17.3084 6.26342 17.3199 6.29185 17.3244 6.32177C17.3289 6.35169 17.3263 6.38225 17.3168 6.41096C17.3072 6.43967 17.291 6.46573 17.2696 6.48702C17.2385 6.52725 17.2138 6.57202 17.1964 6.61975C17.0792 6.94654 16.9232 7.2581 16.7319 7.54777C16.7027 7.60615 16.6829 7.66879 16.6734 7.73337C16.7059 7.69657 16.7364 7.6581 16.7668 7.61981C16.8636 7.49773 16.9591 7.37738 17.1132 7.31829L17.1649 7.34417C17.1466 7.42332 17.1163 7.49919 17.0749 7.56914C16.9962 7.66756 16.9059 7.75827 16.8156 7.84898C16.7769 7.88786 16.7382 7.92673 16.7004 7.96621C16.6564 8.02064 16.6014 8.06513 16.5389 8.09674C16.4765 8.12834 16.4081 8.14635 16.3382 8.14957C16.2854 8.14957 16.2342 8.1827 16.1826 8.21606C16.134 8.24746 16.0852 8.27906 16.0345 8.28342C15.958 8.28816 15.8836 8.3099 15.8167 8.34707C15.7497 8.38424 15.6919 8.4359 15.6475 8.49827C15.6123 8.54228 15.547 8.5619 15.4808 8.58176C15.4455 8.59236 15.41 8.60303 15.3787 8.61751C15.3261 8.64076 15.2795 8.67578 15.2425 8.71987L15.2849 8.7228C15.4308 8.7334 15.566 8.74322 15.6655 8.58826C15.8472 8.41609 16.0838 8.31335 16.3337 8.29805L16.1087 8.69625C16.0094 8.74097 15.9057 8.77528 15.7994 8.79861C15.6275 8.80512 15.4634 8.87204 15.3359 8.98759C15.3394 8.98759 15.3428 8.9875 15.3462 8.98734C15.4724 8.87536 15.6336 8.81049 15.8023 8.80392C15.9083 8.78106 16.0116 8.74712 16.1106 8.70267L16.1133 8.70046C16.1125 8.69943 16.1117 8.6984 16.1109 8.69737ZM16.7143 8.78105C16.7562 8.76575 16.7979 8.74961 16.8397 8.73343C16.929 8.6989 17.0189 8.66412 17.113 8.63652C17.0178 8.66401 16.9271 8.69927 16.8371 8.73423C16.7961 8.75015 16.7553 8.76601 16.7143 8.78105ZM17.1842 8.61775C17.1309 8.66795 17.0727 8.71261 17.0104 8.75104C16.8044 8.8399 16.6266 8.98345 16.4964 9.16612C16.4851 9.18286 16.469 9.1958 16.4503 9.20324C16.3583 9.23476 16.2891 9.27511 16.2621 9.33922C16.29 9.27651 16.3589 9.23687 16.4495 9.20581C16.4685 9.1982 16.4846 9.18482 16.4956 9.16757C16.6264 8.9846 16.8041 8.84038 17.0104 8.75104C17.0729 8.71246 17.1318 8.66794 17.1852 8.61751C17.1849 8.61759 17.1845 8.61767 17.1842 8.61775ZM16.2803 9.53752C16.2723 9.56258 16.2058 9.61486 16.1558 9.65411C16.1481 9.66016 16.1408 9.6659 16.1342 9.67118C16.0958 9.69605 16.0551 9.71714 16.0127 9.73417C16.0116 9.72558 16.0116 9.71689 16.0127 9.7083C16.0129 9.70777 16.0131 9.70724 16.0134 9.70672C16.0125 9.70847 16.0116 9.71023 16.0108 9.712C16.0097 9.72096 16.0097 9.73003 16.0108 9.739C16.0533 9.72161 16.094 9.70014 16.1323 9.67488L16.1538 9.65792C16.2065 9.61653 16.2781 9.5602 16.2803 9.53752ZM16.1067 9.57546C16.1143 9.54836 16.1062 9.51861 16.0655 9.48333C16.021 9.43785 15.964 9.4067 15.9016 9.39388C15.8393 9.38105 15.7746 9.38713 15.7157 9.41133C15.697 9.41993 15.6787 9.4292 15.6607 9.43912C15.6778 9.43052 15.6951 9.42249 15.7127 9.41504C15.7718 9.39074 15.8367 9.38461 15.8992 9.39743C15.9617 9.41026 16.019 9.44145 16.0637 9.48703C16.1019 9.521 16.1117 9.54965 16.1067 9.57546ZM15.2229 9.56518C15.2145 9.49886 15.2127 9.43189 15.2174 9.36521C15.2225 9.34606 15.2315 9.32814 15.2436 9.31249C15.2558 9.29684 15.271 9.28379 15.2883 9.27411C15.3395 9.24849 15.3907 9.22544 15.4412 9.20272C15.5016 9.17556 15.5609 9.14889 15.6178 9.11887C15.675 9.08511 15.7299 9.04753 15.7821 9.00639C15.781 9.0047 15.7798 9.00303 15.7787 9.0014C15.7267 9.04248 15.672 9.07996 15.6149 9.11357C15.5694 9.13588 15.5238 9.15634 15.4788 9.17661C15.4125 9.2064 15.3471 9.23579 15.2842 9.26993C15.2667 9.27955 15.2513 9.29257 15.239 9.30822C15.2266 9.32386 15.2175 9.34182 15.2122 9.36104C15.2074 9.42818 15.2093 9.49562 15.2178 9.56239C15.2195 9.56334 15.2212 9.56427 15.2229 9.56518ZM10.8677 9.38844L10.9197 9.37679L10.913 9.39591L10.8677 9.38844Z" fill="black"/>
<path d="M15.5604 10.3819L15.5716 10.3088L15.2578 10.1446C15.4604 9.91176 15.6745 9.97352 15.8841 10.034L15.9327 10.0478C15.9001 10.0564 15.8687 10.0693 15.8394 10.0861C15.7928 10.1169 15.7514 10.1548 15.7167 10.1986C15.6769 10.2661 15.6412 10.3359 15.6099 10.4078L15.5604 10.3819Z" fill="black"/>
<path d="M19.0006 15.4326C18.6853 15.5842 18.3262 15.6177 17.9883 15.5271C18.141 15.6336 18.3265 15.6825 18.5118 15.6652C18.6971 15.6479 18.8703 15.5655 19.0006 15.4326Z" fill="black"/>
<path d="M1.26997 14.0447L1.04499 14.3608L1 14.3394L1.21035 14.002L1.26997 14.0447Z" fill="black"/>
</svg>
