<svg width="20" height="21" viewBox="0 0 20 21" fill="none" xmlns="http://www.w3.org/2000/svg">
<path d="M11.3127 19.2209C11.4544 18.9286 11.6446 18.6623 11.8752 18.4334C12.0721 18.3209 12.0732 18.1702 12.071 17.9688C12.0793 17.6912 12.1143 17.4151 12.1756 17.1442C12.1867 17.0865 12.2448 17.0343 12.2982 16.9861C12.3094 16.976 12.3205 16.9661 12.3308 16.9563C12.5086 16.7831 12.5401 16.6919 12.4298 16.4681C12.3461 16.3211 12.2533 16.1794 12.152 16.0439C12.1347 16.0138 12.1193 15.9826 12.1058 15.9506C12.368 15.9213 12.4501 15.9764 12.5558 16.1756C12.5662 16.1954 12.5716 16.2227 12.5771 16.251C12.5914 16.3237 12.6069 16.4025 12.7122 16.3758L12.8607 16.7516C13.0054 16.6198 13.0966 16.6971 13.1899 16.7761C13.2265 16.8071 13.2634 16.8383 13.304 16.8573C13.3793 16.8922 13.4975 16.9361 13.547 16.9023C13.5691 16.8898 13.5878 16.8718 13.601 16.85C13.6143 16.8283 13.6218 16.8035 13.6228 16.778C13.6239 16.7525 13.6183 16.7272 13.6068 16.7045C13.5953 16.6818 13.5782 16.6623 13.5571 16.6481C13.5434 16.6368 13.5574 16.5931 13.5685 16.5585C13.5729 16.5449 13.5769 16.5326 13.5785 16.5243C13.6556 16.5559 13.7359 16.5789 13.8181 16.5929C13.8366 16.5929 13.8572 16.5629 13.8781 16.5323C13.8877 16.5183 13.8974 16.5042 13.907 16.4928C13.8665 16.4905 13.8259 16.4905 13.7855 16.4928C13.7633 16.4999 13.7424 16.5106 13.7236 16.5243C13.6896 16.4632 13.6446 16.4076 13.5995 16.3519C13.4952 16.2232 13.3907 16.0941 13.4221 15.8954L13.2792 15.8797V15.7177L13.2342 15.7469C13.2145 15.7213 13.1942 15.696 13.1739 15.6707C13.1283 15.6138 13.0826 15.5567 13.043 15.4961C13.018 15.4581 12.9986 15.4166 12.9794 15.3756C12.9639 15.3425 12.9485 15.3096 12.9305 15.2789C12.9188 15.263 12.904 15.2495 12.887 15.2395C12.87 15.2294 12.8511 15.2229 12.8315 15.2204H12.2082L12.251 15.0539L11.9776 15.1124L11.9596 15.0674L12.0721 14.9774C12.0441 14.9604 12.0138 14.9475 11.9821 14.9392C11.4485 14.9195 10.9208 14.8209 10.4161 14.6467C10.3953 14.6395 10.3742 14.6333 10.3536 14.6273C10.246 14.5957 10.1498 14.5676 10.1573 14.4071C10.1043 14.3776 10.0448 14.3617 9.98408 14.3609C9.88427 14.3643 9.78474 14.3733 9.68595 14.3879L9.8187 13.8749L9.4812 13.7703L9.73095 13.3991L9.70476 13.3762C9.5167 13.2127 9.29633 13.021 9.62408 12.6836C9.50045 12.6557 9.37391 12.6429 9.2472 12.6453C8.84895 12.7162 8.65883 12.5868 8.58795 12.1953C8.56385 12.0438 8.51958 11.8963 8.45633 11.7566C8.42803 11.6892 8.37596 11.6345 8.31 11.603C8.24405 11.5714 8.1688 11.5652 8.09858 11.5856C7.80851 11.5957 7.52529 11.4961 7.30545 11.3066C7.27288 11.2804 7.23507 11.2614 7.19456 11.2511C7.15406 11.2407 7.11181 11.2392 7.07066 11.2466C7.02951 11.2539 6.99042 11.27 6.95601 11.2937C6.9216 11.3175 6.89268 11.3483 6.8712 11.3842C6.82948 11.4543 6.79243 11.5274 6.7553 11.6007C6.71735 11.6756 6.67929 11.7507 6.63608 11.8229C6.58584 11.8928 6.52936 11.9579 6.46733 12.0176L6.41333 11.9759L6.54608 11.7509C6.34245 11.7217 6.28845 11.7667 6.21758 11.9523C6.17097 12.0385 6.11391 12.1186 6.0477 12.1908C5.98277 12.2786 5.90894 12.2534 5.83582 12.2284C5.8152 12.2214 5.79462 12.2144 5.77433 12.2099C5.58989 12.1699 5.40482 12.1273 5.22098 12.0851L5.02958 12.0412C4.99983 12.0338 4.97451 12.0101 4.94191 11.9796C4.92519 11.964 4.90657 11.9466 4.88445 11.9287L5.09483 11.8814C5.09483 11.8725 5.09629 11.864 5.09764 11.8562C5.10002 11.8424 5.10202 11.8308 5.09483 11.8229C5.03929 11.7807 4.97179 11.7572 4.90205 11.7558C4.8323 11.7544 4.76391 11.7751 4.7067 11.8151C4.68827 11.8463 4.6637 11.8735 4.63448 11.895C4.60526 11.9165 4.57199 11.9319 4.53667 11.9402C4.50135 11.9485 4.46472 11.9495 4.42898 11.9433C4.39324 11.9371 4.35913 11.9237 4.3287 11.9039C4.2701 11.8732 4.21841 11.8308 4.17681 11.7793C4.13521 11.7279 4.10459 11.6684 4.08683 11.6047C4.03845 11.4427 3.8472 11.4573 3.71783 11.6193L3.49283 11.2582C3.48944 11.2527 3.48685 11.2459 3.48428 11.2392C3.48001 11.228 3.4758 11.217 3.46808 11.2121C3.28583 11.0928 3.38933 10.9949 3.51308 10.8982L3.4647 10.8622L3.25545 10.9893L3.11258 10.6462H3.0597C3.0597 10.6669 3.05629 10.6903 3.05289 10.7136C3.04616 10.7597 3.03952 10.8053 3.0597 10.8284C3.07801 10.8446 3.09212 10.8649 3.10084 10.8877C3.10955 10.9105 3.1126 10.9351 3.10972 10.9593C3.10684 10.9835 3.09813 11.0067 3.08432 11.0268C3.07051 11.0469 3.05203 11.0634 3.03045 11.0748C2.98585 11.0935 2.93737 11.1012 2.88917 11.0971C2.84097 11.0929 2.79449 11.0772 2.7537 11.0512C2.72612 11.0135 2.69005 10.9829 2.64841 10.9618C2.60678 10.9407 2.56076 10.9297 2.51408 10.9297C2.47254 10.9246 2.43342 10.9073 2.40158 10.8802C2.37119 10.8579 2.3424 10.8329 2.31376 10.808C2.27879 10.7776 2.24406 10.7474 2.20695 10.7227C2.13945 10.6777 2.0832 10.6271 2.1957 10.5697C2.31116 10.5103 2.42787 10.4534 2.55275 10.3925L2.68508 10.3278L2.85383 10.0297L2.61308 9.88456C2.66214 9.77762 2.62562 9.6711 2.58862 9.56314C2.54076 9.42353 2.49208 9.28152 2.62658 9.13306H2.4477C2.45619 9.27057 2.46404 9.40679 2.47173 9.54029L2.4792 9.66969L2.08883 9.70006L2.14733 9.86319L2.0022 9.92506C1.99927 9.8726 1.99927 9.82002 2.0022 9.76756L2.2272 8.05419L2.25233 7.85951C2.32146 7.32368 2.39056 6.78804 2.46683 6.25419C2.47876 6.17472 2.51865 6.10212 2.57933 6.04944C4.30433 4.69419 6.02933 3.34119 7.75433 1.99044C7.77027 1.97052 7.7959 1.95324 7.82109 1.93627L7.83083 1.92969C8.16367 2.19066 8.43294 2.52378 8.61833 2.90394C8.65888 2.98273 8.72575 3.04482 8.80733 3.07944C8.94431 3.14436 9.08414 3.2036 9.22396 3.26284C9.34824 3.3155 9.47254 3.36817 9.59483 3.42481C9.67705 3.47208 9.75269 3.52995 9.81983 3.59694C9.91447 3.67263 10.0046 3.75377 10.0898 3.83994C10.1063 3.85993 10.1181 3.88329 10.1245 3.90837C10.131 3.93345 10.1318 3.95963 10.127 3.98506C10.118 4.01507 10.1025 4.04307 10.0861 4.07273C10.0657 4.10979 10.0438 4.14944 10.0313 4.19881C10.1885 4.00673 10.3835 4.03235 10.5664 4.0564C10.6963 4.07348 10.8201 4.08976 10.9201 4.02669C11.015 4.07431 11.1135 4.11419 11.2148 4.14594C11.3379 4.17188 11.4621 4.19271 11.5864 4.21354C11.6722 4.22794 11.7582 4.24234 11.8437 4.25844C11.8646 4.26149 11.885 4.26716 11.9045 4.27531C11.9349 4.28927 11.9646 4.30394 11.9999 4.32135C12.0272 4.3348 12.0578 4.3499 12.0946 4.36756C12.0607 4.43532 12.0776 4.5134 12.0958 4.59733C12.1205 4.71129 12.1475 4.83605 12.053 4.96044C11.9866 5.0598 11.9497 5.1759 11.9465 5.29534C11.9433 5.41478 11.974 5.53268 12.035 5.63544C12.0688 5.70463 12.0863 5.78062 12.0863 5.85763C12.0863 5.93463 12.0688 6.01062 12.035 6.07981C12.0151 6.12292 12.0257 6.17892 12.0366 6.23654C12.0441 6.27666 12.0519 6.31757 12.0496 6.35544C12.05 6.45117 12.0289 6.54576 11.9877 6.63219C11.9157 6.75481 11.9011 6.82906 12.0215 6.94381C12.1587 7.09148 12.2805 7.25283 12.3848 7.42531C12.4681 7.54569 12.4613 7.64244 12.2948 7.69081C12.2194 7.71691 12.1562 7.76974 12.1171 7.83931H12.2611C12.281 7.83931 12.302 7.8338 12.3223 7.82847C12.3514 7.82085 12.3789 7.81363 12.3995 7.82356C12.5727 7.89196 12.7346 7.98601 12.8798 8.10256C13.0082 8.24656 13.1099 8.41227 13.1802 8.59194C13.2027 8.64246 13.1909 8.70855 13.1792 8.77389C13.174 8.80311 13.1688 8.83223 13.1667 8.85969C13.2625 8.86612 13.3572 8.88349 13.4491 8.91144C13.5417 8.96221 13.6288 9.02254 13.709 9.09144L13.8068 8.71231L13.8608 8.72131C13.8608 8.75478 13.8631 8.78792 13.8654 8.82091C13.8674 8.84891 13.8693 8.8768 13.8698 8.90469L13.9103 13.3428C13.9147 13.558 13.9625 13.77 14.0508 13.9662C14.1392 14.1624 14.2663 14.3388 14.4245 14.4847C14.5286 14.5882 14.6536 14.6684 14.7911 14.7198C14.9287 14.7712 15.0756 14.7927 15.2221 14.7828C15.3484 14.7744 15.4742 14.8068 15.5807 14.8752C15.6873 14.9437 15.769 15.0446 15.8138 15.1631C15.8926 15.3284 15.9837 15.3611 16.1108 15.2103C16.1247 15.1997 16.1418 15.1941 16.1592 15.1946C16.1655 15.1946 16.1721 15.198 16.1819 15.203C16.1879 15.2061 16.1952 15.2098 16.2042 15.2137L16.139 15.3847C16.2446 15.4713 16.363 15.5411 16.49 15.5917C16.5362 15.6027 16.5837 15.6069 16.6312 15.6112C16.7395 15.621 16.8476 15.6307 16.94 15.7199C16.9636 15.7436 17.0592 15.7312 17.0963 15.7019C17.3324 15.5337 17.6079 15.429 17.8962 15.3982C17.9981 15.4 18.0992 15.4163 18.1966 15.4466L18.1947 15.4517C18.1369 15.6082 18.0858 15.7468 18.2472 15.8336C18.2086 15.9121 18.1541 15.9816 18.087 16.0378C18.02 16.094 17.942 16.1355 17.858 16.1598C17.5395 16.3524 17.2678 16.6133 17.0626 16.9237C16.9184 17.0798 16.7265 17.1834 16.517 17.2184C16.4363 17.2424 16.3637 17.2878 16.3068 17.3498C16.2499 17.4118 16.211 17.4881 16.1941 17.5706C16.1941 17.6651 16.0816 17.7506 16.0175 17.7044C15.8515 17.6098 15.666 17.5549 15.4753 17.544C15.2846 17.5331 15.094 17.5664 14.9183 17.6414C14.8721 17.6526 14.8251 17.6602 14.7777 17.6639C14.6089 17.6806 14.4459 17.7349 14.3009 17.8229C14.1558 17.9109 14.0323 18.0304 13.9396 18.1724C13.9345 18.1792 13.9281 18.1854 13.9216 18.1915C13.9151 18.1977 13.9086 18.2039 13.9036 18.2107C13.8712 18.255 13.8393 18.2998 13.8076 18.3444L13.7675 18.4008C13.8454 18.4434 13.9286 18.4756 14.015 18.4964C14.1412 18.5006 14.2676 18.4946 14.393 18.4784L14.4458 18.8834C14.0248 18.8733 13.608 18.9684 13.2331 19.1602L13.4727 19.2659C13.4228 19.2821 13.371 19.292 13.3186 19.2952C13.1661 19.2903 13.0148 19.2657 12.8686 19.2221C12.6984 19.1503 12.5078 19.143 12.3326 19.2016C12.1574 19.2602 12.0096 19.3807 11.9168 19.5404C11.8359 19.6163 11.7432 19.6786 11.6423 19.7249C11.5496 19.7934 11.4473 19.8476 11.3386 19.8858C11.184 19.9126 11.0275 19.9272 10.8706 19.9297C10.8516 19.8213 10.8463 19.7109 10.8548 19.6012C10.8717 19.5146 10.9538 19.4718 11.0506 19.5382C11.0778 19.5604 11.1123 19.5716 11.1473 19.5697C11.2388 19.5488 11.3255 19.5106 11.4027 19.4572C11.416 19.4501 11.3879 19.3886 11.3552 19.3169C11.3409 19.2856 11.3257 19.2524 11.3127 19.2209Z" fill="black"/>
<path d="M11.9751 15.7384C11.8324 15.6088 11.6542 15.5575 11.4733 15.5054C11.2663 15.4458 11.0557 15.3852 10.8906 15.2051L11.191 15.1455C11.3147 15.3525 11.3147 15.3525 11.5757 15.1804C11.6743 15.1899 11.7716 15.2099 11.866 15.24C11.9755 15.2943 12.0785 15.3607 12.1731 15.438C12.1855 15.4481 12.1529 15.5325 12.1259 15.5719C12.0795 15.6308 12.0292 15.6865 11.9751 15.7384Z" fill="black"/>
<path d="M2.45458 9.93639C2.40884 9.93879 2.36117 9.9413 2.32031 9.92676C2.36869 10.1596 2.40244 10.1776 2.63419 10.1169C2.65054 9.92607 2.55746 9.93097 2.45458 9.93639Z" fill="black"/>
<path d="M10.3594 14.9629C10.4406 14.9851 10.5202 15.0125 10.5979 15.045C10.6069 15.045 10.59 15.1508 10.5754 15.1575C10.4809 15.171 10.3864 15.1654 10.3594 14.9629Z" fill="black"/>
<path d="M10.1698 14.8114C10.2496 14.8456 10.3315 14.8746 10.4151 14.8981L10.4241 14.8351C10.3706 14.7905 10.3142 14.7495 10.2553 14.7124C10.2346 14.7009 10.206 14.7027 10.178 14.7044C10.1679 14.705 10.158 14.7057 10.1484 14.7057C10.1506 14.7176 10.1516 14.7318 10.1526 14.7459C10.1547 14.7758 10.1568 14.8053 10.1698 14.8114Z" fill="black"/>
</svg>
