<svg width="20" height="21" viewBox="0 0 20 21" fill="none" xmlns="http://www.w3.org/2000/svg">
<path d="M13.3034 16.2167C13.0921 16.1666 12.8838 16.1049 12.6793 16.0319C12.5139 15.9498 12.3546 15.8557 12.2028 15.7503L12.3842 15.6523C12.204 15.5622 11.9764 15.5622 11.9111 15.3144H12.2423C12.1668 15.1826 12.0992 15.1183 11.946 15.1488C11.7202 15.1898 11.4903 15.2042 11.2611 15.1916C11.6974 15.084 12.0928 14.8515 12.3989 14.5224C12.3651 14.2971 12.231 14.2971 12.0688 14.4425C11.9956 14.51 11.9201 14.5754 11.8435 14.6486C11.7128 14.3951 11.7376 14.2971 11.937 14.1777C11.9252 14.1355 11.9044 14.0963 11.8762 14.0627C11.848 14.0292 11.8129 14.0021 11.7733 13.9832C11.7337 13.9643 11.6906 13.9541 11.6467 13.9533C11.6029 13.9524 11.5593 13.961 11.5191 13.9784L11.5844 14.1011C11.5585 14.1153 11.5303 14.1248 11.5011 14.1293C11.4317 14.1293 11.3626 14.1195 11.296 14.1C11.055 14.0076 10.8207 13.9096 10.5773 13.815C10.6044 13.681 10.7148 13.6303 10.8117 13.5649C10.8545 13.5368 10.9243 13.4951 10.9243 13.4602C10.9243 13.3351 10.9908 13.3216 11.109 13.3475C11.0662 13.1515 11.2093 13.1324 11.3343 13.0828C11.4594 13.0332 11.5743 12.9702 11.6937 12.9059L11.6745 12.8575C11.652 12.8575 11.6238 12.8429 11.6081 12.8508C11.3818 12.9206 11.1641 13.0159 10.9592 13.1346C10.7958 13.244 10.6525 13.3808 10.5357 13.539C10.4838 13.6235 10.414 13.6032 10.3419 13.5266C10.2517 13.4448 10.1557 13.3695 10.0547 13.3013L10.0209 13.3396C10.058 13.414 10.0952 13.4883 10.1335 13.5649C10.1718 13.6415 10.1538 13.6888 10.0648 13.7193C9.97581 13.7497 9.91385 13.8071 9.8395 13.8432C9.76987 13.8745 9.69694 13.8979 9.6221 13.913C9.56516 13.9186 9.50781 13.9186 9.45087 13.913C9.45087 13.9344 9.45087 13.9558 9.44299 13.9772C9.57028 13.9964 9.69757 14.0167 9.82599 14.0335C9.85972 14.0387 9.89414 14.0371 9.92726 14.0288C9.96037 14.0206 9.99154 14.0059 10.019 13.9856C10.0464 13.9653 10.0695 13.9398 10.0871 13.9105C10.1046 13.8812 10.1162 13.8488 10.1211 13.815C10.1437 13.815 10.156 13.806 10.1628 13.815C10.236 13.868 10.3554 13.913 10.3689 13.9795C10.3926 14.0978 10.2698 14.1518 10.1696 14.1856C9.99947 14.2346 9.84168 14.3191 9.70658 14.4334C9.62998 14.5022 9.42721 14.4672 9.29654 14.4334C8.98739 14.3559 8.68835 14.2424 8.4055 14.0955C8.23653 13.9975 7.98307 14.0257 7.8907 13.7891C7.87944 13.7609 7.75665 13.7418 7.71272 13.7666C7.65422 13.814 7.58155 13.8406 7.50624 13.842C7.43093 13.8434 7.35731 13.8197 7.29705 13.7745C7.28291 13.7647 7.26673 13.7583 7.24975 13.7558C7.23276 13.7532 7.21542 13.7546 7.19905 13.7598C7.1239 13.7882 7.04295 13.7978 6.96325 13.7878C6.88355 13.7778 6.8075 13.7484 6.7417 13.7024C6.6514 13.6728 6.5657 13.6307 6.48712 13.5773C6.39309 13.5094 6.31789 13.4187 6.26858 13.3137C6.23446 13.2367 6.18545 13.1672 6.12435 13.1092C6.06326 13.0512 5.9913 13.0059 5.91261 12.9758C5.79636 12.9185 5.68352 12.8546 5.57467 12.7843C5.5243 12.7274 5.48289 12.6632 5.45188 12.5939H5.60396L5.48343 12.3438L6.06694 12.5196L6.08158 12.4937L5.7887 12.2684L5.99147 12.1861C5.99147 12.1715 5.99147 12.1568 5.99147 12.1422C5.89951 12.1243 5.80661 12.1115 5.71323 12.1039C5.60058 12.1039 5.48793 12.1208 5.36853 12.1152C5.28166 12.1041 5.19552 12.0879 5.11056 12.0667C5.04072 12.0555 4.96975 12.0521 4.89991 12.0419C4.86041 12.0404 4.82182 12.0296 4.78726 12.0104C4.61829 11.8831 4.57098 11.8831 4.3975 11.9901C4.27159 12.0729 4.11967 12.1066 3.97057 12.0847C3.73514 12.051 3.4952 12.0431 3.25638 12.0318C3.08629 12.0228 2.99617 11.9338 3.03785 11.7874C3.05475 11.7277 3.12121 11.6815 3.16514 11.6297L3.2102 11.6567C3.2102 11.4877 3.2102 11.3187 3.2102 11.1509C3.20425 11.1166 3.20048 11.082 3.19893 11.0473C3.22034 10.8704 3.2271 10.6812 3.49069 10.6981L3.46591 10.5482C3.59883 10.5223 3.57856 10.4705 3.52899 10.3624C3.4838 10.2121 3.45621 10.0571 3.44676 9.90051C3.35889 9.98049 3.24737 10.0785 3.14036 10.181C3.12705 10.1986 3.11029 10.2133 3.09111 10.2242C3.07192 10.2351 3.05072 10.242 3.02878 10.2444C3.00685 10.2468 2.98465 10.2448 2.96355 10.2383C2.94245 10.2319 2.92288 10.2212 2.90605 10.2069C2.69811 10.0657 2.46196 9.97144 2.21395 9.93059C1.96595 9.88975 1.71203 9.90331 1.4698 9.97035C1.22535 10.0379 1.10482 9.93769 1.02822 9.70901C0.983754 9.52928 0.991977 9.34054 1.0519 9.16535C1.11183 8.99017 1.22093 8.83594 1.36616 8.72109C1.4996 8.58586 1.64814 8.46642 1.80886 8.36513C1.87953 8.32274 1.94031 8.26573 1.98714 8.19793C2.03396 8.13012 2.06574 8.05308 2.08034 7.97199C2.12518 7.69782 2.26859 7.44946 2.48362 7.27357C2.73145 7.05616 2.98265 6.84326 3.23498 6.63036C3.51209 6.39605 3.79259 6.16625 4.07758 5.92969C4.11859 5.97452 4.14622 6.02993 4.15737 6.08965C4.16852 6.14938 4.16273 6.21103 4.14067 6.26763C4.02152 6.61657 4.04376 6.99828 4.20262 7.33102C4.21432 7.36824 4.21816 7.40749 4.2139 7.44627C4.20963 7.48506 4.19735 7.52253 4.17784 7.55632C4.09285 7.67358 4.00186 7.78638 3.90523 7.89426C3.86891 7.94117 3.83968 7.99317 3.8185 8.04859C3.79259 8.1173 3.79146 8.19503 3.68107 8.19052C3.65065 8.19052 3.61686 8.25473 3.58081 8.29416L3.48055 8.28289L3.38593 8.5938C3.54814 8.88668 3.69008 8.9385 4.03591 8.83261C4.11148 8.82593 4.18765 8.83203 4.2612 8.85064L4.18798 9.0917L4.82331 9.72591C4.85147 9.75407 4.89653 9.78449 4.89879 9.81603C4.90132 9.90174 4.89831 9.98753 4.88977 10.0729L4.69377 10.056C4.68701 10.1472 4.75009 10.199 4.85485 10.2182C5.06776 10.2576 5.02608 10.0593 5.08803 9.96134C5.25025 10.0165 5.26264 10.0593 5.2142 10.2103C5.1973 10.2632 5.24123 10.3353 5.22321 10.3781C5.15224 10.5144 5.07114 10.6462 5.01481 10.787C4.99175 10.8549 4.9508 10.9154 4.89629 10.962C4.84177 11.0086 4.7757 11.0396 4.70503 11.0518C4.48762 11.1013 4.46735 11.1486 4.50902 11.3097C4.65885 11.2523 4.81205 11.1971 4.95961 11.1329C5.03027 11.1106 5.09768 11.0792 5.16013 11.0394C5.26264 10.9617 5.33248 10.9831 5.38542 11.0867C5.43837 11.1903 5.4654 11.2759 5.31896 11.3199C5.29848 11.3296 5.2792 11.3417 5.26151 11.3559C5.26553 11.4156 5.29023 11.4719 5.33136 11.5153C5.37249 11.5587 5.42746 11.5864 5.48681 11.5936C5.65465 11.6218 5.82475 11.6634 5.98696 11.6939C6.09961 11.7153 6.21226 11.7017 6.26069 11.5722L5.98133 11.0957L6.29561 10.9684L6.04892 10.8558C6.1717 10.591 6.2866 10.5043 6.5716 10.5482C6.86678 10.5987 7.15868 10.6668 7.44575 10.7521C7.55853 10.7977 7.66615 10.8551 7.76679 10.9234C7.76679 10.9436 7.76003 10.9932 7.75215 11.036C7.7375 11.1351 7.66541 11.2545 7.86479 11.2613C7.90985 11.2613 7.95379 11.3604 7.99772 11.4145C8.0608 11.4945 8.11037 11.4922 8.17345 11.4066C8.2861 11.2399 8.27708 11.1633 8.09572 11.0844C8.39359 11.0201 8.70453 11.0598 8.97662 11.1971C9.04647 11.2309 9.08927 11.3559 9.1118 11.4472C9.13475 11.5464 9.19225 11.6342 9.27401 11.695C9.39342 11.793 9.56352 11.8313 9.63899 11.9901C9.64462 12.0025 9.81022 11.9777 9.83162 11.9361C9.89921 11.8031 10.0028 11.811 10.1121 11.8234C10.5772 11.8936 11.0486 11.9132 11.518 11.882C11.7962 11.8628 12.0744 11.829 12.3493 11.7829C12.489 11.7592 12.5949 11.7569 12.6534 11.9068C12.6591 11.9225 12.6839 11.9304 12.7267 11.9597L12.8235 11.7446C13.0926 11.6418 13.3881 11.6312 13.6639 11.7141C13.9061 11.7479 14.1494 11.7829 14.3916 11.8144C14.4229 11.8154 14.4542 11.8131 14.4851 11.8076L14.4918 11.7637L13.665 11.6105C13.665 11.5914 13.665 11.5722 13.665 11.5519C13.754 11.5316 13.8419 11.5102 13.9309 11.4922C14.101 11.4596 14.2688 11.4291 14.4412 11.3976C14.4603 11.3976 14.4806 11.3818 14.4986 11.3852C14.9905 11.4058 15.4831 11.399 15.9743 11.3649C16.0937 11.3728 16.2165 11.3548 16.3336 11.3728C16.6863 11.412 17.0432 11.3891 17.388 11.3052C17.5811 11.2781 17.7774 11.2819 17.9693 11.3165C18.3244 11.3619 18.6714 11.4571 19 11.5992C18.8686 11.7282 18.7253 11.8443 18.5719 11.9462C18.1675 12.1613 17.7507 12.354 17.3328 12.5511C17.3023 12.571 17.2681 12.5846 17.2322 12.5911C17.1964 12.5975 17.1596 12.5966 17.124 12.5885C17.0885 12.5804 17.055 12.5653 17.0254 12.5439C16.9959 12.5226 16.9709 12.4955 16.9521 12.4644C16.881 12.3901 16.8017 12.3244 16.7155 12.2684C16.7356 12.3178 16.7522 12.3686 16.7651 12.4204C16.773 12.4756 16.7932 12.568 16.7718 12.5793C16.7131 12.6114 16.6447 12.6214 16.5792 12.6074C16.4568 12.5665 16.3365 12.5196 16.2187 12.4666C16.194 12.4636 16.1691 12.4636 16.1444 12.4666L16.3224 12.9116L15.9281 12.9747L16.1207 13.2506L16.0959 13.3058C15.9977 13.3176 15.8985 13.321 15.7997 13.316C15.6769 13.3002 15.5575 13.2518 15.4347 13.2338C15.3468 13.2282 15.2586 13.2305 15.1711 13.2405V13.2833L15.5733 13.4534C15.5957 13.4617 15.6164 13.4743 15.6339 13.4906C15.6515 13.5069 15.6656 13.5265 15.6756 13.5483C15.6855 13.5701 15.6911 13.5936 15.6919 13.6175C15.6927 13.6415 15.6887 13.6653 15.6803 13.6877C15.6567 13.7201 15.6263 13.7469 15.5913 13.7664C15.5563 13.7858 15.5175 13.7974 15.4775 13.8004C15.2292 13.8452 14.973 13.7984 14.7566 13.6686C14.6879 13.6224 14.5662 13.5266 14.4918 13.699C14.7104 13.8015 14.9638 13.8342 15.0945 14.0595L15.0765 14.1023L14.4243 13.8466L14.3983 13.904L14.5831 14.0167L14.3578 14.0764C14.3578 14.0921 14.3578 14.1068 14.3578 14.1225L14.8546 14.2048L14.7791 14.5957L15.2747 14.6587C15.2838 14.4864 15.1182 14.4954 15.0247 14.4334C15.0767 14.4043 15.1381 14.3969 15.1956 14.4129C15.253 14.429 15.3017 14.4671 15.3311 14.5191C15.4058 14.6066 15.4489 14.7168 15.4534 14.8319C15.4579 14.9469 15.4236 15.0601 15.3559 15.1533C15.3119 15.1995 15.2364 15.2558 15.1858 15.2468C14.9402 15.2051 14.7791 15.3729 14.5606 15.4597C14.6858 15.539 14.8272 15.5891 14.9744 15.6065C15.1216 15.6238 15.2708 15.6079 15.411 15.5599C15.3209 15.7221 15.2691 15.8843 15.0731 15.9474C14.5854 16.1023 14.0686 16.1435 13.5625 16.068C13.4003 16.0398 13.3552 16.1479 13.3034 16.2167Z" fill="black"/>
</svg>
