<svg width="20" height="21" viewBox="0 0 20 21" fill="none" xmlns="http://www.w3.org/2000/svg">
<path d="M9.05674 18.1345C8.9649 18.1617 8.86759 18.1647 8.77427 18.1431C8.99016 17.9924 9.16458 17.7897 9.28143 17.5538C9.28418 17.5469 9.2945 17.543 9.30519 17.5389C9.31198 17.5363 9.31892 17.5337 9.32417 17.5302C9.51023 17.4059 9.65754 17.2317 9.74924 17.0275C9.81317 16.8925 9.89486 16.7665 9.99213 16.6531C10.0212 16.6171 10.0619 16.5869 10.1019 16.5571C10.1595 16.5143 10.2155 16.4727 10.2328 16.4169C10.2542 16.357 10.2877 16.3021 10.3312 16.2556C10.3747 16.2092 10.4273 16.1722 10.4858 16.147C10.4997 16.1388 10.5094 16.1242 10.5191 16.1094C10.5267 16.0978 10.5344 16.0862 10.5443 16.0773C10.6748 15.9502 10.8142 15.8326 10.9615 15.7253C11.0061 15.6959 11.075 15.702 11.1434 15.708C11.1715 15.7105 11.1995 15.713 11.2257 15.713C11.436 15.7096 11.4788 15.6669 11.5024 15.4487C11.5063 15.3652 11.5222 15.2826 11.5496 15.2036C11.6274 15.0666 11.7356 14.9492 11.8658 14.8605C11.996 14.7718 12.1448 14.7141 12.3008 14.6919C12.5185 14.6524 12.7399 14.6381 12.9609 14.6492C13.0805 14.632 13.201 14.6211 13.3218 14.6166C13.4683 14.6242 13.6143 14.6406 13.7604 14.6571C13.8297 14.6649 13.899 14.6727 13.9684 14.6795C13.9962 14.6854 14.0251 14.6819 14.0505 14.6694C14.2182 14.5362 14.4078 14.5607 14.5928 14.5847C14.6374 14.5905 14.6816 14.5962 14.7253 14.5997C14.835 14.6155 14.9435 14.6384 15.0502 14.6683C15.1365 14.6456 15.2246 14.6231 15.3138 14.6003C15.5431 14.5417 15.78 14.4812 16.014 14.4108C16.0683 14.395 16.1094 14.3462 16.1504 14.2975C16.1679 14.2766 16.1855 14.2558 16.204 14.2376C16.2146 14.2276 16.2228 14.2152 16.2311 14.2026C16.2377 14.1926 16.2444 14.1825 16.2524 14.1735L16.5144 13.8733C16.5223 13.8642 16.5301 13.8528 16.5379 13.8413C16.5544 13.8172 16.5707 13.7934 16.5875 13.7934C16.6853 13.7934 16.7022 13.7338 16.6853 13.6641C16.6631 13.5702 16.7172 13.5317 16.7769 13.4892C16.7808 13.4865 16.7848 13.4836 16.7888 13.4808C16.9649 13.3728 17.1306 13.2486 17.2835 13.1097C17.3408 13.0475 17.4103 12.9977 17.4877 12.9637C17.5652 12.9296 17.6488 12.912 17.7334 12.9118V12.3225C17.5186 12.3512 17.304 12.3804 17.0893 12.4097C15.9302 12.5676 14.7703 12.7256 13.5929 12.7892C13.6412 12.643 13.6783 12.5261 13.5288 12.4406C13.4838 12.4181 13.4242 12.3338 13.4365 12.3057C13.4676 12.2446 13.5189 12.1961 13.5816 12.1685C13.6639 12.1437 13.7488 12.1287 13.8346 12.1235C13.8197 12.1117 13.8063 12.1004 13.7939 12.0899C13.7233 12.0306 13.6823 11.996 13.5715 12.0257C13.3511 12.0841 13.2308 12.1561 13.3173 12.4001C13.3192 12.4051 13.3166 12.4111 13.3139 12.4173C13.3118 12.4224 13.3095 12.4277 13.3095 12.4327L13.1768 13.1513C13.174 13.1524 13.1677 13.1531 13.1592 13.1541C13.1334 13.1569 13.088 13.1619 13.0643 13.1873C12.9845 13.2683 12.9463 13.2413 12.9125 13.1558C12.8918 13.0776 12.862 13.0021 12.8237 12.9309C12.7654 12.8502 12.6992 12.7754 12.623 12.6895C12.5845 12.6461 12.5436 12.5999 12.4998 12.5486L12.3491 12.8185L12.0489 12.778L11.9252 12.5429L11.8791 12.742C11.8644 12.7204 11.8498 12.7019 11.8369 12.6855C11.8121 12.6541 11.7936 12.6307 11.7936 12.6093C11.8009 12.5382 11.8132 12.4674 11.8255 12.3965C11.8379 12.3249 11.8504 12.2532 11.8577 12.1808C11.8599 12.1575 11.8642 12.1336 11.8685 12.1093C11.8864 12.0096 11.9055 11.9027 11.788 11.7951L11.5935 12.1392C11.2955 11.9829 11.2257 11.8694 11.3011 11.6647L11.4911 11.7277L11.544 11.4027C11.5311 11.3951 11.5185 11.3851 11.506 11.3752C11.4813 11.3556 11.4569 11.3363 11.4315 11.3363C11.3799 11.3366 11.3297 11.3196 11.289 11.288C11.2482 11.2564 11.2192 11.2121 11.2066 11.162C11.1388 11.0516 11.0819 10.9349 11.0368 10.8134C11.0269 10.6761 11.0383 10.538 11.0706 10.4041C11.0739 10.3839 11.1234 10.3546 11.1493 10.3546C11.274 10.3622 11.3281 10.2832 11.3802 10.2071C11.3901 10.1926 11.3999 10.1782 11.4102 10.1646L11.2089 9.80135L11.246 9.76874C11.2998 9.79827 11.3365 9.85384 11.3735 9.90971C11.4393 10.0092 11.5058 10.1095 11.6699 10.0656C11.6668 10.0157 11.6538 9.96612 11.6407 9.91625C11.6117 9.80546 11.5823 9.69328 11.6598 9.57308C11.6715 9.58247 11.6817 9.59036 11.6909 9.59741C11.7092 9.61146 11.7232 9.6222 11.7351 9.63492C11.7808 9.681 11.826 9.72749 11.8711 9.77397C11.9548 9.86019 12.0384 9.94633 12.1254 10.0296C12.1412 10.0447 12.1603 10.0559 12.1812 10.0623C12.202 10.0687 12.2241 10.0702 12.2457 10.0667C12.324 10.0356 12.394 9.98668 12.4503 9.92393C12.5459 9.8036 12.5999 9.84971 12.6752 9.93517C12.7225 9.98353 12.8124 10.0544 12.8349 10.0398C12.9755 9.94754 13.0576 10.0161 13.152 10.1095C13.1742 10.1325 13.2236 10.1304 13.2689 10.1285C13.281 10.128 13.2929 10.1275 13.3039 10.1275V9.83396C13.4276 9.89694 13.4579 9.84409 13.4635 9.74513C13.472 9.67498 13.4851 9.60547 13.5029 9.53709C13.3615 9.48618 13.4169 9.43295 13.4743 9.37781C13.4968 9.35622 13.5196 9.33434 13.531 9.31219L13.3668 9.29757L13.2937 8.83651L13.4062 8.73081L13.1363 8.67683L13.2195 8.52389L13.0722 8.38445L13.2038 8.272C13.1404 8.21659 13.1009 8.13873 13.0938 8.05482C13.0867 7.97091 13.1124 7.88751 13.1655 7.82219V7.78846C13.2141 7.5511 13.2084 7.30582 13.1487 7.07101C13.1401 7.04932 13.1344 7.02317 13.1284 6.99565C13.1077 6.90042 13.0834 6.78875 12.9238 6.78875C12.8788 6.78763 12.781 6.62232 12.8023 6.57172C12.8619 6.46766 12.9404 6.37572 13.034 6.30071C13.0947 6.23999 13.1284 6.19726 13.016 6.16015C12.9817 6.14204 12.9505 6.1185 12.9238 6.09043C12.9533 6.05475 12.9887 6.02434 13.0283 6.00046C13.0794 5.97812 13.1333 5.96201 13.1933 5.94408C13.2178 5.93675 13.2433 5.92911 13.2701 5.92062C13.1279 5.77628 13.0167 5.84014 12.9024 5.90587C12.8938 5.91081 12.8852 5.91575 12.8765 5.92062C12.8492 5.84301 12.774 5.82939 12.6976 5.81555C12.598 5.79752 12.4964 5.77913 12.4964 5.61813L12.7562 5.66311C12.6854 5.5924 12.6398 5.50041 12.6264 5.40126C12.613 5.30211 12.6325 5.2013 12.682 5.11434L12.4571 5.22117V4.74212L12.3952 4.6859L12.5493 4.57344L12.3739 4.44112C12.3747 4.43713 12.3754 4.43313 12.3761 4.42912L12.6291 4.3834L12.3829 4.18436V4.36766C12.3819 4.38841 12.3795 4.40888 12.3761 4.42912L12.3615 4.43175L12.3739 4.44112C12.3559 4.53491 12.3151 4.62385 12.2741 4.71286C12.198 4.87857 12.1217 5.04453 12.1928 5.24253C12.1939 5.24516 12.19 5.24876 12.1856 5.25288C12.1806 5.2576 12.1748 5.263 12.1748 5.2684C12.1329 5.35567 12.0954 5.44499 12.0624 5.53604C12.0321 5.63039 12.0096 5.72704 11.9949 5.82504C11.9911 5.8458 12.0014 5.86867 12.0116 5.89113C12.0163 5.9015 12.0209 5.91179 12.0241 5.92175L11.9454 5.94311L12.0039 6.12529L11.9679 6.1444L11.7666 5.95998C11.7557 5.99223 11.7458 6.02196 11.7366 6.04985C11.7156 6.1134 11.6978 6.16739 11.6767 6.21975C11.6661 6.25218 11.6446 6.27998 11.6159 6.29846C11.4838 6.35965 11.351 6.41728 11.2185 6.4748C11.1684 6.49657 11.1183 6.51832 11.0683 6.54024V6.23774L10.966 6.39405C10.9634 6.36267 10.9605 6.33638 10.9579 6.31281C10.9537 6.2747 10.9502 6.24366 10.9502 6.20962C10.8074 6.23549 10.7444 6.17701 10.7028 6.03982C10.6846 5.99905 10.657 5.9632 10.6222 5.93523C10.5874 5.90727 10.5464 5.888 10.5027 5.87901C10.4073 5.8564 10.3072 5.86469 10.2168 5.90269C10.1265 5.94069 10.0505 6.00644 10 6.09043L9.85269 5.89813C9.9404 5.8599 10.0382 5.81042 9.98876 5.66423L10.0855 5.83291L10.1856 5.54278L10.2148 5.55403L10.1923 5.64849L10.2272 5.66536L10.2879 5.5529L10.0506 5.44045L10.1732 5.37523V5.32013L9.92016 5.27065C9.9297 5.24031 9.94057 5.20647 9.95213 5.17047C9.97057 5.11306 9.99077 5.05016 10.0101 4.98727C10.0222 4.95494 10.0264 4.92017 10.0222 4.8859C10.018 4.85163 10.0056 4.81888 9.9861 4.79041C9.96657 4.76194 9.94047 4.7386 9.91 4.72236C9.87954 4.70613 9.84561 4.69748 9.81108 4.69714C9.77598 4.68737 9.74204 4.6738 9.70988 4.65666C9.94153 4.62854 9.95165 4.59256 9.94153 4.38002C9.93478 4.2507 9.93253 4.07303 10.009 3.99881C10.1389 3.87329 10.1052 3.77067 10.0584 3.62784C10.0566 3.62224 10.0547 3.61658 10.0529 3.61085C10.0438 3.6286 10.0336 3.64441 10.0245 3.65862C10.0075 3.68494 9.99411 3.70578 9.99776 3.7233C10.0198 3.82519 9.96201 3.83846 9.90415 3.85174C9.88219 3.85679 9.86021 3.86184 9.84257 3.87174C9.81751 3.82539 9.79498 3.77772 9.7751 3.72893C9.76857 3.6922 9.76593 3.65488 9.76723 3.6176C9.64211 3.64861 9.51081 3.64398 9.38819 3.60424C9.26557 3.56449 9.15652 3.49121 9.0734 3.39269C9.03957 3.34807 9.04904 3.27398 9.06024 3.18632C9.06655 3.13701 9.0734 3.08341 9.0734 3.02835L8.68206 2.64826C8.68172 2.64172 8.68064 2.63211 8.6793 2.62026C8.67627 2.59341 8.67194 2.55501 8.67194 2.51444L8.63371 2.54593L8.20976 2.18383L7.7116 2.42898C7.6712 2.41823 7.6308 2.40247 7.59201 2.38734C7.51312 2.35657 7.44088 2.3284 7.38886 2.35026C7.21525 2.42286 7.10563 2.3212 7.0167 2.23873C7.01059 2.23306 7.00458 2.22749 6.99865 2.22206C6.8357 2.05473 6.61838 1.95105 6.38579 1.92969C6.31594 1.94126 6.24883 1.96566 6.18787 2.00166C6.23488 2.10547 6.1856 2.18161 6.136 2.25825C6.10017 2.31361 6.06417 2.36923 6.06417 2.43572C6.06942 2.49183 6.06942 2.5483 6.06417 2.6044C6.0609 2.68741 6.07479 2.7702 6.10497 2.8476C6.13516 2.925 6.18099 2.99533 6.2396 3.05421C6.20689 3.22753 6.14772 3.39479 6.06417 3.55013C5.94299 3.66513 5.80448 3.76038 5.65372 3.83238H6.13164L6.00457 3.94483L6.04843 3.95383C6.04171 4.05456 6.0346 4.15249 6.02732 4.25263C6.02241 4.32019 6.01743 4.38875 6.01244 4.45987L6.14514 4.51609L5.97983 4.88381L5.83027 4.78485C5.82802 4.80847 5.82802 4.83383 5.82802 4.85774C5.82802 4.90555 5.82802 4.94753 5.81003 4.95803C5.66164 5.04248 5.72377 5.0865 5.78645 5.13089C5.81307 5.14975 5.83978 5.16868 5.85051 5.19081L5.35572 5.64062L5.28713 5.89026L5.31974 5.85652C5.33906 5.90077 5.36401 5.94235 5.39396 5.98022C5.4363 6.02117 5.48095 6.05981 5.52561 6.09845C5.58887 6.15318 5.65213 6.20792 5.70882 6.26922C5.82859 6.36804 5.92401 6.49309 5.9877 6.6347C6.12927 7.02501 6.18787 7.44056 6.15976 7.8548C6.13093 8.0847 6.09002 8.31292 6.03718 8.53851C6.02109 8.59774 5.97589 8.64775 5.93005 8.69846C5.89581 8.73633 5.86122 8.7746 5.83814 8.8174C5.6072 9.14121 5.27787 9.3818 4.89917 9.50336C4.66217 9.60491 4.41783 9.68836 4.16822 9.753C4.16991 9.78134 4.17138 9.80848 4.17278 9.83433C4.177 9.9121 4.18059 9.97815 4.18734 10.0296C4.18953 10.0463 4.19085 10.0646 4.1922 10.0832C4.1964 10.1412 4.20084 10.2026 4.23232 10.2298C4.27021 10.2692 4.29662 10.3182 4.30871 10.3715C4.3208 10.4248 4.3181 10.4804 4.30092 10.5323C4.28676 10.6479 4.26269 10.7614 4.23846 10.8757C4.21651 10.9791 4.19444 11.0832 4.17947 11.1901C4.1548 11.4826 4.21203 11.7762 4.34477 12.038C4.35904 12.085 4.35904 12.1351 4.34477 12.182C4.33792 12.2191 4.32336 12.2543 4.30204 12.2854C4.24144 12.3708 4.17916 12.4558 4.11415 12.5445C4.07301 12.6006 4.03077 12.6582 3.98718 12.7184C4.03775 12.7767 4.06679 12.8506 4.06946 12.9278C4.07212 13.0049 4.04823 13.0806 4.00179 13.1423L3.79713 12.7611C3.59582 12.8025 3.58337 12.9407 3.57152 13.0723C3.5692 13.098 3.56691 13.1235 3.56323 13.1479C3.4932 13.6058 3.42504 14.0648 3.35683 14.5242C3.2498 15.245 3.14266 15.9666 3.02796 16.6857C2.97586 16.9532 2.99684 17.2298 3.08868 17.4863C3.11667 17.5594 3.14797 17.6308 3.17931 17.7022C3.19961 17.7485 3.21992 17.7948 3.23937 17.8417C3.26513 17.9394 3.31675 18.0283 3.38877 18.0992C3.4608 18.17 3.55059 18.2201 3.64869 18.2443C3.80031 18.2748 3.94683 18.3267 4.08389 18.3983C4.19079 18.4649 4.28645 18.548 4.36727 18.6446C4.43628 18.7276 4.50012 18.8147 4.55843 18.9055L4.70237 18.7469C4.71063 18.7974 4.72304 18.847 4.73948 18.8954C4.75591 18.9331 4.76125 18.9776 4.76656 19.0217C4.77833 19.1196 4.78989 19.2157 4.92166 19.2327C4.94464 19.2351 4.9677 19.2366 4.99063 19.2382C5.09896 19.2454 5.20453 19.2524 5.28713 19.3452C5.28948 19.3481 5.29766 19.3449 5.30719 19.3412C5.31589 19.3378 5.32572 19.3339 5.33323 19.3339C5.53401 19.2678 5.73822 19.2126 5.94497 19.1686C6.06123 19.1574 6.17828 19.1797 6.28233 19.2327C6.30888 19.2451 6.30618 19.3265 6.30382 19.3973C6.30318 19.4165 6.30257 19.4349 6.30257 19.4509V19.4846C6.38466 19.6229 6.31831 19.7107 6.15976 19.7849C6.18992 19.789 6.21639 19.7932 6.2403 19.797C6.28858 19.8047 6.32644 19.8107 6.3633 19.8107C6.58507 19.8261 6.80754 19.8396 7.02981 19.8531C7.3767 19.8741 7.72314 19.8951 8.06582 19.9232L8.07741 19.924C8.27721 19.9372 8.45035 19.9487 8.50551 19.6983C8.50889 19.687 8.53025 19.6769 8.51788 19.687L8.83612 19.7062L9.00817 19.5735C8.93788 19.494 8.98394 19.4509 9.04648 19.3924C9.06098 19.3788 9.07636 19.3644 9.09139 19.3486C9.10917 19.3298 9.12973 19.31 9.15086 19.2897C9.22463 19.2187 9.30529 19.1411 9.2983 19.0764C9.27471 18.8679 9.36497 18.7052 9.45436 18.544C9.49704 18.4671 9.53951 18.3905 9.56931 18.3095C9.6826 18.0715 9.82582 17.8489 9.99551 17.6472C10.117 17.4729 10.1451 17.4774 10.2508 17.6472C10.6477 17.5358 10.6477 17.5358 10.7006 17.0669C10.7574 17.0242 10.8208 16.9911 10.8884 16.9691C10.9005 16.9675 10.9132 16.9658 10.9262 16.964C11.0263 16.9502 11.1465 16.9337 11.2032 16.9814C11.2597 17.0345 11.3317 17.068 11.4086 17.0771C11.4855 17.0862 11.5633 17.0704 11.6306 17.032C11.7452 16.974 11.8631 16.9226 11.9837 16.878C12.0965 16.852 12.2112 16.8347 12.3266 16.8263V16.77C12.3592 16.7819 12.3916 16.7942 12.424 16.8065C12.5112 16.8395 12.5982 16.8725 12.6876 16.8971C12.7372 16.9078 12.789 16.8994 12.8327 16.8735C12.9373 16.8214 13.0305 16.7492 13.1071 16.6609C13.1691 16.576 13.2526 16.5092 13.3491 16.4672C13.4455 16.4253 13.5514 16.4099 13.6558 16.4225L13.5602 16.1111L13.7019 16.1437C13.6499 16.0675 13.5904 15.9967 13.5243 15.9323C13.3304 15.8015 13.1062 15.7225 12.8732 15.7028C12.6401 15.6831 12.4059 15.7234 12.1928 15.8198C11.7472 15.9886 11.3171 16.196 10.9075 16.4394C10.511 16.61 10.1759 16.8976 9.94715 17.2637C9.9067 17.3229 9.85783 17.376 9.80209 17.4211C9.77772 17.4464 9.75199 17.4698 9.72643 17.493C9.69066 17.5254 9.65524 17.5576 9.62441 17.5943C9.52836 17.7355 9.41917 17.8673 9.2983 17.9879C9.2318 18.0568 9.14858 18.1073 9.05674 18.1345Z" fill="black"/>
<path d="M14.2436 15.1122C13.9052 14.9929 13.5442 14.9515 13.1875 14.9912C13.2834 15.0567 13.3848 15.1041 13.4843 15.1506C13.6496 15.228 13.8098 15.3029 13.932 15.4545C14.0874 15.5839 14.28 15.6603 14.4818 15.6727C14.7013 15.6935 14.9221 15.6961 15.1419 15.6805C14.8891 15.4259 14.582 15.2316 14.2436 15.1122Z" fill="black"/>
</svg>
