<svg width="20" height="21" viewBox="0 0 20 21" fill="none" xmlns="http://www.w3.org/2000/svg">
<path d="M8.59538 3.28789C8.82585 3.30925 9.04509 3.33961 9.26432 3.3486C9.60348 3.36885 9.94347 3.37148 10.2829 3.35647C10.5174 3.32862 10.755 3.36435 10.971 3.45991C11.0903 3.51333 11.214 3.55622 11.3408 3.58807C11.3712 3.59707 11.4128 3.56559 11.4533 3.5521C11.4353 3.51949 11.4252 3.47227 11.3982 3.45653C10.8924 3.14339 10.3462 2.90093 9.77473 2.73588C9.584 2.70993 9.40172 2.64071 9.24183 2.53351C9.1755 2.48179 9.03834 2.50316 8.93154 2.50653C8.87051 2.52376 8.80804 2.53542 8.74491 2.54138C8.791 2.3525 8.83148 2.16138 8.88769 1.97925C8.89556 1.94777 8.98775 1.91966 9.03159 1.93315C10.0558 2.13215 11.0789 2.34126 12.1031 2.53913C12.9493 2.70253 13.8004 2.85842 14.6563 3.00683C14.8126 3.03381 14.8452 3.10464 14.8283 3.23955C14.7462 3.87476 14.6664 4.50884 14.5843 5.14405C14.5495 5.415 14.5135 5.68483 14.4719 5.95465C14.4617 6.02716 14.4364 6.09672 14.3977 6.15887C14.3589 6.22103 14.3076 6.27439 14.2471 6.31554C14.0577 6.47839 13.898 6.67275 13.7749 6.89004C13.7254 6.96649 13.758 7.10252 13.7749 7.20933C13.8097 7.32934 13.8327 7.45247 13.8434 7.57696C13.8185 7.71766 13.7742 7.85423 13.7119 7.98282C13.6962 8.02442 13.6411 8.04915 13.622 8.09525C13.5955 8.16262 13.5737 8.23174 13.5568 8.30211C13.6251 8.28579 13.6923 8.26514 13.758 8.24028C13.8637 8.19306 13.9649 8.13685 14.0683 8.08513C14.0898 8.19632 14.1014 8.30918 14.1032 8.42241C14.0402 9.38591 13.9694 10.3494 13.9019 11.3129C13.8434 12.1374 13.785 12.9648 13.7265 13.7953C13.6576 14.7696 13.5879 15.744 13.5174 16.7184C13.447 17.6927 13.3784 18.6671 13.3117 19.6414C13.3117 19.6673 13.3117 19.6943 13.3117 19.7201C13.2847 19.9506 13.2791 19.945 13.0508 19.9146C12.5348 19.8506 12.0188 19.7899 11.5016 19.7471C10.4886 19.6464 9.48395 19.474 8.49532 19.2311C7.42165 18.9871 6.34685 18.7488 5.27205 18.5093L5.2417 18.5037C4.97187 18.434 4.97075 18.4317 5.03483 18.1664L8.55041 3.46103C8.56165 3.40931 8.57627 3.35985 8.59538 3.28789Z" fill="black"/>
</svg>
