<svg width="20" height="21" viewBox="0 0 20 21" fill="none" xmlns="http://www.w3.org/2000/svg">
<path d="M1.0051 2.92969C1.14914 2.94994 1.27405 2.97583 1.39896 2.98258C1.58014 2.99158 1.76244 2.97245 1.94249 2.99045C2.15179 3.01184 2.35773 3.06135 2.56479 3.09511C2.61767 3.10299 2.69307 3.11761 2.72458 3.09511C2.87087 2.97132 2.98678 3.06247 3.14657 3.13562L2.98228 3.14575C3.19159 3.32355 3.39414 3.50135 3.60345 3.67014C3.66147 3.70773 3.72658 3.733 3.79475 3.74441C3.81235 3.71046 3.82703 3.67507 3.83864 3.63864C4.02094 3.99536 4.42718 4.00661 4.75352 4.14728C5.00295 4.24421 5.26161 4.31548 5.52549 4.35996C5.6396 4.36275 5.75347 4.34795 5.86308 4.31607V6.58921C6.12303 6.67473 6.12303 6.67473 6.11515 6.9268C6.11242 6.94093 6.11242 6.95544 6.11515 6.96957C6.21305 7.20588 6.20405 7.24977 6.0195 7.42757C6.04876 7.52435 6.04876 7.67176 6.11515 7.71227C6.22388 7.74828 6.33968 7.75755 6.45275 7.73928C7.10093 7.73928 7.74911 7.73928 8.39729 7.73928H8.5447V7.75841L8.30164 7.80117C8.66286 8.03524 8.68649 8.07575 8.58747 8.23892L8.75626 8.52362L8.72701 8.74869L8.7135 8.73181L8.57959 8.97825C8.66849 9.01217 8.75162 9.05962 8.82603 9.11892C8.85304 9.1493 8.82603 9.24945 8.79903 9.30122C8.77202 9.35298 8.7045 9.37211 8.65386 9.40587C8.68987 9.44638 8.73263 9.47564 8.74276 9.51165C8.74746 9.54173 8.76006 9.57002 8.77926 9.59365C8.79846 9.61727 8.82358 9.63538 8.85206 9.64614C8.88054 9.65689 8.91136 9.6599 8.94139 9.65485C8.97141 9.64981 8.99956 9.6369 9.02296 9.61743C9.09198 9.56678 9.17164 9.53255 9.25588 9.51734C9.34013 9.50213 9.42673 9.50634 9.5091 9.52966L9.43595 9.68945C9.5226 9.7007 9.589 9.74234 9.66102 9.62868C9.70378 9.56229 9.80843 9.36536 9.94009 9.58142C9.94685 9.59267 9.99749 9.57242 10.0245 9.58142C10.0632 9.5927 10.1009 9.60738 10.137 9.62531L9.80956 9.83011C9.92004 9.86913 10.0199 9.93339 10.1012 10.0178C10.1824 10.1022 10.2429 10.2044 10.2777 10.3163C10.2237 10.4288 10.1832 10.5312 10.1314 10.6223C10.1145 10.6527 10.065 10.6628 10.0357 10.6876C9.89621 10.8001 9.75779 10.9205 9.61938 11.0365L9.64189 11.0837C9.7004 11.0713 9.76455 11.0376 9.81518 11.0522C9.86582 11.0668 9.88833 11.1299 9.94797 11.2007L10.0538 11.2109C10.0943 11.3594 9.77242 11.3639 9.95135 11.5417L9.77805 11.6542C9.82756 11.6846 9.86132 11.724 9.89621 11.7251C10.0087 11.7256 10.1196 11.7519 10.2205 11.8018C10.3213 11.8517 10.4094 11.924 10.478 12.0132C10.562 12.0919 10.6544 12.161 10.7537 12.2192L10.6243 12.4442C10.8088 12.469 10.9551 12.5365 11.089 12.3801C11.1172 12.3474 11.2668 12.3643 11.3085 12.4082C11.3749 12.4802 11.5335 12.4724 11.5099 12.6333C11.5099 12.6333 11.5493 12.6445 11.5572 12.658C11.5954 12.7199 11.6978 12.7582 11.6359 12.8606C11.6323 12.8695 11.6308 12.8792 11.6318 12.8889C11.6328 12.8985 11.6361 12.9077 11.6416 12.9157C11.7541 13.0283 11.8261 13.179 11.9927 13.2409C12.0726 13.2713 12.13 13.3535 12.2031 13.412C12.271 13.4612 12.3421 13.5059 12.4158 13.5459C12.4479 13.5601 12.4815 13.5707 12.5159 13.5774C12.5159 13.5909 12.5159 13.6044 12.5159 13.6179L12.2976 13.6618L12.2762 13.7147C12.5193 13.7417 12.7511 13.7867 12.8389 14.0692L12.5598 14.3629C12.7027 14.4484 12.8479 14.5035 12.9211 14.6656C12.9469 14.7241 13.0538 14.7466 13.1225 14.786L13.1517 14.7545C13.1517 14.7725 13.1596 14.7984 13.1517 14.8085C12.9728 14.9976 12.9886 15.0853 13.2226 15.2249C13.3532 15.3025 13.4803 15.388 13.612 15.4713C13.5557 15.5198 13.5133 15.5823 13.489 15.6524C13.4647 15.7226 13.4594 15.7979 13.4736 15.8708C13.4742 15.934 13.4655 15.997 13.4477 16.0576L13.9046 16.1701C14.0644 16.0576 14.1184 16.0745 14.2759 16.2748C14.3322 16.3468 14.3963 16.4143 14.4515 16.4875C14.4844 16.5381 14.5141 16.5907 14.5404 16.645C14.5708 16.6384 14.6023 16.6388 14.6326 16.646C14.6628 16.6533 14.6911 16.6673 14.7152 16.687C14.7393 16.7066 14.7587 16.7315 14.7719 16.7597C14.785 16.7879 14.7917 16.8187 14.7913 16.8498C14.797 16.896 14.8588 16.941 14.9039 16.9725C15.0772 17.0929 15.2313 17.2786 15.4834 17.1593C15.498 17.1525 15.5217 17.1683 15.5419 17.1717C15.6814 17.2009 15.7242 17.3213 15.7535 17.4294C15.7781 17.5488 15.7868 17.6711 15.7794 17.7928C15.7668 17.8512 15.7455 17.9073 15.7163 17.9594H15.875L15.947 18.4815L16.2025 18.5558C16.2432 18.5186 16.2949 18.4954 16.3498 18.4898C16.4047 18.4841 16.4599 18.4962 16.5074 18.5243C16.5817 18.5704 16.6987 18.5468 16.6638 18.3487C16.7291 18.3983 16.7764 18.4151 16.7899 18.4478C16.8326 18.5355 16.8743 18.5367 16.9137 18.4534C16.9699 18.3341 17.0329 18.387 17.1218 18.4163C17.3233 18.4793 17.5225 18.6076 17.7453 18.4376C17.8173 18.3825 17.949 18.405 18.0525 18.3915C18.1031 18.2238 18.1718 18.1721 18.3451 18.243C18.4126 18.27 18.443 18.4028 18.479 18.4917C18.4804 18.5097 18.4775 18.5278 18.4704 18.5444C18.4634 18.5611 18.4524 18.5758 18.4385 18.5873C18.2978 18.6616 18.3642 18.7235 18.4385 18.7944C18.5127 18.8653 18.551 18.9125 18.6286 19.0014C18.7344 18.9935 18.7682 19.0779 18.7828 19.2186C18.7929 19.3154 18.8796 19.4032 18.9269 19.4977C18.9545 19.5598 18.9789 19.6233 19 19.6879C18.9459 19.708 18.8896 19.7216 18.8323 19.7284C13.6356 19.7284 8.4393 19.7284 3.24335 19.7284C3.02729 19.7284 2.95189 19.6226 3.01829 19.4212C3.04529 19.3401 3.07005 19.2591 3.10944 19.1376C2.8056 19.1849 2.50627 19.0734 2.26208 19.2963C2.22095 19.3435 2.16424 19.3743 2.10227 19.3832C2.0403 19.3921 1.97721 19.3784 1.92448 19.3446C1.8196 19.2955 1.71173 19.2531 1.60152 19.2175L1.50924 19.3368C1.36633 19.2963 1.22341 19.2602 1.08387 19.2119C1.06258 19.1976 1.04455 19.179 1.03097 19.1573C1.01739 19.1356 1.00857 19.1112 1.0051 19.0858C0.9983 19.0456 0.9983 19.0045 1.0051 18.9643V3.12999C1.0051 3.07035 1.0051 3.00958 1.0051 2.92969Z" fill="black"/>
</svg>
