<svg xmlns="http://www.w3.org/2000/svg" width="110" height="20" viewBox="0 0 110 20">
  <g id="Truck_-_HINO" data-name="Truck - HINO" transform="translate(136 -10048)">
    <rect id="Rectangle_63553" data-name="Rectangle 63553" width="110" height="20" transform="translate(-136 10048)" fill="#ef3f35" opacity="0"/>
    <path id="Union_694" data-name="Union 694" d="M55.763,10.98h0a4.876,4.876,0,0,1-1.644-.458,3.42,3.42,0,0,1-.614-.388,2.85,2.85,0,0,1-.616-.661,2.7,2.7,0,0,1-.414-1.048h0a16.095,16.095,0,0,1-.028-5.148h0a3.548,3.548,0,0,1,.432-1.259A3.015,3.015,0,0,1,53.6,1.2,5.053,5.053,0,0,1,56.192.279h0a45.167,45.167,0,0,1,10.014,0h0a6.072,6.072,0,0,1,1.871.48,3.516,3.516,0,0,1,.72.437,2.978,2.978,0,0,1,.721.822,3.571,3.571,0,0,1,.431,1.259,16.149,16.149,0,0,1-.026,5.148h0a2.731,2.731,0,0,1-.414,1.048,2.875,2.875,0,0,1-.615.661,3.464,3.464,0,0,1-.616.388,4.873,4.873,0,0,1-1.644.458h0a50.357,50.357,0,0,1-5.435.294A50.383,50.383,0,0,1,55.763,10.98Zm8.415-3.021h0a1.205,1.205,0,0,0,.527-.186,1.187,1.187,0,0,0,.394-.422,1.106,1.106,0,0,0,.133-.422h0A12.843,12.843,0,0,0,65.2,4.01h0a1.217,1.217,0,0,0-.144-.447,1.032,1.032,0,0,0-.243-.29,1.175,1.175,0,0,0-.242-.158,1.873,1.873,0,0,0-.629-.171h0a25.534,25.534,0,0,0-5.475,0h0a1.869,1.869,0,0,0-.629.171,1.208,1.208,0,0,0-.244.158,1.043,1.043,0,0,0-.242.29,1.218,1.218,0,0,0-.145.447h0a12.822,12.822,0,0,0-.036,2.919h0a1.107,1.107,0,0,0,.133.422,1.189,1.189,0,0,0,.394.422,1.2,1.2,0,0,0,.527.186h0A30.323,30.323,0,0,0,64.179,7.958ZM21.643,10.627h0a.372.372,0,0,1-.368-.364v0q-.1-4.577,0-9.155h0a.372.372,0,0,1,.368-.365h0q2.248-.027,4.5,0h0A.374.374,0,0,1,26.4.849a.38.38,0,0,1,.11.257h0q.1,4.576,0,9.155v0a.381.381,0,0,1-.11.256.375.375,0,0,1-.257.108h0q-1.124.014-2.248.014T21.643,10.627Zm21.927,0h0a.376.376,0,0,1-.182-.053.365.365,0,0,1-.182-.257,1.629,1.629,0,0,0-.123-.454,2.6,2.6,0,0,0-.248-.455,3.353,3.353,0,0,0-.9-.909h0q-2-1.359-4.131-2.517h0a3.825,3.825,0,0,0-.447-.208,1.739,1.739,0,0,0-.448-.11.826.826,0,0,0-.4.051.686.686,0,0,0-.282.234.969.969,0,0,0-.117.235,1.964,1.964,0,0,0-.1.52h0q-.122,1.772-.11,3.548h0a.372.372,0,0,1-.369.376q-2.056.023-4.111,0a.374.374,0,0,1-.368-.365h0q-.1-4.577,0-9.156h0a.372.372,0,0,1,.368-.364Q33.108.722,34.79.735h0a5.261,5.261,0,0,1,2.139.466h0a50.6,50.6,0,0,1,4.8,2.524,3.325,3.325,0,0,0,.417.213,1.6,1.6,0,0,0,.416.12.8.8,0,0,0,.379-.033.576.576,0,0,0,.136-.074.621.621,0,0,0,.137-.142.871.871,0,0,0,.106-.217,1.616,1.616,0,0,0,.076-.465h0q.036-1,.029-2.01a.372.372,0,0,1,.368-.374h0q2.018-.023,4.036,0h0a.371.371,0,0,1,.368.365q.1,4.576,0,9.154v0a.372.372,0,0,1-.11.256.375.375,0,0,1-.258.108q-1.056.012-2.111.012Q44.645,10.638,43.57,10.626Zm-31.383,0h0a.373.373,0,0,1-.368-.357h0q-.045-1.032-.113-2.063a.932.932,0,0,0-.906-.871h0q-2.413-.06-4.828,0a.956.956,0,0,0-.622.26.946.946,0,0,0-.283.611Q5,9.236,4.953,10.269h0a.373.373,0,0,1-.368.357h0q-2.084.023-4.168,0h0a.379.379,0,0,1-.258-.108.382.382,0,0,1-.11-.256v0q-.1-4.576,0-9.154h0A.372.372,0,0,1,.416.741h0Q2.5.717,4.586.741h0a.374.374,0,0,1,.369.354q.045.895.107,1.79h0a.931.931,0,0,0,.906.866h0q2.417.062,4.835,0h0a.931.931,0,0,0,.905-.866h0q.062-.894.107-1.79a.374.374,0,0,1,.368-.354h0q2.085-.024,4.17,0h0a.374.374,0,0,1,.369.365h0q.1,4.577,0,9.154v0a.385.385,0,0,1-.111.256.377.377,0,0,1-.258.108h0q-1.042.011-2.084.011T12.187,10.627ZM43.426,1.115h0s0,0,0,0Z" transform="translate(-136 10052.363)" fill="#ef3f35"/>
  </g>
</svg>
