<svg height="32.5" viewBox="0 0 26 32.5" width="26" xmlns="http://www.w3.org/2000/svg">
  <g data-name="1" id="_1" transform="translate(0)">
    <path
      d="M542.868,162.338a12.972,12.972,0,0,0-10.456,20.688c2.368,3.194,10.483,11.812,10.483,11.812s8.061-8.618,10.429-11.812a12.972,12.972,0,0,0-10.456-20.688Zm0,22a9.026,9.026,0,1,1,9.042-9.026A9.034,9.034,0,0,1,542.868,184.34Z"
      data-name="Path 2805"
      fill="#707070"
      id="Path_2805" transform="translate(-529.868 -162.338)"/>
    <path d="M9.1,0A9.1,9.1,0,1,1,0,9.1,9.1,9.1,0,0,1,9.1,0Z" data-name="Path 2808" fill="#fff"
          id="Path_2808" transform="translate(3.9 3.9)"/>
  </g>
</svg>
