<svg width="18" height="18" viewBox="0 0 18 18" fill="none" xmlns="http://www.w3.org/2000/svg">
<path d="M8.99935 17.5502C6.73268 17.5471 4.55972 16.645 2.95694 15.0422C1.35417 13.4395 0.452291 11.2663 0.449219 8.99968C0.451733 6.73288 1.35327 4.55998 2.95617 2.95711C4.55907 1.35424 6.73251 0.45271 8.99935 0.450195C11.2663 0.452431 13.4396 1.35418 15.0425 2.95711C16.6455 4.56004 17.547 6.73279 17.5492 8.99968C17.5464 11.2664 16.6448 13.4394 15.042 15.0422C13.4392 16.6451 11.2661 17.5474 8.99935 17.5502ZM7.09929 11.6447C6.98897 11.6443 6.88286 11.6864 6.8037 11.7633L5.87365 12.6735C5.82977 12.7148 5.79565 12.7649 5.7734 12.8209C5.75115 12.8769 5.74149 12.937 5.74505 12.9971C5.74857 13.0616 5.76576 13.1245 5.79582 13.1816C5.82587 13.2388 5.86786 13.2896 5.919 13.3291C6.58046 13.8439 7.39373 14.1253 8.2319 14.13V15.4113C8.23329 15.5237 8.27893 15.6312 8.35895 15.7102C8.43897 15.7892 8.54696 15.8339 8.65943 15.8339H9.51218C9.62465 15.8339 9.73264 15.7892 9.81266 15.7102C9.89268 15.6312 9.93832 15.5237 9.93971 15.4113V14.1228C10.552 14.1238 11.1502 13.9388 11.6547 13.5919C12.1593 13.245 12.5462 12.7528 12.7644 12.1807C12.8979 11.8054 12.9528 11.4062 12.9257 11.0087C12.8987 10.6112 12.7904 10.2235 12.6072 9.86968C12.4259 9.51599 12.1748 9.20315 11.8691 8.94917C11.5635 8.69519 11.2095 8.50594 10.8285 8.39254L7.94147 7.54728C7.77842 7.49891 7.63545 7.39995 7.53352 7.26381C7.4316 7.12766 7.37628 6.96177 7.37581 6.7917C7.37609 6.58266 7.45916 6.38287 7.60697 6.23506C7.75478 6.08725 7.95535 6.00341 8.16438 6.00313H9.93456C10.2605 6.00417 10.5787 6.1029 10.8486 6.28557C10.9153 6.3297 10.9935 6.35233 11.0734 6.35154C11.1837 6.35109 11.2896 6.3077 11.3689 6.23094L12.299 5.3228C12.3428 5.28126 12.377 5.23052 12.3992 5.17437C12.4215 5.11821 12.4311 5.05737 12.4276 4.99707C12.4237 4.93267 12.4063 4.87058 12.3761 4.81359C12.3458 4.75659 12.3035 4.70653 12.2524 4.66721C11.5917 4.15124 10.778 3.87027 9.93971 3.86834V2.58499C9.93943 2.4717 9.89432 2.36307 9.81421 2.28296C9.7341 2.20285 9.62547 2.15748 9.51218 2.15721H8.65943C8.54614 2.15748 8.43752 2.20285 8.3574 2.28296C8.27729 2.36307 8.23218 2.4717 8.2319 2.58499V3.86834H8.16541C7.7589 3.86814 7.35677 3.95219 6.98461 4.11573C6.61245 4.27928 6.27829 4.51812 6.00353 4.81771C5.72754 5.1169 5.51774 5.47098 5.38787 5.85676C5.25801 6.24253 5.21113 6.65143 5.25 7.05661C5.32527 7.66072 5.57845 8.22862 5.9775 8.68838C6.37655 9.14813 6.90323 9.47927 7.49074 9.63878L10.2289 10.4397C10.3917 10.4884 10.5347 10.5881 10.6365 10.7242C10.7384 10.8603 10.794 11.0253 10.7948 11.1953C10.7945 11.4044 10.7114 11.605 10.5636 11.753C10.4158 11.9009 10.2153 11.9843 10.0062 11.9849H8.23603C7.90961 11.986 7.5907 11.8877 7.32195 11.7024C7.25476 11.6623 7.17755 11.6424 7.09929 11.6447Z" fill="#FAB15C"/>
</svg>
