<svg width="26" height="26" viewBox="0 0 26 26" fill="none" xmlns="http://www.w3.org/2000/svg">
<rect width="26" height="26" rx="2" fill="#424242"/>
<g clip-path="url(#clip0_4042_41121)">
<path d="M15.3009 6.5C15.3009 6.99446 15.1547 7.47779 14.88 7.88891C14.6053 8.30004 14.2147 8.62059 13.7579 8.80981C13.3011 8.99904 12.7985 9.04836 12.3136 8.9519C11.8286 8.85544 11.3829 8.61745 11.0333 8.26782C10.6837 7.91819 10.4452 7.47274 10.3487 6.9878C10.2523 6.50284 10.3021 6.00003 10.4913 5.54322C10.6805 5.08639 11.0011 4.69609 11.4122 4.42139C11.8233 4.14668 12.3064 4 12.8009 4C13.4639 4 14.0996 4.26334 14.5685 4.73218C15.0373 5.20102 15.3009 5.83696 15.3009 6.5ZM15.3009 13C15.3009 13.4944 15.1547 13.9778 14.88 14.389C14.6053 14.8001 14.2147 15.1206 13.7579 15.3098C13.3011 15.499 12.7985 15.5483 12.3136 15.4519C11.8286 15.3555 11.3829 15.1174 11.0333 14.7679C10.6837 14.4182 10.4452 13.9727 10.3487 13.4878C10.2523 13.0029 10.3021 12.5 10.4913 12.0432C10.6805 11.5864 11.0011 11.1961 11.4122 10.9214C11.8233 10.6467 12.3064 10.5 12.8009 10.5C13.4639 10.5 14.0996 10.7633 14.5685 11.2322C15.0373 11.701 15.3009 12.337 15.3009 13ZM15.3009 19.5C15.3009 19.9944 15.1547 20.4778 14.88 20.8889C14.6053 21.3001 14.2147 21.6206 13.7579 21.8098C13.3011 21.999 12.7985 22.0484 12.3136 21.9519C11.8286 21.8554 11.3829 21.6175 11.0333 21.2678C10.6837 20.9182 10.4452 20.4728 10.3487 19.9878C10.2523 19.5028 10.3021 19 10.4913 18.5432C10.6805 18.0864 11.0011 17.6961 11.4122 17.4214C11.8233 17.1466 12.3064 17 12.8009 17C13.4639 17 14.0996 17.2634 14.5685 17.7322C15.0373 18.201 15.3009 18.8369 15.3009 19.5Z" fill="#DADADA"/>
</g>
<defs>
<clipPath id="clip0_4042_41121">
<rect width="18" height="18" fill="white" transform="translate(4 4)"/>
</clipPath>
</defs>
</svg>
