<svg width="18" height="18" viewBox="0 0 18 18" fill="none" xmlns="http://www.w3.org/2000/svg">
<path d="M15.5 11.503C15.0055 11.503 14.5222 11.3568 14.1111 11.0821C13.7 10.8074 13.3794 10.4169 13.1901 9.96007C13.0009 9.50325 12.9516 9.00068 13.0481 8.51573C13.1446 8.03078 13.3826 7.58509 13.7322 7.23546C14.0818 6.88583 14.5273 6.64735 15.0122 6.55089C15.4972 6.45442 15.9999 6.50425 16.4568 6.69347C16.9136 6.88268 17.3039 7.20324 17.5786 7.61436C17.8533 8.02549 18 8.50858 18 9.00303C18 9.66607 17.7367 10.3018 17.2679 10.7706C16.799 11.2395 16.163 11.503 15.5 11.503ZM8.99999 11.503C8.50553 11.503 8.02219 11.3568 7.61107 11.0821C7.19995 10.8074 6.87939 10.4169 6.69018 9.96007C6.50095 9.50325 6.45162 9.00068 6.54808 8.51573C6.64455 8.03078 6.88253 7.58509 7.23217 7.23546C7.5818 6.88583 8.02724 6.64735 8.51219 6.55089C8.99715 6.45442 9.49995 6.50425 9.95679 6.69347C10.4136 6.88268 10.8039 7.20324 11.0786 7.61436C11.3533 8.02549 11.5 8.50858 11.5 9.00303C11.5 9.66607 11.2367 10.3018 10.7678 10.7706C10.299 11.2395 9.66303 11.503 8.99999 11.503ZM2.49998 11.503C2.00553 11.503 1.5222 11.3568 1.11107 11.0821C0.699948 10.8074 0.379392 10.4169 0.190173 9.96007C0.000953847 9.50325 -0.0483799 9.00068 0.048083 8.51573C0.144546 8.03078 0.382534 7.58509 0.732165 7.23546C1.0818 6.88583 1.52725 6.64735 2.01219 6.55089C2.49715 6.45442 2.99996 6.50425 3.45677 6.69347C3.91359 6.88268 4.3039 7.20324 4.5786 7.61436C4.8533 8.02549 4.99999 8.50858 4.99999 9.00303C4.99999 9.66607 4.73665 10.3018 4.26781 10.7706C3.79897 11.2395 3.16303 11.503 2.49998 11.503Z" fill="#919191"/>
</svg>
