<svg width="18" height="18" viewBox="0 0 18 18" fill="none" xmlns="http://www.w3.org/2000/svg">
<path d="M15.857 7.286H10.714V2.143C10.714 1.83986 10.5936 1.54913 10.3792 1.33478C10.1649 1.12042 9.87414 1 9.571 1H8.429C8.12586 1 7.83513 1.12042 7.62078 1.33478C7.40642 1.54913 7.286 1.83986 7.286 2.143V7.286H2.143C1.83986 7.286 1.54913 7.40642 1.33478 7.62078C1.12042 7.83513 1 8.12586 1 8.429L1 9.572C1 9.87514 1.12042 10.1659 1.33478 10.3802C1.54913 10.5946 1.83986 10.715 2.143 10.715H7.286V15.858C7.28626 16.161 7.40681 16.4514 7.62113 16.6656C7.83546 16.8797 8.12603 17 8.429 17H9.571C9.87414 17 10.1649 16.8796 10.3792 16.6652C10.5936 16.4509 10.714 16.1601 10.714 15.857V10.714H15.857C16.1601 10.714 16.4509 10.5936 16.6652 10.3792C16.8796 10.1649 17 9.87414 17 9.571V8.429C17 8.12586 16.8796 7.83513 16.6652 7.62078C16.4509 7.40642 16.1601 7.286 15.857 7.286Z" fill="#6692F1"/>
</svg>
