<svg width="96" height="36" viewBox="0 0 96 36" fill="none" xmlns="http://www.w3.org/2000/svg">
<path fill-rule="evenodd" clip-rule="evenodd" d="M18.575 18.0198C18.9757 17.9433 19.6483 17.8155 20.4706 17.6592C22.782 17.22 26.2763 16.5559 28.2396 16.1749L30.2469 11.5633H29.5487C29.0042 11.5633 28.9588 11.3149 29.1124 11.1133L30.3132 9.76326C30.4072 9.61546 30.5375 9.49601 30.6908 9.41697C30.8441 9.33793 31.0149 9.30212 31.186 9.31326H31.9941C36.0087 5.77986 45.0204 0.00366596 54.0741 0.00366596H55.645C55.8601 0.0031914 56.0732 0.0465353 56.2721 0.131217C56.4709 0.215899 56.6516 0.340295 56.8037 0.497172C56.9558 0.654049 57.0764 0.840329 57.1585 1.04539C57.2407 1.25045 57.2827 1.47019 57.2822 1.69204V27.4303H70.8968C70.7259 27.5913 70.5656 27.7639 70.4168 27.9468C70.2395 28.1741 70.079 28.4148 69.9368 28.6669C69.8479 28.8199 69.7675 28.9779 69.6959 29.1403C69.5679 29.399 69.4656 29.6704 69.3905 29.9503C69.2508 30.4631 69.1774 30.9927 69.1723 31.5253V32.5602C69.1718 32.7391 69.1028 32.9105 68.9801 33.037C68.8574 33.1635 68.6912 33.2347 68.5177 33.2352H67.645C67.4728 33.2307 67.3088 33.1581 67.187 33.0325C67.0652 32.9069 66.9949 32.7378 66.9905 32.5602V32.2003H57.2805V32.8753C57.2801 32.9945 57.2339 33.1086 57.1521 33.1929C57.0704 33.2772 56.9597 33.3248 56.8442 33.3253H28.6376C28.9187 32.4784 28.9998 31.5745 28.8742 30.6888C28.7485 29.8031 28.4197 28.961 27.915 28.2327C27.4104 27.5044 26.7444 26.9108 25.9725 26.5013C25.2006 26.0917 24.3452 25.8781 23.4771 25.8781C22.6091 25.8781 21.7536 26.0917 20.9817 26.5013C20.2098 26.9108 19.5439 27.5044 19.0393 28.2327C18.5346 28.961 18.2057 29.8031 18.08 30.6888C17.9544 31.5745 18.0356 32.4784 18.3167 33.3253H14.4122C14.2966 33.3248 14.1858 33.2772 14.1041 33.1929C14.0223 33.1086 13.9763 32.9945 13.9758 32.8753V31.6602C13.3676 31.3603 12.8658 30.8714 12.5411 30.2621C12.2164 29.6528 12.0851 28.9539 12.1657 28.2637V25.3387C12.1604 21.1915 14.8659 18.7398 18.575 18.0198ZM30.9032 17.2333L38.955 16.8048C39.2478 16.7812 39.5216 16.6463 39.7232 16.426C39.9248 16.2058 40.0398 15.9161 40.0459 15.6133V12.2166C40.042 12.1267 40.0208 12.0384 39.9833 11.9571C39.9459 11.8758 39.8929 11.8031 39.8277 11.7432C39.6858 11.6242 39.5078 11.5605 39.3249 11.5633L33.4132 11.6298C33.1994 11.6259 32.9887 11.6827 32.804 11.7938C32.6193 11.9048 32.4677 12.0661 32.3658 12.2599L30.5558 16.7149C30.5278 16.7728 30.5155 16.8373 30.5201 16.9018C30.5247 16.9664 30.5461 17.0284 30.582 17.0815C30.6179 17.1345 30.667 17.1766 30.7241 17.2033C30.7813 17.23 30.8443 17.2404 30.9066 17.2333H30.9032ZM17.5399 21.1264C16.4357 21.6361 15.5461 22.5382 15.0332 23.668C14.681 23.7513 14.3209 23.7935 13.9596 23.794C14.2013 22.8729 14.6742 22.0339 15.3307 21.3614C15.9871 20.6889 16.8039 20.2068 17.6987 19.9636C17.6958 20.3567 17.6424 20.7477 17.5399 21.1264Z" fill="#919191"/>
<path d="M74.6225 36.0019C77.0325 36.0019 78.9861 33.9872 78.9861 31.5019C78.9861 29.0166 77.0325 27.0019 74.6225 27.0019C72.2125 27.0019 70.2589 29.0166 70.2589 31.5019C70.2589 33.9872 72.2125 36.0019 74.6225 36.0019Z" fill="#919191"/>
<path d="M86.1759 36.0019C88.5859 36.0019 90.5395 33.9872 90.5395 31.5019C90.5395 29.0166 88.5859 27.0019 86.1759 27.0019C83.7659 27.0019 81.8123 29.0166 81.8123 31.5019C81.8123 33.9872 83.7659 36.0019 86.1759 36.0019Z" fill="#919191"/>
<path d="M78.5525 27.041L76.327 26.141C76.2067 26.103 76.1053 26.0184 76.0441 25.9049C75.983 25.7915 75.9667 25.6581 75.9989 25.5326L76.0652 25.3076C76.1318 25.1912 76.239 25.1055 76.3649 25.068C76.4908 25.0305 76.626 25.0441 76.7425 25.106L82.4361 27.4226C81.7251 28.1088 81.2055 28.979 80.9315 29.9426H79.8406C79.5666 28.979 79.047 28.1088 78.336 27.4226L78.5525 27.041Z" fill="#919191"/>
<path d="M23.4759 36.0019C25.8859 36.0019 27.8395 33.9872 27.8395 31.5019C27.8395 29.0166 25.8859 27.0019 23.4759 27.0019C21.0659 27.0019 19.1123 29.0166 19.1123 31.5019C19.1123 33.9872 21.0659 36.0019 23.4759 36.0019Z" fill="#919191"/>
<path d="M89.8986 27.4255H93.3687C93.4842 27.426 93.5949 27.4735 93.6766 27.5578C93.7584 27.6421 93.8046 27.7563 93.805 27.8755V32.5555C93.8006 32.7331 93.7302 32.9022 93.6084 33.0278C93.4865 33.1534 93.3227 33.2259 93.1505 33.2305H92.2777C92.1043 33.23 91.938 33.1588 91.8154 33.0323C91.6927 32.9058 91.6237 32.7344 91.6232 32.5555V31.5205C91.618 30.9879 91.5446 30.4583 91.405 29.9455C91.3297 29.6656 91.2273 29.3943 91.0995 29.1356C91.0278 28.9732 90.9474 28.8152 90.8586 28.6622C90.7164 28.41 90.556 28.1693 90.3787 27.9421C90.2299 27.7592 90.0695 27.5866 89.8986 27.4255Z" fill="#919191"/>
</svg>
