<svg width="18" height="18" viewBox="0 0 18 18" fill="none" xmlns="http://www.w3.org/2000/svg">
<path d="M8.99922 0.450195C7.30819 0.450195 5.65514 0.951644 4.2491 1.89113C2.84306 2.83062 1.74718 4.16594 1.10005 5.72825C0.452924 7.29056 0.283605 9.00968 0.613508 10.6682C0.943412 12.3268 1.75772 13.8502 2.95346 15.046C4.1492 16.2417 5.67266 17.056 7.3312 17.3859C8.98974 17.7158 10.7089 17.5465 12.2712 16.8994C13.8335 16.2522 15.1688 15.1564 16.1083 13.7503C17.0478 12.3443 17.5492 10.6912 17.5492 9.00019C17.549 6.73267 16.6481 4.5581 15.0447 2.95473C13.4413 1.35135 11.2667 0.45046 8.99922 0.450195ZM8.99922 15.8952C7.63453 15.8952 6.30049 15.4905 5.16579 14.7323C4.03109 13.9742 3.1467 12.8965 2.62445 11.6357C2.10221 10.3749 1.96557 8.98754 2.2318 7.64907C2.49804 6.3106 3.1552 5.08114 4.12019 4.11616C5.08517 3.15118 6.31463 2.49401 7.6531 2.22778C8.99157 1.96154 10.3789 2.09818 11.6397 2.62043C12.9005 3.14267 13.9782 4.02706 14.7364 5.16176C15.4945 6.29646 15.8992 7.6305 15.8992 8.9952C15.9004 9.90165 15.7227 10.7994 15.3764 11.6371C15.0301 12.4748 14.5219 13.2359 13.8809 13.8769C13.2399 14.5178 12.4788 15.026 11.6411 15.3724C10.8035 15.7187 9.90568 15.8964 8.99922 15.8952ZM10.4492 12.3102C10.4492 12.5966 10.3643 12.8765 10.2052 13.1147C10.0461 13.3528 9.81993 13.5384 9.55535 13.648C9.29076 13.7576 8.99962 13.7862 8.71873 13.7304C8.43785 13.6745 8.17984 13.5366 7.97733 13.3341C7.77483 13.1316 7.63692 12.8736 7.58105 12.5927C7.52517 12.3118 7.55385 12.0207 7.66345 11.7561C7.77304 11.4915 7.95863 11.2653 8.19676 11.1062C8.43488 10.9471 8.71484 10.8622 9.00122 10.8622C9.38509 10.8627 9.75309 11.0155 10.0245 11.2869C10.296 11.5583 10.4487 11.9263 10.4492 12.3102ZM7.64422 5.02219L7.87822 9.71119C7.8836 9.81714 7.92945 9.91698 8.0063 9.99011C8.08315 10.0632 8.18514 10.1041 8.29122 10.1042H9.70922C9.81531 10.1041 9.9173 10.0632 9.99415 9.99011C10.071 9.91698 10.1168 9.81714 10.1222 9.71119L10.3562 5.02219C10.3589 4.96625 10.3503 4.91034 10.3307 4.85785C10.3112 4.80536 10.2812 4.75737 10.2426 4.7168C10.204 4.67623 10.1576 4.64391 10.1061 4.6218C10.0546 4.5997 9.99923 4.58826 9.94322 4.58819H8.05522C7.9993 4.58827 7.94398 4.59967 7.89259 4.62172C7.8412 4.64376 7.7948 4.67599 7.75621 4.71645C7.71761 4.75692 7.68761 4.80478 7.66802 4.85716C7.64843 4.90953 7.63966 4.96533 7.64222 5.0212L7.64422 5.02219Z" fill="#E66767"/>
</svg>
