<svg width="18" height="18" viewBox="0 0 18 18" fill="none" xmlns="http://www.w3.org/2000/svg">
<path d="M8.99922 0.450195C7.30819 0.450195 5.65514 0.951644 4.2491 1.89113C2.84306 2.83062 1.74718 4.16594 1.10005 5.72825C0.452924 7.29056 0.283605 9.00968 0.613508 10.6682C0.943412 12.3268 1.75772 13.8502 2.95346 15.046C4.1492 16.2417 5.67266 17.056 7.3312 17.3859C8.98974 17.7158 10.7089 17.5465 12.2712 16.8994C13.8335 16.2522 15.1688 15.1564 16.1083 13.7503C17.0478 12.3443 17.5492 10.6912 17.5492 9.00019C17.5494 7.87736 17.3283 6.76549 16.8987 5.7281C16.469 4.6907 15.8392 3.74811 15.0453 2.95414C14.2513 2.16017 13.3087 1.53039 12.2713 1.10076C11.2339 0.671126 10.1221 0.450064 8.99922 0.450195ZM8.99922 15.8952C7.63453 15.8952 6.30049 15.4905 5.16579 14.7323C4.03109 13.9742 3.1467 12.8965 2.62445 11.6357C2.10221 10.3749 1.96557 8.98754 2.2318 7.64907C2.49804 6.3106 3.1552 5.08114 4.12019 4.11616C5.08517 3.15118 6.31463 2.49401 7.6531 2.22778C8.99157 1.96154 10.3789 2.09818 11.6397 2.62043C12.9005 3.14267 13.9782 4.02706 14.7364 5.16176C15.4945 6.29646 15.8992 7.6305 15.8992 8.9952C15.9001 9.90158 15.7223 10.7992 15.3759 11.6368C15.0294 12.4744 14.5212 13.2354 13.8803 13.8763C13.2394 14.5172 12.4784 15.0254 11.6408 15.3718C10.8033 15.7183 9.9056 15.8961 8.99922 15.8952ZM11.1302 12.2952L8.20322 10.1682C8.15092 10.1296 8.10838 10.0793 8.07903 10.0213C8.04969 9.96327 8.03434 9.8992 8.03422 9.8342V4.17319C8.03475 4.06348 8.07871 3.95843 8.15648 3.88104C8.23425 3.80364 8.3395 3.76019 8.44922 3.7602H9.54922C9.65894 3.76046 9.76409 3.80416 9.84167 3.88174C9.91926 3.95933 9.96296 4.06448 9.96322 4.1742V9.05919L12.2632 10.7352C12.3073 10.7672 12.3446 10.8076 12.373 10.8541C12.4014 10.9005 12.4203 10.9522 12.4287 11.006C12.4371 11.0598 12.4347 11.1147 12.4217 11.1676C12.4088 11.2205 12.3855 11.2703 12.3532 11.3142L11.7052 12.2072C11.6399 12.2953 11.5426 12.3542 11.4342 12.371C11.3258 12.3879 11.2152 12.3613 11.1262 12.2972L11.1302 12.2952Z" fill="#919191"/>
</svg>
