<svg width="18" height="18" viewBox="0 0 18 18" fill="none" xmlns="http://www.w3.org/2000/svg">
<path d="M8.99922 0.450195C7.30819 0.450195 5.65514 0.951644 4.2491 1.89113C2.84306 2.83062 1.74718 4.16594 1.10005 5.72825C0.452924 7.29056 0.283605 9.00968 0.613508 10.6682C0.943412 12.3268 1.75772 13.8502 2.95346 15.046C4.1492 16.2417 5.67266 17.056 7.3312 17.3859C8.98974 17.7158 10.7089 17.5465 12.2712 16.8994C13.8335 16.2522 15.1688 15.1564 16.1083 13.7503C17.0478 12.3443 17.5492 10.6912 17.5492 9.00019C17.5492 6.73259 16.6484 4.55787 15.045 2.95443C13.4415 1.351 11.2668 0.450195 8.99922 0.450195ZM8.99922 2.1052C10.3639 2.1052 11.698 2.50987 12.8327 3.26805C13.9674 4.02624 14.8517 5.10387 15.374 6.36468C15.8962 7.62549 16.0329 9.01285 15.7666 10.3513C15.5004 11.6898 14.8432 12.9192 13.8783 13.8842C12.9133 14.8492 11.6838 15.5064 10.3453 15.7726C9.00688 16.0389 7.61952 15.9022 6.35871 15.38C5.0979 14.8577 4.02026 13.9733 3.26208 12.8386C2.5039 11.7039 2.09922 10.3699 2.09922 9.0052C2.09804 8.09874 2.2757 7.20096 2.62204 6.36328C2.96838 5.5256 3.47658 4.76448 4.11754 4.12352C4.7585 3.48256 5.51962 2.97435 6.35731 2.62801C7.19499 2.28168 8.09277 2.10401 8.99922 2.1052ZM13.8332 6.5962L13.0562 5.8132C12.9786 5.7357 12.8734 5.69218 12.7637 5.69218C12.654 5.69218 12.5488 5.7357 12.4712 5.8132L7.59822 10.6472L5.53722 8.56919C5.4596 8.4917 5.3544 8.44818 5.24472 8.44818C5.13504 8.44818 5.02984 8.4917 4.95222 8.56919L4.16922 9.3462C4.09173 9.42382 4.04821 9.52901 4.04821 9.63869C4.04821 9.74838 4.09173 9.85358 4.16922 9.9312L7.29922 13.0862C7.37684 13.1637 7.48204 13.2072 7.59172 13.2072C7.7014 13.2072 7.8066 13.1637 7.88422 13.0862L13.8342 7.1862C13.8733 7.14761 13.9043 7.10163 13.9254 7.05095C13.9465 7.00027 13.9573 6.94589 13.9573 6.89099C13.9572 6.83608 13.9461 6.78174 13.9249 6.73113C13.9036 6.68052 13.8724 6.63465 13.8332 6.5962Z" fill="#6692F1"/>
</svg>
