<svg xmlns="http://www.w3.org/2000/svg" width="120" height="18" viewBox="0 0 120 18">
  <g id="Bank_-_Chime" data-name="Bank - Chime" transform="translate(17821 3819)">
    <rect id="Rectangle_64029" data-name="Rectangle 64029" width="120" height="18" transform="translate(-17821 -3819)" fill="#aaa" opacity="0"/>
    <g id="Group_80747" data-name="Group 80747" transform="translate(-17821 -3819)">
      <path id="Path_7176" data-name="Path 7176" d="M373.571,537.8a4.943,4.943,0,0,0-3.7,1.754,4.957,4.957,0,0,0-3.7-1.754s-4.233-.317-4.233,4.6v7.959h3.069v-7.512c0-2.2,1.483-2.249,1.774-2.183a1.681,1.681,0,0,1,1.023.532,5.686,5.686,0,0,0-1.051,2.865s-.216,4.134,3.116,4.134,3.116-4.134,3.116-4.134a5.687,5.687,0,0,0-1.051-2.865,1.681,1.681,0,0,1,1.023-.532c.281-.065,1.774-.019,1.774,2.183v7.512H377.8V542.4C377.794,537.482,373.571,537.8,373.571,537.8Zm-3.707,8.155c-.657,0-.873-.821-.882-1.6a3.8,3.8,0,0,1,.882-2.361,3.738,3.738,0,0,1,.882,2.361C370.746,545.134,370.521,545.955,369.864,545.955Z" transform="translate(-331.471 -532.565)" fill="#1ec677"/>
      <path id="Path_7177" data-name="Path 7177" d="M348.548,538.519h-3.069v12.364h3.069Z" transform="translate(-319.802 -533.079)" fill="#1ec677"/>
      <path id="Path_7178" data-name="Path 7178" d="M346.219,520.024a1.843,1.843,0,1,0,1.839,1.829A1.856,1.856,0,0,0,346.219,520.024Z" transform="translate(-319.003 -519.94)" fill="#1ec677"/>
      <path id="Path_7179" data-name="Path 7179" d="M304.731,526v-6.27H301.69v17.8h3.041v-8.911c5.04-2.435,4.852,1.418,4.852,1.418v7.493h3.05v-7.493C312.624,522.8,306.261,525.193,304.731,526Z" transform="translate(-288.767 -519.734)" fill="#1ec677"/>
      <path id="Path_7180" data-name="Path 7180" d="M423.511,544.8a12.375,12.375,0,0,0,3.707.522c4.918-.028,4.777-3.583,4.777-3.583-.122-4-4.852-3.928-4.852-3.928a6.29,6.29,0,0,0-6.654,6.485c0,3.817,2.684,6.28,6.832,6.28a8.02,8.02,0,0,0,4.617-1.334V546.3a6.482,6.482,0,0,1-4.261,1.614C427.687,547.916,423.426,548.13,423.511,544.8Zm.375-2.6a3.072,3.072,0,0,1,3.106-1.978c1.248,0,1.971.523,1.971,1.353,0,1.166-1.323,1.269-2.562,1.269a10.012,10.012,0,0,1-2.309-.215l-.329-.075Z" transform="translate(-372.964 -532.575)" fill="#1ec677"/>
      <path id="Path_7181" data-name="Path 7181" d="M263.948,550.575a7.567,7.567,0,0,0,4.6-1.493v-2.958a7.27,7.27,0,0,1-4.317,1.661,3.6,3.6,0,0,1-3.8-3.733,3.354,3.354,0,0,1,3.463-3.546,6.756,6.756,0,0,1,1.849.336,7.312,7.312,0,0,0,2.065.373,4.8,4.8,0,0,0,.732-.056v-2.818c-.206.019-.4.037-.61.037a9.558,9.558,0,0,1-2.008-.27,10.534,10.534,0,0,0-2.281-.3,6.361,6.361,0,0,0-4.43,1.7,6.278,6.278,0,0,0-1.887,4.684C257.322,547.953,260.044,550.575,263.948,550.575Z" transform="translate(-257.322 -532.575)" fill="#1ec677"/>
      <path id="Path_7182" data-name="Path 7182" d="M465.89,539.3a1.389,1.389,0,0,0-.09-.508,1.188,1.188,0,0,0-.249-.4,1.105,1.105,0,0,0-.372-.256,1.124,1.124,0,0,0-.458-.094,1.163,1.163,0,0,0-.466.094,1.105,1.105,0,0,0-.372.256,1.194,1.194,0,0,0-.25.4,1.4,1.4,0,0,0-.09.508,1.438,1.438,0,0,0,.082.488,1.213,1.213,0,0,0,.233.4,1.171,1.171,0,0,0,.372.273,1.188,1.188,0,0,0,.491.1,1.113,1.113,0,0,0,.831-.35,1.2,1.2,0,0,0,.249-.395A1.4,1.4,0,0,0,465.89,539.3Zm.327,0a1.535,1.535,0,0,1-.123.622,1.415,1.415,0,0,1-.327.48,1.444,1.444,0,0,1-.479.309,1.494,1.494,0,0,1-.569.11,1.589,1.589,0,0,1-.61-.114,1.475,1.475,0,0,1-.475-.321,1.527,1.527,0,0,1-.311-.48,1.641,1.641,0,0,1-.11-.606,1.579,1.579,0,0,1,.119-.622,1.442,1.442,0,0,1,.81-.789,1.535,1.535,0,0,1,.577-.11,1.494,1.494,0,0,1,.569.11,1.452,1.452,0,0,1,.479.309,1.42,1.42,0,0,1,.327.48A1.536,1.536,0,0,1,466.217,539.3Zm-1.489-.085c.052,0,.1,0,.147,0a.349.349,0,0,0,.127-.036.236.236,0,0,0,.086-.077.277.277,0,0,0,.033-.147.188.188,0,0,0-.037-.122.216.216,0,0,0-.086-.069.338.338,0,0,0-.118-.029,1.08,1.08,0,0,0-.127-.008h-.336v.492Zm-.311.956h-.278v-1.684h.642a.781.781,0,0,1,.462.114.428.428,0,0,1,.156.37.41.41,0,0,1-.127.334.575.575,0,0,1-.315.126l.475.74h-.315l-.437-.72h-.262Z" transform="translate(-403.245 -532.552)" fill="#1ec677"/>
      <path id="Path_7183" data-name="Path 7183" d="M465.1,538.093a1.1,1.1,0,0,0-.447-.091,1.138,1.138,0,0,0-.455.091h0a1.077,1.077,0,0,0-.363.25,1.159,1.159,0,0,0-.244.389,1.363,1.363,0,0,0-.088.5,1.408,1.408,0,0,0,.08.479,1.185,1.185,0,0,0,.228.39,1.14,1.14,0,0,0,.363.266,1.222,1.222,0,0,0,.926.008,1.122,1.122,0,0,0,.363-.254,1.187,1.187,0,0,0,.244-.385,1.38,1.38,0,0,0,.088-.5,1.362,1.362,0,0,0-.088-.5,1.165,1.165,0,0,0-.244-.389,1.071,1.071,0,0,0-.363-.25Zm.011,2.306a1.171,1.171,0,0,1-.458.089,1.187,1.187,0,0,1-.491-.1,1.17,1.17,0,0,1-.372-.273,1.215,1.215,0,0,1-.233-.4,1.436,1.436,0,0,1-.082-.488,1.394,1.394,0,0,1,.09-.509,1.2,1.2,0,0,1,.25-.4,1.106,1.106,0,0,1,.373-.256,1.162,1.162,0,0,1,.466-.094,1.123,1.123,0,0,1,.458.094,1.105,1.105,0,0,1,.372.256,1.187,1.187,0,0,1,.249.4,1.493,1.493,0,0,1,0,1.021,1.2,1.2,0,0,1-.249.4A1.162,1.162,0,0,1,465.109,540.4Zm-1.079.265a1.509,1.509,0,0,1-.483-.328h0a1.545,1.545,0,0,1-.317-.489h0a1.666,1.666,0,0,1-.112-.616,1.612,1.612,0,0,1,.121-.633h0a1.53,1.53,0,0,1,.333-.489h0a1.524,1.524,0,0,1,.492-.315,1.563,1.563,0,0,1,.587-.112,1.521,1.521,0,0,1,.579.112,1.481,1.481,0,0,1,.488.315,1.445,1.445,0,0,1,.334.489,1.668,1.668,0,0,1,0,1.267,1.443,1.443,0,0,1-.334.489,1.477,1.477,0,0,1-.488.315,1.521,1.521,0,0,1-.579.112,1.627,1.627,0,0,1-.62-.116Zm1.19-.022a1.451,1.451,0,0,0,.479-.309,1.415,1.415,0,0,0,.327-.48,1.64,1.64,0,0,0,0-1.245,1.419,1.419,0,0,0-.327-.48,1.453,1.453,0,0,0-.479-.309,1.5,1.5,0,0,0-.569-.11,1.537,1.537,0,0,0-.577.11,1.442,1.442,0,0,0-.81.789,1.58,1.58,0,0,0-.119.622,1.641,1.641,0,0,0,.11.606,1.528,1.528,0,0,0,.311.48,1.478,1.478,0,0,0,.475.321,1.591,1.591,0,0,0,.61.114A1.5,1.5,0,0,0,465.22,540.642Zm-.227-1.866h0a.186.186,0,0,0-.075-.06.3.3,0,0,0-.109-.026h0a1.019,1.019,0,0,0-.124-.008h-.307v.436h.283q.076,0,.145,0a.321.321,0,0,0,.116-.033.209.209,0,0,0,.076-.068.254.254,0,0,0,.028-.132.159.159,0,0,0-.031-.1Zm.026.251a.237.237,0,0,1-.086.077.351.351,0,0,1-.127.036c-.046,0-.1,0-.147,0h-.311v-.492h.335a1.078,1.078,0,0,1,.127.008.34.34,0,0,1,.119.029.215.215,0,0,1,.086.069.187.187,0,0,1,.037.122A.279.279,0,0,1,465.019,539.027Zm-.643,1.1h-.334v-1.74h.671a.806.806,0,0,1,.479.119.456.456,0,0,1,.167.393.438.438,0,0,1-.137.355.588.588,0,0,1-.286.127l.479.747h-.382l-.438-.72h-.218Zm-.028-.748h.262l.438.72h.315l-.474-.74.031,0a.569.569,0,0,0,.284-.122.41.41,0,0,0,.127-.334.428.428,0,0,0-.156-.37.781.781,0,0,0-.462-.114h-.642V540.1h.278Z" transform="translate(-403.176 -532.484)" fill="#1ec677" fill-rule="evenodd"/>
    </g>
  </g>
</svg>
