<svg xmlns="http://www.w3.org/2000/svg" width="120" height="18" viewBox="0 0 120 18">
  <g id="Group_112606" data-name="Group 112606" transform="translate(-3436 -740)">
    <rect id="Rectangle_87463" data-name="Rectangle 87463" width="120" height="18" transform="translate(3436 740)" fill="none"/>
    <path id="Path_41746" data-name="Path 41746" d="M74.931,16.487V9.875H70.362v3.276H68.613V4.85h1.749V8.125h4.569V1.514H59.958V8.125h4.57V4.85h1.749v8.3H64.528V9.875h-4.57v6.612Zm-16.486-.132V1.646A1.515,1.515,0,0,1,60.091,0H74.8a1.515,1.515,0,0,1,1.646,1.646V16.355A1.514,1.514,0,0,1,74.8,18H60.091a1.514,1.514,0,0,1-1.646-1.645m-9.594-2.211V5.5H45.589V3.858h8.317V5.5H50.644v8.641ZM40.3,9.72c-1.382-.47-2.88-1.057-2.88-2.982,0-1.88,1.4-3.1,3.541-3.1a5.946,5.946,0,0,1,2.5.544v1.88a4.689,4.689,0,0,0-2.5-.793c-1.058,0-1.719.5-1.719,1.293,0,.941.867,1.219,2.233,1.69,1.382.47,2.88,1.057,2.88,2.982s-1.425,3.13-3.615,3.13a6.407,6.407,0,0,1-2.968-.72v-1.91a5.534,5.534,0,0,0,2.968,1c1.1,0,1.793-.53,1.793-1.322,0-.941-.867-1.22-2.233-1.691m-7.67,4.424h1.793V3.858H32.631Zm-11.65-3.983v-6.3h1.792v6.274a2.349,2.349,0,1,0,4.673,0V3.858h1.792v6.3a3.953,3.953,0,0,1-4.129,4.2,3.953,3.953,0,0,1-4.128-4.2M14.619,8.884a1.665,1.665,0,0,0,1.749-1.7,1.66,1.66,0,0,0-1.749-1.69H12.4V8.884Zm.323,3.187c-.5-1.028-.764-1.587-1.924-1.587H12.4v3.66H10.608V3.858h4.026A3.288,3.288,0,0,1,18.2,7.135a2.973,2.973,0,0,1-2.395,3.026c.66.677.881,1.559,1.322,2a1.2,1.2,0,0,0,.926.4,1.653,1.653,0,0,0,.411-.044v1.632a3.232,3.232,0,0,1-.647.073c-1.778,0-2.321-.984-2.88-2.146M3.262,14.144V5.5H0V3.858H8.317V5.5H5.055v8.641Z" transform="translate(3436 740)" fill="#fff" fill-rule="evenodd"/>
  </g>
</svg>
