<svg xmlns="http://www.w3.org/2000/svg" width="120" height="18" viewBox="0 0 120 18">
  <g id="Bank_-_Bank_of_America" data-name="Bank - Bank of America" transform="translate(17821 3931)">
    <rect id="Rectangle_64025" data-name="Rectangle 64025" width="120" height="18" transform="translate(-17821 -3931)" fill="#aaa" opacity="0"/>
    <g id="Group_6064" data-name="Group 6064" transform="translate(-17821 -3928.281)">
      <g id="Group_6063" data-name="Group 6063" transform="translate(95.188)">
        <path id="Path_4752" data-name="Path 4752" d="M666.529,68.274c.738.288,1.473.595,2.189.94a46.156,46.156,0,0,0-6.627,3.3c-.715-.371-1.453-.739-2.189-1.067A47.058,47.058,0,0,1,666.529,68.274Zm-2.74-.963a39.557,39.557,0,0,0-6.852,2.932c.7.265,1.391.535,2.067.82a37.753,37.753,0,0,1,6.649-3.116c-.618-.226-1.231-.451-1.864-.636Z" transform="translate(-656.937 -65.188)" fill="#76b1d9" fill-rule="evenodd"/>
        <path id="Path_4753" data-name="Path 4753" d="M688.435,61.4a42.391,42.391,0,0,0-5.81-2.27c-.715.2-1.411.429-2.085.655a41.726,41.726,0,0,1,5.974,2.309c.636-.243,1.271-.47,1.924-.694Zm3.05-.9a42.419,42.419,0,0,0-5.911-2.086c-.655.124-1.29.264-1.921.429a39.41,39.41,0,0,1,5.85,2.228c.653-.2,1.326-.409,1.983-.575Zm4.91,1.638a51.547,51.547,0,0,0-13.377,6.81c1.023.634,2,1.289,2.967,2a54.326,54.326,0,0,1,12.7-7.5q-1.127-.7-2.294-1.31Zm-3.314-1.558a46.177,46.177,0,0,0-13.91,6.258c.938.47,1.882.963,2.8,1.491a48.845,48.845,0,0,1,13.662-6.582c-.839-.406-1.678-.815-2.554-1.165Z" transform="translate(-673.874 -58.416)" fill="#de5a54" fill-rule="evenodd"/>
      </g>
      <path id="Path_4754" data-name="Path 4754" d="M290.63,64.668c2.113,0,3.19,1.678,3.19,3.926,0,2.328-1.037,3.97-3.19,3.97-2.189,0-3.189-1.64-3.189-3.97C287.441,66.344,288.517,64.668,290.63,64.668Zm0,6.367c.573,0,.825-.534.825-2.444,0-1.753-.178-2.4-.825-2.4s-.825.649-.825,2.4C289.809,70.5,290.057,71.035,290.63,71.035Zm4.665-4.463h-.933V64.894h.934v-.841c0-1.868.859-2.554,2.367-2.554a9.054,9.054,0,0,1,1.147.116v1.868a1.425,1.425,0,0,0-.426-.074c-.611,0-.825.264-.825.724V64.9h1.256v1.678h-1.257v5.838H295.3V66.572Zm-26.643.421c0-.46-.178-.765-.573-.765-.573,0-.753.534-.753.993l-2.01-.46a2.623,2.623,0,0,1,2.832-2.058c1.364,0,2.8.611,2.8,2.289v4.2c0,.839.109,1.1.215,1.219h-2.366a6.423,6.423,0,0,1-.07-.685,2.6,2.6,0,0,1-1.72.839,1.964,1.964,0,0,1-1.974-2.212c.036-1.942,2.113-2.553,3.621-2.749v-.606Zm0,1.794c-.789.074-1.4.421-1.4,1.373,0,.534.248.8.68.8a.961.961,0,0,0,.719-.46Zm5.918-1.757v5.378h-2.3V64.894H274.5l.037.765a2.647,2.647,0,0,1,2-.955,1.56,1.56,0,0,1,1.578,1.753v5.952h-2.3V67.221c0-.421-.145-.649-.541-.649a.91.91,0,0,0-.708.46Zm4.949-5.3h2.3v5.416h.036l1.687-2.246H285.8l-1.9,2.286,1.9,5.224H283.43l-1.112-3.283h-.037l-.465.575v2.708h-2.3V61.732Zm-16.927,5.111a2.753,2.753,0,0,1,1.865,2.708c0,1.828-1.364,2.859-3.3,2.859h-3.836V61.732h3.945a2.672,2.672,0,0,1,2.941,2.592,2.564,2.564,0,0,1-1.612,2.445l-.006.074Zm-2.832,3.584h.931a1.2,1.2,0,0,0,1.291-1.335,1.215,1.215,0,0,0-1.086-1.332,1.2,1.2,0,0,0-.2,0h-.931Zm0-4.46h.858a1.1,1.1,0,0,0,1.245-.935,1.125,1.125,0,0,0,.01-.21c0-1.029-.644-1.183-1.221-1.183h-.892Zm86.322.968c0-.46-.215-.765-.611-.765-.541,0-.719.534-.753.993l-1.974-.46a2.623,2.623,0,0,1,2.833-2.058c1.364,0,2.8.611,2.8,2.289v4.2a2.422,2.422,0,0,0,.178,1.219H346.22a6.4,6.4,0,0,1-.07-.685,2.6,2.6,0,0,1-1.757.839,1.988,1.988,0,0,1-1.974-2.212c.07-1.942,2.152-2.553,3.658-2.749v-.607Zm0,1.794c-.789.074-1.4.421-1.4,1.373,0,.534.248.8.644.8a1.019,1.019,0,0,0,.753-.46Zm-23.487.38c-.036.649.145,1.794,1.076,1.794a1.209,1.209,0,0,0,1.11-1.029l1.542.575a2.95,2.95,0,0,1-2.833,2.058c-2.189,0-3.189-1.868-3.189-3.97,0-2.138,1.076-3.926,3.156-3.926,2.189,0,2.978,2.023,2.978,4v.5h-3.84Zm1.723-1.447c0-.685-.07-1.524-.859-1.524-.644,0-.9.839-.858,1.524Zm8.245-2.821h2.3v7.512h-2.3Zm0-3.164h2.3v2.174h-2.3Zm7.35,5.952a2.767,2.767,0,0,0-.109-.955.667.667,0,0,0-.644-.536c-.753,0-.858.993-.858,2.518,0,1.678.248,2.246.858,2.246.789,0,.859-.878.859-1.45l1.8.264c-.178,1.828-1.185,2.782-2.832,2.782-2.044,0-3.12-1.91-3.12-3.778,0-2.058,1.077-4.116,3.226-4.116a2.832,2.832,0,0,1,2.8,3.013l-1.974.009Zm-36.14-5.954h3.336l2.113,10.676h-2.438l-.4-2.174h-2.33l-.465,2.174H301.4Zm.611,6.634h1.648l-.719-4.347h-.075l-.853,4.35Zm22.979-3.471h2.222v.993h.037a2.493,2.493,0,0,1,2.222-1.183v2.444a2.245,2.245,0,0,0-.931-.19,1.44,1.44,0,0,0-1.255.575v4.884h-2.3V64.836Zm-11.579,2.142v5.374h-2.259V67.2c0-.421-.109-.685-.535-.685a1.091,1.091,0,0,0-.753.454v5.376h-2.264V64.836h2.222l.036.765a3.01,3.01,0,0,1,2.044-.955,1.441,1.441,0,0,1,1.4.993h.036a2.676,2.676,0,0,1,2.011-.993,1.556,1.556,0,0,1,1.612,1.714v5.985h-2.259V67.2c0-.421-.109-.685-.535-.685a1.127,1.127,0,0,0-.756.456Z" transform="translate(-257.322 -60.763)" fill="#4a90c7" fill-rule="evenodd"/>
    </g>
  </g>
</svg>
