<svg xmlns="http://www.w3.org/2000/svg" xmlns:xlink="http://www.w3.org/1999/xlink" width="120" height="18" viewBox="0 0 120 18">
  <defs>
    <clipPath id="clip-path">
      <rect id="Rectangle_87460" data-name="Rectangle 87460" width="106.071" height="15.669" transform="translate(0 1.166)" fill="none"/>
    </clipPath>
  </defs>
  <g id="Group_112608" data-name="Group 112608" transform="translate(-3436 -700)">
    <rect id="Rectangle_87457" data-name="Rectangle 87457" width="120" height="18" transform="translate(3436 700)" fill="#aaa" opacity="0"/>
    <g id="Group_100917" data-name="Group 100917" transform="translate(3436 700)" clip-path="url(#clip-path)">
      <path id="Path_41732" data-name="Path 41732" d="M78.428,1.8a.946.946,0,0,1,.469.126.891.891,0,0,1,.359.361,1.02,1.02,0,0,1,.125.487.98.98,0,0,1-.125.486.9.9,0,0,1-.359.362,1,1,0,0,1-.469.125.952.952,0,0,1-.843-.487.979.979,0,0,1-.124-.486,1.061,1.061,0,0,1,.124-.487.9.9,0,0,1,.359-.361,1.081,1.081,0,0,1,.484-.126m0,.153a.865.865,0,0,0-.4.112.763.763,0,0,0-.3.292.842.842,0,0,0-.111.4.842.842,0,0,0,.111.4.926.926,0,0,0,.3.306.832.832,0,0,0,.4.111.875.875,0,0,0,.4-.111.694.694,0,0,0,.29-.306.842.842,0,0,0,.111-.4.842.842,0,0,0-.111-.4.857.857,0,0,0-.3-.292.734.734,0,0,0-.386-.112m-.415,1.349V2.264h.359a.983.983,0,0,1,.263.028.225.225,0,0,1,.124.1.292.292,0,0,1,.055.153.251.251,0,0,1-.083.195.327.327,0,0,1-.221.1.21.21,0,0,1,.083.056.989.989,0,0,1,.152.208l.125.209h-.194l-.1-.167A.752.752,0,0,0,78.4,2.9a.182.182,0,0,0-.138-.042h-.1v.445Zm.166-.584h.193a.381.381,0,0,0,.207-.042.126.126,0,0,0,.056-.111.1.1,0,0,0-.028-.083.092.092,0,0,0-.069-.056.394.394,0,0,0-.166-.028h-.193Z"/>
      <path id="Path_41733" data-name="Path 41733" d="M24.079,12.177h-.166a2.512,2.512,0,0,1-2.072.959c-2.224,0-3.495-1.766-3.495-4.157s1.271-4.157,3.495-4.157a2.512,2.512,0,0,1,2.072.959h.166l.166-.639.166-.167H25.53l.166.167V12.01c0,3.2-1.755,4.324-3.661,4.324s-3.026-.96-3.178-2.239l.166-.167h1.271l.166.167c.317.64.8.807,1.588.807,1.4,0,2.031-.96,2.031-2.725M22.007,6.254c-1.271,0-2.072.959-2.072,2.725s.8,2.725,2.072,2.725,2.072-.806,2.072-2.725-.787-2.725-2.072-2.725" fill="#fff"/>
      <path id="Path_41734" data-name="Path 41734" d="M31.609,6.421h-.8c-1.271,0-2.073.487-2.073,2.405v4L28.57,13H27.3l-.166-.167v-7.7l.166-.167h1.119l.166.167.165.64h.166a2.5,2.5,0,0,1,2.072-.807h.636l.166.167V6.254Z" fill="#fff"/>
      <path id="Path_41735" data-name="Path 41735" d="M32,8.979c0-2.238,1.119-4.157,3.661-4.157s3.661,1.919,3.661,4.157v.487l-.166.167H33.9l-.166.167a1.906,1.906,0,0,0,2.072,1.918,1.518,1.518,0,0,0,1.589-.959l.166-.167h1.271l.166.167a2.92,2.92,0,0,1-3.178,2.4C33.267,13.136,32,11.371,32,8.979m5.567-.806a1.907,1.907,0,1,0-3.813,0l.166.167h3.495Z" fill="#fff"/>
      <path id="Path_41736" data-name="Path 41736" d="M40.1,8.979c0-2.238,1.119-4.157,3.661-4.157s3.661,1.919,3.661,4.157v.487l-.166.167h-5.25l-.166.167a1.906,1.906,0,0,0,2.072,1.918,1.518,1.518,0,0,0,1.589-.959l.166-.167h1.271l.166.167a2.92,2.92,0,0,1-3.178,2.4c-2.555-.028-3.826-1.793-3.826-4.185m5.567-.806a1.907,1.907,0,1,0-3.813,0l.166.167H45.52Z" fill="#fff"/>
      <path id="Path_41737" data-name="Path 41737" d="M55.37,12.983H54.1l-.166-.167V8.173c0-.807-.165-1.919-1.588-1.919s-2.073.806-2.073,2.725v3.837l-.165.167H48.836l-.166-.167V5.128l.166-.167h1.119l.165.167.166.639h.166a2.514,2.514,0,0,1,2.072-.959c2.225,0,3.026,1.446,3.026,3.365v4.643Z" fill="#fff"/>
      <path id="Path_41738" data-name="Path 41738" d="M63.8,12.983H62.679l-.166-.167-.165-.639h-.166a2.514,2.514,0,0,1-2.072.959c-2.225,0-3.5-1.766-3.5-4.157s1.271-4.157,3.5-4.157a2.514,2.514,0,0,1,2.072.959h.166V1.93l.165-.167h1.272l.165.167V12.816ZM60.3,6.254c-1.271,0-2.072.959-2.072,2.725s.8,2.725,2.072,2.725,2.072-.806,2.072-2.725-.8-2.725-2.072-2.725" fill="#fff"/>
      <path id="Path_41739" data-name="Path 41739" d="M69.047,4.808c2.39,0,3.813,1.6,3.813,4.157s-1.437,4.157-3.813,4.157-3.813-1.6-3.813-4.157,1.437-4.157,3.813-4.157m0,6.882c1.437,0,2.224-.959,2.224-2.725s-.8-2.725-2.224-2.725-2.224.959-2.224,2.725.8,2.725,2.224,2.725" fill="#fff"/>
      <path id="Path_41740" data-name="Path 41740" d="M78.428,12.983H77.157A2.042,2.042,0,0,1,74.933,10.9V6.574l-.166-.167H73.648l-.166-.167V5.114l.166-.167h1.119l.166-.167v-1.4l.165-.167h1.271l.166.167V4.822l.166.167h1.755l.165.167V6.282l-.165.167H76.7l-.166.166V10.9a.58.58,0,0,0,.636.639h1.271l.165.167V12.83Z" fill="#fff"/>
      <path id="Path_41741" data-name="Path 41741" d="M87.159,9.619c0,1.988-.925,3.434-2.763,3.434A2.179,2.179,0,0,1,82.3,12h-.138l-.138.793-.138.139h-.373l-.138-.139V3.808l.138-.139h.525l.138.139V7.242h.138a2.194,2.194,0,0,1,2.1-1.057c1.824,0,2.749,1.46,2.749,3.434m-5,0c0,1.849.788,2.781,2.1,2.781s2.1-.932,2.1-2.781-.788-2.781-2.1-2.781-2.1.932-2.1,2.781" fill="#a6a8ab"/>
      <path id="Path_41742" data-name="Path 41742" d="M92.934,12.928h-.4l-.139-.139-.138-.668h-.138a2.233,2.233,0,0,1-2.1.932c-1.451,0-2.238-.793-2.238-1.988,0-1.46,1.05-2.114,2.763-2.114a10.307,10.307,0,0,1,1.575.14l.138-.14v-.4c0-1.2-.4-1.724-1.713-1.724s-1.713.668-1.713,1.321l-.138.139h-.525l-.138-.139c0-1.056.787-1.988,2.5-1.988,1.976,0,2.5.932,2.5,2.377v4.227Zm-.663-3.045-.138-.139A7.909,7.909,0,0,0,90.682,9.6c-1.575,0-2.1.528-2.1,1.46,0,.792.4,1.321,1.575,1.321a1.966,1.966,0,0,0,2.1-1.989V9.883Z" fill="#a6a8ab"/>
      <path id="Path_41743" data-name="Path 41743" d="M99.634,12.928h-.525l-.138-.139V8.827c0-1.321-.663-1.988-1.713-1.988-1.451,0-2.1.931-2.1,2.377v3.573l-.138.139H94.5l-.138-.139V6.449L94.5,6.31h.4l.138.139.138.793h.138a2.38,2.38,0,0,1,2.1-1.057c1.451,0,2.362.932,2.362,2.642v3.962Z" fill="#a6a8ab"/>
      <path id="Path_41744" data-name="Path 41744" d="M105.934,12.928h-.263l-.262-.139-2.363-3.045h-.138l-.925.932-.139.264v1.849l-.138.139h-.525l-.138-.139V3.808l.138-.139h.525l.138.139V9.619h.139l3.163-3.17.263-.139h.262l.138.139v.4l-2.238,2.239V9.23l2.5,3.17v.4Z" fill="#a6a8ab"/>
    </g>
    <path id="Path_41745" data-name="Path 41745" d="M7.791,1.165a7.843,7.843,0,0,0-.46,15.67h.921a7.843,7.843,0,0,0-.461-15.67Z" transform="translate(3436 700)" fill="#50d840"/>
  </g>
</svg>
