<svg xmlns="http://www.w3.org/2000/svg" width="120" height="18" viewBox="0 0 120 18">
  <g id="Bank_-_MB_Financial" data-name="Bank - MB Financial" transform="translate(17821 3735)">
    <rect id="Rectangle_64032" data-name="Rectangle 64032" width="120" height="18" transform="translate(-17821 -3735)" fill="#aaa" opacity="0"/>
    <g id="Group_6075" data-name="Group 6075" transform="translate(-17821 -3734.399)">
      <g id="Group_6074" data-name="Group 6074">
        <path id="Path_4766" data-name="Path 4766" d="M257.322,901.968v16.8H282.26v-16.8Zm19.654,15.348a2.784,2.784,0,0,1-2.289-1.47h-.039V917.2c-.829-.04-1.973-.159-2.8-.159H268.3V916.6h1.066v-5.529c0-.915-.473-1.352-1.066-1.352-1.183,0-2.171,1.75-2.171,2.824v4.1h1.026v.437H263.6v-.437h1.026v-5.57c0-.915-.473-1.352-1.066-1.352-1.184,0-2.171,1.75-2.171,3.22v3.7h1.063v.438H258.9v-.437h.946V909.8H258.9v-.437h.316a8.03,8.03,0,0,0,2.171-.2v1.829h.042c.671-1.074,1.184-1.829,2.6-1.829a1.945,1.945,0,0,1,2.052,1.829h.04a3.061,3.061,0,0,1,2.683-1.829,1.983,1.983,0,0,1,2.089,2.267V916.6h.948l1.421-.04V903.952h-1.1v-.437h.434a13.254,13.254,0,0,0,2.171-.159v7.119h.039a2.628,2.628,0,0,1,2.171-1.392,3.833,3.833,0,0,1,3.749,4.1C280.686,915.6,279.068,917.316,276.976,917.316Z" transform="translate(-257.322 -901.968)" fill="#d94840"/>
        <path id="Path_4767" data-name="Path 4767" d="M314.195,925.526a2.514,2.514,0,0,0-2.21,1.9c-.08.516-.08,2.182-.08,2.7,0,2.46,1.736,2.817,2.289,2.817,1.934,0,1.973-2.222,1.973-3.769C316.168,927.668,316.089,925.526,314.195,925.526Z" transform="translate(-294.54 -917.991)" fill="#ef3f35"/>
      </g>
      <path id="Path_4768" data-name="Path 4768" d="M351.164,908.02c0-.916-.867-1.274-1.578-1.274-1.816,0-3.157,1.432-3.157,4.775v.955h-1.461v.437h1.462V919.8h-1.462v.438h4.46V919.8h-1.536v-6.845h1.539v-.437h-1.539v-2.228c0-1.95.592-3.1,1.5-3.1.118,0,.434.04.434.12,0,.239-.158.28-.158.477,0,.517.279.915.75.915A.738.738,0,0,0,351.164,908.02Zm2.407,4.377a10.008,10.008,0,0,1-2.171.2h-.631v.437h1.3v6.8h-1.3v.438h3.986v-.438h-1.183Zm-.789-1.631a.975.975,0,1,0-.948-1.034.991.991,0,0,0,.945,1.034Zm10.3,3.542a1.984,1.984,0,0,0-2.289-1.95,2.787,2.787,0,0,0-2.684,2.069h-.04v-2.069a9.9,9.9,0,0,1-1.066.159,9.532,9.532,0,0,1-1.066.04h-.394v.438h1.066v6.844h-1.067v.438h3.592v-.438H358.11v-3.66c0-1.47.986-3.3,2.329-3.3.75,0,1.223.2,1.223,1.631V919.8h-.987v.438h3.55V919.8H363.2l-.118-5.492Zm17.325,0a1.984,1.984,0,0,0-2.289-1.95,2.787,2.787,0,0,0-2.684,2.069h-.04v-2.069a9.906,9.906,0,0,1-1.066.159,9.53,9.53,0,0,1-1.066.04h-.395v.438h1.066v6.844h-1.067v.438h3.592v-.438h-1.026v-3.66c0-1.47.987-3.3,2.329-3.3.75,0,1.223.2,1.223,1.631V919.8H378v.438h3.551V919.8h-1.145Zm-9.04,5.492c-.395,0-.395-.318-.395-.915v-4.7c0-.8,0-1.95-2.645-1.95-2.289,0-3.079,1.194-3.079,1.91,0,.559.278.955.828.955a.76.76,0,0,0,.792-.726.688.688,0,0,0,0-.109c0-.637-.592-.756-.592-.916,0-.56,1.381-.716,1.816-.716.671,0,1.381.28,1.381,1.194v1.87c-2.96,0-4.775,1.035-4.854,2.865,0,1.47,1.026,1.95,2.25,1.95a3.237,3.237,0,0,0,2.6-1.194,1.256,1.256,0,0,0,1.263,1.194,1.665,1.665,0,0,0,1.658-1.632h-.316C371.963,919.242,371.766,919.8,371.371,919.8Zm-1.9-1.831a1.341,1.341,0,0,1-.435,1.194,2.075,2.075,0,0,1-1.5.56,1.424,1.424,0,0,1-1.5-1.343,1.508,1.508,0,0,1,0-.209c0-1.831,2.131-2.03,3.394-2.07l.04,1.87Zm16.42,2.146A2.008,2.008,0,0,1,384,919a6.766,6.766,0,0,1-.395-2.348c0-2.59.473-3.94,2.329-3.94.434,0,1.658.2,1.658.756,0,.2-.632.318-.632,1.074a.875.875,0,0,0,.831.915c.025,0,.049,0,.074,0a.946.946,0,0,0,.87-1.016l0-.019c0-1.513-1.776-2.109-3.039-2.109a4.013,4.013,0,0,0-3.868,4.34,3.82,3.82,0,0,0,3.737,3.9c.057,0,.114,0,.17,0a3.3,3.3,0,0,0,3.236-2.706h-.395A2.937,2.937,0,0,1,385.894,920.115Zm6.354-7.8a10.023,10.023,0,0,1-2.171.2h-.631v.437h1.3V919.8h-1.3v.438h3.946V919.8h-1.144Zm-.671-1.47a.991.991,0,0,0,.987-.994c0-.014,0-.027,0-.041a1.028,1.028,0,0,0-.987-.955,1,1,0,0,0,0,1.99Zm10.064,8.08c-.118.318-.278.875-.671.875s-.395-.318-.395-.915v-4.7c0-.8,0-1.95-2.646-1.95-2.289,0-3.078,1.194-3.078,1.91,0,.559.278.955.828.955a.76.76,0,0,0,.792-.726.674.674,0,0,0,0-.109c0-.637-.592-.756-.592-.916,0-.56,1.381-.716,1.815-.716.671,0,1.381.28,1.381,1.194v1.87c-2.96,0-4.775,1.035-4.854,2.865,0,1.47,1.026,1.95,2.249,1.95a3.237,3.237,0,0,0,2.6-1.194,1.256,1.256,0,0,0,1.263,1.194,1.665,1.665,0,0,0,1.658-1.632A1.2,1.2,0,0,1,401.641,918.924Zm-2.6-.956a1.341,1.341,0,0,1-.434,1.194,2.075,2.075,0,0,1-1.5.56,1.429,1.429,0,0,1-1.5-1.552c0-1.83,2.131-2.03,3.394-2.07l.04,1.87Zm5.881,1.87V906.667a12.535,12.535,0,0,1-2.131.159h-.828v.438h1.462V919.8h-1.462v.438h4.42V919.8c0,.04-1.461.04-1.461.04Z" transform="translate(-317.085 -905.164)" fill="#adadad" style="isolation: isolate"/>
    </g>
  </g>
</svg>
