<svg xmlns="http://www.w3.org/2000/svg" width="15.443" height="13.727" viewBox="0 0 15.443 13.727">
  <path id="Path_32203" data-name="Path 32203" d="M15.272,11.8,8.839.643a1.287,1.287,0,0,0-2.23,0L.177,11.8a1.288,1.288,0,0,0,1.114,1.93H14.157A1.288,1.288,0,0,0,15.272,11.8Zm-7.548.214a.858.858,0,1,1,.858-.858A.858.858,0,0,1,7.725,12.011ZM8.75,5.619,8.407,9.051a.429.429,0,0,1-.427.386H7.47a.429.429,0,0,1-.427-.386L6.7,5.619a.429.429,0,0,1,.426-.472h1.2a.429.429,0,0,1,.427.472Z" transform="translate(-0.003)" fill="#fff"/>
</svg>