<svg id="Group_36046" data-name="Group 36046" xmlns="http://www.w3.org/2000/svg" width="27.852" height="32.756" viewBox="0 0 27.852 32.756">
  <g id="frontal-truck-2">
    <path id="Path_23659-2" data-name="Path 23659-2" d="M211.189,284.305h-1.825a.492.492,0,0,0-.487.487v.014a.492.492,0,0,0,.487.487h2.646Zm-1.825,1.963a.483.483,0,0,0-.487.481v.019a.5.5,0,0,0,.487.489h.489l1.6-.989Zm.2-3.928h-.2a.494.494,0,0,0-.487.489v.014a.494.494,0,0,0,.487.487h1.016Zm1.629,1.965h-1.825a.492.492,0,0,0-.487.487v.014a.492.492,0,0,0,.487.487h2.646Zm-1.825,1.963a.483.483,0,0,0-.487.481v.019a.5.5,0,0,0,.487.489h.489l1.6-.989Zm.2-3.928h-.2a.494.494,0,0,0-.487.489v.014a.494.494,0,0,0,.487.487h1.016Zm14.328,10.375h2.118a.494.494,0,0,0,.487-.487v-2.716a.5.5,0,0,0-.487-.5h-.836v-.1l-1.212.529m-1.49-26.292-1.253-.822a.483.483,0,0,0-.671.122l-.012.017a.436.436,0,0,0-.083.266v5.918l-.376-1a3.427,3.427,0,0,0-3.216-2.242h-8.579a3.426,3.426,0,0,0-3.23,2.269l-.363.976v-5.918a.485.485,0,0,0-.481-.489H204.2a.513.513,0,0,0-.279.083l-1.253.822a.467.467,0,0,0-.223.4v18.452h-.5a1.961,1.961,0,0,0-1.965,1.957v5.047h-.834a.5.5,0,0,0-.5.5v2.719a.5.5,0,0,0,.5.487h2.116v1.309a.974.974,0,0,0,.974.974h2.619a.975.975,0,0,0,.976-.974h0v-1.309h11.085l-.8-.976-12.476-.654,5.235-3.232a.975.975,0,0,1-.627-.919v-6.168l-3.788-4.554,10.013,3.455.626-3.426h-9.762v-4.847H215.98l.32-1.74.9,1.74h2.605v4.847h-.07l.793,1.53,2.159-1.2V263.554A.467.467,0,0,0,222.468,263.151Zm-17.476,22.615a.923.923,0,0,1,.933.912v.037a.932.932,0,0,1-.919.933h-1.686a.935.935,0,0,1-.933-.933h0v-.029a.925.925,0,0,1,.925-.919h1.68Zm6.2-1.461h-1.825a.492.492,0,0,0-.487.487v.014a.492.492,0,0,0,.487.487h2.646Zm-1.825,1.963a.483.483,0,0,0-.487.481v.019a.5.5,0,0,0,.487.489h.489l1.6-.989Zm.2-3.928h-.2a.494.494,0,0,0-.487.489v.014a.494.494,0,0,0,.487.487h1.016Z" transform="translate(-198.641 -262.243)" fill="#fff"/>
  </g>
</svg>