<svg xmlns="http://www.w3.org/2000/svg" width="35.914" height="27.186" viewBox="0 0 35.914 27.186">
  <g id="Group_38279" data-name="Group 38279" transform="translate(0.5 0.5)">
    <g id="Group_36004" data-name="Group 36004">
      <g id="Group_36003" data-name="Group 36003">
        <g id="Group_36002" data-name="Group 36002">
          <path id="Path_23661" data-name="Path 23661" d="M343.565,264.492H315.927a3.641,3.641,0,0,0-3.639,3.637v.727H347.2v-.727A3.641,3.641,0,0,0,343.565,264.492Z" transform="translate(-312.288 -264.492)" fill="#dadada" stroke="rgba(0,0,0,0)" stroke-width="1"/>
        </g>
      </g>
    </g>
    <path id="Path_23662" data-name="Path 23662" d="M312.288,267.492v16.73a3.633,3.633,0,0,0,3.631,3.637h27.646a3.637,3.637,0,0,0,3.637-3.592V267.492Zm21.1,2.91h4.364a.727.727,0,1,1,0,1.455h-4.364a.727.727,0,1,1,0-1.455Zm-2.911,14.548H315.927a.728.728,0,0,1-.727-.727h0a3.967,3.967,0,0,1,1.732-3.288l.093-.062.1-.064.083-.033.079-.045.05-.025.07-.035h.01a3.972,3.972,0,0,1,.778-.285l2.186-.563.091-.367a4.836,4.836,0,0,1-1.135-2.254,1.356,1.356,0,0,1-.634-.685,1.167,1.167,0,0,1-.048-.138,1.23,1.23,0,0,1-.049-.219l-.159-1.27c0-.043-.008-.085-.008-.128v-.225c.01-.037.023-.074.037-.111s.019-.076.033-.114h0a1.074,1.074,0,0,1,.068-.169l.027-.054c.014-.021.025-.045.039-.066s.027-.045.041-.066l.047-.062.023-.029.019-.025h0l.033-.035.035-.035.014-.015.039-.035h0a.616.616,0,0,1,.068-.054.608.608,0,0,1,.072-.052l-.037-.741h0v-.029c-.01-.122-.016-.231-.016-.318,0-1.216.353-2.83,3.346-2.935a3.84,3.84,0,0,1,.861-.405,5.109,5.109,0,0,1,1.666-.233,3.041,3.041,0,0,1,2.741,1.278,1.848,1.848,0,0,1-.081,2.475l-.132.134v.031h0l-.037.739a.589.589,0,0,1,.072.052c.023.017.047.037.068.056h0l.039.035.014.014.033.035.035.037h0l.017.023.025.031.045.062a.722.722,0,0,1,.043.064c.012.023.027.045.037.066l.029.054a1.173,1.173,0,0,1,.068.171h0c.012.037.023.076.033.114s.016.08.021.12v.225c.01.045.016.089.021.134l-.159,1.269a1.186,1.186,0,0,1-.049.219,1.356,1.356,0,0,1-.683.824,4.818,4.818,0,0,1-1.135,2.254l.093.367,2.184.543a3.989,3.989,0,0,1,.778.287h.01l.07.035.05.025.08.045.085.048.1.064.093.062a3.97,3.97,0,0,1,1.734,3.28A.728.728,0,0,1,330.473,284.949Zm13.093-8.729H333.384a.727.727,0,1,1,0-1.455h10.183a.727.727,0,0,1,0,1.455Zm0-4.364h-2.91a.727.727,0,1,1,0-1.455h2.91a.727.727,0,0,1,0,1.455Zm.727,7.955a.728.728,0,0,1-.727.727H339.2a.727.727,0,0,1,0-1.455h4.364a.729.729,0,0,1,.729.727Zm-11.638,0a.727.727,0,0,1,.727-.725h2.907a.727.727,0,1,1,0,1.455h-2.906a.728.728,0,0,1-.729-.725Z" transform="translate(-312.288 -261.673)" fill="#dadada" stroke="rgba(0,0,0,0)" stroke-width="1"/>
  </g>
</svg>