<svg xmlns="http://www.w3.org/2000/svg" width="36.03" height="33.878" viewBox="0 0 36.03 33.878">
  <g id="biohazard-symbol" transform="translate(0.559 0.522)">
    <path id="Path_23660" data-name="Path 23660" d="M318.715,275.019a10.949,10.949,0,0,0-1.1-.551,11.469,11.469,0,0,0,.081-1.315,11,11,0,0,0-7.231-10.3.7.7,0,0,0-.553,1.265,6.985,6.985,0,0,1,3.346,8.717,10.218,10.218,0,0,0-13.068-.051,6.967,6.967,0,0,1,3.365-8.659.7.7,0,0,0-.553-1.265,10.961,10.961,0,0,0-7.154,11.609,9.848,9.848,0,0,0-1.106.559,10.975,10.975,0,0,0-5.287,11.409.7.7,0,0,0,1.377-.122.438.438,0,0,0,0-.1,6.984,6.984,0,0,1,3.493-6.349,6.847,6.847,0,0,1,2.291-.824,10.139,10.139,0,0,0-.132,1.645,10.267,10.267,0,0,0,6.746,9.63,6.985,6.985,0,0,1-9.225,1.466.69.69,0,0,0-.819,1.106A10.963,10.963,0,0,0,305.73,294a11.594,11.594,0,0,0,1.014-.667,10.125,10.125,0,0,0,1.02.667,10.964,10.964,0,0,0,12.54-1.11.7.7,0,0,0,.109-.941.683.683,0,0,0-.927-.165,6.971,6.971,0,0,1-9.244-1.486,10.25,10.25,0,0,0,6.7-9.6,11,11,0,0,0-.132-1.657,7.044,7.044,0,0,1,2.366.838,6.97,6.97,0,0,1,3.493,6.413.7.7,0,0,0,.609.725.685.685,0,0,0,.757-.566A11.028,11.028,0,0,0,318.715,275.019Zm-7.448.642a6.987,6.987,0,0,1-9.091-.031A6.78,6.78,0,0,1,311.266,275.661Zm-11.349,5.022a7.164,7.164,0,0,1,.14-1.379,6.986,6.986,0,0,1,4.622,7.858,6.786,6.786,0,0,1-4.766-6.479Zm8.89,6.451a6.928,6.928,0,0,1,.316-3.625,7,7,0,0,1,.508-1.086,7.363,7.363,0,0,1,.751-1.059,6.927,6.927,0,0,1,2.977-2.033,6.8,6.8,0,0,1-4.551,7.8Z" transform="translate(-289.288 -262.83)" fill="#dadada" stroke="rgba(0,0,0,0)" stroke-width="1"/>
  </g>
</svg>