<svg xmlns="http://www.w3.org/2000/svg" width="35.914" height="35.918" viewBox="0 0 35.914 35.918">
  <g id="Group_38275" data-name="Group 38275" transform="translate(0.5 0.5)">
    <path id="Path_23664" data-name="Path 23664" d="M245.2,268.208a13.389,13.389,0,0,0-12.009-3.623A8.344,8.344,0,0,1,222.6,275.293a13.4,13.4,0,0,0,15.7,15.6,8.343,8.343,0,0,1,10.647-10.7A13.38,13.38,0,0,0,245.2,268.208Zm-18.7,9.817a.793.793,0,0,1-.793.793h-.58a.793.793,0,0,1-.793-.793v-.58a.8.8,0,0,1,.793-.8h.58a.8.8,0,0,1,.793.8Zm8.189-10.951a.793.793,0,0,1,.793-.793h.58a.793.793,0,0,1,.793.793v.582a.793.793,0,0,1-.793.793h-.58a.793.793,0,0,1-.793-.793Zm2.176,21.311a.793.793,0,0,1-.793.793h-.58a.793.793,0,0,1-.793-.793v-.58a.793.793,0,0,1,.793-.793h.58a.793.793,0,0,1,.793.793Zm2.551-7.458-.407.411a.794.794,0,0,1-1.123.008l-.006-.008-1.676-1.658a2,2,0,0,1-1.849-3.358h0a1.875,1.875,0,0,1,.334-.272v-5.736a.793.793,0,0,1,.793-.793h.58a.793.793,0,0,1,.793.793v5.738a2.018,2.018,0,0,1,.318.256,2,2,0,0,1,.553,1.825l1.676,1.658a.8.8,0,0,1,.035,1.121l-.014.014Zm7.815-2.9a.793.793,0,0,1-.793.793h-.582a.793.793,0,0,1-.793-.793v-.58a.8.8,0,0,1,.793-.8h.582a.8.8,0,0,1,.793.8Z" transform="translate(-218.324 -260.276)" fill="#dadada" stroke="rgba(0,0,0,0)" stroke-width="1"/>
    <path id="Path_23665" data-name="Path 23665" d="M234.017,266.826a7.093,7.093,0,1,0-9.144,9.142,7.012,7.012,0,0,0,2.508.458,7.093,7.093,0,0,0,6.636-9.6Zm-5.113,6.506a4.314,4.314,0,0,1-2.981.06,4.286,4.286,0,1,1,2.975-8.038c.405.159.619.4.634.7.031.483-.464.755-.65.855a2.775,2.775,0,0,0,0,4.874c.188.1.681.369.65.855-.01.289-.225.524-.628.685Z" transform="translate(-220.288 -262.241)" fill="#dadada" stroke="rgba(0,0,0,0)" stroke-width="1"/>
    <path id="Path_23666" data-name="Path 23666" d="M240.574,273.388a7.093,7.093,0,1,0,4.585,6.636A7.054,7.054,0,0,0,240.574,273.388Zm2.167,7.107H241.6a3.527,3.527,0,0,1-.7,1.7l.6.6a.47.47,0,0,1-.334.8.463.463,0,0,1-.332-.138l-.6-.6a3.556,3.556,0,0,1-1.7.7v1.14a.476.476,0,0,1-.952,0v-1.14a3.543,3.543,0,0,1-1.693-.7l-.6.6a.471.471,0,0,1-.667-.665l.6-.6a3.5,3.5,0,0,1-.566-1.082,3.685,3.685,0,0,1-.138-.613h-1.139a.476.476,0,1,1,0-.952h1.139a3.525,3.525,0,0,1,.7-1.7l-.6-.6a.47.47,0,1,1,.665-.665l.6.6a3.525,3.525,0,0,1,1.7-.7v-1.139a.475.475,0,0,1,.95,0v1.139a3.666,3.666,0,0,1,.615.138,3.5,3.5,0,0,1,1.082.566l.6-.6a.47.47,0,1,1,.665.665l-.6.6a3.551,3.551,0,0,1,.7,1.7h1.14a.473.473,0,1,1,.006.947Z" transform="translate(-210.246 -252.197)" fill="#dadada" stroke="rgba(0,0,0,0)" stroke-width="1"/>
  </g>
</svg>