<svg xmlns="http://www.w3.org/2000/svg" width="29.657" height="35.938" viewBox="0 0 29.657 35.938">
  <g id="frontal-truck" transform="translate(0.504 0.503)">
    <path id="Path_23659" data-name="Path 23659" d="M203.188,286.825l-1.02-4.8a1.907,1.907,0,0,0-2.262-1.468l-.489.1-3.724-17.511a.47.47,0,0,0-.291-.343l-1.356-.529a.476.476,0,0,0-.619.27.465.465,0,0,0-.023.272l1.2,5.625-.557-.879a3.337,3.337,0,0,0-3.515-1.478l-8.149,1.732a3.343,3.343,0,0,0-2.611,2.8l-.142,1L178.434,266a.477.477,0,0,0-.566-.367.484.484,0,0,0-.241.132L176.6,266.8a.469.469,0,0,0-.126.433l3.724,17.513-.489.1a1.907,1.907,0,0,0-1.464,2.262l1.02,4.8-.793.169a.478.478,0,0,0-.369.566h0l.549,2.58a.477.477,0,0,0,.566.367h0l2.013-.429.262,1.238a.956.956,0,0,0,1.133.735h0l2.473-.526a.957.957,0,0,0,.735-1.133h0l-.264-1.236,12.806-2.725.264,1.238a.955.955,0,0,0,1.133.735h0l2.471-.526a.955.955,0,0,0,.735-1.133h0l-.262-1.236,2.008-.429a.476.476,0,0,0,.367-.564l-.549-2.58a.477.477,0,0,0-.566-.367ZM180.8,274.095l13.745-2.923.978,4.6-13.745,2.923Zm2.962,15.5-1.594.337a.9.9,0,0,1-1.069-.694l-.006-.021a.9.9,0,0,1,.694-1.071l1.594-.337a.9.9,0,0,1,1.069.694l.006.021a.9.9,0,0,1-.694,1.069Zm10.418-1.94L187.833,289a.953.953,0,0,1-1.131-.735h0l-1.259-5.918a.954.954,0,0,1,.735-1.133h0l6.347-1.35a.955.955,0,0,1,1.131.735h0l1.259,5.912a.956.956,0,0,1-.735,1.133Zm5.557-1.459-1.587.337a.9.9,0,0,1-1.069-.694l-.006-.023a.9.9,0,0,1,.694-1.069l1.587-.337a.9.9,0,0,1,1.071.694l0,.023a.9.9,0,0,1-.694,1.067Zm-6.626-2.875-6.075,1.292a.471.471,0,0,1-.559-.365l0-.008a.472.472,0,0,1,.363-.56l6.075-1.292a.471.471,0,0,1,.559.363l0,.01a.47.47,0,0,1-.365.555Zm-.4-1.866-6.073,1.292a.472.472,0,0,1-.561-.365l0-.016a.471.471,0,0,1,.365-.559l6.073-1.292a.472.472,0,0,1,.561.363l0,.01a.473.473,0,0,1-.361.56h0Zm1.191,5.6-6.075,1.292a.471.471,0,0,1-.559-.363l0-.021a.472.472,0,0,1,.363-.561l6.075-1.292a.471.471,0,0,1,.559.365l0,.008a.473.473,0,0,1-.355.566H193.9Zm-.4-1.866-6.075,1.292a.473.473,0,0,1-.561-.363l0-.01a.471.471,0,0,1,.365-.559l6.073-1.292a.471.471,0,0,1,.561.363v0a.472.472,0,0,1-.363.561h0Z" transform="translate(-176.467 -262.243)" fill="#dadada" stroke="rgba(0,0,0,0)" stroke-width="1"/>
  </g>
</svg>