<svg xmlns="http://www.w3.org/2000/svg" width="35.914" height="35.922" viewBox="0 0 35.914 35.922">
  <g id="Group_38277" data-name="Group 38277" transform="translate(0.5 0.5)">
    <g id="Group_36009" data-name="Group 36009">
      <g id="Group_36008" data-name="Group 36008">
        <g id="Group_36007" data-name="Group 36007">
          <g id="Group_36006" data-name="Group 36006">
            <path id="Path_23663" data-name="Path 23663" d="M278.2,276.617v6.16a1.027,1.027,0,0,1-.778,1l-3.16.793a13.355,13.355,0,0,1-.514,1.253l1.719,2.836a1.027,1.027,0,0,1-.159,1.257l-4.357,4.356a1.025,1.025,0,0,1-1.259.159l-2.828-1.719c-.4.188-.822.359-1.253.512l-.793,3.162a1.027,1.027,0,0,1-1,.778h-6.159a1.027,1.027,0,0,1-1-.778l-.793-3.162a13.04,13.04,0,0,1-1.253-.512l-2.729,1.655,5.9-5.9a9.246,9.246,0,0,0,11.46-12.365,1.028,1.028,0,0,0-1.346-.545,1,1,0,0,0-.326.219h0l-4.995,4.989-2.419-.475-.477-2.421,5-5a1.03,1.03,0,0,0-.328-1.672A9.24,9.24,0,0,0,252,282.653l-5.91,5.895,1.645-2.729c-.186-.4-.359-.822-.512-1.255l-3.162-.793a1.027,1.027,0,0,1-.77-.993v-6.16a1.027,1.027,0,0,1,.778-1l3.162-.793c.159-.433.318-.852.512-1.253l-1.719-2.832a1.028,1.028,0,0,1,.159-1.259l4.351-4.356a1.031,1.031,0,0,1,1.259-.159l2.836,1.717c.4-.188.821-.359,1.253-.512l.793-3.162a1.025,1.025,0,0,1,.993-.77h6.16a1.027,1.027,0,0,1,1,.778l.793,3.162a13.374,13.374,0,0,1,1.255.512l2.834-1.717a1.025,1.025,0,0,1,1.259.159l2.178,2.178,2.178,2.178a1.025,1.025,0,0,1,.159,1.259l-1.72,2.826c.188.4.359.822.514,1.255l3.16.793A1.025,1.025,0,0,1,278.2,276.617Z" transform="translate(-243.288 -262.24)" fill="#fff" stroke="rgba(0,0,0,0)" stroke-width="1"/>
          </g>
        </g>
      </g>
    </g>
  </g>
</svg>