<svg xmlns="http://www.w3.org/2000/svg" width="19" height="19" viewBox="0 0 19 19">
  <g id="Group_78707" data-name="Group 78707" transform="translate(-536.5 -647.911)">
    <rect id="Rectangle_59965" data-name="Rectangle 59965" width="18" height="18" transform="translate(537 648.411)" fill="none" stroke="rgba(0,0,0,0)" stroke-width="1"/>
    <path id="Path_36420" data-name="Path 36420" d="M17.2,125.511a8.1,8.1,0,1,1-8.1-8.1,8.1,8.1,0,0,1,8.1,8.1m-8.1-6.074a1.012,1.012,0,1,0,1.012,1.012A1.012,1.012,0,0,0,9.1,119.437m0,11.137a2.025,2.025,0,0,0,0-4.051H9.041s-3.242-6.517-3.628-6.35,2.235,6.964,2.235,6.964A2.026,2.026,0,0,0,9.1,130.574M4.037,124.5a1.012,1.012,0,1,0,1.012,1.012A1.011,1.011,0,0,0,4.037,124.5m10.125,2.024a1.012,1.012,0,1,0-1.013-1.012,1.011,1.011,0,0,0,1.013,1.012m-1.518-5.568a1.012,1.012,0,1,0,1.013,1.012,1.012,1.012,0,0,0-1.013-1.012" transform="translate(536.9 531.9)" fill="#b7b7b7" stroke="rgba(0,0,0,0)" stroke-width="1"/>
  </g>
</svg>
