<svg xmlns="http://www.w3.org/2000/svg" width="18" height="18" viewBox="0 0 18 18">
  <g id="PM_-_Brake_Chamber" data-name="PM - Brake Chamber" transform="translate(-1104 -544)">
    <rect id="Rectangle_63736" data-name="Rectangle 63736" width="18" height="18" transform="translate(1104 544)" fill="#aaa" opacity="0"/>
    <path id="Union_729" data-name="Union 729" d="M3601.7-9656.914a.3.3,0,0,1-.3-.3V-9667.7a.3.3,0,0,1,.3-.3h1.046a.3.3,0,0,1,.3.3v.871h1.975a.3.3,0,0,1,.3.3v.693h.864a.3.3,0,0,1,.3.3v.2a.3.3,0,0,1-.3.3h-.864v1.829h2.577a.3.3,0,0,1,.3.3v.9a.3.3,0,0,1-.3.3h-2.577v1.826h.864a.3.3,0,0,1,.3.3v.2a.3.3,0,0,1-.3.3h-.864v.7a.3.3,0,0,1-.3.3h-1.975v.873a.3.3,0,0,1-.3.3Zm-5.43,0a.3.3,0,0,1-.3-.3v-.873h-1.07a2.9,2.9,0,0,1-2.9-2.9v-2.941a2.9,2.9,0,0,1,2.9-2.9h1.07v-.871a.3.3,0,0,1,.3-.3h1.053a.3.3,0,0,1,.3.3v10.486a.3.3,0,0,1-.3.3Zm2.346-1.172a.3.3,0,0,1-.3-.3v-8.143a.3.3,0,0,1,.3-.3h1.783a.3.3,0,0,1,.3.3v8.143a.3.3,0,0,1-.3.3Zm.328-7.694a.59.59,0,0,0,.4.721.586.586,0,0,0,.733-.4.584.584,0,0,0-.393-.73.579.579,0,0,0-.167-.023A.6.6,0,0,0,3598.944-9665.78Z" transform="translate(-2487.1 10215.457)" fill="#aaa"/>
  </g>
</svg>
