<svg xmlns="http://www.w3.org/2000/svg" width="18" height="18" viewBox="0 0 18 18">
  <g id="Group_78722" data-name="Group 78722" transform="translate(8361 -7055)">
    <rect id="Rectangle_60687" data-name="Rectangle 60687" width="18" height="18" transform="translate(-8361 7055)" fill="none"/>
    <path id="car-battery" d="M15.188,66.025H14.175V64.506A.506.506,0,0,0,13.669,64H10.631a.506.506,0,0,0-.506.506v1.519H6.075V64.506A.506.506,0,0,0,5.569,64H2.531a.506.506,0,0,0-.506.506v1.519H1.012A1.013,1.013,0,0,0,0,67.037v8.1A1.013,1.013,0,0,0,1.012,76.15H15.188A1.013,1.013,0,0,0,16.2,75.137v-8.1A1.013,1.013,0,0,0,15.188,66.025Zm-9.113,4.3a.253.253,0,0,1-.253.253H2.278a.253.253,0,0,1-.253-.253v-.506a.253.253,0,0,1,.253-.253H5.822a.253.253,0,0,1,.253.253Zm8.1,0a.253.253,0,0,1-.253.253H12.656v1.266a.253.253,0,0,1-.253.253H11.9a.253.253,0,0,1-.253-.253V70.581H10.378a.253.253,0,0,1-.253-.253v-.506a.253.253,0,0,1,.253-.253h1.266V68.3a.253.253,0,0,1,.253-.253H12.4a.253.253,0,0,1,.253.253v1.266h1.266a.253.253,0,0,1,.253.253Z" transform="translate(-8360.1 6993.925)" fill="#b7b7b7" stroke="rgba(0,0,0,0)" stroke-width="1"/>
  </g>
</svg>
