<svg width="18" height="18" viewBox="0 0 18 18" fill="none" xmlns="http://www.w3.org/2000/svg">
<path d="M15.0164 15.5C14.9368 15.5 14.8605 15.4684 14.8042 15.4121C14.7479 15.3558 14.7163 15.2798 14.7163 15.2002V2.7998C14.7163 2.72024 14.7479 2.64415 14.8042 2.58789C14.8605 2.53163 14.9368 2.5 15.0164 2.5H16.7993C16.8789 2.5 16.9552 2.53163 17.0115 2.58789C17.0677 2.64415 17.0994 2.72024 17.0994 2.7998V15.2002C17.0994 15.2798 17.0677 15.3558 17.0115 15.4121C16.9552 15.4684 16.8789 15.5 16.7993 15.5H15.0164ZM1.20044 15.5C1.12087 15.5 1.04454 15.4684 0.988281 15.4121C0.93202 15.3558 0.900391 15.2798 0.900391 15.2002V2.7998C0.900391 2.72024 0.93202 2.64415 0.988281 2.58789C1.04454 2.53163 1.12087 2.5 1.20044 2.5H2.9834C3.02279 2.5 3.06175 2.50738 3.09814 2.52246C3.13454 2.53754 3.1677 2.56003 3.19556 2.58789C3.22341 2.61575 3.24542 2.64915 3.2605 2.68555C3.27557 2.72194 3.28345 2.76041 3.28345 2.7998V15.2002C3.28345 15.2798 3.25182 15.3558 3.19556 15.4121C3.1393 15.4684 3.06296 15.5 2.9834 15.5H1.20044ZM4.07837 15C3.9988 15 3.92247 14.9684 3.86621 14.9121C3.80995 14.8558 3.77832 14.7798 3.77832 14.7002V14H14.2195V14.7002C14.2195 14.7798 14.1879 14.8558 14.1316 14.9121C14.0753 14.9684 13.999 15 13.9194 15H4.07837ZM3.77832 13.4277V12.4277H14.2195V13.4277H3.77832ZM3.77832 11.8594V10.8594H14.2195V11.8594H3.77832ZM3.77832 10.2871V9.28711H14.2195V10.2871H3.77832ZM3.77832 8.71484V7.71484H14.2195V8.71484H3.77832ZM3.77832 7.14453V6.14453H14.2195V7.14453H3.77832ZM3.77832 5.57324V4.57324H14.2195V5.57324H3.77832ZM3.77832 4.00098V3.30078C3.77832 3.22122 3.80995 3.14513 3.86621 3.08887C3.92247 3.03261 3.9988 3.00098 4.07837 3.00098H13.9224C14.0019 3.00098 14.0783 3.03261 14.1345 3.08887C14.1908 3.14513 14.2224 3.22122 14.2224 3.30078V4.00098H3.77832Z" fill="#919191"/>
</svg>
