<svg xmlns="http://www.w3.org/2000/svg" width="19" height="19" viewBox="0 0 19 19">
  <g id="PM_-_Turbo" data-name="PM - Turbo" transform="translate(-1104.01 -584)">
    <rect id="Rectangle_63734" data-name="Rectangle 63734" width="18" height="18" transform="translate(1104.01 584)" fill="none" stroke="rgba(0,0,0,0)" stroke-width="1"/>
    <path id="Union_730" data-name="Union 730" d="M3592-9660.7a6.148,6.148,0,0,1,1.81-4.364,6.148,6.148,0,0,1,4.365-1.811h6.471v3.931h-.716a6.164,6.164,0,0,1,.422,2.244,6.153,6.153,0,0,1-1.81,4.368,6.157,6.157,0,0,1-4.367,1.81A6.177,6.177,0,0,1,3592-9660.7Zm6.333,3.393a3.365,3.365,0,0,0,2.128-.881l-1.975-1.764Zm-2.441-.881a3.365,3.365,0,0,0,2.125.881l-.151-2.645Zm3.031-2.2,1.761,1.975a3.367,3.367,0,0,0,.883-2.126Zm-3.256,1.975,1.764-1.975-2.645-.151A3.365,3.365,0,0,0,3595.666-9658.417Zm3.256-2.594,2.645.15a3.381,3.381,0,0,0-.881-2.126Zm-4.137.15,2.645-.15-1.764-1.976A3.367,3.367,0,0,0,3594.786-9660.86Zm3.7-.587,1.975-1.765a3.365,3.365,0,0,0-2.128-.88Zm-2.6-1.765,1.977,1.765.151-2.645A3.376,3.376,0,0,0,3595.89-9663.212Zm10.113,1.389a.567.567,0,0,1-.612-.614v-4.931a.566.566,0,0,1,.626-.631c.522,0,1.041,0,1.563,0a.565.565,0,0,1,.619.621q0,2.468,0,4.931a.566.566,0,0,1-.616.624H3606Z" transform="translate(-2487.09 10254.262)" fill="#aaa" stroke="rgba(0,0,0,0)" stroke-miterlimit="10" stroke-width="1"/>
  </g>
</svg>
