<svg width="18" height="18" viewBox="0 0 18 18" fill="none" xmlns="http://www.w3.org/2000/svg">
<path d="M5.4 9.00001C6.02301 9.00001 6.63203 8.81527 7.15005 8.46914C7.66806 8.12301 8.07181 7.63105 8.31022 7.05547C8.54864 6.47988 8.61102 5.84652 8.48947 5.23548C8.36793 4.62444 8.06792 4.06316 7.62739 3.62263C7.18685 3.18209 6.62558 2.88208 6.01454 2.76054C5.4035 2.639 4.77013 2.70138 4.19455 2.93979C3.61896 3.17821 3.127 3.58195 2.78087 4.09997C2.43475 4.61798 2.25 5.227 2.25 5.85001C2.24986 6.26372 2.33123 6.6734 2.48948 7.05564C2.64773 7.43788 2.87976 7.78519 3.17229 8.07772C3.46482 8.37026 3.81213 8.60228 4.19438 8.76053C4.57662 8.91878 4.9863 9.00016 5.4 9.00001ZM7.56 9.90001H7.32667C6.72755 10.1961 6.06827 10.3501 5.4 10.3501C4.73173 10.3501 4.07245 10.1961 3.47333 9.90001H3.24C2.81419 9.90016 2.39257 9.98421 1.99925 10.1474C1.60593 10.3105 1.24862 10.5496 0.947729 10.8509C0.646838 11.1522 0.408269 11.5098 0.245653 11.9034C0.0830376 12.2969 -0.000436242 12.7186 1.71444e-06 13.1445V13.9545C0.00117792 14.3117 0.143929 14.654 0.396975 14.9062C0.650022 15.1584 0.992728 15.3 1.35 15.3H9.45C9.80804 15.3 10.1514 15.1578 10.4046 14.9046C10.6578 14.6514 10.8 14.3081 10.8 13.95V13.1445C10.8004 12.7183 10.7168 12.2962 10.5539 11.9023C10.391 11.5085 10.1521 11.1507 9.8507 10.8493C9.54934 10.548 9.1915 10.309 8.79767 10.1461C8.40384 9.9832 7.98175 9.89957 7.55556 9.90001H7.56ZM13.5 9.00001C14.034 9.00001 14.556 8.84166 15 8.54498C15.4441 8.2483 15.7901 7.82662 15.9945 7.33326C16.1988 6.8399 16.2523 6.29702 16.1481 5.77327C16.0439 5.24952 15.7868 4.76843 15.4092 4.39083C15.0316 4.01323 14.5505 3.75608 14.0267 3.65189C13.503 3.54771 12.9601 3.60118 12.4668 3.80554C11.9734 4.00989 11.5517 4.35596 11.255 4.79997C10.9584 5.24399 10.8 5.76601 10.8 6.30002C10.8003 7.01601 11.0849 7.70259 11.5911 8.20888C12.0974 8.71516 12.784 8.99972 13.5 9.00001ZM14.85 9.90001H14.7389C13.9372 10.2001 13.0539 10.2001 12.2522 9.90001H12.1411C11.5898 9.90365 11.0493 10.0532 10.5744 10.3333C11.2873 11.0942 11.6845 12.0974 11.6856 13.14V14.22C11.6856 14.2822 11.6711 14.3411 11.6689 14.4H16.6356C16.8141 14.4019 16.9912 14.3684 17.1566 14.3014C17.3221 14.2344 17.4726 14.1353 17.5995 14.0098C17.7264 13.8842 17.8271 13.7347 17.8959 13.57C17.9646 13.4053 18 13.2285 18 13.05C18.0001 12.6363 17.9188 12.2266 17.7605 11.8444C17.6023 11.4621 17.3702 11.1148 17.0777 10.8223C16.7852 10.5298 16.4379 10.2977 16.0556 10.1395C15.6734 9.98124 15.2637 9.89987 14.85 9.90001Z" fill="#919191"/>
</svg>
