<svg xmlns="http://www.w3.org/2000/svg" width="18" height="18" viewBox="0 0 18 18"><g transform="translate(-544 -286)"><rect width="18" height="18" rx="9" transform="translate(544 286)" fill="#d4dff4"/><g transform="translate(-1405 -510)"><rect width="12" height="12" transform="translate(1952 799)" fill="#6d82c7" opacity="0"/><path d="M10.429,36.857h-3v-3A.857.857,0,0,0,6.571,33H5.714a.857.857,0,0,0-.857.857v3h-3A.857.857,0,0,0,1,37.714v.857a.857.857,0,0,0,.857.857h3v3a.857.857,0,0,0,.857.857h.857a.857.857,0,0,0,.857-.857v-3h3a.857.857,0,0,0,.857-.857v-.857A.857.857,0,0,0,10.429,36.857Z" transform="translate(1951.857 766.857)" fill="#6d82c7" stroke="rgba(0,0,0,0)" stroke-miterlimit="10" stroke-width="1"/></g></g></svg>