<svg xmlns="http://www.w3.org/2000/svg" width="18" height="18" viewBox="0 0 18 18">
  <g id="Group_71307" data-name="Group 71307" transform="translate(10754 17394)">
    <path id="Path_36134" data-name="Path 36134" d="M17.034,11.331l-5.706,5.7a3.3,3.3,0,0,1-4.661,0l-5.7-5.7a3.3,3.3,0,0,1,0-4.66l5.7-5.7a3.3,3.3,0,0,1,4.661,0l5.706,5.7a3.3,3.3,0,0,1,0,4.662" transform="translate(-10754 -17394)" fill="#ff956b"/>
    <path id="Path_36135" data-name="Path 36135" d="M4.187,10.842,6.268,9.034l-3-1.574,0-.026L6.634,7.39c-.43-.868-.853-1.72-1.276-2.572L5.371,4.8,7.824,6.192c.146-1.067.291-2.12.435-3.173l.025-.005c.42,1.051.839,2.1,1.267,3.173L11.58,4.313l.019.012c-.206.9-.412,1.8-.621,2.723l3.21-.5.012.023c-.781.68-1.562,1.36-2.355,2.052l2.887,1.6,0,.024-3.293.074,1.191,2.523-.013.022-2.509-1.457c-.13,1.061-.259,2.109-.387,3.157l-.023.007L8.458,11.546,6.251,13.7l-.02-.01c.266-1.039.531-2.078.8-3.133l-2.838.31-.007-.023m3.9-2.5-1.02.015,0,.027.845.446-.832.726.01.021L8.2,9.454c-.118.464-.232.912-.347,1.36l.021.014.879-.855c.168.41.331.805.507,1.234.055-.449.106-.861.158-1.286l1.146.664.012-.018-.557-1.185,1.152-.027,0-.023-.947-.526.888-.776-.01-.023-1.28.2c.1-.433.192-.847.294-1.294l-.894.824L8.672,6.341c-.064.458-.122.88-.181,1.314l-1-.565-.014.021L8.087,8.34" transform="translate(-10754 -17394)" fill="#fff"/>
  </g>
</svg>
