<svg xmlns="http://www.w3.org/2000/svg" width="18" height="18" viewBox="0 0 18 18">
  <g id="Hazardous" transform="translate(-553.22 -1208.983)">
    <rect id="Rectangle_63472" data-name="Rectangle 63472" width="18" height="18" transform="translate(553.22 1208.983)" fill="#ffb74d" opacity="0"/>
    <path id="Path_33819" data-name="Path 33819" d="M553.821,1217.226a1.069,1.069,0,0,0,0,1.514l7.642,7.643a1.072,1.072,0,0,0,1.515,0l7.642-7.643a1.071,1.071,0,0,0,0-1.514l-7.642-7.643a1.072,1.072,0,0,0-1.515,0Zm8.4,5.643a1.221,1.221,0,1,1,1.221-1.221,1.221,1.221,0,0,1-1.221,1.221h0m1.46-9.1-.489,4.886a.611.611,0,0,1-.608.55h-.727a.611.611,0,0,1-.607-.55l-.489-4.886a.612.612,0,0,1,.549-.669l.058,0h1.7a.612.612,0,0,1,.61.614.561.561,0,0,1,0,.058" fill="#ffb74d"/>
  </g>
</svg>
