<svg xmlns="http://www.w3.org/2000/svg" width="12" height="12" viewBox="0 0 12 12"><g transform="translate(-425 -544)"><rect width="12" height="12" transform="translate(425 544)" fill="#ba68c8" opacity="0"/><g transform="translate(425.999 545)"><path d="M687.992,379.952l-1.175-1.176a.942.942,0,0,0-1.328,0l-.852.852h0a.236.236,0,0,0,0,.333l2.169,2.169h0a.236.236,0,0,0,.333,0l.852-.852h-.005A.941.941,0,0,0,687.992,379.952Z" transform="translate(-678.261 -378.501)" fill="#ba68c8"/><path d="M685.012,383.058l-2.169-2.169h0a.235.235,0,0,0-.333,0l-5.256,5.256-.25,2.233a.432.432,0,0,0,0,.1.468.468,0,0,0,.517.413l2.234-.25,5.256-5.256h0A.235.235,0,0,0,685.012,383.058Z" transform="translate(-676.999 -378.898)" fill="#ba68c8"/></g></g></svg>