<svg xmlns="http://www.w3.org/2000/svg" width="24" height="24" viewBox="0 0 24 24"><g transform="translate(8313 6316)"><rect width="24" height="24" rx="12" transform="translate(-8313 -6316)" fill="#536bc2"/><g transform="translate(-8308 -6311)"><path d="M14,0H0V14H14Z" fill="#fff" opacity="0"/><path d="M5.357,38.473l.624-.624a.672.672,0,0,1,.953,0L12.4,43.312a.672.672,0,0,1,0,.953L6.935,49.733a.672.672,0,0,1-.953,0l-.624-.624a.676.676,0,0,1,.011-.965l3.389-3.228H.675A.673.673,0,0,1,0,44.24v-.9a.673.673,0,0,1,.675-.675H8.757L5.368,39.437A.671.671,0,0,1,5.357,38.473Z" transform="translate(0.7 -36.79)" fill="#fff"/></g></g></svg>