<svg width="20" height="20" viewBox="0 0 20 20" fill="none" xmlns="http://www.w3.org/2000/svg">
<path d="M2 15.2515L2.14267 15.139L2.10975 15.1221C2.15364 15.0287 2.19754 14.9353 2.24144 14.8431C2.24912 14.8285 2.26339 14.8161 2.26668 14.8003C2.30619 14.5753 2.42471 14.5168 2.58275 14.6271C2.665 14.5197 2.76013 14.4233 2.86589 14.3402C3.04258 14.2378 3.00637 14.0882 2.99649 13.9363C2.97673 13.6371 2.88674 13.5482 2.59592 13.5302C2.45325 13.5212 2.3863 13.4459 2.42362 13.3052C2.45748 13.2123 2.47186 13.113 2.4658 13.014C2.45975 12.9149 2.43341 12.8183 2.3885 12.7304C2.35448 12.6685 2.4313 12.5245 2.48398 12.4345C2.53665 12.3445 2.6464 12.2657 2.70347 12.1667C2.79152 12.0225 2.85567 11.8644 2.89333 11.6987C2.94381 11.4085 2.93393 11.107 2.98771 10.8167C3.015 10.6727 3.07075 10.5359 3.15153 10.4148C3.23231 10.2937 3.33641 10.1908 3.45742 10.1125C3.59312 10.0224 3.7209 9.92041 3.83933 9.80761C3.86781 9.78478 3.89096 9.75573 3.90713 9.72259C3.9233 9.68944 3.93207 9.65303 3.9328 9.61598C3.93354 9.57893 3.92622 9.54218 3.91138 9.50838C3.89655 9.47459 3.87456 9.44461 3.84701 9.42061C3.70324 9.28963 3.55227 9.16718 3.39486 9.05386C3.36162 9.03016 3.33328 8.99995 3.31146 8.96498C3.28944 8.92039 3.27426 8.87258 3.26646 8.82324C3.20862 8.4724 3.06936 8.14097 2.8604 7.85686C2.78122 7.75304 2.73341 7.62773 2.72288 7.49639C2.71235 7.36505 2.73955 7.23342 2.80114 7.11774C2.81651 7.08511 2.78248 7.02774 2.76932 6.97149C2.9482 6.89161 2.95808 6.72511 2.92735 6.55186C2.87796 6.26274 2.80114 5.97812 2.75944 5.68899C2.71773 5.39987 2.70018 5.08262 2.67932 4.77774C2.68499 4.72331 2.69907 4.67015 2.72103 4.62024C2.732 4.57862 2.75944 4.53137 2.74956 4.49537C2.70237 4.31987 2.64091 4.14999 2.59372 3.97224C2.58803 3.94737 2.58763 3.92154 2.59255 3.89649C2.59747 3.87145 2.60761 3.84779 2.62226 3.82712C2.67298 3.76468 2.73978 3.71809 2.81505 3.69263C2.89033 3.66718 2.97106 3.66388 3.04807 3.68312C3.17537 3.71462 3.29939 3.79562 3.43657 3.69662C3.44974 3.68762 3.56497 3.77424 3.58253 3.83274C3.62204 3.96324 3.69227 4.08474 3.81629 4.06449C3.90298 4.05099 3.9809 3.93062 4.04895 3.84512C4.11528 3.75805 4.17266 3.66417 4.22015 3.565C4.24879 3.50896 4.26491 3.44709 4.26734 3.38387C4.286 2.67737 4.30465 1.97087 4.31563 1.2655C4.31563 1.18337 4.3255 1.10125 4.33209 1H16.5138C16.6755 6.95574 16.8376 12.9201 17 18.8931C16.9638 18.8931 16.9331 18.9032 16.9023 18.9043C15.2093 18.9373 13.5167 18.9692 11.8244 19C11.712 19.001 11.6004 18.9807 11.4952 18.9403C8.36743 17.7283 5.24115 16.5145 2.11633 15.2987L2 15.2515Z" fill="black"/>
</svg>
