<svg width="20" height="20" viewBox="0 0 20 20" fill="none" xmlns="http://www.w3.org/2000/svg">
<path d="M13.9083 16.7544L13.4851 17.0245L13.744 17.5073H3.12943V17.3396C3.12943 16.7184 3.12943 16.1016 3.12943 15.4747C3.1343 15.4331 3.12607 15.391 3.1059 15.3543C3.08573 15.3176 3.05461 15.2881 3.01688 15.2698C2.86944 15.1866 2.72876 15.0909 2.58019 14.9975C2.46764 15.0909 2.35509 15.1787 2.25605 15.2721C2.19977 15.3239 2.15025 15.3419 2.08835 15.2867L2.0816 15.2834C1.89139 15.1629 1.6314 15.083 1.53236 14.9097C1.43331 14.7364 1.5076 14.482 1.5121 14.2625C1.56275 11.9541 1.61564 9.64914 1.64378 7.34413C1.62977 6.82404 1.58051 6.3055 1.49634 5.79207C1.35791 4.67896 1.20597 3.56698 1.05965 2.45274C1.04052 2.31093 1.02138 2.16799 1 2.00254H1.16882C6.47139 2.00254 11.7743 2.00254 17.0777 2.00254C17.1276 1.99446 17.1788 2.00582 17.2207 2.03428C17.2625 2.06275 17.2919 2.10616 17.3028 2.15561C17.3669 2.35032 17.4479 2.5394 17.5279 2.72736C17.546 2.76192 17.5527 2.80134 17.5471 2.83997C17.5414 2.8786 17.5237 2.91443 17.4963 2.94233C17.1744 3.35201 16.8593 3.76619 16.5408 4.18037C16.5115 4.21864 16.4834 4.25915 16.4406 4.31768C16.5127 4.31768 16.5644 4.32556 16.6173 4.32556C17.2487 4.32556 17.8801 4.33231 18.5115 4.32556C18.5849 4.31559 18.6596 4.32733 18.7264 4.35933C18.7933 4.39133 18.8492 4.44219 18.8875 4.50564C18.9217 4.55505 18.9593 4.60206 19 4.64632C18.8436 4.86242 18.6961 5.08977 18.5217 5.29236C18.4575 5.36776 18.327 5.3869 18.2268 5.42967C18.1581 5.45893 18.0884 5.48594 18.0017 5.52308L18.3056 6.06557L17.5751 6.51577L17.7102 6.91869H17.2375L17.5627 8.15673C17.5504 8.16574 17.5414 8.17587 17.5346 8.17474C17.2735 8.11622 17.17 8.26366 17.1204 8.48763C17.0999 8.55677 17.0747 8.62445 17.045 8.69022H16.6331L16.8492 9.13141C16.5948 9.23496 16.3438 9.33062 16.0985 9.44092C16.0351 9.47993 15.9828 9.53457 15.9465 9.59961C15.924 9.6498 15.9055 9.70175 15.8914 9.75493C15.7603 10.0802 15.729 10.4371 15.8014 10.7803C15.8067 10.9697 15.7863 11.1591 15.7406 11.343C15.7406 11.3633 15.7124 11.3801 15.6956 11.3982C15.6877 11.4042 15.679 11.4092 15.6697 11.4128C15.4645 11.4929 15.2742 11.6071 15.1069 11.7504C14.9885 11.9416 14.9118 12.1556 14.8818 12.3785C14.8379 12.5529 14.7558 12.6182 14.5813 12.5912C14.4786 12.5845 14.3756 12.5845 14.2729 12.5912L14.6714 12.9423L14.0062 13.361C14.0343 13.3959 14.0568 13.4263 14.0816 13.4556C14.2617 13.6593 14.2538 13.6548 14.148 13.8967C14.1171 13.9928 14.0624 14.0795 13.989 14.1488C13.9156 14.218 13.8259 14.2676 13.7282 14.2929C13.4772 14.3582 13.4727 14.4055 13.4828 14.6688C13.4896 14.8489 13.493 15.0301 13.4828 15.2102C13.4757 15.2548 13.4828 15.3004 13.503 15.3408C13.5231 15.3812 13.5555 15.4142 13.5954 15.4353C13.6588 15.4598 13.7158 15.4984 13.7622 15.5482C13.8086 15.5979 13.8431 15.6575 13.8631 15.7225C13.8831 15.7875 13.8882 15.8562 13.8779 15.9234C13.8676 15.9906 13.8422 16.0546 13.8036 16.1106C13.775 16.2083 13.775 16.3122 13.8036 16.41C13.8316 16.5268 13.8665 16.6418 13.9083 16.7544Z" fill="black"/>
</svg>
