<svg width="20" height="20" viewBox="0 0 20 20" fill="none" xmlns="http://www.w3.org/2000/svg">
<path d="M12.9432 19C12.9432 18.7952 12.9319 18.6006 12.6957 18.514C12.8228 18.343 12.6473 18.3239 12.573 18.244C12.6135 18.1779 12.6295 18.0997 12.6182 18.023C12.6069 17.9463 12.569 17.876 12.5112 17.8244C12.4932 17.8064 12.4718 17.7704 12.4785 17.7546C12.5584 17.5814 12.4122 17.5454 12.3143 17.4891C12.0574 17.345 11.8377 17.1427 11.673 16.8985C11.549 16.9093 11.4241 16.9067 11.3007 16.8906C11.2377 16.876 11.1882 16.7882 11.1409 16.7252C11.0734 16.629 11.0117 16.5287 10.9564 16.4249C10.8788 16.2798 10.746 16.336 10.6313 16.3247C10.2388 16.3067 9.86871 16.1364 9.59966 15.85C9.54247 15.7645 9.496 15.6723 9.46128 15.5755C9.32178 15.7128 9.19241 15.6194 9.07316 15.5665C8.91464 15.5006 8.74084 15.4803 8.57141 15.508C8.37856 15.528 8.18434 15.5314 7.99091 15.5181C7.80078 15.5069 7.71753 15.3888 7.71191 15.1952C7.71191 15.0197 7.76816 14.8296 7.58478 14.689C7.54541 14.6586 7.53978 14.5405 7.56228 14.4775C7.62528 14.2997 7.52853 14.2221 7.38903 14.167C7.38903 14.1141 7.38903 14.0702 7.39916 14.0275C7.42166 13.8722 7.36316 13.8025 7.21353 13.7204C7.01865 13.5885 6.8397 13.4345 6.68028 13.2614C6.67329 13.2531 6.66833 13.2433 6.66579 13.2327C6.66325 13.2222 6.6632 13.2112 6.66566 13.2006C6.76466 12.9036 6.54303 12.7697 6.36753 12.6156C6.30614 12.5591 6.23532 12.5138 6.15828 12.4818C6.05025 12.4321 5.95485 12.3587 5.87925 12.2669C5.80366 12.1751 5.74982 12.0674 5.72178 11.9519C5.69817 11.7775 5.70579 11.6004 5.74428 11.4288L5.92766 11.4445L5.76453 10.7695C5.56653 10.873 5.41466 10.7695 5.25603 10.7222C5.23241 10.7144 5.19416 10.6919 5.19416 10.6761C5.19416 10.4995 5.02878 10.441 4.95453 10.3184C4.89941 10.2382 4.8643 10.146 4.85216 10.0495C4.84203 9.8245 4.76328 9.57588 4.95116 9.33625C4.98226 9.40249 5.01995 9.46543 5.06366 9.52413C5.11913 9.60203 5.19093 9.66691 5.27403 9.71425C5.30116 9.72387 5.33047 9.72552 5.35851 9.71901C5.38654 9.7125 5.41212 9.6981 5.43224 9.67752C5.45235 9.65693 5.46615 9.63102 5.47201 9.60284C5.47786 9.57466 5.47553 9.54539 5.46528 9.5185C5.42253 9.43116 5.36635 9.35106 5.29878 9.28113C5.23466 9.20463 5.16153 9.13488 5.09291 9.06175L5.15478 9.05612C5.20376 8.95161 5.24293 8.84276 5.27178 8.731C5.26835 8.6997 5.25707 8.66978 5.23897 8.64401C5.22088 8.61825 5.19656 8.59747 5.16828 8.58363C5.13759 8.58108 5.10672 8.58541 5.07791 8.59631C5.04911 8.60721 5.0231 8.6244 5.00178 8.64663C4.92191 8.7265 4.81166 8.79062 4.87803 8.9515C4.91403 9.04037 4.73966 9.12362 4.63953 9.07525C4.55869 9.03068 4.47196 8.99773 4.38191 8.97738C4.15691 8.9425 4.09841 8.91775 4.12428 8.69388C4.13203 8.57046 4.11165 8.44689 4.06469 8.3325C4.01772 8.2181 3.94539 8.11587 3.85316 8.0335C3.56291 7.696 3.29066 7.3405 3.00716 6.994C2.98742 6.97479 2.97307 6.95074 2.96553 6.92425C2.94078 6.625 2.90141 6.33138 2.89016 6.03437C2.9095 5.81877 2.86447 5.60227 2.76078 5.41225C2.74909 5.39626 2.74119 5.37783 2.73769 5.35834C2.73418 5.33884 2.73515 5.31881 2.74053 5.29975C2.81028 5.16587 2.73041 5.11188 2.62803 5.0545C2.58416 5.02975 2.55716 4.97687 2.51553 4.942C2.42216 4.852 2.32203 4.76875 2.23541 4.67313C2.18021 4.60805 2.13229 4.53713 2.09253 4.46162C2.02306 4.33937 1.99153 4.1992 2.00195 4.05897C2.01237 3.91874 2.06426 3.78478 2.15103 3.67413C2.24903 3.51428 2.33333 3.34643 2.40303 3.17237C2.40896 3.14414 2.4085 3.11495 2.40169 3.08692C2.39487 3.05889 2.38188 3.03274 2.36366 3.01038C2.32483 2.964 2.30084 2.90701 2.29482 2.84682C2.2888 2.78663 2.30103 2.72602 2.32991 2.67287C2.35353 2.611 2.38278 2.55138 2.40866 2.4895C2.48428 2.37373 2.52023 2.23652 2.5111 2.09855C2.50197 1.96057 2.44825 1.8293 2.35803 1.7245C2.32622 1.68687 2.30765 1.63984 2.30516 1.59062C2.29841 1.39712 2.30178 1.20475 2.30178 1H8.64678V1.19013C8.64678 3.03588 8.64678 4.88125 8.64678 6.72625C8.64372 6.78028 8.6532 6.8343 8.67447 6.88406C8.69574 6.93383 8.72823 6.978 8.76941 7.01312C11.3749 9.44462 13.9774 11.8788 16.5769 14.3155C16.6731 14.4093 16.7449 14.5251 16.7862 14.653C16.8374 14.8219 16.9245 14.9776 17.0415 15.1097C17.1203 15.1986 17.1698 15.3134 17.2407 15.4101C17.287 15.4765 17.344 15.5346 17.4094 15.5822C17.5332 15.6666 17.5624 15.751 17.4555 15.8601C17.3487 15.9692 17.1934 16.0851 17.028 16.2235C17.0033 16.3956 16.9707 16.6263 16.9358 16.8569C16.9203 16.9205 16.9094 16.9852 16.9032 17.0504C16.9067 17.1155 16.894 17.1805 16.8661 17.2394C16.8382 17.2983 16.796 17.3494 16.7434 17.3879C16.5837 17.5083 16.5938 17.551 16.7142 17.6995C16.7485 17.7576 16.7678 17.8233 16.7704 17.8908C16.775 17.9465 16.775 18.0026 16.7704 18.0584C16.8773 18.1349 17.0044 18.1799 17.0494 18.2676C17.1304 18.4274 17.0145 18.5736 16.8165 18.5961C16.3988 18.6434 15.9803 18.6884 15.561 18.7311L13.0174 19C12.9972 19 12.9758 19 12.9432 19Z" fill="black"/>
</svg>
