<svg width="20" height="20" viewBox="0 0 20 20" fill="none" xmlns="http://www.w3.org/2000/svg">
<path d="M5.96532 14.077C5.91358 14.0835 5.86356 14.0999 5.818 14.1253C5.69674 14.2286 5.58392 14.3415 5.4806 14.4627C5.46491 14.4915 5.44311 14.5166 5.41673 14.5361C5.39035 14.5556 5.36002 14.569 5.32788 14.5756C5.29573 14.5821 5.26254 14.5815 5.23064 14.5739C5.19874 14.5663 5.1689 14.5517 5.14321 14.5313C5.09649 14.5135 5.04484 14.5135 4.99813 14.5313C4.8508 14.5808 4.70909 14.6438 4.56289 14.6933C4.46279 14.7293 4.3582 14.7551 4.23674 14.7922L4.27048 14.8676L4.09278 14.9879L3.91396 14.8878L3.9657 15.0745L3.7329 15.4018L3.40787 15.3636L3.3359 15.5379L3.0075 15.4052L2.86917 15.7594L2.74096 15.6177L2.40356 16.0519L2.35408 16.0192C2.3597 15.9349 2.54302 15.8674 2.38219 15.7606L2.28885 15.8607L2.21125 15.7482L1.59719 16.1632C1.59719 16.1519 1.58257 16.1227 1.59157 16.1047C1.68941 15.9203 1.58482 15.7808 1.49709 15.6346C1.33177 15.3613 1.17207 15.0835 1 14.79L3.31903 13.4146C3.20252 13.2023 3.07332 12.9972 2.93215 12.8005C2.83895 12.675 2.77258 12.5316 2.73717 12.3794C2.70177 12.2271 2.69808 12.0692 2.72634 11.9154C2.81518 10.9212 2.88379 9.92589 2.95914 8.92945C3.03449 7.93301 3.11097 6.93883 3.18407 5.94351C3.2448 5.03704 3.30216 4.1272 3.35951 3.22074C3.37413 2.99581 3.36851 2.99581 3.59906 3.00143L7.29241 3.11502C7.97732 3.13639 8.66785 3.16226 9.35501 3.17913C9.4911 3.17913 9.52821 3.23536 9.51696 3.36132C9.50797 3.45916 9.51696 3.55813 9.51696 3.68972C9.66093 3.66989 9.80363 3.64173 9.94433 3.60537C9.98032 3.593 10.0017 3.50865 10.0163 3.45241C10.0647 3.23423 10.0883 3.20274 10.3076 3.21286C10.651 3.21238 10.9939 3.23871 11.3333 3.29159C11.512 3.31272 11.6928 3.31007 11.8709 3.28372C12.4759 3.25785 13.09 3.2511 13.6995 3.25673C14.5318 3.2646 15.364 3.29159 16.1963 3.30734C17.0285 3.32308 17.8382 3.33995 18.6615 3.33995C18.8054 3.33995 18.8358 3.39281 18.8392 3.52327C18.8673 4.62205 18.9055 5.71971 18.9303 6.81849C18.9595 8.10509 18.9775 9.39281 19 10.6805C19 10.7446 19 10.8087 19 10.8301C18.8718 10.8818 18.7751 10.9133 18.6918 10.9583C18.5794 11.0146 18.5884 11.1113 18.6109 11.2181C18.6334 11.325 18.6379 11.443 18.6514 11.5555C18.6535 11.5932 18.658 11.6308 18.6649 11.668C18.7245 11.9086 18.7076 11.9413 18.4647 12.0301C18.3522 11.9109 18.2397 11.7838 18.0553 11.9435C18.0328 11.9638 17.9552 11.9233 17.8821 11.9053L17.8079 11.9997C17.7022 11.9435 17.5931 11.8794 17.4795 11.8277C17.439 11.8086 17.3569 11.7973 17.3423 11.8176C17.2467 11.9446 17.1657 12.083 17.0634 12.2427C16.997 12.0301 17.0026 12.0369 16.8485 12.1392C16.8103 12.1651 16.7293 12.1291 16.6675 12.1178C16.627 12.1111 16.5753 12.0773 16.555 12.092C16.4358 12.1617 16.3897 12.092 16.3616 11.9986C16.3132 11.8355 16.2727 11.6702 16.2289 11.506H16.1783C16.1906 11.6635 16.1918 11.8232 16.2176 11.9784C16.2401 12.1111 16.2367 12.2314 16.1052 12.2933C16.0444 12.3341 15.9711 12.3522 15.8983 12.3443C15.8255 12.3365 15.7578 12.3033 15.707 12.2505C15.6362 12.1718 15.5799 12.1752 15.5327 12.2101C15.4382 12.1741 15.3291 12.0897 15.2504 12.1122C15.0502 12.1696 15.1863 12.3574 15.1458 12.5002C15.1065 12.4599 15.0644 12.4223 15.0199 12.3877C14.978 12.3534 14.9252 12.3352 14.8711 12.3367C14.8169 12.3381 14.7652 12.3591 14.7252 12.3956C14.6489 12.4603 14.5612 12.5103 14.4665 12.5429C14.3483 12.5748 14.2281 12.5988 14.1067 12.6149C14.0394 12.5331 13.9763 12.4479 13.9177 12.3596C13.8792 12.3078 13.8601 12.2441 13.8637 12.1797C13.893 12.1018 13.8934 12.016 13.8649 11.9379C13.8365 11.8597 13.781 11.7943 13.7085 11.7534C13.6131 11.6679 13.4991 11.6056 13.3756 11.5713C13.4487 11.7051 13.3531 11.9086 13.6107 11.9086C13.6545 11.9086 13.7288 12.0211 13.731 12.0818C13.7248 12.2295 13.7075 12.3765 13.6793 12.5216L13.8007 12.5688L13.6287 12.652L13.6422 12.6858L13.8255 12.6745L13.8412 12.7386L13.4813 12.8354C13.4319 12.6678 13.3329 12.5947 13.1698 12.6273C13.0394 12.6532 12.9067 12.6734 12.7762 12.7015C12.7413 12.7094 12.711 12.7375 12.6761 12.7465C12.5636 12.7746 12.4512 12.7994 12.332 12.8252V12.8781L12.251 12.7488L12.0261 12.9962C11.8439 12.7004 11.547 12.7465 11.268 12.7386C10.9909 12.7577 10.7283 12.8694 10.5224 13.0558L10.5438 12.9141C10.3869 12.8323 10.2185 12.7747 10.0444 12.7431C9.87782 12.7637 9.71607 12.8132 9.56645 12.8893C9.52328 12.9103 9.48255 12.936 9.44499 12.9658L9.4045 12.9175L9.55183 12.8545C9.38763 12.7847 9.38763 12.7847 9.30103 12.9231L9.27629 12.8815C9.22006 12.9051 9.16382 12.9332 9.10534 12.9523C9.00209 12.9916 8.89608 13.0231 8.78819 13.0468C8.76907 13.0468 8.72971 12.9737 8.70722 12.9343C8.68472 12.895 8.69709 12.859 8.6791 12.8309C8.54752 12.6307 8.55764 12.5744 8.7522 12.435C8.76555 12.4258 8.77637 12.4134 8.78369 12.399C8.78881 12.3784 8.79145 12.3572 8.79157 12.336C8.57901 12.3686 8.48229 12.525 8.36083 12.6734L8.50815 12.7791C8.49466 12.8027 8.48904 12.8275 8.47441 12.8387C8.26073 13.0119 8.0448 13.1829 7.83112 13.3538C7.80188 13.3774 7.76364 13.3977 7.74902 13.428C7.66692 13.5979 7.52409 13.527 7.39588 13.5259C7.36101 13.5259 7.30815 13.4989 7.29241 13.5135C7.12371 13.6822 6.95501 13.8509 6.80094 14.0342C6.7762 14.0623 6.80094 14.1377 6.81106 14.2108L6.49503 14.2727C6.49503 14.2547 6.49503 14.2355 6.50066 14.2176C6.44926 14.2004 6.39956 14.1786 6.3522 14.1523C6.29372 14.113 6.24874 14.0522 6.18913 14.0174C6.12782 13.9891 6.06375 13.9672 5.99794 13.9521L5.98107 14.005L6.15989 14.0961L5.82249 14.3109L5.78875 14.2772L6.01368 14.1478L5.96532 14.077Z" fill="black"/>
</svg>
