<svg width="20" height="20" viewBox="0 0 20 20" fill="none" xmlns="http://www.w3.org/2000/svg">
<path d="M8.39452 1C8.62839 1.04432 8.85907 1.10405 9.08505 1.17882C9.28993 1.2784 9.48694 1.39345 9.67435 1.52295C9.5349 1.63542 9.44943 1.71639 9.34259 1.78049C9.24839 1.83149 9.16829 1.90501 9.10942 1.99449C9.05055 2.08397 9.01474 2.18664 9.0052 2.29332C8.97482 2.54319 8.8648 2.77664 8.69143 2.95911C8.6284 3.03043 8.56981 3.10554 8.51598 3.18403C8.46677 3.26607 8.4016 3.33741 8.32433 3.39381C8.24707 3.45022 8.15927 3.49055 8.06613 3.51242C8.01652 3.5219 7.97131 3.54717 7.93725 3.58447C7.90319 3.62177 7.88213 3.66909 7.87719 3.71936C7.87475 3.74436 7.8679 3.76872 7.85695 3.79133C7.7085 4.04437 7.79622 4.22544 8.0009 4.41213C8.14865 4.52891 8.24448 4.69918 8.26763 4.88609C8.29078 5.07299 8.2394 5.26149 8.12461 5.4108C8.03191 5.51981 7.98425 5.66007 7.99136 5.803C7.99846 5.94592 8.05979 6.08076 8.16285 6.18005C8.47302 6.57174 8.72423 7.0067 8.90848 7.47112C8.9366 7.5296 9.02094 7.56334 9.08167 7.60158C9.1424 7.63982 9.22787 7.64769 9.27174 7.69605C9.61034 8.08117 9.81615 8.56494 9.85879 9.07597C9.86553 9.29071 9.8497 9.50557 9.81156 9.71701C9.77486 9.97518 9.80149 10.2384 9.88916 10.484C9.92566 10.5925 9.93719 10.7078 9.9229 10.8214C9.90378 11.0115 9.89928 11.179 10.1175 11.2712C10.1803 11.3012 10.2319 11.3505 10.2648 11.4118C10.4879 11.762 10.6495 12.1476 10.7428 12.5522C10.7591 12.6559 10.7651 12.761 10.7607 12.866C10.7552 12.9286 10.7662 12.9916 10.7926 13.0486C10.8191 13.1057 10.86 13.1548 10.9114 13.191C11.2776 13.47 11.5904 13.8129 11.8348 14.2032C11.9283 14.349 12.0595 14.4667 12.2146 14.5439C12.3696 14.6212 12.5427 14.655 12.7154 14.6418C13.0527 14.6294 13.0786 14.6676 13.1011 15.0016C13.127 15.3705 13.1675 15.7383 13.1899 16.1072C13.1907 16.2533 13.1828 16.3994 13.1663 16.5446H13.1258C13.1168 16.4142 13.1112 16.2826 13.0966 16.1521C13.073 15.9272 12.9841 15.8586 12.7705 15.8575H12.6805C12.405 15.8575 12.4016 15.8575 12.5118 16.1229L12.6153 16.3714C12.5613 16.3591 12.5064 16.3512 12.4511 16.3478C12.4056 16.3536 12.3608 16.3638 12.3172 16.3782L12.2981 16.4344L12.7738 16.7246C12.6963 16.785 12.6126 16.837 12.5242 16.8798C12.3695 16.9365 12.2109 16.9816 12.0496 17.0147C11.9862 17.0326 11.9277 17.0647 11.8786 17.1085C11.8295 17.1524 11.7911 17.2068 11.7662 17.2678L11.9472 17.2959L11.7549 17.5703C11.8393 17.5604 11.9225 17.5423 12.0035 17.5163C12.1508 17.4488 12.288 17.3622 12.4364 17.2914C12.5343 17.2475 12.6074 17.2981 12.6614 17.3892C12.6843 17.4281 12.7095 17.4657 12.7367 17.5017C12.8042 17.5995 12.8751 17.6142 12.9482 17.5073C13.0606 17.3577 13.2214 17.234 13.1787 17.0136C13.1787 16.9979 13.2034 16.9754 13.2473 16.9124C13.2777 17.0327 13.3294 17.1204 13.3125 17.1936C13.2375 17.6433 13.273 18.1045 13.416 18.5375C13.4334 18.6597 13.4307 18.7839 13.4081 18.9052C13.3991 19.0042 13.326 19.0177 13.2552 18.9761C13.1427 18.9131 13.0516 18.8468 12.9493 18.9851C12.9335 19.0065 12.8739 18.9986 12.8368 18.9986C10.8762 18.9986 8.91598 18.9967 6.95612 18.993C6.81554 18.993 6.76718 18.9491 6.76044 18.8051C6.67834 17.2115 6.59512 15.6202 6.52089 14.0356C6.47366 13.0673 6.43654 12.0979 6.39043 11.1295C6.3252 9.75637 6.25773 8.3832 6.19025 7.01002C6.14526 6.06084 6.10478 5.10265 6.06204 4.14896C6.04405 3.75422 6.02493 3.36172 6.00244 2.96473C5.9964 2.91233 6.00161 2.85925 6.0177 2.80903C6.0338 2.7588 6.06042 2.71258 6.09578 2.67345C6.20897 2.5211 6.31012 2.36017 6.3983 2.19211C6.48265 2.06053 6.56587 1.93119 6.63898 1.79511C6.7695 1.57181 6.95411 1.38494 7.17579 1.25169C7.39748 1.11845 7.64912 1.04311 7.90756 1.03261L8.15948 1H8.39452Z" fill="black"/>
</svg>
