<svg width="20" height="20" viewBox="0 0 20 20" fill="none" xmlns="http://www.w3.org/2000/svg">
<path d="M13.5342 3.0025C13.7288 3.0025 13.9245 2.99688 14.1191 3.0025C14.163 3.0025 14.2316 3.05649 14.2417 3.09249C14.3645 3.86397 14.6058 4.61183 14.9571 5.30957C15.217 5.87199 15.4959 6.43442 15.8053 6.97547C15.9743 7.22033 16.1689 7.44656 16.3857 7.65038C16.5915 7.87535 16.8075 8.0947 17.0145 8.32529C17.0305 8.34436 17.0416 8.36696 17.0471 8.39122C17.0526 8.41548 17.0522 8.44069 17.046 8.46477C16.9988 8.54794 16.9717 8.64097 16.9668 8.73647C16.9619 8.83196 16.9794 8.92728 17.0179 9.01482C17.1105 9.294 17.2327 9.56248 17.3823 9.81572C17.8851 10.5514 18.3362 11.3211 18.7321 12.1194C18.9172 12.477 19.0005 12.8786 18.9729 13.2803C18.9361 13.6577 18.9361 14.0378 18.9729 14.4152C19.0048 14.5351 19.0086 14.6607 18.984 14.7822C18.9594 14.9038 18.9071 15.018 18.8311 15.116C18.7121 15.3147 18.6754 15.552 18.7288 15.7774C18.737 15.8556 18.7144 15.9339 18.6658 15.9956C18.4718 16.169 18.2678 16.3309 18.055 16.4805C17.995 16.5216 17.9265 16.5485 17.8545 16.559C17.7825 16.5696 17.7091 16.5635 17.6399 16.5412C17.5715 16.513 17.4948 16.5127 17.4262 16.5405C17.3576 16.5682 17.3027 16.6218 17.2732 16.6897C17.2293 16.7853 17.1731 16.7583 17.1124 16.7234C17.043 16.6852 16.9858 16.6282 16.9474 16.559C16.909 16.4897 16.8909 16.411 16.8953 16.332C16.884 16.1124 16.8273 15.8976 16.7287 15.7011C16.6302 15.5046 16.4919 15.3306 16.3227 15.1903C16.2304 15.0942 16.1173 15.0207 15.992 14.9754C15.9223 14.9495 15.8244 15.0058 15.7378 15.0181C15.668 15.0283 15.5724 15.0575 15.5319 15.0249C15.4079 14.946 15.3008 14.843 15.2172 14.7221C15.1335 14.6012 15.0749 14.4647 15.0449 14.3207C15.0288 14.1895 14.9788 14.0647 14.8999 13.9587C14.8211 13.8526 14.716 13.7688 14.5949 13.7156C14.4825 13.6616 14.4656 13.6031 14.4746 13.4906C14.4911 13.2525 14.4941 13.0136 14.4836 12.7752C14.4813 12.7438 14.4715 12.7135 14.4551 12.6867C14.4386 12.6598 14.416 12.6374 14.3891 12.6211C14.343 12.6087 14.2699 12.6616 14.2237 12.7032C14.172 12.7541 14.1267 12.8112 14.0888 12.8731C13.9695 13.0463 13.9684 13.0485 13.8244 12.8843C13.5005 12.5154 13.1754 12.1487 12.8593 11.7741C12.7029 11.5885 12.7209 11.5412 12.8863 11.368C13.0663 11.1855 13.236 10.9933 13.3947 10.7921C13.5308 10.6144 13.5072 10.5559 13.3025 10.4749C13.1371 10.4085 12.965 10.3511 12.7997 10.2983C12.7475 10.2901 12.6944 10.2901 12.6422 10.2983C12.6498 10.3556 12.6615 10.4124 12.6771 10.4681C12.7267 10.5843 12.7703 10.7029 12.8076 10.8236C12.8199 10.8776 12.7749 10.9451 12.7558 11.0069C12.7078 10.9742 12.6633 10.9365 12.6231 10.8944C12.4645 10.6899 12.3548 10.4518 12.3021 10.1984C12.2495 9.94501 12.2554 9.68293 12.3194 9.43214C12.3905 9.08427 12.4312 8.73085 12.4409 8.37591C12.4543 8.26964 12.4335 8.16187 12.3815 8.06822C12.3295 7.97457 12.249 7.89992 12.1518 7.8551C12.0647 7.7952 12.0005 7.70758 11.9695 7.60651C11.9533 7.55054 11.9209 7.50057 11.8765 7.46278C11.8322 7.425 11.7777 7.40105 11.7198 7.39391C11.5466 7.36917 11.3711 7.35455 11.1979 7.32867C11.1653 7.32867 11.1158 7.28368 11.1124 7.25668C11.1083 7.16036 11.0772 7.06712 11.0227 6.98758C10.9682 6.90804 10.8925 6.84539 10.8042 6.80674C10.6748 6.73925 10.5995 6.5694 10.4982 6.44679C10.462 6.39539 10.4201 6.34822 10.3734 6.30618C10.1807 6.1562 9.98568 6.01185 9.78846 5.87312C9.71767 5.81372 9.64075 5.76206 9.55899 5.71901C9.38913 5.6459 9.21366 5.58066 9.04043 5.51429C9.01576 5.50246 8.98901 5.49558 8.96169 5.49404C8.80147 5.48343 8.64156 5.51889 8.50084 5.59622C8.36013 5.67356 8.24447 5.78954 8.16755 5.93048C8.0437 6.16854 7.8684 6.37604 7.65438 6.53791C7.44036 6.69979 7.19299 6.81199 6.93021 6.86636C6.86597 6.8846 6.80059 6.8985 6.73449 6.90798C6.658 6.91923 6.57926 6.92485 6.50164 6.9316C6.50608 6.8645 6.50116 6.79712 6.48702 6.73138C6.45301 6.61546 6.39601 6.50758 6.31942 6.41417C6.20158 6.2957 6.06518 6.19729 5.9156 6.12283C5.54552 5.94286 5.16645 5.77975 4.79075 5.61665C4.31518 5.44765 3.80618 5.39443 3.30594 5.46142C2.78634 5.48239 2.27354 5.58723 1.7874 5.77188C1.77666 5.77506 1.76578 5.77769 1.75477 5.77975C1.48819 5.85062 1.48819 5.85062 1.47806 5.57616C1.46794 5.2522 1.44994 4.93162 1.44994 4.60654C1.45478 4.55984 1.44545 4.51278 1.42319 4.47145C1.40092 4.43013 1.36674 4.39646 1.32508 4.37482C1.24556 4.3338 1.17211 4.28194 1.10686 4.22071C1.06342 4.16248 1.02751 4.09898 1 4.03174C1.04908 3.99842 1.10348 3.9737 1.16085 3.95862C1.69966 3.90575 2.23734 3.86076 2.77614 3.81352L5.64113 3.55705C5.71918 3.55819 5.79716 3.55179 5.87398 3.53793C6.01102 3.48943 6.16104 3.49248 6.29601 3.54651C6.43097 3.60053 6.54165 3.70184 6.60738 3.83151C6.65013 3.89538 6.71097 3.94502 6.78212 3.97408C6.85326 4.00314 6.93147 4.01029 7.0067 3.99462C8.24066 3.91925 9.478 3.86976 10.7142 3.80677C11.1821 3.78427 11.6501 3.76627 12.1169 3.73478C12.2553 3.72578 12.2856 3.77415 12.2845 3.90125C12.2845 4.20946 12.2418 4.17234 12.5612 4.17347C12.6939 4.17347 12.8683 4.21396 12.9493 4.14647C13.0303 4.07898 13.0067 3.90125 13.0291 3.7719C13.0291 3.7494 13.037 3.72803 13.0404 3.70553C13.073 3.50193 13.1045 3.29946 12.9088 3.14311C12.8762 3.12511 12.8717 3.06437 12.8537 3.01937C12.896 3.01058 12.9388 3.00457 12.9819 3.00137C13.1664 3.00137 13.3497 3.00137 13.5342 3.00137V3.0025Z" fill="black"/>
</svg>
