<svg width="20" height="20" viewBox="0 0 20 20" fill="none" xmlns="http://www.w3.org/2000/svg">
<path d="M13.1198 18.1964C12.6429 18.165 12.1492 18.1346 11.6577 18.1009C10.7658 18.0401 9.87393 17.9738 8.98205 17.9187C8.09018 17.8635 7.16793 17.8174 6.26031 17.7691C5.73621 17.7421 5.21323 17.7173 4.68575 17.6937C4.59268 17.6912 4.50325 17.657 4.43214 17.5969C4.36102 17.5369 4.31243 17.4544 4.29436 17.3631C4.28185 17.3169 4.27542 17.2692 4.27524 17.2213C4.27206 17.1002 4.2329 16.9828 4.16277 16.8839C4.09845 16.785 4.05483 16.674 4.03456 16.5578C4.01961 16.3351 3.91929 16.1268 3.75451 15.9763C3.73983 15.965 3.72918 15.9492 3.72414 15.9313C3.70615 15.8061 3.6904 15.6805 3.67691 15.5546C3.67691 15.5433 3.68928 15.5298 3.6949 15.5174C3.72324 15.4626 3.74586 15.4049 3.76238 15.3454C3.7815 15.2329 3.78375 15.1272 3.79837 15.0192C3.81862 14.8719 3.8636 14.7245 3.88048 14.5828C3.89188 14.4842 3.88289 14.3843 3.85406 14.2893C3.82523 14.1943 3.77718 14.1063 3.7129 14.0306C3.68484 14.0008 3.66365 13.9652 3.65083 13.9264C3.63801 13.8875 3.63385 13.8463 3.63867 13.8057C3.63902 13.678 3.6262 13.5506 3.60043 13.4255C3.59122 13.377 3.59206 13.3271 3.60289 13.279C3.61372 13.2308 3.63432 13.1854 3.66341 13.1455C3.78594 12.9858 3.852 12.79 3.85123 12.5888C3.83555 12.4919 3.83555 12.3932 3.85123 12.2963C3.88846 12.2079 3.9477 12.1305 4.02331 12.0714C4.13578 11.9679 4.26962 11.8813 4.39333 11.7869V11.7374C4.29979 11.6716 4.20211 11.6118 4.10091 11.5586C4.00756 11.5158 4.00194 11.4843 4.05255 11.3955C4.09416 11.3027 4.12437 11.2053 4.14253 11.1053C4.14253 11.0941 4.13578 11.0704 4.12791 11.0671C4.02219 11.0333 4.05705 10.9377 4.03118 10.8657C4.00002 10.7689 3.95079 10.6788 3.8861 10.6003C3.78442 10.4942 3.72485 10.3547 3.71852 10.2078C3.71852 10.1662 3.66678 10.1291 3.65441 10.0852C3.6263 9.99186 3.61055 9.89514 3.58581 9.80067C3.57359 9.76884 3.55969 9.73768 3.54419 9.70732C3.52282 9.65221 3.50371 9.59485 3.48571 9.53974C3.48571 9.52737 3.49583 9.50712 3.48571 9.497C3.37947 9.27089 3.3198 9.02572 3.31026 8.77608C3.15843 7.93032 3.02234 7.08793 2.88288 6.24666C2.74567 5.42339 2.61633 4.599 2.47462 3.77685C2.34415 3.02443 2.20132 2.28102 2.06636 1.53198C2.04049 1.38689 2.02362 1.24068 2 1.08098C2.04949 1.07873 2.08773 1.07535 2.12596 1.07535C3.10557 1.06973 4.08517 1.06298 5.06477 1.05961C5.92965 1.05961 6.79341 1.05961 7.6583 1.05961C7.92035 1.05961 8.18352 1.05961 8.44558 1.05174C8.99892 1.03824 9.55227 1.02024 10.1056 1C10.1371 1 10.1697 1 10.2181 1.00562C10.1427 1.12596 10.1517 1.25755 10.0111 1.34303C9.87055 1.42851 9.71197 1.50049 9.67373 1.68943C9.67373 1.70293 9.63999 1.71193 9.62087 1.72092C9.54102 1.75691 9.3577 2.09207 9.40268 2.1573C9.47327 2.24852 9.55616 2.32952 9.64899 2.39798C9.74121 2.47221 9.82107 2.57793 9.96615 2.55657C9.98527 2.55657 10.0134 2.61392 10.0381 2.64429C10.1191 2.74664 10.2113 2.84224 10.2979 2.93671C10.3665 3.01094 10.4768 3.12791 10.6252 3.04918C10.6323 3.04806 10.6395 3.04806 10.6466 3.04918C10.9413 3.01431 10.9975 3.05593 11.0582 3.35059C11.0602 3.39856 11.0732 3.44542 11.0962 3.48755C11.1192 3.52968 11.1516 3.56594 11.1909 3.59353C11.2157 3.60815 11.2258 3.65313 11.2382 3.68687C11.2629 3.75323 11.2652 3.83083 11.3506 3.86233C11.3709 3.8702 11.3821 3.91631 11.3878 3.94555C11.4035 4.02878 11.4114 4.11426 11.4271 4.19636C11.4334 4.24245 11.4499 4.28656 11.4754 4.32547C11.5009 4.36439 11.5347 4.39712 11.5745 4.42129C11.6442 4.46403 11.6802 4.56301 11.7308 4.63723C11.7403 4.65287 11.7489 4.66901 11.7567 4.6856C11.8241 4.81156 11.8939 4.93528 11.9568 5.06237C11.985 5.12085 12.0007 5.17483 12.0862 5.17483C12.1132 5.17483 12.1492 5.20858 12.1705 5.23444C12.2563 5.3512 12.3721 5.44254 12.5057 5.49874C12.6288 5.56421 12.7424 5.64634 12.8431 5.7428C12.9007 5.79344 12.9555 5.84713 13.0073 5.90363C13.0152 5.9115 13.0264 5.91713 13.0309 5.92613C13.0883 6.06334 13.1501 6.19942 13.1996 6.34001C13.2202 6.38933 13.2508 6.43382 13.2895 6.47062C13.3283 6.50741 13.3743 6.53571 13.4246 6.5537C13.516 6.57115 13.6027 6.60811 13.6785 6.66207C13.7544 6.71602 13.8178 6.7857 13.8643 6.86636C13.9087 6.92611 13.964 6.97687 14.0274 7.01595C14.1084 7.06656 14.1567 7.12054 14.1252 7.22176C14.1001 7.29509 14.0809 7.37031 14.0679 7.4467C14.0679 7.46408 14.0718 7.48124 14.0792 7.49698C14.0865 7.51272 14.0973 7.52665 14.1106 7.5378C14.1815 7.59291 14.2602 7.64015 14.3277 7.68401C14.3423 7.7155 14.3592 7.74699 14.3738 7.77961C14.3792 7.79554 14.3819 7.81227 14.3817 7.82909C14.3817 7.86171 14.3693 7.90557 14.3817 7.92469C14.4256 7.97398 14.4764 8.01677 14.5324 8.05178C14.547 8.0619 14.5852 8.03604 14.6302 8.02029C14.6258 8.06442 14.6258 8.10888 14.6302 8.153C14.6403 8.20249 14.6505 8.26547 14.6853 8.29359C14.7978 8.36894 14.9193 8.42855 15.0374 8.49491C15.0925 8.52527 15.1498 8.55564 15.2016 8.59051C15.2814 8.64337 15.3579 8.70297 15.4389 8.75359C15.4733 8.77141 15.5006 8.80032 15.5165 8.83563C15.5325 8.87094 15.536 8.91058 15.5266 8.94816C15.5206 9.02252 15.5321 9.09727 15.5603 9.16635C15.5987 9.29189 15.6648 9.4072 15.7538 9.50375C15.7613 9.51212 15.7657 9.52286 15.7662 9.53412C15.7662 9.66795 15.7729 9.80179 15.7785 9.93563C15.778 9.97388 15.784 10.0119 15.7965 10.0481C15.8155 10.0821 15.8268 10.1199 15.8297 10.1587C15.8326 10.1976 15.827 10.2366 15.8134 10.273C15.8074 10.2855 15.8043 10.2991 15.8043 10.313C15.8043 10.3268 15.8074 10.3404 15.8134 10.3529C15.9011 10.4451 15.9787 10.5508 16.1261 10.561C16.1705 10.5717 16.2101 10.597 16.2385 10.6329C16.3319 10.733 16.4185 10.8399 16.5141 10.9512C16.4578 11.0277 16.4691 11.0929 16.5343 11.1762C16.616 11.2981 16.6856 11.4277 16.7424 11.5631C16.747 11.5772 16.7484 11.5923 16.7464 11.6071C16.7445 11.6219 16.7393 11.636 16.7311 11.6485C16.6254 11.7925 16.6277 11.7891 16.7244 11.9252C16.7508 11.9683 16.7618 12.019 16.7559 12.0692C16.7446 12.1323 16.7564 12.1975 16.789 12.2527C16.8216 12.308 16.8729 12.3498 16.9336 12.3706C16.9687 12.3875 17.0091 12.3899 17.0461 12.3773C17.0713 12.3591 17.1026 12.3514 17.1335 12.3558C17.1643 12.3602 17.1922 12.3764 17.2114 12.4009C17.3153 12.5176 17.4549 12.5967 17.6084 12.6259C17.6298 12.6259 17.6601 12.6832 17.659 12.7136C17.6444 12.7669 17.6171 12.8159 17.5795 12.8564C17.5419 12.8969 17.4951 12.9278 17.4431 12.9464C17.4262 12.9464 17.3981 12.9532 17.3902 12.9464C17.3227 12.8699 17.2777 12.9127 17.2519 12.9779C17.2429 13.0071 17.2901 13.0544 17.3261 13.1185L17.1776 13.2816L16.9797 13.2107L16.9212 13.3895L17.0618 13.4323C16.9755 13.5182 16.8965 13.6111 16.8256 13.7101C16.7424 13.8507 16.6254 13.7708 16.5219 13.7753C16.5118 13.8878 16.5219 13.8878 16.7053 13.8968C16.7269 13.9856 16.7292 14.078 16.7121 14.1678C16.6951 14.2577 16.659 14.3428 16.6063 14.4175C16.4668 14.3973 16.3251 14.449 16.3128 14.5367C16.369 14.5367 16.4252 14.5288 16.4781 14.5277C16.5028 14.5277 16.5411 14.5277 16.5512 14.5435C16.557 14.5558 16.56 14.5692 16.56 14.5828C16.56 14.5964 16.557 14.6099 16.5512 14.6222C16.5028 14.7133 16.4455 14.7999 16.3971 14.891C16.3423 14.9863 16.2964 15.0865 16.2599 15.1902C16.2539 15.2509 16.2721 15.3115 16.3105 15.3589C16.2925 15.4297 16.2723 15.4995 16.2576 15.5703C16.2363 15.6715 16.2396 15.7784 16.1058 15.82C16.0619 15.8335 16.0383 15.9111 16.0012 15.9561C15.9641 16.0011 15.9326 16.0258 15.9022 16.0685C15.8814 16.0899 15.8663 16.1162 15.8584 16.145C15.8505 16.1956 15.864 16.2507 15.8516 16.2991C15.828 16.3868 15.8663 16.5139 15.7032 16.524C15.6537 16.524 15.6076 16.5971 15.5423 16.6511L15.7605 16.7344L15.8291 16.641C15.8431 16.677 15.8511 16.7149 15.8528 16.7535C15.8356 16.9101 15.8013 17.0644 15.7504 17.2135C15.7126 17.2798 15.6893 17.3534 15.682 17.4293C15.6746 17.5053 15.6834 17.582 15.7077 17.6544C15.5249 17.6545 15.3425 17.6395 15.1622 17.6094C14.9498 17.5855 14.7461 17.5111 14.5684 17.3923C14.5481 17.3754 14.5054 17.3855 14.4739 17.3788C14.4166 17.3684 14.3603 17.3537 14.3052 17.3349C14.2208 17.3023 14.1387 17.263 14.051 17.2225L13.9802 17.4125L13.8857 17.3766C13.8463 17.4373 13.7867 17.489 13.7867 17.5408C13.7867 17.6768 13.6889 17.8129 13.78 17.9479C13.8817 18.1541 13.8982 18.392 13.8261 18.6103C13.8137 18.7014 13.7935 18.7914 13.7833 18.8825C13.7732 18.9736 13.7305 19.0152 13.6371 18.995C13.564 18.9837 13.4932 18.9646 13.4201 18.9545C13.257 18.9309 13.1884 18.8488 13.212 18.6846C13.2279 18.638 13.2308 18.588 13.2205 18.5398C13.2102 18.4917 13.1871 18.4473 13.1535 18.4113C13.1175 18.3719 13.1344 18.2774 13.1198 18.1964Z" fill="black"/>
</svg>
