<svg width="20" height="20" viewBox="0 0 20 20" fill="none" xmlns="http://www.w3.org/2000/svg">
<path d="M10.7078 18.7423L10.9499 18.9528C10.7675 19.0935 10.7101 18.9303 10.6234 18.8402C10.593 18.859 10.5585 18.8703 10.5229 18.8732C10.4872 18.876 10.4514 18.8703 10.4184 18.8566C10.3854 18.8428 10.3561 18.8214 10.333 18.7941C10.31 18.7668 10.2937 18.7344 10.2856 18.6995C10.2372 18.5228 10.2282 18.2999 10.1134 18.1828C9.90625 17.97 10.0391 17.8991 10.1843 17.7764C10.2203 17.746 10.2057 17.6199 10.1764 17.5512C10.1359 17.4555 10.0526 17.3801 10.0019 17.2878C9.95129 17.1955 9.91076 17.0964 10.0841 17.0502C9.97718 16.8983 9.90851 16.7035 9.77454 16.6314C9.58315 16.529 9.5021 16.3376 9.33548 16.2262C9.25555 16.1721 9.20376 16.0641 9.06754 16.1395C9.02702 16.162 8.93132 16.0854 8.84914 16.0483L8.90768 15.9177C8.72334 15.8741 8.56358 15.7596 8.463 15.5991C8.45061 15.5766 8.4281 15.5473 8.40784 15.5451C8.15566 15.5158 8.08136 15.2783 7.92712 15.1353C7.90226 15.1062 7.88903 15.0689 7.88997 15.0306C7.85312 14.7692 7.91492 14.5036 8.06334 14.2853C8.18237 14.1428 8.24095 13.9594 8.22658 13.7742C8.22074 13.6458 8.24197 13.5176 8.28891 13.3979C8.33585 13.2783 8.40743 13.1698 8.49902 13.0796C8.29143 12.8874 8.03184 12.7605 7.75263 12.7148C7.70552 12.7164 7.66062 12.7352 7.62654 12.7678C7.53986 12.8364 7.45992 12.913 7.38787 12.976C7.26926 12.9416 7.1668 12.866 7.09891 12.7629C7.03102 12.6597 7.00215 12.5357 7.01749 12.4131C7.04392 12.2566 7.04392 12.0968 7.01749 11.9403C6.98485 11.8567 6.93629 11.7802 6.87452 11.7151C6.79951 11.6402 6.71773 11.5724 6.63022 11.5125C6.31935 11.2859 6.0478 11.0098 5.82641 10.6952C5.76674 10.6085 5.68006 10.5421 5.61814 10.4565C5.53146 10.3293 5.4504 10.1965 5.36709 10.0625C5.34125 10.0079 5.31153 9.95523 5.27815 9.90489C5.20948 9.82383 5.16558 9.75291 5.21511 9.63808C5.22163 9.60896 5.22231 9.57884 5.21709 9.54947C5.21187 9.52009 5.20086 9.49204 5.18471 9.46696C5.09597 9.29313 5.04261 9.10342 5.02773 8.90881C5.01285 8.71421 5.03674 8.51859 5.09803 8.33329C5.124 8.26169 5.17062 8.19939 5.232 8.15429C5.26686 8.1288 5.29438 8.09456 5.31178 8.05502C5.32917 8.01549 5.33583 7.97206 5.33107 7.92914C5.30517 7.26943 5.24213 7.41015 5.82303 7.23678C5.86911 7.23033 5.91135 7.2076 5.94212 7.1727C5.97289 7.1378 5.99015 7.09304 5.99078 7.04652C5.99582 6.91332 6.02843 6.78262 6.08657 6.66267C6.1447 6.54273 6.22708 6.43614 6.32851 6.34966C6.40394 6.28324 6.41294 6.11775 6.41745 5.99729C6.4125 5.87485 6.39091 5.75366 6.35328 5.63704C6.34612 5.61776 6.33502 5.60018 6.32067 5.58545C6.30632 5.57071 6.28905 5.55914 6.26997 5.55148C6.22914 5.54492 6.19024 5.52947 6.15603 5.50624C6.12182 5.483 6.09313 5.45254 6.07198 5.417C6.05082 5.38146 6.03773 5.34172 6.03362 5.30057C6.02951 5.25942 6.03449 5.21786 6.04819 5.17884C6.07728 5.08313 6.09874 4.98525 6.11236 4.88614C6.12362 4.70376 6.22494 4.65085 6.3893 4.63734C6.61446 4.6182 6.83962 4.57542 7.06477 4.53715C7.118 4.52627 7.16782 4.50271 7.21 4.46847C7.31695 4.38066 7.40589 4.27484 7.57363 4.33225C7.64906 4.35815 7.86746 4.13186 7.88772 4.05081C7.92166 3.89366 7.96873 3.73963 8.02845 3.59036C8.05434 3.53295 8.14102 3.49354 8.21195 3.4654C8.25395 3.4523 8.29028 3.42536 8.31502 3.38897C8.33975 3.35258 8.35144 3.30889 8.34817 3.26501C8.35492 2.99257 8.37744 2.719 8.37969 2.44657C8.37633 2.41385 8.36642 2.38214 8.35057 2.35332C8.33471 2.3245 8.31322 2.29917 8.28738 2.27882C8.16467 2.18426 8.01944 2.11671 7.90123 2.01652C7.82468 1.94897 7.72561 1.84314 7.72674 1.75533C7.72674 1.6011 7.6378 1.54143 7.54774 1.46488C7.45767 1.38833 7.33721 1.29939 7.24377 1.20482C7.19915 1.14444 7.16315 1.07813 7.13682 1.00781C7.24463 1.02924 7.35367 1.0439 7.4633 1.05172C9.64507 1.05172 11.8272 1.05172 14.0097 1.05172H14.254C14.2633 1.19704 14.255 1.34294 14.2293 1.48627C14.1914 1.61797 14.1867 1.75699 14.2156 1.89095C14.2444 2.02491 14.306 2.14965 14.3948 2.25406C14.5528 2.49628 14.6607 2.76767 14.7122 3.05224C14.7698 3.23458 14.8386 3.41317 14.9182 3.58698C14.9332 3.62774 14.9408 3.6708 14.9408 3.7142C14.9408 6.28399 14.9408 8.8534 14.9408 11.4224C14.9408 11.4337 14.9408 11.445 14.9014 11.4326C14.8429 11.5077 14.7884 11.5859 14.7381 11.6667C14.7269 11.687 14.7505 11.7467 14.7753 11.7647C14.9047 11.8604 14.8282 11.9369 14.755 12.0067C14.5861 12.1677 14.5951 12.2206 14.7989 12.3377C14.8185 12.3527 14.8341 12.3722 14.8445 12.3946C14.8549 12.4169 14.8597 12.4414 14.8586 12.466C14.8327 12.5933 14.8586 12.6833 15.0016 12.7193C14.9723 12.7914 14.9509 12.8556 14.9205 12.913C14.8991 12.9448 14.8894 12.9831 14.8931 13.0213C14.8968 13.0595 14.9136 13.0952 14.9408 13.1224C14.9741 13.1611 14.9987 13.2065 15.0129 13.2555C15.0271 13.3046 15.0306 13.3561 15.0232 13.4067C15.0157 13.4572 14.9974 13.5055 14.9696 13.5483C14.9418 13.5912 14.9051 13.6275 14.862 13.6549C14.7865 13.71 14.6908 13.7427 14.7392 13.8699C14.746 13.8879 14.7055 13.9228 14.692 13.9521C14.6558 14.0217 14.6366 14.0988 14.6357 14.1772L14.4252 14.2662C14.4646 14.4035 14.4612 14.4103 14.1685 14.8572L14.0311 14.8358L14.0953 15.0722C14.0548 15.1218 13.9951 15.1927 13.9399 15.2681C13.9069 15.3046 13.8844 15.3493 13.8746 15.3976C13.8746 15.5226 13.8476 15.6227 13.7396 15.6227C13.7035 15.7635 13.6698 15.8783 13.6484 15.9943C13.6484 16.0179 13.6799 16.0505 13.7137 16.1068L13.5943 16.1654C13.717 16.3905 13.7069 16.5211 13.5347 16.6821C13.5021 16.7039 13.4743 16.7322 13.453 16.7651C13.4317 16.798 13.4172 16.8348 13.4106 16.8735C13.404 16.9121 13.4053 16.9517 13.4144 16.9898C13.4235 17.028 13.4403 17.0638 13.4637 17.0953C13.5254 17.2223 13.5788 17.3532 13.6236 17.487C13.4637 17.487 13.3286 17.487 13.1935 17.487C13.1451 17.487 13.0697 17.487 13.0528 17.5118C12.9402 17.6874 12.7759 17.6672 12.6171 17.6458C12.5504 17.7515 12.5181 17.8753 12.5248 18.0001C12.5314 18.125 12.5767 18.2446 12.6543 18.3426C12.7838 18.4867 12.6307 18.5948 12.589 18.74C12.2794 18.5216 11.8854 18.5149 11.5983 18.2683C11.5722 18.2447 11.5415 18.2267 11.5082 18.2154C11.4749 18.204 11.4397 18.1996 11.4046 18.2023C11.3695 18.2051 11.3353 18.2149 11.3042 18.2313C11.273 18.2477 11.2456 18.2703 11.2234 18.2976C11.1401 18.3854 11.0692 18.4879 10.9791 18.5678C10.8933 18.6328 10.8026 18.6912 10.7078 18.7423Z" fill="black"/>
</svg>
