<svg width="20" height="20" viewBox="0 0 20 20" fill="none" xmlns="http://www.w3.org/2000/svg">
<path d="M3.60307 14.7604L3.24888 14.3106C3.36387 14.0191 3.39541 13.7014 3.33995 13.393C3.28581 13.2132 3.25742 13.0265 3.25562 12.8387C3.26206 12.6336 3.23315 12.429 3.17016 12.2337C3.15505 12.0365 3.16487 11.8382 3.1994 11.6434L2.89805 11.5523C2.89805 11.4804 2.89805 11.4107 2.89805 11.3398C2.68328 11.4185 2.64168 11.3848 2.61807 11.1532C2.57111 10.9009 2.59286 10.6407 2.68103 10.3998C2.69256 10.3529 2.68572 10.3034 2.66192 10.2615C2.59783 10.131 2.43703 10.0366 2.51687 9.84993C2.52361 9.83531 2.45615 9.77684 2.41567 9.75548C2.34019 9.71393 2.27823 9.65157 2.23716 9.57582C2.1961 9.50007 2.17766 9.41412 2.18403 9.32819C2.1754 9.25578 2.14524 9.18762 2.09745 9.13254C2.03529 9.06446 1.96759 9.00165 1.89505 8.94476C1.89505 8.9234 1.89505 8.90878 1.89505 8.90316C2.05247 8.74124 2.0075 8.60405 1.86469 8.45338C1.81656 8.38256 1.78964 8.29947 1.78711 8.21388C1.77024 8.10143 1.77136 7.98899 1.76574 7.89341C1.47901 7.74723 1.17204 7.68314 1 7.38629L1.36094 7.15353C1.14955 6.94888 1.14393 6.92077 1.2485 6.6554C1.33621 6.43052 1.42954 6.2135 1.50937 5.98861C1.53433 5.90383 1.53433 5.81365 1.50937 5.72887C1.51724 5.721 1.52286 5.70638 1.53073 5.70413C1.71964 5.6569 1.75562 5.53884 1.69153 5.3668C1.66567 5.29371 1.67016 5.21163 1.6443 5.14191C1.62744 5.09806 1.58021 5.03284 1.54648 5.03172C1.36994 5.02947 1.32946 4.90915 1.29573 4.77534C1.34145 4.75348 1.38087 4.72035 1.41028 4.67907C1.43969 4.63778 1.45813 4.58971 1.46386 4.53935C1.46959 4.48899 1.46243 4.43799 1.44306 4.39116C1.42368 4.34433 1.39271 4.30318 1.35307 4.2716C1.33186 4.24916 1.31592 4.22228 1.30639 4.19291C1.29686 4.16354 1.29398 4.13242 1.29798 4.10181C1.31484 4.0557 1.39468 4.02759 1.45202 4.00735C1.49613 3.99885 1.54135 3.99771 1.58583 4.00398L15.8943 4.01073H16.1079C16.1079 4.15353 16.1136 4.28959 16.1079 4.42564C16.1008 4.46371 16.1084 4.50308 16.1293 4.53569C16.1502 4.5683 16.1828 4.59168 16.2204 4.60106C16.267 4.61931 16.3124 4.64034 16.3564 4.66403C16.5611 4.76185 16.5892 4.85181 16.4543 5.03397C16.3352 5.17729 16.2569 5.35001 16.2277 5.53401C16.1984 5.71801 16.2192 5.9065 16.2879 6.07969C16.3365 6.19213 16.3701 6.31045 16.3879 6.43164C16.4273 6.86118 16.7388 7.00848 17.0828 7.12767L17.1301 7.14454C17.5382 7.26935 17.6226 7.37617 17.6709 7.8102C17.6812 7.85681 17.706 7.89894 17.7418 7.93052C17.8156 8.0061 17.8957 8.07531 17.9813 8.13741C18.0774 8.19757 18.159 8.27847 18.2198 8.37419C18.2807 8.46991 18.3195 8.57803 18.3332 8.69064C18.3498 8.75349 18.3901 8.80748 18.4457 8.84131C18.5963 8.94476 18.7594 9.03134 18.9112 9.13367C18.9347 9.14938 18.9547 9.16977 18.97 9.19356C18.9853 9.21736 18.9955 9.24405 19 9.27197C18.9944 9.57669 18.9843 9.88254 18.9561 10.1861C18.9474 10.2252 18.9308 10.262 18.9074 10.2945C18.884 10.3269 18.8543 10.3543 18.8201 10.375C18.6796 10.472 18.5777 10.6153 18.5322 10.7798C18.448 10.964 18.3447 11.1389 18.2241 11.3016C18.2028 11.3331 18.1387 11.3376 18.0948 11.3533C17.9737 11.377 17.8574 11.4207 17.7507 11.4826C17.5585 11.6045 17.3373 11.6732 17.1098 11.6816C16.9744 11.7127 16.8368 11.7338 16.6983 11.7446C16.6751 11.7426 16.6518 11.7453 16.6298 11.7526C16.6077 11.7598 16.5873 11.7715 16.5699 11.7868C16.5524 11.8022 16.5383 11.8209 16.5283 11.8418C16.5183 11.8628 16.5126 11.8856 16.5116 11.9088C16.4999 12.0027 16.4757 12.0945 16.4397 12.182C16.396 12.2728 16.3889 12.3769 16.4199 12.4728C16.4509 12.5687 16.5175 12.6489 16.6061 12.697C16.6572 12.7333 16.6999 12.78 16.7315 12.8341C16.7631 12.8882 16.7829 12.9484 16.7894 13.0107C16.8246 13.1192 16.8297 13.2353 16.8039 13.3464C16.7782 13.4576 16.7226 13.5596 16.6432 13.6415C16.5455 13.74 16.4689 13.8575 16.4183 13.9867C16.3676 14.1158 16.3439 14.254 16.3486 14.3927C16.35 14.4311 16.3369 14.4686 16.3119 14.4977C16.2869 14.5269 16.2518 14.5456 16.2136 14.5501C16.0843 14.5838 15.9584 14.6254 15.8302 14.6625C15.6525 14.7176 15.6053 14.7896 15.6166 14.9796C15.6267 15.1449 15.6357 15.3102 15.6469 15.498L15.2477 15.4463L15.2298 15.3237L15.0184 15.1101C14.8891 14.9762 14.7654 14.8368 14.6271 14.7131C14.5911 14.6805 14.5146 14.6895 14.4528 14.6906C12.9516 14.7232 11.4516 14.775 9.95502 14.7873C7.87031 14.8042 5.78561 14.793 3.7009 14.7941H3.58846L3.60307 14.7604Z" fill="black"/>
</svg>
