<svg width="20" height="20" viewBox="0 0 20 20" fill="none" xmlns="http://www.w3.org/2000/svg">
<path d="M4.12934 18.9876C4.15182 18.1669 4.17318 17.3641 4.19567 16.5625C4.20354 16.2545 4.22378 15.9475 4.21928 15.6395C4.21336 15.0293 4.33116 14.4242 4.56556 13.8608C4.65776 13.636 4.63639 13.5494 4.42053 13.4291C3.95619 13.1705 3.90335 12.8287 4.13046 12.3577C4.15447 12.2958 4.18867 12.2384 4.23165 12.1879C4.53722 11.8302 4.78838 11.4294 4.97706 10.9984C5.04899 10.8407 5.11059 10.6784 5.16144 10.5127C5.21428 10.3789 5.27387 10.2451 5.33346 10.1169C5.41144 10.0072 5.44409 9.87162 5.42462 9.73843C5.40514 9.60523 5.33503 9.48468 5.2289 9.40187C5.10635 9.26583 5.02765 9.0837 4.89161 8.96002C4.78909 8.87196 4.71434 8.75603 4.67642 8.62631C4.6385 8.49659 4.63905 8.35865 4.67799 8.22923C4.68239 8.18526 4.67655 8.14086 4.66095 8.09952C4.64535 8.05817 4.6204 8.02099 4.58805 7.99088C4.54362 7.95748 4.50951 7.91223 4.48963 7.86033C4.46974 7.80843 4.46489 7.75197 4.47562 7.69744C4.56631 6.00425 4.65701 4.31106 4.7477 2.61786C4.77918 2.08157 4.80391 1.54641 4.83315 1H6.39929C6.39929 1.19338 6.39929 1.37889 6.39929 1.56215C6.39929 1.98488 6.39929 2.40762 6.3858 2.83036C6.37681 3.07545 6.3397 3.32055 6.3116 3.56565C6.30035 3.66683 6.29473 3.74553 6.42403 3.79051C6.50738 3.83757 6.57681 3.90584 6.62528 3.98838C6.75907 4.17277 6.88499 4.36277 7.00754 4.55053C7.03002 4.58538 7.04351 4.66296 7.02553 4.6787C6.86138 4.799 6.93446 4.94628 6.96819 5.09019C6.97599 5.15749 7.00075 5.22171 7.04014 5.27683C7.13927 5.36428 7.23137 5.45939 7.31559 5.56127C7.4001 5.69316 7.52638 5.79292 7.67425 5.8446C7.7743 5.89014 7.86129 5.96012 7.92721 6.04809C8.06775 6.20437 8.19929 6.36964 8.32634 6.53604C8.42078 6.65971 8.50623 6.79013 8.5928 6.91943C8.67937 7.04872 8.75357 7.18926 8.94695 7.15328C8.95819 7.15328 8.97843 7.14653 8.9818 7.15328C9.13133 7.38713 9.24939 7.21287 9.36856 7.11843C9.44906 7.20557 9.49186 7.32099 9.48765 7.43955C9.48344 7.5581 9.43255 7.67019 9.34608 7.75141C9.29416 7.8012 9.25301 7.86112 9.22516 7.92744C9.19732 7.99377 9.18337 8.06511 9.18418 8.13704C9.17743 8.24459 9.15034 8.34989 9.10435 8.44735C9.06176 8.51794 9.04445 8.60092 9.05528 8.68265C9.06611 8.76439 9.10443 8.84 9.16394 8.89706C9.29211 9.02973 9.27637 9.12192 9.13696 9.25009C9.02453 9.35016 8.9447 9.45022 9.05263 9.6065C9.07624 9.64022 9.0605 9.70993 9.05263 9.75828C9.03866 9.7916 9.03167 9.82743 9.0321 9.86356C9.03252 9.89968 9.04035 9.93534 9.05511 9.96832C9.06986 10.0013 9.09122 10.0309 9.11787 10.0553C9.14451 10.0797 9.17588 10.0984 9.21004 10.1102C9.50573 10.2518 9.77781 10.0933 9.83852 9.70206C9.9292 9.74049 10.0152 9.78915 10.0949 9.8471C10.1572 9.90431 10.2014 9.97859 10.2219 10.0607C10.3173 10.4608 10.5162 10.8287 10.7987 11.1277C10.8728 11.1924 10.9249 11.2786 10.9479 11.3743C10.9708 11.4699 10.9635 11.5704 10.9268 11.6617C11.0593 11.8203 11.2469 11.9227 11.4519 11.9484C11.5507 11.9759 11.6357 12.0392 11.6902 12.126C11.7362 12.2105 11.7623 12.3043 11.7667 12.4004C11.8015 12.6668 11.8791 12.8939 12.2265 12.876C12.4177 12.5938 12.7055 12.6601 13.0034 12.7332C13.018 12.4993 13.1586 12.5488 13.3115 12.5724C13.45 12.5818 13.589 12.5818 13.7275 12.5724C13.8334 12.565 13.9397 12.5753 14.0423 12.6027C14.1884 12.6578 14.4762 12.65 14.5673 12.5285C14.6153 12.4219 14.6446 12.3078 14.6539 12.1913C14.7325 12.1905 14.811 12.1988 14.8877 12.216C15.0473 12.272 15.1864 12.3747 15.2866 12.5109C15.3869 12.6471 15.4438 12.8104 15.4499 12.9794C15.4911 14.9162 15.532 16.8533 15.5724 18.7909C15.5724 18.8561 15.5724 18.9213 15.5724 19L4.12934 18.9876Z" fill="black"/>
</svg>
