<svg width="20" height="20" viewBox="0 0 20 20" fill="none" xmlns="http://www.w3.org/2000/svg">
<path d="M4.11285 18.9414C4.29281 18.7659 3.988 18.7164 4.00037 18.5657C4.28494 18.487 4.25457 18.2024 4.2377 18.0146C4.22083 17.8267 4.27369 17.8099 4.3558 17.7896C4.33899 17.7335 4.33288 17.6747 4.3378 17.6164C4.3686 17.5454 4.40627 17.4776 4.45028 17.4139C4.48104 17.3781 4.49709 17.332 4.49521 17.2848C4.49333 17.2377 4.47366 17.193 4.44016 17.1597C4.42324 17.1221 4.4145 17.0812 4.4145 17.0399C4.4145 16.9986 4.42324 16.9578 4.44016 16.9202C4.46603 16.856 4.48515 16.7413 4.63474 16.8077C4.70223 16.8403 4.8597 16.7638 4.92944 16.6952C5.02479 16.6116 5.09987 16.5074 5.14898 16.3904C5.19809 16.2735 5.21994 16.1469 5.21288 16.0203C5.31074 15.9708 5.42097 15.9202 5.52332 15.8595C5.54807 15.8449 5.55032 15.7931 5.56381 15.7594C5.61974 15.5633 5.69864 15.3745 5.79889 15.197C5.98774 14.9316 6.0682 14.6041 6.02385 14.2814C6.00923 14.1296 6.02385 13.9732 5.99685 13.8225C5.96365 13.7338 5.91698 13.6507 5.85851 13.5762C5.88405 13.496 5.88096 13.4094 5.84978 13.3313C5.8186 13.2531 5.76126 13.1882 5.68754 13.1476C5.54469 13.052 5.57506 12.9677 5.65717 12.8597C5.7206 12.7905 5.7682 12.7084 5.79664 12.619C5.80542 12.4821 5.80166 12.3447 5.7854 12.2084L5.72016 12.1859C5.78271 12.1309 5.85009 12.0816 5.92149 12.0386C5.95948 12.0217 5.99098 11.993 6.01126 11.9567C6.03153 11.9204 6.0395 11.8785 6.03397 11.8373C6.05347 10.3728 6.07484 8.90834 6.09808 7.44387C6.12883 5.41926 6.15995 3.39278 6.19144 1.36443C6.19144 1.32619 6.19144 1.28907 6.20156 1.19459C6.29349 1.31523 6.39961 1.42437 6.51763 1.51965C6.64568 1.59569 6.78893 1.64255 6.93717 1.65687C7.22819 1.67241 7.51763 1.60493 7.77176 1.46229C8.00459 1.34981 8.22167 1.19684 8.44663 1.06861C8.5059 1.02967 8.57393 1.00609 8.64459 1C10.8544 1 13.0665 1 15.2808 1C15.2977 1 15.3134 1 15.3584 1.00675C15.3584 1.05736 15.3584 1.11023 15.3584 1.16197C15.3787 5.06121 15.4 8.96045 15.4225 12.8597C15.4285 12.9191 15.4187 12.979 15.394 13.0333C15.3693 13.0877 15.3306 13.1345 15.2819 13.169C15.2506 13.1879 15.2242 13.214 15.2048 13.245C15.1854 13.2759 15.1735 13.3111 15.1701 13.3475C15.1667 13.3839 15.1719 13.4206 15.1853 13.4547C15.1986 13.4887 15.2198 13.5192 15.2471 13.5436C15.2881 13.5811 15.3154 13.6313 15.3246 13.6861C15.3338 13.741 15.3243 13.7973 15.2977 13.8461C15.1987 14.0902 15.2021 14.0913 15.4529 14.1149C15.4371 14.1622 15.4203 14.2083 15.4079 14.2555C15.3955 14.3028 15.391 14.3422 15.3865 14.368C15.2031 14.3968 15.0222 14.4401 14.8455 14.4974C14.6963 14.5706 14.5556 14.66 14.426 14.7639C14.3809 14.8082 14.3204 14.833 14.2572 14.833C14.1941 14.833 14.1335 14.8082 14.0885 14.7639C14.0017 14.6848 13.893 14.6335 13.7767 14.6169C13.6604 14.6002 13.5417 14.6189 13.4362 14.6706C13.3446 14.7354 13.2761 14.8277 13.2407 14.9341C13.2053 15.0406 13.2048 15.1555 13.2393 15.2622C13.3259 15.6941 13.2877 15.774 12.876 15.9483C12.7865 15.9793 12.7083 16.0364 12.6513 16.1121C12.5944 16.1879 12.5614 16.2789 12.5566 16.3735C12.5228 16.7042 12.5003 16.7109 12.182 16.7683C11.9245 16.811 11.8108 17.0068 11.7197 17.2182C11.6913 17.2789 11.6731 17.3439 11.6658 17.4106C11.6723 17.5473 11.6384 17.6829 11.5684 17.8005C11.4984 17.9181 11.3954 18.0125 11.2721 18.0719C11.1285 18.032 10.9817 18.0049 10.8334 17.9909C10.5263 17.9909 10.4566 17.9392 10.4544 17.6321C10.457 17.5335 10.4264 17.4368 10.3674 17.3576C10.3085 17.2785 10.2246 17.2214 10.1293 17.1957C10.0911 17.1856 10.0078 17.2407 9.98983 17.2835C9.96809 17.3542 9.95636 17.4277 9.95496 17.5017C9.8616 17.5017 9.75925 17.4837 9.69851 17.5242C9.65577 17.5534 9.67151 17.667 9.65802 17.7626C9.55196 17.8187 9.47121 17.913 9.43215 18.0264C9.39309 18.1398 9.39864 18.2639 9.44768 18.3734C9.28009 18.4116 9.11025 18.4577 8.94378 18.4858C8.88046 18.4846 8.81989 18.4597 8.77394 18.4161C8.73007 18.379 8.7132 18.3115 8.67608 18.2631C8.65509 18.2215 8.62389 18.1859 8.58539 18.1596C8.54688 18.1333 8.50234 18.1173 8.45593 18.1129C8.40952 18.1085 8.36276 18.1159 8.32002 18.1346C8.27728 18.1532 8.23996 18.1823 8.21155 18.2193C8.13935 18.2777 8.05588 18.3206 7.96635 18.3452C7.86996 18.3632 7.78171 18.4111 7.71423 18.4822C7.64675 18.5533 7.6035 18.644 7.59067 18.7412C7.57155 18.822 7.54442 18.9008 7.50968 18.9762C7.34547 18.8638 7.20037 18.7445 7.04403 18.6467C6.88069 18.5416 6.71004 18.4484 6.53338 18.3677C6.45214 18.3474 6.36715 18.3474 6.28592 18.3677C6.19482 18.379 6.10596 18.4094 6.01485 18.4184C5.98898 18.4184 5.93049 18.3767 5.93274 18.3587C5.94511 18.2339 5.85513 18.2069 5.7764 18.2181C5.74067 18.224 5.70677 18.238 5.67732 18.2591C5.64787 18.2802 5.62366 18.3077 5.60656 18.3396C5.57281 18.46 5.49408 18.4881 5.39397 18.5038C5.32832 18.5159 5.26366 18.5328 5.20051 18.5545C5.13414 18.5853 5.0591 18.5921 4.98829 18.5736C4.91748 18.5551 4.8553 18.5126 4.81246 18.4532C4.80098 18.4339 4.7854 18.4173 4.76683 18.4046C4.74826 18.392 4.72714 18.3835 4.70495 18.3799C4.68277 18.3762 4.66005 18.3775 4.6384 18.3835C4.61675 18.3896 4.59669 18.4003 4.57963 18.415C4.48627 18.4768 4.40866 18.5466 4.45703 18.6737C4.48334 18.7221 4.5059 18.7725 4.52452 18.8244C4.54081 18.8773 4.53803 18.9342 4.51664 18.9852C4.49977 19.01 4.41879 18.9976 4.36817 18.9909C4.27819 18.9762 4.19158 18.9571 4.11285 18.9414Z" fill="black"/>
</svg>
