<svg width="20" height="20" viewBox="0 0 20 20" fill="none" xmlns="http://www.w3.org/2000/svg">
<path d="M1 14.2914V5H1.15637C6.48887 5 11.821 5 17.1528 5C17.3609 5 17.4329 5.16425 17.5724 5.24525C17.6646 5.29812 17.74 5.38137 17.8345 5.42637C17.8694 5.44325 17.947 5.4005 17.9897 5.369C18.136 5.26662 18.1596 5.27112 18.2148 5.43087C18.2148 5.44437 18.226 5.4635 18.2361 5.468C18.3554 5.51637 18.3486 5.6165 18.3644 5.72112C18.3925 5.86512 18.3498 5.87187 18.2384 5.83362C18.222 5.8308 18.2053 5.83042 18.1889 5.8325C18.1191 5.92362 18.0561 5.99562 18.0033 6.0755C17.9747 6.12605 17.951 6.17916 17.9324 6.23412C17.9177 6.269 17.9132 6.3275 17.8896 6.33537C17.7411 6.3905 17.8188 6.46475 17.8739 6.52437C18.0055 6.66612 18.1461 6.80112 18.28 6.94175C18.2969 6.95975 18.2913 6.99687 18.3025 7.02162C18.3441 7.11387 18.3891 7.20387 18.4341 7.29387C18.4454 7.31525 18.4735 7.33325 18.4746 7.3535C18.4836 7.54137 18.649 7.54812 18.7671 7.60212C18.8427 7.62818 18.9207 7.64628 19 7.65612V14.2936L1 14.2914Z" fill="black"/>
</svg>
