<svg width="20" height="20" viewBox="0 0 20 20" fill="none" xmlns="http://www.w3.org/2000/svg">
<path d="M4.39525 13.3616V13.8038L1 13.6958C1.0585 13.5113 1.14625 13.455 1.39825 13.4235C1.73575 13.3808 1.73575 13.3808 1.7695 13.0264C1.78027 12.9174 1.80917 12.8109 1.855 12.7114C1.89678 12.6491 1.91307 12.5732 1.9005 12.4994C1.88794 12.4255 1.84749 12.3592 1.7875 12.3143C1.75567 12.2945 1.72887 12.2676 1.7092 12.2358C1.68953 12.2039 1.67753 12.1679 1.67415 12.1306C1.67077 12.0933 1.6761 12.0557 1.68972 12.0208C1.70334 11.9859 1.72487 11.9547 1.75263 11.9295C1.84614 11.7997 1.94877 11.6768 2.05975 11.5616C2.08308 11.5321 2.11289 11.5083 2.14688 11.4922C2.18087 11.476 2.21813 11.4679 2.25576 11.4684C2.2934 11.469 2.3304 11.4782 2.36391 11.4953C2.39742 11.5124 2.42654 11.5371 2.449 11.5673C2.48612 11.6066 2.54575 11.664 2.58175 11.6561C2.77412 11.6168 2.84725 11.7686 2.95638 11.8654C3.03505 11.9431 3.1254 12.008 3.22412 12.0578C3.28598 12.0881 3.35666 12.0952 3.42333 12.0779C3.49 12.0605 3.54824 12.0199 3.5875 11.9633C3.68762 11.8373 3.6325 11.7191 3.54025 11.6145C3.48451 11.566 3.4333 11.5125 3.38725 11.4548C3.34562 11.3861 3.28825 11.2826 3.31412 11.2298C3.36997 11.1486 3.44811 11.0853 3.53912 11.0475C3.61629 11.0178 3.69565 10.9941 3.7765 10.9766C4.0285 10.89 4.27938 10.8 4.564 10.6988C4.53675 10.6266 4.50325 10.557 4.46388 10.4906C4.35138 10.3241 4.35137 10.2409 4.50887 10.134C4.59871 10.0872 4.67725 10.0214 4.73904 9.94119C4.80083 9.86094 4.84437 9.76819 4.86663 9.66938C4.87675 9.61313 5.00163 9.54901 5.07925 9.54113C5.14 9.53551 5.20525 9.61651 5.27388 9.65363C5.32435 9.68112 5.38066 9.69616 5.43813 9.69751C5.52827 9.69134 5.61758 9.67626 5.70475 9.65251C5.76356 9.63812 5.82001 9.61539 5.87238 9.58501C5.97492 9.5127 6.10058 9.48085 6.22518 9.4956C6.34979 9.51034 6.46454 9.57064 6.54738 9.66488C6.61444 9.73671 6.68623 9.80399 6.76225 9.86626C6.78501 9.88957 6.81346 9.90652 6.8448 9.91543C6.87613 9.92434 6.90925 9.9249 6.94087 9.91705C6.97248 9.90921 7.0015 9.89323 7.02503 9.8707C7.04856 9.84817 7.06578 9.81988 7.075 9.78863C7.11325 9.71888 7.13688 9.64013 7.17738 9.57151C7.19436 9.53495 7.22144 9.50401 7.25542 9.48232C7.2894 9.46064 7.32888 9.44912 7.36919 9.44912C7.4095 9.44912 7.44897 9.46064 7.48295 9.48232C7.51694 9.50401 7.54402 9.53495 7.561 9.57151C7.57619 9.64052 7.6171 9.70115 7.67541 9.74107C7.73372 9.78099 7.80504 9.79719 7.87488 9.78638C7.96173 9.78899 8.04742 9.76594 8.12126 9.72012C8.19509 9.6743 8.25378 9.60774 8.29 9.52876C8.326 9.44438 8.34288 9.35101 8.37775 9.26663C8.40639 9.17946 8.44812 9.09715 8.5015 9.02251C8.65675 8.83576 8.7895 8.85938 8.86713 9.08776C8.87329 9.12591 8.88768 9.16227 8.90929 9.19432C8.9309 9.22636 8.95922 9.25332 8.99229 9.27333C9.02536 9.29334 9.06238 9.30593 9.10079 9.31021C9.1392 9.31449 9.17809 9.31037 9.21475 9.29813C9.26276 9.28756 9.31222 9.28527 9.361 9.29138C9.613 9.32513 9.65688 9.29138 9.70862 9.04838C9.72325 8.97638 9.73112 8.90213 9.739 8.82338C9.74162 8.71839 9.78351 8.61819 9.85641 8.54258C9.92932 8.46697 10.0279 8.42145 10.1327 8.41501C10.2087 8.40921 10.2817 8.38306 10.344 8.33931C10.4064 8.29556 10.4558 8.23583 10.4871 8.16638C10.5513 8.06998 10.6393 7.99172 10.7425 7.93913C10.9056 7.85251 10.8798 7.73438 10.8302 7.61063C10.7903 7.54405 10.7736 7.46614 10.7825 7.38903C10.7915 7.31192 10.8257 7.23993 10.8797 7.18426C10.9396 7.13713 11.0045 7.09676 11.0733 7.06388C11.1115 7.13363 11.1531 7.20226 11.1858 7.27426C11.1951 7.31899 11.1982 7.36481 11.1947 7.41038C11.3646 7.31588 11.5143 7.22251 11.6729 7.14826C11.8226 7.07065 11.9813 7.01171 12.1454 6.97276C12.412 6.92213 12.4547 6.87826 12.4052 6.60376C12.3805 6.47101 12.3603 6.33713 12.3434 6.20213C12.3398 6.14556 12.3398 6.08883 12.3434 6.03226C12.4369 6.00147 12.5363 5.99256 12.6338 6.00622C12.7313 6.01987 12.8244 6.05572 12.9059 6.11101C12.9756 6.14701 13.0566 6.20213 13.123 6.19088C13.3109 6.16163 13.3705 6.27526 13.3986 6.41588C13.4184 6.58628 13.5009 6.7432 13.6301 6.85612C13.7592 6.96904 13.9257 7.02986 14.0972 7.02676C14.2085 7.03742 14.3161 7.07162 14.4131 7.12709C14.5101 7.18257 14.5942 7.25805 14.6597 7.34851C14.6751 7.3772 14.6971 7.4018 14.7239 7.42024C14.7507 7.43868 14.7815 7.45044 14.8138 7.45451C14.8461 7.45859 14.8789 7.45487 14.9094 7.44367C14.94 7.43247 14.9674 7.41411 14.9894 7.39013C15.0884 7.29978 15.2153 7.24595 15.3491 7.23756C15.4829 7.22917 15.6156 7.26673 15.7251 7.34401C15.844 7.43577 15.9941 7.47728 16.1432 7.45961C16.2924 7.44194 16.4286 7.36651 16.5228 7.24951C16.6199 7.17543 16.7266 7.11488 16.84 7.06951C16.8231 7.19438 16.8186 7.25401 16.8063 7.31138C16.7646 7.50263 16.8288 7.60276 17.0245 7.62863C17.128 7.64213 17.2337 7.62863 17.3384 7.63876C17.4824 7.64438 17.5532 7.73326 17.5082 7.86376C17.3958 8.19001 17.5308 8.51063 17.5082 8.83351C17.5066 8.90174 17.5316 8.96794 17.578 9.01801C17.842 9.3183 18.0542 9.66049 18.2057 10.0305C18.2431 10.1114 18.2984 10.1826 18.3674 10.239C18.4364 10.2953 18.5173 10.3352 18.604 10.3556C18.6924 10.3711 18.7754 10.4092 18.8447 10.4661C18.9141 10.5231 18.9676 10.597 19 10.6808C18.9021 10.7505 18.8009 10.8169 18.7064 10.8934C18.5163 11.0464 18.3306 11.2061 18.1439 11.3603C18.087 11.4163 18.0203 11.4613 17.947 11.493C17.5202 11.6675 17.1791 12.0029 16.9975 12.4268C16.8771 12.6304 16.7838 12.8284 16.5194 12.8554C16.5135 12.8564 16.5078 12.8583 16.5025 12.861C16.1499 13.0928 15.7726 13.2845 15.3775 13.4325C15.2852 13.4595 15.2144 13.5574 15.1581 13.6035L4.39525 13.3616Z" fill="black"/>
</svg>
