<svg width="20" height="20" viewBox="0 0 20 20" fill="none" xmlns="http://www.w3.org/2000/svg">
<path d="M5 15.8495V15.4895C5.27107 15.4153 5.33744 15.3613 5.33744 15.1633L5.17884 15.1251L5.02362 15.0936L5.05961 14.9373L5.42405 14.9969C5.36331 14.872 5.32056 14.7832 5.27557 14.6954C5.2585 14.6728 5.24688 14.6465 5.24161 14.6187C5.23634 14.5908 5.23755 14.5621 5.24517 14.5348C5.25279 14.5075 5.26659 14.4823 5.28552 14.4612C5.30445 14.4401 5.32799 14.4236 5.35431 14.4131C5.43159 14.3738 5.49474 14.3114 5.53504 14.2347C5.57534 14.1579 5.59079 14.0705 5.57927 13.9846C5.57927 13.8721 5.57927 13.7596 5.57927 13.6606L5.95045 13.6033L5.9437 13.5448L5.63888 13.5853C5.63888 13.4199 5.6625 13.2906 5.78735 13.2242L5.96169 13.3569C6.01002 13.0355 6.18144 12.7455 6.43973 12.5482L6.10229 12.3086L6.13041 12.2659L6.28113 12.3412C6.33512 12.3019 6.37787 12.249 6.43073 12.2366C6.54321 12.2096 6.67931 12.186 6.65569 12.0511C6.64557 11.9824 6.51172 11.9386 6.39699 11.8486V12.0511H6.10004C6.09438 11.9923 6.09818 11.9331 6.11129 11.8756C6.18103 11.7046 6.36662 11.6506 6.62869 11.7226C6.60002 11.6541 6.57561 11.5838 6.55558 11.5123C6.54883 11.4797 6.55558 11.4223 6.58033 11.411C6.61908 11.3963 6.66193 11.3963 6.70068 11.411C6.76704 11.4335 6.8604 11.51 6.88965 11.4898C6.98188 11.4245 6.96838 11.3244 6.90539 11.23C6.89414 11.2131 6.90539 11.1782 6.91214 11.1501C6.5747 11.1445 6.54883 11.122 6.66131 10.8644C6.61393 10.8577 6.56585 10.8577 6.51847 10.8644C6.41611 10.8981 6.30925 10.8936 6.27664 10.7902C6.25408 10.6926 6.25836 10.5908 6.28901 10.4955C6.32131 10.4116 6.3636 10.3319 6.41498 10.2581L6.36437 10.2255L6.20465 10.3605L6.08992 10.2413C6.22377 10.149 6.40486 10.0714 6.3385 9.86896C6.31713 9.80372 6.20127 9.76998 6.09329 9.69799C6.12143 9.63667 6.15493 9.57795 6.1934 9.52253C6.34975 9.32119 6.35762 9.1581 6.21365 9.02312C6.1811 8.98406 6.15141 8.94271 6.12479 8.89939C6.09896 8.90296 6.07411 8.91165 6.05169 8.92495C6.02927 8.93825 6.00973 8.95589 5.99423 8.97685C5.97872 8.99781 5.96756 9.02165 5.96139 9.04698C5.95522 9.07231 5.95418 9.09861 5.95832 9.12435C5.94909 9.17993 5.92182 9.23092 5.88071 9.26945C5.86271 9.27732 5.77723 9.25145 5.7761 9.2402C5.76544 9.18544 5.77253 9.12869 5.79635 9.07823C5.88971 8.95001 5.99769 8.83078 6.12141 8.68456L5.73336 8.4416V8.39661C5.90883 8.38424 6.13716 8.45173 6.17203 8.1964C6.17525 8.10474 6.15441 8.01384 6.11158 7.93274C6.06876 7.85163 6.00545 7.78315 5.92795 7.73411C5.97787 7.63992 6.02256 7.54304 6.0618 7.44392C6.08946 7.38328 6.0974 7.31549 6.08448 7.25011C6.07157 7.18473 6.03845 7.12505 5.98981 7.07948C5.95965 7.05678 5.93436 7.02823 5.91547 6.99554C5.89657 6.96285 5.88445 6.92669 5.87983 6.88921C5.87522 6.85174 5.87819 6.81372 5.88858 6.77742C5.89898 6.74112 5.91657 6.70729 5.94032 6.67794C5.96957 6.62957 5.99206 6.57895 6.01231 6.52946C6.0798 6.40011 6.08205 6.29776 5.89983 6.28313C5.92458 6.05143 6.2069 6.18415 6.25751 5.98844C6.2084 5.88736 6.17993 5.77752 6.17375 5.66531C6.16757 5.55311 6.18381 5.44079 6.22152 5.33494C6.23186 5.27446 6.26241 5.21928 6.30818 5.17842C6.35394 5.13756 6.41222 5.11343 6.47347 5.10998C6.50902 5.10394 6.5426 5.08945 6.57137 5.06772C6.60015 5.04599 6.62328 5.01767 6.63882 4.98513C6.65456 4.92214 6.60507 4.83891 6.5747 4.76917C6.54434 4.69943 6.50834 4.64882 6.46223 4.56671C6.69281 4.59033 6.71643 4.56671 6.7243 4.36874C6.7243 4.25626 6.7423 4.13479 6.75355 4.00656C6.78724 4.01056 6.82042 4.0181 6.85253 4.02906C7.06736 4.15053 7.13822 4.14154 7.28445 3.9312C7.42137 3.73522 7.49942 3.50419 7.5094 3.26533C7.5229 3.07974 7.57914 2.92789 7.44417 2.7558C7.39918 2.70068 7.45317 2.56571 7.46329 2.45548C7.50888 2.45963 7.55484 2.45447 7.59837 2.4403C7.6419 2.42612 7.6821 2.40324 7.7165 2.37304C7.75091 2.34284 7.77882 2.30596 7.79851 2.26464C7.81821 2.22331 7.8293 2.17841 7.83109 2.13266C7.84122 2.0843 7.90758 2.04155 7.95707 2.01006C8.01847 1.97395 8.08281 1.94309 8.14941 1.91783C8.26189 1.87059 8.37437 1.80535 8.3575 1.66925C8.32756 1.57479 8.28235 1.48588 8.22365 1.40605C8.43736 1.3903 8.69268 1.36893 8.94913 1.35206L12.6677 1.10348C13.1952 1.06861 13.7239 1.03037 14.2525 1C14.3076 1.00101 14.3605 1.02222 14.401 1.05961C14.489 1.14293 14.5688 1.23445 14.6394 1.33294C14.667 1.38464 14.6788 1.44332 14.6732 1.50166C14.6507 2.343 14.6214 3.18884 14.6001 4.02456C14.5566 5.79048 14.5157 7.5564 14.4775 9.32231C14.4572 10.2019 14.4224 11.0826 14.4314 11.9633C14.4461 12.5245 14.4893 13.0847 14.5607 13.6415C14.6912 14.7978 14.8385 15.9518 14.9791 17.107C15.0174 17.423 15.0522 17.7391 15.0916 18.0484C14.798 18.2014 14.6417 18.1834 14.4943 18.0068C14.3966 18.0578 14.2936 18.0982 14.1873 18.1272C14.1304 18.1362 14.0721 18.1294 14.0189 18.1074C13.9657 18.0853 13.9196 18.049 13.8858 18.0023C13.7969 17.94 13.6923 17.9041 13.5839 17.8985C13.4754 17.8929 13.3677 17.918 13.2728 17.9708H13.6822C13.6822 17.9798 13.6822 17.9888 13.6822 17.9978L12.3527 18.3971V18.1665L12.0356 18.279C12.2144 18.3645 12.2279 18.4365 12.0963 18.5242C11.9647 18.6119 11.841 18.7222 11.8713 18.8976L11.5103 19C11.4438 18.9283 11.3811 18.8532 11.3224 18.775C11.2766 18.7191 11.2477 18.6512 11.2392 18.5793C11.2433 18.4303 11.2103 18.2826 11.1431 18.1495C11.076 18.0164 10.9768 17.902 10.8545 17.8167C10.7133 17.6958 10.6183 17.5296 10.5857 17.3466C10.5381 17.2129 10.5216 17.0702 10.5373 16.9293C10.5542 16.8269 10.6093 16.7313 10.6363 16.6301C10.6914 16.4265 10.7398 16.2218 10.7994 15.9811L5.03712 16.2971C5.16197 16.0733 5.1541 16.0227 5 15.8495Z" fill="black"/>
</svg>
