<svg width="20" height="20" viewBox="0 0 20 20" fill="none" xmlns="http://www.w3.org/2000/svg">
<path d="M6.69524 1.03825C6.60899 1.02082 6.52186 1.00805 6.43423 1C6.4326 1.01521 6.43045 1.03042 6.42829 1.04576C6.42596 1.06218 6.42362 1.07875 6.42188 1.09562V1.51187C6.42188 1.63786 6.51974 1.63786 6.59736 1.63786C6.63379 1.63865 6.66996 1.63143 6.70329 1.61669C6.73662 1.60196 6.7663 1.58008 6.79024 1.5526C6.81417 1.52513 6.83176 1.49272 6.84178 1.45769C6.85181 1.42266 6.85402 1.38585 6.84824 1.34987C6.84443 1.3057 6.84443 1.26129 6.84824 1.21712C6.86399 1.099 6.78299 1.06075 6.69524 1.03825Z" fill="black"/>
<path d="M3.66722 19L14.6853 18.9944C14.6609 18.8359 14.6541 18.6752 14.665 18.5152C14.6861 18.4267 14.6869 18.3346 14.6674 18.2458C14.6479 18.157 14.6087 18.0737 14.5525 18.0022C14.5015 17.9362 14.4584 17.8645 14.4243 17.7884C14.3955 17.7104 14.3446 17.6424 14.2779 17.5926C14.2112 17.5429 14.1315 17.5136 14.0485 17.5083C13.9987 17.5068 13.9514 17.4858 13.9169 17.4498C13.846 17.3354 13.7382 17.2514 13.6301 17.1671C13.4586 17.0336 13.2864 16.8994 13.2588 16.6421C13.25 16.5666 13.1327 16.49 13.0487 16.4352L13.0417 16.4306C12.9833 16.3926 12.9186 16.3623 12.8544 16.3323C12.7912 16.3027 12.7285 16.2733 12.6727 16.2371C12.5794 16.1816 12.4967 16.11 12.4285 16.0256C12.4042 15.986 12.3696 15.9537 12.3284 15.9322C12.2872 15.9106 12.241 15.9005 12.1946 15.903C12.1816 15.9033 12.168 15.9039 12.1541 15.9045C12.0751 15.9079 11.9857 15.9118 11.9369 15.8726C11.7738 15.7363 11.6232 15.5857 11.4869 15.4226C11.4373 15.3534 11.4131 15.2691 11.4183 15.1841C11.4296 15.0455 11.4526 14.9082 11.4869 14.7735C11.4885 14.766 11.4902 14.7585 11.4918 14.7511C11.5144 14.6481 11.5355 14.5516 11.4127 14.4855C11.4027 14.4765 11.3951 14.4653 11.3904 14.4528C11.3857 14.4403 11.3841 14.4268 11.3857 14.4135C11.3998 14.1114 11.4821 13.8164 11.6264 13.5506C11.6861 13.4719 11.7367 13.2818 11.7029 13.2548C11.6564 13.216 11.6285 13.1611 11.6009 13.1066C11.5564 13.0189 11.5125 12.9325 11.3924 12.9173C11.3317 12.9094 11.2259 12.8531 11.2259 12.8261C11.2276 12.8028 11.2288 12.7782 11.23 12.753C11.2364 12.6236 11.2435 12.4782 11.3159 12.4133C11.4178 12.324 11.491 12.2066 11.5263 12.0758C11.543 12.0022 11.5823 11.9357 11.6388 11.8857C11.8218 11.7523 12.0187 11.6392 12.2261 11.5482C12.3043 11.5234 12.3713 11.4718 12.4152 11.4024C12.459 11.333 12.4769 11.2504 12.4657 11.1691C12.4713 10.9238 12.4713 10.6786 12.4713 10.4333V9.60196L12.5253 9.63796C12.614 9.58129 12.6943 9.51236 12.7638 9.43321C12.9179 9.19441 13.1156 8.98679 13.3465 8.82122C13.498 8.71676 13.6413 8.60093 13.7751 8.47473C14.125 8.13386 14.4681 7.78849 14.8056 7.433C15.135 7.05462 15.5196 6.72808 15.9464 6.46439C16.1873 6.32702 16.4492 6.2393 16.7113 6.15155C16.9986 6.05533 17.286 5.95908 17.5461 5.79728C17.6913 5.7063 17.8407 5.62208 17.9901 5.5379C18.0605 5.49822 18.1309 5.45854 18.2008 5.41817L18.1828 5.35404C18.0375 5.33138 17.8893 5.33481 17.7452 5.36417C17.6873 5.39463 17.6208 5.40486 17.5564 5.39324C17.492 5.38162 17.4333 5.34882 17.3897 5.30004C17.3602 5.27325 17.3274 5.25029 17.2947 5.22739C17.2588 5.2022 17.2229 5.17709 17.1917 5.14705C17.143 5.10214 17.0838 5.07024 17.0195 5.05431C16.9552 5.03838 16.8879 5.03894 16.8238 5.05592C16.6589 5.07593 16.4927 5.08457 16.3266 5.0818C16.2668 5.0818 16.2072 5.06915 16.1474 5.05645C16.0316 5.03187 15.9151 5.00715 15.7956 5.07392C15.7742 5.08517 15.7011 5.04467 15.6831 5.01092C15.6386 4.92731 15.6004 4.84056 15.5595 4.74782C15.5405 4.70455 15.5209 4.65998 15.4997 4.61381C15.274 4.69634 15.0608 4.80993 14.8664 4.9513C14.6177 5.13318 14.316 5.22807 14.008 5.22129V5.05367L13.7043 5.0188L13.6863 4.7623C13.6228 4.74335 13.5581 4.72833 13.4928 4.7173C13.3929 4.72009 13.2948 4.69108 13.2125 4.63446C13.1302 4.57785 13.068 4.49656 13.0349 4.40231C12.9868 4.32721 12.9136 4.27155 12.8284 4.2452C12.7431 4.21884 12.6513 4.22349 12.5692 4.25831C12.4169 4.32715 12.457 4.4453 12.496 4.55988C12.499 4.56888 12.5021 4.57787 12.505 4.58681C12.5065 4.59106 12.5025 4.59755 12.4969 4.60683C12.4936 4.61228 12.4897 4.61869 12.4859 4.62618L12.3059 4.69143C12.2888 4.60899 12.2478 4.53749 12.2071 4.46666C12.1435 4.3558 12.0809 4.24659 12.1124 4.09969C12.1192 4.06932 12.0179 3.99844 11.9651 3.97932C11.936 3.96881 11.9019 3.9746 11.8673 3.98046C11.839 3.98527 11.8103 3.99012 11.7839 3.98607C11.7246 3.9705 11.6672 3.94823 11.6129 3.91969C11.6433 3.87807 11.6827 3.82407 11.7018 3.79595C11.7178 3.77238 11.7323 3.74881 11.7471 3.72458C11.75 3.7199 11.7529 3.71519 11.7558 3.71045C11.7252 3.69532 11.6936 3.68217 11.6613 3.67107C11.5704 3.65548 11.4811 3.63137 11.3947 3.59908C11.3434 3.57364 11.295 3.53845 11.247 3.50359C11.1719 3.44902 11.0979 3.39524 11.0156 3.38083C10.7054 3.29992 10.3766 3.33017 10.0863 3.46633C10.0819 3.4688 10.077 3.47142 10.0718 3.47416C10.0396 3.49137 9.99859 3.51329 9.99859 3.5327C9.99665 3.65495 9.91857 3.66256 9.83939 3.67028C9.82676 3.67151 9.8141 3.67274 9.80172 3.67445C9.69087 3.68235 9.58072 3.69814 9.4721 3.7217C9.34048 3.75882 9.26961 3.72395 9.24711 3.5912C9.22011 3.4292 9.11886 3.3932 8.96249 3.35945C8.89039 3.34363 8.8128 3.34561 8.73493 3.34761C8.56372 3.35199 8.39119 3.3564 8.27288 3.17158C8.26586 3.16105 8.23762 3.16216 8.21219 3.16316C8.20501 3.16344 8.19807 3.16371 8.19188 3.16371H7.95563C7.82432 3.17595 7.69309 3.1395 7.5869 3.06131C7.4807 2.98311 7.40694 2.86862 7.37965 2.73959C7.3698 2.72133 7.35601 2.70549 7.33928 2.69323C7.32254 2.68097 7.30328 2.6726 7.2829 2.66872C7.19735 2.65914 7.11557 2.62827 7.04502 2.57895C6.97447 2.52962 6.9174 2.4634 6.87903 2.38635C6.86464 2.36004 6.84394 2.33772 6.81879 2.32138C6.79365 2.30505 6.76484 2.29522 6.73495 2.29276C6.70506 2.29031 6.67504 2.29531 6.64756 2.30733C6.62009 2.31934 6.59602 2.33799 6.57754 2.3616C6.55468 2.3858 6.53584 2.41322 6.51693 2.44072C6.50421 2.45925 6.49145 2.47781 6.47741 2.49547C6.46216 2.51693 6.44261 2.53498 6.42001 2.54849C6.39742 2.562 6.37226 2.57067 6.34614 2.57395C6.32002 2.57723 6.2935 2.57504 6.26826 2.56754C6.24303 2.56003 6.21963 2.54737 6.19954 2.53035C6.16985 2.51736 6.14332 2.49812 6.12175 2.47394C6.10018 2.44975 6.0841 2.42119 6.07459 2.39021C6.06508 2.35923 6.06238 2.32656 6.06666 2.29444C6.07095 2.26232 6.08212 2.2315 6.09942 2.2041H2C2.05512 2.43247 2.108 2.63722 2.16762 2.86221C2.17951 2.90708 2.19449 2.95195 2.20947 2.99682C2.26959 3.17695 2.32972 3.35708 2.19012 3.5372V3.5867C2.15295 4.29249 2.24756 4.99902 2.46912 5.67016C2.58133 5.95437 2.67859 6.24426 2.76049 6.53864C2.78739 6.60586 2.8059 6.67614 2.81561 6.74789C2.82857 6.95492 2.84213 7.16182 2.85569 7.36866C2.89747 8.00585 2.9392 8.64239 2.96298 9.28021C2.95865 9.73696 3.08682 10.1852 3.33197 10.5706C3.34861 10.5927 3.35944 10.6186 3.36347 10.6459C3.369 10.711 3.3748 10.7761 3.38061 10.8412C3.40083 11.0679 3.42111 11.2953 3.42985 11.5234C3.43221 11.7073 3.42168 11.8911 3.39835 12.0735C3.39322 12.1382 3.36716 12.1994 3.3241 12.2479C3.1968 12.3703 3.0641 12.4867 2.92775 12.6062C2.87734 12.6504 2.82643 12.6951 2.77511 12.7406C2.80989 12.7939 2.84495 12.8485 2.88046 12.9038C2.97012 13.0433 3.06266 13.1873 3.16098 13.3268C3.20086 13.3686 3.25427 13.3949 3.31172 13.401C3.58397 13.4449 3.66722 13.5383 3.66722 13.8195V19Z" fill="black"/>
</svg>
