<svg width="20" height="20" viewBox="0 0 20 20" fill="none" xmlns="http://www.w3.org/2000/svg">
<path fill-rule="evenodd" clip-rule="evenodd" d="M15.7008 11.7786L15.549 11.5728C15.542 11.6099 15.5341 11.647 15.5221 11.7032L15.5175 11.7246L15.2117 11.4784L15.2132 11.4763L15.5179 11.7218L15.549 11.5728L15.5168 11.5351L15.2343 11.4473L15.2387 11.4412L15.5232 11.5301C15.5155 11.5202 15.5065 11.5108 15.4975 11.5014C15.479 11.482 15.4606 11.4629 15.4546 11.4401C15.4483 11.3972 15.4483 11.3537 15.4546 11.3108C15.4932 11.317 15.531 11.3279 15.567 11.3434C15.5802 11.3508 15.5877 11.3687 15.5979 11.393C15.6033 11.406 15.6094 11.4208 15.6176 11.4368C15.6572 11.382 15.6805 11.3172 15.6851 11.2499C15.6897 11.1825 15.6753 11.1151 15.6435 11.0556C15.5814 10.9529 15.5294 10.8444 15.4883 10.7317C15.4203 10.5137 15.2472 10.452 15.0663 10.3876C15.0466 10.3806 15.0268 10.3735 15.007 10.3662C15.0036 10.3766 15.0006 10.3862 14.9978 10.3951C14.9934 10.4094 14.9894 10.4224 14.9845 10.4348C14.9216 10.5945 14.8788 10.5911 14.7349 10.5046C14.628 10.4416 14.5907 10.3417 14.5535 10.242C14.5288 10.1759 14.5042 10.1099 14.4594 10.0548C14.4326 10.0274 14.4176 9.9907 14.4176 9.95244C14.4176 9.91417 14.4326 9.87744 14.4594 9.85011C14.5741 9.68594 14.6663 9.5049 14.4515 9.3261C14.4156 9.2978 14.4036 9.23985 14.3914 9.18126C14.3857 9.15371 14.38 9.12602 14.3717 9.10121C14.3899 9.09186 14.4055 9.08357 14.4195 9.07613C14.4409 9.06477 14.4586 9.05538 14.4763 9.04723C14.4945 9.0388 14.5132 9.03124 14.5291 9.02484C14.5386 9.021 14.5471 9.01757 14.5538 9.01462V8.81446C14.5538 8.67728 14.4661 8.59407 14.3694 8.63005C14.3155 8.65297 14.256 8.65923 14.1985 8.64804L14.181 8.64296C13.9773 8.58403 13.77 8.524 13.6869 8.27696C13.6708 8.29578 13.6678 8.3146 13.6659 8.32618C13.6647 8.33329 13.664 8.33768 13.661 8.33768C13.6183 8.35989 13.5749 8.37908 13.5314 8.39834L13.4833 8.41977C13.4665 8.36301 13.4559 8.30456 13.4519 8.24548C13.4528 8.21822 13.4641 8.18587 13.4749 8.15528C13.4893 8.11394 13.5027 8.07578 13.4878 8.05769C13.4125 7.96379 13.4453 7.8646 13.4779 7.76602C13.5124 7.66154 13.5467 7.55776 13.4519 7.46171C13.4503 7.45962 13.4601 7.44734 13.4728 7.43151C13.4874 7.41327 13.5058 7.39034 13.5148 7.37288C13.537 7.33939 13.5498 7.30056 13.5519 7.26043C13.5229 7.13358 13.5012 7.00518 13.4867 6.87586C13.4665 5.50325 13.4526 4.13063 13.4451 2.75802C13.454 2.69567 13.4419 2.63214 13.4107 2.5774C13.3796 2.52266 13.3312 2.4798 13.2731 2.45553C13.2216 2.42422 13.1784 2.38104 13.1471 2.32959C13.0663 2.19743 12.9757 2.07151 12.8761 1.95289C12.7068 1.79207 12.5276 1.64185 12.3397 1.5031C12.2653 1.44544 12.18 1.40337 12.089 1.37941C11.8382 1.31756 11.7786 1.36816 11.7685 1.62679C11.7641 1.66458 11.7577 1.70211 11.7494 1.73924C11.6805 1.71821 11.6089 1.70685 11.5369 1.7055C11.4131 1.72547 11.2918 1.75826 11.1748 1.80333C11.1434 1.81261 11.114 1.837 11.0856 1.86071C11.0519 1.88873 11.0194 1.91578 10.9859 1.91578C10.7849 1.92124 10.5897 1.98449 10.4236 2.09795C10.3851 2.12519 10.3378 2.13721 10.2909 2.13168C10.2183 2.11445 10.1499 2.08293 10.0896 2.03898C10.0293 1.99502 9.97838 1.9395 9.93976 1.87566C9.90114 1.81181 9.87561 1.74092 9.86467 1.66711C9.85372 1.5933 9.85758 1.51805 9.87601 1.44575C9.89449 1.3826 9.90913 1.31838 9.91987 1.25346C9.91683 1.23032 9.90856 1.20818 9.89571 1.1887C9.88285 1.16922 9.86573 1.15291 9.84565 1.14102C9.82075 1.12718 9.79121 1.12097 9.7616 1.11475C9.73105 1.10832 9.70043 1.10189 9.67473 1.08704C9.45209 0.95885 9.4206 0.961099 9.27329 1.16913C9.12508 1.3796 8.97729 1.5903 8.82945 1.80108C8.39516 2.42024 7.96033 3.04017 7.51236 3.6576C7.23454 4.01631 7.07325 4.45152 7.0502 4.90465C7.04836 5.03004 7.01162 5.15244 6.94408 5.25812C6.87655 5.36379 6.7809 5.44854 6.66787 5.50287C6.62166 5.53046 6.58302 5.5691 6.55543 5.61532C6.51114 5.68944 6.47351 5.76733 6.44298 5.84809C6.43069 5.88108 6.41439 5.91357 6.3981 5.94601C6.33835 6.06502 6.27887 6.18349 6.41936 6.32487C6.43492 6.34386 6.44537 6.36653 6.44969 6.3907C6.45402 6.41487 6.45209 6.43975 6.44409 6.46297C6.43609 6.48619 6.42228 6.50697 6.40398 6.52334C6.38567 6.53971 6.36349 6.55113 6.33953 6.55651C6.30017 6.57113 6.24507 6.64647 6.25294 6.65996C6.29957 6.7329 6.27882 6.80329 6.25862 6.87182C6.24082 6.93219 6.22345 6.9911 6.25294 7.04903L6.42611 7.16148C6.38123 7.32938 6.27486 7.47428 6.12812 7.56742C6.07332 7.61448 6.02626 7.66989 5.98869 7.73159C5.97813 7.7481 5.97118 7.76664 5.96827 7.78602C5.96537 7.80539 5.96658 7.82516 5.97182 7.84404C6.06515 8.00484 5.97632 8.07006 5.84026 8.1319C5.52269 8.26132 5.2624 8.50085 5.1071 8.80659C5.07423 8.85151 5.0605 8.90762 5.06894 8.96263C5.07737 9.01765 5.10726 9.06707 5.15208 9.10008C5.2048 9.13466 5.24449 9.18584 5.26486 9.24551C5.28523 9.30519 5.28511 9.36995 5.26452 9.42955C5.23731 9.42955 5.20975 9.43209 5.18238 9.43462C5.07966 9.44408 4.97957 9.4533 4.91031 9.32723C4.89319 9.31307 4.87271 9.30357 4.85085 9.29963C4.82899 9.29569 4.80648 9.29745 4.7855 9.30474C4.74951 9.3306 4.70903 9.40257 4.7214 9.4363C4.78559 9.60748 4.72391 9.74331 4.66183 9.88002C4.6293 9.95166 4.59666 10.0235 4.58196 10.1009H4.52124L4.41667 9.68144C4.3335 9.70685 4.24855 9.72602 4.16253 9.73879C4.05009 9.74441 4.0141 9.78489 4.0141 9.90296C4.04109 12.1459 4.0692 14.3863 4.09844 16.624C4.11931 16.9714 4.089 17.3199 4.00848 17.6585C3.99913 17.6965 3.99749 17.736 4.00367 17.7746C4.00985 17.8132 4.02372 17.8502 4.04446 17.8834C4.12846 17.9952 4.22297 18.0988 4.32671 18.1926C4.39339 18.2382 4.44262 18.3051 4.46632 18.3823C4.49002 18.4595 4.48678 18.5425 4.45715 18.6177C4.44836 18.6478 4.44622 18.6795 4.45088 18.7106C4.45554 18.7417 4.46688 18.7713 4.48414 18.7976C4.54848 18.8724 4.62046 18.9402 4.69891 19L4.76413 18.8729L4.94517 18.9854C4.9584 18.9583 4.97126 18.9307 4.98418 18.903C5.01626 18.8342 5.0487 18.7647 5.08798 18.6998C5.13321 18.6502 5.16679 18.5912 5.18624 18.527C5.2057 18.4628 5.21055 18.395 5.20043 18.3287C5.15882 18.1454 5.38709 17.9531 5.58612 17.9362C5.65133 17.9258 5.71007 17.8908 5.7503 17.8384C5.81667 17.7407 5.87749 17.6393 5.93246 17.5348C5.92044 17.5212 5.90538 17.5063 5.89021 17.4914C5.85147 17.4531 5.81194 17.4141 5.82002 17.3931C5.85114 17.2747 5.91507 17.1675 6.00443 17.0839C6.13251 17.0343 6.26853 17.0084 6.40587 17.0074L6.23832 16.5171C6.25707 16.498 6.27707 16.4811 6.29599 16.4652C6.33379 16.4333 6.36727 16.4051 6.37776 16.3698C6.40494 16.2792 6.46901 16.2199 6.53287 16.1608C6.57994 16.1172 6.6269 16.0737 6.65888 16.0179C6.66341 16.0119 6.66918 16.0071 6.67578 16.0036C6.68238 16.0001 6.68965 15.9981 6.69711 15.9976L6.70189 15.9977C6.89053 15.9988 6.89122 15.9988 6.97486 15.8661L7.10417 15.9122L7.14915 16.2113L7.27734 15.9358V16.0842H7.30658C7.31782 15.9718 7.33018 15.8594 7.34255 15.747L7.37517 15.7469C7.38944 15.8824 7.40333 16.0183 7.41814 16.1632C7.42901 16.2696 7.44038 16.3808 7.45276 16.5003C7.48297 16.462 7.50824 16.423 7.53126 16.3875C7.57594 16.3185 7.61217 16.2625 7.65967 16.2506C7.79055 16.22 7.80649 16.1327 7.82262 16.0443C7.82603 16.0256 7.82945 16.0069 7.83396 15.9886C7.84749 15.9355 7.85625 15.8823 7.86505 15.8289C7.87672 15.758 7.88847 15.6866 7.91155 15.6142C7.95203 15.4871 8.02287 15.4804 8.09934 15.5658L7.94078 15.6637C7.97974 15.7142 8.02383 15.7606 8.07235 15.802C8.09033 15.8147 8.11776 15.8182 8.14364 15.8215C8.1728 15.8252 8.2 15.8286 8.20954 15.8447C8.26829 15.9449 8.29223 15.9088 8.31752 15.8707C8.32998 15.852 8.34277 15.8327 8.36022 15.829C8.22403 15.7932 8.24123 15.7118 8.25805 15.6322C8.26751 15.5874 8.27685 15.5432 8.25879 15.508L8.51202 15.9448L8.88647 14.9215C9.00005 15.0091 8.96626 15.1067 8.93023 15.2107C8.90705 15.2776 8.88294 15.3472 8.89659 15.4185L9.03603 15.3859L9.16647 15.5681C9.28229 15.5355 9.37899 15.5017 9.34976 15.3601C9.34639 15.3432 9.38687 15.2982 9.40711 15.2982C9.57915 15.2993 9.5814 15.1925 9.56453 15.0677C9.56392 15.0628 9.56771 15.0568 9.57666 15.0427C9.584 15.0312 9.59482 15.0142 9.60951 14.9879L9.68823 15.1813L9.84228 14.8956L9.65562 14.9406C9.68162 14.8715 9.70615 14.8045 9.73013 14.7389C9.77561 14.6146 9.81918 14.4954 9.86702 14.3784C9.90725 14.2192 9.99279 14.075 10.1133 13.9635C10.1538 13.9331 10.1346 13.8015 10.1189 13.7206C10.1027 13.6638 10.0777 13.6099 10.0447 13.5609L10.2696 13.2303C10.287 13.24 10.3041 13.2491 10.3209 13.258C10.353 13.2752 10.384 13.2917 10.4135 13.3101C10.4326 13.3251 10.4499 13.342 10.4652 13.3607L10.4756 13.3423L10.4809 13.3329C10.4895 13.3179 10.498 13.303 10.5057 13.2876C10.5199 13.262 10.5312 13.2348 10.5395 13.2067L10.5486 13.1687C10.5801 13.0402 10.6132 12.9053 10.4945 12.803C10.4045 12.7198 10.4214 12.6546 10.4945 12.5421C10.4703 12.7577 10.5959 12.8496 10.7234 12.943C10.7501 12.9626 10.777 12.9823 10.8026 13.0031L10.5664 13.5249L10.5271 13.5125L10.5901 13.6823L10.6834 13.4799L10.7554 13.517L10.689 13.688C10.6667 13.7014 10.646 13.7119 10.6277 13.7211C10.5925 13.7388 10.5663 13.752 10.5552 13.7734C10.5287 13.8342 10.5084 13.8975 10.4945 13.9623L10.5395 13.9803L10.7138 13.8679C10.88 14.0433 11.1016 14.156 11.3412 14.1872L11.2209 13.5598C11.2954 13.5747 11.3729 13.5593 11.4361 13.5172C11.4994 13.475 11.5433 13.4094 11.5582 13.3349C11.5753 13.292 11.5971 13.2513 11.6235 13.2134L11.6583 13.2337V13.5901L11.7123 13.6092L11.899 13.2112L12.0732 13.3427L12.1407 13.2101L12.2532 13.3326L12.288 13.2202L12.4095 13.3191L12.4544 13.1954L12.505 13.1887C12.5206 13.2677 12.5405 13.3458 12.5646 13.4226C12.6077 13.5364 12.6545 13.6484 12.7013 13.7604C12.7169 13.7977 12.7325 13.835 12.7479 13.8724H12.7558L13.0144 13.4305L13.0943 13.5946C13.1089 13.4563 13.1179 13.3641 13.1269 13.2719H13.1606L13.1966 13.5384C13.2566 13.2316 13.3766 12.9396 13.5497 12.6793L13.5913 12.6883L13.516 13.1077L13.5429 13.1178L13.6756 12.794V13.2348L13.7251 13.2517L13.9556 12.9143L14.0051 13.0493L14.1637 13.0211C14.1861 12.8491 14.2053 12.6984 14.2221 12.5646L14.3841 12.6253L14.3868 12.6342C14.4067 12.6983 14.4347 12.7885 14.5561 12.7187C14.5521 12.6771 14.5481 12.6381 14.5443 12.6005C14.5405 12.564 14.5369 12.5287 14.5336 12.4938L14.5696 12.4881L14.6551 12.7625C14.8145 12.6431 14.7605 12.5222 14.715 12.4203C14.7056 12.3993 14.6966 12.3791 14.6899 12.3599L14.9485 12.324C14.9377 12.3936 14.9488 12.4648 14.9805 12.5277C15.0122 12.5906 15.0627 12.6421 15.1251 12.6748V12.4825L15.1566 12.4679L15.2274 12.622C15.2685 12.5812 15.3061 12.5449 15.341 12.5111C15.4168 12.4378 15.4796 12.3771 15.5366 12.3116C15.5562 12.2894 15.5678 12.2593 15.5793 12.2295C15.5922 12.1959 15.605 12.1627 15.6289 12.1418C15.7165 12.0652 15.8107 11.9964 15.905 11.9276C15.945 11.8984 15.9852 11.8691 16.0247 11.8393V11.8123L15.9223 11.8303L15.7278 11.5053L15.7008 11.5267V11.7786ZM7.72519 15.7353L7.92777 15.4911L7.93404 15.4972L7.72826 15.7424L7.68665 15.7255L7.68756 15.72L7.72519 15.7353ZM7.52069 15.3948C7.42874 15.2325 7.49385 15.0977 7.67316 14.9811L7.67246 14.983C7.49434 15.0998 7.4315 15.2342 7.52069 15.3948Z" fill="black"/>
<path d="M11.9986 13.9161C11.9883 13.875 11.978 13.8338 11.9684 13.7926L12.0055 13.7903C12.0091 13.8253 12.0159 13.86 12.0258 13.8938C12.0309 13.907 12.0366 13.9227 12.0425 13.9392C12.0636 13.9982 12.0883 14.0669 12.1067 14.0669C12.1931 14.0662 12.2765 14.0357 12.3429 13.9803C12.3814 13.9352 12.4006 13.8767 12.3962 13.8175C12.3917 13.7583 12.3641 13.7033 12.3193 13.6644C12.2765 13.6218 12.2367 13.5763 12.2001 13.5283C12.179 13.5044 12.153 13.4852 12.1239 13.4721C12.0948 13.459 12.0633 13.4521 12.0314 13.4521C11.9995 13.4521 11.9679 13.459 11.9389 13.4721C11.9098 13.4852 11.8838 13.5044 11.8627 13.5283C11.8409 13.5765 11.8216 13.6268 11.8022 13.6772C11.7697 13.762 11.7369 13.8472 11.6918 13.9241C11.621 14.0446 11.6826 14.1147 11.7443 14.1849C11.758 14.2005 11.7718 14.2161 11.784 14.2322C11.817 14.2685 11.8588 14.2957 11.9054 14.311C11.9437 14.3222 12.0022 14.3289 12.0179 14.311C12.0476 14.2756 12.0621 14.2299 12.0584 14.1839C12.043 14.0939 12.0208 14.005 11.9986 13.9161Z" fill="black"/>
<path d="M10.9317 14.1172L11.1408 14.251L11.0182 14.4557C11.0243 14.5062 11.0224 14.5575 11.0126 14.6075C10.9949 14.6177 10.9751 14.6239 10.9547 14.6257C10.9343 14.6274 10.9138 14.6247 10.8946 14.6176C10.8789 14.5971 10.8739 14.5689 10.8688 14.5404C10.8644 14.5157 10.8599 14.4907 10.8484 14.4703C10.7976 14.3761 10.8362 14.3082 10.8778 14.2353C10.8987 14.1985 10.9203 14.1605 10.9317 14.1172Z" fill="black"/>
<path d="M10.5985 15.0197C10.6099 15.0062 10.6206 14.9936 10.6305 14.9843C10.5691 14.9402 10.5198 14.9017 10.4745 14.8664C10.4368 14.8369 10.4019 14.8096 10.3651 14.7831C10.3403 14.7673 10.2864 14.7628 10.2717 14.7774C10.2622 14.7912 10.2562 14.8072 10.2545 14.8239C10.2527 14.8406 10.2551 14.8575 10.2616 14.873C10.2722 14.8902 10.2948 14.9056 10.315 14.9192C10.3357 14.9332 10.3538 14.9454 10.3538 14.9562C10.3347 15.0765 10.4438 15.0968 10.4955 15.0968C10.5331 15.0968 10.5682 15.0553 10.5985 15.0197Z" fill="black"/>
<path d="M11 15.2141C11.0021 15.1898 11.0015 15.1644 11.0009 15.1393C10.9985 15.0413 10.9962 14.9455 11.1518 14.915L11.1559 14.9451C11.1736 15.0721 11.1898 15.1881 11 15.2141Z" fill="black"/>
<path d="M11.72 14.5293C11.6365 14.5377 11.5538 14.5527 11.4727 14.5743L11.4861 14.6328C11.5476 14.6556 11.6108 14.6736 11.6751 14.6867C11.6967 14.6898 11.7199 14.6775 11.7433 14.6651C11.7539 14.6595 11.7646 14.6538 11.7751 14.6496C11.7687 14.6355 11.7622 14.6171 11.7558 14.599C11.7433 14.5637 11.7312 14.5293 11.72 14.5293Z" fill="black"/>
<path d="M10.207 14.6713L10.4612 14.4824L10.5477 14.6421L10.2194 14.7051L10.207 14.6713Z" fill="black"/>
</svg>
