<svg width="20" height="20" viewBox="0 0 20 20" fill="none" xmlns="http://www.w3.org/2000/svg">
<path d="M15.5745 6.16092L15.8062 5.75482L15.7567 5.7177L15.1527 6.29254L15.1099 6.27116L15.39 5.64008L15.3473 5.61646C15.3423 5.61878 15.3364 5.62081 15.3305 5.62287C15.3163 5.62777 15.3017 5.63282 15.2978 5.64233C15.2272 5.83098 15.0787 5.82597 14.9138 5.8204L14.904 5.82007C14.7848 5.82007 14.6026 6.06418 14.6386 6.17667C14.6491 6.19558 14.6635 6.21213 14.6807 6.22528C14.6979 6.23844 14.7177 6.24793 14.7387 6.25316C14.8782 6.29141 14.868 6.36566 14.7826 6.4444C14.696 6.52102 14.6042 6.58928 14.5121 6.65773C14.469 6.68978 14.4259 6.72187 14.3832 6.75488L14.2572 6.85275C14.1597 6.75141 14.1797 6.64043 14.2008 6.52302C14.2165 6.43581 14.2328 6.34505 14.2021 6.25204C14.1839 6.27759 14.1657 6.29888 14.1494 6.31798C14.1183 6.35435 14.094 6.38273 14.0896 6.4174C14.0847 6.45754 14.0758 6.49746 14.0668 6.53744C14.0405 6.65433 14.0142 6.77172 14.0896 6.89662C14.1059 6.92538 14.075 6.98155 14.0443 7.03727C14.0305 7.06217 14.0169 7.08699 14.0075 7.10923L13.9704 7.09461C13.9609 7.05677 13.9511 7.01981 13.9413 6.9832C13.9221 6.91097 13.9032 6.84003 13.8882 6.76613C13.8657 6.65476 13.8016 6.61989 13.6948 6.65364C13.659 6.66577 13.6229 6.67669 13.5876 6.68737C13.5639 6.69451 13.5407 6.70154 13.5181 6.70876C13.5425 6.72761 13.5694 6.7448 13.5958 6.76162C13.656 6.79998 13.7132 6.83645 13.7296 6.8865C13.7409 6.91962 13.6998 6.97039 13.6545 7.02631C13.6321 7.05394 13.6087 7.08284 13.5901 7.11148L13.3494 7.06986C13.3658 7.09545 13.381 7.11846 13.395 7.13976C13.4291 7.19146 13.4565 7.23302 13.4788 7.27684C13.4921 7.31311 13.5008 7.3509 13.5046 7.38934C13.4645 7.37402 13.4266 7.3532 13.3921 7.32747C13.334 7.26195 13.2716 7.20032 13.2054 7.14298C13.2035 7.23493 13.2338 7.32465 13.2912 7.39657C13.3485 7.46848 13.4292 7.51806 13.5193 7.5367C13.4963 7.5656 13.4675 7.58933 13.4347 7.60632C13.402 7.62332 13.366 7.6332 13.3291 7.63532C13.2923 7.63745 13.2554 7.63177 13.2209 7.61865C13.1864 7.60553 13.155 7.58527 13.1289 7.5592C13.0423 7.47876 12.9436 7.41234 12.8364 7.36234C12.7989 7.34592 12.7484 7.35938 12.7033 7.37139C12.6835 7.37666 12.6647 7.38165 12.6486 7.38371L13.1345 7.90455L13.2752 7.84493C13.2752 7.93313 13.3138 8.00762 13.3513 8.08014C13.3971 8.16857 13.4414 8.25406 13.4124 8.35789L13.0479 8.22628L13.0142 8.2544C13.0474 8.29595 13.0851 8.33368 13.1267 8.36689C13.1709 8.39255 13.217 8.41484 13.263 8.43707C13.3198 8.46454 13.3764 8.49193 13.4293 8.52551C13.4471 8.54174 13.4615 8.56132 13.4717 8.58313C13.482 8.60495 13.4878 8.62856 13.4889 8.65262C13.4889 8.66404 13.4478 8.68094 13.4115 8.69583C13.4013 8.70001 13.3915 8.70404 13.3832 8.70775C13.3588 8.71849 13.329 8.73014 13.2931 8.74416C13.2727 8.75214 13.2501 8.76096 13.2257 8.77074C13.1956 8.73542 13.1651 8.69893 13.1342 8.66185C13.0794 8.59628 13.0228 8.52856 12.9647 8.46251C12.9314 8.42756 12.8936 8.39729 12.8522 8.37252C12.8522 8.37252 12.7959 8.41752 12.8004 8.42764C12.8153 8.47779 12.8442 8.52266 12.8837 8.55701C13.0662 8.68978 13.2046 8.87439 13.2808 9.08684C13.2865 9.10032 13.2888 9.115 13.2875 9.12959C13.2875 9.13495 13.2843 9.13991 13.2782 9.14946C13.274 9.15595 13.2685 9.16456 13.2617 9.17684L12.9557 8.91811L12.8927 8.9676C12.9071 8.9918 12.9209 9.01648 12.9347 9.04109C12.9573 9.08168 12.98 9.12216 13.0052 9.15996C13.044 9.2103 13.0857 9.25837 13.13 9.30396L12.9591 9.34108V9.63243L13.1019 9.57844C13.1233 9.69093 13.1087 9.7213 12.9962 9.80342C12.8376 9.91591 12.8286 10.0048 12.9444 10.1623C12.98 10.2154 13.0002 10.2773 13.0029 10.3411C13.0012 10.5933 13.0144 10.8453 13.0423 11.096C13.0938 11.2393 13.17 11.3725 13.2673 11.4897C13.2966 11.5371 13.3268 11.5841 13.3569 11.631C13.4204 11.7299 13.4838 11.8288 13.5395 11.9318C13.58 12.006 13.5958 12.1073 13.4833 12.1444C13.3708 12.1815 13.2583 12.1928 13.2122 12.0668C13.1934 11.9994 13.1543 11.9395 13.1001 11.8954C13.0459 11.8513 12.9793 11.8251 12.9096 11.8204C12.8847 11.8148 12.8625 11.8009 12.8466 11.781C12.8065 11.7258 12.7624 11.6739 12.7186 11.6223C12.5839 11.4638 12.4517 11.3083 12.4483 11.069C12.4367 10.881 12.4115 10.6942 12.373 10.5099L12.3246 10.5166C12.3321 10.5912 12.3406 10.6657 12.349 10.7403C12.3671 10.8998 12.3851 11.0595 12.3943 11.2197C12.3976 11.3859 12.4513 11.5472 12.5483 11.6822C12.6454 11.8173 12.7812 11.9196 12.9377 11.9756C12.9903 12.0076 13.0301 12.057 13.0502 12.1151C13.1368 12.3277 13.2088 12.3739 13.4338 12.3401C13.5598 12.321 13.6228 12.3896 13.5643 12.5055C13.5283 12.5659 13.5173 12.6379 13.5334 12.7064C13.5496 12.7748 13.5917 12.8342 13.6509 12.8722C13.7238 12.9265 13.7767 13.0034 13.8013 13.0909C13.8259 13.1784 13.8209 13.2716 13.787 13.3559C13.7666 13.4077 13.7867 13.476 13.8057 13.5404C13.8139 13.5683 13.822 13.5955 13.8264 13.6203C13.7944 13.5969 13.7613 13.5733 13.7276 13.5491C13.633 13.4815 13.5334 13.4103 13.4405 13.3323C13.414 13.3101 13.4057 13.2645 13.3978 13.2211C13.3953 13.2074 13.3929 13.194 13.3899 13.1816C13.3742 13.0872 13.3443 12.9958 13.301 12.9105L13.2245 13.2153L13.0805 13.0972L13.0052 13.2547C12.9838 13.2219 12.9653 13.1872 12.9501 13.1512C12.8376 12.744 12.652 12.6202 12.2436 12.6675C11.9556 12.7001 11.8319 12.5944 11.8128 12.2918C11.8141 12.2132 11.7939 12.1357 11.7542 12.0678C11.7145 12 11.6569 11.9444 11.5878 11.907L11.7228 12.4695L11.6631 12.501C11.5626 12.4656 11.4702 12.4102 11.3917 12.338C11.3132 12.2659 11.2502 12.1786 11.2064 12.0814C11.1072 11.8776 11.0266 11.6652 10.9657 11.4469C10.9298 11.5256 10.8869 11.6009 10.8375 11.6719C10.7948 11.7048 10.7468 11.7303 10.6957 11.7473C10.6902 11.7324 10.6844 11.7177 10.6787 11.703C10.6658 11.6698 10.653 11.6368 10.6428 11.6033C10.6396 11.5794 10.6396 11.5552 10.6428 11.5313L10.5956 11.5223C10.5919 11.5347 10.5864 11.5476 10.5809 11.5604C10.5694 11.5871 10.558 11.6135 10.5641 11.6348C10.6023 11.7698 10.527 11.8913 10.3391 11.988C10.202 12.0599 10.1464 11.9612 10.0976 11.8745L10.095 11.8699C10.025 11.7506 9.99046 11.6137 9.99545 11.4755C10.0004 11.3372 10.0447 11.2032 10.1231 11.0892C10.1507 11.0427 10.2108 11.0156 10.2718 10.988C10.2979 10.9762 10.3242 10.9643 10.3481 10.9508C10.3415 10.9417 10.3325 10.9307 10.3236 10.9199C10.3051 10.8973 10.2869 10.8752 10.2907 10.8698L10.2989 10.8587C10.3321 10.8129 10.3769 10.7511 10.4111 10.7574C10.5746 10.7734 10.598 10.6574 10.6183 10.5571L10.6215 10.5414C10.6295 10.4784 10.6574 10.4195 10.7011 10.3734C10.7447 10.3273 10.802 10.2963 10.8644 10.2849C10.9387 10.2646 10.9769 10.2376 10.9848 10.1364C11.0138 10.0323 11.0138 9.92218 10.9848 9.81804C10.9724 9.7888 11.0152 9.72805 11.0456 9.69093C11.0842 9.64435 11.1238 9.59777 11.1644 9.55016C11.2216 9.48284 11.2808 9.41324 11.3414 9.33883L10.8914 8.69987L10.6136 9.00023C10.5696 8.98475 10.5267 8.97026 10.4848 8.95607C10.3925 8.92489 10.3046 8.89517 10.2187 8.85961C10.1692 8.83936 10.1063 8.79549 10.095 8.75274C10.0765 8.6447 10.0173 8.54784 9.9297 8.48196C9.84208 8.41609 9.7326 8.38619 9.62366 8.39839C9.51146 8.3977 9.40099 8.37067 9.30115 8.31948C9.2013 8.26829 9.11487 8.19436 9.04882 8.10366C8.96445 8.00129 8.95433 7.91018 9.06345 7.81906C9.09882 7.79092 9.13123 7.75926 9.16019 7.72456C9.24906 7.61207 9.21644 7.51308 9.09157 7.44783C9.01189 7.39561 8.93664 7.33691 8.86659 7.27234C8.82909 7.23503 8.7848 7.20524 8.7361 7.1846C8.55948 7.1396 8.37949 7.10248 8.20063 7.07211C8.07689 7.04848 7.98915 6.96637 8.02514 6.85725C8.10164 6.63226 8.04539 6.50177 7.81703 6.45565L7.9059 6.15642C7.8917 6.15533 7.87584 6.1553 7.85926 6.15526C7.80754 6.15516 7.74877 6.15504 7.71129 6.12267C7.68458 6.09961 7.68277 6.06672 7.68075 6.03019C7.67902 5.99902 7.67716 5.96519 7.65954 5.93256L7.57292 6.0608L7.49755 5.83019C7.50977 5.82337 7.52336 5.81757 7.53694 5.81179C7.56587 5.79945 7.59473 5.78715 7.61005 5.76495C7.63255 5.73232 7.67079 5.64008 7.64829 5.61758C7.6282 5.59691 7.60371 5.58103 7.57664 5.5711C7.54958 5.56117 7.52063 5.55745 7.49193 5.56021C7.37992 5.61591 7.25191 5.63054 7.13022 5.60156C7.00852 5.57257 6.90086 5.50181 6.82598 5.4016C6.69998 5.24411 6.56049 5.07537 6.32651 5.09112C6.24479 5.10186 6.16727 5.13365 6.10153 5.18336C6.04175 5.22897 5.99068 5.28499 5.95079 5.34873C5.89116 5.43535 5.82029 5.43872 5.72018 5.43535C5.56347 5.44062 5.40739 5.45792 5.25333 5.48709L5.3422 5.65583L5.15209 5.71095L5.12284 5.7627L5.27021 5.80207L5.25221 5.85944C5.23506 5.87064 5.21769 5.88457 5.2003 5.8985C5.16182 5.92935 5.12326 5.96026 5.08684 5.96181C4.87765 5.98331 4.6667 5.98104 4.45801 5.95506C4.29047 5.91169 4.13122 5.84099 3.98667 5.74582C3.96434 5.7335 3.96257 5.68481 3.96078 5.63583C3.95996 5.61325 3.95914 5.59062 3.9563 5.57146L4.00579 5.56021L3.85618 5.41397L3.67394 5.79307C3.65813 5.80888 3.64045 5.82579 3.62166 5.84377C3.5803 5.88333 3.53355 5.92805 3.48945 5.97756C3.46565 6.00493 3.44185 6.03255 3.41794 6.0603C3.32888 6.16367 3.23826 6.26884 3.14073 6.36903C3.07661 6.43765 3.00911 6.41178 2.94274 6.35778C2.71776 6.17329 2.58389 6.21717 2.44215 6.47702C2.36663 6.59845 2.26569 6.70207 2.1463 6.78075C2.12042 6.79945 2.09388 6.81714 2.06746 6.83474C1.95718 6.90823 1.84904 6.9803 1.80095 7.11823C1.79195 7.14298 1.76157 7.17448 1.73907 7.17673C1.55595 7.18862 1.44155 7.30106 1.32657 7.41407C1.27838 7.46142 1.2301 7.50888 1.17661 7.54908C1.14736 7.57101 1.11924 7.59351 1.09041 7.61657C1.06159 7.63963 1.03206 7.66326 1 7.68744V5H15.9817L16.0603 6.66397C16.1376 8.29908 16.2149 9.93512 16.2922 11.5797H18.7963L18.7434 11.7923L18.4824 11.7327L18.4566 11.7675C18.4895 11.7666 18.5222 11.7743 18.5513 11.7899C18.5804 11.8054 18.605 11.8283 18.6226 11.8562C18.6402 11.8842 18.6502 11.9162 18.6516 11.9491C18.6531 11.9821 18.646 12.0149 18.6309 12.0443C18.7929 12.0735 18.8199 12.1163 18.7524 12.2591C18.6917 12.3956 18.6214 12.5275 18.542 12.654C18.5234 12.6826 18.4829 12.6985 18.4365 12.7167C18.41 12.7271 18.3816 12.7382 18.3542 12.753L18.3688 12.6135L18.3407 12.5899C18.2776 12.6438 18.2234 12.7071 18.1798 12.7777C18.1361 12.8815 18.1043 12.9902 18.0724 13.0992C18.0583 13.1473 18.0442 13.1955 18.0291 13.2434C18.0227 13.264 18.0146 13.2841 18.0066 13.3037L17.9994 13.3214L17.9931 13.3379C17.8007 13.3166 17.7681 13.3379 17.7254 13.5382C17.6691 13.7845 17.65 13.8003 17.3958 13.8306L17.2754 13.8456C17.1271 13.864 16.9794 13.8823 16.8333 13.9026C16.6477 13.9285 16.6466 13.9296 16.5554 14.0883L16.5176 14.0809C16.2226 14.0229 15.9232 13.9642 15.7117 14.2716C15.5905 14.1863 15.6335 14.1244 15.6789 14.0591C15.7018 14.0262 15.7252 13.9924 15.7286 13.9544L15.5981 13.9971C15.5962 13.9784 15.5962 13.9596 15.5981 13.9409C15.6349 13.8115 15.7331 13.7415 15.8313 13.6714C15.8953 13.6258 15.9594 13.5801 16.0065 13.5179C16.0326 13.4838 16.0616 13.4515 16.0946 13.4148C16.1127 13.3946 16.132 13.3731 16.1527 13.3492L15.7264 13.4785L15.7027 13.4347L16.0121 13.1253C15.9528 13.1159 15.8931 13.1095 15.8332 13.1062C15.7453 13.0987 15.6567 13.1033 15.57 13.1197C15.5013 13.15 15.4376 13.1906 15.381 13.2401C15.3518 13.1824 15.343 13.1165 15.356 13.0531C15.3691 12.9898 15.4033 12.9327 15.453 12.8913C15.5825 12.8236 15.7154 12.7628 15.8512 12.7091C15.8207 12.7027 15.7961 12.697 15.7751 12.6922C15.7411 12.6844 15.7165 12.6788 15.6915 12.6753C15.5149 12.6484 15.4541 12.5629 15.5149 12.3975C15.5365 12.3379 15.5688 12.2824 15.6011 12.227C15.6243 12.1873 15.6475 12.1475 15.6667 12.1061C15.6921 12.0507 15.7117 11.9922 15.7313 11.9337C15.7404 11.9067 15.7494 11.8797 15.759 11.853L15.7027 11.8283L15.2618 12.5764C15.2202 12.5069 15.1848 12.4338 15.156 12.3581C15.1525 12.3341 15.1546 12.3096 15.1622 12.2865C15.1698 12.2635 15.1827 12.2425 15.1999 12.2254L15.2111 12.2158C15.298 12.1412 15.2997 12.1397 15.2381 11.9711L15.1898 12.0319C15.115 12.1259 15.0494 12.2082 14.9862 12.2929C14.9783 12.3041 14.9862 12.3379 15.0008 12.3559C15.0334 12.4163 15.0463 12.4854 15.0378 12.5535C15.0294 12.6217 14.9999 12.6855 14.9535 12.7361C14.9143 12.6666 14.8711 12.5993 14.8242 12.5347C14.7779 12.4861 14.729 12.4399 14.6779 12.3964C14.6442 12.3632 14.6126 12.3279 14.5834 12.2906C14.5196 12.2075 14.4563 12.1239 14.3928 12.0401L14.2842 11.8969L14.2302 11.9239L14.2763 12.2456L14.2516 12.2535L13.9141 11.5988C13.9069 11.5849 13.8962 11.5727 13.8856 11.5606C13.873 11.5462 13.8606 11.5321 13.8545 11.5156C13.8383 11.4716 13.8303 11.4251 13.8309 11.3783C13.8309 11.3659 13.8894 11.3367 13.9006 11.3446C13.9371 11.3721 13.9687 11.4055 13.994 11.4436C14.0073 11.4772 14.0243 11.5093 14.0446 11.5392C14.0516 11.5197 14.0572 11.4998 14.0615 11.4796C14.0885 11.3209 14.1323 11.1848 14.3213 11.1421C14.3501 11.136 14.3681 11.0718 14.3841 11.0144C14.3888 10.9977 14.3933 10.9816 14.3978 10.9677C14.3978 10.9587 14.3641 10.9216 14.3495 10.9238C14.3085 10.9261 14.2692 10.9411 14.237 10.9666C14.1492 11.0588 14.1301 11.0678 13.967 11.0307C13.954 10.9843 13.9849 10.9444 14.0149 10.9056C14.0576 10.8504 14.0985 10.7975 14.0086 10.7315L14.3911 10.7101C14.3951 10.7154 14.3995 10.7233 14.4044 10.7323C14.4175 10.7559 14.4344 10.7866 14.4597 10.7956C14.5348 10.8233 14.6123 10.8441 14.6895 10.8649C14.7408 10.8787 14.7919 10.8924 14.8422 10.9081C15.0672 10.9891 15.1909 10.9238 15.2393 10.6831C15.2449 10.6552 15.2515 10.6276 15.2597 10.5934C15.2663 10.5656 15.2741 10.5333 15.2831 10.493C15.238 10.5343 15.208 10.5879 15.1797 10.6384C15.1241 10.7376 15.0753 10.8246 14.9322 10.7821C14.8197 10.7472 14.7072 10.6865 14.7072 10.5481L14.4822 10.5695L14.4665 10.5222L14.6712 10.3873C14.6352 10.381 14.5898 10.3888 14.5454 10.3965C14.4299 10.4164 14.3211 10.4351 14.4023 10.2028L14.3056 10.3974C14.2948 10.3795 14.2837 10.3624 14.2731 10.3459C14.2106 10.2492 14.1604 10.1714 14.2325 10.0599C14.2447 10.0407 14.2366 10.0084 14.2284 9.97593C14.2246 9.96079 14.2208 9.9456 14.219 9.93166C14.1836 9.95102 14.1501 9.97362 14.1189 9.99916C14.0729 10.0535 14.0167 10.0982 13.9535 10.1308L13.9805 9.86079C13.9316 9.9071 13.8947 9.96452 13.8727 10.0282C13.8508 10.0918 13.8445 10.1598 13.8545 10.2264C13.8545 10.3389 13.8162 10.3681 13.697 10.3771C13.6982 10.3179 13.7038 10.2589 13.7139 10.2005C13.7479 10.0444 13.7934 9.89098 13.85 9.74155C13.8815 9.66843 13.9715 9.56606 14.0277 9.57056C14.0744 9.5743 14.1389 9.64228 14.1954 9.70195C14.207 9.71417 14.2184 9.72615 14.2291 9.73705C14.2558 9.76418 14.2754 9.79293 14.2938 9.81996C14.3189 9.85681 14.3419 9.89048 14.3776 9.91254C14.5272 10.0048 14.6408 9.92379 14.6386 9.76067C14.573 9.78869 14.5036 9.80652 14.4327 9.81355C14.4091 9.81355 14.3776 9.7168 14.3708 9.66168C14.3573 9.56156 14.4237 9.50869 14.5081 9.47269C14.5391 9.45938 14.5697 9.44364 14.6081 9.42387C14.6281 9.41357 14.6503 9.40216 14.6757 9.38945C14.5306 9.3467 14.4507 9.27696 14.4597 9.13522L14.3753 9.31858C14.3314 9.27199 14.3252 9.20651 14.3192 9.1432C14.3099 9.04449 14.3011 8.95108 14.1503 8.94285C14.1168 8.99886 14.0714 9.04689 14.0174 9.08361C13.9634 9.12032 13.9021 9.14484 13.8376 9.15547C13.7226 9.17272 13.76 9.2368 13.7999 9.30517C13.8147 9.33039 13.8297 9.3562 13.8376 9.38045L13.6835 9.47944L13.6306 9.45132L13.8185 8.54576C13.853 8.57267 13.8813 8.59518 13.9061 8.61487C13.9477 8.64787 13.9793 8.67297 14.0131 8.69762C14.0208 8.70322 14.0288 8.70929 14.0372 8.71558C14.0877 8.7536 14.149 8.79983 14.2021 8.79886C14.2982 8.79838 14.3914 8.76637 14.4676 8.70775C14.4933 8.68521 14.4822 8.62004 14.4705 8.5514C14.4659 8.52412 14.4611 8.4963 14.4586 8.47039L14.8298 8.02042C14.7804 8.01386 14.7374 8.04199 14.6953 8.06957C14.6291 8.11293 14.565 8.15492 14.4811 8.05867C14.3896 8.07422 14.3725 8.15229 14.3554 8.23053C14.3515 8.24848 14.3475 8.26644 14.3427 8.28365C14.3244 8.34904 14.3055 8.40934 14.2864 8.47017L14.2628 8.54576L14.1987 8.53338C14.2038 8.44234 14.2038 8.35107 14.1987 8.26003L14.198 8.25364C14.1902 8.18309 14.1794 8.08486 14.1346 8.05867C14.0221 7.98779 14.0559 7.91805 14.0975 7.83368C14.1627 7.69869 14.228 7.5637 14.2876 7.42646C14.3083 7.37868 14.3252 7.32914 14.3422 7.27942C14.3555 7.24019 14.369 7.2008 14.3843 7.1621C14.3978 7.12835 14.4203 7.07661 14.4473 7.07098C14.4884 7.06215 14.5262 7.04197 14.5565 7.01275C14.5867 6.98352 14.6081 6.94641 14.6183 6.90562C14.6329 6.86737 14.7117 6.83587 14.7623 6.83362C14.9656 6.82559 15.1688 6.82329 15.3721 6.821C15.4534 6.82008 15.5348 6.81916 15.6161 6.81788H15.7185L15.7331 6.77625C15.6745 6.74964 15.613 6.73001 15.5498 6.71776C15.4813 6.7124 15.4125 6.71271 15.3436 6.71303C15.2823 6.71331 15.2208 6.71359 15.1594 6.70988C15.0289 6.70201 15.0087 6.64576 15.0863 6.54677C15.1113 6.51388 15.14 6.48371 15.1685 6.45367C15.1849 6.43647 15.2012 6.41927 15.2168 6.40165C15.2569 6.34312 15.3172 6.30153 15.3862 6.28491C15.4552 6.26828 15.5279 6.27782 15.5903 6.31166C15.6461 6.33133 15.7038 6.34564 15.7624 6.35441L15.5745 6.16092Z" fill="black"/>
<path d="M18.1797 13.6976L18.7421 12.377L18.7714 12.386C18.7688 12.4156 18.7636 12.445 18.7557 12.4737C18.7194 12.5702 18.6844 12.6668 18.6494 12.7633C18.576 12.9661 18.5027 13.1683 18.4181 13.368C18.3578 13.4905 18.2883 13.6082 18.21 13.7201L18.1797 13.6976Z" fill="black"/>
<path d="M15.0719 14.0638C15.1889 13.8275 15.1765 13.7814 14.9718 13.6689C14.9011 13.7602 14.9539 13.7958 15.0064 13.8311C15.0399 13.8537 15.0733 13.8762 15.0742 13.913L14.8672 13.9367L15.0719 14.0638Z" fill="black"/>
<path d="M14.9397 13.0969L14.8047 12.9462C14.8178 12.9348 14.833 12.9194 14.8481 12.904C14.8809 12.8707 14.9135 12.8376 14.925 12.8461C14.9779 12.8809 15.0213 12.9285 15.051 12.9845C15.0548 12.9897 15.0305 13.012 14.9967 13.0431C14.9794 13.0591 14.9595 13.0774 14.9397 13.0969Z" fill="black"/>
<path d="M18.9112 12.1288L18.9978 11.5945L18.9427 11.5889C18.9127 11.7659 18.8823 11.9428 18.8516 12.1198L18.9112 12.1288Z" fill="black"/>
</svg>
