<svg width="20" height="20" viewBox="0 0 20 20" fill="none" xmlns="http://www.w3.org/2000/svg">
<path d="M4.03094 16.3089V7.0406L3.69342 6.93822C3.57281 6.9142 3.46431 6.84898 3.38652 6.75373C3.30872 6.65849 3.26648 6.53916 3.26702 6.41618C3.25008 6.33521 3.21115 6.26046 3.15451 6.20017C3.00825 6.02916 2.85299 5.86265 2.71236 5.71301L3.10613 5.1156C3.29739 5.10773 3.35477 5.05935 3.33115 4.91084H3.10951L3.10051 4.86696L3.26927 4.80508C3.27754 4.73318 3.26949 4.66033 3.24573 4.59196C3.22197 4.52359 3.1831 4.46146 3.13201 4.41018C3.11765 4.38843 3.09848 4.37028 3.07599 4.35712C3.05349 4.34397 3.02827 4.33616 3.00228 4.33431C2.97628 4.33246 2.95021 4.33662 2.92608 4.34646C2.90195 4.3563 2.88041 4.37156 2.86312 4.39106C2.75848 4.49119 2.69098 4.48556 2.5886 4.36968C2.44781 4.21973 2.29255 4.08406 2.12507 3.96466C1.98564 3.84692 1.88456 3.69021 1.8348 3.51463C1.79193 3.33381 1.70364 3.16691 1.57829 3.02972C1.43126 2.89974 1.33385 2.72281 1.30264 2.52907C1.25783 2.41768 1.20205 2.31102 1.13613 2.21067C1.10238 2.14879 1.06075 2.09254 1 2.00028H11.3506C11.4845 2.00028 11.6015 1.98566 11.6724 2.16679C11.7242 2.2973 11.8862 2.38056 11.9908 2.49419C12.0863 2.60161 12.1757 2.71429 12.2586 2.83171C12.2721 2.84971 12.2485 2.89359 12.2406 2.92622C12.1314 3.28004 12.1349 3.65906 12.2507 4.01078C12.2912 4.16257 12.318 4.31771 12.3306 4.47431C12.3373 4.51256 12.3306 4.56544 12.3598 4.58682C12.4743 4.68968 12.5435 4.83367 12.5522 4.98734C12.5737 5.0576 12.6156 5.11987 12.6726 5.16623C12.8573 5.31683 13.0331 5.47798 13.1991 5.64889C13.4388 5.90867 13.7025 6.14524 13.9867 6.35543C14.2535 6.63184 14.4048 6.99962 14.4097 7.38374C14.4333 7.52204 14.4737 7.65692 14.5301 7.78539C14.574 7.88778 14.6662 7.9204 14.7382 7.81015C14.8006 7.70964 14.9 7.63771 15.0149 7.60992C15.1299 7.58213 15.2512 7.60071 15.3525 7.66164C15.5304 7.73265 15.7008 7.82121 15.8611 7.92603C15.8911 7.94338 15.917 7.96701 15.937 7.99531C15.9571 8.02361 15.9708 8.0559 15.9772 8.08998C15.9836 8.12406 15.9826 8.15912 15.9742 8.19277C15.9658 8.22642 15.9502 8.25785 15.9286 8.28493C15.856 8.43619 15.8114 8.59932 15.7969 8.76646C15.7367 9.04722 15.6318 9.31652 15.4864 9.56413C15.4221 9.64982 15.3836 9.75209 15.3754 9.85892C15.3672 9.96575 15.3897 10.0727 15.4403 10.1672C15.5395 10.3433 15.6712 10.499 15.8284 10.6262C16.0364 10.7826 16.2528 10.9275 16.4765 11.0605L16.4281 11.0785C16.4382 11.173 16.4123 11.3035 16.4641 11.353C16.5924 11.4655 16.7139 11.3597 16.8455 11.2517C16.9872 11.3642 17.1898 11.4542 17.2606 11.605C17.3447 11.752 17.4765 11.866 17.6342 11.9279C17.6968 11.9919 17.7448 12.0686 17.7749 12.1529C17.805 12.2372 17.8165 12.327 17.8085 12.4162C17.7983 12.4884 17.8069 12.562 17.8333 12.6299C17.8692 12.7003 17.9102 12.768 17.9559 12.8325C18.0853 13.0653 18.0561 13.1891 17.8558 13.3129L18.2068 14.1409C18.2167 14.1389 18.2259 14.1347 18.2338 14.1285C18.4285 13.9463 18.4206 13.9519 18.5837 14.1747C18.6451 14.2498 18.7292 14.3031 18.8234 14.3266C18.8502 14.3299 18.876 14.3387 18.8992 14.3525C18.9225 14.3662 18.9427 14.3845 18.9586 14.4063C18.9745 14.4281 18.9858 14.453 18.9917 14.4793C18.9977 14.5056 18.9982 14.5329 18.9932 14.5594C18.9886 14.6162 18.9803 14.6725 18.9685 14.7282C18.9584 14.7833 18.9449 14.8407 18.9392 14.8643L18.766 14.9993L18.9314 15.1175C18.955 15.1344 18.9775 15.1535 19 15.1715C18.9763 15.1961 18.949 15.217 18.919 15.2334C18.8515 15.257 18.721 15.2727 18.721 15.2907C18.7294 15.4044 18.7467 15.5173 18.7727 15.6283C18.7973 15.7026 18.808 15.7807 18.8042 15.8589C18.7761 15.986 18.6715 16.0153 18.5556 15.9523C18.4825 15.9118 18.406 15.8747 18.3205 15.8296C18.1922 16.0468 18.2608 16.3809 17.9154 16.4586C18.0021 16.6329 17.9289 16.7275 17.7545 16.7601C17.8581 17.0222 17.8344 17.1044 17.642 17.1955C17.6792 17.2799 17.7545 17.3665 17.7433 17.4452C17.732 17.524 17.651 17.6016 17.6027 17.6804C17.5543 17.7591 17.5228 17.8143 17.4722 17.9054L15.4864 18.0089C15.5621 17.8773 15.6479 17.7516 15.7429 17.6331C15.9398 17.425 16.1547 17.2337 16.3583 17.0312C16.3975 16.9598 16.4107 16.8769 16.3955 16.7969C16.3803 16.7168 16.3377 16.6446 16.2751 16.5924C16.2589 16.5839 16.2446 16.5723 16.2331 16.5582C16.2215 16.5441 16.2128 16.5278 16.2076 16.5103C16.1862 16.3461 16.0951 16.3078 15.9376 16.3078C12.3726 16.3078 8.80761 16.3078 5.24264 16.3078C4.84437 16.3089 4.44159 16.3089 4.03094 16.3089Z" fill="black"/>
</svg>
