<svg width="20" height="20" viewBox="0 0 20 20" fill="none" xmlns="http://www.w3.org/2000/svg">
<path d="M4.09713 12.2596C4.02657 12.3504 3.95148 12.4375 3.87212 12.5206C3.80882 12.5873 3.73214 12.6398 3.64713 12.6747C3.59875 12.6927 3.52225 12.6556 3.46713 12.6275C3.39311 12.5831 3.32209 12.5338 3.2545 12.4801C3.27147 12.435 3.28391 12.3882 3.29163 12.3406C3.30028 12.2844 3.29526 12.2269 3.277 12.173C3.26378 12.1496 3.25582 12.1237 3.25367 12.0969C3.25152 12.0702 3.25524 12.0433 3.26455 12.0181C3.27387 11.9929 3.28857 11.9701 3.30763 11.9512C3.32668 11.9323 3.34963 11.9177 3.37488 11.9086C3.4615 11.8704 3.4795 11.6904 3.41988 11.6127C3.3892 11.5563 3.36972 11.4944 3.3625 11.4305C3.34821 11.3762 3.3444 11.3197 3.35125 11.264C3.36588 11.1965 3.37937 11.1279 3.39512 11.0604C3.42325 10.9366 3.45362 10.8129 3.4795 10.688C3.5155 10.5114 3.54812 10.3325 3.592 10.1255C3.4615 10.1514 3.367 10.1772 3.2635 10.1896C3.16 10.202 3.10825 10.1896 3.12287 10.0647C3.13412 9.96912 3.06212 9.95225 2.962 10.0231C2.91148 9.97286 2.86414 9.91951 2.82025 9.86337C2.76963 9.79025 2.73025 9.70925 2.683 9.63837C2.66107 9.60114 2.63663 9.56543 2.60987 9.5315L2.10137 8.89812C2.089 8.88237 2.07775 8.85537 2.06425 8.85312C1.80325 8.825 1.72337 8.52912 1.459 8.456L1.60075 8.38962L1.48825 8.204C1.61088 8.069 1.50738 7.94862 1.45 7.84737C1.32288 7.64262 1.171 7.45362 1.03262 7.25675C1.01231 7.22807 1.00096 7.19401 1 7.15887C1 6.44337 1 5.72787 1 5H19V13.7334H8.48575V14.7672L8.45088 14.7875C8.37807 14.7161 8.30898 14.641 8.24388 14.5625C8.19438 14.4961 8.1685 14.4117 8.119 14.3454C8.09088 14.3071 8.02225 14.252 8.0065 14.2632C7.95773 14.2987 7.91644 14.3434 7.885 14.3949C7.86574 14.4149 7.85148 14.4392 7.84338 14.4657C7.831 14.5276 7.8265 14.5906 7.82088 14.6367L7.40575 14.7054C7.40575 14.7054 7.3945 14.711 7.39113 14.7054C7.19313 14.5816 6.97712 14.7425 6.77575 14.6649C6.75398 14.6535 6.72983 14.6475 6.70528 14.6473C6.68073 14.6471 6.65648 14.6527 6.63452 14.6637C6.61256 14.6746 6.59352 14.6907 6.57896 14.7104C6.56439 14.7302 6.55473 14.7531 6.55075 14.7774C6.52712 14.8561 6.49113 14.8719 6.40675 14.8381C6.30959 14.8085 6.20901 14.7914 6.1075 14.7875C6.07257 14.7785 6.036 14.7781 6.00085 14.7862C5.96571 14.7943 5.93303 14.8107 5.90557 14.8341C5.87811 14.8575 5.85667 14.8871 5.84306 14.9205C5.82945 14.9539 5.82407 14.9901 5.82737 15.026C5.57538 14.9292 5.527 14.7211 5.48987 14.4837C5.44728 14.3539 5.37351 14.2365 5.275 14.1417C5.25025 14.1125 5.1625 14.1417 5.06913 14.1417C5.03497 14.1206 5.00328 14.0957 4.97463 14.0675C4.90937 13.9955 4.81713 13.9347 4.90263 13.8087C4.95775 13.7277 4.85425 13.5669 4.78 13.4712C4.66985 13.3159 4.57527 13.1501 4.49762 12.9762C4.44287 12.8567 4.40028 12.7319 4.3705 12.6039C4.35138 12.5307 4.40312 12.4452 4.2805 12.4014C4.22087 12.3789 4.19163 12.2742 4.14887 12.2067L4.09713 12.2596Z" fill="black"/>
</svg>
