<svg width="20" height="20" viewBox="0 0 20 20" fill="none" xmlns="http://www.w3.org/2000/svg">
<path d="M14.4153 16.7779C14.3943 16.7788 14.3719 16.7808 14.3489 16.7828C14.2343 16.7929 14.1069 16.8041 14.0778 16.6935C14.0577 16.6239 14.102 16.5356 14.1462 16.4474C14.1663 16.4073 14.1864 16.3673 14.2004 16.329C14.0943 16.3237 14.1273 16.2443 14.1598 16.1664L14.1656 16.1524C14.2312 15.9888 14.2975 15.8253 14.3646 15.6599L14.4086 15.5516L14.3845 15.5362C14.3201 15.4951 14.2748 15.4662 14.2286 15.4391L12.7435 14.539C12.7059 14.5163 12.6721 14.4873 12.6381 14.4582C12.6131 14.4368 12.588 14.4152 12.5612 14.3961C12.4748 14.3245 12.3795 14.2644 12.2777 14.2172C12.157 14.1809 12.0459 14.1181 11.9525 14.0335C11.859 13.9488 11.7857 13.8444 11.7377 13.7278C11.7152 13.594 11.7102 13.4579 11.723 13.3228C11.7267 13.2246 11.7033 13.1274 11.6555 13.0415C11.5827 12.9607 11.4848 12.9068 11.3776 12.8885C11.2802 12.872 11.2672 12.8233 11.2508 12.7624C11.2483 12.7529 11.2457 12.7432 11.2426 12.7333C11.1729 12.4779 11.1718 12.4779 10.9051 12.4768L1.24077 12.4666H1V11.6667C1 11.6386 1.04388 11.6059 1.07425 11.5857C1.10836 11.5628 1.14374 11.542 1.1791 11.5212C1.22538 11.494 1.27165 11.4668 1.31502 11.4349C1.3884 11.3816 1.46009 11.3264 1.53173 11.2712C1.62484 11.1994 1.71791 11.1277 1.81455 11.0603C1.93307 10.9679 2.06367 10.8922 2.2027 10.8353C2.37076 10.778 2.45849 10.6526 2.54737 10.5254C2.56677 10.4977 2.58624 10.4698 2.6066 10.4426C2.65468 10.3673 2.71606 10.3013 2.78774 10.248C3.11513 10.0455 3.09376 9.98697 2.95762 9.71808C2.89589 9.60647 2.82315 9.50131 2.74048 9.40418C2.66731 9.28017 2.62093 9.14219 2.60435 8.99916C2.59504 8.83899 2.60638 8.67828 2.6381 8.521C3.10959 8.34984 3.60117 8.24018 4.10069 8.19473C4.51638 8.17919 4.93263 8.19876 5.34502 8.25324C5.53147 8.29722 5.7042 8.38649 5.84793 8.51313C5.90608 8.55272 5.97271 8.57813 6.04247 8.58732C6.11222 8.5965 6.18316 8.5892 6.24958 8.56601C6.61296 8.43386 7.01127 8.43386 7.37465 8.56601C7.4539 8.51072 7.53921 8.46467 7.62891 8.42875C7.8261 8.37464 8.00249 8.26254 8.1352 8.10698C8.28993 7.96374 8.46234 7.84086 8.64823 7.74133C8.6746 7.72405 8.7208 7.7347 8.76191 7.74417C8.77167 7.74642 8.78114 7.7486 8.78999 7.75033C8.82658 7.76237 8.86536 7.76634 8.90363 7.76197C8.94191 7.75759 8.97879 7.74497 9.01172 7.72497C9.04465 7.70498 9.07286 7.67808 9.09441 7.64614C9.11595 7.6142 9.13031 7.57797 9.13651 7.53994C9.19352 7.37346 9.15448 7.22085 9.11553 7.06856C9.09683 6.99547 9.07816 6.92246 9.07013 6.84802C9.07013 6.83112 9.05103 6.81706 9.03115 6.80242C9.01795 6.79271 9.0044 6.78274 8.99588 6.77152C8.9745 6.74339 8.93962 6.69276 8.9475 6.68151C8.95912 6.66481 8.97416 6.65075 8.99161 6.64028C9.00907 6.62981 9.02854 6.62316 9.04875 6.62076C9.19501 6.64101 9.26702 6.58701 9.29627 6.43962C9.30532 6.39662 9.33867 6.35816 9.37424 6.31714C9.39171 6.29699 9.40972 6.27622 9.42565 6.25399L9.12188 6.33162L9.28164 6.08073C9.26675 6.07434 9.25174 6.06595 9.23673 6.05755C9.20412 6.0393 9.17147 6.02104 9.13988 6.02335C9.07142 6.03676 9.0049 6.05868 8.94187 6.0886L8.95875 6.14261L9.12751 6.14148L9.0015 6.35524C8.98535 6.30765 8.97173 6.26701 8.95954 6.23062C8.94032 6.17323 8.92464 6.12642 8.90812 6.0796C8.90249 6.05372 8.88787 6.0211 8.86987 6.01435C8.77761 5.97834 8.72023 5.90747 8.76523 5.82308C8.77725 5.80007 8.78703 5.7746 8.79693 5.74884C8.83153 5.65876 8.86753 5.56507 9.00488 5.55982C9.11738 5.55982 9.21189 5.51257 9.21751 5.37306C9.22009 5.35717 9.22604 5.34202 9.23496 5.32862C9.24389 5.31523 9.25559 5.30391 9.26927 5.29543C9.41727 5.23977 9.5606 5.17243 9.69792 5.09404C9.82612 4.99314 9.94171 4.87717 10.0422 4.74864C10.0796 4.70535 10.1109 4.65672 10.1422 4.60818C10.1767 4.55456 10.2112 4.50106 10.2537 4.455C10.3557 4.34251 10.4627 4.23459 10.5695 4.12681C10.6464 4.04918 10.7234 3.97159 10.7982 3.89246C10.9923 3.67019 11.2348 3.49544 11.507 3.38168C11.6049 3.33091 11.6983 3.27182 11.786 3.20505C11.8075 3.19201 11.8289 3.17865 11.8502 3.1653C12.0334 3.05071 12.2152 2.937 12.4611 3.04079C12.4977 3.05639 12.5446 3.04459 12.5925 3.03251C12.6241 3.02456 12.6562 3.01648 12.6861 3.01604C13.6139 3.01153 14.5421 3.00891 15.4707 3.00816C15.627 3.00816 15.7137 3.15779 15.6405 3.33443L15.6308 3.35728C15.5876 3.45848 15.5536 3.53806 15.6405 3.65958C15.6899 3.73028 15.6408 3.88382 15.6048 3.99626C15.5728 4.08453 15.5626 4.18015 15.5758 4.27313C15.5889 4.36611 15.6247 4.45444 15.6799 4.53038C15.7245 4.59479 15.7511 4.66998 15.7568 4.74813C15.7626 4.82628 15.7473 4.90454 15.7125 4.97478C15.6889 5.04761 15.6866 5.12568 15.7058 5.1998C15.7184 5.25877 15.7173 5.31983 15.7027 5.37832C15.688 5.43681 15.6602 5.49119 15.6214 5.53732C15.5551 5.62433 15.5089 5.72495 15.4862 5.83194C15.4634 5.93894 15.4646 6.04965 15.4898 6.15611C15.5027 6.36136 15.5298 6.56549 15.5708 6.76702C15.6315 6.9215 15.5839 7.04766 15.537 7.17219C15.5074 7.25081 15.478 7.32877 15.4763 7.41281C15.4763 7.46344 15.4763 7.51294 15.4842 7.56357L15.5247 7.57032C15.539 7.52251 15.5623 7.47785 15.5933 7.43869C15.6278 7.4194 15.6663 7.4086 15.7058 7.40718C15.7853 7.51575 15.8404 7.64025 15.8672 7.77212C15.894 7.904 15.8919 8.04012 15.8611 8.17111C15.8075 8.7248 15.7864 9.28117 15.798 9.83734C15.7874 10.3102 15.7004 10.7783 15.5404 11.2234C15.3948 11.7038 15.3094 12.2004 15.2861 12.7018C15.2861 13.0303 15.2624 13.3611 15.2385 13.6924C15.2216 13.9285 15.2046 14.1647 15.1961 14.4006C15.2088 14.5691 15.239 14.7357 15.2861 14.8979C15.2623 14.9133 15.2354 14.9313 15.2061 14.9509C15.1348 14.9987 15.0496 15.0558 14.961 15.106C14.9348 15.1159 14.9113 15.1317 14.8922 15.1521C14.8732 15.1726 14.8591 15.1972 14.8512 15.224C14.8432 15.2508 14.8416 15.2791 14.8464 15.3067C14.8512 15.3342 14.8623 15.3603 14.8789 15.3828C14.9486 15.5144 14.9914 15.6314 14.7866 15.6832C14.7614 15.6893 14.7413 15.7147 14.7211 15.7402C14.7117 15.7522 14.7022 15.7643 14.6921 15.7743C14.6531 15.8137 14.6276 15.8647 14.6021 15.9157C14.5488 16.0222 14.4955 16.1287 14.3197 16.1287L14.3636 16.1794L14.7709 16.1141L14.781 15.933L14.9092 15.9825C14.925 15.9654 14.9407 15.948 14.9564 15.9304C14.9977 15.8842 15.0397 15.8373 15.087 15.7957C15.1028 15.7822 15.1523 15.7957 15.1781 15.8047C15.2343 15.8391 15.2883 15.8766 15.3401 15.9172V15.7068L15.4032 15.6494L15.4819 15.8103V15.7608H15.8059C15.8263 15.7608 15.8477 15.7626 15.8693 15.7645C15.962 15.7723 16.0595 15.7806 16.1097 15.6483C16.1209 15.6202 16.1952 15.6022 16.2402 15.6022C16.3294 15.6022 16.4188 15.6058 16.5082 15.6095C16.6353 15.6147 16.7625 15.6199 16.8894 15.6146C17.1246 15.6234 17.3544 15.543 17.5329 15.3896C17.6303 15.2981 17.7357 15.2156 17.8479 15.1432C17.9236 15.0994 18.0026 15.0618 18.0842 15.0307C18.0466 15.0721 18.0096 15.1142 17.9726 15.1564C17.8809 15.2606 17.7891 15.3651 17.6882 15.4604C17.5695 15.5619 17.4452 15.6566 17.3158 15.744C17.5475 15.8463 17.6139 15.8306 17.8277 15.6089C17.8588 15.5664 17.8994 15.5317 17.9463 15.5077C17.9931 15.4837 18.045 15.471 18.0977 15.4706C18.1589 15.4706 18.2212 15.4323 18.2812 15.3955C18.3029 15.3822 18.3243 15.3691 18.3452 15.3581C18.5038 15.5617 18.5207 15.5583 18.7086 15.3997C18.7894 15.3408 18.8748 15.2885 18.964 15.2433L19 15.3041C18.9495 15.3424 18.8965 15.3774 18.8414 15.4087C18.5117 15.5684 18.1809 15.7282 17.8491 15.8812C17.8261 15.8918 17.7963 15.8885 17.7667 15.8853C17.7397 15.8823 17.713 15.8793 17.6915 15.8868C17.6197 15.9099 17.551 15.9415 17.4821 15.9732C17.4571 15.9846 17.4321 15.9961 17.4069 16.0072C17.3826 16.0181 17.3583 16.0296 17.3342 16.0411C17.2834 16.0651 17.2329 16.0891 17.1819 16.1074C17.1539 16.1174 17.1199 16.1229 17.0853 16.1286C17.0268 16.1381 16.9662 16.148 16.9287 16.1805C16.8427 16.2553 16.7462 16.258 16.6502 16.2606C16.6018 16.262 16.5536 16.2633 16.5068 16.2739C16.423 16.2934 16.3375 16.3067 16.2519 16.3201C16.1399 16.3376 16.0279 16.3551 15.9196 16.3864C15.8869 16.3953 15.8655 16.4448 15.8435 16.4958C15.8321 16.5222 15.8205 16.549 15.8071 16.5709L15.8386 16.6328L14.727 16.7509C14.6841 16.7557 14.6408 16.7617 14.5975 16.7677C14.5736 16.771 14.5496 16.7743 14.5258 16.7774L14.5192 16.7824L14.418 16.7779C14.4413 16.5865 14.4647 16.5713 14.7092 16.6298L14.7112 16.6283C14.4637 16.572 14.4401 16.5844 14.4153 16.7779Z" fill="black"/>
<path d="M13.5835 17.0707C13.5633 16.8176 13.7523 16.5599 13.8896 16.5892C13.9127 16.5932 13.9347 16.6021 13.9541 16.6153C13.9735 16.6284 13.9899 16.6456 14.0021 16.6657C14.0063 16.6876 14.0052 16.7102 13.9987 16.7316C13.9922 16.753 13.9806 16.7725 13.965 16.7883C13.8873 16.8514 13.8069 16.9092 13.7164 16.9744C13.6745 17.0045 13.6305 17.0362 13.5835 17.0707Z" fill="black"/>
</svg>
