<svg width="20" height="20" viewBox="0 0 20 20" fill="none" xmlns="http://www.w3.org/2000/svg">
<path d="M5.08158 17.1959L5.28528 17.0778L5.16598 16.9472L5.59252 16.8279C5.53755 16.7588 5.50763 16.6731 5.50763 16.5848C5.50763 16.4965 5.53755 16.4108 5.59252 16.3417C5.6213 16.2907 5.63808 16.2338 5.64159 16.1753C5.6451 16.1168 5.63525 16.0582 5.61277 16.0041C5.56617 15.8585 5.5588 15.7033 5.59139 15.5539C5.59139 15.5281 5.62403 15.501 5.62065 15.4774C5.61722 15.2517 5.68625 15.0308 5.8176 14.8472C5.82984 14.8066 5.83376 14.7639 5.82912 14.7218C5.82448 14.6796 5.81137 14.6388 5.79059 14.6018C5.7342 14.4684 5.72938 14.3188 5.77709 14.1821C5.81535 14.0087 5.85924 13.8354 5.88963 13.6599C5.89195 13.5732 5.88592 13.4865 5.87162 13.401C5.86797 13.3537 5.86986 13.3061 5.87725 13.2592C5.89035 13.1721 5.91067 13.0863 5.93802 13.0026C5.95378 12.9423 5.98948 12.8892 6.03931 12.8518C6.14622 12.7989 6.16423 12.7201 6.18224 12.6132C6.21504 12.4035 6.2651 12.1968 6.33192 11.9954C6.36005 11.9155 6.45346 11.8603 6.51199 11.7883C6.54687 11.7455 6.6054 11.6757 6.59189 11.6465C6.53562 11.5238 6.60202 11.4642 6.66954 11.3741C6.79118 11.1987 6.90387 11.0173 7.00717 10.8306C7.01843 10.8114 7.0308 10.7934 7.04318 10.7754L7.41457 10.2611C7.31216 10.1215 7.28515 10.0079 7.40107 9.8807C7.45552 9.8027 7.5019 9.71936 7.53949 9.63198C7.57438 9.57233 7.61377 9.51944 7.65204 9.45529C7.6903 9.39114 7.77358 9.34274 7.65204 9.28197C7.64288 9.27017 7.63684 9.25625 7.63447 9.2415C7.63211 9.22675 7.63351 9.21164 7.63853 9.19757C7.72519 9.04788 7.65091 8.92634 7.58901 8.79241C7.54915 8.69396 7.52742 8.58911 7.52486 8.48292C7.51924 8.39739 7.55975 8.30961 7.44834 8.25784C7.43565 8.23637 7.42841 8.21212 7.42723 8.18721C7.42605 8.1623 7.43098 8.13748 7.44158 8.11491C7.55488 7.97801 7.68669 7.85755 7.83323 7.75703C8.00429 7.67153 8.18486 7.60655 8.37118 7.56345C8.44062 7.55375 8.51107 7.55375 8.58051 7.56345C8.62328 7.353 8.74932 7.25509 9.01605 7.22583C9.15301 7.21789 9.28493 7.17142 9.39663 7.09178C9.50834 7.01213 9.59527 6.90255 9.64741 6.77566C9.7467 6.61864 9.86336 6.4733 9.99516 6.34237C9.91413 6.17919 9.91413 6.17919 10.155 6.00475C10.1235 5.79204 10.0953 5.60297 10.0661 5.4004C10.0289 5.42065 10.0064 5.43416 9.98278 5.44429C9.95915 5.45442 9.91188 5.47242 9.87024 5.48593C9.86011 5.44766 9.83085 5.39927 9.84436 5.37339C9.87086 5.32111 9.88085 5.26202 9.87301 5.20393C9.86517 5.14585 9.83987 5.09152 9.80047 5.04814C9.77999 5.02699 9.76423 5.00174 9.75423 4.97405C9.74423 4.94636 9.74021 4.91687 9.74244 4.88752C9.74468 4.85816 9.75311 4.82962 9.76718 4.80376C9.78126 4.77791 9.80066 4.75533 9.8241 4.73752C10.0042 4.57884 10.0222 4.347 10.1111 4.14555C10.1478 4.06676 10.1973 3.99453 10.2574 3.93172C10.3055 3.89354 10.3383 3.83939 10.3498 3.7791C10.3614 3.7188 10.351 3.65636 10.3204 3.6031C10.2773 3.50124 10.242 3.39628 10.2146 3.28911C10.1741 3.16644 10.2146 3.09666 10.3463 3.08315C10.4027 3.08025 10.457 3.06109 10.5027 3.02801L10.4127 3.00325C10.2911 2.72077 10.4712 2.55308 10.6119 2.36851C10.7064 2.24472 10.6986 2.22446 10.6119 2.10404C10.6299 2.07928 10.649 2.05227 10.6693 2.02638C10.8629 1.76754 10.8629 1.70789 10.6535 1.52332C10.7661 1.47493 10.945 1.45692 11.0092 1.36239C11.0879 1.23746 11.2174 1.19132 11.313 1.09566C11.4087 1 11.4571 1.04164 11.5089 1.13505C11.5544 1.24717 11.641 1.33767 11.751 1.38808C11.8611 1.43849 11.9862 1.445 12.1008 1.40628C12.1751 1.38152 12.2134 1.23746 12.2696 1.14518C12.2915 1.09807 12.3103 1.04957 12.3259 1L12.3754 1.01013C12.3822 1.0799 12.3912 1.14968 12.3946 1.21946C12.4996 3.4868 12.6043 5.75378 12.7086 8.02038C12.7836 9.63198 12.8586 11.2451 12.9336 12.8597C12.9336 12.8923 12.9258 12.9373 12.9438 12.9576C13.1013 13.132 12.9922 13.32 12.9787 13.5023C12.9787 13.5518 12.9922 13.6025 12.9888 13.652C12.9842 13.7582 12.974 13.8642 12.9584 13.9694C12.9471 14.038 12.8965 14.1055 12.9021 14.1697C12.9177 14.3296 12.9459 14.488 12.9865 14.6435C13.0143 14.7053 13.0523 14.762 13.0991 14.8112L13.242 14.6784C13.3039 14.7695 13.3647 14.8697 13.4367 14.9597C13.5087 15.0498 13.6145 15.1398 13.6888 15.24C13.728 15.2948 13.7467 15.3617 13.7417 15.429C13.7169 15.6248 13.6742 15.8184 13.6382 16.0154L13.3906 16.0041C13.682 16.3114 13.2386 16.3552 13.2195 16.5286H13.682L13.547 16.3733L13.6179 16.1482C13.655 16.1482 13.7023 16.1335 13.7304 16.1482C13.8476 16.2205 13.956 16.3063 14.0534 16.4036C14.0883 16.443 14.0534 16.5454 14.0534 16.6186C14.0534 16.6917 14.0309 16.7413 14.0197 16.802L14.0793 16.8155L14.1536 16.6827C14.1345 16.8189 14.1761 16.9596 14.0411 17.0811C13.951 17.161 13.9285 17.3152 13.8711 17.4345C13.8496 17.4836 13.8252 17.5313 13.798 17.5775C13.7826 17.6134 13.772 17.6513 13.7664 17.69C13.7664 17.726 13.7597 17.7823 13.7383 17.7924C13.683 17.8217 13.6208 17.8357 13.5582 17.8329C13.5087 17.8273 13.4671 17.762 13.4164 17.7519C13.3343 17.7343 13.2498 17.7313 13.1666 17.7429C13.1036 17.753 13.0484 17.8172 12.9865 17.8228C12.7266 17.8476 12.5364 17.9477 12.5195 18.2369C12.3383 18.2302 12.1954 18.1008 12.0142 18.2369C11.833 18.3731 11.9219 18.5476 11.8904 18.7333C11.6383 18.5813 11.519 18.7333 11.3974 18.9167C11.3735 18.9433 11.3441 18.9645 11.3113 18.9788C11.2785 18.9932 11.243 19.0004 11.2072 19C10.4127 18.973 9.60914 18.9403 8.80897 18.9043C7.74207 18.8559 6.67067 18.8042 5.60827 18.7603C5.56172 18.7642 5.51537 18.7507 5.47817 18.7224C5.44098 18.6941 5.41556 18.6531 5.40682 18.6072C5.38544 18.5374 5.38656 18.4485 5.26277 18.4654C5.23688 18.4654 5.19187 18.3731 5.16823 18.318C5.10682 18.1835 5.05419 18.0451 5.01067 17.9038C5.00062 17.8694 4.99762 17.8333 5.00188 17.7978C5.00613 17.7622 5.01755 17.7278 5.03543 17.6967C5.08851 17.6256 5.12091 17.5412 5.12906 17.4528C5.1372 17.3645 5.12077 17.2756 5.08158 17.1959Z" fill="black"/>
</svg>
