<svg width="20" height="20" viewBox="0 0 20 20" fill="none" xmlns="http://www.w3.org/2000/svg">
<path d="M13.4159 16.2808L13.6634 16.4057C13.6551 16.373 13.6473 16.3443 13.6404 16.3187C13.6266 16.2677 13.6161 16.229 13.6116 16.1953C13.6083 16.17 13.6083 16.1442 13.6083 16.1183C13.6083 16.0924 13.6083 16.0665 13.6049 16.0412C13.6016 15.984 13.5898 15.9275 13.57 15.8736C13.542 15.8129 13.5078 15.755 13.471 15.6926C13.456 15.6673 13.4405 15.6411 13.4249 15.6138C13.7264 15.5508 13.7399 15.5193 13.6892 15.2561C13.6687 15.1739 13.6791 15.087 13.7185 15.012C13.7364 14.9884 13.7562 14.9668 13.7758 14.9454C13.8378 14.878 13.8977 14.8127 13.8883 14.6948C13.8861 14.6644 14.0211 14.6048 14.0987 14.5902C14.1801 14.589 14.2612 14.6 14.3394 14.6228C14.3379 14.5145 14.3642 14.4075 14.4158 14.3122C14.4674 14.2169 14.5426 14.1364 14.6341 14.0784L14.6354 14.0774C14.8614 13.904 14.8885 13.8832 15.0008 14.138C15.0469 14.2449 15.1122 14.2797 15.2033 14.2089C15.2743 14.1539 15.3594 14.1217 15.4446 14.0894C15.5859 14.0358 15.7276 13.9821 15.8062 13.8242C15.8221 13.7915 15.8674 13.7737 15.9128 13.7559C15.9346 13.7473 15.9563 13.7388 15.9749 13.7286C16.0095 13.7148 16.0412 13.6945 16.0683 13.669C16.111 13.6146 16.1514 13.5581 16.1918 13.5018C16.2641 13.4008 16.3363 13.2999 16.4215 13.2112C16.546 13.0676 16.6954 12.9476 16.8624 12.8568C16.9659 12.8073 17.021 12.7759 17.0435 12.6634C17.0691 12.5602 17.1003 12.4584 17.1368 12.3585C17.1638 12.3495 17.165 12.3304 17.156 12.318C17.0491 12.1707 17.021 12.0335 17.1841 11.8996C17.2076 11.8816 17.2104 11.8418 17.2129 11.8052C17.214 11.7893 17.2151 11.7739 17.2178 11.7613C17.2206 11.7484 17.2221 11.7342 17.2236 11.72C17.2269 11.6881 17.2303 11.6561 17.2482 11.6398C17.2636 11.6287 17.2764 11.6144 17.2858 11.5979C17.2951 11.5814 17.3008 11.563 17.3024 11.5441C17.304 11.5252 17.3015 11.5062 17.2951 11.4883C17.2886 11.4705 17.2784 11.4542 17.2651 11.4407C17.2568 11.4272 17.2596 11.4051 17.2623 11.3832C17.2637 11.3723 17.2651 11.3615 17.2651 11.3518L17.4271 11.3361C17.4408 11.2342 17.4535 11.1327 17.4661 11.0316C17.4978 10.7778 17.5292 10.5268 17.5767 10.2799C17.6303 10.0653 17.698 9.85453 17.7791 9.64882C17.7836 9.63532 17.8016 9.62408 17.8151 9.6162C17.8786 9.57149 17.9262 9.50765 17.9509 9.434C17.9756 9.36034 17.9761 9.28073 17.9523 9.20676C17.9201 9.05131 17.9155 8.89138 17.9389 8.73433C17.9521 8.61204 17.9399 8.48833 17.9029 8.37101C17.8924 8.31919 17.8697 8.27007 17.8471 8.22101C17.8236 8.16996 17.8001 8.11897 17.7904 8.06506C17.781 7.98619 17.7997 7.90652 17.8432 7.84009C17.8639 7.81808 17.8894 7.80107 17.9177 7.79035C17.9459 7.77963 17.9762 7.77549 18.0063 7.77823C18.2009 7.80185 18.2943 7.72761 18.2943 7.53302C18.2531 5.77603 18.2156 4.01905 18.1818 2.26206C18.1774 1.99368 18.1788 1.72627 18.1803 1.44631C18.181 1.30152 18.1818 1.15338 18.1818 1C18.122 1.0209 18.0675 1.03896 18.017 1.05571C17.9289 1.08493 17.8529 1.11016 17.7814 1.13948C17.6601 1.1877 17.5402 1.23905 17.4202 1.29043C17.3499 1.32055 17.2795 1.35068 17.2088 1.38019C17.0661 1.44021 16.9231 1.49968 16.7803 1.55912C16.5135 1.67014 16.2468 1.78108 15.9816 1.89537C15.7426 1.98107 15.5131 2.09113 15.2966 2.22382C15.0741 2.38493 14.867 2.56452 14.6601 2.74395C14.5564 2.83385 14.4528 2.92371 14.3473 3.0112C14.2994 3.05121 14.2479 3.08926 14.1974 3.12659C14.1542 3.15851 14.1117 3.18991 14.0728 3.22154C14.0406 3.24777 14.0096 3.27564 13.9788 3.30345C13.9289 3.34841 13.8791 3.39323 13.8242 3.43076C13.7589 3.47381 13.686 3.50398 13.6094 3.51962C13.5393 3.53028 13.468 3.53028 13.3979 3.51962C13.3234 3.51212 13.249 3.50272 13.1746 3.49332C13.0593 3.47874 12.9439 3.46415 12.8276 3.45663C12.7164 3.4516 12.605 3.45991 12.4958 3.48138C12.2535 3.53677 12.0271 3.64723 11.8344 3.8042C11.8021 3.82833 11.762 3.83956 11.7219 3.8357C11.4994 3.81638 11.2779 3.88322 11.1033 4.02242C11.062 4.0548 11.0111 4.07241 10.9587 4.07241C10.9063 4.07241 10.8554 4.0548 10.8142 4.02242L10.2653 3.63773L10.3946 3.8042C10.3645 3.79286 10.3348 3.7784 10.3058 3.76426C10.2427 3.7335 10.1827 3.70426 10.128 3.71197C10.0536 3.73446 9.97416 3.73427 9.89983 3.71143C9.82551 3.68859 9.75967 3.64414 9.71071 3.58374C9.56589 3.87416 9.37467 3.82918 9.1701 3.78106C9.07756 3.75929 8.98229 3.73688 8.88734 3.74459C9.00525 3.66638 9.13312 3.60433 9.26753 3.56011C9.45921 3.52935 9.6531 3.51518 9.85348 3.50054C9.93883 3.4943 10.0254 3.48798 10.1134 3.48025C10.1106 3.45811 10.1084 3.43356 10.1064 3.41026C10.1019 3.35898 10.0979 3.31378 10.0887 3.31378C10.0008 3.30547 9.91248 3.30321 9.82432 3.30703L9.69272 3.04494C9.63985 3.08881 9.62185 3.12256 9.62185 3.15743C9.62475 3.18831 9.62103 3.21947 9.61093 3.2488C9.60084 3.27814 9.58461 3.30499 9.56332 3.32755C9.54203 3.35012 9.51617 3.36789 9.48747 3.37967C9.45877 3.39146 9.42789 3.39698 9.39689 3.39589C9.30069 3.40982 9.20252 3.39505 9.11467 3.35343C9.02683 3.31181 8.95323 3.24519 8.90309 3.16192C8.85598 3.07825 8.78974 3.0069 8.70978 2.95373C8.62982 2.90055 8.53841 2.86705 8.44303 2.85597C8.36122 2.8414 8.28408 2.80746 8.21806 2.75699C8.1173 2.68832 8.02572 2.61118 7.93605 2.53563C7.91261 2.51589 7.8893 2.49625 7.86599 2.4769C7.85174 2.47226 7.83638 2.47226 7.82212 2.4769C7.79136 2.47922 7.76059 2.48202 7.72982 2.48482C7.65598 2.49155 7.58214 2.49827 7.5083 2.49827C7.46555 2.49886 7.4228 2.49487 7.38037 2.49092C7.3413 2.48727 7.30249 2.48365 7.26421 2.48365L7.34407 2.28456L2.35545 2.38579C2.29471 4.54772 2.23621 6.70289 2.17772 8.85807C2.11923 11.0132 2.06074 13.1684 2 15.3303C2.19572 15.1965 2.24859 15.2145 2.42069 15.3483C2.44627 15.3682 2.47171 15.3913 2.4975 15.4147C2.61799 15.5242 2.74606 15.6406 2.93136 15.4608C2.94119 15.4503 2.9579 15.4494 2.97504 15.4484C2.9873 15.4477 2.99977 15.447 3.0101 15.4428C3.04662 15.4282 3.08706 15.4101 3.12401 15.3935C3.14966 15.382 3.17363 15.3713 3.19345 15.363C3.24181 15.3427 3.30705 15.3157 3.33742 15.3157C3.36779 15.3157 3.40491 15.3866 3.40491 15.4282C3.40323 15.4926 3.42614 15.5552 3.46898 15.6032C3.51182 15.6513 3.57137 15.6812 3.6355 15.6869C3.71459 15.7019 3.78719 15.7408 3.8435 15.7983C3.89982 15.8558 3.93714 15.9292 3.95046 16.0086C3.9881 16.1103 4.03129 16.2098 4.07981 16.3067C4.10343 16.3697 4.12312 16.4341 4.1428 16.4985C4.16249 16.5629 4.18217 16.6273 4.20579 16.6903C4.21214 16.7074 4.21829 16.7264 4.22461 16.7459C4.24855 16.8198 4.27496 16.9013 4.3239 16.9209C4.49482 16.9977 4.67799 17.0438 4.86494 17.057C4.92062 17.0588 4.97682 17.053 5.03275 17.0473C5.17906 17.0322 5.32353 17.0173 5.45211 17.1402C5.45848 17.1444 5.46963 17.1442 5.48128 17.1439C5.49428 17.1436 5.50791 17.1433 5.51622 17.1492C5.53043 17.1588 5.54614 17.168 5.56203 17.1773C5.60777 17.2041 5.65504 17.2317 5.67257 17.2718C5.70291 17.3399 5.76267 17.3854 5.82222 17.4307C5.90621 17.4947 5.98977 17.5582 5.98977 17.6846C5.98977 17.692 6.01489 17.6994 6.03853 17.7063C6.04731 17.7089 6.05588 17.7114 6.06289 17.7139C6.12221 17.7268 6.17965 17.7472 6.23386 17.7746C6.38009 17.8691 6.43408 17.8016 6.47683 17.6621C6.48527 17.6332 6.49963 17.6064 6.519 17.5834C6.53836 17.5603 6.5623 17.5416 6.58931 17.5283C6.60602 17.5241 6.6228 17.5198 6.63961 17.5154C6.81852 17.4692 7.00183 17.4218 7.16635 17.5811C7.18394 17.601 7.21611 17.6032 7.24833 17.6054C7.26349 17.6065 7.27866 17.6075 7.29233 17.6104C7.4993 17.6509 7.69389 17.7071 7.73551 17.9591C7.73699 17.9665 7.74728 17.9719 7.76057 17.979C7.76743 17.9826 7.77509 17.9867 7.78275 17.9917C7.82334 17.9399 7.88072 17.904 7.945 17.89C8.00928 17.876 8.07642 17.8849 8.13483 17.9152C8.16634 17.9275 8.20005 17.9331 8.23384 17.9316C8.26763 17.9302 8.30075 17.9218 8.3311 17.9069C8.36145 17.8919 8.38837 17.8709 8.41016 17.845C8.43194 17.8192 8.44812 17.789 8.45765 17.7566C8.49502 17.6513 8.57758 17.5978 8.6593 17.5448C8.72514 17.5021 8.79044 17.4598 8.8311 17.391C8.83492 17.387 8.8397 17.3839 8.84501 17.3821C8.85031 17.3804 8.85596 17.3799 8.86147 17.3809C8.96211 17.4164 9.04339 17.375 9.12395 17.334C9.15323 17.3191 9.18242 17.3043 9.21241 17.2932C9.29453 17.2628 9.39014 17.2628 9.40701 17.3753C9.4339 17.5561 9.45155 17.7382 9.45988 17.9208C9.4581 17.9685 9.46626 18.016 9.48384 18.0604C9.50142 18.1048 9.52803 18.145 9.56198 18.1785C9.59594 18.2121 9.63649 18.2382 9.68107 18.2552C9.72565 18.2722 9.77329 18.2798 9.82095 18.2774C9.89188 18.2735 9.96205 18.2937 10.02 18.3348C10.165 18.4697 10.2913 18.6232 10.3957 18.7914C10.4067 18.8116 10.4164 18.83 10.4253 18.8468C10.5147 19.0151 10.5187 19.0228 10.7478 18.9737C10.8177 18.9585 10.8871 18.9398 10.9565 18.9211C11.0771 18.8887 11.1976 18.8563 11.3203 18.8421C11.452 18.8263 11.5071 18.7802 11.5273 18.6553C11.5301 18.6383 11.5328 18.6211 11.5356 18.604C11.5529 18.496 11.5704 18.3876 11.5937 18.2808C11.6387 18.0682 11.6882 18.0367 11.8963 18.0682C12.0324 18.0873 12.1032 18.0311 12.0909 17.9186C12.0729 17.7409 12.0511 17.5631 12.0256 17.3854C12.0216 17.3361 12.0054 17.2885 11.9784 17.2471C11.8704 17.1098 11.9334 17.0255 12.0459 16.931C12.1126 16.8658 12.164 16.7867 12.1966 16.6993C12.23 16.6266 12.2598 16.5519 12.2896 16.4772C12.334 16.3658 12.3785 16.2543 12.4351 16.1492C12.4987 16.0618 12.5767 15.9857 12.6656 15.9243C12.687 15.9051 12.7376 15.8883 12.7534 15.8995C12.8706 15.9766 12.9795 16.0655 13.0785 16.165C13.0986 16.1802 13.1153 16.1994 13.1277 16.2214C13.1401 16.2434 13.1479 16.2676 13.1505 16.2927C13.1532 16.3178 13.1506 16.3432 13.1431 16.3673C13.1355 16.3913 13.1231 16.4136 13.1066 16.4327C13.0865 16.4552 13.0905 16.4984 13.0945 16.5405C13.096 16.5573 13.0976 16.574 13.0976 16.589C13.1144 16.5848 13.133 16.5823 13.1517 16.5797C13.1928 16.574 13.2338 16.5684 13.2539 16.5452C13.3151 16.4617 13.3693 16.3732 13.4159 16.2808Z" fill="black"/>
<path d="M10.1559 2.87864C10.0882 2.84186 10.0249 2.80754 9.98047 2.95365C10.0795 3.01551 10.1604 3.06276 10.2212 2.90866C10.1993 2.90217 10.1774 2.89028 10.1559 2.87864Z" fill="black"/>
</svg>
