<svg width="20" height="20" viewBox="0 0 20 20" fill="none" xmlns="http://www.w3.org/2000/svg">
<path d="M15.8264 14.0274L15.5069 14.1185C15.486 14.1212 15.4661 14.1285 15.4484 14.1399C15.355 14.231 15.2797 14.3457 15.1199 14.3266C15.1031 14.3266 15.0761 14.4099 15.0401 14.4819C15.0019 14.4302 14.9598 14.3817 14.9141 14.3367C14.8677 14.301 14.8171 14.2711 14.7633 14.2479C14.6396 14.1894 14.472 14.186 14.463 13.9903C14.463 13.97 14.4236 13.9396 14.3989 13.9351C14.3741 13.9306 14.3291 13.9464 14.3224 13.9644C14.2717 14.1061 14.1986 14.096 14.067 14.0544C13.9545 14.0173 13.8679 13.997 13.842 13.8677C13.842 13.8485 13.77 13.8272 13.7352 13.8328C13.7171 13.8379 13.7004 13.847 13.6864 13.8594C13.6723 13.8719 13.6613 13.8874 13.6542 13.9048C13.6272 13.9846 13.6227 14.0656 13.5091 14.0848C13.4798 14.0848 13.4607 14.1871 13.4472 14.2445C13.4292 14.321 13.4236 14.4357 13.3189 14.3885C13.2559 14.3592 13.2278 14.2422 13.1975 14.1635C13.1885 14.1388 13.2323 14.0983 13.2334 14.0634C13.2343 14.0461 13.2314 14.0288 13.225 14.0127C13.2186 13.9966 13.2088 13.982 13.1963 13.97C13.1795 13.9588 13.1345 13.9824 13.1052 13.9948C12.9927 14.0443 12.8858 14.1073 12.7677 14.1433C12.7385 14.1534 12.6552 14.1163 12.6552 14.096C12.6417 13.9734 12.5686 13.961 12.4663 13.9588C12.4303 13.9588 12.3763 13.9036 12.3639 13.8632C12.3268 13.7338 12.2581 13.6978 12.1524 13.7788C12.077 13.8362 12.0208 13.9183 11.9432 13.97C11.8762 14.015 11.7987 14.0418 11.7182 14.0476C11.7 14.0485 11.6818 14.045 11.6652 14.0373C11.6487 14.0296 11.6343 14.018 11.6232 14.0035C11.6121 13.989 11.6047 13.9721 11.6017 13.9541C11.5986 13.9361 11.6 13.9176 11.6057 13.9003C11.6349 13.7878 11.5967 13.7079 11.4662 13.6955C11.2862 13.6798 11.3098 13.5482 11.3132 13.4267C11.3121 13.4038 11.3083 13.3812 11.302 13.3592C11.1287 13.3592 10.9645 13.3592 10.8014 13.3592C10.7529 13.3696 10.7097 13.3971 10.6799 13.4368C10.5899 13.5414 10.492 13.5594 10.4065 13.4548C10.3685 13.3894 10.3067 13.3411 10.234 13.3202C10.1612 13.2992 10.0832 13.3071 10.0162 13.3423C9.96005 13.3564 9.9015 13.3582 9.8446 13.3475C9.7877 13.3369 9.73379 13.314 9.68659 13.2804C9.52352 13.1888 9.33618 13.1495 9.15001 13.168C9.01614 13.1567 8.97902 13.1095 8.97902 12.9846C8.97801 12.9126 8.95625 12.8425 8.91633 12.7827C8.87642 12.7228 8.82006 12.6757 8.75404 12.6471C8.70421 12.614 8.65752 12.5763 8.61455 12.5346C8.59657 12.5702 8.58333 12.6081 8.57518 12.6471C8.56618 12.7731 8.49531 12.7664 8.41319 12.7247C8.37576 12.7019 8.33275 12.6898 8.28889 12.6898C8.24502 12.6898 8.20201 12.7019 8.16458 12.7247C8.12392 12.7339 8.08174 12.7339 8.04108 12.7248C8.00042 12.7156 7.9623 12.6976 7.92947 12.6719C7.81698 12.592 7.74161 12.4728 7.63587 12.3873C7.52823 12.3147 7.41544 12.25 7.2984 12.1938V7.29478H1C1 6.86056 1 6.43647 1 6H18.6297C18.6297 6.04387 18.6297 6.09449 18.6297 6.14399C18.6147 7.12865 18.6935 8.1125 18.8648 9.08227C18.9638 9.70604 19.0086 10.3372 18.9986 10.9687C18.9514 12.1207 18.9446 13.2748 18.921 14.429C18.921 14.4807 18.921 14.5325 18.921 14.6281L18.3586 14.4031C18.3349 14.3941 18.3147 14.3694 18.2911 14.3682C18.1156 14.3559 18.0323 14.2231 17.9153 14.1185C17.757 13.998 17.5847 13.8968 17.4024 13.817C17.3833 13.8141 17.3639 13.8159 17.3456 13.8222C17.3274 13.8284 17.311 13.839 17.2978 13.853C17.1425 14.042 16.8804 14.1365 16.7353 13.9779C16.5654 13.7912 16.4642 13.9171 16.3337 13.9779C16.2763 14.0026 16.2268 14.0668 16.1717 14.0701C16.0556 14.0659 15.94 14.0516 15.8264 14.0274Z" fill="black"/>
</svg>
