<svg width="20" height="20" viewBox="0 0 20 20" fill="none" xmlns="http://www.w3.org/2000/svg">
<path d="M1.49061 11.9901L1.53 12.169C1.60315 12.0272 1.54126 11.8471 1.69206 11.7852L1.853 11.9642L1.88676 11.9349L1.74946 11.6356L1.56602 11.8325L1.54576 11.8246L1.85975 10.8849L2.05332 10.9367C1.91377 10.7904 1.90702 10.7915 1.78997 10.9547C1.81248 10.7971 1.84287 10.6396 1.85637 10.4809C1.89689 10.0307 1.92952 9.58054 1.96891 9.13038C1.98102 9.00676 2.0036 8.8844 2.03644 8.76462C2.05332 8.73423 2.11072 8.7196 2.16586 8.69034C1.95316 8.67233 2.02068 8.53278 2.03531 8.41799C2.04657 8.32345 2.06345 8.23004 2.08033 8.12651L2.19287 8.13551C2.19436 8.12318 2.19436 8.11071 2.19287 8.09837C2.08033 8.06686 2.07245 7.97007 2.08033 7.88229C2.05195 7.64255 2.07772 7.39949 2.15573 7.17103C2.17529 7.10495 2.1844 7.03622 2.18274 6.96733C2.22326 6.65446 2.2649 6.34047 2.30204 6.02761C2.30766 5.97471 2.31104 5.89931 2.28065 5.87005C2.1895 5.78114 2.27278 5.71587 2.31217 5.67423C2.35155 5.63259 2.37631 5.6022 2.33017 5.52455C2.29193 5.4257 2.2818 5.31819 2.30091 5.21393C2.35606 5.29271 2.36056 5.43001 2.52599 5.32647C2.44836 5.25739 2.38258 5.17603 2.3313 5.08564C2.3186 4.99963 2.3307 4.91179 2.36619 4.83242C2.37969 4.78965 2.42583 4.75701 2.45622 4.71988C2.39332 4.69115 2.34161 4.64254 2.30907 4.58152C2.27653 4.52051 2.26496 4.45049 2.27615 4.38225C2.32474 4.22719 2.31268 4.05946 2.24239 3.91295C2.53612 3.63047 2.31104 3.34349 2.22776 3.02613C2.29416 3.05539 2.3403 3.07227 2.37744 3.09253C2.44736 3.12414 2.51439 3.1618 2.57776 3.20507C2.61147 3.24258 2.63781 3.2861 2.65542 3.33336C2.76121 3.22082 2.61153 3.20169 2.55413 3.13417L2.72857 3.07902C2.85799 3.20394 2.92889 3.20169 3.08533 3.07227C3.11147 3.04505 3.14378 3.02452 3.17953 3.01242C3.21528 3.00032 3.25342 2.997 3.29072 3.00274C3.32802 3.00847 3.3634 3.02311 3.39386 3.04539C3.42431 3.06768 3.44896 3.09697 3.46572 3.13079C3.49604 3.17358 3.53502 3.20952 3.58011 3.2363C3.6252 3.26308 3.67541 3.28009 3.7275 3.28625C3.77958 3.2924 3.83238 3.28755 3.88247 3.27202C3.93256 3.25648 3.97883 3.23061 4.01829 3.19606C4.0476 3.17466 4.08109 3.15969 4.11658 3.15212C4.15207 3.14456 4.18876 3.14458 4.22425 3.15217C4.3495 3.20028 4.46882 3.26258 4.57988 3.33787C4.63661 3.37116 4.68178 3.42104 4.7093 3.48079C4.84494 3.71686 4.92212 3.98197 4.93438 4.25395C4.93419 4.40585 4.95347 4.55714 4.99178 4.70412C5.01379 4.78488 5.06501 4.85458 5.1355 4.8997C5.206 4.94483 5.29074 4.96216 5.37329 4.94833C5.42626 4.94487 5.47943 4.94981 5.53085 4.96297C5.70979 5.00573 5.88536 5.06088 6.06542 5.09351C6.13469 5.09172 6.20256 5.0736 6.2635 5.04062C6.52114 4.97292 6.7626 4.85429 6.97363 4.69174C7.02878 4.64222 7.13682 4.64672 7.22235 4.63434C7.26512 4.62759 7.31464 4.65123 7.35515 4.63434C7.66201 4.57751 7.97728 4.58441 8.28137 4.6546C8.32266 4.6656 8.3612 4.6851 8.39453 4.71184C8.42786 4.73858 8.45525 4.77198 8.47494 4.80991C8.52558 4.90669 8.56385 4.92245 8.67076 4.89319C8.78891 4.86581 8.90963 4.8511 9.03089 4.8493C9.07981 4.85602 9.12941 4.85602 9.17832 4.8493C9.34601 4.77952 9.5092 4.69849 9.67576 4.62422C9.71975 4.60157 9.76999 4.59406 9.81868 4.60283C10.0899 4.66332 10.3727 4.64615 10.6346 4.55331C10.7685 4.52743 10.8822 4.40814 11.015 4.36312C11.2401 4.28659 11.4753 4.22919 11.7083 4.17405C11.8282 4.16493 11.94 4.10967 12.02 4.01987C12.049 3.98749 12.0892 3.96737 12.1325 3.9636C12.4465 3.93884 12.7616 3.92308 13.0756 3.8972C13.1454 3.89803 13.2132 3.8741 13.267 3.82967C13.3016 3.7906 13.3456 3.76092 13.3948 3.74341C13.4439 3.7259 13.4968 3.72111 13.5483 3.72951L17.9217 3.72276H18.0455C18.1314 3.89408 18.2339 4.05654 18.3516 4.20781C18.4692 4.30387 18.6 4.38269 18.7399 4.4419C18.7522 4.44865 18.7702 4.4419 18.7837 4.45203C18.8763 4.5378 18.943 4.6478 18.9762 4.76953C19.0094 4.89127 19.0078 5.01988 18.9717 5.14078C18.8828 5.28258 18.8276 5.44689 18.7342 5.59095C18.6341 5.80685 18.5585 6.03337 18.5091 6.2662C18.4452 6.41721 18.37 6.56318 18.2841 6.70286C18.2353 6.78071 18.2135 6.87248 18.2222 6.96395C18.2283 7.08505 18.204 7.20576 18.1516 7.31506C18.0991 7.42437 18.02 7.51878 17.9217 7.58968C17.7591 7.74231 17.6422 7.93714 17.584 8.15239C17.5458 8.24017 17.4816 8.31783 17.4479 8.40673C17.4008 8.51878 17.3682 8.63641 17.3511 8.75674C17.3454 8.86091 17.356 8.96534 17.3826 9.06623C17.3854 9.08609 17.3934 9.10485 17.4059 9.12056C17.4183 9.13627 17.4348 9.14837 17.4535 9.1556C17.4722 9.16283 17.4925 9.16493 17.5123 9.16168C17.5321 9.15843 17.5506 9.14996 17.566 9.13713L17.8564 9.20916C17.8992 9.26205 17.9521 9.33295 18.0117 9.39935C18.0894 9.48601 18.0365 9.63231 17.8812 9.71447C18.0207 9.90466 17.9228 10.1016 17.8902 10.2986C17.8902 10.3278 17.8845 10.3661 17.8654 10.3841C17.727 10.518 17.7742 10.688 17.7742 10.8466C17.7742 12.5303 17.7769 14.2135 17.7821 15.8964V16.0832C17.7112 16.0832 17.6572 16.0911 17.6032 16.0911H1.88338C1.77331 16.0698 1.67069 16.0202 1.58562 15.9472C1.50056 15.8742 1.43601 15.7802 1.39833 15.6747C1.36119 15.4991 1.31167 15.3314 1.26553 15.1615C1.25533 15.1172 1.25154 15.0718 1.25428 15.0264C1.28319 14.778 1.29672 14.5281 1.29479 14.278C1.26951 14.134 1.20792 13.9988 1.11585 13.8853C1.05738 13.8249 1.01881 13.7482 1.00533 13.6653C0.991844 13.5824 1.0041 13.4973 1.04045 13.4216C1.23898 13.0157 1.3538 12.574 1.37807 12.1229C1.39279 12.0703 1.4168 12.0207 1.44897 11.9766C1.46323 11.9798 1.47717 11.9843 1.49061 11.9901Z" fill="black"/>
</svg>
