<svg width="20" height="20" viewBox="0 0 20 20" fill="none" xmlns="http://www.w3.org/2000/svg">
<path d="M1.00286 15.57V15.3732C1.00286 12.3462 1.00286 9.31908 1.00286 6.29201C0.993461 6.23047 1.00739 6.16764 1.04193 6.11584C1.07646 6.06404 1.1291 6.02701 1.18953 6.01202C1.45506 5.91989 1.71173 5.80398 1.95641 5.66569C2.09585 5.57798 2.25665 5.56786 2.38821 5.47902C2.52686 5.37768 2.67184 5.28529 2.82226 5.2024C2.98193 5.12144 3.1596 5.06859 3.33164 5V6.07837H16.6004C16.6543 6.06966 16.7097 6.0772 16.7593 6.10003C16.809 6.12286 16.8507 6.15994 16.8792 6.20656C16.987 6.31892 17.0664 6.45539 17.1109 6.60462C17.1109 6.63048 17.1783 6.66084 17.2166 6.66309C17.5089 6.68108 17.5191 6.7463 17.6484 7.00043C17.7038 7.16183 17.7385 7.32958 17.7518 7.49969C17.7553 7.56123 17.75 7.62294 17.7361 7.68298C17.7323 7.71317 17.7366 7.7438 17.7485 7.77182C17.8204 7.90225 17.8958 8.03044 17.9733 8.15863C17.9846 8.17775 17.9936 8.20474 18.0105 8.21261C18.1664 8.28823 18.3272 8.35359 18.4917 8.40826C18.621 8.44537 18.7605 8.43413 18.8426 8.57694C18.8977 8.67252 18.9078 8.74785 18.7942 8.78946C18.7048 8.82794 18.6259 8.88736 18.5643 8.9627C18.5026 9.03805 18.46 9.12711 18.44 9.22238C18.3948 9.44204 18.2698 9.63715 18.0892 9.77C18.0239 9.81048 18.006 9.91843 17.9497 9.98027C17.8652 10.0698 17.7735 10.1521 17.6754 10.2265C17.6563 10.237 17.6396 10.2514 17.6264 10.2687C17.6132 10.286 17.6037 10.3059 17.5986 10.327C17.5936 10.3482 17.593 10.3702 17.5969 10.3916C17.6008 10.4131 17.6091 10.4334 17.6214 10.4514C17.6596 10.5121 17.7136 10.5639 17.7552 10.6212C17.8137 10.7033 17.8834 10.7854 17.7664 10.8787C17.7473 10.8945 17.7563 10.9406 17.7428 10.9676C17.7125 11.0294 17.6866 11.1306 17.6394 11.1418C17.3695 11.2093 17.4583 11.4083 17.4583 11.5793C17.4583 11.6726 17.4482 11.7671 17.4583 11.8593C17.4685 11.9515 17.5033 12.0189 17.6293 12.0054C17.8215 11.9841 17.8879 12.0572 17.8868 12.2562C17.8868 12.3282 17.8789 12.4001 17.8789 12.4721C17.8745 12.4981 17.8761 12.5249 17.8837 12.5502C17.8912 12.5755 17.9044 12.5988 17.9223 12.6182C17.9402 12.6376 17.9624 12.6527 17.987 12.6623C18.0116 12.6718 18.0381 12.6756 18.0644 12.6734C18.1031 12.6786 18.1402 12.6919 18.1733 12.7124C18.2065 12.733 18.2349 12.7603 18.2567 12.7926C18.3788 13.0422 18.5651 13.2548 18.7965 13.4088C18.8235 13.4283 18.8474 13.4518 18.8673 13.4785C19.0652 13.7034 19.0528 13.7427 18.7549 13.8035C18.7447 13.8035 18.7301 13.8035 18.7222 13.8091L17.9688 14.3916C17.9395 14.4204 17.9061 14.445 17.8699 14.4647C17.847 14.4712 17.8257 14.4823 17.8073 14.4972C17.7888 14.5122 17.7736 14.5307 17.7624 14.5517C17.7513 14.5727 17.7445 14.5958 17.7425 14.6194C17.7405 14.6431 17.7433 14.667 17.7507 14.6895C17.758 14.7075 17.7609 14.727 17.7594 14.7463C17.7578 14.7656 17.7518 14.7843 17.7417 14.8009C17.7317 14.8175 17.7179 14.8315 17.7015 14.8418C17.6851 14.8522 17.6665 14.8586 17.6473 14.8605C17.4831 14.9043 17.3234 14.9628 17.1626 15.0156C17.1469 15.0156 17.1244 15.0156 17.1165 15.0303C16.9647 15.2338 16.7938 15.154 16.5981 15.0955C16.4231 15.0554 16.2394 15.082 16.083 15.1702C15.9266 15.2584 15.8088 15.4017 15.7525 15.5723L1.00286 15.57Z" fill="black"/>
</svg>
