<svg width="20" height="20" viewBox="0 0 20 20" fill="none" xmlns="http://www.w3.org/2000/svg">
<path d="M12.5078 1L4.78257 1.17994C4.78257 1.2508 4.78257 1.30028 4.78369 1.34864C4.7702 3.16007 4.75895 4.97263 4.74995 6.78632L4.68697 15.9218C4.68585 16.1288 4.6746 16.1445 4.50028 16.077C4.40173 16.047 4.29646 16.047 4.1979 16.077C4.09935 16.1071 4.01198 16.1658 3.94695 16.2457C3.88374 16.3064 3.84374 16.3873 3.83389 16.4744C3.82403 16.5615 3.84493 16.6493 3.89297 16.7226C3.97657 16.8878 3.99581 17.0782 3.94695 17.2568C3.89883 17.435 3.91311 17.6243 3.98744 17.7933C4.06954 18.0047 4.03018 18.0924 3.85136 18.2375C3.75956 18.3071 3.68301 18.3947 3.62643 18.495C3.59918 18.562 3.55245 18.6192 3.4923 18.6593C3.43214 18.6994 3.36133 18.7206 3.28903 18.72C3.21189 18.7195 3.13543 18.7344 3.06411 18.7638C3.0399 18.7755 3.02816 18.8138 3.01648 18.8519C3.01133 18.8687 3.00619 18.8855 3 18.8999C3.04104 18.9195 3.08455 18.9335 3.12933 18.9415C3.16914 18.9378 3.20758 18.9251 3.2418 18.9044C3.35426 18.8538 3.45661 18.8369 3.50834 19C3.55162 18.9748 3.59335 18.9499 3.63411 18.9256C3.74054 18.8622 3.8403 18.8027 3.94358 18.7515C4.0547 18.6902 4.17399 18.6451 4.29784 18.6176C4.7522 18.54 5.20768 18.4658 5.66429 18.4118C6.06795 18.3778 6.45807 18.2499 6.80356 18.0384C7.28163 17.7421 7.81244 17.5408 8.36682 17.4457C8.62043 17.3972 8.87581 17.3542 9.13057 17.3114C9.32994 17.2779 9.52904 17.2445 9.72652 17.2084C9.75032 17.2035 9.77273 17.1934 9.79217 17.1788C9.81161 17.1642 9.82759 17.1455 9.83899 17.1241C9.92559 16.8339 10.0043 16.5415 10.0819 16.2491C10.1067 16.1535 10.155 16.104 10.2562 16.1243C10.2652 16.1321 10.2652 16.1411 10.2652 16.1411C10.2665 16.1908 10.2729 16.2402 10.2843 16.2885C10.3536 16.4167 10.3704 16.5668 10.3312 16.7072C10.292 16.8475 10.1998 16.9671 10.074 17.0409C9.9762 17.1038 9.98857 17.2006 10.1145 17.2725C10.2194 17.3482 10.3197 17.4301 10.4148 17.5177C10.4806 17.5542 10.55 17.5839 10.6217 17.6066C10.5812 17.4804 10.5752 17.3456 10.6043 17.2163C10.6333 17.087 10.6964 16.9678 10.7871 16.871C10.8122 16.8369 10.8378 16.8032 10.8633 16.7694C10.9176 16.6977 10.972 16.6258 11.0232 16.5494C11.0711 16.481 11.104 16.4033 11.1197 16.3213C11.1354 16.2393 11.1336 16.1549 11.1143 16.0737C11.0491 15.761 11.0963 15.6834 11.3966 15.5496C11.4292 15.5361 11.481 15.5113 11.481 15.4866C11.4861 15.442 11.5004 15.399 11.5147 15.3559C11.5444 15.2667 11.5742 15.1771 11.5226 15.0716C11.4933 15.0109 11.5395 14.8377 11.5721 14.8321C11.7602 14.7989 11.7279 14.6815 11.6981 14.5734L11.6935 14.5565C11.6123 14.3111 11.628 14.0439 11.7374 13.8097C11.7596 13.7647 11.7696 13.7147 11.7666 13.6647C11.7844 13.1434 11.6003 12.6353 11.2527 12.2465C11.234 12.2238 11.2204 12.1975 11.2126 12.1692C11.2049 12.1409 11.2032 12.1113 11.2077 12.0823C11.211 12.0659 11.2552 12.0561 11.2973 12.0468C11.3131 12.0433 11.3286 12.0399 11.3415 12.0362C11.399 12.0192 11.4568 12.0031 11.5147 11.9869C11.6677 11.9443 11.8211 11.9015 11.9679 11.8427C12.0197 11.8214 12.0489 11.7055 12.0545 11.6302C12.0568 11.6119 12.0126 11.5905 11.9678 11.5688C11.9465 11.5585 11.925 11.5481 11.9083 11.538C11.8981 11.532 11.8855 11.5262 11.8728 11.5205C11.8424 11.5065 11.8116 11.4924 11.8116 11.475C11.8124 11.4533 11.8178 11.432 11.8275 11.4127C11.8372 11.3933 11.851 11.3762 11.8679 11.3625C12.0725 11.1803 12.0714 11.1668 11.833 11.0184C11.8254 11.0138 11.8209 11.0042 11.8147 10.9908C11.8116 10.9843 11.8082 10.977 11.8037 10.9689L11.9961 10.916C11.9872 10.8718 11.9775 10.8287 11.9679 10.7861C11.9473 10.6944 11.9273 10.6055 11.9173 10.5157C11.9068 10.3828 11.9034 10.2496 11.9072 10.1164C11.904 10.0657 11.8887 10.0166 11.8626 9.97303C11.8365 9.92948 11.8004 9.8928 11.7573 9.86605C11.7141 9.8393 11.6652 9.82326 11.6146 9.81927C11.564 9.81528 11.5132 9.82346 11.4664 9.84311C11.3381 9.90159 11.2662 9.8746 11.2414 9.73065C11.2235 9.58772 11.2134 9.44393 11.2111 9.29991L11.4022 9.3197C11.6444 9.34485 11.8716 9.36843 12.0995 9.38988C12.2311 9.40225 12.3402 9.41575 12.2547 9.59681C12.221 9.66654 12.3762 9.85773 12.4639 9.85773C12.5692 9.85593 12.5737 9.78435 12.5782 9.71318C12.5793 9.69538 12.5804 9.67758 12.5831 9.66092C12.5833 9.56758 12.6028 9.47529 12.6405 9.38988C12.6892 9.31932 12.7226 9.23932 12.7385 9.15505C12.7544 9.07078 12.7524 8.98412 12.7327 8.90066C12.7125 8.76907 12.7552 8.70609 12.8868 8.68585C12.9405 8.66957 12.9916 8.64571 13.0386 8.615C12.9586 8.56827 12.869 8.54021 12.7766 8.5329C12.5258 8.50478 12.4639 8.44292 12.4718 8.1955C12.4837 8.11477 12.5002 8.03478 12.5213 7.95595C12.5327 7.91313 12.53 7.86774 12.5134 7.82662C12.376 7.54679 12.3063 7.23861 12.3098 6.9269C12.3103 6.89916 12.3189 6.87216 12.3346 6.8493C12.3552 6.8211 12.3693 6.78871 12.3759 6.75443C12.3825 6.72016 12.3815 6.68485 12.3729 6.65101C12.3643 6.61718 12.3483 6.58566 12.3262 6.5587C12.304 6.53173 12.2761 6.51 12.2446 6.49503C12.1765 6.4425 12.1225 6.37393 12.0874 6.29543C12.0522 6.21693 12.0371 6.13095 12.0433 6.04517C12.1985 6.10253 12.2514 6.01706 12.2907 5.91022C12.3368 5.78538 12.3829 5.66054 12.4257 5.53458C12.4632 5.42452 12.499 5.31333 12.5367 5.19619L12.5843 5.04873C12.6403 5.10996 12.6772 5.18624 12.6904 5.26818C12.7036 5.35012 12.6925 5.43413 12.6585 5.50984C12.6 5.67132 12.5294 5.8281 12.447 5.97882C12.4015 6.0513 12.38 6.13635 12.3856 6.22179C12.3913 6.30724 12.4238 6.3887 12.4785 6.45455C12.608 6.60498 12.6923 6.78904 12.7215 6.98538C12.7091 7.21771 12.7543 7.44949 12.853 7.66017C12.8575 7.66664 12.8569 7.67179 12.8563 7.67776C12.8554 7.68528 12.8544 7.69411 12.8632 7.70853C12.872 7.72302 12.8829 7.73645 12.8938 7.74981C12.9023 7.7603 12.9109 7.77075 12.9183 7.78163C13.0341 7.90846 13.1286 8.05315 13.1983 8.21012C13.2067 8.27123 13.2347 8.32796 13.2781 8.37177C13.3215 8.41559 13.378 8.44411 13.439 8.45305C13.6156 8.49803 13.7764 8.56551 13.7944 8.79044C13.797 8.82248 13.8237 8.85523 13.8486 8.88589C13.8551 8.89396 13.8616 8.90192 13.8675 8.90965C13.9175 8.8598 13.9568 8.80031 13.9831 8.73478C14.0094 8.66925 14.0221 8.59906 14.0204 8.52847C14.0187 8.45789 14.0027 8.38838 13.9733 8.32418C13.9439 8.25998 13.9018 8.20242 13.8495 8.15501C13.7769 8.10417 13.7134 8.04144 13.6617 7.96945C13.606 7.8587 13.5713 7.73858 13.5593 7.61518C13.5562 7.58402 13.5979 7.54801 13.6391 7.51237C13.6574 7.49656 13.6756 7.48081 13.6898 7.4656C13.7237 7.519 13.7516 7.57594 13.773 7.63543C13.7842 7.73863 13.8061 7.84039 13.8382 7.93908C13.899 8.05942 14.0058 8.03805 14.0722 7.92559C14.1 7.87668 14.1329 7.83129 14.1725 7.77664C14.1921 7.7496 14.2133 7.72029 14.2364 7.68716C14.2994 7.84688 14.3275 8.01825 14.3188 8.18974C14.3101 8.36123 14.2647 8.52886 14.1858 8.68135C14.0712 8.86684 14.0228 9.08566 14.0485 9.30216C14.0529 9.3827 14.0291 9.46225 13.9811 9.52709C13.9154 9.61018 13.8683 9.70636 13.8429 9.80917C13.8175 9.91198 13.8144 10.019 13.8337 10.1231C13.8384 10.1607 13.8715 10.1929 13.9048 10.2253C13.9193 10.2394 13.9339 10.2536 13.9462 10.2682C13.9893 10.2304 14.0272 10.1869 14.0587 10.1389C14.0772 10.098 14.0885 10.0545 14.0997 10.0112C14.1082 9.9783 14.1168 9.94551 14.1284 9.91396C14.17 9.79925 14.2544 9.77676 14.3252 9.87235C14.3978 9.98681 14.4643 10.1051 14.5243 10.2266C14.5583 10.2776 14.5959 10.326 14.6367 10.3717C14.6808 10.3324 14.7208 10.2887 14.756 10.2412C14.8153 10.1028 14.8908 9.97178 14.9809 9.85098C15.0416 9.80651 15.0841 9.74159 15.1006 9.66821C15.1172 9.59482 15.1066 9.51793 15.0709 9.45173C15.0387 9.38528 14.9994 9.32241 14.9601 9.25958C14.917 9.19055 14.8739 9.12158 14.8403 9.04799C14.8029 8.94173 14.7758 8.83214 14.7593 8.72071L14.8381 8.69597C14.869 8.77766 14.9066 8.85665 14.9505 8.93215C15.0032 8.99411 15.0615 9.05097 15.1248 9.10197C15.143 9.08315 15.1631 9.06521 15.1831 9.04731C15.2314 9.00424 15.2793 8.96143 15.2992 8.9074C15.3343 8.81969 15.3343 8.72183 15.2992 8.63411C15.0754 8.15241 14.7153 7.74692 14.2634 7.46785C14.1493 7.40781 14.0352 7.3445 13.9206 7.2809L13.8135 7.22156C13.5955 7.11333 13.4166 6.93976 13.3019 6.72506C13.1872 6.51036 13.1423 6.26522 13.1736 6.02381C13.3017 5.46739 13.3269 4.89219 13.2478 4.32671C13.2448 4.28269 13.2474 4.23847 13.2557 4.19513C13.2557 4.17254 13.2534 4.14995 13.2509 4.12638C13.2483 4.10067 13.2455 4.07375 13.2455 4.04442L12.4482 4.21762C12.4649 3.27439 12.4824 2.34487 12.5001 1.40962L12.5078 1Z" fill="black"/>
<path d="M15.9392 9.70024C15.9062 9.68349 15.8749 9.66352 15.8458 9.64062C15.8199 9.73915 15.7924 9.83518 15.7655 9.92962C15.7093 10.1262 15.655 10.3159 15.6209 10.5066C15.5193 10.8572 15.5464 11.2326 15.6973 11.5649C15.7096 11.5979 15.7146 11.6333 15.7119 11.6684C15.7092 11.7036 15.6988 11.7377 15.6816 11.7685C15.6427 11.8388 15.6184 11.9164 15.6103 11.9964C15.6022 12.0764 15.6103 12.1573 15.6343 12.2341C15.694 12.4815 15.6647 12.5209 15.4297 12.5625C15.4325 12.588 15.4346 12.6136 15.4367 12.6392C15.4496 12.799 15.4624 12.9559 15.6456 13.0461C15.676 13.0618 15.685 13.1574 15.676 13.2103C15.6529 13.2946 15.6468 13.3826 15.658 13.4693C15.6692 13.556 15.6975 13.6396 15.7412 13.7152C15.7521 13.7338 15.7586 13.7546 15.7602 13.776C15.7618 13.7975 15.7584 13.819 15.7502 13.8389C15.6991 13.9202 15.6785 14.0171 15.6924 14.1121C15.7062 14.2071 15.7534 14.2941 15.8256 14.3574C15.9077 14.4564 15.9584 14.5777 15.9712 14.7058C15.984 14.8338 15.9584 14.9627 15.8975 15.0761C15.8759 15.1147 15.8618 15.157 15.8559 15.2009C15.8648 15.2318 15.8848 15.2582 15.9121 15.2751C16.0607 15.2086 16.204 15.1308 16.3407 15.0423C16.4597 14.9475 16.5724 14.8449 16.678 14.7353C16.7002 14.7146 16.727 14.6953 16.7538 14.676C16.8086 14.6366 16.8631 14.5973 16.876 14.5475C16.8911 14.4531 16.9409 14.3678 17.0155 14.3082C17.0902 14.2485 17.1844 14.2188 17.2797 14.2247C17.2849 14.201 17.2879 14.177 17.2887 14.1527C17.2258 13.3501 17.1627 12.5464 17.0953 11.7437C17.0885 11.6892 17.0663 11.6376 17.0312 11.5953C16.9616 11.5112 16.9192 11.4081 16.9096 11.2995C16.9 11.1908 16.9235 11.0818 16.9772 10.9869C17.0102 10.9111 17.0329 10.8313 17.0447 10.7496C17.0548 10.6763 17.0604 10.6023 17.0661 10.528C17.0717 10.4542 17.0773 10.3799 17.0874 10.3064C17.1133 10.122 17.0874 10.0882 16.9018 10.0286C16.5911 9.92902 16.2835 9.82107 15.975 9.71281L15.9392 9.70024Z" fill="black"/>
<path d="M15.3949 10.2051C15.4171 10.4135 15.4265 10.6231 15.423 10.8326C15.411 10.8753 15.3889 10.9145 15.3586 10.9468C15.3282 10.9791 15.2905 11.0036 15.2487 11.0182C15.1935 11.026 15.1431 11.054 15.1073 11.0968C15.0716 11.1396 15.053 11.1941 15.0553 11.2499C15.0512 11.3003 15.0452 11.3506 15.0394 11.4009C15.0291 11.4884 15.0188 11.5759 15.0181 11.6637C15.0246 11.7615 15.0408 11.8583 15.0665 11.9528C15.1027 12.0839 15.1301 12.2173 15.1486 12.352C15.1576 12.4847 15.1546 12.6184 15.1516 12.7521C15.1501 12.819 15.1486 12.8859 15.1486 12.9526C15.148 13.0188 15.1659 13.0838 15.2003 13.1404C15.2448 13.2018 15.2709 13.2744 15.2759 13.35C15.2809 13.4256 15.2644 13.5011 15.2284 13.5678C15.1701 13.6963 15.104 13.8213 15.0377 13.9466L15.0103 13.9985C14.9713 14.0566 14.9513 14.1254 14.9531 14.1953C14.955 14.2652 14.9785 14.3328 15.0204 14.3888C15.1194 14.5316 15.0811 14.6531 14.8832 14.797C14.9029 14.7579 14.9135 14.7148 14.9144 14.671C14.9153 14.6271 14.9063 14.5837 14.8882 14.5438C14.8701 14.5039 14.8432 14.4685 14.8097 14.4403C14.7761 14.4121 14.7367 14.3919 14.6942 14.3809C14.6132 14.3449 14.5356 14.3314 14.5042 14.4574C14.4727 14.5833 14.4018 14.5586 14.3163 14.499C14.1398 14.373 14.0318 14.4248 13.9868 14.6317C13.9536 14.7847 13.908 14.9475 13.8597 15.1202C13.8427 15.1811 13.8253 15.2432 13.808 15.3065C13.7615 15.2782 13.7168 15.2471 13.6742 15.2131C13.5718 15.1175 13.4852 15.1378 13.3818 15.2244C13.3122 15.267 13.2362 15.2981 13.1568 15.3166C13.1468 15.3203 13.1359 15.3222 13.1252 15.3242C13.1092 15.3271 13.0936 15.3299 13.0815 15.338C13.0677 15.3475 13.0544 15.3591 13.0413 15.3707C12.989 15.4166 12.9388 15.4607 12.8678 15.3582C12.7632 15.2086 12.7553 15.0568 12.8588 14.9679C12.9018 14.931 12.9479 14.8897 12.9941 14.8482C13.0591 14.7898 13.1244 14.7312 13.1816 14.6846C13.1984 14.6962 13.2157 14.7115 13.2334 14.7271C13.2721 14.7614 13.3123 14.797 13.3525 14.797C13.4537 14.797 13.6056 14.6261 13.5988 14.5417L13.5896 14.4334C13.5726 14.2331 13.5555 14.0322 13.5336 13.8321C13.5198 13.779 13.5018 13.7271 13.4796 13.6769C13.4632 13.6201 13.451 13.5632 13.4372 13.4994L13.4301 13.4666C13.709 13.4823 13.7259 13.4823 13.7259 13.2416C13.7223 12.9006 13.8249 12.5669 14.0194 12.2868C14.076 12.1802 14.1187 12.0668 14.1465 11.9494C14.1677 11.8577 14.1982 11.7684 14.2376 11.6829C14.3386 11.5284 14.3896 11.3466 14.3838 11.1622C14.3809 11.1292 14.3847 11.0959 14.3949 11.0644C14.4052 11.0329 14.4217 11.0038 14.4434 10.9788C14.5185 10.9212 14.5835 10.8518 14.6486 10.7823C14.7716 10.6509 14.8948 10.5193 15.0867 10.4671C15.1538 10.4431 15.2105 10.3855 15.2763 10.3185C15.3121 10.2822 15.3506 10.2431 15.3949 10.2051Z" fill="black"/>
<path d="M12.4031 14.3169L12.0994 14.2697C12.0994 14.6262 12.0994 14.9715 12.0938 15.319L12.1534 15.3404C12.1939 15.2493 12.2355 15.1582 12.2782 15.0682C12.2973 15.0277 12.3176 14.9906 12.3401 14.9501C12.3477 14.9364 12.3578 14.9229 12.3679 14.9094C12.3878 14.8829 12.4076 14.8566 12.4076 14.8298C12.4109 14.6442 12.4874 14.5914 12.6718 14.633C12.818 14.6667 12.8743 14.5824 12.8259 14.4339C12.7989 14.3793 12.7778 14.322 12.7629 14.263C12.7519 14.1891 12.7612 14.1137 12.7899 14.0448C12.8006 14.0248 12.8135 14.0056 12.8261 13.9868C12.8777 13.9101 12.9245 13.8406 12.7899 13.7602C12.7777 13.7533 12.779 13.7197 12.7803 13.6898C12.7806 13.6813 12.7809 13.673 12.7809 13.6658C12.7746 13.5534 12.7746 13.4408 12.7809 13.3284C12.7916 13.1655 12.8153 13.0038 12.8518 12.8448C12.8753 12.7588 12.8815 12.669 12.8701 12.5806C12.8587 12.4922 12.83 12.4069 12.7854 12.3297C12.709 12.1914 12.5796 12.1891 12.5009 12.3297C12.4466 12.4324 12.4069 12.5422 12.3828 12.6558C12.3669 12.7282 12.3555 12.8021 12.3442 12.8759C12.326 12.9948 12.3078 13.1136 12.2703 13.226C12.2336 13.3365 12.2241 13.4541 12.2425 13.569C12.2609 13.684 12.3067 13.7928 12.376 13.8862C12.4025 13.9384 12.4156 13.9964 12.4143 14.0549C12.416 14.0968 12.4129 14.1386 12.4095 14.1838C12.4064 14.2247 12.4031 14.2683 12.4031 14.3169Z" fill="black"/>
<path d="M13.2905 11.6725L13.3024 11.6206C13.3276 11.51 13.3528 11.3997 13.3771 11.2879C13.3972 11.2075 13.4126 11.126 13.4232 11.0439C13.4305 11.0175 13.4316 10.9898 13.4264 10.963C13.4212 10.9361 13.4099 10.9109 13.3934 10.8891C13.3769 10.8673 13.3555 10.8497 13.331 10.8375C13.3066 10.8253 13.2796 10.819 13.2523 10.8189C13.1867 10.8097 13.1244 10.7842 13.0712 10.7447C13.0451 10.7301 13.0232 10.7092 13.0074 10.6838C12.9916 10.6585 12.9824 10.6295 12.9808 10.5997C12.9791 10.5699 12.9849 10.5402 12.9978 10.5132C13.0107 10.4863 13.0301 10.463 13.0543 10.4455C13.1033 10.4132 13.1381 10.3636 13.1519 10.3066C13.1657 10.2497 13.1573 10.1896 13.1286 10.1385C13.1131 10.1088 13.1072 10.075 13.1117 10.0418C13.1264 9.99724 13.1456 9.95427 13.169 9.91357C13.1832 9.92049 13.1999 9.92645 13.2167 9.93243C13.2546 9.94592 13.2928 9.95952 13.3029 9.98445C13.3478 10.0788 13.3731 10.1814 13.3771 10.2858C13.3684 10.3859 13.3925 10.486 13.4456 10.5712C13.4987 10.6564 13.5781 10.722 13.6718 10.7582C14.0092 10.9269 14.0778 11.0956 13.9327 11.4465C13.8677 11.6049 13.7794 11.7528 13.6706 11.8851C13.6309 11.9328 13.5579 11.9524 13.486 11.9717C13.4562 11.9797 13.4266 11.9877 13.3996 11.9975C13.3899 11.9689 13.3796 11.9404 13.3693 11.9121C13.3522 11.8649 13.3354 11.8183 13.322 11.7726C13.3176 11.7394 13.3176 11.7057 13.322 11.6725H13.2905Z" fill="black"/>
<path d="M14.3374 10.6214C14.4105 10.578 14.4778 10.5254 14.5376 10.465C14.5115 10.4504 14.4871 10.4349 14.465 10.4209C14.4158 10.3897 14.3782 10.3658 14.3588 10.3751C14.3018 10.4053 14.2578 10.4553 14.2351 10.5157C14.225 10.537 14.3195 10.6292 14.3374 10.6214Z" fill="black"/>
</svg>
