<svg width="20" height="20" viewBox="0 0 20 20" fill="none" xmlns="http://www.w3.org/2000/svg">
<path d="M6.92453 11.9284C6.90505 11.9758 6.87002 12.0151 6.82521 12.0398C6.78041 12.0646 6.7285 12.0733 6.67805 12.0646C6.46421 12.0646 6.32577 12.2199 6.25599 12.5002C6.2211 12.6431 6.19297 12.7883 6.15245 12.929C6.14119 12.9661 6.09505 12.9965 6.06016 13.0213C5.95999 13.0899 5.85757 13.1552 5.75515 13.2216L5.81706 13.2947C5.7128 13.3065 5.60724 13.293 5.5093 13.2554C5.41136 13.2178 5.3239 13.1572 5.25432 13.0787C5.23293 13.0528 5.18566 13.0483 5.15302 13.0291C5.07086 12.983 4.99208 12.9312 4.90767 12.8885C4.85477 12.8614 4.79512 12.8558 4.73997 12.8254C4.60716 12.7444 4.47999 12.6532 4.3483 12.5688C4.27065 12.5193 4.18398 12.4822 4.10858 12.4293C3.96615 12.3307 3.85031 12.1985 3.77137 12.0443C3.69243 11.8902 3.65284 11.7189 3.65613 11.5458C3.65943 11.4067 3.60905 11.2716 3.51545 11.1687C3.47727 11.1294 3.44976 11.081 3.43554 11.028C3.39486 10.8754 3.31611 10.7355 3.20667 10.6215C3.09724 10.5076 2.96068 10.4232 2.80977 10.3764C2.66322 10.2847 2.53184 10.1708 2.42036 10.0387C2.25197 9.85001 2.06703 9.67675 1.86775 9.52101C1.67853 9.40774 1.52128 9.24817 1.4108 9.05731C1.36916 8.98416 1.26111 8.94477 1.19358 8.88737C1.12605 8.82997 1 8.73318 1 8.65777C1 8.55197 1.08554 8.47094 1.24085 8.47206C2.73437 8.48107 4.22788 8.47769 5.72026 8.47769H5.93523V1H10.122V4.1626C10.2469 4.2819 10.3404 4.36406 10.427 4.45297C10.5722 4.60266 10.5992 4.60604 10.7433 4.46085L10.911 4.58466L10.9886 4.45973C11.153 4.51713 11.1901 4.57227 11.2374 4.79737C11.4366 4.85365 11.6313 4.90992 11.8282 4.96057C11.8733 4.97182 11.9262 4.94368 11.9746 4.94481C12.023 4.94593 12.0871 4.94481 12.1074 4.97069C12.2199 5.10238 12.3055 5.1035 12.3696 4.94819L12.7241 4.99208C12.7061 5.11926 12.7444 5.22843 12.9357 5.20817L12.9121 5.35561C13.0156 5.45803 13.0955 5.44115 13.1833 5.3421C13.2542 5.26219 13.3173 5.14177 13.4501 5.31284C13.4928 5.36799 13.647 5.35336 13.6639 5.48729C13.6988 5.48561 13.7332 5.47917 13.7663 5.46816C13.8327 5.43552 13.8969 5.39388 13.9655 5.35561L14.0252 5.58071C14.0683 5.52857 14.1174 5.48173 14.1715 5.44115C14.2525 5.39388 14.3246 5.08437 14.4439 5.42201C14.4551 5.45353 14.5564 5.45128 14.6296 5.46703L14.732 5.33197C14.7874 5.40102 14.848 5.46573 14.9132 5.52556C14.9938 5.58169 15.078 5.63245 15.1653 5.6775C15.2849 5.54778 15.4487 5.46749 15.6245 5.4524C15.7434 5.4306 15.8607 5.4009 15.9756 5.36349C16.0905 5.35764 16.2056 5.36444 16.3189 5.38375C16.4596 5.3995 16.6115 5.4614 16.6993 5.23406C16.8456 5.33085 16.9751 5.42651 17.1146 5.50417C17.2272 5.5672 17.3634 5.59984 17.4793 5.66174C17.5952 5.72364 17.6729 5.79792 17.7742 5.8587C17.8132 5.87649 17.8566 5.88274 17.8991 5.87671C18.3245 5.84294 18.3245 5.84182 18.3234 6.2695C18.3234 6.94479 18.3178 7.62908 18.3234 8.30887C18.3277 8.39958 18.3612 8.48646 18.4191 8.55648C18.4981 8.62556 18.5588 8.71305 18.5959 8.81121C18.633 8.90936 18.6453 9.01516 18.6318 9.11922C18.6328 9.15192 18.6434 9.18361 18.6622 9.21038C18.7454 9.37808 18.8321 9.54802 18.9143 9.71009C18.9847 9.87013 19.0124 10.0457 18.9949 10.2196C18.9773 10.3936 18.9151 10.56 18.8141 10.7028C18.7207 10.8619 18.6924 11.0511 18.7353 11.2306C18.7639 11.337 18.7677 11.4485 18.7465 11.5566C18.7252 11.6647 18.6794 11.7665 18.6126 11.8541C18.5654 11.9564 18.5295 12.0636 18.5057 12.1738C18.0906 12.2615 17.6982 12.4343 17.3532 12.6814C17.3247 12.6297 17.3097 12.5716 17.3097 12.5125C17.3097 12.4535 17.3247 12.3954 17.3532 12.3437C17.3939 12.2536 17.4245 12.1592 17.4444 12.0623L17.387 12.041L17.0651 12.2278L16.9965 12.2008C17.0042 12.2905 17.0243 12.3787 17.0561 12.463C17.0882 12.5052 17.1094 12.5546 17.1179 12.6069C17.1264 12.6593 17.1219 12.7129 17.1047 12.763C17.0876 12.8132 17.0584 12.8583 17.0197 12.8945C16.981 12.9308 16.934 12.9569 16.8828 12.9706C16.8286 12.9908 16.7843 13.0311 16.759 13.0832C16.6911 13.2434 16.5829 13.3834 16.4448 13.4893C16.3067 13.5952 16.1435 13.6635 15.9711 13.6875C15.7663 13.7483 15.7607 13.7303 15.6988 13.8462L15.3375 13.88C15.3431 13.844 15.3499 13.799 15.3589 13.7404C15.2468 13.793 15.1284 13.8309 15.0066 13.853C14.9334 13.853 14.8558 13.7787 14.768 13.7292C14.7587 13.775 14.7638 13.8226 14.7828 13.8654C14.8017 13.9081 14.8336 13.9439 14.8738 13.9678C14.9459 14.0084 15.0067 14.0664 15.0505 14.1366C15.0635 14.1581 15.0715 14.1822 15.074 14.2072C15.0766 14.2322 15.0735 14.2575 15.0651 14.2812C15.0568 14.3048 15.0432 14.3264 15.0255 14.3442C15.0078 14.362 14.9863 14.3757 14.9627 14.3842C14.655 14.5546 14.3881 14.79 14.1805 15.0739C13.973 15.3579 13.8297 15.6836 13.7607 16.0285C13.702 16.3425 13.7261 16.6664 13.8305 16.9683C13.9194 17.2992 13.9858 17.6346 14.0657 17.9812C13.8958 17.9993 13.7494 17.9903 13.7281 18.2063C13.647 18.1585 13.5715 18.1019 13.503 18.0375C13.4451 17.9693 13.3716 17.9162 13.2886 17.8826C13.2057 17.8491 13.1159 17.8362 13.0269 17.8451C12.7723 17.8802 12.5137 17.8209 12.2998 17.6785C12.1513 17.5659 11.9329 17.5806 11.8001 17.4061C11.7573 17.3499 11.6178 17.3712 11.5244 17.3499C11.4482 17.3327 11.3803 17.2897 11.3323 17.2281C11.2843 17.1666 11.2591 17.0903 11.261 17.0122C11.2447 16.8285 11.1623 16.657 11.0292 16.5294C10.967 16.453 10.9235 16.3632 10.902 16.2671C10.8705 16.1546 10.9312 16.0072 10.7894 15.9194C10.777 15.9115 10.7894 15.8575 10.7962 15.8271C10.8502 15.611 10.7838 15.5221 10.6015 15.4073C10.4681 15.3145 10.3574 15.193 10.2773 15.0516C10.1883 14.8664 10.0582 14.704 9.89692 14.5767C9.81065 14.5097 9.74191 14.4228 9.69659 14.3234C9.54802 14.0342 9.41184 13.7382 9.27341 13.4444C9.25639 13.4086 9.24391 13.3708 9.23627 13.3319C9.21091 13.2143 9.16243 13.1029 9.09364 13.0041C9.02486 12.9054 8.93715 12.8213 8.83559 12.7568C8.6952 12.6648 8.56133 12.5633 8.43492 12.4529C8.35803 12.36 8.2877 12.2618 8.22446 12.1591C8.19287 12.1212 8.14913 12.0953 8.10066 12.086C7.92058 12.0601 7.73825 12.0466 7.55705 12.023C7.35109 11.9959 7.15075 11.9611 6.92453 11.9284Z" fill="black"/>
</svg>
