<svg width="20" height="20" viewBox="0 0 20 20" fill="none" xmlns="http://www.w3.org/2000/svg">
<path d="M1 12.3526L1.30938 12.0354C1.46125 12.0162 1.477 11.9904 1.42188 11.7699C1.3971 11.6885 1.38088 11.6048 1.3735 11.5201C1.37814 11.462 1.39708 11.406 1.42863 11.357C1.47513 11.2624 1.53051 11.1723 1.594 11.0881C1.65236 11.0352 1.71742 10.9902 1.7875 10.9542L1.72675 10.8238L1.80663 10.7248C1.80853 10.7136 1.80853 10.7022 1.80663 10.691C1.69412 10.5076 1.69412 10.5087 1.89662 10.4176C1.96586 10.3883 2.03346 10.3552 2.09913 10.3186C2.14552 10.2846 2.18916 10.247 2.22963 10.2061L2.0845 10.115C2.15087 10.0104 2.15088 10.0104 2.33538 10.0464C2.29001 10.0068 2.25549 9.95622 2.23508 9.89955C2.21467 9.84288 2.20904 9.78194 2.21872 9.7225C2.2284 9.66305 2.25308 9.60704 2.29042 9.55978C2.32776 9.51252 2.37653 9.47555 2.43212 9.45238L2.27238 9.16212L2.548 9.12725L2.36913 8.92362C2.5885 8.91125 2.63688 8.82237 2.56375 8.65475C2.548 8.61988 2.58738 8.56137 2.602 8.51412L2.70662 8.62663C2.85625 8.43875 3.07675 8.51412 3.27588 8.51412C4.0285 8.50738 4.78225 8.51412 5.53487 8.51412H5.725L5.6575 8C5.8195 8.0405 5.97137 8.07987 6.12437 8.1125C6.17784 8.12496 6.2326 8.131 6.2875 8.1305C7.33938 8.12375 8.3935 8.08438 9.4465 8.10688C11.1576 8.144 12.8676 8.23625 14.5787 8.27338C15.7308 8.297 16.8839 8.26438 18.0359 8.25313C18.3137 8.25313 18.5916 8.2295 18.8695 8.21825C18.9131 8.21843 18.9567 8.22144 19 8.22725L18.8706 8.8955C18.604 8.81788 18.4926 9.03387 18.3779 9.251C18.3319 9.33885 18.2761 9.42114 18.2114 9.49625C18.1574 9.55813 18.0921 9.56037 18.0404 9.47712C17.9886 9.39388 17.9279 9.3905 17.8255 9.42088C17.7226 9.44032 17.6254 9.48281 17.5412 9.54516C17.4571 9.6075 17.3881 9.68809 17.3395 9.78087C17.3215 9.82025 17.263 9.84387 17.2214 9.86975C17.1325 9.926 17.0785 9.8855 17.0864 9.79438C17.101 9.62338 17.0189 9.638 16.9199 9.70213C16.8209 9.76625 16.7241 9.85062 16.6274 9.92712L16.6442 9.9665C16.6094 9.953 16.5677 9.92037 16.5396 9.92938C16.4929 9.94373 16.4529 9.97449 16.4271 10.016C16.3821 10.106 16.3596 10.2073 16.3146 10.2973C16.3045 10.3135 16.2904 10.3268 16.2737 10.3361C16.2569 10.3453 16.2381 10.3502 16.219 10.3501C16.0064 10.3186 15.8635 10.4559 15.706 10.556C15.5435 10.6821 15.3712 10.795 15.1908 10.8935C15.0648 10.9475 14.8938 10.8935 14.7554 10.925C14.6109 10.9771 14.4725 11.0446 14.3425 11.1264C14.3256 11.1354 14.3155 11.1635 14.2997 11.1669C14.1062 11.204 14.1141 11.3817 14.0747 11.5122C14.0151 11.6877 13.942 11.744 13.753 11.7103C13.6034 11.6833 13.5482 11.7226 13.528 11.8756C13.5077 12.0286 13.4942 12.2041 13.4774 12.3729C13.451 12.378 13.4243 12.3813 13.3975 12.383C11.2139 12.3605 9.03137 12.3504 6.84775 12.3088C6.076 12.2941 5.30875 12.365 4.53925 12.3628C3.40975 12.3628 2.28025 12.3605 1.15075 12.356L1 12.3526Z" fill="black"/>
</svg>
