<svg width="20" height="20" viewBox="0 0 20 20" fill="none" xmlns="http://www.w3.org/2000/svg">
<path d="M10.492 19H9.63576C8.64634 18.982 7.65731 18.9625 6.66865 18.9415C6.55579 18.9415 6.44292 18.9351 6.33026 18.9286C6.24303 18.9237 6.15582 18.9187 6.06892 18.9167C6.02321 18.9207 5.97752 18.9088 5.93959 18.8829C5.90166 18.8571 5.87382 18.819 5.86077 18.775C5.84956 18.7449 5.83125 18.7176 5.81295 18.6903C5.79634 18.6656 5.77975 18.6408 5.7685 18.6141L5.76718 18.6109C5.74384 18.5554 5.7171 18.4917 5.73587 18.4498C5.83961 18.1329 5.882 17.7991 5.86077 17.4664C5.92528 15.9009 5.98529 14.3354 6.04079 12.7699C6.04107 12.7089 6.01814 12.6502 5.97666 12.6056C5.85424 12.4834 5.78131 12.3203 5.77188 12.1476C5.77188 12.1004 5.73474 12.025 5.70211 12.0171C5.59095 11.9949 5.47792 11.9832 5.36456 11.9822C5.35331 11.9822 5.33418 12.025 5.32968 12.0497C5.32719 12.0872 5.32719 12.1248 5.32968 12.1623C5.32968 12.3524 5.25542 12.4121 5.07089 12.3637C5.05037 12.3526 5.03305 12.3365 5.02063 12.3167C5.00821 12.297 5.0011 12.2744 5 12.2512C5.01472 12.1151 5.04337 11.9808 5.08551 11.8506C5.18566 11.5738 5.29817 11.2947 5.41069 11.0168C5.4827 10.8447 5.48945 10.8267 5.35556 10.7006C5.30839 10.665 5.27306 10.616 5.25419 10.56C5.23532 10.504 5.23378 10.4436 5.24979 10.3867C5.26313 10.3175 5.2729 10.2477 5.27905 10.1774C5.29901 10.03 5.2788 9.87998 5.22054 9.74312C5.17993 9.59565 5.15134 9.44513 5.13502 9.29305C5.11975 9.18826 5.09374 9.08533 5.05738 8.98587C5.02261 8.91776 5.00449 8.84237 5.00449 8.7659C5.00449 8.68942 5.02261 8.61404 5.05738 8.54592C5.09188 8.47995 5.11889 8.40942 5.14577 8.33924C5.16886 8.27895 5.19186 8.21891 5.21941 8.16224C5.29803 8.01988 5.31974 7.85301 5.28017 7.69528C5.27104 7.66987 5.27136 7.64201 5.28107 7.61681C5.29078 7.59161 5.30923 7.57074 5.33305 7.55801C5.41396 7.49494 5.49235 7.42852 5.57078 7.36207C5.62106 7.31947 5.67139 7.27684 5.72237 7.23508C5.75596 7.20944 5.78096 7.17417 5.79402 7.13397C5.80709 7.09377 5.8076 7.05055 5.7955 7.01005C5.79084 6.97896 5.78445 6.94816 5.77638 6.91778C5.74306 6.81348 5.73185 6.70337 5.74347 6.59449C5.7551 6.48561 5.7893 6.38035 5.84389 6.28543C5.85993 6.25506 5.86605 6.21944 5.87221 6.18362C5.87815 6.1491 5.88411 6.11439 5.89902 6.08402C5.92358 6.0273 5.96529 5.97969 6.01829 5.94787C6.12181 5.90062 6.16457 5.85111 6.13869 5.72284C6.12089 5.59464 6.11524 5.46504 6.12181 5.33577C6.12441 5.30538 6.11672 5.275 6.09999 5.2495C6.08326 5.22399 6.05845 5.20485 6.02954 5.19513C5.83376 5.11074 5.82138 5.06236 5.92378 4.87445C5.95274 4.82246 5.98317 4.77146 6.01573 4.7169C6.03249 4.6888 6.04982 4.65976 6.0678 4.62916C6.08134 4.63864 6.09436 4.64811 6.1071 4.65737C6.1367 4.6789 6.16471 4.69928 6.19382 4.7158C6.22235 4.73199 6.253 4.74449 6.28613 4.75799C6.30133 4.76419 6.31706 4.7706 6.33334 4.77768C6.35285 4.73111 6.35315 4.67872 6.33418 4.63192C6.31521 4.58513 6.27851 4.54773 6.23208 4.52789C6.09255 4.45588 6.0723 4.42438 6.12631 4.27698C6.17499 4.0241 6.1991 3.76712 6.19832 3.5096C6.213 3.43547 6.24247 3.36506 6.28496 3.30257C6.32817 3.23455 6.37879 3.17165 6.42951 3.10861C6.45011 3.08301 6.47072 3.05739 6.49087 3.0314C6.56063 2.94138 6.537 2.89638 6.44136 2.87725C6.32097 2.85475 6.30521 2.79173 6.32884 2.68372C6.35578 2.57461 6.37667 2.4639 6.39755 2.35326C6.41155 2.27906 6.42555 2.20487 6.44136 2.13125C6.45328 2.09636 6.45285 2.05843 6.44016 2.02382C6.42746 1.98921 6.40325 1.96 6.3716 1.9411C6.31695 1.898 6.25902 1.85925 6.19832 1.8252C6.10943 1.7847 6.10718 1.72619 6.13306 1.65192C6.17619 1.52751 6.27373 1.45568 6.37026 1.3846C6.40468 1.35925 6.43897 1.334 6.47061 1.30649C6.48074 1.29749 6.53813 1.32787 6.55838 1.35263C6.69453 1.52253 6.74403 1.52028 6.84643 1.32787C6.87259 1.26593 6.89366 1.20196 6.90944 1.13659H13.0687C13.2278 1.13659 13.3868 1.12634 13.5459 1.1161C13.7244 1.1046 13.9029 1.09311 14.0814 1.09608C14.3273 1.10018 14.5673 1.1252 14.8075 1.15022C14.8969 1.15954 14.9863 1.16886 15.076 1.1771C15.0888 1.17824 15.1016 1.17975 15.1143 1.18126C15.2018 1.19164 15.2838 1.20136 15.3281 1.08146C15.3411 1.05958 15.3591 1.04106 15.3806 1.02738C15.4021 1.0137 15.4265 1.00525 15.4518 1.00269C15.5643 0.995942 15.6769 1.00269 15.8243 1.01395C15.7892 1.06056 15.7581 1.09728 15.73 1.1305C15.7004 1.16543 15.6741 1.19651 15.6499 1.23111C15.5745 1.34362 15.5778 1.42464 15.6825 1.51128C15.7139 1.53058 15.7411 1.55594 15.7626 1.58587C15.7841 1.61581 15.7995 1.64972 15.8077 1.68564C15.816 1.72155 15.8171 1.75875 15.8108 1.79508C15.8046 1.8314 15.7912 1.86612 15.7714 1.89721C15.7462 1.94765 15.7284 2.00179 15.7105 2.05616C15.6989 2.09154 15.6872 2.12704 15.6735 2.16163C15.6636 2.19536 15.6436 2.22521 15.6161 2.24715C15.5637 2.27824 15.5214 2.3237 15.494 2.37815C15.4667 2.4326 15.4556 2.49374 15.462 2.55432C15.4666 2.63502 15.4489 2.71544 15.4108 2.78672C15.3727 2.858 15.3156 2.91736 15.2459 2.95826C15.196 2.98659 15.1576 3.03137 15.137 3.08493C15.1165 3.1385 15.1152 3.19753 15.1334 3.25194C15.1871 3.55817 15.3065 3.84914 15.4833 4.10482C15.5228 4.15368 15.5529 4.20936 15.5722 4.2691C15.5793 4.3218 15.5707 4.37543 15.5475 4.42325C15.5268 4.45681 15.4977 4.48436 15.4631 4.50314C15.3506 4.57628 15.3033 4.64716 15.3809 4.79006C15.4053 4.84768 15.4065 4.91247 15.3842 4.97094C15.362 5.02941 15.3181 5.07706 15.2617 5.10399C15.185 5.14789 15.1194 5.20872 15.0699 5.28185C15.0204 5.35498 14.9882 5.43847 14.9759 5.52593C14.9611 5.59011 14.927 5.64819 14.878 5.69227C14.8291 5.73636 14.7678 5.76432 14.7025 5.77235C14.5899 5.7971 14.4774 5.81848 14.3649 5.83536C14.3257 5.83803 14.2882 5.8523 14.2572 5.87634C14.2261 5.90038 14.2029 5.93312 14.1905 5.97038C14.1845 5.98772 14.1757 6.00427 14.167 6.02074C14.161 6.03204 14.155 6.04332 14.15 6.05477C14.1138 6.15173 14.0502 6.23604 13.9669 6.29739C13.8835 6.35874 13.7841 6.39447 13.6808 6.4002C13.426 6.44293 13.1769 6.51427 12.9382 6.61286C12.6805 6.71187 12.6006 6.88965 12.7053 7.11469C12.7159 7.13702 12.7278 7.15845 12.7394 7.1793C12.7937 7.27716 12.8409 7.36225 12.7221 7.468C12.727 7.54323 12.7311 7.61856 12.7352 7.69401C12.7454 7.88035 12.7556 8.06742 12.7773 8.25563C12.7904 8.31382 12.7907 8.37418 12.778 8.43249C12.7654 8.4908 12.7402 8.54564 12.7041 8.59318C12.6112 8.7138 12.5355 8.84671 12.4791 8.98812C12.4588 9.0624 12.466 9.14151 12.4993 9.21091C12.5132 9.22928 12.5225 9.25068 12.5265 9.27335C12.5304 9.29603 12.5289 9.31931 12.5221 9.34129C12.5153 9.36328 12.5034 9.38332 12.4873 9.39978C12.4712 9.41623 12.4514 9.42863 12.4296 9.43594C12.4162 9.4434 12.4032 9.45184 12.3908 9.45996L12.3722 9.47195C12.4161 9.66098 12.4003 9.70936 12.2203 9.8005C12.1734 9.8228 12.1336 9.85782 12.1056 9.90158C12.0775 9.94533 12.0623 9.99607 12.0617 10.048C12.0737 10.3198 12.0073 10.5893 11.8704 10.8244C11.8019 10.9077 11.7206 10.9795 11.6296 11.0371C11.5704 11.0745 11.5212 11.1038 11.4805 11.128C11.3827 11.1864 11.3333 11.2158 11.3092 11.2592C11.2848 11.3032 11.2863 11.3616 11.2893 11.4792C11.2905 11.5282 11.292 11.5876 11.292 11.6604C11.2825 11.7431 11.2616 11.8242 11.2301 11.9012C11.1967 11.9832 11.1718 12.0684 11.1559 12.1555C11.1577 12.1925 11.15 12.2293 11.1335 12.2624C11.1169 12.2956 11.0921 12.3238 11.0614 12.3445C10.9972 12.3865 10.9455 12.4448 10.9114 12.5134C10.8774 12.5821 10.8624 12.6586 10.8678 12.735C10.8487 13.2481 10.8262 13.7623 10.7857 14.2742C10.7572 14.4189 10.7119 14.5598 10.6507 14.6939C10.6172 14.7718 10.5916 14.8529 10.5742 14.9358C10.5516 15.1188 10.5396 15.3029 10.5382 15.4872C10.5397 15.6015 10.5571 15.7151 10.5899 15.8247C10.6167 15.9071 10.6245 15.9944 10.6126 16.0802C10.6007 16.1659 10.5695 16.2479 10.5213 16.3198C10.4979 16.3484 10.483 16.383 10.4785 16.4196C10.4739 16.4562 10.4798 16.4934 10.4954 16.5268C10.5213 16.5675 10.5382 16.6133 10.545 16.6611C10.5517 16.7089 10.5482 16.7575 10.5345 16.8038C10.5209 16.8501 10.4975 16.8929 10.4659 16.9293C10.4343 16.9658 10.3952 16.9951 10.3514 17.0152C10.1294 17.1054 10.0883 17.2831 10.0471 17.4614C10.0369 17.5055 10.0267 17.5496 10.0138 17.5924C9.99619 17.6768 9.98305 17.762 9.97444 17.8478C9.9465 17.9652 9.95392 18.0881 9.99577 18.2013C10.0376 18.3144 10.112 18.4126 10.2096 18.4835C10.2888 18.5464 10.3546 18.6245 10.4031 18.7132C10.4516 18.8019 10.4819 18.8994 10.492 19Z" fill="black"/>
<path d="M5.4229 2.19089V1.95572C5.43021 1.91819 5.42693 1.87936 5.41341 1.84359C5.3999 1.80782 5.37669 1.77652 5.34639 1.75319C5.24737 1.67893 5.28338 1.55291 5.40265 1.51015C5.43129 1.49973 5.46061 1.492 5.48956 1.48435L5.51517 1.47752C5.7492 1.41676 5.80771 1.45164 5.86172 1.6823C5.8728 1.71493 5.87236 1.75037 5.86049 1.78272C5.84861 1.81506 5.82602 1.84237 5.79646 1.86008C5.73171 1.92152 5.68468 1.99925 5.66031 2.08512C5.63217 2.16444 5.61129 2.24631 5.59046 2.32804C5.57465 2.39005 5.55885 2.45201 5.53992 2.51269C5.53304 2.53486 5.5111 2.55235 5.48927 2.56975C5.47897 2.57797 5.46869 2.58617 5.46003 2.59483C5.44324 2.56496 5.4311 2.53271 5.42403 2.49919C5.4229 2.39455 5.4229 2.29328 5.4229 2.19089Z" fill="black"/>
<path d="M5.68241 3.21689C5.91532 3.1145 5.90632 2.97497 5.81631 2.6543C5.74516 2.72717 5.69512 2.818 5.67154 2.91708C5.64796 3.01616 5.65171 3.11978 5.68241 3.21689Z" fill="black"/>
<path d="M5.9463 2.14502C5.97079 2.14852 5.99406 2.15791 6.01412 2.17237C6.03418 2.18683 6.05044 2.20595 6.0615 2.22807C6.07256 2.25019 6.07809 2.27467 6.07763 2.29939C6.07716 2.32412 6.07071 2.34837 6.05882 2.37006C6.04625 2.39316 6.02705 2.41198 6.00368 2.42407C5.99492 2.41655 5.98515 2.40898 5.97519 2.40127C5.94043 2.37434 5.90342 2.34566 5.89904 2.31155C5.89484 2.27876 5.91324 2.23154 5.93033 2.1877C5.93611 2.17285 5.94175 2.1584 5.9463 2.14502Z" fill="black"/>
<path d="M5.98082 3.22762C5.96306 3.21531 5.94452 3.20245 5.92743 3.1875C5.92358 3.21269 5.91583 3.23686 5.90843 3.25993C5.88772 3.32448 5.86977 3.38045 5.94768 3.42604C5.96773 3.42873 5.98814 3.42598 6.00675 3.41806C6.02536 3.41014 6.0415 3.39734 6.05345 3.38103C6.08692 3.30121 6.03791 3.26722 5.98082 3.22762Z" fill="black"/>
</svg>
