<svg width="20" height="20" viewBox="0 0 20 20" fill="none" xmlns="http://www.w3.org/2000/svg">
<path d="M16.4363 11.4794L16.7421 11.7493C16.7766 11.6902 16.8056 11.6281 16.8287 11.5637C16.8606 11.412 16.766 11.3545 16.67 11.2962C16.6273 11.2702 16.5843 11.2441 16.5521 11.2095L16.687 11.1196C16.5278 11.0893 16.3754 11.0302 16.2373 10.9453C16.0702 10.7641 15.9197 10.5685 15.7875 10.3606C15.7852 10.3572 15.7942 10.3437 15.7942 10.3493C16.0141 10.3723 16.0988 10.5232 16.1857 10.678C16.2223 10.7433 16.2593 10.8092 16.307 10.8666V10.6484L16.6443 10.9678C16.6622 10.8987 16.678 10.8345 16.6929 10.7738C16.7238 10.6478 16.7511 10.5369 16.786 10.4292L16.7902 10.4166C16.8659 10.1897 16.8661 10.189 16.6342 10.0918C16.3749 9.97228 16.1639 9.76806 16.036 9.51275C15.9166 9.52523 15.7961 9.52297 15.6773 9.506C15.5479 9.48625 15.429 9.42323 15.34 9.32721C15.3282 9.30958 15.3155 9.29171 15.3026 9.27349C15.2265 9.16624 15.1419 9.04696 15.187 8.89318C15.1892 8.88661 15.1781 8.87576 15.1636 8.86158C15.1558 8.85392 15.147 8.84529 15.1387 8.83583C15.0747 8.90094 14.9944 8.9477 14.9062 8.97123C14.818 8.99476 14.7251 8.99422 14.6372 8.96964C14.5817 8.8752 14.5565 8.76596 14.5652 8.65674C14.5738 8.54752 14.6158 8.4436 14.6855 8.35907C14.723 8.31511 14.7729 8.28664 14.8235 8.25777C14.9037 8.21205 14.9857 8.1653 15.0229 8.05435C15.0291 8.02783 15.05 8.00252 15.0723 7.97563C15.1067 7.93412 15.1442 7.88883 15.1353 7.82946C15.1299 7.79289 15.1313 7.75287 15.1327 7.71332C15.1351 7.64707 15.1375 7.58217 15.1072 7.53711C15.0389 7.40362 14.9415 7.28715 14.8222 7.19628C14.7029 7.1054 14.5648 7.04243 14.4179 7.01199C14.302 6.98431 14.1984 6.91909 14.1233 6.82646C14.1008 6.80735 14.1256 6.70615 14.1447 6.66904C14.1583 6.64266 14.1883 6.62367 14.2163 6.60601C14.2277 6.59882 14.2387 6.59186 14.2481 6.58471C14.2183 6.55398 14.1904 6.52359 14.1633 6.49398C14.1199 6.44665 14.0783 6.40132 14.0334 6.35982C13.9659 6.31721 13.8844 6.30276 13.8064 6.31958C13.7284 6.3364 13.6601 6.38315 13.6162 6.44978L13.4295 6.81522L12.485 6C12.3129 6.16082 12.2083 6.38112 12.1927 6.61619C12.1851 6.72253 12.1358 6.82157 12.0555 6.89168C12.0389 6.90913 12.0209 6.926 12.0027 6.94303C11.9295 7.01158 11.8535 7.08268 11.8598 7.20427C11.8608 7.22003 11.8299 7.23923 11.8056 7.25433C11.8021 7.25648 11.7988 7.25854 11.7957 7.2605C11.7745 7.27467 11.7503 7.28831 11.7271 7.30142C11.7024 7.31536 11.6788 7.32871 11.6608 7.34145C11.6455 7.35232 11.6295 7.37122 11.6149 7.38851C11.5963 7.41059 11.5798 7.43006 11.5697 7.42691C11.4503 7.3874 11.4136 7.46076 11.3789 7.53018C11.3681 7.55163 11.3576 7.5727 11.3448 7.58996C11.2903 7.68455 11.2437 7.78346 11.2054 7.88568L10.9929 7.58771C10.9273 7.71278 10.8639 7.83389 10.8019 7.95226C10.6717 8.20102 10.5477 8.43773 10.4228 8.67391C10.4051 8.71913 10.3746 8.7582 10.3351 8.78636C10.2489 8.78737 10.1635 8.77017 10.0844 8.73587C10.0054 8.70157 9.93445 8.65095 9.87632 8.58733C9.85864 8.51633 9.81619 8.45397 9.75661 8.4115C9.69703 8.36903 9.62424 8.34924 9.55135 8.3557C9.5484 8.3616 9.54502 8.3675 9.54159 8.37349C9.53717 8.38121 9.53266 8.38908 9.52887 8.3973C9.49654 8.4716 9.48116 8.55339 9.46577 8.63524C9.43457 8.80114 9.40331 8.96731 9.23089 9.07197C9.22682 9.07579 9.22377 9.08057 9.222 9.08587C9.22023 9.09117 9.21981 9.09682 9.22077 9.10233C9.25413 9.20241 9.19638 9.24783 9.13763 9.29404C9.11915 9.30857 9.10058 9.32317 9.08471 9.33958C9.04286 9.38216 9.00863 9.4316 8.98351 9.48576C8.93345 9.62415 8.87254 9.75838 8.80135 9.88718C8.69842 10.042 8.57992 10.1868 8.46161 10.3315C8.42095 10.3812 8.38031 10.4308 8.34033 10.4809C8.14693 10.7226 8.14581 10.7271 8.28299 10.9678C8.26357 10.9911 8.23668 11.0108 8.20994 11.0304C8.13608 11.0846 8.06339 11.138 8.15255 11.2635L7.80173 11.4884L7.7084 11.3568C7.62722 11.3798 7.55366 11.4276 7.48177 11.4742C7.31469 11.5826 7.1566 11.6852 6.93254 11.458V11.72L6.13081 11.9809L5.91267 11.7875C5.85037 11.8199 5.791 11.8517 5.73346 11.8825C5.58956 11.9596 5.45713 12.0305 5.31897 12.09C5.27766 12.1081 5.20656 12.0712 5.14936 12.0414C5.14271 12.038 5.13626 12.0346 5.13006 12.0315C5.04146 11.9922 4.95922 11.9399 4.88606 11.8763C4.79697 11.7843 4.71817 11.6829 4.65105 11.5738C4.61431 11.4986 4.5853 11.4199 4.56447 11.3388L4.61282 11.232H4.55098C4.51833 11.2534 4.48749 11.2775 4.45877 11.304C4.08206 11.6683 3.64733 11.9673 3.17242 12.1889C3.12049 12.2092 3.07136 12.236 3.02624 12.2687C2.98419 12.2992 2.954 12.3433 2.94078 12.3936C2.93795 12.4406 2.92159 12.4857 2.89365 12.5237C2.86572 12.5616 2.82742 12.5906 2.78336 12.6072C2.74063 12.6286 2.67092 12.6837 2.67092 12.7196C2.69003 12.9243 2.57646 12.9861 2.40555 12.994C2.3444 12.9895 2.2837 13.0075 2.23485 13.0445C2.18599 13.0816 2.15233 13.1352 2.14018 13.1953C2.12894 13.2403 2.09858 13.3032 2.06259 13.3156C1.92056 13.3646 1.77853 13.4082 1.6365 13.4518C1.55364 13.4773 1.47079 13.5027 1.38793 13.5292C1.30098 13.5562 1.21502 13.5862 1.12907 13.6162C1.08609 13.6312 1.04311 13.6462 1 13.6608L1.00337 13.7035C1.0461 13.7103 1.08771 13.7103 1.13043 13.7103C3.37481 13.7148 5.61357 13.7586 7.86245 13.807C10.027 13.8534 12.1915 13.8413 14.3561 13.8292C15.34 13.8237 16.3238 13.8182 17.3077 13.8182C17.3334 13.817 17.3589 13.814 17.3842 13.8092C17.4885 13.4943 17.4825 13.1533 17.3673 12.8422C17.3214 12.8419 17.2751 12.846 17.2288 12.85C17.0854 12.8624 16.9421 12.8748 16.813 12.7601C16.7939 12.7421 16.696 12.7714 16.6724 12.8051C16.6105 12.8935 16.5287 12.9056 16.434 12.9197C16.3757 12.9283 16.3126 12.9376 16.2463 12.9659C16.3726 12.7335 16.2492 12.6591 16.1313 12.588C16.1117 12.5762 16.0923 12.5644 16.0742 12.5521C16.0613 12.5433 16.048 12.5353 16.0349 12.5275C15.973 12.4903 15.917 12.4568 15.9393 12.3565C15.9442 12.3358 15.9071 12.3024 15.8781 12.2762C15.8739 12.2724 15.8699 12.2688 15.8662 12.2654C15.8237 12.2267 15.7796 12.1902 15.7267 12.1464C15.7025 12.1264 15.6766 12.1049 15.6481 12.081C15.6764 12.0759 15.7002 12.072 15.7207 12.0686C15.7638 12.0615 15.7927 12.0567 15.8201 12.0484C15.9753 11.9955 16.0529 12.0484 16.045 12.2204C16.0461 12.2524 16.0598 12.2828 16.0832 12.3047C16.1867 12.399 16.2922 12.4907 16.3952 12.5804C16.4298 12.6106 16.4642 12.6405 16.4981 12.6702L16.7523 12.5577C16.7384 12.5175 16.7311 12.4741 16.7238 12.4304C16.7054 12.3215 16.6868 12.2107 16.5656 12.1417C16.434 12.0663 16.3936 11.9764 16.5364 11.8516L16.4363 11.8167V11.4794Z" fill="black"/>
<path d="M18.7798 10.2123L18.9923 9.91992L19.0013 9.88281C18.9873 9.89324 18.974 9.90382 18.9609 9.91423C18.9372 9.93299 18.9142 9.95123 18.8889 9.96714C18.8314 10.012 18.7662 10.0463 18.6966 10.0683C18.6806 10.0714 18.6563 10.0285 18.6276 9.97771C18.614 9.95359 18.5994 9.92772 18.5842 9.90417C18.467 9.90112 18.3501 9.91668 18.2379 9.95028C18.1724 9.9799 18.1215 10.0441 18.0702 10.1088C18.0475 10.1374 18.0248 10.1662 18.0006 10.192C18.1131 10.2426 18.0849 10.3495 18.0006 10.4001C17.8908 10.4652 17.842 10.5656 17.7934 10.6656C17.7673 10.7192 17.7413 10.7727 17.706 10.8206C17.5659 11.0181 17.478 11.2479 17.4507 11.4885C17.4481 11.6037 17.4264 11.7177 17.3866 11.8258C17.3013 11.9881 17.371 12.0991 17.4532 12.2299C17.4587 12.2387 17.4643 12.2475 17.4699 12.2565C17.4819 12.2307 17.4906 12.2035 17.4957 12.1755C17.5366 11.8818 17.6385 11.5999 17.7948 11.348C17.8001 11.334 17.8134 11.3234 17.8265 11.313C17.8303 11.3101 17.834 11.3071 17.8375 11.3041L18.095 11.0848L18.1322 11.2355L18.1783 11.2231C18.1694 11.1734 18.1578 11.1242 18.1434 11.0758C18.1395 11.0646 18.1349 11.0533 18.1304 11.042C18.1036 10.9761 18.0784 10.9137 18.1985 10.8858C18.21 10.8831 18.2158 10.8595 18.2221 10.834C18.2262 10.8173 18.2305 10.7998 18.2367 10.7869C18.2764 10.6879 18.3233 10.5921 18.3773 10.5001C18.4047 10.4584 18.4384 10.4234 18.4726 10.3878C18.5139 10.3448 18.556 10.301 18.5887 10.2438C18.6483 10.1392 18.7034 10.1268 18.7798 10.2123Z" fill="black"/>
</svg>
