<svg width="20" height="20" viewBox="0 0 20 20" fill="none" xmlns="http://www.w3.org/2000/svg">
<path d="M4.2091 17.5248C4.04145 17.5248 3.87154 17.5338 3.71063 17.5248C3.67698 17.5206 3.64455 17.5096 3.61533 17.4923C3.58611 17.4751 3.56072 17.4521 3.54073 17.4247C3.47745 17.3089 3.37243 17.2216 3.24705 17.1805C3.022 17.095 2.73057 17.0376 2.64168 16.7462C2.5843 16.5594 2.41664 16.5054 2.28274 16.4019C2.23211 16.3614 2.16347 16.3164 2.14772 16.2612C2.13853 16.2033 2.11217 16.1495 2.07204 16.1068C2.03192 16.0641 1.97988 16.0344 1.92267 16.0216C1.80115 15.9833 1.77752 15.8224 1.86866 15.6986C1.66643 15.5932 1.50146 15.4283 1.39607 15.226C1.35622 15.1679 1.29528 15.1275 1.22617 15.1135C1.09114 15.0786 1.04276 15.0089 1.1204 14.8885C1.15186 14.8495 1.16758 14.8002 1.16445 14.7502C1.16133 14.7002 1.13959 14.6532 1.10352 14.6184C1.07651 14.5835 1.05739 14.4935 1.07651 14.4778C1.23967 14.3383 1.13052 14.1942 1.09227 14.0536C1.06526 13.9546 1.02813 13.8578 1 13.7745C1.20591 13.6496 1.3837 13.5326 1.57048 13.437C1.6437 13.4035 1.72441 13.39 1.80453 13.3976C1.92717 13.4077 2.00931 13.3886 2.00931 13.2367C2.00931 13.0578 2.02957 12.8789 2.03182 12.6988C2.03182 12.5548 2.11958 12.5053 2.24223 12.4873C2.44927 12.458 2.48528 12.3838 2.40876 12.1891C2.36713 12.0845 2.35588 11.9641 2.32437 11.8583C2.31267 11.7958 2.28603 11.7372 2.24673 11.6873C2.22606 11.6725 2.20921 11.653 2.19759 11.6304C2.18597 11.6078 2.1799 11.5827 2.1799 11.5573C2.1799 11.5319 2.18597 11.5068 2.19759 11.4842C2.20921 11.4616 2.22606 11.4421 2.24673 11.4273C2.31332 11.3808 2.36037 11.3113 2.37885 11.2321C2.39733 11.153 2.38594 11.0699 2.34688 10.9986C2.3714 10.7951 2.44222 10.6 2.55392 10.4281C2.59984 10.3754 2.64019 10.3181 2.67431 10.2571C2.77221 10.2852 2.86672 10.3145 2.96237 10.3381C3.02828 10.3593 3.0844 10.4034 3.12053 10.4625C3.15666 10.5216 3.17041 10.5916 3.15928 10.6599C3.14353 10.7274 3.06589 10.822 3.20316 10.8388C3.31568 10.8523 3.41695 10.8186 3.42821 10.6791C3.43833 10.5981 3.44846 10.517 3.46196 10.4045C3.52272 10.4495 3.5531 10.49 3.58799 10.4945C3.64263 10.5052 3.69926 10.4972 3.74889 10.472C3.77252 10.4563 3.77027 10.3786 3.75677 10.3359C3.70982 10.2198 3.67695 10.0986 3.65887 9.97468C3.61152 9.96429 3.5665 9.94521 3.5261 9.91842C3.48861 9.88104 3.4655 9.83163 3.46084 9.7789C3.46084 9.75077 3.52047 9.70463 3.55873 9.69901C3.68363 9.67988 3.69038 9.59436 3.65662 9.51447C3.60412 9.42858 3.58326 9.32705 3.59764 9.22741C3.61202 9.12778 3.66074 9.03629 3.73539 8.96874C3.74439 8.96087 3.74326 8.93949 3.74326 8.92486C3.73539 8.66044 3.74326 8.64581 3.99531 8.66606C4.01726 8.67093 4.04003 8.67067 4.06185 8.66531C4.08368 8.65995 4.10398 8.64964 4.12118 8.63516C4.13837 8.62069 4.152 8.60244 4.16101 8.58185C4.17001 8.56125 4.17415 8.53886 4.17309 8.51641C4.17323 8.43851 4.17849 8.3607 4.18885 8.28349C4.20786 8.22884 4.23902 8.17921 4.27999 8.13834C4.33963 8.0697 4.41502 8.01457 4.4679 7.94143C4.52079 7.86829 4.58042 7.86266 4.62768 7.94818C4.65417 8.00152 4.68543 8.05237 4.72107 8.10008C4.73824 8.12185 4.76012 8.13945 4.78506 8.15155C4.81001 8.16365 4.83737 8.16993 4.8651 8.16993C4.89283 8.16993 4.92019 8.16365 4.94514 8.15155C4.97008 8.13945 4.99196 8.12185 5.00913 8.10008C5.09914 8.01344 5.21842 7.95493 5.30168 7.86379C5.4455 7.66771 5.61291 7.49009 5.80015 7.33494C5.81365 7.01988 6.06458 6.82522 6.21198 6.5878C6.36411 6.42135 6.45568 6.20847 6.4719 5.98356C6.4719 5.88342 6.56417 5.78102 6.43927 5.68875C6.43735 5.68685 6.43586 5.68456 6.43489 5.68204C6.43392 5.67952 6.4335 5.67682 6.43364 5.67413C6.46365 5.47609 6.49403 5.27805 6.52479 5.08002C6.53908 5.03222 6.54591 4.9825 6.54504 4.93261C6.53266 4.85722 6.52816 4.80546 6.62268 4.78633C6.65194 4.78071 6.69582 4.7312 6.69244 4.70532C6.67781 4.57029 6.64518 4.43752 6.62943 4.30249C6.61368 4.16747 6.60468 4.01106 6.59455 3.86479C6.59455 3.79165 6.58555 3.71851 6.5833 3.64537C6.5833 3.55198 6.5833 3.45859 6.5833 3.36632C6.58727 3.32255 6.59672 3.27946 6.61143 3.23804C6.63076 3.1459 6.66098 3.05638 6.70144 2.97137C6.73539 2.89095 6.75098 2.80398 6.74708 2.71678C6.74319 2.62958 6.71991 2.54435 6.67894 2.46728C6.63297 2.36316 6.59534 2.25555 6.56642 2.14546C6.52366 2.00819 6.47978 1.86866 6.42914 1.73026C6.37798 1.64495 6.34004 1.55239 6.31662 1.45571C6.31691 1.353 6.35588 1.25417 6.42577 1.17891C6.52948 1.10397 6.64309 1.04376 6.76333 1L7.76139 5.63249L11.7761 4.7087L12.2937 7.31243C12.4355 7.1099 12.5525 6.93886 12.6763 6.77233C12.7101 6.7262 12.7663 6.65981 12.8113 6.65981C12.97 6.65981 13.0037 6.57205 13.0015 6.4494C13.0015 6.25699 13.1737 6.1771 13.2502 6.03532C13.3267 5.89354 13.5529 5.81028 13.5472 5.58524C13.5472 5.56048 13.644 5.50647 13.6879 5.51322C13.7804 5.53898 13.8698 5.57483 13.9546 5.62012C14.2178 5.29381 14.3957 4.90712 14.4722 4.49491H14.6432C14.6263 4.56129 14.6139 4.60743 14.6004 4.66369C14.8028 4.77475 15.0383 4.80986 15.2643 4.76271C15.3639 4.76202 15.4632 4.77527 15.5591 4.80209C15.7718 4.82572 15.8292 4.78296 15.882 4.58267L15.7504 4.43639L15.9372 4.352L15.8247 4.21698C16.0609 4.22936 16.1937 3.90867 16.412 4.08083C16.4942 3.97731 16.5639 3.89292 16.6303 3.8074C16.6517 3.77927 16.6629 3.74214 16.6854 3.71626C16.7079 3.69038 16.7586 3.63187 16.7732 3.63862C16.9442 3.71851 17.1445 3.61274 17.3189 3.76127C17.4714 3.85297 17.6379 3.91911 17.8118 3.95705V3.90867L18.0695 3.76577L18.2821 3.90192L18.1122 4.05607L18.2247 4.20685L18.3564 4.11571V4.32275L18.6422 4.29912L18.5848 4.63668L18.6973 4.66144L19 5.13177L18.6951 6.0747L16.4233 5.09127L16.3783 5.12277L16.5718 5.58861C16.5169 5.68135 16.4724 5.77983 16.439 5.88229C16.4153 5.98324 16.42 6.08877 16.4525 6.18722C16.4813 6.26105 16.4892 6.34138 16.4753 6.4194C16.4614 6.49742 16.4263 6.57009 16.3738 6.62943C16.2739 6.80839 16.1921 6.99686 16.1296 7.19204C16.09 7.28674 16.0429 7.37816 15.9889 7.46546C15.8941 7.61632 15.7908 7.7617 15.6795 7.90092C15.6379 7.95155 15.5546 7.96393 15.4961 8.00219C15.4376 8.04045 15.3656 8.08095 15.3431 8.13834C15.2508 8.37013 15.1743 8.60868 15.091 8.84947C14.9481 8.78871 14.8176 8.72907 14.6837 8.67957C14.639 8.66331 14.59 8.66331 14.5453 8.67957C14.5284 8.68632 14.5453 8.75833 14.5374 8.79884C14.5295 8.83935 14.5374 8.91136 14.5059 8.94512C14.451 9.00115 14.4133 9.07169 14.3972 9.14843C14.381 9.22517 14.3871 9.30493 14.4148 9.37832C14.4333 9.42781 14.4368 9.48167 14.4248 9.53313C14.4127 9.58458 14.3858 9.63134 14.3473 9.6675C14.2976 9.73822 14.2662 9.8202 14.2561 9.90605C14.2392 9.97468 14.2662 10.0726 14.2269 10.1153C14.1738 10.1849 14.137 10.2655 14.1191 10.3512C14.1012 10.4368 14.1026 10.5254 14.1233 10.6104C14.1259 10.6702 14.1142 10.7297 14.0892 10.7841C14.0641 10.8384 14.0266 10.886 13.9795 10.923C13.9324 10.9599 13.8773 10.9851 13.8185 10.9965C13.7598 11.0079 13.6992 11.0052 13.6417 10.9885C13.5842 10.9676 13.5227 10.9599 13.4617 10.966C13.3741 10.9891 13.2811 10.9788 13.2007 10.9372C13.1203 10.8957 13.0581 10.8257 13.0263 10.741C12.9737 10.6292 12.8833 10.5396 12.7711 10.4879C12.659 10.4362 12.5321 10.4258 12.413 10.4585C12.3662 10.4628 12.323 10.4852 12.2925 10.521C12.262 10.5567 12.2467 10.6029 12.2499 10.6498C12.2206 11.0279 12.3252 11.4251 12.0957 11.775C12.0875 11.7926 12.0832 11.8118 12.0832 11.8313C12.0832 11.8507 12.0875 11.8699 12.0957 11.8875C12.1383 11.9792 12.1503 12.0821 12.13 12.1812C12.1098 12.2802 12.0583 12.3701 11.9832 12.4378C11.8678 12.552 11.8009 12.7064 11.7964 12.8687C11.7951 12.936 11.7757 13.0017 11.7401 13.0589C11.6463 13.2104 11.6066 13.3893 11.6276 13.5664C11.6261 13.6011 11.6175 13.6352 11.6025 13.6665C11.5874 13.6979 11.5661 13.7258 11.5399 13.7486C11.3897 13.8585 11.2833 14.0179 11.2394 14.1987C11.1675 14.403 11.0609 14.5933 10.9244 14.7613C10.787 14.9918 10.7296 15.2612 10.7612 15.5276C10.8546 15.585 10.9862 15.6289 10.9862 15.6716C10.9756 15.7646 10.9363 15.8519 10.8737 15.9214C10.8456 15.9442 10.824 15.974 10.8109 16.0077C10.7978 16.0414 10.7937 16.078 10.7991 16.1137C10.8044 16.1495 10.819 16.1833 10.8413 16.2117C10.8637 16.2401 10.8931 16.2622 10.9266 16.2759C10.8377 16.3659 10.7511 16.4581 10.6577 16.5437C10.624 16.568 10.5857 16.5852 10.5452 16.5943C10.5148 16.6044 10.4585 16.5943 10.4518 16.6112C10.3685 16.8115 10.2481 16.798 10.0872 16.6989C10.0534 16.6787 9.96006 16.7259 9.91055 16.7631C9.73839 16.8947 9.57298 17.0354 9.4042 17.1738C9.34637 17.24 9.26499 17.2811 9.17736 17.2882C9.08974 17.2953 9.00278 17.268 8.93499 17.212C8.88389 17.1863 8.82649 17.1758 8.76958 17.1817C8.73722 17.2549 8.72147 17.3345 8.72345 17.4146C8.72345 17.4753 8.81459 17.5586 8.79546 17.5879C8.72266 17.716 8.62781 17.8303 8.51528 17.9254C8.40985 17.988 8.29332 18.0297 8.17209 18.0481C7.96447 18.0932 7.77492 18.1989 7.62749 18.3519C7.45984 18.5285 7.36982 18.524 7.17741 18.3755C7.12902 18.3373 7.07839 18.3024 7.02776 18.2697C7.0082 18.2539 6.98563 18.2423 6.96143 18.2354C6.93722 18.2286 6.91188 18.2268 6.88694 18.23C6.862 18.2333 6.83799 18.2416 6.81635 18.2544C6.79472 18.2672 6.77591 18.2843 6.76108 18.3046C6.60018 18.4734 6.43815 18.6422 6.26599 18.7997C6.18418 18.8771 6.0848 18.9333 5.9764 18.9637C5.868 18.9941 5.75383 18.9977 5.64375 18.9741C5.43034 18.9287 5.22354 18.8565 5.02826 18.7592C4.80321 18.6287 4.53541 18.488 4.52866 18.155C4.52866 18.137 4.50391 18.1043 4.49153 18.1043C4.24398 18.1043 4.28674 17.8523 4.17422 17.7341C4.13821 17.7015 4.1956 17.5879 4.2091 17.5248Z" fill="black"/>
</svg>
