<svg width="20" height="20" viewBox="0 0 20 20" fill="none" xmlns="http://www.w3.org/2000/svg">
<path d="M1.0053 6.60923C1.00357 6.63856 1.00181 6.66831 1 6.69859C1.03418 6.70609 1.06709 6.71295 1.09897 6.71959C1.18666 6.73786 1.26661 6.75453 1.34414 6.77844C1.3869 6.79445 1.42377 6.82308 1.44986 6.86054C1.49559 6.94327 1.54668 7.02292 1.60281 7.09897C1.65746 7.14521 1.69275 7.21028 1.70171 7.2813C1.71066 7.35232 1.69263 7.42412 1.65117 7.48247C1.61504 7.54519 1.57405 7.60498 1.52858 7.66129C1.44177 7.77682 1.38475 7.91196 1.36259 8.05476C1.34042 8.19757 1.35379 8.34363 1.4015 8.48004C1.40512 8.50875 1.4029 8.53789 1.39497 8.56572C1.38705 8.59355 1.37359 8.61949 1.35539 8.64199C1.31316 8.6777 1.28558 8.72773 1.2779 8.7825C1.27023 8.83727 1.283 8.89295 1.31378 8.93889C1.35845 9.02489 1.38015 9.12096 1.37676 9.21781C1.3727 9.35152 1.34843 9.48386 1.30478 9.61031C1.24568 9.74268 1.24123 9.89304 1.29241 10.0287C1.34359 10.1643 1.44625 10.2742 1.57807 10.3346C1.65323 10.382 1.71668 10.4458 1.76364 10.5213C1.79669 10.6018 1.85158 10.6716 1.92211 10.7226C1.99265 10.7737 2.07603 10.8041 2.16289 10.8103C2.2573 10.8074 2.35178 10.813 2.44517 10.8272C2.50141 10.8384 2.58013 10.8755 2.597 10.9205C2.63408 11.0101 2.69067 11.0903 2.76265 11.1553C2.83463 11.2203 2.9202 11.2684 3.01312 11.2962C3.13428 11.3636 3.25977 11.423 3.38875 11.4739C3.67391 11.5518 3.74751 11.7665 3.82226 11.9846C3.8392 12.034 3.8562 12.0836 3.87573 12.1318C3.90313 12.2053 3.94654 12.2717 4.00281 12.3263C4.0757 12.3909 4.15238 12.4515 4.22904 12.5121C4.33926 12.5993 4.44943 12.6864 4.54827 12.7852C4.66241 12.9203 4.82278 13.0081 4.99813 13.0315C5.05032 13.0352 5.10057 13.0528 5.14368 13.0825C5.18678 13.1121 5.22118 13.1528 5.2433 13.2002C5.36026 13.4094 5.48847 13.6107 5.62118 13.8097C5.68577 13.9062 5.70962 14.0242 5.68754 14.1381C5.64546 14.3252 5.64278 14.519 5.67966 14.7072C5.77424 14.9439 5.81644 15.1983 5.80337 15.4529C5.79595 15.4816 5.79459 15.5115 5.79938 15.5408C5.80417 15.5701 5.815 15.5981 5.83119 15.6229C5.84737 15.6478 5.86856 15.669 5.8934 15.6852C5.91823 15.7014 5.94618 15.7123 5.97545 15.7172C6.02571 15.7285 6.07215 15.7527 6.11021 15.7875C6.14827 15.8222 6.17664 15.8662 6.19252 15.9152C6.20841 15.9643 6.21126 16.0166 6.20081 16.067C6.19035 16.1175 6.16695 16.1643 6.1329 16.203C6.02404 16.3404 5.95365 16.5042 5.92895 16.6777C5.90424 16.8512 5.92611 17.0282 5.99232 17.1904C6.05752 17.3382 6.10253 17.494 6.12615 17.6538C6.15989 18.0519 6.43993 18.1936 6.75595 18.3061C6.82846 18.3361 6.90382 18.3587 6.98088 18.3736C7.07539 18.3793 7.16495 18.4179 7.23412 18.4825C7.3033 18.5472 7.34777 18.6339 7.35989 18.7278C7.36406 18.7648 7.37578 18.8005 7.39433 18.8327C7.41288 18.8649 7.43785 18.8929 7.4677 18.9151C7.49755 18.9372 7.53164 18.953 7.56785 18.9614C7.60405 18.9698 7.6416 18.9707 7.67816 18.964H7.77826L15.373 19H15.5653C15.5653 18.9595 15.5644 18.9212 15.5635 18.8844C15.5618 18.8147 15.5602 18.7502 15.5653 18.6862C15.5691 18.6403 15.5726 18.5942 15.5762 18.548C15.5904 18.361 15.6048 18.1727 15.6373 17.9923C15.6505 17.9369 15.6502 17.8792 15.6363 17.8239C15.6224 17.7687 15.5953 17.7177 15.5575 17.6752C15.5082 17.61 15.4793 17.5318 15.4742 17.4502C15.4035 17.136 15.3658 16.8152 15.3618 16.4932C15.3629 16.4819 15.3589 16.4707 15.3547 16.4593C15.3509 16.449 15.3471 16.4386 15.3471 16.4279C15.2872 16.15 15.2961 15.8616 15.373 15.5878C15.4018 15.5123 15.439 15.4395 15.4763 15.3668C15.5645 15.1946 15.6528 15.0224 15.6283 14.8129C15.6269 14.8012 15.6353 14.789 15.6438 14.7767C15.6491 14.7689 15.6545 14.7611 15.6575 14.7533C15.8131 14.4696 15.8775 14.1449 15.842 13.8232C15.8115 13.7216 15.8042 13.6143 15.8206 13.5095C15.9095 13.1923 16.0163 12.8808 16.1288 12.5693C16.1333 12.5562 16.1523 12.5488 16.1724 12.541C16.187 12.5353 16.2023 12.5294 16.2131 12.5209C16.3964 12.3679 16.483 12.2319 16.3829 12.0306C16.3607 11.9628 16.3549 11.8907 16.3661 11.8202C16.4282 11.1656 16.6238 10.5306 16.9408 9.95445C17.0719 9.72971 17.2197 9.51506 17.3828 9.31228C17.3711 9.22953 17.3836 9.14518 17.4187 9.06935C17.4317 9.03868 17.4505 9.01041 17.4692 8.98232C17.4908 8.94965 17.5124 8.91722 17.5245 8.88154C17.5398 8.8331 17.5749 8.79197 17.61 8.75076C17.6753 8.67428 17.7407 8.59753 17.6808 8.47329C17.7861 8.43232 17.7806 8.3547 17.775 8.27635C17.772 8.23426 17.769 8.19196 17.7831 8.15501L17.9113 8.1269L17.8765 7.87723C17.6932 7.9447 17.5605 8.01668 17.5391 8.22249C17.5331 8.28482 17.5039 8.34262 17.4572 8.38432C17.4105 8.42602 17.3498 8.44855 17.2872 8.44742C17.2653 8.45209 17.2447 8.46131 17.2267 8.47449C17.2087 8.48767 17.1936 8.50451 17.1826 8.5239C17.1458 8.58766 17.1151 8.65483 17.0837 8.72332C17.0642 8.76597 17.0444 8.80913 17.0229 8.8523C16.8695 9.07125 16.7711 9.32393 16.7361 9.58894C16.7361 9.59401 16.7323 9.59908 16.7273 9.60596C16.7245 9.60976 16.7213 9.6141 16.7181 9.61931L16.645 9.53608C16.5644 9.56921 16.4813 9.5959 16.3964 9.61593C16.3214 9.6184 16.2482 9.64045 16.1843 9.67991C16.1204 9.71937 16.0679 9.77485 16.0321 9.84086C15.9437 10.0208 15.8514 10.1938 15.7588 10.3673L15.7396 10.4032C15.7342 10.4127 15.7288 10.4236 15.7232 10.4349C15.7056 10.4703 15.6865 10.5088 15.6609 10.5157C15.5072 10.5627 15.378 10.6681 15.301 10.8092C15.266 10.8396 15.2245 10.8616 15.1797 10.8735C15.1348 10.8854 15.0879 10.8869 15.0424 10.8778C14.9231 10.8575 14.9411 10.753 14.9749 10.6529C15.0226 10.511 15.0602 10.3659 15.0873 10.2187C15.1288 9.9814 15.2474 9.76437 15.4247 9.60131L15.4282 9.59802C15.4706 9.55792 15.526 9.50551 15.526 9.45736C15.535 9.25717 15.6542 9.18744 15.8262 9.18744C15.8904 9.18585 15.9521 9.1618 16.0003 9.11947C16.0486 9.07713 16.0806 9.0192 16.0905 8.95576C16.1139 8.8617 16.1315 8.7663 16.1434 8.6701C16.0842 8.6667 16.0268 8.64838 15.9765 8.61686C15.9263 8.58533 15.8848 8.54163 15.856 8.48979C15.8272 8.43796 15.8119 8.37968 15.8116 8.32036C15.8113 8.26105 15.826 8.20263 15.8544 8.15052C15.8676 8.11321 15.8814 8.07608 15.8951 8.03896C15.9316 7.94064 15.968 7.84237 15.9949 7.74114C16.0108 7.67545 16.0049 7.60637 15.9781 7.54433C15.9691 7.52296 15.8712 7.53308 15.8172 7.54433C15.7751 7.55308 15.7338 7.56636 15.6925 7.57963C15.6489 7.59364 15.6053 7.60764 15.5608 7.61631C15.5166 7.62548 15.4705 7.61786 15.4315 7.59494C15.4135 7.58257 15.4236 7.52071 15.4315 7.48247C15.5175 7.25565 15.5446 7.01071 15.5102 6.77057C15.6913 6.71659 15.698 6.61649 15.5395 6.34433L15.6171 6.23186C15.5125 6.07779 15.4124 5.94845 15.2077 5.94845C15.1826 5.94919 15.1575 5.91508 15.1274 5.87407C15.1115 5.85256 15.0943 5.82915 15.075 5.80787C15.0496 5.81006 15.0222 5.8153 14.9937 5.82074C14.8756 5.84332 14.7391 5.8694 14.6566 5.69541C14.6689 5.67411 14.6838 5.65272 14.6986 5.63137C14.7339 5.58056 14.7691 5.53003 14.7691 5.48172C14.7545 5.26017 14.5993 5.15895 14.3642 5.15895C14.2781 5.16029 14.1934 5.13687 14.1202 5.09147C14.0158 5.00798 13.8833 4.96772 13.7501 4.97901C13.7029 4.98463 13.6197 4.98463 13.6096 4.96214C13.5594 4.8489 13.4894 4.87253 13.4193 4.89616C13.3982 4.90328 13.3771 4.91039 13.3565 4.91378C13.2791 4.93934 13.1985 4.9541 13.117 4.95764C13.0668 4.95151 13.0181 4.93188 12.9694 4.91225C12.9197 4.89223 12.87 4.87222 12.8189 4.86654C12.6581 4.85364 12.5047 4.79337 12.3781 4.69335C12.054 4.4493 11.6799 4.27993 11.2827 4.19738C10.868 4.09419 10.4564 3.97818 10.0447 3.86213C9.75634 3.78086 9.46796 3.69958 9.17844 3.62268C9.0957 3.60488 9.01985 3.56357 8.96001 3.50372C8.90016 3.44388 8.85885 3.36803 8.84105 3.28529C8.79296 3.12901 8.70127 2.98971 8.57676 2.88372C8.45226 2.77774 8.30009 2.70949 8.13814 2.68697V2.55314C8.1176 2.55791 8.09682 2.56519 8.07678 2.57221C8.03537 2.58672 7.9971 2.60013 7.97057 2.588C7.91209 2.56142 7.84914 2.544 7.78609 2.52655C7.64907 2.48862 7.51156 2.45056 7.41837 2.31809C7.3194 2.18201 7.21143 2.18201 7.0731 2.29447C6.93035 2.38877 6.77986 2.47079 6.62324 2.53964L6.57938 2.48903C6.59672 2.45047 6.61862 2.41202 6.64049 2.37361C6.68816 2.28992 6.73571 2.20642 6.73571 2.1224C6.75425 1.90124 6.83194 1.68915 6.96064 1.50834L6.96453 1.50136C7.14285 1.18108 7.14295 1.18089 6.84817 1L6.45567 1.08997C6.40933 1.1688 6.34376 1.23459 6.26508 1.28121C6.18641 1.32782 6.09721 1.35373 6.00581 1.35651C5.9753 1.3607 5.94893 1.37189 5.92161 1.38348C5.89758 1.39367 5.87281 1.40418 5.84386 1.4105C5.82152 1.41537 5.79653 1.41658 5.77176 1.41777C5.72797 1.41989 5.68487 1.42197 5.65829 1.44424C5.46581 1.60452 5.23862 1.71773 4.99475 1.77488C4.8795 1.80427 4.76749 1.84252 4.6548 1.881C4.54756 1.91762 4.4397 1.95446 4.32784 1.98407C4.09841 2.0448 3.86223 2.08529 3.6283 2.12465C3.57646 2.12384 3.52676 2.1038 3.48885 2.06842C3.40162 1.99924 3.31887 1.92381 3.22226 1.83574C3.2105 1.82502 3.19853 1.81411 3.18632 1.803C3.16388 1.83905 3.13963 1.87185 3.11677 1.90278C3.06974 1.96641 3.02856 2.02213 3.02099 2.08191C2.99738 2.26073 2.94452 2.30459 2.78257 2.21799C2.75373 2.20634 2.72402 2.19693 2.69372 2.18988C2.69372 2.3862 2.69261 2.58122 2.6915 2.7753C2.68875 3.25717 2.68604 3.73318 2.70047 4.20862C2.69995 4.44087 2.63744 4.66878 2.5194 4.86879C2.49021 4.8724 2.45628 4.87392 2.42332 4.8754C2.35342 4.87854 2.28785 4.88149 2.28097 4.90366C2.23511 5.04516 2.14521 5.04186 2.0539 5.03851C2.03997 5.038 2.02602 5.03749 2.01218 5.03749C1.9254 5.13153 1.82306 5.2099 1.70965 5.26917C1.63969 5.29316 1.57698 5.33455 1.5274 5.38944C1.47783 5.44432 1.44302 5.51091 1.42624 5.58294C1.41791 5.68808 1.38244 5.78926 1.3233 5.87659C1.26417 5.96391 1.18338 6.0344 1.08885 6.08116C1.07358 6.09158 1.06082 6.10526 1.05149 6.1212C1.04215 6.13715 1.03648 6.15497 1.03486 6.17338C1.0226 6.31583 1.01429 6.45668 1.0053 6.60923Z" fill="black"/>
<path d="M18.1258 7.6138C18.2 7.58683 18.2642 7.56353 18.2554 7.44873H18.0372L17.9844 7.6984C18.024 7.65075 18.0771 7.63149 18.1258 7.6138Z" fill="black"/>
</svg>
