<svg width="20" height="20" viewBox="0 0 20 20" fill="none" xmlns="http://www.w3.org/2000/svg">
<path fill-rule="evenodd" clip-rule="evenodd" d="M2.28353 11.9193C2.22668 12.2866 2.19549 12.6574 2.19021 13.029C2.38248 13.0144 2.38248 13.0144 2.49829 13.1707C2.5061 13.1829 2.51474 13.1946 2.52416 13.2056C2.57925 13.2607 2.6276 13.2865 2.69169 13.2056C2.70688 13.1922 2.72487 13.1825 2.74433 13.177C2.76379 13.1716 2.78423 13.1706 2.80413 13.1741C2.8391 13.1886 2.87789 13.1912 2.91449 13.1815C2.95108 13.1717 2.98343 13.1501 3.00652 13.1201C3.0515 13.0662 3.10435 13.0729 3.10997 13.1505C3.11559 13.2281 3.1482 13.2483 3.22803 13.2427C3.30786 13.2371 3.3877 13.2303 3.4664 13.2213C3.50167 13.2149 3.53806 13.2199 3.57024 13.2357C3.60242 13.2515 3.62868 13.2772 3.64518 13.309C3.71292 13.4156 3.79169 13.5147 3.88018 13.6047C3.89322 13.6228 3.91053 13.6374 3.93057 13.6472C3.95062 13.6569 3.97276 13.6616 3.99504 13.6607C4.01732 13.6598 4.03902 13.6534 4.05822 13.6421C4.07742 13.6307 4.09352 13.6148 4.10506 13.5957C4.11779 13.5768 4.13419 13.5606 4.1533 13.5482C4.17242 13.5357 4.19384 13.5273 4.2163 13.5233C4.23876 13.5193 4.26179 13.5199 4.28402 13.525C4.30625 13.5301 4.32722 13.5396 4.34569 13.553C4.46868 13.6371 4.59757 13.7123 4.73135 13.7779C4.81034 13.8091 4.87816 13.8633 4.92606 13.9335C4.97396 14.0036 4.99975 14.0865 5.00009 14.1714C5.00182 14.1827 5.00454 14.1938 5.00724 14.2047C5.01157 14.2223 5.01583 14.2396 5.01583 14.2569C5.07439 14.4359 5.09917 14.6243 5.08891 14.8123C5.08968 14.8627 5.10038 14.9123 5.1204 14.9585C5.15386 15.0388 5.17472 15.1237 5.18224 15.2104C5.17212 15.4117 5.20248 15.4926 5.397 15.5477C5.62188 15.6107 5.84676 15.6703 6.07164 15.7152C6.2637 15.772 6.46984 15.7573 6.65183 15.6736C6.86564 15.5935 7.06732 15.4841 7.25114 15.3487C7.29686 15.3031 7.35739 15.2755 7.42175 15.2707C7.48611 15.266 7.55004 15.2845 7.60195 15.3228C7.62369 15.3326 7.64726 15.3377 7.6711 15.3377C7.69494 15.3377 7.71851 15.3326 7.74025 15.3228C7.86253 15.2657 8.0009 15.253 8.13154 15.2868C8.2426 15.3115 8.35536 15.3276 8.46886 15.3352C8.55468 15.3312 8.64022 15.3477 8.71842 15.3833C8.79662 15.4189 8.86524 15.4725 8.91862 15.5398L8.86465 15.6309C8.98046 15.7096 8.99958 15.704 9.06817 15.6039C9.0897 15.5679 9.12372 15.5411 9.16374 15.5286C9.29963 15.509 9.43687 15.5003 9.57415 15.5027C9.61098 15.5094 9.64894 15.5054 9.6836 15.4913C9.71825 15.4772 9.74815 15.4534 9.76979 15.4229C9.78281 15.4046 9.79958 15.3894 9.81897 15.3781C9.83836 15.3669 9.85993 15.3599 9.88223 15.3577C9.92544 15.3623 9.9691 15.3552 10.0087 15.3373C10.0482 15.3193 10.0822 15.291 10.1071 15.2554C10.1903 15.1654 10.4062 15.1733 10.4377 15.2778C10.475 15.4 10.5456 15.3868 10.6267 15.3717L10.648 15.3678C10.7 15.3591 10.7515 15.3512 10.8026 15.3433C10.9229 15.3248 11.0412 15.3066 11.1596 15.279C11.2278 15.2596 11.2889 15.2205 11.335 15.1665C11.3543 15.1365 11.3807 15.1117 11.4119 15.0942C11.443 15.0768 11.478 15.0672 11.5137 15.0665C11.5533 15.0668 11.5922 15.0563 11.6262 15.0361C11.8686 14.9151 12.1336 14.8457 12.4043 14.8326C12.4581 14.8304 12.5104 14.8136 12.5554 14.7838C12.6004 14.7541 12.6364 14.7126 12.6595 14.6639C12.6701 14.6482 12.6846 14.6354 12.7015 14.6267C12.7184 14.6181 12.7372 14.6139 12.7562 14.6145C12.8517 14.6482 12.9531 14.6618 13.0541 14.6545C13.1551 14.6471 13.2535 14.6189 13.3431 14.5717C13.391 14.5417 13.4466 14.5266 13.503 14.5282C13.5595 14.5298 13.6142 14.548 13.6602 14.5807C13.6872 14.6032 13.7367 14.6156 13.758 14.6032C13.8616 14.5492 13.9579 14.4823 14.0448 14.4042C14.0763 14.3704 14.115 14.344 14.1579 14.3269C14.2009 14.3098 14.2471 14.3024 14.2933 14.3052H19C18.9539 14.1939 18.919 14.104 18.8876 14.014L18.8829 14.0011C18.873 13.9738 18.8612 13.9415 18.8718 13.9241C18.9097 13.8595 18.9323 13.7872 18.938 13.7125C18.9436 13.6379 18.9321 13.5629 18.9044 13.4934C18.8542 13.3458 18.778 13.2084 18.6795 13.0875C18.6301 13.0167 18.6211 12.9784 18.6683 12.911C18.6886 12.8772 18.6973 12.8377 18.693 12.7985C18.6905 12.7698 18.6823 12.7416 18.6742 12.7134C18.6644 12.6799 18.6548 12.6466 18.6548 12.613V4.01023H17.9745C15.8007 4.00348 13.6269 4.00011 11.453 4.00011C10.9835 3.99951 10.5139 4.00147 10.0444 4.00343C9.63351 4.00514 9.22266 4.00686 8.8118 4.00686H5.70284C5.67419 4.0019 5.6449 4.0019 5.61626 4.00686C5.56751 4.02857 5.52019 4.05336 5.47458 4.08107L5.58702 4.15753C5.59722 4.16401 5.60698 4.17114 5.61626 4.17889L5.52293 4.31157C5.60646 4.38328 5.67247 4.47315 5.71593 4.57429C5.75939 4.67544 5.77914 4.78518 5.77367 4.89513C5.78461 4.88289 5.79452 4.87387 5.80255 4.86657C5.81517 4.8551 5.82315 4.84784 5.82315 4.83891C5.85238 4.74896 5.91985 4.70398 6.00305 4.73884C6.08626 4.7737 6.15372 4.82767 6.10312 4.94011C6.09616 4.9549 6.10604 4.97845 6.11346 4.99616C6.11563 5.00133 6.11759 5.00601 6.11886 5.00982C6.1323 5.04714 6.14623 5.08446 6.16017 5.12178C6.18816 5.19674 6.21631 5.27218 6.2403 5.34714C6.24437 5.36171 6.24496 5.37703 6.24203 5.39188C6.2391 5.40672 6.23273 5.42066 6.22343 5.4326C6.20882 5.44496 6.16497 5.43372 6.14023 5.42135C6.10895 5.40251 6.07957 5.38067 6.05253 5.35614C6.0536 5.40091 6.06516 5.44481 6.08626 5.48432C6.1145 5.54613 6.13672 5.61052 6.1526 5.67659C6.15709 5.70583 6.13011 5.77104 6.11212 5.77104C6.06798 5.7716 6.0245 5.76034 5.98619 5.73843C5.97456 5.73262 5.96763 5.71741 5.95932 5.69918C5.95478 5.68921 5.94982 5.67833 5.94346 5.6676L5.90073 5.78678C5.8254 5.64061 5.78604 5.62262 5.66236 5.67434C5.69133 5.72282 5.71544 5.77404 5.73432 5.82726C5.75906 5.92621 5.82989 5.95319 5.9131 5.8891C5.93117 5.87918 5.95044 5.87162 5.97044 5.86662L5.99631 5.99142L6.17846 5.94532C6.14742 6.00834 6.1424 6.08104 6.16448 6.14772C6.18657 6.21441 6.234 6.26973 6.29652 6.30176C6.34503 6.33738 6.37795 6.39032 6.38842 6.44959C6.39889 6.50886 6.38611 6.56988 6.35274 6.61996C6.26311 6.49909 6.17469 6.53817 6.07956 6.58021C6.0446 6.59565 6.00873 6.6115 5.97157 6.61996C5.985 6.69853 6.00302 6.77625 6.02554 6.85271C6.04513 6.9013 6.07505 6.94504 6.11324 6.9809C6.14625 7.01321 6.18052 7.04217 6.21476 7.0711C6.23649 7.08946 6.25828 7.10787 6.27965 7.12707C6.29764 7.14356 6.31364 7.16205 6.32963 7.18054C6.33762 7.18979 6.34562 7.19903 6.35386 7.20803L6.3876 7.18441L6.35665 7.13836C6.33114 7.10056 6.30594 7.06321 6.2819 7.02475C6.232 6.95264 6.18656 6.87754 6.14585 6.79987C6.14525 6.78263 6.14907 6.76552 6.15694 6.75017C6.16481 6.73482 6.17648 6.72174 6.19083 6.71216C6.2543 6.69672 6.31902 6.68694 6.38422 6.68293C6.38961 6.81007 6.40616 6.93649 6.4337 7.06073C6.4753 7.19678 6.6136 7.22377 6.74516 7.2485C6.74235 7.26498 6.73984 7.28131 6.73737 7.29742C6.71809 7.42311 6.7009 7.53515 6.55738 7.59594C6.50442 7.61835 6.46529 7.69796 6.43667 7.75621L6.42807 7.7736C6.4154 7.79894 6.40844 7.82576 6.40168 7.85177C6.39285 7.88577 6.38437 7.91839 6.36398 7.94451C6.28749 8.05623 6.25763 8.1934 6.28078 8.3268C6.28759 8.3585 6.28587 8.39144 6.27579 8.42225C6.26572 8.45307 6.24765 8.48066 6.22343 8.50221C6.16159 8.55506 6.18745 8.6124 6.24367 8.65738C6.2839 8.68162 6.32157 8.70988 6.35611 8.74171C6.37048 8.75476 6.3816 8.77099 6.3886 8.78909C6.39559 8.8072 6.39827 8.82668 6.39641 8.84601C6.39456 8.86533 6.38822 8.88395 6.37791 8.90039C6.36759 8.91683 6.35359 8.93065 6.337 8.94073C6.3287 8.91024 6.31779 8.88052 6.30439 8.8519C6.2954 8.83728 6.27516 8.81817 6.25941 8.82154C6.24367 8.82491 6.21894 8.84853 6.21894 8.86202C6.21951 8.8801 6.21884 8.89972 6.21816 8.91967C6.21616 8.97786 6.21408 9.03879 6.24255 9.07228C6.3032 9.14372 6.32023 9.22727 6.33721 9.31059C6.34857 9.36629 6.3599 9.42189 6.38422 9.47369C6.39674 9.4967 6.40404 9.52218 6.40562 9.54833C6.4072 9.57447 6.40301 9.60065 6.39336 9.625C6.38371 9.64934 6.36882 9.67128 6.34975 9.68924C6.33069 9.7072 6.30791 9.72075 6.28303 9.72893L6.27057 9.73181C6.17372 9.75414 6.08223 9.77522 6.14585 9.91108C6.06132 9.9426 6.02608 9.89928 5.98838 9.85292C5.9669 9.82652 5.94462 9.79913 5.91197 9.78403C5.8774 9.83628 5.85016 9.89303 5.83102 9.95269C5.79049 10.1231 5.69865 10.2769 5.56791 10.3935C5.45772 10.5104 5.36664 10.489 5.3003 10.3372C5.28544 10.3031 5.26853 10.2697 5.2517 10.2364L5.23733 10.2079L5.19573 10.218L5.22946 10.5228L5.18786 10.5295L5.11253 10.2698H5.06418L5.03719 10.6746C4.95131 10.6252 4.95653 10.5626 4.9624 10.4923C4.96575 10.4521 4.96931 10.4095 4.95623 10.3653L4.76396 10.5992C4.72569 10.5208 4.76795 10.4725 4.81121 10.423C4.84548 10.3838 4.88038 10.3439 4.8764 10.2878L4.60992 10.4744L4.58743 10.4429L4.73023 10.29L4.67064 10.2484L4.89552 10.1697L4.88877 10.1348L4.51435 10.0966L4.75722 9.87173L4.77408 9.88073L4.69762 10.037C4.8258 10.0752 4.91576 10.0505 4.95848 9.91671C4.97147 9.87848 4.99678 9.84566 5.03045 9.82338C5.09271 9.7933 5.14423 9.7448 5.17801 9.68447C5.2118 9.62413 5.22623 9.55487 5.21934 9.48606C5.21862 9.47741 5.22576 9.46784 5.236 9.45409C5.24174 9.44639 5.24847 9.43736 5.25533 9.42647C5.26406 9.43702 5.27398 9.44664 5.28339 9.45577C5.30306 9.47484 5.32054 9.49179 5.32054 9.5108C5.33736 9.56041 5.34345 9.61303 5.33841 9.66517C5.33337 9.71731 5.31732 9.76779 5.29131 9.81326C5.25465 9.85189 5.23206 9.90173 5.22716 9.95476C5.22227 10.0078 5.23536 10.0609 5.26432 10.1056C5.29471 10.1365 5.32958 10.1627 5.36777 10.1832C5.37377 10.1669 5.38288 10.1487 5.39199 10.1305C5.4119 10.0906 5.43183 10.0507 5.41949 10.0314C5.39086 9.97668 5.37657 9.91559 5.37794 9.85385C5.37932 9.79211 5.39632 9.73172 5.42736 9.67833C5.46556 9.56774 5.54423 9.53176 5.632 9.49162L5.66348 9.47707C5.69616 9.584 5.64513 9.65256 5.59409 9.72116C5.58717 9.73046 5.58025 9.73977 5.57353 9.74917C5.55891 9.77391 5.54542 9.82563 5.55891 9.84362C5.58608 9.86955 5.62151 9.88508 5.65898 9.88747C5.67145 9.88903 5.68608 9.87654 5.70138 9.86349C5.70815 9.85772 5.71505 9.85182 5.72195 9.84699L5.78267 9.90096H5.80066C5.78096 9.8477 5.77631 9.79004 5.78722 9.7343C5.79812 9.67857 5.82417 9.62691 5.8625 9.58501V9.56364C5.82134 9.44905 5.88255 9.36639 5.94593 9.28079L5.94796 9.27805C5.97485 9.24151 5.98654 9.19597 5.98056 9.15099C5.95856 9.08636 5.92992 9.02419 5.89511 8.96546L5.63425 9.10376C5.60579 9.06113 5.58132 9.01597 5.56116 8.96884C5.54915 8.91665 5.54088 8.86366 5.53643 8.8103L5.57803 8.8013L5.66798 9.00707C5.70275 8.97747 5.72848 8.93866 5.7422 8.89511C5.75592 8.85155 5.75709 8.80501 5.74556 8.76082C5.736 8.71604 5.73685 8.66866 5.7377 8.6212C5.73936 8.52922 5.74102 8.43695 5.66686 8.36279C5.6563 8.35072 5.6599 8.32401 5.66342 8.29788C5.66515 8.28504 5.66686 8.27234 5.66686 8.26159L5.80403 8.41676L5.91647 8.24922L6.06602 8.30657L6.093 8.27958L6.0143 8.1053C6.08851 8.0086 5.9592 7.69714 5.82427 7.67128C5.81147 7.71516 5.83287 7.75663 5.85446 7.79848C5.88598 7.85956 5.91791 7.92146 5.84451 7.99286L5.78267 7.9074C5.71162 7.97095 5.64789 8.04223 5.59265 8.11991C5.52751 8.2341 5.47833 8.35668 5.44647 8.48422C5.43298 8.5663 5.41836 8.62365 5.32054 8.6169C5.22316 8.6114 5.12663 8.63772 5.0455 8.69187C4.96438 8.74602 4.90306 8.82507 4.87078 8.91711C4.80114 9.09159 4.6993 9.25142 4.57057 9.38824C4.56189 9.39533 4.55764 9.4074 4.55355 9.41902C4.55181 9.42397 4.55009 9.42885 4.54808 9.43321C4.63241 9.51642 4.66277 9.53216 4.72798 9.49843C4.79478 9.46382 4.86027 9.42657 4.92568 9.38936C4.98122 9.35778 5.03722 9.32594 5.09341 9.29604C5.1371 9.27802 5.18224 9.26373 5.22834 9.25331C5.22117 9.27019 5.21637 9.28438 5.2124 9.29611C5.20579 9.31564 5.20149 9.32837 5.19236 9.33539C5.17491 9.35001 5.1578 9.36497 5.14075 9.37988C5.03584 9.47163 4.93352 9.56111 4.77296 9.5524C4.70449 9.55642 4.6372 9.572 4.57394 9.5985C4.48286 9.62549 4.42664 9.58951 4.42664 9.49506C4.42845 9.44788 4.44198 9.4019 4.466 9.36125C4.62454 9.10376 4.78533 8.8474 4.94724 8.59216C4.95305 8.58287 4.96155 8.57538 4.97012 8.56783C4.97815 8.56076 4.98623 8.55364 4.99222 8.54494C5.05457 8.47966 5.10282 8.40225 5.13396 8.31753C5.16511 8.2328 5.17848 8.14257 5.17324 8.05245C5.17233 8.01866 5.1765 7.98493 5.18561 7.95238H5.21822L5.26095 8.07269H5.28906C5.29494 8.02235 5.30045 7.97201 5.30667 7.91504L5.32166 7.77922C5.34085 7.82103 5.35555 7.86475 5.36552 7.90965C5.38672 8.04668 5.36012 8.18684 5.29018 8.30657C5.27167 8.35649 5.26363 8.40969 5.26657 8.46286L5.31379 8.4831C5.32292 8.46723 5.33081 8.45069 5.33741 8.43362C5.3508 8.39022 5.36381 8.34662 5.37683 8.30299C5.39551 8.2404 5.41423 8.17769 5.4341 8.11542C5.43797 8.10446 5.44156 8.09056 5.44524 8.07629C5.45441 8.04076 5.46416 8.00298 5.48021 8.00298C5.57241 7.98161 5.57241 7.9074 5.57241 7.83881H5.69946C5.6888 7.79726 5.67214 7.75749 5.64999 7.72075C5.61716 7.68421 5.59666 7.63826 5.59142 7.58942C5.58617 7.54058 5.59643 7.49133 5.62076 7.44865C5.62482 7.42001 5.61843 7.39087 5.60276 7.36657C5.5443 7.24738 5.48358 7.12819 5.42511 7.01575L5.45322 6.94267C5.44303 6.94012 5.4326 6.93616 5.42216 6.93219C5.40037 6.92391 5.37854 6.91562 5.35877 6.92018C5.33138 6.92258 5.30489 6.93112 5.28125 6.94515C5.25761 6.95919 5.23743 6.97836 5.2222 7.00126C5.20697 7.02415 5.19709 7.05017 5.19329 7.0774C5.18949 7.10463 5.19186 7.13236 5.20023 7.15855C5.21147 7.22939 5.19348 7.27099 5.09903 7.27099C5.09903 7.25559 5.10098 7.24019 5.10281 7.22561C5.10621 7.19869 5.10925 7.1746 5.09903 7.15855C5.07317 7.11695 5.03157 7.05398 4.98659 7.04611C4.91238 7.02925 4.91238 7.10233 4.91238 7.15855V7.23951L4.87415 7.25637C4.84524 7.22106 4.82244 7.18115 4.80669 7.13831C4.75272 6.83023 4.71336 6.80212 4.4154 6.88645C4.37891 6.90048 4.34129 6.91139 4.30296 6.91905C4.24246 6.92633 4.1813 6.92633 4.1208 6.91905C3.74537 6.81526 3.35878 6.75712 2.96942 6.7459C2.95143 6.7449 2.93366 6.7415 2.91657 6.73578C2.88768 6.72992 2.85878 6.72467 2.82997 6.71942C2.77021 6.70855 2.71074 6.69773 2.65234 6.68181C2.58705 6.66563 2.52426 6.64066 2.46569 6.6076C2.39766 6.56712 2.33132 6.52355 2.26498 6.47998C2.19864 6.43641 2.1323 6.39283 2.06428 6.35236C2.00373 6.31724 1.94319 6.28669 1.88264 6.25614C1.83075 6.22995 1.77885 6.20376 1.72696 6.1747C1.5718 6.08925 1.42452 5.99931 1.27724 5.90936C1.23114 5.87788 1.16476 5.83288 1.12653 5.90035C1.11795 5.92617 1.11481 5.95349 1.11733 5.98059C1.11985 6.00768 1.12795 6.03396 1.14114 6.05776C1.15548 6.07712 1.16321 6.10058 1.16321 6.12467C1.16321 6.14875 1.15548 6.17221 1.14114 6.19157C1.10785 6.25405 1.08398 6.32112 1.07031 6.39059C1.06482 6.41 1.06314 6.43289 1.06145 6.45582C1.05864 6.49399 1.05582 6.53227 1.03545 6.55475C0.989372 6.60377 0.998001 6.64937 1.00768 6.70049C1.0091 6.708 1.01054 6.71563 1.01184 6.72341C1.02499 6.8058 1.03431 6.88776 1.04373 6.97061C1.0496 7.02231 1.05552 7.07436 1.06243 7.12707C1.06633 7.15674 1.06853 7.18714 1.07074 7.21755C1.07874 7.32776 1.08675 7.43808 1.17487 7.51386C1.40701 7.73362 1.57361 8.01348 1.65612 8.32231C1.72566 8.58891 1.75409 8.86456 1.74045 9.13975C1.73752 9.32624 1.80589 9.50681 1.9316 9.6446C1.96793 9.68408 1.99077 9.73409 1.99681 9.7874C2.01077 9.97773 2.02041 10.1685 2.03013 10.3608C2.03527 10.4626 2.04044 10.565 2.04629 10.6678C2.04778 10.6969 2.05371 10.7279 2.05984 10.7599C2.06295 10.7762 2.06612 10.7928 2.06877 10.8095H2.10813L2.15198 10.6273C2.15381 10.62 2.15547 10.6123 2.15717 10.6044C2.16796 10.554 2.18009 10.4975 2.24418 10.5081L2.25114 10.5093C2.32376 10.5213 2.40609 10.5349 2.40609 10.6329C2.40609 10.7117 2.45107 10.733 2.51853 10.733C2.58369 10.733 2.64875 10.7383 2.71306 10.7488C2.75631 10.7622 2.79783 10.7807 2.83674 10.8039L2.83112 10.8477C2.80732 10.8531 2.78363 10.8589 2.75995 10.8646C2.7053 10.8779 2.65069 10.8911 2.59499 10.9006C2.57751 10.9034 2.55971 10.9057 2.54195 10.9079C2.4421 10.9203 2.34342 10.9326 2.30715 11.0625C2.30152 11.0805 2.25205 11.0996 2.23743 11.0985C2.22611 11.0976 2.21546 11.0738 2.206 11.0526C2.20326 11.0465 2.20061 11.0405 2.19808 11.0355C2.19172 11.0183 2.18683 11.0006 2.18346 10.9826C2.10661 11.0398 2.12664 11.1065 2.14344 11.1624L2.14748 11.176C2.19954 11.288 2.21527 11.4134 2.19246 11.5347C2.16997 11.6033 2.21495 11.6292 2.28241 11.6247C2.31367 11.6226 2.34468 11.6145 2.37568 11.6064C2.41159 11.597 2.44747 11.5876 2.48368 11.5876C2.55875 11.5827 2.63412 11.5857 2.70856 11.5966C2.72111 11.6019 2.73207 11.6104 2.74035 11.6212C2.74863 11.6321 2.75394 11.6449 2.75578 11.6584C2.75578 11.6671 2.74853 11.6717 2.73632 11.6794C2.7265 11.6856 2.71347 11.6938 2.69844 11.7079C2.66471 11.7394 2.61861 11.7877 2.60174 11.8057C2.59418 11.8138 2.58933 11.8254 2.58467 11.8367C2.57892 11.8505 2.57344 11.8637 2.56351 11.8687C2.47081 11.9161 2.49901 11.9821 2.52626 12.0459L2.52978 12.0542C2.5585 12.1209 2.58976 12.1858 2.61688 12.242L2.64222 12.2948C2.62033 12.3129 2.59717 12.3278 2.57564 12.3415C2.53302 12.3688 2.49677 12.392 2.4893 12.4286C2.48134 12.4676 2.50435 12.5128 2.52645 12.5562C2.53558 12.5741 2.54457 12.5918 2.55114 12.6085C2.5348 12.6184 2.5201 12.6268 2.50667 12.6345C2.48499 12.6469 2.46661 12.6574 2.44995 12.6692C2.42603 12.6879 2.40313 12.7077 2.38136 12.7288C2.36094 12.7017 2.34535 12.6713 2.33526 12.6389C2.32827 12.5705 2.32639 12.5017 2.32963 12.4331C2.33102 12.378 2.33375 12.3229 2.33647 12.2678C2.34036 12.1891 2.34425 12.1104 2.34425 12.0317C2.33964 11.9931 2.32981 11.9552 2.31502 11.9193H2.28353ZM6.66228 9.12986C6.6618 9.13274 6.66131 9.13566 6.66083 9.13862V9.14312C6.66039 9.14277 6.65996 9.14243 6.65953 9.14208C6.66048 9.13792 6.6614 9.13384 6.66228 9.12986ZM6.67589 9.05305C6.68037 9.02784 6.68384 9.00633 6.68556 8.9857C6.69125 8.94392 6.69125 8.90156 6.68556 8.85977C6.67809 8.82241 6.66717 8.78539 6.65624 8.74834C6.64743 8.71849 6.63861 8.6886 6.63159 8.6585C6.63065 8.64863 6.6321 8.63867 6.63582 8.62947C6.6392 8.62112 6.64435 8.61363 6.6509 8.60749C6.64889 8.60872 6.64682 8.60995 6.64469 8.6112C6.63715 8.61764 6.63129 8.62581 6.62757 8.63501C6.62385 8.64421 6.62239 8.65418 6.62333 8.66406C6.63064 8.69779 6.64048 8.73124 6.65032 8.76468C6.66016 8.79813 6.67 8.83158 6.6773 8.86531C6.68301 8.90709 6.68301 8.94947 6.6773 8.99126C6.67891 9.0105 6.67848 9.03025 6.67589 9.05305ZM6.67146 8.59369C6.73019 8.55231 6.71973 8.5194 6.65296 8.47522C6.61393 8.44891 6.58536 8.40976 6.57221 8.36456C6.55906 8.31937 6.56217 8.271 6.58099 8.22786C6.57667 8.23039 6.57248 8.23311 6.56842 8.23602C6.56985 8.23512 6.57128 8.23425 6.57273 8.2334C6.55391 8.27654 6.5508 8.32491 6.56395 8.37011C6.5771 8.4153 6.60566 8.45446 6.64469 8.48077C6.71043 8.52296 6.72309 8.55487 6.67146 8.59369ZM6.54365 8.58643C6.52876 8.59516 6.50774 8.60179 6.48092 8.60678C6.48157 8.60795 6.48221 8.60911 6.48283 8.61029C6.50994 8.60448 6.53035 8.59671 6.54365 8.58643Z" fill="black"/>
<path d="M5.86107 6.81617C5.83262 6.70182 5.8032 6.5836 5.60913 6.645L5.83514 6.40326C5.87897 6.41707 5.92368 6.42797 5.96895 6.43586C5.99369 6.43924 6.03641 6.43137 6.0454 6.4145C6.05192 6.40061 6.0553 6.38544 6.0553 6.37008C6.0553 6.35473 6.05192 6.33957 6.0454 6.32567C6.02629 6.29307 5.99481 6.24697 5.96332 6.24697C5.87 6.2301 5.84638 6.18512 5.86325 6.09629C5.86706 6.07876 5.85433 6.05761 5.84153 6.03634C5.83546 6.02625 5.82936 6.01612 5.82502 6.00635C5.79414 6.02007 5.76566 6.03867 5.74069 6.06144C5.69336 6.11903 5.65321 6.17884 5.61288 6.23892C5.59574 6.26447 5.57856 6.29006 5.56079 6.31555C5.54924 6.33444 5.53696 6.35211 5.52498 6.36936C5.51129 6.38905 5.49797 6.40822 5.48658 6.428C5.41912 6.54606 5.55517 6.81591 5.69235 6.81591C5.70568 6.8135 5.71938 6.81395 5.73253 6.81724C5.74567 6.82052 5.75796 6.82656 5.76859 6.83496C5.77922 6.84336 5.78795 6.85393 5.79419 6.86596C5.80043 6.87799 5.80405 6.89121 5.80479 6.90474C5.81403 6.95341 5.81753 7.00275 5.82103 7.05203C5.82392 7.09269 5.8268 7.13332 5.8329 7.17347C5.83903 7.2333 5.85577 7.29155 5.88236 7.3455C5.91447 7.38799 5.95231 7.42583 5.99481 7.45794L6.06676 7.39948C6.09734 7.43488 6.11439 7.48022 6.13129 7.52519C6.16164 7.6059 6.19153 7.68541 6.2984 7.70419C6.33706 7.64856 6.35862 7.58284 6.36042 7.51512C6.36222 7.44739 6.34418 7.38062 6.30852 7.32302C6.25053 7.26961 6.18943 7.21982 6.12804 7.16979C6.09897 7.1461 6.06981 7.12234 6.04091 7.09813V7.25442C6.03937 7.26823 6.03 7.28203 6.02063 7.29583C6.01626 7.30227 6.01188 7.30871 6.00831 7.31514C5.985 7.3023 5.96377 7.286 5.94534 7.26679C5.93635 7.25218 5.93634 7.22519 5.93634 7.20383C5.9294 7.16681 5.92275 7.12893 5.91607 7.0909C5.90005 6.9996 5.88388 6.90744 5.86325 6.82491L5.86107 6.81617Z" fill="black"/>
<path d="M5.19556 5.0503C5.20394 5.07083 5.21294 5.09168 5.22193 5.11248C5.23706 5.14751 5.25214 5.18243 5.26413 5.21558C5.27219 5.25027 5.27673 5.28568 5.27764 5.32128C5.24165 5.32128 5.20454 5.31565 5.16519 5.30778C5.14945 5.30464 5.1312 5.29915 5.11186 5.29334C5.08285 5.28462 5.05141 5.27517 5.02239 5.2718C5.00796 5.27118 4.994 5.26648 4.98212 5.25826C4.97025 5.25003 4.96095 5.2386 4.95531 5.2253C4.94966 5.21201 4.94789 5.19739 4.95021 5.18313C4.95253 5.16887 4.95884 5.15556 4.96841 5.14474C5.01218 5.08238 5.06127 5.02214 5.10947 4.96299L5.11346 4.95809C5.12823 4.9425 5.1475 4.93189 5.16857 4.92773C5.309 4.93869 5.44001 5.0026 5.53511 5.10651C5.53735 5.12411 5.53513 5.14198 5.52864 5.15848C5.52216 5.17499 5.51163 5.1896 5.49802 5.20096C5.4813 5.21118 5.46241 5.21733 5.44287 5.21889C5.42334 5.22045 5.4037 5.21739 5.38557 5.20996C5.36719 5.20043 5.35623 5.17853 5.34495 5.15599C5.3376 5.14131 5.33011 5.12636 5.32036 5.11439C5.29276 5.08285 5.26347 5.05283 5.23265 5.02444L5.19556 5.0503Z" fill="black"/>
<path d="M5.94385 8.41879C5.92982 8.41407 5.9145 8.40893 5.89919 8.40186C5.89221 8.4231 5.88479 8.44453 5.87734 8.466C5.8584 8.52066 5.83932 8.57574 5.82721 8.629C5.81155 8.68804 5.804 8.74894 5.80474 8.81002C5.80474 8.83701 5.84634 8.88647 5.85533 8.88647C5.92325 8.86482 5.94292 8.90349 5.96487 8.94665C5.96799 8.95278 5.97117 8.95903 5.97452 8.96519C6.00151 9.01466 6.03973 9.0585 6.11394 9.01465L6.0611 8.97981C6.06672 8.96855 6.07305 8.95747 6.07924 8.94661C6.09533 8.91841 6.11056 8.89171 6.11056 8.86736C6.094 8.8041 6.07296 8.74211 6.04759 8.68184C6.04218 8.64982 6.03843 8.61755 6.03636 8.58514C6.03146 8.53857 6.01932 8.49303 6.00038 8.4502C5.9916 8.43484 5.96997 8.42757 5.94385 8.41879Z" fill="black"/>
<path d="M4.67277 5.23828C4.69585 5.25662 4.71885 5.27434 4.74155 5.29183C4.79959 5.33655 4.85574 5.37981 4.90666 5.4283C4.93038 5.46068 4.94084 5.50091 4.93589 5.54075C4.93589 5.59182 4.92969 5.64342 4.92359 5.69413C4.92069 5.7182 4.91782 5.7421 4.91565 5.76563C4.8597 5.75527 4.80705 5.73163 4.76214 5.6967C4.71723 5.66177 4.68137 5.61656 4.65757 5.56488C4.63377 5.5132 4.62274 5.45656 4.62538 5.39973C4.62803 5.34289 4.64427 5.28753 4.67277 5.23828Z" fill="black"/>
<path d="M5.33618 5.66898C5.33317 5.64857 5.33022 5.62856 5.32421 5.61052C5.3467 5.53743 5.32195 5.48571 5.25561 5.48683C5.22526 5.49021 5.18478 5.54867 5.17803 5.5869C5.17627 5.59635 5.17432 5.60576 5.17238 5.61513C5.157 5.68942 5.14202 5.76177 5.22188 5.83764C5.23692 5.85143 5.25004 5.86705 5.26295 5.88241C5.29634 5.92217 5.32829 5.9602 5.38831 5.9602C5.41529 5.9602 5.46589 5.94221 5.46589 5.93097C5.46814 5.89386 5.46138 5.82415 5.44227 5.81853C5.35427 5.79171 5.34498 5.72867 5.33618 5.66898Z" fill="black"/>
<path d="M6.1132 9.12305C6.14459 9.18403 6.15974 9.25206 6.15718 9.32059C6.15462 9.38913 6.13443 9.45586 6.09859 9.51433C6.09242 9.52975 6.08743 9.5454 6.08243 9.56107C6.07649 9.57968 6.07054 9.59835 6.06261 9.61665C6.05228 9.63677 6.04025 9.65595 6.02663 9.67399C6.02124 9.66827 6.01484 9.66274 6.00843 9.65721C5.99345 9.64427 5.9784 9.63127 5.97603 9.61552C5.96632 9.57335 5.96632 9.52952 5.97603 9.48734C5.99643 9.43152 6.01759 9.37622 6.0394 9.31922C6.06328 9.25683 6.08794 9.19239 6.1132 9.12305Z" fill="black"/>
<path d="M5.74102 5.29138C5.73828 5.27064 5.73549 5.24959 5.733 5.22872L5.6869 5.21973C5.67967 5.23009 5.67105 5.24072 5.66236 5.25141C5.63997 5.27899 5.61719 5.30706 5.61719 5.33217C5.63146 5.38666 5.65758 5.43733 5.69366 5.48059C5.69591 5.48396 5.75774 5.46147 5.75774 5.4536C5.7553 5.39923 5.74818 5.34543 5.74102 5.29138Z" fill="black"/>
<path d="M5.10106 9.83252L5.1629 10.1699C5.13013 10.1582 5.10102 10.1381 5.07848 10.1117C5.05594 10.0852 5.04076 10.0532 5.03449 10.0191C5.02822 9.98485 5.03108 9.94961 5.04276 9.91686C5.05445 9.88412 5.07456 9.85502 5.10106 9.83252Z" fill="black"/>
<path d="M6.03037 5.52029L5.83248 5.38086C5.82677 5.45716 5.8237 5.49825 5.84273 5.51782C5.86493 5.54063 5.91718 5.53421 6.03037 5.52029Z" fill="black"/>
<path d="M5.42898 5.54177C5.42507 5.51635 5.41027 5.49432 5.39614 5.47329C5.36965 5.43385 5.34548 5.39789 5.39975 5.34949C5.41503 5.34093 5.43225 5.33643 5.44978 5.33643C5.4673 5.33643 5.48452 5.34093 5.49981 5.34949C5.55223 5.43316 5.49622 5.48251 5.43056 5.54038L5.42898 5.54177Z" fill="black"/>
<path d="M5.89302 5.14243L5.66815 4.86133C5.64116 4.95128 5.75247 5.09857 5.86828 5.16154L5.89302 5.14243Z" fill="black"/>
<path d="M5.66541 7.23398L5.62606 7.03271C5.66879 7.07117 5.69611 7.12382 5.70294 7.1809C5.70976 7.23798 5.69563 7.29561 5.66317 7.34305L5.55859 7.11817L5.58445 7.10467L5.65304 7.23848L5.66541 7.23398Z" fill="black"/>
</svg>
