<svg xmlns="http://www.w3.org/2000/svg" width="18" height="18" viewBox="0 0 18 18">
  <g id="Group_80968" data-name="Group 80968" transform="translate(-494 -363)">
    <g id="Expand_Dropdown" data-name="Expand / Dropdown" transform="translate(462 364)">
      <rect id="Rectangle_62470" data-name="Rectangle 62470" width="18" height="18" transform="translate(32 -1)" fill="#b7b7b7" opacity="0"/>
    </g>
    <path id="indent" d="M.853,42.353l3-3a.5.5,0,0,0,0-.707l-3-3A.5.5,0,0,0,0,36v6A.5.5,0,0,0,.853,42.353ZM13.5,44H.5a.5.5,0,0,0-.5.5v1a.5.5,0,0,0,.5.5h13a.5.5,0,0,0,.5-.5v-1A.5.5,0,0,0,13.5,44Zm.1-4H6.4a.4.4,0,0,0-.4.4v1.2a.4.4,0,0,0,.4.4h7.2a.4.4,0,0,0,.4-.4V40.4a.4.4,0,0,0-.4-.4Zm0-4H6.4a.4.4,0,0,0-.4.4v1.2a.4.4,0,0,0,.4.4h7.2a.4.4,0,0,0,.4-.4V36.4a.4.4,0,0,0-.4-.4Zm-.1-4H.5a.5.5,0,0,0-.5.5v1a.5.5,0,0,0,.5.5h13a.5.5,0,0,0,.5-.5v-1A.5.5,0,0,0,13.5,32Z" transform="translate(496 333)" fill="#919191"/>
  </g>
</svg>