<svg width="100" height="100" viewBox="0 0 100 100" fill="none" xmlns="http://www.w3.org/2000/svg">
<g opacity="0.75">
<path d="M79.2404 26.2798C79.2404 19.7212 73.1691 14.4014 65.6832 14.4014C58.1972 14.4014 52.126 19.7212 52.126 26.2798C52.126 26.2798 54.3653 29.5753 60.0242 28.7656C65.6832 27.9559 72.959 34.4336 72.959 34.4336L79.2404 26.2798Z" fill="#F4BEBE"/>
<path d="M98.1822 38.8625C98.1837 40.9512 97.74 43.0161 96.8807 44.9192V45.0082C95.7265 47.513 93.8911 49.6414 91.5848 51.1494C89.2785 52.6574 86.5946 53.484 83.8408 53.5345H15.6426C11.9976 53.5345 8.50202 52.0842 5.92469 49.5028C3.34735 46.9213 1.89941 43.4201 1.89941 39.7694C1.89941 36.1187 3.34735 32.6175 5.92469 30.036C8.50202 27.4546 11.9976 26.0043 15.6426 26.0043H16.2165C19.5152 26.1446 22.6532 27.4697 25.0566 29.7371C27.4599 32.0045 28.9679 35.0627 29.3048 38.3524L36.9606 23.1865L49.8953 23.389L52.1912 24.7736L57.7451 28.1096L69.3216 35.0812C70.0582 32.7364 71.3301 30.5958 73.0364 28.8291C74.7428 27.0624 76.8367 25.7182 79.152 24.9031C80.5608 24.4255 82.0382 24.1821 83.5256 24.1825C87.3971 24.2328 91.096 25.7956 93.8338 28.5378C96.5716 31.28 98.132 34.9848 98.1822 38.8625Z" fill="#E66767"/>
<path d="M60.4288 52.2472C67.7957 52.2472 73.7677 46.9907 73.7677 40.5064C73.7677 34.0222 67.7957 28.7656 60.4288 28.7656C53.0619 28.7656 47.0898 34.0222 47.0898 40.5064C47.0898 46.9907 53.0619 52.2472 60.4288 52.2472Z" fill="#ED9292"/>
<path d="M37.2671 42.563C49.1033 42.563 58.6984 33.442 58.6984 22.1907C58.6984 10.9394 49.1033 1.81836 37.2671 1.81836C25.431 1.81836 15.8359 10.9394 15.8359 22.1907C15.8359 33.442 25.431 42.563 37.2671 42.563Z" fill="#E66767"/>
<path d="M15.9657 53.5425C23.7791 53.5425 30.1131 47.1984 30.1131 39.3726C30.1131 31.5467 23.7791 25.2026 15.9657 25.2026C8.15234 25.2026 1.81836 31.5467 1.81836 39.3726C1.81836 47.1984 8.15234 53.5425 15.9657 53.5425Z" fill="#DF3C3C"/>
<path d="M58.505 22.5874C58.505 22.5874 58.7071 26.7817 57.1064 29.7776C57.1064 29.7776 65.6838 27.9558 70.5343 32.814C71.4656 30.586 72.952 28.6345 74.8513 27.1461C74.8513 27.1461 62.8947 30.3768 58.505 22.5874Z" fill="#C20C0C"/>
<path d="M83.3878 53.5426C91.5584 53.5426 98.1819 46.9085 98.1819 38.7249C98.1819 30.5413 91.5584 23.9072 83.3878 23.9072C75.2173 23.9072 68.5938 30.5413 68.5938 38.7249C68.5938 46.9085 75.2173 53.5426 83.3878 53.5426Z" fill="#ED9292"/>
<path d="M29.3047 43.3403C37.4778 54.32 46.7423 42.7573 38.7632 39.7614C31.2126 36.9274 56.5485 41.1622 56.5485 41.1622C56.5485 41.1622 61.5364 48.9435 69.3134 43.1541C69.3134 43.1541 72.7007 50.3443 84.0671 50.3443C90.5344 50.3443 94.4633 48.7249 96.8805 45.0083C95.7264 47.5131 93.891 49.6415 91.5847 51.1495C89.2784 52.6575 86.5945 53.4841 83.8407 53.5346H15.6424C13.4732 53.5361 11.3345 53.0234 9.40106 52.0383C7.46767 51.0531 5.79455 49.6236 4.51855 47.8666C7.40461 49.9313 13.7507 53.8503 21.4226 50.733C27.6879 48.1986 29.3047 43.3403 29.3047 43.3403Z" fill="#C20C0C"/>
<path d="M65.3361 39.7127H58.8687C58.4073 39.7127 57.9604 39.8748 57.6059 40.1706C57.2514 40.4665 57.0117 40.8775 56.9285 41.3321C56.2414 45.1945 55.5057 61.5182 39.5556 53.5345C42.1183 53.0729 44.0342 52.7248 45.1418 48.6195C45.676 46.3861 45.9874 44.105 46.0714 41.8099C46.0825 41.5776 46.0552 41.345 45.9906 41.1216C45.8702 40.7126 45.6209 40.3535 45.2799 40.0981C44.939 39.8427 44.5247 39.7047 44.0989 39.7046H37.9145C37.5671 39.7061 37.2317 39.5773 36.9743 39.3435C36.717 39.1097 36.5563 38.7879 36.524 38.4415C36.5026 38.2367 36.5278 38.0298 36.5978 37.8362C36.6678 37.6427 36.7808 37.4675 36.9282 37.3241L50.6714 23.559C50.9334 23.2979 51.288 23.1514 51.6576 23.1514C52.0272 23.1514 52.3818 23.2979 52.6439 23.559L66.387 37.3241C66.5859 37.5238 66.7199 37.779 66.7716 38.0563C66.8232 38.3336 66.7901 38.62 66.6766 38.8781C66.563 39.1362 66.3743 39.354 66.1351 39.5029C65.8959 39.6518 65.6174 39.7249 65.3361 39.7127Z" fill="white"/>
<path d="M65.3362 39.7128H58.8688C58.4074 39.7128 57.9605 39.8749 57.606 40.1708C57.2515 40.4666 57.0118 40.8776 56.9286 41.3323C56.2414 45.1946 55.5058 61.5183 39.5557 53.5346C42.1184 53.0731 44.0343 52.7249 45.1418 48.6197C45.6673 48.8221 54.0345 51.8585 56.1283 41.8829C57.6481 34.5955 68.392 42.8221 63.9376 34.9355L66.3629 37.3647C66.5463 37.5648 66.6677 37.814 66.7122 38.082C66.7568 38.35 66.7226 38.6251 66.6138 38.874C66.5049 39.1228 66.3262 39.3346 66.0994 39.4835C65.8726 39.6325 65.6074 39.7122 65.3362 39.7128Z" fill="#DADADA"/>
<path d="M45.9981 40.9032C46.0062 40.9786 46.0062 41.0546 45.9981 41.1299C45.8777 40.7209 45.6284 40.3619 45.2875 40.1065C44.9465 39.8511 44.5322 39.713 44.1064 39.7129H37.9139C37.5665 39.7145 37.2311 39.5856 36.9737 39.3519C36.7164 39.1181 36.5558 38.7963 36.5234 38.4498C37.5862 38.6781 38.681 38.7165 39.7571 38.5632C42.9504 38.3607 45.8607 37.8425 45.9981 40.9032Z" fill="#DADADA"/>
</g>
<path d="M69.935 86.6386C70.0709 87.3097 69.9352 88.0074 69.5578 88.5783C69.1803 89.1492 68.592 89.5466 67.9221 89.6832L42.5458 94.841C42.2144 94.9094 41.8729 94.9115 41.5407 94.847C41.2086 94.7826 40.8925 94.6529 40.6107 94.4654C40.3288 94.278 40.0868 94.0365 39.8986 93.7549C39.7105 93.4734 39.5798 93.1572 39.5142 92.8248L32.2384 57.0275C32.163 56.6574 32.1614 56.276 32.2337 55.9053C32.306 55.5345 32.4507 55.1818 32.6596 54.8672C32.8684 54.5527 33.1373 54.2826 33.4507 54.0725C33.7641 53.8624 34.1159 53.7164 34.4858 53.6429L59.5468 48.5337C59.8776 48.4651 60.2186 48.4628 60.5503 48.5267C60.882 48.5907 61.1978 48.7197 61.4795 48.9063C61.7613 49.0929 62.0034 49.3335 62.192 49.6142C62.3806 49.8948 62.5119 50.2101 62.5784 50.5418L65.8121 66.6874L69.935 86.6386Z" fill="#F3F3F3"/>
<path d="M69.9384 86.6341C70.0743 87.3051 69.9386 88.0028 69.5611 88.5737C69.1837 89.1446 68.5953 89.542 67.9254 89.6786L42.5492 94.8364C42.2178 94.9049 41.8762 94.9069 41.5441 94.8425C41.212 94.778 40.8959 94.6483 40.614 94.4609C40.3322 94.2734 40.0902 94.032 39.902 93.7504C39.7138 93.4688 39.5832 93.1527 39.5176 92.8203C40.0431 93.1684 41.1991 93.5652 43.5597 93.2089C47.2299 92.6502 68.8632 89.6219 65.8801 66.6909L69.9384 86.6341Z" fill="#EAEAEA"/>
<path d="M35.9736 62.3549C35.9736 62.3549 39.272 61.1322 40.0885 65.1646C40.905 69.197 44.939 68.282 44.2357 64.9541C43.5324 61.6262 44.0821 59.699 45.5696 59.3995C47.0571 59.0999 47.7038 60.9703 48.3667 64.2091C48.7548 66.1524 49.7168 66.0472 50.4201 65.6504C50.5208 65.5946 50.6332 65.5635 50.7482 65.5597C50.8632 65.5559 50.9775 65.5795 51.0817 65.6285C51.1858 65.6775 51.2769 65.7505 51.3474 65.8416C51.4179 65.9327 51.4658 66.0392 51.4872 66.1524L52.2956 70.201L37.9785 73.1564L35.9736 62.3549Z" fill="#BED0F9"/>
<path d="M52.3185 70.2386L52.0679 69.024C52.0114 68.7481 51.884 68.4916 51.6983 68.28C51.5125 68.0684 51.2749 67.909 51.0089 67.8176C48.5432 66.935 48.5836 59.3561 47.2497 60.0525C45.7622 60.8055 48.6159 65.8824 46.3604 66.433C44.1049 66.9836 44.0564 63.6233 41.0815 63.3561C40.2434 63.2652 39.3975 63.4318 38.6562 63.8338C37.9812 64.1985 37.441 64.7707 37.115 65.4659C36.789 66.1612 36.6945 66.943 36.8453 67.6961L37.961 73.1941L52.3185 70.2386Z" fill="#F4BEBE"/>
<path d="M52.3211 70.2416C52.3305 70.2879 52.3306 70.3356 52.3214 70.3819C52.3122 70.4282 52.2939 70.4723 52.2676 70.5115C52.2413 70.5506 52.2074 70.5842 52.168 70.6101C52.1286 70.6361 52.0845 70.654 52.0381 70.6627L38.0525 73.5129C37.9594 73.5296 37.8634 73.5094 37.7849 73.4565C37.7064 73.4036 37.6516 73.3222 37.6321 73.2295L34.7945 59.2215C34.7754 59.1291 34.7936 59.033 34.8451 58.954C34.8966 58.8751 34.9773 58.8199 35.0694 58.8004C35.1616 58.7812 35.2576 58.7994 35.3364 58.8511C35.4152 58.9027 35.4704 58.9834 35.4898 59.0757L38.198 72.3874C38.2174 72.4796 38.2726 72.5604 38.3514 72.612C38.4302 72.6636 38.5262 72.6818 38.6184 72.6627L51.9411 69.9663C52.027 69.9583 52.1129 69.9817 52.1828 70.0324C52.2527 70.083 52.3019 70.1574 52.3211 70.2416Z" fill="#D6D6D6"/>
<path d="M60.655 54.3151L51.8214 56.1119C51.3883 56.2001 51.1084 56.6232 51.1964 57.0571L51.198 57.065C51.286 57.4989 51.7084 57.7791 52.1416 57.691L60.9752 55.8942C61.4083 55.8061 61.6882 55.3829 61.6002 54.9491L61.5986 54.9411C61.5106 54.5073 61.0882 54.227 60.655 54.3151Z" fill="#D6D6D6"/>
<path d="M61.7556 59.7555L52.922 61.5524C52.4888 61.6405 52.209 62.0636 52.297 62.4975L52.2986 62.5054C52.3866 62.9393 52.809 63.2196 53.2422 63.1315L62.0758 61.3346C62.5089 61.2465 62.7888 60.8233 62.7008 60.3895L62.6992 60.3815C62.6112 59.9477 62.1887 59.6674 61.7556 59.7555Z" fill="#D6D6D6"/>
<path d="M62.8571 65.1745L54.0236 66.9713C53.5904 67.0594 53.3106 67.4826 53.3985 67.9164L53.4002 67.9244C53.4881 68.3582 53.9106 68.6385 54.3438 68.5504L63.1773 66.7536C63.6105 66.6654 63.8903 66.2423 63.8024 65.8084L63.8008 65.8005C63.7128 65.3666 63.2903 65.0863 62.8571 65.1745Z" fill="#D6D6D6"/>
<path d="M63.5653 71.5974L39.5207 76.4884C39.0875 76.5765 38.8076 76.9997 38.8956 77.4335L38.8972 77.4415C38.9852 77.8753 39.4077 78.1556 39.8408 78.0675L63.8855 73.1765C64.3187 73.0884 64.5985 72.6652 64.5106 72.2314L64.509 72.2234C64.421 71.7896 63.9985 71.5093 63.5653 71.5974Z" fill="#D6D6D6"/>
<path d="M65.7267 78.2312C65.7555 78.4354 65.7055 78.6429 65.5868 78.8114C65.4682 78.98 65.2897 79.0968 65.088 79.1381L64.6676 79.219L41.0537 84.0206C40.8459 84.0615 40.6304 84.019 40.4536 83.9024C40.2767 83.7858 40.1526 83.6044 40.1078 83.3971C40.0787 83.1941 40.1276 82.9875 40.2446 82.8192C40.3617 82.6509 40.5382 82.5333 40.7384 82.4903L64.7808 77.632C64.9286 77.5888 65.0857 77.5888 65.2335 77.632C65.3593 77.6825 65.4703 77.7638 65.5565 77.8685C65.6426 77.9732 65.7012 78.0979 65.7267 78.2312Z" fill="#D6D6D6"/>
<path d="M66.9372 84.2255C66.9663 84.4286 66.9174 84.6352 66.8004 84.8035C66.6833 84.9718 66.5069 85.0894 66.3066 85.1324L59.5159 86.517L42.24 90.0798C42.0311 90.1204 41.8146 90.0768 41.6375 89.9586C41.4604 89.8404 41.337 89.657 41.2941 89.4482C41.2652 89.244 41.3153 89.0364 41.4339 88.8679C41.5526 88.6994 41.731 88.5826 41.9328 88.5413L61.5046 84.5656L65.9913 83.6021C66.1991 83.5612 66.4146 83.6037 66.5915 83.7203C66.7683 83.8368 66.8925 84.0183 66.9372 84.2255Z" fill="#D6D6D6"/>
<path d="M65.0942 79.181L64.6738 79.262C64.8876 78.7322 65.0737 78.1917 65.2316 77.6426C65.3564 77.6923 65.4668 77.7724 65.5529 77.8756C65.639 77.9788 65.6981 78.1019 65.7248 78.2337C65.7653 78.4429 65.7219 78.6597 65.6038 78.8371C65.4858 79.0145 65.3026 79.138 65.0942 79.181Z" fill="#BBBBBB"/>
<path d="M66.9389 84.2255C66.968 84.4286 66.9191 84.6352 66.8021 84.8035C66.685 84.9718 66.5085 85.0894 66.3083 85.1324L59.5176 86.517C60.2339 85.883 60.9039 85.1984 61.5225 84.4685L65.993 83.6021C66.2008 83.5612 66.4163 83.6037 66.5931 83.7203C66.77 83.8368 66.8941 84.0183 66.9389 84.2255Z" fill="#BBBBBB"/>
<path d="M97.8937 63.7353L88.7505 95.7917C88.5096 96.6256 87.95 97.3306 87.1931 97.7536C86.4363 98.1765 85.5434 98.2834 84.7084 98.0508L56.7452 90.0752C55.9129 89.834 55.2096 89.2731 54.7886 88.5147C54.3676 87.7563 54.263 86.8619 54.4977 86.0266L65.9207 45.9702C66.1579 45.1339 66.7169 44.4262 67.4748 44.0026C68.2328 43.579 69.1277 43.4741 69.9628 43.7111L89.9389 49.4439C90.3874 49.5737 90.8035 49.7973 91.1596 50.0998C91.4606 50.3542 91.7126 50.6615 91.9033 51.0066L93.5202 53.9135L97.5623 61.2009C97.7485 61.5445 97.8769 61.9166 97.9422 62.3021C98.0287 62.7778 98.0121 63.2665 97.8937 63.7353Z" fill="#EEEEEE"/>
<path d="M97.8937 63.7398L88.7505 95.7963C88.5096 96.6301 87.95 97.3351 87.1931 97.7581C86.4363 98.1811 85.5434 98.2879 84.7084 98.0554L56.7452 90.0797C55.9129 89.8386 55.2096 89.2777 54.7886 88.5192C54.3676 87.7608 54.263 86.8665 54.4977 86.0312C55.0071 86.9704 56.5673 88.768 61.3127 89.9097C67.966 91.5291 80.7795 95.1728 86.3252 83.3429C91.871 71.5131 94.0052 62.4686 89.7772 59.497L93.5444 53.999L97.5865 61.2864C97.7728 61.6301 97.9012 62.0021 97.9665 62.3876C98.0336 62.8387 98.0089 63.2986 97.8937 63.7398Z" fill="#DADADA"/>
<path d="M95.3098 57.1052L95.229 57.3967C95.1482 57.6767 94.9598 57.9132 94.7053 58.0543C94.4507 58.1955 94.1506 58.2298 93.8708 58.1498L69.9982 51.3158C69.7187 51.2349 69.4826 51.0462 69.3417 50.7913C69.2007 50.5363 69.1665 50.2357 69.2464 49.9555L69.3838 49.4697C69.4229 49.3305 69.4891 49.2004 69.5788 49.087C69.6684 48.9736 69.7796 48.8792 69.9059 48.8091C70.0322 48.7391 70.1712 48.6948 70.3147 48.679C70.4582 48.6631 70.6034 48.6759 70.742 48.7166L94.4206 55.4939L95.3098 57.1052Z" fill="#6C6C6C"/>
<path d="M93.0681 64.9741C93.0147 65.1592 92.9018 65.3215 92.7468 65.4357C92.5918 65.5499 92.4035 65.6097 92.2112 65.6057C92.1413 65.6129 92.0709 65.6129 92.001 65.6057L67.6918 58.6422C67.4939 58.5797 67.3246 58.4486 67.2144 58.2725C67.1041 58.0964 67.0602 57.8866 67.0903 57.681C67.1205 57.4753 67.2228 57.2871 67.379 57.1502C67.5351 57.0132 67.7349 56.9365 67.9424 56.9337C68.0174 56.9218 68.0938 56.9218 68.1688 56.9337L91.9767 63.7514L92.478 63.8972C92.5875 63.9288 92.6897 63.9818 92.7787 64.0531C92.8677 64.1245 92.9417 64.2127 92.9965 64.3128C93.0514 64.4128 93.0859 64.5228 93.0982 64.6363C93.1105 64.7498 93.1003 64.8646 93.0681 64.9741Z" fill="#919191"/>
<path d="M91.0731 71.9369C91.0444 72.0549 90.9895 72.165 90.9125 72.2589C90.8356 72.3528 90.7385 72.4281 90.6285 72.4794C90.5002 72.5428 90.3592 72.5761 90.2162 72.5765C90.1436 72.5842 90.0705 72.5842 89.9979 72.5765L65.6806 65.5725C65.4592 65.5085 65.272 65.3593 65.16 65.1576C65.0479 64.9558 65.02 64.7179 65.0824 64.4956C65.1464 64.2738 65.2953 64.0863 65.4967 63.9741C65.6982 63.8618 65.9357 63.8339 66.1576 63.8964L90.4749 70.8599C90.6868 70.9225 90.8663 71.0647 90.9761 71.2567C91.0411 71.356 91.0834 71.4684 91.1002 71.586C91.117 71.7035 91.1077 71.8233 91.0731 71.9369Z" fill="#919191"/>
<path d="M89.1247 78.8893C89.0728 79.0759 88.9605 79.24 88.8054 79.3558C88.6503 79.4715 88.4612 79.5325 88.2678 79.5289C88.1952 79.5368 88.122 79.5368 88.0495 79.5289L63.7403 72.5654C63.6235 72.5386 63.5135 72.4879 63.4174 72.4163C63.3212 72.3447 63.2409 72.2539 63.1817 72.1496C63.1224 72.0453 63.0854 71.9298 63.073 71.8104C63.0606 71.691 63.0731 71.5704 63.1097 71.4561C63.1622 71.271 63.2751 71.109 63.4305 70.9959C63.5859 70.8828 63.7747 70.8254 63.9667 70.8327C64.039 70.8214 64.1126 70.8214 64.1849 70.8327L88.4941 77.7881L88.6801 77.869C88.862 77.9597 89.0063 78.1116 89.0876 78.2982C89.1689 78.4847 89.182 78.694 89.1247 78.8893Z" fill="#919191"/>
<path d="M87.1182 85.8414C87.0648 86.0266 86.9519 86.1888 86.7969 86.3031C86.642 86.4173 86.4537 86.477 86.2613 86.473C86.186 86.4803 86.1102 86.4803 86.035 86.473L84.693 86.0924L61.7258 79.4771C61.5265 79.4142 61.3564 79.2818 61.2463 79.104C61.1362 78.9262 61.0934 78.7147 61.1257 78.508C61.158 78.3012 61.2632 78.113 61.4223 77.9773C61.5813 77.8416 61.7837 77.7676 61.9926 77.7686C62.0651 77.7614 62.1383 77.7614 62.2108 77.7686L85.655 84.4892L86.4634 84.7321C86.5818 84.7572 86.6936 84.8066 86.7919 84.8773C86.8902 84.948 86.9727 85.0383 87.0343 85.1426C87.0958 85.2469 87.1351 85.3629 87.1496 85.4832C87.164 85.6035 87.1533 85.7255 87.1182 85.8414Z" fill="#919191"/>
<path d="M85.1288 92.7889C85.0781 92.9763 84.9661 93.1412 84.8107 93.2572C84.6553 93.3732 84.4656 93.4335 84.2718 93.4286C84.1993 93.4364 84.1261 93.4364 84.0536 93.4286L76.5757 91.2829L59.7444 86.4246C59.539 86.3673 59.3616 86.2368 59.2457 86.0575C59.1298 85.8783 59.0834 85.6628 59.1153 85.4516C59.1471 85.2405 59.2549 85.0483 59.4185 84.9113C59.582 84.7743 59.79 84.702 60.0031 84.708C60.0756 84.7002 60.1488 84.7002 60.2213 84.708L79.5426 90.2464L84.5305 91.6715C84.6447 91.7029 84.7514 91.7572 84.844 91.8311C84.9365 91.9051 85.0131 91.9971 85.0691 92.1016C85.1251 92.2061 85.1592 92.321 85.1695 92.4391C85.1797 92.5573 85.1659 92.6763 85.1288 92.7889Z" fill="#919191"/>
<path d="M85.1224 92.7894C85.0718 92.9768 84.9598 93.1417 84.8044 93.2577C84.649 93.3737 84.4592 93.434 84.2655 93.4291C84.1929 93.4369 84.1198 93.4369 84.0472 93.4291L76.5693 91.2834C77.5904 91.0716 78.5853 90.7484 79.5362 90.3198L84.5242 91.7449C84.7385 91.8091 84.9201 91.9533 85.0314 92.1476C85.1427 92.342 85.1753 92.5717 85.1224 92.7894Z" fill="#6C6C6C"/>
<path d="M87.1128 85.8402C87.0594 86.0253 86.9464 86.1876 86.7914 86.3018C86.6365 86.416 86.4482 86.4758 86.2558 86.4718C86.1806 86.4791 86.1047 86.4791 86.0295 86.4718L84.6875 86.0912C85.0486 85.5999 85.378 85.0861 85.6738 84.5527L86.4822 84.7956C86.7025 84.8531 86.8917 84.9944 87.0095 85.1895C87.1273 85.3846 87.1644 85.6181 87.1128 85.8402Z" fill="#6C6C6C"/>
<path d="M89.1289 78.885C89.077 79.0717 88.9647 79.2357 88.8096 79.3515C88.6545 79.4673 88.4654 79.5282 88.272 79.5247C88.1994 79.5325 88.1263 79.5325 88.0537 79.5247C88.2882 78.9822 88.5064 78.4478 88.7166 77.9053C88.8843 77.9995 89.0158 78.1469 89.0905 78.3244C89.1651 78.5018 89.1786 78.699 89.1289 78.885Z" fill="#6C6C6C"/>
<path d="M90.9875 71.2573C91.048 71.3601 91.0867 71.4742 91.1015 71.5926C91.1163 71.7109 91.1067 71.8311 91.0734 71.9456C91.0401 72.0601 90.9837 72.1666 90.9078 72.2585C90.8318 72.3504 90.7379 72.4258 90.6318 72.48C90.745 72.0589 90.8824 71.6541 90.9875 71.2573Z" fill="#6C6C6C"/>
<path d="M93.0632 64.9759C93.0098 65.1611 92.8968 65.3233 92.7419 65.4375C92.5869 65.5518 92.3986 65.6115 92.2063 65.6075C92.1364 65.6147 92.066 65.6147 91.9961 65.6075C92.0413 65.0011 92.0413 64.3921 91.9961 63.7856L92.4973 63.9314C92.7068 64.0004 92.8821 64.147 92.9872 64.3412C93.0924 64.5353 93.1196 64.7624 93.0632 64.9759Z" fill="#6C6C6C"/>
<path d="M98.0223 62.3457L89.7037 59.9732C89.3865 59.8827 89.1182 59.6699 88.9576 59.3815C88.7969 59.0931 88.7571 58.7526 88.8468 58.4348L91.2073 50.1353C91.5083 50.3897 91.7604 50.697 91.9511 51.0421L95.1848 56.9206L97.61 61.2769C97.8043 61.6085 97.9435 61.9694 98.0223 62.3457Z" fill="#E5E5E5"/>
<path d="M98.0223 62.343L89.7037 59.9706C89.3865 59.8801 89.1182 59.6673 88.9576 59.3789C88.7969 59.0904 88.7571 58.7499 88.8468 58.4321C88.9114 58.7398 89.2267 59.1609 90.2777 59.4524C92.1774 59.9787 97.1088 60.5212 95.209 56.918L97.6343 61.2742C97.8201 61.6073 97.9511 61.9682 98.0223 62.343Z" fill="#CCCCCC"/>
</svg>
