<svg xmlns="http://www.w3.org/2000/svg" width="18" height="18" viewBox="0 0 18 18">
  <g id="Group_102699" data-name="Group 102699" transform="translate(-2601 -787)">
    <rect id="Rectangle_55036" data-name="Rectangle 55036" width="18" height="18" transform="translate(2601 787)" fill="#aaa" opacity="0"/>
    <path id="Path_41762" data-name="Path 41762" d="M-345.585,18.869a5.8,5.8,0,0,0-3.993-1.574,5.848,5.848,0,0,0-5.659,4.41.419.419,0,0,1-.4.318h-1.992a.417.417,0,0,1-.411-.493,8.624,8.624,0,0,1,8.472-7.016,8.59,8.59,0,0,1,5.955,2.388l1.242-1.241a.834.834,0,0,1,1.424.59v4.66a.834.834,0,0,1-.834.834h-4.66a.834.834,0,0,1-.59-1.424Z" transform="translate(2959.5 777.5)" fill="#aaa"/>
  </g>
</svg>
