<svg width="18" height="16" viewBox="0 0 18 16" fill="none" xmlns="http://www.w3.org/2000/svg">
<path d="M14.7861 0.350098H3.21468C1.9364 0.350098 0.900391 1.25134 0.900391 2.36334V11.1678C0.900391 12.2798 1.9364 13.181 3.21468 13.181L4.43337 13.219V15.0423H3.91635V15.6501H6.68611H7.19082V15.0423H6.68611V13.219L11.3147 13.181V15.0423H10.9823V15.6501H13.6536H13.9983V15.0423H13.6536V13.181H14.7861C16.0644 13.181 17.1004 12.2798 17.1004 11.1678V2.36334C17.1004 1.25134 16.0626 0.350098 14.7861 0.350098ZM4.37182 11.1678H3.21468V7.82912H4.37182V11.1678ZM4.37182 5.81588H3.21468V2.36334H4.37182V5.81588ZM7.84325 11.1678H6.68611V7.82912H7.84325V11.1678ZM11.3147 11.1678H10.1575V7.82912H11.3147V11.1678ZM11.3147 5.81588H6.68611V2.36334H11.3147V5.81588ZM14.7861 11.1678H13.629V7.82912H14.7861V11.1678ZM14.7861 5.81588H13.629V2.36334H14.7861V5.81588Z" fill="#DADADA"/>
</svg>
