<svg width="10" height="7" viewBox="0 0 10 7" fill="none" xmlns="http://www.w3.org/2000/svg">
<path d="M0.736925 0.694959L9.25793 0.694959C9.38903 0.694802 9.51723 0.733578 9.62628 0.806372C9.73532 0.879165 9.82029 0.982697 9.87042 1.10384C9.92055 1.22499 9.93357 1.35829 9.90785 1.48685C9.88213 1.61541 9.81881 1.73343 9.72593 1.82596L5.46593 6.08696C5.40444 6.14855 5.33141 6.19741 5.25102 6.23075C5.17063 6.26409 5.08445 6.28125 4.99743 6.28125C4.9104 6.28125 4.82422 6.26409 4.74383 6.23075C4.66344 6.19741 4.59041 6.14855 4.52893 6.08696L0.272925 1.82596C0.18028 1.73367 0.117043 1.61601 0.0911908 1.48783C0.0653387 1.35964 0.07803 1.22667 0.127664 1.10569C0.177297 0.984703 0.26165 0.881131 0.37008 0.808034C0.47851 0.734937 0.606159 0.695591 0.736925 0.694959Z" fill="#6C6C6C"/>
</svg>
