<svg xmlns="http://www.w3.org/2000/svg" width="19" height="19" viewBox="0 0 19 19"><g transform="translate(-5406.5 -13568.5)"><rect width="18" height="18" transform="translate(5407 13569)" fill="none" stroke="rgba(0,0,0,0)" stroke-width="1"/><path d="M13.289,48.2H.886A.875.875,0,0,1,0,47.332v-.868A.875.875,0,0,1,.886,45.6h12.4a.875.875,0,0,1,.886.868v.868A.875.875,0,0,1,13.289,48.2ZM4.725,32.868v4.918H1.488a.72.72,0,0,0-.52,1.233l5.618,5.5a.726.726,0,0,0,1.008,0l5.618-5.5a.72.72,0,0,0-.52-1.233H9.45V32.868A.875.875,0,0,0,8.564,32H5.611A.875.875,0,0,0,4.725,32.868Z" transform="translate(5375.9 13585.088) rotate(-90)" fill="#aaa" stroke="rgba(0,0,0,0)" stroke-width="1"/></g></svg>