<svg xmlns="http://www.w3.org/2000/svg" width="14" height="14" viewBox="0 0 14 14">
  <g id="GPS_Available" data-name="GPS Available" transform="translate(-6028.367 -13487)">
    <rect id="Rectangle_56835" data-name="Rectangle 56835" width="14" height="14" transform="translate(6028.367 13487)" fill="#b7b7b7" opacity="0"/>
    <path id="location" d="M13.563,6.125H12.171a5.246,5.246,0,0,0-4.3-4.3V.438A.437.437,0,0,0,7.438,0H6.563a.437.437,0,0,0-.437.438V1.829a5.246,5.246,0,0,0-4.3,4.3H.438A.437.437,0,0,0,0,6.563v.875a.437.437,0,0,0,.438.438H1.829a5.246,5.246,0,0,0,4.3,4.3v1.391A.437.437,0,0,0,6.563,14h.875a.437.437,0,0,0,.438-.437V12.171a5.246,5.246,0,0,0,4.3-4.3h1.391A.437.437,0,0,0,14,7.438V6.563A.437.437,0,0,0,13.563,6.125ZM7,10.5A3.5,3.5,0,1,1,10.5,7,3.5,3.5,0,0,1,7,10.5ZM7,4.594A2.406,2.406,0,1,0,9.406,7,2.406,2.406,0,0,0,7,4.594Z" transform="translate(6028.367 13487)" fill="#b7b7b7"/>
  </g>
</svg>
