<svg xmlns="http://www.w3.org/2000/svg" width="14" height="14" viewBox="0 0 14 14" fill="none">
<path d="M8.85679 7.0001L11.6424 4.21429C11.8066 4.05005 11.8988 3.82731 11.8988 3.59505C11.8988 3.3628 11.8066 3.14005 11.6424 2.97581L11.0232 2.35657C10.8589 2.19235 10.6362 2.1001 10.404 2.1001C10.1717 2.1001 9.94902 2.19235 9.78479 2.35657L7 5.14237L4.21364 2.35657C4.04941 2.19235 3.82668 2.1001 3.59444 2.1001C3.36221 2.1001 3.13948 2.19235 2.97525 2.35657L2.35606 2.97581C2.19186 3.14005 2.09961 3.3628 2.09961 3.59505C2.09961 3.82731 2.19186 4.05005 2.35606 4.21429L5.14163 7.0001L2.35685 9.7859C2.19265 9.95014 2.1004 10.1729 2.1004 10.4051C2.1004 10.6374 2.19265 10.8601 2.35685 11.0244L2.97604 11.6436C3.14027 11.8078 3.363 11.9001 3.59524 11.9001C3.82747 11.9001 4.0502 11.8078 4.21443 11.6436L7 8.85782L9.78558 11.6436C9.94981 11.8078 10.1725 11.9001 10.4048 11.9001C10.637 11.9001 10.8597 11.8078 11.024 11.6436L11.6432 11.0244C11.8074 10.8601 11.8996 10.6374 11.8996 10.4051C11.8996 10.1729 11.8074 9.95014 11.6432 9.7859L8.85679 7.0001Z" fill="white"/>
</svg>