<svg xmlns="http://www.w3.org/2000/svg" width="19" height="19" viewBox="0 0 19 19"><g transform="translate(-5442.5 -13568.5)"><rect width="18" height="18" transform="translate(5443 13569)" fill="none" stroke="rgba(0,0,0,0)" stroke-width="1"/><path d="M45,.45A8.55,8.55,0,1,0,53.55,9,8.55,8.55,0,0,0,45,.45m1.968,12.07-3.04-2.21a.415.415,0,0,1-.169-.334v-5.8a.415.415,0,0,1,.413-.413h1.655a.415.415,0,0,1,.413.413v4.75l2.185,1.593a.413.413,0,0,1,.091.578v0l-.972,1.338a.416.416,0,0,1-.575.086" transform="translate(5407 13569)" fill="#aaa" stroke="rgba(0,0,0,0)" stroke-width="1"/></g></svg>