<svg width="18" height="16" viewBox="0 0 18 16" fill="none" xmlns="http://www.w3.org/2000/svg">
<path d="M1.91339 14.1707C1.91313 14.3059 1.93915 14.4399 1.98997 14.5649C2.04078 14.6898 2.11539 14.8034 2.20951 14.899C2.30362 14.9946 2.4154 15.0704 2.53842 15.122C2.66144 15.1736 2.79329 15.2001 2.92639 15.1998H15.0764C15.2094 15.1999 15.3411 15.1734 15.4641 15.1217C15.587 15.07 15.6986 14.9942 15.7926 14.8986C15.8866 14.803 15.9612 14.6895 16.0119 14.5646C16.0627 14.4397 16.0887 14.3059 16.0884 14.1707V4.91409H1.91339V14.1707ZM6.97639 7.35625C6.97666 7.25395 7.01678 7.15592 7.08798 7.08358C7.15919 7.01125 7.25569 6.97049 7.35639 6.97022H10.6454C10.7461 6.97049 10.8426 7.01125 10.9138 7.08358C10.985 7.15592 11.0251 7.25395 11.0254 7.35625V7.61327C11.0251 7.71557 10.985 7.8136 10.9138 7.88594C10.8426 7.95827 10.7461 7.99903 10.6454 7.9993H7.35539C7.25469 7.99903 7.15819 7.95827 7.08698 7.88594C7.01578 7.8136 6.97566 7.71557 6.97539 7.61327L6.97639 7.35625ZM16.0884 0.799807H1.91339C1.78029 0.799539 1.64844 0.825973 1.52542 0.877595C1.4024 0.929216 1.29062 1.00501 1.19651 1.10062C1.10239 1.19623 1.02778 1.30978 0.976966 1.43476C0.926151 1.55973 0.900129 1.69367 0.900393 1.82889V3.372C0.900919 3.50816 0.954399 3.6386 1.04918 3.73488C1.14396 3.83116 1.27236 3.88549 1.40639 3.88603H16.5944C16.7284 3.88549 16.8568 3.83116 16.9516 3.73488C17.0464 3.6386 17.0999 3.50816 17.1004 3.372V1.82889C17.1007 1.69376 17.0747 1.5599 17.0239 1.43499C16.9732 1.31009 16.8986 1.19658 16.8046 1.10098C16.7106 1.00538 16.599 0.92957 16.4761 0.877889C16.3531 0.826208 16.2214 0.799673 16.0884 0.799807Z" fill="#919191"/>
</svg>
