<svg xmlns="http://www.w3.org/2000/svg" width="18" height="18" viewBox="0 0 18 18">
  <g id="Group_77504" data-name="Group 77504" transform="translate(-1763 -205)">
    <rect id="Rectangle_61666" data-name="Rectangle 61666" width="18" height="18" transform="translate(1763 205)" fill="#ccc" opacity="0"/>
    <path id="thumbs-down" d="M3.037,32H1.012A1.007,1.007,0,0,0,0,32.985v7.059a.989.989,0,0,0,1.012.984H3.037a1.007,1.007,0,0,0,1.012-.984V33.013A1.012,1.012,0,0,0,3.037,32Zm11.748,6.586a1.511,1.511,0,0,0-.837-2.512,1.527,1.527,0,0,0-.826-2.251,1.14,1.14,0,0,0,.04-.307A1.518,1.518,0,0,0,11.644,32H9.787A5.062,5.062,0,0,0,6.75,33.012l-1.08.81a1.507,1.507,0,0,0-.607,1.187l0,5.063h0a1.518,1.518,0,0,0,.567,1.182l.516.412c2.591,2.1,1.426,4.509,3.423,4.509a1.529,1.529,0,0,0,1.565-1.522,7.726,7.726,0,0,0-1.092-3.038h4.637a1.515,1.515,0,0,0,.1-3.027Z" transform="translate(1763.9 175.925)" fill="#ccc"/>
  </g>
</svg>
