<svg xmlns="http://www.w3.org/2000/svg" width="18" height="18" viewBox="0 0 18 18"><g transform="translate(-5874.564 -13493)"><rect width="18" height="18" transform="translate(5874.564 13493)" fill="#ef5350" opacity="0"/><path d="M9,.45A8.55,8.55,0,1,0,17.55,9,8.55,8.55,0,0,0,9,.45M8.038,3.495A.573.573,0,0,1,8.6,2.918h.758a.566.566,0,0,1,.567.564v5.7a.563.563,0,0,1-.56.566H8.6a.571.571,0,0,1-.567-.566ZM9,14.867A5.875,5.875,0,0,1,5.569,4.212a.569.569,0,0,1,.8.121.633.633,0,0,1,.039.061l.374.663a.568.568,0,0,1-.16.737,3.979,3.979,0,1,0,4.735,0,.577.577,0,0,1-.15-.737l.374-.663a.565.565,0,0,1,.767-.227A.474.474,0,0,1,12.4,4.2,5.877,5.877,0,0,1,9,14.867" transform="translate(5874.564 13493)" fill="#ef5350"/></g></svg>