<svg xmlns="http://www.w3.org/2000/svg" width="37.805" height="18" viewBox="0 0 37.805 18">
  <g id="Group_70407" data-name="Group 70407" transform="translate(0 -0.001)">
    <g id="Truck" transform="translate(0 0.001)">
      <path id="Path_1217" data-name="Path 1217" d="M-2182.09-577.869a2.363,2.363,0,0,0-2.4,2.329,2.363,2.363,0,0,0,2.4,2.329,2.363,2.363,0,0,0,2.4-2.329,2.363,2.363,0,0,0-2.4-2.329Z" transform="translate(2213.685 591.21)" fill="#b7b7b7"/>
      <path id="Path_1218" data-name="Path 1218" d="M-2187.079-585.059l-.033-.025a.087.087,0,0,0,.027-.069c-.024-.347-.118-1.587-.274-2.444a1.651,1.651,0,0,0-1-1.28,46.784,46.784,0,0,0-5.659-1.53h-.015a.528.528,0,0,1-.462-.342h0l-1.016-2.259a.088.088,0,0,1,.005-.082.087.087,0,0,1,.071-.042l.092,0h.426c.185,0,.321-.077.283-.215h.007l-.025-.045a.25.25,0,0,0-.013-.023,6.453,6.453,0,0,0-.965-1.382l-.012-.007-.979-.45a.088.088,0,0,1-.032-.025c-.185-.234-2.43-2.911-8.944-3.722a.093.093,0,0,1-.038-.014,2.789,2.789,0,0,0-1.308-.357h0c-.2-.01-.386-.017-.557-.021h-.122c-.3-.005-.523,0-.639,0a.087.087,0,0,0-.086.088v12.664h0a1.408,1.408,0,0,1-.24.722.086.086,0,0,1-.064.03h-5.162a.087.087,0,0,0-.082.058.088.088,0,0,0,.026.1,2.637,2.637,0,0,1,.883,1.405.087.087,0,0,0,.086.064.087.087,0,0,1,.062.026.085.085,0,0,1,.025.062v2.138a.088.088,0,0,0,.026.062.089.089,0,0,0,.063.025h16.48a.454.454,0,0,0,.375-.228.453.453,0,0,0,.006-.439l-.122-.228-.006-.013a2.879,2.879,0,0,1-.158-.947,2.88,2.88,0,0,1,2.873-2.886,2.873,2.873,0,0,1,2.572,1.593.086.086,0,0,0,.075.049h-.052c.011.023.021.046.031.069l.023.053c.012.028.023.057.035.086h0v.006a.831.831,0,0,1,.036.1h0a4.34,4.34,0,0,1,.15.988,11.407,11.407,0,0,1,0,1.273v.01h.1a5.134,5.134,0,0,0,2.97-.664.694.694,0,0,0,.275-.553Zm-7.954-4.864-4.343-.336a.616.616,0,0,1-.545-.605v-1.917a.341.341,0,0,1,.1-.241.341.341,0,0,1,.245-.1l2.908.038a.584.584,0,0,1,.521.329l1.195,2.706a.088.088,0,0,1-.007.084.087.087,0,0,1-.074.039Zm4.244,1.27a.088.088,0,0,1,0-.1.088.088,0,0,1,.1-.033,15.751,15.751,0,0,1,2.175.817,1.333,1.333,0,0,1,.684.913.088.088,0,0,1-.038.091.088.088,0,0,1-.1,0,22.755,22.755,0,0,0-2.026-1.086,2.211,2.211,0,0,1-.794-.6Z" transform="translate(2224.873 599.4)" fill="#b7b7b7"/>
      <path id="Path_1219" data-name="Path 1219" d="M-2218.18-577.869a2.363,2.363,0,0,0-2.4,2.329,2.362,2.362,0,0,0,2.4,2.329,2.363,2.363,0,0,0,2.4-2.329,2.364,2.364,0,0,0-2.4-2.329Z" transform="translate(2227.312 591.21)" fill="#b7b7b7"/>
      <path id="Path_1220" data-name="Path 1220" d="M-2226.717-577.709a2.448,2.448,0,0,0-.877-.161,2.457,2.457,0,0,0-.878.161,2.332,2.332,0,0,0-1.518,2.168,2.364,2.364,0,0,0,2.4,2.329,2.364,2.364,0,0,0,2.4-2.329A2.331,2.331,0,0,0-2226.717-577.709Z" transform="translate(2230.868 591.211)" fill="#b7b7b7"/>
      <path id="Path_1221" data-name="Path 1221" d="M-2220.894-577.984h-.973l1.06-.237a.193.193,0,0,0,.15-.172.158.158,0,0,0-.005-.055.194.194,0,0,0-.232-.142l-2.537.567-.172.039a2.647,2.647,0,0,1,1.1,1.625h.5a2.646,2.646,0,0,1,1.1-1.625Z" transform="translate(2228.439 591.486)" fill="#b7b7b7"/>
      <path id="Path_1222" data-name="Path 1222" d="M-2229.7-577.609h-1.065l-.643.435v2.358l.291.249v-.055a7.082,7.082,0,0,1,.316-1.362.748.748,0,0,0,.044-.174,2.647,2.647,0,0,1,1.057-1.451Z" transform="translate(2231.406 591.111)" fill="#b7b7b7"/>
    </g>
  </g>
</svg>
