<svg width="100" height="100" viewBox="0 0 100 100" fill="none" xmlns="http://www.w3.org/2000/svg">
<path d="M8.38245 54.5341C10.2239 54.5341 11.3552 54.1658 12.2496 53.3766C13.223 52.5085 13.8017 51.1142 13.8017 49.72C13.8017 48.3257 13.223 46.984 12.2496 46.1159C11.3025 45.2741 10.1976 44.9584 8.38245 44.9584H7.61955V54.5341H8.38245Z" fill="black"/>
<path d="M87.2686 49.1813H88.0842C89.8994 49.1813 90.8464 48.3921 90.8464 46.9452C90.8464 45.5247 89.8994 44.7881 88.1368 44.7881H87.2686V49.1813Z" fill="black"/>
<path fill-rule="evenodd" clip-rule="evenodd" d="M10 12.5C4.47715 12.5 0 16.9772 0 22.5V77.5C0 83.0229 4.47716 87.5 10 87.5H90C95.5229 87.5 100 83.0229 100 77.5V22.5C100 16.9772 95.5228 12.5 90 12.5H10ZM4.80469 42.4855H8.9349C13.5123 42.4855 16.6955 45.4582 16.7218 49.7463C16.7218 51.8771 15.7484 53.9291 14.0911 55.2971C12.6968 56.4283 11.1184 56.9544 8.9349 56.9544H4.80469V42.4855ZM20.8275 42.4855H18.0126V56.9544H20.8275V42.4855ZM25.5496 46.2308C25.5496 46.9937 26.0494 47.4147 27.7331 48.046C30.9426 49.2298 31.9159 50.2821 31.8633 52.6235C31.8633 55.4383 29.785 57.385 26.865 57.385C24.7341 57.385 23.1557 56.5432 21.8666 54.6228L23.6818 52.8602C24.3395 54.0967 25.4181 54.7806 26.7597 54.7806C28.0225 54.7806 28.9432 53.9125 28.9432 52.7287C28.9432 52.1236 28.6538 51.5975 28.1014 51.2292C27.812 51.0713 27.2596 50.8083 26.1547 50.4137C23.524 49.4666 22.6032 48.4406 22.6032 46.4413C22.6032 44.0737 24.5762 42.2848 27.128 42.2848C28.7328 42.2848 30.1797 42.8372 31.3898 43.8895L29.9166 45.8099C29.2063 44.9681 28.496 44.6261 27.6542 44.6261C26.444 44.6261 25.5496 45.3101 25.5496 46.2308ZM32.7461 49.7408C32.7461 54.0025 36.0871 57.2909 40.3752 57.2909C41.5853 57.2909 42.6376 57.0541 43.9003 56.4491V53.1344C42.7691 54.2656 41.7694 54.7128 40.5067 54.7128C37.6655 54.7128 35.6399 52.6609 35.6399 49.7145C35.6399 46.9259 37.7181 44.7424 40.3752 44.7424C41.7168 44.7424 42.7428 45.216 43.9003 46.3735V43.0588C42.6639 42.4274 41.6379 42.1643 40.4278 42.1643C36.1923 42.1643 32.7461 45.5316 32.7461 49.7408ZM62.4808 42.4855L66.3479 52.2191L70.2414 42.4855H73.293L67.0582 57.3227H65.5324L59.4029 42.4855H62.4808ZM74.5779 56.9544H82.5753V54.5078H77.3928V50.6144H82.3911V48.1678H77.3928V44.9584H82.5753V42.4855H74.5779V56.9544ZM88.6366 42.5257C91.8987 42.5257 93.7665 44.0778 93.7665 46.7874C93.7665 48.9972 92.5827 50.4441 90.4518 50.8913L95.0029 56.9945H91.5304L87.6369 51.1807H87.2686V56.9945H84.4538V42.5257H88.6366ZM52.5781 57.5C56.8351 57.5 60.2861 54.049 60.2861 49.792C60.2861 45.535 56.8351 42.084 52.5781 42.084C48.3211 42.084 44.8701 45.535 44.8701 49.792C44.8701 54.049 48.3211 57.5 52.5781 57.5ZM94.9032 63.19C78.5883 71.3475 61.4296 77.6949 43.7337 82.1189L33.3203 84.7222H91.2833C94.0447 84.7222 96.2833 82.4836 96.2833 79.7222V62.5L94.9032 63.19Z" fill="black"/>
</svg>
