<svg xmlns="http://www.w3.org/2000/svg" width="15.176" height="17.2" viewBox="0 0 15.176 17.2">
  <path id="Path_36196" data-name="Path 36196" d="M2.125,15.682A1.519,1.519,0,0,0,3.644,17.2H14.782A1.519,1.519,0,0,0,16.3,15.682V7.075H2.125ZM4.15,9.606A.508.508,0,0,1,4.657,9.1H7.694a.507.507,0,0,1,.506.506v3.038a.507.507,0,0,1-.506.506H4.657a.508.508,0,0,1-.507-.506ZM14.782,3.025H13.262V1.507A.508.508,0,0,0,12.757,1H11.744a.508.508,0,0,0-.507.507V3.025H7.188V1.507A.508.508,0,0,0,6.682,1H5.669a.508.508,0,0,0-.507.507V3.025H3.644A1.519,1.519,0,0,0,2.125,4.543V6.062H16.3V4.543a1.519,1.519,0,0,0-1.518-1.518" transform="translate(-1.625 -0.5)" fill="#919191" stroke="rgba(0,0,0,0)" stroke-width="1"/>
</svg>