<svg width="20" height="15" viewBox="0 0 20 15" fill="none" xmlns="http://www.w3.org/2000/svg">
<path d="M18.8464 8.37519L12.7794 14.4422C12.658 14.5633 12.5034 14.6458 12.3351 14.6791C12.1668 14.7124 11.9925 14.6952 11.834 14.6295C11.6756 14.5638 11.5401 14.4526 11.4448 14.31C11.3495 14.1674 11.2985 13.9997 11.2984 13.8282V10.3612H6.38744C6.27351 10.3615 6.16065 10.3392 6.05534 10.2957C5.95003 10.2523 5.85435 10.1884 5.77379 10.1078C5.69323 10.0273 5.62937 9.93159 5.5859 9.82629C5.54242 9.72098 5.52017 9.60812 5.52044 9.49419V6.02819C5.52017 5.91426 5.54242 5.8014 5.5859 5.69609C5.62937 5.59078 5.69323 5.4951 5.77379 5.41454C5.85435 5.33398 5.95003 5.27012 6.05534 5.22665C6.16065 5.18317 6.27351 5.16093 6.38744 5.16119H11.2984V1.69419C11.299 1.52287 11.3502 1.35554 11.4456 1.21323C11.541 1.07093 11.6764 0.959991 11.8346 0.894378C11.9929 0.828764 12.167 0.811399 12.3351 0.844459C12.5032 0.877519 12.6578 0.959534 12.7794 1.08019L18.8464 7.14819C19.0076 7.31172 19.0979 7.53209 19.0979 7.76169C19.0979 7.99128 19.0076 8.21166 18.8464 8.37519ZM7.83244 14.2622V12.8172C7.83191 12.7025 7.78612 12.5927 7.70503 12.5116C7.62394 12.4305 7.51411 12.3847 7.39944 12.3842H4.36544C4.21356 12.3845 4.06312 12.3547 3.92274 12.2967C3.78237 12.2387 3.65483 12.1536 3.54743 12.0462C3.44004 11.9388 3.3549 11.8113 3.2969 11.6709C3.2389 11.5305 3.20917 11.3801 3.20944 11.2282V4.29419C3.20917 4.14231 3.2389 3.99186 3.2969 3.85149C3.3549 3.71112 3.44004 3.58358 3.54743 3.47619C3.65483 3.36879 3.78237 3.28365 3.92274 3.22565C4.06312 3.16764 4.21356 3.13793 4.36544 3.13819H7.39844C7.51311 3.13766 7.62294 3.09188 7.70403 3.01079C7.78512 2.9297 7.83091 2.81987 7.83144 2.70519V1.26119C7.83091 1.14651 7.78512 1.03669 7.70403 0.955596C7.62294 0.874506 7.51311 0.828715 7.39844 0.828189H4.36544C3.44619 0.828454 2.56465 1.19367 1.91454 1.84359C1.26444 2.4935 0.898968 3.37494 0.898438 4.29419L0.898438 11.2282C0.898703 12.1476 1.26406 13.0293 1.91419 13.6794C2.56432 14.3296 3.44601 14.6949 4.36544 14.6952H7.39844C7.51329 14.6949 7.62337 14.6493 7.70468 14.5681C7.78598 14.487 7.83191 14.377 7.83244 14.2622Z" fill="#E57373"/>
</svg>
