<svg id="Pay_Status_-_Declined" data-name="Pay Status - Declined" xmlns="http://www.w3.org/2000/svg" width="18" height="17.999" viewBox="0 0 18 17.999">
  <rect id="Rectangle_63472" data-name="Rectangle 63472" width="17.47" height="17.47" transform="translate(0 0)" fill="#fff" opacity="0"/>
  <path id="Path_33819" data-name="Path 33819" d="M56.8,0a8.8,8.8,0,1,0,8.8,8.8A8.8,8.8,0,0,0,56.8,0m0,13.828a1.257,1.257,0,1,1,1.257-1.257A1.257,1.257,0,0,1,56.8,13.828m1.5-9.365-.5,5.028a.629.629,0,0,1-.626.566h-.748a.628.628,0,0,1-.625-.566l-.5-5.028a.629.629,0,0,1,.625-.691h1.755a.629.629,0,0,1,.625.691" transform="translate(-47.599 0.4)" fill="#fff"/>
</svg>
