<svg xmlns="http://www.w3.org/2000/svg" width="20" height="20" viewBox="0 0 20 20">
  <g id="File_Manager" data-name="File Manager" transform="translate(-92 -828)">
    <rect id="Rectangle_52465" data-name="Rectangle 52465" width="20" height="20" transform="translate(92 828)" fill="#b7b7b7" opacity="0"/>
    <path id="Union_810" data-name="Union 810" d="M.418,16.045,4.7,7.656A.993.993,0,0,1,5.6,7.1H17.914A.981.981,0,0,1,18.8,8.551L15.236,15.5a1,1,0,0,1-.893.547ZM0,1.793A1.8,1.8,0,0,1,1.793,0H7.762L10.15,2.393h5.969a1.791,1.791,0,0,1,1.795,1.783V5.967H5.518A2.389,2.389,0,0,0,3.381,7.283L0,14.041Z" transform="translate(93.081 829.977)" fill="#b7b7b7"/>
  </g>
</svg>
