<svg width="18" height="18" viewBox="0 0 18 18" fill="none" xmlns="http://www.w3.org/2000/svg">
<path d="M14.5127 1.48418C13.5546 2.38224 13.8696 3.44939 13.3495 3.93639C12.3564 4.86685 10.6271 2.55133 9.73392 1.17841C9.67542 1.08891 9.59512 1.01618 9.50078 0.96722C9.40644 0.918264 9.30123 0.894738 9.19529 0.89891C9.08936 0.903081 8.98627 0.93481 8.89597 0.991036C8.80567 1.04726 8.7312 1.12609 8.67974 1.21992C7.8196 2.82874 5.9853 5.74366 4.56706 4.4163C3.73892 3.64075 4.33502 2.63334 3.41987 1.77577C3.06615 1.45942 2.6095 1.28643 2.13752 1.28998C1.66555 1.29353 1.21149 1.47337 0.862449 1.79501C0.820161 1.83491 0.780093 1.87717 0.742429 1.92157C0.54542 2.05691 0.378822 2.23279 0.253509 2.43773C0.128196 2.64267 0.0469851 2.87205 0.0151779 3.11092C-0.0166292 3.34978 0.00168223 3.59275 0.068917 3.82396C0.136152 4.05517 0.250798 4.26943 0.405373 4.45275C0.438378 4.49325 0.474384 4.53172 0.511391 4.5702C1.46455 5.46219 2.61174 5.16452 3.12582 5.6495C4.36203 6.80675 1.67958 8.80436 0.383369 9.6599C0.307165 9.70913 0.243194 9.77547 0.196428 9.85378C0.149661 9.93209 0.121357 10.0203 0.113714 10.1114C0.106071 10.2026 0.119295 10.2944 0.152358 10.3795C0.185421 10.4647 0.237434 10.541 0.304356 10.6025L7.06248 16.9305C7.16377 17.0251 7.29307 17.0832 7.43033 17.0958C7.56758 17.1085 7.70511 17.0749 7.8216 17.0003C8.9948 16.2491 12.1873 14.0196 10.8611 12.7803C10.346 12.2964 9.0168 12.7803 8.06064 11.8853C7.89011 11.7307 7.75379 11.5414 7.66061 11.3297C7.56744 11.118 7.51952 10.8888 7.51999 10.6571C7.52046 10.4253 7.56932 10.1963 7.66335 9.98503C7.75739 9.77375 7.89448 9.58497 8.06564 9.43109C8.11666 9.38376 8.17008 9.33916 8.22567 9.29744C8.54268 8.94229 8.97826 8.7184 9.44856 8.66886C9.91887 8.61933 10.3906 8.74765 10.7731 9.02913C10.8211 9.06558 10.8671 9.10406 10.9121 9.14456C11.8273 10.0021 11.2312 11.0095 12.0573 11.7831C13.2785 12.9272 15.0918 10.3656 16.324 8.95522C16.3806 8.88913 16.4222 8.81127 16.4458 8.72714C16.4694 8.643 16.4744 8.55465 16.4606 8.46831C16.4468 8.38198 16.4144 8.29978 16.3657 8.22751C16.3171 8.15524 16.2533 8.09467 16.179 8.05007C15.2238 7.44259 13.6426 6.22053 14.6507 5.2769C15.4799 4.50034 16.551 5.05517 17.4742 4.19255C17.6404 4.04127 17.7732 3.85614 17.8638 3.64928C17.9544 3.44243 18.0008 3.21852 18 2.99224C17.9991 2.76596 17.9511 2.54242 17.8589 2.33627C17.7667 2.13012 17.6326 1.94601 17.4652 1.79602C17.4226 1.75614 17.3778 1.71863 17.3312 1.68364C16.9983 1.3032 16.5377 1.06148 16.0387 1.00535C15.5398 0.949229 15.038 1.08271 14.6307 1.37989C14.588 1.41144 14.5469 1.44523 14.5077 1.48114" fill="#86C9C3"/>
</svg>
