<svg width="18" height="18" viewBox="0 0 18 18" fill="none" xmlns="http://www.w3.org/2000/svg">
<rect width="18" height="18" rx="1" fill="#6692F1"/>
<path d="M4.77822 13.6755L4.76577 13.6669C4.73725 13.6389 4.7146 13.6054 4.69913 13.5685C4.68367 13.5315 4.67571 13.4919 4.67571 13.4519C4.67571 13.4119 4.68367 13.3722 4.69913 13.3353C4.7146 13.2984 4.73725 13.2649 4.76577 13.2368L5.77689 12.2257C5.83132 12.171 5.90451 12.1391 5.98163 12.1363C6.05875 12.1336 6.13403 12.1602 6.19222 12.2109C6.96708 12.8947 7.96582 13.2705 8.99922 13.2672C9.69428 13.2662 10.3786 13.0955 10.9926 12.7698C11.6067 12.4441 12.1319 11.9734 12.5225 11.3985C12.9132 10.8236 13.1575 10.162 13.2342 9.4712C13.3109 8.78038 13.2177 8.08129 12.9627 7.4347C12.7077 6.78812 12.2985 6.21362 11.7709 5.76118C11.2433 5.30873 10.6131 4.99203 9.93517 4.83862C9.25725 4.68521 8.55211 4.69973 7.88108 4.88092C7.21006 5.06211 6.59345 5.40449 6.08489 5.87827L4.64366 4.44405C5.53018 3.59688 6.64465 3.02683 7.85041 2.80381C9.05618 2.58079 10.3008 2.71449 11.4317 3.18853C12.5626 3.66256 13.5306 4.45632 14.2169 5.47246C14.9032 6.4886 15.2781 7.68295 15.2956 8.90904C15.3131 10.1351 14.9723 11.3397 14.3152 12.3749C13.658 13.4102 12.7131 14.2312 11.5961 14.7372C10.4792 15.2433 9.23889 15.4124 8.02726 15.2238C6.81563 15.0352 5.68538 14.4971 4.77511 13.6755H4.77822ZM3.309 7.98216C3.2291 7.98247 3.14992 7.96701 3.076 7.93667C3.00208 7.90633 2.93488 7.8617 2.87823 7.80535C2.82159 7.74899 2.77662 7.68202 2.7459 7.60825C2.71518 7.53449 2.69932 7.4554 2.69922 7.37549V3.96805C2.69955 3.84744 2.73559 3.72964 2.8028 3.62949C2.87001 3.52935 2.96537 3.45135 3.07686 3.40534C3.18834 3.35933 3.31096 3.34737 3.42923 3.37097C3.54751 3.39457 3.65615 3.45267 3.74144 3.53794L7.14577 6.94227C7.23114 7.02754 7.28926 7.13624 7.31276 7.25459C7.33625 7.37294 7.32406 7.4956 7.27773 7.60701C7.2314 7.71842 7.15302 7.81355 7.05253 7.88034C6.95205 7.94714 6.83399 7.98257 6.71333 7.98216H3.309Z" fill="#BED0F9"/>
</svg>
