<svg xmlns="http://www.w3.org/2000/svg" width="112" height="24" viewBox="0 0 112 24"><g transform="translate(-213 -72)"><rect width="112" height="24" rx="2" transform="translate(213 72)" fill="#919191"/><text transform="translate(243 89)" fill="#fff" font-size="14" font-family="Montserrat-Bold, Montserrat" font-weight="700"><tspan x="0" y="0">LTL Single</tspan></text><path d="M11.363,15.475V13.3H.967A1.007,1.007,0,0,1,0,12.309a.959.959,0,0,1,.967-.94h10.4V9.194a.725.725,0,0,1,1.219-.53L15.968,11.8c.012.01.025.026.041.039a.726.726,0,0,1-.041,1.023l-3.385,3.14a.733.733,0,0,1-.5.195A.724.724,0,0,1,11.363,15.475Zm0-8.471V4.83H.967A1.007,1.007,0,0,1,0,3.838.961.961,0,0,1,.967,2.9h10.4V.726A.725.725,0,0,1,12.583.194l3.385,3.135a.52.52,0,0,0,.041.044.723.723,0,0,1-.041,1.021l-3.385,3.14a.733.733,0,0,1-.5.195A.724.724,0,0,1,11.363,7Z" transform="translate(219.898 75.898)" fill="#dadada"/></g></svg>