<svg xmlns="http://www.w3.org/2000/svg" xmlns:xlink="http://www.w3.org/1999/xlink" width="34" height="37" viewBox="0 0 34 37">
  <defs>
    <filter id="Path_33651" x="0" y="0" width="34" height="37" filterUnits="userSpaceOnUse">
      <feOffset input="SourceAlpha"/>
      <feGaussianBlur stdDeviation="2" result="blur"/>
      <feFlood flood-opacity="0.149"/>
      <feComposite operator="in" in2="blur"/>
      <feComposite in="SourceGraphic"/>
    </filter>
    <filter id="f2" x="0" y="0">
      <feOffset input="SourceAlpha"/>
      <feGaussianBlur stdDeviation="1" result="blur"/>
      <feFlood flood-opacity="0.4"/>
      <feComposite operator="in" in2="blur"/>
    </filter>
  </defs>
  <ellipse id="Ellipse_6007" data-name="Ellipse 6007" cx="6" cy="1.5" rx="6" ry="1.5" transform="translate(11 30)" fill="#6c6c6c" filter="url(#f2)"/>
  <g transform="matrix(1, 0, 0, 1, 0, 0)" filter="url(#Path_33651)">
    <path id="Path_33651-2" data-name="Path 33651" d="M22,10.974a10.97,10.97,0,0,1-4.852,9.1c-.024.018-.379.237-.519.329-3.367,2.14-4.718,3.585-5.262,4.4a.441.441,0,0,1-.609.124.457.457,0,0,1-.124-.124c-.544-.811-1.9-2.256-5.262-4.4-.153-.095-.494-.311-.519-.329A10.983,10.983,0,1,1,22,10.974" transform="translate(6 6)" fill="#fff"/>
  </g>
  <circle id="Ellipse_6005" data-name="Ellipse 6005" cx="9" cy="9" r="9" transform="translate(8 8)" fill="#536bc2"/>
  <g id="Group_95817" data-name="Group 95817" transform="translate(-2013 -1089)">
    <rect id="Rectangle_70954" data-name="Rectangle 70954" width="12" height="12" transform="translate(2024 1100)" fill="#fff" opacity="0"/>
    <path id="Path_39403" data-name="Path 39403" d="M10.724,4.854h0l-.465.5-.132.143A.3.3,0,0,1,9.7,5.52l-.1-.09V8.7a.3.3,0,0,1-.3.3H6.9a.3.3,0,0,1-.3-.3V6.338a.3.3,0,0,0-.3-.3H4.5a.3.3,0,0,0-.3.3V8.7a.3.3,0,0,1-.3.3H1.5a.3.3,0,0,1-.3-.3V5.43l-.1.09A.3.3,0,0,1,.675,5.5l-.6-.644A.3.3,0,0,1,.1,4.43L4.9.193a.747.747,0,0,1,1,0L10.7,4.43a.3.3,0,0,1,.023.424" transform="translate(2024.599 1100.834)" fill="#fff"/>
  </g>
</svg>