<svg xmlns="http://www.w3.org/2000/svg" xmlns:xlink="http://www.w3.org/1999/xlink" width="56" height="62.001" viewBox="0 0 56 62.001">
  <defs>
    <filter id="Path_33651" x="0" y="0" width="56" height="62" filterUnits="userSpaceOnUse">
      <feOffset input="SourceAlpha"/>
      <feGaussianBlur stdDeviation="2" result="blur"/>
      <feFlood flood-opacity="0.4"/>
      <feComposite operator="in" in2="blur"/>
      <feComposite in="SourceGraphic"/>
    </filter>
    <filter id="f2" x="0" y="0">
      <feOffset input="SourceAlpha"/>
      <feGaussianBlur stdDeviation="1" result="blur"/>
      <feFlood flood-opacity="0.4"/>
      <feComposite operator="in" in2="blur"/>
    </filter>
  </defs>
  <g id="Group_94748" data-name="Group 94748" transform="translate(-619 -2257.999)">
    <ellipse id="Ellipse_6007" data-name="Ellipse 6007" cx="12" cy="1.5" rx="12" ry="1.5" transform="translate(635 2314)" fill="#6c6c6c" filter="url(#f2)"/>
    <g id="Group_94110" data-name="Group 94110" transform="translate(-11 -26)">
      <g transform="matrix(1, 0, 0, 1, 630, 2284)" filter="url(#Path_33651)">
        <path id="Path_33651-2" data-name="Path 33651" d="M44,21.948a21.94,21.94,0,0,1-9.7,18.208c-.048.036-.758.474-1.038.658-6.734,4.28-9.436,7.17-10.524,8.792a.881.881,0,0,1-1.218.248.915.915,0,0,1-.248-.248c-1.088-1.622-3.8-4.512-10.524-8.792-.306-.19-.988-.622-1.038-.658A21.966,21.966,0,1,1,44,21.948" transform="translate(6 6)" fill="#fff"/>
      </g>
      <circle id="Ellipse_6005" data-name="Ellipse 6005" cx="18" cy="18" r="18" transform="translate(640 2293.998)" fill="#536bc2"/>
      <circle id="Ellipse_6006" data-name="Ellipse 6006" cx="6" cy="6" r="6" transform="translate(652 2306)" fill="#fff"/>
    </g>
  </g>
</svg>
