<svg xmlns="http://www.w3.org/2000/svg" width="111.031" height="103.051" viewBox="0 0 111.031 103.051">
  <g id="Layer_x0020_1" transform="translate(2.833 0.001)">
    <path id="Path_35834" data-name="Path 35834" d="M59.85,101.13c-22.278,5.5-46.976-.84-56.481-18.769C-1.57,73.04-.609,62.17,8.411,53.1A66.428,66.428,0,0,0,18.857,40.251c5.376-8.828,5.123-17.208,10.78-24.006C46.49-3.995,72.346-4.235,90.446,9.516c18.528,14.077,23.072,35,17.366,52.8-5.665,17.676-21.422,32.263-47.967,38.817Z" transform="translate(-1.922 0)" fill="#f7f7f7" fill-rule="evenodd"/>
    <rect id="Rectangle_59106" data-name="Rectangle 59106" width="52.257" height="64.64" rx="8.433" transform="matrix(0.9, -0.435, 0.435, 0.9, -2.833, 30.469)" fill="#00967e"/>
    <path id="Path_35835" data-name="Path 35835" d="M26.8,39.826,9.46,48.2A3.369,3.369,0,0,1,5.5,47.928L1.288,44.244c-1.1-.958-.33-2.454.677-2.943l20.68-10.075L43.39,21.285c1.007-.485,2.657-.159,2.723,1.3l.269,5.592a3.367,3.367,0,0,1-2.246,3.273L26.8,39.826Z" transform="translate(-2.123 -12.486)" fill="#80cbba" fill-rule="evenodd"/>
    <path id="Path_35836" data-name="Path 35836" d="M148.884,53.2c-28.872,3.134-39.44,4.785-39.44,4.785-.848.094-1.325.811-1.174,2.27,3.383,31.941,5.372,52.022,6.978,52.23,24.654-1.341,41.209-2.645,40.834-5.845-3.314-31.68-4.96-53.685-7.194-53.44Z" transform="translate(-65.804 -31.515)" fill="#e8e8e8" fill-rule="evenodd"/>
    <g id="_2271806113888" transform="translate(46.936 34.993)">
      <path id="Path_35837" data-name="Path 35837" d="M143.665,85.864c-15.769,0-23.623.261-23.623.261-.465,0-.762.346-.762,1.113.045,16.784,0,19.661.856,19.861,13.393.7,24.458.95,24.434-.734-.024-16.645.314-20.5-.9-20.5Z" transform="translate(-119.28 -85.86)" fill="#e5effc" fill-rule="evenodd"/>
      <path id="Path_35838" data-name="Path 35838" d="M119.54,110.119c.094,3.252.3,4.1.746,4.206,13.393.7,24.458.95,24.434-.734,0-4.194.012-7.577.02-10.291l-5.514-5.144c-.795-.689-3.534,2.5-10.328,9.977-.285.285-1.292-.783-3.261-2.865-.615-.689-2.531,1.125-6.1,4.842Z" transform="translate(-119.434 -93.091)" fill="#abbbeb" fill-rule="evenodd"/>
      <path id="Path_35839" data-name="Path 35839" d="M132.848,98.509a3.113,3.113,0,0,0,1.528-1.822,3.168,3.168,0,0,0-.192-2.392,3.031,3.031,0,0,0-2.694-1.488,3,3,0,1,0,1.361,5.7Z" transform="translate(-124.79 -89.975)" fill="#fff" fill-rule="evenodd"/>
    </g>
    <path id="Path_35840" data-name="Path 35840" d="M138.608,75.524c-29.512,0-40.366.493-40.366.493-.864,0-1.422.66-1.422,2.115.082,31.843,0,51.851,1.6,52.226,25.061,1.316,41.931,1.806,41.882-1.39-.045-31.582.591-53.449-1.7-53.449Zm-34.745,9.011V77.941c-3.436-.387-4.214-.1-4.235.232-.2,5.413-.033,6.509.469,6.643,2.388.094,3.7,0,3.762-.281Zm0,32.336v-6.594c-3.436-.387-4.214-.1-4.235.232-.2,5.413-.033,6.509.469,6.643,2.388.094,3.7,0,3.762-.281Zm0,10.727V121c-3.436-.387-4.214-.1-4.235.232-.2,5.413-.033,6.509.469,6.643,2.388.094,3.7,0,3.762-.281Zm0-21.532V99.473c-3.436-.387-4.214-.1-4.235.232-.2,5.413-.033,6.509.469,6.643,2.388.094,3.7,0,3.762-.281Zm0-10.8V88.668c-3.436-.387-4.214-.1-4.235.232-.2,5.413-.033,6.509.469,6.643,2.388.094,3.7,0,3.762-.281Zm33.869-10.727V77.941c-3.436-.387-4.214-.1-4.235.232-.2,5.413-.033,6.509.469,6.643,2.388.094,3.7,0,3.762-.281Zm0,32.336v-6.594c-3.436-.387-4.214-.1-4.235.232-.2,5.413-.033,6.509.469,6.643,2.388.094,3.7,0,3.762-.281Zm0,10.727V121c-3.436-.387-4.214-.1-4.235.232-.2,5.413-.033,6.509.469,6.643,2.388.094,3.7,0,3.762-.281Zm0-21.532V99.473c-3.436-.387-4.214-.1-4.235.232-.2,5.413-.033,6.509.469,6.643,2.388.094,3.7,0,3.762-.281Zm0-10.8V88.668c-3.436-.387-4.214-.1-4.235.232-.2,5.413-.033,6.509.469,6.643,2.388.094,3.7,0,3.762-.281Z" transform="translate(-59.038 -44.741)" fill="#fff" fill-rule="evenodd"/>
    <path id="Path_35841" data-name="Path 35841" d="M143.665,147.264c-15.769,0-23.623.261-23.623.261-.465,0-.762.346-.762,1.113.045,16.784,0,19.661.856,19.861,13.393.7,24.458.95,24.434-.734-.024-16.645.314-20.5-.9-20.5Z" transform="translate(-72.344 -87.242)" fill="#e3faf5" fill-rule="evenodd"/>
    <path id="Path_35842" data-name="Path 35842" d="M119.54,171.529c.094,3.252.3,4.1.746,4.206,13.393.7,24.458.95,24.434-.734,0-4.194.012-7.577.02-10.291l-5.514-5.144c-.795-.689-3.534,2.5-10.328,9.977-.285.285-1.292-.783-3.261-2.865-.615-.689-2.531,1.125-6.1,4.842Z" transform="translate(-72.498 -94.479)" fill="#aae3d6" fill-rule="evenodd"/>
    <path id="Path_35843" data-name="Path 35843" d="M132.848,159.919a3.113,3.113,0,0,0,1.528-1.822,3.168,3.168,0,0,0-.192-2.392,3.03,3.03,0,0,0-2.694-1.488,3,3,0,1,0,1.361,5.7Z" transform="translate(-77.854 -91.363)" fill="#fff" fill-rule="evenodd"/>
    <path id="Path_35844" data-name="Path 35844" d="M143.665,87.414c-15.769,0-23.623.261-23.623.261-.465,0-.762.346-.762,1.113.045,16.784,0,19.661.856,19.861,13.393.7,24.458.95,24.434-.734-.024-16.645.314-20.5-.9-20.5Z" transform="translate(-72.344 -51.785)" fill="#e3faf5" fill-rule="evenodd"/>
    <path id="Path_35845" data-name="Path 35845" d="M119.54,111.679c.094,3.252.3,4.1.746,4.206,13.393.7,24.458.95,24.434-.734,0-4.194.012-7.577.02-10.291l-5.514-5.144c-.795-.689-3.534,2.5-10.328,9.977-.285.285-1.292-.783-3.261-2.865-.615-.689-2.531,1.125-6.1,4.842Z" transform="translate(-72.498 -59.022)" fill="#aae3d6" fill-rule="evenodd"/>
    <path id="Path_35846" data-name="Path 35846" d="M132.848,100.059a3.113,3.113,0,0,0,1.528-1.822,3.168,3.168,0,0,0-.192-2.392,3.03,3.03,0,0,0-2.694-1.488,3,3,0,1,0,1.361,5.7Z" transform="translate(-77.854 -55.9)" fill="#fff" fill-rule="evenodd"/>
    <g id="_2271806117920" transform="translate(19.354 20.129)">
      <rect id="Rectangle_59107" data-name="Rectangle 59107" width="0.696" height="15.404" transform="matrix(0.9, -0.435, 0.435, 0.9, 3.345, 4.012)" fill="#3c3c3c"/>
      <circle id="Ellipse_6781" data-name="Ellipse 6781" cx="2.611" cy="2.611" r="2.611" transform="translate(0 2.271) rotate(-25.786)" fill="#fffcf7"/>
      <circle id="Ellipse_6782" data-name="Ellipse 6782" cx="2.611" cy="2.611" r="2.611" transform="translate(5.785 14.471) rotate(-25.786)" fill="#fffcf7"/>
    </g>
  </g>
</svg>
