<svg xmlns="http://www.w3.org/2000/svg" width="18" height="18" viewBox="0 0 18 18">
  <rect id="Rectangle_61748" data-name="Rectangle 61748" width="18" height="18" fill="#e57373" opacity="0"/>
  <path id="times-circle" d="M16.1,8a8.1,8.1,0,1,0,8.1,8.1A8.1,8.1,0,0,0,16.1,8Zm3.972,10.226a.392.392,0,0,1,0,.555l-1.293,1.29a.392.392,0,0,1-.555,0L16.1,17.929l-2.126,2.143a.392.392,0,0,1-.555,0l-1.29-1.293a.392.392,0,0,1,0-.555L14.271,16.1l-2.143-2.126a.392.392,0,0,1,0-.555l1.293-1.293a.392.392,0,0,1,.555,0L16.1,14.271l2.126-2.143a.392.392,0,0,1,.555,0l1.293,1.293a.392.392,0,0,1,0,.555L17.929,16.1Z" transform="translate(-7.1 -7.1)" fill="#e57373"/>
</svg>