<svg width="16" height="18" viewBox="0 0 16 18" fill="none" xmlns="http://www.w3.org/2000/svg">
<path fill-rule="evenodd" clip-rule="evenodd" d="M10.4318 5.50144C10.3463 5.50237 10.2614 5.48605 10.1822 5.45346C10.1029 5.42087 10.0309 5.37265 9.9702 5.3116C9.90953 5.25054 9.86149 5.17787 9.82882 5.09783C9.79615 5.01779 9.77953 4.93197 9.77993 4.84536V0.899903H1.64835C1.42451 0.899635 1.20964 0.989148 1.05081 1.14883C0.891976 1.30852 0.802087 1.52537 0.800781 1.75199V15.3835C0.802087 15.6102 0.891976 15.8271 1.05081 15.9868C1.20964 16.1464 1.42451 16.2359 1.64835 16.2356H7.17115C6.57667 15.5767 6.16973 14.7669 5.99367 13.8924H2.74576C2.71224 13.8932 2.67894 13.8871 2.64779 13.8746C2.61663 13.862 2.58826 13.8432 2.56446 13.8193C2.54066 13.7954 2.52188 13.7669 2.50924 13.7355C2.4966 13.704 2.49037 13.6703 2.49091 13.6363V12.0182C2.49293 11.9507 2.52052 11.8865 2.56796 11.8391C2.6154 11.7916 2.67906 11.7644 2.74576 11.7631H6.00549C6.13235 11.1567 6.37099 10.5799 6.70884 10.0629H2.75763C2.7242 10.0637 2.69093 10.0577 2.65984 10.0452C2.62876 10.0327 2.60049 10.014 2.5767 9.99023C2.55292 9.96643 2.53412 9.93805 2.52142 9.90672C2.50872 9.8754 2.50238 9.84176 2.50279 9.8079V8.18875C2.5048 8.12125 2.53239 8.05707 2.57984 8.0096C2.62728 7.96212 2.69094 7.93497 2.75763 7.93372H9.59417C10.4169 7.69687 11.2854 7.67414 12.1191 7.86767C12.9528 8.06121 13.7247 8.46475 14.3633 9.04084V5.50541L10.4318 5.50144ZM8.42465 5.96951C8.42452 6.00313 8.41783 6.03635 8.405 6.06736C8.39217 6.09837 8.37347 6.12657 8.34989 6.15025C8.32632 6.17394 8.29833 6.19263 8.2676 6.20538C8.23687 6.21812 8.20398 6.22461 8.17077 6.22448H2.74576C2.71232 6.22529 2.67905 6.21927 2.64797 6.20678C2.61688 6.19429 2.58861 6.17558 2.56483 6.15178C2.54104 6.12798 2.52224 6.0996 2.50954 6.06827C2.49684 6.03695 2.4905 6.00337 2.49091 5.96951V4.35232C2.49268 4.28464 2.52019 4.22024 2.56766 4.17255C2.61513 4.12486 2.6789 4.09751 2.74576 4.09625H8.16782C8.2345 4.09777 8.29805 4.1252 8.34531 4.17286C8.39257 4.22052 8.41994 4.28481 8.4217 4.35232L8.42465 5.96951Z" fill="#FBC88B"/>
<path d="M14.1442 4.05138L11.2272 1.11605C11.0917 0.980724 10.9088 0.905254 10.7185 0.906062H10.5407V4.26142C10.5415 4.38875 10.592 4.51057 10.6812 4.60033C10.7704 4.69008 10.8911 4.74048 11.0168 4.74048H14.3527V4.55143C14.352 4.45831 14.3333 4.36627 14.2975 4.28047C14.2618 4.19467 14.2097 4.11679 14.1442 4.05138Z" fill="#FBC88B"/>
<path fill-rule="evenodd" clip-rule="evenodd" d="M8.63618 9.3134C9.32422 8.84194 10.1347 8.5873 10.9655 8.58157C11.52 8.5796 12.0693 8.68824 12.5823 8.90131C13.0953 9.11438 13.5618 9.42764 13.9551 9.82329C14.3485 10.2189 14.661 10.6892 14.8748 11.2072C15.0886 11.7251 15.1995 12.2806 15.2012 12.842C15.201 13.6832 14.9548 14.5054 14.4937 15.2051C14.0325 15.9048 13.3771 16.4507 12.61 16.7737C11.8429 17.0968 10.9985 17.1826 10.1833 17.0205C9.36806 16.8584 8.61844 16.4555 8.02905 15.8627C7.43966 15.2698 7.03688 14.5136 6.87141 13.6893C6.70594 12.865 6.78518 12.0095 7.09925 11.2307C7.41331 10.452 7.94813 9.78487 8.63618 9.3134ZM10.434 13.4941L12.3553 14.8942L12.3544 14.8923C12.398 14.9247 12.4525 14.9385 12.5061 14.9306C12.5596 14.9228 12.608 14.8939 12.6408 14.8502L13.1189 14.1832C13.1349 14.1615 13.1465 14.1368 13.153 14.1105C13.1596 14.0843 13.1609 14.057 13.1569 14.0302C13.153 14.0034 13.1439 13.9777 13.1301 13.9545C13.1162 13.9313 13.098 13.9112 13.0765 13.8952L11.577 12.802V9.58467C11.577 9.55754 11.5716 9.53063 11.5614 9.50556C11.5511 9.4805 11.536 9.45774 11.517 9.4386C11.498 9.41946 11.4755 9.40434 11.4507 9.39404C11.4259 9.38375 11.3993 9.37853 11.3725 9.37866H10.5536C10.4995 9.37866 10.4476 9.4003 10.4093 9.43891C10.371 9.47752 10.3494 9.52994 10.3491 9.58467V13.3281C10.3488 13.3607 10.3564 13.3928 10.3712 13.4218C10.386 13.4507 10.4076 13.4755 10.434 13.4941Z" fill="#FBC88B"/>
</svg>
