<svg xmlns="http://www.w3.org/2000/svg" width="20" height="20" viewBox="0 0 20 20">
  <g id="Routing" transform="translate(-1034 -422)">
    <rect id="Rectangle_52475" data-name="Rectangle 52475" width="20" height="20" transform="translate(1034 422)" fill="none"/>
    <path id="Path_35331" data-name="Path 35331" d="M11,16.3c-.469.074-.492.088-.963.15a.9.9,0,0,1-.474-1.723,1.84,1.84,0,0,1,.432-.1c.39-.067.331-.054.721-.116-.038-.239-.233-1.218,0-1.58a.91.91,0,0,1,1.335-.158c.518.377,1.029.763,1.552,1.132a.532.532,0,0,0,.345.088c1.285-.194-.077.022,1.206-.186a1.824,1.824,0,0,0-.278-3.635,3.405,3.405,0,0,0-.4.043c-4.095.647-4.663.739-8.759,1.386a3.642,3.642,0,0,1-1.337-7.16c1.895-.333,2.841-.46,2.841-.46a2.687,2.687,0,0,1,.012-1.572.9.9,0,0,1,1.3-.2q1.023.734,2.034,1.485a.907.907,0,0,1,.214,1.32q-.738,1.047-1.5,2.074a.861.861,0,0,1-1.285.174,3.2,3.2,0,0,1-.465-1.486s-.809.122-2.708.43a1.754,1.754,0,0,0-1.5,1.285A1.734,1.734,0,0,0,3.8,9.326,1.82,1.82,0,0,0,5.45,9.8C8.255,9.354,9.3,9.191,12.1,8.746c1.332-.211.9-.147,2.234-.352a3.641,3.641,0,0,1,1.4,7.144c-1.367.257-.1.031-1.476.245a.47.47,0,0,0-.344.21q-.575.821-1.171,1.628a.881.881,0,0,1-1.026.31.954.954,0,0,1-.6-.869C11.085,16.846,11,16.3,11,16.3" transform="translate(1034 422)" fill="#b7b7b7"/>
    <path id="Path_35332" data-name="Path 35332" d="M14.136,1.032a2.737,2.737,0,1,1-2.267,3.119,2.737,2.737,0,0,1,2.267-3.119" transform="translate(1034 422)" fill="#b7b7b7"/>
    <path id="Path_35333" data-name="Path 35333" d="M8.125,15.841a2.725,2.725,0,1,1-3.087-2.285,2.724,2.724,0,0,1,3.087,2.285" transform="translate(1034 422)" fill="#b7b7b7"/>
  </g>
</svg>
