<svg xmlns="http://www.w3.org/2000/svg" width="18" height="18" viewBox="0 0 18 18"><g transform="translate(-723 -12296)"><rect width="18" height="18" transform="translate(723 12296)" fill="#aaa" opacity="0"/><path d="M1.012-.024A1.011,1.011,0,0,0,0,.988V15.67a.508.508,0,0,0,.506.506H1.519a.508.508,0,0,0,.506-.506V.988A1.011,1.011,0,0,0,1.012-.024ZM14.637.109c-5.42,2.762-4.974-2.1-11.6.892V11.177c5.876-2.917,7.015,1.686,12.577-.731a.993.993,0,0,0,.585-.911V.95A1.027,1.027,0,0,0,14.637.109Z" transform="translate(723.9 12296.925)" fill="#aaa"/></g></svg>