<svg xmlns="http://www.w3.org/2000/svg" width="18" height="18" viewBox="0 0 18 18"><g transform="translate(-366 -544)"><rect width="18" height="18" transform="translate(366 544)" fill="#e57373" opacity="0"/><path d="M32.675,106.988,32,96H44.222l-.675,10.988a1.486,1.486,0,0,1-1.525,1.333H34.2a1.486,1.486,0,0,1-1.524-1.333Z" transform="translate(336.889 452.68)" fill="#e57373"/><path d="M0,2.5v-1A.5.5,0,0,1,.508,1h3.81l.3-.585A.754.754,0,0,1,5.3,0H8.924a.763.763,0,0,1,.683.416L9.9,1h3.81a.5.5,0,0,1,.508.5v1a.5.5,0,0,1-.508.5H.508A.5.5,0,0,1,0,2.5Z" transform="translate(367.889 545)" fill="#e57373"/></g></svg>