<svg xmlns="http://www.w3.org/2000/svg" width="18" height="18" viewBox="0 0 18 18">
  <g id="Label" transform="translate(-1084 -362)">
    <rect id="Rectangle_63447" data-name="Rectangle 63447" width="18" height="18" transform="translate(1084 362)" fill="#dadada" opacity="0"/>
    <path id="tag" d="M0,7.977V1.519A1.519,1.519,0,0,1,1.519,0H7.977A1.519,1.519,0,0,1,9.051.445l6.7,6.7a1.519,1.519,0,0,1,0,2.148L9.3,15.755a1.519,1.519,0,0,1-2.148,0l-6.7-6.7A1.519,1.519,0,0,1,0,7.977ZM3.544,2.025A1.519,1.519,0,1,0,5.063,3.544,1.519,1.519,0,0,0,3.544,2.025Z" transform="translate(1084.9 362.9)" fill="#dadada"/>
  </g>
</svg>
