<svg xmlns="http://www.w3.org/2000/svg" xmlns:xlink="http://www.w3.org/1999/xlink" width="31.124" height="31.839" viewBox="0 0 31.124 31.839">
  <defs>
    <linearGradient id="linear-gradient" x1="0.076" y1="1.044" x2="0.424" y2="0.207" gradientUnits="objectBoundingBox">
      <stop offset="0" stop-color="#6d82c7"/>
      <stop offset="1" stop-color="#3551b7"/>
    </linearGradient>
    <linearGradient id="linear-gradient-2" x1="0.5" y1="0" x2="0.146" y2="1.106" xlink:href="#linear-gradient"/>
  </defs>
  <g id="Group_75669" data-name="Group 75669" transform="translate(-240 -20.001)">
    <g id="Group_26112" data-name="Group 26112" transform="translate(240 20.001)">
      <path id="Path_11665" data-name="Path 11665" d="M2212.67,1193.21a5.763,5.763,0,0,0-7.895-2.1l-18.282,10.665h11.649l4.66-2.719a3.117,3.117,0,0,1,4.271,1.134l.916,1.585h9.629Z" transform="translate(-2186.493 -1169.939)" fill="url(#linear-gradient)"/>
      <path id="Path_11666" data-name="Path 11666" d="M2217.24,1196.053c5.822-3.4,8.761,0,11.68,5.725h9.629l-4.948-8.569a5.763,5.763,0,0,0-7.895-2.1Z" transform="translate(-2207.425 -1169.939)" fill="#6d82c7"/>
      <path id="Path_11667" data-name="Path 11667" d="M2206.644,1141.1c.056-.077.108-.156.16-.235s.09-.134.131-.2.083-.152.124-.228a5.645,5.645,0,0,0,.249-.525c.018-.044.039-.087.055-.131.041-.107.076-.217.11-.326.016-.049.033-.1.047-.148.033-.113.06-.227.085-.342.01-.046.021-.091.029-.137.024-.121.044-.242.06-.364,0-.036.008-.073.013-.109.015-.133.027-.265.032-.4,0-.014,0-.029,0-.044a5.728,5.728,0,0,0-.242-1.866h0a5.738,5.738,0,0,0-.521-1.215l-4.832-8.37-12.027,20.83h0l-1.505,2.608-.525.908v0l-1.469,2.543,18.269-10.658c.16-.093.314-.195.461-.3.049-.035.094-.073.142-.11.1-.073.19-.148.28-.226.054-.047.1-.1.157-.144.078-.073.154-.147.227-.224.052-.055.1-.11.153-.167.066-.075.13-.152.191-.23C2206.55,1141.224,2206.6,1141.164,2206.644,1141.1Z" transform="translate(-2186.58 -1126.458)" fill="url(#linear-gradient-2)"/>
    </g>
  </g>
</svg>
