<svg id="Group_5649" data-name="Group 5649" xmlns="http://www.w3.org/2000/svg" width="19" height="16" viewBox="0 0 19 16">
  <path id="Path_874" data-name="Path 874" d="M192.872,7.287a2.665,2.665,0,1,0-2.665-2.665A2.665,2.665,0,0,0,192.872,7.287Z" transform="translate(-178.608 -1.85)" fill="#b7b7b7"/>
  <path id="Path_875" data-name="Path 875" d="M196.891,11.788a5.8,5.8,0,0,0-4.5-2.279,5.693,5.693,0,0,0-4.138,1.879,9.943,9.943,0,0,1,3.672,2.863,2.733,2.733,0,0,1,.458.849h0a6.524,6.524,0,0,0,4.37-1.675A1.2,1.2,0,0,0,196.891,11.788Z" transform="translate(-178.152 -3.629)" fill="#b7b7b7"/>
  <path id="Path_876" data-name="Path 876" d="M187.884,15.64a8.812,8.812,0,0,0-3.354-2.567,7.5,7.5,0,0,0-2.955-.62,8.171,8.171,0,0,0-6.335,3.217,1.7,1.7,0,0,0,.185,2.3,9.181,9.181,0,0,0,6.135,2.351h.015a9.185,9.185,0,0,0,6.145-2.359,1.7,1.7,0,0,0,.184-2.3Z" transform="translate(-174.873 -4.325)" fill="#b7b7b7"/>
  <path id="Path_877" data-name="Path 877" d="M180.941,8.968a3.746,3.746,0,1,0-2.181-3.4A3.725,3.725,0,0,0,180.941,8.968Z" transform="translate(-175.82 -1.818)" fill="#b7b7b7"/>
</svg>
