<svg width="100" height="100" viewBox="0 0 100 100" fill="none" xmlns="http://www.w3.org/2000/svg">
<path d="M82.1976 53.5154L80.1813 44.4284L76.7959 53.5154H82.1976Z" fill="black"/>
<path fill-rule="evenodd" clip-rule="evenodd" d="M10 12.5C4.47715 12.5 0 16.9772 0 22.5V77.5C0 83.0229 4.47716 87.5 10 87.5H90C95.5229 87.5 100 83.0229 100 77.5V22.5C100 16.9772 95.5228 12.5 90 12.5H10ZM51.3504 45.5861C51.3504 40.3396 56.4266 37.5 62.1069 37.5C65.7449 37.5 68.3245 38.5733 68.3245 38.5733L67.1772 43.6867C67.1772 43.6867 64.8064 42.5289 61.9006 42.5289C59.3252 42.5289 58.0838 43.6213 58.0838 44.6183C58.0838 45.7381 59.524 46.4752 61.2548 47.3609C63.8603 48.6943 67.1241 50.3647 67.1241 54.1848C67.1241 59.5209 62.2373 62.5 56.0269 62.5C51.8368 62.5 48.6808 61.1553 48.6808 61.1553L49.8531 55.8611C49.8531 55.8611 52.5927 57.453 56.2582 57.453C58.841 57.453 60.3532 56.3137 60.3532 55.041C60.3532 53.7873 58.8043 52.982 56.9914 52.0396C54.4337 50.71 51.3504 49.1072 51.3504 45.5861ZM10 38.6577L10.1375 37.8859H20.9816C22.5475 37.8859 23.8268 38.7971 24.0794 40.3944L26.8334 54.3506L33.5824 37.8859H40.3845L29.8812 62.102H23.0635L17.9775 43.1922C17.5108 41.4476 17.3133 40.8859 14.542 39.921C12.3897 39.0796 10 38.6577 10 38.6577ZM37.7837 62.102L43.1197 37.8859H49.5874L44.2701 62.102H37.7837ZM76.2957 40.1049C76.9038 38.6936 77.7326 37.8859 79.2967 37.8859H84.764L90 62.102H83.9981L83.1979 58.4358H74.9109L73.5949 62.102H66.7927L76.2957 40.1049Z" fill="black"/>
</svg>
