<svg xmlns="http://www.w3.org/2000/svg" width="18" height="18" viewBox="0 0 18 18">
  <g id="Places" transform="translate(-92 -889)">
    <rect id="Rectangle_52467" data-name="Rectangle 52467" width="18" height="17.995" transform="translate(92 889)" fill="#aaa" opacity="0"/>
    <path id="Union_811" data-name="Union 811" d="M7.618,17.949a.574.574,0,0,1-.087-.086A12.465,12.465,0,0,0,3.8,14.494c-.068-.044-.171-.112-.253-.16-.061-.044-.109-.069-.116-.076A7.8,7.8,0,0,1,7.814,0a7.792,7.792,0,0,1,4.345,14.259c-.007,0-.014.007-.026.012a.087.087,0,0,1-.031.019l-.048.032c-.087.054-.2.128-.265.172a12.343,12.343,0,0,0-3.734,3.369.321.321,0,0,1-.436.086ZM2.4,7.806a5.4,5.4,0,1,0,5.4-5.4A5.406,5.406,0,0,0,2.4,7.806Zm2.4,0a3,3,0,1,1,3,3A3,3,0,0,1,4.8,7.806Z" transform="translate(93.198 889)" fill="#aaa"/>
  </g>
</svg>
