<svg xmlns="http://www.w3.org/2000/svg" width="32" height="32" viewBox="0 0 32 32"><g transform="translate(-570.45 -980.492)"><rect width="32" height="32" transform="translate(570.45 980.492)" fill="#aaa" opacity="0"/><path d="M62.747,1.184H46.5a4.492,4.492,0,0,0-4.5,4.5v16.2a4.5,4.5,0,0,0,1.8,3.609v2.7a1.791,1.791,0,0,0,1.8,1.8H47.4a1.8,1.8,0,0,0,1.8-1.8V26.375H60.044v1.813a1.791,1.791,0,0,0,1.8,1.8h1.813a1.814,1.814,0,0,0,1.8-1.8v-2.7a4.547,4.547,0,0,0,1.8-3.609V5.682a4.492,4.492,0,0,0-4.5-4.5M46.267,22.748a.8.8,0,1,1-1.6,0,.8.8,0,0,1,1.6-.018Zm2.578,0a.8.8,0,1,1-1.6,0,.8.8,0,0,1,1.6-.018ZM53.822,5.131a.357.357,0,0,1,.356-.356h.889a.357.357,0,0,1,.356.356V18.642a.357.357,0,0,1-.356.356h-.889a.357.357,0,0,1-.356-.356Zm4,18.418h-6.4a.8.8,0,1,1,0-1.6h6.4a.8.8,0,0,1,0,1.6m4.178-.8a.8.8,0,1,1-1.6,0,.8.8,0,0,1,1.6-.018Zm2.578,0a.8.8,0,1,1-1.6,0,.8.8,0,0,1,1.6-.018Z" transform="translate(531.828 980.908)" fill="#aaa"/></g></svg>