<svg xmlns="http://www.w3.org/2000/svg" xmlns:xlink="http://www.w3.org/1999/xlink" width="32" height="32" viewBox="0 0 32 32"><defs><clipPath id="a"><rect width="32" height="32" fill="#dadada" opacity="0"/></clipPath></defs><g transform="translate(-570.082 -1059.508)"><g transform="translate(570.082 1059.508)" opacity="0"><g transform="translate(0 0)"><g clip-path="url(#a)"><rect width="32" height="32" transform="translate(0)" fill="#dadada"/></g></g></g><path d="M26.487,56.375l2.364-10.4a1.2,1.2,0,0,0-1.172-1.467H8.041l-.457-2.238a1.2,1.2,0,0,0-1.177-.962H1.282a1.2,1.2,0,0,0-1.2,1.2v.8a1.2,1.2,0,0,0,1.2,1.2H4.775L8.288,61.682a2.8,2.8,0,1,0,3.351.427H22.123a2.8,2.8,0,1,0,3.179-.521l.277-1.212a1.2,1.2,0,0,0-1.172-1.467H10.987l-.327-1.6H25.317a1.2,1.2,0,0,0,1.17-.932" transform="translate(570 1021.399)" fill="#dadada"/></g></svg>