<svg width="18" height="18" viewBox="0 0 18 18" fill="none" xmlns="http://www.w3.org/2000/svg">
<path d="M6.01568 2.20106C6.13538 2.07293 6.27979 1.97119 6.4399 1.9022C6.60002 1.83321 6.77241 1.79843 6.94634 1.80004H11.0569C11.2239 1.79868 11.3895 1.83098 11.544 1.89508C11.6986 1.95918 11.8392 2.0538 11.9575 2.17345C12.0758 2.2931 12.1695 2.4354 12.2333 2.59211C12.297 2.74882 12.3295 2.91682 12.3288 3.08637V5.42871C12.331 5.76656 12.2017 6.09162 11.9689 6.33311C11.7362 6.5746 11.419 6.71298 11.0862 6.71812H9.53783V7.58184C9.53828 7.65896 9.53013 7.73588 9.51354 7.81114H13.8742C14.0129 7.81533 14.1447 7.87349 14.2423 7.97359C14.34 8.07368 14.396 8.20806 14.3988 8.34891V9.60439C14.3979 9.74655 14.3426 9.88278 14.2446 9.98434C14.1467 10.0859 14.0137 10.1448 13.8737 10.1487C13.7338 10.1526 13.5978 10.1011 13.4945 10.0051C13.3913 9.90908 13.3288 9.77611 13.3203 9.63422V8.90211H4.67689V9.66815C4.66837 9.80977 4.60599 9.9425 4.50292 10.0383C4.39984 10.1341 4.26413 10.1855 4.12444 10.1816C3.98475 10.1778 3.85201 10.1189 3.75423 10.0176C3.65645 9.91619 3.60129 9.78021 3.60039 9.63833V8.35097C3.60266 8.20993 3.65831 8.07519 3.75579 7.97468C3.85327 7.87417 3.9851 7.81561 4.12395 7.81114H8.48565C8.46932 7.74625 8.46049 7.67965 8.45932 7.61269V6.71607H6.91394C6.74705 6.71367 6.58229 6.67771 6.42918 6.61026C6.27607 6.54281 6.13764 6.44521 6.0219 6.32311C5.90617 6.20101 5.81542 6.05683 5.7549 5.89889C5.69438 5.74096 5.6653 5.57241 5.66933 5.403V3.09048C5.66631 2.75953 5.79057 2.44043 6.01568 2.20106Z" fill="#919191"/>
<path d="M1.23863 11.1383C1.35734 11.0084 1.50119 10.9048 1.66116 10.8341C1.82114 10.7633 1.99379 10.7268 2.16829 10.727H6.08844C6.25726 10.7231 6.42512 10.7537 6.58214 10.8167C6.73915 10.8798 6.88214 10.9741 7.00267 11.0942C7.1232 11.2143 7.21883 11.3577 7.28392 11.5159C7.349 11.6741 7.38224 11.8439 7.38165 12.0154V14.8451C7.38611 14.9898 7.36904 15.1343 7.33102 15.2739C7.25624 15.5341 7.10239 15.7638 6.89142 15.93C6.68045 16.0961 6.42316 16.1904 6.15629 16.1993H2.19664C1.87222 16.2069 1.55722 16.0882 1.31621 15.8676C1.07519 15.647 0.926419 15.3411 0.900391 15.0127V11.9403C0.917926 11.6412 1.03752 11.3576 1.23863 11.1383Z" fill="#919191"/>
<path d="M11.3637 10.8425C11.2018 10.9164 11.057 11.0238 10.9385 11.158C10.7312 11.3945 10.6182 11.701 10.6216 12.0176C10.6216 12.3463 10.621 12.675 10.6205 13.0037C10.6193 13.6611 10.6182 14.3185 10.6216 14.9759C10.6379 15.2977 10.7727 15.6016 10.9993 15.8272C11.2259 16.0529 11.5277 16.1839 11.8449 16.1943H15.8025C16.1095 16.2019 16.4088 16.0963 16.6451 15.8972C16.7752 15.7863 16.8824 15.6504 16.9605 15.4972C17.0385 15.344 17.0859 15.1766 17.0998 15.0047V11.9384C17.0849 11.7005 17.0056 11.4713 16.8707 11.2761C16.7358 11.0809 16.5505 10.9273 16.3352 10.8321C16.1562 10.7575 15.9635 10.7225 15.7701 10.7292H11.8783C11.7009 10.7301 11.5255 10.7687 11.3637 10.8425Z" fill="#919191"/>
</svg>
