<svg height="37" viewBox="0 0 35.999 37" width="35.999" xmlns="http://www.w3.org/2000/svg">
  <g id="Img" transform="translate(0)">
    <path
      d="M-3373.368,6329.206c5.785,0,10.9,3.415,14.032,8.653a17.931,17.931,0,0,0,3.955-11.258,18,18,0,0,0-18-18.008,18,18,0,0,0-18,18.008,17.932,17.932,0,0,0,3.968,11.274C-3384.283,6332.629-3379.16,6329.206-3373.368,6329.206Z"
      data-name="Path 106"
      fill="#5673aa"
      id="Path_106" opacity="0.9" transform="translate(3391.38 -6308.594)"/>
    <circle cx="7.325" cy="7.325" data-name="Ellipse 50" fill="#f7f7f7" id="Ellipse_50" r="7.325"
            transform="translate(10.741 4.673)"/>
    <path
      d="M-3355.173,6359.356c-3.131-5.225-8.252-8.63-14.04-8.63s-10.921,3.413-14.052,8.648a17.99,17.99,0,0,0,14.04,6.717A17.99,17.99,0,0,0-3355.173,6359.356Z"
      data-name="Path 107"
      fill="#f7f7f7"
      id="Path_107" transform="translate(3387.226 -6329.091)"/>
  </g>
</svg>
