<svg data-name="Component 562 – 4" height="31.999" id="Component_562_4" viewBox="0 0 32 31.999" width="32"
     xmlns="http://www.w3.org/2000/svg">
  <path
    d="M497.191,399.592a.868.868,0,0,1-.46-1.127l.007-.017,2.331-4.4A15.985,15.985,0,0,1,511.607,368.1h.053a15.945,15.945,0,0,1,15.925,15.967v.01A16.035,16.035,0,0,1,511.564,400.1a15.424,15.424,0,0,1-5.327-.925l-8.548.482a.927.927,0,0,1-.149.012A.857.857,0,0,1,497.191,399.592Z"
    data-name="Union 4"
    fill="#606060"
    id="Union_4" opacity="0.7" transform="translate(-495.585 -368.097)"/>
  <g data-name="Group 1622" id="Group_1622" transform="translate(-495.585 -368.097)">
    <path
      d="M504.474,377.273h15.111a1.778,1.778,0,0,1,1.778,1.778h0a1.778,1.778,0,0,1-1.778,1.778H504.474a1.778,1.778,0,0,1-1.778-1.778h0A1.778,1.778,0,0,1,504.474,377.273Z"
      data-name="Rectangle 980"
      fill="#fff"
      id="Rectangle_980"/>
    <path
      d="M504.474,382.606h8a1.778,1.778,0,0,1,1.778,1.778h0a1.778,1.778,0,0,1-1.778,1.778h-8a1.778,1.778,0,0,1-1.778-1.778h0A1.778,1.778,0,0,1,504.474,382.606Z"
      data-name="Rectangle 981"
      fill="#fff"
      id="Rectangle_981"/>
    <path
      d="M504.474,387.94h15.111a1.778,1.778,0,0,1,1.778,1.777h0a1.778,1.778,0,0,1-1.778,1.778H504.474a1.778,1.778,0,0,1-1.778-1.778h0A1.778,1.778,0,0,1,504.474,387.94Z"
      data-name="Rectangle 982"
      fill="#fff"
      id="Rectangle_982"/>
  </g>
</svg>
