<svg height="26" viewBox="0 0 20 26" width="20" xmlns="http://www.w3.org/2000/svg">
  <g id="drop" transform="translate(-59.875)">
    <g data-name="Group 2436" id="Group_2436" transform="translate(70.925 4.373)">
      <g data-name="Group 2435" id="Group_2435" transform="translate(0)">
        <path
          d="M283.738,91.353,283.7,91.3l-.008-.016-3.556-5.279-3.556,5.279-.007.015-.039.054a4.475,4.475,0,1,0,7.205,0Z"
          data-name="Path 1446"
          fill="#919191"
          id="Path_1446" transform="translate(-275.66 -86.006)"/>
      </g>
    </g>
    <g data-name="Group 2438" id="Group_2438" transform="translate(59.875)">
      <g data-name="Group 2437" id="Group_2437" transform="translate(0)">
        <path
          d="M75.382,18.387a6.027,6.027,0,0,1-6.034-6.007A5.942,5.942,0,0,1,70.514,8.83l2.351-3.474L69.24,0,61.69,11.159a9.225,9.225,0,0,0-1.815,5.517,9.367,9.367,0,0,0,18.7.8A6.016,6.016,0,0,1,75.382,18.387Z"
          data-name="Path 1447"
          fill="#606060"
          id="Path_1447" transform="translate(-59.875)"/>
      </g>
    </g>
  </g>
</svg>
