<svg height="18" id="Img" viewBox="0 0 18 18" width="18" xmlns="http://www.w3.org/2000/svg">
  <path
    d="M-3382.373,6318.9a8.286,8.286,0,0,1,7.016,4.326,8.964,8.964,0,0,0,1.977-5.628,9,9,0,0,0-9-9,9,9,0,0,0-9,9,8.962,8.962,0,0,0,1.984,5.636A8.29,8.29,0,0,1-3382.373,6318.9Z"
    data-name="Path 106"
    fill="#606060"
    id="Path_106" transform="translate(3391.379 -6308.594)"/>
  <circle cx="3.666" cy="3.666" data-name="Ellipse 50" fill="#eee" id="Ellipse_50" r="3.666"
          transform="translate(5.367 2.339)"/>
  <path
    d="M-3369.223,6355.045a8.288,8.288,0,0,0-7.018-4.319,8.292,8.292,0,0,0-7.024,4.328,8.987,8.987,0,0,0,7.018,3.362A8.985,8.985,0,0,0-3369.223,6355.045Z"
    data-name="Path 107"
    fill="#eee"
    id="Path_107" transform="translate(3385.248 -6340.416)"/>
</svg>
