<svg data-name="Group 6916" height="18" id="Group_6916" viewBox="0 0 16 18" width="16"
     xmlns="http://www.w3.org/2000/svg">
  <path
    d="M82.452,485.978V482.6H75.309a.85.85,0,0,0-.857.843v12.938a.851.851,0,0,0,.857.844h9.714a.851.851,0,0,0,.857-.844V485.978Z"
    data-name="Path 5812"
    fill="#aaa"
    id="Path_5812" opacity="0.4" style="isolation: isolate" transform="translate(-69.881 -482.603)"/>
  <path
    d="M68.239,496.384V485.978H65.667a.851.851,0,0,0-.857.844v12.938a.851.851,0,0,0,.857.844h9.714a.851.851,0,0,0,.857-.844v-1.406h-6A1.986,1.986,0,0,1,68.239,496.384ZM80.56,485.169l-2.357-2.32a.862.862,0,0,0-.607-.246h-.214v3.375H80.81v-.213A.837.837,0,0,0,80.56,485.169Z"
    data-name="Path 5813"
    fill="#aaa"
    id="Path_5813" transform="translate(-64.81 -482.603)"/>
</svg>
