<svg height="22" viewBox="0 0 22 22" width="22" xmlns="http://www.w3.org/2000/svg">
  <g transform="translate(-3 -5)">
    <g transform="translate(3 5)">
      <rect fill="#b1b1b1" height="22" rx="2" width="22"/>
      <g transform="translate(4.888 3.667)">
        <path
          d="M32.578,106.072,32,96H42.476L41.9,106.072a1.307,1.307,0,0,1-1.307,1.222H33.885a1.307,1.307,0,0,1-1.307-1.222Z"
          fill="#fff" transform="translate(-31.127 -92.627)"/>
        <path
          d="M0,2.292V1.375A.448.448,0,0,1,.437.917H3.71L3.967.381A.645.645,0,0,1,4.551,0H7.669a.652.652,0,0,1,.587.381l.256.536h3.274a.448.448,0,0,1,.437.458v.917a.448.448,0,0,1-.437.458H.437A.448.448,0,0,1,0,2.292Z"
          fill="#fff" transform="translate(0 0)"/>
      </g>
    </g>
  </g>
</svg>
