<svg height="16.001" viewBox="0 0 16 16.001" width="16" xmlns="http://www.w3.org/2000/svg">
  <g data-name="Delete - Circle" id="Delete_-_Circle" transform="translate(0 0.001)">
    <path
      d="M11677,17203a8,8,0,1,1,8-8A8.01,8.01,0,0,1,11677,17203Zm-3.419-10.322h0l.371,6.07a.829.829,0,0,0,.837.75h4.426a.83.83,0,0,0,.838-.75l.371-6.07Zm-.294-1.619a.285.285,0,0,0-.285.285v.561a.283.283,0,0,0,.285.281h7.43a.283.283,0,0,0,.285-.281v-.561a.285.285,0,0,0-.285-.285h-2.141l-.169-.328a.437.437,0,0,0-.384-.232h-2.042a.429.429,0,0,0-.385.232l-.164.328Z"
      data-name="Subtraction 28"
      fill="#ff5d5d"
      id="Subtraction_28" opacity="0.7" transform="translate(-11668.998 -17187)"/>
  </g>
</svg>
