<svg height="21" viewBox="0 0 13.018 21" width="13.018" xmlns="http://www.w3.org/2000/svg">
  <path
    d="M8.753,9.117l-4.5-1.234a1.168,1.168,0,0,1-.884-1.105A1.192,1.192,0,0,1,4.6,5.625H7.361a2.665,2.665,0,0,1,1.425.41A.683.683,0,0,0,9.6,5.957l1.45-1.328a.608.608,0,0,0-.075-.957A6.148,6.148,0,0,0,7.37,2.5V.625A.649.649,0,0,0,6.7,0H5.369A.649.649,0,0,0,4.7.625V2.5H4.6A4.4,4.4,0,0,0,.056,7.172a4.573,4.573,0,0,0,3.492,3.773L7.82,12.117A1.172,1.172,0,0,1,8.7,13.223a1.192,1.192,0,0,1-1.229,1.152H4.711a2.665,2.665,0,0,1-1.425-.41.683.683,0,0,0-.813.078l-1.45,1.328a.608.608,0,0,0,.075.957A6.148,6.148,0,0,0,4.7,17.5v1.875A.649.649,0,0,0,5.369,20H6.7a.649.649,0,0,0,.667-.625V17.492a4.709,4.709,0,0,0,4.405-2.84A4.245,4.245,0,0,0,8.753,9.117Z"
    fill="#dadada"
    id="dollar-sign" stroke="rgba(0,0,0,0)" stroke-miterlimit="10" stroke-width="1" transform="translate(0.466 0.5)"/>
</svg>
