<svg xmlns="http://www.w3.org/2000/svg" width="22" height="22" viewBox="0 0 22 22">
  <defs>
    <style>
      .cls-1 {
        fill: #919191;
        opacity: 0.7;
      }

      .cls-2 {
        fill: #fff;
      }
    </style>
  </defs>
  <g id="Group_64783" data-name="Group 64783" transform="translate(-2 -2)">
    <g id="edit">
      <rect id="Rectangle_3879" data-name="Rectangle 3879" class="cls-1" width="22" height="22" rx="2" transform="translate(2 2)"/>
      <g id="Group_8761" data-name="Group 8761" transform="translate(6 6)">
        <path id="Path_7775" data-name="Path 7775" class="cls-2" d="M689.362,380.532l-1.645-1.647a1.318,1.318,0,0,0-1.859,0l-1.193,1.193h0a.33.33,0,0,0,0,.466l3.037,3.037h0a.33.33,0,0,0,.466,0l1.193-1.193h-.007A1.317,1.317,0,0,0,689.362,380.532Z" transform="translate(-675.74 -378.501)"/>
        <path id="Path_7776" data-name="Path 7776" class="cls-2" d="M688.217,383.954l-3.037-3.037h0a.329.329,0,0,0-.466,0l-7.359,7.358L677,391.4a.6.6,0,0,0,0,.146.656.656,0,0,0,.724.578l3.127-.35,7.358-7.358h0A.33.33,0,0,0,688.217,383.954Z" transform="translate(-676.999 -378.13)"/>
      </g>
    </g>
  </g>
</svg>
