<svg height="359.701" viewBox="0 0 384.653 359.701" width="384.653" xmlns="http://www.w3.org/2000/svg">
  <g data-name="Artboard 8 (4)" id="Artboard_8_4_" transform="translate(-381.66 -218.023)">
    <circle cx="11.454" cy="11.454" data-name="Ellipse 4168" fill="#ffac43" id="Ellipse_4168"
            r="11.454" transform="translate(698.547 226.714)"/>
    <circle cx="6.435" cy="6.435" data-name="Ellipse 4170" fill="#ffac43" id="Ellipse_4170"
            r="6.435" transform="translate(445.214 234.785)"/>
    <path
      d="M475.034,703.858l12.977-2.688L475.23,698.52l-2.875-20.68-2.914,20.949-12.742,2.38,12.938,2.414,2.718,20.915Z"
      data-name="Path 23989"
      fill="#e4e4e4"
      id="Path_23989" transform="translate(-48.087 -232.434)"/>
    <path d="M530.634,225.392c-.235,4.28,6.415,4.652,6.65.362S530.869,221.107,530.634,225.392Z" data-name="Path 23990"
          fill="#eee"
          id="Path_23990" transform="translate(-65.812)"/>
    <path d="M561.235,234.911a1.556,1.556,0,0,0,2.488,1.866A1.556,1.556,0,0,0,561.235,234.911Z" data-name="Path 23991"
          fill="#e4e4e4"
          id="Path_23991" transform="translate(-81.267 -6.096)"/>
    <path d="M501,298.821a1.557,1.557,0,0,0-2.522,1.822A1.557,1.557,0,0,0,501,298.821Z" data-name="Path 23992"
          fill="#e4e4e4"
          id="Path_23992" transform="translate(-49.25 -38.699)"/>
    <path d="M412.845,391.2l7.914-1.4-7.8-1.381-1.753-10.749-1.778,10.891L401.66,389.8l7.894,1.254,1.655,10.871Z"
          data-name="Path 23993"
          fill="#e4e4e4"
          id="Path_23993" transform="translate(-20 -79.258)"/>
    <path d="M1109.634,384.392c-.235,4.28,6.415,4.652,6.65.362S1109.869,380.107,1109.634,384.392Z"
          data-name="Path 23994"
          fill="#eee"
          id="Path_23994" transform="translate(-361.274 -81.137)"/>
    <path d="M1140.235,393.911a1.556,1.556,0,0,0,2.488,1.866A1.556,1.556,0,0,0,1140.235,393.911Z" data-name="Path 23995"
          fill="#e4e4e4"
          id="Path_23995" transform="translate(-376.73 -87.233)"/>
    <path d="M1080,457.821a1.557,1.557,0,0,0-2.522,1.822A1.557,1.557,0,0,0,1080,457.821Z" data-name="Path 23996"
          fill="#e4e4e4"
          id="Path_23996" transform="translate(-344.712 -119.836)"/>
    <path d="M911.634,257.392c-.235,4.28,6.415,4.652,6.65.362S911.869,253.107,911.634,257.392Z" data-name="Path 23997"
          fill="#eee"
          id="Path_23997" transform="translate(-240.235 -36.33)"/>
    <path d="M942.235,266.911a1.556,1.556,0,0,0,2.488,1.866A1.556,1.556,0,0,0,942.235,266.911Z" data-name="Path 23998"
          fill="#e4e4e4"
          id="Path_23998" transform="translate(-255.691 -42.425)"/>
    <path d="M882,330.821a1.557,1.557,0,0,0-2.522,1.822A1.557,1.557,0,0,0,882,330.821Z" data-name="Path 23999"
          fill="#fff"
          id="Path_23999" transform="translate(-243.673 -55.028)"/>
    <g data-name="Group 38088" id="Group_38088" transform="translate(432.565 234.967)">
      <path
        d="M710.172,387.51l6.7,3.668c9.51,5.176,14.98,14.368,14.96,26.806-.078,40.729-67.765,64.748-67.887,130.261L657.25,544.6c.122-65.532,67.8-89.552,67.883-130.261C725.157,401.878,719.682,392.686,710.172,387.51Z"
        data-name="Path 24000"
        fill="#b7b7b7"
        id="Path_24000" transform="translate(-562.992 -319.246)"/>
      <path
        d="M791.549,259.32l6.694,3.643c-19.128-10.411-45.3-13.668-75.9-9.368l-6.7-3.643C746.241,245.658,772.416,248.919,791.549,259.32Z"
        data-name="Path 24001"
        fill="#b7b7b7"
        id="Path_24001" transform="translate(-592.788 -248.112)"/>
      <path
        d="M601.317,257.4c65.057-9.143,110.1,15.881,110.026,71.124-.137,74.9-73.02,93.563-73.108,143.179l-65.517,9.2c.122-65.532,67.809-89.552,67.887-130.261.039-22.933-18.584-34.823-46.776-30.851-27.756,3.918-49.034,19.995-62.951,43.481l-52.4-25.861C501.951,295.7,542.768,265.63,601.317,257.4Z"
        data-name="Path 24002"
        fill="#eee"
        id="Path_24002" transform="translate(-471.766 -251.909)"/>
      <path
        d="M471.464,335.506l-6.694-3.643c23.506-41.679,64.3-71.751,122.852-79.983l6.7,3.643C535.772,263.755,494.955,293.828,471.464,335.506Z"
        data-name="Path 24003"
        fill="#b7b7b7"
        id="Path_24003" transform="translate(-464.77 -250.035)"/>
    </g>
    <g data-name="Group 38089" id="Group_38089" transform="translate(518.008 488.442)">
      <path
        d="M748.7,769.977l6.7,3.643c-6.68-3.634-14.965-5.083-24.279-3.776l-6.7-3.643C733.739,764.879,742.03,766.348,748.7,769.977Z"
        data-name="Path 24004"
        fill="#b7b7b7"
        id="Path_24004" transform="translate(-682.712 -765.723)"/>
      <path
        d="M663.97,850.816l-6.7-3.658c-11.175-6.077-18.05-18.192-18.021-32.957a47.933,47.933,0,0,1,41.713-47.5l6.7,3.643a47.97,47.97,0,0,0-41.718,47.5C645.92,832.624,652.8,844.739,663.97,850.816Z"
        data-name="Path 24005"
        fill="#b7b7b7"
        id="Path_24005" transform="translate(-639.25 -766.221)"/>
      <path
        d="M694.638,773.643c24.284-3.428,41.6,11.939,41.556,35.812-.044,23.408-17.428,45.053-41.713,48.451s-41.625-13.339-41.561-36.728A47.963,47.963,0,0,1,694.638,773.643Z"
        data-name="Path 24006"
        fill="#eee"
        id="Path_24006" transform="translate(-646.225 -769.521)"/>
    </g>
    <path
      d="M649.719,743.61a56.185,56.185,0,0,1,15.969-7.39A12,12,0,0,0,671.7,732.3c8.815-10.773,12.037-22.218,7.15-28.109-6.165-7.419-22.913-3.208-37.408,9.407A118.024,118.024,0,0,0,619,739.815a83.308,83.308,0,0,0,22.81,5.876A12.242,12.242,0,0,0,649.719,743.61Z"
      data-name="Path 24007"
      fill="#5673a8"
      id="Path_24007" transform="translate(-110.908 -244.014)"/>
    <path
      d="M649.45,748.556a56.162,56.162,0,0,1,16.508-7.644,11.043,11.043,0,0,0,5.548-3.619c8.5-10.318,11.9-21.282,7.958-27.423-.744,8.129-7.086,18.78-17.277,27.649-10.715,9.3-30.024,4.51-39.377,1.361-2.5,3.472-3.81,5.705-3.81,5.705a82.785,82.785,0,0,0,23.134,5.911,11.327,11.327,0,0,0,7.316-1.939Z"
      data-name="Path 24008"
      fill="#355585"
      id="Path_24008" transform="translate(-110.908 -248.779)"/>
    <path
      d="M724.968,759.22c-.26.284-3.149,2.791-3.428,3.041-.059.049,28.819,5.965,28.819,5.965l-6.631,42.962,9.868-.524,2.218-45.013Z"
      data-name="Path 24009"
      fill="#355585"
      id="Path_24009" transform="translate(-163.234 -273.962)"/>
    <path d="M687.325,828.682l5.387-42.6L679,767.092V765.04l21.057,17.61-3.918,46.522Z" data-name="Path 24010"
          fill="#355585"
          id="Path_24010" transform="translate(-141.526 -276.932)"/>
    <line data-name="Line 3174" fill="none" id="Line_3174" stroke="#b5b5b5" stroke-miterlimit="10"
          stroke-width="2" transform="translate(529.149 576.724)" x1="68.558"/>
    <path
      d="M680.81,557.489c.147.1.6-20.523,13.388-29.563,12.879-8.991,30.244-7.909,36.806,1.028s.142,22.154-12.507,30.876C705.971,568.561,681,557.543,680.81,557.489Z"
      data-name="Path 24011"
      fill="#5673a8"
      id="Path_24011" transform="translate(-142.45 -152.753)"/>
    <path
      d="M709.293,630.525c1.224,15.058,7.2,26.121,13.854,25.1s12.468-13.178,12.522-27.536-6.689-26.067-14.613-25.734S708.078,615.477,709.293,630.525Z"
      data-name="Path 24012"
      fill="#5673a8"
      id="Path_24012" transform="translate(-156.893 -193.91)"/>
    <path
      d="M712.873,615.1a49.4,49.4,0,0,0-.837,13.829c1.19,15.044,7.277,26.184,14.1,25.283,2.894-.357,5.558-2.733,7.752-6.366-2.277,7.923-6.249,13.628-10.729,14.29-6.65,1.023-12.629-10.039-13.854-25.1C708.647,628.312,709.993,620.31,712.873,615.1Z"
      data-name="Path 24013"
      fill="#355585"
      id="Path_24013" transform="translate(-156.907 -200.418)"/>
    <path
      d="M761.43,589.043q8.428,9.77,15.9,19.152c2.6,3.271,8.222.162,7.223-3.967q-3.129-12.541-7.086-25.528a2.262,2.262,0,0,1,1.929-3.31c9.794-.886,22.81-9.162,16.826-15.293a2.059,2.059,0,0,0-3.2.387q-1.058,2.057-2.1,4.118a10.6,10.6,0,0,1-9.456,5.539c-5.524,0-11.719.279-10.573,2.649q5,14.01,9.015,27.482c.519,1.763-1.89,3.11-3.021,1.69q-6.993-8.756-14.779-17.855C761.885,585.752,761.66,587.4,761.43,589.043Z"
      data-name="Path 24014"
      fill="#355585"
      id="Path_24014" transform="translate(-183.59 -172.05)"/>
    <path
      d="M750,469.632c.078.069,8.516-48.446,21.454-53.094,12.86-4.789,38.2,3.085,35.817,16.361-2.248,13.281-6.542,4.975-6.577,3.012s4.363-3.325,4.368-3.32,2.218-9.471-11.332-13.349c-13.526-3.8-20.078-2.483-24.186,1.141-4.2,3.555-14.27,31.542-14.314,33.447s-3.271,15.847-3.271,15.847S750.108,471.65,750,469.632Z"
      data-name="Path 24015"
      fill="#355585"
      id="Path_24015" transform="translate(-177.757 -98.372)"/>
    <path
      d="M774.439,510.65c-.328-.24,23.506-39.764,40.577-39.837,16.65-.548,43.275,12.468,36.091,22.732-6.9,10.426-9.108,2.478-8.531.823s6.092-1.645,6.1-1.636,5.72-7.2-8.653-13.888-22.556-7.292-28.481-5.343c-6.209,1.714-26.3,22.918-26.743,24.681-.686,1.543-8.134,12.958-8.095,12.992S774.048,512.452,774.439,510.65Z"
      data-name="Path 24016"
      fill="#355585"
      id="Path_24016" transform="translate(-190.209 -126.78)"/>
    <path
      d="M730.62,539.631a1.92,1.92,0,0,1-2.576-.157,1.64,1.64,0,0,1,.46-2.375,1.959,1.959,0,0,1,2.6.167,1.631,1.631,0,0,1-.48,2.365Z"
      data-name="Path 24017"
      fill="#355585"
      id="Path_24017" transform="translate(-166.389 -160.404)"/>
    <path
      d="M750.536,563.766a1.851,1.851,0,0,1-2.5-.147,1.642,1.642,0,0,1,.529-2.331,1.866,1.866,0,0,1,2.517.157A1.636,1.636,0,0,1,750.536,563.766Z"
      data-name="Path 24018"
      fill="#355585"
      id="Path_24018" transform="translate(-176.604 -172.746)"/>
    <path
      d="M638.97,588.533q5.5-15.715,12.037-30.788c-.044-.024,7.316-2.448-1.3-8.178-8.731-5.778-12.3-3.589-12.37-7.982-.137-3.741,7.527-10.205,1.959-10.328a7.824,7.824,0,0,0-8.2,6.714,12.585,12.585,0,0,0,.372,5c1.312,4.868,9.823,9.265,15.827,11.875q-7.287,18.119-13.183,37.095c-1.317,4.373,3.232,8.217,6.209,5.254a282.088,282.088,0,0,1,24.8-21.63q-.162-2.551-.338-5.108A285.227,285.227,0,0,0,642.035,591.1C640.561,592.617,638.23,590.673,638.97,588.533Z"
      data-name="Path 24019"
      fill="#355585"
      id="Path_24019" transform="translate(-117.029 -157.632)"/>
    <path
      d="M759.068,615.759c-.72-1.988-1.469-3.986-2.218-5.989q-2.938,3.124-5.739,6.312,1.518,2.424,2.992,4.824Q756.555,618.291,759.068,615.759Z"
      data-name="Path 24020"
      fill="#355585"
      id="Path_24020" transform="translate(-178.324 -197.698)"/>
    <path
      d="M695.784,615.728q3.32,4.535,6.479,8.991c.553-1.151,1.107-2.307,1.665-3.428q-3.565-4.922-7.346-9.921-1.645,2.4-3.242,4.833Z"
      data-name="Path 24021"
      fill="#355585"
      id="Path_24021" transform="translate(-148.844 -198.515)"/>
    <path
      d="M726.754,564.958c-12.791,10.7-41,1.107-41.213,1.068.113.064-.514-9.98,2.968-19.946-7.243,9.98-7.581,23.937-7.7,23.853.186.054,25.161,11.072,37.707,2.341a44.35,44.35,0,0,0,8.359-7.4Z"
      data-name="Path 24022"
      fill="#355585"
      id="Path_24022" transform="translate(-142.45 -165.198)"/>
    <path
      d="M968.034,505.858l12.977-2.688L968.23,500.52l-2.875-20.68-2.914,20.949-12.742,2.38,12.938,2.414,2.718,20.915Z"
      data-name="Path 24023"
      fill="#e4e4e4"
      id="Path_24023" transform="translate(-279.664 -131.395)"/>
  </g>
</svg>
