<svg height="14.496" viewBox="0 0 19.088 14.496" width="19.088" xmlns="http://www.w3.org/2000/svg">
  <defs>
    <style>.a, .b {
      fill: #b7b7b7;
    }

    .a {
      stroke: rgba(0, 0, 0, 0);
    }</style>
  </defs>
  <g transform="translate(-631.455 -790)">
    <path class="a"
          d="M24809,22265a8.887,8.887,0,0,1-2.834-.486l1.088-1.088a3.525,3.525,0,0,0,1.746.465,3.8,3.8,0,0,0,3.693-3.893,4.014,4.014,0,0,0-.354-1.658l1.789-1.789a16.284,16.284,0,0,1,3.74,3.08.578.578,0,0,1,0,.742C24817.453,22260.848,24813.678,22265,24809,22265Zm-4.328-1.115v0a15.955,15.955,0,0,1-4.531-3.508.574.574,0,0,1,0-.744,16.588,16.588,0,0,1,2.678-2.387A10.7,10.7,0,0,1,24809,22255a9.315,9.315,0,0,1,3.727.832l-1.27,1.271a3.592,3.592,0,0,0-2.457-.988,3.8,3.8,0,0,0-3.687,3.887,3.978,3.978,0,0,0,.811,2.434l-1.451,1.451Zm4.328-1.139a2.52,2.52,0,0,1-.9-.166l2.246-2.246a1.485,1.485,0,0,0,.746.2,1.548,1.548,0,0,0,.5-.082A2.66,2.66,0,0,1,24809,22262.746Zm-2.1-1.092v0a2.794,2.794,0,0,1-.535-1.66,2.7,2.7,0,0,1,2.635-2.754,2.578,2.578,0,0,1,1.2.307,1.671,1.671,0,0,0-.666,1.346c0,.029,0,.059,0,.088,0,.014,0,.029,0,.043l-2.635,2.631Z"
          transform="translate(-24168 -21463)"/>
    <path class="b"
          d="M.75,0c.414,0,.75.25.75.559V18.441c0,.309-.336.559-.75.559S0,18.75,0,18.441V.559C0,.25.336,0,.75,0Z"
          transform="translate(648.936 790) rotate(45)"/>
  </g>
</svg>
