<svg height="16" viewBox="0 0 16 16" width="16" xmlns="http://www.w3.org/2000/svg">
  <path
    d="M-543.333,3786.034a8,8,0,0,0-8,8,8,8,0,0,0,8,8,8,8,0,0,0,8-8A8,8,0,0,0-543.333,3786.034Zm1.238,12.551a1.238,1.238,0,0,1-1.238,1.238,1.238,1.238,0,0,1-1.238-1.238v-5.068a1.238,1.238,0,0,1,1.238-1.238,1.238,1.238,0,0,1,1.238,1.238Zm-1.238-7.4a1.416,1.416,0,0,1-1.416-1.416,1.416,1.416,0,0,1,1.416-1.416,1.416,1.416,0,0,1,1.416,1.416A1.416,1.416,0,0,1-543.333,3791.19Z"
    data-name="Path 10571"
    fill="#dadada"
    id="Path_10571" opacity="0.98" transform="translate(551.333 -3786.034)"/>
</svg>
