<svg data-name="Map Legend" height="26" id="Map_Legend" viewBox="0 0 28 26" xmlns="http://www.w3.org/2000/svg">
  <g data-name="Group 3070" id="Group_3070" transform="translate(0 0)">
    <path
      d="M3.467,26a3.467,3.467,0,0,1,0-6.934h.067a3.467,3.467,0,1,1,0,6.934Zm6.579-1.733a1.734,1.734,0,1,1,0-3.467H26.267a1.733,1.733,0,1,1,0,3.467Zm-6.579-7.8a3.467,3.467,0,0,1,0-6.934h.067a3.467,3.467,0,1,1,0,6.934Zm6.579-1.733a1.733,1.733,0,0,1,0-3.466h12.72a1.733,1.733,0,1,1,0,3.466Zm-6.579-7.8A3.467,3.467,0,1,1,3.467,0h.067a3.467,3.467,0,1,1,0,6.934ZM10.046,5.2a1.734,1.734,0,1,1,0-3.467H26.267a1.734,1.734,0,0,1,0,3.467Z"
      data-name="Map Legend"
      fill="#606060"
      id="Map_Legend-2"/>
  </g>
</svg>
