<svg height="18" viewBox="0 0 15.75 18" width="15.75" xmlns="http://www.w3.org/2000/svg">
  <g data-name="Group 8569" id="Group_8569" transform="translate(-1160.889 -760.003)">
    <path
      d="M1171.092,760a5.378,5.378,0,0,1,5.326,5.4v2.479h-2.813v-2.5a2.554,2.554,0,0,0-2.507-2.563h-.017a2.535,2.535,0,0,0-2.539,2.532v2.817a.841.841,0,0,1-.844.839h-1.129a.841.841,0,0,1-.84-.844v-2.812A5.35,5.35,0,0,1,1171.092,760Z"
      data-name="Path 5740"
      fill="#dadada"
      id="Path_5740" style="isolation: isolate" transform="translate(-2.31 0)"/>
    <path
      d="M1174.951,775.066h-12.375a1.688,1.688,0,0,0-1.687,1.688v6.75a1.687,1.687,0,0,0,1.687,1.688h12.375a1.687,1.687,0,0,0,1.688-1.687h0v-6.75A1.688,1.688,0,0,0,1174.951,775.066Zm-4.781,5.906a1.406,1.406,0,0,1-2.812,0v-1.688a1.406,1.406,0,0,1,2.813,0Z"
      data-name="Path 5741"
      fill="#dadada"
      id="Path_5741" transform="translate(0 -7.188)"/>
  </g>
</svg>
