<svg height="44" viewBox="0 0 44 44" width="44"
     xmlns="http://www.w3.org/2000/svg">
  <defs>
    <filter filterUnits="userSpaceOnUse" height="44" id="Ellipse_2980" width="44" x="0" y="0">
      <feOffset input="SourceAlpha"/>
      <feGaussianBlur result="blur" stdDeviation="2"/>
      <feFlood flood-opacity="0.149"/>
      <feComposite in2="blur" operator="in"/>
      <feComposite in="SourceGraphic"/>
    </filter>
  </defs>
  <g data-name="Group 31746" id="Group_31746" transform="translate(-594 -563)">
    <g filter="url(#Ellipse_2980)" transform="matrix(1, 0, 0, 1, 594, 563)">
      <circle cx="16" cy="16" data-name="Ellipse 2980" fill="#f9f9f9" id="Ellipse_2980-2" r="16"
              transform="translate(6 6)"/>
    </g>
    <g data-name="Group 31726" id="Group_31726" transform="translate(318.242 164.525)">
      <path d="M297.758,410.475h0a1,1,0,0,1,1,1v18a1,1,0,0,1-1,1h0a1,1,0,0,1-1-1v-18A1,1,0,0,1,297.758,410.475Z"
            data-name="Rectangle 9905"
            fill="#b7b7b7"
            id="Rectangle_9905" transform="translate(0.048)"/>
      <path
        d="M292.757,425.976a.989.989,0,0,1-.693-.281l-3.893-3.75a1.346,1.346,0,0,1,0-1.939l3.894-3.751a1,1,0,1,1,1.387,1.44l-3.4,3.28,3.4,3.281a1,1,0,0,1-.694,1.72Z"
        data-name="Path 11856"
        fill="#b7b7b7"
        id="Path_11856"/>
      <path
        d="M302.662,415.976a.992.992,0,0,1,.694.28l3.892,3.75a1.343,1.343,0,0,1,0,1.939l-3.893,3.751a1,1,0,1,1-1.388-1.44l3.4-3.28-3.4-3.281a1,1,0,0,1,.694-1.719Z"
        data-name="Path 11857"
        fill="#b7b7b7"
        id="Path_11857" transform="translate(0.096)"/>
    </g>
  </g>
</svg>
