<svg height="22" viewBox="0 0 22 22" width="22" xmlns="http://www.w3.org/2000/svg">
  <g transform="translate(-778 -546)">
    <path d="M2,0H20a2,2,0,0,1,2,2V20a2,2,0,0,1-2,2H2a2,2,0,0,1-2-2V2A2,2,0,0,1,2,0Z" fill="#b1b1b1"
          transform="translate(778 546)"/>
    <path
      d="M689.362,380.532l-1.645-1.647a1.318,1.318,0,0,0-1.859,0l-1.193,1.193h0a.33.33,0,0,0,0,.466l3.037,3.037h0a.33.33,0,0,0,.466,0l1.193-1.193h-.007A1.317,1.317,0,0,0,689.362,380.532Z"
      fill="#fff" transform="translate(106.26 171.498)"/>
    <path
      d="M688.217,383.954l-3.037-3.037h0a.329.329,0,0,0-.466,0l-7.359,7.358L677,391.4a.6.6,0,0,0,0,.146.656.656,0,0,0,.724.578l3.127-.35,7.358-7.358h0A.33.33,0,0,0,688.217,383.954Z"
      fill="#fff" transform="translate(105 171.869)"/>
  </g>
</svg>
