<svg height="355.915" viewBox="0 0 426.858 355.915" width="426.858" xmlns="http://www.w3.org/2000/svg">
  <g data-name="Artboard 8 (3)" id="Artboard_8_3_" transform="translate(-293.91 -220.78)">
    <circle cx="10.945" cy="10.945" data-name="Ellipse 4168" fill="#ffac43" id="Ellipse_4168"
            r="10.945" transform="translate(544.602 281.399)"/>
    <circle cx="6.149" cy="6.149" data-name="Ellipse 4169" fill="#ffac43" id="Ellipse_4169"
            r="6.149" transform="translate(378.755 386.824)"/>
    <circle cx="6.149" cy="6.149" data-name="Ellipse 4170" fill="#ffac43" id="Ellipse_4170"
            r="6.149" transform="translate(494.775 278.423)"/>
    <path d="M561.183,258.473c-.225,4.09,6.135,4.441,6.355.346S561.408,254.364,561.183,258.473Z" data-name="Path 23925"
          fill="#e4e4e4"
          id="Path_23925" transform="translate(-142.199 -18.507)"/>
    <path d="M591.774,268.1a1.487,1.487,0,0,0,2.377,1.783A1.487,1.487,0,0,0,591.774,268.1Z" data-name="Path 23926"
          fill="#e4e4e4"
          id="Path_23926" transform="translate(-158.315 -24.867)"/>
    <path d="M531.429,332.013a1.487,1.487,0,0,0-2.41,1.741A1.487,1.487,0,0,0,531.429,332.013Z" data-name="Path 23927"
          fill="#e4e4e4"
          id="Path_23927" transform="translate(-124.934 -58.859)"/>
    <path d="M1140.183,417.473c-.225,4.09,6.135,4.441,6.355.346S1140.408,413.364,1140.183,417.473Z"
          data-name="Path 23928"
          fill="#e4e4e4"
          id="Path_23928" transform="translate(-450.253 -103.102)"/>
    <path d="M1170.774,427.1a1.487,1.487,0,0,0,2.377,1.783A1.487,1.487,0,0,0,1170.774,427.1Z" data-name="Path 23929"
          fill="#e4e4e4"
          id="Path_23929" transform="translate(-466.37 -109.462)"/>
    <path d="M1110.429,491.013a1.487,1.487,0,0,0-2.41,1.741A1.487,1.487,0,0,0,1110.429,491.013Z" data-name="Path 23930"
          fill="#e4e4e4"
          id="Path_23930" transform="translate(-432.988 -143.454)"/>
    <path d="M942.183,290.473c-.225,4.09,6.135,4.441,6.355.346S942.408,286.364,942.183,290.473Z" data-name="Path 23931"
          fill="#e4e4e4"
          id="Path_23931" transform="translate(-344.908 -35.532)"/>
    <path d="M972.774,300.1a1.487,1.487,0,0,0,2.377,1.783A1.487,1.487,0,0,0,972.774,300.1Z" data-name="Path 23932"
          fill="#e4e4e4"
          id="Path_23932" transform="translate(-361.025 -41.892)"/>
    <path d="M912.429,364.013a1.487,1.487,0,0,0-2.41,1.741A1.487,1.487,0,0,0,912.429,364.013Z" data-name="Path 23933"
          fill="#e4e4e4"
          id="Path_23933" transform="translate(-327.643 -75.885)"/>
    <path
      d="M678.9,774.917a53.661,53.661,0,0,1,15.265-7.062,11.431,11.431,0,0,0,5.742-3.744c8.423-10.3,11.5-21.231,6.832-26.861-5.887-7.089-21.891-3.065-35.747,8.99A112.509,112.509,0,0,0,649.55,771.3a79.667,79.667,0,0,0,21.8,5.615A11.7,11.7,0,0,0,678.9,774.917Z"
      data-name="Path 23934"
      fill="#5673a8"
      id="Path_23934" transform="translate(-189.217 -272.925)"/>
    <path
      d="M678.647,780.058a53.667,53.667,0,0,1,15.775-7.3,10.553,10.553,0,0,0,5.3-3.458c8.119-9.86,11.371-20.337,7.6-26.205-.707,7.768-6.767,17.946-16.5,26.421-10.239,8.891-28.695,4.31-37.633,1.3-2.382,3.318-3.641,5.452-3.641,5.452a79.107,79.107,0,0,0,22.106,5.648A10.814,10.814,0,0,0,678.647,780.058Z"
      data-name="Path 23935"
      fill="#355585"
      id="Path_23935" transform="translate(-189.217 -277.893)"/>
    <path
      d="M750.221,767.47c-1.268.407-10.871,7.286-7.487,7.019.08,0,34.629-16.378,34.629-16.378L766.978,804.13l9.448-.5,6.551-54.409Z"
      data-name="Path 23936"
      fill="#355585"
      id="Path_23936" transform="translate(-238.413 -281.154)"/>
    <path d="M609.165,797.861l35.943,21.9,13.87-31.016,1.858.622-14.843,38.091L602.67,804.221Z" data-name="Path 23937"
          fill="#355585"
          id="Path_23937" transform="translate(-164.275 -302.186)"/>
    <line data-name="Line 3172" fill="none" id="Line_3172" stroke="#b5b5b5" stroke-miterlimit="10"
          stroke-width="2" transform="translate(457.525 575.695)" x1="65.046"/>
    <path
      d="M769.951,591.259c-.15.084.655-19.612-11-29.013-11.741-9.359-28.367-9.359-35.162-1.226s-1.465,21.123,10.075,30.2C745.29,600.309,769.769,591.3,769.951,591.259Z"
      data-name="Path 23938"
      fill="#5673a8"
      id="Path_23938" transform="translate(-227.118 -177.855)"/>
    <path
      d="M739.809,662.494c1.175,14.39,6.884,24.956,13.239,23.983s11.914-12.593,11.966-26.313-6.392-24.909-13.964-24.591S738.662,648.114,739.809,662.494Z"
      data-name="Path 23939"
      fill="#5673a8"
      id="Path_23939" transform="translate(-237.149 -220.685)"/>
    <path
      d="M743.257,648.32a47.38,47.38,0,0,0-.8,13.215c1.137,14.371,6.954,25.021,13.477,24.16,2.77-.342,5.311-2.611,7.408-6.083-2.176,7.572-5.971,13.023-10.253,13.655-6.355.978-12.064-9.593-13.238-23.983C739.219,660.945,740.505,653.318,743.257,648.32Z"
      data-name="Path 23940"
      fill="#355585"
      id="Path_23940" transform="translate(-237.177 -227.471)"/>
    <path
      d="M703.082,501.127c-.08.056-2.082-46.959-13.767-52.963-11.6-6.125-36.566-1.792-35.958,11.081.468,12.864,5.583,5.522,5.859,3.664s-3.744-3.692-3.744-3.683-.936-9.251,12.387-11.231,19.35.131,22.78,4.071c3.538,3.884,9.621,31.648,9.429,33.459s1.128,15.414,1.123,15.419S702.717,503.022,703.082,501.127Z"
      data-name="Path 23941"
      fill="#355585"
      id="Path_23941" transform="translate(-191.237 -119.52)"/>
    <path
      d="M650.961,537.7c.337-.187-17.357-40.581-33.534-42.762-15.723-2.574-42.546,6.472-37,17.085,5.246,10.73,8.32,3.472,7.979,1.834s-5.573-2.312-5.578-2.307-4.525-7.529,9.916-12.092,22.275-4.123,27.651-1.544c5.667,2.391,22.087,24.965,22.289,26.673.468,1.549,6.083,13.285,6.083,13.309S651.11,539.454,650.961,537.7Z"
      data-name="Path 23942"
      fill="#355585"
      id="Path_23942" transform="translate(-152.045 -145.629)"/>
    <path
      d="M775.6,573.967a1.839,1.839,0,0,0,2.466,0,1.568,1.568,0,0,0-.295-2.293,1.872,1.872,0,0,0-2.485,0A1.569,1.569,0,0,0,775.6,573.967Z"
      data-name="Path 23943"
      fill="#355585"
      id="Path_23943" transform="translate(-255.919 -186.441)"/>
    <path
      d="M754.305,596.8a1.774,1.774,0,0,0,2.4,0,1.573,1.573,0,0,0-.365-2.255,1.778,1.778,0,0,0-2.41,0A1.591,1.591,0,0,0,754.305,596.8Z"
      data-name="Path 23944"
      fill="#355585"
      id="Path_23944" transform="translate(-244.579 -198.612)"/>
    <path
      d="M732.738,598.54c11.554,10.964,39.037,3.51,39.238,3.486-.112.051,1.086-9.49-1.638-19.186,6.313,9.953,5.8,23.281,5.92,23.211-.182.037-24.661,9.05-36.089,0a42.765,42.765,0,0,1-7.529-7.567Z"
      data-name="Path 23945"
      fill="#355585"
      id="Path_23945" transform="translate(-233.425 -192.633)"/>
    <path d="M784.54,582.586l68.326-60.366,7.487.936L784.54,585Z" data-name="Path 23946" fill="#355585"
          id="Path_23946" transform="translate(-261.038 -160.38)"/>
    <path d="M858.55,432.467s10.8-8.362,18.166-1.628-3.683,25.546,12.27,23.454" data-name="Path 23947" fill="none"
          id="Path_23947" stroke="#5673a9" stroke-miterlimit="10" stroke-width="3"
          transform="translate(-300.415 -110.366)"/>
    <path d="M837.442,481.75s-24.142,9.163-11.9,24.511" data-name="Path 23948" fill="none"
          id="Path_23948" stroke="#5673a9" stroke-miterlimit="10" stroke-width="3"
          transform="translate(-281.01 -138.848)"/>
    <path
      d="M927.586,400.67s17.618.725,22.766,2.129,11.231,5.147,11.231,12.167S978.429,426.2,978.429,426.2s-20.59,5.615-25.737.468-5.147-8.423-12.167-9.359-14.975-1.4-14.975-1.4l7.019-6.551Z"
      data-name="Path 23949"
      fill="#24c0a0"
      id="Path_23949" transform="translate(-336.062 -95.71)"/>
    <line data-name="Line 3173" fill="none" id="Line_3173" stroke="#000" stroke-miterlimit="10"
          stroke-width="4" transform="translate(587.617 303.814)" x1="14.039" y2="90.783"/>
    <path
      d="M921.637,509.22s7.019,5.615,4.68,10.295a10.913,10.913,0,0,1-7.019,5.615s-11.231-1.4-10.763-4.212S921.637,509.22,921.637,509.22Z"
      data-name="Path 23950"
      fill="#355585"
      id="Path_23950" transform="translate(-327.001 -153.463)"/>
    <path
      d="M421.531,241.677l-.211-3.552-.257-3.552c-.192-2.368-.374-4.736-.622-7.1h-.309c-.248,2.368-.435,4.736-.622,7.1l-.257,3.552-.211,3.552c-.066,1.184-.192,2.368-.295,3.552a21.433,21.433,0,0,0,0,3.552,35.439,35.439,0,0,0,.468,3.552,20.357,20.357,0,0,0,.936,3.552h.309a21.219,21.219,0,0,0,.936-3.552,34.129,34.129,0,0,0,.468-3.552,21.433,21.433,0,0,0,0-3.552C421.722,244.045,421.6,242.861,421.531,241.677Z"
      data-name="Path 23951"
      fill="#5673a9"
      id="Path_23951" transform="translate(-66.379 -3.559)"/>
    <path
      d="M422.322,402.842a20.764,20.764,0,0,0-.936-3.552h-.314a21.221,21.221,0,0,0-.936,3.552,34.128,34.128,0,0,0-.468,3.552,21.963,21.963,0,0,0,0,3.552c.108,1.184.229,2.368.295,3.552l.211,3.552.257,3.552c.192,2.368.379,4.736.622,7.1h.314c.243-2.368.431-4.736.622-7.1l.257-3.552.206-3.552c.07-1.184.192-2.368.3-3.552a21.956,21.956,0,0,0,0-3.552A32.922,32.922,0,0,0,422.322,402.842Z"
      data-name="Path 23952"
      fill="#5673a9"
      id="Path_23952" transform="translate(-66.871 -94.976)"/>
    <path
      d="M481.567,267a35.4,35.4,0,0,0,2.836-2.19,21.922,21.922,0,0,0,2.5-2.522c.763-.913,1.512-1.839,2.3-2.724l2.363-2.658,2.34-2.7c1.54-1.806,3.079-3.613,4.581-5.461l-.22-.22c-1.872,1.5-3.655,3.042-5.461,4.581l-2.7,2.34-2.663,2.335c-.884.791-1.811,1.54-2.723,2.3a21.935,21.935,0,0,0-2.522,2.5,35.392,35.392,0,0,0-2.19,2.836,21.346,21.346,0,0,0-1.844,3.177l.225.22A20.927,20.927,0,0,0,481.567,267Z"
      data-name="Path 23953"
      fill="#5673a9"
      id="Path_23953" transform="translate(-98.035 -14.764)"/>
    <path
      d="M370.886,360.263a34.27,34.27,0,0,0-2.831,2.19,22,22,0,0,0-2.5,2.522c-.763.913-1.511,1.834-2.3,2.719l-2.363,2.663-2.34,2.691c-1.54,1.811-3.084,3.617-4.586,5.466l.22.22c1.872-1.5,3.655-3.042,5.466-4.581l2.691-2.34L365,369.449c.884-.791,1.806-1.54,2.719-2.3a22,22,0,0,0,2.522-2.5,34.3,34.3,0,0,0,2.19-2.831,21.168,21.168,0,0,0,1.844-3.182l-.22-.22A21.168,21.168,0,0,0,370.886,360.263Z"
      data-name="Path 23954"
      fill="#5673a9"
      id="Path_23954" transform="translate(-31.949 -73.226)"/>
    <path
      d="M454.571,340.651l-3.552-.257-3.552-.211c-1.184-.066-2.368-.192-3.552-.295a21.956,21.956,0,0,0-3.552,0,34.13,34.13,0,0,0-3.552.468,21.223,21.223,0,0,0-3.552.936v.314a20.764,20.764,0,0,0,3.552.936,34.163,34.163,0,0,0,3.552.468,21.949,21.949,0,0,0,3.552,0c1.184-.108,2.368-.229,3.552-.3l3.552-.211,3.552-.253c2.368-.192,4.736-.379,7.1-.622v-.314C459.306,341.025,456.939,340.838,454.571,340.651Z"
      data-name="Path 23955"
      fill="#5673a9"
      id="Path_23955" transform="translate(-74.141 -63.333)"/>
    <path
      d="M308.117,343.585c1.184.065,2.368.192,3.552.295a21.956,21.956,0,0,0,3.552,0,34.137,34.137,0,0,0,3.552-.468,21.22,21.22,0,0,0,3.552-.936v-.314a20.762,20.762,0,0,0-3.552-.936,34.179,34.179,0,0,0-3.552-.468,21.953,21.953,0,0,0-3.552,0c-1.184.108-2.368.229-3.552.3l-3.552.211-3.552.253c-2.368.192-4.736.379-7.1.622v.313c2.368.248,4.736.431,7.1.622l3.552.257Z"
      data-name="Path 23956"
      fill="#5673a9"
      id="Path_23956" transform="translate(0 -63.796)"/>
    <path
      d="M462.148,394.243l-2.363-2.658c-.791-.884-1.54-1.811-2.3-2.719a21.2,21.2,0,0,0-2.5-2.522,33.351,33.351,0,0,0-2.836-2.19,20.728,20.728,0,0,0-3.177-1.844l-.22.22a20.725,20.725,0,0,0,1.844,3.177,33.342,33.342,0,0,0,2.19,2.836,21.2,21.2,0,0,0,2.522,2.5c.908.763,1.834,1.512,2.719,2.3l2.658,2.363,2.7,2.34c1.811,1.54,3.613,3.084,5.461,4.581l.225-.22c-1.5-1.848-3.046-3.65-4.586-5.461Z"
      data-name="Path 23957"
      fill="#5673a9"
      id="Path_23957" transform="translate(-82.382 -85.941)"/>
    <path
      d="M369.32,285.385a21.932,21.932,0,0,0-2.522-2.5c-.913-.763-1.839-1.512-2.723-2.3l-2.658-2.363-2.7-2.34c-1.806-1.54-3.613-3.084-5.461-4.581l-.22.22c1.5,1.848,3.042,3.65,4.581,5.461l2.34,2.7,2.363,2.658c.791.884,1.54,1.811,2.3,2.719a21.213,21.213,0,0,0,2.5,2.522,33.373,33.373,0,0,0,2.836,2.19,20.728,20.728,0,0,0,3.177,1.844l.22-.22a20.346,20.346,0,0,0-1.844-3.177A34.293,34.293,0,0,0,369.32,285.385Z"
      data-name="Path 23958"
      fill="#5673a9"
      id="Path_23958" transform="translate(-31.46 -26.879)"/>
    <g data-name="Group 38086" id="Group_38086" opacity="0.5" transform="translate(297.93 220.78)">
      <path
        d="M500.668,329.625c-4.389.468-8.779.8-13.168,1.156l-6.584.468-6.589.388c-2.195.122-4.389.351-6.584.548a40.175,40.175,0,0,1-6.584.028,64.612,64.612,0,0,1-6.584-.842A38.962,38.962,0,0,1,448,329.625v-.576a38.511,38.511,0,0,1,6.584-1.75,63.336,63.336,0,0,1,6.584-.847,40.168,40.168,0,0,1,6.584.028c2.195.2,4.389.426,6.584.547l6.589.393,6.584.468c4.389.356,8.779.7,13.168,1.156Z"
        data-name="Path 23959"
        fill="#5673a9"
        id="Path_23959" transform="translate(-379.913 -276.938)"/>
      <path
        d="M387.4,220.78c1.727,4.062,3.341,8.161,4.97,12.251l2.387,6.158,2.3,6.182c.763,2.059,1.628,4.09,2.457,6.135a39.9,39.9,0,0,1,1.961,6.285,64.493,64.493,0,0,1,1.123,6.551,39.068,39.068,0,0,1,.257,6.813l-.552.168a38.583,38.583,0,0,1-3.6-5.784,62.941,62.941,0,0,1-2.742-6.046,40.581,40.581,0,0,1-1.886-6.322c-.468-2.157-.88-4.324-1.4-6.458l-1.558-6.411-1.479-6.434c-.936-4.3-1.9-8.6-2.756-12.93Z"
        data-name="Path 23960"
        fill="#5673a9"
        id="Path_23960" transform="translate(-347.394 -220.78)"/>
      <path
        d="M444.3,408.279c-1.722-4.062-3.341-8.156-4.965-12.251l-2.387-6.154-2.307-6.182c-.758-2.064-1.624-4.095-2.457-6.135a40.443,40.443,0,0,1-1.956-6.289,64.266,64.266,0,0,1-1.123-6.551,38.557,38.557,0,0,1-.257-6.809l.552-.168a38.925,38.925,0,0,1,3.6,5.779,63.532,63.532,0,0,1,2.742,6.041,40.423,40.423,0,0,1,1.9,6.3c.468,2.153.88,4.319,1.4,6.453l1.558,6.411,1.474,6.434c.936,4.3,1.909,8.6,2.761,12.93Z"
        data-name="Path 23961"
        fill="#5673a9"
        id="Path_23961" transform="translate(-369.694 -293.649)"/>
      <path
        d="M456.83,230.231c-1.652,4.09-3.407,8.128-5.148,12.167l-2.663,6.041-2.742,6c-.936,2-1.745,4.048-2.6,6.083a40.2,40.2,0,0,1-3.06,5.831,62.772,62.772,0,0,1-3.833,5.419,38.955,38.955,0,0,1-4.633,5l-.51-.271a38.743,38.743,0,0,1,1.54-6.636,63.314,63.314,0,0,1,2.34-6.214,40.71,40.71,0,0,1,3.107-5.807c1.2-1.844,2.433-3.678,3.57-5.559l3.43-5.615,3.51-5.615c2.368-3.711,4.731-7.426,7.188-11.091Z"
        data-name="Path 23962"
        fill="#5673a9"
        id="Path_23962" transform="translate(-371.208 -225.664)"/>
      <path
        d="M364.5,403.088c1.652-4.09,3.407-8.133,5.148-12.167l2.667-6.041,2.742-6c.936-2,1.745-4.043,2.6-6.083a39.776,39.776,0,0,1,3.06-5.831,62.856,62.856,0,0,1,3.833-5.424,38.613,38.613,0,0,1,4.633-4.993l.51.267a39.243,39.243,0,0,1-1.54,6.64,64.223,64.223,0,0,1-2.34,6.214,40.459,40.459,0,0,1-3.112,5.807c-1.2,1.848-2.433,3.678-3.57,5.559l-3.43,5.615-3.5,5.615c-2.368,3.711-4.731,7.431-7.188,11.1Z"
        data-name="Path 23963"
        fill="#5673a9"
        id="Path_23963" transform="translate(-335.487 -293.016)"/>
      <path
        d="M302.5,362.576c4.062-1.722,8.161-3.341,12.251-4.965l6.158-2.387,6.182-2.307c2.064-.763,4.095-1.624,6.135-2.457a40.535,40.535,0,0,1,6.285-1.956,63.093,63.093,0,0,1,6.551-1.123,38.534,38.534,0,0,1,6.809-.257l.168.552a38.964,38.964,0,0,1-5.784,3.6,62.93,62.93,0,0,1-6.046,2.742,40.575,40.575,0,0,1-6.308,1.909c-2.157.468-4.324.88-6.458,1.4l-6.411,1.563-6.434,1.474c-4.3.936-8.6,1.909-12.93,2.761Z"
        data-name="Path 23964"
        fill="#5673a9"
        id="Path_23964" transform="translate(-302.5 -287.974)"/>
      <path
        d="M484.809,375.1c-4.09-1.652-8.133-3.407-12.167-5.147l-6.041-2.663-5.99-2.747c-2-.936-4.043-1.745-6.083-2.6a40.674,40.674,0,0,1-5.831-3.06,64.1,64.1,0,0,1-5.419-3.833,38.64,38.64,0,0,1-5-4.633l.267-.51a38.792,38.792,0,0,1,6.621,1.54,63.314,63.314,0,0,1,6.214,2.34,40.177,40.177,0,0,1,5.8,3.107c1.848,1.2,3.678,2.433,5.559,3.57l5.639,3.43L474,367.4c3.711,2.373,7.431,4.731,11.1,7.192Z"
        data-name="Path 23965"
        fill="#5673a9"
        id="Path_23965" transform="translate(-374.741 -289.483)"/>
      <path
        d="M312,282.77c4.09,1.657,8.128,3.411,12.167,5.147l6.037,2.667,6.009,2.747c1.993.936,4.043,1.745,6.083,2.6a40.678,40.678,0,0,1,5.831,3.06,63.858,63.858,0,0,1,5.419,3.837,38.281,38.281,0,0,1,5,4.628l-.271.51a38.838,38.838,0,0,1-6.617-1.535,63.327,63.327,0,0,1-6.214-2.34,39.964,39.964,0,0,1-5.8-3.112c-1.848-1.2-3.683-2.433-5.564-3.57l-5.615-3.43-5.592-3.505c-3.716-2.368-7.431-4.731-11.1-7.192Z"
        data-name="Path 23966"
        fill="#5673a9"
        id="Path_23966" transform="translate(-307.432 -253.762)"/>
    </g>
    <path d="M680.383,407.1s-1.745-13.374-11.615-13.571-15.246,20.81-24.989,8.4" data-name="Path 23967" fill="none"
          id="Path_23967" stroke="#5673a9" stroke-miterlimit="10" stroke-width="2.97"
          transform="translate(-186.147 -91.909)"/>
    <path d="M577.545,335.85s10.548,23.084-8.755,25.7" data-name="Path 23968" fill="none"
          id="Path_23968" stroke="#5673a9" stroke-miterlimit="10" stroke-width="2.97"
          transform="translate(-146.249 -61.223)"/>
    <path d="M454,492.407s10.8-8.362,18.166-1.628-3.683,25.546,12.27,23.454" data-name="Path 23969" fill="none"
          id="Path_23969" stroke="#5673a9" stroke-miterlimit="10" stroke-width="3"
          transform="translate(-85.175 -142.257)"/>
    <path d="M976.862,327.68s-24.142,9.167-11.9,24.516" data-name="Path 23970" fill="none"
          id="Path_23970" stroke="#5673a9" stroke-miterlimit="10" stroke-width="3"
          transform="translate(-355.188 -56.876)"/>
    <path
      d="M1124.083,465.52l-.122-2.1-.155-2.092c-.112-1.4-.22-2.808-.365-4.212h-.182c-.145,1.4-.257,2.808-.37,4.212l-.15,2.092-.126,2.1c-.038.7-.112,1.4-.173,2.1a12.55,12.55,0,0,0,0,2.1,20.028,20.028,0,0,0,.271,2.092,11.874,11.874,0,0,0,.557,2.1h.183a12.274,12.274,0,0,0,.557-2.1c.126-.7.215-1.4.272-2.092a13.643,13.643,0,0,0,0-2.1C1124.195,466.919,1124.125,466.217,1124.083,465.52Z"
      data-name="Path 23971"
      fill="#ffad43"
      id="Path_23971" transform="translate(-440.793 -125.744)"/>
    <path
      d="M1124.552,560.617a11.989,11.989,0,0,0-.557-2.1h-.182a12.414,12.414,0,0,0-.557,2.1c-.126.7-.215,1.4-.271,2.1a13.6,13.6,0,0,0,0,2.092c.066.7.136,1.4.178,2.1l.122,2.1.154,2.092c.112,1.4.22,2.808.365,4.212h.182c.145-1.4.257-2.808.37-4.212l.15-2.092.126-2.1c.037-.7.112-1.4.173-2.1a12.506,12.506,0,0,0,0-2.092A19.893,19.893,0,0,0,1124.552,560.617Z"
      data-name="Path 23972"
      fill="#ffad43"
      id="Path_23972" transform="translate(-441.084 -179.693)"/>
    <path
      d="M1159.513,480.454a19.73,19.73,0,0,0,1.671-1.287,13.03,13.03,0,0,0,1.474-1.488c.468-.538.894-1.086,1.362-1.605l1.4-1.572,1.376-1.586c.908-1.067,1.82-2.134,2.7-3.224l-.131-.131c-1.09.889-2.157,1.8-3.224,2.7l-1.586,1.376-1.568,1.4c-.524.468-1.067.908-1.605,1.357a12.3,12.3,0,0,0-1.488,1.474,20.373,20.373,0,0,0-1.292,1.671,12.517,12.517,0,0,0-1.09,1.872l.131.131A12.517,12.517,0,0,0,1159.513,480.454Z"
      data-name="Path 23973"
      fill="#ffad43"
      id="Path_23973" transform="translate(-459.48 -132.362)"/>
    <path
      d="M1094.216,535.495a20.666,20.666,0,0,0-1.675,1.292,13.418,13.418,0,0,0-1.474,1.488c-.468.538-.889,1.086-1.357,1.605l-1.4,1.568-1.376,1.591c-.908,1.067-1.816,2.134-2.7,3.22l.126.131c1.09-.884,2.157-1.792,3.224-2.7l1.591-1.376,1.568-1.4c.519-.468,1.067-.908,1.605-1.357a13.424,13.424,0,0,0,1.488-1.474q.679-.8,1.292-1.675a12.64,12.64,0,0,0,1.086-1.872l-.131-.131A12.639,12.639,0,0,0,1094.216,535.495Z"
      data-name="Path 23974"
      fill="#ffad43"
      id="Path_23974" transform="translate(-420.487 -166.86)"/>
    <path
      d="M1143.579,523.929l-2.1-.154-2.092-.122c-.7-.037-1.4-.112-2.1-.173a12.538,12.538,0,0,0-2.1,0,20.262,20.262,0,0,0-2.1.267,12.351,12.351,0,0,0-2.092.557v.187a12.819,12.819,0,0,0,2.092.557,20.262,20.262,0,0,0,2.1.267,12.551,12.551,0,0,0,2.1,0c.7-.061,1.4-.136,2.1-.173l2.092-.126,2.1-.15c1.4-.112,2.808-.22,4.212-.365v-.187C1146.373,524.168,1144.979,524.042,1143.579,523.929Z"
      data-name="Path 23975"
      fill="#ffad43"
      id="Path_23975" transform="translate(-445.376 -161.027)"/>
    <path
      d="M1057.16,525.667c.7.042,1.4.112,2.1.178a13.066,13.066,0,0,0,2.1,0,19.95,19.95,0,0,0,2.092-.267,12.289,12.289,0,0,0,2.1-.557v-.182a11.876,11.876,0,0,0-2.1-.557,19.989,19.989,0,0,0-2.092-.271,12.548,12.548,0,0,0-2.1,0c-.7.061-1.4.136-2.1.173l-2.1.126-2.092.15c-1.4.112-2.808.225-4.212.37v.182c1.4.145,2.808.253,4.212.365l2.092.154Z"
      data-name="Path 23976"
      fill="#ffad43"
      id="Path_23976" transform="translate(-401.615 -161.309)"/>
    <path
      d="M1148.009,555.543l-1.4-1.572c-.468-.519-.908-1.067-1.357-1.605a13.034,13.034,0,0,0-1.474-1.488,20.544,20.544,0,0,0-1.671-1.287,12.528,12.528,0,0,0-1.872-1.09l-.131.131a12.535,12.535,0,0,0,1.09,1.872,20.347,20.347,0,0,0,1.292,1.671,12.593,12.593,0,0,0,1.484,1.474c.538.468,1.086.894,1.605,1.357l1.572,1.4,1.586,1.376c1.067.908,2.134,1.816,3.224,2.7l.131-.131c-.884-1.09-1.8-2.157-2.7-3.224Z"
      data-name="Path 23977"
      fill="#ffad43"
      id="Path_23977" transform="translate(-450.212 -174.362)"/>
    <path
      d="M1093.282,491.326a12.673,12.673,0,0,0-1.488-1.479c-.533-.468-1.081-.889-1.6-1.357l-1.572-1.4-1.586-1.371c-1.067-.908-2.134-1.82-3.224-2.7l-.131.131c.884,1.09,1.8,2.153,2.7,3.219l1.376,1.591,1.4,1.568c.468.524.908,1.067,1.357,1.605a12.3,12.3,0,0,0,1.474,1.488,20.592,20.592,0,0,0,1.671,1.292,12.114,12.114,0,0,0,1.872,1.086l.131-.126a12.055,12.055,0,0,0-1.09-1.872A18.87,18.87,0,0,0,1093.282,491.326Z"
      data-name="Path 23978"
      fill="#ffad43"
      id="Path_23978" transform="translate(-420.194 -139.519)"/>
    <g data-name="Group 38087" id="Group_38087" opacity="0.3" transform="translate(649.536 329.551)">
      <path
        d="M1170.762,517.4c-2.588.267-5.176.468-7.768.679l-3.884.281-3.884.229c-1.3.075-2.588.211-3.884.323a23.4,23.4,0,0,1-3.884,0,36.589,36.589,0,0,1-3.884-.5,22.807,22.807,0,0,1-3.884-1.029v-.342a22.82,22.82,0,0,1,3.884-1.034,39.155,39.155,0,0,1,3.884-.5,24.456,24.456,0,0,1,3.884,0c1.3.117,2.588.253,3.884.323l3.884.229,3.884.281c2.592.211,5.18.412,7.768.683Z"
        data-name="Path 23979"
        fill="#ffad43"
        id="Path_23979" transform="translate(-1099.53 -486.316)"/>
      <path
        d="M1103.942,453.22c1.02,2.4,1.975,4.81,2.934,7.225l1.4,3.631,1.362,3.65c.468,1.217.936,2.415,1.446,3.617a23.29,23.29,0,0,1,1.156,3.706,37.74,37.74,0,0,1,.664,3.861,22.839,22.839,0,0,1,.15,4.02l-.323.1a22.929,22.929,0,0,1-2.129-3.411,37.879,37.879,0,0,1-1.614-3.566,23.8,23.8,0,0,1-1.123-3.72c-.271-1.273-.52-2.55-.833-3.809l-.936-3.781-.87-3.8c-.562-2.536-1.128-5.073-1.628-7.628Z"
        data-name="Path 23980"
        fill="#ffad43"
        id="Path_23980" transform="translate(-1080.329 -453.22)"/>
      <path
        d="M1137.519,563.829c-1.015-2.4-1.97-4.815-2.929-7.23l-1.4-3.631-1.357-3.645c-.468-1.217-.936-2.415-1.451-3.617a24.629,24.629,0,0,1-1.156-3.706,37.8,37.8,0,0,1-.66-3.861,22.863,22.863,0,0,1-.154-4.02l.328-.1a22.9,22.9,0,0,1,2.125,3.411,37.48,37.48,0,0,1,1.619,3.566,23.826,23.826,0,0,1,1.123,3.744c.267,1.268.52,2.55.828,3.809l.936,3.781.87,3.8c.562,2.536,1.123,5.073,1.629,7.628Z"
        data-name="Path 23981"
        fill="#ffad43"
        id="Path_23981" transform="translate(-1093.513 -496.209)"/>
      <path
        d="M1144.908,458.819c-.973,2.415-2.007,4.8-3.037,7.183l-1.572,3.566-1.615,3.538c-.543,1.179-1.029,2.387-1.535,3.585a24.086,24.086,0,0,1-1.806,3.439,39.1,39.1,0,0,1-2.26,3.2,23.043,23.043,0,0,1-2.733,2.948l-.3-.159a22.949,22.949,0,0,1,.9-3.917,37.345,37.345,0,0,1,1.4-3.664,24.332,24.332,0,0,1,1.834-3.425c.711-1.09,1.437-2.171,2.106-3.276l2.026-3.323,2.068-3.3c1.4-2.19,2.808-4.385,4.24-6.551Z"
        data-name="Path 23982"
        fill="#ffad43"
        id="Path_23982" transform="translate(-1094.401 -456.114)"/>
      <path
        d="M1090.44,560.785c.978-2.415,2.012-4.8,3.042-7.183l1.572-3.566,1.615-3.538c.543-1.179,1.029-2.387,1.535-3.584a23.8,23.8,0,0,1,1.806-3.439,38.006,38.006,0,0,1,2.26-3.2A22.719,22.719,0,0,1,1105,533.33l.3.159a22.558,22.558,0,0,1-.908,3.917,37.347,37.347,0,0,1-1.4,3.664,23.422,23.422,0,0,1-1.834,3.425c-.707,1.09-1.432,2.167-2.106,3.276l-2.021,3.322-2.068,3.3c-1.4,2.19-2.808,4.385-4.244,6.551Z"
        data-name="Path 23983"
        fill="#ffad43"
        id="Path_23983" transform="translate(-1073.327 -495.842)"/>
      <path
        d="M1053.87,536.867c2.4-1.015,4.815-1.97,7.23-2.929l3.631-1.4,3.645-1.362c1.217-.468,2.415-.936,3.617-1.446a23.508,23.508,0,0,1,3.711-1.156,37.557,37.557,0,0,1,3.86-.664,22.782,22.782,0,0,1,4.015-.15l.1.323a22.679,22.679,0,0,1-3.411,2.129,37.36,37.36,0,0,1-3.566,1.614,23.424,23.424,0,0,1-3.715,1.123c-1.273.271-2.55.519-3.809.833l-3.781.936-3.8.875c-2.541.557-5.073,1.123-7.628,1.624Z"
        data-name="Path 23984"
        fill="#ffad43"
        id="Path_23984" transform="translate(-1053.87 -492.861)"/>
      <path
        d="M1161.432,544.236c-2.415-.973-4.8-2.007-7.183-3.037l-3.561-1.572-3.542-1.619c-1.175-.543-2.382-1.029-3.58-1.535a24.054,24.054,0,0,1-3.439-1.8,37.366,37.366,0,0,1-3.2-2.265,22.729,22.729,0,0,1-2.925-2.747l.159-.3a22.86,22.86,0,0,1,3.917.908,37.315,37.315,0,0,1,3.664,1.38,23.576,23.576,0,0,1,3.425,1.834c1.091.707,2.171,1.437,3.276,2.106l3.323,2.022,3.3,2.068c2.19,1.4,4.38,2.808,6.551,4.244Z"
        data-name="Path 23985"
        fill="#ffad43"
        id="Path_23985" transform="translate(-1096.503 -493.73)"/>
      <path
        d="M1059.471,489.79c2.415.973,4.8,2.008,7.183,3.037l3.561,1.572,3.538,1.619c1.179.543,2.387,1.029,3.584,1.535a24.032,24.032,0,0,1,3.439,1.8,36.615,36.615,0,0,1,3.2,2.265,22.676,22.676,0,0,1,2.948,2.728l-.159.3a23.256,23.256,0,0,1-3.912-.908,37.416,37.416,0,0,1-3.669-1.4,23.783,23.783,0,0,1-3.421-1.834c-1.09-.711-2.171-1.437-3.276-2.106l-3.327-2.022-3.276-2.068c-2.19-1.4-4.38-2.808-6.551-4.244Z"
        data-name="Path 23986"
        fill="#ffad43"
        id="Path_23986" transform="translate(-1056.775 -472.677)"/>
    </g>
    <path d="M687.782,631.515l-48.354,9.607L627.9,602.661a7.5,7.5,0,0,1,9.71-9.359l.777,6.64,6.626,34.713,42.5-7.9Z"
          data-name="Path 23987"
          fill="#355585"
          id="Path_23987" transform="translate(-177.481 -197.961)"/>
    <path
      d="M623.063,564.857c0-.445-1.221-18.536,1.671-21.914.037-.1.056-.164.056-.164v.08h0v-.08c-.262-1.006-.342-1.994-.6-2.981a7.826,7.826,0,0,0-.73-2.424c-.215-.337,0-.543-.122-.814a5.105,5.105,0,0,1-.356-.936,3.835,3.835,0,0,0-2.129-2.228c-.183-.094-.337-.22-.51-.328l-.248-.271c-.407-.894-1.366-2.475.042-3.5a6.869,6.869,0,0,1,4.347-.861c1.624.515,3.117,1.02,4.68,1.586a15.055,15.055,0,0,1,2.887,2.738,23.863,23.863,0,0,1,3.964,7.08c.14.393.271.468.716.309,1.32-.407,3.205-.87,5.049-1.287a11.7,11.7,0,0,1,10.576,2.878l1.067,1a11.7,11.7,0,0,1,3.636,9.743l-.6,5.728a11.7,11.7,0,0,1-5.227,8.587c-1.657,1.081-3.173,2.054-3.388,2.129h0a45.78,45.78,0,0,1-9.237,2.653c-2.452.2-5.672-3.112-9.359-1.474C629.328,570.023,623.063,568.788,623.063,564.857Z"
      data-name="Path 23988"
      fill="#355585"
      id="Path_23988" transform="translate(-173.174 -163.672)"/>
  </g>
</svg>
