<svg height="11.004" viewBox="0 0 19.086 11.004" width="19.086" xmlns="http://www.w3.org/2000/svg">
  <defs>
    <style>.a {
      fill: #b7b7b7;
      stroke: rgba(0, 0, 0, 0);
    }</style>
  </defs>
  <g transform="translate(-631.457 -791.496)">
    <path class="a"
          d="M24809,22265c-4.678,0-8.447-4.15-8.861-4.625a.576.576,0,0,1,0-.744,16.588,16.588,0,0,1,2.678-2.387,9.639,9.639,0,0,1,12.375,0,16.547,16.547,0,0,1,2.68,2.387.578.578,0,0,1,0,.742C24817.453,22260.848,24813.678,22265,24809,22265Zm0-8.889a3.895,3.895,0,1,0,3.693,3.887A3.795,3.795,0,0,0,24809,22256.111Zm0,6.635a2.757,2.757,0,0,1,0-5.508,2.578,2.578,0,0,1,1.2.307,1.671,1.671,0,0,0-.666,1.346,1.606,1.606,0,0,0,1.563,1.645,1.548,1.548,0,0,0,.5-.082A2.66,2.66,0,0,1,24809,22262.746Z"
          transform="translate(-24168 -21463)"/>
  </g>
</svg>
