<svg height="86" viewBox="0 0 265.484 86" width="265.484" xmlns="http://www.w3.org/2000/svg"
     xmlns:xlink="http://www.w3.org/1999/xlink">
  <defs>
    <linearGradient gradientUnits="objectBoundingBox" id="linear-gradient" x1="0.5" x2="0.5" y2="1">
      <stop offset="0" stop-color="#5673aa"/>
      <stop offset="1" stop-color="#2f3e5c"/>
    </linearGradient>
    <linearGradient id="linear-gradient-2" x2="0.146" xlink:href="#linear-gradient" y2="1.106"/>
  </defs>
  <g data-name="Group 41950" id="Group_41950" transform="translate(24662 9998)">
    <g data-name="Group 40346" id="Group_40346" transform="translate(-24571.654 -9967.531)">
      <path
        d="M42.4,25.006a32.214,32.214,0,0,1-10.429-1.659,19.568,19.568,0,0,1-7.613-4.366l1.408-2.27a23.514,23.514,0,0,0,7.261,4.1,26.832,26.832,0,0,0,9.461,1.659q7.393,0,10.913-2.488a8.022,8.022,0,0,0,3.52-6.941A6.608,6.608,0,0,0,55.03,8.067a11.556,11.556,0,0,0-4.708-2.707,68.341,68.341,0,0,0-7.569-1.746,71.678,71.678,0,0,1-8.845-2.139A13.189,13.189,0,0,1,28.32-2.061a9.579,9.579,0,0,1-2.288-6.81,10.632,10.632,0,0,1,4.268-8.6q4.268-3.449,12.453-3.449A29.3,29.3,0,0,1,51.2-19.654a20.347,20.347,0,0,1,6.865,3.361l-1.5,2.27a19.548,19.548,0,0,0-6.381-3.187A26.141,26.141,0,0,0,42.665-18.3q-6.777,0-10.209,2.576a8.065,8.065,0,0,0-3.432,6.767A7.047,7.047,0,0,0,30.961-3.72a11.794,11.794,0,0,0,4.8,2.838A71.486,71.486,0,0,0,43.546,1a63.493,63.493,0,0,1,8.537,2.052,13.287,13.287,0,0,1,5.5,3.449,9.113,9.113,0,0,1,2.244,6.548,10.21,10.21,0,0,1-4.488,8.731Q50.85,25.006,42.4,25.006Zm41.363,0a32.214,32.214,0,0,1-10.429-1.659,19.568,19.568,0,0,1-7.613-4.366l1.408-2.27a23.514,23.514,0,0,0,7.261,4.1,26.832,26.832,0,0,0,9.461,1.659q7.393,0,10.913-2.488a8.022,8.022,0,0,0,3.52-6.941,6.608,6.608,0,0,0-1.892-4.977,11.556,11.556,0,0,0-4.708-2.707,68.338,68.338,0,0,0-7.569-1.746,71.678,71.678,0,0,1-8.845-2.139,13.189,13.189,0,0,1-5.588-3.536A9.579,9.579,0,0,1,67.4-8.871a10.632,10.632,0,0,1,4.268-8.6q4.268-3.449,12.453-3.449a29.3,29.3,0,0,1,8.449,1.266,20.347,20.347,0,0,1,6.865,3.361l-1.5,2.27a19.548,19.548,0,0,0-6.381-3.187A26.141,26.141,0,0,0,84.029-18.3q-6.777,0-10.209,2.576a8.065,8.065,0,0,0-3.432,6.767A7.047,7.047,0,0,0,72.324-3.72a11.794,11.794,0,0,0,4.8,2.838A71.488,71.488,0,0,0,84.909,1a63.49,63.49,0,0,1,8.537,2.052,13.286,13.286,0,0,1,5.5,3.449,9.113,9.113,0,0,1,2.244,6.548A10.21,10.21,0,0,1,96.7,21.775Q92.213,25.006,83.765,25.006Zm63.805,0a32.214,32.214,0,0,1-10.429-1.659,19.568,19.568,0,0,1-7.613-4.366l1.408-2.27a23.515,23.515,0,0,0,7.261,4.1,26.833,26.833,0,0,0,9.461,1.659q7.393,0,10.913-2.488a8.022,8.022,0,0,0,3.52-6.941A6.608,6.608,0,0,0,160.2,8.067a11.556,11.556,0,0,0-4.708-2.707,68.339,68.339,0,0,0-7.569-1.746,71.678,71.678,0,0,1-8.845-2.139,13.189,13.189,0,0,1-5.588-3.536,9.579,9.579,0,0,1-2.288-6.81,10.632,10.632,0,0,1,4.268-8.6q4.268-3.449,12.453-3.449a29.3,29.3,0,0,1,8.449,1.266,20.347,20.347,0,0,1,6.865,3.361l-1.5,2.27a19.548,19.548,0,0,0-6.381-3.187,26.141,26.141,0,0,0-7.525-1.091q-6.776,0-10.209,2.576a8.065,8.065,0,0,0-3.432,6.767,7.047,7.047,0,0,0,1.936,5.239,11.8,11.8,0,0,0,4.8,2.838A71.487,71.487,0,0,0,148.714,1a63.493,63.493,0,0,1,8.537,2.052,13.286,13.286,0,0,1,5.5,3.449A9.113,9.113,0,0,1,165,13.044a10.21,10.21,0,0,1-4.488,8.731Q156.019,25.006,147.57,25.006Z"
        data-name="Path 11614"
        fill="#b7b7b7"
        id="Path_11614" transform="translate(-24.36 30.525)"/>
      <path
        d="M96.651-15.366h2.9V29.948h-2.9Zm85.367,42.433a10.917,10.917,0,0,1-4.048,2.314,15.893,15.893,0,0,1-5.1.829q-5.544,0-8.581-3.1T161.249,18.6V-12.834h-8.625v-2.532h8.625V-25.32h2.9v9.954H179.2v2.532H164.153v31q0,4.628,2.288,7.072t6.688,2.445a10.614,10.614,0,0,0,7.393-2.707Z"
        data-name="Path 11615"
        fill="#b7b7b7"
        id="Path_11615" transform="translate(-6.88 25.32)"/>
    </g>
    <g data-name="Group 40345" id="Group_40345" transform="translate(-24662 -9998)">
      <path
        d="M2257.406,1198.075a15.68,15.68,0,0,0-21.387-5.635l-49.527,28.665h31.558l12.623-7.307a8.482,8.482,0,0,1,11.569,3.048l2.48,4.259h26.084Z"
        data-name="Path 11665"
        fill="url(#linear-gradient)"
        id="Path_11665" transform="translate(-2186.493 -1135.532)"/>
      <path d="M2217.24,1205.716c15.773-9.129,23.735,0,31.641,15.389h26.086l-13.4-23.03a15.68,15.68,0,0,0-21.387-5.635Z"
            data-name="Path 11666"
            fill="#5673aa"
            id="Path_11666" transform="translate(-2190.655 -1135.532)"/>
      <path
        d="M2240.864,1165.813c.151-.206.292-.419.433-.633.119-.182.243-.36.355-.546.12-.2.225-.409.336-.614a14.95,14.95,0,0,0,.674-1.411c.048-.118.1-.233.15-.351.112-.288.205-.582.3-.876.043-.133.088-.263.126-.4.089-.3.163-.61.232-.919.027-.123.055-.245.079-.368.065-.325.119-.651.164-.979.013-.1.022-.2.035-.295.04-.357.072-.712.087-1.072,0-.038,0-.078,0-.117a15.29,15.29,0,0,0-.656-5.015h0a15.4,15.4,0,0,0-1.412-3.265l-13.091-22.5-32.581,55.985h0l-4.078,7.009-1.421,2.441,0-.006-3.979,6.836,49.491-28.645c.434-.251.849-.523,1.25-.808.133-.095.256-.2.385-.3.259-.2.515-.4.759-.608.146-.126.284-.257.425-.388.21-.2.416-.4.614-.6.142-.148.279-.3.413-.448.18-.2.352-.408.518-.619C2240.608,1166.145,2240.74,1165.982,2240.864,1165.813Z"
        data-name="Path 11667"
        fill="url(#linear-gradient-2)"
        id="Path_11667" transform="translate(-2186.512 -1126.458)"/>
    </g>
    <path
      d="M-28.171-6.875H-35.84v-6.846h24.167v6.846h-7.669V12.466h-8.829ZM.9,5.882H-1.5v6.584h-8.829V-13.721H2.282a15.458,15.458,0,0,1,6.322,1.2,9.316,9.316,0,0,1,4.153,3.442,9.394,9.394,0,0,1,1.459,5.238,9.257,9.257,0,0,1-1.272,4.9,8.982,8.982,0,0,1-3.666,3.33l5.5,8.081H5.349ZM5.312-3.845a2.881,2.881,0,0,0-.9-2.263,3.928,3.928,0,0,0-2.694-.8H-1.5V-.777H1.721a3.928,3.928,0,0,0,2.694-.8A2.881,2.881,0,0,0,5.312-3.845Zm23.831,16.91q-6.023,0-9.39-3.255T16.386.682v-14.4h8.829V.42a6.8,6.8,0,0,0,1.029,4.19,3.557,3.557,0,0,0,2.974,1.309A3.557,3.557,0,0,0,32.192,4.61,6.8,6.8,0,0,0,33.22.42V-13.721H41.9V.682q0,5.874-3.367,9.128T29.143,13.065Zm29.4,0a15.912,15.912,0,0,1-7.482-1.74,13.005,13.005,0,0,1-5.219-4.863A13.427,13.427,0,0,1,43.957-.628a13.427,13.427,0,0,1,1.889-7.089,13.005,13.005,0,0,1,5.219-4.863,15.912,15.912,0,0,1,7.482-1.74,16.426,16.426,0,0,1,6.809,1.347,12.638,12.638,0,0,1,4.938,3.891L64.72-4.107A7.151,7.151,0,0,0,59-7.175,5.847,5.847,0,0,0,54.545-5.4a6.651,6.651,0,0,0-1.683,4.77,6.651,6.651,0,0,0,1.683,4.77A5.847,5.847,0,0,0,59,5.919,7.151,7.151,0,0,0,64.72,2.852l5.574,4.976a12.638,12.638,0,0,1-4.938,3.891A16.425,16.425,0,0,1,58.548,13.065ZM82.565,3.787,80.583,5.994v6.472H71.9V-13.721h8.679v9.5l8.6-9.5H98.8L88.327-2.2l11,14.665H89.112Z"
      data-name="Path 20841"
      fill="#5673aa"
      id="Path_20841" transform="translate(-24560.459 -9978.667)"/>
  </g>
</svg>
