<svg height="355.251" viewBox="0 0 446.829 355.251" width="446.829" xmlns="http://www.w3.org/2000/svg">
  <g data-name="Artboard 8" id="Artboard_8" transform="translate(-65.587 -55.975)">
    <path
      d="M600.111,436.81a6.522,6.522,0,0,1-.724-.039L439.947,418.942a6.477,6.477,0,0,1-5.7-7.136l23.471-209.879a6.474,6.474,0,0,1,7.136-5.7l159.439,17.829a6.477,6.477,0,0,1,5.7,7.136L606.523,431.072a6.477,6.477,0,0,1-6.408,5.738ZM464.131,197.492a4.921,4.921,0,0,0-4.867,4.358L435.786,411.729a4.917,4.917,0,0,0,4.327,5.414l159.439,17.829a4.917,4.917,0,0,0,5.418-4.323L628.44,220.777a4.921,4.921,0,0,0-4.343-5.425l-159.42-17.829A5.156,5.156,0,0,0,464.131,197.492Z"
      data-name="Path 20781"
      fill="#344566"
      id="Path_20781" transform="translate(-266.895 -118.366)"/>
    <path
      d="M559.223,424.391,404.8,380.883a5.7,5.7,0,0,1-3.927-7.005l57.272-203.27a5.7,5.7,0,0,1,7-3.938l154.422,43.5a5.7,5.7,0,0,1,3.95,7.021l-57.287,203.27A5.7,5.7,0,0,1,559.223,424.391Z"
      data-name="Path 20782"
      fill="#ffc57b"
      id="Path_20782" transform="translate(-246.276 -100.094)"/>
    <path
      d="M713.23,303.354l-74.97-21.12a4.215,4.215,0,0,1-2.905-5.179h0a4.212,4.212,0,0,1,5.163-2.905l74.986,21.12a4.212,4.212,0,0,1,2.905,5.179h0a4.212,4.212,0,0,1-5.179,2.905Z"
      data-name="Path 20783"
      fill="#b3cef6"
      id="Path_20783" transform="translate(-390.437 -166.193)"/>
    <path
      d="M683.211,360.763,565.118,327.474a4.212,4.212,0,0,1-2.906-5.179h0a4.216,4.216,0,0,1,5.179-2.9l118.093,33.277a4.212,4.212,0,0,1,2.905,5.179h0A4.212,4.212,0,0,1,683.211,360.763Z"
      data-name="Path 20784"
      fill="#ffad43"
      id="Path_20784" transform="translate(-345.479 -194.001)"/>
    <path
      d="M669.591,409.085,551.5,375.816a4.212,4.212,0,0,1-2.905-5.179h0a4.212,4.212,0,0,1,5.179-2.886L671.864,401a4.215,4.215,0,0,1,2.905,5.179h0A4.215,4.215,0,0,1,669.591,409.085Z"
      data-name="Path 20785"
      fill="#ffad43"
      id="Path_20785" transform="translate(-337.107 -223.723)"/>
    <path
      d="M655.981,457.377l-118.093-33.27a4.212,4.212,0,0,1-2.905-5.179h0a4.212,4.212,0,0,1,5.179-2.905l118.093,33.27a4.216,4.216,0,0,1,2.9,5.179h0A4.212,4.212,0,0,1,655.981,457.377Z"
      data-name="Path 20786"
      fill="#ffad43"
      id="Path_20786" transform="translate(-328.742 -253.396)"/>
    <path
      d="M642.371,505.692,524.278,472.419a4.212,4.212,0,0,1-2.905-5.179h0a4.216,4.216,0,0,1,5.179-2.905l118.093,33.273a4.212,4.212,0,0,1,2.905,5.179h0A4.212,4.212,0,0,1,642.371,505.692Z"
      data-name="Path 20787"
      fill="#ffad43"
      id="Path_20787" transform="translate(-320.376 -283.092)"/>
    <path
      d="M628.748,554.007l-118.085-33.27a4.212,4.212,0,0,1-2.909-5.179h0a4.211,4.211,0,0,1,5.179-2.905l118.093,33.27a4.216,4.216,0,0,1,2.905,5.179h0a4.215,4.215,0,0,1-5.183,2.905Z"
      data-name="Path 20788"
      fill="#ffad43"
      id="Path_20788" transform="translate(-312.005 -312.791)"/>
    <path
      d="M615.141,602.327,497.048,569.053a4.208,4.208,0,0,1-2.905-5.175h0a4.212,4.212,0,0,1,5.179-2.905l118.093,33.27a4.215,4.215,0,0,1,2.905,5.179h0A4.215,4.215,0,0,1,615.141,602.327Z"
      data-name="Path 20789"
      fill="#ffad43"
      id="Path_20789" transform="translate(-303.639 -342.492)"/>
    <path
      d="M601.532,650.638,483.44,617.369a4.216,4.216,0,0,1-2.905-5.179h0a4.216,4.216,0,0,1,5.179-2.905l118.093,33.273a4.212,4.212,0,0,1,2.905,5.179h0A4.216,4.216,0,0,1,601.532,650.638Z"
      data-name="Path 20790"
      fill="#b3cef6"
      id="Path_20790" transform="translate(-295.274 -372.188)"/>
    <path
      d="M587.921,698.957,469.828,665.683a4.208,4.208,0,0,1-2.905-5.175h0A4.212,4.212,0,0,1,472.1,657.6l118.093,33.27a4.216,4.216,0,0,1,2.905,5.179h0A4.212,4.212,0,0,1,587.921,698.957Z"
      data-name="Path 20791"
      fill="#ffad43"
      id="Path_20791" transform="translate(-286.908 -401.887)"/>
    <path
      d="M528.978,163.158,399.441,149.671a9.248,9.248,0,0,0-10.146,8.231h0L368.121,360.983a9.248,9.248,0,0,0,8.227,10.146h0l157.52,16.419a9.248,9.248,0,0,0,10.142-8.231L562.251,204.2Z"
      data-name="Path 20792"
      fill="#6c6c6c"
      id="Path_20792" opacity="0.25" transform="translate(-226.242 -89.742)"/>
    <path
      d="M515.838,153.027,386.3,139.541a9.248,9.248,0,0,0-10.146,8.215l-21.17,203.093a9.248,9.248,0,0,0,8.227,10.142h0l157.524,16.446a9.248,9.248,0,0,0,10.142-8.227h0l18.253-175.141ZM526.7,353.886l.563,4.381-3.726-1.464L520,363.712l-2.732-8.13L508.1,359.2l4.647-6.377-8.477-3.025,12.1-4.239,3.726-11.741,2.747,9.6,6.832-2.7Z"
      data-name="Path 20793"
      fill="#f9f9f9"
      id="Path_20793" transform="translate(-218.166 -83.516)"/>
    <path d="M764.862,202.6a9.248,9.248,0,0,0,8.227,10.142h0l27.983,2.917-33.3-41.042Z" data-name="Path 20794"
          fill="#ededed"
          id="Path_20794" transform="translate(-470.106 -105.108)"/>
    <path d="M782.54,272.89l28.938,7.892.489-4.709Z" data-name="Path 20795" fill="#cecece"
          id="Path_20795" transform="translate(-481.002 -165.512)"/>
    <path
      d="M599.461,262.337l-79.217-8.254a3.911,3.911,0,0,1-3.468-4.289h0a3.911,3.911,0,0,1,4.289-3.468l79.209,8.246a3.911,3.911,0,0,1,3.468,4.289h0A3.907,3.907,0,0,1,599.461,262.337Z"
      data-name="Path 20796"
      fill="#24c1a1"
      id="Path_20796" transform="translate(-317.633 -149.171)"/>
    <path
      d="M576.934,329.143,445.975,315.49a3.911,3.911,0,0,1-3.468-4.285h0a3.915,3.915,0,0,1,4.289-3.468l130.947,13.637a3.915,3.915,0,0,1,3.468,4.289h0A3.915,3.915,0,0,1,576.934,329.143Z"
      data-name="Path 20797"
      fill="#eee"
      id="Path_20797" transform="translate(-271.983 -186.919)"/>
    <path
      d="M571.583,380.442,440.624,366.793a3.907,3.907,0,0,1-3.468-4.289h0a3.907,3.907,0,0,1,4.285-3.468L572.4,372.685a3.911,3.911,0,0,1,3.468,4.289h0A3.907,3.907,0,0,1,571.583,380.442Z"
      data-name="Path 20798"
      fill="#eee"
      id="Path_20798" transform="translate(-268.693 -218.45)"/>
    <path
      d="M566.244,431.753,435.285,418.1a3.911,3.911,0,0,1-3.468-4.289h0a3.911,3.911,0,0,1,4.285-3.468L567.06,424a3.911,3.911,0,0,1,3.468,4.285h0A3.911,3.911,0,0,1,566.244,431.753Z"
      data-name="Path 20799"
      fill="#eee"
      id="Path_20799" transform="translate(-265.411 -249.99)"/>
    <path
      d="M560.894,483.056,429.935,469.4a3.911,3.911,0,0,1-3.468-4.289h0a3.915,3.915,0,0,1,4.289-3.468L561.714,475.3a3.915,3.915,0,0,1,3.468,4.289h0a3.915,3.915,0,0,1-4.289,3.468Z"
      data-name="Path 20800"
      fill="#eee"
      id="Path_20800" transform="translate(-262.123 -281.522)"/>
    <path
      d="M555.54,534.373,424.585,520.72a3.907,3.907,0,0,1-3.468-4.285h0a3.911,3.911,0,0,1,4.285-3.468l130.959,13.648a3.915,3.915,0,0,1,3.468,4.289h0A3.915,3.915,0,0,1,555.54,534.373Z"
      data-name="Path 20801"
      fill="#eee"
      id="Path_20801" transform="translate(-258.834 -313.067)"/>
    <path
      d="M550.194,585.666,419.235,572.014a3.911,3.911,0,0,1-3.468-4.289h0a3.911,3.911,0,0,1,4.285-3.468L551.01,577.91a3.911,3.911,0,0,1,3.468,4.285h0A3.915,3.915,0,0,1,550.194,585.666Z"
      data-name="Path 20802"
      fill="#eee"
      id="Path_20802" transform="translate(-255.546 -344.593)"/>
    <path
      d="M594,657.615c1.156-.882.385.794-.035,1.2a5.005,5.005,0,0,1-.855.674,4.049,4.049,0,0,1,.89-1.869Zm9.591-2.069a10.791,10.791,0,0,1,1.973-3.349,21.532,21.532,0,0,1,2.628-2.9,28.167,28.167,0,0,1-4.693,6.774,4.817,4.817,0,0,1,.089-.524Z"
      data-name="Path 20803"
      fill="#eee"
      id="Path_20803" transform="translate(-364.566 -396.879)"/>
    <path d="M757.521,651.74l63.322,74.673.482,3.923L748.03,656.915Z" data-name="Path 20804" fill="#355585"
          id="Path_20804" transform="translate(-459.79 -398.379)"/>
    <path
      d="M908.06,794.1s14.257,1.838,20.48-5.51,7.2-16.8,2.127-21.1-14.257-1.838-20.48,5.506S908.06,794.1,908.06,794.1Z"
      data-name="Path 20805"
      fill="#5673a8"
      id="Path_20805" transform="translate(-557.342 -468.228)"/>
    <ellipse cx="9.629" cy="16.854" data-name="Ellipse 3327" fill="#5673a8" id="Ellipse_3327" rx="9.629"
             ry="16.854" transform="matrix(0.993, -0.122, 0.122, 0.993, 358.702, 318.44)"/>
    <path
      d="M954.6,898.143c-4.955,4.431-1.788,16.061,7.075,25.975s31.046,3.826,31.046,3.826a80.886,80.886,0,0,0-13.1-19.872C970.756,898.158,959.554,893.711,954.6,898.143Z"
      data-name="Path 20806"
      fill="#5673a8"
      id="Path_20806" transform="translate(-585.32 -548.779)"/>
    <path
      d="M907.917,795.47a35.777,35.777,0,0,0,1.156,12.9s14.257,1.838,20.48-5.51a23.808,23.808,0,0,0,4.285-7.321,21.976,21.976,0,0,1-5.279,11.533c-6.242,7.348-20.48,5.51-20.48,5.51S905.169,802.926,907.917,795.47Z"
      data-name="Path 20807"
      fill="#355585"
      id="Path_20807" transform="translate(-557.342 -486.725)"/>
    <path
      d="M937.958,828.59a26.97,26.97,0,0,0-.274,8.574c1.133,9.248,6.331,16.184,11.614,15.556,2.212-.27,4.081-1.85,5.429-4.239-1.048,5.171-3.711,8.893-7.237,9.329-5.279.647-10.477-6.32-11.61-15.56C935.222,836.867,936.089,831.927,937.958,828.59Z"
      data-name="Path 20808"
      fill="#355585"
      id="Path_20808" transform="translate(-575.121 -507.083)"/>
    <path
      d="M954.11,902.33c-.243,5.568,3.156,13.375,9.387,20.346,6.551,7.321,20.369,5.911,27.139,4.674,1.4,2.586,2.1,4.239,2.1,4.239s-22.183,6.088-31.046-3.826C953.174,918.213,949.941,907.112,954.11,902.33Z"
      data-name="Path 20809"
      fill="#355585"
      id="Path_20809" transform="translate(-585.347 -552.408)"/>
    <path
      d="M955.5,720.306s-3.329-29.594,2.177-35.5,18.754-8.281,20.573.039-2.123,4.624-2.543,3.518,1.414-3.083,1.414-3.083-.975-6.061-8.165-4.666-10.15,3.788-11.56,6.886-1.969,21.494-1.711,22.58.948,9.826.948,9.826S955.919,721.435,955.5,720.306Z"
      data-name="Path 20810"
      fill="#355585"
      id="Path_20810" transform="translate(-586.701 -415.411)"/>
    <path
      d="M919.646,699.808s-13.872-37.223-7.252-43.543,13.1-6.165,14.377-2.794.69,8.739-1.279,6.905.289-2.678.289-2.678,2.539-3.518-2.813-4.092-9.865,1.11-10.439,6.462-.574,5.356.385,11.417,7.861,27.9,7.861,27.9S921.2,700.513,919.646,699.808Z"
      data-name="Path 20811"
      fill="#355585"
      id="Path_20811" transform="translate(-559.719 -398.026)"/>
    <path
      d="M990.732,847.091l-7.861,20.561c0,.15,7.321,2.235,7.256,2.42-2.166,5.306,9.071-29.031,9.071-29.031l-29.027-6.651-.921,2.99Z"
      data-name="Path 20812"
      fill="#355585"
      id="Path_20812" transform="translate(-595.767 -510.648)"/>
    <path d="M974.932,952.7c-.042.042-.073.089-.115.131h-.027Z" data-name="Path 20813" fill="#355585"
          id="Path_20813" transform="translate(-599.172 -583.369)"/>
    <path d="M914.824,993.424H908L918.62,961.9l11.6-10.5c.212-.177,1,.162,1.291,0L921.2,963.4Z" data-name="Path 20814"
          fill="#355585"
          id="Path_20814" transform="translate(-558.119 -582.535)"/>
    <path d="M1016.968,991.112h7.564l-11.8-32.607-12.889-10.87c-.235-.181-1.106.17-1.433,0l11.46,12.439Z"
          data-name="Path 20815"
          fill="#355585"
          id="Path_20815" transform="translate(-613.691 -580.223)"/>
    <path
      d="M955.5,720.306s-3.329-29.594,2.177-35.5,18.754-8.281,20.573.039-2.123,4.624-2.543,3.518,1.414-3.083,1.414-3.083-.975-6.061-8.165-4.666-10.15,3.788-11.56,6.886-1.969,21.494-1.711,22.58.948,9.826.948,9.826S955.919,721.435,955.5,720.306Z"
      data-name="Path 20816"
      fill="#355585"
      id="Path_20816" transform="translate(-586.701 -415.411)"/>
    <path
      d="M919.646,699.808s-13.872-37.223-7.252-43.543,13.1-6.165,14.377-2.794.69,8.739-1.279,6.905.289-2.678.289-2.678,2.539-3.518-2.813-4.092-9.865,1.11-10.439,6.462-.574,5.356.385,11.417,7.861,27.9,7.861,27.9S921.2,700.513,919.646,699.808Z"
      data-name="Path 20817"
      fill="#355585"
      id="Path_20817" transform="translate(-559.719 -398.026)"/>
    <line data-name="Line 2984" fill="none" id="Line_2984" stroke="#b5b5b5" stroke-miterlimit="10"
          stroke-width="2" transform="translate(347.801 410.226)" x2="67.129"/>
    <path
      d="M1049.73,451.86l9.576-.975-9.421-.609a2.1,2.1,0,0,1-1.692-1.618l-1.414-15.3-1.487,15.66a2.108,2.108,0,0,1-1.541,1.584l-9.51.929,9.444.59a2.1,2.1,0,0,1,1.711,1.634l1.368,15.305,1.433-15.6A2.1,2.1,0,0,1,1049.73,451.86Z"
      data-name="Path 20818"
      fill="#e5e5e5"
      id="Path_20818" transform="translate(-635.714 -264.147)"/>
    <path
      d="M255.222,362.893l14.866-1.51-14.623-.948a3.256,3.256,0,0,1-2.628-2.509l-2.193-23.756-2.312,24.3a3.252,3.252,0,0,1-2.37,2.458L231.2,362.369l14.666.913a3.264,3.264,0,0,1,2.655,2.535l2.123,23.775,2.223-24.21a3.244,3.244,0,0,1,2.354-2.489Z"
      data-name="Path 20819"
      fill="#e5e5e5"
      id="Path_20819" transform="translate(-142.111 -203.178)"/>
    <path
      d="M621.919,847.962l9.822-1-9.66-.624a2.146,2.146,0,0,1-1.734-1.661L618.9,829l-1.541,16.045a2.146,2.146,0,0,1-1.564,1.622l-9.753.956,9.687.6a2.15,2.15,0,0,1,1.753,1.672l1.418,15.706,1.468-15.991A2.147,2.147,0,0,1,621.919,847.962Z"
      data-name="Path 20820"
      fill="#e5e5e5"
      id="Path_20820" transform="translate(-372.513 -507.335)"/>
    <path
      d="M654.819,931.064l4.924-.5-4.844-.312a1.079,1.079,0,0,1-.871-.832l-.728-7.869-.771,8.05a1.071,1.071,0,0,1-.771.813l-4.89.478,4.855.3a1.075,1.075,0,0,1,.879.84l.705,7.869.736-8.019a1.083,1.083,0,0,1,.774-.821Z"
      data-name="Path 20821"
      fill="#e5e5e5"
      id="Path_20821" transform="translate(-397.61 -564.222)"/>
    <path
      d="M704.169,538.121s6.05-19.355,14.515-21.17,8.662,6.867,3.63,13.91c-12.1,16.935-13.652,33.42-12.569,37.878s-9.506,5.175-9.506,5.175-4.955,4.586-9.387-1.322c-1.815-2.42-.605,1.815-5.441,1.815s-19.355-12.1-13.911-27.216c5.133-14.257,10.886-19.96,19.956-19.96S704.169,538.121,704.169,538.121Z"
      data-name="Path 20822"
      fill="#355585"
      id="Path_20822" transform="translate(-412.01 -315.378)"/>
    <path
      d="M701.406,549.708c-2.035-2.8-5.256-5.688-9.93-5.688-9.071,0-14.824,5.7-19.956,19.96-5.445,15.12,9.071,27.216,13.911,27.216,3.853,0,3.853-2.674,4.624-2.555a75.8,75.8,0,0,1,5.526-7.094c.721-.852,5.117-6.608,6.081-9.213a31.076,31.076,0,0,0,1.3-16.215C702.616,555.426,701.472,549.9,701.406,549.708Z"
      data-name="Path 20823"
      fill="#5673a8"
      id="Path_20823" transform="translate(-412.022 -332.167)"/>
    <path
      d="M773.743,536.344c5.927-3.356,11.375-10.065,10.577-17.236a13.386,13.386,0,0,0-.247-1.437c-1.156-.9-2.875-1.229-5.279-.717-3.807.817-7.125,5.183-9.633,9.737-.2,2.431-.909,4.805-1.071,7.252v.2c.2.771.385,1.541.551,2.312C769.628,537.781,771.724,537.489,773.743,536.344Z"
      data-name="Path 20824"
      fill="#5673a8"
      id="Path_20824" transform="translate(-472.12 -315.381)"/>
    <path
      d="M754,622.69l-1.125,10.789.844-2.659,2.747,9.6,6.832-2.7-2.982,13.155.563,4.381-3.726-1.464-3.533,6.909-2.732-8.13a9.248,9.248,0,0,1-10.146,8.231l-5.738-.59a39.893,39.893,0,0,0,2.508,12.45l16.839,1.776a9.248,9.248,0,0,0,10.142-8.227h0l3.9-37.377A68.111,68.111,0,0,0,754,622.69Z"
      data-name="Path 20825"
      fill="#fff"
      id="Path_20825" transform="translate(-451.781 -380.523)"/>
    <circle cx="0.963" cy="0.963" data-name="Ellipse 3328" fill="#355585" id="Ellipse_3328"
            r="0.963" transform="translate(354.925 305.088)"/>
    <circle cx="0.963" cy="0.963" data-name="Ellipse 3329" fill="#355585" id="Ellipse_3329"
            r="0.963" transform="translate(363.017 308.556)"/>
    <path d="M745.186,693.13l-4.647,6.377-7.448-2.2Z" data-name="Path 20826" fill="#dadada"
          id="Path_20826" transform="translate(-450.607 -423.82)"/>
    <path d="M775.525,700.28l-.435,8.362,3.167-.231Z" data-name="Path 20827" fill="#dadada"
          id="Path_20827" transform="translate(-476.423 -428.215)"/>
    <path d="M790.7,657.823l4-6.844,2.828,4.146Z" data-name="Path 20828" fill="#dadada"
          id="Path_20828" transform="translate(-486.018 -397.911)"/>
    <path d="M800.69,674.9l11.375-4.562-8.393-8.593Z" data-name="Path 20829" fill="#dadada"
          id="Path_20829" transform="translate(-492.158 -404.525)"/>
    <path d="M792.48,703.45l1.391,10.608,2.335-9.144Z" data-name="Path 20830" fill="#dadada"
          id="Path_20830" transform="translate(-487.112 -430.163)"/>
    <path d="M730.573,685.28l-7.483,2.582,8.092,1.156-4.239,3.468,12.1-4.181Z" data-name="Path 20831" fill="#dadada"
          id="Path_20831" transform="translate(-444.46 -418.995)"/>
    <path d="M1191.568,814.67a1.579,1.579,0,0,0,0,3.156A1.579,1.579,0,0,0,1191.568,814.67Z" data-name="Path 20832"
          fill="#f3f3f3"
          id="Path_20832" transform="translate(-731.482 -498.526)"/>
    <circle cx="3.468" cy="3.468" data-name="Ellipse 3330" fill="#e5e5e5" id="Ellipse_3330"
            r="3.468" transform="translate(431.221 288.519)"/>
    <circle cx="1.734" cy="1.734" data-name="Ellipse 3331" fill="#f3f3f3" id="Ellipse_3331"
            r="1.734" transform="translate(429.295 302.391)"/>
    <path d="M216.427,707.17c2.123-3.221-2.882-6.527-5.009-3.3S214.3,710.4,216.427,707.17Z" data-name="Path 20833"
          fill="#f3f3f3"
          id="Path_20833" transform="translate(-129.635 -429.609)"/>
    <circle cx="6.589" cy="6.589" data-name="Ellipse 3332" fill="#e5e5e5" id="Ellipse_3332"
            r="6.589" transform="translate(129.695 92.52)"/>
    <circle cx="3.295" cy="3.295" data-name="Ellipse 3333" fill="#e5e5e5" id="Ellipse_3333"
            r="3.295" transform="translate(94.437 127.408)"/>
    <path d="M347,733.6c-2.266,2.848,2.158,6.377,4.431,3.526S349.256,730.749,347,733.6Z" data-name="Path 20834"
          fill="#e5e5e5"
          id="Path_20834" transform="translate(-212.903 -448.049)"/>
    <circle cx="6.219" cy="6.219" data-name="Ellipse 3334" fill="#f3f3f3" id="Ellipse_3334"
            r="6.219" transform="translate(65.587 288.014)"/>
    <circle cx="3.11" cy="3.11" data-name="Ellipse 3335" fill="#e5e5e5" id="Ellipse_3335" r="3.11"
            transform="translate(81.64 309.816)"/>
    <path d="M1298.314,619.24c-10.019,0-10.019,15.552,0,15.552S1308.336,619.24,1298.314,619.24Z" data-name="Path 20835"
          fill="#e5e5e5"
          id="Path_20835" transform="translate(-793.413 -378.402)"/>
    <circle cx="17.089" cy="17.089" data-name="Ellipse 3336" fill="#f3f3f3" id="Ellipse_3336"
            r="17.089" transform="translate(399.955 67.339)"/>
    <circle cx="8.547" cy="8.547" data-name="Ellipse 3337" fill="#f3f3f3" id="Ellipse_3337"
            r="8.547" transform="translate(390.457 135.693)"/>
  </g>
</svg>
