<svg height="14" viewBox="0 0 12.25 14" width="12.25" xmlns="http://www.w3.org/2000/svg">
  <path
    d="M.875,1.75H1.75V6.125a4.375,4.375,0,0,0,8.75,0V1.75h.875a.437.437,0,0,0,.438-.437V.438A.437.437,0,0,0,11.375,0H7.438A.438.438,0,0,0,7,.438v.875a.438.438,0,0,0,.438.438h.875V6.125a2.188,2.188,0,0,1-4.375,0V1.75h.875a.437.437,0,0,0,.438-.437V.438A.438.438,0,0,0,4.813,0H.875A.438.438,0,0,0,.438.438v.875A.437.437,0,0,0,.875,1.75Zm10.938,10.5H.438A.437.437,0,0,0,0,12.688v.875A.437.437,0,0,0,.438,14H11.813a.437.437,0,0,0,.438-.437v-.875A.437.437,0,0,0,11.813,12.25Z"
    fill="#b7b7b7"
    id="underline"/>
</svg>
