<svg height="13" id="eye" viewBox="0 0 20 13" width="20" xmlns="http://www.w3.org/2000/svg">
  <g data-name="eye" id="eye-2" opacity="0.7" transform="translate(0 0)">
    <g data-name="Group 2186" id="Group_2186" transform="translate(0 0)">
      <g data-name="Group 2185" id="Group_2185">
        <path
          d="M19.873,98.938c-.179-.249-4.436-6.1-9.873-6.1S.305,98.689.127,98.938a.684.684,0,0,0,0,.794c.178.249,4.436,6.1,9.873,6.1s9.694-5.854,9.873-6.1A.683.683,0,0,0,19.873,98.938ZM10,104.49c-4.005,0-7.474-3.885-8.5-5.156C2.525,98.063,5.986,94.18,10,94.18s7.473,3.885,8.5,5.156C17.475,100.607,14.014,104.49,10,104.49Z"
          data-name="Path 1352"
          fill="#606060"
          id="Path_1352" transform="translate(0 -92.835)"/>
      </g>
    </g>
    <g data-name="Group 2188" id="Group_2188" transform="translate(6.033 2.533)">
      <g data-name="Group 2187" id="Group_2187">
        <path
          d="M158.689,154.725a3.967,3.967,0,1,0,3.967,3.967A3.972,3.972,0,0,0,158.689,154.725Zm0,6.612a2.645,2.645,0,1,1,2.645-2.645A2.648,2.648,0,0,1,158.689,161.337Z"
          data-name="Path 1353"
          fill="#606060"
          id="Path_1353" transform="translate(-154.722 -154.725)"/>
      </g>
    </g>
  </g>
</svg>
