<svg height="62" viewBox="0 0 62 62" width="62" xmlns="http://www.w3.org/2000/svg">
  <g id="exclamation" transform="translate(1 1)">
    <g data-name="Group 2589" id="Group_2589">
      <g data-name="Group 2588" id="Group_2588">
        <path
          d="M30,0A30,30,0,1,0,60,30,29.983,29.983,0,0,0,30,0Zm0,55.312A25.312,25.312,0,1,1,55.312,30,25.3,25.3,0,0,1,30,55.312Z"
          data-name="Path 1503"
          fill="#ff5d5d"
          id="Path_1503" stroke="#fff" stroke-width="2"/>
      </g>
    </g>
    <g data-name="Group 2591" id="Group_2591" transform="translate(27.652 15.09)">
      <g data-name="Group 2590" id="Group_2590">
        <path
          d="M238.348,128.877A2.348,2.348,0,0,0,236,131.225v15.119a2.348,2.348,0,0,0,4.7,0V131.225A2.348,2.348,0,0,0,238.348,128.877Z"
          data-name="Path 1504"
          fill="#ff5d5d"
          id="Path_1504" stroke="#fff" stroke-width="2" transform="translate(-236 -128.877)"/>
      </g>
    </g>
    <g data-name="Group 2593" id="Group_2593" transform="translate(26.83 37.745)">
      <g data-name="Group 2592" id="Group_2592">
        <circle cx="3.17" cy="3.17" data-name="Ellipse 582" fill="#ff5d5d" id="Ellipse_582" r="3.17" stroke="#fff"
                stroke-width="2"/>
      </g>
    </g>
  </g>
</svg>
