<svg height="96.959" viewBox="0 0 95.315 96.959" width="95.315" xmlns="http://www.w3.org/2000/svg">
  <g data-name="Group 3775" id="Group_3775" transform="translate(-845.191 -259.15)">
    <path
      d="M892.849,260.793a47.63,47.63,0,1,0,.054,0l-.054-1.643h0Zm43.239,47.658a43.22,43.22,0,0,1-43.2,43.24h-.038a43.24,43.24,0,1,1,43.239-43.24Z"
      data-name="Path 1989"
      fill="#606060"
      id="Path_1989"/>
    <g data-name="Group 3775" id="Group_3775-2" transform="translate(889.283 285.449)">
      <path
        d="M875.061,275.153h0a2.217,2.217,0,0,0-2.215,2.215v24.844a2.219,2.219,0,0,0,4.437,0V277.368A2.219,2.219,0,0,0,875.061,275.153Z"
        data-name="Path 1990"
        fill="#606060"
        id="Path_1990" transform="translate(-871.493 -275.153)"/>
      <path d="M875.587,297.807a3.567,3.567,0,1,0,3.564,3.568A3.571,3.571,0,0,0,875.587,297.807Z" data-name="Path 1991"
            fill="#606060"
            id="Path_1991" transform="translate(-872.021 -260.578)"/>
    </g>
  </g>
</svg>
