<svg width="18" height="18" viewBox="0 0 18 18" fill="none" xmlns="http://www.w3.org/2000/svg">
<path d="M15.0263 0.000194135H2.9746C2.43269 -0.00726611 1.90995 0.20055 1.52103 0.578051C1.13211 0.955553 0.908761 1.47194 0.899994 2.01392V12.3658C0.908761 12.9078 1.13211 13.4241 1.52103 13.8016C1.90995 14.1791 2.43269 14.387 2.9746 14.3795H3.71265L5.12936 16.7605C5.19306 16.8646 5.28241 16.9506 5.38887 17.0102C5.49532 17.0699 5.61529 17.1012 5.73732 17.1012C5.85934 17.1012 5.97931 17.0699 6.08577 17.0102C6.19222 16.9506 6.28157 16.8646 6.34528 16.7605L7.76199 14.3795H15.0254C15.5672 14.3868 16.0898 14.1788 16.4787 13.8014C16.8676 13.4239 17.091 12.9077 17.1 12.3658V2.01392C17.0912 1.47194 16.8679 0.955553 16.479 0.578051C16.09 0.20055 15.5682 -0.00726611 15.0263 0.000194135Z" fill="#919191"/>
</svg>
