
<svg width="12" height="12" viewBox="0 0 12 12" fill="none" xmlns="http://www.w3.org/2000/svg">
<path d="M3.79199 11.4005C3.3729 11.4005 2.95783 11.318 2.57064 11.1576C2.18345 10.9973 1.83166 10.7619 1.53532 10.4656C1.23898 10.1692 1.00397 9.81761 0.843587 9.43042C0.683208 9.04323 0.600586 8.62816 0.600586 8.20907V4.06649C0.600586 3.88968 0.670874 3.72016 0.795898 3.59513C0.920923 3.47011 1.09044 3.39982 1.26725 3.39982H1.93392C2.11073 3.39982 2.28025 3.47011 2.40527 3.59513C2.5303 3.72016 2.60059 3.88968 2.60059 4.06649V7.60425C2.60076 8.08035 2.78998 8.53713 3.12663 8.87378C3.46328 9.21043 3.9199 9.39964 4.396 9.39982H7.93392C8.11073 9.39982 8.28025 9.47011 8.40527 9.59513C8.5303 9.72016 8.60059 9.88968 8.60059 10.0665V10.7332C8.60059 10.91 8.5303 11.0795 8.40527 11.2045C8.28025 11.3295 8.11073 11.3998 7.93392 11.3998L3.79199 11.4005ZM4.73324 8.60034C4.37961 8.60034 4.04041 8.45976 3.79036 8.20972C3.54032 7.95967 3.3999 7.62063 3.3999 7.26701V1.93368C3.3999 1.58005 3.54032 1.24102 3.79036 0.990967C4.04041 0.740918 4.37961 0.600342 4.73324 0.600342H10.0666C10.4202 0.600342 10.7594 0.740918 11.0094 0.990967C11.2595 1.24102 11.3999 1.58005 11.3999 1.93368V7.26701C11.3999 7.62063 11.2595 7.95967 11.0094 8.20972C10.7594 8.45976 10.4202 8.60034 10.0666 8.60034H4.73324ZM5.3999 6.60034H9.3999V2.60034H5.3999V6.60034Z" fill="#919191"/>
</svg>
