<svg xmlns="http://www.w3.org/2000/svg" width="18" height="18" viewBox="0 0 18 18">
  <rect id="Rectangle_88310" data-name="Rectangle 88310" width="18" height="18" rx="1" fill="#b7b7b7"/>
  <g id="Edit" transform="translate(-423 -542)">
    <rect id="Rectangle_55465" data-name="Rectangle 55465" width="14" height="14" transform="translate(425 544)" fill="#eee" opacity="0"/>
    <path id="Path_7775" data-name="Path 7775" d="M688.829,380.306l-1.462-1.464a1.172,1.172,0,0,0-1.653,0l-1.06,1.06h0a.293.293,0,0,0,0,.414l2.7,2.7h0a.293.293,0,0,0,.414,0l1.06-1.06h-.006A1.171,1.171,0,0,0,688.829,380.306Z" transform="translate(-250.943 166.276)" fill="#eee"/>
    <path id="Path_7776" data-name="Path 7776" d="M686.97,383.605l-2.7-2.7h0a.293.293,0,0,0-.414,0l-6.541,6.541L677,390.226a.531.531,0,0,0,0,.13.583.583,0,0,0,.644.514l2.779-.311,6.541-6.541h0A.293.293,0,0,0,686.97,383.605Z" transform="translate(-251.221 166.349)" fill="#eee"/>
  </g>
</svg>
