<svg width="90" height="18" viewBox="0 0 90 18" fill="none" xmlns="http://www.w3.org/2000/svg">
<path d="M6.88 17.2C5.62667 17.2 4.51333 16.96 3.54 16.48C2.56667 16 1.8 15.3333 1.24 14.48C0.693333 13.6133 0.42 12.6267 0.42 11.52C0.42 10.4133 0.693333 9.43333 1.24 8.58C1.8 7.72667 2.56667 7.06 3.54 6.58C4.51333 6.1 5.62667 5.86 6.88 5.86C8.21333 5.86 9.35333 6.14667 10.3 6.72C11.2467 7.29333 11.9 8.08667 12.26 9.1L8.76 10.82C8.53333 10.3133 8.25333 9.94667 7.92 9.72C7.6 9.49333 7.24667 9.38 6.86 9.38C6.52667 9.38 6.21333 9.46 5.92 9.62C5.64 9.78 5.41333 10.02 5.24 10.34C5.08 10.6467 5 11.04 5 11.52C5 12 5.08 12.4 5.24 12.72C5.41333 13.04 5.64 13.28 5.92 13.44C6.21333 13.6 6.52667 13.68 6.86 13.68C7.24667 13.68 7.6 13.5667 7.92 13.34C8.25333 13.1133 8.53333 12.7467 8.76 12.24L12.26 13.96C11.9 14.9733 11.2467 15.7667 10.3 16.34C9.35333 16.9133 8.21333 17.2 6.88 17.2ZM19.9247 17V15.06L19.6047 14.54V10.86C19.6047 10.3267 19.438 9.92 19.1047 9.64C18.7847 9.36 18.258 9.22 17.5247 9.22C17.0314 9.22 16.5314 9.3 16.0247 9.46C15.518 9.60667 15.0847 9.81333 14.7247 10.08L13.2847 7.1C13.9247 6.7 14.6914 6.39333 15.5847 6.18C16.478 5.96667 17.3514 5.86 18.2047 5.86C20.0847 5.86 21.538 6.28 22.5647 7.12C23.6047 7.96 24.1247 9.29333 24.1247 11.12V17H19.9247ZM16.8247 17.2C15.9314 17.2 15.1847 17.0467 14.5847 16.74C13.9847 16.4333 13.5314 16.0267 13.2247 15.52C12.918 15 12.7647 14.4267 12.7647 13.8C12.7647 13.0933 12.9447 12.4933 13.3047 12C13.6647 11.5067 14.2114 11.1333 14.9447 10.88C15.6914 10.6267 16.6314 10.5 17.7647 10.5H20.0447V12.68H18.4847C18.0047 12.68 17.6514 12.76 17.4247 12.92C17.2114 13.0667 17.1047 13.2933 17.1047 13.6C17.1047 13.8533 17.198 14.0667 17.3847 14.24C17.5847 14.4 17.8514 14.48 18.1847 14.48C18.4914 14.48 18.7714 14.4 19.0247 14.24C19.2914 14.0667 19.4847 13.8 19.6047 13.44L20.1847 14.78C20.0114 15.5933 19.6447 16.2 19.0847 16.6C18.5247 17 17.7714 17.2 16.8247 17.2ZM26.0781 17V6.06H30.3781V9.36L29.6781 8.42C30.0115 7.56667 30.5448 6.92667 31.2781 6.5C32.0115 6.07333 32.8915 5.86 33.9181 5.86V9.86C33.7181 9.83333 33.5381 9.81333 33.3781 9.8C33.2315 9.78667 33.0781 9.78 32.9181 9.78C32.2381 9.78 31.6781 9.96 31.2381 10.32C30.8115 10.6667 30.5981 11.2733 30.5981 12.14V17H26.0781ZM35.1992 17V6.06H39.4992V9.36L38.7992 8.42C39.1326 7.56667 39.6659 6.92667 40.3992 6.5C41.1326 6.07333 42.0126 5.86 43.0392 5.86V9.86C42.8392 9.83333 42.6592 9.81333 42.4992 9.8C42.3526 9.78667 42.1992 9.78 42.0392 9.78C41.3592 9.78 40.7992 9.96 40.3592 10.32C39.9326 10.6667 39.7192 11.2733 39.7192 12.14V17H35.1992ZM44.3203 17V6.06H48.8403V17H44.3203ZM46.5803 5.18C45.7536 5.18 45.0936 4.96 44.6003 4.52C44.107 4.08 43.8603 3.53333 43.8603 2.88C43.8603 2.22667 44.107 1.68 44.6003 1.24C45.0936 0.799999 45.7536 0.579999 46.5803 0.579999C47.407 0.579999 48.067 0.786666 48.5603 1.2C49.0536 1.61333 49.3003 2.14667 49.3003 2.8C49.3003 3.49333 49.0536 4.06667 48.5603 4.52C48.067 4.96 47.407 5.18 46.5803 5.18ZM56.8838 17.2C55.5504 17.2 54.3838 16.9533 53.3838 16.46C52.3971 15.9667 51.6304 15.2933 51.0838 14.44C50.5371 13.5733 50.2638 12.6 50.2638 11.52C50.2638 10.4133 50.5304 9.43333 51.0638 8.58C51.6104 7.72667 52.3504 7.06 53.2838 6.58C54.2304 6.1 55.2904 5.86 56.4638 5.86C57.5438 5.86 58.5371 6.07333 59.4438 6.5C60.3638 6.92667 61.0971 7.56 61.6438 8.4C62.2038 9.24 62.4838 10.28 62.4838 11.52C62.4838 11.68 62.4771 11.86 62.4638 12.06C62.4504 12.2467 62.4371 12.42 62.4238 12.58H54.0038V10.4H60.0238L58.3238 10.98C58.3238 10.5533 58.2438 10.1933 58.0838 9.9C57.9371 9.59333 57.7304 9.36 57.4638 9.2C57.1971 9.02667 56.8771 8.94 56.5038 8.94C56.1304 8.94 55.8038 9.02667 55.5238 9.2C55.2571 9.36 55.0504 9.59333 54.9038 9.9C54.7571 10.1933 54.6838 10.5533 54.6838 10.98V11.66C54.6838 12.1267 54.7771 12.5267 54.9638 12.86C55.1504 13.1933 55.4171 13.4467 55.7638 13.62C56.1104 13.78 56.5304 13.86 57.0238 13.86C57.5304 13.86 57.9438 13.7933 58.2638 13.66C58.5971 13.5267 58.9438 13.3267 59.3038 13.06L61.6638 15.44C61.1304 16.0133 60.4704 16.4533 59.6838 16.76C58.9104 17.0533 57.9771 17.2 56.8838 17.2ZM63.9102 17V6.06H68.2102V9.36L67.5102 8.42C67.8435 7.56667 68.3768 6.92667 69.1102 6.5C69.8435 6.07333 70.7235 5.86 71.7502 5.86V9.86C71.5502 9.83333 71.3702 9.81333 71.2102 9.8C71.0635 9.78667 70.9102 9.78 70.7502 9.78C70.0702 9.78 69.5102 9.96 69.0702 10.32C68.6435 10.6667 68.4302 11.2733 68.4302 12.14V17H63.9102Z" fill="#EEEEEE"/>
<path d="M79.0458 17V15.06L78.7258 14.54V10.86C78.7258 10.3267 78.5591 9.92 78.2258 9.64C77.9058 9.36 77.3791 9.22 76.6458 9.22C76.1524 9.22 75.6524 9.3 75.1458 9.46C74.6391 9.60667 74.2058 9.81333 73.8458 10.08L72.4058 7.1C73.0458 6.7 73.8124 6.39333 74.7058 6.18C75.5991 5.96667 76.4724 5.86 77.3258 5.86C79.2058 5.86 80.6591 6.28 81.6858 7.12C82.7258 7.96 83.2458 9.29333 83.2458 11.12V17H79.0458ZM75.9458 17.2C75.0524 17.2 74.3058 17.0467 73.7058 16.74C73.1058 16.4333 72.6524 16.0267 72.3458 15.52C72.0391 15 71.8858 14.4267 71.8858 13.8C71.8858 13.0933 72.0658 12.4933 72.4258 12C72.7858 11.5067 73.3324 11.1333 74.0658 10.88C74.8124 10.6267 75.7524 10.5 76.8858 10.5H79.1658V12.68H77.6058C77.1258 12.68 76.7724 12.76 76.5458 12.92C76.3324 13.0667 76.2258 13.2933 76.2258 13.6C76.2258 13.8533 76.3191 14.0667 76.5058 14.24C76.7058 14.4 76.9724 14.48 77.3058 14.48C77.6124 14.48 77.8924 14.4 78.1458 14.24C78.4124 14.0667 78.6058 13.8 78.7258 13.44L79.3058 14.78C79.1324 15.5933 78.7658 16.2 78.2058 16.6C77.6458 17 76.8924 17.2 75.9458 17.2ZM87.2392 17.2C86.4926 17.2 85.8659 16.96 85.3592 16.48C84.8526 15.9867 84.5992 15.36 84.5992 14.6C84.5992 13.8267 84.8526 13.2067 85.3592 12.74C85.8659 12.2733 86.4926 12.04 87.2392 12.04C87.9859 12.04 88.6126 12.2733 89.1192 12.74C89.6259 13.2067 89.8792 13.8267 89.8792 14.6C89.8792 15.36 89.6259 15.9867 89.1192 16.48C88.6126 16.96 87.9859 17.2 87.2392 17.2Z" fill="#6692F1"/>
</svg>
