<svg width="26" height="26" viewBox="0 0 26 26" fill="none" xmlns="http://www.w3.org/2000/svg">
<path d="M15.1534 16.8991L15.1339 16.9105L1.41403 24.9112C1.31843 24.9668 1.24384 25.0524 1.2018 25.1547C1.15976 25.257 1.15263 25.3703 1.18149 25.4771C1.21036 25.5839 1.27363 25.6782 1.36149 25.7454C1.44936 25.8126 1.55692 25.8489 1.66753 25.8488H8.21222C9.10299 25.8484 9.97771 25.6117 10.7472 25.163L13.4797 23.5689C13.7761 23.3957 14.1037 23.2826 14.4439 23.2361C14.784 23.1896 15.13 23.2106 15.462 23.2979C15.7941 23.3852 16.1056 23.5371 16.3789 23.7449C16.6522 23.9527 16.8818 24.2123 17.0547 24.509L17.0612 24.5195L17.3455 25.007C17.4926 25.2618 17.7041 25.4734 17.9588 25.6206C18.2135 25.7677 18.5025 25.8453 18.7967 25.8455H24.4492C24.5964 25.8456 24.741 25.8069 24.8685 25.7333C24.996 25.6597 25.1019 25.5539 25.1755 25.4264C25.2492 25.2989 25.2879 25.1543 25.2879 25.0071C25.2879 24.8599 25.2492 24.7153 25.1756 24.5878L21.7542 18.6647C21.4369 18.1151 21.0144 17.6335 20.5109 17.2473C20.0074 16.8611 19.4327 16.578 18.8197 16.414C18.2066 16.25 17.5673 16.2085 16.9383 16.2917C16.3092 16.375 15.7027 16.5813 15.1534 16.8991Z" fill="url(#paint0_linear_8322_56427)"/>
<path d="M15.1534 16.8991L15.1339 16.9105L1.41403 24.9112C1.31843 24.9668 1.24384 25.0524 1.2018 25.1547C1.15976 25.257 1.15263 25.3703 1.18149 25.4771C1.21036 25.5839 1.27363 25.6782 1.36149 25.7454C1.44936 25.8126 1.55692 25.8489 1.66753 25.8488H8.21222C9.10299 25.8484 9.97771 25.6117 10.7472 25.163L13.4797 23.5689C13.7761 23.3957 14.1037 23.2826 14.4439 23.2361C14.784 23.1896 15.13 23.2106 15.462 23.2979C15.7941 23.3852 16.1056 23.5371 16.3789 23.7449C16.6522 23.9527 16.8818 24.2123 17.0547 24.509L17.0612 24.5195L17.3455 25.007C17.4926 25.2618 17.7041 25.4734 17.9588 25.6206C18.2135 25.7677 18.5025 25.8453 18.7967 25.8455H24.4492C24.5964 25.8456 24.741 25.8069 24.8685 25.7333C24.996 25.6597 25.1019 25.5539 25.1755 25.4264C25.2492 25.2989 25.2879 25.1543 25.2879 25.0071C25.2879 24.8599 25.2492 24.7153 25.1756 24.5878L21.7542 18.6647C21.4369 18.1151 21.0144 17.6335 20.5109 17.2473C20.0074 16.8611 19.4327 16.578 18.8197 16.414C18.2066 16.25 17.5673 16.2085 16.9383 16.2917C16.3092 16.375 15.7027 16.5813 15.1534 16.8991Z" fill="black" fill-opacity="0.5" style="mix-blend-mode:soft-light"/>
<path d="M8.03906 21.0497C12.6151 18.3774 15.0664 20.7158 17.3714 24.9733C17.5163 25.2388 17.7302 25.4603 17.9904 25.6145C18.2507 25.7686 18.5477 25.8497 18.8502 25.8491H24.4508C24.598 25.8492 24.7426 25.8104 24.8701 25.7369C24.9976 25.6633 25.1035 25.5574 25.1771 25.43C25.2507 25.3025 25.2895 25.1579 25.2895 25.0107C25.2895 24.8635 25.2507 24.7189 25.1771 24.5914L21.7549 18.6658C21.1143 17.5562 20.0592 16.7464 18.8216 16.4147C17.5841 16.083 16.2654 16.2565 15.1557 16.897L15.1362 16.9084L8.03906 21.0497Z" fill="url(#paint1_linear_8322_56427)"/>
<path d="M12.1287 0.418915L0.787037 20.0619C0.731133 20.1578 0.708604 20.2696 0.722973 20.3797C0.737342 20.4898 0.787799 20.592 0.86645 20.6704C0.945102 20.7488 1.04751 20.7989 1.15766 20.8129C1.26781 20.8268 1.37949 20.8039 1.47522 20.7477L15.1537 12.7632C16.2565 12.1189 17.0594 11.0641 17.3869 9.82955C17.7144 8.59496 17.5398 7.28092 16.9013 6.17466L13.5807 0.418915C13.507 0.291538 13.4012 0.185773 13.2738 0.112241C13.1463 0.0387094 13.0018 0 12.8547 0C12.7076 0 12.563 0.0387094 12.4356 0.112241C12.3082 0.185773 12.2023 0.291538 12.1287 0.418915Z" fill="url(#paint2_linear_8322_56427)"/>
<path d="M12.1287 0.418915L0.787037 20.0619C0.731133 20.1578 0.708604 20.2696 0.722973 20.3797C0.737342 20.4898 0.787799 20.592 0.86645 20.6704C0.945102 20.7488 1.04751 20.7989 1.15766 20.8129C1.26781 20.8268 1.37949 20.8039 1.47522 20.7477L15.1537 12.7632C16.2565 12.1189 17.0594 11.0641 17.3869 9.82955C17.7144 8.59496 17.5398 7.28092 16.9013 6.17466L13.5807 0.418915C13.507 0.291538 13.4012 0.185773 13.2738 0.112241C13.1463 0.0387094 13.0018 0 12.8547 0C12.7076 0 12.563 0.0387094 12.4356 0.112241C12.3082 0.185773 12.2023 0.291538 12.1287 0.418915Z" fill="black" fill-opacity="0.1" style="mix-blend-mode:soft-light"/>
<defs>
<linearGradient id="paint0_linear_8322_56427" x1="2.99748" y1="26.2711" x2="6.80442" y2="16.3203" gradientUnits="userSpaceOnUse">
<stop stop-color="#92B1F5"/>
<stop offset="1" stop-color="#0B49D1"/>
</linearGradient>
<linearGradient id="paint1_linear_8322_56427" x1="10.9265" y1="16.25" x2="26.3495" y2="20.7958" gradientUnits="userSpaceOnUse">
<stop stop-color="#92B1F5"/>
<stop offset="1" stop-color="#0B49D1"/>
</linearGradient>
<linearGradient id="paint2_linear_8322_56427" x1="9.13362" y1="3.08984e-07" x2="-3.0885" y2="17.1491" gradientUnits="userSpaceOnUse">
<stop stop-color="#92B1F5"/>
<stop offset="1" stop-color="#0B49D1"/>
</linearGradient>
</defs>
</svg>
