<svg width="14" height="14" viewBox="0 0 14 14" fill="none" xmlns="http://www.w3.org/2000/svg">
<path d="M5.19881 9.8186H4.28043V1.86358C4.28043 1.74063 4.22923 1.62272 4.13804 1.53578C4.04686 1.44884 3.92317 1.39999 3.79422 1.39999H2.4701C2.34115 1.39999 2.21746 1.44884 2.12627 1.53578C2.03509 1.62272 1.98389 1.74063 1.98389 1.86358V9.8186H1.06551C0.994199 9.81844 0.924403 9.83823 0.86477 9.87552C0.805137 9.91281 0.758294 9.96596 0.730029 10.0284C0.701764 10.0908 0.69335 10.1598 0.705784 10.2267C0.718218 10.2937 0.750957 10.3557 0.799985 10.4051L2.8645 12.4915C2.93105 12.5584 3.02265 12.5973 3.11925 12.5999C3.21586 12.6024 3.3096 12.5683 3.37992 12.5051L3.39486 12.4915L5.45934 10.4051C5.50799 10.3556 5.54048 10.2937 5.55276 10.2269C5.56503 10.1601 5.55659 10.0914 5.52847 10.0291C5.50035 9.96682 5.45374 9.91374 5.39442 9.87635C5.3351 9.83895 5.26562 9.81888 5.19451 9.8186H5.19881ZM11.2335 6.06983H6.91376C6.80419 6.07001 6.69914 6.11165 6.62173 6.18558C6.54432 6.25952 6.50085 6.35971 6.50085 6.46419V7.53662C6.50085 7.64109 6.54432 7.7413 6.62173 7.81523C6.69914 7.88917 6.80419 7.9308 6.91376 7.93098H11.2335C11.3432 7.93098 11.4484 7.88943 11.526 7.81547C11.6036 7.74152 11.6472 7.64121 11.6472 7.53662V6.46419C11.6468 6.35995 11.6031 6.2601 11.5258 6.18645C11.4484 6.11281 11.3436 6.07137 11.2342 6.07119L11.2335 6.06983ZM12.8873 2.85117H6.91376C6.80419 2.85135 6.69914 2.89299 6.62173 2.96692C6.54432 3.04086 6.50085 3.14106 6.50085 3.24554V4.31797C6.50085 4.42244 6.54432 4.52265 6.62173 4.59658C6.69914 4.67052 6.80419 4.71214 6.91376 4.71232H12.8873C12.9969 4.71214 13.1019 4.67052 13.1793 4.59658C13.2567 4.52265 13.3002 4.42244 13.3002 4.31797V3.24554C13.2998 3.14142 13.2563 3.04167 13.1791 2.96804C13.1018 2.89442 12.9972 2.85289 12.888 2.85253L12.8873 2.85117ZM9.57981 9.28848H6.91376C6.80419 9.28866 6.69914 9.3303 6.62173 9.40423C6.54432 9.47817 6.50085 9.57839 6.50085 9.68286V10.7553C6.50085 10.8598 6.54432 10.96 6.62173 11.0339C6.69914 11.1078 6.80419 11.1495 6.91376 11.1496H9.58194C9.63626 11.1496 9.69005 11.1394 9.74023 11.1196C9.79041 11.0998 9.836 11.0708 9.87441 11.0341C9.91282 10.9975 9.94331 10.954 9.96409 10.9062C9.98488 10.8584 9.99555 10.8071 9.99555 10.7553V9.68286C9.99499 9.57862 9.95118 9.47883 9.87367 9.40531C9.79616 9.33179 9.69127 9.29053 9.58194 9.29053L9.57981 9.28848Z" fill="#6692F1"/>
</svg>
