<svg xmlns="http://www.w3.org/2000/svg" width="13.499" height="18" viewBox="0 0 13.499 18">
  <path id="Path_37043" data-name="Path 37043" d="M197.157,1.983a1.126,1.126,0,0,1,0,2.25v.386A5.623,5.623,0,0,1,195.509,8.6l-2.384,2.387,2.383,2.387a5.625,5.625,0,0,1,1.649,3.977v.387a1.125,1.125,0,1,1,0,2.25H185.907a1.125,1.125,0,0,1,0-2.25v-.387a5.621,5.621,0,0,1,1.652-3.977l2.38-2.387L187.56,8.6a5.626,5.626,0,0,1-1.652-3.978V4.233a1.126,1.126,0,0,1,0-2.25Zm-8.47,4.5h5.657a3.353,3.353,0,0,0,.562-1.864V4.233h-6.749v.386a3.609,3.609,0,0,0,.53,1.864m0,9h5.657a3.32,3.32,0,0,0-.426-.523l-2.387-2.384-2.387,2.384a6.667,6.667,0,0,0-.457.523Z" transform="translate(-184.783 -1.983)" fill="#b7b7b7"/>
</svg>
