<svg width="18" height="18" viewBox="0 0 18 18" fill="none" xmlns="http://www.w3.org/2000/svg">
<path d="M13.2358 9.5932L7.58684 15.2452C7.42841 15.4034 7.2137 15.4922 6.98984 15.4922C6.76598 15.4922 6.55127 15.4034 6.39284 15.2452V15.2452L5.59284 14.4452C5.43523 14.2867 5.34676 14.0722 5.34676 13.8487C5.34676 13.6252 5.43523 13.4107 5.59284 13.2522L9.82284 8.9932L5.58284 4.7312C5.42474 4.57294 5.33594 4.35839 5.33594 4.1347C5.33594 3.911 5.42474 3.69645 5.58284 3.5382L6.38284 2.7382C6.5411 2.5801 6.75564 2.49129 6.97934 2.49129C7.20304 2.49129 7.41759 2.5801 7.57584 2.7382L13.2358 8.4032C13.3933 8.5612 13.4817 8.77515 13.4817 8.9982C13.4817 9.22124 13.3933 9.43519 13.2358 9.5932V9.5932Z" fill="#919191"/>
</svg>
