<svg xmlns="http://www.w3.org/2000/svg" width="18" height="18" viewBox="0 0 18 18">
  <g id="Group_95703" data-name="Group 95703" transform="translate(-1219 -905)">
    <rect id="Rectangle_66201" data-name="Rectangle 66201" width="18" height="18" rx="1" transform="translate(1219 905)" fill="#b7b7b7"/>
    <rect id="Rectangle_61640" data-name="Rectangle 61640" width="18" height="18" rx="1" transform="translate(1219 905)" fill="#6c6c6c"/>
    <path id="Union_677" data-name="Union 677" d="M4.992,10A4.985,4.985,0,0,1,1.649,8.711L1.639,8.7a.242.242,0,0,1,0-.343l.8-.8a.241.241,0,0,1,.329-.011,3.388,3.388,0,1,0-.081-5.024L2.462,2.3,3.529,3.367a.484.484,0,0,1-.342.826H.484A.484.484,0,0,1,0,3.71v-2.7A.484.484,0,0,1,.826.665l.72.719A5,5,0,1,1,5,10Z" transform="translate(1223 909)" fill="#eee"/>
  </g>
</svg>
