<svg xmlns="http://www.w3.org/2000/svg" width="18.004" height="16.001" viewBox="0 0 18.004 16.001">
  <path id="Union_689" data-name="Union 689" d="M0,15.527v-1.27a.477.477,0,0,1,.477-.479H17.531a.474.474,0,0,1,.474.479v1.27a.475.475,0,0,1-.474.474H.48A.479.479,0,0,1,0,15.527Zm6.676-3.838a2.434,2.434,0,0,1-.614-1.78v-.1A.236.236,0,0,1,6.3,9.572H7.514a.234.234,0,0,1,.235.233v.012a2.688,2.688,0,0,0,.048.533.888.888,0,0,0,.176.4.828.828,0,0,0,.343.256,1.371,1.371,0,0,0,.542.1,1.075,1.075,0,0,0,.7-.253.945.945,0,0,0,.31-.778,1.382,1.382,0,0,0-.077-.482.977.977,0,0,0-.25-.37,1.774,1.774,0,0,0-.462-.3,6.42,6.42,0,0,0-.706-.274A5.859,5.859,0,0,1,7.4,8.237a2.543,2.543,0,0,1-.682-.519,1.79,1.79,0,0,1-.4-.691,2.778,2.778,0,0,1-.131-.905,2.318,2.318,0,0,1,.691-1.843,2.749,2.749,0,0,1,1.893-.611A4.188,4.188,0,0,1,9.8,3.791a2.2,2.2,0,0,1,.82.4,1.837,1.837,0,0,1,.536.7,2.477,2.477,0,0,1,.194,1.022.235.235,0,0,1-.235.235H9.964a.237.237,0,0,1-.235-.224,1.492,1.492,0,0,0-.2-.694.777.777,0,0,0-.7-.321,1.186,1.186,0,0,0-.468.081.807.807,0,0,0-.3.217.742.742,0,0,0-.152.311,1.609,1.609,0,0,0-.042.363,1.192,1.192,0,0,0,.164.646,1.455,1.455,0,0,0,.7.486l1.3.56a3.832,3.832,0,0,1,.781.438A2.105,2.105,0,0,1,11.3,8.5a1.626,1.626,0,0,1,.253.579,3.374,3.374,0,0,1,.068.7,2.3,2.3,0,0,1-.766,1.925,3.378,3.378,0,0,1-2.134.6A2.8,2.8,0,0,1,6.679,11.689Zm-6.068,0A2.432,2.432,0,0,1,0,9.909v-.1a.234.234,0,0,1,.232-.233H1.448a.234.234,0,0,1,.233.233v.012a2.937,2.937,0,0,0,.048.533.957.957,0,0,0,.176.4.839.839,0,0,0,.346.256,1.362,1.362,0,0,0,.542.1,1.066,1.066,0,0,0,.694-.253.936.936,0,0,0,.31-.778,1.38,1.38,0,0,0-.074-.482.95.95,0,0,0-.253-.37,1.8,1.8,0,0,0-.459-.3A6.747,6.747,0,0,0,2.3,8.648a5.94,5.94,0,0,1-.969-.411,2.562,2.562,0,0,1-.685-.519,1.871,1.871,0,0,1-.4-.691,2.863,2.863,0,0,1-.128-.905A2.327,2.327,0,0,1,.8,4.279a2.757,2.757,0,0,1,1.9-.611,4.205,4.205,0,0,1,1.034.123,2.207,2.207,0,0,1,.817.4,1.846,1.846,0,0,1,.539.7,2.478,2.478,0,0,1,.191,1.022.233.233,0,0,1-.232.235H3.9a.237.237,0,0,1-.235-.224,1.457,1.457,0,0,0-.2-.694.778.778,0,0,0-.7-.321,1.186,1.186,0,0,0-.468.081.835.835,0,0,0-.3.217.742.742,0,0,0-.152.311A1.609,1.609,0,0,0,1.8,5.88a1.219,1.219,0,0,0,.161.646,1.486,1.486,0,0,0,.7.486l1.3.56a3.953,3.953,0,0,1,.784.438,2.169,2.169,0,0,1,.486.491,1.676,1.676,0,0,1,.25.579,3.178,3.178,0,0,1,.071.7,2.3,2.3,0,0,1-.766,1.925,3.385,3.385,0,0,1-2.134.6A2.812,2.812,0,0,1,.611,11.689Zm15.638.488a.236.236,0,0,1-.221-.155l-2-5.689H14v5.612a.235.235,0,0,1-.235.232H12.693a.233.233,0,0,1-.232-.232V4.067a.233.233,0,0,1,.232-.235h1.541a.233.233,0,0,1,.22.155l1.979,5.561h.024V4.067a.234.234,0,0,1,.235-.235h1.073A.236.236,0,0,1,18,4.067v7.878a.235.235,0,0,1-.235.232Zm1.276-9.955H.48A.476.476,0,0,1,0,1.747V.474A.473.473,0,0,1,.477,0H17.525A.475.475,0,0,1,18,.474v1.27a.478.478,0,0,1-.474.479Z" transform="translate(0 0)" fill="#b7b7b7"/>
</svg>
