<svg xmlns="http://www.w3.org/2000/svg" width="20" height="20" viewBox="0 0 20 20">
  <g id="Group_89691" data-name="Group 89691" transform="translate(-570.082 -940)">
    <rect id="Rectangle_63578" data-name="Rectangle 63578" width="20" height="20" transform="translate(570.082 940)" fill="#6d82c7" opacity="0"/>
    <path id="user-alt" d="M9.1,10.238A5.119,5.119,0,1,0,3.981,5.119,5.12,5.12,0,0,0,9.1,10.238Zm4.55,1.137H11.691a6.188,6.188,0,0,1-5.183,0H4.55A4.55,4.55,0,0,0,0,15.925v.569A1.707,1.707,0,0,0,1.706,18.2H16.494A1.707,1.707,0,0,0,18.2,16.494v-.569A4.55,4.55,0,0,0,13.65,11.375Z" transform="translate(570.982 940.9)" fill="#6d82c7" stroke="rgba(0,0,0,0)" stroke-width="1"/>
  </g>
</svg>
