<svg xmlns="http://www.w3.org/2000/svg" width="19.002" height="17.057" viewBox="0 0 19.002 17.057">
  <path id="Path_33524" data-name="Path 33524" d="M14.512.578c-.958.887-.643,1.941-1.163,2.422-.993.919-2.722-1.368-3.615-2.724A.617.617,0,0,0,8.68.317C7.82,1.906,5.986,4.785,4.568,3.474,3.74,2.708,4.336,1.713,3.421.866A1.915,1.915,0,0,0,.864.885a1.563,1.563,0,0,0-.12.125,1.693,1.693,0,0,0-.337,2.5c.033.04.069.078.106.116.953.881,2.1.587,2.614,1.066C4.363,5.835,1.681,7.808.385,8.653a.588.588,0,0,0-.079.931l6.757,6.25a.626.626,0,0,0,.759.069c1.173-.742,4.365-2.944,3.039-4.168-.515-.478-1.844,0-2.8-.884a1.624,1.624,0,0,1,.005-2.424,2,2,0,0,1,.16-.132,1.915,1.915,0,0,1,2.547-.265c.048.036.094.074.139.114.915.847.319,1.842,1.145,2.606,1.221,1.13,3.034-1.4,4.266-2.793a.59.59,0,0,0-.145-.894c-.955-.6-2.536-1.807-1.528-2.739.829-.767,1.9-.219,2.823-1.071A1.586,1.586,0,0,0,17.464.886,1.611,1.611,0,0,0,17.33.775,2.025,2.025,0,0,0,14.635.48a1.51,1.51,0,0,0-.123.1" transform="translate(0.502 0.528)" fill="#b7b7b7" stroke="rgba(0,0,0,0)" stroke-width="1"/>
</svg>
