<svg xmlns="http://www.w3.org/2000/svg" width="18" height="18" viewBox="0 0 18 18">
  <g id="Group_77439" data-name="Group 77439" transform="translate(-380 -833)">
    <path id="Path_31049" data-name="Path 31049" d="M659.047,896.392a.127.127,0,0,1,.128-.127h3.142a.238.238,0,0,1,.231.18l.6,2.379h11.871a.228.228,0,0,1,.229.227.224.224,0,0,1-.007.056l-1.65,6.607a.671.671,0,0,1-.65.508h-7.941l.374,1.5h6.407a1.755,1.755,0,1,1-1.681,2.025,1.936,1.936,0,0,1,.111-.945h-3.871a1.767,1.767,0,0,1-.144,1.62,1.7,1.7,0,0,1-1.023.754,1.76,1.76,0,0,1-2.11-1.107,1.782,1.782,0,0,1,1.1-2.265c.04-.014.082-.026.123-.038L661.7,897.421a.111.111,0,0,0-.107-.084h-2.42a.128.128,0,0,1-.128-.128Zm4.379,3.5a.643.643,0,0,0,.005.088c.159.64.32,1.282.477,1.92.021.086.068.1.147.1h1.35a.677.677,0,0,0,.116-.02c-.072-.568-.143-1.118-.211-1.668-.051-.42-.049-.421-.473-.421Zm7.371,2.1.26-2.088h-1.822v2.088Zm-4.468-2.092c.084.679.165,1.34.252,2a.146.146,0,0,0,.107.094c.472.006.944,0,1.412,0a.185.185,0,0,0,.057-.018V899.9Zm5.538,2.092h1.557l.487-1.947a.118.118,0,0,0-.086-.142.135.135,0,0,0-.028,0H672.13Zm-5.951,3.172-.264-2.1h-1.429a.165.165,0,0,0,0,.051c.162.656.323,1.312.49,1.968a.134.134,0,0,0,.094.079c.364,0,.727,0,1.113,0Zm3.316,0c.373,0,.726,0,1.08,0,.035,0,.09-.063.1-.1.028-.135.038-.27.055-.408l.2-1.582h-1.43Zm-2.51-2.1.263,2.092h1.162v-2.092Zm6.433,0h-1.423l-.262,2.1c.377,0,.734,0,1.093,0,.032,0,.08-.059.092-.1.049-.167.088-.338.13-.506ZM665.4,909.47a.7.7,0,1,0,0,.005v0Zm7.115,0a.691.691,0,1,0-.688.7.692.692,0,0,0,.688-.7v0Z" transform="translate(-278.144 -61.749)" fill="#aaa" stroke="rgba(0,0,0,0)" stroke-width="1"/>
    <rect id="Rectangle_35128" data-name="Rectangle 35128" width="18" height="18" transform="translate(380 833)" fill="none"/>
  </g>
</svg>
