<?xml version="1.0" encoding="utf-8"?>
<!-- Generator: Adobe Illustrator 26.0.3, SVG Export Plug-In . SVG Version: 6.00 Build 0)  -->
<svg version="1.1" id="Layer_1" xmlns="http://www.w3.org/2000/svg" xmlns:xlink="http://www.w3.org/1999/xlink" x="0px" y="0px"
	 viewBox="0 0 340 102" style="enable-background:new 0 0 340 102;" xml:space="preserve">
<style type="text/css">
	.st0{fill:#E5E5E5;}
	.st1{fill:#FFFFFF;}
	.st2{fill:#DADADA;}
	.st3{fill:#919191;}
	.st4{fill:#B7B7B7;}
	.st5{fill:#6C6C6C;}
	.st6{fill:#778FBB;}
</style>
<path class="st0" d="M179,12.6l-1.3,27.7c-0.1,2.7-3.1,4.8-6.8,4.7L35.2,41.8L27,41.6c-3.3-0.1-5.8-2.1-5.7-4.6L22,23.1l0.7-14.2
	c0.1-2.7,3.1-4.8,6.8-4.7l143.3,3.4C176.4,7.6,179.2,9.9,179,12.6"/>
<path class="st1" d="M177.7,12.8L176.4,40c-0.1,2.7-3.1,4.7-6.7,4.6L35,41.6l-8-0.2c-3.2-0.1-5.7-2.1-5.6-4.5L22,23.2l0.7-14
	c0.1-2.7,3.1-4.7,6.7-4.6l142.2,3.2C175.1,7.9,177.8,10.2,177.7,12.8"/>
<rect x="12" y="83" class="st2" width="31.2" height="2"/>
<path class="st3" d="M48.6,54.8l13.8-4.3l5.1-9.1l1.1,0.2c0.6,0.1,1.2,0.3,1.7,0.5c0.8,0.5,0.5,0.8-0.1,1.6l-6.3,9.4l-15,2.6
	L48.6,54.8z"/>
<path class="st4" d="M54.1,49.4c0,0-4.3,3.7-7.6,2.6s-5-4.2-3.8-6.5s4.6-2.8,7.6-1.8S54.1,49.3,54.1,49.4"/>
<path class="st4" d="M48.4,58.1C46.7,60.9,44,62.8,42,62s-2.2-4.2-0.3-7.2s5-4.3,6.7-3.3S50,55.3,48.4,58.1"/>
<path class="st4" d="M43.4,61.9c1.4,2.1-1,5.8-5.2,8.8c-4.3,3.2-12.8-1.8-12.7-2c1.9-2.6,4.4-4.7,7.2-6.3
	C37.2,59.7,42,59.8,43.4,61.9"/>
<path class="st3" d="M51.6,44.5c0.7,1.2,1.2,2.5,1.5,3.9c0,0-4.4,3.6-7.6,2.4c-1-0.3-1.8-0.9-2.5-1.6c0.8,1.3,2.1,2.3,3.5,2.8
	c3.3,1.1,7.6-2.6,7.6-2.6S53.5,46.1,51.6,44.5"/>
<path class="st3" d="M49.6,53.5c-0.3,1-0.7,1.9-1.2,2.7C46.6,59,43.9,60.9,42,60c-0.8-0.4-1.4-1.3-1.5-2.2c-0.4,2,0.2,3.7,1.5,4.2
	c2,0.9,4.7-1,6.3-3.9C49.2,56.8,49.7,55.2,49.6,53.5"/>
<path class="st3" d="M43.5,62.1c-0.5,2-2.6,4.4-5.7,6.4c-3.2,2.2-8.6,0.1-11.1-1.4c-0.4,0.5-0.8,1-1.2,1.5c-0.1,0.2,8.4,5.2,12.7,2
	C42.2,67.7,44.5,64.2,43.5,62.1"/>
<path class="st3" d="M45.3,48.9c-0.2,0.2-8.3-5.8-11-5.2c-2.9,0.9-7,5.1-5.1,7.8s1.9,0.3,1.7-0.1s-1.2-0.2-1.3-0.2s-1.5-1.8,0.7-4.2
	s3.5-3,4.7-2.9c2.4,1,4.7,2.1,6.9,3.4c0.9,0.7,1.9,1.3,2.9,1.8C45,49.3,45.6,49.2,45.3,48.9"/>
<path class="st3" d="M33.3,41.1L33,50.3l10.5,5.3l-0.3-1.4L35.4,50l0.3-8.9H33.3z"/>
<path class="st3" d="M32.3,67.1c-0.1-0.1-0.2-0.2-0.3-0.3c-1.5,1.2-9.7,7-9.7,7l1.3,9.9h4.8l-5-9.7C23.4,74.1,31,68.4,32.3,67.1"/>
<path class="st3" d="M36.1,69.9c1.5,2.2,3,4.2,4.7,6.2l-4.6,7.7h-3.7l6.9-7.5c-1.4-1.9-2.6-3.9-3.7-6L36.1,69.9z"/>
<path class="st3" d="M46.1,44.7c-0.4,0.2-7.6-11.3-10.2-10.3c-3.1,1.2-4.7,3.5-4.2,4.7s2,2.2,2,1.1S33,39.7,33,39.7s-1.5,0.1-0.3-2
	s2.7-3.4,4.1-2.5c1.1,0.5,2,1.3,2.7,2.3c1.2,1.6,6.1,7.7,6.2,7.6S46,45.4,46.1,44.7"/>
<g>
	<g>
		<path class="st5" d="M39.5,26l-4.2-0.1l-0.9,1.9h-1.6l3.9-8.3h1.5l3.7,8.5h-1.6L39.5,26z M39,24.8l-1.5-3.7l-1.6,3.6L39,24.8z"/>
		<path class="st5" d="M49.2,19.2L49,28.1h-1.4v-0.8c-0.3,0.3-0.6,0.5-0.9,0.7c-0.4,0.2-0.8,0.2-1.2,0.2c-0.6,0-1.2-0.2-1.7-0.4
			c-0.5-0.3-0.9-0.7-1.1-1.2c-0.3-0.5-0.4-1.1-0.4-1.7s0.2-1.2,0.5-1.7s0.7-0.9,1.2-1.1c0.5-0.3,1.1-0.4,1.7-0.4
			c0.4,0,0.8,0.1,1.2,0.2c0.3,0.1,0.7,0.4,0.9,0.7v-3.3L49.2,19.2z M46.7,26.6c0.3-0.2,0.5-0.4,0.7-0.7c0.2-0.3,0.3-0.6,0.3-1
			s-0.1-0.7-0.2-1.1c-0.2-0.3-0.4-0.5-0.7-0.7s-0.6-0.3-1-0.3c-0.3,0-0.7,0.1-1,0.2c-0.3,0.2-0.5,0.4-0.7,0.7
			c-0.2,0.3-0.3,0.6-0.3,1s0.1,0.7,0.2,1.1c0.2,0.3,0.4,0.5,0.7,0.7s0.7,0.3,1,0.3C46,26.8,46.4,26.7,46.7,26.6z"/>
		<path class="st5" d="M57.4,19.3l-0.1,8.9h-1.4v-0.8c-0.2,0.3-0.6,0.5-0.9,0.7c-0.4,0.2-0.8,0.2-1.2,0.2c-0.6,0-1.1-0.2-1.6-0.4
			c-0.5-0.3-0.9-0.7-1.1-1.2c-0.3-0.5-0.4-1.1-0.4-1.7s0.2-1.2,0.5-1.7s0.7-0.9,1.2-1.1c0.5-0.3,1.1-0.4,1.7-0.4
			c0.4,0,0.8,0.1,1.2,0.2c0.3,0.1,0.7,0.4,0.9,0.7l0.1-3.3L57.4,19.3z M54.9,26.7c0.3-0.2,0.5-0.4,0.7-0.7c0.2-0.3,0.3-0.6,0.3-1
			s-0.1-0.7-0.2-1.1c-0.2-0.3-0.4-0.5-0.7-0.7s-0.6-0.3-1-0.3c-0.3,0-0.7,0.1-1,0.2c-0.3,0.2-0.5,0.4-0.7,0.7
			c-0.2,0.3-0.3,0.6-0.3,1s0.1,0.7,0.2,1.1c0.2,0.3,0.4,0.5,0.7,0.7s0.6,0.3,1,0.3C54.2,27,54.6,26.9,54.9,26.7L54.9,26.7z"/>
		<path class="st5" d="M62.9,19.9h1.6l-0.1,8.4h-1.6L62.9,19.9z"/>
		<path class="st5" d="M72,22.7c0.5,0.6,0.8,1.3,0.7,2.1l-0.1,3.7h-1.5l0.1-3.5c0-0.5-0.1-0.9-0.4-1.3c-0.3-0.3-0.7-0.5-1.1-0.5
			c-0.5,0-1,0.1-1.3,0.5s-0.5,0.9-0.5,1.4l-0.1,3.2h-1.5l0.1-6.4h1.4v0.8c0.3-0.3,0.6-0.5,0.9-0.7c0.4-0.2,0.8-0.2,1.3-0.2
			C70.8,21.9,71.5,22.2,72,22.7z"/>
		<path class="st5" d="M75,28.4c-0.4-0.1-0.8-0.3-1.2-0.5l0.6-1.1c0.3,0.2,0.6,0.4,1,0.5s0.8,0.2,1.2,0.2c0.9,0,1.4-0.2,1.4-0.7
			c0-0.2-0.1-0.4-0.3-0.5c-0.4-0.1-0.7-0.2-1.1-0.3c-0.4-0.1-0.9-0.2-1.3-0.3c-0.3-0.1-0.6-0.3-0.9-0.6C74.1,24.8,74,24.4,74,24
			c0-0.6,0.3-1.1,0.8-1.5c0.6-0.4,1.3-0.6,2.1-0.5c0.4,0,0.9,0.1,1.3,0.2s0.7,0.2,1.1,0.4l-0.6,1.1c-0.6-0.3-1.2-0.5-1.8-0.5
			c-0.3,0-0.7,0-1,0.2c-0.2,0.1-0.3,0.3-0.4,0.5c0,0.2,0.1,0.4,0.4,0.5c0.4,0.1,0.7,0.2,1.1,0.3c0.4,0.1,0.8,0.2,1.3,0.3
			c0.3,0.1,0.6,0.3,0.8,0.5c0.3,0.3,0.4,0.7,0.3,1.1c0,0.6-0.3,1.1-0.8,1.4c-0.6,0.4-1.4,0.6-2.1,0.5C76,28.6,75.5,28.5,75,28.4z"/>
		<path class="st5" d="M87.1,22.3L87,28.7h-1.4v-0.8c-0.2,0.3-0.6,0.5-0.9,0.7c-0.4,0.1-0.8,0.2-1.2,0.2c-1.4,0.1-2.6-0.9-2.7-2.4
			c0-0.2,0-0.4,0-0.5l0.1-3.7h1.5l-0.1,3.5c0,0.5,0.1,0.9,0.4,1.3c0.3,0.3,0.7,0.5,1.1,0.4c0.5,0,0.9-0.1,1.3-0.5s0.5-0.9,0.5-1.4
			l0.1-3.2L87.1,22.3z"/>
		<path class="st5" d="M92.8,22.3v1.4c-0.1,0-0.2,0-0.4,0c-0.5,0-1,0.1-1.4,0.5s-0.5,0.9-0.5,1.5v3.1H89l0.1-6.4h1.4v0.9
			C91,22.6,91.9,22.2,92.8,22.3z"/>
		<path class="st5" d="M98.6,23.1c0.5,0.5,0.8,1.3,0.7,2l-0.1,3.8h-1.4v-0.8c-0.2,0.3-0.5,0.5-0.8,0.6c-0.4,0.2-0.8,0.2-1.2,0.2
			c-0.4,0-0.9-0.1-1.2-0.3c-0.3-0.1-0.6-0.4-0.8-0.7c-0.2-0.3-0.3-0.6-0.3-1c0-0.5,0.2-1,0.7-1.4c0.6-0.4,1.3-0.5,2-0.5h1.7l0,0
			c0-0.4-0.1-0.7-0.4-1s-0.8-0.4-1.2-0.4c-0.4,0-0.7,0.1-1.1,0.2c-0.3,0.1-0.6,0.3-0.9,0.5l-0.6-1.1c0.4-0.3,0.8-0.5,1.2-0.6
			c0.5-0.1,1-0.2,1.5-0.2C97.2,22.3,98,22.6,98.6,23.1z M97.2,27.6c0.3-0.2,0.5-0.4,0.6-0.7v-0.7h-1.5c-0.9,0-1.3,0.3-1.3,0.8
			c0,0.3,0.1,0.5,0.3,0.7c0.3,0.2,0.6,0.3,0.9,0.3C96.5,27.9,96.9,27.8,97.2,27.6z"/>
		<path class="st5" d="M106.9,23.3c0.5,0.6,0.8,1.3,0.7,2.1l-0.1,3.7H106l0.1-3.5c0-0.5-0.1-0.9-0.4-1.3c-0.3-0.3-0.7-0.5-1.1-0.4
			c-0.5,0-1,0.1-1.3,0.5s-0.5,0.9-0.5,1.4V29h-1.5l0.1-6.4h1.4v0.8c0.3-0.3,0.6-0.5,1-0.7s0.8-0.2,1.3-0.2
			C105.7,22.5,106.3,22.8,106.9,23.3z"/>
		<path class="st5" d="M110.6,28.8c-0.5-0.3-0.9-0.7-1.2-1.2c-0.6-1.1-0.6-2.3,0-3.4c0.3-0.5,0.7-0.9,1.2-1.2
			c0.6-0.3,1.2-0.4,1.8-0.4c0.6,0,1.1,0.1,1.6,0.4s0.8,0.6,1.1,1.1l-1.2,0.7c-0.2-0.3-0.4-0.5-0.7-0.7c-0.3-0.1-0.6-0.2-0.9-0.2
			c-0.5,0-1,0.2-1.4,0.5c-0.8,0.8-0.8,2.1-0.1,2.9c0.4,0.4,0.9,0.6,1.4,0.6c0.3,0,0.6-0.1,0.9-0.2c0.3-0.2,0.5-0.4,0.7-0.7l1.1,0.7
			c-0.2,0.5-0.6,0.8-1.1,1.1c-0.5,0.3-1.1,0.4-1.7,0.4C111.8,29.2,111.2,29.1,110.6,28.8z"/>
		<path class="st5" d="M122.4,26.6l-5-0.1c0.1,0.5,0.3,0.9,0.7,1.1c0.4,0.3,0.9,0.4,1.4,0.4c0.7,0,1.3-0.2,1.8-0.7l0.8,0.9
			c-0.3,0.3-0.7,0.6-1.1,0.8c-1.1,0.4-2.3,0.3-3.3-0.2c-0.5-0.3-0.9-0.7-1.2-1.2c-0.3-0.5-0.4-1.1-0.4-1.7s0.2-1.2,0.5-1.7
			s0.7-0.9,1.2-1.2c0.5-0.3,1.1-0.4,1.7-0.4s1.2,0.2,1.7,0.4c0.5,0.3,0.9,0.7,1.1,1.2c0.3,0.5,0.4,1.1,0.4,1.7
			C122.4,26.2,122.4,26.4,122.4,26.6z M118,24.4c-0.3,0.3-0.6,0.7-0.6,1.1l3.6,0.1c0-0.4-0.2-0.8-0.6-1.1c-0.3-0.3-0.8-0.5-1.2-0.5
			C118.8,24,118.4,24.1,118,24.4L118,24.4z"/>
		<path class="st5" d="M132.8,21.4c0.5,0.2,0.9,0.6,1.2,1c0.3,0.5,0.4,1,0.4,1.6s-0.2,1.1-0.5,1.6c-0.3,0.4-0.8,0.8-1.3,1
			c-0.6,0.2-1.3,0.4-1.9,0.3h-1.9v2.4h-1.6l0.1-8.4h3.5C131.6,21,132.2,21.2,132.8,21.4z M132.3,25.3c0.4-0.3,0.6-0.7,0.5-1.2
			c0-0.5-0.1-0.9-0.5-1.2c-0.4-0.3-1-0.5-1.5-0.5H129l-0.1,3.3h1.8C131.3,25.8,131.8,25.6,132.3,25.3L132.3,25.3z"/>
		<path class="st5" d="M136.8,29.2c-0.5-0.3-0.9-0.7-1.2-1.2s-0.4-1.1-0.4-1.7s0.2-1.2,0.5-1.7s0.7-0.9,1.2-1.1
			c1.1-0.5,2.4-0.5,3.5,0.1c0.5,0.3,0.9,0.7,1.2,1.2c0.6,1.1,0.5,2.3-0.1,3.4c-0.3,0.5-0.7,0.9-1.2,1.2c-0.5,0.3-1.2,0.4-1.8,0.4
			C138,29.7,137.4,29.5,136.8,29.2z M140,27.9c0.4-0.4,0.6-0.9,0.6-1.4s-0.2-1.1-0.5-1.5c-0.4-0.4-0.8-0.6-1.4-0.6
			c-0.5,0-1,0.2-1.4,0.5c-0.7,0.8-0.8,2.1,0,2.9c0.3,0.4,0.8,0.6,1.4,0.6C139.1,28.4,139.6,28.2,140,27.9L140,27.9z"/>
		<path class="st5" d="M143.6,20.8h1.5l-0.2,8.9h-1.5L143.6,20.8z"/>
		<path class="st5" d="M147.1,22c-0.4-0.3-0.4-0.9,0-1.2l0,0c0.2-0.2,0.4-0.2,0.7-0.2s0.5,0.1,0.7,0.3c0.2,0.2,0.3,0.4,0.3,0.6
			s-0.1,0.5-0.3,0.7s-0.4,0.3-0.7,0.3C147.5,22.3,147.3,22.2,147.1,22z M147,23.3h1.5l-0.1,6.4h-1.5L147,23.3z"/>
		<path class="st5" d="M151.5,29.5c-0.5-0.3-0.9-0.7-1.2-1.2s-0.4-1.1-0.4-1.7s0.2-1.2,0.5-1.7s0.7-0.9,1.2-1.1
			c0.6-0.3,1.2-0.4,1.8-0.4s1.1,0.1,1.7,0.4c0.5,0.3,0.8,0.6,1,1.1l-1.2,0.7c-0.2-0.3-0.4-0.5-0.7-0.7c-0.3-0.1-0.6-0.2-0.9-0.2
			c-0.5,0-1,0.2-1.4,0.5c-0.4,0.4-0.6,0.9-0.6,1.5c0,0.5,0.2,1.1,0.5,1.5c0.4,0.4,0.9,0.6,1.4,0.6c0.3,0,0.6-0.1,0.9-0.2
			c0.3-0.2,0.5-0.4,0.7-0.7l1.1,0.7c-0.2,0.5-0.6,0.8-1.1,1.1c-0.5,0.3-1.1,0.4-1.7,0.4C152.7,29.9,152.1,29.8,151.5,29.5z"/>
		<path class="st5" d="M163.4,23.6l-3.1,6.9c-0.2,0.6-0.6,1.1-1,1.5c-0.4,0.3-0.9,0.4-1.5,0.4c-0.3,0-0.7-0.1-1-0.2
			c-0.3-0.1-0.5-0.2-0.8-0.4l0.6-1.1c0.1,0.1,0.3,0.2,0.5,0.3c0.2,0.1,0.4,0.1,0.6,0.1c0.2,0,0.5-0.1,0.7-0.2
			c0.2-0.2,0.4-0.4,0.5-0.7L159,30l-2.7-6.5h1.6l1.9,4.8l2.1-4.7C161.9,23.6,163.4,23.6,163.4,23.6z"/>
	</g>
</g>
<path class="st6" d="M150.7,85.1c-1.3,0-2.4-0.2-3.3-0.5c-0.5-0.2-0.8-0.8-0.6-1.3s0.8-0.8,1.3-0.6c0.8,0.3,2.1,0.4,3.5,0.3
	c0.5,0,1,0.4,1.1,0.9c0,0.6-0.4,1-0.9,1.1C151.4,85.1,151,85.1,150.7,85.1z M156.6,84.2c-0.4,0-0.8-0.3-1-0.7
	c-0.1-0.5,0.2-1.1,0.7-1.2c1.2-0.3,2.5-0.8,3.6-1.3c0.5-0.2,1.1,0,1.3,0.5s0,1.1-0.5,1.3c-1.2,0.6-2.6,1-3.9,1.4
	C156.8,84.2,156.7,84.2,156.6,84.2z M143.6,81.9c-0.3,0-0.5-0.1-0.7-0.3c-1.1-1.1-1.9-2.4-2.3-3.8c-0.2-0.5,0.1-1.1,0.6-1.3
	c0.5-0.2,1.1,0.1,1.3,0.6c0.3,1.1,1,2.1,1.8,3c0.4,0.4,0.4,1,0,1.4C144.1,81.8,143.8,81.9,143.6,81.9z M164.7,80.3
	c-0.3,0-0.6-0.1-0.8-0.4c-0.3-0.4-0.2-1.1,0.2-1.4c1.1-0.8,2-1.7,2.7-2.6c0.3-0.4,1-0.5,1.4-0.2s0.5,1,0.2,1.4c-0.8,1-1.9,2-3.1,2.9
	C165.1,80.2,164.9,80.3,164.7,80.3z M262.8,73.7c-0.6,0-1-0.4-1-1s0.4-1,1-1h0.1c1.3,0,2.6-0.1,3.8-0.2c0.5-0.1,1.1,0.3,1.1,0.9
	c0.1,0.5-0.3,1.1-0.9,1.1C265.6,73.7,264.2,73.7,262.8,73.7z M141.4,73.6c-0.1,0-0.1,0-0.2,0c-0.5-0.1-0.9-0.7-0.8-1.2
	c0.3-1.3,0.8-2.6,1.5-4c0.2-0.5,0.8-0.7,1.3-0.4c0.5,0.2,0.7,0.8,0.4,1.3c-0.6,1.2-1.1,2.4-1.3,3.5
	C142.3,73.3,141.9,73.6,141.4,73.6z M257.8,73.4h-0.1c-1.3-0.2-2.6-0.4-4-0.7c-0.5-0.1-0.9-0.7-0.8-1.2c0.1-0.5,0.7-0.9,1.2-0.8
	c1.3,0.3,2.6,0.5,3.9,0.7c0.5,0.1,0.9,0.6,0.9,1.1C258.7,73,258.2,73.4,257.8,73.4z M169.8,73.1c-0.1,0-0.2,0-0.2,0
	c-0.5-0.1-0.9-0.7-0.7-1.2c0.2-0.7,0.2-1.4,0.2-2.1c0-0.5,0-1-0.1-1.5s0.3-1.1,0.8-1.1c0.5-0.1,1.1,0.3,1.1,0.8
	c0.1,0.6,0.1,1.2,0.1,1.8c0,0.9-0.1,1.7-0.3,2.6C170.7,72.8,170.3,73.1,169.8,73.1z M271.6,72.3c-0.4,0-0.8-0.3-0.9-0.7
	c-0.2-0.5,0.1-1.1,0.6-1.3c1.2-0.4,2.4-1,3.5-1.6c0.5-0.3,1.1-0.1,1.4,0.4s0.1,1.1-0.4,1.4c-1.2,0.7-2.5,1.3-3.8,1.8
	C271.8,72.3,271.7,72.3,271.6,72.3z M249,71.4c-0.1,0-0.2,0-0.3,0c-0.3-0.1-0.6-0.2-0.9-0.3c-0.9-0.3-1.9-0.7-3-1.1
	c-0.5-0.2-0.7-0.8-0.5-1.3s0.8-0.7,1.3-0.5c1,0.4,1.9,0.8,2.8,1c0.3,0.1,0.6,0.2,0.9,0.3c0.5,0.2,0.8,0.7,0.7,1.2
	C249.8,71.1,249.4,71.4,249,71.4z M240.7,67.8c-0.2,0-0.3,0-0.5-0.1c-1.1-0.6-2.3-1.3-3.5-2c-0.5-0.3-0.6-0.9-0.3-1.4
	s0.9-0.6,1.4-0.3c1.2,0.7,2.4,1.4,3.4,2c0.5,0.3,0.7,0.9,0.4,1.4C241.4,67.7,241.1,67.8,240.7,67.8z M279.2,67.7
	c-0.3,0-0.6-0.1-0.8-0.3c-0.4-0.4-0.3-1,0.1-1.4c0.9-0.8,1.7-1.6,2.5-2.5c-0.8,0.1-1.7,0.1-2.5,0.1c-0.6,0-1-0.4-1-1s0.4-1,1-1
	c1.3-0.1,2.6-0.1,3.9-0.3c0.6,0,1,0.4,1.1,0.9c0,0.5-0.3,0.9-0.7,1c0.3,0.4,0.3,0.9-0.1,1.3c-0.9,1.1-1.9,2-2.9,2.9
	C279.7,67.6,279.5,67.7,279.2,67.7z M145.4,65.6c-0.2,0-0.4-0.1-0.6-0.2c-0.4-0.3-0.5-1-0.2-1.4c0.8-1,1.6-2.1,2.6-3.2
	c0.4-0.4,1-0.5,1.4-0.1s0.4,1,0.1,1.4c-0.9,1-1.7,2-2.5,3C146,65.5,145.7,65.6,145.4,65.6z M168.4,64.5c-0.4,0-0.7-0.2-0.9-0.5
	c-0.5-1.1-1.2-2.1-2-3.2c-0.3-0.4-0.2-1.1,0.2-1.4c0.4-0.3,1.1-0.2,1.4,0.2c0.9,1.2,1.6,2.4,2.2,3.5c0.3,0.5,0.1,1.1-0.4,1.3
	C168.7,64.4,168.5,64.5,168.4,64.5z M273.6,63.6L273.6,63.6c-1.4,0-2.8-0.1-4.1-0.2c-0.6,0-1-0.5-0.9-1.1c0-0.5,0.5-1,1.1-0.9
	c1.3,0.1,2.6,0.2,3.9,0.2c0.6,0,1,0.5,1,1C274.6,63.2,274.1,63.6,273.6,63.6z M233,63.2c-0.2,0-0.4-0.1-0.5-0.2
	c-1.1-0.7-2.2-1.5-3.3-2.2c-0.5-0.3-0.6-0.9-0.3-1.4s0.9-0.6,1.4-0.3c1.1,0.8,2.2,1.5,3.3,2.2c0.5,0.3,0.6,0.9,0.3,1.4
	C233.7,63,233.3,63.2,233,63.2z M264.6,62.8c-0.1,0-0.1,0-0.2,0c-1.4-0.3-2.7-0.6-4-0.9c-0.5-0.2-0.8-0.7-0.7-1.2
	c0.2-0.5,0.7-0.8,1.2-0.7c1.2,0.3,2.5,0.6,3.8,0.9c0.5,0.1,0.9,0.6,0.8,1.2C265.5,62.4,265.1,62.8,264.6,62.8z M287.5,62.7
	c-0.5,0-0.9-0.4-1-0.9s0.3-1.1,0.8-1.1c1.3-0.2,2.6-0.4,3.9-0.6c0.5-0.1,1.1,0.3,1.2,0.8s-0.3,1.1-0.8,1.2c-1.3,0.2-2.7,0.5-4,0.7
	C287.6,62.7,287.6,62.7,287.5,62.7z M296.4,61c-0.5,0-0.9-0.3-1-0.8s0.2-1.1,0.7-1.2c1.3-0.3,2.6-0.6,3.8-1c0.5-0.1,1.1,0.2,1.2,0.7
	c0.2,0.5-0.2,1.1-0.7,1.2c-1.3,0.4-2.6,0.7-3.9,1C296.5,61,296.5,61,296.4,61z M285.1,60.9c-0.2,0-0.4-0.1-0.6-0.2
	c-0.5-0.3-0.6-0.9-0.3-1.4c0.6-0.8,1.1-1.7,1.7-2.6c0.1-0.2,0.3-0.5,0.4-0.7c0.3-0.5,0.9-0.7,1.4-0.4s0.7,0.9,0.4,1.4
	c-0.1,0.3-0.3,0.5-0.5,0.8c-0.6,0.9-1.1,1.8-1.7,2.7C285.7,60.8,285.4,60.9,285.1,60.9z M256.1,60.1c-0.1,0-0.3,0-0.4-0.1
	c-1.3-0.7-2.5-1.4-3.6-2.2c-0.4-0.3-0.5-1-0.2-1.4s1-0.5,1.4-0.2c0.9,0.7,2,1.4,3.2,2c0.5,0.2,0.7,0.8,0.5,1.3
	C256.8,59.9,256.4,60.1,256.1,60.1z M151.4,58.9c-0.3,0-0.5-0.1-0.7-0.3c-0.4-0.4-0.4-1,0-1.4c1-0.9,2-1.8,3-2.7
	c0.4-0.4,1.1-0.3,1.4,0.1s0.3,1.1-0.1,1.4c-1,0.9-2,1.8-2.9,2.6C151.9,58.8,151.7,58.9,151.4,58.9z M305,58.5
	c-0.4,0-0.8-0.3-0.9-0.7c-0.2-0.5,0.1-1.1,0.6-1.3c1.3-0.5,2.5-0.9,3.7-1.4c0.5-0.2,1.1,0,1.3,0.5c0.2,0.5,0,1.1-0.5,1.3
	c-1.2,0.5-2.5,1-3.8,1.5C305.2,58.5,305.1,58.5,305,58.5z M225.6,58.1c-0.2,0-0.4-0.1-0.6-0.2c-1-0.7-2-1.4-3.1-2.1l-0.2-0.2
	c-0.5-0.3-0.6-0.9-0.2-1.4c0.3-0.5,0.9-0.6,1.4-0.2l0.2,0.2c1,0.7,2,1.4,3,2.1c0.5,0.3,0.6,0.9,0.2,1.4
	C226.2,58,225.9,58.1,225.6,58.1z M163,57.3c-0.3,0-0.5-0.1-0.7-0.3c-0.9-0.9-1.8-1.8-2.8-2.7c-0.4-0.4-0.5-1-0.1-1.4s1-0.5,1.4-0.1
	c1.1,0.9,2.1,1.9,3,2.8c0.4,0.4,0.4,1,0,1.4C163.5,57.2,163.2,57.3,163,57.3z M313.3,54.9c-0.4,0-0.7-0.2-0.9-0.5
	c-0.3-0.5-0.1-1.1,0.4-1.4c1.2-0.7,2.3-1.4,3.3-2.1c0.4-0.3,1.1-0.2,1.4,0.2s0.2,1.1-0.2,1.4c-1,0.8-2.2,1.5-3.5,2.2
	C313.6,54.9,313.4,54.9,313.3,54.9z M249.3,54.3c-0.3,0-0.6-0.2-0.8-0.4c-0.8-1.2-1.4-2.4-1.9-3.7c-0.2-0.5,0.1-1.1,0.6-1.3
	s1.1,0.1,1.3,0.6c0.5,1.2,1,2.3,1.7,3.3c0.3,0.5,0.2,1.1-0.3,1.4C249.7,54.2,249.5,54.3,249.3,54.3z M158.3,53.1
	c-0.3,0-0.6-0.1-0.8-0.4c-0.3-0.4-0.2-1.1,0.2-1.4c1.1-0.8,2.2-1.6,3.3-2.4c0.5-0.3,1.1-0.2,1.4,0.2c0.3,0.5,0.2,1.1-0.2,1.4
	c-1.1,0.8-2.2,1.5-3.2,2.3C158.7,53.1,158.5,53.1,158.3,53.1z M218.2,52.9c-0.2,0-0.4-0.1-0.6-0.2c-1.1-0.8-2.2-1.5-3.3-2.3
	c-0.5-0.3-0.6-0.9-0.3-1.4s0.9-0.6,1.4-0.3c1.1,0.7,2.2,1.5,3.3,2.3c0.5,0.3,0.6,0.9,0.3,1.4C218.8,52.8,218.5,52.9,218.2,52.9z
	 M289.1,52.9c-0.1,0-0.2,0-0.3,0c-0.5-0.1-0.8-0.7-0.7-1.2c0.3-1.2,0.6-2.5,0.7-3.8c0.1-0.5,0.6-0.9,1.1-0.9
	c0.5,0.1,0.9,0.6,0.9,1.1c-0.2,1.4-0.4,2.8-0.8,4.1C290,52.6,289.6,52.9,289.1,52.9z M156.2,51.4c-0.2,0-0.4-0.1-0.6-0.2
	c-1-0.8-2.1-1.6-3.2-2.3c-0.5-0.3-0.6-0.9-0.2-1.4c0.3-0.5,0.9-0.6,1.4-0.2c1.1,0.8,2.2,1.6,3.3,2.4c0.4,0.3,0.5,1,0.2,1.4
	C156.8,51.2,156.5,51.4,156.2,51.4z M320.2,49.2c-0.2,0-0.4-0.1-0.6-0.2c-0.4-0.3-0.5-1-0.2-1.4c0.8-1,1.6-2.1,2.2-3.2
	c0.3-0.5,0.9-0.6,1.4-0.3s0.6,0.9,0.3,1.4c-0.7,1.1-1.5,2.3-2.4,3.4C320.7,49.1,320.5,49.2,320.2,49.2z M165.7,48
	c-0.3,0-0.7-0.2-0.8-0.5c-0.3-0.5-0.1-1.1,0.3-1.4c1.1-0.7,2.3-1.4,3.5-2.1c0.5-0.3,1.1-0.1,1.4,0.4c0.3,0.5,0.1,1.1-0.4,1.4
	c-1.1,0.6-2.3,1.3-3.4,2C166.1,48,165.9,48,165.7,48z M210.7,47.9c-0.2,0-0.4-0.1-0.5-0.2c-1.1-0.7-2.3-1.4-3.4-2.1
	c-0.5-0.3-0.6-0.9-0.3-1.4s0.9-0.6,1.4-0.3c1.1,0.7,2.3,1.4,3.4,2.1c0.5,0.3,0.6,0.9,0.3,1.4C211.4,47.7,211,47.9,210.7,47.9z
	 M148.8,46.2c-0.2,0-0.4-0.1-0.5-0.2c-1.1-0.7-2.2-1.4-3.4-2.1c-0.5-0.3-0.6-0.9-0.3-1.4s0.9-0.6,1.4-0.3c1.2,0.7,2.3,1.4,3.4,2.1
	c0.5,0.3,0.6,0.9,0.3,1.4C149.5,46.1,149.2,46.2,148.8,46.2z M246.4,45.9c-0.5,0-0.9-0.4-1-0.9c-0.1-0.7-0.1-1.5-0.1-2.2
	c0-0.6,0-1.3,0.1-1.9c0-0.5,0.5-1,1.1-0.9c0.6,0,1,0.5,0.9,1.1c0,0.6-0.1,1.2-0.1,1.8c0,0.7,0,1.4,0.1,2c0.1,0.5-0.3,1-0.9,1.1
	C246.4,45.9,246.4,45.9,246.4,45.9z M289.9,44c-0.5,0-1-0.4-1-0.9c-0.1-1.3-0.3-2.6-0.5-3.8c-0.1-0.5,0.2-1.1,0.8-1.2
	c0.5-0.1,1.1,0.2,1.2,0.8c0.3,1.4,0.5,2.7,0.5,4.1C291,43.5,290.6,43.9,289.9,44C290,44,290,44,289.9,44z M173.6,43.6
	c-0.4,0-0.7-0.2-0.9-0.6c-0.2-0.5,0-1.1,0.5-1.3c1.3-0.6,2.5-1.2,3.7-1.7c0.5-0.2,1.1,0,1.3,0.5s0,1.1-0.5,1.3
	c-1.2,0.5-2.4,1-3.6,1.6C173.9,43.6,173.7,43.6,173.6,43.6z M203,43.3c-0.2,0-0.3,0-0.5-0.1c-1.2-0.6-2.4-1.2-3.5-1.7
	c-0.5-0.2-0.7-0.8-0.5-1.3s0.8-0.7,1.3-0.5c1.2,0.5,2.4,1.1,3.7,1.8c0.5,0.3,0.7,0.9,0.4,1.4C203.7,43.1,203.3,43.3,203,43.3z
	 M141.1,41.6c-0.2,0-0.3,0-0.5-0.1c-1.1-0.6-2.3-1.3-3.5-1.9c-0.5-0.3-0.7-0.9-0.4-1.4s0.9-0.7,1.4-0.4c1.2,0.7,2.4,1.3,3.5,1.9
	c0.5,0.3,0.7,0.9,0.4,1.4C141.8,41.4,141.5,41.6,141.1,41.6z M324.6,41.5c-0.1,0-0.2,0-0.3-0.1c-0.5-0.2-0.8-0.8-0.6-1.3
	c0.4-1.2,0.8-2.4,1-3.7c0.1-0.5,0.6-0.9,1.2-0.8c0.5,0.1,0.9,0.6,0.8,1.2c-0.3,1.4-0.6,2.7-1.1,4C325.4,41.2,325,41.5,324.6,41.5z
	 M181.9,40.2c-0.4,0-0.8-0.3-1-0.7c-0.2-0.5,0.1-1.1,0.7-1.3c1.4-0.4,2.8-0.8,4-1c0.5-0.1,1.1,0.3,1.2,0.8s-0.3,1.1-0.8,1.2
	c-1.2,0.2-2.4,0.5-3.8,1C182.1,40.2,182,40.2,181.9,40.2z M194.7,39.8c-0.1,0-0.2,0-0.3,0c-1.3-0.4-2.6-0.7-3.7-0.8
	c-0.5-0.1-0.9-0.6-0.9-1.1c0.1-0.5,0.6-0.9,1.1-0.9c1.3,0.1,2.7,0.4,4.1,0.9c0.5,0.2,0.8,0.7,0.7,1.2
	C195.5,39.5,195.1,39.8,194.7,39.8z M247.2,37c-0.1,0-0.2,0-0.3,0c-0.5-0.2-0.8-0.7-0.7-1.2c0.4-1.3,0.9-2.6,1.4-3.9
	c0.2-0.5,0.8-0.7,1.3-0.5s0.7,0.8,0.5,1.3c-0.5,1.2-1,2.4-1.3,3.6C248.1,36.7,247.7,37,247.2,37z M288.1,35.2
	c-0.4,0-0.8-0.3-0.9-0.7c-0.4-1.2-1-2.4-1.5-3.6c-0.2-0.5,0-1.1,0.4-1.3c0.5-0.2,1.1,0,1.3,0.4c0.6,1.2,1.2,2.5,1.6,3.8
	c0.2,0.5-0.1,1.1-0.6,1.3C288.3,35.2,288.2,35.2,288.1,35.2z M326.2,32.7L326.2,32.7c-0.6,0-1-0.5-1-1c0-0.6,0-1.2,0-1.9
	c0-0.7,0-1.4,0-2s0.4-1,1-1s1,0.4,1,1c0,0.7,0,1.4,0,2.1s0,1.3,0,2C327.2,32.2,326.8,32.7,326.2,32.7z M251,28.9
	c-0.2,0-0.4-0.1-0.6-0.2c-0.5-0.3-0.6-0.9-0.3-1.4c0.8-1.2,1.6-2.3,2.5-3.3c0.4-0.4,1-0.5,1.4-0.1s0.5,1,0.1,1.4
	c-0.8,1-1.6,2-2.4,3.1C251.7,28.7,251.4,28.9,251,28.9z M283.9,27.3c-0.3,0-0.6-0.1-0.8-0.4c-0.8-1.1-1.6-2.1-2.5-3
	c-0.4-0.4-0.4-1,0-1.4s1-0.4,1.4,0c0.9,1,1.8,2,2.7,3.2c0.3,0.4,0.2,1.1-0.2,1.4C284.3,27.2,284.1,27.3,283.9,27.3z M325.9,23.7
	c-0.5,0-1-0.4-1-0.9c-0.1-1.3-0.2-2.6-0.4-4c-0.1-0.5,0.3-1,0.9-1.1s1,0.3,1.1,0.9c0.1,1.4,0.3,2.7,0.4,4
	C327,23.1,326.6,23.6,325.9,23.7C326,23.7,326,23.7,325.9,23.7z M257.1,22.3c-0.3,0-0.6-0.1-0.8-0.4c-0.3-0.4-0.3-1.1,0.2-1.4
	c1.1-0.9,2.3-1.6,3.5-2.3c0.5-0.3,1.1-0.1,1.3,0.4c0.3,0.5,0.1,1.1-0.4,1.3c-1.1,0.6-2.2,1.3-3.2,2.1
	C257.5,22.2,257.3,22.3,257.1,22.3z M277.5,21c-0.2,0-0.4-0.1-0.5-0.2c-1.1-0.7-2.2-1.3-3.4-1.7c-0.5-0.2-0.8-0.8-0.6-1.3
	c0.2-0.5,0.8-0.8,1.3-0.6c1.3,0.5,2.5,1.1,3.7,1.9c0.5,0.3,0.6,0.9,0.3,1.4C278.2,20.8,277.8,21,277.5,21z M265.1,18.4
	c-0.5,0-0.9-0.3-1-0.8s0.2-1.1,0.8-1.2c1.4-0.3,2.8-0.4,4.1-0.3h0.1c0.6,0,1,0.5,0.9,1.1c0,0.6-0.5,1-1.1,0.9h-0.1
	C267.6,18,266.4,18.1,265.1,18.4C265.3,18.4,265.2,18.4,265.1,18.4z M325,14.7c-0.5,0-0.9-0.4-1-0.9c-0.1-1.2-0.2-2.5-0.3-3.8
	c0-0.6,0.4-1,0.9-1.1c0.6-0.1,1,0.4,1.1,0.9c0.1,1.3,0.2,2.6,0.3,3.8C326.1,14.2,325.7,14.7,325,14.7
	C325.1,14.7,325.1,14.7,325,14.7z"/>
<path class="st6" d="M320,15.1c-0.2,0-0.4-0.1-0.6-0.2c-0.4-0.3-0.5-1-0.2-1.4l4.7-6.1c0.2-0.2,0.4-0.4,0.7-0.4
	c0.3,0,0.6,0.1,0.8,0.3l5.3,5.3c0.4,0.4,0.4,1,0,1.4s-1,0.4-1.4,0l-4.5-4.5l-4,5.2C320.6,15,320.3,15.1,320,15.1z"/>
</svg>
