<svg xmlns="http://www.w3.org/2000/svg" width="18" height="18" viewBox="0 0 18 18">
  <g id="Group_70910" data-name="Group 70910" transform="translate(-1319.002 -587)">
    <rect id="Rectangle_57056" data-name="Rectangle 57056" width="18" height="18" transform="translate(1319.002 587)" fill="none"/>
    <path id="Path_35733" data-name="Path 35733" d="M13.744,2.106A7.263,7.263,0,0,0,7.8.635,6.969,6.969,0,0,0,3.474,11.653c1,1.329,3.894,4.4,5.09,5.662a.889.889,0,0,0,1.3,0c1.19-1.261,4.064-4.34,5.062-5.659a6.9,6.9,0,0,0-1.187-9.55m-.041,5.4A4.5,4.5,0,1,1,9.118,3.093H9.2a4.463,4.463,0,0,1,4.5,4.419Z" transform="translate(1318.791 586.95)" fill="#b7b7b7"/>
  </g>
</svg>
