<svg xmlns="http://www.w3.org/2000/svg" width="18" height="18" viewBox="0 0 18 18">
  <g id="Company" transform="translate(-1466 -745)">
    <path id="Path_35379" data-name="Path 35379" d="M9,17H1.616C1.167,17,1,16.837,1,16.391V15.258a.485.485,0,0,1,.366-.512c.147-.052.3-.1.444-.148A1.06,1.06,0,0,0,2.6,13.484V2.22A1.147,1.147,0,0,1,3.42,1.058,1.452,1.452,0,0,1,3.829,1H14.177A1.154,1.154,0,0,1,15.4,2.084a.938.938,0,0,1,0,.141v11.23a1.067,1.067,0,0,0,.83,1.156c.151.051.306.1.454.157a.452.452,0,0,1,.313.444c0,.433.006.866,0,1.3A.473.473,0,0,1,16.48,17H9M5.268,5.268v.749a.553.553,0,0,0,.523.583.4.4,0,0,0,.065,0h1.5a.551.551,0,0,0,.58-.524.5.5,0,0,0,0-.052q.005-.757,0-1.511a.553.553,0,0,0-.524-.58.393.393,0,0,0-.056,0h-1.5a.553.553,0,0,0-.587.518q0,.032,0,.064v.749M11.383,6.6h.783a.551.551,0,0,0,.566-.537V6.029q.005-.757,0-1.516a.553.553,0,0,0-.525-.579H10.645a.551.551,0,0,0-.574.526.516.516,0,0,0,0,.052q-.005.748,0,1.5a.555.555,0,0,0,.518.588h.8M7.934,9.534V8.8a.555.555,0,0,0-.509-.6.492.492,0,0,0-.081,0H5.862a.555.555,0,0,0-.594.513.6.6,0,0,0,0,.08v1.482a.554.554,0,0,0,.517.589.5.5,0,0,0,.063,0h1.5a.553.553,0,0,0,.585-.522.374.374,0,0,0,0-.063V9.532M11.4,8.2h-.765a.553.553,0,0,0-.566.54V8.77c0,.5,0,1.01,0,1.511a.552.552,0,0,0,.524.579h1.562a.553.553,0,0,0,.575-.53.465.465,0,0,0,0-.05v-1.5a.555.555,0,0,0-.519-.587H11.4" transform="translate(1466 745)" fill="#919191"/>
    <rect id="Rectangle_52875" data-name="Rectangle 52875" width="18" height="18" transform="translate(1466 745)" fill="none"/>
  </g>
</svg>
