<?xml version="1.0" encoding="utf-8"?>
<!-- Generator: Adobe Illustrator 26.0.3, SVG Export Plug-In . SVG Version: 6.00 Build 0)  -->
<svg version="1.1" id="Layer_1" xmlns="http://www.w3.org/2000/svg" xmlns:xlink="http://www.w3.org/1999/xlink" x="0px" y="0px"
	 viewBox="0 0 294 102" style="enable-background:new 0 0 294 102;" xml:space="preserve">
<style type="text/css">
	.st0{fill:none;stroke:#DADADA;stroke-width:2;stroke-miterlimit:10;}
	.st1{fill:#919191;}
	.st2{fill:#B7B7B7;}
	.st3{fill:#E5E5E5;}
	.st4{fill:#FFFFFF;}
	.st5{fill:#6C6C6C;}
	.st6{fill:#778FBB;}
</style>
<line class="st0" x1="49.3" y1="81.9" x2="12" y2="81.9"/>
<path class="st1" d="M45.3,56.4l-27.1-3.6l4-1.9l24,4.6L45.3,56.4z"/>
<path class="st2" d="M58,55.1c0,0-5.6,1.9-8.3-0.5s-3.1-6-1.1-7.7s5.5-0.9,8,1.3S58,55,58,55.1"/>
<path class="st2" d="M49,61.2c-2.7,2.1-6,2.8-7.6,1.2S41,57.5,44,55.3s6.4-2.2,7.7-0.5S51.6,59.1,49,61.2"/>
<path class="st2" d="M42.7,62.8c0.5,2.5-3.2,5.1-8.4,6.3c-5.3,1.4-11.5-6.8-11.4-6.9c2.9-1.7,6-2.8,9.3-3.2
	C37.7,58.4,42.3,60.3,42.7,62.8"/>
<path class="st1" d="M57.4,49.4c0.2,1.4,0.2,2.9-0.1,4.3c0,0-5.6,1.8-8.3-0.7c-0.8-0.7-1.4-1.6-1.8-2.5c0.3,1.6,1.1,3,2.3,4
	c2.7,2.3,8.3,0.5,8.3,0.5C58.3,53.1,58.1,51.2,57.4,49.4"/>
<path class="st1" d="M52,57.3c-0.6,0.8-1.4,1.6-2.2,2.2c-2.8,2-6.1,2.6-7.6,1c-0.6-0.8-0.8-1.8-0.5-2.7c-1.1,1.8-1.2,3.6-0.2,4.6
	c1.5,1.6,4.9,0.8,7.6-1.2C50.4,60.2,51.4,58.8,52,57.3"/>
<path class="st1" d="M42.7,63.1c-2.1,2.1-4.9,3.5-7.9,3.9c-3.9,0.8-8.3-3.3-10.1-5.7c-0.6,0.3-1.2,0.6-1.8,1
	c-0.1,0.1,6,8.3,11.4,6.9C39.3,68,42.9,65.6,42.7,63.1"/>
<path class="st1" d="M30.4,66.3c-0.1-0.1-0.2-0.2-0.3-0.3c0,0,0,0,0-0.1c-1.6,1.3-4.7,4.1-4.7,4.1s-7.2,8.3-7.3,11.7
	c1.7-0.2,3.3-0.2,5,0l3.4-11.4C26.6,70.4,29.2,67.6,30.4,66.3"/>
<path class="st1" d="M37.1,67.4c1,1.7,6.2,3.3,6.2,3.3l0.7,11l-4,0.2l1.9-11.2c0,0-4.5-1.3-5.2-3L37.1,67.4z"/>
<path class="st1" d="M69.9,52.2L60.1,60l-9.4-0.7l-1.2,0.8l9.9,1.6l9.1-5.2l3.9-3.2c0.2-0.8-0.3-1.6-1.1-1.8
	C70.8,51.6,70.3,51.8,69.9,52.2L69.9,52.2z"/>
<path class="st1" d="M50.3,48.9c-0.2-0.1,1.8-10.5,0.5-12.7c-1.6-2.2-6-3.9-7.5-0.8s0.4,1.9,0.6,1.5s-0.2-1.2-0.2-1.3
	c0.5-1.3,2.1-1.9,3.4-1.4l0,0l0,0c2.5,0.8,3.4,1.8,3.7,2.9s-0.4,7.7-0.4,8.1c-0.2,1.2-0.4,2.4-0.5,3.6
	C49.9,48.7,50.1,49.3,50.3,48.9"/>
<path class="st1" d="M53.8,47.5C53.5,47.2,60,34.9,58.4,33c-1.9-2.3-4.1-2.6-4.9-1.5c-0.8,1.1-1.1,3-0.2,2.4s0.1-0.9,0.1-0.9
	s-0.6-1.3,1.4-1.3s3.4,0.8,3.2,2.5c-0.1,1.3-0.4,2.5-0.9,3.7c-0.8,1.8-4,9.4-3.8,9.5S53.2,47.8,53.8,47.5"/>
<path class="st3" d="M163,16.6l1.8,27.7c0,2.8-2.2,5.2-5,5.3l-82.1,5.8L71,55.9c-2.5,0.3-4.8-1.5-5.1-4.1l0,0l-0.9-14l-1-14.2
	c-0.1-2.8,2.2-5.2,5-5.3l88.3-6.3C160.2,11.7,162.7,13.7,163,16.6L163,16.6"/>
<path class="st4" d="M162.3,17l1.8,27.2c0,2.8-2.2,5.1-5,5.2L77.6,55L71,55.5c-2.5,0.3-4.7-1.5-5-4l0,0l-0.9-13.7l-0.9-13.9
	c0-2.8,2.2-5.1,5-5.2l87.6-6.2C159.6,12.2,162.1,14.2,162.3,17C162.4,16.9,162.4,17,162.3,17L162.3,17"/>
<g>
	<g>
		<path class="st5" d="M76.4,32.2l-4.2,0.4l-0.7,2L70,34.7l3-8.7l1.5-0.1l4.5,8L77.4,34L76.4,32.2z M75.8,31l-1.9-3.5l-1.2,3.8
			L75.8,31z"/>
		<path class="st5" d="M85.3,24.4l0.8,8.9l-1.4,0.1l-0.1-0.8c-0.2,0.3-0.5,0.6-0.9,0.8s-0.8,0.3-1.2,0.3c-0.6,0.1-1.2,0-1.7-0.3
			c-0.5-0.2-0.9-0.6-1.3-1c-0.3-0.5-0.5-1.1-0.6-1.7s0-1.2,0.3-1.8c0.2-0.5,0.6-0.9,1-1.2c0.5-0.3,1-0.5,1.6-0.5
			c0.4,0,0.8,0,1.2,0.1c0.4,0.1,0.7,0.3,1,0.6l-0.3-3.3L85.3,24.4z M83.6,32c0.3-0.2,0.5-0.5,0.6-0.8c0.2-0.3,0.2-0.7,0.2-1.1
			s-0.2-0.7-0.3-1c-0.2-0.3-0.4-0.5-0.7-0.6c-0.6-0.3-1.4-0.2-1.9,0.2c-0.3,0.2-0.5,0.4-0.6,0.8c-0.1,0.3-0.2,0.7-0.2,1.1
			s0.2,0.7,0.3,1c0.2,0.3,0.4,0.5,0.7,0.6c0.3,0.1,0.7,0.2,1,0.2C83,32.3,83.3,32.2,83.6,32z"/>
		<path class="st5" d="M93.5,23.7l0.8,8.9l-1.4,0.1l-0.1-0.8c-0.2,0.3-0.5,0.6-0.9,0.8S91.1,33,90.7,33c-0.6,0.1-1.2,0-1.7-0.3
			c-0.5-0.2-0.9-0.6-1.2-1.1c-0.3-0.5-0.5-1.1-0.6-1.7s0-1.2,0.3-1.7c0.2-0.5,0.6-0.9,1-1.2c0.5-0.3,1-0.5,1.6-0.5
			c0.4,0,0.8,0,1.2,0.1c0.4,0.1,0.7,0.3,1,0.6L92,23.8L93.5,23.7z M91.8,31.3c0.3-0.2,0.5-0.5,0.6-0.8s0.2-0.7,0.2-1.1
			s-0.2-0.7-0.3-1c-0.2-0.3-0.4-0.5-0.7-0.6c-0.3-0.1-0.7-0.2-1-0.2s-0.7,0.1-0.9,0.3c-0.3,0.2-0.5,0.5-0.6,0.8s-0.2,0.7-0.2,1.1
			s0.2,0.7,0.3,1c0.2,0.3,0.4,0.5,0.7,0.6c0.3,0.1,0.7,0.2,1,0.2C91.1,31.6,91.5,31.5,91.8,31.3z"/>
		<path class="st5" d="M100.5,24.9l0.2,2.5l4-0.3l0.1,1.3l-4,0.3l0.3,3.2L99.5,32l-0.7-8.4l6.1-0.5l0.1,1.3L100.5,24.9z"/>
		<path class="st5" d="M110.9,25.3c0.6,0.5,0.9,1.2,0.9,2l0.3,3.7l-1.4,0.1l-0.1-0.8c-0.2,0.3-0.4,0.5-0.7,0.7
			c-0.4,0.2-0.8,0.3-1.2,0.3c-0.4,0-0.9,0-1.3-0.1s-0.7-0.3-0.9-0.6c-0.2-0.3-0.4-0.6-0.4-1c-0.1-0.5,0.1-1.1,0.5-1.4
			c0.6-0.5,1.3-0.7,2-0.7l1.7-0.1v-0.1c0-0.4-0.2-0.8-0.5-1c-0.4-0.2-0.8-0.3-1.2-0.2c-0.3,0-0.7,0.1-1,0.2s-0.6,0.3-0.8,0.5l-0.7-1
			c0.3-0.3,0.7-0.5,1.2-0.7s1-0.3,1.5-0.3C109.5,24.7,110.2,24.9,110.9,25.3z M109.9,29.9c0.3-0.2,0.5-0.5,0.6-0.8l-0.1-0.7
			l-1.5,0.1c-0.9,0.1-1.3,0.4-1.2,1c0,0.3,0.2,0.5,0.4,0.6c0.3,0.2,0.6,0.2,0.9,0.2C109.2,30.3,109.6,30.2,109.9,29.9L109.9,29.9z"
			/>
		<path class="st5" d="M115.1,30.4c-0.5-0.2-1-0.6-1.3-1.1c-0.7-1-0.8-2.3-0.3-3.4c0.2-0.5,0.6-1,1.1-1.3s1.1-0.5,1.8-0.6
			c0.6-0.1,1.2,0,1.7,0.2s0.9,0.6,1.2,1l-1.1,0.8c-0.2-0.3-0.4-0.5-0.7-0.6c-0.8-0.3-1.7-0.1-2.3,0.5c-0.3,0.4-0.5,1-0.4,1.5
			c0,0.5,0.3,1,0.7,1.4c0.4,0.3,0.9,0.5,1.4,0.4c0.3,0,0.6-0.1,0.9-0.3c0.3-0.2,0.5-0.4,0.6-0.7l1.2,0.6c-0.2,0.5-0.6,0.9-1,1.2
			c-0.5,0.3-1,0.5-1.6,0.5C116.3,30.7,115.7,30.7,115.1,30.4z"/>
		<path class="st5" d="M124.8,29.6c-0.2,0.2-0.4,0.3-0.6,0.4c-0.3,0.1-0.5,0.2-0.8,0.2c-0.6,0.1-1.2-0.1-1.7-0.4
			c-0.4-0.4-0.7-1-0.7-1.5l-0.3-3.1l-1,0.1l-0.1-1.2l1-0.1l-0.1-1.5l1.5-0.1l0.1,1.5l1.7-0.2l0.1,1.2l-1.7,0.2l0.3,3
			c0,0.3,0.1,0.5,0.3,0.7c0.2,0.2,0.4,0.2,0.7,0.2c0.3,0,0.6-0.1,0.8-0.3L124.8,29.6z"/>
		<path class="st5" d="M126.9,29.4c-0.5-0.2-1-0.6-1.3-1.1s-0.5-1.1-0.6-1.7s0-1.2,0.3-1.7c0.2-0.5,0.6-1,1.1-1.3s1.1-0.5,1.7-0.6
			s1.2,0,1.8,0.3c0.5,0.2,1,0.6,1.3,1.1s0.5,1.1,0.6,1.7s0,1.2-0.3,1.7c-0.2,0.5-0.6,1-1.1,1.3s-1.1,0.5-1.7,0.6
			C128,29.7,127.4,29.6,126.9,29.4z M129.9,27.7c0.3-0.4,0.5-1,0.4-1.5c0-0.5-0.3-1-0.7-1.4c-0.4-0.3-0.9-0.5-1.4-0.4
			c-0.5,0-1,0.3-1.3,0.7c-0.3,0.4-0.5,1-0.4,1.5c0,0.5,0.3,1,0.7,1.4c0.4,0.3,0.9,0.5,1.4,0.4C129.1,28.4,129.5,28.1,129.9,27.7
			L129.9,27.7z"/>
		<path class="st5" d="M136.6,22.4l0.1,1.4c-0.1,0-0.2,0-0.3,0c-0.5,0-1,0.2-1.3,0.6s-0.5,1-0.4,1.5L135,29l-1.5,0.1l-0.5-6.4
			l1.4-0.1l0.1,0.9C134.8,22.9,135.7,22.4,136.6,22.4z"/>
		<path class="st5" d="M137.7,21.1c-0.2-0.2-0.3-0.4-0.3-0.6s0.1-0.5,0.2-0.7c0.2-0.2,0.4-0.3,0.7-0.3s0.5,0,0.7,0.2
			c0.2,0.1,0.3,0.4,0.3,0.6s0,0.5-0.2,0.7s-0.4,0.3-0.7,0.3C138.2,21.3,137.9,21.2,137.7,21.1z M137.7,22.4l1.5-0.1l0.5,6.4
			l-1.5,0.1L137.7,22.4z"/>
		<path class="st5" d="M146.8,22.2c0.6,0.5,0.9,1.2,0.9,2l0.3,3.7l-1.5,0.1l-0.3-3.5c0-0.5-0.2-0.9-0.5-1.2
			c-0.3-0.3-0.7-0.4-1.2-0.3c-0.5,0-0.9,0.2-1.3,0.6c-0.3,0.4-0.4,1-0.3,1.5l0.3,3.2l-1.5,0.1l-0.5-6.4l1.4-0.1l0.1,0.8
			c0.2-0.3,0.5-0.6,0.9-0.8c0.4-0.2,0.8-0.3,1.2-0.3C145.5,21.6,146.2,21.8,146.8,22.2z"/>
		<path class="st5" d="M155.7,20.8l0.5,5.4c0.2,2.3-0.9,3.5-3.2,3.7c-0.6,0-1.2,0-1.8-0.1c-0.5-0.1-1-0.3-1.4-0.6l0.6-1.2
			c0.3,0.2,0.7,0.4,1.1,0.5c0.4,0.1,0.9,0.1,1.3,0.1c0.6,0,1.1-0.2,1.5-0.6c0.3-0.4,0.5-1,0.4-1.5v-0.3c-0.2,0.3-0.5,0.6-0.9,0.7
			c-0.9,0.4-1.9,0.4-2.9,0.1c-0.5-0.2-0.9-0.6-1.3-1c-0.3-0.5-0.5-1-0.6-1.6s0-1.1,0.3-1.7c0.2-0.5,0.6-0.9,1.1-1.2
			c0.5-0.3,1-0.5,1.6-0.5c0.4,0,0.9,0,1.3,0.1c0.4,0.1,0.7,0.3,1,0.6l-0.1-0.8L155.7,20.8z M154,25.3c0.3-0.4,0.5-0.9,0.4-1.4
			c0-0.5-0.3-0.9-0.7-1.2c-0.4-0.3-0.9-0.4-1.4-0.4s-1,0.2-1.4,0.6c-0.3,0.4-0.5,0.9-0.4,1.3c0,0.5,0.3,1,0.7,1.3
			C152.1,26.2,153.3,26.1,154,25.3z"/>
	</g>
	<g>
		<path class="st5" d="M74,48.9c-0.7-0.3-1.3-0.8-1.7-1.4c-0.4-0.6-0.7-1.4-0.8-2.2c-0.1-0.8,0.1-1.6,0.4-2.3s0.8-1.3,1.5-1.7
			c1.2-0.8,2.8-1,4.2-0.5c0.6,0.2,1.1,0.5,1.5,0.9l-0.9,1c-0.6-0.6-1.5-0.9-2.3-0.8c-0.5,0-1.1,0.2-1.5,0.5s-0.8,0.7-1,1.1
			c-0.2,0.5-0.3,1-0.2,1.5c0,0.5,0.2,1,0.5,1.5c0.3,0.4,0.7,0.8,1.2,1s1,0.3,1.6,0.2c0.9-0.1,1.6-0.5,2.2-1.2l1.1,0.9
			c-0.4,0.5-0.8,0.9-1.3,1.2C76.8,49.4,75.3,49.5,74,48.9L74,48.9z"/>
		<path class="st5" d="M81.8,48.3c-0.5-0.2-1-0.6-1.3-1.1s-0.5-1.1-0.6-1.7c-0.1-0.6,0-1.2,0.3-1.7c0.2-0.5,0.6-1,1.1-1.3
			s1.1-0.5,1.7-0.6s1.2,0,1.8,0.3c0.5,0.2,1,0.6,1.3,1c0.3,0.5,0.5,1.1,0.6,1.7c0.1,0.6,0,1.2-0.3,1.7c-0.2,0.5-0.6,1-1.1,1.3
			s-1.1,0.5-1.7,0.6C83,48.6,82.4,48.6,81.8,48.3z M84.8,46.7c0.3-0.4,0.5-1,0.4-1.5c0-0.5-0.3-1-0.7-1.4c-0.8-0.7-2-0.5-2.7,0.2
			c-0.3,0.4-0.5,1-0.4,1.5c0,0.5,0.3,1,0.7,1.4c0.4,0.3,0.9,0.5,1.4,0.4C84,47.3,84.5,47.1,84.8,46.7L84.8,46.7z"/>
		<path class="st5" d="M97.8,41.5c0.6,0.5,0.9,1.2,0.9,2l0.3,3.7l-1.5,0.1l-0.3-3.5c0-0.5-0.2-0.9-0.5-1.2s-0.7-0.4-1.1-0.3
			c-0.5,0-0.9,0.2-1.2,0.6c-0.3,0.4-0.4,0.9-0.3,1.5l0.3,3.2L93,47.7l-0.3-3.5c0-0.5-0.2-0.9-0.5-1.2s-0.7-0.4-1.1-0.3
			c-0.5,0-0.9,0.2-1.2,0.6c-0.3,0.4-0.4,0.9-0.3,1.5l0.3,3.2l-1.5,0.1l-0.5-6.4l1.4-0.1l0.1,0.8c0.2-0.3,0.5-0.6,0.8-0.7
			c0.8-0.4,1.7-0.4,2.5-0.2c0.4,0.1,0.7,0.4,1,0.7c0.2-0.4,0.6-0.7,0.9-0.9c0.4-0.2,0.9-0.4,1.4-0.4C96.6,40.9,97.3,41.1,97.8,41.5z
			"/>
		<path class="st5" d="M105.6,40.5c0.5,0.2,0.9,0.6,1.2,1c0.6,1,0.8,2.3,0.3,3.4c-0.2,0.5-0.6,0.9-1,1.3c-0.5,0.3-1,0.5-1.6,0.5
			c-0.8,0.1-1.6-0.2-2.1-0.7l0.3,3.1l-1.5,0.1l-0.8-8.7l1.4-0.1l0.1,0.8c0.2-0.3,0.5-0.6,0.8-0.8c0.4-0.2,0.8-0.3,1.2-0.3
			C104.5,40.2,105.1,40.3,105.6,40.5z M105.5,44.9c0.3-0.4,0.5-1,0.4-1.5c0-0.5-0.3-1-0.7-1.4c-0.4-0.3-0.9-0.5-1.4-0.4
			c-0.3,0-0.7,0.1-0.9,0.3c-0.3,0.2-0.5,0.5-0.6,0.8s-0.2,0.7-0.2,1.1c0,0.4,0.1,0.7,0.3,1c0.2,0.3,0.4,0.5,0.7,0.6
			c0.3,0.1,0.7,0.2,1,0.2C104.7,45.5,105.1,45.3,105.5,44.9L105.5,44.9z"/>
		<path class="st5" d="M113,40.2c0.6,0.5,0.9,1.2,0.9,2l0.3,3.7l-1.4,0.1l-0.1-0.8c-0.2,0.3-0.4,0.5-0.7,0.7
			c-0.8,0.4-1.7,0.4-2.5,0.2c-0.3-0.1-0.7-0.3-0.9-0.6c-0.2-0.3-0.4-0.6-0.4-1c-0.1-0.5,0.1-1.1,0.5-1.4c0.6-0.5,1.3-0.7,2-0.7
			l1.7-0.1v-0.1c0-0.4-0.2-0.8-0.5-1c-0.4-0.2-0.8-0.3-1.2-0.2c-0.3,0-0.7,0.1-1,0.3c-0.3,0.1-0.6,0.3-0.8,0.5l-0.7-1
			c0.3-0.3,0.7-0.5,1.2-0.7s1-0.3,1.5-0.3C111.6,39.6,112.4,39.8,113,40.2z M112,44.8c0.3-0.2,0.5-0.5,0.5-0.8l-0.1-0.8l-1.5,0.1
			c-0.9,0.1-1.3,0.4-1.2,1c0,0.3,0.2,0.5,0.4,0.6c0.3,0.2,0.6,0.2,0.9,0.2C111.4,45.2,111.8,45,112,44.8L112,44.8z"/>
		<path class="st5" d="M121.2,39.5c0.6,0.5,0.9,1.2,0.9,2l0.3,3.7l-1.5,0.1l-0.3-3.5c0-0.5-0.2-0.9-0.5-1.2s-0.7-0.4-1.2-0.3
			c-0.5,0-0.9,0.2-1.3,0.6c-0.3,0.4-0.4,1-0.3,1.5l0.3,3.2l-1.5,0.1l-0.5-6.4l1.4-0.1l0.1,0.8c0.2-0.3,0.5-0.6,0.9-0.8
			s0.8-0.3,1.2-0.3C119.9,38.8,120.6,39,121.2,39.5z"/>
		<path class="st5" d="M129.6,38.1l-2.4,7.2c-0.1,0.6-0.5,1.1-0.9,1.5c-0.4,0.3-0.9,0.5-1.4,0.5c-0.3,0-0.7,0-1-0.1
			s-0.6-0.2-0.8-0.4l0.5-1.2c0.3,0.3,0.7,0.4,1.1,0.3c0.2,0,0.5-0.1,0.6-0.3c0.2-0.2,0.3-0.5,0.4-0.7l0.1-0.3l-3.3-6.2l1.5-0.1
			l2.4,4.5l1.6-4.9L129.6,38.1z"/>
	</g>
</g>
<path class="st1" d="M65.8,50.1c0.7-0.8,1.1-1.8,1.3-2.9c0-1.3-1.4-0.7-1.4-0.7s-1.1,2.7-0.7,3.7c0.3,0.6,0.6,1.2,1,1.8L65.8,50.1z"
	/>
<path class="st6" d="M157.8,83.5l0.1-1L157.8,83.5c-1.4-0.2-2.7-0.3-4-0.5c-0.5-0.1-0.9-0.6-0.8-1.2c0.1-0.5,0.6-0.9,1.2-0.8
	c1.2,0.2,2.5,0.4,3.9,0.5L157.8,83.5z M162.8,82.9c-0.4,0-0.8-0.3-0.9-0.7c-0.2-0.5,0.1-1.1,0.6-1.3c1.1-0.4,2.2-1,3.3-1.7
	c0.5-0.3,1.1-0.2,1.4,0.3c0.3,0.5,0.2,1.1-0.3,1.4c-1.3,0.8-2.5,1.5-3.8,1.9C163,82.9,162.9,82.9,162.8,82.9z M228.8,82.4
	C228.7,82.4,228.7,82.4,228.8,82.4c-1.4-0.1-2.8-0.3-4.2-0.6c-0.5-0.1-0.9-0.6-0.8-1.2c0.1-0.5,0.6-0.9,1.2-0.8
	c1.3,0.3,2.6,0.5,3.8,0.6c0.6,0,1,0.5,0.9,1.1C229.7,82,229.3,82.4,228.8,82.4z M233.7,82.3c-0.5,0-0.9-0.4-1-0.9
	c-0.1-0.5,0.3-1,0.9-1.1c1.3-0.2,2.5-0.4,3.7-0.8c0.5-0.2,1.1,0.1,1.3,0.7c0.2,0.5-0.1,1.1-0.7,1.3c-1.3,0.4-2.7,0.7-4.1,0.9
	C233.8,82.3,233.8,82.3,233.7,82.3z M149.1,81.5c-0.2,0-0.3,0-0.5-0.1c-1.4-0.7-2.5-1.7-3.4-2.8c-0.3-0.4-0.2-1.1,0.2-1.4
	c0.4-0.3,1.1-0.2,1.4,0.2c0.7,0.9,1.6,1.7,2.7,2.2c0.5,0.3,0.7,0.9,0.4,1.3C149.9,81.3,149.5,81.5,149.1,81.5z M220,80.5
	c-0.1,0-0.2,0-0.3-0.1c-1.2-0.4-2.5-0.9-3.8-1.5c-0.5-0.2-0.7-0.8-0.5-1.3c0.2-0.5,0.8-0.7,1.3-0.5c1.2,0.6,2.5,1,3.6,1.5
	c0.5,0.2,0.8,0.8,0.6,1.3C220.8,80.2,220.4,80.5,220,80.5z M242.2,79.5c-0.3,0-0.7-0.2-0.9-0.5c-0.3-0.5-0.1-1.1,0.4-1.4
	c1.1-0.6,2.1-1.3,3.2-2.2c0.4-0.3,1.1-0.3,1.4,0.2c0.3,0.4,0.3,1.1-0.2,1.4c-1.1,0.9-2.3,1.7-3.4,2.3
	C242.6,79.4,242.4,79.5,242.2,79.5z M170.2,77.9c-0.3,0-0.5-0.1-0.7-0.3c-0.4-0.4-0.4-1,0-1.4c0.9-0.9,1.8-1.9,2.5-2.9
	c0.3-0.4,1-0.5,1.4-0.2c0.4,0.3,0.5,1,0.2,1.4c-0.8,1.1-1.7,2.2-2.7,3.1C170.7,77.8,170.5,77.9,170.2,77.9z M211.8,76.8
	c-0.2,0-0.3,0-0.5-0.1c-1.1-0.6-2.3-1.3-3.5-2c-0.5-0.3-0.6-0.9-0.4-1.4c0.3-0.5,0.9-0.6,1.4-0.4c1.2,0.7,2.4,1.3,3.5,1.9
	c0.5,0.3,0.7,0.9,0.4,1.4C212.5,76.6,212.2,76.8,211.8,76.8z M144.3,74.4c-0.5,0-0.9-0.3-1-0.8c-0.2-1.2-0.3-2.4-0.3-3.8l0-0.3
	c0-0.5,0.5-1,1-1c0,0,0,0,0,0c0.6,0,1,0.5,1,1l0,0.3c0,1.3,0.1,2.5,0.3,3.5c0.1,0.5-0.3,1.1-0.8,1.2
	C144.4,74.4,144.4,74.4,144.3,74.4z M249.2,73.8c-0.2,0-0.5-0.1-0.7-0.3c-0.4-0.4-0.4-1-0.1-1.4c0.8-0.9,1.7-1.9,2.5-3
	c0.3-0.4,1-0.5,1.4-0.2c0.4,0.3,0.5,1,0.2,1.4c-0.8,1.1-1.7,2.2-2.6,3.1C249.7,73.7,249.4,73.8,249.2,73.8z M204,72.2
	c-0.2,0-0.4,0-0.5-0.2c-1.1-0.7-2.3-1.4-3.4-2.2c-0.5-0.3-0.6-0.9-0.3-1.4c0.3-0.5,0.9-0.6,1.4-0.3c1.1,0.7,2.2,1.4,3.4,2.2
	c0.5,0.3,0.6,0.9,0.3,1.4C204.7,72.1,204.4,72.2,204,72.2z M175.4,70.7c-0.1,0-0.3,0-0.4-0.1c-0.5-0.2-0.7-0.8-0.5-1.3
	c0.6-1.2,1-2.4,1.4-3.6c0.2-0.5,0.7-0.8,1.2-0.7c0.5,0.2,0.8,0.7,0.7,1.2c-0.4,1.3-0.9,2.6-1.5,3.9
	C176.2,70.4,175.8,70.7,175.4,70.7z M240,68.8C240,68.8,240,68.8,240,68.8c-1.4,0-2.8-0.1-4.1-0.3c-0.5-0.1-0.9-0.6-0.9-1.1
	c0.1-0.5,0.6-0.9,1.1-0.9c1.3,0.1,2.6,0.2,3.9,0.3c0.6,0,1,0.5,1,1C241,68.4,240.6,68.8,240,68.8z M245,68.7c-0.5,0-1-0.4-1-0.9
	c0-0.6,0.4-1,0.9-1.1c1.3-0.1,2.6-0.3,3.9-0.5c0.6-0.1,1.1,0.3,1.2,0.8c0.1,0.5-0.3,1.1-0.8,1.2C247.9,68.4,246.5,68.6,245,68.7
	C245.1,68.7,245.1,68.7,245,68.7z M231.1,67.7c-0.1,0-0.1,0-0.2,0c-1.3-0.3-2.7-0.7-3.9-1.1c-0.5-0.2-0.8-0.7-0.6-1.3
	c0.2-0.5,0.7-0.8,1.3-0.6c1.2,0.4,2.5,0.7,3.8,1c0.5,0.1,0.9,0.7,0.8,1.2C232,67.4,231.6,67.7,231.1,67.7z M196.5,67.3
	c-0.2,0-0.4-0.1-0.5-0.2c-1.1-0.7-2.3-1.5-3.4-2.1c-0.5-0.3-0.6-0.9-0.3-1.4c0.3-0.5,0.9-0.6,1.4-0.3c1.1,0.7,2.2,1.4,3.4,2.2
	c0.5,0.3,0.6,0.9,0.3,1.4C197.1,67.2,196.8,67.3,196.5,67.3z M253.9,67c-0.4,0-0.8-0.3-1-0.7c-0.2-0.5,0.1-1.1,0.7-1.2
	c0,0,0.1,0,0.1,0l0.2-0.2c0.5-1,1-2.1,1.4-3.1c0.2-0.5,0.7-0.8,1.3-0.6c0.5,0.2,0.8,0.7,0.6,1.3c-0.2,0.6-0.4,1.2-0.7,1.8
	c0.3-0.1,0.5-0.2,0.8-0.3c0.5-0.2,1.1,0,1.3,0.5c0.2,0.5,0,1.1-0.5,1.3c-1.2,0.5-2.5,1-3.9,1.4C254.1,67,254,67,253.9,67z
	 M144.5,65.4c-0.1,0-0.2,0-0.2,0c-0.5-0.1-0.9-0.7-0.7-1.2c0.4-1.5,1-2.8,1.9-4c0.3-0.4,1-0.5,1.4-0.2c0.4,0.3,0.5,1,0.2,1.4
	c-0.7,0.9-1.2,2-1.5,3.2C145.3,65.1,144.9,65.4,144.5,65.4z M222.6,64.8c-0.1,0-0.3,0-0.4-0.1c-1.3-0.6-2.5-1.2-3.6-1.9
	c-0.5-0.3-0.6-0.9-0.3-1.4c0.3-0.5,0.9-0.6,1.4-0.3c1.1,0.7,2.2,1.3,3.4,1.8c0.5,0.2,0.7,0.8,0.5,1.3
	C223.3,64.6,223,64.8,222.6,64.8z M262.1,63.4c-0.3,0-0.7-0.2-0.9-0.5c-0.3-0.5-0.1-1.1,0.3-1.4c1.1-0.7,2.2-1.4,3.2-2.2
	c0.4-0.3,1.1-0.3,1.4,0.2s0.3,1.1-0.2,1.4c-1.1,0.8-2.2,1.6-3.4,2.3C262.4,63.3,262.3,63.4,262.1,63.4z M188.8,62.7
	c-0.2,0-0.3,0-0.5-0.1c-1.3-0.7-2.5-1.2-3.5-1.6c-0.5-0.2-0.8-0.8-0.6-1.3c0.2-0.5,0.8-0.8,1.3-0.6c1.1,0.4,2.4,1,3.8,1.7
	c0.5,0.3,0.7,0.9,0.4,1.4C189.5,62.5,189.1,62.7,188.8,62.7z M177.6,62c-0.5,0-1-0.4-1-1c0-0.9-0.1-1.8-0.3-2.6c0,0,0,0,0,0
	c-0.5-0.1-0.9-0.7-0.7-1.2c0.1-0.4,0.4-0.6,0.7-0.7c0.1-0.2,0.3-0.3,0.5-0.3c0.5-0.2,1.1,0.1,1.2,0.6c0.9,0.2,1.8,0.5,2.7,0.7
	c0.5,0.2,0.8,0.7,0.7,1.2s-0.7,0.8-1.2,0.7c-0.5-0.2-1.1-0.3-1.7-0.5c0.1,0.7,0.1,1.4,0.1,2.1C178.6,61.5,178.1,62,177.6,62
	C177.6,62,177.6,62,177.6,62z M215.1,60c-0.2,0-0.5-0.1-0.7-0.3c-0.8-0.8-1.6-1.6-2.3-2.4c-0.2-0.3-0.4-0.5-0.5-0.7
	c-0.3-0.4-0.2-1.1,0.2-1.4c0.4-0.3,1.1-0.2,1.4,0.2c0.2,0.2,0.3,0.4,0.5,0.7c0.6,0.7,1.3,1.4,2.1,2.1c0.4,0.4,0.4,1,0.1,1.4
	C215.6,59.9,215.3,60,215.1,60z M150,58.7c-0.4,0-0.7-0.2-0.9-0.5c-0.3-0.5-0.1-1.1,0.4-1.3c1.2-0.6,2.5-1.1,4-1.5
	c0.5-0.1,1.1,0.2,1.2,0.7c0.1,0.5-0.2,1.1-0.7,1.2c-1.3,0.3-2.5,0.8-3.5,1.3C150.3,58.7,150.2,58.7,150,58.7z M257.2,58.1
	c0,0-0.1,0-0.1,0c-0.5-0.1-0.9-0.5-0.9-1.1c0.1-0.8,0.1-1.5,0.1-2.3c0-0.5,0-1,0-1.5c0-0.6,0.4-1,0.9-1.1c0.6,0,1,0.4,1.1,0.9
	c0,0.5,0,1.1,0,1.6c0,0.9,0,1.7-0.1,2.5C258.2,57.7,257.7,58.1,257.2,58.1z M269,57.7c-0.2,0-0.5-0.1-0.7-0.3
	c-0.4-0.4-0.4-1-0.1-1.4c0.9-0.9,1.7-1.9,2.5-3c0.3-0.4,0.9-0.5,1.4-0.2c0.4,0.3,0.6,0.9,0.2,1.4c-0.8,1.1-1.7,2.2-2.6,3.2
	C269.6,57.6,269.3,57.7,269,57.7z M171.6,57.4c-0.1,0-0.1,0-0.2,0c-1.3-0.2-2.6-0.4-3.9-0.6c-0.5-0.1-0.9-0.6-0.9-1.1
	c0.1-0.5,0.5-1,1.1-0.9c1.3,0.1,2.7,0.3,4,0.6c0.5,0.1,0.9,0.6,0.8,1.2C172.5,57,172.1,57.4,171.6,57.4z M158.7,56.5
	c-0.5,0-1-0.4-1-0.9c0-0.6,0.4-1,0.9-1.1c1.3-0.1,2.7-0.1,4.1-0.1c0.6,0,1,0.5,1,1c0,0.6-0.4,1-1,1C161.3,56.4,160,56.5,158.7,56.5
	C158.7,56.5,158.7,56.5,158.7,56.5z M174.7,53.6c-0.3,0-0.6-0.1-0.8-0.4c-0.7-0.9-1.6-1.8-2.7-2.6c-0.4-0.3-0.5-1-0.2-1.4
	c0.3-0.4,1-0.5,1.4-0.2c1.2,0.9,2.2,1.9,3,3c0.3,0.4,0.3,1.1-0.2,1.4C175.2,53.6,174.9,53.6,174.7,53.6z M209.8,52.7
	c-0.4,0-0.7-0.2-0.9-0.6c-0.6-1.3-1.1-2.6-1.5-3.9c-0.1-0.5,0.2-1.1,0.7-1.2c0.5-0.1,1.1,0.2,1.2,0.7c0.3,1.2,0.8,2.4,1.3,3.6
	c0.2,0.5,0,1.1-0.5,1.3C210.1,52.7,210,52.7,209.8,52.7z M274.2,50.4c-0.2,0-0.4,0-0.5-0.1c-0.5-0.3-0.6-0.9-0.3-1.4
	c0.7-1.2,1.3-2.3,1.9-3.4c0.2-0.5,0.8-0.7,1.3-0.5s0.7,0.8,0.5,1.3c-0.6,1.2-1.2,2.4-2,3.6C274.8,50.2,274.5,50.4,274.2,50.4z
	 M256.6,49.2c-0.5,0-0.9-0.3-1-0.8c-0.3-1.2-0.7-2.5-1.1-3.7c-0.2-0.5,0.1-1.1,0.6-1.3c0.5-0.2,1.1,0.1,1.3,0.6
	c0.5,1.3,0.9,2.6,1.2,3.9c0.1,0.5-0.2,1.1-0.7,1.2C256.7,49.2,256.6,49.2,256.6,49.2z M167.6,48.3c-0.1,0-0.3,0-0.4-0.1
	c-1.1-0.5-2.3-1-3.6-1.4c-0.5-0.2-0.8-0.7-0.6-1.3s0.7-0.8,1.3-0.6c1.4,0.4,2.7,1,3.8,1.5c0.5,0.2,0.7,0.8,0.5,1.3
	C168.4,48,168,48.3,167.6,48.3z M159.1,45.5c-0.1,0-0.1,0-0.2,0c-1.2-0.3-2.5-0.5-3.9-0.7c-0.5-0.1-0.9-0.6-0.9-1.1
	c0.1-0.5,0.6-0.9,1.1-0.9c1.4,0.2,2.7,0.4,4,0.7c0.5,0.1,0.9,0.6,0.8,1.2C160,45.2,159.6,45.5,159.1,45.5z M150.2,44.3
	C150.2,44.3,150.1,44.3,150.2,44.3c-1.3-0.1-2.7-0.2-4-0.2c-0.6,0-1-0.5-1-1c0-0.6,0.5-1,1-1c1.4,0,2.7,0.1,4,0.2
	c0.6,0,1,0.5,0.9,1.1C151.1,43.9,150.7,44.3,150.2,44.3z M137.2,44.2c-0.5,0-1-0.4-1-1c0-0.6,0.4-1,1-1c1.4-0.1,2.7-0.1,4-0.1
	c0.5,0,1,0.4,1,1c0,0.6-0.4,1-1,1C139.9,44.1,138.6,44.1,137.2,44.2C137.2,44.2,137.2,44.2,137.2,44.2z M207.6,44.1
	c-0.5,0-1-0.4-1-0.9c0-0.4,0-0.8,0-1.2c0-1,0.1-2,0.2-3c0.1-0.5,0.6-0.9,1.1-0.9c0.5,0.1,0.9,0.6,0.9,1.1c-0.1,0.9-0.2,1.8-0.2,2.7
	c0,0.4,0,0.7,0,1.1C208.7,43.6,208.2,44,207.6,44.1C207.7,44.1,207.6,44.1,207.6,44.1z M278,42.3c-0.1,0-0.2,0-0.3-0.1
	c-0.5-0.2-0.8-0.7-0.6-1.3c0.4-1.2,0.7-2.5,1-3.7c0.1-0.5,0.7-0.9,1.2-0.8c0.5,0.1,0.9,0.6,0.8,1.2c-0.3,1.4-0.6,2.7-1.1,4
	C278.8,42,278.4,42.3,278,42.3z M253.3,40.8c-0.4,0-0.7-0.2-0.9-0.5c-0.6-1.1-1.3-2.3-2-3.4c-0.3-0.5-0.2-1.1,0.3-1.4
	c0.5-0.3,1.1-0.2,1.4,0.3c0.8,1.1,1.5,2.3,2.1,3.5c0.3,0.5,0.1,1.1-0.4,1.4C253.7,40.8,253.5,40.8,253.3,40.8z M209,35.2
	c-0.1,0-0.2,0-0.4-0.1c-0.5-0.2-0.8-0.8-0.6-1.3c0.5-1.3,1.1-2.6,1.8-3.8c0.3-0.5,0.9-0.6,1.4-0.3c0.5,0.3,0.6,0.9,0.3,1.4
	c-0.7,1.1-1.2,2.2-1.7,3.4C209.8,35,209.4,35.2,209,35.2z M279.8,33.5C279.7,33.5,279.7,33.5,279.8,33.5c-0.6,0-1-0.5-1-1.1
	c0.1-1.2,0.2-2.5,0.2-3.9c0-0.6,0.5-1,1-1c0.6,0,1,0.5,1,1c0,1.5-0.1,2.8-0.2,4.1C280.7,33.1,280.3,33.5,279.8,33.5z M248.3,33.3
	c-0.3,0-0.6-0.1-0.8-0.4c-0.8-1-1.7-2-2.6-2.9c-0.4-0.4-0.4-1,0-1.4s1-0.4,1.4,0c0.9,1,1.9,2,2.8,3c0.4,0.4,0.3,1.1-0.1,1.4
	C248.8,33.2,248.6,33.3,248.3,33.3z M213.8,27.7c-0.3,0-0.5-0.1-0.7-0.3c-0.4-0.4-0.4-1,0-1.4c1-1,2.1-1.9,3.2-2.7
	c0.5-0.3,1.1-0.2,1.4,0.3c0.3,0.5,0.2,1.1-0.3,1.4c-1,0.7-2,1.5-2.9,2.4C214.3,27.6,214.1,27.7,213.8,27.7z M241.9,27
	c-0.2,0-0.4-0.1-0.6-0.2c-1.1-0.8-2.1-1.6-3.2-2.2c-0.5-0.3-0.6-0.9-0.3-1.4c0.3-0.5,0.9-0.6,1.4-0.3c1.1,0.7,2.3,1.5,3.4,2.3
	c0.4,0.3,0.5,1,0.2,1.4C242.5,26.9,242.2,27,241.9,27z M279.8,24.5c-0.5,0-1-0.4-1-1c-0.1-1.3-0.1-2.6-0.2-4c0-0.6,0.4-1,0.9-1.1
	c0.5,0,1,0.4,1.1,0.9c0.1,1.4,0.2,2.7,0.2,4C280.9,24,280.4,24.4,279.8,24.5C279.9,24.5,279.8,24.5,279.8,24.5z M221.4,22.9
	c-0.4,0-0.8-0.3-0.9-0.7c-0.2-0.5,0.1-1.1,0.6-1.3c1.3-0.5,2.7-0.8,4.1-1c0.6-0.1,1.1,0.3,1.1,0.8c0.1,0.5-0.3,1.1-0.8,1.1
	c-1.3,0.2-2.5,0.5-3.7,0.9C221.6,22.9,221.5,22.9,221.4,22.9z M234.1,22.6c-0.1,0-0.2,0-0.3-0.1c-1.2-0.4-2.4-0.7-3.6-0.8l0-1l0.1-1
	c1.4,0.1,2.7,0.4,4.1,0.9c0.5,0.2,0.8,0.7,0.6,1.3C234.9,22.4,234.5,22.6,234.1,22.6z M279.2,15.5c-0.5,0-1-0.4-1-0.9l-0.3-4
	c0-0.6,0.4-1,0.9-1.1c0.5,0,1,0.4,1.1,0.9l0.3,4C280.3,15,279.9,15.4,279.2,15.5C279.3,15.5,279.3,15.5,279.2,15.5z"/>
<path class="st6" d="M274,15.1c-0.2,0-0.4-0.1-0.6-0.2c-0.4-0.3-0.5-1-0.2-1.4l4.7-6.1c0.2-0.2,0.4-0.4,0.7-0.4
	c0.3,0,0.6,0.1,0.8,0.3l5.3,5.3c0.4,0.4,0.4,1,0,1.4s-1,0.4-1.4,0l-4.5-4.5l-4,5.2C274.6,15,274.3,15.1,274,15.1z"/>
</svg>
