<svg xmlns="http://www.w3.org/2000/svg" xmlns:xlink="http://www.w3.org/1999/xlink" width="294" height="102" viewBox="0 0 294 102">
  <defs>
    <linearGradient id="linear-gradient" x1="0.5" y1="1" x2="0.5" y2="0.16" gradientUnits="objectBoundingBox">
      <stop offset="0" stop-color="#fff"/>
      <stop offset="1" stop-color="#f1f1f1"/>
    </linearGradient>
  </defs>
  <g id="Group_70930" data-name="Group 70930" transform="translate(-1220 -106)">
    <path id="Subtraction_279" data-name="Subtraction 279" d="M292,102H2a2,2,0,0,1-2-2V2A2,2,0,0,1,2,0H292a2,2,0,0,1,2,2v98A2,2,0,0,1,292,102Z" transform="translate(1220 106)" fill="url(#linear-gradient)"/>
    <g id="Group_56758" data-name="Group 56758" transform="translate(1232 113)">
      <line id="Line_6055" data-name="Line 6055" x1="37.309" transform="translate(0 74.912)" fill="none" stroke="#dadada" stroke-miterlimit="10" stroke-width="2"/>
      <path id="Path_32911" data-name="Path 32911" d="M33.357,49.39,6.242,45.774l3.982-1.908,24.037,4.623Z" fill="#919191"/>
      <path id="Path_32912" data-name="Path 32912" d="M45.988,48.075s-5.576,1.862-8.329-.473-3.1-6.011-1.057-7.684,5.481-.868,7.958,1.279,1.387,6.821,1.428,6.878" fill="#b7b7b7"/>
      <path id="Path_32913" data-name="Path 32913" d="M37,54.178c-2.683,2.061-6.034,2.8-7.576,1.211s-.451-4.936,2.525-7.055,6.44-2.188,7.684-.551.05,4.315-2.633,6.4" fill="#b7b7b7"/>
      <path id="Path_32914" data-name="Path 32914" d="M30.745,55.815c.473,2.539-3.191,5.139-8.415,6.327-5.343,1.356-11.522-6.786-11.375-6.909a24.488,24.488,0,0,1,9.35-3.209c5.419-.657,9.957,1.264,10.44,3.791" fill="#b7b7b7"/>
      <path id="Path_32915" data-name="Path 32915" d="M45.474,42.406a12.671,12.671,0,0,1-.085,4.343s-5.6,1.749-8.261-.655a6.953,6.953,0,0,1-1.807-2.534,6.562,6.562,0,0,0,2.318,4.029c2.748,2.341,8.348.451,8.329.474a10.273,10.273,0,0,0-.494-5.657" fill="#919191"/>
      <path id="Path_32916" data-name="Path 32916" d="M39.983,50.274a10.179,10.179,0,0,1-2.219,2.142c-2.753,1.984-6.124,2.639-7.62,1.026a2.869,2.869,0,0,1-.515-2.712c-1.1,1.749-1.229,3.589-.213,4.642,1.55,1.586,4.9.849,7.576-1.211a8.146,8.146,0,0,0,2.991-3.887" fill="#919191"/>
      <path id="Path_32917" data-name="Path 32917" d="M30.767,56.109A13.791,13.791,0,0,1,22.831,60c-3.914.827-8.306-3.267-10.118-5.7a18.457,18.457,0,0,0-1.758.947c-.141.136,6.033,8.261,11.374,6.91,5.027-1.154,8.6-3.611,8.438-6.048" fill="#919191"/>
      <path id="Path_32918" data-name="Path 32918" d="M18.453,59.339c-.085-.1-.177-.189-.257-.294a.792.792,0,0,0-.046-.067c-1.586,1.278-4.65,4.067-4.65,4.067S6.336,71.356,6.24,74.724a26.64,26.64,0,0,1,4.972,0L14.588,63.36s2.536-2.746,3.865-4.021" fill="#919191"/>
      <path id="Path_32919" data-name="Path 32919" d="M25.136,60.37c.947,1.744,6.223,3.286,6.223,3.286l.655,11.086-3.977.158,1.938-11.186s-4.555-1.355-5.161-3Z" fill="#919191"/>
      <path id="Path_32920" data-name="Path 32920" d="M57.942,45.222l-9.757,7.824-9.422-.728-1.171.844L47.535,54.8l9.075-5.166,3.868-3.156a1.445,1.445,0,0,0-2.534-1.247Z" fill="#919191"/>
      <path id="Path_32921" data-name="Path 32921" d="M38.329,41.858c-.24-.1,1.78-10.548.5-12.708-1.578-2.193-6.051-3.883-7.533-.76-1.4,3.157.388,1.885.631,1.465s-.252-1.247-.247-1.252a2.585,2.585,0,0,1,3.375-1.4l.018.008c2.471.841,3.371,1.763,3.679,2.9.185,1.12-.362,7.659-.379,8.067a31.488,31.488,0,0,0-.451,3.57c.025.006.246.539.41.118" fill="#919191"/>
      <path id="Path_32922" data-name="Path 32922" d="M41.79,40.466C41.482,40.15,47.963,27.9,46.418,26c-1.872-2.26-4.121-2.621-4.94-1.523s-1.053,2.961-.177,2.4.131-.9.131-.9-.583-1.32,1.4-1.252,3.434.789,3.24,2.5a10.476,10.476,0,0,1-.9,3.669c-.836,1.848-3.945,9.4-3.822,9.49.009-.023-.156.378.448.084" fill="#919191"/>
      <path id="Path_32923" data-name="Path 32923" d="M151.064,9.564l1.824,27.729a5.19,5.19,0,0,1-5.032,5.283L65.712,48.431l-6.7.464a4.639,4.639,0,0,1-5.132-4.1l-.918-13.96-.929-14.23a5.189,5.189,0,0,1,5.031-5.282l88.352-6.3a5.123,5.123,0,0,1,5.649,4.541" fill="#e5e5e5"/>
      <path id="Path_32924" data-name="Path 32924" d="M150.366,9.988l1.77,27.162a5.1,5.1,0,0,1-4.949,5.182l-81.541,5.7-6.583.465a4.543,4.543,0,0,1-5.039-4.008l-.89-13.67-.9-13.941a5.1,5.1,0,0,1,4.947-5.183l87.638-6.145a5.022,5.022,0,0,1,5.548,4.442" fill="#fff"/>
      <text id="Add_Factoring_Company" data-name="Add Factoring
Company" transform="matrix(0.996, -0.086, 0.086, 0.996, 58.089, 27.651)" fill="#6c6c6c" font-size="12" font-family="Montserrat-SemiBold, Montserrat" font-weight="600" letter-spacing="-0.005em"><tspan x="0" y="0">Add Factoring</tspan><tspan x="0" y="15">Company</tspan></text>
      <path id="Path_32925" data-name="Path 32925" d="M53.811,43.1a5.685,5.685,0,0,0,1.264-2.912c-.054-1.277-1.42-.692-1.42-.692s-1.081,2.746-.689,3.655a11.711,11.711,0,0,0,.943,1.8Z" fill="#919191"/>
    </g>
    <g id="Group_56757" data-name="Group 56757" transform="translate(1249.883 111)">
      <path id="Path_32926" data-name="Path 32926" d="M107.382,36.185c63.837-2.773,36.6,40.242,21.636,39.412-8.49-1.052-16.418-1.314-14.462-17.293,2.3-13.646,25.66-10.786,40.6-5.4,16.565,5.968,47.629,41.97,69.77,5.4,10.044-18.212-10.407-43.373-24.388-44.464-18.532-1.446-30.015,19.6-17.364,35.9,11.254,13.825,52.846,6.487,61.152-7.251,7.506-12.414,6.141-21.573,4.807-39.533" transform="translate(0)" fill="none" stroke="#778fbb" stroke-linecap="round" stroke-linejoin="round" stroke-width="2" stroke-dasharray="4 5"/>
      <path id="Path_32927" data-name="Path 32927" d="M274,6.258,268.687,1,264,7.08" transform="translate(-19.883)" fill="none" stroke="#778fbb" stroke-linecap="round" stroke-linejoin="round" stroke-width="2"/>
    </g>
  </g>
</svg>
