<svg xmlns="http://www.w3.org/2000/svg" width="18" height="18" viewBox="0 0 18 18">
  <g id="Group_70915" data-name="Group 70915" transform="translate(-1319 -748.445)">
    <rect id="Rectangle_57066" data-name="Rectangle 57066" width="18" height="18" transform="translate(1319 748.445)" fill="none"/>
    <path id="Path_35734" data-name="Path 35734" d="M14.222,170.051s.214,1.047.262,1.265h-.94c.09-.25.45-1.223.45-1.223s.09-.256.149-.419l.079.377M17.2,165.8v9.9a1.35,1.35,0,0,1-1.35,1.35H2.35A1.35,1.35,0,0,1,1,175.7v-9.9a1.35,1.35,0,0,1,1.35-1.35h13.5a1.35,1.35,0,0,1,1.35,1.35M5.289,172.861,7.067,168.5h-1.2l-1.105,2.982-.121-.6-.393-2.008a.471.471,0,0,0-.512-.368H1.92l-.02.089a4.492,4.492,0,0,1,1.187.481l1.007,3.794Zm2.655.005.706-4.37H7.522l-.706,4.37Zm3.935-1.429c.005-.5-.3-.878-.948-1.19-.4-.2-.638-.335-.638-.54.005-.185.205-.377.65-.377a1.944,1.944,0,0,1,.841.166l.1.048.155-.945a2.822,2.822,0,0,0-1.012-.185c-1.117,0-1.9.6-1.907,1.445-.008.63.563.976.99,1.187s.585.355.585.54c-.005.292-.355.428-.678.428a2.254,2.254,0,0,1-1.06-.233l-.149-.07-.158.986a3.445,3.445,0,0,0,1.26.233c1.187,0,1.96-.585,1.969-1.49Zm3.971,1.429-.912-4.37h-.875a.556.556,0,0,0-.59.36l-1.679,4.008h1.187l.236-.655h1.452c.034.155.135.655.135.655Z" transform="translate(1318.9 586.7)" fill="#ccc"/>
  </g>
</svg>
