<svg xmlns="http://www.w3.org/2000/svg" width="116.444" height="13.143" viewBox="0 0 116.444 13.143">
  <g id="Group_6064" data-name="Group 6064" transform="translate(0.5 0.513)">
    <g id="Group_6063" data-name="Group 6063" transform="translate(91.108)">
      <path id="Path_4752" data-name="Path 4752" d="M666.117,68.233c.707.276,1.41.569,2.1.9a44.179,44.179,0,0,0-6.343,3.16c-.684-.355-1.391-.707-2.1-1.021A45.047,45.047,0,0,1,666.117,68.233Zm-2.622-.922a37.862,37.862,0,0,0-6.558,2.807c.667.254,1.331.512,1.978.785a36.14,36.14,0,0,1,6.364-2.983c-.591-.216-1.179-.432-1.784-.609Z" transform="translate(-656.937 -65.279)" fill="#ccc" stroke="rgba(0,0,0,0)" stroke-width="1" fill-rule="evenodd"/>
      <path id="Path_4753" data-name="Path 4753" d="M688.038,61.274a40.571,40.571,0,0,0-5.561-2.172c-.684.2-1.35.411-2,.627a39.933,39.933,0,0,1,5.718,2.21c.609-.233,1.216-.45,1.841-.664Zm2.919-.862a40.6,40.6,0,0,0-5.658-2c-.627.119-1.234.253-1.839.411a37.715,37.715,0,0,1,5.6,2.133c.625-.2,1.269-.391,1.9-.55Zm4.7,1.568a49.339,49.339,0,0,0-12.8,6.518c.979.607,1.918,1.234,2.84,1.917a52,52,0,0,1,12.157-7.182q-1.079-.669-2.2-1.253Zm-3.172-1.491a44.2,44.2,0,0,0-13.314,5.99c.9.45,1.8.922,2.684,1.427a46.751,46.751,0,0,1,13.077-6.3c-.8-.389-1.606-.78-2.445-1.115Z" transform="translate(-674.101 -58.416)" fill="#ccc" stroke="rgba(0,0,0,0)" stroke-width="1" fill-rule="evenodd"/>
    </g>
    <path id="Path_4754" data-name="Path 4754" d="M289.2,64.533c2.022,0,3.053,1.606,3.053,3.758,0,2.228-.993,3.8-3.053,3.8-2.1,0-3.053-1.569-3.053-3.8C286.15,66.136,287.18,64.533,289.2,64.533Zm0,6.094c.549,0,.79-.511.79-2.339,0-1.678-.171-2.3-.79-2.3s-.79.621-.79,2.3C288.417,70.116,288.654,70.627,289.2,70.627Zm4.465-4.272h-.893V64.748h.894v-.8c0-1.788.822-2.444,2.266-2.444a8.669,8.669,0,0,1,1.1.111V63.4a1.364,1.364,0,0,0-.408-.071c-.584,0-.79.253-.79.693v.733h1.2v1.607h-1.2v5.588h-2.161V66.355Zm-25.5.4c0-.44-.171-.733-.549-.733-.549,0-.72.511-.72.95l-1.924-.44a2.51,2.51,0,0,1,2.711-1.97c1.305,0,2.677.584,2.677,2.191v4.016c0,.8.1,1.056.206,1.166H268.3a6.129,6.129,0,0,1-.067-.656,2.486,2.486,0,0,1-1.647.8,1.88,1.88,0,0,1-1.889-2.118c.035-1.859,2.022-2.444,3.466-2.631v-.58Zm0,1.717c-.755.071-1.34.4-1.34,1.314,0,.511.238.767.651.767a.92.92,0,0,0,.689-.44Zm5.664-1.682v5.148h-2.2V64.748h2.129l.035.733a2.534,2.534,0,0,1,1.919-.914,1.493,1.493,0,0,1,1.51,1.678v5.7h-2.2V66.976c0-.4-.139-.621-.518-.621a.871.871,0,0,0-.678.44Zm4.737-5.072h2.2v5.184h.035l1.614-2.15h2.162l-1.818,2.188,1.818,5h-2.266L281.246,68.8h-.035l-.446.55v2.592h-2.2V61.722Zm-16.2,4.892a2.635,2.635,0,0,1,1.785,2.592c0,1.75-1.305,2.736-3.157,2.736h-3.672V61.722H261.1a2.557,2.557,0,0,1,2.815,2.481,2.454,2.454,0,0,1-1.543,2.34l-.005.071Zm-2.711,3.43h.891a1.146,1.146,0,0,0,1.236-1.277,1.163,1.163,0,0,0-1.04-1.275,1.149,1.149,0,0,0-.2,0h-.891Zm0-4.269h.822a1.053,1.053,0,0,0,1.191-.895,1.073,1.073,0,0,0,.009-.2c0-.985-.617-1.133-1.169-1.133h-.854Zm82.622.927c0-.44-.206-.733-.584-.733-.518,0-.689.511-.72.95l-1.889-.44a2.511,2.511,0,0,1,2.711-1.97c1.305,0,2.677.584,2.677,2.191v4.016a2.318,2.318,0,0,0,.171,1.167H342.41a6.135,6.135,0,0,1-.067-.656,2.493,2.493,0,0,1-1.681.8,1.9,1.9,0,0,1-1.889-2.117c.067-1.859,2.06-2.444,3.5-2.631V66.7Zm0,1.717c-.755.071-1.34.4-1.34,1.314,0,.511.238.767.617.767a.975.975,0,0,0,.72-.44Zm-22.481.364c-.035.621.139,1.717,1.03,1.717a1.157,1.157,0,0,0,1.062-.985l1.476.55a2.824,2.824,0,0,1-2.711,1.97c-2.1,0-3.053-1.788-3.053-3.8,0-2.047,1.03-3.758,3.021-3.758,2.1,0,2.85,1.936,2.85,3.832v.474H319.8Zm1.65-1.385c0-.656-.067-1.459-.822-1.459-.616,0-.859.8-.822,1.459Zm7.891-2.7h2.2v7.19h-2.2Zm0-3.028h2.2v2.08h-2.2Zm7.035,5.7a2.646,2.646,0,0,0-.1-.914.638.638,0,0,0-.616-.513c-.72,0-.822.95-.822,2.41,0,1.607.238,2.15.822,2.15.755,0,.822-.84.822-1.388l1.719.253a2.57,2.57,0,0,1-2.711,2.662c-1.956,0-2.986-1.828-2.986-3.616,0-1.97,1.03-3.939,3.088-3.939a2.71,2.71,0,0,1,2.679,2.884l-1.889.008Zm-34.591-5.7h3.193L307,71.884h-2.334l-.379-2.08h-2.231l-.446,2.08h-2.1Zm.584,6.35h1.577l-.689-4.161h-.072l-.817,4.164Zm21.994-3.322h2.127v.95h.035a2.386,2.386,0,0,1,2.127-1.133V66.85a2.149,2.149,0,0,0-.891-.181,1.378,1.378,0,0,0-1.2.55v4.675h-2.2v-7.2Zm-11.083,2.05v5.144h-2.162V66.959c0-.4-.1-.656-.512-.656a1.044,1.044,0,0,0-.72.434v5.146h-2.167V64.693h2.127l.035.733a2.881,2.881,0,0,1,1.956-.914,1.379,1.379,0,0,1,1.339.95h.035a2.561,2.561,0,0,1,1.924-.95,1.489,1.489,0,0,1,1.543,1.641v5.729h-2.162V66.959c0-.4-.1-.656-.512-.656a1.079,1.079,0,0,0-.723.437Z" transform="translate(-257.322 -60.795)" fill="#ccc" stroke="rgba(0,0,0,0)" stroke-width="1" fill-rule="evenodd"/>
  </g>
</svg>
