<svg xmlns="http://www.w3.org/2000/svg" width="18" height="18" viewBox="0 0 18 18">
  <g id="Group_70913" data-name="Group 70913" transform="translate(-1319 -672.523)">
    <rect id="Rectangle_57062" data-name="Rectangle 57062" width="18" height="18" transform="translate(1319 672.523)" fill="none"/>
    <path id="Path_35732" data-name="Path 35732" d="M16.3,88.524H1.9a.915.915,0,0,0-.9.929V100.2a.915.915,0,0,0,.9.929H16.3a.915.915,0,0,0,.9-.929V89.453A.915.915,0,0,0,16.3,88.524ZM3.7,91.867a.62.62,0,0,1,.84-.249l.021.012a.633.633,0,0,1,.117.09l4.424,3.4,4.423-3.4a.617.617,0,0,1,.871.01l.019.02a.663.663,0,0,1-.028.918.639.639,0,0,1-.113.09l-2.694,2.07,2.694,2.07a.662.662,0,0,1,.226.889.616.616,0,0,1-.974.147l-2.993-2.3-1.056.81a.613.613,0,0,1-.749,0l-1.056-.81-2.993,2.3a.619.619,0,0,1-.851-.213l-.012-.02a.664.664,0,0,1,.114-.8l2.694-2.07-2.694-2.07a.66.66,0,0,1-.23-.89Z" transform="translate(1318.9 586.7)" fill="#b7b7b7"/>
  </g>
</svg>
