<svg xmlns="http://www.w3.org/2000/svg" width="18" height="18" viewBox="0 0 18 18">
  <g id="Group_77442" data-name="Group 77442" transform="translate(-208 -885)">
    <g id="Group_52465" data-name="Group 52465" transform="translate(208.9 886.239)">
      <path id="Path_31059" data-name="Path 31059" d="M488.182,1005.614c.227-.014.453-.023.68-.043a1.25,1.25,0,0,1,1.436,1.031,1.3,1.3,0,0,1,.016.178q.474,4.8.947,9.6l.018.182c.07.011.137.02.2.032a1.81,1.81,0,0,1,1.274.906.216.216,0,0,0,.252.123c2.317-.232,4.635-.453,6.951-.691a1.98,1.98,0,0,1,1.586.487,8.579,8.579,0,0,0,.761.562,1.121,1.121,0,0,1,.388.418l.026.259a.735.735,0,0,1-.444.541l-.259.026a1.193,1.193,0,0,1-.25-.105c-.355-.253-.711-.5-1.052-.776a.758.758,0,0,0-.575-.184q-3.53.349-7.061.7a.158.158,0,0,0-.16.13,1.818,1.818,0,0,1-1,1.132c-.13.059-.262.1-.393.144l-.405.04a.444.444,0,0,0-.083-.018,1.875,1.875,0,0,1-1.649-1.252,1.838,1.838,0,0,1,.561-2.016.247.247,0,0,0,.1-.244q-.488-4.9-.97-9.8l-.016-.164c-.065,0-.113,0-.161.009-.508.044-1.016.076-1.521.136a.726.726,0,0,1-.841-.414l-.026-.258a.73.73,0,0,1,.443-.541Z" transform="translate(-486.519 -1004.78)" fill="#aaa" stroke="rgba(0,0,0,0)" stroke-width="1"/>
      <path id="Path_31060" data-name="Path 31060" d="M498.721,1004.407a.6.6,0,0,1,.406.586q.187,2.028.4,4.055a.526.526,0,0,1-.4.627.565.565,0,0,1-.127.012q-2.514.229-5.025.5a.527.527,0,0,1-.628-.4.521.521,0,0,1-.013-.125q-.184-2.029-.4-4.056a.591.591,0,0,1,.284-.653Zm-1.545,4.518.579-.057.029,0a.467.467,0,0,0,.422-.487.453.453,0,0,0-.467-.438h-.02q-.647.044-1.287.129a.457.457,0,0,0-.392.511.465.465,0,0,0,.514.406C496.761,1008.969,496.968,1008.945,497.176,1008.925Z" transform="translate(-488.599 -1004.407)" fill="#aaa" stroke="rgba(0,0,0,0)" stroke-width="1"/>
      <path id="Path_31061" data-name="Path 31061" d="M498.069,1013.152l3.751-.37c.4-.039.582.111.624.518q.234,2.368.467,4.736a.484.484,0,0,1-.336.6.479.479,0,0,1-.163.016l-6.735.666a.239.239,0,0,1-.245-.1,2.3,2.3,0,0,0-1.1-.776.171.171,0,0,1-.137-.171q-.2-2.079-.406-4.158a.475.475,0,0,1,.357-.57.493.493,0,0,1,.13-.011Zm2.094,3.845c.294-.029.589-.056.882-.087a.466.466,0,1,0-.024-.931.482.482,0,0,0-.056,0q-.9.082-1.793.177a.477.477,0,0,0-.454.5l0,.023a.471.471,0,0,0,.529.405l.014,0,.9-.09Z" transform="translate(-488.878 -1007.127)" fill="#aaa" stroke="rgba(0,0,0,0)" stroke-width="1"/>
    </g>
    <rect id="Rectangle_35131" data-name="Rectangle 35131" width="18" height="18" transform="translate(208 885)" fill="none"/>
  </g>
</svg>
