<svg xmlns="http://www.w3.org/2000/svg" width="19" height="19" viewBox="0 0 19 19">
  <g id="Group_70805" data-name="Group 70805" transform="translate(-6027.867 -13486.5)">
    <rect id="Rectangle_56835" data-name="Rectangle 56835" width="18" height="18" transform="translate(6028.367 13487)" fill="none" stroke="rgba(0,0,0,0)" stroke-width="1"/>
    <path id="Path_35718" data-name="Path 35718" d="M82.09,8.925l-4.242,4.233a2.779,2.779,0,0,1-1.98.8,2.957,2.957,0,0,1-2.078-.854,2.856,2.856,0,0,1-.838-2.009,2.8,2.8,0,0,1,.819-2.014l3.319-3.3a.966.966,0,0,1,1.361,1.371l-3.316,3.3a.879.879,0,0,0-.253.629.945.945,0,0,0,.269.668,1.013,1.013,0,0,0,.714.29.858.858,0,0,0,.613-.241l4.248-4.238a2.771,2.771,0,0,0-3.918-3.914l-6.8,6.792a2.773,2.773,0,0,0,3.739,4.088l.22-.179.255.131a2.357,2.357,0,0,0,1,.231h.033l.18-.008a.359.359,0,0,1,.269.618l-.408.409a4.7,4.7,0,0,1-6.649-6.653L75.44,2.277a4.7,4.7,0,1,1,6.65,6.648Z" transform="translate(5962 13487)" fill="#b7b7b7" stroke="rgba(0,0,0,0)" stroke-width="1"/>
  </g>
</svg>
