<svg xmlns="http://www.w3.org/2000/svg" width="19" height="19" viewBox="0 0 19 19">
  <g id="Group_70803" data-name="Group 70803" transform="translate(-5961.5 -13486.5)">
    <rect id="Rectangle_56833" data-name="Rectangle 56833" width="18" height="18" transform="translate(5962 13487)" fill="none" stroke="rgba(0,0,0,0)" stroke-width="1"/>
    <path id="Path_35717" data-name="Path 35717" d="M15.979,13.778l-3.1,3.1a.763.763,0,0,1-.54.221h-.193V13.59a.541.541,0,0,1,.541-.54H16.2v.193a.757.757,0,0,1-.221.535M11.136,13.7v3.4H2.56a.76.76,0,0,1-.76-.76V1.659A.759.759,0,0,1,2.56.9H15.441a.759.759,0,0,1,.759.759V12.037H12.8a1.665,1.665,0,0,0-1.659,1.66" transform="translate(5962 13487)" fill="#b7b7b7" stroke="rgba(0,0,0,0)" stroke-width="1"/>
  </g>
</svg>
