<svg height="18" viewBox="0 0 18 18" width="18" xmlns="http://www.w3.org/2000/svg">
  <path
    d="M630.983,379.267a9,9,0,1,0,9,9A9,9,0,0,0,630.983,379.267Zm5.248,6.227-6.8,6.8a.9.9,0,0,1-.527.245.819.819,0,0,1-.893-.176l-2.312-2.312a.819.819,0,0,1,0-1.157l.138-.138a.817.817,0,0,1,1.157,0l1.692,1.692,6.252-6.251h0a.915.915,0,0,1,1.294,0,.018.018,0,0,1,.018,0A.91.91,0,0,1,636.231,385.494Z"
    data-name="Path 10904"
    fill="#919191"
    id="Path_10904" transform="translate(-621.983 -379.267)"/>
</svg>
