<svg preserveAspectRatio="none" viewBox="0 0 873 1277.502"
     xmlns="http://www.w3.org/2000/svg">
  <defs>
    <filter filterUnits="userSpaceOnUse" height="1277.502" id="Path_26500" width="873" x="0" y="0">
      <feOffset input="SourceAlpha"/>
      <feGaussianBlur result="blur" stdDeviation="2"/>
      <feFlood flood-opacity="0.161"/>
      <feComposite in2="blur" operator="in"/>
      <feComposite in="SourceGraphic"/>
    </filter>
  </defs>
  <g filter="url(#Path_26500)" transform="matrix(1, 0, 0, 1, 0, 0)">
    <path
      d="M1309.277,69.522a10.239,10.239,0,0,0-1.7-5.75l2.095-2.295a9.182,9.182,0,0,0-6.658-4.21l-.2,3.491c-.165-.014-.332-.022-.5-.022h-6.953V57.222h-7.649v3.514h-7.649V57.222h-7.648v3.514h-7.648V57.222h-7.649v3.514h-7.649V57.222h-7.649v3.514h-7.649V57.222h-7.649v3.514h-7.648V57.222h-7.649v3.514h-7.649V57.222h-7.649v3.514h-7.649V57.222h-7.649v3.514h-7.649V57.222h-7.648v3.514H1157.7V57.222h-7.649v3.514H1142.4V57.222h-7.648v3.514H1127.1V57.222h-7.649v3.514H1111.8V57.222h-7.649v3.514h-7.649V57.222h-7.649v3.514h-7.649V57.222h-7.649v3.514h-7.649V57.222h-7.649v3.514h-7.649V57.222h-7.649v3.514h-7.649V57.222h-7.649v3.514h-7.649V57.222h-7.649v3.514h-7.648V57.222h-7.649v3.514h-7.648V57.222h-7.649v3.514h-7.649V57.222h-7.649v3.514h-7.649V57.222h-7.649v3.514h-7.649V57.222h-7.649v3.514h-7.648V57.222h-7.649v3.514h-7.649V57.222H905.29v3.514h-7.648V57.222h-7.649v3.514h-7.649V57.222H874.7v3.514h-7.648V57.222H859.4v3.514H851.75V57.222H844.1v3.514h-7.649V57.222H828.8v3.514h-7.649V57.222h-7.649v3.514h-7.649V57.222h-7.648v3.514H790.56V57.222h-7.649v3.514h-7.648V57.222h-7.649v3.514h-7.649V57.222h-7.649v3.514h-7.649V57.222H737.02v3.514h-7.649V57.222h-7.649v3.514h-7.649V57.222h-7.649v3.514h-7.649V57.222h-7.649v3.514h-7.649V57.222h-7.649v3.514h-7.649V57.222h-7.649v3.514h-7.649V57.222h-7.649v3.514h-7.649V57.222h-7.649v3.514H622.29V57.222h-7.649v3.514h-7.649V57.222h-7.649v3.514H591.7V57.222h-7.649v3.514H576.4V57.222H568.75v3.514H561.1V57.222h-7.649v3.514H545.8V57.222h-7.649v3.514h-7.649V57.222h-7.649v3.514h-7.649V57.222h-7.649v3.514h-7.649V57.222h-7.649v3.514h-7.649V57.222h-7.649v3.514h-7.649V57.222h-7.649v3.514H454.02V57.222h-7.649v3.514h-7.649V57.222h-7.649v3.514h-7.649V57.222h-7.649v3.514h-7.649V57.222H400.48v3.514h-7.649V57.222h-7.649v3.514h-7.649V57.222h-7.649v3.514h-7.649V57.222h-7.649v3.514h-7.649V57.222H339.29v3.514h-7.649V57.222h-7.649v3.514h-7.649V57.222H308.7v3.514h-7.649V57.222H293.4v3.514H285.75V57.222H278.1v3.514h-7.649V57.222H262.8v3.514h-7.649V57.222h-7.649v3.514h-7.649V57.222h-7.649v3.514h-7.649V57.222h-7.649v3.514h-7.649V57.222h-7.649v3.514h-7.649V57.222h-7.649v3.514h-7.649V57.222H171.02v3.514h-7.649V57.222h-7.649v3.514h-7.649V57.222h-7.649v3.514h-7.649V57.222h-7.649v3.514H117.48V57.222h-7.649v3.514h-7.649V57.222H94.534v3.514H86.885V57.222H79.237v3.514H71.588V57.222H63.939v3.514H56.291a6.176,6.176,0,0,0-4.545,2.136l-1.813-2.651a13.6,13.6,0,0,0-3.341,8.407l2.764.251c-.013.212-.018.429-.018.642v8.769H46.556v9.664h2.781V97.62H46.556v9.664h2.781v9.664H46.556v9.664h2.781v9.664H46.556v9.664h2.781v9.664H46.556v9.664h2.781v9.664H46.556V184.6h2.781v9.664H46.556v9.664h2.781v9.664H46.556v9.664h2.781v9.664H46.556v9.664h2.781v9.664H46.556v9.664h2.781v9.664H46.556v9.664h2.781v9.664H46.556v9.664h2.781v9.664H46.556V319.9h2.781v9.664H46.556v9.664h2.781v9.664H46.556v9.664h2.781v9.664H46.556v9.664h2.781v9.664H46.556v9.664h2.781v9.664H46.556v9.664h2.781v9.664H46.556v9.664h2.781v9.664H46.556V455.2h2.781v9.664H46.556v9.664h2.781v9.664H46.556v9.664h2.781v9.664H46.556v9.664h2.781v9.664H46.556v9.664h2.781v9.664H46.556v9.664h2.781v9.664H46.556v9.664h2.781v9.664H46.556V590.5h2.781v9.664H46.556v9.664h2.781v9.664H46.556v9.664h2.781v9.664H46.556v9.664h2.781v9.664H46.556v9.664h2.781v9.664H46.556v9.664h2.781v9.664H46.556v9.664h2.781v9.664H46.556V725.8h2.781v9.664H46.556v9.664h2.781v9.664H46.556v9.664h2.781v9.664H46.556v9.664h2.781v9.664H46.556v9.664h2.781v9.664H46.556v9.664h2.781v9.664H46.556v9.664h2.781v9.664H46.556V861.1h2.781v9.664H46.556v9.664h2.781v9.664H46.556v9.664h2.781v6.167a11,11,0,0,0,.277,2.467l-2.663.982a12.189,12.189,0,0,0,4.665,7.34l1.337-3.079a5.851,5.851,0,0,0,3.338,1.075h2.772v3.514h7.649v-3.514H74.36v3.514h7.649v-3.514h7.649v3.514h7.649v-3.514h7.649v3.514H112.6v-3.514h7.649v3.514H127.9v-3.514h7.649v3.514H143.2v-3.514h7.649v3.514H158.5v-3.514h7.649v3.514h7.649v-3.514h7.649v3.514h7.649v-3.514h7.649v3.514h7.649v-3.514h7.649v3.514h7.649v-3.514h7.649v3.514h7.649v-3.514h7.649v3.514h7.649v-3.514h7.649v3.514h7.649v-3.514h7.649v3.514h7.649v-3.514h7.649v3.514h7.649v-3.514h7.649v3.514h7.649v-3.514h7.649v3.514h7.649v-3.514h7.649v3.514h7.649v-3.514h7.649v3.514h7.649v-3.514h7.649v3.514h7.649v-3.514h7.649v3.514h7.649v-3.514H395.6v3.514h7.649v-3.514H410.9v3.514h7.649v-3.514H426.2v3.514h7.649v-3.514H441.5v3.514h7.649v-3.514h7.649v3.514h7.649v-3.514h7.649v3.514h7.649v-3.514h7.649v3.514h7.649v-3.514h7.649v3.514h7.649v-3.514h7.649v3.514h7.649v-3.514h7.649v3.514h7.649v-3.514h7.649v3.514h7.649v-3.514h7.649v3.514h7.649v-3.514h7.648v3.514h7.649v-3.514h7.649v3.514h7.649v-3.514h7.649v3.514h7.649v-3.514h7.649v3.514h7.649v-3.514h7.649v3.514h7.649v-3.514h7.649v3.514h7.649v-3.514h7.649v3.514H678.6v-3.514h7.649v3.514H693.9v-3.514h7.649v3.514H709.2v-3.514h7.648v3.514h7.649v-3.514h7.648v3.514h7.649v-3.514h7.648v3.514h7.649v-3.514h7.648v3.514h7.649v-3.514h7.649v3.514h7.649v-3.514h7.649v3.514h7.649v-3.514h7.649v3.514h7.649v-3.514h7.649v3.514h7.649v-3.514h7.649v3.514h7.648v-3.514h7.649v3.514h7.649v-3.514h7.648v3.514h7.649v-3.514h7.649v3.514h7.649v-3.514h7.649v3.514h7.649v-3.514h7.649v3.514h7.649v-3.514h7.649v3.514h7.648v-3.514h7.649v3.514h7.649v-3.514H961.6v3.514h7.648v-3.514H976.9v3.514h7.649v-3.514H992.2v3.514h7.649v-3.514h7.649v3.514h7.649v-3.514h7.649v3.514h7.649v-3.514h7.649v3.514h7.649v-3.514h7.649v3.514h7.649v-3.514h7.649v3.514h7.649v-3.514h7.649v3.514h7.649v-3.514h7.649v3.514h7.649v-3.514h7.649v3.514h7.649v-3.514h7.649v3.514h7.649v-3.514h7.649v3.514h7.649v-3.514h7.649v3.514h7.649v-3.514h7.649v3.514h7.648v-3.514h7.649v3.514h7.649v-3.514h7.649v3.514h7.648v-3.514h7.649v3.514h7.649v-3.514h7.649v3.514h7.649v-3.514h7.649v3.514h7.649v-3.514h7.649v3.514h7.649v-3.514h7.648v3.514h7.649v-3.514h7.649v3.514h4.181a7.922,7.922,0,0,0,3.391-.783l-.967-3.28a7.988,7.988,0,0,0,3.9-4.584l2.519,1.458a14.992,14.992,0,0,0,.89-5.112v-4.387h-2.782v-9.664h2.782v-9.664h-2.782v-9.664h2.782v-9.664h-2.782v-9.664h2.782V843.55h-2.782v-9.664h2.782v-9.664h-2.782v-9.664h2.782v-9.664h-2.782v-9.664h2.782v-9.664h-2.782V775.9h2.782v-9.664h-2.782v-9.664h2.782v-9.664h-2.782v-9.664h2.782v-9.664h-2.782v-9.664h2.782V708.25h-2.782v-9.664h2.782v-9.664h-2.782v-9.664h2.782v-9.664h-2.782v-9.664h2.782v-9.664h-2.782V640.6h2.782v-9.664h-2.782v-9.664h2.782v-9.664h-2.782v-9.664h2.782v-9.664h-2.782v-9.664h2.782V572.95h-2.782v-9.664h2.782v-9.664h-2.782v-9.664h2.782v-9.664h-2.782v-9.664h2.782v-9.664h-2.782V505.3h2.782v-9.664h-2.782v-9.664h2.782v-9.664h-2.782v-9.664h2.782v-9.664h-2.782v-9.664h2.782V437.65h-2.782v-9.664h2.782v-9.664h-2.782v-9.664h2.782v-9.664h-2.782v-9.664h2.782v-9.664h-2.782V370h2.782v-9.664h-2.782v-9.664h2.782v-9.664h-2.782v-9.664h2.782v-9.664h-2.782v-9.664h2.782V302.35h-2.782v-9.664h2.782v-9.664h-2.782v-9.664h2.782v-9.664h-2.782v-9.664h2.782v-9.664h-2.782V234.7h2.782v-9.664h-2.782v-9.664h2.782v-9.664h-2.782v-9.664h2.782v-9.664h-2.782v-9.664h2.782V167.05h-2.782v-9.664h2.782v-9.664h-2.782v-9.664h2.782v-9.664h-2.782v-9.664h2.782v-9.664h-2.782V99.4h2.782V89.735h-2.782V80.071h2.782V70.407h-2.782Z"
      data-name="Path 26500"
      fill="#fff"
      id="Path_26500-2" opacity="0.94" transform="translate(-51.22 1318.06) rotate(-90)"/>
  </g>
</svg>
