<svg height="28" viewBox="0 0 24.5 28" width="24.5" xmlns="http://www.w3.org/2000/svg">
  <g data-name="Group 33111" id="Group_33111" style="isolation: isolate" transform="translate(0 4)">
    <g id="doc" transform="translate(-32 -4)">
      <path
        d="M97.75,0A1.755,1.755,0,0,0,96,1.75v24.5A1.755,1.755,0,0,0,97.75,28h17.5A1.755,1.755,0,0,0,117,26.25V7l-7-7Z"
        data-name="Path 12365"
        fill="#919191"
        id="Path_12365" opacity="0.2" transform="translate(-60.5)"/>
      <path d="M353.75,7H359l-7-7V5.25A1.755,1.755,0,0,0,353.75,7Z" data-name="Path 12366" fill="#4a4a4a"
            id="Path_12366" transform="translate(-302.5)"/>
      <path
        d="M54,249.625a.9.9,0,0,1-.917.875H32.917a.9.9,0,0,1-.917-.875v-8.75a.9.9,0,0,1,.917-.875H53.083a.9.9,0,0,1,.917.875Z"
        data-name="Path 12368"
        fill="#4a4a4a"
        id="Path_12368" transform="translate(0 -227)"/>
      <text fill="#fff" font-family="Montserrat-Black, Montserrat" font-size="7" font-weight="800" id="FILE"
            transform="translate(43 21)">
        <tspan x="-7.994" y="0">FILE</tspan>
      </text>
    </g>
  </g>
</svg>
