<svg height="18" viewBox="0 0 18 18" width="18" xmlns="http://www.w3.org/2000/svg">
  <g data-name="Group 24729" id="Group_24729" transform="translate(-16.68 -17.598)">
    <g data-name="Group 6800" id="Group_6800" transform="translate(16.68 17.598)">
      <path d="M18,9A9,9,0,1,1,9,0,9,9,0,0,1,18,9Zm0,0" data-name="Path 11167" fill="#919191"
            id="Path_11167" opacity="0.7" transform="translate(0 0)"/>
      <path
        d="M.563,0H10.688a.563.563,0,0,1,.563.563v2.25a.563.563,0,0,1-.562.563H.563A.563.563,0,0,1,0,2.813V.563A.562.562,0,0,1,.563,0Z"
        data-name="Path 11168"
        fill="#FFFFFF"
        id="Path_11168" transform="translate(3.375 7.312)"/>
    </g>
  </g>
</svg>
