<svg height="16" viewBox="0 0 56 16" width="56"
     xmlns="http://www.w3.org/2000/svg">
  <defs>
    <filter filterUnits="userSpaceOnUse" height="16" id="Path_24078" width="56" x="0" y="0">
      <feOffset input="SourceAlpha"/>
      <feGaussianBlur result="blur"/>
      <feFlood flood-opacity="0.149"/>
      <feComposite in2="blur" operator="in"/>
      <feComposite in="SourceGraphic"/>
    </filter>
  </defs>
  <g data-name="Group 38341" id="Group_38341" transform="translate(-932 -655)">
    <g filter="url(#Path_24078)" transform="matrix(1, 0, 0, 1, 932, 655)">
      <path d="M0,0H56V13a3,3,0,0,1-3,3H3a3,3,0,0,1-3-3Z" data-name="Path 24078" fill="#f9f9f9"
            id="Path_24078-2" transform="translate(56 16) rotate(180)"/>
    </g>
    <g data-name="Group 35638" id="Group_35638" transform="translate(-1 -33)">
      <g data-name="Group 21583" id="Group_21583" transform="translate(966.286 701) rotate(180)">
        <path
          d="M5.777,4.612,1.306.22A.776.776,0,0,0,.224.22a.741.741,0,0,0,0,1.061L4.155,5.143.224,9a.742.742,0,0,0,0,1.062.776.776,0,0,0,1.082,0L5.777,5.674a.743.743,0,0,0,0-1.062Z"
          fill="#6c6c6c"
          id="bottom" transform="translate(0 8) rotate(-90)"/>
      </g>
    </g>
  </g>
</svg>
