<svg height="16" viewBox="0 0 16 16" width="16" xmlns="http://www.w3.org/2000/svg">
  <g data-name="Group 9685" id="Group_9685" transform="translate(0.105 0.104)">
    <circle cx="8" cy="8" data-name="Ellipse 1411" fill="#B7B7B7" id="Ellipse_1411" r="8"
            transform="translate(-0.105 -0.104)"/>
    <path
      d="M388.4,374.881l-2.557-2.557,2.494-2.494a.83.83,0,1,0-1.173-1.173l-2.494,2.494-2.557-2.557a.741.741,0,0,0-1.049,0l-.125.125a.741.741,0,0,0,0,1.048l2.557,2.557L381,374.818a.83.83,0,1,0,1.173,1.173l2.495-2.494,2.557,2.557a.74.74,0,0,0,1.048,0l.125-.125A.742.742,0,0,0,388.4,374.881Z"
      data-name="Path 5683"
      fill="#fff"
      id="Path_5683" transform="translate(-376.777 -364.429)"/>
  </g>
</svg>
