<svg data-name="Group 2297" height="24" id="Group_2297" viewBox="0 0 20 24" width="20"
     xmlns="http://www.w3.org/2000/svg">
  <rect data-name="Rectangle 1458" fill="#d8d8d8" height="24" id="Rectangle_1458" rx="3" width="20"/>
  <path
    d="M19627.98,16145.363v0a11.011,11.011,0,0,0-19.957,0,2.747,2.747,0,0,1-.023-.363v-18a3,3,0,0,1,3-3h14a3,3,0,0,1,3,3v18c0,.113-.008.227-.02.363ZM19618,16128a5,5,0,1,0,5,5A5,5,0,0,0,19618,16128Z"
    data-name="Subtraction 2"
    fill="#919191"
    id="Subtraction_2" transform="translate(-19608 -16124)"/>
</svg>
