<svg xmlns="http://www.w3.org/2000/svg" width="20" height="20" viewBox="0 0 20 20">
  <g id="Dispatch" transform="translate(-92 -626)">
    <rect id="Rectangle_52459" data-name="Rectangle 52459" width="20" height="20" transform="translate(92 626)" fill="#fff" opacity="0"/>
    <path id="pallet-boxes" d="M1.556,7.836,8,7.861a.9.9,0,0,0,.889-.9V-2.125A.876.876,0,0,0,8-3H1.556a.9.9,0,0,0-.889.9V6.961A.876.876,0,0,0,1.556,7.836Zm10,0h4.667a.892.892,0,0,0,.889-.875V.826a.9.9,0,0,0-.889-.9H11.556a.9.9,0,0,0-.889.9V6.961A.876.876,0,0,0,11.556,7.836Zm5.778,3.341a.45.45,0,0,0,.444-.45v-.9a.45.45,0,0,0-.444-.45H.444A.451.451,0,0,0,0,9.827v.9a.45.45,0,0,0,.444.45H1.778v1.8H.444a.451.451,0,0,0-.444.45v.9a.45.45,0,0,0,.444.45H17.333a.45.45,0,0,0,.444-.45v-.9a.45.45,0,0,0-.444-.45H16v-1.8ZM8,12.977H3.556v-1.8H8Zm6.222,0H9.778v-1.8h4.444Z" transform="translate(93.111 630.111)" fill="#fff"/>
  </g>
</svg>