<svg xmlns="http://www.w3.org/2000/svg" width="24" height="24" viewBox="0 0 24 24">
  <path id="Path_36668" data-name="Path 36668" d="M2,0H22a2,2,0,0,1,2,2V22a2,2,0,0,1-2,2H2a2,2,0,0,1-2-2V2A2,2,0,0,1,2,0Z" fill="#fff"/>
  <path id="times" d="M6.9,85l2.843-2.843a.894.894,0,0,0,0-1.264l-.632-.632a.894.894,0,0,0-1.264,0L5,83.1,2.157,80.262a.894.894,0,0,0-1.264,0l-.632.632a.894.894,0,0,0,0,1.264L3.1,85,.262,87.843a.894.894,0,0,0,0,1.264l.632.632a.894.894,0,0,0,1.264,0L5,86.9l2.843,2.843a.894.894,0,0,0,1.264,0l.632-.632a.894.894,0,0,0,0-1.264Z" transform="translate(7 -73)" fill="#536bc2"/>
</svg>
