<svg width="18" height="18" viewBox="0 0 18 18" fill="none" xmlns="http://www.w3.org/2000/svg">
<path d="M12.9205 7.8299H16.3405V7.8308C16.542 7.8308 16.7352 7.75077 16.8777 7.60832C17.0201 7.46587 17.1001 7.27266 17.1001 7.0712V2.9249C17.1001 2.38846 16.8873 1.87394 16.5083 1.49428C16.1293 1.11462 15.6152 0.900856 15.0787 0.899902H12.9187C12.7176 0.900379 12.5248 0.980618 12.3828 1.12302C12.2407 1.26542 12.1609 1.45836 12.1609 1.6595V7.0703C12.1609 7.27176 12.241 7.46497 12.3834 7.60742C12.5259 7.74987 12.7191 7.8299 12.9205 7.8299Z" fill="#6692F1"/>
<path d="M5.07999 10.1697H1.65999V10.1688C1.45853 10.1688 1.26533 10.2489 1.12287 10.3913C0.98042 10.5338 0.900391 10.727 0.900391 10.9284V15.0747C0.900629 15.6116 1.11393 16.1264 1.49344 16.5061C1.87296 16.8857 2.38766 17.0993 2.92449 17.0997H5.07729C5.17715 17.1001 5.2761 17.0807 5.36846 17.0428C5.46082 17.0048 5.54478 16.949 5.61552 16.8785C5.68626 16.808 5.74238 16.7242 5.78068 16.632C5.81898 16.5398 5.83869 16.4409 5.83869 16.341V10.9293C5.83881 10.8296 5.81927 10.7309 5.7812 10.6387C5.74312 10.5466 5.68725 10.4628 5.61679 10.3923C5.54633 10.3217 5.46265 10.2658 5.37054 10.2276C5.27843 10.1894 5.1797 10.1697 5.07999 10.1697Z" fill="#6692F1"/>
<path d="M0.900391 7.0712V2.9249C0.90039 2.38815 1.11349 1.87336 1.49286 1.49365C1.87223 1.11394 2.38684 0.90038 2.92359 0.899903H9.13359C9.2333 0.899785 9.33206 0.919322 9.42421 0.957397C9.51636 0.995472 9.60011 1.05134 9.67066 1.1218C9.7412 1.19227 9.79717 1.27594 9.83535 1.36805C9.87354 1.46016 9.89319 1.55889 9.89319 1.6586V7.0712C9.89319 7.27266 9.81316 7.46587 9.67071 7.60832C9.52826 7.75077 9.33505 7.8308 9.13359 7.8308H1.66359C1.56354 7.83128 1.46437 7.81198 1.3718 7.77402C1.27922 7.73606 1.19506 7.68018 1.12414 7.6096C1.05323 7.53901 0.996953 7.45512 0.958554 7.36272C0.920156 7.27033 0.900389 7.17126 0.900391 7.0712Z" fill="#6692F1"/>
<path d="M17.1019 15.0747V10.9284C17.1019 10.8287 17.0831 10.7299 17.0449 10.6378C17.0068 10.5456 16.9508 10.4619 16.8803 10.3913C16.8097 10.3208 16.726 10.2648 16.6338 10.2267C16.5417 10.1885 16.4429 10.1688 16.3432 10.1688H8.87315C8.77344 10.1688 8.67471 10.1885 8.5826 10.2267C8.4905 10.2649 8.40682 10.3208 8.33635 10.3914C8.26589 10.4619 8.21002 10.5457 8.17195 10.6378C8.13387 10.73 8.11434 10.8287 8.11445 10.9284V16.341C8.11434 16.4407 8.13388 16.5394 8.17197 16.6315C8.21005 16.7236 8.26593 16.8073 8.33641 16.8778C8.40688 16.9483 8.49057 17.0041 8.58267 17.0422C8.67478 17.0803 8.77349 17.0999 8.87315 17.0997H15.0742C15.3403 17.1001 15.6039 17.048 15.8499 16.9464C16.0959 16.8448 16.3195 16.6957 16.5078 16.5076C16.6961 16.3195 16.8455 16.0962 16.9475 15.8503C17.0494 15.6044 17.1019 15.3409 17.1019 15.0747Z" fill="#6692F1"/>
</svg>
