<svg width="240" height="241" viewBox="0 0 240 241" fill="none" xmlns="http://www.w3.org/2000/svg">
<path d="M216.011 21.2009C220.252 21.2009 223.69 17.7601 223.69 13.5155C223.69 9.27096 220.252 5.83008 216.011 5.83008C211.77 5.83008 208.332 9.27096 208.332 13.5155C208.332 17.7601 211.77 21.2009 216.011 21.2009Z" fill="#DADADA"/>
<path d="M43.9189 19.8781C46.3011 19.8781 48.2323 17.9454 48.2323 15.5611C48.2323 13.1769 46.3011 11.2441 43.9189 11.2441C41.5367 11.2441 39.6055 13.1769 39.6055 15.5611C39.6055 17.9454 41.5367 19.8781 43.9189 19.8781Z" fill="#DADADA"/>
<path d="M27.3618 169.266L36.0615 167.462L27.4931 165.685L25.5659 151.811L23.6128 165.866L15.0703 167.463L23.7441 169.083L25.5649 183.116L27.3618 169.266Z" fill="#AAAAAA"/>
<path d="M52.508 4.94363C52.3499 7.81523 56.808 8.0646 56.9661 5.18724C57.1243 2.30988 52.669 2.06818 52.508 4.94363Z" fill="#DADADA"/>
<path d="M62.6235 7.24005C62.4675 7.46191 62.404 7.73584 62.4464 8.00378C62.4888 8.27172 62.6337 8.51261 62.8505 8.67538C63.0673 8.83815 63.3389 8.91001 63.6077 8.87572C63.8764 8.84143 64.1213 8.70369 64.2904 8.4917C64.4463 8.26984 64.5098 7.9959 64.4675 7.72795C64.4251 7.46001 64.2801 7.21914 64.0634 7.05637C63.8466 6.8936 63.575 6.82174 63.3062 6.85603C63.0375 6.89032 62.7925 7.02806 62.6235 7.24005Z" fill="#DADADA"/>
<path d="M43.9867 28.2445C43.82 28.0333 43.5783 27.8947 43.312 27.8576C43.0457 27.8205 42.7754 27.8878 42.5574 28.0454C42.3395 28.203 42.1907 28.4388 42.1422 28.7035C42.0936 28.9683 42.149 29.2416 42.2968 29.4664C42.4636 29.6776 42.7053 29.8162 42.9716 29.8533C43.2379 29.8903 43.5082 29.8231 43.7261 29.6655C43.9441 29.5079 44.0928 29.2721 44.1414 29.0074C44.1899 28.7426 44.1346 28.4693 43.9867 28.2445Z" fill="#DADADA"/>
<path d="M7.49796 62.7637L12.8032 61.8276L7.57654 60.9011L6.40162 53.6895L5.21041 60.997L0 61.8286L5.29189 62.6697L6.40162 69.959L7.49796 62.7637Z" fill="#AAAAAA"/>
<path d="M227.988 56.9456C227.83 59.8172 232.29 60.0666 232.447 57.1892C232.604 54.3118 228.149 54.0701 227.988 56.9456Z" fill="#DADADA"/>
<path d="M238.143 59.2283C237.987 59.4502 237.924 59.7241 237.966 59.9921C238.008 60.26 238.153 60.5009 238.37 60.6637C238.587 60.8264 238.858 60.8983 239.127 60.864C239.396 60.8297 239.641 60.692 239.81 60.48C239.966 60.2581 240.029 59.9842 239.987 59.7163C239.945 59.4483 239.8 59.2074 239.583 59.0447C239.366 58.8819 239.094 58.81 238.826 58.8443C238.557 58.8786 238.312 59.0163 238.143 59.2283Z" fill="#DADADA"/>
<path d="M234.204 65.4206C234.038 65.2064 233.796 65.065 233.528 65.0263C233.26 64.9876 232.988 65.0547 232.769 65.2132C232.549 65.3718 232.4 65.6095 232.352 65.8762C232.305 66.1429 232.362 66.4177 232.513 66.6425C232.679 66.8567 232.921 66.9981 233.189 67.0368C233.457 67.0755 233.729 67.0085 233.949 66.85C234.168 66.6914 234.317 66.4537 234.365 66.187C234.413 65.9203 234.355 65.6455 234.204 65.4206Z" fill="#DADADA"/>
<path d="M190.391 2.03933C190.233 4.91094 194.691 5.16031 194.849 2.28294C195.007 -0.594419 190.552 -0.836115 190.391 2.03933Z" fill="#DADADA"/>
<path d="M200.51 4.33575C200.354 4.55761 200.291 4.83155 200.333 5.0995C200.376 5.36744 200.52 5.60833 200.737 5.7711C200.954 5.93387 201.226 6.00574 201.494 5.97145C201.763 5.93716 202.008 5.79942 202.177 5.58743C202.333 5.36557 202.397 5.09163 202.354 4.82369C202.312 4.55574 202.167 4.31485 201.95 4.15208C201.733 3.98932 201.462 3.91744 201.193 3.95173C200.924 3.98602 200.679 4.12376 200.51 4.33575Z" fill="#DADADA"/>
<path d="M168.327 38.7582C168.16 38.547 167.918 38.4084 167.652 38.3713C167.386 38.3342 167.115 38.4015 166.897 38.5591C166.679 38.7167 166.531 38.9525 166.482 39.2172C166.433 39.482 166.489 39.7552 166.637 39.9801C166.803 40.1912 167.045 40.3298 167.311 40.3669C167.578 40.404 167.848 40.3368 168.066 40.1792C168.284 40.0216 168.433 39.7858 168.481 39.5211C168.53 39.2563 168.474 38.983 168.327 38.7582Z" fill="white"/>
<path d="M129.793 57.168L134.284 59.6291C140.66 63.102 144.326 69.2692 144.313 77.6145C144.26 104.941 98.8881 121.057 98.8018 165.012L94.3149 162.566C94.3974 118.598 139.77 102.482 139.823 75.1678C139.839 66.8081 136.169 60.6409 129.793 57.168Z" fill="#DADADA"/>
<path d="M164.372 18.8867L168.859 21.3315C156.036 14.3462 138.489 12.1613 117.972 15.0464L113.483 12.6025C133.998 9.72036 151.545 11.9081 164.372 18.8867Z" fill="#DADADA"/>
<path d="M117.975 15.0503C161.588 8.91195 191.788 25.7052 191.735 62.7704C191.639 113.021 142.784 125.546 142.724 158.836L98.7994 165.01C98.8809 121.042 144.258 104.926 144.31 77.6118C144.336 62.2256 131.852 54.2477 112.952 56.9121C94.3442 59.5401 80.0813 70.3273 70.7501 86.0847L35.6265 68.7342C51.3622 40.75 78.7244 20.571 117.975 15.0503Z" fill="#F7F7F7"/>
<path d="M35.6129 68.714L31.125 66.2692C46.8828 38.3051 74.2325 18.1281 113.484 12.6055L117.974 15.0503C78.7242 20.5729 51.3611 40.7499 35.6129 68.714Z" fill="#DADADA"/>
<path d="M132.128 183.259L136.619 185.704C131.608 183.124 125.898 182.235 120.341 183.171L115.851 180.726C121.407 179.786 127.119 180.675 132.128 183.259Z" fill="#AAAAAA"/>
<path d="M104.466 237.162L99.9753 234.707C92.484 230.63 87.8745 222.501 87.8946 212.595C87.8991 204.791 90.7384 197.256 95.8833 191.392C101.028 185.529 108.128 181.738 115.859 180.725L120.349 183.17C112.62 184.187 105.522 187.979 100.378 193.842C95.2335 199.705 92.3921 207.238 92.3824 215.041C92.3652 224.956 96.9747 233.084 104.466 237.162Z" fill="#DADADA"/>
<path d="M120.346 183.17C136.626 180.868 148.234 191.18 148.205 207.198C148.175 222.903 136.521 237.425 120.241 239.706C103.961 241.987 92.3364 230.755 92.3795 215.063C92.3826 207.256 95.2211 199.717 100.366 193.849C105.512 187.982 112.612 184.186 120.346 183.17Z" fill="#F7F7F7"/>
<path d="M101.918 188.135C105.204 185.931 108.817 184.258 112.623 183.179C114.204 182.735 115.611 181.818 116.655 180.55C122.564 173.323 124.724 165.644 121.447 161.691C117.313 156.713 106.085 159.539 96.368 168.003C90.5197 173.096 85.451 179.021 81.3242 185.589C86.2092 187.621 91.358 188.949 96.6162 189.532C98.4911 189.688 100.363 189.195 101.918 188.135Z" fill="#92B1F5"/>
<path d="M101.738 188.253C105.123 185.953 108.861 184.22 112.804 183.124C114.263 182.715 115.561 181.867 116.524 180.696C122.219 173.773 124.501 166.416 121.859 162.297C121.359 167.75 117.108 174.897 110.276 180.847C103.089 187.09 90.1514 183.873 83.8781 181.761C82.2039 184.091 81.3242 185.589 81.3242 185.589C86.2751 187.654 91.499 188.99 96.8328 189.555C98.5686 189.697 100.3 189.237 101.738 188.253Z" fill="#3B73ED"/>
<path d="M117.163 178.268C116.99 178.459 115.055 180.141 114.863 180.308C114.824 180.34 134.183 184.31 134.183 184.31L129.738 213.135L136.351 212.783L137.838 182.581L117.163 178.268Z" fill="#3B73ED"/>
<path d="M106.566 222.88L110.177 194.298L100.984 181.556V180.18L115.101 191.995L112.475 223.206L106.566 222.88Z" fill="#3B73ED"/>
<path d="M141.32 239.635H95.3594" stroke="#919191"/>
<path d="M101.527 124.782C101.623 124.848 101.931 111.012 110.503 104.947C119.137 98.9145 130.778 99.6406 135.177 105.637C139.576 111.633 135.273 120.503 126.793 126.354C118.395 132.21 101.652 124.818 101.527 124.782Z" fill="#92B1F5"/>
<path d="M110.937 146.02C111.758 156.124 115.763 163.545 120.224 162.859C124.685 162.172 128.583 154.018 128.618 144.384C128.654 134.751 124.134 126.895 118.822 127.12C113.51 127.345 110.122 135.924 110.937 146.02Z" fill="#92B1F5"/>
<path d="M113.328 131.297C112.706 134.348 112.517 137.472 112.766 140.575C113.563 150.668 117.645 158.144 122.221 157.538C124.161 157.299 125.947 155.706 127.418 153.267C125.891 158.583 123.229 162.411 120.225 162.859C115.767 163.545 111.758 156.123 110.938 146.019C110.499 140.161 111.397 134.793 113.328 131.297Z" fill="#3B73ED"/>
<path d="M127.895 132.932C131.664 137.302 135.217 141.586 138.554 145.784C140.297 147.978 144.066 145.892 143.396 143.122C141.998 137.513 140.414 131.804 138.646 125.994C138.527 125.767 138.468 125.513 138.474 125.256C138.479 124.999 138.55 124.748 138.68 124.526C138.809 124.304 138.992 124.119 139.213 123.987C139.433 123.855 139.683 123.782 139.94 123.773C146.505 123.178 155.232 117.626 151.22 113.511C151.072 113.365 150.894 113.254 150.697 113.187C150.501 113.12 150.292 113.098 150.086 113.123C149.88 113.148 149.682 113.219 149.507 113.331C149.332 113.444 149.185 113.594 149.076 113.77C148.604 114.691 148.135 115.612 147.672 116.534C147.054 117.672 146.136 118.62 145.019 119.275C143.902 119.93 142.627 120.267 141.332 120.249C137.629 120.249 133.474 120.441 134.241 122.028C136.477 128.294 138.491 134.44 140.285 140.467C140.353 140.724 140.334 140.997 140.23 141.242C140.126 141.487 139.944 141.691 139.712 141.821C139.479 141.951 139.21 141.999 138.947 141.96C138.684 141.92 138.442 141.793 138.259 141.6C135.133 137.684 131.831 133.691 128.352 129.621C128.199 130.724 128.049 131.828 127.895 132.932Z" fill="#3B73ED"/>
<path d="M124.121 102.476C124.174 102.522 129.83 69.9717 138.504 66.8536C147.129 63.6405 164.11 68.9233 162.515 77.8307C161.008 86.7409 158.128 81.1684 158.106 79.8515C158.084 78.5347 161.031 77.6206 161.035 77.6235C161.039 77.6264 162.522 71.2693 153.438 68.6672C144.371 66.1179 139.979 67.0012 137.224 69.4345C134.408 71.8199 127.658 90.5975 127.629 91.878C127.599 93.1584 125.436 102.511 125.436 102.511C125.436 102.511 124.193 103.831 124.121 102.476Z" fill="#3B73ED"/>
<path d="M132.073 110.865C131.853 110.704 147.831 84.1861 159.275 84.1363C170.437 83.768 188.286 92.5017 183.47 99.3863C178.844 106.381 177.364 101.048 177.752 99.9387C178.14 98.829 181.836 98.8348 181.839 98.8415C181.842 98.8482 185.672 94.0085 176.038 89.5237C166.404 85.0388 160.918 84.6321 156.944 85.9385C152.781 87.0894 139.311 101.315 139.016 102.498C138.556 103.533 133.563 111.191 133.589 111.214C133.615 111.237 131.81 112.074 132.073 110.865Z" fill="#3B73ED"/>
<path d="M118.874 107.699C118.625 107.899 118.31 107.999 117.992 107.979C117.673 107.96 117.373 107.822 117.15 107.594C117.059 107.471 116.995 107.331 116.961 107.182C116.927 107.033 116.925 106.879 116.954 106.729C116.983 106.579 117.043 106.437 117.129 106.312C117.216 106.186 117.328 106.08 117.458 106.001C117.711 105.803 118.028 105.705 118.349 105.725C118.67 105.746 118.972 105.883 119.198 106.112C119.288 106.235 119.351 106.375 119.384 106.524C119.417 106.673 119.418 106.827 119.388 106.977C119.357 107.126 119.296 107.268 119.208 107.392C119.12 107.517 119.007 107.621 118.876 107.699H118.874Z" fill="#3B73ED"/>
<path d="M125.352 115.579C125.111 115.776 124.805 115.874 124.495 115.857C124.185 115.839 123.893 115.706 123.676 115.483C123.592 115.359 123.534 115.218 123.507 115.071C123.479 114.923 123.482 114.771 123.516 114.625C123.549 114.478 123.611 114.34 123.7 114.219C123.788 114.097 123.901 113.995 124.03 113.919C124.273 113.722 124.582 113.624 124.894 113.643C125.206 113.663 125.5 113.799 125.717 114.025C125.799 114.149 125.855 114.29 125.881 114.437C125.908 114.584 125.903 114.735 125.869 114.881C125.835 115.026 125.772 115.163 125.683 115.283C125.594 115.404 125.481 115.504 125.352 115.579Z" fill="#3B73ED"/>
<path d="M90.6271 142.28C93.0874 135.251 95.7775 128.365 98.6972 121.623C98.6675 121.607 103.602 119.98 97.827 116.136C91.9735 112.259 89.5806 113.728 89.5346 110.78C89.4387 108.27 94.5802 103.933 90.8475 103.851C89.5328 103.774 88.2375 104.195 87.2187 105.03C86.2 105.865 85.5324 107.053 85.3486 108.359C85.2058 109.483 85.2906 110.625 85.5978 111.716C86.4775 114.977 92.1834 117.932 96.2084 119.683C92.95 127.787 90.0042 136.084 87.3707 144.571C86.4881 147.505 89.5374 150.084 91.5336 148.097C96.7886 142.94 102.34 138.094 108.159 133.584C108.087 132.443 108.011 131.301 107.933 130.158C102.605 134.495 97.5145 139.117 92.6836 144.003C91.6947 145.02 90.1316 143.716 90.6271 142.28Z" fill="#3B73ED"/>
<path d="M129.905 133.638C129.426 132.304 128.92 130.963 128.418 129.619C127.105 131.017 125.823 132.429 124.57 133.855C125.249 134.942 125.917 136.02 126.576 137.091C127.672 135.922 128.782 134.771 129.905 133.638Z" fill="#3B73ED"/>
<path d="M107.322 133.064C108.806 135.092 110.254 137.103 111.665 139.097C112.036 138.325 112.407 137.549 112.782 136.795C111.189 134.593 109.547 132.375 107.857 130.139C107.122 131.212 106.397 132.293 105.684 133.381L107.322 133.064Z" fill="#3B73ED"/>
<path d="M132.339 121.426C123.764 128.602 104.851 122.168 104.71 122.142C104.645 117.603 105.317 113.084 106.7 108.76C101.845 115.455 101.621 124.82 101.539 124.764C101.664 124.8 118.406 132.192 126.818 126.334C128.888 124.921 130.771 123.251 132.422 121.365L132.339 121.426Z" fill="#3B73ED"/>
<path d="M201.712 104.529L210.412 102.725L201.844 100.948L199.917 87.0723L197.963 101.128L189.422 102.726L198.095 104.346L199.916 118.379L201.712 104.529Z" fill="#AAAAAA"/>
</svg>
