<svg width="18" height="14" viewBox="0 0 18 14" fill="none" xmlns="http://www.w3.org/2000/svg">
<path d="M6.8061 10.0085C6.0445 9.15948 5.63367 8.04406 5.65915 6.89438C5.68463 5.7447 6.14444 4.64931 6.94288 3.83617C7.09331 3.66381 7.17987 3.44334 7.1876 3.21287C7.19532 2.9824 7.12371 2.75645 6.98518 2.57404C6.91032 2.47488 6.81618 2.39247 6.70866 2.332C6.60113 2.27154 6.48257 2.2343 6.36029 2.2226C6.238 2.21091 6.11466 2.22501 5.99796 2.26403C5.88127 2.30305 5.77368 2.36613 5.682 2.44937C5.6073 2.52362 5.53444 2.60062 5.46244 2.67944C4.37292 3.90166 3.78784 5.50453 3.82891 7.15477C3.86998 8.80502 4.53402 10.3757 5.68293 11.5401C5.84949 11.7045 6.07196 11.7971 6.30393 11.7986C6.42922 11.7976 6.55291 11.7701 6.66724 11.7179C6.78157 11.6656 6.88403 11.5898 6.96809 11.4952C7.13354 11.307 7.22161 11.0612 7.21407 10.8087C7.20654 10.5562 7.10398 10.3163 6.92761 10.1386C6.88801 10.0956 6.8466 10.0525 6.8061 10.0085Z" fill="#6692F1"/>
<path d="M4.81445 12.0598C3.53527 10.7551 2.79863 8.99872 2.7574 7.1554C2.71618 5.31207 3.37356 3.5234 4.59308 2.16068C4.66508 2.08186 4.73884 2.00394 4.81264 1.93061C4.99253 1.75138 5.09753 1.50834 5.10575 1.25218C5.11397 0.99602 5.02477 0.746532 4.85675 0.55573C4.77383 0.462016 4.67295 0.386562 4.56034 0.334024C4.44773 0.281485 4.32575 0.252967 4.20192 0.250219C4.07808 0.247472 3.955 0.270557 3.84025 0.318052C3.7255 0.365546 3.62152 0.43644 3.53467 0.526387C1.89936 2.18848 0.956643 4.42897 0.902828 6.78127C0.849012 9.13358 1.68827 11.4164 3.24579 13.1542C3.33579 13.2578 3.43657 13.3596 3.53736 13.4604C3.70732 13.6293 3.93528 13.724 4.17275 13.7244C4.28998 13.7258 4.40625 13.702 4.51387 13.6546C4.62149 13.6073 4.71807 13.5373 4.79737 13.4494L5.26175 12.8747H5.07724C5.09624 12.7275 5.08252 12.5778 5.03703 12.4367C4.99154 12.2957 4.91545 12.1669 4.81445 12.0598Z" fill="#6692F1"/>
<path d="M14.7782 0.860955C14.6756 0.747298 14.5703 0.636373 14.4434 0.510801C14.351 0.43141 14.2437 0.371917 14.1281 0.335919C14.0125 0.299922 13.8909 0.288181 13.7707 0.301374C13.6505 0.314567 13.5342 0.352416 13.4288 0.412675C13.3234 0.472933 13.231 0.554355 13.1573 0.651975C13.018 0.83723 12.9472 1.06649 12.9572 1.29961C12.9672 1.53273 13.0576 1.75482 13.2123 1.92694C14.4914 3.23169 15.2281 4.98804 15.2693 6.83136C15.3105 8.67469 14.6531 10.4634 13.4336 11.8261C13.3616 11.9058 13.2878 11.9828 13.2293 12.0424C13.0408 12.2072 12.9218 12.4395 12.897 12.6912C12.8722 12.943 12.9435 13.1948 13.0961 13.3944C13.1702 13.4918 13.2628 13.5731 13.3684 13.6332C13.474 13.6934 13.5905 13.7312 13.7108 13.7445C13.7431 13.7483 13.7756 13.7501 13.808 13.75C14.0165 13.75 14.2182 13.675 14.3777 13.5383C14.4097 13.5121 14.4397 13.4836 14.4677 13.453C16.098 11.7967 17.0398 9.56481 17.0976 7.22029C17.1554 4.87576 16.3248 2.59854 14.7782 0.860955Z" fill="#6692F1"/>
<path d="M12.5408 2.67857C12.4688 2.60066 12.3959 2.52457 12.3203 2.4485C12.2345 2.36195 12.1321 2.29421 12.0196 2.24945C11.9071 2.20468 11.7867 2.18384 11.666 2.18819C11.545 2.19216 11.4261 2.2211 11.3164 2.27325C11.2067 2.3254 11.1086 2.39967 11.0279 2.49157C10.8616 2.67968 10.7729 2.92584 10.7803 3.17885C10.7877 3.43185 10.8906 3.67223 11.0675 3.84995C11.8617 4.65653 12.3202 5.74372 12.3479 6.88564C12.3756 8.02757 11.9702 9.13645 11.216 9.98193C11.1683 10.0351 11.1188 10.0873 11.0693 10.1368C10.8921 10.3145 10.7888 10.5549 10.7811 10.808C10.7734 11.0612 10.8618 11.3076 11.0279 11.4961C11.1086 11.588 11.2067 11.6623 11.3164 11.7145C11.4261 11.7666 11.545 11.7955 11.666 11.7995H11.6966C11.9302 11.7999 12.1545 11.7067 12.3212 11.5401C13.4703 10.3755 14.1343 8.80464 14.1752 7.15418C14.2161 5.50371 13.6307 3.90072 12.5408 2.67857Z" fill="#6692F1"/>
<path d="M9.00477 5.39166C8.69167 5.38162 8.38274 5.46701 8.11758 5.63689C7.85243 5.80677 7.64309 6.05338 7.51642 6.34517C7.38975 6.63696 7.35149 6.96064 7.40656 7.27471C7.46163 7.58878 7.60751 7.87895 7.82552 8.10806C8.04352 8.33716 8.32375 8.49476 8.63025 8.56067C8.93675 8.62659 9.25555 8.59783 9.54589 8.47804C9.83624 8.35826 10.0849 8.15292 10.2599 7.88834C10.435 7.62375 10.5285 7.31196 10.5284 6.99292C10.5342 6.575 10.3771 6.17178 10.0915 5.87164C9.80586 5.57149 9.41511 5.3989 9.00477 5.39166Z" fill="#6692F1"/>
</svg>
