<svg xmlns="http://www.w3.org/2000/svg" width="18" height="18" viewBox="0 0 18 18" fill="none">
<path d="M14.1986 11.7897L9.6496 16.3387C9.56459 16.4246 9.46337 16.4929 9.35179 16.5395C9.24022 16.5861 9.12051 16.6101 8.99959 16.6101C8.87868 16.6101 8.75897 16.5861 8.6474 16.5395C8.53582 16.4929 8.4346 16.4246 8.34959 16.3387L3.7986 11.7897C3.67069 11.661 3.58371 11.4974 3.54861 11.3194C3.51352 11.1415 3.53188 10.9571 3.60138 10.7895C3.67089 10.622 3.78842 10.4787 3.93919 10.3779C4.08995 10.277 4.2672 10.223 4.44859 10.2227H13.5486C13.73 10.223 13.9072 10.277 14.058 10.3779C14.2088 10.4787 14.3263 10.622 14.3958 10.7895C14.4653 10.9571 14.4837 11.1415 14.4486 11.3194C14.4135 11.4974 14.3265 11.661 14.1986 11.7897Z" fill="#CCCCCC"/>
<path d="M4.4526 7.7761H13.5526C13.7337 7.77499 13.9104 7.72042 14.0605 7.61924C14.2107 7.51806 14.3276 7.37478 14.3966 7.20738C14.4656 7.03999 14.4836 6.85593 14.4484 6.67833C14.4132 6.50073 14.3263 6.33749 14.1986 6.2091L9.6496 1.6601C9.56459 1.57411 9.46337 1.50584 9.3518 1.45925C9.24022 1.41266 9.12051 1.38867 8.9996 1.38867C8.87868 1.38867 8.75897 1.41266 8.6474 1.45925C8.53582 1.50584 8.4346 1.57411 8.3496 1.6601L3.7986 6.2091C3.67045 6.33797 3.58339 6.50194 3.54842 6.68029C3.51345 6.85864 3.53215 7.04335 3.60215 7.21107C3.67215 7.37879 3.79031 7.52198 3.94168 7.62256C4.09306 7.72313 4.27086 7.77656 4.4526 7.7761Z" fill="#CCCCCC"/>
</svg>