<svg width="18" height="18" viewBox="0 0 18 18" fill="none" xmlns="http://www.w3.org/2000/svg">
<path d="M16.3196 6.90064V1.41397C16.3137 1.1656 16.2096 0.929692 16.0302 0.757888C15.8507 0.586083 15.6105 0.492384 15.3621 0.497304H11.0221V3.35897C11.0324 3.44517 11.0125 3.53227 10.9659 3.60549C10.9193 3.67872 10.8487 3.73353 10.7662 3.76064C9.64718 3.83415 8.52449 3.83415 7.40542 3.76064C7.19125 3.68147 7.15542 3.5073 7.15542 3.30647C7.16097 2.73708 7.15913 2.1677 7.15728 1.59585C7.15635 1.309 7.15542 1.02153 7.15542 0.733137V0.497304H2.43042C2.30644 0.494541 2.18315 0.516313 2.06762 0.561367C1.95209 0.606422 1.84661 0.67387 1.75724 0.759833C1.66787 0.845796 1.59637 0.948579 1.54686 1.06227C1.49735 1.17596 1.47081 1.29832 1.46875 1.4223V6.90064C1.47081 7.02462 1.49735 7.14698 1.54686 7.26067C1.59637 7.37436 1.66787 7.47715 1.75724 7.56311C1.84661 7.64907 1.95209 7.71652 2.06762 7.76157C2.18315 7.80663 2.30644 7.8284 2.43042 7.82564H15.3579C15.4819 7.8284 15.6052 7.80663 15.7207 7.76157C15.8362 7.71652 15.9417 7.64907 16.0311 7.56311C16.1205 7.47715 16.192 7.37436 16.2415 7.26067C16.291 7.14698 16.3175 7.02462 16.3196 6.90064Z" fill="white"/>
<path d="M17.999 10.7959V16.8675C17.9995 16.9502 17.9835 17.0321 17.9521 17.1085C17.9207 17.1849 17.8744 17.2544 17.816 17.3128C17.7575 17.3713 17.6881 17.4175 17.6117 17.4489C17.5352 17.4804 17.4533 17.4963 17.3707 17.4959H10.959C10.8771 17.4953 10.7961 17.4786 10.7206 17.4468C10.6451 17.4149 10.5767 17.3684 10.5192 17.3101C10.4617 17.2517 10.4162 17.1826 10.3855 17.1067C10.3547 17.0307 10.3392 16.9495 10.3399 16.8675V10.7842C10.3405 10.6202 10.406 10.4631 10.5219 10.3471C10.6379 10.2311 10.795 10.1657 10.959 10.165H12.9132V10.4267C12.9132 10.6135 12.9142 10.7992 12.9152 10.9841C12.9173 11.3521 12.9193 11.7174 12.9132 12.0834C12.9132 12.2142 12.939 12.3275 13.0699 12.38C13.7986 12.441 14.5311 12.441 15.2599 12.38C15.3907 12.3267 15.4165 12.2234 15.4165 12.0917V10.1675H17.3707C17.4533 10.1671 17.5352 10.183 17.6117 10.2145C17.6881 10.2459 17.7575 10.2922 17.816 10.3506C17.8744 10.409 17.9207 10.4785 17.9521 10.5549C17.9835 10.6313 17.9995 10.7132 17.999 10.7959Z" fill="white"/>
<path d="M7.65944 10.8002V16.8719C7.6601 16.9538 7.6446 17.0351 7.61383 17.111C7.58306 17.1869 7.53762 17.2561 7.48011 17.3144C7.42261 17.3728 7.35416 17.4192 7.27869 17.4511C7.20322 17.483 7.1222 17.4997 7.04027 17.5002H0.624436C0.541799 17.5007 0.459894 17.4847 0.383461 17.4533C0.307029 17.4219 0.237586 17.3756 0.179152 17.3172C0.120718 17.2587 0.0744518 17.1893 0.0430316 17.1129C0.0116115 17.0364 -0.00433922 16.9545 -0.00389731 16.8719V10.7886C-0.00213761 10.6235 0.0649981 10.4659 0.182787 10.3503C0.300576 10.2347 0.459402 10.1706 0.624436 10.1719H2.58194V12.0886C2.58194 12.2194 2.5986 12.3327 2.73027 12.3852C3.459 12.4462 4.19154 12.4462 4.92027 12.3852C5.0511 12.3319 5.07694 12.2286 5.07694 12.0969V10.1719H7.0411C7.12303 10.1724 7.20405 10.1891 7.27952 10.221C7.35499 10.2529 7.42344 10.2993 7.48095 10.3577C7.53845 10.4161 7.58389 10.4852 7.61466 10.5611C7.64543 10.637 7.6601 10.7183 7.65944 10.8002Z" fill="white"/>
</svg>
