<svg xmlns="http://www.w3.org/2000/svg" width="226" height="251" viewBox="0 0 226 251" fill="none">
<path d="M218.007 32.0841C222.421 32.0841 226 28.4998 226 24.0784C226 19.657 222.421 16.0728 218.007 16.0728C213.592 16.0728 210.013 19.657 210.013 24.0784C210.013 28.4998 213.592 32.0841 218.007 32.0841Z" fill="#DADADA"/>
<path d="M38.8684 20.7071C41.3482 20.7071 43.3585 18.6938 43.3585 16.2103C43.3585 13.7267 41.3482 11.7134 38.8684 11.7134C36.3887 11.7134 34.3784 13.7267 34.3784 16.2103C34.3784 18.6938 36.3887 20.7071 38.8684 20.7071Z" fill="#DADADA"/>
<path d="M41.5755 156.319L50.6314 154.439L41.7122 152.588L39.7061 138.135L37.673 152.777L28.7808 154.44L37.8097 156.128L39.7051 170.745L41.5755 156.319Z" fill="#AAAAAA"/>
<path d="M47.8099 5.14969C47.6453 8.14095 52.286 8.40071 52.4506 5.40346C52.6152 2.4062 47.9775 2.15444 47.8099 5.14969Z" fill="#DADADA"/>
<path d="M58.3373 7.54229C58.175 7.77339 58.1089 8.05873 58.153 8.33784C58.1971 8.61695 58.348 8.86787 58.5736 9.03743C58.7993 9.20698 59.082 9.28183 59.3618 9.24611C59.6416 9.21039 59.8965 9.06691 60.0725 8.84609C60.2348 8.61498 60.3009 8.32963 60.2568 8.05052C60.2127 7.77141 60.0618 7.5205 59.8362 7.35095C59.6105 7.1814 59.3278 7.10655 59.048 7.14227C58.7682 7.17799 58.5133 7.32147 58.3373 7.54229Z" fill="#DADADA"/>
<path d="M38.938 29.4212C38.7644 29.2012 38.5128 29.0568 38.2356 29.0182C37.9584 28.9796 37.677 29.0496 37.4501 29.2138C37.2233 29.378 37.0684 29.6236 37.0179 29.8993C36.9673 30.1751 37.025 30.4598 37.1789 30.694C37.3524 30.914 37.604 31.0583 37.8812 31.097C38.1584 31.1356 38.4398 31.0656 38.6667 30.9014C38.8936 30.7372 39.0484 30.4916 39.0989 30.2159C39.1495 29.9401 39.0918 29.6554 38.938 29.4212Z" fill="#DADADA"/>
<path d="M7.80494 65.3784L13.3274 64.4033L7.88674 63.4382L6.66371 55.926L5.42373 63.5381L0 64.4043L5.50855 65.2805L6.66371 72.8735L7.80494 65.3784Z" fill="#AAAAAA"/>
<path d="M191.337 2.1243C191.173 5.11556 195.813 5.37532 195.978 2.37807C196.143 -0.619186 191.505 -0.870953 191.337 2.1243Z" fill="#DADADA"/>
<path d="M201.871 4.51617C201.709 4.74727 201.643 5.03262 201.687 5.31173C201.731 5.59084 201.882 5.84177 202.107 6.01132C202.333 6.18087 202.616 6.25574 202.895 6.22002C203.175 6.1843 203.43 6.04082 203.606 5.81999C203.768 5.58889 203.835 5.30354 203.79 5.02443C203.746 4.74532 203.595 4.4944 203.37 4.32484C203.144 4.15529 202.862 4.08042 202.582 4.11614C202.302 4.15186 202.047 4.29534 201.871 4.51617Z" fill="#DADADA"/>
<path d="M168.37 40.3733C168.197 40.1533 167.945 40.009 167.668 39.9703C167.391 39.9317 167.109 40.0018 166.882 40.1659C166.655 40.3301 166.501 40.5757 166.45 40.8515C166.399 41.1273 166.457 41.4119 166.611 41.6461C166.785 41.8661 167.036 42.0105 167.313 42.0491C167.591 42.0878 167.872 42.0177 168.099 41.8535C168.326 41.6894 168.481 41.4438 168.531 41.168C168.582 40.8922 168.524 40.6075 168.37 40.3733Z" fill="white"/>
<path d="M128.258 59.5505L132.932 62.1142C139.569 65.7318 143.386 72.156 143.372 80.849C143.317 109.314 96.0875 126.102 95.9977 171.889L91.3271 169.34C91.4129 123.54 138.644 106.752 138.698 78.3003C138.715 69.5923 134.895 63.1682 128.258 59.5505Z" fill="#DADADA"/>
<path d="M164.252 19.6741L168.924 22.2208C155.576 14.9445 137.31 12.6685 115.953 15.6738L111.281 13.1281C132.636 10.1259 150.901 12.4048 164.252 19.6741Z" fill="#DADADA"/>
<path d="M115.956 15.6779C161.355 9.28373 192.791 26.7767 192.736 65.3863C192.637 117.73 141.781 130.777 141.719 165.455L95.9957 171.886C96.0805 126.086 143.315 109.298 143.37 80.8461C143.397 64.8188 130.402 56.5084 110.728 59.2839C91.358 62.0214 76.5113 73.2581 66.798 89.672L30.2363 71.5986C46.6163 42.4483 75.0987 21.4286 115.956 15.6779Z" fill="#F7F7F7"/>
<path d="M30.2219 71.5775L25.5503 69.0308C41.9532 39.9016 70.4227 18.8838 111.281 13.1311L115.955 15.6778C75.0983 21.4305 46.6148 42.4482 30.2219 71.5775Z" fill="#DADADA"/>
<path d="M130.688 190.894L135.363 193.441C130.147 190.753 124.203 189.828 118.419 190.802L113.745 188.256C119.529 187.277 125.474 188.202 130.688 190.894Z" fill="#AAAAAA"/>
<path d="M101.894 247.043L97.2199 244.486C89.4219 240.239 84.6237 231.771 84.6446 221.452C84.6493 213.324 87.6049 205.474 92.9603 199.366C98.3158 193.259 105.706 189.309 113.753 188.255L118.428 190.801C110.382 191.861 102.994 195.811 97.6391 201.918C92.284 208.025 89.3263 215.872 89.3162 224C89.2982 234.328 94.0965 242.796 101.894 247.043Z" fill="#DADADA"/>
<path d="M118.425 190.802C135.372 188.404 147.454 199.146 147.424 215.831C147.393 232.191 135.262 247.318 118.315 249.694C101.369 252.069 89.2682 240.37 89.3131 224.024C89.3163 215.892 92.2711 208.039 97.6269 201.926C102.983 195.814 110.374 191.861 118.425 190.802Z" fill="#F7F7F7"/>
<path d="M99.2418 195.974C102.663 193.678 106.423 191.936 110.386 190.812C112.031 190.35 113.495 189.394 114.582 188.074C120.733 180.545 122.982 172.546 119.57 168.429C115.268 163.243 103.58 166.187 93.4649 175.004C87.3772 180.308 82.1009 186.48 77.8052 193.322C82.8902 195.439 88.2498 196.822 93.7233 197.429C95.6749 197.592 97.6232 197.079 99.2418 195.974Z" fill="#92B1F5"/>
<path d="M99.0542 196.096C102.579 193.7 106.47 191.896 110.574 190.754C112.093 190.328 113.444 189.445 114.446 188.224C120.374 181.013 122.749 173.35 119.999 169.059C119.479 174.74 115.054 182.184 107.943 188.382C100.461 194.885 86.9937 191.534 80.4637 189.334C78.7209 191.761 77.8052 193.322 77.8052 193.322C82.9588 195.473 88.3965 196.864 93.9487 197.453C95.7556 197.601 97.5581 197.122 99.0542 196.096Z" fill="#3B73ED"/>
<path d="M115.111 185.695C114.931 185.895 112.917 187.646 112.717 187.82C112.676 187.854 132.828 191.989 132.828 191.989L128.201 222.015L135.085 221.648L136.633 190.188L115.111 185.695Z" fill="#3B73ED"/>
<path d="M104.079 232.166L107.838 202.394L98.2695 189.121V187.687L112.964 199.995L110.23 232.506L104.079 232.166Z" fill="#3B73ED"/>
<path d="M140.257 249.62H92.415" stroke="#919191"/>
<path d="M98.8364 129.982C98.9362 130.051 99.2564 115.638 108.18 109.321C117.167 103.037 129.285 103.793 133.864 110.039C138.443 116.286 133.964 125.525 125.136 131.62C116.395 137.72 98.9661 130.02 98.8364 129.982Z" fill="#92B1F5"/>
<path d="M108.63 152.105C109.485 162.629 113.654 170.36 118.297 169.645C122.941 168.929 126.998 160.435 127.035 150.4C127.072 140.366 122.367 132.182 116.838 132.417C111.308 132.652 107.782 141.587 108.63 152.105Z" fill="#92B1F5"/>
<path d="M111.12 136.767C110.473 139.945 110.276 143.199 110.535 146.432C111.365 156.945 115.614 164.732 120.377 164.102C122.396 163.852 124.256 162.193 125.787 159.653C124.198 165.19 121.427 169.177 118.299 169.644C113.659 170.359 109.486 162.627 108.632 152.103C108.175 146 109.11 140.409 111.12 136.767Z" fill="#3B73ED"/>
<path d="M126.283 138.47C130.206 143.022 133.905 147.485 137.379 151.858C139.193 154.144 143.117 151.971 142.419 149.086C140.964 143.242 139.315 137.295 137.474 131.244C137.35 131.007 137.289 130.742 137.295 130.475C137.301 130.207 137.375 129.946 137.509 129.714C137.644 129.483 137.835 129.29 138.064 129.153C138.294 129.016 138.554 128.939 138.821 128.93C145.655 128.311 154.739 122.527 150.563 118.24C150.41 118.088 150.223 117.973 150.019 117.903C149.815 117.833 149.597 117.811 149.382 117.837C149.168 117.863 148.962 117.937 148.78 118.053C148.598 118.17 148.445 118.326 148.332 118.511C147.84 119.469 147.352 120.429 146.869 121.389C146.226 122.575 145.271 123.563 144.108 124.245C142.945 124.927 141.618 125.278 140.271 125.26C136.416 125.26 132.091 125.459 132.889 127.112C135.216 133.639 137.313 140.042 139.18 146.319C139.251 146.587 139.231 146.871 139.123 147.127C139.015 147.382 138.825 147.594 138.584 147.73C138.342 147.865 138.062 147.916 137.788 147.874C137.514 147.833 137.262 147.701 137.071 147.5C133.818 143.421 130.38 139.261 126.759 135.022C126.6 136.171 126.443 137.321 126.283 138.47Z" fill="#3B73ED"/>
<path d="M122.354 106.746C122.409 106.794 128.297 72.8874 137.326 69.6394C146.304 66.2924 163.981 71.7954 162.32 81.0739C160.752 90.3554 157.754 84.5507 157.731 83.1789C157.708 81.8072 160.776 80.8551 160.78 80.8581C160.784 80.8611 162.328 74.2391 152.872 71.5286C143.433 68.8731 138.861 69.7932 135.994 72.3279C133.062 74.8126 126.036 94.3727 126.006 95.7064C125.975 97.0402 123.723 106.782 123.723 106.782C123.723 106.782 122.429 108.157 122.354 106.746Z" fill="#3B73ED"/>
<path d="M130.63 115.485C130.4 115.317 147.033 87.6941 158.946 87.6421C170.564 87.2585 189.144 96.3561 184.131 103.528C179.316 110.814 177.775 105.259 178.179 104.103C178.583 102.947 182.43 102.953 182.433 102.96C182.436 102.967 186.423 97.9257 176.395 93.254C166.366 88.5823 160.655 88.1586 156.519 89.5194C152.186 90.7183 138.164 105.537 137.857 106.769C137.378 107.847 132.181 115.824 132.208 115.848C132.235 115.872 130.356 116.744 130.63 115.485Z" fill="#3B73ED"/>
<path d="M116.892 112.187C116.632 112.395 116.305 112.499 115.973 112.479C115.641 112.459 115.329 112.316 115.097 112.077C115.002 111.95 114.935 111.804 114.9 111.649C114.865 111.494 114.862 111.333 114.892 111.177C114.923 111.021 114.985 110.873 115.075 110.742C115.166 110.611 115.282 110.501 115.418 110.418C115.681 110.212 116.011 110.11 116.345 110.131C116.679 110.153 116.993 110.296 117.229 110.534C117.322 110.662 117.388 110.808 117.422 110.964C117.456 111.119 117.458 111.279 117.426 111.435C117.395 111.591 117.331 111.738 117.239 111.868C117.147 111.997 117.03 112.106 116.893 112.187H116.892Z" fill="#3B73ED"/>
<path d="M123.634 120.396C123.384 120.6 123.065 120.703 122.743 120.685C122.42 120.666 122.115 120.528 121.889 120.296C121.802 120.166 121.742 120.02 121.714 119.866C121.685 119.712 121.688 119.554 121.723 119.401C121.757 119.249 121.823 119.105 121.915 118.978C122.007 118.852 122.124 118.746 122.258 118.666C122.512 118.461 122.833 118.359 123.158 118.379C123.483 118.399 123.788 118.541 124.014 118.776C124.1 118.906 124.158 119.053 124.185 119.206C124.213 119.359 124.208 119.517 124.173 119.668C124.137 119.82 124.071 119.963 123.979 120.088C123.886 120.213 123.769 120.318 123.634 120.396Z" fill="#3B73ED"/>
<path d="M87.4875 148.207C90.0486 140.885 92.8488 133.713 95.888 126.69C95.8571 126.673 100.994 124.979 94.9822 120.974C88.8891 116.936 86.3982 118.466 86.3503 115.395C86.2506 112.781 91.6025 108.263 87.717 108.177C86.3485 108.097 85.0001 108.536 83.9396 109.406C82.8792 110.276 82.1843 111.513 81.993 112.873C81.8443 114.044 81.9326 115.233 82.2523 116.37C83.1681 119.766 89.1076 122.845 93.2973 124.669C89.9056 133.111 86.8391 141.753 84.0978 150.594C83.1791 153.65 86.3533 156.337 88.4312 154.267C93.9013 148.895 99.6797 143.847 105.737 139.15C105.662 137.961 105.583 136.771 105.502 135.58C99.9557 140.099 94.6569 144.913 89.6283 150.003C88.5988 151.062 86.9718 149.703 87.4875 148.207Z" fill="#3B73ED"/>
<path d="M128.373 139.206C127.874 137.816 127.348 136.419 126.825 135.02C125.458 136.476 124.123 137.946 122.82 139.432C123.526 140.564 124.222 141.687 124.908 142.802C126.049 141.585 127.204 140.386 128.373 139.206Z" fill="#3B73ED"/>
<path d="M104.866 138.608C106.411 140.721 107.918 142.816 109.387 144.892C109.773 144.088 110.159 143.28 110.549 142.495C108.89 140.201 107.182 137.89 105.423 135.561C104.657 136.679 103.903 137.805 103.16 138.939L104.866 138.608Z" fill="#3B73ED"/>
<path d="M130.909 126.484C121.983 133.959 102.296 127.257 102.149 127.231C102.082 122.502 102.781 117.794 104.22 113.29C99.1664 120.265 98.9329 130.02 98.8481 129.961C98.9778 129.999 116.405 137.699 125.162 131.597C127.316 130.125 129.277 128.386 130.996 126.421L130.909 126.484Z" fill="#3B73ED"/>
<path d="M203.124 118.886L212.18 117.006L203.26 115.155L201.254 100.701L199.221 115.343L190.33 117.007L199.358 118.695L201.253 133.312L203.124 118.886Z" fill="#AAAAAA"/>
</svg>