<svg xmlns="http://www.w3.org/2000/svg" width="18" height="18" viewBox="0 0 18 18" fill="none">
<path d="M11.387 9.0002L14.9685 5.41845C15.1796 5.20728 15.2982 4.9209 15.2982 4.62228C15.2982 4.32367 15.1796 4.03728 14.9685 3.82611L14.1724 3.02994C13.9612 2.8188 13.6749 2.7002 13.3763 2.7002C13.0777 2.7002 12.7913 2.8188 12.5802 3.02994L8.99973 6.61169L5.41726 3.02994C5.2061 2.8188 4.91974 2.7002 4.62115 2.7002C4.32256 2.7002 4.0362 2.8188 3.82505 3.02994L3.02894 3.82611C2.81782 4.03728 2.69922 4.32367 2.69922 4.62228C2.69922 4.9209 2.81782 5.20728 3.02894 5.41845L6.61039 9.0002L3.02996 12.5819C2.81884 12.7931 2.70024 13.0795 2.70024 13.3781C2.70024 13.6767 2.81884 13.9631 3.02996 14.1743L3.82606 14.9705C4.03721 15.1816 4.32358 15.3002 4.62217 15.3002C4.92076 15.3002 5.20712 15.1816 5.41827 14.9705L8.99973 11.3887L12.5812 14.9705C12.7923 15.1816 13.0787 15.3002 13.3773 15.3002C13.6759 15.3002 13.9622 15.1816 14.1734 14.9705L14.9695 14.1743C15.1806 13.9631 15.2992 13.6767 15.2992 13.3781C15.2992 13.0795 15.1806 12.7931 14.9695 12.5819L11.387 9.0002Z" fill="#919191"/>
</svg>