<svg xmlns="http://www.w3.org/2000/svg" width="14" height="14" viewBox="0 0 14 14" fill="none">
<path d="M2.75977 9.1L11.241 9.1C11.3714 9.10009 11.4989 9.0612 11.6073 8.98826C11.7158 8.91533 11.8003 8.81162 11.8502 8.69026C11.9001 8.56891 11.9132 8.43537 11.8877 8.30654C11.8622 8.17771 11.7994 8.05939 11.7072 7.96655L7.46655 3.69443C7.34289 3.56993 7.17521 3.5 7.00039 3.5C6.82557 3.5 6.6579 3.56993 6.53423 3.69443L2.29361 7.96655C2.20137 8.05939 2.13854 8.17771 2.11308 8.30654C2.08761 8.43537 2.10066 8.56891 2.15057 8.69027C2.20048 8.81162 2.28501 8.91533 2.39345 8.98826C2.50189 9.0612 2.62938 9.10009 2.75977 9.1Z" fill="white" fill-opacity="0.7"/>
</svg>