<svg xmlns="http://www.w3.org/2000/svg" width="15.003" height="17" viewBox="0 0 15.003 17">
  <path id="island-tropical" d="M10.516,1a3.749,3.749,0,0,0-2.7,1.1A3.487,3.487,0,0,0,4.483,0,3.39,3.39,0,0,0,1,2.551.387.387,0,0,0,1.393,3H2.5L3,2l.5,1h.943a3.034,3.034,0,0,0-.454,3.831.379.379,0,0,0,.578.061L6.784,4.673A24.071,24.071,0,0,1,6.128,11H4.462A4.5,4.5,0,0,0,.01,14.837,1.01,1.01,0,0,0,1,16H11a.979.979,0,0,0,.994-1.064A4.526,4.526,0,0,0,8.9,11.244,22.728,22.728,0,0,0,8.32,4H11.5L12,3l.5,1h1.106a.387.387,0,0,0,.388-.449A3.39,3.39,0,0,0,10.516,1Z" transform="translate(0.503 0.5)" fill="#aaa" stroke="rgba(0,0,0,0)" stroke-miterlimit="10" stroke-width="1"/>
</svg>