<svg width="18" height="18" viewBox="0 0 18 18" fill="none" xmlns="http://www.w3.org/2000/svg">
<path d="M9.0002 0.450928C7.30917 0.450928 5.65611 0.952377 4.25007 1.89186C2.84403 2.83135 1.74816 4.16668 1.10103 5.72898C0.4539 7.29129 0.284581 9.01041 0.614485 10.6689C0.944388 12.3275 1.7587 13.8509 2.95444 15.0467C4.15017 16.2424 5.67364 17.0567 7.33218 17.3866C8.99071 17.7165 10.7098 17.5472 12.2721 16.9001C13.8344 16.253 15.1698 15.1571 16.1093 13.7511C17.0487 12.345 17.5502 10.692 17.5502 9.00093C17.5502 6.73333 16.6494 4.5586 15.046 2.95516C13.4425 1.35173 11.2678 0.450928 9.0002 0.450928ZM9.0002 2.10593C10.3649 2.10593 11.6989 2.51061 12.8336 3.26879C13.9683 4.02697 14.8527 5.1046 15.375 6.36541C15.8972 7.62622 16.0339 9.01358 15.7676 10.352C15.5014 11.6905 14.8442 12.92 13.8792 13.885C12.9143 14.8499 11.6848 15.5071 10.3463 15.7733C9.00785 16.0396 7.62049 15.9029 6.35968 15.3807C5.09887 14.8585 4.02124 13.9741 3.26306 12.8394C2.50488 11.7047 2.1002 10.3706 2.1002 9.00593C2.09901 8.09947 2.27668 7.20169 2.62302 6.36401C2.96935 5.52633 3.47756 4.76521 4.11852 4.12425C4.75948 3.48329 5.5206 2.97508 6.35828 2.62875C7.19596 2.28241 8.09374 2.10474 9.0002 2.10593Z" fill="#919191"/>
<path d="M7.65098 11.7268V6.27462C7.65092 6.19079 7.67592 6.10884 7.72281 6.03913C7.76969 5.96941 7.83636 5.91508 7.91438 5.88299C7.99239 5.85091 8.07824 5.84252 8.16106 5.85889C8.24388 5.87526 8.31994 5.91564 8.37962 5.97494L11.126 8.70106C11.206 8.78056 11.251 8.88835 11.251 9.00073C11.251 9.11312 11.206 9.22091 11.126 9.3004L8.37962 12.0265C8.31994 12.0858 8.24388 12.1262 8.16106 12.1426C8.07824 12.1589 7.99239 12.1506 7.91438 12.1185C7.83636 12.0864 7.76969 12.032 7.72281 11.9623C7.67592 11.8926 7.65092 11.8107 7.65098 11.7268Z" fill="#919191"/>
</svg>
