<svg width="18" height="18" viewBox="0 0 18 18" fill="none" xmlns="http://www.w3.org/2000/svg">
<path d="M9.0002 0.450928C7.30917 0.450928 5.65611 0.952377 4.25007 1.89186C2.84403 2.83135 1.74816 4.16668 1.10103 5.72898C0.4539 7.29129 0.284581 9.01041 0.614485 10.6689C0.944388 12.3275 1.7587 13.8509 2.95444 15.0467C4.15017 16.2424 5.67364 17.0567 7.33218 17.3866C8.99071 17.7165 10.7098 17.5472 12.2721 16.9001C13.8344 16.253 15.1698 15.1571 16.1093 13.7511C17.0487 12.345 17.5502 10.692 17.5502 9.00093C17.5502 6.73333 16.6494 4.5586 15.046 2.95516C13.4425 1.35173 11.2678 0.450928 9.0002 0.450928ZM9.0002 2.10593C10.3649 2.10593 11.6989 2.51061 12.8336 3.26879C13.9683 4.02697 14.8527 5.1046 15.375 6.36541C15.8972 7.62622 16.0339 9.01358 15.7676 10.352C15.5014 11.6905 14.8442 12.92 13.8792 13.885C12.9143 14.8499 11.6848 15.5071 10.3463 15.7733C9.00785 16.0396 7.62049 15.9029 6.35968 15.3807C5.09887 14.8584 4.02124 13.9741 3.26306 12.8394C2.50488 11.7047 2.1002 10.3706 2.1002 9.00593C2.09901 8.09947 2.27668 7.20169 2.62302 6.36401C2.96935 5.52633 3.47756 4.76521 4.11852 4.12425C4.75948 3.48329 5.5206 2.97508 6.35828 2.62875C7.19596 2.28241 8.09374 2.10474 9.0002 2.10593Z" fill="#919191"/>
<path d="M6.93688 5.55871C7.04617 5.55955 7.15136 5.60363 7.22944 5.6813L9.00488 7.45674L10.7751 5.6865C10.8532 5.60882 10.9584 5.56474 11.0677 5.5639C11.177 5.56306 11.2815 5.60552 11.3584 5.68201L12.3256 6.6492C12.4021 6.72609 12.4445 6.83061 12.4437 6.93991C12.4429 7.04921 12.3988 7.1544 12.3211 7.23248L10.5509 9.00272L12.3201 10.7719C12.3977 10.85 12.4418 10.9552 12.4427 11.0645C12.4435 11.1738 12.401 11.2783 12.3246 11.3552L11.3574 12.3224C11.2805 12.3989 11.176 12.4413 11.0667 12.4405C10.9574 12.4397 10.8522 12.3956 10.7741 12.3179L9.00488 10.5487L7.23122 12.3224C7.15314 12.4 7.04795 12.4441 6.93865 12.445C6.82936 12.4458 6.72484 12.4033 6.64794 12.3268L5.68075 11.3597C5.60427 11.2828 5.5618 11.1782 5.56264 11.0689C5.56349 10.9596 5.60756 10.8545 5.68524 10.7764L7.4589 9.00272L5.68347 7.22728C5.60579 7.1492 5.56171 7.04401 5.56087 6.93471C5.56002 6.82542 5.60249 6.7209 5.67898 6.644L6.64616 5.67681C6.72306 5.60033 6.82758 5.55786 6.93688 5.55871Z" fill="#919191"/>
</svg>
