<svg width="18" height="18" viewBox="0 0 18 18" fill="none" xmlns="http://www.w3.org/2000/svg">
<path d="M11.3402 5.58993C11.2142 5.47293 11.0522 5.40093 10.8812 5.40093C10.7102 5.40093 10.5482 5.46393 10.4222 5.58993L9.57619 6.40893C9.57619 6.40893 9.54919 6.44493 9.54019 6.46293C9.54019 6.48093 9.53119 6.50793 9.53119 6.52593C9.53119 6.54393 9.53119 6.57093 9.54019 6.58893C9.54019 6.60693 9.5582 6.62493 9.57619 6.64293L11.0792 8.12793C11.0792 8.12793 11.1152 8.15493 11.1332 8.16393C11.1512 8.17293 11.1782 8.17293 11.1962 8.17293C11.2142 8.17293 11.2412 8.17293 11.2592 8.16393C11.2772 8.16393 11.2952 8.14593 11.3132 8.12793L12.1502 7.30893C12.2672 7.19193 12.3392 7.02993 12.3392 6.85893C12.3392 6.68793 12.2672 6.52593 12.1502 6.40893L11.3402 5.60793V5.58993Z" fill="#919191"/>
<path d="M10.3592 8.82093L8.84719 7.34493C8.84719 7.34493 8.8112 7.31793 8.79319 7.30893C8.7752 7.30893 8.74819 7.29993 8.73019 7.29993C8.71219 7.29993 8.68519 7.29993 8.66719 7.30893C8.64919 7.30893 8.63119 7.32693 8.61319 7.34493L5.56219 10.3509L5.39119 11.8719C5.39119 11.9169 5.3912 11.9709 5.40919 12.0159C5.4272 12.0609 5.45419 12.1059 5.49019 12.1329C5.52619 12.1689 5.56219 12.1959 5.61619 12.2049C5.66119 12.2229 5.71519 12.2229 5.76019 12.2229L7.30819 12.0519L10.3592 9.04593C10.3592 9.04593 10.3862 9.00993 10.3952 8.99193C10.3952 8.97393 10.4042 8.94693 10.4042 8.92893C10.4042 8.91093 10.4042 8.88393 10.3952 8.86593C10.3952 8.84793 10.3772 8.82993 10.3592 8.81193V8.82093Z" fill="#919191"/>
<path d="M9.00019 0.450928C4.27519 0.450928 0.450195 4.27593 0.450195 9.00093C0.450195 13.7259 4.27519 17.5509 9.00019 17.5509C13.7252 17.5509 17.5502 13.7259 17.5502 9.00093C17.5502 4.27593 13.7252 0.450928 9.00019 0.450928ZM9.00019 15.9039C5.1842 15.9039 2.0972 12.8169 2.0972 9.00093C2.0972 5.18493 5.1842 2.09793 9.00019 2.09793C12.8162 2.09793 15.9032 5.18493 15.9032 9.00093C15.9032 12.8169 12.8162 15.9039 9.00019 15.9039Z" fill="#919191"/>
</svg>
