<svg width="18" height="18" viewBox="0 0 18 18" fill="none" xmlns="http://www.w3.org/2000/svg">
<path d="M9.0002 0.450928C7.30917 0.450928 5.65611 0.952377 4.25007 1.89186C2.84403 2.83135 1.74816 4.16668 1.10103 5.72898C0.4539 7.29129 0.284581 9.01041 0.614485 10.6689C0.944388 12.3275 1.7587 13.8509 2.95444 15.0467C4.15017 16.2424 5.67364 17.0567 7.33218 17.3866C8.99071 17.7165 10.7098 17.5472 12.2721 16.9001C13.8344 16.253 15.1698 15.1571 16.1093 13.7511C17.0487 12.345 17.5502 10.692 17.5502 9.00093C17.5502 6.73333 16.6494 4.5586 15.046 2.95516C13.4425 1.35173 11.2678 0.450928 9.0002 0.450928ZM9.0002 2.10593C10.3649 2.10593 11.6989 2.51061 12.8336 3.26879C13.9683 4.02697 14.8527 5.1046 15.375 6.36541C15.8972 7.62622 16.0339 9.01358 15.7676 10.352C15.5014 11.6905 14.8442 12.92 13.8792 13.885C12.9143 14.8499 11.6848 15.5071 10.3463 15.7733C9.00785 16.0396 7.62049 15.9029 6.35968 15.3807C5.09887 14.8584 4.02124 13.9741 3.26306 12.8394C2.50488 11.7047 2.1002 10.3706 2.1002 9.00593C2.09901 8.09947 2.27668 7.20169 2.62302 6.36401C2.96935 5.52633 3.47756 4.76521 4.11852 4.12425C4.75948 3.48329 5.5206 2.97508 6.35828 2.62875C7.19596 2.28241 8.09374 2.10474 9.0002 2.10593Z" fill="#919191"/>
<path d="M13.055 7.15733L12.1275 6.23481C12.0533 6.16189 11.9528 6.12093 11.848 6.12093C11.7432 6.12093 11.6427 6.16189 11.5685 6.23481L8.0762 9.64506L6.56165 8.14237C6.48749 8.06945 6.38697 8.0285 6.28216 8.0285C6.17736 8.0285 6.07684 8.06945 6.00268 8.14237L5.06584 9.05567C4.99179 9.1287 4.95019 9.22769 4.95019 9.33089C4.95019 9.43409 4.99179 9.53308 5.06584 9.60611L7.78683 12.307C7.86099 12.38 7.96151 12.4209 8.06631 12.4209C8.17112 12.4209 8.27164 12.38 8.3458 12.307L13.0539 7.70777C13.128 7.63473 13.1696 7.53575 13.1696 7.43255C13.1696 7.32934 13.128 7.23036 13.0539 7.15733H13.055Z" fill="#919191"/>
</svg>
