<svg width="18" height="18" viewBox="0 0 18 18" fill="none" xmlns="http://www.w3.org/2000/svg">
<path d="M9.00019 0.450928C4.27519 0.450928 0.450195 4.27593 0.450195 9.00093C0.450195 13.7259 4.27519 17.5509 9.00019 17.5509C13.7252 17.5509 17.5502 13.7259 17.5502 9.00093C17.5502 4.27593 13.7252 0.450928 9.00019 0.450928ZM9.00019 15.9039C5.1842 15.9039 2.0972 12.8169 2.0972 9.00093C2.0972 5.18493 5.1842 2.09793 9.00019 2.09793C12.8162 2.09793 15.9032 5.18493 15.9032 9.00093C15.9032 12.8169 12.8162 15.9039 9.00019 15.9039Z" fill="#919191"/>
<path d="M12.9858 5.66553C12.9476 5.61198 12.894 5.56608 12.8405 5.54313C12.7793 5.52018 12.7104 5.51253 12.6492 5.52018C12.588 5.52783 12.5268 5.56608 12.4809 5.61198L11.6624 6.43053C10.9892 5.73438 10.0482 5.29833 9.00785 5.29833C7.8068 5.29833 6.7358 5.87208 6.05494 6.76713C5.97845 6.86658 6.05495 7.01193 6.185 7.01193H9.00785C9.5816 7.01193 10.0941 7.25673 10.4537 7.64688L9.49745 8.60313C9.45154 8.64903 9.42095 8.71023 9.40565 8.77143C9.39034 8.83263 9.40565 8.90148 9.4286 8.96268C9.45154 9.02388 9.49745 9.07743 9.55099 9.10803C9.60454 9.14628 9.66575 9.16158 9.7346 9.16158H12.741C12.8252 9.16923 12.9093 9.13863 12.9705 9.07743C13.0317 9.01623 13.07 8.93208 13.07 8.84793V5.84148C13.0623 5.77263 13.0394 5.71143 13.0011 5.65788L12.9858 5.66553Z" fill="#919191"/>
<path d="M11.8307 10.9899H9.00785C8.41115 10.9899 7.87565 10.7145 7.50845 10.2938L8.42644 9.37578C8.47234 9.32988 8.50294 9.26868 8.51824 9.20748C8.53354 9.14628 8.51825 9.07743 8.4953 9.01623C8.47235 8.95503 8.42645 8.90148 8.37289 8.87088C8.31934 8.83263 8.25814 8.81733 8.18929 8.81733H5.18285C5.0987 8.80968 5.01455 8.84028 4.95335 8.90148C4.89215 8.96268 4.8539 9.04683 4.8539 9.13098V12.1374C4.86155 12.2063 4.88449 12.2675 4.92274 12.321C4.96099 12.3746 5.01455 12.4205 5.0681 12.4434C5.1293 12.4664 5.19814 12.474 5.25935 12.4664C5.32055 12.4511 5.38175 12.4205 5.42765 12.3746L6.29209 11.5101C6.96529 12.2445 7.9292 12.7112 9.0002 12.7112C10.2012 12.7112 11.2722 12.1374 11.9531 11.2424C12.0296 11.1429 11.9531 10.9976 11.823 10.9976L11.8307 10.9899Z" fill="#919191"/>
</svg>
