<svg width="18" height="18" viewBox="0 0 18 18" fill="none" xmlns="http://www.w3.org/2000/svg">
<path d="M9.97729 5.52278C10.054 5.60066 10.0972 5.70621 10.0975 5.81635V7.91089H12.1854C12.2955 7.91117 12.401 7.95438 12.4789 8.03107C12.5568 8.10776 12.6007 8.2117 12.601 8.32015V9.68796C12.6007 9.79642 12.5568 9.90035 12.4789 9.97704C12.401 10.0537 12.2955 10.0969 12.1854 10.0972H10.0975V12.1851C10.0972 12.2953 10.054 12.4008 9.97729 12.4787C9.9006 12.5566 9.79667 12.6004 9.68821 12.6007H8.3204C8.21194 12.6004 8.10801 12.5566 8.03132 12.4787C7.95463 12.4008 7.91142 12.2953 7.91113 12.1851V10.0972H5.81659C5.70645 10.0969 5.60091 10.0537 5.52303 9.97704C5.44515 9.90035 5.40126 9.79642 5.40098 9.68796V8.32015C5.40126 8.2117 5.44515 8.10776 5.52303 8.03107C5.60091 7.95438 5.70645 7.91117 5.81659 7.91089H7.91113V5.81635C7.91142 5.70621 7.95463 5.60066 8.03132 5.52278C8.10801 5.4449 8.21194 5.40102 8.3204 5.40073H9.68821C9.79666 5.40102 9.9006 5.4449 9.97729 5.52278Z" fill="#919191"/>
<path d="M9.0002 0.450928C7.30917 0.450928 5.65611 0.952377 4.25007 1.89186C2.84403 2.83135 1.74816 4.16668 1.10103 5.72898C0.4539 7.29129 0.284581 9.01041 0.614485 10.6689C0.944388 12.3275 1.7587 13.8509 2.95444 15.0467C4.15017 16.2424 5.67364 17.0567 7.33218 17.3866C8.99071 17.7165 10.7098 17.5472 12.2721 16.9001C13.8344 16.253 15.1698 15.1571 16.1093 13.7511C17.0487 12.345 17.5502 10.692 17.5502 9.00093C17.5502 6.73333 16.6494 4.5586 15.046 2.95516C13.4425 1.35173 11.2678 0.450928 9.0002 0.450928ZM9.0002 2.10593C10.3649 2.10593 11.6989 2.51061 12.8336 3.26879C13.9683 4.02697 14.8527 5.1046 15.375 6.36541C15.8972 7.62622 16.0339 9.01358 15.7676 10.352C15.5014 11.6905 14.8442 12.92 13.8792 13.885C12.9143 14.8499 11.6848 15.5071 10.3463 15.7733C9.00785 16.0396 7.62049 15.9029 6.35968 15.3807C5.09887 14.8584 4.02124 13.9741 3.26306 12.8394C2.50488 11.7047 2.1002 10.3706 2.1002 9.00593C2.09901 8.09947 2.27668 7.20169 2.62302 6.36401C2.96935 5.52633 3.47756 4.76521 4.11852 4.12425C4.75948 3.48329 5.5206 2.97508 6.35828 2.62875C7.19596 2.28241 8.09374 2.10474 9.0002 2.10593Z" fill="#919191"/>
</svg>
