<svg width="30" height="30" viewBox="0 0 30 30" fill="none" xmlns="http://www.w3.org/2000/svg">
<path d="M25.8001 0.600098H4.2001C3.24532 0.600098 2.32964 0.979382 1.65451 1.65451C0.979382 2.32964 0.600098 3.24532 0.600098 4.2001V25.8001C0.600522 26.7547 0.979943 27.6702 1.65498 28.3452C2.33002 29.0203 3.24545 29.3997 4.2001 29.4001H25.8001C26.273 29.4001 26.7413 29.3069 27.1781 29.1259C27.615 28.9449 28.0119 28.6796 28.3462 28.3451C28.6806 28.0107 28.9457 27.6136 29.1265 27.1766C29.3073 26.7397 29.4003 26.2714 29.4001 25.7985V4.2001C29.4001 3.72734 29.307 3.25921 29.1261 2.82244C28.9451 2.38567 28.68 1.9888 28.3457 1.65451C28.0114 1.32022 27.6145 1.05505 27.1778 0.874131C26.741 0.693214 26.2729 0.600098 25.8001 0.600098ZM12.2801 22.4609C12.4947 22.6757 12.6152 22.9669 12.6152 23.2705C12.6152 23.5741 12.4947 23.8653 12.2801 24.0801L11.4705 24.8913C11.2557 25.1059 10.9645 25.2264 10.6609 25.2264C10.3573 25.2264 10.0661 25.1059 9.8513 24.8913L8.6945 23.7233L7.5313 24.8849C7.42518 24.9913 7.29912 25.0757 7.16033 25.1333C7.02154 25.1909 6.87276 25.2205 6.7225 25.2205C6.57224 25.2205 6.42345 25.1909 6.28467 25.1333C6.14588 25.0757 6.01982 24.9913 5.9137 24.8849L5.1025 24.0753C4.88804 23.8608 4.76756 23.5698 4.76756 23.2665C4.76756 22.9632 4.88804 22.6722 5.1025 22.4577L6.2641 21.2961L5.1025 20.1345C4.88852 19.92 4.76836 19.6294 4.76836 19.3265C4.76836 19.0235 4.88852 18.733 5.1025 18.5185L5.9137 17.7089C6.01965 17.6028 6.14548 17.5186 6.28398 17.4612C6.42249 17.4038 6.57096 17.3742 6.7209 17.3742C6.87084 17.3742 7.0193 17.4038 7.15781 17.4612C7.29632 17.5186 7.42214 17.6028 7.5281 17.7089L8.6913 18.8689L9.8529 17.7089C9.95902 17.6025 10.0851 17.5181 10.2239 17.4605C10.3627 17.4029 10.5114 17.3733 10.6617 17.3733C10.812 17.3733 10.9607 17.4029 11.0995 17.4605C11.2383 17.5181 11.3644 17.6025 11.4705 17.7089L12.2817 18.5185C12.4958 18.7332 12.616 19.0241 12.616 19.3273C12.616 19.6305 12.4958 19.9214 12.2817 20.1361L11.1185 21.2977L12.2801 22.4609ZM13.1953 9.2705C13.1953 9.42065 13.1657 9.56934 13.1082 9.70805C13.0507 9.84675 12.9664 9.97276 12.8601 10.0789C12.7539 10.185 12.6278 10.2691 12.489 10.3264C12.3502 10.3837 12.2015 10.4131 12.0513 10.4129H10.4145V12.0561C10.4145 12.3595 10.294 12.6505 10.0794 12.865C9.86489 13.0796 9.5739 13.2001 9.2705 13.2001H8.1297C7.82629 13.2001 7.53531 13.0796 7.32077 12.865C7.10623 12.6505 6.9857 12.3595 6.9857 12.0561V10.4129H5.3425C5.03951 10.4129 4.74894 10.2925 4.5347 10.0783C4.32046 9.86405 4.2001 9.57348 4.2001 9.2705V8.1201C4.2001 7.81697 4.32041 7.52623 4.5346 7.31173C4.7488 7.09724 5.03937 6.97652 5.3425 6.9761H6.9857V5.3425C6.9857 5.03909 7.10623 4.74811 7.32077 4.53357C7.53531 4.31903 7.82629 4.1985 8.1297 4.1985H9.2721C9.57551 4.1985 9.86649 4.31903 10.081 4.53357C10.2956 4.74811 10.4161 5.03909 10.4161 5.3425V6.9841H12.0593C12.3624 6.98452 12.653 7.10524 12.8672 7.31973C13.0814 7.53423 13.2017 7.82497 13.2017 8.1281L13.1953 9.2705ZM25.7937 24.0769C25.7937 24.3799 25.6733 24.6705 25.4591 24.8847C25.2449 25.0989 24.9543 25.2193 24.6513 25.2193H17.9313C17.7813 25.2195 17.6327 25.1902 17.494 25.1329C17.3553 25.0757 17.2293 24.9918 17.123 24.8858C17.0168 24.7799 16.9325 24.6541 16.8749 24.5156C16.8173 24.377 16.7875 24.2285 16.7873 24.0785V22.9345C16.7873 22.7843 16.8169 22.6357 16.8744 22.4969C16.9319 22.3582 17.0162 22.2322 17.1225 22.1261C17.2287 22.02 17.3548 21.9359 17.4936 21.8786C17.6324 21.8213 17.7811 21.7919 17.9313 21.7921H24.6433C24.7935 21.7919 24.9422 21.8213 25.081 21.8786C25.2198 21.9359 25.3459 22.02 25.4521 22.1261C25.5584 22.2322 25.6427 22.3582 25.7002 22.4969C25.7577 22.6357 25.7873 22.7843 25.7873 22.9345L25.7937 24.0769ZM25.7937 19.6641C25.7933 19.9672 25.6726 20.2578 25.4581 20.472C25.2436 20.6862 24.9528 20.8065 24.6497 20.8065H17.9441C17.641 20.8065 17.3502 20.6862 17.1357 20.472C16.9212 20.2578 16.8005 19.9672 16.8001 19.6641V18.5201C16.8001 18.2167 16.9206 17.9257 17.1352 17.7112C17.3497 17.4966 17.6407 17.3761 17.9441 17.3761H24.6561C24.9595 17.3761 25.2505 17.4966 25.465 17.7112C25.6796 17.9257 25.8001 18.2167 25.8001 18.5201L25.7937 19.6641ZM25.7937 9.2641C25.7937 9.5675 25.6732 9.85849 25.4586 10.073C25.2441 10.2876 24.9531 10.4081 24.6497 10.4081H17.9441C17.641 10.4081 17.3502 10.2878 17.1357 10.0736C16.9212 9.8594 16.8005 9.56883 16.8001 9.2657V8.1201C16.8001 7.81669 16.9206 7.52571 17.1352 7.31117C17.3497 7.09663 17.6407 6.9761 17.9441 6.9761H24.6561C24.9595 6.9761 25.2505 7.09663 25.465 7.31117C25.6796 7.52571 25.8001 7.81669 25.8001 8.1201L25.7937 9.2641Z" fill="#AAAAAA"/>
</svg>
