<svg width="9" height="14" viewBox="0 0 9 14" fill="none" xmlns="http://www.w3.org/2000/svg">
<path d="M0.744439 6.37545L6.36173 0.506472C6.51927 0.342241 6.73278 0.25 6.95538 0.25C7.17798 0.25 7.39149 0.342241 7.54903 0.506472L8.34454 1.33718C8.50126 1.50178 8.58924 1.72447 8.58924 1.95658C8.58924 2.1887 8.50126 2.41139 8.34454 2.57599L4.13829 6.99849L8.35448 11.4241C8.51169 11.5885 8.6 11.8112 8.6 12.0435C8.6 12.2758 8.51169 12.4985 8.35448 12.6629L7.55897 13.4936C7.40161 13.6578 7.18826 13.75 6.96582 13.75C6.74338 13.75 6.53004 13.6578 6.37267 13.4936L0.744439 7.61114C0.587897 7.44707 0.5 7.2249 0.5 6.99329C0.5 6.76169 0.587897 6.53952 0.744439 6.37545Z" fill="#919191"/>
</svg>
