<svg width="18" height="18" viewBox="0 0 18 18" fill="none" xmlns="http://www.w3.org/2000/svg">
<path d="M1.47643 4.51706H16.5204C16.6736 4.5168 16.8205 4.45582 16.9288 4.34748C17.0372 4.23914 17.0982 4.09228 17.0984 3.93906V2.49106C17.0984 2.41521 17.0835 2.34009 17.0544 2.27002C17.0254 2.19995 16.9828 2.1363 16.9291 2.08271C16.8754 2.02912 16.8117 1.98664 16.7415 1.9577C16.6714 1.92876 16.5963 1.91393 16.5204 1.91406H1.47643C1.40057 1.91393 1.32543 1.92876 1.25531 1.9577C1.18519 1.98664 1.12147 2.02912 1.06778 2.08271C1.0141 2.1363 0.971504 2.19995 0.942445 2.27002C0.913385 2.34009 0.898438 2.41521 0.898438 2.49106V3.93906C0.898703 4.09228 0.959671 4.23914 1.06801 4.34748C1.17635 4.45582 1.32321 4.5168 1.47643 4.51706ZM1.47643 10.3031H16.5204C16.5965 10.3029 16.6717 10.2878 16.7419 10.2586C16.8121 10.2294 16.8759 10.1866 16.9296 10.1328C16.9832 10.0789 17.0258 10.015 17.0547 9.94471C17.0837 9.87442 17.0986 9.7991 17.0984 9.72306V8.27906C17.0986 8.20303 17.0837 8.12771 17.0547 8.05741C17.0258 7.98712 16.9832 7.92321 16.9296 7.86936C16.8759 7.8155 16.8121 7.77274 16.7419 7.74352C16.6717 7.7143 16.5965 7.69919 16.5204 7.69906H1.47643C1.40039 7.69919 1.32513 7.7143 1.25493 7.74352C1.18473 7.77274 1.12098 7.8155 1.06731 7.86936C1.01364 7.92321 0.9711 7.98712 0.942124 8.05741C0.913148 8.12771 0.898307 8.20303 0.898438 8.27906V9.72506C0.898438 9.87845 0.959291 10.0256 1.06766 10.1341C1.17603 10.2427 1.32304 10.3038 1.47643 10.3041V10.3031ZM1.47643 16.0881H16.5204C16.5963 16.0882 16.6714 16.0734 16.7415 16.0444C16.8117 16.0155 16.8754 15.973 16.9291 15.9194C16.9828 15.8658 17.0254 15.8022 17.0544 15.7321C17.0835 15.662 17.0984 15.5869 17.0984 15.5111V14.0641C17.0986 13.9881 17.0837 13.9128 17.0547 13.8426C17.0257 13.7723 16.9832 13.7085 16.9295 13.6547C16.8758 13.6009 16.812 13.5583 16.7419 13.5292C16.6717 13.5 16.5964 13.4851 16.5204 13.4851H1.47643C1.40044 13.4851 1.3252 13.5 1.25501 13.5292C1.18481 13.5583 1.12105 13.6009 1.06737 13.6547C1.01368 13.7085 0.971128 13.7723 0.94214 13.8426C0.913151 13.9128 0.898307 13.9881 0.898438 14.0641V15.5111C0.898438 15.5869 0.913385 15.662 0.942445 15.7321C0.971504 15.8022 1.0141 15.8658 1.06778 15.9194C1.12147 15.973 1.18519 16.0155 1.25531 16.0444C1.32543 16.0734 1.40057 16.0882 1.47643 16.0881Z" fill="#919191"/>
</svg>
