<svg width="12" height="14" viewBox="0 0 12 14" fill="none" xmlns="http://www.w3.org/2000/svg">
<path d="M0.48877 12.1186C0.488976 12.4318 0.61354 12.7321 0.835081 12.9535C1.05662 13.1749 1.35701 13.2992 1.67021 13.2992H10.3331C10.6462 13.299 10.9464 13.1746 11.1677 12.9532C11.3891 12.7318 11.5136 12.4316 11.5138 12.1186V5.42422H0.48877V12.1186ZM2.06377 7.39277C2.06418 7.28839 2.10588 7.18841 2.17977 7.11467C2.25365 7.04093 2.35372 6.99942 2.4581 6.99922H4.82021C4.92453 6.99942 5.02451 7.04095 5.09827 7.11472C5.17203 7.18848 5.21356 7.28846 5.21377 7.39277V9.75566C5.21356 9.85998 5.17203 9.95996 5.09827 10.0337C5.02451 10.1075 4.92453 10.149 4.82021 10.1492H2.4581C2.35372 10.149 2.25365 10.1075 2.17977 10.0338C2.10588 9.96003 2.06418 9.86005 2.06377 9.75566V7.39277ZM10.3331 2.27422H9.15088V1.09355C9.15068 0.9893 9.10928 0.889353 9.03571 0.81549C8.96214 0.741627 8.86235 0.699834 8.7581 0.699219H7.97021C7.86569 0.699424 7.76551 0.741036 7.69161 0.814943C7.6177 0.888851 7.57609 0.989031 7.57588 1.09355V2.27422H4.42666V1.09355C4.42645 0.989166 4.38495 0.889102 4.31121 0.815217C4.23747 0.741332 4.13749 0.69963 4.0331 0.699219H3.24521C3.14069 0.699424 3.04051 0.741036 2.96661 0.814943C2.8927 0.888851 2.85109 0.989031 2.85088 1.09355V2.27422H1.67021C1.35701 2.27422 1.05662 2.39858 0.835081 2.61998C0.61354 2.84138 0.488976 3.14168 0.48877 3.45489V4.63633H11.5138V3.45489C11.5136 3.14182 11.3891 2.84163 11.1677 2.62026C10.9464 2.39888 10.6462 2.27442 10.3331 2.27422Z" fill="#919191"/>
</svg>
