<svg width="40" height="16" viewBox="0 0 40 16" fill="none" xmlns="http://www.w3.org/2000/svg">
<path d="M6.00003 16C4.89546 16 4.00003 15.1046 4.00003 14C4.00003 12.8954 4.89546 12 6.00003 12C7.1046 12 8.00003 12.8954 8.00003 14C8.00003 15.1046 7.1046 16 6.00003 16Z" fill="#919191"/>
<path d="M31.5 16C30.3955 16 29.5 15.1046 29.5 14C29.5 12.8954 30.3955 12 31.5 12C32.6046 12 33.5 12.8954 33.5 14C33.5 15.1046 32.6046 16 31.5 16Z" fill="#919191"/>
<path d="M37.998 12H39C39.552 12 40 12.448 40 13V14C40 14.552 39.552 15 39 15V14C39 13.183 38.606 12.456 37.998 12Z" fill="#919191"/>
<path d="M36.5 16C35.3955 16 34.5 15.1046 34.5 14C34.5 12.8954 35.3955 12 36.5 12C37.6046 12 38.5 12.8954 38.5 14C38.5 15.1046 37.6046 16 36.5 16Z" fill="#919191"/>
<path d="M8 1C8 0.448 8.448 0 9 0V0.5H21V0C21.552 0 22 0.448 22 1V1.5H26.75L39.918 4.8C39.784 5.336 39.241 5.661 38.705 5.527L36.423 4.955L34.535 12H35.001C34.658 12.258 34.383 12.602 34.209 13H33.79C33.616 12.602 33.341 12.258 32.998 12H33.5L35.453 4.712L31.055 3.61L26.084 8.581L27 12.001H30.002C29.394 12.457 29 13.184 29 14.001V15.001C28.448 15.001 28 14.553 28 14.001H26L25 15.001H21L20 14.001H18C18 14.553 17.552 15.001 17 15.001H8.5V14.001C8.5 12.622 7.379 11.501 6 11.501C4.621 11.501 3.5 12.622 3.5 14.001V15.001H2C1.448 15.001 1 14.553 1 14.001V10.575C1 9.094 2.08 7.835 3.544 7.61L5.241 7.349L3.942 2.501H1C0.448 2.501 0 2.053 0 1.501H8V1ZM3.281 11.25C2.822 11.25 2.422 11.562 2.311 12.007L2.156 12.628C2.082 12.925 2.288 13.212 2.583 13.246C2.76 12.442 3.214 11.742 3.839 11.249H3.281V11.25ZM21 1H9V1.5H21V1ZM29.924 3.326L26.627 2.5H24.455L25.785 7.465L29.924 3.326ZM11.449 6.381C12.05 6.306 12.5 5.795 12.5 5.19V3.999H10.394C10.002 3.999 9.646 4.228 9.484 4.585L8.5 6.749L11.449 6.38V6.381ZM6.235 7.195L7.5 7L8.947 4.106C9.286 3.428 9.978 3 10.736 3H21C21.552 3 22 3.448 22 4V12H25.965L23.419 2.5H4.977L6.235 7.195Z" fill="#919191"/>
</svg>
