<svg width="18" height="18" viewBox="0 0 18 18" fill="none" xmlns="http://www.w3.org/2000/svg">
<path d="M17.5492 9.00019C17.5492 10.6912 17.0478 12.3443 16.1083 13.7503C15.1688 15.1564 13.8335 16.2522 12.2712 16.8994C10.7089 17.5465 8.98974 17.7158 7.3312 17.3859C5.67266 17.056 4.1492 16.2417 2.95346 15.046C1.75772 13.8502 0.943412 12.3268 0.613508 10.6682C0.283605 9.00968 0.452924 7.29056 1.10005 5.72825C1.74718 4.16594 2.84306 2.83062 4.2491 1.89113C5.65514 0.951644 7.30819 0.450195 8.99922 0.450195C11.2668 0.450195 13.4415 1.351 15.045 2.95443C16.6484 4.55787 17.5492 6.73259 17.5492 9.00019ZM8.01022 13.5272L14.3492 7.1842C14.4525 7.0807 14.5106 6.94044 14.5106 6.7942C14.5106 6.64795 14.4525 6.50769 14.3492 6.4042L13.5692 5.6242C13.4657 5.52087 13.3255 5.46284 13.1792 5.46284C13.033 5.46284 12.8927 5.52087 12.7892 5.6242L7.61622 10.7972L5.20122 8.3822C5.09773 8.27887 4.95746 8.22084 4.81122 8.22084C4.66498 8.22084 4.52472 8.27887 4.42122 8.3822L3.64122 9.1622C3.5379 9.26569 3.47987 9.40595 3.47987 9.55219C3.47987 9.69844 3.5379 9.8387 3.64122 9.9422L7.22622 13.5272C7.27754 13.579 7.3386 13.62 7.40588 13.6481C7.47317 13.6761 7.54533 13.6906 7.61822 13.6906C7.69111 13.6906 7.76328 13.6761 7.83056 13.6481C7.89784 13.62 7.9589 13.579 8.01022 13.5272Z" fill="#6692F1"/>
</svg>
