<svg width="14" height="14" viewBox="0 0 14 14" fill="none" xmlns="http://www.w3.org/2000/svg">
<rect width="14" height="14" rx="2" fill="#6692F1"/>
<path d="M5.37188 10.3731L2.59411 7.59532C2.54766 7.54889 2.51081 7.49377 2.48568 7.43309C2.46054 7.37242 2.4476 7.30739 2.4476 7.24171C2.4476 7.17604 2.46054 7.11101 2.48568 7.05033C2.51081 6.98966 2.54766 6.93453 2.59411 6.8881L3.30244 6.18199C3.34887 6.13554 3.404 6.0987 3.46467 6.07356C3.52534 6.04842 3.59038 6.03549 3.65605 6.03549C3.72172 6.03549 3.78676 6.04842 3.84743 6.07356C3.9081 6.0987 3.96323 6.13554 4.00966 6.18199L5.72522 7.89755L9.98911 3.63088C10.0355 3.58443 10.0907 3.54759 10.1513 3.52245C10.212 3.49731 10.277 3.48438 10.3427 3.48438C10.4084 3.48438 10.4734 3.49731 10.5341 3.52245C10.5948 3.54759 10.6499 3.58443 10.6963 3.63088L11.4036 4.3381C11.45 4.38453 11.4868 4.43966 11.512 4.50033C11.5371 4.56101 11.5501 4.62604 11.5501 4.69171C11.5501 4.75739 11.5371 4.82242 11.512 4.88309C11.4868 4.94377 11.45 4.99889 11.4036 5.04532L6.07911 10.3709C6.03267 10.4173 5.97755 10.4542 5.91687 10.4793C5.8562 10.5044 5.79117 10.5174 5.72549 10.5174C5.65982 10.5174 5.59479 10.5044 5.53411 10.4793C5.47344 10.4542 5.41831 10.4173 5.37188 10.3709V10.3731Z" fill="white"/>
</svg>
