<svg width="16" height="16" viewBox="0 0 16 16" fill="none" xmlns="http://www.w3.org/2000/svg">
<path d="M7.99752 16.0003H0.617518C0.167518 16.0003 0.00371771 15.8374 0.00371771 15.391V14.2579C-0.00611392 14.1429 0.0253639 14.0282 0.0924993 13.9344C0.159635 13.8405 0.25803 13.7736 0.370018 13.7458C0.516718 13.6945 0.665218 13.6486 0.814618 13.5982C1.05686 13.5356 1.26915 13.3893 1.41393 13.1852C1.5587 12.9811 1.62664 12.7324 1.60572 12.4831V1.2196C1.59148 0.962389 1.66427 0.707872 1.81236 0.497084C1.96045 0.286296 2.17521 0.131519 2.42202 0.0577037C2.55478 0.0191458 2.69237 -0.000250113 2.83062 0.000103735H13.1806C13.4856 -0.0181217 13.7853 0.0853415 14.0141 0.287802C14.2429 0.490263 14.382 0.775194 14.401 1.0801C14.4046 1.12714 14.4046 1.17437 14.401 1.2214V12.4561C14.3731 12.717 14.4423 12.9791 14.5953 13.1923C14.7484 13.4055 14.9746 13.5548 15.2308 13.6117C15.382 13.6621 15.5368 13.7116 15.6808 13.7692C15.7744 13.799 15.8556 13.8586 15.9122 13.9388C15.9687 14.0191 15.9975 14.1157 15.994 14.2138C15.994 14.6467 16.0003 15.0796 15.994 15.5134C15.996 15.5804 15.9837 15.6471 15.9579 15.709C15.9321 15.771 15.8935 15.8267 15.8446 15.8726C15.7956 15.9184 15.7375 15.9534 15.6741 15.9751C15.6106 15.9968 15.5433 16.0048 15.4765 15.9985H7.99752M4.26972 4.2679V5.0176C4.26559 5.09027 4.27585 5.16303 4.29993 5.23172C4.324 5.30041 4.3614 5.36366 4.40999 5.41785C4.45858 5.47204 4.51739 5.5161 4.58305 5.5475C4.64872 5.57889 4.71993 5.59701 4.79262 5.6008C4.81418 5.60258 4.83585 5.60258 4.85742 5.6008H6.35592C6.50153 5.60717 6.64374 5.55565 6.75149 5.45751C6.85925 5.35937 6.92379 5.22257 6.93102 5.077C6.9319 5.05992 6.9319 5.04279 6.93102 5.0257C6.93462 4.5211 6.93462 4.0174 6.93102 3.5146C6.93465 3.44209 6.92396 3.36957 6.89956 3.30118C6.87515 3.2328 6.83751 3.1699 6.78878 3.11607C6.74005 3.06224 6.68119 3.01855 6.61557 2.98748C6.54994 2.95641 6.47884 2.93858 6.40632 2.935C6.38774 2.93368 6.36909 2.93368 6.35052 2.935H4.85652C4.78394 2.93049 4.71119 2.94032 4.64242 2.96394C4.57365 2.98755 4.5102 3.02448 4.45571 3.07262C4.40122 3.12077 4.35674 3.17917 4.32483 3.24451C4.29292 3.30985 4.27419 3.38083 4.26972 3.4534C4.26972 3.475 4.26972 3.4963 4.26972 3.5173V4.267M10.3843 5.5999H11.1673C11.24 5.60182 11.3123 5.58935 11.3802 5.56321C11.448 5.53707 11.51 5.49778 11.5626 5.4476C11.6152 5.39742 11.6574 5.33733 11.6867 5.2708C11.716 5.20426 11.7319 5.13259 11.7334 5.0599V5.0293C11.737 4.5247 11.737 4.0195 11.7334 3.5137C11.7369 3.44119 11.7261 3.36869 11.7016 3.30036C11.6771 3.23202 11.6393 3.16919 11.5905 3.11545C11.5417 3.0617 11.4828 3.01811 11.4171 2.98715C11.3515 2.95618 11.2803 2.93847 11.2078 2.935H9.64632C9.57404 2.93186 9.50186 2.94299 9.43388 2.96775C9.36591 2.99251 9.30348 3.03042 9.25016 3.07931C9.19684 3.1282 9.15367 3.18712 9.12312 3.2527C9.09257 3.31828 9.07524 3.38923 9.07212 3.4615C9.07124 3.47889 9.07124 3.49632 9.07212 3.5137C9.06852 4.0123 9.06852 4.5115 9.07212 5.0113C9.063 5.15796 9.11248 5.30225 9.20968 5.41245C9.30689 5.52264 9.44387 5.58975 9.59052 5.599H10.387M6.93102 8.5348V7.8013C6.94375 7.65463 6.89771 7.50891 6.80303 7.39618C6.70835 7.28344 6.57278 7.21291 6.42612 7.2001C6.39916 7.19787 6.37207 7.19787 6.34512 7.2001H4.86102C4.78832 7.19471 4.71526 7.2037 4.64604 7.22658C4.57682 7.24945 4.51279 7.28575 4.45761 7.3334C4.40244 7.38105 4.35721 7.43912 4.3245 7.50427C4.2918 7.56942 4.27226 7.64039 4.26702 7.7131C4.26523 7.73977 4.26523 7.76653 4.26702 7.7932V9.2746C4.26213 9.34732 4.27166 9.42029 4.29505 9.48932C4.31844 9.55835 4.35523 9.62208 4.40331 9.67685C4.4514 9.73162 4.50982 9.77636 4.57524 9.8085C4.64066 9.84063 4.71178 9.85953 4.78452 9.8641C4.8055 9.86544 4.82654 9.86544 4.84752 9.8641H6.34872C6.42143 9.86836 6.49427 9.85822 6.56306 9.83427C6.63184 9.81032 6.69523 9.77303 6.74958 9.72454C6.80392 9.67604 6.84816 9.6173 6.87976 9.55167C6.91136 9.48605 6.9297 9.41483 6.93372 9.3421C6.93549 9.32114 6.93549 9.30007 6.93372 9.2791V8.5321M10.4005 7.2001H9.63102C9.48436 7.19672 9.34236 7.2517 9.23621 7.35295C9.13007 7.4542 9.06846 7.59345 9.06492 7.7401V7.7716C9.06492 8.2765 9.06492 8.7814 9.06492 9.2827C9.06128 9.3551 9.07195 9.42751 9.09631 9.49578C9.12067 9.56405 9.15825 9.62686 9.20689 9.6806C9.25554 9.73434 9.3143 9.77798 9.37981 9.809C9.44533 9.84002 9.51632 9.85783 9.58872 9.8614H11.1502C11.2967 9.86725 11.4396 9.81472 11.5474 9.71533C11.6553 9.61594 11.7192 9.47782 11.7253 9.3313C11.7262 9.31482 11.7262 9.29829 11.7253 9.2818V7.7824C11.733 7.63708 11.6832 7.49458 11.5867 7.38564C11.4902 7.2767 11.3548 7.21006 11.2096 7.2001H10.3996" fill="#919191"/>
</svg>
