<svg width="12" height="14" viewBox="0 0 12 14" fill="none" xmlns="http://www.w3.org/2000/svg">
<path d="M2.00022 6.21285H2.33762C2.65636 6.91704 3.17136 7.51441 3.82092 7.9334C4.47048 8.35239 5.22706 8.57524 6.00002 8.57524C6.77299 8.57524 7.52957 8.35239 8.17913 7.9334C8.82869 7.51441 9.34369 6.91704 9.66243 6.21285H9.99982C10.1049 6.21323 10.2058 6.1721 10.2807 6.09842C10.3555 6.02475 10.3982 5.92448 10.3995 5.81945V3.45695C10.3982 3.35193 10.3555 3.25166 10.2807 3.17798C10.2058 3.1043 10.1049 3.06318 9.99982 3.06355H9.66243C9.34369 2.35936 8.82869 1.76199 8.17913 1.343C7.52957 0.924014 6.77299 0.701172 6.00002 0.701172C5.22706 0.701172 4.47048 0.924014 3.82092 1.343C3.17136 1.76199 2.65636 2.35936 2.33762 3.06355H2.00022C1.89507 3.06318 1.79403 3.1044 1.71916 3.17823C1.64428 3.25206 1.60163 3.3525 1.60052 3.45765V5.81945C1.60182 5.92448 1.64454 6.02475 1.7194 6.09842C1.79426 6.1721 1.89519 6.21323 2.00022 6.21285ZM2.99982 4.04705C3.03113 3.75845 3.17443 3.49365 3.39893 3.3096C3.62343 3.12555 3.91118 3.03695 4.20032 3.06285H7.80042C8.08945 3.03715 8.37703 3.12584 8.60137 3.30987C8.82571 3.4939 8.96892 3.75858 9.00023 4.04705V4.63785C8.99794 4.95064 8.93401 5.25991 8.81211 5.54797C8.69021 5.83603 8.51272 6.09724 8.28979 6.31666C8.06687 6.53607 7.80287 6.7094 7.51291 6.82671C7.22295 6.94402 6.91271 7.00303 6.59993 7.00035H5.40013C5.08734 7.00303 4.7771 6.94402 4.48714 6.82671C4.19718 6.7094 3.93318 6.53607 3.71026 6.31666C3.48733 6.09724 3.30984 5.83603 3.18794 5.54797C3.06604 5.25991 3.00211 4.95064 2.99982 4.63785V4.04705ZM4.80022 5.81945L5.10052 4.93325L6.00002 4.63785L5.09982 4.34035L4.80022 3.45695L4.49992 4.34035L3.59972 4.63575L4.49992 4.93115L4.80022 5.81945ZM8.59002 8.61035C7.81573 9.10226 6.91736 9.36349 6.00002 9.36349C5.08269 9.36349 4.18432 9.10226 3.41002 8.61035C2.59231 8.68671 1.83195 9.06355 1.27598 9.66801C0.720001 10.2725 0.4079 11.0616 0.400024 11.8829L0.400024 12.1188C0.401123 12.2751 0.433039 12.4298 0.493948 12.5738C0.554856 12.7179 0.643562 12.8485 0.754993 12.9583C0.866424 13.068 0.998395 13.1547 1.14336 13.2134C1.28832 13.2721 1.44343 13.3016 1.59982 13.3004H3.59972V11.7254C3.60046 11.6211 3.62174 11.518 3.66237 11.4219C3.70299 11.3259 3.76215 11.2388 3.83647 11.1657C3.91078 11.0925 3.99879 11.0348 4.09546 10.9957C4.19213 10.9566 4.29556 10.9369 4.39982 10.9379H7.59952C7.70379 10.9369 7.80722 10.9566 7.90389 10.9957C8.00056 11.0348 8.08857 11.0925 8.16288 11.1657C8.2372 11.2388 8.29636 11.3259 8.33698 11.4219C8.37761 11.518 8.39889 11.6211 8.39963 11.7254V13.3004H10.3995C10.5559 13.3017 10.711 13.2723 10.856 13.2137C11.001 13.1551 11.1331 13.0684 11.2446 12.9588C11.3561 12.8491 11.4448 12.7185 11.5058 12.5745C11.5668 12.4305 11.5988 12.2758 11.6 12.1195V11.8836C11.5925 11.0622 11.2805 10.2728 10.7245 9.66811C10.1685 9.06347 9.40792 8.68657 8.59002 8.61035ZM7.19982 11.7254C7.12213 11.7265 7.04649 11.7505 6.98242 11.7945C6.91835 11.8384 6.86871 11.9004 6.83974 11.9725C6.81077 12.0446 6.80376 12.1236 6.81959 12.1997C6.83543 12.2758 6.87339 12.3455 6.92873 12.4C6.98406 12.4546 7.05429 12.4916 7.13058 12.5063C7.20687 12.5211 7.28582 12.513 7.35751 12.483C7.42919 12.453 7.49041 12.4025 7.53348 12.3378C7.57654 12.2731 7.59952 12.1972 7.59952 12.1195C7.59842 12.0143 7.55577 11.9139 7.48089 11.84C7.40602 11.7662 7.30498 11.725 7.19982 11.7254ZM4.79952 11.7254C4.69437 11.725 4.59333 11.7662 4.51846 11.84C4.44358 11.9139 4.40093 12.0143 4.39982 12.1195V13.3004H5.19992V12.1195C5.19882 12.0143 5.15617 11.9139 5.08129 11.84C5.00642 11.7662 4.90538 11.725 4.80022 11.7254H4.79952Z" fill="#919191"/>
</svg>
