<svg width="18" height="18" viewBox="0 0 18 18" fill="none" xmlns="http://www.w3.org/2000/svg">
<path fill-rule="evenodd" clip-rule="evenodd" d="M9.0002 0.449951C7.30917 0.449951 5.65612 0.9514 4.25008 1.89089C2.84403 2.83037 1.74816 4.1657 1.10103 5.72801C0.453898 7.29032 0.284582 9.00944 0.614486 10.668C0.944389 12.3265 1.7587 13.85 2.95444 15.0457C4.15018 16.2415 5.67364 17.0558 7.33217 17.3857C8.54238 17.6264 9.78483 17.6013 10.9751 17.3187C10.5413 16.8102 10.2188 16.204 10.0452 15.5376C9.70056 15.5925 9.35114 15.6202 9.0002 15.62C8.03787 15.6195 7.08726 15.4089 6.21481 15.0028C5.34237 14.5967 4.56914 14.005 3.94919 13.269C4.2741 12.648 4.7626 12.1276 5.36186 11.7642C5.96112 11.4007 6.64834 11.208 7.3492 11.207C7.43224 11.208 7.51473 11.2208 7.5942 11.245C8.50747 11.5619 9.50092 11.5619 10.4142 11.245C10.4937 11.2208 10.5761 11.208 10.6592 11.207C10.838 11.2072 11.0159 11.2199 11.1916 11.2448C12.008 10.4147 13.144 9.89995 14.4002 9.89995C15.514 9.89995 16.5332 10.3046 17.319 10.9748C17.4718 10.3311 17.5502 9.66849 17.5502 8.99995C17.5502 6.73235 16.6494 4.55762 15.046 2.95419C13.4425 1.35075 11.2678 0.449951 9.0002 0.449951ZM9.0002 3.75995C9.60055 3.75975 10.1875 3.93761 10.6867 4.27102C11.186 4.60444 11.5751 5.07843 11.805 5.63304C12.0348 6.18766 12.095 6.79798 11.9779 7.3868C11.8609 7.97563 11.5718 8.51651 11.1473 8.94102C10.7228 9.36553 10.1819 9.65461 9.59305 9.77168C9.00423 9.88876 8.39391 9.82857 7.83929 9.59873C7.28468 9.3689 6.81068 8.97974 6.47727 8.48048C6.14386 7.98123 5.966 7.3943 5.9662 6.79395C5.9662 6.39552 6.04468 6.00099 6.19715 5.63289C6.34962 5.26479 6.5731 4.93032 6.85483 4.64859C7.42382 4.0796 8.19553 3.75995 9.0002 3.75995Z" fill="#919191"/>
<path d="M18.0002 14.4C18.0002 16.3882 16.3884 18 14.4002 18C12.412 18 10.8002 16.3882 10.8002 14.4C10.8002 12.4117 12.412 10.8 14.4002 10.8C16.3884 10.8 18.0002 12.4117 18.0002 14.4Z" fill="#919191"/>
</svg>
