<svg width="18" height="18" viewBox="0 0 18 18" fill="none" xmlns="http://www.w3.org/2000/svg">
<path d="M6.01568 2.20112C6.13538 2.07299 6.27979 1.97126 6.4399 1.90226C6.60002 1.83327 6.77241 1.7985 6.94634 1.8001H11.0569C11.2239 1.79874 11.3895 1.83104 11.544 1.89514C11.6986 1.95924 11.8392 2.05386 11.9575 2.17351C12.0758 2.29316 12.1695 2.43546 12.2333 2.59217C12.297 2.74888 12.3295 2.91688 12.3288 3.08643V5.42877C12.331 5.76662 12.2017 6.09168 11.9689 6.33317C11.7362 6.57466 11.419 6.71304 11.0862 6.71818H9.53783V7.5819C9.53828 7.65902 9.53013 7.73595 9.51354 7.8112H13.8742C14.0129 7.81539 14.1447 7.87355 14.2423 7.97365C14.34 8.07375 14.396 8.20812 14.3988 8.34898V9.60446C14.3979 9.74661 14.3426 9.88284 14.2446 9.9844C14.1467 10.086 14.0137 10.1449 13.8737 10.1488C13.7338 10.1526 13.5978 10.1011 13.4945 10.0051C13.3913 9.90914 13.3288 9.77617 13.3203 9.63428V8.90217H4.67689V9.66821C4.66837 9.80983 4.60599 9.94256 4.50292 10.0384C4.39984 10.1342 4.26413 10.1856 4.12444 10.1817C3.98475 10.1778 3.85201 10.119 3.75423 10.0176C3.65645 9.91625 3.60129 9.78027 3.60039 9.63839V8.35103C3.60266 8.20999 3.65831 8.07525 3.75579 7.97474C3.85327 7.87423 3.9851 7.81567 4.12395 7.8112H8.48565C8.46932 7.74631 8.46049 7.67971 8.45932 7.61275V6.71613H6.91394C6.74705 6.71373 6.58229 6.67777 6.42918 6.61032C6.27607 6.54287 6.13764 6.44528 6.0219 6.32317C5.90617 6.20107 5.81542 6.05689 5.7549 5.89895C5.69438 5.74102 5.6653 5.57248 5.66933 5.40306V3.09054C5.66631 2.75959 5.79057 2.44049 6.01568 2.20112Z" fill="#919191"/>
<path d="M1.23863 11.1383C1.35734 11.0085 1.50119 10.9049 1.66116 10.8341C1.82114 10.7633 1.99379 10.7269 2.16829 10.727H6.08844C6.25726 10.7232 6.42512 10.7537 6.58214 10.8168C6.73915 10.8799 6.88214 10.9742 7.00267 11.0943C7.1232 11.2144 7.21883 11.3577 7.28392 11.5159C7.349 11.6741 7.38224 11.844 7.38165 12.0154V14.8451C7.38611 14.9898 7.36904 15.1344 7.33102 15.2739C7.25624 15.5342 7.10239 15.7638 6.89142 15.93C6.68045 16.0962 6.42316 16.1905 6.15629 16.1993H2.19664C1.87222 16.207 1.55722 16.0883 1.31621 15.8677C1.07519 15.647 0.926419 15.3412 0.900391 15.0128V11.9404C0.917926 11.6412 1.03752 11.3577 1.23863 11.1383Z" fill="#919191"/>
<path d="M11.3637 10.8426C11.2018 10.9164 11.057 11.0239 10.9385 11.1581C10.7312 11.3946 10.6182 11.7011 10.6216 12.0177C10.6216 12.3464 10.621 12.6751 10.6205 13.0038C10.6193 13.6612 10.6182 14.3186 10.6216 14.9759C10.6379 15.2978 10.7727 15.6016 10.9993 15.8273C11.2259 16.053 11.5277 16.184 11.8449 16.1944H15.8025C16.1095 16.202 16.4088 16.0964 16.6451 15.8972C16.7752 15.7864 16.8824 15.6504 16.9605 15.4972C17.0385 15.344 17.0859 15.1766 17.0998 15.0047V11.9385C17.0849 11.7005 17.0056 11.4713 16.8707 11.2761C16.7358 11.081 16.5505 10.9273 16.3352 10.8321C16.1562 10.7576 15.9635 10.7225 15.7701 10.7293H11.8783C11.7009 10.7301 11.5255 10.7687 11.3637 10.8426Z" fill="#919191"/>
</svg>
