<svg width="14" height="14" viewBox="0 0 14 14" fill="none" xmlns="http://www.w3.org/2000/svg">
<path d="M12.4147 0.778955L1.00512 7.36118C0.908 7.41481 0.827952 7.49471 0.774138 7.59173C0.720324 7.68875 0.694921 7.79896 0.700838 7.90975C0.706755 8.02054 0.743753 8.12742 0.807594 8.21815C0.871435 8.30889 0.959538 8.3798 1.06181 8.42278L3.67778 9.52061L10.7477 3.29041C10.7759 3.26826 10.8112 3.2571 10.847 3.25901C10.8828 3.26092 10.9167 3.27576 10.9424 3.30078C10.9681 3.3258 10.9838 3.3593 10.9867 3.39505C10.9895 3.43081 10.9793 3.46638 10.9579 3.49517L5.03144 10.7161V12.6975C5.02895 12.8201 5.06466 12.9405 5.13364 13.0418C5.20262 13.1432 5.30143 13.2206 5.41637 13.2633C5.53132 13.3059 5.65669 13.3118 5.7751 13.28C5.89352 13.2482 5.9991 13.1803 6.0772 13.0858L7.64032 11.1839L10.7067 12.4684C10.8513 12.5289 11.014 12.5298 11.1592 12.4708C11.3044 12.4117 11.4203 12.2976 11.4816 12.1533C11.4985 12.1117 11.5109 12.0684 11.5186 12.0242L13.2912 1.39245C13.3105 1.28183 13.2979 1.16801 13.2548 1.06431C13.2118 0.960607 13.14 0.871333 13.0481 0.806946C12.9561 0.74256 12.8476 0.705729 12.7355 0.700771C12.6233 0.695814 12.512 0.722935 12.4147 0.778955Z" fill="#6C6C6C"/>
</svg>
