<svg width="18" height="18" viewBox="0 0 18 18" fill="none" xmlns="http://www.w3.org/2000/svg">
<path d="M12.92 7.8299H16.3401V7.8308C16.5415 7.8308 16.7347 7.75077 16.8772 7.60832C17.0196 7.46587 17.0996 7.27266 17.0996 7.0712V2.9249C17.0997 2.38846 16.8868 1.87394 16.5078 1.49428C16.1288 1.11462 15.6147 0.900856 15.0782 0.899902H12.9183C12.7171 0.900379 12.5244 0.980618 12.3823 1.12302C12.2402 1.26542 12.1604 1.45836 12.1604 1.6595V7.0703C12.1604 7.27176 12.2405 7.46497 12.3829 7.60742C12.5254 7.74987 12.7186 7.8299 12.92 7.8299Z" fill="#919191"/>
<path d="M5.0795 10.1697H1.6595V10.1688C1.45804 10.1688 1.26484 10.2489 1.12238 10.3913C0.979931 10.5338 0.899902 10.727 0.899902 10.9284V15.0747C0.900141 15.6116 1.11344 16.1264 1.49296 16.5061C1.87247 16.8857 2.38717 17.0993 2.924 17.0997H5.0768C5.17666 17.1001 5.27561 17.0807 5.36797 17.0428C5.46034 17.0048 5.54429 16.949 5.61503 16.8785C5.68577 16.808 5.7419 16.7242 5.78019 16.632C5.81849 16.5398 5.8382 16.4409 5.8382 16.341V10.9293C5.83832 10.8296 5.81878 10.7309 5.78071 10.6387C5.74263 10.5466 5.68677 10.4628 5.6163 10.3923C5.54584 10.3217 5.46216 10.2658 5.37005 10.2276C5.27794 10.1894 5.17921 10.1697 5.0795 10.1697Z" fill="#919191"/>
<path d="M0.899902 7.0712V2.9249C0.899902 2.38815 1.113 1.87336 1.49237 1.49365C1.87175 1.11394 2.38635 0.90038 2.9231 0.899903H9.1331C9.23281 0.899785 9.33157 0.919322 9.42372 0.957397C9.51587 0.995472 9.59962 1.05134 9.67017 1.1218C9.74071 1.19227 9.79668 1.27594 9.83486 1.36805C9.87305 1.46016 9.8927 1.55889 9.8927 1.6586V7.0712C9.8927 7.27266 9.81267 7.46587 9.67022 7.60832C9.52777 7.75077 9.33456 7.8308 9.1331 7.8308H1.6631C1.56305 7.83128 1.46389 7.81198 1.37131 7.77402C1.27874 7.73606 1.19457 7.68018 1.12366 7.6096C1.05274 7.53901 0.996464 7.45512 0.958066 7.36272C0.919668 7.27033 0.899901 7.17126 0.899902 7.0712Z" fill="#919191"/>
<path d="M17.1014 15.0747V10.9284C17.1014 10.8287 17.0826 10.7299 17.0444 10.6378C17.0063 10.5456 16.9503 10.4619 16.8798 10.3913C16.8092 10.3208 16.7255 10.2648 16.6334 10.2267C16.5412 10.1885 16.4424 10.1688 16.3427 10.1688H8.87267C8.77296 10.1688 8.67422 10.1885 8.58212 10.2267C8.49001 10.2649 8.40633 10.3208 8.33587 10.3914C8.2654 10.4619 8.20954 10.5457 8.17146 10.6378C8.13339 10.73 8.11385 10.8287 8.11397 10.9284V16.341C8.11385 16.4407 8.13339 16.5394 8.17148 16.6315C8.20956 16.7236 8.26544 16.8073 8.33592 16.8778C8.40639 16.9483 8.49008 17.0041 8.58218 17.0422C8.67429 17.0803 8.773 17.0999 8.87267 17.0997H15.0737C15.3398 17.1001 15.6034 17.048 15.8494 16.9464C16.0954 16.8448 16.319 16.6957 16.5073 16.5076C16.6956 16.3195 16.845 16.0962 16.947 15.8503C17.0489 15.6044 17.1014 15.3409 17.1014 15.0747Z" fill="#919191"/>
</svg>
