<svg width="18" height="18" viewBox="0 0 18 18" fill="none" xmlns="http://www.w3.org/2000/svg">
<path d="M16.0546 8.91724L11.6026 13.3592C11.3291 13.6301 11.0046 13.8442 10.648 13.989C10.2913 14.1339 9.90954 14.2067 9.5246 14.2032C8.7074 14.2024 7.92356 13.879 7.34361 13.3032C6.78413 12.744 6.46821 11.9863 6.46461 11.1952C6.45964 10.8036 6.53308 10.4148 6.6806 10.0519C6.82813 9.68907 7.04675 9.35936 7.32361 9.08224L10.8066 5.61424C10.9994 5.43339 11.2552 5.33499 11.5195 5.34001C11.7838 5.34502 12.0357 5.45305 12.2215 5.64108C12.4074 5.82911 12.5124 6.08227 12.5143 6.34662C12.5162 6.61096 12.4147 6.86559 12.2316 7.05624L8.7516 10.5162C8.6658 10.6032 8.59811 10.7063 8.55244 10.8196C8.50678 10.9329 8.48406 11.0541 8.4856 11.1762C8.4836 11.4376 8.58497 11.6892 8.76761 11.8762C8.96815 12.0708 9.23722 12.1786 9.51661 12.1762C9.63517 12.1785 9.753 12.1573 9.86335 12.1139C9.9737 12.0705 10.0744 12.0057 10.1596 11.9232L14.6176 7.47624C15.1068 6.92129 15.3661 6.20074 15.3427 5.46131C15.3194 4.72188 15.015 4.01916 14.4917 3.49623C13.9684 2.9733 13.2655 2.66948 12.526 2.64664C11.7866 2.62379 11.0662 2.88362 10.5116 3.37324L3.37761 10.4962C2.84873 11.0263 2.54452 11.7399 2.52827 12.4885C2.51202 13.2371 2.78496 13.9632 3.29034 14.5157C3.79573 15.0682 4.49464 15.4046 5.24174 15.455C5.98883 15.5054 6.7266 15.2659 7.30161 14.7862L7.53261 14.5982L7.80061 14.7352C8.12735 14.8915 8.48443 14.9741 8.8466 14.9772H8.88161L9.0706 14.9692C9.14762 14.9648 9.22414 14.9841 9.28983 15.0246C9.35553 15.065 9.40723 15.1246 9.43797 15.1954C9.46872 15.2661 9.47702 15.3446 9.46175 15.4202C9.44649 15.4958 9.40839 15.565 9.35261 15.6182L8.92461 16.0472C8.46616 16.5054 7.92196 16.8688 7.32307 17.1167C6.72419 17.3646 6.08234 17.492 5.43419 17.4918C4.78604 17.4917 4.14427 17.3638 3.54552 17.1156C2.94678 16.8674 2.40279 16.5037 1.9446 16.0452C1.48642 15.5868 1.12303 15.0426 0.87516 14.4437C0.627295 13.8448 0.499814 13.203 0.5 12.5548C0.500186 11.9067 0.628035 11.2649 0.876244 10.6662C1.12445 10.0674 1.48816 9.52343 1.9466 9.06524L9.07661 1.93524C9.5333 1.47088 10.0774 1.10153 10.6776 0.848499C11.2777 0.595468 11.922 0.463764 12.5733 0.460983C13.2246 0.458201 13.87 0.584397 14.4723 0.832292C15.0746 1.08019 15.6219 1.44488 16.0825 1.90532C16.5432 2.36577 16.9081 2.91286 17.1562 3.51504C17.4044 4.11723 17.5309 4.76258 17.5284 5.41389C17.5259 6.06519 17.3944 6.70956 17.1417 7.30982C16.8889 7.91008 16.5198 8.45435 16.0556 8.91124L16.0546 8.91724Z" fill="#919191"/>
</svg>
