<svg width="14" height="12" viewBox="0 0 14 12" fill="none" xmlns="http://www.w3.org/2000/svg">
<path d="M6.01407 0.0507818H7.98341C8.06096 0.0506794 8.13777 0.065879 8.20944 0.0955097C8.28111 0.125141 8.34622 0.16862 8.40106 0.223458C8.4559 0.278296 8.49938 0.343414 8.52901 0.415083C8.55864 0.486752 8.57384 0.563563 8.57374 0.641115V4.07578H10.7321C10.8293 4.0759 10.9242 4.10482 11.005 4.15889C11.0857 4.21296 11.1486 4.28975 11.1857 4.37956C11.2229 4.46937 11.2325 4.56817 11.2135 4.66347C11.1945 4.75877 11.1477 4.8463 11.079 4.915L7.33552 8.66078C7.2462 8.7495 7.12541 8.7993 6.99952 8.7993C6.87362 8.7993 6.75284 8.7495 6.66352 8.66078L2.91618 4.915C2.84731 4.84616 2.80043 4.75842 2.7815 4.6629C2.76257 4.56738 2.77244 4.46839 2.80985 4.37848C2.84726 4.28858 2.91053 4.21181 2.99164 4.15792C3.07274 4.10403 3.16803 4.07544 3.26541 4.07578H5.42374V0.641115C5.42364 0.563563 5.43884 0.486752 5.46847 0.415083C5.4981 0.343414 5.54158 0.278296 5.59641 0.223458C5.65125 0.16862 5.71637 0.125141 5.78804 0.0955097C5.85971 0.065879 5.93652 0.0506794 6.01407 0.0507818ZM13.2987 8.60634V11.3628C13.2988 11.4403 13.2836 11.5171 13.254 11.5888C13.2244 11.6605 13.1809 11.7256 13.1261 11.7804C13.0712 11.8353 13.0061 11.8788 12.9344 11.9084C12.8628 11.938 12.786 11.9532 12.7084 11.9531H1.28907C1.21132 11.9532 1.13432 11.9379 1.0625 11.9082C0.990677 11.8784 0.925455 11.8347 0.870586 11.7796C0.815717 11.7245 0.772286 11.6591 0.742793 11.5872C0.713301 11.5153 0.698328 11.4382 0.698739 11.3604V8.60634C0.698636 8.52879 0.713836 8.45197 0.743467 8.38031C0.773097 8.30864 0.816577 8.24352 0.871415 8.18868C0.926253 8.13384 0.991371 8.09036 1.06304 8.06073C1.13471 8.0311 1.21152 8.0159 1.28907 8.016H4.89874L6.10429 9.22156C6.22147 9.33952 6.36083 9.43313 6.51434 9.49701C6.66784 9.56089 6.83247 9.59378 6.99874 9.59378C7.16501 9.59378 7.32963 9.56089 7.48314 9.49701C7.63665 9.43313 7.776 9.33952 7.89318 9.22156L9.09874 8.016H12.7092C12.7867 8.016 12.8634 8.03128 12.935 8.06096C13.0066 8.09063 13.0716 8.13413 13.1263 8.18896C13.1811 8.24378 13.2245 8.30887 13.2541 8.38049C13.2837 8.4521 13.2988 8.52885 13.2987 8.60634ZM10.2475 10.7717C10.2475 10.6743 10.2186 10.5791 10.1645 10.4981C10.1104 10.4172 10.0336 10.3541 9.94359 10.3168C9.85363 10.2796 9.75464 10.2698 9.65913 10.2888C9.56363 10.3078 9.4759 10.3547 9.40705 10.4235C9.3382 10.4924 9.29131 10.5801 9.27231 10.6756C9.25331 10.7711 9.26306 10.8701 9.30033 10.9601C9.33759 11.05 9.40069 11.1269 9.48166 11.181C9.56262 11.2351 9.65781 11.264 9.75518 11.264C9.88603 11.2636 10.0114 11.2113 10.1037 11.1185C10.196 11.0258 10.2477 10.9002 10.2475 10.7693V10.7717ZM11.8225 10.7717C11.8225 10.6743 11.7936 10.5791 11.7395 10.4981C11.6854 10.4172 11.6086 10.3541 11.5186 10.3168C11.4286 10.2796 11.3296 10.2698 11.2341 10.2888C11.1386 10.3078 11.0509 10.3547 10.982 10.4235C10.9132 10.4924 10.8663 10.5801 10.8473 10.6756C10.8283 10.7711 10.8381 10.8701 10.8753 10.9601C10.9126 11.05 10.9757 11.1269 11.0567 11.181C11.1376 11.2351 11.2328 11.264 11.3302 11.264C11.4608 11.2632 11.5857 11.2107 11.6777 11.118C11.7697 11.0253 11.8212 10.8999 11.821 10.7693L11.8225 10.7717Z" fill="#919191"/>
</svg>
