<svg width="200" height="200" viewBox="0 0 200 200" fill="none" xmlns="http://www.w3.org/2000/svg">
<g clip-path="url(#clip0_4451_13665)">
<g opacity="0.7">
<path d="M60.4623 25.7419V157.984C60.4646 158.344 60.3955 158.7 60.2589 159.033C60.1223 159.366 59.921 159.668 59.6665 159.923C59.4119 160.178 59.1093 160.381 58.7759 160.519C58.4424 160.657 58.0849 160.728 57.7238 160.728H2.59796C2.23683 160.728 1.87925 160.657 1.54584 160.519C1.21242 160.381 0.909746 160.178 0.655218 159.923C0.40069 159.668 0.199347 159.366 0.0627747 159.033C-0.0737979 158.7 -0.142912 158.344 -0.140567 157.984V25.795C-0.135905 25.0593 0.15973 24.355 0.682298 23.8348C1.20486 23.3146 1.91229 23.0203 2.6513 23.0156H57.7949C58.5103 23.0296 59.1913 23.3235 59.6906 23.8338C60.1898 24.3441 60.4671 25.0296 60.4623 25.7419Z" fill="#259F94"/>
<path d="M60.4623 25.5826V27.0519C60.4623 27.4651 60.2974 27.8613 60.0039 28.1535C59.7105 28.4456 59.3124 28.6098 58.8974 28.6098H1.56658C1.15155 28.6098 0.753524 28.4456 0.460056 28.1535C0.166588 27.8613 0.00170898 27.4651 0.00170898 27.0519V25.5826C0.00170898 24.9018 0.273373 24.2489 0.756929 23.7675C1.24048 23.2861 1.89632 23.0156 2.58017 23.0156H57.9549C58.616 23.021 59.2508 23.2737 59.7332 23.7237C59.9732 23.9694 60.1614 24.2605 60.2866 24.5797C60.4118 24.899 60.4715 25.24 60.4623 25.5826Z" fill="#259F94"/>
<path d="M60.4623 25.5825V27.0518C60.4623 27.465 60.2974 27.8612 60.0039 28.1534C59.7105 28.4455 59.3124 28.6097 58.8974 28.6097H1.56658C1.15155 28.6097 0.753524 28.4455 0.460056 28.1534C0.166588 27.8612 0.00170898 27.465 0.00170898 27.0518V26.7686C0.652376 26.933 1.32214 27.0104 1.99334 26.9987C5.46093 26.9987 59.9999 28.9815 59.7332 23.7236C59.9732 23.9693 60.1614 24.2604 60.2866 24.5796C60.4118 24.8989 60.4715 25.2399 60.4623 25.5825Z" fill="#007A6E"/>
<path d="M55.8921 116.346H4.66067C3.58036 116.346 2.70459 117.218 2.70459 118.294V154.337C2.70459 155.413 3.58036 156.284 4.66067 156.284H55.8921C56.9724 156.284 57.8482 155.413 57.8482 154.337V118.294C57.8482 117.218 56.9724 116.346 55.8921 116.346Z" fill="#56B4AC"/>
<path d="M40.2969 127.181H20.2382C19.2561 127.181 18.46 127.973 18.46 128.951V137.289C18.46 138.267 19.2561 139.059 20.2382 139.059H40.2969C41.279 139.059 42.0751 138.267 42.0751 137.289V128.951C42.0751 127.973 41.279 127.181 40.2969 127.181Z" fill="#259F94"/>
<path d="M38.9632 128.916H21.5897C20.863 128.916 20.2738 129.502 20.2738 130.226V135.607C20.2738 136.331 20.863 136.917 21.5897 136.917H38.9632C39.69 136.917 40.2791 136.331 40.2791 135.607V130.226C40.2791 129.502 39.69 128.916 38.9632 128.916Z" fill="#007A6E"/>
<path d="M40.2791 130.173V132.74H20.2738V130.155C20.2738 129.99 20.3065 129.826 20.3699 129.674C20.4334 129.521 20.5264 129.383 20.6436 129.266C20.7609 129.149 20.9 129.057 21.0532 128.994C21.2064 128.93 21.3706 128.898 21.5364 128.898H39.0166C39.1839 128.898 39.3495 128.931 39.5039 128.995C39.6582 129.06 39.7982 129.154 39.9157 129.272C40.0332 129.391 40.1258 129.532 40.1882 129.686C40.2506 129.841 40.2815 130.006 40.2791 130.173Z" fill="#86C9C3"/>
<path d="M55.9277 74.3901H4.6251C3.56443 74.3901 2.70459 75.2461 2.70459 76.3021V111.266C2.70459 112.322 3.56443 113.178 4.6251 113.178H55.9277C56.9883 113.178 57.8482 112.322 57.8482 111.266V76.3021C57.8482 75.2461 56.9883 74.3901 55.9277 74.3901Z" fill="#56B4AC"/>
<path d="M40.2969 85.2241H20.2382C19.2561 85.2241 18.46 86.0167 18.46 86.9944V95.3326C18.46 96.3103 19.2561 97.1029 20.2382 97.1029H40.2969C41.279 97.1029 42.0751 96.3103 42.0751 95.3326V86.9944C42.0751 86.0167 41.279 85.2241 40.2969 85.2241Z" fill="#259F94"/>
<path d="M38.9632 86.9771H21.5897C20.863 86.9771 20.2738 87.5636 20.2738 88.2871V93.6688C20.2738 94.3923 20.863 94.9789 21.5897 94.9789H38.9632C39.69 94.9789 40.2791 94.3923 40.2791 93.6688V88.2871C40.2791 87.5636 39.69 86.9771 38.9632 86.9771Z" fill="#007A6E"/>
<path d="M40.2791 88.234V90.8187H20.2738V88.234C20.2738 87.9006 20.4068 87.5809 20.6436 87.3452C20.8804 87.1095 21.2015 86.9771 21.5364 86.9771H39.0166C39.3514 86.9771 39.6726 87.1095 39.9094 87.3452C40.1461 87.5809 40.2791 87.9006 40.2791 88.234Z" fill="#86C9C3"/>
<path d="M55.9277 31.4067H4.6251C3.56443 31.4067 2.70459 32.2627 2.70459 33.3187V69.6809C2.70459 70.7368 3.56443 71.5928 4.6251 71.5928H55.9277C56.9883 71.5928 57.8482 70.7368 57.8482 69.6809V33.3187C57.8482 32.2627 56.9883 31.4067 55.9277 31.4067Z" fill="#56B4AC"/>
<path d="M40.2969 42.2412H20.2382C19.2561 42.2412 18.46 43.0338 18.46 44.0115V52.3497C18.46 53.3274 19.2561 54.12 20.2382 54.12H40.2969C41.279 54.12 42.0751 53.3274 42.0751 52.3497V44.0115C42.0751 43.0338 41.279 42.2412 40.2969 42.2412Z" fill="#259F94"/>
<path d="M38.9632 43.9937H21.5897C20.863 43.9937 20.2738 44.5802 20.2738 45.3037V50.6854C20.2738 51.4089 20.863 51.9955 21.5897 51.9955H38.9632C39.69 51.9955 40.2791 51.4089 40.2791 50.6854V45.3037C40.2791 44.5802 39.69 43.9937 38.9632 43.9937Z" fill="#007A6E"/>
<path d="M40.2791 45.233V47.7645H20.2738V45.1622C20.2738 44.9971 20.3065 44.8337 20.3699 44.6812C20.4334 44.5287 20.5264 44.3901 20.6436 44.2734C20.7609 44.1567 20.9 44.0641 21.0532 44.001C21.2064 43.9378 21.3706 43.9053 21.5364 43.9053H39.0166C39.1886 43.905 39.3587 43.9397 39.5168 44.0072C39.6748 44.0748 39.8173 44.1738 39.9355 44.2981C40.0537 44.4224 40.1452 44.5694 40.2042 44.7302C40.2633 44.891 40.2888 45.0621 40.2791 45.233Z" fill="#86C9C3"/>
<path d="M60.4623 118.79V157.984C60.4646 158.344 60.3955 158.7 60.2589 159.033C60.1223 159.366 59.921 159.668 59.6665 159.923C59.4119 160.178 59.1093 160.381 58.7759 160.519C58.4424 160.657 58.0849 160.728 57.7238 160.728H2.59796C2.23683 160.728 1.87925 160.657 1.54584 160.519C1.21242 160.381 0.909746 160.178 0.655218 159.923C0.40069 159.668 0.199347 159.366 0.0627747 159.033C-0.0737979 158.7 -0.142912 158.344 -0.140567 157.984V154.444C-0.140567 154.444 -0.140576 158.427 5.85213 158.427C11.8448 158.427 58.9152 160.321 60.4623 118.79Z" fill="#007A6E"/>
</g>
<path d="M140.481 86.8519C135.71 73.7303 126.445 62.7038 114.314 55.712C102.183 48.7202 87.9638 46.211 74.1579 48.6257C60.3521 51.0405 47.8438 58.2245 38.8333 68.9141C29.8228 79.6037 24.8872 93.1142 24.8949 107.069C24.8876 111.617 25.4127 116.15 26.4597 120.576C28.3205 128.435 31.7736 135.833 36.6074 142.316C41.4412 148.8 47.5539 154.232 54.571 158.281C61.588 162.329 69.3616 164.909 77.4153 165.861C85.4691 166.814 93.6333 166.119 101.408 163.819C109.182 161.52 116.403 157.664 122.628 152.489C128.853 147.313 133.951 140.926 137.609 133.72C141.267 126.514 143.409 118.64 143.903 110.581C144.397 102.522 143.232 94.4473 140.481 86.8519ZM84.4663 114.274C83.0349 114.274 81.6356 113.851 80.4454 113.06C79.2552 112.268 78.3275 111.143 77.7797 109.826C77.2319 108.51 77.0886 107.061 77.3679 105.663C77.6471 104.266 78.3364 102.982 79.3486 101.974C80.3608 100.966 81.6504 100.28 83.0543 100.002C84.4583 99.7241 85.9135 99.8668 87.236 100.412C88.5584 100.957 89.6888 101.881 90.484 103.066C91.2793 104.251 91.7038 105.644 91.7038 107.069C91.7038 108.98 90.9413 110.812 89.584 112.164C88.2267 113.515 86.3858 114.274 84.4663 114.274Z" fill="#424242"/>
<path d="M144.035 107.075C144.036 121.627 138.663 135.672 128.937 146.536C119.212 157.4 105.814 164.325 91.2928 165.993C76.7718 167.661 62.1414 163.956 50.1863 155.583C38.2311 147.209 29.7857 134.752 26.4573 120.582C33.3035 127.433 50.9971 141.153 81.7965 139.826C108.115 138.675 138.363 120.352 140.479 86.8579C142.843 93.3378 144.047 100.181 144.035 107.075Z" fill="#2F2F2F"/>
<path d="M137.915 109.72C137.915 110.588 137.826 111.491 137.773 112.323C137.72 113.155 137.613 114.093 137.524 114.943C137.524 115.368 137.4 115.793 137.328 116.235L137.115 117.527C137.115 117.97 136.955 118.395 136.866 118.82L136.599 120.094C136.599 120.537 136.386 120.944 136.261 121.369L135.924 122.644C135.817 123.069 135.675 123.476 135.532 123.901L135.123 125.14C134.999 125.565 134.839 125.972 134.679 126.379L134.199 127.618C134.056 128.025 133.861 128.415 133.683 128.822L133.15 130.026C132.99 130.433 132.758 130.823 132.581 131.212L131.976 132.38C131.887 132.575 131.78 132.77 131.674 132.965L131.336 133.531L130.678 134.682C130.233 135.443 129.753 136.169 129.273 136.912C127.321 139.84 125.068 142.557 122.551 145.02C120.024 147.464 117.26 149.652 114.3 151.553C113.553 152.013 112.806 152.491 112.042 152.934L110.904 153.553L110.317 153.872L109.73 154.191L108.556 154.757L107.383 155.341L106.173 155.855C105.764 156.032 105.373 156.226 104.964 156.386C98.4471 159.025 91.4957 160.442 84.461 160.564C77.3882 160.676 70.3656 159.363 63.8155 156.704C60.5418 155.376 57.4086 153.727 54.4619 151.783C48.5534 147.884 43.5018 142.831 39.6135 136.93C37.6773 133.995 36.0392 130.876 34.7233 127.618L34.6166 127.37C33.3569 124.189 32.4158 120.893 31.807 117.527L31.6114 116.235C31.6114 115.793 31.4513 115.368 31.4158 114.943C31.4158 114.058 31.2202 113.173 31.149 112.323C31.0779 111.473 31.0423 110.552 31.0245 109.72V107.065H31.1312C31.3176 114.004 32.8199 120.845 35.5591 127.229C35.7191 127.583 35.8614 127.937 36.0392 128.291C37.2994 131.079 38.8049 133.751 40.5382 136.275C42.4905 139.118 44.7052 141.773 47.1533 144.206C52.0572 149.082 57.8594 152.971 64.2423 155.66C70.6504 158.337 77.5126 159.773 84.461 159.891C87.9446 159.944 91.4244 159.641 94.846 158.988C98.2683 158.345 101.612 157.342 104.822 155.996C105.231 155.837 105.622 155.642 106.013 155.465L107.187 154.916C107.596 154.739 107.97 154.527 108.361 154.332L109.517 153.73L110.086 153.412L110.637 153.075L111.757 152.403C112.504 151.942 113.215 151.464 113.944 150.986C116.793 149.015 119.443 146.774 121.858 144.295C124.285 141.838 126.482 139.166 128.419 136.31C128.882 135.585 129.362 134.859 129.806 134.133L130.464 133L130.784 132.451C130.905 132.27 131.012 132.081 131.105 131.885L131.709 130.734C131.905 130.362 132.118 129.973 132.296 129.583L132.829 128.415C133.007 128.025 133.221 127.636 133.363 127.229C136.088 120.841 137.589 114.002 137.791 107.065H137.897L137.915 109.72Z" fill="#6C6C6C"/>
<path d="M39.3157 88.4786C36.8257 94.3811 35.486 100.701 35.368 107.102C35.317 110.309 35.5971 113.512 36.2038 116.662C36.795 119.817 37.7311 122.898 38.9956 125.85C39.1341 126.225 39.2944 126.591 39.4757 126.947L39.9914 128.045C40.1515 128.417 40.3471 128.753 40.5427 129.107L41.094 130.169C41.3963 130.718 41.7341 131.267 42.0542 131.798L42.321 132.241C42.7477 132.931 43.2101 133.586 43.6546 134.241C45.4789 136.873 47.564 139.317 49.8785 141.535C52.1639 143.771 54.6522 145.792 57.3116 147.572C57.9696 147.996 58.6453 148.457 59.321 148.864C59.9968 149.271 60.7081 149.678 61.4016 150.05C62.0951 150.422 62.8242 150.811 63.5355 151.148L64.638 151.643C64.9937 151.803 65.3493 151.997 65.7227 152.139C71.6648 154.637 78.0186 156.024 84.4655 156.228V156.352H82.0293L79.6109 156.228C78.7929 156.228 77.9927 156.069 77.1747 155.998C76.7657 155.998 76.3745 155.892 75.9655 155.821L74.7562 155.626C74.365 155.626 73.9738 155.485 73.5648 155.396L72.3734 155.148C71.9644 155.148 71.591 154.954 71.182 154.847L70.0083 154.529C69.6171 154.44 69.2259 154.299 68.8347 154.175L67.6788 153.803C67.2876 153.679 66.9142 153.537 66.523 153.378L65.3849 152.953C64.9937 152.812 64.638 152.635 64.2468 152.475L63.1443 151.98C62.753 151.82 62.3974 151.626 62.0418 151.449L60.9392 150.9C60.2102 150.528 59.5167 150.103 58.8054 149.714C58.0941 149.324 57.4183 148.846 56.7248 148.404C53.9976 146.611 51.4701 144.534 49.185 142.208C46.9148 139.872 44.878 137.323 43.1034 134.595C42.6944 133.905 42.2498 133.214 41.8408 132.524C41.6274 132.117 41.3963 131.745 41.2006 131.338C41.005 130.931 40.8272 130.7 40.6672 130.382C40.3293 129.656 39.9381 128.948 39.6002 128.204C39.2624 127.461 38.9423 126.735 38.64 125.974C36.172 119.973 34.8455 113.568 34.7278 107.085C34.614 100.567 35.8237 94.0942 38.2843 88.0537C39.5261 85.0348 41.0565 82.1418 42.8544 79.4146C46.4971 73.9704 51.2019 69.3107 56.6892 65.7124C59.426 63.9327 62.3328 62.4265 65.3671 61.2158C68.3974 60.0093 71.5434 59.1136 74.7562 58.5426L75.9477 58.3655C76.3567 58.3655 76.7479 58.224 77.1569 58.1886L79.5931 57.9407L82.0115 57.8345H84.4477V57.9584C78.0285 58.1406 71.7008 59.5217 65.7939 62.0301C62.8512 63.2865 60.0398 64.8282 57.4005 66.6329C54.7585 68.4264 52.2935 70.4655 50.0386 72.7228C47.7865 74.9783 45.7505 77.4379 43.9569 80.0696C42.1381 82.7151 40.5836 85.5316 39.3157 88.4786Z" fill="#6C6C6C"/>
<path d="M42.0072 107.077V105.006C42.0072 104.315 42.0072 103.607 42.0072 102.917C42.0072 102.226 42.1317 101.536 42.2028 100.845C42.2315 100.501 42.279 100.158 42.3451 99.8186L42.5051 98.7741C42.6296 98.1014 42.7897 97.411 42.9141 96.7383C42.9141 96.3842 43.0919 96.0655 43.1809 95.7115L43.4476 94.7024C43.5365 94.3661 43.6432 94.0474 43.7499 93.7111L44.07 92.7197C44.1767 92.3833 44.3011 92.0469 44.4256 91.7283L44.7991 90.7546C44.9235 90.4183 45.0836 90.0996 45.2081 89.781L45.6349 88.825C45.7771 88.5063 45.9371 88.2054 46.0972 87.8867L46.5595 86.9485L47.5909 85.1782C47.9466 84.594 48.3378 84.0098 48.7112 83.4079C50.2524 81.0757 52.0409 78.9153 54.046 76.9639C56.0604 75.0213 58.2645 73.2837 60.6255 71.7769L62.4038 70.697L64.182 69.7057L66.0492 68.8028L67.9697 67.9707C73.1539 65.872 78.6809 64.7379 84.2763 64.6248C89.902 64.5039 95.4932 65.528 100.707 67.6344C103.319 68.6935 105.82 70.0038 108.176 71.5467C115.278 76.2114 120.761 82.9439 123.878 90.8255C124.903 93.4227 125.665 96.115 126.154 98.8626L126.314 99.8894C126.38 100.229 126.428 100.572 126.456 100.916C126.456 101.607 126.616 102.297 126.652 102.987L126.759 105.076V107.148H126.634C126.464 101.662 125.258 96.2564 123.078 91.2149C119.818 83.6771 114.486 77.2091 107.696 72.5558C105.431 71.0186 103.018 69.7081 100.494 68.6435C95.4228 66.5162 89.9915 65.3687 84.4896 65.2622C81.7295 65.2118 78.9713 65.4372 76.2564 65.9349C73.5398 66.4452 70.8866 67.2464 68.3431 68.3248C68.0155 68.4422 67.6949 68.5782 67.3829 68.732L66.4582 69.1745C66.1381 69.3162 65.8358 69.4932 65.5335 69.6525L64.6088 70.1305C64.0042 70.4669 63.4352 70.8386 62.8305 71.175L61.0523 72.3257C58.7989 73.8913 56.7027 75.6698 54.7928 77.6366C52.8891 79.598 51.1578 81.7184 49.6181 83.9744C49.2447 84.5586 48.8535 85.1251 48.4978 85.7447C48.1422 86.3643 47.8043 86.9131 47.4842 87.515C47.1641 88.1169 46.8263 88.7188 46.524 89.2853L46.0972 90.2058C45.9549 90.5245 45.7949 90.8254 45.6704 91.1441C43.525 96.1966 42.3199 101.595 42.1139 107.077H42.0072Z" fill="#6C6C6C"/>
<path d="M124.617 107.069C124.668 109.691 124.459 112.312 123.994 114.894C123.512 117.482 122.767 120.015 121.772 122.453C121.38 123.409 120.954 124.347 120.474 125.268C119.773 126.706 118.977 128.096 118.091 129.428C113.696 136.09 107.334 141.23 99.8814 144.139C97.4287 145.096 94.8845 145.802 92.2882 146.246C91.648 146.352 90.9901 146.458 90.3499 146.529L88.3939 146.724H86.42H84.4639V146.618C89.6627 146.484 94.79 145.379 99.5791 143.36C104.308 141.307 108.604 138.382 112.24 134.739C114.056 132.928 115.694 130.948 117.13 128.826C117.504 128.277 117.877 127.711 118.233 127.056C119.222 125.449 120.084 123.768 120.811 122.028C122.813 117.286 123.905 112.212 124.03 107.069C124.084 104.487 123.869 101.906 123.39 99.3682C122.891 96.8447 122.122 94.3817 121.096 92.0214C120.971 91.7204 120.829 91.4195 120.687 91.1362L120.278 90.2511C120.153 89.9678 119.993 89.6845 119.833 89.4013L119.389 88.5339C119.069 87.9851 118.713 87.4363 118.393 86.8875C118.073 86.3387 117.664 85.8076 117.308 85.2765C115.828 83.1689 114.148 81.2068 112.294 79.4168C110.443 77.6328 108.438 76.0155 106.301 74.5838C105.767 74.2297 105.234 73.8757 104.683 73.5393C104.131 73.203 103.58 72.8843 103.011 72.5833C102.442 72.2824 101.873 71.9814 101.233 71.6982C100.593 71.4149 100.077 71.1494 99.4546 70.9016C94.6777 68.8671 89.5668 67.7211 84.375 67.5203V67.4141H86.3311L88.3049 67.5026C88.9451 67.5026 89.6031 67.6265 90.261 67.6796C90.919 67.7327 91.5592 67.8743 92.1993 67.9629C92.8395 68.0514 93.4974 68.2107 94.1376 68.3523C94.4615 68.4122 94.782 68.4891 95.0979 68.5825L96.0581 68.8303L97.0006 69.1135L97.9431 69.4145C98.2632 69.503 98.5655 69.6447 98.8678 69.7509L99.7924 70.1049C100.415 70.3351 101.002 70.6183 101.571 70.8839C101.873 71.0078 102.175 71.1671 102.46 71.3087L103.349 71.7513C103.936 72.0522 104.505 72.3886 105.127 72.7073L106.905 73.7518C109.108 75.2057 111.147 76.8913 112.987 78.7794C114.813 80.6714 116.45 82.7345 117.877 84.9401C118.215 85.5066 118.571 86.0554 118.891 86.6219C119.211 87.1884 119.531 87.7726 119.816 88.3923C120.1 89.0119 120.42 89.5607 120.687 90.1626C120.954 90.7645 121.22 91.3487 121.452 91.9329C123.42 96.7453 124.493 101.874 124.617 107.069Z" fill="#6C6C6C"/>
<path d="M119.248 108.764V110.535L119.088 112.305C119.088 112.872 118.928 113.438 118.857 114.075C118.786 114.713 118.626 115.191 118.519 115.846C118.412 116.501 118.234 116.943 118.092 117.51C117.95 118.076 117.754 118.59 117.594 119.138C117.434 119.687 117.185 120.218 116.99 120.749C116.794 121.281 116.545 121.812 116.314 122.343C116.083 122.874 115.816 123.37 115.549 123.883C115.283 124.396 114.998 124.874 114.714 125.388C114.429 125.901 114.091 126.361 113.789 126.839C112.525 128.765 111.052 130.546 109.397 132.15C108.863 132.646 108.312 133.142 107.743 133.602C106.552 134.608 105.292 135.531 103.973 136.364L102.497 137.249L100.985 138.063L99.4383 138.807C98.9226 139.019 98.4069 139.267 97.8735 139.462C93.6283 141.187 89.1029 142.129 84.5188 142.241C80.0975 142.362 75.6963 141.604 71.5731 140.01C67.1453 138.343 63.1172 135.77 59.7483 132.459C56.3794 129.148 53.7442 125.171 52.0124 120.785C51.1935 118.65 50.5976 116.438 50.2341 114.182C50.2341 113.615 50.0563 113.049 49.9852 112.411C49.914 111.774 49.8785 111.278 49.8429 110.641C49.8073 110.004 49.8429 109.508 49.8429 108.871V107.1H49.7896C50.1635 116.143 53.9778 124.706 60.4591 131.053C62.0502 132.611 63.7758 134.026 65.616 135.284C67.4668 136.528 69.4316 137.595 71.4842 138.47C72.7857 139.023 74.1223 139.49 75.4853 139.869C76.2677 140.117 77.0679 140.311 77.8681 140.488C80.0677 140.957 82.3058 141.224 84.5544 141.285C86.8071 141.33 89.0587 141.152 91.2762 140.754C93.5013 140.329 95.6763 139.676 97.7668 138.807L98.5314 138.453L99.2961 138.098C99.8118 137.851 100.292 137.585 100.79 137.32L102.248 136.452C102.728 136.151 103.173 135.815 103.653 135.514L104.88 134.593C106.253 133.542 107.543 132.388 108.739 131.141C110.298 129.545 111.715 127.815 112.971 125.972C113.273 125.494 113.593 125.034 113.878 124.556C114.162 124.078 114.447 123.6 114.714 123.122C114.98 122.644 115.247 122.13 115.496 121.635C115.745 121.139 115.976 120.626 116.189 120.112C117.953 115.975 118.953 111.555 119.141 107.065L119.248 108.764Z" fill="#6C6C6C"/>
<path d="M41.836 132.515C41.6226 132.108 41.3914 131.736 41.1958 131.329L42.0494 131.771L42.3161 132.214C42.7429 132.904 43.2052 133.559 43.6498 134.214C45.4741 136.847 47.5592 139.29 49.8737 141.508C52.159 143.744 54.6473 145.765 57.3068 147.545C57.9647 147.969 58.6405 148.43 59.3162 148.837C59.9919 149.244 60.7032 149.651 61.3967 150.023C62.0903 150.395 62.8193 150.784 63.5306 151.121L64.6332 151.616C64.9888 151.776 65.3445 151.97 65.7179 152.112C71.66 154.61 78.0137 155.997 84.4607 156.201V156.325H82.0245L79.6061 156.201C78.7881 156.201 77.9878 156.042 77.1698 155.971C76.7608 155.971 76.3696 155.865 75.9606 155.794L74.7514 155.6C74.3602 155.6 73.969 155.458 73.56 155.369L72.3686 155.122C71.9596 155.122 71.5861 154.927 71.1771 154.821L70.0035 154.502C69.6123 154.413 69.2211 154.272 68.8299 154.148L67.674 153.776C67.2828 153.652 66.9093 153.511 66.5181 153.351L65.38 152.926C64.9888 152.785 64.6332 152.608 64.242 152.448L63.1394 151.953C62.7482 151.793 62.3926 151.599 62.0369 151.422L60.9344 150.873C60.2053 150.501 59.5118 150.076 58.8005 149.687C58.0892 149.297 57.4135 148.819 56.7199 148.377C53.9928 146.584 51.4653 144.507 49.1802 142.181C46.9099 139.845 44.8731 137.296 43.0985 134.568C42.6718 133.896 42.245 133.205 41.836 132.515Z" fill="#424242"/>
<path d="M107.684 133.29C106.493 134.296 105.233 135.219 103.914 136.051L102.438 136.936L100.927 137.751L99.3796 138.494C98.8639 138.707 98.3482 138.955 97.8147 139.149C93.5696 140.875 89.0442 141.817 84.4601 141.929C80.0387 142.05 75.6375 141.292 71.5144 139.698C72.777 139.787 74.0751 139.857 75.391 139.875C76.1734 140.123 76.9736 140.318 77.7739 140.495C79.9734 140.964 82.2115 141.23 84.4601 141.291C86.7128 141.336 88.9644 141.158 91.1819 140.76C93.407 140.335 95.582 139.683 97.6725 138.813L98.4371 138.459L99.2018 138.105C99.7175 137.857 100.198 137.591 100.696 137.326L102.154 136.458C102.634 136.157 103.078 135.821 103.559 135.52L104.785 134.6C105.764 134.192 106.688 133.768 107.684 133.29Z" fill="#424242"/>
<path d="M99.5869 143.371C104.316 141.318 108.612 138.393 112.248 134.75C114.064 132.939 115.702 130.959 117.138 128.837C117.512 128.288 117.885 127.722 118.241 127.067C119.023 126.482 119.788 125.898 120.535 125.296C119.834 126.734 119.038 128.124 118.152 129.457C113.758 136.118 107.395 141.258 99.9426 144.168C97.4899 145.125 94.9457 145.831 92.3494 146.275C91.7093 146.381 91.0513 146.487 90.4112 146.558L88.4551 146.753H86.4812H84.5251V146.646C89.7071 146.5 94.8157 145.389 99.5869 143.371Z" fill="#424242"/>
<path d="M137.914 109.72C137.914 110.588 137.825 111.491 137.772 112.323C137.718 113.155 137.612 114.093 137.523 114.943C137.523 115.368 137.398 115.793 137.327 116.235L137.114 117.527C137.114 117.97 136.954 118.395 136.865 118.82L136.598 120.094C136.598 120.537 136.385 120.944 136.26 121.369L135.922 122.644C135.816 123.069 135.673 123.476 135.531 123.901L135.122 125.14C134.998 125.565 134.838 125.972 134.678 126.379L134.197 127.618C134.055 128.025 133.86 128.415 133.682 128.822L133.148 130.026C132.988 130.433 132.757 130.823 132.579 131.212L131.975 132.38C131.886 132.575 131.779 132.77 131.672 132.965L131.334 133.531L130.677 134.682C130.232 135.443 129.752 136.169 129.272 136.912C127.32 139.84 125.067 142.557 122.55 145.02C120.023 147.464 117.259 149.652 114.299 151.553C113.552 152.013 112.805 152.491 112.04 152.934L110.902 153.553L110.316 153.872L109.729 154.191L108.555 154.757L107.381 155.341L106.172 155.855C105.763 156.032 105.372 156.226 104.963 156.386C98.4459 159.025 91.4945 160.442 84.4598 160.564C77.3869 160.676 70.3643 159.363 63.8143 156.704C60.5405 155.376 57.4073 153.727 54.4607 151.783C48.5521 147.884 43.5006 142.831 39.6122 136.93C37.6761 133.995 36.038 130.876 34.722 127.618L34.6154 127.37L36.038 128.326C37.3 131.102 38.8055 133.762 40.5369 136.275C42.4893 139.118 44.7039 141.773 47.152 144.206C52.0559 149.082 57.8582 152.971 64.241 155.66C70.6492 158.337 77.5113 159.773 84.4598 159.891C87.9433 159.944 91.4231 159.641 94.8447 158.988C98.2671 158.345 101.611 157.342 104.821 155.996C105.23 155.837 105.621 155.642 106.012 155.465L107.186 154.916C107.595 154.739 107.968 154.527 108.359 154.332L109.515 153.73L110.084 153.412L110.636 153.075L111.756 152.403C112.503 151.942 113.214 151.464 113.943 150.986C116.791 149.015 119.441 146.774 121.856 144.295C124.284 141.838 126.48 139.166 128.418 136.31C128.88 135.585 129.361 134.859 129.805 134.133L130.463 133L130.783 132.451C130.903 132.27 131.01 132.081 131.103 131.885L131.708 130.734C131.904 130.362 132.117 129.973 132.295 129.583L132.828 128.415C133.006 128.025 133.219 127.636 133.362 127.229C136.086 120.841 137.588 114.002 137.79 107.065H137.896L137.914 109.72Z" fill="#424242"/>
<path d="M84.4739 79.6284C79.0225 79.6284 73.6935 81.2377 69.1608 84.2528C64.6281 87.268 61.0953 91.5535 59.0091 96.5675C56.923 101.581 56.3771 107.099 57.4406 112.421C58.5042 117.744 61.1293 122.634 64.984 126.471C68.8388 130.309 73.75 132.922 79.0967 133.981C84.4434 135.04 89.9853 134.496 95.0218 132.419C100.058 130.342 104.363 126.825 107.392 122.313C110.42 117.801 112.037 112.495 112.037 107.068C112.037 99.7907 109.133 92.8113 103.964 87.6654C98.7948 82.5194 91.7841 79.6284 84.4739 79.6284ZM84.4739 114.096C83.0671 114.096 81.6919 113.681 80.5222 112.903C79.3524 112.125 78.4408 111.019 77.9024 109.725C77.364 108.431 77.2231 107.007 77.4976 105.634C77.7721 104.26 78.4495 102.998 79.4443 102.008C80.439 101.018 81.7065 100.343 83.0863 100.07C84.466 99.7967 85.8962 99.9369 87.196 100.473C88.4957 101.009 89.6066 101.916 90.3882 103.081C91.1698 104.245 91.5869 105.615 91.5869 107.015C91.5869 108.893 90.8375 110.694 89.5036 112.022C88.1696 113.35 86.3604 114.096 84.4739 114.096Z" fill="#FFCC80"/>
<path d="M198.549 28.5656L164.247 186.477C164.156 186.902 163.982 187.305 163.734 187.663C163.486 188.021 163.17 188.326 162.803 188.562C162.436 188.797 162.026 188.958 161.596 189.034C161.166 189.111 160.726 189.103 160.299 189.009L96.8512 175.36C96.4242 175.27 96.0194 175.096 95.6601 174.849C95.3007 174.602 94.9941 174.287 94.7577 173.922C94.5213 173.557 94.3599 173.148 94.2827 172.721C94.2056 172.293 94.2143 171.854 94.3083 171.43L97.2425 157.958L128.611 13.518C128.701 13.0929 128.876 12.6899 129.124 12.3321C129.372 11.9744 129.688 11.6691 130.055 11.4337C130.422 11.1984 130.832 11.0377 131.262 10.961C131.692 10.8842 132.132 10.8929 132.559 10.9864L191.934 23.7681L196.007 24.6355C196.434 24.7258 196.838 24.8993 197.198 25.1461C197.557 25.3929 197.864 25.708 198.1 26.0734C198.337 26.4387 198.498 26.847 198.575 27.2748C198.652 27.7025 198.643 28.1412 198.549 28.5656Z" fill="#424242"/>
<path d="M198.549 28.5646L164.247 186.476C164.156 186.902 163.982 187.304 163.734 187.662C163.486 188.02 163.17 188.325 162.803 188.561C162.436 188.796 162.026 188.957 161.596 189.033C161.166 189.11 160.726 189.102 160.299 189.008L96.8512 175.359C96.4242 175.269 96.0194 175.095 95.6601 174.848C95.3007 174.601 94.9941 174.286 94.7577 173.921C94.5213 173.556 94.3599 173.147 94.2827 172.72C94.2056 172.292 94.2143 171.853 94.3083 171.429L97.2425 157.957C109.85 159.32 165.047 157.266 191.934 23.7671L196.007 24.6345C196.434 24.7248 196.838 24.8983 197.198 25.1451C197.557 25.3919 197.864 25.707 198.1 26.0724C198.337 26.4377 198.498 26.846 198.575 27.2738C198.652 27.7015 198.643 28.1402 198.549 28.5646Z" fill="#2F2F2F"/>
<path d="M162.717 140.085L155.107 175.12C154.984 175.679 154.752 176.209 154.424 176.679C154.096 177.149 153.678 177.55 153.194 177.859C152.71 178.168 152.17 178.379 151.604 178.48C151.038 178.581 150.458 178.57 149.896 178.448L110.775 170.021C109.639 169.775 108.648 169.091 108.018 168.119C107.388 167.147 107.171 165.966 107.414 164.834L109.032 157.399L115.025 129.8C115.276 128.673 115.965 127.69 116.941 127.066C117.917 126.443 119.101 126.229 120.235 126.472L147.958 132.437L159.428 134.916C160.551 135.17 161.528 135.856 162.144 136.824C162.761 137.793 162.967 138.966 162.717 140.085Z" fill="#EEEEEE"/>
<path d="M173.813 89.0144L166.202 124.031C165.954 125.162 165.267 126.148 164.291 126.776C163.314 127.403 162.128 127.619 160.991 127.377L153.167 125.607L121.799 118.844C120.667 118.598 119.679 117.916 119.049 116.948C118.42 115.98 118.2 114.804 118.438 113.675L126.049 78.6404C126.296 77.5099 126.983 76.523 127.96 75.8959C128.936 75.2688 130.123 75.0525 131.259 75.2944L170.38 83.7389C171.196 83.9118 171.944 84.314 172.537 84.8976C173.129 85.4813 173.541 86.2219 173.724 87.0316C173.909 87.6764 173.94 88.3557 173.813 89.0144Z" fill="#EEEEEE"/>
<path d="M137.14 27.6246L129.53 62.6638C129.02 65.0146 130.52 67.3324 132.881 67.8407L172.093 76.2807C174.454 76.7889 176.782 75.2952 177.293 72.9444L184.903 37.9052C185.413 35.5543 183.913 33.2365 181.551 32.7282L142.34 24.2883C139.979 23.78 137.65 25.2737 137.14 27.6246Z" fill="#EEEEEE"/>
<path d="M129.207 18.8475L128.121 23.8481C127.941 24.6795 128.471 25.4992 129.307 25.679L133.687 26.6218C134.522 26.8015 135.345 26.2732 135.526 25.4418L136.612 20.4412C136.792 19.6098 136.262 18.7901 135.426 18.6103L131.046 17.6676C130.211 17.4878 129.388 18.0161 129.207 18.8475Z" fill="#EEEEEE"/>
<path d="M127.074 28.5467L125.988 33.5474C125.807 34.3788 126.338 35.1985 127.173 35.3782L131.553 36.321C132.388 36.5007 133.211 35.9725 133.392 35.1411L134.478 30.1404C134.659 29.309 134.128 28.4893 133.293 28.3096L128.913 27.3668C128.078 27.187 127.254 27.7153 127.074 28.5467Z" fill="#EEEEEE"/>
<path d="M124.971 38.2762L123.885 43.2768C123.704 44.1083 124.235 44.9279 125.07 45.1077L129.45 46.0505C130.285 46.2302 131.108 45.702 131.289 44.8706L132.375 39.8699C132.555 39.0385 132.025 38.2188 131.19 38.0391L126.81 37.0963C125.975 36.9165 125.151 37.4448 124.971 38.2762Z" fill="#EEEEEE"/>
<path d="M122.867 47.9607L121.781 52.9614C121.601 53.7928 122.131 54.6125 122.967 54.7923L127.347 55.735C128.182 55.9148 129.005 55.3865 129.186 54.5551L130.272 49.5545C130.452 48.7231 129.922 47.9034 129.086 47.7236L124.706 46.7808C123.871 46.6011 123.048 47.1293 122.867 47.9607Z" fill="#EEEEEE"/>
<path d="M120.764 57.6751L119.678 62.6757C119.497 63.5071 120.028 64.3269 120.863 64.5066L125.243 65.4494C126.078 65.6291 126.901 65.1009 127.082 64.2695L128.168 59.2688C128.349 58.4374 127.818 57.6177 126.983 57.438L122.603 56.4952C121.768 56.3154 120.944 56.8437 120.764 57.6751Z" fill="#EEEEEE"/>
<path d="M118.661 67.3743L117.574 72.375C117.394 73.2064 117.925 74.0261 118.76 74.2059L123.14 75.1486C123.975 75.3284 124.798 74.8001 124.979 73.9687L126.065 68.9681C126.245 68.1367 125.715 67.3169 124.88 67.1372L120.5 66.1944C119.665 66.0147 118.841 66.5429 118.661 67.3743Z" fill="#EEEEEE"/>
<path d="M116.527 77.0887L115.441 82.0893C115.26 82.9208 115.791 83.7404 116.626 83.9202L121.006 84.863C121.841 85.0427 122.665 84.5145 122.845 83.6831L123.931 78.6824C124.112 77.851 123.581 77.0313 122.746 76.8515L118.366 75.9088C117.531 75.729 116.708 76.2573 116.527 77.0887Z" fill="#EEEEEE"/>
<path d="M114.866 87.1452L113.786 92.1591C113.607 92.9927 114.14 93.8133 114.978 93.9919L119.369 94.9287C120.207 95.1074 121.031 94.5764 121.21 93.7428L122.289 88.7289C122.469 87.8953 121.935 87.0748 121.098 86.8961L116.707 85.9593C115.869 85.7807 115.045 86.3116 114.866 87.1452Z" fill="#EEEEEE"/>
<path d="M112.32 96.5028L111.234 101.503C111.054 102.335 111.584 103.155 112.42 103.334L116.8 104.277C117.635 104.457 118.458 103.929 118.639 103.097L119.725 98.0965C119.905 97.2651 119.375 96.4454 118.54 96.2656L114.16 95.3229C113.324 95.1431 112.501 95.6714 112.32 96.5028Z" fill="#EEEEEE"/>
<path d="M110.217 106.232L109.131 111.233C108.95 112.064 109.481 112.884 110.316 113.064L114.696 114.007C115.531 114.186 116.355 113.658 116.535 112.827L117.621 107.826C117.802 106.995 117.271 106.175 116.436 105.995L112.056 105.052C111.221 104.873 110.397 105.401 110.217 106.232Z" fill="#EEEEEE"/>
<path d="M108.099 115.916L107.012 120.917C106.832 121.748 107.363 122.568 108.198 122.748L112.578 123.691C113.413 123.87 114.236 123.342 114.417 122.511L115.503 117.51C115.683 116.679 115.153 115.859 114.318 115.679L109.938 114.736C109.102 114.557 108.279 115.085 108.099 115.916Z" fill="#EEEEEE"/>
<path d="M105.995 125.631L104.909 130.631C104.729 131.463 105.259 132.282 106.094 132.462L110.474 133.405C111.31 133.585 112.133 133.056 112.313 132.225L113.399 127.224C113.58 126.393 113.049 125.573 112.214 125.394L107.834 124.451C106.999 124.271 106.176 124.799 105.995 125.631Z" fill="#EEEEEE"/>
<path d="M103.896 135.343L102.802 140.378C102.624 141.2 103.148 142.01 103.974 142.188L108.389 143.138C109.214 143.316 110.028 142.794 110.206 141.972L111.3 136.937C111.478 136.115 110.954 135.304 110.128 135.127L105.714 134.177C104.888 133.999 104.074 134.521 103.896 135.343Z" fill="#EEEEEE"/>
<path d="M101.777 145.027L100.684 150.063C100.505 150.885 101.03 151.695 101.855 151.873L106.27 152.823C107.096 153 107.909 152.478 108.088 151.656L109.181 146.621C109.36 145.799 108.835 144.989 108.01 144.811L103.595 143.861C102.77 143.683 101.956 144.206 101.777 145.027Z" fill="#EEEEEE"/>
<path d="M107.086 156.36L106.783 157.759L106.001 161.388C105.915 161.775 105.682 162.113 105.35 162.331C105.018 162.549 104.614 162.63 104.223 162.556L99.8304 161.618C99.4442 161.529 99.1071 161.296 98.8887 160.966C98.6703 160.637 98.5873 160.236 98.6568 159.848L99.0302 158.078L99.7415 154.749C99.831 154.366 100.066 154.032 100.398 153.817C100.729 153.603 101.131 153.524 101.52 153.599L105.912 154.537C106.11 154.579 106.298 154.659 106.464 154.774C106.63 154.889 106.772 155.035 106.881 155.205C106.991 155.374 107.065 155.564 107.1 155.762C107.135 155.96 107.13 156.164 107.086 156.36Z" fill="#EEEEEE"/>
<path d="M104.976 166.083L103.873 171.111C103.788 171.498 103.554 171.836 103.222 172.054C102.89 172.272 102.486 172.353 102.095 172.28L97.6848 171.324C97.2963 171.238 96.9564 171.006 96.7373 170.675C96.5182 170.345 96.4371 169.942 96.5111 169.553L97.6136 164.526C97.6992 164.139 97.9327 163.801 98.2647 163.582C98.5967 163.364 99.001 163.283 99.3919 163.357L103.802 164.295C104.192 164.385 104.532 164.621 104.751 164.954C104.97 165.287 105.05 165.692 104.976 166.083Z" fill="#EEEEEE"/>
<path d="M195.79 33.1818L194.706 38.2094C194.616 38.5939 194.382 38.9295 194.051 39.1469C193.72 39.3644 193.318 39.447 192.927 39.3778L188.784 38.4927H188.535C188.147 38.4075 187.807 38.175 187.588 37.8445C187.369 37.514 187.287 37.1115 187.361 36.7224L188.446 31.6947C188.536 31.3102 188.77 30.9746 189.101 30.7571C189.432 30.5397 189.834 30.4571 190.224 30.5263H190.527L194.617 31.4114C195.005 31.4966 195.345 31.7291 195.564 32.0596C195.783 32.3902 195.864 32.7927 195.79 33.1818Z" fill="#EEEEEE"/>
<path d="M193.672 42.8924L192.587 47.9024C192.506 48.2914 192.273 48.6327 191.94 48.8516C191.607 49.0705 191.2 49.1493 190.809 49.0708L186.399 48.1325C186.013 48.0434 185.675 47.81 185.457 47.4806C185.239 47.1512 185.156 46.7508 185.225 46.3622L186.31 41.3523C186.395 40.9655 186.629 40.6272 186.961 40.409C187.293 40.1909 187.697 40.1101 188.088 40.1839H188.319L192.48 41.069C192.681 41.1067 192.872 41.1844 193.042 41.2975C193.211 41.4107 193.356 41.5568 193.468 41.7273C193.579 41.8977 193.654 42.0888 193.689 42.289C193.725 42.4893 193.719 42.6945 193.672 42.8924Z" fill="#EEEEEE"/>
<path d="M191.571 52.5972L190.486 57.6249C190.393 58.0072 190.157 58.3402 189.827 58.5569C189.498 58.7736 189.098 58.8581 188.708 58.7933L184.315 57.8373C183.924 57.7561 183.579 57.5252 183.357 57.1943C183.134 56.8633 183.05 56.4586 183.124 56.067L184.226 51.0394C184.308 50.6503 184.541 50.3091 184.874 50.0902C185.207 49.8713 185.613 49.7925 186.005 49.8709L190.415 50.8269C190.8 50.916 191.136 51.1501 191.351 51.4802C191.567 51.8103 191.645 52.2106 191.571 52.5972Z" fill="#EEEEEE"/>
<path d="M189.462 62.3194L188.378 67.3293C188.292 67.7161 188.059 68.0544 187.727 68.2726C187.395 68.4907 186.99 68.5715 186.599 68.4978L182.207 67.5595C181.821 67.4703 181.484 67.2369 181.265 66.9075C181.047 66.5781 180.964 66.1778 181.033 65.7892L182.118 60.7792C182.179 60.495 182.32 60.2339 182.525 60.0269C182.729 59.8198 182.989 59.6754 183.274 59.6108C183.496 59.5575 183.728 59.5575 183.95 59.6108L188.342 60.5491C188.721 60.6457 189.048 60.8831 189.256 61.2123C189.464 61.5415 189.538 61.9377 189.462 62.3194Z" fill="#EEEEEE"/>
<path d="M187.367 72.0234L186.265 77.0511C186.179 77.4379 185.946 77.7762 185.614 77.9943C185.282 78.2125 184.878 78.2933 184.487 78.2195L180.077 77.2635C179.688 77.1784 179.348 76.9459 179.129 76.6153C178.91 76.2848 178.829 75.8823 178.903 75.4932L180.005 70.4655C180.091 70.0788 180.325 69.7405 180.657 69.5223C180.989 69.3042 181.393 69.2234 181.784 69.2971L186.194 70.2531C186.582 70.3383 186.922 70.5708 187.141 70.9013C187.36 71.2318 187.442 71.6343 187.367 72.0234Z" fill="#EEEEEE"/>
<path d="M185.334 81.7177L184.249 86.7454C184.163 87.1322 183.93 87.4705 183.598 87.6886C183.266 87.9068 182.861 87.9876 182.471 87.9138L178.078 86.9756C177.69 86.8904 177.35 86.6579 177.131 86.3274C176.912 85.9968 176.831 85.5943 176.905 85.2052L177.989 80.1776C178.079 79.7941 178.314 79.46 178.646 79.2455C178.977 79.0309 179.379 78.9526 179.768 79.0269L184.16 79.9651C184.545 80.0504 184.882 80.2802 185.1 80.6067C185.319 80.9333 185.403 81.3313 185.334 81.7177Z" fill="#EEEEEE"/>
<path d="M183.128 91.437L182.043 96.447C181.961 96.837 181.73 97.1796 181.397 97.4014C181.065 97.6231 180.658 97.7063 180.265 97.6331L175.855 96.6771C175.466 96.5919 175.126 96.3594 174.907 96.0289C174.688 95.6984 174.607 95.2959 174.681 94.9068L175.766 89.8791C175.851 89.4924 176.085 89.154 176.417 88.9359C176.749 88.7177 177.153 88.637 177.544 88.7107L181.936 89.649C182.133 89.687 182.321 89.7636 182.488 89.8744C182.654 89.9852 182.797 90.128 182.908 90.2944C183.019 90.4608 183.096 90.6476 183.133 90.8437C183.171 91.0399 183.169 91.2416 183.128 91.437Z" fill="#EEEEEE"/>
<path d="M181.025 101.146L179.994 106.191C179.9 106.573 179.665 106.906 179.335 107.123C179.005 107.34 178.605 107.424 178.215 107.36L173.823 106.421C173.436 106.332 173.097 106.099 172.876 105.771C172.655 105.442 172.567 105.041 172.632 104.651L173.734 99.6233C173.82 99.2365 174.053 98.8982 174.385 98.68C174.717 98.4619 175.122 98.3811 175.513 98.4549L179.923 99.4108C180.291 99.511 180.608 99.7444 180.812 100.065C181.016 100.386 181.092 100.772 181.025 101.146Z" fill="#EEEEEE"/>
<path d="M178.918 110.863L177.834 115.873C177.748 116.26 177.514 116.598 177.182 116.816C176.85 117.035 176.446 117.115 176.055 117.042L171.663 116.103C171.275 116.018 170.935 115.786 170.716 115.455C170.496 115.125 170.415 114.722 170.489 114.333L171.574 109.323C171.66 108.936 171.893 108.598 172.225 108.38C172.557 108.162 172.962 108.081 173.352 108.155L177.745 109.093C178.133 109.178 178.473 109.411 178.692 109.741C178.911 110.072 178.992 110.474 178.918 110.863Z" fill="#EEEEEE"/>
<path d="M176.821 120.565L175.718 125.593C175.633 125.98 175.399 126.318 175.067 126.536C174.735 126.754 174.331 126.835 173.94 126.762L169.53 125.806C169.141 125.72 168.801 125.488 168.582 125.157C168.363 124.827 168.282 124.424 168.356 124.035L169.459 119.008C169.544 118.621 169.778 118.282 170.11 118.064C170.442 117.846 170.846 117.765 171.237 117.839L175.647 118.795C176.035 118.88 176.375 119.113 176.594 119.443C176.814 119.774 176.895 120.176 176.821 120.565Z" fill="#EEEEEE"/>
<path d="M167.277 128.636L166.187 133.672C166.009 134.494 166.535 135.304 167.36 135.481L171.776 136.429C172.601 136.606 173.415 136.083 173.593 135.261L174.683 130.225C174.861 129.403 174.336 128.593 173.51 128.416L169.094 127.469C168.269 127.292 167.455 127.814 167.277 128.636Z" fill="#EEEEEE"/>
<path d="M172.581 139.979L171.496 145.007C171.411 145.393 171.177 145.732 170.845 145.95C170.513 146.168 170.109 146.249 169.718 146.175L165.308 145.219C164.919 145.134 164.579 144.901 164.36 144.571C164.141 144.24 164.06 143.838 164.134 143.449L165.219 138.421C165.304 138.034 165.538 137.696 165.87 137.478C166.202 137.26 166.606 137.179 166.997 137.253L171.389 138.209C171.586 138.245 171.773 138.319 171.939 138.428C172.106 138.537 172.249 138.679 172.36 138.844C172.471 139.009 172.548 139.194 172.586 139.389C172.624 139.584 172.622 139.785 172.581 139.979Z" fill="#EEEEEE"/>
<path d="M170.489 149.691L169.405 154.718C169.315 155.103 169.081 155.439 168.75 155.656C168.419 155.873 168.017 155.956 167.626 155.887L163.234 154.949C162.844 154.863 162.503 154.631 162.281 154.302C162.059 153.972 161.974 153.569 162.043 153.178L163.145 148.151C163.231 147.764 163.464 147.426 163.796 147.207C164.128 146.989 164.533 146.908 164.923 146.982L169.333 147.938C169.715 148.027 170.048 148.259 170.263 148.585C170.478 148.911 170.559 149.307 170.489 149.691Z" fill="#EEEEEE"/>
<path d="M168.371 159.405L167.287 164.415C167.201 164.803 166.968 165.143 166.637 165.364C166.306 165.585 165.901 165.67 165.508 165.601L161.116 164.645C160.728 164.56 160.388 164.328 160.169 163.997C159.95 163.667 159.868 163.264 159.943 162.875L161.027 157.865C161.113 157.478 161.346 157.14 161.678 156.922C162.01 156.704 162.415 156.623 162.806 156.697L167.198 157.635C167.586 157.72 167.926 157.952 168.145 158.283C168.364 158.614 168.446 159.016 168.371 159.405Z" fill="#EEEEEE"/>
<path d="M166.274 169.107L165.171 174.135C165.086 174.522 164.852 174.86 164.52 175.078C164.188 175.296 163.784 175.377 163.393 175.304L158.983 174.348C158.594 174.262 158.255 174.03 158.035 173.699C157.816 173.369 157.735 172.966 157.809 172.577L158.912 167.55C158.997 167.163 159.231 166.824 159.563 166.606C159.895 166.388 160.299 166.307 160.69 166.381L165.1 167.337C165.489 167.422 165.828 167.655 166.047 167.985C166.267 168.316 166.348 168.718 166.274 169.107Z" fill="#EEEEEE"/>
<path d="M164.152 178.763L163.068 183.773C162.982 184.16 162.749 184.498 162.417 184.716C162.085 184.934 161.68 185.015 161.289 184.941L156.879 184.074C156.491 183.989 156.151 183.756 155.932 183.426C155.713 183.095 155.632 182.693 155.706 182.304L156.79 177.294C156.876 176.907 157.11 176.569 157.442 176.35C157.774 176.132 158.178 176.052 158.569 176.125L162.961 177.064C163.336 177.148 163.666 177.37 163.887 177.684C164.107 177.998 164.202 178.383 164.152 178.763Z" fill="#EEEEEE"/>
<path d="M104.976 166.083L103.873 171.111C103.788 171.498 103.554 171.836 103.222 172.054C102.89 172.272 102.486 172.353 102.095 172.28L97.6848 171.324C97.2963 171.238 96.9564 171.006 96.7373 170.675C96.5182 170.345 96.4371 169.942 96.5111 169.553L97.6136 164.526C97.6992 164.139 97.9327 163.801 98.2647 163.582C98.5967 163.364 99.001 163.283 99.3919 163.357L103.802 164.295C104.192 164.385 104.532 164.621 104.751 164.954C104.97 165.287 105.05 165.692 104.976 166.083Z" fill="#CCCCCC"/>
<path d="M106.768 157.763L105.986 161.392C105.9 161.779 105.667 162.117 105.335 162.335C105.003 162.553 104.598 162.634 104.208 162.56L99.8153 161.622C99.4291 161.533 99.0919 161.299 98.8735 160.97C98.6552 160.641 98.5721 160.24 98.6416 159.852L99.0151 158.081C101.604 158.216 104.199 158.109 106.768 157.763Z" fill="#CCCCCC"/>
<path d="M162.717 140.084L155.107 175.118C154.984 175.678 154.752 176.207 154.424 176.677C154.096 177.147 153.678 177.549 153.194 177.858C152.71 178.167 152.17 178.378 151.604 178.479C151.038 178.58 150.458 178.569 149.896 178.446L110.775 170.02C109.639 169.774 108.648 169.09 108.018 168.117C107.388 167.145 107.171 165.964 107.414 164.833L109.032 157.397C119.132 155.627 133.412 149.59 147.958 132.436L159.428 134.915C160.551 135.168 161.528 135.854 162.144 136.823C162.761 137.792 162.967 138.964 162.717 140.084Z" fill="#CCCCCC"/>
<path d="M164.152 178.763L163.068 183.773C162.982 184.16 162.749 184.498 162.417 184.716C162.085 184.934 161.68 185.015 161.289 184.941L156.879 184.074C156.491 183.989 156.151 183.756 155.932 183.426C155.713 183.095 155.632 182.693 155.706 182.304L156.79 177.294C156.876 176.907 157.11 176.569 157.442 176.35C157.774 176.132 158.178 176.052 158.569 176.125L162.961 177.064C163.336 177.148 163.666 177.37 163.887 177.684C164.107 177.998 164.202 178.383 164.152 178.763Z" fill="#CCCCCC"/>
<path d="M166.274 169.107L165.171 174.135C165.086 174.522 164.852 174.86 164.52 175.078C164.188 175.296 163.784 175.377 163.393 175.304L158.983 174.348C158.594 174.262 158.255 174.03 158.035 173.699C157.816 173.369 157.735 172.966 157.809 172.577L158.912 167.55C158.997 167.163 159.231 166.824 159.563 166.606C159.895 166.388 160.299 166.307 160.69 166.381L165.1 167.337C165.489 167.422 165.828 167.655 166.047 167.985C166.267 168.316 166.348 168.718 166.274 169.107Z" fill="#CCCCCC"/>
<path d="M168.371 159.405L167.287 164.415C167.201 164.803 166.968 165.143 166.637 165.364C166.306 165.585 165.901 165.67 165.508 165.601L161.116 164.645C160.728 164.56 160.388 164.328 160.169 163.997C159.95 163.667 159.868 163.264 159.943 162.875L161.027 157.865C161.113 157.478 161.346 157.14 161.678 156.922C162.01 156.704 162.415 156.623 162.806 156.697L167.198 157.635C167.586 157.72 167.926 157.952 168.145 158.283C168.364 158.614 168.446 159.016 168.371 159.405Z" fill="#CCCCCC"/>
<path d="M170.489 149.691L169.405 154.718C169.315 155.103 169.081 155.439 168.75 155.656C168.419 155.873 168.017 155.956 167.626 155.887L163.234 154.949C162.844 154.863 162.503 154.631 162.281 154.302C162.059 153.972 161.974 153.569 162.043 153.178L163.145 148.151C163.231 147.764 163.464 147.426 163.796 147.207C164.128 146.989 164.533 146.908 164.923 146.982L169.333 147.938C169.715 148.027 170.048 148.259 170.263 148.585C170.478 148.911 170.559 149.307 170.489 149.691Z" fill="#CCCCCC"/>
<path d="M172.581 139.979L171.496 145.007C171.411 145.393 171.177 145.732 170.845 145.95C170.513 146.168 170.109 146.249 169.718 146.175L165.308 145.219C164.919 145.134 164.579 144.901 164.36 144.571C164.141 144.24 164.06 143.838 164.134 143.449L165.219 138.421C165.304 138.034 165.538 137.696 165.87 137.478C166.202 137.26 166.606 137.179 166.997 137.253L171.389 138.209C171.586 138.245 171.773 138.319 171.939 138.428C172.106 138.537 172.249 138.679 172.36 138.844C172.471 139.009 172.548 139.194 172.586 139.389C172.624 139.584 172.622 139.785 172.581 139.979Z" fill="#CCCCCC"/>
<path d="M160.994 127.428L153.17 125.658C161.613 113.693 168.541 100.736 173.798 87.0825C173.94 87.706 173.94 88.3533 173.798 88.9768L166.187 123.994C166.074 124.559 165.85 125.098 165.528 125.577C165.206 126.056 164.791 126.468 164.309 126.787C163.826 127.106 163.285 127.327 162.716 127.437C162.147 127.547 161.562 127.544 160.994 127.428Z" fill="#CCCCCC"/>
<path d="M167.277 128.636L166.187 133.672C166.009 134.494 166.535 135.304 167.36 135.481L171.776 136.429C172.601 136.606 173.415 136.083 173.593 135.261L174.683 130.225C174.861 129.403 174.336 128.593 173.51 128.416L169.094 127.469C168.269 127.292 167.455 127.814 167.277 128.636Z" fill="#CCCCCC"/>
<path d="M176.821 120.565L175.718 125.593C175.633 125.98 175.399 126.318 175.067 126.536C174.735 126.754 174.331 126.835 173.94 126.762L169.53 125.806C169.141 125.72 168.801 125.488 168.582 125.157C168.363 124.827 168.282 124.424 168.356 124.035L169.459 119.008C169.544 118.621 169.778 118.282 170.11 118.064C170.442 117.846 170.846 117.765 171.237 117.839L175.647 118.795C176.035 118.88 176.375 119.113 176.594 119.443C176.814 119.774 176.895 120.176 176.821 120.565Z" fill="#CCCCCC"/>
<path d="M178.918 110.863L177.834 115.873C177.748 116.26 177.514 116.598 177.182 116.816C176.85 117.035 176.446 117.115 176.055 117.042L171.663 116.103C171.275 116.018 170.935 115.786 170.716 115.455C170.496 115.125 170.415 114.722 170.489 114.333L171.574 109.323C171.66 108.936 171.893 108.598 172.225 108.38C172.557 108.162 172.962 108.081 173.352 108.155L177.745 109.093C178.133 109.178 178.473 109.411 178.692 109.741C178.911 110.072 178.992 110.474 178.918 110.863Z" fill="#CCCCCC"/>
<path d="M181.025 101.146L179.994 106.191C179.9 106.573 179.665 106.906 179.335 107.123C179.005 107.34 178.605 107.424 178.215 107.36L173.823 106.421C173.436 106.332 173.097 106.099 172.876 105.771C172.655 105.442 172.567 105.041 172.632 104.651L173.734 99.6233C173.82 99.2365 174.053 98.8982 174.385 98.68C174.717 98.4619 175.122 98.3811 175.513 98.4549L179.923 99.4108C180.291 99.511 180.608 99.7444 180.812 100.065C181.016 100.386 181.092 100.772 181.025 101.146Z" fill="#CCCCCC"/>
<path d="M183.128 91.437L182.043 96.447C181.961 96.837 181.73 97.1796 181.397 97.4014C181.065 97.6231 180.658 97.7063 180.265 97.6331L175.855 96.6771C175.466 96.5919 175.126 96.3594 174.907 96.0289C174.688 95.6984 174.607 95.2959 174.681 94.9068L175.766 89.8791C175.851 89.4924 176.085 89.154 176.417 88.9359C176.749 88.7177 177.153 88.637 177.544 88.7107L181.936 89.649C182.133 89.687 182.321 89.7636 182.488 89.8744C182.654 89.9852 182.797 90.128 182.908 90.2944C183.019 90.4608 183.096 90.6476 183.133 90.8437C183.171 91.0399 183.169 91.2416 183.128 91.437Z" fill="#CCCCCC"/>
<path d="M185.334 81.7177L184.249 86.7454C184.163 87.1322 183.93 87.4705 183.598 87.6886C183.266 87.9068 182.861 87.9876 182.471 87.9138L178.078 86.9756C177.69 86.8904 177.35 86.6579 177.131 86.3274C176.912 85.9968 176.831 85.5943 176.905 85.2052L177.989 80.1776C178.079 79.7941 178.314 79.46 178.646 79.2455C178.977 79.0309 179.379 78.9526 179.768 79.0269L184.16 79.9651C184.545 80.0504 184.882 80.2802 185.1 80.6067C185.319 80.9333 185.403 81.3313 185.334 81.7177Z" fill="#CCCCCC"/>
<path d="M187.367 72.0234L186.265 77.0511C186.179 77.4379 185.946 77.7762 185.614 77.9943C185.282 78.2125 184.878 78.2933 184.487 78.2195L180.077 77.2635C179.688 77.1784 179.348 76.9459 179.129 76.6153C178.91 76.2848 178.829 75.8823 178.903 75.4932L180.005 70.4655C180.091 70.0788 180.325 69.7405 180.657 69.5223C180.989 69.3042 181.393 69.2234 181.784 69.2971L186.194 70.2531C186.582 70.3383 186.922 70.5708 187.141 70.9013C187.36 71.2318 187.442 71.6343 187.367 72.0234Z" fill="#CCCCCC"/>
<path d="M189.455 62.325L188.37 67.3349C188.284 67.7217 188.051 68.06 187.719 68.2782C187.387 68.4963 186.983 68.5771 186.592 68.5034L182.199 67.5651C181.958 67.5155 181.732 67.4071 181.543 67.2495C181.354 67.092 181.207 66.8902 181.115 66.6623C181.844 64.3609 182.555 61.9886 183.266 59.581C183.488 59.5277 183.72 59.5277 183.942 59.581L188.334 60.5193C188.721 60.6159 189.054 60.8586 189.263 61.1957C189.472 61.5329 189.541 61.938 189.455 62.325Z" fill="#CCCCCC"/>
<path d="M191.572 52.603L190.488 57.6307C190.394 58.013 190.159 58.3459 189.829 58.5627C189.499 58.7794 189.099 58.8639 188.709 58.7991L184.317 57.8431C184.141 57.8078 183.972 57.7419 183.819 57.6483C184.548 55.1168 185.259 52.5145 185.971 49.8413L190.381 50.7972C190.579 50.8373 190.766 50.9159 190.933 51.0285C191.1 51.1411 191.243 51.2854 191.354 51.4533C191.465 51.6211 191.541 51.8091 191.579 52.0064C191.616 52.2038 191.614 52.4065 191.572 52.603Z" fill="#CCCCCC"/>
<path d="M193.676 42.8956L192.591 47.9055C192.51 48.2946 192.277 48.6358 191.944 48.8547C191.611 49.0736 191.204 49.1524 190.813 49.074L186.403 48.1357C187.061 45.551 187.719 42.8248 188.377 40.187L192.538 41.0722C192.734 41.1159 192.919 41.198 193.083 41.3138C193.246 41.4295 193.385 41.5766 193.491 41.7463C193.597 41.916 193.668 42.1051 193.7 42.3024C193.732 42.4998 193.723 42.7014 193.676 42.8956Z" fill="#CCCCCC"/>
<path d="M195.783 33.1787L194.699 38.2064C194.609 38.5909 194.375 38.9265 194.044 39.1439C193.713 39.3613 193.311 39.444 192.92 39.3748L188.777 38.4896C189.382 35.8873 189.986 33.1787 190.555 30.4878L194.645 31.3729C195.035 31.4657 195.372 31.7068 195.585 32.0444C195.798 32.3821 195.869 32.7893 195.783 33.1787Z" fill="#CCCCCC"/>
</g>
<defs>
<clipPath id="clip0_4451_13665">
<rect width="200" height="200" fill="white"/>
</clipPath>
</defs>
</svg>
