<svg width="14" height="14" viewBox="0 0 14 14" fill="none" xmlns="http://www.w3.org/2000/svg">
<path d="M11.42 1.11873L12.8815 2.5825C13.0986 2.80263 13.2199 3.09977 13.2187 3.409C13.2175 3.71824 13.0941 4.01445 12.8752 4.23295H12.8815L11.8213 5.29306C11.7663 5.34802 11.6918 5.37887 11.6141 5.37887C11.5363 5.37887 11.4618 5.34802 11.4068 5.29306L8.70712 2.59339C8.65217 2.53841 8.62129 2.46384 8.62129 2.3861C8.62129 2.30837 8.65217 2.23383 8.70712 2.17884L9.76721 1.11873C9.98682 0.900389 10.2839 0.777832 10.5936 0.777832C10.9033 0.777832 11.2004 0.900389 11.42 1.11873Z" fill="#919191"/>
<path d="M8.04636 3.25105L10.746 5.95072C10.7999 6.00592 10.8299 6.08015 10.8295 6.15732C10.829 6.23449 10.7982 6.30836 10.7437 6.36294L4.20332 12.9041L1.42433 13.2152C1.34828 13.2237 1.27131 13.2172 1.19779 13.196C1.12426 13.1748 1.05565 13.1393 0.995845 13.0915C0.93604 13.0438 0.886226 12.9847 0.849252 12.9177C0.812277 12.8507 0.788835 12.7771 0.780323 12.7011C0.775049 12.6579 0.775049 12.6143 0.780323 12.5712L1.09145 9.79216L7.63254 3.25105C7.6875 3.19634 7.76188 3.16562 7.83943 3.16562C7.91697 3.16562 7.9914 3.19634 8.04636 3.25105Z" fill="#919191"/>
</svg>
