<svg width="18" height="18" viewBox="0 0 18 18" fill="none" xmlns="http://www.w3.org/2000/svg">
<g clip-path="url(#clip0_3352_15424)">
<path d="M0.900391 8.9999C0.900391 6.85165 1.75378 4.79138 3.27283 3.27234C4.79187 1.75329 6.85214 0.899902 9.00039 0.899902C11.1486 0.899902 13.2089 1.75329 14.728 3.27234C16.247 4.79138 17.1004 6.85165 17.1004 8.9999C17.1004 11.1482 16.247 13.2084 14.728 14.7275C13.2089 16.2465 11.1486 17.0999 9.00039 17.0999C6.85214 17.0999 4.79187 16.2465 3.27283 14.7275C1.75378 13.2084 0.900391 11.1482 0.900391 8.9999ZM7.33926 5.97506C7.16207 6.27248 6.83934 6.46865 6.46914 6.46865C5.9091 6.46865 5.45664 6.01619 5.45664 5.45615C5.45664 5.16822 5.57688 4.90561 5.77305 4.72209C5.66863 4.70627 5.56422 4.69678 5.45664 4.69678C4.33973 4.69678 3.43164 5.60486 3.43164 6.72178V7.04768C3.43164 7.56658 3.85246 7.9874 4.37137 7.9874H6.54191C7.06082 7.9874 7.48164 7.56658 7.48164 7.04768V6.72178C7.48164 6.45916 7.43102 6.20604 7.33926 5.97506ZM13.0504 6.46865C12.4904 6.46865 12.0379 6.01619 12.0379 5.45615C12.0379 5.18721 12.1423 4.94041 12.3163 4.76006C12.1455 4.71893 11.9683 4.69678 11.7848 4.69678C10.5255 4.69678 9.50664 5.71561 9.50664 6.9749V7.21221C9.50664 7.63936 9.85469 7.9874 10.2818 7.9874H13.2909C13.718 7.9874 14.0661 7.63936 14.0661 7.21221V6.9749C14.0661 6.64584 13.9964 6.33576 13.873 6.05416C13.6895 6.30729 13.3921 6.46865 13.0536 6.46865H13.0504ZM8.66816 15.0686C8.75359 15.0717 8.83902 15.0749 8.92445 15.0749H9.07949C10.8229 15.0749 12.4049 14.2491 13.4143 12.9392C13.911 12.2905 14.2686 11.528 14.4394 10.6832C14.509 10.3351 14.2432 10.0124 13.8889 10.0124H4.11508C3.7607 10.0124 3.49492 10.3351 3.56453 10.6832C4.05813 13.1543 6.17172 14.9547 8.665 15.0686H8.66816ZM8.49731 14.0403C8.54477 12.6449 9.69332 11.528 11.0982 11.528C11.7278 11.528 12.3037 11.7495 12.753 12.1197C11.943 13.3062 10.5856 14.0624 9.07633 14.0624H8.92129C8.77574 14.0624 8.63336 14.0561 8.49414 14.0434L8.49731 14.0403Z" fill="#919191"/>
</g>
<defs>
<clipPath id="clip0_3352_15424">
<rect width="18" height="18" fill="white"/>
</clipPath>
</defs>
</svg>
