<svg width="14" height="14" viewBox="0 0 14 14" fill="none" xmlns="http://www.w3.org/2000/svg">
<path d="M13.2669 5.46043C13.2289 5.33252 13.1539 5.21871 13.0514 5.13335C12.9489 5.04798 12.8234 4.99489 12.6907 4.98076L9.05396 4.63592L7.61651 1.12419C7.56883 0.999459 7.48442 0.892145 7.37444 0.816438C7.26446 0.74073 7.13408 0.700195 7.00056 0.700195C6.86705 0.700195 6.73667 0.74073 6.62669 0.816438C6.5167 0.892145 6.43229 0.999459 6.38462 1.12419L4.94716 4.63592L1.30969 4.98076C1.17709 4.99508 1.05167 5.04824 0.949174 5.13357C0.846673 5.21891 0.771655 5.33262 0.733532 5.46043C0.692656 5.59004 0.6893 5.72857 0.723851 5.86001C0.758403 5.99144 0.829451 6.11041 0.928778 6.20316L3.67843 8.71944L2.86798 12.4456C2.83823 12.5781 2.8469 12.7164 2.89297 12.8442C2.93904 12.9719 3.02059 13.0839 3.12806 13.1669C3.2327 13.2472 3.35941 13.2935 3.49113 13.2995C3.62285 13.3056 3.75327 13.2711 3.86484 13.2008L7.00056 11.2438L10.1363 13.2008C10.2479 13.271 10.3783 13.3054 10.51 13.2994C10.6417 13.2933 10.7684 13.2471 10.8731 13.1669C10.9805 13.0839 11.0621 12.9719 11.1082 12.8442C11.1542 12.7164 11.1629 12.5781 11.1332 12.4456L10.3227 8.71944L13.0716 6.20316C13.1709 6.11041 13.242 5.99144 13.2765 5.86001C13.3111 5.72857 13.3077 5.59004 13.2669 5.46043Z" fill="#CCCCCC"/>
</svg>
