<svg width="30" height="30" viewBox="0 0 30 30" fill="none" xmlns="http://www.w3.org/2000/svg">
<path d="M25.1889 4.8081C23.883 3.476 22.3246 2.41773 20.6048 1.69519C18.885 0.972647 17.0383 0.600356 15.1729 0.600098H14.9009C13.0268 0.599455 11.1714 0.972711 9.44327 1.69801C7.71519 2.42331 6.14917 3.48608 4.8369 4.8241C2.13889 7.53834 0.617022 11.2051 0.600098 15.0321C0.60809 18.2767 1.71331 21.4232 3.7361 23.9601L1.6401 27.9121V27.9281C1.5633 28.1176 1.56196 28.3293 1.63634 28.5197C1.71073 28.7101 1.8552 28.8648 2.0401 28.9521C2.1409 28.9963 2.25006 29.0181 2.3601 29.0161C2.40865 29.0187 2.4573 29.0133 2.5041 29.0001L10.1841 28.5681C11.7012 29.123 13.3047 29.4047 14.9201 29.4001H15.1121C16.9826 29.4021 18.8347 29.031 20.5601 28.3085C22.2854 27.5859 23.8492 26.5265 25.1601 25.1921C27.854 22.4749 29.3762 18.8103 29.4001 14.9841V14.9681C29.3875 11.1599 27.8758 7.50993 25.1921 4.8081M7.0001 14.4561C7.0001 14.2439 7.08438 14.0404 7.23441 13.8904C7.38444 13.7404 7.58792 13.6561 7.8001 13.6561H15.8001C16.0123 13.6561 16.2158 13.7404 16.3658 13.8904C16.5158 14.0404 16.6001 14.2439 16.6001 14.4561V16.0561C16.6001 16.2683 16.5158 16.4718 16.3658 16.6218C16.2158 16.7718 16.0123 16.8561 15.8001 16.8561H7.8001C7.58792 16.8561 7.38444 16.7718 7.23441 16.6218C7.08438 16.4718 7.0001 16.2683 7.0001 16.0561V14.4561ZM23.0001 20.8561C23.0001 21.0683 22.9158 21.2718 22.7658 21.4218C22.6158 21.5718 22.4123 21.6561 22.2001 21.6561H7.8001C7.58792 21.6561 7.38444 21.5718 7.23441 21.4218C7.08438 21.2718 7.0001 21.0683 7.0001 20.8561V19.2561C7.0001 19.0439 7.08438 18.8404 7.23441 18.6904C7.38444 18.5404 7.58792 18.4561 7.8001 18.4561H22.2001C22.4123 18.4561 22.6158 18.5404 22.7658 18.6904C22.9158 18.8404 23.0001 19.0439 23.0001 19.2561V20.8561ZM23.0001 11.2561C23.0001 11.4683 22.9158 11.6718 22.7658 11.8218C22.6158 11.9718 22.4123 12.0561 22.2001 12.0561H7.8001C7.58792 12.0561 7.38444 11.9718 7.23441 11.8218C7.08438 11.6718 7.0001 11.4683 7.0001 11.2561V9.6561C7.0001 9.44392 7.08438 9.24044 7.23441 9.09041C7.38444 8.94038 7.58792 8.8561 7.8001 8.8561H22.2001C22.4123 8.8561 22.6158 8.94038 22.7658 9.09041C22.9158 9.24044 23.0001 9.44392 23.0001 9.6561V11.2561Z" fill="#AAAAAA"/>
</svg>
