<svg width="18" height="18" viewBox="0 0 18 18" fill="none" xmlns="http://www.w3.org/2000/svg">
<path d="M16.835 6.32825L17.0935 4.88172C17.1036 4.82567 17.1026 4.76818 17.0905 4.71254C17.0784 4.65689 17.0554 4.60419 17.0228 4.55744C16.9903 4.5107 16.9489 4.47083 16.9009 4.44013C16.853 4.40943 16.7994 4.3885 16.7434 4.37854C16.7178 4.37335 16.6917 4.37088 16.6657 4.37117H13.9621L14.4914 1.41019C14.5015 1.35415 14.5005 1.29666 14.4883 1.24101C14.4762 1.18537 14.4532 1.13266 14.4207 1.08592C14.3882 1.03917 14.3468 0.999308 14.2988 0.968608C14.2509 0.937907 14.1973 0.916975 14.1412 0.907011C14.1156 0.902137 14.0896 0.899944 14.0635 0.900466H12.5911C12.489 0.900686 12.3902 0.936895 12.3121 1.00273C12.234 1.06857 12.1816 1.15982 12.1641 1.26046L11.6078 4.37444H8.04617L8.57543 1.41346C8.58583 1.35743 8.58509 1.29989 8.57325 1.24414C8.5614 1.18839 8.53869 1.13552 8.5064 1.08856C8.47411 1.0416 8.43288 1.00147 8.38507 0.970455C8.33726 0.939443 8.28381 0.918162 8.22777 0.907829C8.20131 0.903104 8.17449 0.900641 8.1476 0.900466H6.67517C6.57285 0.900331 6.47378 0.936395 6.39549 1.00228C6.31719 1.06816 6.26472 1.15961 6.24734 1.26046L5.69109 4.37444H2.83619C2.73388 4.37431 2.63481 4.41037 2.55651 4.47626C2.47822 4.54214 2.42574 4.63359 2.40837 4.73444L2.14987 6.18098C2.13974 6.23702 2.14076 6.29451 2.15288 6.35016C2.165 6.4058 2.18799 6.45851 2.22051 6.50525C2.25304 6.552 2.29447 6.59186 2.34242 6.62256C2.39038 6.65326 2.44393 6.67419 2.49999 6.68416C2.52556 6.68935 2.55161 6.69182 2.5777 6.69152H5.28126L4.45506 11.3199H1.59198C1.48976 11.3198 1.39081 11.3559 1.31265 11.4218C1.23449 11.4877 1.18218 11.5792 1.16498 11.6799L0.907301 13.1191C0.897166 13.1752 0.898188 13.2327 0.91031 13.2883C0.922431 13.3439 0.945413 13.3966 0.977938 13.4434C1.01046 13.4901 1.05189 13.53 1.09985 13.5607C1.14781 13.5914 1.20135 13.6123 1.25741 13.6223C1.28299 13.6275 1.30903 13.63 1.33513 13.6297H4.04277L3.51352 16.5898C3.50338 16.6459 3.5044 16.7034 3.51652 16.759C3.52865 16.8146 3.55163 16.8674 3.58415 16.9141C3.61668 16.9608 3.65811 17.0007 3.70606 17.0314C3.75402 17.0621 3.80757 17.083 3.86363 17.093C3.8892 17.0982 3.91525 17.1007 3.94134 17.1004H5.41378C5.51591 17.1001 5.6147 17.0639 5.69279 16.9981C5.77088 16.9323 5.82328 16.841 5.84079 16.7404L6.39704 13.6264H9.95952L9.43026 16.5874C9.41986 16.6434 9.4206 16.7009 9.43244 16.7567C9.44429 16.8124 9.467 16.8653 9.49929 16.9123C9.53158 16.9592 9.57281 16.9994 9.62062 17.0304C9.66843 17.0614 9.72188 17.0827 9.77792 17.093C9.80491 17.0979 9.83229 17.1003 9.85972 17.1004H11.3322C11.4343 17.1003 11.5332 17.0642 11.6113 16.9983C11.6895 16.9324 11.7418 16.8411 11.7592 16.7404L12.3154 13.6264H15.1785C15.2807 13.6263 15.3795 13.5902 15.4577 13.5243C15.5358 13.4585 15.5882 13.3671 15.6055 13.2664L15.864 11.8199C15.8741 11.7638 15.8731 11.7063 15.861 11.6507C15.8489 11.595 15.8259 11.5423 15.7934 11.4956C15.7608 11.4488 15.7194 11.409 15.6714 11.3783C15.6235 11.3476 15.5699 11.3266 15.5139 11.3167C15.4883 11.3115 15.4623 11.309 15.4362 11.3093H12.722L13.5482 6.68089H16.4113C16.5136 6.68102 16.6126 6.64496 16.6909 6.57908C16.7692 6.51319 16.8217 6.42174 16.8391 6.32089L16.835 6.32825ZM10.3726 11.3142H6.80605L7.63225 6.6858H11.198L10.3726 11.3142Z" fill="#919191"/>
</svg>
