<svg width="18" height="18" viewBox="0 0 18 18" fill="none" xmlns="http://www.w3.org/2000/svg">
<path d="M9.0002 0.449951C7.30917 0.449951 5.65611 0.9514 4.25007 1.89089C2.84403 2.83037 1.74816 4.1657 1.10103 5.72801C0.4539 7.29031 0.284581 9.00943 0.614485 10.668C0.944388 12.3265 1.7587 13.85 2.95444 15.0457C4.15017 16.2414 5.67364 17.0558 7.33217 17.3857C8.99071 17.7156 10.7098 17.5462 12.2721 16.8991C13.8344 16.252 15.1698 15.1561 16.1093 13.7501C17.0487 12.344 17.5502 10.691 17.5502 8.99995C17.5502 6.73235 16.6494 4.55762 15.046 2.95419C13.4425 1.35075 11.2678 0.449951 9.0002 0.449951V0.449951ZM10.7802 13.7009C10.3402 13.8749 9.9892 14.0083 9.7272 14.1009C9.43263 14.1972 9.12404 14.2435 8.8142 14.2379C8.36595 14.2657 7.92326 14.1268 7.5712 13.8479C7.42856 13.7264 7.31486 13.5745 7.23839 13.4034C7.16192 13.2323 7.12462 13.0463 7.1292 12.8589C7.1296 12.6994 7.14062 12.54 7.1622 12.3819C7.1842 12.2199 7.2202 12.0369 7.2682 11.8329L7.8192 9.88695C7.8672 9.69995 7.9092 9.52295 7.9432 9.35795C7.97451 9.20726 7.99093 9.05385 7.9922 8.89995C8.00207 8.80763 7.99364 8.71427 7.96739 8.62521C7.94114 8.53615 7.89757 8.45315 7.8392 8.38095C7.66721 8.26193 7.45817 8.20869 7.2502 8.23095C7.10183 8.23146 6.95432 8.25335 6.8122 8.29595C6.6642 8.34195 6.5352 8.38295 6.4292 8.42295L6.5742 7.82295C6.9342 7.67695 7.27886 7.55262 7.6082 7.44995C7.90943 7.34909 8.22455 7.29578 8.5422 7.29195C8.984 7.26379 9.42052 7.40063 9.7672 7.67595C9.90823 7.80056 10.0199 7.95486 10.0943 8.12775C10.1686 8.30065 10.2038 8.48786 10.1972 8.67595C10.1972 8.76061 10.1872 8.90962 10.1672 9.12295C10.1502 9.3218 10.1134 9.51845 10.0572 9.70995L9.5092 11.6499C9.4642 11.8059 9.4242 11.9839 9.3882 12.1829C9.35831 12.3323 9.34059 12.4838 9.3352 12.6359C9.32344 12.7311 9.33286 12.8277 9.36276 12.9188C9.39267 13.0099 9.44233 13.0933 9.5082 13.1629C9.68761 13.2737 9.89829 13.3229 10.1082 13.3029C10.2616 13.2997 10.414 13.2762 10.5612 13.2329C10.6861 13.2012 10.8084 13.16 10.9272 13.1099L10.7802 13.7009ZM10.6802 5.82695C10.431 6.06187 10.0996 6.18969 9.7572 6.18295C9.414 6.1891 9.08189 6.06142 8.8312 5.82695C8.70963 5.71875 8.6127 5.58571 8.54697 5.43683C8.48124 5.28794 8.44824 5.12669 8.4502 4.96395C8.44915 4.80044 8.48305 4.63859 8.54962 4.48924C8.61619 4.33989 8.71389 4.20648 8.8362 4.09795C9.08574 3.8612 9.41827 3.73192 9.7622 3.73795C10.1053 3.73141 10.4371 3.86082 10.6852 4.09795C10.806 4.20726 10.9025 4.34066 10.9686 4.48956C11.0346 4.63846 11.0688 4.79955 11.0688 4.96245C11.0688 5.12535 11.0346 5.28644 10.9686 5.43534C10.9025 5.58423 10.806 5.71764 10.6852 5.82695H10.6802Z" fill="#919191"/>
</svg>
