<svg width="30" height="30" viewBox="0 0 30 30" fill="none" xmlns="http://www.w3.org/2000/svg">
<path d="M18.9754 11.0265C20.5762 12.6255 21.4774 14.7941 21.4812 17.0566C21.485 19.3191 20.5912 21.4907 18.9958 23.0951L18.9754 23.1154L15.1961 26.896C13.5927 28.4994 11.4179 29.4001 9.15025 29.4001C6.88261 29.4001 4.70784 28.4994 3.10438 26.896C1.50091 25.2927 0.600098 23.1182 0.600098 20.8507C0.600098 18.5833 1.50091 16.4088 3.10438 14.8054L5.19138 12.7186C5.31478 12.5952 5.47143 12.5104 5.64222 12.4744C5.81301 12.4385 5.99057 12.453 6.15326 12.5162C6.31595 12.5794 6.45674 12.6885 6.55846 12.8304C6.66018 12.9722 6.71844 13.1405 6.72614 13.3149C6.76236 14.3248 6.94613 15.324 7.27161 16.2808C7.32726 16.441 7.33676 16.6136 7.29902 16.7789C7.26128 16.9442 7.17782 17.0956 7.05817 17.2158L6.32128 17.9526C5.92261 18.3214 5.60218 18.7665 5.37905 19.2616C5.15592 19.7567 5.03464 20.2916 5.02244 20.8345C5.01023 21.3774 5.10733 21.9172 5.30798 22.4218C5.50863 22.9265 5.80872 23.3856 6.19041 23.7719C6.5721 24.1582 7.02758 24.4638 7.52978 24.6705C8.03197 24.8773 8.57062 24.9809 9.11368 24.9753C9.65674 24.9697 10.1931 24.8549 10.6909 24.6378C11.1887 24.4207 11.6378 24.1058 12.0114 23.7116L15.7907 19.9327C16.1669 19.5567 16.4654 19.1103 16.669 18.619C16.8726 18.1277 16.9774 17.6011 16.9774 17.0693C16.9774 16.5374 16.8726 16.0108 16.669 15.5195C16.4654 15.0282 16.1669 14.5818 15.7907 14.2058C15.6119 14.0278 15.4174 13.8663 15.2097 13.7231C15.0936 13.6435 14.9977 13.5379 14.9297 13.4147C14.8618 13.2914 14.8236 13.154 14.8184 13.0134C14.806 12.7036 14.858 12.3946 14.9711 12.106C15.0842 11.8173 15.256 11.5553 15.4756 11.3365L16.6614 10.1508C16.8121 10.0012 17.0107 9.90955 17.2223 9.8919C17.4339 9.87424 17.645 9.93171 17.8184 10.0542C18.2306 10.3422 18.6166 10.6658 18.972 11.0214L18.9754 11.0265ZM26.9016 3.09933C25.297 1.49888 23.1231 0.600098 20.8566 0.600098C18.5902 0.600098 16.4162 1.49888 14.8116 3.09933L11.0323 6.87997L11.012 6.9003C10.132 7.78531 9.45652 8.85218 9.03285 10.026C8.60917 11.1998 8.44759 12.4522 8.55947 13.6951C8.67134 14.938 9.05395 16.1414 9.68043 17.2207C10.3069 18.3 11.1621 19.2292 12.1859 19.9428C12.3593 20.0654 12.5704 20.1228 12.782 20.1052C12.9936 20.0875 13.1922 19.9959 13.3429 19.8463L14.5287 18.6606C14.7483 18.4418 14.9201 18.1797 15.0332 17.8911C15.1464 17.6025 15.1984 17.2935 15.186 16.9837C15.1807 16.8431 15.1425 16.7056 15.0746 16.5824C15.0066 16.4591 14.9108 16.3535 14.7946 16.274C14.5869 16.1308 14.3924 15.9692 14.2136 15.7913C13.8374 15.4153 13.5389 14.9689 13.3353 14.4776C13.1317 13.9863 13.0269 13.4597 13.0269 12.9278C13.0269 12.396 13.1317 11.8694 13.3353 11.378C13.5389 10.8867 13.8374 10.4403 14.2136 10.0644L17.9929 6.28544C18.3665 5.89131 18.8156 5.57634 19.3134 5.35925C19.8112 5.14216 20.3476 5.02739 20.8906 5.02177C21.4337 5.01615 21.9723 5.11979 22.4745 5.32653C22.9767 5.53327 23.4322 5.83888 23.8139 6.22519C24.1956 6.6115 24.4957 7.07061 24.6963 7.57523C24.897 8.07985 24.9941 8.61967 24.9819 9.16257C24.9697 9.70547 24.8484 10.2404 24.6253 10.7355C24.4021 11.2306 24.0817 11.6757 23.683 12.0445L22.9461 12.7813C22.8265 12.9015 22.743 13.0529 22.7053 13.2182C22.6676 13.3835 22.6771 13.5561 22.7327 13.7163C23.0582 14.6731 23.242 15.6723 23.2782 16.6822C23.2859 16.8566 23.3441 17.0249 23.4459 17.1667C23.5476 17.3085 23.6884 17.4177 23.8511 17.4809C24.0137 17.5441 24.1913 17.5586 24.3621 17.5227C24.5329 17.4867 24.6895 17.4019 24.8129 17.2784L26.8999 15.1916C28.5009 13.5874 29.4001 11.4135 29.4001 9.14717C29.4001 6.8808 28.5009 4.70699 26.8999 3.10272L26.9016 3.09933Z" fill="#919191" fill-opacity="0.4"/>
</svg>
