<svg width="26" height="26" viewBox="0 0 26 26" fill="none" xmlns="http://www.w3.org/2000/svg">
<path d="M19.5 15.503C19.0055 15.503 18.5222 15.3568 18.1111 15.0821C17.7 14.8074 17.3794 14.4169 17.1901 13.9601C17.0009 13.5033 16.9516 13.0007 17.0481 12.5157C17.1446 12.0308 17.3826 11.5851 17.7322 11.2355C18.0818 10.8858 18.5273 10.6473 19.0122 10.5509C19.4972 10.4544 19.9999 10.5042 20.4568 10.6935C20.9136 10.8827 21.3039 11.2032 21.5786 11.6144C21.8533 12.0255 22 12.5086 22 13.003C22 13.6661 21.7367 14.3018 21.2679 14.7706C20.799 15.2395 20.163 15.503 19.5 15.503ZM13 15.503C12.5055 15.503 12.0222 15.3568 11.6111 15.0821C11.1999 14.8074 10.8794 14.4169 10.6902 13.9601C10.501 13.5033 10.4516 13.0007 10.5481 12.5157C10.6445 12.0308 10.8825 11.5851 11.2322 11.2355C11.5818 10.8858 12.0272 10.6473 12.5122 10.5509C12.9971 10.4544 13.4999 10.5042 13.9568 10.6935C14.4136 10.8827 14.8039 11.2032 15.0786 11.6144C15.3533 12.0255 15.5 12.5086 15.5 13.003C15.5 13.6661 15.2367 14.3018 14.7678 14.7706C14.299 15.2395 13.663 15.503 13 15.503ZM6.49998 15.503C6.00553 15.503 5.5222 15.3568 5.11107 15.0821C4.69995 14.8074 4.37939 14.4169 4.19017 13.9601C4.00095 13.5033 3.95162 13.0007 4.04808 12.5157C4.14455 12.0308 4.38253 11.5851 4.73217 11.2355C5.0818 10.8858 5.52725 10.6473 6.01219 10.5509C6.49715 10.4544 6.99996 10.5042 7.45677 10.6935C7.91359 10.8827 8.3039 11.2032 8.5786 11.6144C8.8533 12.0255 8.99999 12.5086 8.99999 13.003C8.99999 13.6661 8.73665 14.3018 8.26781 14.7706C7.79897 15.2395 7.16303 15.503 6.49998 15.503Z" fill="#919191"/>
</svg>
