<svg width="226" height="251" viewBox="0 0 226 251" fill="none" xmlns="http://www.w3.org/2000/svg">
<path d="M218.006 32.0841C222.421 32.0841 226 28.4998 226 24.0784C226 19.657 222.421 16.0728 218.006 16.0728C213.591 16.0728 210.013 19.657 210.013 24.0784C210.013 28.4998 213.591 32.0841 218.006 32.0841Z" fill="#DADADA"/>
<path d="M38.868 20.7071C41.3477 20.7071 43.358 18.6938 43.358 16.2103C43.358 13.7267 41.3477 11.7134 38.868 11.7134C36.3882 11.7134 34.3779 13.7267 34.3779 16.2103C34.3779 18.6938 36.3882 20.7071 38.868 20.7071Z" fill="#DADADA"/>
<path d="M41.575 156.319L50.6309 154.439L41.7117 152.588L39.7056 138.135L37.6726 152.777L28.7803 154.44L37.8092 156.128L39.7046 170.745L41.575 156.319Z" fill="#AAAAAA"/>
<path d="M47.8099 5.14969C47.6453 8.14095 52.286 8.40071 52.4506 5.40346C52.6152 2.4062 47.9775 2.15444 47.8099 5.14969Z" fill="#DADADA"/>
<path d="M58.3373 7.54253C58.175 7.77364 58.1089 8.05898 58.153 8.33809C58.1971 8.61719 58.348 8.86812 58.5736 9.03767C58.7993 9.20722 59.082 9.28207 59.3618 9.24636C59.6416 9.21064 59.8965 9.06716 60.0725 8.84633C60.2348 8.61523 60.3009 8.32987 60.2568 8.05077C60.2127 7.77166 60.0618 7.52075 59.8362 7.3512C59.6105 7.18165 59.3278 7.10679 59.048 7.14251C58.7682 7.17823 58.5133 7.32171 58.3373 7.54253Z" fill="#DADADA"/>
<path d="M38.938 29.4212C38.7644 29.2012 38.5128 29.0568 38.2356 29.0182C37.9584 28.9796 37.677 29.0496 37.4501 29.2138C37.2233 29.378 37.0684 29.6236 37.0179 29.8993C36.9673 30.1751 37.025 30.4598 37.1789 30.694C37.3524 30.914 37.604 31.0583 37.8812 31.097C38.1584 31.1356 38.4398 31.0656 38.6667 30.9014C38.8936 30.7372 39.0484 30.4916 39.0989 30.2159C39.1495 29.9401 39.0918 29.6554 38.938 29.4212Z" fill="#DADADA"/>
<path d="M7.80494 65.3781L13.3274 64.403L7.88674 63.4379L6.66371 55.9258L5.42373 63.5378L0 64.404L5.50855 65.2802L6.66371 72.8733L7.80494 65.3781Z" fill="#AAAAAA"/>
<path d="M191.337 2.1243C191.173 5.11556 195.813 5.37532 195.978 2.37807C196.143 -0.619186 191.505 -0.870953 191.337 2.1243Z" fill="#DADADA"/>
<path d="M201.871 4.51617C201.708 4.74727 201.642 5.03262 201.686 5.31173C201.73 5.59084 201.881 5.84177 202.107 6.01132C202.332 6.18087 202.615 6.25574 202.895 6.22002C203.175 6.1843 203.43 6.04082 203.606 5.81999C203.768 5.58889 203.834 5.30354 203.79 5.02443C203.746 4.74532 203.595 4.4944 203.369 4.32484C203.144 4.15529 202.861 4.08042 202.581 4.11614C202.301 4.15186 202.047 4.29534 201.871 4.51617Z" fill="#DADADA"/>
<path d="M168.37 40.3733C168.196 40.1533 167.944 40.009 167.667 39.9703C167.39 39.9317 167.109 40.0018 166.882 40.1659C166.655 40.3301 166.5 40.5757 166.45 40.8515C166.399 41.1273 166.457 41.4119 166.61 41.6461C166.784 41.8661 167.036 42.0105 167.313 42.0491C167.59 42.0878 167.871 42.0177 168.098 41.8535C168.325 41.6894 168.48 41.4438 168.531 41.168C168.581 40.8922 168.523 40.6075 168.37 40.3733Z" fill="white"/>
<path d="M128.257 59.5508L132.932 62.1144C139.568 65.7321 143.385 72.1562 143.371 80.8492C143.316 109.314 96.0865 126.102 95.9968 171.889L91.3262 169.34C91.412 123.54 138.643 106.753 138.697 78.3006C138.714 69.5926 134.894 63.1685 128.257 59.5508Z" fill="#DADADA"/>
<path d="M164.252 19.6741L168.923 22.2208C155.575 14.9445 137.31 12.6685 115.953 15.6738L111.28 13.1281C132.635 10.1259 150.9 12.4048 164.252 19.6741Z" fill="#DADADA"/>
<path d="M115.956 15.6781C161.355 9.28397 192.791 26.7769 192.736 65.3865C192.637 117.731 141.781 130.778 141.719 165.455L95.9957 171.886C96.0805 126.086 143.315 109.298 143.37 80.8464C143.397 64.8191 130.402 56.5087 110.728 59.2841C91.358 62.0216 76.5113 73.2583 66.798 89.6723L30.2363 71.5989C46.6163 42.4486 75.0987 21.4288 115.956 15.6781Z" fill="#F7F7F7"/>
<path d="M30.2214 71.5773L25.5498 69.0306C41.9527 39.9013 70.4222 18.8836 111.28 13.1309L115.955 15.6775C75.0978 21.4302 46.6144 42.448 30.2214 71.5773Z" fill="#DADADA"/>
<path d="M130.688 190.894L135.362 193.441C130.147 190.753 124.203 189.828 118.419 190.802L113.744 188.256C119.528 187.277 125.474 188.202 130.688 190.894Z" fill="#AAAAAA"/>
<path d="M101.894 247.043L97.2199 244.486C89.4219 240.239 84.6237 231.771 84.6446 221.452C84.6493 213.324 87.6049 205.474 92.9603 199.367C98.3158 193.259 105.706 189.31 113.753 188.255L118.428 190.802C110.382 191.861 102.994 195.812 97.6391 201.918C92.284 208.025 89.3263 215.873 89.3162 224C89.2982 234.329 94.0965 242.796 101.894 247.043Z" fill="#DADADA"/>
<path d="M118.425 190.802C135.372 188.404 147.455 199.146 147.425 215.831C147.394 232.191 135.262 247.318 118.316 249.694C101.369 252.069 89.2687 240.37 89.3136 224.024C89.3168 215.892 92.2716 208.039 97.6274 201.926C102.983 195.814 110.375 191.861 118.425 190.802Z" fill="#F7F7F7"/>
<path d="M99.2423 195.974C102.663 193.678 106.424 191.936 110.386 190.812C112.031 190.349 113.496 189.394 114.583 188.073C120.734 180.544 122.982 172.546 119.571 168.428C115.268 163.243 103.581 166.186 93.4654 175.003C87.3777 180.308 82.1014 186.48 77.8057 193.322C82.8907 195.439 88.2502 196.822 93.7237 197.429C95.6754 197.592 97.6237 197.078 99.2423 195.974Z" fill="#92B1F5"/>
<path d="M99.0547 196.096C102.579 193.7 106.47 191.896 110.575 190.754C112.093 190.328 113.445 189.445 114.446 188.224C120.375 181.013 122.75 173.35 120 169.059C119.48 174.74 115.055 182.184 107.943 188.382C100.461 194.885 86.9942 191.534 80.4641 189.334C78.7214 191.761 77.8057 193.322 77.8057 193.322C82.9593 195.473 88.397 196.864 93.9492 197.453C95.7561 197.601 97.5586 197.122 99.0547 196.096Z" fill="#3B73ED"/>
<path d="M115.112 185.695C114.931 185.895 112.917 187.647 112.718 187.82C112.677 187.854 132.829 191.99 132.829 191.99L128.202 222.015L135.085 221.648L136.633 190.188L115.112 185.695Z" fill="#3B73ED"/>
<path d="M104.079 232.167L107.838 202.394L98.2695 189.121V187.688L112.964 199.995L110.23 232.506L104.079 232.167Z" fill="#3B73ED"/>
<path d="M140.257 249.62H92.415" stroke="#919191"/>
<path d="M98.8359 129.982C98.9357 130.051 99.2559 115.638 108.179 109.321C117.166 103.037 129.285 103.793 133.863 110.039C138.442 116.285 133.963 125.525 125.136 131.619C116.394 137.72 98.9656 130.02 98.8359 129.982Z" fill="#92B1F5"/>
<path d="M108.63 152.105C109.485 162.629 113.654 170.36 118.298 169.645C122.941 168.93 126.999 160.435 127.035 150.401C127.072 140.366 122.368 132.182 116.838 132.417C111.309 132.652 107.782 141.588 108.63 152.105Z" fill="#92B1F5"/>
<path d="M111.12 136.767C110.473 139.945 110.276 143.199 110.536 146.432C111.366 156.945 115.614 164.732 120.378 164.102C122.397 163.852 124.256 162.192 125.788 159.653C124.198 165.19 121.427 169.177 118.3 169.644C113.659 170.359 109.486 162.627 108.632 152.103C108.176 146 109.11 140.408 111.12 136.767Z" fill="#3B73ED"/>
<path d="M126.283 138.47C130.207 143.022 133.906 147.485 137.379 151.858C139.194 154.144 143.117 151.971 142.42 149.086C140.964 143.242 139.316 137.295 137.475 131.244C137.351 131.007 137.289 130.742 137.295 130.475C137.301 130.207 137.375 129.946 137.51 129.714C137.644 129.483 137.835 129.29 138.065 129.153C138.294 129.016 138.555 128.939 138.822 128.93C145.656 128.311 154.74 122.527 150.564 118.24C150.41 118.088 150.224 117.973 150.019 117.903C149.815 117.833 149.597 117.811 149.383 117.837C149.168 117.863 148.963 117.937 148.781 118.053C148.599 118.17 148.446 118.326 148.332 118.511C147.84 119.469 147.353 120.429 146.87 121.389C146.227 122.575 145.272 123.563 144.109 124.245C142.946 124.927 141.619 125.278 140.271 125.26C136.416 125.26 132.091 125.459 132.889 127.112C135.217 133.639 137.314 140.042 139.181 146.319C139.252 146.587 139.232 146.871 139.124 147.127C139.016 147.382 138.826 147.594 138.584 147.73C138.342 147.865 138.062 147.916 137.789 147.874C137.515 147.833 137.263 147.701 137.072 147.5C133.818 143.421 130.381 139.261 126.759 135.022C126.6 136.171 126.444 137.321 126.283 138.47Z" fill="#3B73ED"/>
<path d="M122.354 106.746C122.409 106.794 128.297 72.8871 137.326 69.6391C146.304 66.2922 163.981 71.7951 162.32 81.0736C160.752 90.3551 157.754 84.5504 157.731 83.1787C157.708 81.8069 160.776 80.8548 160.78 80.8578C160.784 80.8608 162.328 74.2389 152.872 71.5284C143.433 68.8728 138.861 69.793 135.994 72.3276C133.062 74.8124 126.036 94.3724 126.006 95.7062C125.975 97.04 123.723 106.782 123.723 106.782C123.723 106.782 122.429 108.157 122.354 106.746Z" fill="#3B73ED"/>
<path d="M130.63 115.485C130.4 115.317 147.033 87.6941 158.946 87.6421C170.564 87.2585 189.144 96.3561 184.131 103.528C179.316 110.814 177.775 105.259 178.179 104.103C178.583 102.947 182.43 102.953 182.433 102.96C182.436 102.967 186.423 97.9257 176.395 93.254C166.366 88.5823 160.655 88.1586 156.519 89.5194C152.186 90.7183 138.164 105.537 137.857 106.769C137.378 107.847 132.181 115.824 132.208 115.848C132.235 115.872 130.356 116.744 130.63 115.485Z" fill="#3B73ED"/>
<path d="M116.891 112.187C116.632 112.395 116.304 112.499 115.972 112.479C115.641 112.459 115.328 112.316 115.096 112.077C115.002 111.95 114.935 111.804 114.899 111.649C114.864 111.494 114.862 111.333 114.892 111.177C114.922 111.021 114.984 110.873 115.075 110.742C115.165 110.611 115.282 110.501 115.417 110.418C115.681 110.212 116.011 110.11 116.345 110.131C116.678 110.153 116.993 110.296 117.228 110.534C117.322 110.662 117.388 110.808 117.422 110.964C117.456 111.119 117.457 111.279 117.426 111.435C117.394 111.591 117.33 111.738 117.239 111.868C117.147 111.997 117.029 112.106 116.893 112.187H116.891Z" fill="#3B73ED"/>
<path d="M123.634 120.396C123.384 120.6 123.065 120.703 122.743 120.685C122.42 120.666 122.115 120.528 121.889 120.296C121.802 120.166 121.742 120.02 121.714 119.866C121.685 119.712 121.688 119.554 121.723 119.401C121.757 119.249 121.823 119.105 121.915 118.978C122.007 118.852 122.124 118.746 122.258 118.666C122.512 118.461 122.833 118.359 123.158 118.379C123.483 118.399 123.788 118.541 124.014 118.776C124.1 118.906 124.158 119.053 124.185 119.206C124.213 119.359 124.208 119.517 124.173 119.668C124.137 119.82 124.071 119.963 123.979 120.088C123.886 120.213 123.769 120.318 123.634 120.396Z" fill="#3B73ED"/>
<path d="M87.4875 148.208C90.0486 140.886 92.8488 133.713 95.888 126.69C95.8571 126.673 100.994 124.979 94.9822 120.975C88.8891 116.936 86.3982 118.466 86.3503 115.396C86.2506 112.781 91.6025 108.263 87.717 108.177C86.3485 108.097 85.0001 108.536 83.9396 109.406C82.8792 110.276 82.1843 111.513 81.993 112.873C81.8443 114.044 81.9326 115.233 82.2523 116.37C83.1681 119.767 89.1076 122.845 93.2973 124.669C89.9056 133.111 86.8391 141.753 84.0978 150.594C83.1791 153.651 86.3533 156.337 88.4312 154.267C93.9013 148.895 99.6797 143.848 105.737 139.15C105.662 137.961 105.583 136.771 105.502 135.58C99.9557 140.099 94.6569 144.913 89.6283 150.003C88.5988 151.062 86.9718 149.703 87.4875 148.208Z" fill="#3B73ED"/>
<path d="M128.374 139.206C127.875 137.816 127.348 136.419 126.826 135.02C125.459 136.476 124.124 137.946 122.82 139.432C123.527 140.564 124.223 141.687 124.908 142.802C126.049 141.585 127.205 140.386 128.374 139.206Z" fill="#3B73ED"/>
<path d="M104.866 138.608C106.411 140.721 107.918 142.816 109.387 144.892C109.773 144.088 110.159 143.28 110.549 142.495C108.89 140.201 107.182 137.89 105.423 135.561C104.657 136.679 103.903 137.805 103.16 138.939L104.866 138.608Z" fill="#3B73ED"/>
<path d="M130.908 126.484C121.982 133.959 102.295 127.257 102.149 127.23C102.081 122.502 102.781 117.794 104.22 113.29C99.1659 120.265 98.9324 130.02 98.8477 129.961C98.9773 129.999 116.405 137.699 125.161 131.596C127.316 130.124 129.276 128.385 130.995 126.421L130.908 126.484Z" fill="#3B73ED"/>
<path d="M203.124 118.886L212.18 117.006L203.26 115.155L201.254 100.701L199.221 115.343L190.33 117.007L199.358 118.695L201.253 133.312L203.124 118.886Z" fill="#AAAAAA"/>
</svg>
