<svg width="16" height="18" viewBox="0 0 16 18" fill="none" xmlns="http://www.w3.org/2000/svg">
<path d="M7.99458 0.449951C7.40325 0.449951 6.92551 0.927549 6.92551 1.5187V2.15995C4.48669 2.65425 2.64922 4.81179 2.64922 7.39683V8.02472C2.64922 9.59444 2.07126 11.1107 1.02891 12.2864L0.781688 12.5636C0.501057 12.8775 0.43424 13.3284 0.604623 13.7125C0.775006 14.0966 1.1592 14.3437 1.58015 14.3437H14.409C14.83 14.3437 15.2108 14.0966 15.3845 13.7125C15.5583 13.3284 15.4881 12.8775 15.2075 12.5636L14.9602 12.2864C13.9179 11.1107 13.3399 9.59778 13.3399 8.02472V7.39683C13.3399 4.81179 11.5025 2.65425 9.06365 2.15995V1.5187C9.06365 0.927549 8.58591 0.449951 7.99458 0.449951ZM9.50798 16.9254C9.90889 16.5246 10.1327 15.9802 10.1327 15.4124H7.99458H5.85644C5.85644 15.9802 6.08027 16.5246 6.48117 16.9254C6.88208 17.3262 7.42663 17.5499 7.99458 17.5499C8.56252 17.5499 9.10708 17.3262 9.50798 16.9254ZM7.99458 5.52651C8.43891 5.52651 8.79638 5.88388 8.79638 6.32808V7.66401H10.1327C10.5771 7.66401 10.9345 8.02138 10.9345 8.46558C10.9345 8.90977 10.5771 9.26714 10.1327 9.26714H8.79638V10.6031C8.79638 11.0473 8.43891 11.4046 7.99458 11.4046C7.55025 11.4046 7.19278 11.0473 7.19278 10.6031V9.26714H5.85644C5.4121 9.26714 5.05463 8.90977 5.05463 8.46558C5.05463 8.02138 5.4121 7.66401 5.85644 7.66401H7.19278V6.32808C7.19278 5.88388 7.55025 5.52651 7.99458 5.52651Z" fill="#919191"/>
</svg>
