<svg width="14" height="10" viewBox="0 0 14 10" fill="none" xmlns="http://www.w3.org/2000/svg">
<path d="M4.2 4.99961C4.68456 4.99961 5.15825 4.85592 5.56115 4.58671C5.96405 4.3175 6.27807 3.93486 6.4635 3.48718C6.64894 3.0395 6.69746 2.54689 6.60292 2.07164C6.50839 1.59638 6.27505 1.15984 5.93241 0.817199C5.58977 0.474561 5.15322 0.24122 4.67797 0.146687C4.20272 0.0521529 3.7101 0.100671 3.26243 0.286105C2.81475 0.47154 2.43211 0.785564 2.1629 1.18846C1.89369 1.59136 1.75 2.06504 1.75 2.54961C1.74989 2.87138 1.81318 3.19002 1.93626 3.48732C2.05935 3.78462 2.23981 4.05475 2.46734 4.28227C2.69486 4.5098 2.96499 4.69026 3.26229 4.81335C3.55959 4.93643 3.87823 4.99972 4.2 4.99961ZM5.88 5.69961H5.69852C5.23254 5.92988 4.71977 6.04966 4.2 6.04966C3.68023 6.04966 3.16746 5.92988 2.70148 5.69961H2.52C2.18881 5.69972 1.86089 5.7651 1.55497 5.89199C1.24906 6.01889 0.971149 6.20483 0.737123 6.43918C0.503096 6.67352 0.317542 6.95169 0.191063 7.25778C0.0645848 7.56387 -0.0003393 7.89188 1.33345e-06 8.22307V8.85307C0.000916163 9.13094 0.111945 9.39713 0.308759 9.59329C0.505573 9.78946 0.772122 9.89961 1.05 9.89961H7.35C7.62848 9.89961 7.89555 9.78898 8.09246 9.59207C8.28938 9.39516 8.4 9.12809 8.4 8.84961V8.22307C8.40034 7.89159 8.3353 7.56329 8.20861 7.25698C8.08191 6.95066 7.89605 6.67235 7.66166 6.43795C7.42727 6.20356 7.14895 6.0177 6.84263 5.891C6.53632 5.76431 6.20802 5.69927 5.87654 5.69961H5.88ZM10.5 4.99961C10.9153 4.99961 11.3214 4.87645 11.6667 4.6457C12.012 4.41495 12.2812 4.08697 12.4401 3.70325C12.5991 3.31952 12.6407 2.89728 12.5596 2.48992C12.4786 2.08256 12.2786 1.70838 11.9849 1.41469C11.6912 1.121 11.317 0.920991 10.9097 0.839963C10.5023 0.758934 10.0801 0.800519 9.69636 0.959463C9.31264 1.11841 8.98466 1.38757 8.75391 1.73291C8.52316 2.07826 8.4 2.48427 8.4 2.89961C8.40023 3.4565 8.62155 3.9905 9.01533 4.38428C9.40911 4.77806 9.94312 4.99938 10.5 4.99961ZM11.55 5.69961H11.4636C10.84 5.93302 10.1531 5.93302 9.52951 5.69961H9.44309C9.01429 5.70244 8.59387 5.81872 8.22457 6.03665C8.77902 6.62839 9.08793 7.4087 9.08877 8.21961V9.05961C9.08877 9.108 9.07753 9.1538 9.0758 9.19961H12.9388C13.0776 9.20109 13.2153 9.17503 13.344 9.12293C13.4727 9.07083 13.5898 8.99372 13.6885 8.89607C13.7872 8.79842 13.8655 8.68217 13.919 8.55404C13.9725 8.42591 14 8.28845 14 8.14961C14.0001 7.82784 13.9368 7.5092 13.8137 7.2119C13.6907 6.9146 13.5102 6.64447 13.2827 6.41694C13.0551 6.18942 12.785 6.00896 12.4877 5.88587C12.1904 5.76279 11.8718 5.6995 11.55 5.69961Z" fill="#919191"/>
</svg>
