<svg width="20" height="20" viewBox="0 0 20 20" fill="none" xmlns="http://www.w3.org/2000/svg">
<path d="M17.6191 8.09553H11.9047V2.38109C11.9047 2.04426 11.7709 1.72123 11.5327 1.48306C11.2945 1.24489 10.9715 1.11108 10.6347 1.11108H9.36577C9.02895 1.11108 8.70592 1.24489 8.46775 1.48306C8.22958 1.72123 8.09577 2.04426 8.09577 2.38109V8.09553H2.38133C2.0445 8.09553 1.72147 8.22933 1.4833 8.4675C1.24513 8.70567 1.11133 9.0287 1.11133 9.36553L1.11133 10.6355C1.11133 10.9724 1.24513 11.2954 1.4833 11.5336C1.72147 11.7717 2.0445 11.9055 2.38133 11.9055H8.09577V17.62C8.09607 17.9566 8.23 18.2794 8.46814 18.5173C8.70628 18.7552 9.02914 18.8889 9.36577 18.8889H10.6347C10.9715 18.8889 11.2945 18.7551 11.5327 18.5169C11.7709 18.2787 11.9047 17.9557 11.9047 17.6189V11.9044H17.6191C17.9559 11.9044 18.279 11.7706 18.5171 11.5324C18.7553 11.2943 18.8891 10.9712 18.8891 10.6344V9.36553C18.8891 9.0287 18.7553 8.70567 18.5171 8.4675C18.279 8.22933 17.9559 8.09553 17.6191 8.09553Z" fill="white"/>
</svg>
