<svg width="24" height="24" viewBox="0 0 24 24" fill="none" xmlns="http://www.w3.org/2000/svg">
<path d="M10.8582 17.1244C10.8582 15.8239 11.2341 14.5527 11.9396 13.4713C12.645 12.39 13.6475 11.5473 14.8206 11.0496C15.9938 10.552 17.2845 10.4217 18.5299 10.6754C19.7754 10.9291 20.9204 11.5554 21.8183 12.4749C22.7161 13.3945 23.3289 14.5662 23.5766 15.8417C23.8243 17.1172 23.6966 18.4392 23.2106 19.6407C22.7247 20.8422 21.9 21.8691 20.8441 22.5916C19.7883 23.3141 18.5477 23.6998 17.2779 23.6998C15.5756 23.6983 13.944 23.005 12.7403 21.7722C11.5366 20.5395 10.8596 18.8679 10.8582 17.1244ZM18.0126 13.8448V15.1996C15.657 15.2328 13.2604 15.6325 13.2604 18.3466C13.2881 18.858 13.4253 19.3569 13.6622 19.808C13.8991 20.259 14.2294 20.6513 14.6308 20.9568C14.6789 20.9966 14.7396 21.0172 14.8014 21.0146C14.8518 21.0152 14.9021 21.0034 14.9472 20.9803C14.9923 20.9572 15.0302 20.9234 15.06 20.8818C15.0843 20.8477 15.1016 20.8079 15.1068 20.766C15.112 20.7241 15.1055 20.6816 15.0903 20.6423C14.9263 20.286 14.8438 19.8957 14.8509 19.5018C14.858 19.108 14.9549 18.721 15.1316 18.3711C15.5444 17.794 16.4305 17.5198 18.0126 17.4953V18.9656C18.0113 19.02 18.0205 19.0742 18.0401 19.1248C18.0598 19.1754 18.0907 19.2214 18.1282 19.26C18.1657 19.2986 18.2082 19.329 18.2575 19.3493C18.3069 19.3696 18.3612 19.3795 18.4144 19.3783C18.5071 19.3779 18.596 19.3425 18.6648 19.2788L21.5678 16.7176C21.6115 16.682 21.648 16.6368 21.6724 16.5854C21.6968 16.5339 21.7079 16.4775 21.7082 16.4203C21.7103 16.358 21.6995 16.2959 21.6752 16.2387C21.6508 16.1815 21.614 16.1307 21.5678 16.0899L18.6648 13.5374C18.594 13.4771 18.5063 13.4421 18.4144 13.4378C18.3613 13.4362 18.307 13.4457 18.2575 13.4654C18.2081 13.4852 18.1634 13.5149 18.1254 13.5529C18.0875 13.5909 18.0579 13.6363 18.0374 13.6864C18.0169 13.7365 18.0069 13.7904 18.0071 13.8448H18.0126ZM2.43514 23.6825C2.15448 23.6827 1.87719 23.6262 1.61788 23.5163C1.35857 23.4063 1.12284 23.2451 0.924447 23.0418C0.726058 22.8384 0.566595 22.597 0.459406 22.3314C0.352218 22.0657 0.299436 21.781 0.299807 21.4936V19.5846C0.302043 17.9597 0.930745 16.402 2.05265 15.253C3.17456 14.104 4.69818 13.4574 6.2848 13.4551H7.03051C7.94207 13.8906 8.93127 14.1359 9.93633 14.1766C9.56943 15.1085 9.37843 16.1038 9.37773 17.1086C9.37646 18.4009 9.68178 19.6744 10.2665 20.8196C10.8513 21.9648 11.6977 22.9477 12.7348 23.684L2.43514 23.6825ZM4.58148 6.154C4.58011 5.23877 4.78804 4.33598 5.18961 3.51837C5.59118 2.70076 6.17463 1.99112 6.89293 1.44665C7.61122 0.902168 8.44463 0.538111 9.32545 0.383658C10.2063 0.229206 11.1101 0.288687 11.9643 0.557418C12.8186 0.826148 13.5985 1.29654 14.2428 1.93076C14.8871 2.56498 15.3777 3.34536 15.6737 4.20892C15.9697 5.07247 16.0619 5.99516 15.9461 6.90267C15.8303 7.81017 15.5078 8.67713 15.005 9.43376C13.5482 9.86226 12.2508 10.7246 11.2737 11.9112C10.9482 11.9711 10.6165 12.0015 10.2858 12.0021C9.53566 12.003 8.79414 11.8524 8.10093 11.5589C7.40772 11.2653 6.7767 10.8346 6.24627 10.2914C5.71585 9.74813 5.29463 9.10301 5.008 8.39305C4.72136 7.68309 4.57505 6.92225 4.57598 6.154H4.58148Z" fill="#AAAAAA"/>
</svg>
