<svg width="33" height="15" viewBox="0 0 33 15" fill="none" xmlns="http://www.w3.org/2000/svg">
<path d="M4.75 15C3.7835 15 3 14.2165 3 13.25C3 12.2835 3.7835 11.5 4.75 11.5C5.7165 11.5 6.5 12.2835 6.5 13.25C6.5 14.2165 5.7165 15 4.75 15Z" fill="#919191"/>
<path d="M29.662 11.5H33V13C33 13.552 32.552 14 32 14V13H30.486C30.419 12.396 30.112 11.863 29.662 11.5Z" fill="#919191"/>
<path d="M28.25 15C27.2835 15 26.5 14.2165 26.5 13.25C26.5 12.2835 27.2835 11.5 28.25 11.5C29.2165 11.5 30 12.2835 30 13.25C30 14.2165 29.2165 15 28.25 15Z" fill="#919191"/>
<path d="M2.507 8.332L4.5 8L5.947 5.106C6.286 4.428 6.978 4 7.736 4H10.5V8H11V3.5H8C7.448 3.5 7 3.052 7 2.5V1.5C7 0.948 7.448 0.5 8 0.5H32C32.552 0.5 33 0.948 33 1.5V11H11V10H10.5V11.5H26.838C26.388 11.863 26.081 12.396 26.014 13H16C16 13.552 15.552 14 15 14H7V13.25C7 12.009 5.991 11 4.75 11C3.509 11 2.5 12.009 2.5 13.25V14H1C0.448 14 0 13.552 0 13V11.291C0 9.824 1.06 8.573 2.507 8.332ZM9 1.5C8.448 1.5 8 1.948 8 2.5H9V1.5ZM11 1.5C10.448 1.5 10 1.948 10 2.5H11V1.5ZM30 9H31V8.75H30V9ZM30 6H31V5.75H30V6ZM30 3H31V2.75H30V3ZM27 9H28V8.75H27V9ZM27 6H28V5.75H27V6ZM27 3H28V2.75H27V3ZM24 9H25V8.75H24V9ZM24 6H25V5.75H24V6ZM24 3H25V2.75H24V3ZM21 9H22V8.75H21V9ZM21 6H22V5.75H21V6ZM21 3H22V2.75H21V3ZM18 9H19V8.75H18V9ZM18 6H19V5.75H18V6ZM18 3H19V2.75H18V3ZM15 9H16V8.75H15V9ZM15 6H16V5.75H15V6ZM15 3H16V2.75H15V3ZM8.449 7.381C9.05 7.306 9.5 6.795 9.5 6.19V4.999H7.394C7.002 4.999 6.646 5.228 6.484 5.585L5.5 7.749L8.449 7.38V7.381ZM1.413 12.195C1.673 11.375 2.226 10.686 2.95 10.25H2.282C1.823 10.25 1.423 10.562 1.312 11.007L1.157 11.628C1.098 11.863 1.216 12.093 1.414 12.195H1.413Z" fill="#919191"/>
</svg>
