<svg width="30" height="30" viewBox="0 0 30 30" fill="none" xmlns="http://www.w3.org/2000/svg">
<path d="M29.0701 9.09649C29.0296 8.93636 28.9473 8.78983 28.8317 8.67189C28.716 8.55394 28.5712 8.46879 28.4119 8.42513C28.2526 8.38148 28.0845 8.38088 27.9249 8.4234C27.7653 8.46592 27.6199 8.55004 27.5034 8.66716L21.7114 14.4592L16.4247 13.5778L15.5434 8.29116L21.3367 2.50049C21.4545 2.38337 21.5389 2.23693 21.5812 2.07629C21.6235 1.91565 21.6222 1.74663 21.5773 1.58669C21.5325 1.42674 21.4457 1.28166 21.3261 1.16643C21.2065 1.05119 21.0582 0.969975 20.8967 0.931159C18.9502 0.441355 16.9076 0.485536 14.984 1.05905C13.0605 1.63256 11.3272 2.71419 9.96672 4.19C8.60624 5.66581 7.66892 7.48119 7.25347 9.44494C6.83802 11.4087 6.95982 13.4481 7.60605 15.3485L2.07005 20.8912C1.19763 21.8372 0.724977 23.0841 0.751022 24.3707C0.777067 25.6574 1.29979 26.8841 2.20978 27.7941C3.11977 28.7041 4.34648 29.2268 5.63314 29.2529C6.91979 29.2789 8.16665 28.8062 9.11272 27.9338L14.6407 22.4045C16.5431 23.0494 18.5842 23.1698 20.5492 22.7528C22.5142 22.3359 24.3306 21.3972 25.8072 20.0353C27.2838 18.6734 28.3661 16.9388 28.9403 15.0138C29.5145 13.0889 29.5593 11.0448 29.0701 9.09649ZM5.58872 26.2845C5.21953 26.2845 4.85862 26.175 4.55165 25.9699C4.24468 25.7648 4.00543 25.4733 3.86414 25.1322C3.72286 24.7911 3.68589 24.4158 3.75792 24.0537C3.82994 23.6916 4.00773 23.359 4.26879 23.0979C4.52984 22.8368 4.86245 22.6591 5.22455 22.587C5.58665 22.515 5.96197 22.552 6.30306 22.6933C6.64415 22.8345 6.93568 23.0738 7.14079 23.3808C7.34591 23.6877 7.45538 24.0486 7.45538 24.4178C7.45538 24.9129 7.25872 25.3877 6.90865 25.7378C6.55858 26.0878 6.08379 26.2845 5.58872 26.2845Z" fill="#AAAAAA"/>
</svg>
