<svg width="14" height="12" viewBox="0 0 14 12" fill="none" xmlns="http://www.w3.org/2000/svg">
<path d="M0.907013 4.32686L5.23754 0.545036C5.32324 0.470173 5.42819 0.421858 5.53999 0.405803C5.6518 0.389747 5.76578 0.406622 5.86846 0.454433C5.97115 0.502244 6.05825 0.578991 6.11946 0.675603C6.18067 0.772216 6.21343 0.884653 6.21388 0.999624V3.00398C10.1657 3.02643 13.3002 3.83298 13.3002 7.64607C13.2613 8.40393 13.0575 9.14351 12.7034 9.8113C12.3494 10.4791 11.854 11.0584 11.253 11.5073C11.1806 11.564 11.0926 11.5963 11.0013 11.5996C10.91 11.6029 10.8199 11.577 10.7438 11.5256C10.6677 11.4741 10.6092 11.3997 10.5767 11.3127C10.5442 11.2258 10.5393 11.1306 10.5625 11.0406C11.6751 7.40956 10.0303 6.44506 6.21388 6.38733V8.59052C6.21343 8.70549 6.18067 8.81793 6.11946 8.91454C6.05825 9.01116 5.97115 9.0879 5.86846 9.13572C5.76578 9.18353 5.6518 9.2004 5.53999 9.18435C5.42819 9.16829 5.32324 9.11997 5.23754 9.04511L0.907013 5.25928C0.842017 5.20097 0.789958 5.12924 0.754298 5.04885C0.718638 4.96847 0.700195 4.88128 0.700195 4.79307C0.700195 4.70486 0.718638 4.61767 0.754298 4.53728C0.789958 4.4569 0.842017 4.38517 0.907013 4.32686Z" fill="#919191"/>
</svg>
