<svg width="10" height="10" viewBox="0 0 10 10" fill="none" xmlns="http://www.w3.org/2000/svg">
<path d="M6.85728 4.99961L9.64285 2.21381C9.80706 2.04956 9.8993 1.82682 9.8993 1.59457C9.8993 1.36231 9.80706 1.13957 9.64285 0.975324L9.02366 0.356077C8.85943 0.19186 8.63671 0.0996094 8.40447 0.0996094C8.17223 0.0996094 7.94951 0.19186 7.78528 0.356077L5.00049 3.14188L2.21413 0.356077C2.0499 0.19186 1.82717 0.0996094 1.59493 0.0996094C1.3627 0.0996094 1.13997 0.19186 0.97574 0.356077L0.356548 0.975324C0.192344 1.13957 0.100098 1.36231 0.100098 1.59457C0.100098 1.82682 0.192344 2.04956 0.356548 2.21381L3.14212 4.99961L0.35734 7.78541C0.193136 7.94965 0.100889 8.1724 0.100889 8.40465C0.100889 8.63691 0.193136 8.85965 0.35734 9.02389L0.976532 9.64314C1.14076 9.80736 1.36349 9.89961 1.59572 9.89961C1.82796 9.89961 2.05069 9.80736 2.21492 9.64314L5.00049 6.85734L7.78607 9.64314C7.9503 9.80736 8.17302 9.89961 8.40526 9.89961C8.6375 9.89961 8.86022 9.80736 9.02445 9.64314L9.64365 9.02389C9.80785 8.85965 9.9001 8.63691 9.9001 8.40465C9.9001 8.1724 9.80785 7.94965 9.64365 7.78541L6.85728 4.99961Z" fill="#919191"/>
</svg>
