<svg width="28" height="30" viewBox="0 0 28 30" fill="none" xmlns="http://www.w3.org/2000/svg">
<path d="M26.1729 5.0382L15.0721 0.412601C14.7338 0.272372 14.3712 0.200195 14.0049 0.200195C13.6387 0.200195 13.2761 0.272372 12.9377 0.412601L1.84175 5.0382C1.33547 5.24798 0.902765 5.60315 0.598322 6.05882C0.293879 6.51448 0.131373 7.05019 0.131348 7.5982C0.131348 19.075 6.75055 27.0078 12.9313 29.5854C13.2692 29.7264 13.6317 29.7989 13.9977 29.7989C14.3638 29.7989 14.7263 29.7264 15.0641 29.5854C20.0241 27.5214 27.8769 20.3934 27.8769 7.5982C27.8767 7.05088 27.7146 6.51584 27.4112 6.06035C27.1077 5.60486 26.6763 5.24924 26.1713 5.0382M14.0017 26.003V3.9742L24.1729 8.2126C23.9825 16.9662 19.4257 23.3086 14.0017 26.003Z" fill="#AAAAAA"/>
</svg>
