<svg width="18" height="18" viewBox="0 0 18 18" fill="none" xmlns="http://www.w3.org/2000/svg">
<g clip-path="url(#clip0_3454_10240)">
<path d="M1.9327 1.02049C0.732764 0.492488 -0.449936 1.80025 0.170723 2.96814L2.56026 7.46836C2.71197 7.75858 2.99472 7.9509 3.31539 7.99286L9.38405 8.76213C9.50129 8.77611 9.59094 8.87752 9.59094 8.99641C9.59094 9.11529 9.50129 9.2167 9.38405 9.23068L3.31539 9.99995C2.99472 10.0419 2.71197 10.2377 2.56026 10.5245L0.170723 15.0317C-0.449936 16.1996 0.732764 17.5073 1.9327 16.9793L17.1699 10.2832C18.2767 9.79714 18.2767 8.20266 17.1699 7.71662L1.9327 1.02049Z" fill="#CCCCCC"/>
</g>
<defs>
<clipPath id="clip0_3454_10240">
<rect width="18" height="18" fill="white"/>
</clipPath>
</defs>
</svg>
