<svg width="18" height="18" viewBox="0 0 18 18" fill="none" xmlns="http://www.w3.org/2000/svg">
<path d="M16.8845 14.91L15.1239 13.1515C15.0529 13.0806 14.9685 13.0245 14.8756 12.9865C14.7827 12.9484 14.6832 12.9292 14.5828 12.9299H14.0787C15.137 11.6234 15.7129 9.99253 15.7095 8.31158C15.7122 6.63459 15.1449 5.00641 14.1004 3.69385C13.0559 2.3813 11.5962 1.46223 9.96059 1.08725C8.32496 0.712284 6.61037 0.903656 5.09783 1.63001C3.58528 2.35636 2.36449 3.57461 1.63551 5.08511C0.90654 6.59561 0.712625 8.30876 1.08555 9.94381C1.45847 11.5789 2.37611 13.0388 3.68808 14.0845C5.00005 15.1301 6.62854 15.6994 8.30666 15.699C9.98478 15.6986 11.613 15.1286 12.9245 14.0823V14.5729C12.9237 14.6729 12.9429 14.7721 12.981 14.8646C13.0191 14.9571 13.0753 15.0411 13.1462 15.1117L14.9078 16.8797C15.0506 17.0208 15.2433 17.0999 15.4442 17.0999C15.645 17.0999 15.8377 17.0208 15.9805 16.8797L16.8817 15.9924C17.0219 15.8478 17.1004 15.6544 17.1004 15.4531C17.1004 15.2517 17.0219 15.0583 16.8817 14.9138M8.30589 13.1695C7.34542 13.1669 6.40727 12.8799 5.60993 12.3447C4.81259 11.8096 4.19183 11.0503 3.82604 10.1628C3.46026 9.27534 3.36587 8.29943 3.55478 7.35836C3.7437 6.41729 4.20745 5.55327 4.88747 4.87543C5.56748 4.19759 6.43326 3.73634 7.37544 3.54994C8.31763 3.36353 9.29396 3.46033 10.1811 3.82811C11.0683 4.1959 11.8265 4.81816 12.36 5.61631C12.8934 6.41446 13.1783 7.3527 13.1785 8.31252C13.1782 8.95131 13.0519 9.58379 12.8068 10.1738C12.5617 10.7637 12.2026 11.2996 11.75 11.7507C11.2974 12.2018 10.7603 12.5593 10.1693 12.8028C9.57833 13.0462 8.94511 13.1708 8.30589 13.1695Z" fill="#919191"/>
</svg>
