<svg width="14" height="14" viewBox="0 0 14 14" fill="none" xmlns="http://www.w3.org/2000/svg">
<path d="M6.99995 0.700195C6.61167 0.700195 6.29995 1.01191 6.29995 1.4002V5.30488L3.53823 2.54316C3.35776 2.36816 3.1062 2.30801 2.87651 2.3627C2.7562 2.39004 2.64136 2.4502 2.54839 2.54316C2.27495 2.8166 2.27495 3.26504 2.54839 3.53848L5.31011 6.3002H1.39995C1.01167 6.3002 0.699951 6.61191 0.699951 7.0002C0.699951 7.38848 1.01167 7.7002 1.39995 7.7002H5.30464L2.54292 10.4619C2.27495 10.7354 2.27495 11.1838 2.54292 11.4518C2.81636 11.7252 3.2648 11.7252 3.53823 11.4518L6.29995 8.69004V12.6002C6.29995 12.9885 6.61167 13.3002 6.99995 13.3002C7.38823 13.3002 7.69995 12.9885 7.69995 12.6002V8.69004L10.4671 11.4572C10.7406 11.7307 11.1835 11.7307 11.457 11.4572C11.6101 11.3041 11.6757 11.1018 11.6593 10.8994C11.6429 10.7408 11.5773 10.5877 11.457 10.4674L8.6898 7.7002H12.6C12.9882 7.7002 13.3 7.38848 13.3 7.0002C13.3 6.61191 12.9882 6.3002 12.6 6.3002H8.6898L11.457 3.53301C11.7304 3.25957 11.7304 2.8166 11.457 2.54316C11.1835 2.26973 10.7406 2.26973 10.4671 2.54316L7.69995 5.31035V1.4002C7.69995 1.01191 7.38823 0.700195 6.99995 0.700195Z" fill="#919191"/>
</svg>
