<svg width="14" height="14" viewBox="0 0 14 14" fill="none" xmlns="http://www.w3.org/2000/svg">
<path d="M6.99937 0.350586C5.68412 0.350586 4.39841 0.740602 3.30483 1.47131C2.21124 2.20202 1.35889 3.24061 0.855569 4.45574C0.352247 5.67087 0.220554 7.00796 0.477146 8.29794C0.733738 9.58791 1.36709 10.7728 2.29711 11.7028C3.22713 12.6329 4.41204 13.2662 5.70202 13.5228C6.99199 13.7794 8.32908 13.6477 9.54421 13.1444C10.7593 12.6411 11.7979 11.7887 12.5286 10.6951C13.2594 9.60154 13.6494 8.31583 13.6494 7.00059C13.6495 6.12727 13.4775 5.26248 13.1434 4.45562C12.8092 3.64876 12.3194 2.91563 11.7019 2.2981C11.0843 1.68057 10.3512 1.19074 9.54433 0.856579C8.73747 0.522421 7.87269 0.350484 6.99937 0.350586ZM6.99937 2.06714C8.15806 2.06904 9.27918 2.47832 10.1666 3.22338C11.054 3.96844 11.6511 5.00182 11.8535 6.1427H9.33581C9.18598 5.88317 8.97062 5.66755 8.71127 5.51741C8.45193 5.36726 8.1577 5.28786 7.85804 5.28714H6.14226C5.84259 5.28786 5.54836 5.36726 5.28902 5.51741C5.02968 5.66755 4.81431 5.88317 4.66448 6.1427H2.14526C2.3475 5.00175 2.9446 3.96829 3.83201 3.2232C4.71943 2.47812 5.84064 2.06889 6.99937 2.06714ZM2.14526 7.85847H4.86048L6.14381 9.57503V11.8555C5.149 11.6779 4.23254 11.1996 3.51798 10.4851C2.80342 9.77053 2.32513 8.85407 2.14759 7.85925M7.85959 11.8555V9.57503L9.13826 7.85847H11.8496C11.672 8.85329 11.1938 9.76975 10.4792 10.4843C9.76465 11.1989 8.84818 11.6772 7.85337 11.8547" fill="#919191"/>
</svg>
