<svg width="14" height="14" viewBox="0 0 14 14" fill="none" xmlns="http://www.w3.org/2000/svg">
<path d="M9.89837 13.6493C9.39801 13.656 8.90083 13.5633 8.43661 13.3769C7.9724 13.1905 7.55062 12.9149 7.19449 12.5643C6.83836 12.2137 6.55482 11.7948 6.36196 11.3343C6.1691 10.8737 6.07079 10.3798 6.07109 9.88072C6.07139 9.3816 6.17003 8.88751 6.36344 8.42718C6.55686 7.96685 6.8409 7.55032 7.19746 7.20011C7.55402 6.84991 7.97662 6.57331 8.44107 6.38749C8.90551 6.20168 9.40247 6.10925 9.90283 6.11662H9.92212C10.9143 6.1292 11.8615 6.53185 12.5592 7.23564C13.2569 7.93943 13.6486 8.88802 13.65 9.87776C13.6514 10.8675 13.2623 11.8186 12.5666 12.5243C11.8709 13.2301 10.9247 13.6339 9.93251 13.6493H9.89837ZM8.71413 7.95204C8.35931 8.14313 8.06262 8.42588 7.85488 8.77059C7.64975 9.13741 7.54327 9.551 7.5462 9.97101C7.54064 10.3904 7.6473 10.8037 7.85488 11.1685C8.06003 11.5179 8.35713 11.8045 8.71413 11.9974C9.09234 12.2002 9.51651 12.3025 9.94586 12.2949C10.3146 12.2987 10.6801 12.2255 11.0188 12.0803C11.3323 11.9412 11.6053 11.7252 11.8128 11.4527L11.0336 10.7259C10.915 10.8869 10.7593 11.0181 10.581 11.1093C10.4027 11.2004 10.207 11.2493 10.0067 11.2514C9.78361 11.2545 9.56396 11.1968 9.37155 11.0841C9.18875 10.9802 9.03977 10.8248 8.94563 10.6371C8.83769 10.432 8.7859 10.2025 8.79426 9.97101C8.78771 9.74021 8.8394 9.51156 8.94563 9.30641C9.04402 9.11977 9.19184 8.96307 9.37155 8.852C9.56635 8.74623 9.78492 8.69173 10.0067 8.69362C10.207 8.6957 10.4027 8.74308 10.581 8.83423C10.7593 8.92538 10.915 9.05659 11.0336 9.2176L11.8128 8.49083C11.6066 8.21704 11.3332 8.00082 11.0188 7.86323C10.6809 7.71522 10.3148 7.64338 9.94586 7.65009C9.5163 7.64348 9.09148 7.74721 8.71413 7.95204ZM6.84723 13.3088C5.56229 13.309 4.30507 12.9284 3.23662 12.2164C2.16817 11.5045 1.33617 10.4934 0.844379 9.30937C0.352585 8.12534 0.224216 6.82151 0.474858 5.56451C0.725501 4.30751 1.34412 3.15367 2.25271 2.24743C3.1613 1.34119 4.31814 0.724163 5.5784 0.474169C6.83865 0.224175 8.14586 0.352212 9.33296 0.842734C10.5201 1.33326 11.5338 2.1631 12.2476 3.22879C12.9614 4.29447 13.3429 5.54845 13.3428 6.83007V6.93664C12.8477 6.36639 12.217 5.92936 11.5085 5.66516C11.2426 4.59766 10.6172 3.6526 9.73662 2.99048C8.85599 2.32835 7.77276 1.98946 6.67063 2.02836C5.56851 2.06726 4.51332 2.48255 3.68182 3.2051C2.85032 3.92766 2.29392 4.91314 2.10431 5.99673H4.55888C4.70525 5.74385 4.91545 5.53319 5.16881 5.38689C5.42216 5.24059 5.70859 5.16408 6.00134 5.16338H7.68125C8.05993 5.16177 8.42775 5.28956 8.72303 5.52603C7.95808 5.72958 7.26072 6.1287 6.69883 6.68501C6.13694 7.24132 5.73024 7.93512 5.52052 8.69658L4.75625 7.67229H2.10431C2.26718 8.5809 2.68971 9.4237 3.31972 10.0998C3.94973 10.7759 4.76042 11.2569 5.65705 11.4852C5.87519 12.0868 6.22688 12.6322 6.68399 13.0809C6.76355 13.1615 6.84781 13.2365 6.93627 13.3073L6.84723 13.3088Z" fill="#919191"/>
</svg>
