<svg width="12" height="14" viewBox="0 0 12 14" fill="none" xmlns="http://www.w3.org/2000/svg">
<path d="M0.471191 1.94454V2.72231C0.471185 2.77391 0.481446 2.82499 0.501378 2.87259C0.521309 2.92018 0.550512 2.96333 0.587285 2.99952C0.624059 3.03572 0.667667 3.06423 0.71557 3.08341C0.763472 3.10258 0.814712 3.11203 0.866303 3.1112H11.1345C11.1861 3.11203 11.2374 3.10258 11.2853 3.08341C11.3332 3.06423 11.3768 3.03572 11.4135 2.99952C11.4503 2.96333 11.4795 2.92018 11.4995 2.87259C11.5194 2.82499 11.5296 2.77391 11.5296 2.72231V1.94454C11.5296 1.89294 11.5194 1.84186 11.4995 1.79426C11.4795 1.74667 11.4503 1.70352 11.4135 1.66733C11.3768 1.63113 11.3332 1.60262 11.2853 1.58344C11.2374 1.56427 11.1861 1.55482 11.1345 1.55565H8.17119L7.9433 1.10142C7.89336 1.00362 7.81726 0.921598 7.72348 0.864474C7.62969 0.807351 7.52189 0.77737 7.41208 0.777869H4.59341C4.48365 0.776634 4.37574 0.806232 4.28197 0.863294C4.18819 0.920356 4.11232 1.00259 4.06297 1.10065L3.82964 1.55565H0.866303C0.814712 1.55482 0.763472 1.56427 0.71557 1.58344C0.667667 1.60262 0.624059 1.63113 0.587285 1.66733C0.550512 1.70352 0.521309 1.74667 0.501378 1.79426C0.481446 1.84186 0.471185 1.89294 0.471191 1.94454Z" fill="#919191"/>
<path d="M1.24775 3.63936L1.77275 12.1856H1.77353C1.80347 12.4762 1.94238 12.7447 2.1623 12.9371C2.38222 13.1294 2.66683 13.2314 2.95887 13.2224H9.04264C9.33481 13.2316 9.61961 13.1297 9.8397 12.9374C10.0598 12.745 10.1988 12.4764 10.2288 12.1856L10.7538 3.63936H1.24775Z" fill="#919191"/>
</svg>
