<svg width="30" height="30" viewBox="0 0 30 30" fill="none" xmlns="http://www.w3.org/2000/svg">
<path d="M26.6979 13.2089V0.951317C26.6979 0.858168 26.6604 0.768834 26.5938 0.702967C26.5271 0.637101 26.4366 0.600098 26.3423 0.600098H23.4446C23.3503 0.600098 23.2598 0.637101 23.1932 0.702967C23.1265 0.768834 23.089 0.858168 23.089 0.951317V5.09571C23.0867 4.43506 22.82 3.80213 22.347 3.33498C21.8741 2.86783 21.2334 2.60436 20.5646 2.60205H9.418C8.7492 2.60436 8.10846 2.86783 7.63555 3.33498C7.16263 3.80213 6.89591 4.43506 6.89357 5.09571V0.951317C6.89357 0.858168 6.85611 0.768834 6.78943 0.702967C6.72275 0.637101 6.63232 0.600098 6.53802 0.600098H3.64026C3.54596 0.600098 3.45552 0.637101 3.38884 0.702967C3.32216 0.768834 3.2847 0.858168 3.2847 0.951317V13.2264C2.48675 13.572 1.80795 14.1396 1.33123 14.86C0.854515 15.5804 0.600521 16.4224 0.600277 17.283V21.3923C0.593983 22.0842 0.753355 22.7678 1.06539 23.3874C1.37743 24.0069 1.8333 24.5448 2.39582 24.9572V27.6264C2.39512 27.8595 2.44108 28.0905 2.53106 28.306C2.62105 28.5215 2.75328 28.7173 2.92015 28.8821C3.08703 29.047 3.28525 29.1776 3.50341 29.2665C3.72157 29.3554 3.95537 29.4008 4.19137 29.4001H6.00469C6.47946 29.3955 6.93348 29.2072 7.26921 28.8755C7.60494 28.5439 7.7956 28.0954 7.80023 27.6264V25.8352H22.2001V27.6264C22.1994 27.8595 22.2454 28.0905 22.3354 28.306C22.4254 28.5215 22.5576 28.7173 22.7245 28.8821C22.8913 29.047 23.0896 29.1776 23.3077 29.2665C23.5259 29.3554 23.7597 29.4008 23.9957 29.4001H25.7912C26.2669 29.3982 26.7225 29.2108 27.0588 28.8786C27.3951 28.5463 27.5849 28.0963 27.5868 27.6264V24.9572C28.1485 24.5429 28.6048 24.005 28.9196 23.3862C29.2343 22.7675 29.3989 22.0848 29.4001 21.3923V17.283C29.3989 16.4181 29.1427 15.5722 28.6628 14.8487C28.1829 14.1252 27.5002 13.5554 26.6979 13.2089ZM7.80023 18.7406C7.79788 19.2125 7.60612 19.6643 7.26702 19.9968C6.92793 20.3293 6.46917 20.5154 5.99138 20.5142C5.51358 20.5131 5.05576 20.3248 4.71832 19.9906C4.38089 19.6565 4.19139 19.2038 4.19139 18.7318C4.19139 18.2598 4.38089 17.8071 4.71832 17.473C5.05576 17.1388 5.51358 16.9505 5.99138 16.9494C6.46917 16.9482 6.92793 17.1343 7.26702 17.4668C7.60612 17.7993 7.79788 18.2511 7.80023 18.723V18.7406ZM18.2002 23.043H11.8002C11.588 23.043 11.3846 22.9598 11.2345 22.8116C11.0845 22.6634 11.0002 22.4624 11.0002 22.2528C11.0002 22.0432 11.0845 21.8422 11.2345 21.694C11.3846 21.5458 11.588 21.4625 11.8002 21.4625H18.2002C18.4123 21.4625 18.6158 21.5458 18.7658 21.694C18.9159 21.8422 19.0002 22.0432 19.0002 22.2528C19.0002 22.4624 18.9159 22.6634 18.7658 22.8116C18.6158 22.9598 18.4123 23.043 18.2002 23.043ZM18.2002 19.5308H11.8002C11.588 19.5308 11.3846 19.4476 11.2345 19.2994C11.0845 19.1512 11.0002 18.9502 11.0002 18.7406C11.0002 18.531 11.0845 18.33 11.2345 18.1818C11.3846 18.0336 11.588 17.9503 11.8002 17.9503H18.2002C18.4123 17.9503 18.6158 18.0336 18.7658 18.1818C18.9159 18.33 19.0002 18.531 19.0002 18.7406C19.0002 18.9502 18.9159 19.1512 18.7658 19.2994C18.6158 19.4476 18.4123 19.5308 18.2002 19.5308ZM6.89357 13.402L7.9069 9.39814C7.99086 9.01814 8.20446 8.67818 8.51192 8.43521C8.81939 8.19223 9.20204 8.06101 9.59578 8.06351H20.3335C20.7366 8.05587 21.1303 8.1838 21.4501 8.42631C21.7699 8.66882 21.9968 9.01151 22.0935 9.39814L23.089 13.402H6.89357ZM23.9957 20.5142C23.6381 20.516 23.288 20.4127 22.9899 20.2175C22.6918 20.0223 22.4591 19.744 22.3214 19.418C22.1838 19.0919 22.1473 18.7328 22.2166 18.3862C22.286 18.0397 22.458 17.7213 22.7109 17.4714C22.9638 17.2216 23.2861 17.0517 23.637 16.9832C23.9878 16.9147 24.3514 16.9507 24.6814 17.0867C25.0115 17.2227 25.2932 17.4526 25.4908 17.747C25.6884 18.0415 25.793 18.3873 25.7912 18.7406C25.7894 19.2104 25.5996 19.6605 25.2633 19.9927C24.9269 20.3249 24.4713 20.5124 23.9957 20.5142Z" fill="#AAAAAA"/>
</svg>
