<svg width="18" height="18" viewBox="0 0 18 18" fill="none" xmlns="http://www.w3.org/2000/svg">
<path d="M18.0004 3.6C18.0004 5.58822 16.3886 7.2 14.4004 7.2C12.4122 7.2 10.8004 5.58822 10.8004 3.6C10.8004 1.61177 12.4122 0 14.4004 0C16.3886 0 18.0004 1.61177 18.0004 3.6Z" fill="#6692F1"/>
<path fill-rule="evenodd" clip-rule="evenodd" d="M14.4004 8.1C15.336 8.1 16.2049 7.81448 16.9247 7.32581C17.0389 7.86646 17.0985 8.42118 17.1004 8.982V8.991C17.0869 11.1433 16.2307 13.2046 14.7154 14.733C13.978 15.4836 13.0984 16.0795 12.1279 16.486C11.1574 16.8924 10.1156 17.1011 9.06339 17.1H8.95539C8.04672 17.1026 7.14477 16.9442 6.29139 16.632L1.97139 16.875C1.94507 16.8824 1.9177 16.8855 1.89039 16.884C1.8285 16.8851 1.76709 16.8728 1.71039 16.848C1.60639 16.7989 1.52512 16.7119 1.48328 16.6048C1.44144 16.4977 1.44219 16.3786 1.48539 16.272V16.263L2.66439 14.04C1.52657 12.613 0.904886 10.8431 0.900391 9.018C0.909911 6.8653 1.76596 4.80276 3.28359 3.276C4.02174 2.52337 4.90263 1.92556 5.87468 1.51758C6.84672 1.10959 7.8904 0.899639 8.94459 0.9H9.09759C9.63191 0.900074 10.1635 0.954413 10.6843 1.06139C10.1897 1.78401 9.90039 2.65822 9.90039 3.6C9.90039 4.29625 10.0585 4.95557 10.3408 5.544H4.95039C4.83104 5.544 4.71658 5.59141 4.63219 5.6758C4.5478 5.76019 4.50039 5.87465 4.50039 5.994V6.894C4.50039 7.01335 4.5478 7.12781 4.63219 7.2122C4.71658 7.29659 4.83104 7.344 4.95039 7.344H11.903C12.6176 7.82155 13.4765 8.1 14.4004 8.1ZM4.50039 8.694C4.50039 8.57465 4.5478 8.46019 4.63219 8.3758C4.71658 8.29141 4.83104 8.244 4.95039 8.244H9.45039C9.56974 8.244 9.6842 8.29141 9.76859 8.3758C9.85298 8.46019 9.90039 8.57465 9.90039 8.694V9.594C9.90039 9.71335 9.85298 9.82781 9.76859 9.9122C9.6842 9.99659 9.56974 10.044 9.45039 10.044H4.95039C4.83104 10.044 4.71658 9.99659 4.63219 9.9122C4.5478 9.82781 4.50039 9.71335 4.50039 9.594V8.694ZM13.5004 12.294C13.5004 12.4133 13.453 12.5278 13.3686 12.6122C13.2842 12.6966 13.1697 12.744 13.0504 12.744H4.95039C4.83104 12.744 4.71658 12.6966 4.63219 12.6122C4.5478 12.5278 4.50039 12.4133 4.50039 12.294V11.394C4.50039 11.2747 4.5478 11.1602 4.63219 11.0758C4.71658 10.9914 4.83104 10.944 4.95039 10.944H13.0504C13.1697 10.944 13.2842 10.9914 13.3686 11.0758C13.453 11.1602 13.5004 11.2747 13.5004 11.394V12.294Z" fill="#6692F1"/>
</svg>
