<svg xmlns="http://www.w3.org/2000/svg" width="20" height="20" viewBox="0 0 20 20">
  <g id="Group_70370" data-name="Group 70370" transform="translate(-18 -114)">
    <g id="Dashboard" transform="translate(-74 -474)">
      <rect id="Rectangle_52457" data-name="Rectangle 52457" width="20" height="20" transform="translate(92 588)" fill="none"/>
      <path id="Path_35301" data-name="Path 35301" d="M8.345,10.209a1.5,1.5,0,0,0,.558,1.13c.59.475,1.2.94,1.824,1.369,1.1.759,2.23,1.48,3.346,2.219a.593.593,0,0,0,.517.106.527.527,0,0,0,.354-.656.515.515,0,0,0-.069-.146c-.169-.282-.35-.561-.536-.834-.9-1.315-1.793-2.631-2.7-3.939a2.37,2.37,0,0,0-.915-.865A1.681,1.681,0,0,0,8.346,10.21" transform="translate(92 588)" fill="#dadada"/>
      <path id="Path_35302" data-name="Path 35302" d="M6.758,5.368A5.654,5.654,0,0,1,8.982,4.45a.576.576,0,0,0,.487-.561V1.632a.561.561,0,0,0-.554-.568l-.057,0a9.923,9.923,0,0,0-4.4,1.82.561.561,0,0,0-.071.791.514.514,0,0,0,.038.042l1.6,1.6a.574.574,0,0,0,.738.051" transform="translate(92 588)" fill="#dadada"/>
      <path id="Path_35303" data-name="Path 35303" d="M11.043,4.451a5.658,5.658,0,0,1,2.207.909.57.57,0,0,0,.731-.053L15.565,3.72a.571.571,0,0,0-.008-.808.609.609,0,0,0-.061-.053A8.927,8.927,0,0,0,11.215,1.1a.571.571,0,0,0-.652.48.554.554,0,0,0-.007.081V3.89a.578.578,0,0,0,.487.561" transform="translate(92 588)" fill="#dadada"/>
      <path id="Path_35304" data-name="Path 35304" d="M14.719,6.837a5.64,5.64,0,0,1,.919,2.2.569.569,0,0,0,.554.48h2.242A.573.573,0,0,0,19,8.941a.516.516,0,0,0-.006-.079,8.924,8.924,0,0,0-1.78-4.275.573.573,0,0,0-.8-.122.62.62,0,0,0-.062.053L14.772,6.1a.576.576,0,0,0-.053.74" transform="translate(92 588)" fill="#dadada"/>
      <path id="Path_35305" data-name="Path 35305" d="M1.556,13.4c-.035-.091-.072-.181-.1-.274A8.949,8.949,0,0,1,1.007,11.3a.571.571,0,0,1,.479-.651.554.554,0,0,1,.081-.007H3.808a.571.571,0,0,1,.554.48c.063.286.132.535.2.767.04.116.077.234.124.347l.016.041a5.732,5.732,0,0,0,.537.989,9.984,9.984,0,0,0,.707.881.519.519,0,0,1,.025.734l-.042.04q-.774.78-1.552,1.553a.533.533,0,0,1-.752.075.52.52,0,0,1-.084-.085,9.04,9.04,0,0,1-1.9-2.853c-.03-.07-.057-.141-.084-.212" transform="translate(92 588)" fill="#dadada"/>
      <path id="Path_35306" data-name="Path 35306" d="M4.373,9.038a5.655,5.655,0,0,1,.906-2.2A.571.571,0,0,0,5.227,6.1L3.641,4.516a.573.573,0,0,0-.81.009.588.588,0,0,0-.052.06A8.928,8.928,0,0,0,1.015,8.866a.573.573,0,0,0,.481.652.529.529,0,0,0,.08.007H3.809a.577.577,0,0,0,.564-.487" transform="translate(92 588)" fill="#dadada"/>
      <path id="Path_35307" data-name="Path 35307" d="M15.1,15.958l.407.407.114.114a.645.645,0,0,0,.286.165.428.428,0,0,0,.062.014.443.443,0,0,0,.126,0,.234.234,0,0,0,.038-.009.621.621,0,0,0,.321-.182,8.888,8.888,0,0,0,1.8-2.63.147.147,0,0,0,.023-.045,1.709,1.709,0,0,0,.079-.181c.034-.068.057-.142.085-.21.039-.09.073-.181.107-.278.022-.06.035-.124.055-.185s.03-.1.045-.15a7.976,7.976,0,0,0,.213-.8.261.261,0,0,1,.009-.038c.009-.045.014-.09.023-.135.033-.169.073-.338.1-.516A.582.582,0,0,0,19,11.2a.567.567,0,0,0-.566-.556H16.192a.57.57,0,0,0-.555.475c-.062.29-.131.539-.2.771-.04.114-.079.232-.124.346a1.01,1.01,0,0,1-.084.187,1.264,1.264,0,0,1-.063.141.379.379,0,0,0,.1.337c.142.192.253.408.4.607a1.643,1.643,0,0,1-.319,2.3,1.726,1.726,0,0,1-.242.152" transform="translate(92 588)" fill="#dadada"/>
    </g>
  </g>
</svg>
