<svg xmlns="http://www.w3.org/2000/svg" width="20" height="20" viewBox="0 0 20 20">
  <g id="Group_70374" data-name="Group 70374" transform="translate(-102 -962)">
    <g id="Whats_New" data-name="Whats New" transform="translate(10 34)">
      <rect id="Rectangle_52468" data-name="Rectangle 52468" width="20" height="20" transform="translate(92 928)" fill="none"/>
      <path id="Path_35324" data-name="Path 35324" d="M10,1a9,9,0,1,0,9,9,9,9,0,0,0-9-9m0,3.992A1.524,1.524,0,1,1,8.476,6.516,1.524,1.524,0,0,1,10,4.992m2.032,9.218a.437.437,0,0,1-.435.435H8.4a.437.437,0,0,1-.435-.435v-.871A.436.436,0,0,1,8.4,12.9h.437V10.581H8.4a.437.437,0,0,1-.435-.435V9.275A.437.437,0,0,1,8.4,8.84h2.323a.437.437,0,0,1,.435.435V12.9H11.6a.437.437,0,0,1,.435.435Z" transform="translate(92 928)" fill="#dadada"/>
    </g>
    <g id="User_Status" data-name="User Status" transform="translate(111 959.229)">
      <circle id="Ellipse_635" data-name="Ellipse 635" cx="4" cy="4" r="4" transform="translate(3 2.771)" fill="#fff"/>
      <circle id="Ellipse_636" data-name="Ellipse 636" cx="3" cy="3" r="3" transform="translate(4 3.771)" fill="#91a4c7"/>
    </g>
  </g>
</svg>
