<svg xmlns="http://www.w3.org/2000/svg" width="21" height="21" viewBox="0 0 21 21">
  <g id="Group_70372" data-name="Group 70372" transform="translate(-17.5 -177.5)">
    <g id="List" transform="translate(-74 -420)">
      <rect id="Rectangle_52458" data-name="Rectangle 52458" width="20" height="20" transform="translate(92 598)" fill="none" stroke="rgba(0,0,0,0)" stroke-width="1"/>
      <path id="Path_35308" data-name="Path 35308" d="M4.462,14.846H1.693A.692.692,0,0,0,1,15.538v2.769A.693.693,0,0,0,1.693,19H4.462a.692.692,0,0,0,.692-.693V15.538a.692.692,0,0,0-.692-.692M4.462,1H1.693A.692.692,0,0,0,1,1.692V4.461a.692.692,0,0,0,.693.692H4.462a.692.692,0,0,0,.692-.692V1.692A.692.692,0,0,0,4.462,1m0,6.923H1.693A.692.692,0,0,0,1,8.615v2.769a.693.693,0,0,0,.693.693H4.462a.692.692,0,0,0,.692-.693V8.615a.692.692,0,0,0-.692-.692m13.846,7.615H7.616a.692.692,0,0,0-.693.692v1.385a.692.692,0,0,0,.693.692H18.308A.692.692,0,0,0,19,17.615V16.23a.692.692,0,0,0-.692-.692m0-13.846H7.616a.692.692,0,0,0-.693.692V3.769a.692.692,0,0,0,.693.692H18.308A.692.692,0,0,0,19,3.769V2.384a.692.692,0,0,0-.692-.692m0,6.923H7.616a.692.692,0,0,0-.693.692v1.385a.692.692,0,0,0,.693.692H18.308A.692.692,0,0,0,19,10.692V9.307a.692.692,0,0,0-.692-.692" transform="translate(92 598)" fill="#dadada" stroke="rgba(0,0,0,0)" stroke-width="1"/>
    </g>
  </g>
</svg>
