<svg xmlns="http://www.w3.org/2000/svg" width="20" height="20" viewBox="0 0 20 20">
  <g id="Group_70376" data-name="Group 70376" transform="translate(-18 -338)">
    <g id="Report" transform="translate(-74 -425)">
      <rect id="Rectangle_52463" data-name="Rectangle 52463" width="20" height="20" transform="translate(92 763)" fill="none"/>
      <path id="Path_35317" data-name="Path 35317" d="M17.256,4.691,13.814,1.246a.844.844,0,0,0-.6-.246H13V4.9a.6.6,0,0,0,.6.6h3.9V5.286a.844.844,0,0,0-.246-.595m-5.379.09V1H3.346a.844.844,0,0,0-.844.844V18.156A.844.844,0,0,0,3.346,19H16.658a.844.844,0,0,0,.844-.844V6.625H13.721a1.85,1.85,0,0,1-1.844-1.844M7.752,15.55A.484.484,0,0,1,7.3,16H5.952a.484.484,0,0,1-.45-.45V13.075a.484.484,0,0,1,.45-.45H7.3a.484.484,0,0,1,.45.45Zm3.375,0a.484.484,0,0,1-.45.45H9.327a.484.484,0,0,1-.45-.45V8.575a.484.484,0,0,1,.45-.45h1.35a.484.484,0,0,1,.45.45Zm1.125-4.725a.484.484,0,0,1,.45-.45h1.35a.484.484,0,0,1,.45.45V15.55a.484.484,0,0,1-.45.45H12.7a.484.484,0,0,1-.45-.45Z" transform="translate(92 763)" fill="#dadada"/>
    </g>
  </g>
</svg>
