<svg xmlns="http://www.w3.org/2000/svg" width="20" height="20" viewBox="0 0 20 20">
  <g id="Settings" transform="translate(-92 -966)">
    <rect id="Rectangle_52469" data-name="Rectangle 52469" width="20" height="20" transform="translate(92 966)" fill="none"/>
    <path id="Path_35325" data-name="Path 35325" d="M3.49,2.372,2.317,3.553a1.129,1.129,0,0,0,.006,1.6L3,5.822a8.141,8.141,0,0,0-.922,2.25H1.123A1.123,1.123,0,0,0,0,9.2l.006,1.666a1.131,1.131,0,0,0,1.131,1.127H2.1a8.076,8.076,0,0,0,.94,2.246l-.674.678a1.127,1.127,0,0,0,.006,1.594l1.184,1.175a1.127,1.127,0,0,0,1.594-.007L5.819,17a8.113,8.113,0,0,0,2.25.923v.957A1.125,1.125,0,0,0,9.2,20l1.666-.007a1.132,1.132,0,0,0,1.127-1.132V17.9a8.137,8.137,0,0,0,2.246-.94l.679.674a1.127,1.127,0,0,0,1.594-.006l1.174-1.184a1.127,1.127,0,0,0-.007-1.594L17,14.181a8.178,8.178,0,0,0,.922-2.254h.953A1.13,1.13,0,0,0,20,10.8l-.006-1.662a1.133,1.133,0,0,0-1.132-1.128H17.9a8.1,8.1,0,0,0-.941-2.242l.673-.679a1.129,1.129,0,0,0-.006-1.6L16.447,2.317a1.129,1.129,0,0,0-1.6.007L14.179,3a8.08,8.08,0,0,0-2.25-.922V1.126A1.128,1.128,0,0,0,10.8,0L9.134.007A1.131,1.131,0,0,0,8.008,1.138V2.1a8.11,8.11,0,0,0-2.245.939l-.677-.67a1.13,1.13,0,0,0-1.6.007m2.7,3.853a5.369,5.369,0,1,1,.032,7.589h0a5.365,5.365,0,0,1-.032-7.587h0Z" transform="translate(92 966)" fill="#dadada"/>
    <path id="Path_35326" data-name="Path 35326" d="M9.4,6.957A3.107,3.107,0,1,1,6.956,9.4,3.11,3.11,0,0,1,9.4,6.957" transform="translate(92 966)" fill="#dadada"/>
  </g>
</svg>
