<svg xmlns="http://www.w3.org/2000/svg" width="20" height="20" viewBox="0 0 20 20">
  <g id="Safety" transform="translate(-92 -694)">
    <rect id="Rectangle_52461" data-name="Rectangle 52461" width="20" height="20" transform="translate(92 694)" fill="none"/>
    <path id="Path_35314" data-name="Path 35314" d="M17.607,3.774,10.669.883a1.742,1.742,0,0,0-1.334,0L2.4,3.774a1.732,1.732,0,0,0-1.069,1.6c0,7.173,4.137,12.131,8,13.742a1.731,1.731,0,0,0,1.333,0c3.1-1.29,8.008-5.745,8.008-13.742a1.735,1.735,0,0,0-1.066-1.6M10,16.877,10,3.109l6.357,2.649C16.238,11.229,13.39,15.193,10,16.877Z" transform="translate(92 694)" fill="#b7b7b7"/>
  </g>
</svg>
