<svg xmlns="http://www.w3.org/2000/svg" width="32" height="32" viewBox="0 0 32 32">
  <g id="Group_70371" data-name="Group 70371" transform="translate(-164 -70)">
    <circle id="Ellipse_6374" data-name="Ellipse 6374" cx="16" cy="16" r="16" transform="translate(164 70)" fill="#f9f9f9"/>
    <g id="Search" transform="translate(-389 -314)">
      <path id="Path_35329" data-name="Path 35329" d="M15.783,13.838,14.044,12.1a.747.747,0,0,0-.53-.22h-.5a7.235,7.235,0,0,0,1.61-4.564,7.31,7.31,0,1,0-2.749,5.7v.485a.746.746,0,0,0,.22.53l1.739,1.747a.753.753,0,0,0,1.059,0l.89-.878a.766.766,0,0,0,0-1.07M7.316,12.121a4.8,4.8,0,1,1,4.809-4.8,4.806,4.806,0,0,1-4.809,4.8" transform="translate(561 392)" fill="#dadada"/>
    </g>
  </g>
</svg>
