<svg xmlns="http://www.w3.org/2000/svg" width="20" height="20" viewBox="0 0 20 20">
  <g id="Group_70374" data-name="Group 70374" transform="translate(-18 -274)">
    <g id="Tools" transform="translate(-74 -459)">
      <rect id="Rectangle_52462" data-name="Rectangle 52462" width="20" height="20" transform="translate(92 733)" fill="none"/>
      <path id="Path_35315" data-name="Path 35315" d="M14.5,10.994v.563a.564.564,0,0,1-.563.564H12.814a.564.564,0,0,1-.563-.564v-.563h-4.5v.563a.564.564,0,0,1-.562.564H6.064a.564.564,0,0,1-.563-.564v-.563H1v5.754A2.252,2.252,0,0,0,3.252,19h13.5A2.251,2.251,0,0,0,19,16.748V10.994Z" transform="translate(92 733)" fill="#dadada"/>
      <path id="Path_35316" data-name="Path 35316" d="M5.5,8.889a.559.559,0,0,1,.56-.559h1.13a.559.559,0,0,1,.56.559V9.45h4.5V8.889a.559.559,0,0,1,.56-.559h1.13a.559.559,0,0,1,.56.559V9.45H19V7.94a2.253,2.253,0,0,0-2.25-2.25H14.5V3.5A2.5,2.5,0,0,0,12,1H8A2.5,2.5,0,0,0,5.5,3.5V5.69H3.249A2.253,2.253,0,0,0,1,7.94V9.45H5.5ZM7.749,3.75a.5.5,0,0,1,.5-.5h3.5a.5.5,0,0,1,.5.5V5.69h-4.5Z" transform="translate(92 733)" fill="#dadada"/>
    </g>
  </g>
</svg>
