<svg xmlns="http://www.w3.org/2000/svg" xmlns:xlink="http://www.w3.org/1999/xlink" width="44" height="44" viewBox="0 0 44 44">
  <defs>
    <filter id="Ellipse_6368" x="0" y="0" width="44" height="44" filterUnits="userSpaceOnUse">
      <feOffset input="SourceAlpha"/>
      <feGaussianBlur stdDeviation="2" result="blur"/>
      <feFlood flood-opacity="0.161"/>
      <feComposite operator="in" in2="blur"/>
      <feComposite in="SourceGraphic"/>
    </filter>
    <linearGradient id="linear-gradient" x1="1" x2="0" y2="1" gradientUnits="objectBoundingBox">
      <stop offset="0" stop-color="#91a4c7"/>
      <stop offset="1" stop-color="#5673aa"/>
    </linearGradient>
  </defs>
  <g id="Group_70370" data-name="Group 70370" transform="translate(-6 -64)">
    <g transform="matrix(1, 0, 0, 1, 6, 64)" filter="url(#Ellipse_6368)">
      <circle id="Ellipse_6368-2" data-name="Ellipse 6368" cx="16" cy="16" r="16" transform="translate(6 6)" fill="#fff"/>
    </g>
    <path id="plus" d="M14.857,38.286H9.714V33.143A1.143,1.143,0,0,0,8.571,32H7.429a1.143,1.143,0,0,0-1.143,1.143v5.143H1.143A1.143,1.143,0,0,0,0,39.429v1.143a1.143,1.143,0,0,0,1.143,1.143H6.286v5.143A1.143,1.143,0,0,0,7.429,48H8.571a1.143,1.143,0,0,0,1.143-1.143V41.714h5.143A1.143,1.143,0,0,0,16,40.571V39.429A1.143,1.143,0,0,0,14.857,38.286Z" transform="translate(20 46)" stroke="rgba(0,0,0,0)" stroke-miterlimit="10" stroke-width="1" fill="url(#linear-gradient)"/>
  </g>
</svg>
