<svg xmlns="http://www.w3.org/2000/svg" width="21" height="21" viewBox="0 0 21 21">
  <g id="Chat" transform="translate(-91.5 -827.5)">
    <rect id="Rectangle_52465" data-name="Rectangle 52465" width="20" height="20" transform="translate(92 828)" fill="none" stroke="rgba(0,0,0,0)" stroke-width="1"/>
    <path id="person-to-portal" d="M15.156,0c-1.433,0-2.616,3.436-2.787,7.843h-.448L11,5.971A3.38,3.38,0,0,0,8.832,4.179L6.363,3.468a3.368,3.368,0,0,0-2.841.6l-1.4,1.071A1.125,1.125,0,0,0,3.5,6.927L4.89,5.857a1.1,1.1,0,0,1,.889-.217l.516.152L4.982,8.866a2.254,2.254,0,0,0,.925,2.822l2.988,1.764-.966,3.085a1.124,1.124,0,1,0,2.145.674l1.115-3.554a1.689,1.689,0,0,0-.763-1.912l-2.152-1.3,1.1-2.754.712,1.458a1.706,1.706,0,0,0,1.516.945h.8c.171,4.437,1.355,7.875,2.788,7.875,1.551,0,2.813-4,2.813-9S16.738,0,15.156,0ZM9.563,3.375A1.682,1.682,0,0,0,11.25,1.719,1.736,1.736,0,0,0,9.563,0a1.688,1.688,0,0,0,0,3.375ZM3.994,11.162l-.518,1.181H1.125A1.152,1.152,0,0,0,0,13.5a1.127,1.127,0,0,0,1.125,1.125H3.848A1.68,1.68,0,0,0,5.4,13.6l.31-.721-.374-.221A3.231,3.231,0,0,1,3.994,11.162Z" transform="translate(93 829)" fill="#ff8080" stroke="rgba(0,0,0,0)" stroke-width="1"/>
  </g>
</svg>
