<svg xmlns="http://www.w3.org/2000/svg" width="32" height="32" viewBox="0 0 32 32">
  <g id="Group_70373" data-name="Group 70373" transform="translate(-240 -70)">
    <circle id="Ellipse_6376" data-name="Ellipse 6376" cx="16" cy="16" r="16" transform="translate(240 70)" fill="#f9f9f9"/>
    <g id="Notification" transform="translate(-385.004 -314.01)">
      <path id="Path_35330" data-name="Path 35330" d="M80,16a2,2,0,0,0,2-2H78a2,2,0,0,0,2,2m6.731-4.678C86.131,10.676,85,9.7,85,6.5a4.935,4.935,0,0,0-4-4.848V1a1,1,0,1,0-2,0v.652a4.934,4.934,0,0,0-4,4.848c0,3.2-1.13,4.173-1.734,4.822A.981.981,0,0,0,73,12a1,1,0,0,0,1,1H86a1,1,0,0,0,1-1,.975.975,0,0,0-.269-.678" transform="translate(561 392)" fill="#dadada"/>
    </g>
    <g id="User_Status" data-name="User Status" transform="translate(253 74.229)">
      <circle id="Ellipse_635" data-name="Ellipse 635" cx="4" cy="4" r="4" transform="translate(3 2.771)" fill="#f7f7f7"/>
      <circle id="Ellipse_636" data-name="Ellipse 636" cx="3" cy="3" r="3" transform="translate(4 3.771)" fill="#91a4c7"/>
    </g>
  </g>
</svg>
