<svg xmlns="http://www.w3.org/2000/svg" width="32" height="32" viewBox="0 0 32 32">
  <g id="Group_70896" data-name="Group 70896" transform="translate(-232 -66)">
    <circle id="Ellipse_6376" data-name="Ellipse 6376" cx="16" cy="16" r="16" transform="translate(232 66)" fill="#f9f9f9"/>
    <path id="Path_35724" data-name="Path 35724" d="M9.169,17.6a2.137,2.137,0,0,0,2.137-2.137H7.031A2.137,2.137,0,0,0,9.169,17.6m7.194-5c-.642-.69-1.85-1.733-1.85-5.153a5.273,5.273,0,0,0-4.275-5.181v-.7a1.069,1.069,0,1,0-2.137,0v.7A5.275,5.275,0,0,0,3.824,7.447c0,3.42-1.207,4.46-1.853,5.153a1.055,1.055,0,0,0-.284.725,1.069,1.069,0,0,0,1.069,1.069H15.581a1.069,1.069,0,0,0,1.068-1.069,1.04,1.04,0,0,0-.287-.725" transform="translate(238.831 72.95)" fill="#b7b7b7"/>
  </g>
</svg>
