<svg xmlns="http://www.w3.org/2000/svg" width="21" height="21" viewBox="0 0 21 21">
  <g id="Places" transform="translate(-91.5 -888.5)">
    <rect id="Rectangle_52467" data-name="Rectangle 52467" width="20" height="20" transform="translate(92 889)" fill="none" stroke="rgba(0,0,0,0)" stroke-width="1"/>
    <path id="question" d="M31.8,0a6.812,6.812,0,0,0-6.051,3.2.845.845,0,0,0,.182,1.156l1.517,1.15a.844.844,0,0,0,1.169-.146c.881-1.1,1.534-1.738,2.909-1.738,1.082,0,2.419.7,2.419,1.745,0,.793-.655,1.2-1.722,1.8-1.245.7-2.893,1.567-2.893,3.741v.344a.844.844,0,0,0,.844.844h2.548a.844.844,0,0,0,.844-.844v-.2c0-1.507,4.4-1.57,4.4-5.647C37.969,2.329,34.784,0,31.8,0Zm-.352,13.129a2.435,2.435,0,1,0,2.435,2.435A2.438,2.438,0,0,0,31.447,13.129Z" transform="translate(70.217 890)" fill="#b7b7b7"/>
  </g>
</svg>
