<svg xmlns="http://www.w3.org/2000/svg" width="32" height="32" viewBox="0 0 32 32">
  <g id="Group_70894" data-name="Group 70894" transform="translate(-3054 -66)">
    <circle id="Ellipse_6614" data-name="Ellipse 6614" cx="16" cy="16" r="16" transform="translate(3054 66)" fill="#f9f9f9"/>
    <g id="Group_70890" data-name="Group 70890" transform="translate(2819.109 36)">
      <rect id="Rectangle_56975" data-name="Rectangle 56975" width="18" height="18" transform="translate(241.891 37)" fill="none"/>
      <path id="Path_35726" data-name="Path 35726" d="M62.885,1.5H49.206a.8.8,0,0,0-.815.791V15.985a.816.816,0,0,0,.815.815h8.157V12.218a1.765,1.765,0,0,1,1.759-1.759h4.569V2.3a.8.8,0,0,0-.788-.8h-.019" transform="translate(195.75 36.85)" fill="#b7b7b7"/>
      <path id="Path_35727" data-name="Path 35727" d="M59.544,13.229v4.684h.21a.779.779,0,0,0,.564-.238l4.253-4.253a.816.816,0,0,0,.227-.565v-.2H60.117a.569.569,0,0,0-.573.564v.01" transform="translate(194.635 35.735)" fill="#b7b7b7"/>
    </g>
  </g>
</svg>
