<svg xmlns="http://www.w3.org/2000/svg" width="20" height="20" viewBox="0 0 20 20">
  <g id="Chat" transform="translate(-92 -828)">
    <rect id="Rectangle_52465" data-name="Rectangle 52465" width="20" height="20" transform="translate(92 828)" fill="none"/>
    <path id="check-circle" d="M26,17a9,9,0,1,1-9-9A9,9,0,0,1,26,17ZM15.959,21.765l6.677-6.677a.581.581,0,0,0,0-.821l-.821-.821a.581.581,0,0,0-.821,0l-5.446,5.446-2.542-2.542a.581.581,0,0,0-.821,0l-.821.821a.581.581,0,0,0,0,.821l3.774,3.774a.581.581,0,0,0,.821,0Z" transform="translate(85 821)" fill="#3bcbae"/>
  </g>
</svg>
