<svg xmlns="http://www.w3.org/2000/svg" width="20" height="20" viewBox="0 0 20 20">
  <g id="Company" transform="translate(-1466 -745)">
    <path id="Path_35379" data-name="Path 35379" d="M10,19h-8.3c-.5,0-.691-.183-.691-.685V17.04a.546.546,0,0,1,.412-.576c.165-.058.332-.109.5-.166a1.192,1.192,0,0,0,.89-1.254V2.372a1.29,1.29,0,0,1,.918-1.307A1.633,1.633,0,0,1,4.183,1H15.824A1.3,1.3,0,0,1,17.2,2.22a1.055,1.055,0,0,1,0,.159V15.013a1.2,1.2,0,0,0,.934,1.3c.17.057.344.112.511.177a.509.509,0,0,1,.352.5c0,.487.007.974,0,1.462a.532.532,0,0,1-.582.546H10M5.8,5.8v.843A.622.622,0,0,0,6.39,7.3a.445.445,0,0,0,.073,0H8.149A.62.62,0,0,0,8.8,6.711a.561.561,0,0,0,0-.058q.006-.852,0-1.7a.622.622,0,0,0-.59-.652.442.442,0,0,0-.063,0H6.462a.622.622,0,0,0-.66.583q0,.036,0,.072V5.8m6.879,1.5h.881a.62.62,0,0,0,.637-.6V6.658q.006-.852,0-1.7a.622.622,0,0,0-.591-.651H11.851a.619.619,0,0,0-.646.592.581.581,0,0,0,0,.059q-.006.841,0,1.685a.624.624,0,0,0,.583.661q.036,0,.072,0h.824M8.8,10.6V9.776A.625.625,0,0,0,8.228,9.1a.553.553,0,0,0-.091,0H6.47a.624.624,0,0,0-.668.577.676.676,0,0,0,0,.09v1.667a.623.623,0,0,0,.582.663.558.558,0,0,0,.071,0H8.141a.623.623,0,0,0,.658-.587.421.421,0,0,0,0-.071V10.6m3.9-1.5h-.861a.622.622,0,0,0-.637.608v.035c-.005.568,0,1.136,0,1.7a.621.621,0,0,0,.589.651h1.757a.622.622,0,0,0,.647-.6.523.523,0,0,0,0-.056V9.755a.624.624,0,0,0-.584-.66c-.024,0-.047,0-.071,0h-.844" transform="translate(1466 745)" fill="#dadada"/>
    <rect id="Rectangle_52875" data-name="Rectangle 52875" width="20" height="20" transform="translate(1466 745)" fill="none"/>
  </g>
</svg>
