<svg xmlns="http://www.w3.org/2000/svg" width="32" height="32" viewBox="0 0 32 32">
  <g id="Group_70372" data-name="Group 70372" transform="translate(-202 -70)">
    <circle id="Ellipse_6375" data-name="Ellipse 6375" cx="16" cy="16" r="16" transform="translate(202 70)" fill="#f9f9f9"/>
    <g id="Note" transform="translate(-387.947 -313.004)">
      <path id="Path_35327" data-name="Path 35327" d="M48.446,11.066v4.594h.206a.765.765,0,0,0,.553-.234l4.172-4.172A.8.8,0,0,0,53.6,10.7v-.2H49.008a.558.558,0,0,0-.562.563" transform="translate(560.344 391.344)" fill="#dadada"/>
      <path id="Path_35328" data-name="Path 35328" d="M52.16,0H38.744a.788.788,0,0,0-.8.787V14.206a.8.8,0,0,0,.8.8h8V10.512a1.732,1.732,0,0,1,1.725-1.725h4.482v-8A.78.78,0,0,0,52.16,0" transform="translate(561 392)" fill="#dadada"/>
    </g>
  </g>
</svg>
