<svg width="314" height="92" viewBox="0 0 314 92" fill="none" xmlns="http://www.w3.org/2000/svg">
<path d="M312 92H2C1.46957 92 0.960859 91.7893 0.585786 91.4142C0.210714 91.0391 0 90.5304 0 90V2C0 1.46957 0.210714 0.960859 0.585786 0.585786C0.960859 0.210714 1.46957 0 2 0L312 0C312.53 0 313.039 0.210714 313.414 0.585786C313.789 0.960859 314 1.46957 314 2V90C314 90.5304 313.789 91.0391 313.414 91.4142C313.039 91.7893 312.53 92 312 92Z" fill="url(#paint0_linear_380_6716)"/>
<path d="M46.52 63.0529C44.853 61.9789 45.027 58.7439 46.906 55.8259C48.785 52.9079 51.661 51.4149 53.328 52.4889C54.995 53.5629 54.821 56.7979 52.942 59.7159C51.063 62.6339 48.187 64.1269 46.52 63.0529Z" fill="#AAAAAA"/>
<path d="M47.7702 63.1061C48.7132 65.3981 45.7632 68.7861 41.1842 70.6731C36.6052 72.5601 30.1172 66.9151 30.1172 66.9151C32.42 65.0351 34.9872 63.5047 37.7362 62.3731C42.3512 60.4881 46.8362 60.8151 47.7692 63.1061" fill="#AAAAAA"/>
<path d="M54.4643 54.8057C54.1883 55.8426 53.7495 56.8292 53.1643 57.7287C51.2823 60.6427 48.4213 62.1337 46.7473 61.0647C46.3879 60.7972 46.0974 60.4478 45.9002 60.0455C45.703 59.6432 45.6046 59.1996 45.6133 58.7517C45.1213 60.6597 45.4133 62.3397 46.5243 63.0597C48.1893 64.1127 51.0673 62.6447 52.9473 59.7237C53.9456 58.2784 54.4756 56.5612 54.4653 54.8047" fill="#424242"/>
<path d="M47.8603 63.377C46.4167 65.8607 44.1275 67.742 41.4113 68.677C38.0212 70.077 33.6182 67.359 31.5472 65.842C30.6552 66.485 30.1562 66.895 30.1562 66.895C30.1562 66.895 36.6122 72.541 41.2222 70.652C45.6012 68.852 48.4883 65.663 47.8612 63.375" fill="#424242"/>
<path d="M37.4215 68.8964C37.3284 68.8345 37.2386 68.7678 37.1525 68.6964L37.1045 68.6484L33.6155 77.2034L30.6875 87.1034H32.9335L34.6085 77.3034L37.4215 68.8964Z" fill="#424242"/>
<path d="M43.4932 68.5781L52.9522 73.2091L54.0152 87.1091H51.7702L51.7122 73.4771L43.2422 68.9561L43.4932 68.5781Z" fill="#424242"/>
<path d="M49.5334 63.7333L49.0064 83.2333L46.8984 82.1803L49.5324 53.7223L50.5854 53.1953V55.3033L49.5334 63.7333Z" fill="#424242"/>
<path d="M62.069 86.7734H30" stroke="#AAAAAA" stroke-width="2" stroke-miterlimit="10"/>
<path d="M53.2063 52.7768C52.8975 52.4597 52.5026 52.2399 52.0703 52.1448L57.2703 43.7278L75.3363 36.4688L75.9663 38.9788L58.1853 44.8738L53.3983 53.0297C53.3396 52.9416 53.2751 52.8574 53.2053 52.7778" fill="#424242"/>
<path d="M58.0614 57.2654C58.0614 57.2654 52.9504 55.6844 51.9694 52.2274C50.9884 48.7704 52.1274 45.4194 54.5084 44.7444C56.8894 44.0694 59.6194 46.3254 60.6004 49.7834C61.5814 53.2414 58.0614 57.2654 58.0614 57.2654Z" fill="#AAAAAA"/>
<path d="M60.7622 51.4762C60.2305 53.013 59.4252 54.441 58.3852 55.6912C58.3852 55.6912 53.2742 54.1102 52.2952 50.6542C51.9965 49.6285 51.8857 48.5573 51.9682 47.4922C51.5002 49.0385 51.5002 50.6888 51.9682 52.2352C52.9492 55.6912 58.0592 57.2722 58.0592 57.2722C59.4737 55.6228 60.4077 53.6164 60.7592 51.4722" fill="#424242"/>
<path d="M53.5999 47.8075C53.5999 47.8075 63.4059 40.6075 64.7179 48.0555C66.0299 55.5035 63.3039 61.3605 62.3769 61.1555C61.4499 60.9505 60.2069 59.9675 60.9659 58.6985C61.7249 57.4295 61.7449 59.5915 61.7449 59.5915C61.7449 59.5915 62.6939 61.9465 63.7259 57.1555C64.7579 52.3645 65.3069 45.3145 61.9129 45.2995C58.5189 45.2845 53.9199 48.5935 53.9199 48.5935C53.9199 48.5935 52.8389 49.0725 53.5989 47.8025" fill="#424242"/>
<path d="M59.1376 47.0578C58.2896 47.0578 57.6036 47.3058 57.2296 47.0168C57.0606 46.8848 56.8556 46.6109 56.9296 46.3859C57.0036 46.1609 57.2296 46.3008 57.2296 46.3008C57.2296 46.3008 62.9416 45.4729 68.0946 52.4069C73.2476 59.3409 68.8376 64.8068 68.2046 64.8158C67.5716 64.8249 65.0436 64.0728 65.6436 62.5159C66.2436 60.9588 66.9176 63.2799 66.9176 63.2799C66.9176 63.2799 67.5716 64.8298 68.8176 62.4898C69.3604 61.5588 69.6935 60.5204 69.7935 59.4473C69.8935 58.3742 69.7581 57.2922 69.3966 56.2769C68.7446 54.7279 64.2196 47.0089 59.1346 47.0609" fill="#424242"/>
<path d="M143.669 62.3818L78.8035 57.6558C76.0915 57.4838 74.0145 54.4558 74.1725 50.8958L75.9995 20.6318L76.3675 12.5618C76.5135 9.33779 78.6225 6.85279 81.0785 7.00679L132.138 10.8718L146.406 11.7718C149.117 11.9428 151.192 14.9718 151.035 18.5308L148.883 56.2768C148.709 59.8318 146.377 62.5638 143.668 62.3868" fill="#E5E5E5"/>
<path d="M142.945 62.0703L78.7715 57.3313C76.1175 57.1593 74.0895 54.1403 74.2425 50.5833L75.9585 20.9333L76.3135 12.8773C76.4555 9.66226 78.5135 7.17726 80.9135 7.33526L131.588 11.2113L145.535 12.1113C148.189 12.2823 150.216 15.3003 150.065 18.8573L148.037 55.9713C147.868 59.5173 145.59 62.2443 142.937 62.0713" fill="white"/>
<path d="M79.1993 37.6463C78.4466 38.9498 77.2096 39.9033 75.7573 40.2993C73.6123 40.6613 73.8863 37.8993 73.8863 37.8993C74.9216 38.1804 76.0077 38.219 77.0603 38.0122C78.0293 37.5882 79.4743 36.9623 79.2003 37.6503" fill="#424242"/>
<path d="M90.9544 28.2803L92.9832 28.4936L90.1258 19.747L88.2163 19.5463L83.6148 27.5089L85.5959 27.7171L86.524 26.0048L90.4026 26.4124L90.9544 28.2803ZM87.2988 24.6021L88.9597 21.5429L89.9482 24.8805L87.2988 24.6021ZM99.2693 20.2012L98.942 23.3161C98.5317 22.742 97.8897 22.4212 97.1021 22.3384C95.2881 22.1477 93.7563 23.2899 93.5443 25.3068C93.3323 27.3237 94.5932 28.7593 96.4072 28.95C97.2664 29.0403 97.9755 28.8373 98.4999 28.3253L98.4222 29.0652L100.2 29.2521L101.131 20.3969L99.2693 20.2012ZM96.8899 27.4563C95.9591 27.3584 95.3133 26.6148 95.4299 25.5049C95.5466 24.3951 96.3329 23.802 97.2637 23.8998C98.1827 23.9964 98.8285 24.74 98.7118 25.8499C98.5952 26.9598 97.8089 27.5528 96.8899 27.4563ZM107.532 21.0697L107.205 24.1845C106.795 23.6105 106.153 23.2897 105.365 23.2069C103.551 23.0162 102.019 24.1584 101.807 26.1752C101.595 28.1921 102.856 29.6278 104.67 29.8185C105.53 29.9088 106.239 29.7058 106.763 29.1938L106.685 29.9337L108.463 30.1206L109.394 21.2654L107.532 21.0697ZM105.153 28.3247C104.222 28.2269 103.576 27.4833 103.693 26.3734C103.81 25.2635 104.596 24.6705 105.527 24.7683C106.446 24.8649 107.092 25.6085 106.975 26.7184C106.858 27.8283 106.072 28.4213 105.153 28.3247ZM115.795 21.9382L115.468 25.053C115.058 24.479 114.416 24.1581 113.628 24.0754C111.814 23.8847 110.282 25.0268 110.07 27.0437C109.858 29.0606 111.119 30.4963 112.933 30.6869C113.793 30.7773 114.502 30.5743 115.026 30.0623L114.948 30.8022L116.727 30.9891L117.657 22.1339L115.795 21.9382ZM113.416 29.1932C112.485 29.0954 111.839 28.3518 111.956 27.2419C112.073 26.132 112.859 25.539 113.79 25.6368C114.709 25.7334 115.355 26.477 115.238 27.5869C115.121 28.6967 114.335 29.2898 113.416 29.1932ZM125.074 28.6448C125.291 26.5802 123.968 25.1621 122.082 24.9639C120.125 24.7582 118.512 25.9883 118.31 27.9097C118.109 29.8192 119.406 31.3673 121.626 31.6006C122.784 31.7223 123.716 31.4583 124.385 30.8408L123.507 29.6626C123.021 30.0339 122.511 30.1853 121.831 30.1138C120.852 30.011 120.223 29.4502 120.128 28.6317L124.985 29.1423C125.014 28.9884 125.059 28.788 125.074 28.6448ZM121.946 26.3734C122.782 26.4612 123.335 27.0503 123.381 27.8756L120.218 27.5432C120.436 26.7336 121.099 26.2844 121.946 26.3734ZM131.587 23.598L131.26 26.7128C130.85 26.1388 130.208 25.8179 129.42 25.7352C127.606 25.5445 126.074 26.6866 125.862 28.7035C125.65 30.7204 126.911 32.1561 128.725 32.3467C129.585 32.4371 130.294 32.2341 130.818 31.7221L130.74 32.462L132.518 32.6489L133.449 23.7937L131.587 23.598ZM129.208 30.853C128.277 30.7552 127.631 30.0116 127.748 28.9017C127.865 27.7918 128.651 27.1988 129.582 27.2966C130.501 27.3932 131.147 28.1368 131.03 29.2467C130.913 30.3565 130.127 30.9496 129.208 30.853ZM139.523 26.8935L139.189 30.0681C139.065 31.2495 138.387 31.7333 137.528 31.643C136.704 31.5564 136.277 31.0289 136.39 29.9548L136.742 26.6013L134.881 26.4056L134.499 30.0336C134.291 32.0147 135.329 33.0409 136.941 33.2102C137.728 33.293 138.476 33.0699 139.024 32.5604L138.944 33.3242L140.71 33.5098L141.385 27.0892L139.523 26.8935ZM145.528 34.1127C146.876 34.2545 148.001 33.7694 148.574 32.792L147.213 31.8525C146.802 32.4367 146.261 32.6454 145.676 32.5839C144.733 32.4848 144.062 31.7506 144.18 30.6288C144.298 29.507 145.107 28.9284 146.05 29.0275C146.635 29.0889 147.119 29.4174 147.401 30.0624L148.927 29.4384C148.572 28.3393 147.571 27.6429 146.222 27.5012C144.134 27.2816 142.498 28.4973 142.295 30.4306C142.092 32.364 143.439 33.8932 145.528 34.1127ZM153.389 33.2015C153.17 33.3354 152.887 33.39 152.613 33.3612C152.111 33.3085 151.844 32.9788 151.902 32.4298L152.177 29.8162L153.776 29.9843L153.926 28.5522L152.327 28.3841L152.492 26.8207L150.63 26.625L150.465 28.1884L149.475 28.0843L149.324 29.5164L150.315 29.6205L150.038 32.258C149.877 33.7856 150.679 34.6541 152.194 34.8134C152.767 34.8737 153.342 34.8013 153.753 34.567L153.389 33.2015ZM156.465 27.7693C157.157 27.842 157.67 27.4374 157.736 26.8168C157.796 26.244 157.375 25.7654 156.683 25.6927C155.991 25.6199 155.478 26.0245 155.416 26.6093C155.355 27.1941 155.773 27.6965 156.465 27.7693ZM154.765 34.9871L156.627 35.1828L157.302 28.7622L155.44 28.5665L154.765 34.9871ZM161.4 35.781C163.441 35.9955 165.065 34.7786 165.268 32.8452C165.471 30.9119 164.136 29.3839 162.095 29.1694C160.054 28.9549 158.418 30.1706 158.215 32.1039C158.012 34.0373 159.359 35.5665 161.4 35.781ZM161.561 34.2534C160.63 34.1556 159.984 33.412 160.1 32.3021C160.217 31.1922 161.003 30.5992 161.934 30.697C162.865 30.7948 163.499 31.5372 163.382 32.647C163.266 33.7569 162.491 34.3512 161.561 34.2534ZM170.762 30.0804C169.891 29.9888 169.108 30.2082 168.549 30.7045L168.628 29.9526L166.85 29.7657L166.175 36.1863L168.037 36.382L168.37 33.2075C168.495 32.026 169.197 31.5448 170.092 31.6388C170.915 31.7254 171.342 32.2529 171.233 33.2912L170.877 36.6805L172.739 36.8762L173.125 33.2005C173.331 31.2433 172.278 30.2397 170.762 30.0804Z" fill="#919191"/>
<path d="M144.029 29.9509C177.795 56.9339 161.049 94.7029 139.452 80.5729C121.052 68.5209 144.978 54.1469 161.778 54.8979C178.285 55.6359 205.2 64.7829 222.222 70.1679C241.089 76.1359 254.613 72.6059 263.497 58.0449C272.381 43.4839 262.553 20.5069 246.609 19.7379C230.665 18.9689 226.509 34.2509 232.729 40.6379C238.949 47.0249 279.694 49.9209 289.789 40.9809C299.884 32.0409 300.398 27.9209 298.878 9.96094" stroke="#E57373" stroke-width="2" stroke-linecap="round" stroke-linejoin="round" stroke-dasharray="4 5"/>
<path d="M304 13.258L298.686 8L294 14.08" stroke="#E57373" stroke-width="2" stroke-linecap="round" stroke-linejoin="round"/>
<defs>
<linearGradient id="paint0_linear_380_6716" x1="157" y1="92" x2="157" y2="14.72" gradientUnits="userSpaceOnUse">
<stop stop-color="white"/>
<stop offset="1" stop-color="#F7F7F7"/>
</linearGradient>
</defs>
</svg>
