<svg width="314" height="92" viewBox="0 0 314 92" fill="none" xmlns="http://www.w3.org/2000/svg">
<path d="M312 92H2C1.46957 92 0.960859 91.7893 0.585786 91.4142C0.210714 91.0391 0 90.5304 0 90V2C0 1.46957 0.210714 0.960859 0.585786 0.585786C0.960859 0.210714 1.46957 0 2 0L312 0C312.53 0 313.039 0.210714 313.414 0.585786C313.789 0.960859 314 1.46957 314 2V90C314 90.5304 313.789 91.0391 313.414 91.4142C313.039 91.7893 312.53 92 312 92Z" fill="url(#paint0_linear_380_6716)"/>
<path d="M127.959 17.1324L126.679 44.8154C126.552 47.5154 123.522 49.6324 119.908 49.5354L53.1955 47.8424L45.0105 47.6124C41.7415 47.5214 39.1865 45.4654 39.3005 43.0204L39.9455 29.0844L40.6105 14.8784C40.7375 12.1784 43.7665 10.0634 47.3805 10.1594L121.681 12.0494C125.287 12.1624 128.096 14.4354 127.963 17.1334" fill="#CCCCCC"/>
<path d="M126.661 17.3081L125.384 44.5081C125.257 47.1641 122.273 49.2431 118.714 49.1511L53.0274 47.5511L44.9674 47.3331C41.7504 47.2461 39.2344 45.2331 39.3474 42.8261L39.9914 29.1381L40.6554 15.1781C40.7814 12.5211 43.7644 10.4431 47.3234 10.5341L120.478 12.3181C124.027 12.4271 126.792 14.6581 126.661 17.3091" fill="white"/>
<path d="M61.213 90H30" stroke="#AAAAAA" stroke-width="2" stroke-miterlimit="10"/>
<path d="M66.5703 60.8203L80.3403 56.5393L85.4903 47.4453L86.5903 47.6523C87.1723 47.7487 87.7395 47.9191 88.2783 48.1593C89.1203 48.6883 88.7353 48.9053 88.1783 49.7303L81.8713 59.1243L66.9103 61.7593L66.5703 60.8203Z" fill="#424242"/>
<path d="M72.1605 55.3676C72.1605 55.3676 67.8605 59.0676 64.5465 57.9856C61.2325 56.9036 59.5805 53.7446 60.7985 51.5196C62.0165 49.2946 65.3715 48.7406 68.3735 49.7526C71.3755 50.7646 72.1165 55.3356 72.1605 55.3676Z" fill="#AAAAAA"/>
<path d="M66.3634 64.1045C64.7174 66.9315 61.9994 68.8175 60.0324 67.9665C58.0654 67.1155 57.8164 63.7295 59.7004 60.7405C61.5844 57.7515 64.6524 56.4295 66.3714 57.4335C68.0904 58.4375 68.0004 61.2725 66.3634 64.1045Z" fill="#AAAAAA"/>
<path d="M61.3729 67.8653C62.7299 69.9653 60.4039 73.6243 56.1729 76.6143C51.8959 79.7783 43.4069 74.7773 43.4849 74.6073C45.4266 72.0453 47.8687 69.9047 50.6629 68.3153C55.2559 65.7263 60.0129 65.7843 61.3699 67.8653" fill="#AAAAAA"/>
<path d="M69.643 50.4816C70.3703 51.693 70.881 53.0218 71.152 54.4086C71.152 54.4086 66.789 58.0166 63.53 56.8476C62.5761 56.508 61.7112 55.9573 61 55.2366C61.8048 56.5575 63.065 57.5384 64.543 57.9946C67.855 59.0776 72.165 55.3506 72.157 55.3766C72.149 55.4026 71.519 52.0956 69.643 50.4766" fill="#424242"/>
<path d="M67.5958 59.5391C67.3418 60.5034 66.9386 61.4222 66.4008 62.2621C64.6548 65.0411 61.9008 66.8621 59.9738 65.9761C59.5661 65.7575 59.2198 65.4401 58.9666 65.0529C58.7135 64.6657 58.5616 64.2212 58.5248 63.7601C58.1718 65.7241 58.7388 67.4121 60.0348 67.9791C61.9988 68.8521 64.7248 66.9451 66.3658 64.1181C67.239 62.7554 67.6687 61.1558 67.5958 59.5391Z" fill="#424242"/>
<path d="M61.5049 68.1172C60.9509 70.0732 58.8869 72.4812 55.8319 74.5012C52.6379 76.6822 47.2149 74.6152 44.7059 73.1092C44.2716 73.5863 43.864 74.0871 43.4849 74.6092C43.4059 74.7792 51.8969 79.7792 56.1729 76.6172C60.2479 73.7402 62.5349 70.2402 61.5049 68.1172Z" fill="#424242"/>
<path d="M63.319 54.9009C63.094 55.1259 54.977 49.0799 52.306 49.6649C49.43 50.5369 45.327 54.7179 47.241 57.4649C49.241 60.1349 49.141 57.7489 48.908 57.3389C48.675 56.9289 47.652 57.1469 47.647 57.1389C47.642 57.1309 46.173 55.3069 48.384 52.9879C50.595 50.6689 51.918 50.0259 53.112 50.1129C55.4905 51.118 57.812 52.253 60.066 53.5129C60.9926 54.1847 61.9613 54.7966 62.966 55.3449C62.966 55.3449 63.601 55.2329 63.322 54.9039" fill="#424242"/>
<path d="M51.3078 47.1172L51.0078 56.3492L61.4498 61.6862L61.1598 60.3272L53.3778 56.1662L53.6608 47.2662L51.3078 47.1172Z" fill="#424242"/>
<path d="M50.2904 73.1224C50.2024 73.0314 50.0154 72.7944 49.9974 72.7734C48.4624 74.0034 40.2734 79.7514 40.2734 79.7514L41.5634 89.6954H46.3634L41.3324 80.0354C41.3324 80.0354 49.0074 74.3524 50.2914 73.1224" fill="#424242"/>
<path d="M54.1119 75.8594C55.5623 78.0199 57.1314 80.0985 58.8119 82.0854L54.2119 89.7394L50.5469 89.6924L57.4719 82.1354C56.0999 80.2462 54.8718 78.2566 53.7979 76.1834L54.1119 75.8594Z" fill="#424242"/>
<path d="M64.0899 50.669C63.6549 50.887 56.5219 39.387 53.9299 40.337C50.8399 41.515 49.1899 43.787 49.6899 45.071C50.1899 46.355 51.7049 47.305 51.7229 46.152C51.7409 44.999 50.9819 45.673 50.9769 45.673C50.9719 45.673 49.4679 45.808 50.6769 43.709C51.8859 41.61 53.3769 40.314 54.7869 41.16C55.8677 41.7113 56.8068 42.5045 57.5309 43.478C58.6869 45.062 63.5919 51.192 63.7309 51.1C63.7309 51.1 63.9969 51.43 64.0839 50.669" fill="#424242"/>
<path d="M58.1305 33.9031L60.1705 33.9378L56.5573 25.474L54.6373 25.4413L50.7505 33.7777L52.7425 33.8115L53.5171 32.0242L57.4171 32.0905L58.1305 33.9031ZM54.1662 30.5588L55.5529 27.3654L56.8302 30.6041L54.1662 30.5588ZM65.7068 25.1254L65.6536 28.2574C65.1945 27.7214 64.5268 27.458 63.7348 27.4445C61.9108 27.4135 60.4848 28.6856 60.4503 30.7136C60.4158 32.7416 61.7978 34.0615 63.6218 34.0925C64.4858 34.1072 65.1745 33.8428 65.6521 33.2868L65.6394 34.0308L67.4274 34.0612L67.5788 25.1572L65.7068 25.1254ZM63.9719 32.562C63.0359 32.5461 62.3273 31.8619 62.3463 30.7459C62.3653 29.6299 63.0967 28.9701 64.0327 28.986C64.9567 29.0017 65.6653 29.686 65.6463 30.802C65.6273 31.918 64.8959 32.5777 63.9719 32.562ZM74.0154 25.2666L73.9622 28.3986C73.5031 27.8627 72.8354 27.5992 72.0434 27.5858C70.2194 27.5548 68.7934 28.8269 68.7589 30.8549C68.7244 32.8829 70.1064 34.2028 71.9304 34.2338C72.7944 34.2485 73.4831 33.9841 73.9607 33.428L73.948 34.172L75.736 34.2024L75.8874 25.2984L74.0154 25.2666ZM72.2805 32.7033C71.3445 32.6874 70.6359 32.0031 70.6549 30.8871C70.6739 29.7711 71.4053 29.1114 72.3413 29.1273C73.2653 29.143 73.9739 29.8272 73.9549 30.9432C73.9359 32.0592 73.2045 32.719 72.2805 32.7033ZM87.2413 30.0288C87.9314 29.6804 88.3745 29.0397 88.3887 28.1997C88.411 26.8917 87.3459 25.9974 85.2459 25.9617L81.1419 25.8919L80.9991 34.2919L85.3431 34.3658C87.5511 34.4033 88.7173 33.5829 88.742 32.1309C88.76 31.0749 88.1722 30.3447 87.2413 30.0288ZM84.981 27.4216C85.929 27.4377 86.4395 27.7705 86.4282 28.4305C86.417 29.0905 85.8953 29.4177 84.9473 29.4016L83.0153 29.3687L83.049 27.3887L84.981 27.4216ZM85.2239 32.8993L82.9559 32.8607L82.9912 30.7847L85.2592 30.8233C86.2672 30.8404 86.8015 31.1856 86.7895 31.8936C86.7773 32.6136 86.2319 32.9164 85.2239 32.8993ZM93.1132 34.5939C95.1652 34.6288 96.6767 33.2741 96.7097 31.3301C96.7428 29.3861 95.2782 27.9808 93.2262 27.9459C91.1742 27.911 89.6508 29.2655 89.6177 31.2095C89.5847 33.1535 91.0612 34.559 93.1132 34.5939ZM93.1393 33.0579C92.2033 33.042 91.4947 32.3577 91.5137 31.2417C91.5327 30.1257 92.2641 29.466 93.2001 29.4819C94.1361 29.4978 94.8327 30.1818 94.8137 31.2978C94.7947 32.4138 94.0753 33.0738 93.1393 33.0579ZM101.942 28.094C101.066 28.0791 100.304 28.3663 99.791 28.9097L99.8039 28.1537L98.0159 28.1233L97.9061 34.5793L99.7781 34.6111L99.8324 31.4191C99.8526 30.2311 100.51 29.6902 101.41 29.7055C102.238 29.7195 102.71 30.2077 102.692 31.2517L102.634 34.6597L104.506 34.6915L104.569 30.9955C104.602 29.0275 103.466 28.1199 101.942 28.094ZM110.945 28.3431L110.89 31.5351C110.87 32.7231 110.237 33.2645 109.373 33.2498C108.545 33.2357 108.073 32.7476 108.091 31.6676L108.149 28.2956L106.277 28.2638L106.215 31.9118C106.181 33.9038 107.305 34.8351 108.925 34.8627C109.717 34.8761 110.442 34.5884 110.944 34.0327L110.931 34.8007L112.707 34.8309L112.817 28.3749L110.945 28.3431ZM116.612 34.9933C118.544 35.0262 119.674 34.1932 119.695 32.9932C119.738 30.4492 115.82 31.4509 115.838 30.3469C115.844 30.0109 116.209 29.753 117.049 29.7673C117.637 29.7773 118.271 29.9081 118.9 30.2789L119.547 28.9575C118.941 28.5871 117.961 28.3664 117.073 28.3513C115.189 28.3192 114.07 29.1645 114.049 30.3885C114.005 32.9685 117.924 31.9548 117.906 33.0108C117.9 33.3708 117.572 33.5933 116.708 33.5786C115.916 33.5651 115.044 33.2982 114.474 32.9164L113.827 34.2498C114.421 34.656 115.52 34.9748 116.612 34.9933Z" fill="#919191"/>
<path d="M111.656 44.7319C161.292 73.9579 129.343 93.3729 121.451 89.5719C97.9022 78.2329 146.793 43.2389 163.593 43.9889C180.1 44.7269 205.199 70.7819 222.221 76.1659C241.088 82.1339 252.043 77.9599 260.927 63.3989C269.811 48.8379 259.084 23.9689 243.141 23.1989C227.198 22.4289 212.456 47.7839 225.274 61.6089C238.092 75.4339 283.5 66.8609 293.399 55.4939C303.298 44.1269 300.394 33.9209 298.874 15.9609" stroke="#FFB74D" stroke-width="2" stroke-linecap="round" stroke-linejoin="round" stroke-dasharray="4 5"/>
<path d="M304 19.258L298.686 14L294 20.08" stroke="#FFB74D" stroke-width="2" stroke-linecap="round" stroke-linejoin="round"/>
<defs>
<linearGradient id="paint0_linear_380_6716" x1="157" y1="92" x2="157" y2="14.72" gradientUnits="userSpaceOnUse">
<stop stop-color="white"/>
<stop offset="1" stop-color="#F7F7F7"/>
</linearGradient>
</defs>
</svg>
