<svg width="14" height="14" viewBox="0 0 14 14" fill="none" xmlns="http://www.w3.org/2000/svg">
<path d="M10.7757 6.52128C11.2112 6.02719 11.4798 5.42467 11.5478 4.78935C11.5986 4.31733 11.5424 3.84067 11.383 3.38999C11.2235 2.93932 10.9643 2.52459 10.622 2.17244C10.2797 1.8203 9.86178 1.53853 9.39519 1.34523C8.92861 1.15194 8.42363 1.05139 7.9127 1.05005H2.20805C2.08657 1.05005 1.97006 1.09485 1.88416 1.17461C1.79826 1.25436 1.75 1.36253 1.75 1.47532V2.7504C1.75 2.86319 1.79826 2.97136 1.88416 3.05111C1.97006 3.13086 2.08657 3.17567 2.20805 3.17567H3.12019V10.8239H2.20805C2.08657 10.8239 1.97006 10.8687 1.88416 10.9485C1.79826 11.0282 1.75 11.1364 1.75 11.2492V12.5243C1.75 12.6371 1.79826 12.7452 1.88416 12.825C1.97006 12.9047 2.08657 12.9496 2.20805 12.9496H8.19671C9.18248 12.9645 10.1395 12.6409 10.8841 12.041C11.6287 11.441 12.1085 10.6069 12.2313 9.69869C12.295 9.09824 12.1951 8.49255 11.9407 7.93733C11.6864 7.38211 11.2858 6.89517 10.7757 6.52128ZM5.40253 3.17494H7.9127C8.09578 3.17086 8.27788 3.20081 8.4483 3.26303C8.61872 3.32526 8.77401 3.4185 8.90505 3.53727C9.03608 3.65604 9.14021 3.79795 9.2113 3.95464C9.28239 4.11132 9.31902 4.27963 9.31902 4.44965C9.31902 4.61967 9.28239 4.78797 9.2113 4.94465C9.14021 5.10134 9.03608 5.24325 8.90505 5.36202C8.77401 5.48079 8.61872 5.57403 8.4483 5.63626C8.27788 5.69848 8.09578 5.72844 7.9127 5.72435H5.40253V3.17494ZM7.9127 10.8239H5.40253V7.84924H7.9127C8.12308 7.84924 8.33139 7.88771 8.52575 7.96246C8.72012 8.03721 8.89672 8.14676 9.04548 8.28488C9.19423 8.42299 9.31224 8.58695 9.39274 8.7674C9.47325 8.94786 9.51469 9.14127 9.51469 9.33659C9.51469 9.53191 9.47325 9.72532 9.39274 9.90577C9.31224 10.0862 9.19423 10.2502 9.04548 10.3883C8.89672 10.5264 8.72012 10.636 8.52575 10.7107C8.33139 10.7855 8.12308 10.8239 7.9127 10.8239Z" fill="#919191"/>
</svg>