<svg width="12" height="12" viewBox="0 0 12 12" fill="none" xmlns="http://www.w3.org/2000/svg">
<path d="M0.900676 1.74984H1.75057V4.83135C1.76526 5.94881 2.21948 7.01551 3.01488 7.80052C3.81028 8.58554 4.88287 9.02569 6.00041 9.02569C7.11796 9.02569 8.19054 8.58554 8.98595 7.80052C9.78135 7.01551 10.2356 5.94881 10.2503 4.83135V1.74984H11.1002C11.213 1.74984 11.3211 1.70503 11.4009 1.62527C11.4807 1.54551 11.5255 1.43733 11.5255 1.32452V0.475365C11.5255 0.362692 11.4808 0.25462 11.4012 0.174879C11.3216 0.0951383 11.2136 0.0502434 11.1009 0.0500488H7.27599C7.16319 0.0500488 7.05501 0.0948594 6.97525 0.174621C6.89549 0.254383 6.85068 0.362565 6.85068 0.475365V1.32526C6.85068 1.43806 6.89549 1.54624 6.97525 1.626C7.05501 1.70577 7.16319 1.75058 7.27599 1.75058H8.12589V4.83209C8.12589 5.3957 7.90199 5.93623 7.50346 6.33476C7.10492 6.73329 6.56439 6.95719 6.00078 6.95719C5.43717 6.95719 4.89664 6.73329 4.4981 6.33476C4.09957 5.93623 3.87568 5.3957 3.87568 4.83209V1.74984H4.72557C4.83837 1.74984 4.94655 1.70503 5.02631 1.62527C5.10608 1.54551 5.15089 1.43733 5.15089 1.32452V0.475365C5.15089 0.362565 5.10608 0.254383 5.02631 0.174621C4.94655 0.0948594 4.83837 0.0500488 4.72557 0.0500488H0.900676C0.787876 0.0500488 0.679695 0.0948594 0.599933 0.174621C0.520171 0.254383 0.475361 0.362565 0.475361 0.475365V1.32526C0.475361 1.43806 0.520171 1.54624 0.599933 1.626C0.679695 1.70577 0.787876 1.74984 0.900676 1.74984ZM11.5255 10.2503H0.476096C0.363423 10.2503 0.255353 10.295 0.175612 10.3746C0.0958716 10.4542 0.0509758 10.5622 0.0507812 10.6748L0.0507813 11.5247C0.0507813 11.6375 0.0955911 11.7457 0.175353 11.8255C0.255115 11.9052 0.363296 11.95 0.476096 11.95H11.5255C11.6383 11.95 11.7464 11.9052 11.8262 11.8255C11.906 11.7457 11.9508 11.6375 11.9508 11.5247V10.6748C11.9506 10.5622 11.9057 10.4542 11.8259 10.3746C11.7462 10.295 11.6381 10.2503 11.5255 10.2503Z" fill="#919191"/>
</svg>