<svg height="25.958" viewBox="0 0 28.068 25.958" width="28.068" xmlns="http://www.w3.org/2000/svg">
  <g data-name="Group 2168" id="Group_2168" transform="translate(-177.93 -127.041)">
    <g data-name="Group 8261" id="Group_8261">
      <path d="M12,0A12,12,0,1,1,0,12,12,12,0,0,1,12,0Z" data-name="Path 1182" fill="#b7b7b7"
            id="Path_1182" transform="translate(179 128)"/>
      <path
        d="M27.944,12.751a.589.589,0,0,0-.534-.34H25.667a12.978,12.978,0,1,0-1.514,8.865,1.184,1.184,0,0,0-.43-1.615,1.172,1.172,0,0,0-1.607.431,10.651,10.651,0,1,1,1.144-7.681H21.53a.591.591,0,0,0-.453.969l2.942,3.545a.587.587,0,0,0,.9,0l2.942-3.545A.593.593,0,0,0,27.944,12.751Z"
        data-name="Path 1183"
        fill="#606060"
        id="Path_1183" transform="translate(178 125.225)"/>
    </g>
  </g>
</svg>
