<svg height="24" viewBox="0 0 24 24" width="24" xmlns="http://www.w3.org/2000/svg">
  <g data-name="Group 56268" id="Group_56268" transform="translate(-693 -315)">
    <rect fill="#dadada" height="24" id="Background" rx="2" transform="translate(693 315)" width="24"/>
    <path
      d="M17.352,29.4A5.4,5.4,0,0,1,18,32.009a5.61,5.61,0,0,1-5.681,5.475H6.75v1.638a.846.846,0,0,1-1.44.6L2.5,36.966a.816.816,0,0,1,0-1.17L5.31,33.037a.847.847,0,0,1,1.44.585v1.655h5.585A3.37,3.37,0,0,0,15.75,32a3.238,3.238,0,0,0-.324-1.45.814.814,0,0,1,.169-.941l.418-.406A.852.852,0,0,1,17.352,29.4Zm-15.1,2.535a3.37,3.37,0,0,1,3.414-3.275H11.25V30.3a.846.846,0,0,0,1.44.6L15.5,28.139a.816.816,0,0,0,0-1.17l-2.812-2.758a.846.846,0,0,0-1.44.6v1.636H5.682A5.61,5.61,0,0,0,0,31.926a5.4,5.4,0,0,0,.649,2.612.851.851,0,0,0,1.339.192l.418-.406a.815.815,0,0,0,.169-.941,3.237,3.237,0,0,1-.324-1.45Z"
      fill="#fff"
      id="repeat-alt" transform="translate(736.965 318) rotate(90)"/>
  </g>
</svg>
