<svg xmlns="http://www.w3.org/2000/svg" width="22" height="22" viewBox="0 0 22 22">
  <g id="tag" transform="translate(2.9 2.9)" stroke-miterlimit="10">
    <path d="M 8.222838401794434 17.19999885559082 C 7.550047874450684 17.19999885559082 6.91752815246582 16.9379997253418 6.441808223724365 16.4622688293457 L -0.2622719407081604 9.758198738098145 C -0.737981915473938 9.282479286193848 -0.9999819397926331 8.649978637695312 -1.000001907348633 7.977199077606201 L -1.000001907348633 1.518748998641968 C -1.000001907348633 0.12990902364254 0.1299080699682236 -1.000000953674316 1.518748044967651 -1.000000953674316 L 7.97717809677124 -1.000000953674316 C 8.649937629699707 -1.000000953674316 9.282447814941406 -0.7380110025405884 9.758177757263184 -0.2622909843921661 L 16.46227836608887 6.441809177398682 C 16.93799781799316 6.917529106140137 17.19999885559082 7.550048828125 17.19999885559082 8.22283935546875 C 17.19999885559082 8.89561939239502 16.93799781799316 9.528139114379883 16.4622688293457 10.00385856628418 L 10.00385761260986 16.46227836608887 C 9.528138160705566 16.9379997253418 8.895618438720703 17.19999885559082 8.222838401794434 17.19999885559082 Z M 3.543748140335083 3.024999141693115 C 3.257708072662354 3.024999141693115 3.024998188018799 3.25770902633667 3.024998188018799 3.543749094009399 C 3.024998188018799 3.82978892326355 3.257708072662354 4.062499046325684 3.543748140335083 4.062499046325684 C 3.829787969589233 4.062499046325684 4.062498092651367 3.82978892326355 4.062498092651367 3.543749094009399 C 4.062498092651367 3.25770902633667 3.829787969589233 3.024999141693115 3.543748140335083 3.024999141693115 Z" stroke="none"/>
    <path d="M 1.51874828338623 -1.9073486328125e-06 C 0.6799583435058594 -1.9073486328125e-06 -1.9073486328125e-06 0.6799592971801758 -1.9073486328125e-06 1.518749237060547 L -1.9073486328125e-06 7.977178573608398 C -1.9073486328125e-06 8.379968643188477 0.1600189208984375 8.766269683837891 0.4448385238647461 9.051088333129883 L 7.148918151855469 15.75516891479492 C 7.742018699645996 16.34827995300293 8.703647613525391 16.3482780456543 9.296748161315918 15.75516891479492 L 15.75516796112061 9.296749114990234 C 16.3482780456543 8.703649520874023 16.3482780456543 7.742018699645996 15.75516796112061 7.148919105529785 L 9.051088333129883 0.444828987121582 C 8.766258239746094 0.1600093841552734 8.379958152770996 -1.9073486328125e-06 7.977177619934082 -1.9073486328125e-06 L 1.51874828338623 -1.9073486328125e-06 M 3.543747901916504 5.062499046325684 C 2.704957962036133 5.062499046325684 2.024997711181641 4.382549285888672 2.024997711181641 3.54374885559082 C 2.024997711181641 2.704958915710449 2.704957962036133 2.024998664855957 3.543747901916504 2.024998664855957 C 4.382548332214355 2.024998664855957 5.062498092651367 2.704958915710449 5.062498092651367 3.54374885559082 C 5.062498092651367 4.382549285888672 4.382548332214355 5.062499046325684 3.543747901916504 5.062499046325684 M 1.51874828338623 -2.000001907348633 L 7.977177619934082 -2.000001907348633 C 8.917037963867188 -2.000001907348633 9.800668716430664 -1.634000778198242 10.46527862548828 -0.9694118499755859 L 17.16937828063965 5.734708786010742 C 17.8339786529541 6.399298667907715 18.19999885559082 7.282929420471191 18.19999885559082 8.22282886505127 C 18.19999885559082 9.162738800048828 17.8339786529541 10.0463695526123 17.16936874389648 10.71097946166992 L 10.71095848083496 17.16937828063965 C 10.04635810852051 17.83398818969727 9.162717819213867 18.19999885559082 8.222827911376953 18.19999885559082 C 7.282938003540039 18.19999885559082 6.399308204650879 17.83398818969727 5.734707832336426 17.16937828063965 L -0.9693717956542969 10.46529960632324 C -1.633981704711914 9.800689697265625 -2.000001907348633 8.917058944702148 -2.000001907348633 7.977178573608398 L -2.000001907348633 1.518749237060547 C -2.000001907348633 -0.4215011596679688 -0.4215011596679688 -2.000001907348633 1.51874828338623 -2.000001907348633 Z" stroke="none" fill="#e5e5e5"/>
  </g>
</svg>
