<svg width="14" height="10" viewBox="0 0 14 10" fill="none" xmlns="http://www.w3.org/2000/svg">
<path d="M13.4691 8.32679L10.2981 1.06779C10.246 0.943563 10.1587 0.837289 10.047 0.762042C9.93527 0.686796 9.80398 0.645864 9.66928 0.644287H7.45262L7.51095 1.16929C7.51365 1.19463 7.51099 1.22025 7.50313 1.2445C7.49527 1.26874 7.48238 1.29105 7.46532 1.30999C7.44826 1.32892 7.42741 1.34404 7.40411 1.35437C7.38081 1.36471 7.3556 1.37002 7.33012 1.36996H6.6692C6.64371 1.37002 6.6185 1.36471 6.59521 1.35437C6.57191 1.34404 6.55105 1.32892 6.53399 1.30999C6.51693 1.29105 6.50405 1.26874 6.49619 1.2445C6.48833 1.22025 6.48566 1.19463 6.48837 1.16929L6.5467 0.644287H4.33003C4.19534 0.645864 4.06404 0.686796 3.95231 0.762042C3.84058 0.837289 3.7533 0.943563 3.7012 1.06779L0.527282 8.32679C0.477153 8.43503 0.454527 8.55398 0.461413 8.67306C0.468299 8.79215 0.504484 8.9077 0.566754 9.00945C0.629024 9.11119 0.715454 9.19599 0.818369 9.2563C0.921284 9.31662 1.0375 9.35059 1.1567 9.3552H5.62445L5.85778 7.13854C5.86716 7.04932 5.90925 6.96674 5.97593 6.90674C6.04261 6.84674 6.12916 6.81356 6.21887 6.81362H7.77986C7.86957 6.81356 7.95612 6.84674 8.0228 6.90674C8.08948 6.96674 8.13157 7.04932 8.14095 7.13854L8.37428 9.3552H12.8397C12.9589 9.35059 13.0751 9.31662 13.178 9.2563C13.2809 9.19599 13.3674 9.11119 13.4296 9.00945C13.4919 8.9077 13.5281 8.79215 13.535 8.67306C13.5419 8.55398 13.5192 8.43503 13.4691 8.32679ZM6.37345 2.26012C6.37821 2.21551 6.39932 2.17426 6.43272 2.14431C6.46612 2.11436 6.50942 2.09784 6.55428 2.09795H7.44562C7.49047 2.09784 7.53378 2.11436 7.56718 2.14431C7.60057 2.17426 7.62169 2.21551 7.62645 2.26012L7.73087 3.24887C7.73487 3.28682 7.73085 3.3252 7.71908 3.3615C7.70731 3.3978 7.68803 3.43122 7.66252 3.4596C7.637 3.48798 7.6058 3.51068 7.57095 3.52623C7.53609 3.54178 7.49836 3.54984 7.4602 3.54987H6.54028C6.50209 3.54993 6.46431 3.54193 6.42942 3.52641C6.39452 3.51089 6.36329 3.4882 6.33775 3.4598C6.31221 3.4314 6.29295 3.39794 6.28121 3.36159C6.26947 3.32525 6.26552 3.28684 6.26962 3.24887L6.37345 2.26012ZM7.62645 6.09029H6.37228C6.32136 6.09033 6.271 6.07965 6.22448 6.05895C6.17796 6.03825 6.13631 6.00799 6.10225 5.97013C6.06819 5.93228 6.04249 5.88768 6.0268 5.83923C6.01111 5.79079 6.0058 5.73959 6.0112 5.68896L6.12787 4.59987C6.13724 4.51065 6.17933 4.42808 6.24601 4.36807C6.3127 4.30807 6.39924 4.27489 6.48895 4.27495H7.51328C7.60299 4.27489 7.68953 4.30807 7.75622 4.36807C7.8229 4.42808 7.86499 4.51065 7.87436 4.59987L7.99103 5.68896C7.99621 5.73975 7.9906 5.79106 7.97459 5.83953C7.95857 5.88801 7.93251 5.93256 7.8981 5.97027C7.86369 6.00799 7.8217 6.03802 7.77489 6.0584C7.72808 6.07878 7.6775 6.08905 7.62645 6.08854V6.09029Z" fill="#AAAAAA"/>
</svg>
