<svg xmlns="http://www.w3.org/2000/svg" width="55" height="20.501" viewBox="0 0 55 20.501"><rect width="55" height="20" fill="#aaa" opacity="0"/><path d="M41.111,0a.252.252,0,0,0-.249.252V.376a.252.252,0,0,0,.249.251h.039V3.764H18.274a3.116,3.116,0,0,1-2.861,1.875,3.011,3.011,0,0,1-1.863-.624,2.973,2.973,0,0,1-1-1.251h-4.4A3.117,3.117,0,0,1,5.287,5.639a3.011,3.011,0,0,1-1.863-.624,3.148,3.148,0,0,1-.988-1.251H1.675l-.427-.687V1.927a.383.383,0,0,0-.373-.375h-.5A.377.377,0,0,0,0,1.927V6.163a.25.25,0,0,0,.249.251h52a.252.252,0,0,0,.251-.251v-.9a.252.252,0,0,0-.251-.249H45.662L42.4,3.764V.627h.051A.252.252,0,0,0,42.7.376V.252A.252.252,0,0,0,42.45,0Zm-28.2,2.508a2.5,2.5,0,1,0,2.5-2.5A2.5,2.5,0,0,0,12.911,2.508Zm-10.124,0a2.5,2.5,0,1,0,2.5-2.5A2.5,2.5,0,0,0,2.788,2.508Z" transform="translate(53.75 20.001) rotate(180)" fill="#aaa" stroke="rgba(0,0,0,0)" stroke-miterlimit="10" stroke-width="1"/></svg>