<svg xmlns="http://www.w3.org/2000/svg" width="55.5" height="20.999" viewBox="0 0 55.5 20.999"><g transform="translate(0.5 0.5)"><rect width="55" height="20" fill="#aaa" opacity="0"/><path d="M11.661,2.5a2.5,2.5,0,1,0,2.5-2.5A2.5,2.5,0,0,0,11.661,2.5Zm-6.619,0A2.5,2.5,0,1,0,7.544,0,2.5,2.5,0,0,0,5.042,2.5ZM41.112,0a.253.253,0,0,0-.251.252V.379a.251.251,0,0,0,.251.249h.036V3.04H40.3L39.112,5H29.086V4.378H17.713V3.753h-.688a3.123,3.123,0,0,1-2.862,1.876A3.026,3.026,0,0,1,12.3,5a2.987,2.987,0,0,1-1-1.25h-.9A3.1,3.1,0,0,1,9.413,5a3.142,3.142,0,0,1-1.876.626A3.019,3.019,0,0,1,5.675,5a3.109,3.109,0,0,1-.988-1.25H4V5H2.437L1.248,3.064V1.915a.383.383,0,0,0-.374-.374h-.5A.374.374,0,0,0,0,1.915V19.063A.934.934,0,0,0,.937,20h49.75a.562.562,0,0,0,.563-.562l1.562,0a.937.937,0,0,0,.937-.939V9.64a.944.944,0,0,0-.937-.937H51.249V5.94A.945.945,0,0,0,50.312,5H44.449l-1.2-1.963H42.4V.628h.051A.249.249,0,0,0,42.7.379V.254A.251.251,0,0,0,42.45,0Zm6.774,8.752a.119.119,0,0,1,.125-.126h.314a.124.124,0,0,1,.123.126.133.133,0,0,1-.123.125h-.314A.126.126,0,0,1,47.886,8.754Zm-2.437,0a.119.119,0,0,1,.125-.126h.611a.126.126,0,0,1,.126.126.135.135,0,0,1-.126.125h-.611A.126.126,0,0,1,45.449,8.754Zm-2.437,0a.126.126,0,0,1,.123-.126h.613a.126.126,0,0,1,.126.126.135.135,0,0,1-.126.125h-.613A.134.134,0,0,1,43.013,8.754Zm-2.427,0a.119.119,0,0,1,.125-.126h.6a.117.117,0,0,1,.123.126.124.124,0,0,1-.123.125h-.6A.126.126,0,0,1,40.586,8.754Zm-2.437,0a.119.119,0,0,1,.126-.126h.611a.126.126,0,0,1,.126.126.135.135,0,0,1-.126.125h-.611A.126.126,0,0,1,38.149,8.754Zm-2.437,0a.126.126,0,0,1,.123-.126h.613a.126.126,0,0,1,.126.126.135.135,0,0,1-.126.125h-.613A.135.135,0,0,1,35.712,8.754Zm-2.427,0a.119.119,0,0,1,.126-.126h.6a.117.117,0,0,1,.123.126.124.124,0,0,1-.123.125h-.6A.126.126,0,0,1,33.286,8.754Zm-2.437,0a.119.119,0,0,1,.126-.126h.611a.126.126,0,0,1,.125.126.135.135,0,0,1-.125.125h-.611A.126.126,0,0,1,30.849,8.754Zm-2.437,0a.126.126,0,0,1,.123-.126h.613a.126.126,0,0,1,.125.126.135.135,0,0,1-.125.125h-.613A.134.134,0,0,1,28.413,8.754Zm-2.427,0a.119.119,0,0,1,.126-.126h.6a.117.117,0,0,1,.123.126.124.124,0,0,1-.123.125h-.6A.126.126,0,0,1,25.986,8.754Zm-2.437,0a.119.119,0,0,1,.126-.126h.611a.126.126,0,0,1,.125.126.135.135,0,0,1-.125.125h-.611A.126.126,0,0,1,23.549,8.754Zm-2.437,0a.126.126,0,0,1,.123-.126h.613a.126.126,0,0,1,.126.126.135.135,0,0,1-.126.125h-.613A.134.134,0,0,1,21.113,8.754Zm-2.427,0a.119.119,0,0,1,.126-.126h.6a.117.117,0,0,1,.123.126.124.124,0,0,1-.123.125h-.6A.126.126,0,0,1,18.686,8.754Zm-2.437,0a.119.119,0,0,1,.125-.126h.611a.126.126,0,0,1,.126.126.135.135,0,0,1-.126.125h-.611A.126.126,0,0,1,16.249,8.754Zm-2.437,0a.124.124,0,0,1,.123-.126h.613a.126.126,0,0,1,.126.126.135.135,0,0,1-.126.125h-.613A.132.132,0,0,1,13.813,8.754Zm-2.427,0a.119.119,0,0,1,.126-.126h.6a.117.117,0,0,1,.123.126.124.124,0,0,1-.123.125h-.6A.126.126,0,0,1,11.386,8.754Zm-2.437,0a.119.119,0,0,1,.126-.126h.611a.126.126,0,0,1,.126.126.135.135,0,0,1-.126.125H9.075A.126.126,0,0,1,8.949,8.754Zm-2.437,0a.124.124,0,0,1,.123-.126h.613a.126.126,0,0,1,.126.126.135.135,0,0,1-.126.125H6.636A.132.132,0,0,1,6.513,8.754Zm-2.427,0a.119.119,0,0,1,.126-.126h.6a.117.117,0,0,1,.123.126.124.124,0,0,1-.123.125h-.6A.126.126,0,0,1,4.086,8.754Zm-2.137,0a.119.119,0,0,1,.126-.126h.312a.126.126,0,0,1,.126.126.135.135,0,0,1-.126.125H2.074A.126.126,0,0,1,1.949,8.754ZM47.886,12.5a.119.119,0,0,1,.125-.126h.314a.124.124,0,0,1,.123.126.131.131,0,0,1-.123.123h-.314A.124.124,0,0,1,47.886,12.5Zm-2.437,0a.119.119,0,0,1,.125-.126h.611a.126.126,0,0,1,.126.126.133.133,0,0,1-.126.123h-.611A.124.124,0,0,1,45.449,12.5Zm-2.437,0a.126.126,0,0,1,.123-.126h.613a.126.126,0,0,1,.126.126.133.133,0,0,1-.126.123h-.613A.133.133,0,0,1,43.013,12.5Zm-2.427,0a.119.119,0,0,1,.125-.126h.6a.117.117,0,0,1,.123.126.122.122,0,0,1-.123.123h-.6A.124.124,0,0,1,40.586,12.5Zm-2.437,0a.119.119,0,0,1,.126-.126h.611a.126.126,0,0,1,.126.126.133.133,0,0,1-.126.123h-.611A.124.124,0,0,1,38.149,12.5Zm-2.437,0a.126.126,0,0,1,.123-.126h.613a.126.126,0,0,1,.126.126.133.133,0,0,1-.126.123h-.613A.133.133,0,0,1,35.712,12.5Zm-2.427,0a.119.119,0,0,1,.126-.126h.6a.117.117,0,0,1,.123.126.122.122,0,0,1-.123.123h-.6A.124.124,0,0,1,33.286,12.5Zm-2.437,0a.119.119,0,0,1,.126-.126h.611a.126.126,0,0,1,.125.126.133.133,0,0,1-.125.123h-.611A.124.124,0,0,1,30.849,12.5Zm-2.437,0a.126.126,0,0,1,.123-.126h.613a.126.126,0,0,1,.125.126.133.133,0,0,1-.125.123h-.613A.133.133,0,0,1,28.413,12.5Zm-2.427,0a.119.119,0,0,1,.126-.126h.6a.117.117,0,0,1,.123.126.122.122,0,0,1-.123.123h-.6A.124.124,0,0,1,25.986,12.5Zm-2.437,0a.119.119,0,0,1,.126-.126h.611a.126.126,0,0,1,.125.126.133.133,0,0,1-.125.123h-.611A.124.124,0,0,1,23.549,12.5Zm-2.437,0a.126.126,0,0,1,.123-.126h.613a.126.126,0,0,1,.126.126.133.133,0,0,1-.126.123h-.613A.133.133,0,0,1,21.113,12.5Zm-2.427,0a.119.119,0,0,1,.126-.126h.6a.117.117,0,0,1,.123.126.122.122,0,0,1-.123.123h-.6A.124.124,0,0,1,18.686,12.5Zm-2.437,0a.119.119,0,0,1,.125-.126h.611a.126.126,0,0,1,.126.126.133.133,0,0,1-.126.123h-.611A.124.124,0,0,1,16.249,12.5Zm-2.437,0a.124.124,0,0,1,.123-.126h.613a.126.126,0,0,1,.126.126.133.133,0,0,1-.126.123h-.613A.131.131,0,0,1,13.813,12.5Zm-2.427,0a.119.119,0,0,1,.126-.126h.6a.117.117,0,0,1,.123.126.122.122,0,0,1-.123.123h-.6A.124.124,0,0,1,11.386,12.5Zm-2.437,0a.119.119,0,0,1,.126-.126h.611a.126.126,0,0,1,.126.126.133.133,0,0,1-.126.123H9.075A.124.124,0,0,1,8.949,12.5Zm-2.437,0a.124.124,0,0,1,.123-.126h.613a.126.126,0,0,1,.126.126.133.133,0,0,1-.126.123H6.636A.131.131,0,0,1,6.513,12.5Zm-2.427,0a.119.119,0,0,1,.126-.126h.6a.117.117,0,0,1,.123.126.122.122,0,0,1-.123.123h-.6A.124.124,0,0,1,4.086,12.5Zm-2.137,0a.119.119,0,0,1,.126-.126h.312a.126.126,0,0,1,.126.126.133.133,0,0,1-.126.123H2.074A.124.124,0,0,1,1.949,12.5Zm49.3,1.563h1.524a.313.313,0,1,1,0,.625H51.249Zm0,1.874h1.524a.313.313,0,1,1,0,.625H51.249Zm-3.364.313a.118.118,0,0,1,.125-.126h.314a.123.123,0,0,1,.123.126.132.132,0,0,1-.123.123h-.314A.125.125,0,0,1,47.886,16.254Zm-2.437,0a.118.118,0,0,1,.125-.126h.611a.125.125,0,0,1,.126.126.134.134,0,0,1-.126.123h-.611A.125.125,0,0,1,45.449,16.254Zm-2.437,0a.124.124,0,0,1,.123-.126h.613a.125.125,0,0,1,.126.126.135.135,0,0,1-.126.123h-.613A.134.134,0,0,1,43.013,16.254Zm-2.427,0a.118.118,0,0,1,.125-.126h.6a.116.116,0,0,1,.123.126.123.123,0,0,1-.123.123h-.6A.125.125,0,0,1,40.586,16.254Zm-2.437,0a.118.118,0,0,1,.126-.126h.611a.125.125,0,0,1,.126.126.135.135,0,0,1-.126.123h-.611A.126.126,0,0,1,38.149,16.254Zm-2.437,0a.125.125,0,0,1,.123-.126h.613a.125.125,0,0,1,.126.126.135.135,0,0,1-.126.123h-.613A.134.134,0,0,1,35.712,16.254Zm-2.427,0a.118.118,0,0,1,.126-.126h.6a.116.116,0,0,1,.123.126.123.123,0,0,1-.123.123h-.6A.126.126,0,0,1,33.286,16.254Zm-2.437,0a.118.118,0,0,1,.126-.126h.611a.125.125,0,0,1,.125.126.134.134,0,0,1-.125.123h-.611A.126.126,0,0,1,30.849,16.254Zm-2.437,0a.125.125,0,0,1,.123-.126h.613a.125.125,0,0,1,.125.126.134.134,0,0,1-.125.123h-.613A.134.134,0,0,1,28.413,16.254Zm-2.427,0a.118.118,0,0,1,.126-.126h.6a.116.116,0,0,1,.123.126.123.123,0,0,1-.123.123h-.6A.126.126,0,0,1,25.986,16.254Zm-2.437,0a.118.118,0,0,1,.126-.126h.611a.125.125,0,0,1,.125.126.134.134,0,0,1-.125.123h-.611A.125.125,0,0,1,23.549,16.254Zm-2.437,0a.125.125,0,0,1,.123-.126h.613a.125.125,0,0,1,.126.126.134.134,0,0,1-.126.123h-.613A.134.134,0,0,1,21.113,16.254Zm-2.427,0a.118.118,0,0,1,.126-.126h.6a.116.116,0,0,1,.123.126.123.123,0,0,1-.123.123h-.6A.125.125,0,0,1,18.686,16.254Zm-2.437,0a.118.118,0,0,1,.125-.126h.611a.125.125,0,0,1,.126.126.134.134,0,0,1-.126.123h-.611A.125.125,0,0,1,16.249,16.254Zm-2.437,0a.123.123,0,0,1,.123-.126h.613a.125.125,0,0,1,.126.126.134.134,0,0,1-.126.123h-.613A.132.132,0,0,1,13.813,16.254Zm-2.427,0a.118.118,0,0,1,.126-.126h.6a.116.116,0,0,1,.123.126.123.123,0,0,1-.123.123h-.6A.126.126,0,0,1,11.386,16.254Zm-2.437,0a.118.118,0,0,1,.126-.126h.611a.125.125,0,0,1,.126.126.135.135,0,0,1-.126.123H9.075A.126.126,0,0,1,8.949,16.254Zm-2.437,0a.123.123,0,0,1,.123-.126h.613a.125.125,0,0,1,.126.126.134.134,0,0,1-.126.123H6.636A.132.132,0,0,1,6.513,16.254Zm-2.427,0a.118.118,0,0,1,.126-.126h.6a.116.116,0,0,1,.123.126.123.123,0,0,1-.123.123h-.6A.125.125,0,0,1,4.086,16.254Zm-2.137,0a.118.118,0,0,1,.126-.126h.312a.125.125,0,0,1,.126.126.134.134,0,0,1-.126.123H2.074A.125.125,0,0,1,1.949,16.254Zm49.3,1.287h1.524a.31.31,0,0,1,.314.312.316.316,0,0,1-.314.312H51.249Z" transform="translate(53.749 19.999) rotate(180)" fill="#aaa" stroke="rgba(0,0,0,0)" stroke-miterlimit="10" stroke-width="1"/></g></svg>