<svg xmlns="http://www.w3.org/2000/svg" width="55" height="21" viewBox="0 0 55 21"><g transform="translate(0 0.5)"><rect width="55" height="20" transform="translate(0 0)" fill="#aaa" opacity="0"/><path d="M11.663,2.5a2.5,2.5,0,1,0,2.5-2.5A2.5,2.5,0,0,0,11.663,2.5Zm-6.62,0A2.5,2.5,0,1,0,7.544,0,2.5,2.5,0,0,0,5.043,2.5ZM35.536,0a.253.253,0,0,0-.25.25V.379a.251.251,0,0,0,.25.249h.051V3.04h-.849L33.549,5H32.474L30.612,1.941H24.587l-1.1,1.813H17.026a3.115,3.115,0,0,1-2.864,1.873A3.006,3.006,0,0,1,12.3,5a2.977,2.977,0,0,1-1-1.25h-.9A3.12,3.12,0,0,1,9.413,5a3.148,3.148,0,0,1-1.876.623A3.019,3.019,0,0,1,5.674,5a3.094,3.094,0,0,1-.985-1.25H4V5H2.436L1.25,3.064V1.929a.377.377,0,0,0-.376-.376h-.5A.369.369,0,0,0,0,1.929V6.154a.251.251,0,0,0,.25.25H29.263v.523H.25a.251.251,0,0,0-.25.25V16.4a.928.928,0,0,0,.937.937H47.487l.9,2.5a.26.26,0,0,0,.238.162h3.623a.251.251,0,0,0,.25-.249v-.9a.251.251,0,0,0-.25-.25h-1.8L46.3,7.1a.256.256,0,0,0-.226-.175H32.624V6.4H46a.251.251,0,0,0,.25-.25v-.9A.249.249,0,0,0,46,5H38.875L37.686,3.04h-.849V.628h.039a.251.251,0,0,0,.25-.249V.252a.253.253,0,0,0-.25-.25Z" transform="translate(53.75 20) rotate(180)" fill="#aaa" stroke="rgba(0,0,0,0)" stroke-miterlimit="10" stroke-width="1"/></g></svg>