<svg xmlns="http://www.w3.org/2000/svg" width="55" height="20.975" viewBox="0 0 55 20.975"><g transform="translate(0 0.475)"><rect width="55" height="20" fill="#aaa" opacity="0"/><path d="M13.554,2.188A2.188,2.188,0,1,0,15.744,0,2.187,2.187,0,0,0,13.554,2.188Zm-6.284,0A2.187,2.187,0,1,0,9.458,0,2.187,2.187,0,0,0,7.27,2.188ZM36.1,0a.251.251,0,0,0-.248.251V.38A.25.25,0,0,0,36.1.631h.051V.942H18.786a.25.25,0,0,0-.248.251V3.52h-.326a2.79,2.79,0,0,1-1.374,1.249h1.7v5.425l1.461.8-4.175,7.227-4.2-1.3L13.138,4.769H14.65A2.763,2.763,0,0,1,13.262,3.52H11.925a2.772,2.772,0,0,1-1.388,1.249h1.337L10.412,16.543,3.7,14.443,5.224,2.194h.188V4.769h2.95A2.782,2.782,0,0,1,6.973,3.52H6.661V1.193A.251.251,0,0,0,6.411.942H.248A.25.25,0,0,0,0,1.193v.75a.251.251,0,0,0,.248.251h3.7L2.487,14.068.611,13.481a.255.255,0,0,0-.312.163l-.227.724a.266.266,0,0,0,.163.312l16.971,5.28a.255.255,0,0,0,.2-.021l9.168-5.332H37.4L52.325,9.947a.252.252,0,0,0,.175-.239V4.881a.252.252,0,0,0-.251-.251H44.224L40.975,3.381,39.562.942H37.4V.631h.036A.251.251,0,0,0,37.687.38V.256A.252.252,0,0,0,37.436,0Zm1.3,2.189h1.437l5.212,9.024L37.4,13.294Zm-8.812,0H36.15v11.16H28.587ZM21.711,10.5l4.8-8.311h.826v11.16H26.9Zm-1.924-1.05V2.194h5.288l-4.45,7.711Zm22.836-3.2h8.625V8.968l-5.975,1.863ZM17.037,18.605l4.051-7.012L25.3,13.905l-8.137,4.739Z" transform="translate(53.749 20) rotate(180)" fill="#aaa" stroke="rgba(0,0,0,0)" stroke-miterlimit="10" stroke-width="1"/></g></svg>