<svg xmlns="http://www.w3.org/2000/svg" width="55" height="20" viewBox="0 0 55 20"><rect width="55" height="20" transform="translate(0)" fill="#aaa" opacity="0"/><path d="M13.82,262.942a2.5,2.5,0,1,1,2.5,2.5,2.5,2.5,0,0,1-2.5-2.5" transform="translate(18.905 -245.442)" fill="#aaa"/><path d="M1,258.046v2a.251.251,0,0,0,.25.25H7.975a1.254,1.254,0,0,1,1.25,1.25v2.112a1.344,1.344,0,0,0,1.35,1.35H29.45l1.612-2.663h1.05a3.12,3.12,0,0,1,2.862-1.875,3.013,3.013,0,0,1,1.862.625,3.1,3.1,0,0,1,.987,1.25h.937a3.085,3.085,0,0,1,2.837-1.862,3.035,3.035,0,0,1,1.837.612,3.1,3.1,0,0,1,.987,1.25h.925a3.12,3.12,0,0,1,2.862-1.875,3.013,3.013,0,0,1,1.862.625,3.1,3.1,0,0,1,.987,1.25h.762l.425.688v1.15a.384.384,0,0,0,.375.375h.5a.376.376,0,0,0,.375-.375v-4.237a.251.251,0,0,0-.25-.25H29.887l-1.612,2.65H11.725v-.8a3.753,3.753,0,0,0-3.75-3.75H1.25a.251.251,0,0,0-.25.25" transform="translate(0.25 -246.103)" fill="#aaa"/><path d="M3.23,262.942a2.5,2.5,0,1,1,2.5,2.5,2.5,2.5,0,0,1-2.5-2.5" transform="translate(42.732 -245.442)" fill="#aaa"/><path d="M8.525,262.942a2.5,2.5,0,1,1,2.5,2.5,2.5,2.5,0,0,1-2.5-2.5" transform="translate(30.819 -245.442)" fill="#aaa"/></svg>