<svg xmlns="http://www.w3.org/2000/svg" width="32" height="32" viewBox="0 0 32 32"><g transform="translate(-570 -1217.821)"><rect width="32" height="32" transform="translate(570 1217.821)" fill="#aaa" opacity="0"/><path d="M.755,28.8A.769.769,0,0,1,0,28V23.2a.8.8,0,0,1,.755-.8H3.524L5.85,20.51A6.091,6.091,0,0,1,9.559,19.2h7.958A1.6,1.6,0,0,1,19.1,21.07,1.662,1.662,0,0,1,17.427,22.4H13.562a.758.758,0,0,0-.755.756.792.792,0,0,0,.755.758h6.03L25.58,19.5a2,2,0,0,1,2.8.424,2.047,2.047,0,0,1-.384,2.887L21.24,27.785A5.26,5.26,0,0,1,18.112,28.8Zm19.4-11.02a.832.832,0,0,1-.833-.832V15.553H17.936a.827.827,0,0,1-.833-.828V13.33H15.714a.653.653,0,0,1-.561-.27l-1.187-1.127a6.113,6.113,0,1,1,4.249-5.824,6.222,6.222,0,0,1-.289,1.869l5.6,5.6a.833.833,0,0,1,.242.592v2.779a.832.832,0,0,1-.833.832ZM9.326,4.721a1.389,1.389,0,1,0,1.389-1.389A1.388,1.388,0,0,0,9.326,4.721Z" transform="translate(571.599 1219.417)" fill="#aaa"/></g></svg>