<svg xmlns="http://www.w3.org/2000/svg" xmlns:xlink="http://www.w3.org/1999/xlink" width="32" height="32" viewBox="0 0 32 32"><defs><clipPath id="a"><rect width="32" height="32" fill="#dadada" opacity="0"/></clipPath></defs><g transform="translate(-570.082 -1020)"><g transform="translate(570.082 1020)" opacity="0"><g transform="translate(0)"><g clip-path="url(#a)"><rect width="32" height="32" transform="translate(0)" fill="#dadada"/></g></g></g><path d="M22.668,3.305h.009A12.913,12.913,0,0,0,12.11.688,12.393,12.393,0,0,0,4.419,20.278C6.2,22.64,11.342,28.1,13.468,30.343a1.581,1.581,0,0,0,2.235.076c.027-.025.052-.05.076-.076,2.116-2.242,7.225-7.716,9-10.06a12.265,12.265,0,0,0-2.11-16.978m-.523,7.813L13.5,19.694a.725.725,0,0,1-1.026,0l-5-5.036a.725.725,0,0,1,.005-1.026l1.717-1.7a.725.725,0,0,1,1.026,0l2.78,2.8L19.42,8.37a.725.725,0,0,1,1.026,0l1.7,1.719a.725.725,0,0,1,0,1.026" transform="translate(571.463 1020.35)" fill="#dadada"/></g></svg>