<svg xmlns="http://www.w3.org/2000/svg" width="32" height="32" viewBox="0 0 32 32"><g transform="translate(-570 -1180.188)"><rect width="32" height="32" transform="translate(570 1180.188)" fill="#aaa" opacity="0"/><path d="M15.028,160.638a14.578,14.578,0,1,0,14.578,14.578,14.578,14.578,0,0,0-14.578-14.578m0,23.272a8.694,8.694,0,1,1,8.694-8.694,8.7,8.7,0,0,1-8.694,8.694M11.4,175.216a3.6,3.6,0,0,1,.72-2.147L9.94,170.063A6.974,6.974,0,0,0,7.9,176.387l3.507-1.139,0-.032m.68,2.1-3.505,1.139a7.208,7.208,0,0,0,5.362,3.9v-3.7a3.6,3.6,0,0,1-1.857-1.338m2.943-5.722a3.62,3.62,0,0,1,1.142.2l2.17-2.987a6.986,6.986,0,0,0-6.626,0l2.17,2.987a3.62,3.62,0,0,1,1.142-.2m5.088-1.529-2.184,3.006a3.6,3.6,0,0,1,.72,2.147l0,.032,3.507,1.141a6.977,6.977,0,0,0-2.039-6.326Zm-4,8.59v3.7a7.208,7.208,0,0,0,5.362-3.9l-3.505-1.139a3.6,3.6,0,0,1-1.857,1.338m-1.086-4.887a1.449,1.449,0,1,0,1.449,1.449,1.45,1.45,0,0,0-1.449-1.449" transform="translate(570.972 1020.972)" fill="#aaa"/></g></svg>