<svg xmlns="http://www.w3.org/2000/svg" width="23" height="23.009" viewBox="0 0 23 23.009"><g transform="translate(-563.161 -894.693)"><g transform="translate(565.494 895.202)"><path d="M583.994,903.831a10.646,10.646,0,0,1-1.417,5.13,23.23,23.23,0,0,1-4.93,6.018c-.8.726-1.666,1.392-2.509,2.077a.4.4,0,0,1-.6.022,27.39,27.39,0,0,1-7.174-7.609,11.261,11.261,0,0,1-1.619-4.342,8.25,8.25,0,0,1,1.5-6.051,9.008,9.008,0,0,1,6.176-3.769,9.165,9.165,0,0,1,10.319,6.671,6.953,6.953,0,0,1,.148.764C583.943,903.171,583.973,903.6,583.994,903.831ZM567.956,904a7.273,7.273,0,1,0,0-.009V904Z" transform="translate(-565.661 -895.203)" fill="#f3f3f3" stroke="rgba(0,0,0,0)" stroke-width="1"/><path d="M575.294,906.312c-.748.725-1.454,1.438-2.2,2.118a1.468,1.468,0,0,1-1.985-.028,1.311,1.311,0,0,1-.119-1.882c.719-.733,1.5-1.423,2.264-2.14A3.813,3.813,0,0,0,575.294,906.312Z" transform="translate(-566.077 -895.967)" fill="#f3f3f3" stroke="rgba(0,0,0,0)" stroke-width="1"/><path d="M577.76,905.4h-.009a3.106,3.106,0,0,1-.527.064,3.8,3.8,0,0,1-.69-.034h0a2.8,2.8,0,0,1-1.624-.809,3.336,3.336,0,0,1-.86-1.588,2.492,2.492,0,0,1,.034-1.159v-.008a3.033,3.033,0,0,1,3.505-2.207.5.5,0,0,1,.191.087h.007a.616.616,0,0,1,.146.146l.009.014a.308.308,0,0,1-.08.379c-.016.017-.031.033-.048.049-.323.305-.653.605-.955.928a.683.683,0,0,0-.146.257,4.868,4.868,0,0,0-.045.917.476.476,0,0,0,.108.352l.007.006a.5.5,0,0,0,.382.117,5.553,5.553,0,0,0,.956-.044.742.742,0,0,0,.267-.139c.336-.291.648-.607.967-.917l.052-.048a.336.336,0,0,1,.393-.074l.014.008a.6.6,0,0,1,.152.14v.006a.453.453,0,0,1,.091.183A2.914,2.914,0,0,1,577.76,905.4Z" transform="translate(-566.356 -895.57)" fill="#f3f3f3" stroke="rgba(0,0,0,0)" stroke-width="1"/></g><rect width="22" height="22" transform="translate(563.661 895.202)" fill="#f3f3f3" stroke="rgba(0,0,0,0)" stroke-width="1" opacity="0"/></g></svg>