<svg xmlns="http://www.w3.org/2000/svg" width="23" height="23" viewBox="0 0 23 23"><g transform="translate(-571.32 -1003.245)"><g transform="translate(571.82 1003.745)"><path d="M582.625,1003.745h.389a11.018,11.018,0,0,1,10.807,10.8v.391a11.034,11.034,0,0,1-7.952,10.376,11.248,11.248,0,0,1-2.852.429h-.391a11.017,11.017,0,0,1-10.806-10.8v-.39a11.023,11.023,0,0,1,10.8-10.806m-.275,2.765a8.58,8.58,0,0,0-1.723.29,8.266,8.266,0,0,0-4.95,3.823,8.135,8.135,0,0,0-.976,2.7,8.249,8.249,0,0,0,6.185,9.432,8.087,8.087,0,0,0,4.125-.067,8.249,8.249,0,0,0,5.926-9.364,8.114,8.114,0,0,0-.775-2.319,8.263,8.263,0,0,0-7.811-4.5Z" transform="translate(-571.82 -1003.745)" fill="#f3f3f3" stroke="rgba(0,0,0,0)" stroke-width="1"/><path d="M582.274,1007.8a7.323,7.323,0,1,1-6.441,7.037,7.192,7.192,0,0,1,.688-2.866,7.338,7.338,0,0,1,4.833-3.995,7.143,7.143,0,0,1,.917-.176m.092.949a6.439,6.439,0,0,0-1.145.25.46.46,0,0,0-.331.449,4.124,4.124,0,0,0,.394,1.531,2.639,2.639,0,0,0,.951,1.111,1.72,1.72,0,0,0,1.265.234,2.105,2.105,0,0,0,1.293-.941,3.862,3.862,0,0,0,.632-1.937.459.459,0,0,0-.331-.446,6.414,6.414,0,0,0-2.729-.25m-3.453,1.609a.926.926,0,0,0-.29.225,6.362,6.362,0,0,0-1.742,3.2.469.469,0,0,0,.3.52,3.3,3.3,0,0,0,1.5.309,2.536,2.536,0,0,0,1.435-.423,1.4,1.4,0,0,0,.56-1.048,2.862,2.862,0,0,0-.437-1.513,6.862,6.862,0,0,0-.841-1.137.46.46,0,0,0-.493-.131m8.166.011a.972.972,0,0,0-.329.305,4.919,4.919,0,0,0-1.036,1.782,1.66,1.66,0,0,0,.113,1.327,1.6,1.6,0,0,0,.9.678,3.347,3.347,0,0,0,2.219-.081.761.761,0,0,0,.436-.3.653.653,0,0,0,0-.506,6.4,6.4,0,0,0-1.8-3.095.47.47,0,0,0-.505-.109m-4.329,2.924a1.833,1.833,0,1,0,1.23.149,1.834,1.834,0,0,0-1.23-.149m4.583,2.265a1.956,1.956,0,0,0-1.5.806,1.67,1.67,0,0,0-.1,1.375,5.019,5.019,0,0,0,1.042,1.763.772.772,0,0,0,.343.291.456.456,0,0,0,.451-.1,6.339,6.339,0,0,0,1.867-3.324.458.458,0,0,0-.239-.487,3.374,3.374,0,0,0-1.86-.322m-9.194.081a3.2,3.2,0,0,0-1.017.314.452.452,0,0,0-.241.406,1.549,1.549,0,0,0,.059.306,6.373,6.373,0,0,0,1.8,3.082.458.458,0,0,0,.467.111c.2-.065.3-.257.432-.4a6.114,6.114,0,0,0,.574-.8,2.675,2.675,0,0,0,.443-1.785,1.41,1.41,0,0,0-.763-.979,3.007,3.007,0,0,0-1.755-.25m4.7,2.218a1.914,1.914,0,0,0-.834.405,3.361,3.361,0,0,0-1.058,2.007c-.015.233-.122.489,0,.709a.637.637,0,0,0,.443.261,6.407,6.407,0,0,0,3.705-.053.458.458,0,0,0,.327-.475,3.6,3.6,0,0,0-1.043-2.389A1.794,1.794,0,0,0,582.834,1017.862Z" transform="translate(-572.154 -1004.079)" fill="#f3f3f3" stroke="rgba(0,0,0,0)" stroke-width="1"/></g><rect width="22" height="22" transform="translate(571.82 1003.745)" fill="#f3f3f3" stroke="rgba(0,0,0,0)" stroke-width="1" opacity="0"/></g></svg>