<svg xmlns="http://www.w3.org/2000/svg" width="23" height="23.037" viewBox="0 0 23 23.037"><g transform="translate(-395.529 -1003.723)"><path d="M411.749,1004.229a1.653,1.653,0,0,1,1.191,1.171c.378,1.008.79,2.008,1.2,3.007a1.6,1.6,0,0,1,0,1.269c-.433,1.058-.852,2.122-1.277,3.183a1.4,1.4,0,0,1-1.466.991h-.534c-.165,1.251-1.02,1.456-2.061,1.365-.014.319-.021.612-.043.9a4.007,4.007,0,0,1-1.215,2.67,7.212,7.212,0,0,1-1.16.834,2.052,2.052,0,0,0-1.028,1.73,2.108,2.108,0,0,0,1.789,2.093,2.016,2.016,0,0,0,2.214-1.4,4.417,4.417,0,0,0,.124-.758,1.375,1.375,0,0,1,2.609-.453,2.105,2.105,0,0,1,.073,1.283,4.725,4.725,0,0,1-3.757,3.986,4.55,4.55,0,0,1-4.748-1.747,4.724,4.724,0,0,1,1.54-7.212,1.5,1.5,0,0,0,.835-1.37c.007-.171,0-.344,0-.55-.138,0-.275-.009-.4,0a1.447,1.447,0,0,1-1.676-1.374h-.617a1.345,1.345,0,0,1-1.329-.873c-.466-1.129-.91-2.267-1.364-3.4a1.408,1.408,0,0,1,.006-1.086q.674-1.682,1.344-3.364a1.476,1.476,0,0,1,1.074-.895Zm-8.992,2.062.268.807q.752,2.254,1.507,4.507c.023.069.092.173.138.174.446.014.895.008,1.367.008l-.6-1.789c-.389-1.172-.776-2.343-1.172-3.512-.026-.076-.113-.183-.174-.183C403.657,1006.283,403.22,1006.29,402.757,1006.29Zm9.311,5.5-1.832-5.481h-1.446c.059.183.111.342.165.5q.8,2.4,1.6,4.792c.023.07.091.176.138.177.451.013.9.007,1.377.007Zm-3.017,0-1.828-5.482h-1.448c.6,1.806,1.2,3.592,1.8,5.377a.184.184,0,0,0,.129.1c.442.006.885,0,1.348,0Z" transform="translate(-0.376 0)" fill="#f3f3f3" stroke="rgba(0,0,0,0)" stroke-width="1"/><rect width="22" height="22" transform="translate(396.029 1004.223)" fill="#f3f3f3" stroke="rgba(0,0,0,0)" stroke-width="1" opacity="0"/></g></svg>