<svg xmlns="http://www.w3.org/2000/svg" width="23" height="23" viewBox="0 0 23 23"><g transform="translate(-393.737 -893.801)"><g transform="translate(395.882 894.301)"><path d="M413.011,916.758a.673.673,0,0,1-.642.668.657.657,0,0,0,.66-.654v-.886h-.018ZM410.353,911a.867.867,0,0,0,0,1.714.873.873,0,0,1,0-1.714Zm-2.75-1.43h-.037a.567.567,0,0,1,.559.576v.011a.578.578,0,0,1-.55.559.589.589,0,0,0,.587-.549.575.575,0,0,0-.555-.6h0Zm.494,2.1a.508.508,0,0,0-.127-.183.624.624,0,0,1,.127.184Zm.038.229a.546.546,0,0,1-.128.357.548.548,0,0,0,.092-.587.517.517,0,0,1,.037.23Zm-.458.568a.545.545,0,0,0,.33-.211.6.6,0,0,1-.321.193Zm-4.95-4.107a.563.563,0,0,1,.541-.55.574.574,0,0,0-.092,1.144.4.4,0,0,0,.046,0h.055a.566.566,0,0,1-.55-.583v-.012Zm-1.842,8.4a.7.7,0,0,1-.394.614.641.641,0,0,0,.4-.6v-.88h-.009Zm-2.613-8.067a1.338,1.338,0,0,0-.733.22,1.41,1.41,0,0,1,.733-.211h.339Zm.77,2.31a.867.867,0,0,0,0,1.714.876.876,0,0,1,0-1.714Zm-2.09,2.42V913.4h-.559Z" transform="translate(-396.062 -895.427)" fill="#f3f3f3" stroke="rgba(0,0,0,0)" stroke-width="1"/><path d="M414.411,912.277l-.559.018v-3.41a1.017,1.017,0,0,0-.055-.339.522.522,0,0,0-.055-.174,1.307,1.307,0,0,0-.284-.422,1.338,1.338,0,0,0-.926-.376h-.348V895.181a.349.349,0,0,0-.147-.284l-.843-.55a.413.413,0,0,0-.183-.046.327.327,0,0,0-.33.326V898.6l-.238-.642a2.3,2.3,0,0,0-2.163-1.531h-5.784a2.3,2.3,0,0,0-2.163,1.531l-.247.642v-3.969a.326.326,0,0,0-.321-.33h-.009a.417.417,0,0,0-.183.046l-.843.55a.379.379,0,0,0-.147.284v12.393h-.339a1.394,1.394,0,0,0-.733.211,1.352,1.352,0,0,0-.477.587.546.546,0,0,0-.055.174,1.116,1.116,0,0,0-.055.348v3.4l-.559-.018h-.009a.326.326,0,0,0-.321.33v1.824a.329.329,0,0,0,.328.329h1.432v.872a.673.673,0,0,0,.642.668H400.2a.673.673,0,0,0,.247-.055h.009a.7.7,0,0,0,.394-.613v-.872h9.066v.872a.681.681,0,0,0,.394.613c0,.009.009,0,.009,0a.678.678,0,0,0,.247.055h1.769a.673.673,0,0,0,.642-.668v-.872h1.43a.328.328,0,0,0,.33-.328h0v-1.824a.328.328,0,0,0-.328-.33Zm-13.887-11.816,4.061-.009h1.6l4.052.009v3.254h-9.717Zm-.073,11.128a1.112,1.112,0,0,1-.174.018h-1.127a.369.369,0,0,1-.137-.018.867.867,0,0,1,0-1.714.334.334,0,0,1,.137-.018h1.127a.924.924,0,0,1,.174.018.867.867,0,0,1,0,1.714Zm7.526-.458a.552.552,0,0,1-.33.211.564.564,0,0,1-.119.009h-4.29l-.11-.009a.566.566,0,0,1-.431-.376.6.6,0,0,1-.037-.183v-.009a.614.614,0,0,1,.165-.412c.009-.019.028-.028.046-.046a.516.516,0,0,1,.238-.11.408.408,0,0,1,.11-.018h4.345a.283.283,0,0,1,.092.018.417.417,0,0,1,.2.082.3.3,0,0,1,.082.073.558.558,0,0,1,.174.4.537.537,0,0,1-.137.367Zm-.431-1.54h-4.327a.583.583,0,0,1-.577-.55.574.574,0,0,1,.55-.6h4.382a.574.574,0,0,1,.559.591v0A.591.591,0,0,1,407.545,909.591Zm.037-1.76h-4.391a.574.574,0,1,1,0-1.148.384.384,0,0,1,.046,0h4.3a.574.574,0,0,1,.046,1.146Zm4.18,3.758a1.112,1.112,0,0,1-.174.018H410.46a.369.369,0,0,1-.138-.018.867.867,0,0,1,0-1.714.334.334,0,0,1,.138-.018h1.127a.924.924,0,0,1,.174.018.868.868,0,0,1,0,1.714Z" transform="translate(-396.032 -894.301)" fill="#f3f3f3" stroke="rgba(0,0,0,0)" stroke-width="1"/></g><rect width="22" height="22" transform="translate(394.237 894.301)" fill="#f3f3f3" stroke="rgba(0,0,0,0)" stroke-width="1" opacity="0"/></g></svg>