<svg xmlns="http://www.w3.org/2000/svg" width="447" height="355" viewBox="0 0 447 355">
  <g id="Group_78675" data-name="Group 78675" transform="translate(-737 -248.454)">
    <g id="Artboard_8" data-name="Artboard 8" transform="translate(737 248.454)">
      <path id="Path_20781" data-name="Path 20781" d="M600.174,436.868a6.527,6.527,0,0,1-.725-.039L439.95,419a6.479,6.479,0,0,1-5.7-7.138l23.48-209.93a6.476,6.476,0,0,1,7.139-5.7l159.5,17.834a6.479,6.479,0,0,1,5.7,7.138l-23.48,209.93a6.479,6.479,0,0,1-6.41,5.739ZM464.142,197.492a4.922,4.922,0,0,0-4.869,4.359l-23.487,209.93a4.918,4.918,0,0,0,4.329,5.415l159.5,17.834a4.919,4.919,0,0,0,5.42-4.324l23.48-209.922a4.922,4.922,0,0,0-4.344-5.427L464.69,197.523A5.155,5.155,0,0,0,464.142,197.492Z" transform="translate(-332.443 -174.336)" fill="#3c3c3c"/>
      <path id="Path_20782" data-name="Path 20782" d="M559.284,424.454,404.8,380.935a5.7,5.7,0,0,1-3.928-7.007l57.294-203.32a5.7,5.7,0,0,1,7-3.939L619.65,210.184a5.7,5.7,0,0,1,3.951,7.022l-57.309,203.32A5.7,5.7,0,0,1,559.284,424.454Z" transform="translate(-311.829 -156.067)" fill="#ffe0b2"/>
      <path id="Path_20783" data-name="Path 20783" d="M713.26,303.361l-75-21.125a4.216,4.216,0,0,1-2.907-5.18h0a4.213,4.213,0,0,1,5.165-2.906l75.014,21.125a4.213,4.213,0,0,1,2.906,5.18h0a4.213,4.213,0,0,1-5.181,2.906Z" transform="translate(-455.956 -222.156)" fill="#b3cef6"/>
      <path id="Path_20784" data-name="Path 20784" d="M683.258,360.773l-118.138-33.3a4.213,4.213,0,0,1-2.907-5.18h0a4.217,4.217,0,0,1,5.181-2.9l118.138,33.285a4.213,4.213,0,0,1,2.907,5.18h0A4.213,4.213,0,0,1,683.258,360.773Z" transform="translate(-411.009 -249.96)" fill="#ffa726"/>
      <path id="Path_20785" data-name="Path 20785" d="M669.637,409.1,551.5,375.818a4.213,4.213,0,0,1-2.907-5.18h0a4.213,4.213,0,0,1,5.181-2.887l118.138,33.262a4.216,4.216,0,0,1,2.906,5.18h0A4.217,4.217,0,0,1,669.637,409.1Z" transform="translate(-402.639 -279.677)" fill="#ffa726"/>
      <path id="Path_20786" data-name="Path 20786" d="M656.027,457.387,537.889,424.109a4.213,4.213,0,0,1-2.907-5.18h0a4.213,4.213,0,0,1,5.181-2.906L658.3,449.3a4.217,4.217,0,0,1,2.9,5.18h0A4.213,4.213,0,0,1,656.027,457.387Z" transform="translate(-394.275 -309.345)" fill="#ffa726"/>
      <path id="Path_20787" data-name="Path 20787" d="M642.417,505.7,524.279,472.421a4.213,4.213,0,0,1-2.906-5.18h0a4.217,4.217,0,0,1,5.181-2.906l118.138,33.282a4.213,4.213,0,0,1,2.906,5.18h0A4.213,4.213,0,0,1,642.417,505.7Z" transform="translate(-385.912 -339.037)" fill="#ffa726"/>
      <path id="Path_20788" data-name="Path 20788" d="M628.794,554.017l-118.13-33.278a4.213,4.213,0,0,1-2.91-5.18h0a4.213,4.213,0,0,1,5.181-2.906l118.138,33.278a4.216,4.216,0,0,1,2.907,5.18h0a4.217,4.217,0,0,1-5.185,2.906Z" transform="translate(-377.542 -368.731)" fill="#ffa726"/>
      <path id="Path_20789" data-name="Path 20789" d="M615.188,602.337,497.05,569.055a4.209,4.209,0,0,1-2.906-5.176h0a4.213,4.213,0,0,1,5.181-2.906l118.138,33.278a4.216,4.216,0,0,1,2.906,5.18h0A4.217,4.217,0,0,1,615.188,602.337Z" transform="translate(-369.178 -398.428)" fill="#ffa726"/>
      <path id="Path_20790" data-name="Path 20790" d="M601.579,650.648,483.441,617.371a4.217,4.217,0,0,1-2.907-5.18h0a4.217,4.217,0,0,1,5.181-2.906l118.138,33.282a4.213,4.213,0,0,1,2.906,5.18h0A4.217,4.217,0,0,1,601.579,650.648Z" transform="translate(-360.816 -428.119)" fill="#ffa726"/>
      <path id="Path_20791" data-name="Path 20791" d="M587.968,698.967,469.83,665.685a4.209,4.209,0,0,1-2.907-5.176h0A4.213,4.213,0,0,1,472.1,657.6l118.138,33.278a4.216,4.216,0,0,1,2.907,5.18h0A4.213,4.213,0,0,1,587.968,698.967Z" transform="translate(-352.451 -457.814)" fill="#ffa726"/>
      <path id="Path_20792" data-name="Path 20792" d="M529.04,163.161l-129.587-13.49A9.251,9.251,0,0,0,389.3,157.9h0L368.121,361.035a9.251,9.251,0,0,0,8.23,10.148h0l157.58,16.423a9.251,9.251,0,0,0,10.146-8.233l18.249-175.161Z" transform="translate(-291.8 -145.717)" fill="#6c6c6c" opacity="0.25"/>
      <path id="Path_20793" data-name="Path 20793" d="M515.9,153.031,386.31,139.541a9.251,9.251,0,0,0-10.15,8.217L354.982,350.9a9.251,9.251,0,0,0,8.23,10.144h0L520.8,377.495a9.251,9.251,0,0,0,10.146-8.229h0L549.2,194.082Zm10.863,200.907.563,4.382-3.728-1.465-3.535,6.911-2.733-8.132-9.174,3.623,4.649-6.379-8.481-3.026,12.1-4.24,3.728-11.744,2.748,9.6,6.835-2.7Z" transform="translate(-283.726 -139.491)" fill="#f7f7f7"/>
      <path id="Path_20794" data-name="Path 20794" d="M764.862,202.61a9.251,9.251,0,0,0,8.23,10.144h0l27.994,2.918L767.776,174.62Z" transform="translate(-535.605 -161.08)" fill="#dadada"/>
      <path id="Path_20795" data-name="Path 20795" d="M782.54,272.89l28.95,7.894.49-4.71Z" transform="translate(-546.499 -221.475)" fill="#cecece"/>
      <path id="Path_20796" data-name="Path 20796" d="M599.493,262.341l-79.247-8.256a3.912,3.912,0,0,1-3.469-4.29h0a3.912,3.912,0,0,1,4.29-3.469l79.239,8.248a3.912,3.912,0,0,1,3.469,4.29h0A3.909,3.909,0,0,1,599.493,262.341Z" transform="translate(-383.17 -205.137)" fill="#26a690"/>
      <path id="Path_20797" data-name="Path 20797" d="M576.986,329.148,445.977,315.492a3.912,3.912,0,0,1-3.469-4.286h0a3.916,3.916,0,0,1,4.29-3.469l131,13.64a3.916,3.916,0,0,1,3.469,4.29h0A3.916,3.916,0,0,1,576.986,329.148Z" transform="translate(-337.53 -242.878)" fill="#dadada"/>
      <path id="Path_20798" data-name="Path 20798" d="M571.635,380.447,440.625,366.8a3.908,3.908,0,0,1-3.469-4.29h0a3.909,3.909,0,0,1,4.286-3.469l131.009,13.652a3.912,3.912,0,0,1,3.469,4.29h0A3.909,3.909,0,0,1,571.635,380.447Z" transform="translate(-334.241 -274.405)" fill="#dadada"/>
      <path id="Path_20799" data-name="Path 20799" d="M566.3,431.758,435.286,418.106a3.912,3.912,0,0,1-3.469-4.29h0a3.912,3.912,0,0,1,4.286-3.469L567.112,424a3.912,3.912,0,0,1,3.469,4.286h0A3.913,3.913,0,0,1,566.3,431.758Z" transform="translate(-330.96 -305.94)" fill="#dadada"/>
      <path id="Path_20800" data-name="Path 20800" d="M560.945,483.062,429.936,469.406a3.912,3.912,0,0,1-3.469-4.29h0a3.916,3.916,0,0,1,4.29-3.469L561.766,475.3a3.916,3.916,0,0,1,3.469,4.29h0a3.916,3.916,0,0,1-4.29,3.469Z" transform="translate(-327.672 -337.467)" fill="#dadada"/>
      <path id="Path_20801" data-name="Path 20801" d="M555.591,534.378,424.586,520.722a3.908,3.908,0,0,1-3.469-4.286h0a3.912,3.912,0,0,1,4.287-3.469l131.009,13.652a3.916,3.916,0,0,1,3.469,4.29h0A3.916,3.916,0,0,1,555.591,534.378Z" transform="translate(-324.384 -369.007)" fill="#dadada"/>
      <path id="Path_20802" data-name="Path 20802" d="M550.245,585.672,419.236,572.016a3.912,3.912,0,0,1-3.469-4.29h0a3.913,3.913,0,0,1,4.287-3.469l131.009,13.656a3.912,3.912,0,0,1,3.469,4.286h0A3.916,3.916,0,0,1,550.245,585.672Z" transform="translate(-321.097 -400.529)" fill="#dadada"/>
      <path id="Path_20804" data-name="Path 20804" d="M757.524,651.74l63.346,74.692.482,3.924L748.03,656.916Z" transform="translate(-525.292 -454.306)" fill="#536bc2"/>
      <path id="Path_20805" data-name="Path 20805" d="M908.06,794.1s14.263,1.839,20.488-5.512,7.2-16.808,2.128-21.1-14.263-1.839-20.488,5.508S908.06,794.1,908.06,794.1Z" transform="translate(-622.821 -524.145)" fill="#97a8dc"/>
      <ellipse id="Ellipse_3327" data-name="Ellipse 3327" cx="9.633" cy="16.859" rx="9.633" ry="16.859" transform="matrix(0.993, -0.122, 0.122, 0.993, 293.227, 262.529)" fill="#97a8dc"/>
      <path id="Path_20806" data-name="Path 20806" d="M954.6,898.143c-4.957,4.432-1.789,16.065,7.077,25.982s31.058,3.827,31.058,3.827a80.906,80.906,0,0,0-13.106-19.876C970.763,898.158,959.557,893.711,954.6,898.143Z" transform="translate(-650.792 -604.684)" fill="#97a8dc"/>
      <path id="Path_20807" data-name="Path 20807" d="M907.917,795.47a35.78,35.78,0,0,0,1.156,12.9s14.263,1.838,20.488-5.512a23.812,23.812,0,0,0,4.287-7.323,21.979,21.979,0,0,1-5.281,11.536c-6.245,7.35-20.488,5.512-20.488,5.512S905.169,802.928,907.917,795.47Z" transform="translate(-622.82 -542.639)" fill="#536bc2"/>
      <path id="Path_20808" data-name="Path 20808" d="M937.958,828.59a26.974,26.974,0,0,0-.274,8.576c1.133,9.25,6.333,16.188,11.618,15.56,2.213-.27,4.082-1.85,5.431-4.24-1.049,5.172-3.712,8.9-7.239,9.331-5.281.648-10.481-6.321-11.614-15.564C935.222,836.869,936.089,831.928,937.958,828.59Z" transform="translate(-640.596 -562.993)" fill="#536bc2"/>
      <path id="Path_20809" data-name="Path 20809" d="M954.111,902.33c-.243,5.569,3.157,13.378,9.39,20.351,6.553,7.323,20.376,5.912,27.149,4.675,1.4,2.586,2.1,4.24,2.1,4.24s-22.192,6.09-31.058-3.827C953.174,918.217,949.94,907.113,954.111,902.33Z" transform="translate(-650.819 -608.312)" fill="#536bc2"/>
      <path id="Path_20810" data-name="Path 20810" d="M955.5,720.316s-3.331-29.6,2.178-35.513,18.761-8.283,20.581.039-2.124,4.625-2.544,3.519,1.415-3.083,1.415-3.083-.975-6.063-8.168-4.667S958.807,684.4,957.4,687.5s-1.97,21.5-1.712,22.586.948,9.828.948,9.828S955.919,721.446,955.5,720.316Z" transform="translate(-652.173 -471.336)" fill="#536bc2"/>
      <path id="Path_20811" data-name="Path 20811" d="M919.65,699.82s-13.877-37.232-7.255-43.553,13.106-6.167,14.382-2.794.69,8.741-1.28,6.907.289-2.679.289-2.679,2.54-3.519-2.814-4.093-9.868,1.11-10.443,6.464-.574,5.357.386,11.42,7.864,27.909,7.864,27.909S921.2,700.525,919.65,699.82Z" transform="translate(-625.197 -453.953)" fill="#536bc2"/>
      <path id="Path_20812" data-name="Path 20812" d="M990.74,847.094l-7.864,20.566c0,.15,7.324,2.235,7.259,2.42-2.166,5.307,9.074-29.038,9.074-29.038l-29.038-6.653-.921,2.991Z" transform="translate(-661.236 -566.558)" fill="#536bc2"/>
      <path id="Path_20813" data-name="Path 20813" d="M974.933,952.7c-.042.042-.073.089-.116.131h-.027Z" transform="translate(-664.641 -639.268)" fill="#536bc2"/>
      <path id="Path_20814" data-name="Path 20814" d="M914.827,993.434H908L918.624,961.9,930.231,951.4c.212-.177,1,.162,1.291,0L921.2,963.406Z" transform="translate(-623.597 -638.434)" fill="#536bc2"/>
      <path id="Path_20815" data-name="Path 20815" d="M1016.975,991.122h7.567l-11.8-32.615-12.894-10.873c-.235-.181-1.106.17-1.434,0l11.464,12.442Z" transform="translate(-679.156 -636.122)" fill="#536bc2"/>
      <path id="Path_20816" data-name="Path 20816" d="M955.5,720.316s-3.331-29.6,2.178-35.513,18.761-8.283,20.581.039-2.124,4.625-2.544,3.519,1.415-3.083,1.415-3.083-.975-6.063-8.168-4.667S958.807,684.4,957.4,687.5s-1.97,21.5-1.712,22.586.948,9.828.948,9.828S955.919,721.446,955.5,720.316Z" transform="translate(-652.173 -471.336)" fill="#536bc2"/>
      <path id="Path_20817" data-name="Path 20817" d="M919.65,699.82s-13.877-37.232-7.255-43.553,13.106-6.167,14.382-2.794.69,8.741-1.28,6.907.289-2.679.289-2.679,2.54-3.519-2.814-4.093-9.868,1.11-10.443,6.464-.574,5.357.386,11.42,7.864,27.909,7.864,27.909S921.2,700.525,919.65,699.82Z" transform="translate(-625.197 -453.953)" fill="#536bc2"/>
      <line id="Line_2984" data-name="Line 2984" x2="67.154" transform="translate(282.322 354.337)" fill="none" stroke="#707070" stroke-width="1"/>
      <path id="Path_20818" data-name="Path 20818" d="M1049.736,451.864l9.579-.975-9.425-.609a2.1,2.1,0,0,1-1.692-1.619l-1.415-15.3-1.488,15.664a2.109,2.109,0,0,1-1.542,1.584l-9.514.929,9.448.59a2.1,2.1,0,0,1,1.711,1.634l1.369,15.309,1.434-15.6A2.1,2.1,0,0,1,1049.736,451.864Z" transform="translate(-701.174 -320.095)" fill="#b7b7b7"/>
      <path id="Path_20819" data-name="Path 20819" d="M255.231,362.9l14.872-1.511-14.629-.948a3.257,3.257,0,0,1-2.629-2.509l-2.193-23.762-2.313,24.3a3.253,3.253,0,0,1-2.371,2.459L231.2,362.375l14.671.913a3.265,3.265,0,0,1,2.656,2.536l2.124,23.781,2.224-24.216a3.245,3.245,0,0,1,2.355-2.49Z" transform="translate(-207.69 -259.136)" fill="#b7b7b7"/>
      <path id="Path_20820" data-name="Path 20820" d="M621.926,847.967l9.826-1-9.664-.624a2.147,2.147,0,0,1-1.735-1.661L618.9,829l-1.542,16.049a2.146,2.146,0,0,1-1.565,1.623l-9.756.956,9.691.605a2.151,2.151,0,0,1,1.754,1.673l1.419,15.71,1.469-16A2.147,2.147,0,0,1,621.926,847.967Z" transform="translate(-438.036 -563.245)" fill="#b7b7b7"/>
      <path id="Path_20821" data-name="Path 20821" d="M654.823,931.066l4.926-.5-4.845-.312a1.079,1.079,0,0,1-.871-.832l-.729-7.87-.771,8.052a1.071,1.071,0,0,1-.771.813l-4.892.478,4.857.3a1.076,1.076,0,0,1,.879.84l.705,7.87.736-8.021a1.083,1.083,0,0,1,.775-.821Z" transform="translate(-463.127 -620.124)" fill="#b7b7b7"/>
      <path id="Path_20822" data-name="Path 20822" d="M704.182,538.126s6.052-19.36,14.521-21.175,8.666,6.868,3.631,13.914c-12.1,16.94-13.658,33.428-12.574,37.887s-9.51,5.176-9.51,5.176-4.957,4.587-9.39-1.322c-1.816-2.421-.605,1.815-5.443,1.815s-19.363-12.1-13.916-27.223c5.135-14.261,10.89-19.965,19.964-19.965S704.182,538.126,704.182,538.126Z" transform="translate(-477.524 -371.318)" fill="#536bc2"/>
      <path id="Path_20823" data-name="Path 20823" d="M701.418,549.709c-2.035-2.8-5.258-5.689-9.934-5.689-9.074,0-14.829,5.7-19.964,19.965-5.447,15.124,9.074,27.223,13.916,27.223,3.855,0,3.855-2.675,4.626-2.555a75.812,75.812,0,0,1,5.528-7.1c.721-.852,5.119-6.61,6.083-9.216a31.08,31.08,0,0,0,1.3-16.219C702.629,555.429,701.484,549.906,701.418,549.709Z" transform="translate(-477.536 -388.104)" fill="#97a8dc"/>
      <path id="Path_20824" data-name="Path 20824" d="M773.745,536.349c5.929-3.357,11.379-10.067,10.581-17.24a13.392,13.392,0,0,0-.247-1.438c-1.156-.9-2.876-1.229-5.281-.717-3.809.817-7.128,5.184-9.637,9.74-.2,2.432-.91,4.806-1.072,7.254v.2c.2.771.385,1.542.551,2.313C769.628,537.786,771.725,537.494,773.745,536.349Z" transform="translate(-537.619 -371.322)" fill="#97a8dc"/>
      <path id="Path_20825" data-name="Path 20825" d="M754,622.69l-1.126,10.792.844-2.659,2.748,9.6,6.835-2.7-2.984,13.158.563,4.382-3.728-1.465-3.535,6.911-2.733-8.132a9.251,9.251,0,0,1-10.15,8.233l-5.74-.59a39.9,39.9,0,0,0,2.509,12.453l16.846,1.777a9.251,9.251,0,0,0,10.146-8.229h0l3.9-37.386A68.143,68.143,0,0,0,754,622.69Z" transform="translate(-517.285 -436.453)" fill="#fff"/>
      <ellipse id="Ellipse_3328" data-name="Ellipse 3328" cx="0.964" cy="0.964" rx="0.964" ry="0.964" transform="translate(289.449 249.174)" fill="#536bc2"/>
      <ellipse id="Ellipse_3329" data-name="Ellipse 3329" cx="0.964" cy="0.964" rx="0.964" ry="0.964" transform="translate(297.544 252.642)" fill="#536bc2"/>
      <path id="Path_20826" data-name="Path 20826" d="M745.19,693.13l-4.649,6.379-7.451-2.2Z" transform="translate(-516.111 -479.743)" fill="#dadada"/>
      <path id="Path_20827" data-name="Path 20827" d="M775.526,700.28l-.435,8.364,3.169-.231Z" transform="translate(-541.921 -484.137)" fill="#dadada"/>
      <path id="Path_20828" data-name="Path 20828" d="M790.7,657.825l4.005-6.845,2.829,4.147Z" transform="translate(-551.514 -453.839)" fill="#dadada"/>
      <path id="Path_20829" data-name="Path 20829" d="M800.69,674.9l11.379-4.563-8.4-8.6Z" transform="translate(-557.653 -460.452)" fill="#dadada"/>
      <path id="Path_20830" data-name="Path 20830" d="M792.48,703.45l1.392,10.611,2.336-9.146Z" transform="translate(-552.607 -486.086)" fill="#dadada"/>
      <path id="Path_20831" data-name="Path 20831" d="M730.576,685.28l-7.486,2.582,8.1,1.156-4.24,3.469,12.1-4.182Z" transform="translate(-509.966 -474.919)" fill="#dadada"/>
      <path id="Path_20832" data-name="Path 20832" d="M1191.569,814.67a1.579,1.579,0,0,0,0,3.157A1.579,1.579,0,0,0,1191.569,814.67Z" transform="translate(-796.918 -554.439)" fill="#f3f3f3"/>
      <ellipse id="Ellipse_3330" data-name="Ellipse 3330" cx="3.469" cy="3.469" rx="3.469" ry="3.469" transform="translate(365.774 232.6)" fill="#dadada"/>
      <ellipse id="Ellipse_3331" data-name="Ellipse 3331" cx="1.735" cy="1.734" rx="1.735" ry="1.734" transform="translate(363.847 246.476)" fill="#f3f3f3"/>
      <path id="Path_20833" data-name="Path 20833" d="M216.429,707.171c2.124-3.222-2.883-6.529-5.011-3.3S214.3,710.4,216.429,707.171Z" transform="translate(-195.217 -485.532)" fill="#dadada"/>
      <ellipse id="Ellipse_3332" data-name="Ellipse 3332" cx="6.592" cy="6.591" rx="6.592" ry="6.591" transform="translate(64.132 36.553)" fill="#dadada"/>
      <ellipse id="Ellipse_3333" data-name="Ellipse 3333" cx="3.296" cy="3.295" rx="3.296" ry="3.295" transform="translate(28.861 71.45)" fill="#ccc"/>
      <path id="Path_20834" data-name="Path 20834" d="M347,733.605c-2.267,2.848,2.159,6.379,4.433,3.527S349.257,730.749,347,733.605Z" transform="translate(-278.464 -503.969)" fill="#dadada"/>
      <ellipse id="Ellipse_3334" data-name="Ellipse 3334" cx="6.222" cy="6.221" rx="6.222" ry="6.221" transform="translate(0 232.095)" fill="#dadada"/>
      <ellipse id="Ellipse_3335" data-name="Ellipse 3335" cx="3.111" cy="3.11" rx="3.111" ry="3.11" transform="translate(16.059 253.903)" fill="#dadada"/>
      <path id="Path_20835" data-name="Path 20835" d="M1298.317,619.24c-10.022,0-10.022,15.556,0,15.556S1308.343,619.24,1298.317,619.24Z" transform="translate(-858.835 -434.332)" fill="#dadada"/>
      <ellipse id="Ellipse_3336" data-name="Ellipse 3336" cx="17.096" cy="17.094" rx="17.096" ry="17.094" transform="translate(334.496 11.366)" fill="#dadada"/>
      <ellipse id="Ellipse_3337" data-name="Ellipse 3337" cx="8.55" cy="8.549" rx="8.55" ry="8.549" transform="translate(324.994 79.736)" fill="#dadada"/>
    </g>
  </g>
</svg>
