<svg data-name="Component 1204 – 1" height="9" id="Component_1204_1" viewBox="0 0 9 9" width="9"
     xmlns="http://www.w3.org/2000/svg">
  <path
    d="M389.477,375.792l-2.915-2.915,2.843-2.843a.946.946,0,1,0-1.337-1.338l-2.843,2.843-2.915-2.915a.845.845,0,0,0-1.2,0l-.143.143a.845.845,0,0,0,0,1.195l2.915,2.915-2.843,2.843a.946.946,0,1,0,1.337,1.337l2.844-2.843,2.915,2.915a.844.844,0,0,0,1.195,0l.143-.143A.845.845,0,0,0,389.477,375.792Z"
    data-name="Path 4803"
    fill="#919191"
    id="Path_4803" opacity="0.7" transform="translate(-380.724 -368.377)"/>
</svg>
