<svg xmlns="http://www.w3.org/2000/svg" width="19" height="19" viewBox="0 0 19 19"><g transform="translate(-5406.5 -13568.5)"><rect width="18" height="18" transform="translate(5407 13569)" fill="none" stroke="rgba(0,0,0,0)" stroke-width="1"/><path d="M17.322,15.238l-1.858-1.857a.8.8,0,0,0-.571-.234h-.532A7.726,7.726,0,0,0,16.082,8.27a7.814,7.814,0,1,0-2.939,6.094v.518a.794.794,0,0,0,.234.569l1.859,1.867a.805.805,0,0,0,1.132,0l.951-.937a.818.818,0,0,0,0-1.139M8.269,13.4a5.128,5.128,0,1,1,5.142-5.129A5.131,5.131,0,0,1,8.269,13.4" transform="translate(5407 13569)" fill="#aaa" stroke="rgba(0,0,0,0)" stroke-width="1"/></g></svg>