<svg xmlns="http://www.w3.org/2000/svg" width="55" height="20.002" viewBox="0 0 55 20.002"><g transform="translate(-2178 -171.295)"><rect width="55" height="19.995" transform="translate(2178 171.295)" fill="#aaa" opacity="0"/><path d="M28.215,12.381A2.187,2.187,0,1,1,30.4,14.568,2.185,2.185,0,0,1,28.215,12.381Zm-23.686,0a2.183,2.183,0,1,1,2.189,2.188A2.182,2.182,0,0,1,4.529,12.381Zm28.68.068a2.8,2.8,0,0,0-4.789-2.064,2.861,2.861,0,0,0-.828,2.064H9.525A2.861,2.861,0,0,0,8.7,10.385a2.816,2.816,0,0,0-3.977,0,2.845,2.845,0,0,0-.82,2.064H.377A.377.377,0,0,1,0,12.074v-1.9A.369.369,0,0,1,.377,9.8H.494C.494,3.777.623,0,2.188,0H23.469C28.537,0,28.6,0,29.1,1.053l1.287,2.863,3.615.66c2.127.4,3.676,1.764,3.676,4.059v1.627c0,1.252-.537,2.188-2.738,2.188ZM34.59,6.311a2.862,2.862,0,0,1,1.441,1.418,3.493,3.493,0,0,0,.609.055,3,3,0,0,0-2.135-2.117A2.222,2.222,0,0,0,34.59,6.311Zm-11-5.219a.4.4,0,0,0-.125.262V3.24a.676.676,0,0,0,.623.658l4.613.24a.2.2,0,0,0,.2-.283l-1.035-2.48a.665.665,0,0,0-.6-.344L23.885.992A.463.463,0,0,0,23.594,1.092Z" transform="translate(2179.25 176.728)" fill="#aaa"/></g></svg>