<svg xmlns="http://www.w3.org/2000/svg" width="40.673" height="17" viewBox="0 0 40.673 17">
  <g id="Group_80726" data-name="Group 80726" transform="translate(-461 -1950)">
    <g id="Tow" transform="translate(461 1950)">
      <path id="Path_1234" data-name="Path 1234" d="M-2210.74-556.647l-.312-.254a.249.249,0,0,0-.265-.036.243.243,0,0,0-.141.224v.438a.889.889,0,0,0,.276.624.27.27,0,0,1,.08.191v13.372a.407.407,0,0,0,.395.409.4.4,0,0,0,.289-.113.393.393,0,0,0,.12-.283v-13.651a1.19,1.19,0,0,0-.44-.922Z" transform="translate(2235.841 556.96)" fill="#b7b7b7"/>
      <path id="Path_1235" data-name="Path 1235" d="M-2194.121-539.477v0a1.844,1.844,0,0,0-.727-1.036l-.617-.281v-2.929a.629.629,0,0,0-.13-.374.627.627,0,0,1,.13.374v2.927l.618.281h.3a.3.3,0,0,0,.211-.088.3.3,0,0,0,.087-.212v-.279a.338.338,0,0,0-.221-.318l-.412-.153v-2.085a.738.738,0,0,0-.738-.738h-6.9v-.043a.139.139,0,0,0-.14-.14h-1.369a.138.138,0,0,0-.1.041.138.138,0,0,0-.041.1v2.878a.139.139,0,0,0,.139.139h1.369a.14.14,0,0,0,.136-.111.14.14,0,0,1-.136.111h-1.369a.139.139,0,0,1-.139-.139v-2.878a.14.14,0,0,1,.139-.14h.154l-.52-2.577a.758.758,0,0,0-.743-.608h-3.206a.963.963,0,0,0-.963.963v8.6h0a.2.2,0,0,0,.2.2h.2v.4a.246.246,0,0,0,.246.246h5.182a.246.246,0,0,0,.246-.246v-.6h1.98v-.022a3.023,3.023,0,0,1,3.1-2.935,3.222,3.222,0,0,1,1.537.385,2.909,2.909,0,0,1,1.567,2.549,2.869,2.869,0,0,1-.022.352,2.809,2.809,0,0,1-.111.5.193.193,0,0,0,.028.173.193.193,0,0,0,.156.078h.14a.734.734,0,0,0,.734-.734V-539.4a.287.287,0,0,0-.013-.079Zm-13.874-7.113a.255.255,0,0,1,.255-.255h2.433a.242.242,0,0,1,.229.166l.462,2.165-3.381-.154Z" transform="translate(2234.78 552.913)" fill="#b7b7b7"/>
      <path id="Path_1236" data-name="Path 1236" d="M-2229.1-546.365l-1.975-.026,1.789-3.944a.17.17,0,0,0-.012-.162.169.169,0,0,0-.143-.078h-.973a.17.17,0,0,0-.169.17h0v.553l-2.757,3.428.615.008-2.429-.032,1.367-1.937a.09.09,0,0,0,.011-.089.089.089,0,0,0-.072-.054h-3.451a.288.288,0,0,0-.223.111l-.215.263-5.286-.688a2.129,2.129,0,0,0-2.156-2.053,2.152,2.152,0,0,0-2.069,1.5c-1.914-.25-3.433-.45-3.777-.5v-.08h-.339l-.185.2-.414-.112a.578.578,0,0,0-.423.044.561.561,0,0,0-.3.492v.916h.024v.437h-.184a.89.89,0,0,0-.473.131.869.869,0,0,0-.409.738v6.945a.223.223,0,0,0,.205.236.722.722,0,0,0,.722-.722v-3.811h.017a1.987,1.987,0,0,0,.952-.258h0a1.984,1.984,0,0,0,.887-1.05l.083-.226a1.988,1.988,0,0,0-.157-1.688l-.035-.061v-.539l1.407.3a.979.979,0,0,0,.694.592l3.357.758a.185.185,0,0,0,.17-.052l.041-.005.558.353-.019.039a.154.154,0,0,0,.053.195l1.841,1.218a.307.307,0,0,0,.365-.018h0a.307.307,0,0,0,.114-.254.308.308,0,0,0-.138-.242l-1.87-1.242a.154.154,0,0,0-.12-.021.153.153,0,0,0-.1.073l-.16-.116a2.191,2.191,0,0,0,.8-.287l1.39.276a.587.587,0,0,0,.078.445.587.587,0,0,0,.371.258l.972.208a.582.582,0,0,0,.373-.042l.637-.3.161.041-.9,1.168h0l-.355.376h-10.053l-1.352.628v3.3a.594.594,0,0,0,.594.595h0l.689-1.963a.84.84,0,0,1,.792-.561h1.905a.838.838,0,0,1,.743.451l.271.519a.4.4,0,0,0,.353.214h.863a.4.4,0,0,0,.346-.2l.262-.464a.84.84,0,0,1,.73-.426h1.989a.839.839,0,0,1,.744.451l1.433,2.742h12.21v-6.769A.3.3,0,0,0-2229.1-546.365Zm-22.767-1.757a1.027,1.027,0,0,1-.252.676h0a.365.365,0,0,1-.365-.365v-.174h-.072v-.437h.021V-549a.348.348,0,0,1,.327-.1.348.348,0,0,1,.258.227l.083.24Zm2.477-1.214-.079.131-1.557-.421v-.127l.066.009.444.061,1.581.21,1.652.216a1.981,1.981,0,0,0-.046.285Zm6.286,1.106a1.967,1.967,0,0,0,.077-.474l5.188.676-.224.274h-1.429a.269.269,0,0,0-.172.061l-.066.055Z" transform="translate(2253.722 554.22)" fill="#b7b7b7"/>
      <rect id="Rectangle_1320" data-name="Rectangle 1320" width="2.857" height="0.858" transform="translate(13.974 4.948)" fill="#b7b7b7"/>
      <path id="Path_1237" data-name="Path 1237" d="M-2191.854-535.342a2.336,2.336,0,0,0-2.368,2.3,2.289,2.289,0,0,0,.024.332,2.348,2.348,0,0,0,2.344,1.97,2.378,2.378,0,0,0,2.08-1.2,2.245,2.245,0,0,0,.288-1.1A2.335,2.335,0,0,0-2191.854-535.342Z" transform="translate(2228.494 547.739)" fill="#b7b7b7"/>
      <path id="Path_1238" data-name="Path 1238" d="M-2239.155-535.342a2.336,2.336,0,0,0-2.368,2.3,2.335,2.335,0,0,0,2.368,2.3,2.336,2.336,0,0,0,2.368-2.3,2.336,2.336,0,0,0-2.368-2.3Z" transform="translate(2248.554 547.739)" fill="#b7b7b7"/>
      <path id="Path_1239" data-name="Path 1239" d="M-2248.114-535.342a2.336,2.336,0,0,0-2.367,2.3,2.335,2.335,0,0,0,2.367,2.3,2.336,2.336,0,0,0,2.367-2.3A2.336,2.336,0,0,0-2248.114-535.342Z" transform="translate(2252.371 547.739)" fill="#b7b7b7"/>
    </g>
  </g>
</svg>
