<svg width="50" height="18" viewBox="0 0 50 18" fill="none" xmlns="http://www.w3.org/2000/svg">
<path d="M5.75 17C4.7835 17 4 16.2165 4 15.25C4 14.2835 4.7835 13.5 5.75 13.5C6.7165 13.5 7.5 14.2835 7.5 15.25C7.5 16.2165 6.7165 17 5.75 17Z" fill="#DF3C3C"/>
<path d="M3.507 10.332L5.5 10L6.947 7.106C7.286 6.428 7.978 6 8.736 6H10.5C11.052 6 11.5 6.448 11.5 7V13.5H13V13H12V7L11.333 5H11C10.448 5 10 4.552 10 4H13L16 7H33C33.552 7 34 7.448 34 8V13H22L17.354 8.354C17.159 8.159 16.842 8.159 16.647 8.354L21.293 13H15V13.5H21.838C21.388 13.863 21.081 14.396 21.014 15H17C17 15.552 16.552 16 16 16H8V15.25C8 14.009 6.991 13 5.75 13C4.509 13 3.5 14.009 3.5 15.25V16H2C1.448 16 1 15.552 1 15V13.291C1 11.824 2.06 10.573 3.507 10.332ZM14 7H15.293L13.354 5.061L14 7ZM9.449 9.381C10.05 9.306 10.5 8.795 10.5 8.19V6.999H8.394C8.002 6.999 7.646 7.228 7.484 7.585L6.5 9.749L9.449 9.38V9.381ZM2.413 14.195C2.673 13.375 3.226 12.686 3.95 12.25H3.282C2.823 12.25 2.423 12.562 2.312 13.007L2.157 13.628C2.098 13.863 2.216 14.093 2.414 14.195H2.413Z" fill="#DF3C3C"/>
<path d="M29.75 17C28.7835 17 28 16.2165 28 15.25C28 14.2835 28.7835 13.5 29.75 13.5C30.7165 13.5 31.5 14.2835 31.5 15.25C31.5 16.2165 30.7165 17 29.75 17Z" fill="#DF3C3C"/>
<path d="M24.662 13.5H28.338C27.888 13.863 27.581 14.396 27.514 15H25.486C25.419 14.396 25.112 13.863 24.662 13.5Z" fill="#DF3C3C"/>
<path d="M31.162 13.5H34V15C34 15.552 33.552 16 33 16V15H31.986C31.919 14.396 31.612 13.863 31.162 13.5Z" fill="#DF3C3C"/>
<path d="M23.25 17C22.2835 17 21.5 16.2165 21.5 15.25C21.5 14.2835 22.2835 13.5 23.25 13.5C24.2165 13.5 25 14.2835 25 15.25C25 16.2165 24.2165 17 23.25 17Z" fill="#DF3C3C"/>
</svg>
