<svg xmlns="http://www.w3.org/2000/svg" width="54.999" height="20" viewBox="0 0 54.999 20">
  <g id="Truck_-_Tow" data-name="Truck - Tow" transform="translate(-2178.199 -211.793)">
    <rect id="Rectangle_65752" data-name="Rectangle 65752" width="54.999" height="19.999" transform="translate(2178.199 211.793)" fill="#aaa" opacity="0"/>
    <path id="Union_746" data-name="Union 746" d="M45.021,17.5a2.5,2.5,0,1,1,2.5,2.5A2.5,2.5,0,0,1,45.021,17.5Zm-29.912,0a2.5,2.5,0,1,1,2.5,2.5A2.5,2.5,0,0,1,15.109,17.5Zm-6.617,0a2.5,2.5,0,1,1,2.5,2.5A2.5,2.5,0,0,1,8.492,17.5Zm-6.619,0A2.5,2.5,0,1,1,4.367,20,2.494,2.494,0,0,1,1.873,17.5Zm27.2,2.127L28.4,18.5H23.18a.255.255,0,0,1-.254-.254v-.377h-.953v.2a.38.38,0,0,1-.369.375H21.1a.382.382,0,0,1-.375-.375V17.5a3.185,3.185,0,0,0-.125-.873,1.931,1.931,0,0,0-.176-.455,1.281,1.281,0,0,0-.137-.26,2.678,2.678,0,0,0-.27-.4,2.832,2.832,0,0,0-.277-.293H31.8V1.213A.575.575,0,0,1,32.053.7L32.8.029c.121-.107.25.107.25.246V15.225h.578V6.365a.94.94,0,0,1,.938-.937H35.1c5.059,0,5.123,0,5.637,1.059l1.4,3.125c1.848.061,5.789.232,6.688.4,2.117.391,3.676,1.75,3.676,4.053v1.621a1.854,1.854,0,0,1-1.045,1.9v.66a.256.256,0,0,1-.252.254h-.715a3.129,3.129,0,1,0-5.928,0H35.785L35.1,19.625ZM49.4,11.738a2.826,2.826,0,0,1,1.438,1.414,2.929,2.929,0,0,0,.619.061,3.009,3.009,0,0,0-2.141-2.127A2.262,2.262,0,0,0,49.4,11.738ZM35.225,6.512a.381.381,0,0,0-.123.275V8.674a.664.664,0,0,0,.617.654l4.621.244a.2.2,0,0,0,.2-.283L39.5,6.816a.654.654,0,0,0-.6-.367L35.51,6.41A.457.457,0,0,0,35.225,6.512ZM.375,18.449A.387.387,0,0,1,0,18.074v-2.6a.256.256,0,0,1,.254-.254H2.242a2.32,2.32,0,0,0-.277.293,3.233,3.233,0,0,0-.275.4c-.047.084-.1.176-.139.26a2.622,2.622,0,0,0-.176.455,3.185,3.185,0,0,0-.123.873v.57a.377.377,0,0,1-.377.375Zm13.613-1.818a3.048,3.048,0,0,0-.859-1.4h2.35a3.128,3.128,0,0,0-.867,1.4Zm-6.617,0a3.064,3.064,0,0,0-.859-1.4H8.859a3.145,3.145,0,0,0-.867,1.4ZM.691,14.7a.255.255,0,0,1-.254-.254l.254-2.357a.97.97,0,0,1,.938-.937H16.363L11.516,6.465,2.789,4.9a1.713,1.713,0,0,1-.424.209v3.41H2.68a.941.941,0,0,1,.936.941v1.061H1.629A1.6,1.6,0,0,0,.061,12.092L0,12.676V9.465a.941.941,0,0,1,.938-.941h.176V5.066a1.817,1.817,0,0,1,.7-3.492,1.772,1.772,0,0,1,.338.037c.061.018,12.061,2.166,20.123,3.615a1.548,1.548,0,0,1,2.816.5c1.074.184,2.012.363,2.727.484l.574-1.6h-.529c-.107,0-.2-.061-.2-.121V3.254c0-.068.09-.129.2-.129h3.186c.1,0,.2.061.2.129V4.492c0,.061-.1.121-.2.121H30.4l-1.41,3.91h1.32a.947.947,0,0,1,.936.941V14.7Zm17.482-3.549h5.4V9.465a.907.907,0,0,1,.414-.773L13.729,6.848Zm6.941-4.8L27.6,6.8l.086-.236-2.549-.453A1.335,1.335,0,0,1,25.115,6.35Zm-21.76-3.9L22.035,5.8a.925.925,0,0,1,.076-.236L3.154,2.172C3.225,2.266,3.285,2.348,3.355,2.449Z" transform="translate(2179.444 211.793)" fill="#aaa"/>
  </g>
</svg>
