<svg xmlns="http://www.w3.org/2000/svg" width="55.995" height="21" viewBox="0 0 55.995 21"><g transform="translate(17886.5 24167.5)"><rect width="54.995" height="19.996" transform="translate(-17886 -24167)" fill="#aaa" stroke="rgba(0,0,0,0)" stroke-width="1" opacity="0"/><path d="M8.733,217.5a2.489,2.489,0,1,0,0,.022V217.5m30.807,0a2.5,2.5,0,1,0-2.5,2.5h.006a2.488,2.488,0,0,0,2.494-2.484V217.5m6.624,0a2.5,2.5,0,1,0-2.5,2.5,2.5,2.5,0,0,0,2.5-2.5m-26.29,2.125.683-1.125H30.568a.244.244,0,0,0,.25-.238v-.393H32.67v.2a.389.389,0,0,0,.375.375h.5a.379.379,0,0,0,.377-.375V217.5a3.3,3.3,0,0,1,.121-.867,2.362,2.362,0,0,1,.18-.453,1.361,1.361,0,0,1,.137-.262,2.556,2.556,0,0,1,.275-.4,2.124,2.124,0,0,1,.268-.293H30.121l-1.16-3.5,15-4.065-4.373,7.562h-.416a3.119,3.119,0,0,1,.859,1.406h.623a3.2,3.2,0,0,1,.867-1.406h-.49l4.15-7.185,2.287.715a.248.248,0,0,0,.313-.158l0-.01.208-.709a.231.231,0,0,0-.127-.3.192.192,0,0,0-.034-.011l-12.519-3.916H24.964v-3.4A.254.254,0,0,0,24.71,200h-.244a.249.249,0,0,0-.254.244v.494a45.269,45.269,0,0,1-6.81.512,44.341,44.341,0,0,1-6.8-.5v-.5a.253.253,0,0,0-.255-.246H10.1a.254.254,0,0,0-.254.246v3.4H1.514a.254.254,0,0,0-.248.252v.754a.248.248,0,0,0,.248.244H6.089l1.634,4.891c-1.26.078-2.373.146-2.795.225a4.037,4.037,0,0,0-3.662,4.059v1.613A1.838,1.838,0,0,0,2.3,217.573v.676a.248.248,0,0,0,.244.254h.729a3.121,3.121,0,1,1,5.909,0h3.987l.691,1.119Zm8.933-4.4H24.964v-8.853a.942.942,0,0,0-.938-.937H17.232c-5.059,0-5.118,0-5.634,1.053l-1.42,3.186h-.016c-.361.018-.736.039-1.137.061L7.416,204.9H25.362ZM4.353,211.74a2.866,2.866,0,0,0-1.436,1.414,2.916,2.916,0,0,1-.611.061,2.993,2.993,0,0,1,2.128-2.128,2.3,2.3,0,0,1-.082.65Zm37.382-4.776-13.173,3.57L26.692,204.9h8.4Zm-24.625-.437a.319.319,0,0,1,.123.262v1.886a.666.666,0,0,1-.623.662l-4.6.236a.2.2,0,0,1-.209-.283l1.031-2.48a.651.651,0,0,1,.6-.344l3.393-.039a.447.447,0,0,1,.285.1Zm7.1-2.879H10.6V202.4a42.06,42.06,0,0,0,6.8.508,45.412,45.412,0,0,0,6.811-.508Zm0-1.559a45.836,45.836,0,0,1-13.61.016v-1.051a42.068,42.068,0,0,0,6.8.512,47.764,47.764,0,0,0,6.81-.512Zm23.443,16.357a.387.387,0,0,0,.377-.375v-2.6a.254.254,0,0,0-.246-.254H45.8a1.923,1.923,0,0,1,.27.293,2.427,2.427,0,0,1,.275.4,1.727,1.727,0,0,1,.139.262,2.375,2.375,0,0,1,.176.453,3.142,3.142,0,0,1,.123.867v.576a.377.377,0,0,0,.377.375Z" transform="translate(-17886 -24367)" fill="#aaa" stroke="rgba(0,0,0,0)" stroke-width="1"/></g></svg>