<svg xmlns="http://www.w3.org/2000/svg" width="54.999" height="20" viewBox="0 0 54.999 20">
  <g id="Truck_-_Spotter" data-name="Truck - Spotter" transform="translate(-2178.199 -290.424)">
    <rect id="Rectangle_65748" data-name="Rectangle 65748" width="54.999" height="20" transform="translate(2178.199 290.424)" fill="#aaa" opacity="0"/>
    <path id="Union_748" data-name="Union 748" d="M23.545,16.477a2.5,2.5,0,1,1,2.5,2.5A2.506,2.506,0,0,1,23.545,16.477Zm-21.672,0a2.5,2.5,0,1,1,2.494,2.5A2.5,2.5,0,0,1,1.873,16.477Zm16.49,1a.242.242,0,0,1-.246-.244v-.375H12.682a.252.252,0,0,1-.254-.254v-1H7.377a3.09,3.09,0,0,0-.861-1.4L9.779,12.93a.285.285,0,0,1,.383.107l.039.129a.286.286,0,0,1-.191.34L8.734,14l.123.2h9.092a.255.255,0,0,1-.248-.254V8.967a.917.917,0,0,1,.563-.852V2.441A1.185,1.185,0,0,0,17.08,1.252a.583.583,0,0,1-.514-.246L15.891.254C15.8.121,16,0,16.137,0H17.1a2.419,2.419,0,0,1,2.41,2.426v5.7a.923.923,0,0,1,.537.838V5.352a.932.932,0,0,1,.938-.937h.537c5.061,0,5.121,0,5.645,1.053L30.141,12.1a2.592,2.592,0,0,1,.236.938,1.418,1.418,0,0,1,.016.254v1.375a1.853,1.853,0,0,1-1.221,1.965,3.13,3.13,0,0,0-5.334-2.367,3.074,3.074,0,0,0-.746,3.209Zm9.076-5.334a2.856,2.856,0,0,1,1.549,1.289,2.509,2.509,0,0,0,.613.014A2.974,2.974,0,0,0,27.3,11.5,2.488,2.488,0,0,0,27.439,12.139ZM21.65,5.506a.312.312,0,0,0-.125.26V7.654a.657.657,0,0,0,.615.646l4.621.252a.21.21,0,0,0,.2-.291L25.924,5.787a.653.653,0,0,0-.6-.352L21.939,5.4A.409.409,0,0,0,21.65,5.506ZM.375,17.428A.387.387,0,0,1,0,17.053V14.447A.248.248,0,0,1,.252,14.2H2.24a2.91,2.91,0,0,0-.275.283,4.362,4.362,0,0,0-.279.4c-.045.092-.1.176-.137.262a2.647,2.647,0,0,0-.168.451,3.261,3.261,0,0,0-.131.877v.576a.378.378,0,0,1-.377.375Z" transform="translate(2179.447 291.444)" fill="#aaa"/>
  </g>
</svg>
