<svg xmlns="http://www.w3.org/2000/svg" width="56.005" height="21.001" viewBox="0 0 56.005 21.001"><g transform="translate(17886.5 24327.5)"><rect width="55.005" height="20" transform="translate(-17886 -24327)" fill="#aaa" stroke="rgba(0,0,0,0)" stroke-width="1" opacity="0"/><path d="M10.251,57.5a2.5,2.5,0,1,0-2.5,2.5,2.5,2.5,0,0,0,2.5-2.5m29.3,0a2.5,2.5,0,1,0-2.5,2.5h.005a2.5,2.5,0,0,0,2.494-2.5Zm6.618,0a2.5,2.5,0,1,0-2.5,2.5h.005a2.5,2.5,0,0,0,2.494-2.5ZM4.793,58.511a3.126,3.126,0,1,1,5.917,0H26.872a.248.248,0,0,0,.244-.252v-.377h5.568v.2a.383.383,0,0,0,.375.377h.5a.379.379,0,0,0,.375-.377V57.5a3.143,3.143,0,0,1,.123-.867,1.892,1.892,0,0,1,.176-.453,2.09,2.09,0,0,1,.139-.26,2.45,2.45,0,0,1,.268-.4,3.807,3.807,0,0,1,.277-.291h-7.8v-12.3A.929.929,0,0,0,26.191,42h-.909c-5.192,0-10.349,1.215-12.653,3.18H12.17a.564.564,0,0,0-.5.244l-.689.752c-.084.107-.061.246.254.246h.4l-1.152,2.563c-1.521.287-4.66.859-5.536,1.021-2.125.406-3.678,1.768-3.678,4.068V55.7a1.844,1.844,0,0,0,1.037,1.887v.676a.256.256,0,0,0,.254.254Zm-.438-6.765A2.894,2.894,0,0,0,2.917,53.16a2.872,2.872,0,0,1-.613.061,3,3,0,0,1,2.141-2.127,2.085,2.085,0,0,1-.09.652m12.765-5.227a.371.371,0,0,1,.123.262v1.886a.692.692,0,0,1-.631.67l-4.6.236a.2.2,0,0,1-.2-.291L12.84,46.81a.66.66,0,0,1,.6-.352l3.387-.039a.464.464,0,0,1,.293.1M47.667,58.458a.384.384,0,0,0,.377-.377V55.486a.256.256,0,0,0-.252-.254H45.809a2.476,2.476,0,0,1,.27.291,2.568,2.568,0,0,1,.277.4,1.952,1.952,0,0,1,.137.26,2.226,2.226,0,0,1,.176.453,3.145,3.145,0,0,1,.125.867v.576a.373.373,0,0,0,.371.377h.5Zm-7-1.82a3.11,3.11,0,0,1,.869-1.4l-3.264-1.289a.3.3,0,0,0-.391.115l-.039.121a.286.286,0,0,0,.193.34l1.273.5-.123.215a3.112,3.112,0,0,1,.859,1.4Z" transform="translate(-17885.998 -24367)" fill="#aaa" stroke="rgba(0,0,0,0)" stroke-width="1"/></g></svg>