<svg xmlns="http://www.w3.org/2000/svg" width="55.999" height="21.002" viewBox="0 0 55.999 21.002"><g transform="translate(17886.5 24207.502)"><rect width="54.999" height="19.999" transform="translate(-17886 -24207)" fill="#aaa" stroke="rgba(0,0,0,0)" stroke-width="1" opacity="0"/><path d="M8.739,177.5a2.5,2.5,0,1,0-2.5,2.5,2.5,2.5,0,0,0,2.5-2.5m29.912,0a2.5,2.5,0,1,0-2.5,2.5,2.5,2.5,0,0,0,2.5-2.5m6.617,0a2.5,2.5,0,1,0-2.5,2.5,2.5,2.5,0,0,0,2.5-2.5m6.619,0a2.5,2.5,0,1,0-2.5,2.5h.006a2.5,2.5,0,0,0,2.494-2.494V177.5m-27.2,2.127.673-1.127h5.22a.256.256,0,0,0,.254-.254v-.377h.953v.2a.38.38,0,0,0,.369.375h.5a.382.382,0,0,0,.375-.375V177.5a3.187,3.187,0,0,1,.125-.873,1.923,1.923,0,0,1,.176-.455,1.317,1.317,0,0,1,.137-.26,2.7,2.7,0,0,1,.27-.4,2.842,2.842,0,0,1,.277-.293H21.96V161.213a.575.575,0,0,0-.253-.513l-.747-.671c-.121-.107-.25.107-.25.246v14.95h-.578v-8.86a.94.94,0,0,0-.938-.937H18.66c-5.059,0-5.123,0-5.637,1.059l-1.4,3.125c-1.848.061-5.789.232-6.688.4-2.117.391-3.676,1.75-3.676,4.053v1.621a1.854,1.854,0,0,0,1.045,1.9v.66a.256.256,0,0,0,.252.254h.715a3.129,3.129,0,1,1,5.928,0h8.776l.685,1.125ZM4.36,171.738a2.824,2.824,0,0,0-1.438,1.414,2.926,2.926,0,0,1-.619.061,3.011,3.011,0,0,1,2.141-2.127,2.246,2.246,0,0,1-.084.652m14.175-5.226a.379.379,0,0,1,.123.275v1.887a.664.664,0,0,1-.617.654l-4.621.244a.2.2,0,0,1-.2-.283l1.04-2.473a.654.654,0,0,1,.6-.367l3.39-.039a.462.462,0,0,1,.285.1m34.85,11.937a.387.387,0,0,0,.375-.375v-2.6a.256.256,0,0,0-.254-.254H51.518a2.26,2.26,0,0,1,.277.293,3.224,3.224,0,0,1,.275.4c.047.084.1.176.139.26a2.564,2.564,0,0,1,.176.455,3.185,3.185,0,0,1,.123.873v.57a.378.378,0,0,0,.377.375Zm-13.613-1.818a3.051,3.051,0,0,1,.859-1.4h-2.35a3.128,3.128,0,0,1,.867,1.4Zm6.617,0a3.073,3.073,0,0,1,.859-1.4H44.9a3.151,3.151,0,0,1,.867,1.4Zm6.68-1.931a.256.256,0,0,0,.254-.254l-.254-2.357a.97.97,0,0,0-.938-.937H37.4l4.847-4.687,8.727-1.565a1.725,1.725,0,0,0,.424.209v3.41H51.08a.941.941,0,0,0-.936.941v1.061h1.987a1.6,1.6,0,0,1,1.568,1.571l.061.584v-3.211a.941.941,0,0,0-.938-.941h-.176v-3.458a1.811,1.811,0,0,0-1.038-3.455c-.061.018-12.061,2.166-20.123,3.615a1.548,1.548,0,0,0-2.816.5c-1.074.184-2.012.363-2.727.484l-.574-1.6H25.9c.107,0,.2-.061.2-.121v-1.235c0-.068-.09-.129-.2-.129H22.711c-.1,0-.2.061-.2.129v1.238c0,.061.1.121.2.121h.649l1.41,3.91H23.45a.947.947,0,0,0-.936.941V174.7Zm-17.482-3.549h-5.4v-1.686a.905.905,0,0,0-.414-.773l10.258-1.844Zm-6.941-4.8-2.486.449-.086-.236,2.549-.453a1.371,1.371,0,0,0,.022.239Zm21.76-3.9L31.725,165.8a.93.93,0,0,0-.076-.236l18.957-3.392c-.071.094-.131.176-.2.277Z" transform="translate(-17886.002 -24367)" fill="#aaa" stroke="rgba(0,0,0,0)" stroke-width="1"/></g></svg>