<svg width="50" height="18" viewBox="0 0 50 18" fill="none" xmlns="http://www.w3.org/2000/svg">
<path d="M13.912 13.5C14.423 13.912 14.75 14.543 14.75 15.25V16C15.302 16 15.75 15.552 15.75 15H21C21 15.552 21.448 16 22 16V15.25C22 14.544 22.327 13.913 22.838 13.5H13.912Z" fill="#aaa"/>
<path d="M7.947 7.106C8.286 6.428 8.979 6 9.736 6H11.5C12.052 6 12.5 6.448 12.5 7V13C11.259 13 10.25 14.009 10.25 15.25V16H7C6.448 16 6 15.552 6 15V11L7.947 7.106ZM10.449 9.381C11.049 9.306 11.5 8.796 11.5 8.191V7H9.394C9.002 7 8.646 7.229 8.484 7.586L7.5 9.75L10.449 9.381ZM7.596 14.247C7.828 13.35 8.467 12.615 9.303 12.25H8.281C7.822 12.25 7.422 12.562 7.311 13.007L7.155 13.629C7.08 13.93 7.294 14.221 7.596 14.247Z" fill="#aaa"/>
<path d="M30.75 17C29.7835 17 29 16.2165 29 15.25C29 14.2835 29.7835 13.5 30.75 13.5C31.7165 13.5 32.5 14.2835 32.5 15.25C32.5 16.2165 31.7165 17 30.75 17Z" fill="#aaa"/>
<path d="M25.662 13.5H29.338C28.888 13.863 28.581 14.396 28.514 15H26.486C26.419 14.396 26.112 13.863 25.662 13.5Z" fill="#aaa"/>
<path d="M32.162 13.5H34C34.552 13.5 35 13.948 35 14.5V15C35 15.552 34.552 16 34 16V15H32.986C32.919 14.396 32.612 13.863 32.162 13.5Z" fill="#aaa"/>
<path d="M24.25 17C23.2835 17 22.5 16.2165 22.5 15.25C22.5 14.2835 23.2835 13.5 24.25 13.5C25.2165 13.5 26 14.2835 26 15.25C26 16.2165 25.2165 17 24.25 17Z" fill="#aaa"/>
<path d="M12.5 17C11.5335 17 10.75 16.2165 10.75 15.25C10.75 14.2835 11.5335 13.5 12.5 13.5C13.4665 13.5 14.25 14.2835 14.25 15.25C14.25 16.2165 13.4665 17 12.5 17Z" fill="#aaa"/>
<path d="M4 14V11L7.224 4.553C7.375 4.25 7.669 4.048 8 4.008L16.25 4L19.25 7H26.75L27.75 5H32.5L33.942 7.885C34.229 8.457 33.911 9.147 33.291 9.302L30.5 10H35L33.5 13H25.25L20.604 8.354C20.408 8.158 20.092 8.158 19.896 8.354L24.542 13H14.5L13 10V7L12.333 5H8L5 11V14C5 14.552 4.552 15 4 15H2C1.448 15 1 14.552 1 14H4ZM17.25 7H18.543L16.604 5.061L17.25 7Z" fill="#aaa"/>
</svg>
