<svg id="Group_98344" data-name="Group 98344" xmlns="http://www.w3.org/2000/svg" width="32.023" height="14.54" viewBox="0 0 32.023 14.54">
  <path id="Path_10407" data-name="Path 10407" d="M246.634,522.053h-.2a1.128,1.128,0,0,0-1.117-.99v.273a.857.857,0,0,1,.843.717h-.172a.228.228,0,0,0-.228.228v1.7a.228.228,0,0,0,.228.228h.171a.857.857,0,0,1-.842.706v.273a1.129,1.129,0,0,0,1.115-.979h.2a.228.228,0,0,0,.228-.228v-1.7A.228.228,0,0,0,246.634,522.053Z" transform="translate(-219.234 -519.391)" fill="#fff"/>
  <path id="Rectangle_5801" data-name="Rectangle 5801" d="M1.168,0H24.7a1.168,1.168,0,0,1,1.168,1.168v0a0,0,0,0,1,0,0H0a0,0,0,0,1,0,0v0A1.168,1.168,0,0,1,1.168,0Z" transform="translate(0 0)" fill="#fff"/>
  <circle id="Ellipse_2737" data-name="Ellipse 2737" cx="1.91" cy="1.91" r="1.91" transform="matrix(0.526, -0.851, 0.851, 0.526, 24.81, 12.531)" fill="#fff"/>
  <path id="Path_10408" data-name="Path 10408" d="M162,526.341H161.9l-.011,0H161.8v-.166h0v-.068c0-.006,0-.011,0-.017v-.037h0a.919.919,0,0,0-.916-.867h-3.949V520.31H131.049V531.1h3.538a2.471,2.471,0,1,1,4.877,0h8.682v.505a.24.24,0,0,0,.24.24h5.38a.24.24,0,0,0,.24-.24V531.1h2.029a2.485,2.485,0,1,1,4.907,0h1.6a.526.526,0,0,0,.526-.526v-3.158A1.071,1.071,0,0,0,162,526.341ZM136.748,524.1a.221.221,0,0,1-.221.221h-4.8a.221.221,0,0,1-.221-.221v-3.112a.221.221,0,0,1,.221-.221h4.8a.221.221,0,0,1,.221.221Zm5.7,0a.221.221,0,0,1-.221.221H137.5a.221.221,0,0,1-.221-.221v-3.112a.221.221,0,0,1,.221-.221h4.73a.221.221,0,0,1,.221.221Zm5.7,0a.221.221,0,0,1-.22.221h-4.8a.221.221,0,0,1-.221-.221v-3.112a.221.221,0,0,1,.221-.221h4.8a.221.221,0,0,1,.22.221Zm3.135-3.112a.221.221,0,0,1,.221-.221h1.825a.221.221,0,0,1,.221.221V524.1a.221.221,0,0,1-.221.221H151.5a.221.221,0,0,1-.221-.221Zm-.459,9.509a.221.221,0,0,1-.221.221h-1.844a.221.221,0,0,1-.221-.221V525a.221.221,0,0,1,.221-.221H150.6a.221.221,0,0,1,.221.221Zm0-6.4a.221.221,0,0,1-.221.221h-1.775a.221.221,0,0,1-.22-.221v-3.112a.221.221,0,0,1,.22-.221H150.6a.221.221,0,0,1,.221.221Zm2.759,6.4a.221.221,0,0,1-.221.221H151.5a.221.221,0,0,1-.221-.221V525a.221.221,0,0,1,.221-.221h1.859a.221.221,0,0,1,.221.221Zm2.871-6.4a.221.221,0,0,1-.221.221h-2a.221.221,0,0,1-.22-.221v-3.112a.221.221,0,0,1,.22-.221h2a.221.221,0,0,1,.221.221Zm5.745,4.959c-.106,0-.191-.4-.191-.892s.086-.892.191-.892.192.4.192.892S162.3,529.062,162.2,529.062Z" transform="translate(-131.049 -518.81)" fill="#fff"/>
  <circle id="Ellipse_2738" data-name="Ellipse 2738" cx="1.91" cy="1.91" r="1.91" transform="matrix(0.526, -0.851, 0.851, 0.526, 3.347, 12.531)" fill="#fff"/>
</svg>
