<svg xmlns="http://www.w3.org/2000/svg" width="55.995" height="21" viewBox="0 0 55.995 21"><g transform="translate(17886.5 24367.5)"><rect width="54.995" height="19.998" transform="translate(-17886 -24367)" fill="#aaa" stroke="rgba(0,0,0,0)" stroke-width="1" opacity="0"/><path d="M10.252,17.492a2.5,2.5,0,1,0-2.5,2.5,2.5,2.5,0,0,0,2.5-2.5m24.3,0A2.5,2.5,0,1,0,32.058,20h0a2.49,2.49,0,0,0,2.494-2.486v-.022Zm6.618,0A2.5,2.5,0,1,0,38.676,20h0a2.49,2.49,0,0,0,2.494-2.486v-.022ZM4.8,18.5a3.12,3.12,0,1,1,5.909,0H21.874a.244.244,0,0,0,.244-.244v-.379h5.566v.2a.387.387,0,0,0,.377.377h.5a.378.378,0,0,0,.379-.377V17.5a3.223,3.223,0,0,1,.123-.873c.021-.078.045-.139.061-.215,0-.008.016-.025.021-.039a1.81,1.81,0,0,1,.232-.463,2.474,2.474,0,0,1,.545-.684H21.185a.938.938,0,0,0,.937-.937V2.94A.927.927,0,0,0,21.206,2h-1.96a7.462,7.462,0,0,0-6.109,3.164h-.19a.562.562,0,0,0-.5.246l-.689.752c-.086.123-.033.252.254.252h.414L11.332,8.841c-.3.047-5.249.961-6.386,1.176-2.125.383-3.678,1.75-3.678,4.045v1.629A1.856,1.856,0,0,0,2.3,17.579v.674a.251.251,0,0,0,.254.248Zm-.445-6.763a2.889,2.889,0,0,0-1.436,1.412,2.768,2.768,0,0,1-.615.07,3.015,3.015,0,0,1,2.142-2.128,2.475,2.475,0,0,1-.091.646M17.9,6.516a.375.375,0,0,1,.121.279V8.673a.671.671,0,0,1-.607.652l-4.629.254a.212.212,0,0,1-.215-.209.193.193,0,0,1,.015-.082l1.037-2.473a.649.649,0,0,1,.6-.361l3.395-.039a.475.475,0,0,1,.283.1M42.669,18.453a.387.387,0,0,0,.375-.377v-2.6a.251.251,0,0,0-.254-.248H40.8a2.422,2.422,0,0,1,.277.287,3.117,3.117,0,0,1,.275.4c.053.094.1.18.139.262a2.564,2.564,0,0,1,.176.455,3.629,3.629,0,0,1,.125.873v.576a.375.375,0,0,0,.373.377h0Zm-7-1.826a3.235,3.235,0,0,1,.863-1.4l-3.258-1.289a.308.308,0,0,0-.391.123l-.039.117a.289.289,0,0,0,.193.344l1.258.5-.107.2a3.11,3.11,0,0,1,.856,1.4Z" transform="translate(-17886.002 -24367)" fill="#aaa" stroke="rgba(0,0,0,0)" stroke-width="1"/></g></svg>