<svg xmlns="http://www.w3.org/2000/svg" width="55" height="20" viewBox="0 0 55 20">
  <g id="Truck_-_Car_Hauler" data-name="Truck - Car Hauler" transform="translate(-2178.197 -248.084)">
    <rect id="Rectangle_65753" data-name="Rectangle 65753" width="55" height="19.998" transform="translate(2178.197 248.084)" fill="#aaa" opacity="0"/>
    <path id="Union_747" data-name="Union 747" d="M39.3,17.5A2.5,2.5,0,1,1,41.8,20,2.489,2.489,0,0,1,39.3,17.5ZM8.49,17.5A2.5,2.5,0,1,1,10.984,20,2.489,2.489,0,0,1,8.49,17.5Zm-6.625,0a2.5,2.5,0,1,1,2.5,2.5A2.5,2.5,0,0,1,1.865,17.5Zm26.293,2.125L27.475,18.5H17.463a.244.244,0,0,1-.25-.254v-.377H15.361v.2a.388.388,0,0,1-.375.375h-.5a.378.378,0,0,1-.377-.375V17.5a3.3,3.3,0,0,0-.121-.867,2.382,2.382,0,0,0-.18-.453,1.393,1.393,0,0,0-.137-.262,2.558,2.558,0,0,0-.275-.4,2.149,2.149,0,0,0-.268-.293H17.91l1.16-3.5L4.07,7.66l4.373,7.563h.416A3.114,3.114,0,0,0,8,16.629H7.377a3.2,3.2,0,0,0-.867-1.406H7L2.85,8.037.563,8.752a.248.248,0,0,1-.316-.168L.039,7.875A.231.231,0,0,1,.2,7.563l12.52-3.916H23.068V.246A.254.254,0,0,1,23.322,0h.244a.249.249,0,0,1,.254.246V.738a45.383,45.383,0,0,0,6.811.512,44.337,44.337,0,0,0,6.8-.5V.246A.254.254,0,0,1,37.686,0h.244a.254.254,0,0,1,.254.246v3.4H46.52a.254.254,0,0,1,.248.252v.754a.248.248,0,0,1-.248.244H41.945L40.311,9.787c1.26.078,2.373.146,2.795.225a4.037,4.037,0,0,1,3.662,4.059v1.613a1.838,1.838,0,0,1-1.039,1.889v.676a.249.249,0,0,1-.244.254h-.729a3.121,3.121,0,1,0-5.91,0H34.859l-.691,1.119Zm-8.934-4.4h3.844V6.371a.942.942,0,0,1,.938-.937H30.8c5.059,0,5.119,0,5.635,1.053l1.42,3.186h.016c.361.018.736.039,1.137.061L40.617,4.9H22.67Zm24.457-3.486a2.867,2.867,0,0,1,1.436,1.414,2.906,2.906,0,0,0,.611.061A2.994,2.994,0,0,0,43.6,11.086,2.3,2.3,0,0,0,43.682,11.736ZM6.295,6.963l13.174,3.57L21.34,4.9h-8.4Zm24.627-.437a.319.319,0,0,0-.123.262V8.674a.666.666,0,0,0,.623.662l4.6.236a.2.2,0,0,0,.209-.283L35.2,6.809a.65.65,0,0,0-.6-.344l-3.393-.039A.447.447,0,0,0,30.922,6.525Zm-7.1-2.879H37.432V2.4a42.031,42.031,0,0,1-6.8.508A45.386,45.386,0,0,1,23.82,2.4Zm0-1.559a46.036,46.036,0,0,0,6.811.516,45.708,45.708,0,0,0,6.8-.5V1.053a42.1,42.1,0,0,1-6.8.512,47.786,47.786,0,0,1-6.811-.512ZM.377,18.447A.387.387,0,0,1,0,18.072v-2.6a.254.254,0,0,1,.246-.254H2.234a1.935,1.935,0,0,0-.27.293,2.431,2.431,0,0,0-.275.4,1.678,1.678,0,0,0-.139.262,2.379,2.379,0,0,0-.176.453,3.143,3.143,0,0,0-.123.867v.576a.377.377,0,0,1-.377.375Z" transform="translate(2179.449 248.086)" fill="#aaa"/>
  </g>
</svg>
