<svg xmlns="http://www.w3.org/2000/svg" width="55" height="19.999" viewBox="0 0 55 19.999"><g transform="translate(-2178.199 -95.836)"><rect width="55" height="19.998" transform="translate(2178.199 95.836)" fill="#aaa" opacity="0"/><path d="M37.789,15.5a2.5,2.5,0,1,1,2.5,2.5A2.507,2.507,0,0,1,37.789,15.5Zm-29.3,0A2.5,2.5,0,1,1,10.984,18,2.5,2.5,0,0,1,8.49,15.5Zm-6.617,0A2.5,2.5,0,1,1,4.367,18,2.5,2.5,0,0,1,1.873,15.5ZM43.246,16.51a3.126,3.126,0,1,0-5.916,0H21.17a.248.248,0,0,1-.244-.254v-.375H15.359v.2a.383.383,0,0,1-.375.377h-.5a.379.379,0,0,1-.375-.377V15.5a3.143,3.143,0,0,0-.123-.867,1.92,1.92,0,0,0-.176-.453,2.1,2.1,0,0,0-.139-.26,2.422,2.422,0,0,0-.268-.4,3.923,3.923,0,0,0-.277-.291h7.8V.934A.929.929,0,0,1,21.859,0h.9c5.191,0,10.348,1.215,12.652,3.18h.459a.564.564,0,0,1,.5.244l.689.752c.084.107.061.246-.254.246h-.4l1.152,2.563c1.521.287,4.66.859,5.535,1.021,2.125.406,3.678,1.768,3.678,4.068v1.621a1.844,1.844,0,0,1-1.037,1.887v.676a.255.255,0,0,1-.254.254Zm.438-6.764a2.893,2.893,0,0,1,1.438,1.414,2.859,2.859,0,0,0,.613.061,3,3,0,0,0-2.141-2.127A2.085,2.085,0,0,0,43.684,9.746ZM30.92,4.52a.368.368,0,0,0-.123.262V6.668a.692.692,0,0,0,.631.67l4.6.236a.2.2,0,0,0,.2-.291L35.2,4.811a.66.66,0,0,0-.6-.352L31.213,4.42A.461.461,0,0,0,30.92,4.52ZM.377,16.457A.384.384,0,0,1,0,16.08V13.486a.256.256,0,0,1,.252-.254H2.234a2.518,2.518,0,0,0-.27.291,2.585,2.585,0,0,0-.277.4,2.079,2.079,0,0,0-.137.26,2.211,2.211,0,0,0-.176.453,3.143,3.143,0,0,0-.125.867v.576a.374.374,0,0,1-.375.377Zm7-1.82a3.108,3.108,0,0,0-.869-1.4l3.264-1.289a.3.3,0,0,1,.391.115l.039.121a.287.287,0,0,1-.193.34l-1.273.5.123.215A3.107,3.107,0,0,0,8,14.637Z" transform="translate(2179.454 97.835)" fill="#aaa"/></g></svg>