<svg id="Group_112540" data-name="Group 112540" xmlns="http://www.w3.org/2000/svg" width="55" height="20" viewBox="0 0 55 20">
  <rect id="Rectangle_117646" data-name="Rectangle 117646" width="55" height="20" fill="#aaa" opacity="0"/>
  <g id="Group_112540-2" data-name="Group 112540" transform="translate(1.271 0)">
    <path id="Path_50584" data-name="Path 50584" d="M664.535,839.772c.875-.162,4.012-.738,5.537-1.025l1.15-2.562h-.4c-.312,0-.338-.138-.25-.25l.688-.75a.556.556,0,0,1,.5-.25h.463c2.3-1.963,7.463-5.172,12.65-5.172h.9a.936.936,0,0,1,.938.938V845h7.8a3,3,0,0,0-.275.287,3.226,3.226,0,0,0-.275.4,2.631,2.631,0,0,0-.138.263,2.4,2.4,0,0,0-.175.45,3.359,3.359,0,0,0-.125.875v.575a.376.376,0,0,1-.375.375h-.5a.385.385,0,0,1-.375-.375v-.2H686.71v.375a.251.251,0,0,1-.25.25H670.3a3.125,3.125,0,1,0-5.913,0h-2.237a.251.251,0,0,1-.25-.25v-.675a1.847,1.847,0,0,1-1.037-1.887v-1.625C660.86,841.534,662.41,840.172,664.535,839.772Zm7.063-.437,4.613-.238a.678.678,0,0,0,.625-.662v-1.887a.374.374,0,0,0-.125-.263.446.446,0,0,0-.288-.1l-3.387.037a.669.669,0,0,0-.6.35l-1.037,2.475A.2.2,0,0,0,671.6,839.335Zm-9.088,3.587a2.867,2.867,0,0,1,1.438-1.412,2.322,2.322,0,0,0,.088-.65,2.038,2.038,0,1,0-1.525,2.062Z" transform="translate(-660.86 -829.762)" fill="#aaa"/>
    <circle id="Ellipse_9856" data-name="Ellipse 9856" cx="2.5" cy="2.5" r="2.5" transform="translate(33.286 15)" fill="#aaa"/>
    <circle id="Ellipse_9857" data-name="Ellipse 9857" cx="2.5" cy="2.5" r="2.5" transform="translate(39.905 15)" fill="#aaa"/>
    <path id="Path_50585" data-name="Path 50585" d="M657.047,842l-1.275-.5a.279.279,0,0,1-.188-.338l.038-.125a.294.294,0,0,1,.388-.112l3.262,1.287a3.12,3.12,0,0,0-.862,1.4h-.625a3.12,3.12,0,0,0-.862-1.4Z" transform="translate(-619.009 -826.978)" fill="#aaa"/>
    <circle id="Ellipse_9858" data-name="Ellipse 9858" cx="2.5" cy="2.5" r="2.5" transform="translate(3.982 15)" fill="#aaa"/>
    <path id="Path_50586" data-name="Path 50586" d="M650.36,841.95h1.988a.251.251,0,0,1,.25.25v2.6a.385.385,0,0,1-.375.375h-.5a.376.376,0,0,1-.375-.375v-.575a3.364,3.364,0,0,0-.125-.875,2.412,2.412,0,0,0-.175-.45,2.657,2.657,0,0,0-.138-.263,3.214,3.214,0,0,0-.275-.4A3,3,0,0,0,650.36,841.95Z" transform="translate(-605.823 -826.715)" fill="#aaa"/>
  </g>
</svg>
