<svg width="50" height="18" viewBox="0 0 50 18" fill="none" xmlns="http://www.w3.org/2000/svg">
<path d="M5.75 17C4.7835 17 4 16.2165 4 15.25C4 14.2835 4.7835 13.5 5.75 13.5C6.7165 13.5 7.5 14.2835 7.5 15.25C7.5 16.2165 6.7165 17 5.75 17Z" fill="#F89B2E"/>
<path d="M30.662 13.5H34V15C34 15.552 33.552 16 33 16V15H31.486C31.419 14.396 31.112 13.863 30.662 13.5Z" fill="#F89B2E"/>
<path d="M29.25 17C28.2835 17 27.5 16.2165 27.5 15.25C27.5 14.2835 28.2835 13.5 29.25 13.5C30.2165 13.5 31 14.2835 31 15.25C31 16.2165 30.2165 17 29.25 17Z" fill="#F89B2E"/>
<path d="M3.507 10.332L5.5 10L6.947 7.106C7.286 6.428 7.978 6 8.736 6H11.5V10H12V5.5H9C8.448 5.5 8 5.052 8 4.5V3.5C8 2.948 8.448 2.5 9 2.5H33C33.552 2.5 34 2.948 34 3.5V13H12V12H11.5V13.5H27.838C27.388 13.863 27.081 14.396 27.014 15H17C17 15.552 16.552 16 16 16H8V15.25C8 14.009 6.991 13 5.75 13C4.509 13 3.5 14.009 3.5 15.25V16H2C1.448 16 1 15.552 1 15V13.291C1 11.824 2.06 10.573 3.507 10.332ZM10 3.5C9.448 3.5 9 3.948 9 4.5H10V3.5ZM12 3.5C11.448 3.5 11 3.948 11 4.5H12V3.5ZM31 11H32V10.75H31V11ZM31 8H32V7.75H31V8ZM31 5H32V4.75H31V5ZM28 11H29V10.75H28V11ZM28 8H29V7.75H28V8ZM28 5H29V4.75H28V5ZM25 11H26V10.75H25V11ZM25 8H26V7.75H25V8ZM25 5H26V4.75H25V5ZM22 11H23V10.75H22V11ZM22 8H23V7.75H22V8ZM22 5H23V4.75H22V5ZM19 11H20V10.75H19V11ZM19 8H20V7.75H19V8ZM19 5H20V4.75H19V5ZM16 11H17V10.75H16V11ZM16 8H17V7.75H16V8ZM16 5H17V4.75H16V5ZM9.449 9.381C10.05 9.306 10.5 8.795 10.5 8.19V6.999H8.394C8.002 6.999 7.646 7.228 7.484 7.585L6.5 9.749L9.449 9.38V9.381ZM2.413 14.195C2.673 13.375 3.226 12.686 3.95 12.25H3.282C2.823 12.25 2.423 12.562 2.312 13.007L2.157 13.628C2.098 13.863 2.216 14.093 2.414 14.195H2.413Z" fill="#F89B2E"/>
</svg>
