<svg xmlns="http://www.w3.org/2000/svg" width="54.999" height="20" viewBox="0 0 54.999 20">
  <g id="Truck_-_Semi" data-name="Truck - Semi" transform="translate(-2178.199 -60)">
    <rect id="Rectangle_65754" data-name="Rectangle 65754" width="54.999" height="20" transform="translate(2178.199 60)" fill="#aaa" opacity="0"/>
    <path id="Union_742" data-name="Union 742" d="M32.795,15.492a2.5,2.5,0,1,1,2.5,2.5A2.49,2.49,0,0,1,32.795,15.492Zm-24.3,0A2.5,2.5,0,1,1,10.986,18,2.49,2.49,0,0,1,8.492,15.492Zm-6.619,0A2.5,2.5,0,1,1,4.367,18,2.49,2.49,0,0,1,1.873,15.492ZM38.246,16.5a3.12,3.12,0,1,0-5.91,0H21.172a.244.244,0,0,1-.244-.248v-.375H15.361v.2a.386.386,0,0,1-.377.377h-.5a.379.379,0,0,1-.379-.377V15.5a3.239,3.239,0,0,0-.123-.873c-.021-.078-.045-.139-.061-.215,0-.008-.016-.025-.031-.039a1.485,1.485,0,0,0-.084-.2c-.039-.082-.084-.168-.139-.262a2.475,2.475,0,0,0-.545-.684h8.738a.937.937,0,0,1-.937-.941V.938A.927.927,0,0,1,21.865,0H23.8A7.463,7.463,0,0,1,29.91,3.164H30.1a.562.562,0,0,1,.5.246l.684.752c.092.123.039.252-.248.252h-.414L31.715,6.84c.3.047,5.25.961,6.387,1.176,2.125.383,3.678,1.75,3.678,4.045v1.629a1.85,1.85,0,0,1-1.045,1.889v.674a.244.244,0,0,1-.246.248ZM25.148,4.514a.375.375,0,0,0-.121.279V6.672a.665.665,0,0,0,.607.652l4.629.254a.212.212,0,0,0,.2-.291L29.426,4.814a.648.648,0,0,0-.6-.361l-3.395-.039A.472.472,0,0,0,25.148,4.514ZM.375,16.453A.386.386,0,0,1,0,16.076v-2.6a.251.251,0,0,1,.254-.248h1.98a2.335,2.335,0,0,0-.27.287,3.1,3.1,0,0,0-.275.4c-.053.094-.1.18-.139.262a2.53,2.53,0,0,0-.176.455,3.24,3.24,0,0,0-.125.873v.576a.375.375,0,0,1-.375.377Zm7-1.826a3.178,3.178,0,0,0-.871-1.4l3.266-1.289a.308.308,0,0,1,.391.123l.039.117a.289.289,0,0,1-.193.344l-1.258.5.107.2A3.109,3.109,0,0,0,8,14.627Z" transform="translate(2179.454 62.002)" fill="#aaa"/>
  </g>
</svg>
