<svg width="20" height="20" viewBox="0 0 20 20" fill="none" xmlns="http://www.w3.org/2000/svg">
<path d="M6.74309 16.7462L1.18754 11.1906C1.09465 11.0978 1.02096 10.9875 0.970683 10.8662C0.920408 10.7448 0.894531 10.6148 0.894531 10.4834C0.894531 10.3521 0.920408 10.222 0.970683 10.1007C1.02096 9.97932 1.09465 9.86907 1.18754 9.7762L2.60421 8.36398C2.69707 8.27109 2.80732 8.1974 2.92867 8.14712C3.05002 8.09685 3.18008 8.07097 3.31143 8.07097C3.44278 8.07097 3.57284 8.09685 3.69419 8.14712C3.81553 8.1974 3.92579 8.27109 4.01865 8.36398L7.44976 11.7951L15.9775 3.26176C16.0704 3.16887 16.1807 3.09518 16.302 3.0449C16.4233 2.99463 16.5534 2.96875 16.6848 2.96875C16.8161 2.96875 16.9462 2.99463 17.0675 3.0449C17.1889 3.09518 17.2991 3.16887 17.392 3.26176L18.8064 4.6762C18.8993 4.76907 18.973 4.87932 19.0233 5.00067C19.0736 5.12201 19.0994 5.25208 19.0994 5.38343C19.0994 5.51478 19.0736 5.64484 19.0233 5.76618C18.973 5.88753 18.8993 5.99778 18.8064 6.09065L8.15754 16.7418C8.06468 16.8347 7.95442 16.9083 7.83308 16.9586C7.71173 17.0089 7.58167 17.0348 7.45032 17.0348C7.31897 17.0348 7.18891 17.0089 7.06756 16.9586C6.94621 16.9083 6.83596 16.8347 6.74309 16.7418V16.7462Z" fill="black"/>
</svg>
