<svg width="20" height="20" viewBox="0 0 20 20" fill="none" xmlns="http://www.w3.org/2000/svg">
<path fill-rule="evenodd" clip-rule="evenodd" d="M2.10156 2.77609V3.88721C2.10155 3.96092 2.11621 4.03389 2.14469 4.10188C2.17316 4.16987 2.21488 4.23151 2.26741 4.28322C2.31994 4.33493 2.38224 4.37566 2.45067 4.40305C2.51911 4.43044 2.59231 4.44394 2.66601 4.44276H17.3349C17.4086 4.44394 17.4818 4.43044 17.5502 4.40305C17.6187 4.37566 17.681 4.33493 17.7335 4.28322C17.786 4.23151 17.8277 4.16987 17.8562 4.10188C17.8847 4.03389 17.8994 3.96092 17.8993 3.88721V2.77609C17.8994 2.70238 17.8847 2.62941 17.8562 2.56142C17.8277 2.49343 17.786 2.43179 17.7335 2.38008C17.681 2.32838 17.6187 2.28764 17.5502 2.26025C17.4818 2.23286 17.4086 2.21936 17.3349 2.22054H13.1016L12.776 1.57165C12.7047 1.43193 12.596 1.31475 12.462 1.23315C12.328 1.15154 12.174 1.10872 12.0171 1.10943H7.99045C7.83365 1.10766 7.67949 1.14995 7.54553 1.23146C7.41156 1.31298 7.30317 1.43046 7.23267 1.57054L6.89934 2.22054H2.66601C2.59231 2.21936 2.51911 2.23286 2.45067 2.26025C2.38224 2.28764 2.31994 2.32838 2.26741 2.38008C2.21488 2.43179 2.17316 2.49343 2.14469 2.56142C2.11621 2.62941 2.10155 2.70238 2.10156 2.77609ZM3.21094 5.19727L3.96094 17.4062H3.96205C4.00482 17.8213 4.20326 18.2049 4.51743 18.4797C4.8316 18.7545 5.23819 18.9001 5.65538 18.8873H14.3465C14.7639 18.9004 15.1707 18.7549 15.4851 18.4801C15.7996 18.2053 15.9981 17.8215 16.0409 17.4062L16.7909 5.19727H3.21094Z" fill="black"/>
</svg>
