<svg width="20" height="20" viewBox="0 0 20 20" fill="none" xmlns="http://www.w3.org/2000/svg">
<path d="M7.29911 8.5931H12.9247C13.0738 8.5931 13.2168 8.53387 13.3222 8.42843C13.4277 8.32299 13.4869 8.17999 13.4869 8.03088V7.46866C13.4869 7.31955 13.4277 7.17654 13.3222 7.07111C13.2168 6.96567 13.0738 6.90644 12.9247 6.90644H7.29911C7.15 6.90644 7.007 6.96567 6.90156 7.07111C6.79612 7.17654 6.73689 7.31955 6.73689 7.46866V8.03088C6.73689 8.17999 6.79612 8.32299 6.90156 8.42843C7.007 8.53387 7.15 8.5931 7.29911 8.5931V8.5931ZM6.73689 11.4064C6.73689 11.4803 6.75143 11.5534 6.77968 11.6216C6.80794 11.6898 6.84935 11.7518 6.90156 11.804C6.95377 11.8562 7.01574 11.8976 7.08396 11.9259C7.15217 11.9541 7.22528 11.9687 7.29911 11.9687H12.9247C12.9985 11.9687 13.0716 11.9541 13.1398 11.9259C13.208 11.8976 13.27 11.8562 13.3222 11.804C13.3744 11.7518 13.4158 11.6898 13.4441 11.6216C13.4723 11.5534 13.4869 11.4803 13.4869 11.4064V10.8431C13.4869 10.694 13.4277 10.551 13.3222 10.4456C13.2168 10.3401 13.0738 10.2809 12.9247 10.2809H7.29911C7.15 10.2809 7.007 10.3401 6.90156 10.4456C6.79612 10.551 6.73689 10.694 6.73689 10.8431V11.4064ZM10.1113 15.6698C9.51948 15.6697 8.94279 15.4826 8.46355 15.1353L1.11133 9.81866V17.312C1.11089 17.5339 1.15423 17.7537 1.23885 17.9589C1.32347 18.1641 1.44772 18.3505 1.60449 18.5076C1.76126 18.6647 1.94747 18.7893 2.15245 18.8743C2.35744 18.9593 2.57719 19.0031 2.79911 19.0031H17.4236C17.6455 19.0031 17.8652 18.9593 18.0702 18.8743C18.2752 18.7893 18.4614 18.6647 18.6182 18.5076C18.7749 18.3505 18.8992 18.1641 18.9838 17.9589C19.0684 17.7537 19.1118 17.5339 19.1113 17.312V9.81866L11.7591 15.1298C11.2805 15.4789 10.7038 15.6679 10.1113 15.6698V15.6698ZM18.4647 6.73421C18.1536 6.48977 17.8591 6.26088 17.4236 5.93199V4.37644C17.4236 3.92881 17.2457 3.49952 16.9292 3.183C16.6127 2.86648 16.1834 2.68866 15.7358 2.68866H13.0102L12.6924 2.45755C12.1013 2.02532 10.9269 0.987547 10.1113 1.0031C9.29578 0.987547 8.12133 2.02532 7.53022 2.45644L7.21244 2.68755H4.48689C4.03926 2.68755 3.60997 2.86537 3.29345 3.18189C2.97693 3.49841 2.79911 3.9277 2.79911 4.37533V5.93088C2.36466 6.26421 2.06911 6.48644 1.758 6.7331C1.55721 6.89047 1.3947 7.0913 1.28269 7.32051C1.17069 7.54971 1.1121 7.80133 1.11133 8.05644V8.43088L4.48689 10.8687V4.37533H15.7369V10.8687L19.1113 8.43088V8.05644C19.1121 7.79964 19.0542 7.54606 18.9422 7.315C18.8301 7.08395 18.6668 6.88151 18.4647 6.7231V6.73421Z" fill="black"/>
</svg>
