<svg width="20" height="20" viewBox="0 0 20 20" fill="none" xmlns="http://www.w3.org/2000/svg">
<path d="M18.998 7.1843C18.9974 8.09439 18.7961 8.99315 18.4085 9.81658C18.0209 10.64 17.4565 11.3679 16.7555 11.9483C16.0546 12.5288 15.2342 12.9475 14.353 13.1748C13.4717 13.4021 12.5512 13.4322 11.6569 13.2632L10.8125 14.2132C10.7333 14.3024 10.6361 14.3737 10.5273 14.4225C10.4185 14.4714 10.3006 14.4966 10.1814 14.4965H8.87249V15.9032C8.87249 16.1269 8.78364 16.3414 8.62548 16.4995C8.46733 16.6577 8.25282 16.7465 8.02916 16.7465H6.6236V18.1532C6.6236 18.2643 6.60164 18.3743 6.55898 18.4769C6.51633 18.5796 6.45381 18.6727 6.37503 18.7511C6.29624 18.8295 6.20275 18.8915 6.09992 18.9336C5.99709 18.9757 5.88695 18.9971 5.77582 18.9965H1.84138C1.61771 18.9965 1.40321 18.9077 1.24505 18.7495C1.0869 18.5914 0.998047 18.3769 0.998047 18.1532V15.4087C0.997989 15.185 1.0867 14.9704 1.24471 14.8121L6.9336 9.12319C6.65322 8.2727 6.56078 7.37149 6.66267 6.4818C6.76456 5.5921 7.05835 4.73512 7.52374 3.97004C7.98914 3.20496 8.61506 2.55002 9.35826 2.05043C10.1015 1.55085 10.9443 1.21854 11.8284 1.07644C12.7126 0.934346 13.6171 0.985856 14.4794 1.22741C15.3417 1.46897 16.1413 1.89482 16.823 2.47555C17.5047 3.05628 18.0522 3.77806 18.4277 4.59103C18.8032 5.404 18.9978 6.28879 18.998 7.1843V7.1843ZM12.8103 5.49652C12.8103 5.83033 12.9093 6.15665 13.0947 6.4342C13.2802 6.71176 13.5438 6.92808 13.8522 7.05583C14.1606 7.18357 14.4999 7.21699 14.8273 7.15187C15.1547 7.08675 15.4554 6.926 15.6915 6.68996C15.9275 6.45392 16.0883 6.15319 16.1534 5.82579C16.2185 5.49839 16.1851 5.15904 16.0573 4.85064C15.9296 4.54224 15.7133 4.27864 15.4357 4.09319C15.1582 3.90773 14.8319 3.80874 14.498 3.80874C14.0504 3.80874 13.6211 3.98656 13.3046 4.30308C12.9881 4.6196 12.8103 5.0489 12.8103 5.49652Z" fill="black"/>
</svg>
