<svg width="20" height="20" viewBox="0 0 20 20" fill="none" xmlns="http://www.w3.org/2000/svg">
<path fill-rule="evenodd" clip-rule="evenodd" d="M4.29563 18.1468C4.48294 18.3327 4.73612 18.437 5 18.4369L15 18.4358C15.2639 18.4358 15.5171 18.3316 15.7044 18.1457C15.8917 17.9598 15.9979 17.7075 16 17.4436V12.4814H4V17.4447C4.00205 17.7086 4.10831 17.961 4.29563 18.1468ZM4 2.55472V4.54028H16V2.55361C15.9977 2.28994 15.8913 2.03786 15.704 1.85224C15.5167 1.66663 15.2637 1.56249 15 1.5625H5C4.73612 1.56249 4.48294 1.66678 4.29563 1.85264C4.10831 2.0385 4.00205 2.29086 4 2.55472ZM17.3989 5.5381H17.4011H17.4133C17.6219 5.5381 17.8284 5.57921 18.021 5.65909C18.2137 5.73897 18.3887 5.85604 18.5361 6.00361C18.6834 6.15118 18.8003 6.32636 18.8799 6.51912C18.9595 6.71188 19.0003 6.91844 19 7.12699V13.8837C18.999 14.0927 18.9568 14.2996 18.8758 14.4924C18.7949 14.6852 18.6767 14.8601 18.5282 15.0073C18.3796 15.1544 18.2035 15.2708 18.0099 15.3499C17.8163 15.429 17.6091 15.4691 17.4 15.4681H17V12.4681C16.9983 12.3385 16.971 12.2106 16.9198 12.0915C16.8686 11.9725 16.7945 11.8647 16.7016 11.7743C16.6087 11.6839 16.499 11.6127 16.3786 11.5647C16.2582 11.5168 16.1296 11.493 16 11.4948H4C3.86908 11.4939 3.73929 11.5189 3.61808 11.5684C3.49686 11.6178 3.38662 11.6907 3.29368 11.7829C3.20075 11.8752 3.12697 11.9848 3.07656 12.1057C3.02616 12.2265 3.00014 12.3561 3 12.487V15.4648H2.6C2.17739 15.4654 1.77176 15.2985 1.47189 15.0007C1.17203 14.7029 1.00235 14.2985 1 13.8759V7.12477C1.00087 6.91553 1.04295 6.70851 1.12383 6.51553C1.20471 6.32255 1.32281 6.14739 1.47139 6.00006C1.61996 5.85272 1.7961 5.73609 1.98975 5.65683C2.1834 5.57757 2.39076 5.53722 2.6 5.5381H17.3989ZM13.4133 9.50366H15.7467C15.9441 9.50366 16.1335 9.42522 16.2731 9.28561C16.4127 9.146 16.4911 8.95665 16.4911 8.75921C16.4911 8.56177 16.4127 8.37242 16.2731 8.23281C16.1335 8.0932 15.9441 8.01477 15.7467 8.01477H13.4133C13.2229 8.02517 13.0437 8.10814 12.9126 8.24661C12.7815 8.38508 12.7085 8.56852 12.7085 8.75921C12.7085 8.9499 12.7815 9.13334 12.9126 9.27181C13.0437 9.41028 13.2229 9.49325 13.4133 9.50366Z" fill="black"/>
</svg>
