<svg width="20" height="20" viewBox="0 0 20 20" fill="none" xmlns="http://www.w3.org/2000/svg">
<path d="M1.34534 5.01783L18.6498 5.01783C18.9158 5.01766 19.1759 5.09641 19.3972 5.24413C19.6184 5.39185 19.7909 5.60189 19.8927 5.84766C19.9946 6.09344 20.0212 6.3639 19.9692 6.62481C19.9173 6.88573 19.7891 7.12536 19.6009 7.31339L10.9487 15.9656C10.6964 16.2177 10.3542 16.3594 9.99755 16.3594C9.64086 16.3594 9.29876 16.2177 9.04645 15.9656L0.394222 7.31339C0.206018 7.12536 0.0778325 6.88573 0.025883 6.62481C-0.0260665 6.3639 0.000557626 6.09344 0.102389 5.84766C0.20422 5.60189 0.376678 5.39185 0.597935 5.24413C0.819192 5.09641 1.0793 5.01766 1.34534 5.01783Z" fill="black"/>
</svg>
