<svg width="18" height="18" viewBox="0 0 18 18" fill="none" xmlns="http://www.w3.org/2000/svg">
<g clip-path="url(#clip0_22841_27124)">
<path d="M3.53384 17.0996C3.37326 17.1047 3.21813 17.0468 3.10038 16.9372C2.98264 16.8277 2.9119 16.6756 2.90513 16.5148V15.5974H1.47785C1.3244 15.5953 1.17753 15.5328 1.06977 15.4234C0.962008 15.3139 0.90184 15.1664 0.901855 15.0126V14.5706C0.901847 14.417 0.961953 14.2709 1.06977 14.1618C1.17759 14.0527 1.32458 13.9893 1.47785 13.9877H2.90318V13.0626C2.90626 12.9832 2.9245 12.9058 2.95785 12.8337C2.9912 12.7617 3.03996 12.6977 3.09843 12.644C3.15691 12.5904 3.22496 12.5477 3.29954 12.5208C3.37413 12.4938 3.4527 12.4817 3.53189 12.4856H6.86873C7.02908 12.4785 7.18526 12.536 7.30414 12.644C7.42303 12.752 7.49476 12.902 7.5033 13.0626V13.9877H16.52C16.6733 13.9893 16.8203 14.0527 16.9281 14.1618C17.0359 14.2709 17.096 14.417 17.096 14.5706V15.0126C17.096 15.1664 17.0358 15.3139 16.9281 15.4234C16.8203 15.5328 16.6735 15.5953 16.52 15.5974H7.5033V16.5148C7.49501 16.6761 7.4248 16.8279 7.3061 16.9372C7.1874 17.0466 7.02992 17.1048 6.86873 17.0996H3.53384ZM11.5313 11.3062C11.3702 11.3114 11.2127 11.2532 11.094 11.1438C10.9753 11.0345 10.9051 10.8827 10.8968 10.7213V9.80402H1.47589C1.32263 9.80244 1.17564 9.74104 1.06782 9.6319C0.96 9.52277 0.899894 9.3747 0.899902 9.22116V8.77717C0.899894 8.62363 0.96 8.47752 1.06782 8.36838C1.17564 8.25925 1.32263 8.19589 1.47589 8.19431H10.9007V7.26916C10.9092 7.1086 10.9809 6.95862 11.0998 6.85059C11.2187 6.74257 11.3749 6.68507 11.5352 6.69217H14.8643C14.944 6.68744 15.0233 6.69884 15.0986 6.72542C15.1739 6.75199 15.2445 6.79492 15.3036 6.84864C15.3627 6.90236 15.4104 6.96589 15.4442 7.03836C15.4779 7.11084 15.4958 7.18926 15.4988 7.26916V8.19431H16.5239C16.6772 8.19589 16.8242 8.25925 16.932 8.36838C17.0398 8.47752 17.0999 8.62363 17.0999 8.77717V9.22116C17.0999 9.3747 17.0398 9.52277 16.932 9.6319C16.8242 9.74104 16.6772 9.80244 16.5239 9.80402H15.4988V10.7213C15.4918 10.8831 15.4206 11.0362 15.3016 11.1458C15.1826 11.2554 15.0258 11.3127 14.8643 11.3062H11.5313ZM3.53384 5.50493C3.45465 5.50882 3.37608 5.49667 3.30149 5.46972C3.22691 5.44277 3.15886 5.40209 3.10038 5.34845C3.04191 5.29481 2.99315 5.23079 2.9598 5.15873C2.92646 5.08667 2.90821 5.0073 2.90513 4.92793V4.00474H1.47785C1.32521 4.00447 1.17965 3.94465 1.07172 3.83653C0.963794 3.72841 0.902119 3.58065 0.901855 3.42775V2.97788C0.90316 2.82531 0.964018 2.6809 1.07172 2.57301C1.17943 2.46512 1.32553 2.40415 1.47785 2.40285H2.90318V1.47574C2.90626 1.39638 2.9245 1.31896 2.95785 1.2469C2.9912 1.17484 3.03996 1.11082 3.09843 1.05718C3.15691 1.00354 3.22496 0.960904 3.29954 0.933955C3.37413 0.907005 3.4527 0.896805 3.53189 0.900704H6.86873C7.02908 0.893612 7.18526 0.949153 7.30414 1.05718C7.42303 1.1652 7.49476 1.31519 7.5033 1.47574V2.40285H16.52C16.6723 2.40415 16.8184 2.46512 16.9261 2.57301C17.0338 2.6809 17.0947 2.82531 17.096 2.97788V3.42775C17.0957 3.58065 17.036 3.72841 16.9281 3.83653C16.8202 3.94465 16.6726 4.00447 16.52 4.00474H7.5033V4.92793C7.49476 5.08849 7.42303 5.24043 7.30414 5.34845C7.18526 5.45648 7.02908 5.51202 6.86873 5.50493H3.53384Z" fill="#6692F1"/>
</g>
<defs>
<clipPath id="clip0_22841_27124">
<rect width="18" height="18" fill="white"/>
</clipPath>
</defs>
</svg>
