<svg width="314" height="92" viewBox="0 0 314 92" fill="none" xmlns="http://www.w3.org/2000/svg">
<path d="M312 92H2C1.46957 92 0.960859 91.7893 0.585786 91.4142C0.210714 91.0391 0 90.5304 0 90V2C0 1.46957 0.210714 0.960859 0.585786 0.585786C0.960859 0.210714 1.46957 0 2 0L312 0C312.53 0 313.039 0.210714 313.414 0.585786C313.789 0.960859 314 1.46957 314 2V90C314 90.5304 313.789 91.0391 313.414 91.4142C313.039 91.7893 312.53 92 312 92Z" fill="url(#paint0_linear_380_6716)"/>
<path d="M127.959 17.1324L126.679 44.8154C126.552 47.5154 123.522 49.6324 119.908 49.5354L53.1955 47.8424L45.0105 47.6124C41.7415 47.5214 39.1865 45.4654 39.3005 43.0204L39.9455 29.0844L40.6105 14.8784C40.7375 12.1784 43.7665 10.0634 47.3805 10.1594L121.681 12.0494C125.287 12.1624 128.096 14.4354 127.963 17.1334" fill="#CCCCCC"/>
<path d="M126.661 17.3081L125.384 44.5081C125.257 47.1641 122.273 49.2431 118.714 49.1511L53.0274 47.5511L44.9674 47.3331C41.7504 47.2461 39.2344 45.2331 39.3474 42.8261L39.9914 29.1381L40.6554 15.1781C40.7814 12.5211 43.7644 10.4431 47.3234 10.5341L120.478 12.3181C124.027 12.4271 126.792 14.6581 126.661 17.3091" fill="white"/>
<path d="M61.213 90H30" stroke="#AAAAAA" stroke-width="2" stroke-miterlimit="10"/>
<path d="M66.5703 60.8203L80.3403 56.5393L85.4903 47.4453L86.5903 47.6523C87.1723 47.7487 87.7395 47.9191 88.2783 48.1593C89.1203 48.6883 88.7353 48.9053 88.1783 49.7303L81.8713 59.1243L66.9103 61.7593L66.5703 60.8203Z" fill="#424242"/>
<path d="M72.1605 55.3676C72.1605 55.3676 67.8605 59.0676 64.5465 57.9856C61.2325 56.9036 59.5805 53.7446 60.7985 51.5196C62.0165 49.2946 65.3715 48.7406 68.3735 49.7526C71.3755 50.7646 72.1165 55.3356 72.1605 55.3676Z" fill="#AAAAAA"/>
<path d="M66.3634 64.1045C64.7174 66.9315 61.9994 68.8175 60.0324 67.9665C58.0654 67.1155 57.8164 63.7295 59.7004 60.7405C61.5844 57.7515 64.6524 56.4295 66.3714 57.4335C68.0904 58.4375 68.0004 61.2725 66.3634 64.1045Z" fill="#AAAAAA"/>
<path d="M61.3729 67.8653C62.7299 69.9653 60.4039 73.6243 56.1729 76.6143C51.8959 79.7783 43.4069 74.7773 43.4849 74.6073C45.4266 72.0453 47.8687 69.9047 50.6629 68.3153C55.2559 65.7263 60.0129 65.7843 61.3699 67.8653" fill="#AAAAAA"/>
<path d="M69.643 50.4816C70.3703 51.693 70.881 53.0218 71.152 54.4086C71.152 54.4086 66.789 58.0166 63.53 56.8476C62.5761 56.508 61.7112 55.9573 61 55.2366C61.8048 56.5575 63.065 57.5384 64.543 57.9946C67.855 59.0776 72.165 55.3506 72.157 55.3766C72.149 55.4026 71.519 52.0956 69.643 50.4766" fill="#424242"/>
<path d="M67.5958 59.5391C67.3418 60.5034 66.9386 61.4222 66.4008 62.2621C64.6548 65.0411 61.9008 66.8621 59.9738 65.9761C59.5661 65.7575 59.2198 65.4401 58.9666 65.0529C58.7135 64.6657 58.5616 64.2212 58.5248 63.7601C58.1718 65.7241 58.7388 67.4121 60.0348 67.9791C61.9988 68.8521 64.7248 66.9451 66.3658 64.1181C67.239 62.7554 67.6687 61.1558 67.5958 59.5391Z" fill="#424242"/>
<path d="M61.5049 68.1172C60.9509 70.0732 58.8869 72.4812 55.8319 74.5012C52.6379 76.6822 47.2149 74.6152 44.7059 73.1092C44.2716 73.5863 43.864 74.0871 43.4849 74.6092C43.4059 74.7792 51.8969 79.7792 56.1729 76.6172C60.2479 73.7402 62.5349 70.2402 61.5049 68.1172Z" fill="#424242"/>
<path d="M63.319 54.9009C63.094 55.1259 54.977 49.0799 52.306 49.6649C49.43 50.5369 45.327 54.7179 47.241 57.4649C49.241 60.1349 49.141 57.7489 48.908 57.3389C48.675 56.9289 47.652 57.1469 47.647 57.1389C47.642 57.1309 46.173 55.3069 48.384 52.9879C50.595 50.6689 51.918 50.0259 53.112 50.1129C55.4905 51.118 57.812 52.253 60.066 53.5129C60.9926 54.1847 61.9613 54.7966 62.966 55.3449C62.966 55.3449 63.601 55.2329 63.322 54.9039" fill="#424242"/>
<path d="M51.3078 47.1172L51.0078 56.3492L61.4498 61.6862L61.1598 60.3272L53.3778 56.1662L53.6608 47.2662L51.3078 47.1172Z" fill="#424242"/>
<path d="M50.2904 73.1224C50.2024 73.0314 50.0154 72.7944 49.9974 72.7734C48.4624 74.0034 40.2734 79.7514 40.2734 79.7514L41.5634 89.6954H46.3634L41.3324 80.0354C41.3324 80.0354 49.0074 74.3524 50.2914 73.1224" fill="#424242"/>
<path d="M54.1119 75.8594C55.5623 78.0199 57.1314 80.0985 58.8119 82.0854L54.2119 89.7394L50.5469 89.6924L57.4719 82.1354C56.0999 80.2462 54.8718 78.2566 53.7979 76.1834L54.1119 75.8594Z" fill="#424242"/>
<path d="M64.0899 50.669C63.6549 50.887 56.5219 39.387 53.9299 40.337C50.8399 41.515 49.1899 43.787 49.6899 45.071C50.1899 46.355 51.7049 47.305 51.7229 46.152C51.7409 44.999 50.9819 45.673 50.9769 45.673C50.9719 45.673 49.4679 45.808 50.6769 43.709C51.8859 41.61 53.3769 40.314 54.7869 41.16C55.8677 41.7113 56.8068 42.5045 57.5309 43.478C58.6869 45.062 63.5919 51.192 63.7309 51.1C63.7309 51.1 63.9969 51.43 64.0839 50.669" fill="#424242"/>
<path d="M58.1305 33.9031L60.1705 33.9378L56.5573 25.474L54.6373 25.4413L50.7505 33.7777L52.7425 33.8115L53.5171 32.0242L57.4171 32.0905L58.1305 33.9031ZM54.1662 30.5588L55.5529 27.3654L56.8302 30.6041L54.1662 30.5588ZM65.7068 25.1254L65.6536 28.2574C65.1945 27.7214 64.5268 27.458 63.7348 27.4445C61.9108 27.4135 60.4848 28.6856 60.4503 30.7136C60.4158 32.7416 61.7978 34.0615 63.6218 34.0925C64.4858 34.1072 65.1745 33.8428 65.6521 33.2868L65.6394 34.0308L67.4274 34.0612L67.5788 25.1572L65.7068 25.1254ZM63.9719 32.562C63.0359 32.5461 62.3273 31.8619 62.3463 30.7459C62.3653 29.6299 63.0967 28.9701 64.0327 28.986C64.9567 29.0017 65.6653 29.686 65.6463 30.802C65.6273 31.918 64.8959 32.5777 63.9719 32.562ZM74.0154 25.2666L73.9622 28.3986C73.5031 27.8627 72.8354 27.5992 72.0434 27.5858C70.2194 27.5548 68.7934 28.8269 68.7589 30.8549C68.7244 32.8829 70.1064 34.2028 71.9304 34.2338C72.7944 34.2485 73.4831 33.9841 73.9607 33.428L73.948 34.172L75.736 34.2024L75.8874 25.2984L74.0154 25.2666ZM72.2805 32.7033C71.3445 32.6874 70.6359 32.0031 70.6549 30.8871C70.6739 29.7711 71.4053 29.1114 72.3413 29.1273C73.2653 29.143 73.9739 29.8272 73.9549 30.9432C73.9359 32.0592 73.2045 32.719 72.2805 32.7033ZM83.9854 34.4387C85.3414 34.4618 86.4196 33.8799 86.9052 32.8559L85.4666 32.0392C85.108 32.6573 84.5875 32.9125 83.9995 32.9025C83.0515 32.8864 82.3188 32.2137 82.3379 31.0857C82.3571 29.9577 83.1123 29.3104 84.0603 29.3265C84.6483 29.3365 85.1596 29.6213 85.4972 30.2392L86.9625 29.4839C86.5124 28.4199 85.4544 27.8138 84.0984 27.7907C81.9984 27.755 80.475 29.1095 80.4419 31.0535C80.4089 32.9975 81.8854 34.403 83.9854 34.4387ZM89.8402 28.8366L89.8547 27.9846L88.0667 27.9542L87.9569 34.4102L89.8289 34.442L89.8807 31.394C89.9017 30.158 90.5953 29.6056 91.6273 29.6232C91.7713 29.6256 91.8911 29.6397 92.0469 29.6543L92.0763 27.9263C91.0803 27.9094 90.3068 28.2203 89.8402 28.8366ZM99.3979 31.3998C99.4332 29.3238 97.9908 28.0269 96.0948 27.9946C94.1268 27.9612 92.6271 29.3281 92.5943 31.2601C92.5616 33.1801 93.9898 34.6088 96.2218 34.6467C97.3858 34.6665 98.2919 34.3218 98.9035 33.648L97.9259 32.5511C97.4747 32.9635 96.9793 33.1592 96.2953 33.1475C95.3113 33.1308 94.6356 32.6272 94.4693 31.8201L99.3533 31.9031C99.368 31.7474 99.3954 31.5438 99.3979 31.3998ZM96.0827 29.4108C96.9227 29.4251 97.5257 29.9635 97.6439 30.7818L94.4639 30.7277C94.6099 29.902 95.2307 29.3964 96.0827 29.4108ZM105.445 25.8009L105.392 28.9329C104.933 28.397 104.265 28.1335 103.473 28.1201C101.649 28.0891 100.223 29.3612 100.189 31.3892C100.154 33.4172 101.536 34.7371 103.36 34.7681C104.224 34.7828 104.913 34.5184 105.39 33.9623L105.378 34.7063L107.166 34.7367L107.317 25.8327L105.445 25.8009ZM103.71 33.2376C102.774 33.2217 102.066 32.5374 102.085 31.4214C102.104 30.3054 102.835 29.6457 103.771 29.6616C104.695 29.6773 105.404 30.3615 105.385 31.4775C105.366 32.5935 104.634 33.2533 103.71 33.2376ZM109.959 27.4261C110.655 27.4379 111.131 26.9899 111.142 26.3659C111.152 25.7899 110.691 25.3499 109.995 25.3381C109.299 25.3263 108.823 25.7743 108.813 26.3623C108.803 26.9503 109.263 27.4143 109.959 27.4261ZM108.898 34.7662L110.77 34.798L110.88 28.342L109.008 28.3102L108.898 34.7662ZM116.195 33.2578C115.989 33.4103 115.711 33.4896 115.435 33.4849C114.931 33.4764 114.636 33.1713 114.646 32.6193L114.691 29.9913L116.299 30.0186L116.323 28.5786L114.715 28.5513L114.742 26.9793L112.87 26.9474L112.843 28.5194L111.847 28.5025L111.823 29.9425L112.819 29.9594L112.773 32.6114C112.747 34.1474 113.622 34.9425 115.146 34.9684C115.722 34.9782 116.288 34.8558 116.677 34.5863L116.195 33.2578Z" fill="#919191"/>
<path d="M111.656 44.7319C161.292 73.9579 129.343 93.3729 121.451 89.5719C97.9022 78.2329 146.793 43.2389 163.593 43.9889C180.1 44.7269 205.199 70.7819 222.221 76.1659C241.088 82.1339 252.043 77.9599 260.927 63.3989C269.811 48.8379 259.084 23.9689 243.141 23.1989C227.198 22.4289 212.456 47.7839 225.274 61.6089C238.092 75.4339 283.5 66.8609 293.399 55.4939C303.298 44.1269 300.394 33.9209 298.874 15.9609" stroke="#4DB6A2" stroke-width="2" stroke-linecap="round" stroke-linejoin="round" stroke-dasharray="4 5"/>
<path d="M304 19.258L298.686 14L294 20.08" stroke="#4DB6A2" stroke-width="2" stroke-linecap="round" stroke-linejoin="round"/>
<defs>
<linearGradient id="paint0_linear_380_6716" x1="157" y1="92" x2="157" y2="14.72" gradientUnits="userSpaceOnUse">
<stop stop-color="white"/>
<stop offset="1" stop-color="#F7F7F7"/>
</linearGradient>
</defs>
</svg>
