<svg height="44" viewBox="0 0 46 44" width="46" xmlns="http://www.w3.org/2000/svg">
  <g id="N" transform="translate(-308 -1155)">
    <path
      d="M564.235,956.129a21.725,21.725,0,0,0-42.947-2.334c-1.316,6.555-2.952,26.41-2.952,26.41s19.748.376,26.372-.259A21.8,21.8,0,0,0,564.235,956.129Z"
      data-name="Path 2989"
      fill="#5673aa"
      id="Path_2989" transform="translate(-210.336 218.685)"/>
    <path d="M703.859,377.981a18,18,0,1,1-24.584-6.588h0A18,18,0,0,1,703.859,377.981Z" data-name="Path 2991"
          fill="#fff"
          id="Path_2991" transform="translate(-356.273 790.021)"/>
    <path
      d="M588.088,1003.139l-2.037-9.947a2.061,2.061,0,0,0-1.608-1.606l-9.935-2.022c-1.284-.264-1.015-2.164.369-2.621l20.935-6.9a1.413,1.413,0,0,1,1.792,1.79l-6.893,20.937C590.255,1004.151,588.348,1004.417,588.088,1003.139Z"
      data-name="Path 5834"
      fill="#5673aa"
      id="Path_5834" transform="translate(-783.563 892.711) rotate(-45)"/>
  </g>
</svg>
