<svg height="44" viewBox="0 0 46 44" width="46" xmlns="http://www.w3.org/2000/svg">
  <g id="S" transform="translate(-440 -1155)">
    <path
      d="M564.235,956.129a21.725,21.725,0,0,0-42.947-2.334c-1.316,6.555-2.952,26.41-2.952,26.41s19.748.376,26.372-.259A21.8,21.8,0,0,0,564.235,956.129Z"
      data-name="Path 2989"
      fill="#5673aa"
      id="Path_2989" transform="translate(-78.336 218.685)"/>
    <path d="M703.859,377.981a18,18,0,1,1-24.584-6.588h0A18,18,0,0,1,703.859,377.981Z" data-name="Path 2991"
          fill="#fff"
          id="Path_2991" transform="translate(-224.273 790.021)"/>
    <path
      d="M14.41.827l-2.037,9.946a2.061,2.061,0,0,1-1.608,1.606L.83,14.4c-1.284.264-1.015,2.164.369,2.621l20.935,6.9a1.413,1.413,0,0,0,1.792-1.79L17.032,1.2C16.577-.185,14.67-.452,14.41.827Z"
      data-name="Path 5834"
      fill="#5673aa"
      id="Path_5834" transform="translate(464 1157.03) rotate(45)"/>
  </g>
</svg>
