<svg height="44" viewBox="0 0 46 44" width="46" xmlns="http://www.w3.org/2000/svg">
  <g id="SW" transform="translate(-242 -1219)">
    <path
      d="M564.235,956.129a21.725,21.725,0,0,0-42.947-2.334c-1.316,6.555-2.952,26.41-2.952,26.41s19.748.376,26.372-.259A21.8,21.8,0,0,0,564.235,956.129Z"
      data-name="Path 2989"
      fill="#5673aa"
      id="Path_2989" transform="translate(-276.336 282.685)"/>
    <path d="M703.859,377.981a18,18,0,1,1-24.584-6.588h0A18,18,0,0,1,703.859,377.981Z" data-name="Path 2991"
          fill="#fff"
          id="Path_2991" transform="translate(-422.273 854.021)"/>
    <path
      d="M583.267,980.792l2.037,9.947a2.061,2.061,0,0,0,1.608,1.606l9.935,2.022c1.284.264,1.015,2.164-.369,2.621l-20.935,6.9a1.413,1.413,0,0,1-1.792-1.79l6.893-20.937C581.1,979.78,583.007,979.513,583.267,980.792Z"
      data-name="Path 5834"
      fill="#5673aa"
      id="Path_5834" transform="translate(-317.678 247.035)"/>
  </g>
</svg>
