<svg width="83" height="12" viewBox="0 0 83 12" fill="none" xmlns="http://www.w3.org/2000/svg">
<path d="M68.462 11.3993V2.33892C68.4913 1.99606 68.4253 1.65144 68.2715 1.34231C68.2092 1.24808 68.1276 1.16842 68.0313 1.10781C67.935 1.04721 67.8265 1.0074 67.7133 0.991225C67.5022 0.95424 67.2876 0.937168 67.0732 0.940505C67.0732 0.829212 67.0732 0.719109 67.0732 0.609839C68.1078 0.607141 69.1431 0.607141 70.1781 0.609839C71.5608 0.612538 72.9427 0.612538 74.3236 0.609839C74.3923 1.62632 74.4457 2.64711 74.5041 3.66224H74.2578C74.1809 3.29666 74.1061 2.92841 74.0257 2.56485C73.9496 2.17374 73.7447 1.81815 73.442 1.55309C73.0994 1.34506 72.7022 1.23966 72.2995 1.25009C71.7423 1.25009 71.1841 1.25009 70.6276 1.25009C70.4305 1.23789 70.2349 1.29572 70.0775 1.41279C69.9828 1.54628 69.9293 1.70345 69.9225 1.86597C69.8827 2.2781 69.9018 2.69352 69.8977 3.10564V5.43611H71.5387C71.7735 5.43495 72.0079 5.409 72.2371 5.35904C72.3458 5.33507 72.4482 5.28918 72.5377 5.22401C72.6271 5.15883 72.7015 5.07613 72.7564 4.98095C72.8865 4.69724 72.9461 4.38667 72.9301 4.0759H73.2736V7.43393H72.9301C72.957 7.05358 72.8317 6.67811 72.5806 6.38727C72.3012 6.17109 71.9519 6.06018 71.5964 6.07438C71.0317 6.07438 70.4652 6.07438 69.8977 6.07438V11.4026C69.4195 11.3992 68.9422 11.3993 68.462 11.3993ZM77.2185 11.3104C76.7342 11.2658 76.2563 11.1752 75.7754 11.095C75.728 10.0933 75.6707 9.09098 75.6164 8.08934C75.7325 8.08934 75.8486 8.08934 75.9599 8.08934C76.0032 8.38005 76.0379 8.67209 76.086 8.96145C76.1403 9.22848 76.2499 9.48207 76.4081 9.70578C76.5662 9.92949 76.7694 10.119 77.0052 10.2624C77.5549 10.5813 78.1912 10.7266 78.828 10.68C79.311 10.6632 79.7789 10.5107 80.1758 10.24C80.4236 10.0656 80.6259 9.83552 80.7655 9.56943C80.9052 9.30333 80.9781 9.0085 80.9789 8.70917C80.9857 8.42079 80.9078 8.13664 80.7548 7.89041C80.6333 7.71382 80.4873 7.55475 80.3207 7.41813C79.8259 7.01876 79.2831 6.68149 78.7039 6.41296C78.2917 6.20183 77.8532 6.02666 77.452 5.78653C76.9206 5.50727 76.4651 5.10776 76.1229 4.62064C75.8406 4.11045 75.7298 3.5253 75.8063 2.94953C75.8482 2.4133 76.0831 1.90964 76.4691 1.52806C76.912 1.11784 77.4665 0.843235 78.0658 0.737627C78.7159 0.613362 79.3796 0.57252 80.0403 0.617085C80.6618 0.654548 81.2796 0.740174 81.8873 0.873318C81.9305 1.86079 81.9983 2.84866 82.0422 3.83613H81.7034C81.6601 3.56026 81.6245 3.28341 81.5847 3.00552C81.5388 2.72069 81.4314 2.44901 81.2694 2.2085C81.1073 1.96798 80.8951 1.76462 80.6461 1.61172C80.114 1.30773 79.4977 1.17523 78.885 1.23362C78.375 1.2604 77.8939 1.47488 77.5372 1.8337C77.3358 2.03553 77.194 2.28685 77.1266 2.56156C77.0592 2.83627 77.069 3.12376 77.1548 3.39349C77.2842 3.70932 77.5014 3.9831 77.7814 4.18393C78.185 4.48142 78.6201 4.73502 79.0796 4.94011C79.6413 5.18655 80.1867 5.46753 80.7125 5.78126C81.1533 6.02839 81.5508 6.34322 81.8899 6.71398C82.2123 7.08174 82.4142 7.53671 82.4696 8.01886C82.5475 8.56321 82.4735 9.11803 82.2549 9.6241C82.046 10.0514 81.7243 10.4156 81.3237 10.68C80.7831 11.0227 80.1719 11.2428 79.5338 11.3242C79.2025 11.3737 78.8678 11.3979 78.5328 11.396C78.0934 11.3934 77.6544 11.3648 77.2185 11.3104ZM59.9618 11.3973C59.9618 8.39846 59.9618 5.39864 59.9618 2.39754C59.9907 2.05471 59.936 1.70988 59.8027 1.39171C59.7508 1.2971 59.6794 1.21441 59.5928 1.14865C59.5061 1.0829 59.4066 1.03525 59.3002 1.00967C59.0613 0.955835 58.816 0.932379 58.571 0.939188V0.607863H65.8314C65.8891 1.62637 65.9483 2.64401 66.0092 3.66026H65.7308C65.6566 3.28187 65.593 2.90173 65.5188 2.52401C65.4603 2.18131 65.2958 1.86486 65.0471 1.61765C64.7997 1.42161 64.4978 1.30264 64.181 1.27578C63.9622 1.24761 63.7414 1.23751 63.5208 1.24548H63.335C62.94 1.24548 62.5446 1.24548 62.1489 1.24548C61.9352 1.25965 61.6649 1.26175 61.5343 1.4668C61.4285 1.73307 61.3815 2.01791 61.3968 2.30335C61.3927 3.34613 61.3968 4.38939 61.3968 5.4315H62.8184C63.1409 5.44549 63.4636 5.42012 63.7798 5.35641C63.8902 5.33338 63.9945 5.28789 64.0857 5.22269C64.177 5.15749 64.2535 5.07436 64.3098 4.97831C64.439 4.69352 64.4993 4.38279 64.4863 4.07129H64.8298C64.8298 5.19097 64.8298 6.31096 64.8298 7.43064C64.7185 7.43064 64.6043 7.43064 64.491 7.43064C64.5122 7.05849 64.3933 6.69149 64.1562 6.40044C63.8776 6.17463 63.5235 6.05786 63.1626 6.07307C62.5766 6.06902 61.9908 6.07307 61.4048 6.07307C61.4048 7.27773 61.4048 8.48225 61.4048 9.68602C61.3988 9.94462 61.4273 10.2027 61.4894 10.4541C61.5075 10.5185 61.5425 10.5774 61.5907 10.6247C61.6388 10.6719 61.6988 10.7063 61.7644 10.7241C61.9436 10.7586 62.1262 10.7714 62.3085 10.763C62.8657 10.763 63.4239 10.763 63.9831 10.763C64.4198 10.7777 64.8497 10.6534 65.2081 10.4079C65.5215 10.0957 65.7234 9.6922 65.7838 9.25786H66.1964C66.1574 9.97329 66.1196 10.6876 66.083 11.4013L59.9618 11.3973Z" fill="#6C6C6C"/>
<path d="M33.4007 11.3936C32.6155 10.2409 31.801 9.10922 31.0117 7.95919C30.2134 9.10135 29.4174 10.2467 28.6246 11.3956C27.5076 11.3997 26.39 11.3956 25.2702 11.3956C26.5068 9.59468 27.7637 7.80522 29.0037 5.99957C27.7538 4.20718 26.5095 2.41205 25.2702 0.614722C26.3858 0.614722 27.5029 0.614722 28.6186 0.614722C29.4178 1.76498 30.217 2.91517 31.0157 4.06497C31.8122 2.91292 32.6098 1.76273 33.4095 0.614722H34.8465C35.484 0.614722 36.1224 0.614722 36.7606 0.614722C35.5162 2.41115 34.2712 4.20691 33.025 6.00154C34.2667 7.80022 35.5116 9.59681 36.7606 11.391C36.2398 11.3941 35.7195 11.3958 35.1987 11.3963C34.5997 11.3985 34.0003 11.3977 33.4007 11.3936ZM29.7041 5.99759C28.5884 7.60876 27.4708 9.22015 26.351 10.8318C26.6677 10.8277 26.9822 10.8277 27.2989 10.8318C27.6157 10.8358 27.9322 10.8318 28.2489 10.8318C28.2734 10.8347 28.298 10.8294 28.3194 10.8173C28.3407 10.8051 28.3575 10.7863 28.367 10.7639C29.4662 9.17523 30.5676 7.58735 31.6705 5.99957C30.5516 4.39424 29.4355 2.78536 28.3221 1.1733C27.666 1.1733 27.0097 1.1733 26.3537 1.1733C27.4689 2.78222 28.5857 4.39235 29.7041 6.00352V5.99759ZM4.32752 11.3745C3.8561 11.3617 3.39222 11.2554 2.96359 11.0623C2.53496 10.8692 2.15049 10.5933 1.83313 10.2508C1.34007 9.65144 1.04041 8.92169 0.972373 8.15416C0.923686 7.62724 0.906986 7.09754 0.922727 6.56868C0.922727 4.58159 0.922727 2.59386 0.922727 0.608794C1.23737 0.608794 1.55203 0.608794 1.86668 0.608794C2.41627 0.608794 2.96946 0.608889 3.52043 0.604842C3.5115 2.83948 3.52054 5.07771 3.51573 7.31235C3.48401 7.79169 3.61892 8.26738 3.89881 8.66136C4.03648 8.79576 4.20298 8.89848 4.38588 8.96238C4.56879 9.02629 4.76362 9.04969 4.95682 9.03089C5.13502 9.03376 5.31233 8.99916 5.47609 8.93011C5.63985 8.86105 5.7869 8.75861 5.90747 8.62974C6.1097 8.37831 6.22948 8.07269 6.25097 7.75302C6.27983 7.4016 6.26498 7.05052 6.26841 6.6991C6.26841 4.66884 6.27332 2.63778 6.26439 0.605501C6.75697 0.609548 7.25377 0.605501 7.74841 0.605501C8.1187 0.605501 8.48974 0.605501 8.86209 0.605501C8.86209 2.87094 8.86209 5.13607 8.86209 7.40061C8.82934 7.85545 8.96653 8.30631 9.24853 8.6686C9.37915 8.79207 9.5343 8.88801 9.70407 8.95053C9.87383 9.01305 10.055 9.04087 10.2361 9.0322C10.4588 9.04989 10.682 9.0066 10.8815 8.90771C11.081 8.80882 11.2488 8.65813 11.3665 8.47165C11.5443 8.12512 11.6286 7.73945 11.6107 7.35187C11.6107 5.10352 11.6107 2.85517 11.6107 0.606818C11.9254 0.606818 12.2398 0.606818 12.554 0.606818C13.1036 0.606818 13.6574 0.606913 14.2098 0.602866C14.1995 2.76668 14.2092 4.92856 14.2051 7.09103C14.2491 7.89712 14.1135 8.7029 13.8066 9.45179C13.4842 10.1688 12.8997 10.7414 12.1689 11.057C11.4881 11.3377 10.7463 11.4447 10.012 11.3679C9.17816 11.3046 8.40087 10.9293 7.84099 10.3193C7.74344 10.2094 7.6614 10.0887 7.5666 9.97743C7.35253 10.2935 7.08254 10.5694 6.76957 10.7922C6.15823 11.1878 5.44073 11.3961 4.70858 11.3897C4.57943 11.3951 4.45255 11.3886 4.32752 11.3772V11.3745ZM17.3804 10.2488C16.5906 9.64596 15.9844 8.84185 15.6274 7.92428C15.117 6.61281 15.1474 5.1579 15.7119 3.86802C16.2183 2.71034 17.123 1.76442 18.268 1.19569C19.5601 0.555451 21.0562 0.436453 22.4363 0.864368C23.2365 1.12281 23.9662 1.55741 24.5697 2.13433C25.1733 2.71126 25.635 3.41566 25.9196 4.19408C26.2305 5.04202 26.3195 5.95284 26.1786 6.84336C23.4113 6.8519 20.6441 6.8628 17.8769 6.87629C18.059 7.44714 18.4128 7.95064 18.892 8.32015C19.3711 8.68967 19.9531 8.90809 20.5612 8.94657C20.965 8.9774 21.3705 8.92636 21.7533 8.79639C22.1362 8.66642 22.4876 8.46022 22.7858 8.19105C23.7834 8.187 24.7818 8.18237 25.7807 8.17787C25.4628 8.86274 25.0095 9.47928 24.4476 9.99127C23.7382 10.6196 22.8757 11.057 21.9432 11.2612C21.5574 11.3464 21.1632 11.3895 20.7678 11.389C19.5416 11.3919 18.3492 10.9917 17.3811 10.2528L17.3804 10.2488ZM20.5122 3.05914C19.809 3.11519 19.1484 3.4123 18.6457 3.89832C18.3808 4.16176 18.1623 4.46671 17.9997 4.80074C19.834 4.79264 21.6674 4.78234 23.501 4.78032C23.2745 4.31162 22.9321 3.90588 22.5054 3.59993C21.9994 3.23849 21.3895 3.04599 20.7638 3.04992C20.6793 3.05195 20.596 3.05503 20.5122 3.06178V3.05914ZM47.2882 11.009C47.2181 10.8811 47.1862 10.7369 47.1957 10.592C47.2051 10.4471 47.2557 10.3075 47.3419 10.1895C47.3934 10.1204 47.4652 10.0687 47.5479 10.0413C47.6299 10.0161 47.7178 10.0164 47.7995 10.0426C47.8811 10.0689 47.9525 10.1196 48.0034 10.1876C48.0837 10.2961 48.1342 10.4231 48.149 10.5564C48.1638 10.6898 48.1425 10.8247 48.088 10.9477C48.0585 11.0318 48.0048 11.106 47.9336 11.1611C47.8625 11.2162 47.777 11.25 47.6868 11.2586H47.6633C47.584 11.2536 47.5079 11.2282 47.4419 11.1848C47.3759 11.1415 47.3225 11.0816 47.2876 11.0116L47.2882 11.009ZM48.9628 11.0979C48.881 11.0369 48.8165 10.9565 48.7756 10.864C48.7347 10.7716 48.7182 10.6706 48.7287 10.5703C48.7391 10.47 48.7756 10.3734 48.8347 10.291C48.8937 10.2085 48.9735 10.1428 49.0661 10.0993C49.1386 10.0832 49.2145 10.0897 49.2828 10.1184C49.3512 10.1471 49.409 10.1961 49.4472 10.2587C49.5189 10.3774 49.5508 10.5158 49.5384 10.6533C49.5261 10.7907 49.4698 10.9208 49.3781 11.0254C49.3445 11.0614 49.304 11.0898 49.2587 11.1097C49.2133 11.1297 49.1641 11.1406 49.1144 11.1413C49.0607 11.1425 49.008 11.1281 48.9621 11.1005L48.9628 11.0979ZM46.0297 11.0781C45.9364 11.0007 45.8676 10.8988 45.8311 10.7843C45.7946 10.6699 45.7921 10.5477 45.8237 10.4319C45.8375 10.3559 45.8723 10.2849 45.9236 10.2264C45.975 10.1679 46.041 10.124 46.1155 10.0993C46.1999 10.083 46.2879 10.095 46.3644 10.1335C46.441 10.1721 46.5018 10.2346 46.5375 10.3114C46.6001 10.4248 46.6269 10.5544 46.6147 10.6829C46.6024 10.8114 46.552 10.9332 46.4691 11.0333C46.4375 11.0671 46.3985 11.094 46.3557 11.1124C46.3129 11.1307 46.2669 11.1402 46.2202 11.14C46.1517 11.1414 46.0845 11.1204 46.0297 11.0801V11.0781ZM44.8314 10.9141C44.7591 10.8467 44.7068 10.7618 44.6791 10.6677C44.6515 10.5737 44.6499 10.4741 44.6744 10.3792C44.687 10.3211 44.7139 10.2666 44.7529 10.2212C44.792 10.1757 44.8422 10.1403 44.8985 10.1184C44.9854 10.0995 45.0762 10.1141 45.1528 10.1586C45.2293 10.203 45.2855 10.2743 45.3105 10.3582C45.3521 10.4518 45.3644 10.5555 45.3453 10.6559C45.3262 10.7563 45.2764 10.8488 45.2031 10.9213C45.1549 10.9622 45.0931 10.9842 45.0294 10.9833C44.9574 10.9844 44.8872 10.9608 44.8314 10.9161V10.9141ZM50.11 10.8917C50.0629 10.8345 50.0288 10.768 50.0101 10.6967C49.9913 10.6255 49.9883 10.5511 50.0013 10.4787C50.0144 10.4063 50.0427 10.3378 50.0852 10.2771C50.1277 10.2165 50.1833 10.1655 50.2476 10.1276C50.3131 10.1019 50.3854 10.1 50.4522 10.1223C50.519 10.1447 50.5754 10.1898 50.6112 10.2495C50.6758 10.3584 50.6996 10.4863 50.6776 10.6104C50.6556 10.7346 50.5893 10.8468 50.4911 10.9279C50.4415 10.9643 50.3812 10.9837 50.3194 10.9833C50.2799 10.9836 50.2408 10.9757 50.2046 10.9602C50.1684 10.9448 50.136 10.9223 50.1094 10.8937L50.11 10.8917ZM51.2002 10.7145C51.1655 10.6672 51.1408 10.6133 51.1278 10.5564C51.1148 10.4995 51.1136 10.4405 51.1244 10.3832C51.1353 10.3259 51.1579 10.2716 51.1908 10.2231C51.2238 10.1746 51.2666 10.1331 51.3163 10.1013C51.3652 10.0743 51.4222 10.0649 51.4773 10.0749C51.5324 10.0849 51.5817 10.1137 51.6175 10.1559C51.6535 10.2043 51.6789 10.2595 51.692 10.318C51.7051 10.3765 51.7061 10.4371 51.694 10.4958C51.6819 10.5545 51.6574 10.6096 51.6222 10.6585C51.587 10.7074 51.5417 10.7489 51.4894 10.7797C51.4572 10.7964 51.4211 10.8051 51.3847 10.8048C51.3489 10.8054 51.3136 10.7977 51.2814 10.7824C51.2492 10.767 51.2212 10.7445 51.1996 10.7165L51.2002 10.7145ZM43.9485 10.8041C43.8749 10.7841 43.808 10.7445 43.756 10.6895C43.704 10.6345 43.6688 10.5661 43.654 10.4925C43.6392 10.4189 43.6454 10.3428 43.6721 10.2725C43.6989 10.2022 43.7453 10.1407 43.8056 10.0947C44.0021 10.0009 44.1962 10.1944 44.2209 10.3792C44.2635 10.5526 44.1688 10.8041 43.9599 10.8041H43.9485ZM52.3736 10.5808C52.1318 10.4709 52.1997 10.0768 52.436 9.99522C52.4709 9.98608 52.5075 9.9854 52.5427 9.99324C52.5779 10.0011 52.6111 10.017 52.6386 10.04C52.6661 10.063 52.6876 10.0927 52.701 10.1256C52.7145 10.1586 52.7195 10.1938 52.7158 10.2291C52.7271 10.3126 52.7047 10.3973 52.6534 10.4649C52.6021 10.5324 52.5255 10.5775 52.4407 10.5907C52.4173 10.5913 52.3942 10.5887 52.3716 10.5828L52.3736 10.5808ZM42.7684 10.0011C42.9134 9.93842 43.0606 10.0686 43.1019 10.1968C43.1431 10.3249 43.1166 10.5517 42.9462 10.5867H42.9113C42.847 10.5764 42.7874 10.548 42.7396 10.5044C42.6918 10.4608 42.6583 10.404 42.643 10.3417C42.6277 10.2794 42.6308 10.2142 42.653 10.154C42.6753 10.0938 42.7153 10.0412 42.7678 10.0031L42.7684 10.0011ZM41.8205 10.3384C41.6068 10.2993 41.5201 9.93385 41.742 9.85426C41.9302 9.81244 42.0711 10.0355 42.0258 10.2001C42.0196 10.2391 42 10.2752 41.9701 10.3015C41.9401 10.3278 41.9022 10.3426 41.8621 10.3443C41.8481 10.3458 41.8336 10.3454 41.8198 10.343L41.8205 10.3384ZM53.3679 10.2903C53.3433 10.2544 53.3269 10.2132 53.3203 10.1704C53.3136 10.1277 53.317 10.0841 53.3297 10.0426C53.3423 10.0012 53.3638 9.96277 53.3934 9.93067C53.4229 9.89856 53.4594 9.87348 53.5001 9.85689C53.541 9.8431 53.586 9.84489 53.6255 9.86216C53.665 9.87943 53.6965 9.91069 53.7134 9.94977C53.7408 10.0192 53.7406 10.0963 53.7134 10.1658C53.6862 10.2354 53.6342 10.2929 53.5665 10.3265C53.5418 10.3364 53.5153 10.3411 53.4887 10.341C53.466 10.3425 53.4434 10.3393 53.4222 10.3312C53.4011 10.323 53.3821 10.3105 53.3666 10.2943L53.3679 10.2903ZM27.4278 10.2679C28.4191 8.85146 29.4005 7.42271 30.3904 6.0022C29.4115 4.57427 28.4121 3.16184 27.4325 1.73121C27.6248 1.73121 27.8191 1.73121 28.0121 1.73121C28.9959 3.15914 29.9972 4.5762 30.9741 6.00615C29.9828 7.42261 29.0062 8.85339 28.0108 10.2719C27.8143 10.2719 27.6215 10.2719 27.4271 10.2719L27.4278 10.2679ZM40.7591 10.0295C40.6348 9.98833 40.5713 9.79162 40.6853 9.71C40.8172 9.64727 40.9522 9.79994 40.9268 9.9254C40.9252 9.95606 40.9119 9.98456 40.8893 10.0058C40.8666 10.027 40.8367 10.0392 40.8054 10.0394C40.7906 10.0407 40.7753 10.0386 40.7611 10.0341L40.7591 10.0295ZM54.499 10.0295C54.3204 9.94178 54.4632 9.6531 54.646 9.69222C54.6761 9.71681 54.6985 9.74952 54.7097 9.78641C54.7209 9.82331 54.7206 9.86291 54.709 9.89971C54.6975 9.9365 54.675 9.96892 54.6446 9.99324C54.6142 10.0176 54.577 10.0324 54.5379 10.0361C54.5243 10.0378 54.5107 10.0378 54.497 10.0361L54.499 10.0295ZM39.6776 9.46036C39.7097 9.4548 39.7432 9.45851 39.7729 9.47155C39.8026 9.48459 39.8275 9.50632 39.8447 9.53347C39.8618 9.56062 39.8701 9.59245 39.8688 9.62437C39.8675 9.6563 39.8566 9.68692 39.8373 9.71264C39.8187 9.72531 39.7968 9.73233 39.7742 9.7324C39.6506 9.73914 39.543 9.53237 39.6756 9.46694L39.6776 9.46036ZM55.5067 9.71C55.493 9.69043 55.4838 9.66821 55.4799 9.64479C55.4759 9.62137 55.4773 9.59716 55.4839 9.57431C55.4905 9.55146 55.5023 9.53035 55.5181 9.51239C55.5339 9.49443 55.5537 9.47991 55.5758 9.47024C55.5964 9.45899 55.6201 9.45448 55.6436 9.4564C55.6671 9.45833 55.6889 9.467 55.7073 9.48143C55.7218 9.50565 55.73 9.53304 55.7308 9.56114C55.7316 9.58923 55.7252 9.61721 55.712 9.64216C55.6988 9.6671 55.6795 9.68786 55.6556 9.70341C55.6318 9.71897 55.6043 9.7288 55.5758 9.73108C55.5509 9.7329 55.5257 9.7265 55.5047 9.71329L55.5067 9.71ZM38.6391 9.18831C38.7421 9.11749 38.8913 9.28428 38.8081 9.37736C38.7928 9.38643 38.7751 9.39164 38.7572 9.39185C38.661 9.39792 38.5704 9.27584 38.6371 9.1949L38.6391 9.18831ZM56.5426 9.37736C56.5327 9.36143 56.5257 9.34381 56.5231 9.32532C56.5206 9.30683 56.5219 9.28793 56.5271 9.26999C56.5324 9.25205 56.5418 9.23561 56.554 9.22125C56.5661 9.20688 56.5806 9.19471 56.5976 9.18634C56.6429 9.16206 56.7221 9.1645 56.7351 9.2252C56.7379 9.24507 56.7366 9.26518 56.7311 9.28448C56.7256 9.30379 56.7165 9.32162 56.7036 9.33718C56.6907 9.35274 56.6741 9.36549 56.6559 9.37473C56.6378 9.38396 56.618 9.38981 56.5976 9.39119C56.5781 9.39424 56.5581 9.39141 56.5399 9.38395L56.5426 9.37736ZM47.3634 9.16987C47.2772 9.06173 47.2216 8.93251 47.203 8.79639C47.1844 8.66027 47.2032 8.52188 47.2574 8.39524C47.2836 8.32395 47.3264 8.25994 47.3822 8.20752C47.438 8.1551 47.5051 8.11553 47.5787 8.0929C47.6396 8.07807 47.7035 8.07788 47.7646 8.09159C47.8257 8.10529 47.8827 8.13265 47.931 8.17195C48.0191 8.25459 48.0849 8.35775 48.1222 8.47165C48.1595 8.58556 48.1668 8.70647 48.1443 8.82406C48.1352 8.92071 48.1022 9.01382 48.0477 9.09478C47.9932 9.17574 47.9187 9.24237 47.8317 9.28844C47.7849 9.31017 47.7338 9.32114 47.6821 9.32071C47.6207 9.32125 47.5599 9.30861 47.5043 9.28317C47.4487 9.25773 47.3998 9.22028 47.3607 9.17382L47.3634 9.16987ZM45.9203 9.03945C45.8712 8.97293 45.837 8.89704 45.819 8.81681C45.801 8.73658 45.8002 8.65371 45.8163 8.57309C45.8324 8.49247 45.8647 8.41608 45.9122 8.34848C45.9598 8.28087 46.021 8.22321 46.092 8.17985C46.1737 8.15347 46.2626 8.15666 46.3423 8.18841C46.4219 8.22016 46.4876 8.27895 46.5275 8.35375C46.6065 8.47856 46.6381 8.62646 46.6174 8.77202C46.5966 8.91758 46.5249 9.05134 46.4141 9.15011C46.362 9.18975 46.2974 9.21082 46.2316 9.21005C46.1689 9.21079 46.1073 9.19651 46.0518 9.1679C45.9963 9.13928 45.9486 9.09713 45.9136 9.04604L45.9203 9.03945ZM48.9796 9.17448C48.8896 9.11428 48.8192 9.03029 48.7763 8.93208C48.7333 8.83388 48.7199 8.72535 48.7374 8.61986C48.7413 8.52207 48.7745 8.42731 48.8326 8.34782C48.8908 8.26832 48.971 8.20753 49.0641 8.1726C49.1397 8.15673 49.2185 8.16552 49.2889 8.19698C49.3592 8.22843 49.4178 8.28074 49.4552 8.34716C49.5226 8.45973 49.5537 8.58974 49.5445 8.71998C49.5353 8.85022 49.4861 8.97463 49.4036 9.07699C49.3703 9.11836 49.3283 9.15246 49.2801 9.1758C49.232 9.19913 49.1788 9.21124 49.1252 9.21203C49.0728 9.21447 49.021 9.20294 48.9749 9.17843L48.9796 9.17448ZM44.9005 9.06053C44.8268 9.01661 44.766 8.95471 44.7241 8.8807C44.6822 8.8067 44.6601 8.72297 44.661 8.6383C44.6619 8.55363 44.6853 8.471 44.7288 8.39788C44.7723 8.32475 44.8346 8.26374 44.9093 8.22135C44.9851 8.2012 45.0662 8.20908 45.1367 8.24309C45.2072 8.27709 45.2629 8.33453 45.293 8.40578C45.3462 8.50264 45.3663 8.61358 45.3514 8.72262C45.3364 8.83165 45.2871 8.93347 45.2098 9.0131C45.1589 9.06065 45.0909 9.08706 45.0206 9.08622C44.9776 9.08881 44.9348 9.08126 44.8952 9.06448L44.9005 9.06053ZM50.0872 8.94657C50.0463 8.88729 50.0188 8.81958 50.0067 8.74896C49.9946 8.67834 49.9979 8.60603 50.0168 8.53686C50.0357 8.4677 50.0696 8.40367 50.1161 8.34848C50.1625 8.29329 50.2208 8.24862 50.2865 8.2174C50.3553 8.20171 50.4277 8.20971 50.4911 8.24045C50.5545 8.2712 50.6049 8.32279 50.634 8.38602C50.6922 8.49438 50.7095 8.61939 50.683 8.73908C50.6565 8.85878 50.5879 8.96528 50.4891 9.04011C50.4438 9.06939 50.391 9.08515 50.3368 9.0849C50.286 9.08667 50.2353 9.07489 50.1905 9.05131C50.1458 9.02772 50.1084 8.99304 50.0819 8.95053L50.0872 8.94657ZM43.8358 8.23321C44.0302 8.16036 44.2078 8.34691 44.2243 8.52632C44.2614 8.70304 44.1641 8.94911 43.9532 8.95316C43.8774 8.93414 43.8089 8.89383 43.756 8.83723C43.7031 8.78063 43.6682 8.71014 43.6554 8.63435C43.6425 8.55856 43.6521 8.48075 43.6835 8.41039C43.715 8.34004 43.7663 8.28053 43.8318 8.23847L43.8358 8.23321ZM51.3364 8.9446C51.2723 8.91084 51.2183 8.86047 51.1801 8.79968C51.142 8.73889 51.1209 8.6695 51.1191 8.59812C51.1172 8.52675 51.1345 8.45657 51.1694 8.39393C51.2043 8.33128 51.2554 8.27874 51.3176 8.24177C51.3575 8.2255 51.4007 8.21817 51.4438 8.22135C51.4868 8.22453 51.5283 8.23761 51.5652 8.25955C51.6021 8.28149 51.6336 8.31186 51.6564 8.34782C51.6793 8.38378 51.6929 8.42483 51.6967 8.46704C51.7537 8.66602 51.6194 8.95118 51.3955 8.95118C51.3746 8.9528 51.3537 8.95196 51.3331 8.94855L51.3364 8.9446ZM52.2488 8.64226C52.218 8.56362 52.2169 8.47642 52.2462 8.39722C52.2754 8.31802 52.3328 8.25237 52.4078 8.21147C52.559 8.1366 52.7205 8.29033 52.7185 8.43872C52.7306 8.51531 52.7139 8.59331 52.6715 8.65872C52.6292 8.72414 52.5641 8.77207 52.4884 8.79376C52.4764 8.79642 52.4644 8.79768 52.4521 8.79771C52.4062 8.79561 52.3615 8.78063 52.3247 8.75358C52.2878 8.72652 52.2599 8.6889 52.2448 8.64621L52.2488 8.64226ZM42.8852 8.79639C42.8228 8.78179 42.7663 8.74984 42.7221 8.70417C42.678 8.6585 42.6479 8.60144 42.6363 8.5395C42.6246 8.47755 42.6317 8.41321 42.6564 8.35506C42.6811 8.29692 42.7228 8.24763 42.7758 8.21213C42.9586 8.13051 43.1281 8.32812 43.124 8.49405C43.1308 8.52879 43.13 8.56429 43.122 8.59878C43.114 8.63328 43.0991 8.6658 43.0777 8.69429C43.0564 8.72278 43.029 8.74638 42.9979 8.76411C42.9667 8.78185 42.9324 8.79303 42.8966 8.79705L42.8852 8.79639ZM41.6554 8.50986C41.6361 8.4811 41.6233 8.44895 41.6172 8.415C41.6111 8.38106 41.6124 8.34643 41.6205 8.31291C41.6287 8.27939 41.6437 8.24758 41.6648 8.22003C41.6859 8.19248 41.7121 8.16921 41.7426 8.15219C41.9886 8.07529 42.1381 8.45114 41.9546 8.59549C41.9251 8.61841 41.8883 8.63062 41.8507 8.6304C41.8103 8.62989 41.7711 8.6193 41.7366 8.59878C41.7021 8.57827 41.6733 8.54867 41.6541 8.51381L41.6554 8.50986ZM53.4638 8.62579C53.2522 8.56238 53.2816 8.22971 53.4719 8.15416C53.4975 8.14402 53.5255 8.13948 53.5531 8.14099C53.5807 8.1425 53.6072 8.14985 53.6316 8.16272C53.6559 8.1756 53.6775 8.19362 53.694 8.21542C53.7104 8.23722 53.7214 8.26193 53.7268 8.28854C53.7378 8.325 53.7404 8.36354 53.7349 8.40117C53.7294 8.4388 53.7162 8.47458 53.6953 8.50656C53.6744 8.53855 53.6467 8.5657 53.6141 8.58627C53.5816 8.60683 53.5444 8.62037 53.5061 8.62579C53.4908 8.62903 53.4755 8.63029 53.4598 8.62974L53.4638 8.62579ZM54.4762 8.39788C54.4541 8.37601 54.4377 8.34901 54.4286 8.31949C54.4195 8.28998 54.4184 8.25884 54.4246 8.22859C54.4307 8.19835 54.4443 8.17014 54.4641 8.14626C54.484 8.12238 54.509 8.10351 54.5379 8.09159C54.5549 8.08426 54.5737 8.08074 54.5923 8.08105C54.6108 8.08135 54.6292 8.08568 54.646 8.09356C54.6627 8.10144 54.6771 8.11248 54.6889 8.1265C54.7007 8.14051 54.7096 8.157 54.7144 8.17458C54.7231 8.20135 54.7254 8.22971 54.7218 8.25758C54.7181 8.28544 54.7082 8.31223 54.6929 8.33596C54.6776 8.35969 54.6573 8.38011 54.6332 8.39524C54.6091 8.41038 54.5817 8.41987 54.5534 8.42357C54.5247 8.42529 54.4961 8.41755 54.4722 8.40183L54.4762 8.39788ZM40.6833 8.3656C40.6641 8.34696 40.6496 8.32467 40.6404 8.29973C40.6311 8.27479 40.6277 8.24776 40.6303 8.22135C40.6329 8.19493 40.6413 8.16969 40.6551 8.14692C40.669 8.12414 40.6877 8.10434 40.7101 8.08961C40.8736 8.02823 41.0026 8.26667 40.8913 8.38471C40.8799 8.39659 40.8663 8.40598 40.851 8.41237C40.8358 8.41876 40.8193 8.42178 40.8027 8.42159C40.7796 8.4223 40.7562 8.41805 40.735 8.40908C40.7137 8.4001 40.6946 8.38652 40.6793 8.36955L40.6833 8.3656ZM39.6756 7.96973C39.8247 7.89688 39.9574 8.14648 39.8131 8.22135C39.798 8.228 39.7814 8.23121 39.7648 8.23123C39.6377 8.23528 39.552 8.04315 39.6716 7.97368L39.6756 7.96973ZM55.5174 8.20752C55.5013 8.18969 55.4893 8.16867 55.4832 8.1456C55.4772 8.12253 55.4773 8.09837 55.4826 8.07512C55.4879 8.05187 55.4986 8.03021 55.5141 8.01188C55.5296 7.99356 55.5495 7.97911 55.5718 7.96973C55.5897 7.9606 55.6093 7.95666 55.6295 7.95787C55.6497 7.95908 55.6691 7.96511 55.6858 7.97631C55.7025 7.98752 55.7163 8.00308 55.7248 8.0211C55.7332 8.03913 55.7363 8.05932 55.7341 8.07907C55.7335 8.11798 55.7179 8.15501 55.6905 8.18314C55.6631 8.21128 55.6261 8.2282 55.5865 8.23057C55.5603 8.23235 55.5346 8.22592 55.5127 8.21147L55.5174 8.20752ZM38.6418 7.82811C38.7386 7.75054 38.8834 7.88299 38.8195 7.98619C38.8117 7.99705 38.8019 8.00557 38.79 8.01188C38.7781 8.0182 38.7646 8.02196 38.7511 8.02242C38.657 8.02714 38.5629 7.90627 38.6371 7.8314L38.6418 7.82811ZM56.5667 8.01452C56.4884 7.97067 56.5206 7.84124 56.6009 7.81493C56.6152 7.80641 56.6312 7.80234 56.6479 7.80242C56.6646 7.8025 56.6813 7.80693 56.6955 7.81559C56.7098 7.82425 56.7209 7.83648 56.7284 7.85116C56.7359 7.86584 56.7392 7.88221 56.7378 7.89859C56.7348 7.93109 56.7202 7.96165 56.6962 7.98422C56.6722 8.00679 56.6408 8.02026 56.6076 8.02176C56.5924 8.02394 56.5766 8.02265 56.562 8.01781L56.5667 8.01452ZM47.3017 7.2669C47.2428 7.16271 47.2085 7.04723 47.201 6.92833C47.1935 6.80942 47.2127 6.68973 47.2581 6.57922C47.2829 6.51168 47.3224 6.45015 47.3735 6.39874C47.4245 6.34732 47.4865 6.30759 47.5546 6.28149C47.6439 6.2546 47.7391 6.25782 47.8263 6.29071C47.9135 6.3236 47.987 6.38396 48.035 6.46263C48.1101 6.5803 48.1527 6.71578 48.1577 6.85455C48.1628 6.99333 48.1301 7.13042 48.0638 7.25306C48.0295 7.32277 47.977 7.38249 47.9115 7.42564C47.8461 7.46879 47.7701 7.49399 47.6915 7.49876H47.6707C47.5935 7.4958 47.5182 7.47298 47.4526 7.43289C47.3871 7.39279 47.3337 7.33689 47.297 7.27019L47.3017 7.2669ZM46.1424 7.39073C46.0492 7.35786 45.9685 7.29865 45.9102 7.22013C45.8519 7.14161 45.819 7.04783 45.8156 6.95072C45.793 6.83357 45.8105 6.71228 45.866 6.60623C45.9215 6.50017 46.0114 6.41532 46.1216 6.36514C46.1878 6.34679 46.2584 6.34848 46.3235 6.37041C46.3886 6.39235 46.4451 6.43325 46.4859 6.48766C46.5636 6.58729 46.6102 6.70706 46.62 6.83216C46.6299 6.95726 46.6027 7.08227 46.5415 7.19246C46.5112 7.25249 46.4651 7.30393 46.408 7.34067C46.3509 7.37742 46.285 7.39852 46.2168 7.40193C46.19 7.40304 46.1631 7.40006 46.137 7.39403L46.1424 7.39073ZM48.9044 7.30576C48.8215 7.21812 48.7655 7.10976 48.7428 6.99222C48.72 6.87469 48.7312 6.75318 48.7756 6.64179C48.7964 6.57983 48.8312 6.52315 48.8769 6.4758C48.9227 6.42846 48.978 6.39145 49.04 6.36778C49.1136 6.34803 49.1921 6.3519 49.2634 6.37897C49.3346 6.40604 49.3949 6.45465 49.4358 6.51796C49.518 6.63798 49.5563 6.78222 49.5438 6.92635C49.5313 7.07048 49.4691 7.20639 49.3674 7.31103C49.3045 7.36838 49.2217 7.3997 49.1359 7.39864C49.0923 7.40013 49.0485 7.39285 49.0078 7.37756C48.967 7.36226 48.9298 7.33871 48.8984 7.30905L48.9044 7.30576ZM50.0087 6.9527C49.9895 6.85783 49.9999 6.75923 50.0382 6.67012C50.0766 6.581 50.1414 6.50533 50.2241 6.45275C50.2626 6.43604 50.304 6.42746 50.3462 6.42706C50.3883 6.42666 50.4301 6.43415 50.469 6.45011C50.5078 6.46608 50.543 6.49019 50.5723 6.51994C50.6016 6.54968 50.6244 6.58467 50.6394 6.62335C50.6709 6.68086 50.6903 6.74408 50.6964 6.8091C50.7025 6.87412 50.6952 6.93991 50.6749 7.0021C50.6547 7.06429 50.6217 7.12125 50.5783 7.17073C50.5349 7.2202 50.4823 7.26106 50.4227 7.28995C50.3973 7.29769 50.3707 7.3015 50.3442 7.30181C50.2547 7.29317 50.1711 7.25335 50.1087 7.18983C50.0463 7.12631 50.009 7.04344 50.0034 6.95533L50.0087 6.9527ZM44.9857 7.29786C44.911 7.28526 44.8418 7.25075 44.7878 7.19839C44.7339 7.14604 44.6975 7.07864 44.6838 7.00539C44.6504 6.9051 44.6514 6.79686 44.6865 6.69712C44.7216 6.59739 44.789 6.51139 44.8784 6.45275C44.9406 6.42368 45.0108 6.41662 45.0777 6.43299C45.1445 6.44935 45.2037 6.488 45.2447 6.54233C45.2994 6.61647 45.3348 6.70257 45.3474 6.79329C45.3599 6.88402 45.349 6.97689 45.3165 7.0627C45.2971 7.12733 45.2584 7.18421 45.2051 7.22672C45.1519 7.26922 45.087 7.29505 45.0186 7.30049C45.0058 7.30174 44.9932 7.30174 44.9804 7.30049L44.9857 7.29786ZM43.6674 6.96719C43.6337 6.87609 43.6359 6.77598 43.6741 6.68659C43.7123 6.59719 43.7835 6.52519 43.8734 6.48502C43.9129 6.47864 43.9532 6.4803 43.9921 6.48964C44.0311 6.49897 44.0674 6.51614 44.0995 6.5397C44.1316 6.56325 44.1585 6.59263 44.1787 6.62664C44.1988 6.66066 44.212 6.69827 44.2169 6.73731C44.2447 6.82335 44.2409 6.91657 44.2062 7.00012C44.1714 7.08368 44.1076 7.15211 44.0264 7.19444C44.0011 7.20384 43.9749 7.20897 43.9479 7.20893C43.8805 7.20423 43.8161 7.17877 43.7647 7.13582C43.7133 7.09286 43.6776 7.03433 43.6621 6.96983L43.6674 6.96719ZM51.2861 7.17666C51.2296 7.13486 51.1846 7.07942 51.156 7.01593C51.1273 6.95245 51.116 6.88287 51.1224 6.81371C51.1288 6.74456 51.153 6.67809 51.1929 6.62072C51.2327 6.56334 51.2866 6.5168 51.3498 6.48568C51.4182 6.46949 51.4902 6.47963 51.5511 6.51401C51.6121 6.54838 51.6577 6.60467 51.6779 6.67078C51.7109 6.75149 51.7185 6.83998 51.7001 6.92503C51.6816 7.01009 51.6376 7.08785 51.5739 7.14833C51.5277 7.18741 51.4686 7.20883 51.4075 7.20893C51.3631 7.21102 51.3193 7.20053 51.2807 7.17863L51.2861 7.17666ZM52.4011 7.10552C52.3504 7.07768 52.3079 7.0377 52.2777 6.98893C52.2475 6.94015 52.2305 6.8846 52.2287 6.82755C52.2269 6.77049 52.2399 6.71405 52.267 6.66353C52.294 6.61302 52.3341 6.5699 52.383 6.53904C52.5527 6.44528 52.739 6.62992 52.7205 6.79922C52.7253 6.83642 52.7226 6.87441 52.7124 6.91054C52.7023 6.94668 52.685 6.98052 52.6614 7.01001C52.6379 7.03949 52.6082 7.06418 52.5749 7.08246C52.5416 7.10075 52.5048 7.11246 52.4669 7.11671C52.4427 7.11785 52.4189 7.11443 52.3958 7.10749L52.4011 7.10552ZM42.8281 7.10552C42.7738 7.08177 42.7272 7.04427 42.6926 6.99683C42.658 6.94939 42.637 6.89357 42.6316 6.83545C42.6261 6.77733 42.6366 6.71902 42.6618 6.66617C42.687 6.61331 42.7262 6.56818 42.7751 6.53509C42.949 6.44335 43.1295 6.62599 43.1253 6.79461C43.1319 6.83112 43.1306 6.86853 43.122 6.90461C43.1133 6.9407 43.0975 6.97491 43.075 7.00474C43.0526 7.03457 43.0244 7.05976 42.9918 7.07851C42.9593 7.09726 42.9226 7.10943 42.8852 7.11408C42.864 7.11578 42.8429 7.11385 42.8221 7.10947L42.8281 7.10552ZM41.7976 7.01857C41.7494 7.00251 41.7073 6.97334 41.6755 6.93426C41.6438 6.89517 41.6244 6.84763 41.6192 6.79791C41.614 6.74818 41.6231 6.69826 41.646 6.65365C41.669 6.60904 41.7048 6.57164 41.7487 6.54628C41.9204 6.47546 42.0695 6.6704 42.0345 6.82689C42.0303 6.8772 42.0078 6.92491 41.9714 6.9606C41.9351 6.9963 41.8871 7.01772 41.8359 7.02186C41.8213 7.02386 41.8062 7.02408 41.7916 7.02252L41.7976 7.01857ZM53.3572 6.92899C53.3194 6.86666 53.308 6.79208 53.325 6.7215C53.3419 6.65092 53.3856 6.5895 53.4477 6.55024C53.4844 6.53121 53.5271 6.52538 53.5678 6.53311C53.6085 6.54084 53.645 6.56198 53.6718 6.59305C53.6987 6.6244 53.718 6.66131 53.7282 6.70108C53.7383 6.74084 53.7395 6.78216 53.7309 6.82228C53.7222 6.8624 53.7042 6.90059 53.6785 6.93294C53.6529 6.96529 53.6201 6.99132 53.5826 7.00935C53.5632 7.01729 53.5425 7.02113 53.5215 7.0212C53.488 7.02204 53.4545 7.01429 53.4249 6.99881C53.3953 6.98332 53.3705 6.96073 53.3525 6.93294L53.3572 6.92899ZM54.5285 6.90066C54.4979 6.88669 54.4716 6.86492 54.4527 6.83743C54.4339 6.80994 54.4236 6.77766 54.4219 6.74455C54.4202 6.71145 54.4274 6.67891 54.4433 6.6497C54.4593 6.62049 54.4834 6.59548 54.5124 6.57856C54.5297 6.56931 54.5485 6.56414 54.5681 6.56275C54.5877 6.56136 54.6074 6.56394 54.6258 6.57066C54.6442 6.57737 54.6609 6.588 54.6748 6.60161C54.6887 6.61523 54.6994 6.63164 54.7063 6.6497C54.7189 6.67536 54.7253 6.70357 54.7244 6.73204C54.7236 6.76051 54.7157 6.78814 54.7016 6.81306C54.6876 6.83797 54.6681 6.8592 54.6439 6.87497C54.6198 6.89075 54.5916 6.90084 54.5628 6.90396C54.5498 6.90582 54.5369 6.90604 54.5238 6.90461L54.5285 6.90066ZM40.7611 6.90066C40.7279 6.89052 40.6985 6.87132 40.6759 6.84533C40.6533 6.81934 40.6386 6.78759 40.6336 6.75377C40.6287 6.71996 40.6335 6.6855 40.6477 6.65431C40.6619 6.62312 40.6852 6.59618 40.7142 6.57724C40.7395 6.56738 40.767 6.56443 40.794 6.56802C40.821 6.57161 40.846 6.58219 40.8678 6.59832C40.8895 6.61445 40.9072 6.63571 40.9181 6.66024C40.929 6.68476 40.9329 6.71134 40.9302 6.73796C40.9326 6.75803 40.9307 6.77855 40.9248 6.79791C40.9189 6.81726 40.9091 6.83508 40.896 6.8506C40.8828 6.86612 40.8667 6.87898 40.8483 6.88815C40.83 6.89731 40.8098 6.90263 40.7893 6.90396C40.7784 6.90548 40.7674 6.90569 40.7564 6.90461L40.7611 6.90066ZM39.7031 6.80515C39.6809 6.79471 39.6623 6.77881 39.6481 6.75904C39.634 6.73927 39.6251 6.7159 39.6226 6.69185C39.6201 6.66781 39.6235 6.64353 39.6333 6.62138C39.6432 6.59922 39.6587 6.57999 39.6783 6.56539C39.6984 6.55428 39.7216 6.54867 39.7447 6.54892C39.7678 6.54917 39.7906 6.55516 39.8105 6.5667C39.8304 6.57825 39.8467 6.59503 39.8581 6.61479C39.8695 6.63454 39.8751 6.65665 39.8749 6.67934C39.877 6.69636 39.8754 6.71369 39.8702 6.73006C39.865 6.74643 39.8563 6.76141 39.8447 6.77419C39.833 6.78698 39.8191 6.79694 39.8031 6.80383C39.7871 6.81073 39.7696 6.8146 39.7521 6.81437C39.7341 6.81699 39.7155 6.81527 39.6984 6.8091L39.7031 6.80515ZM55.4993 6.76036C55.4809 6.72917 55.4749 6.6922 55.4826 6.65694C55.4902 6.62169 55.5112 6.59052 55.5409 6.56934C55.5639 6.55508 55.5903 6.5484 55.6174 6.55024C55.6445 6.55207 55.6704 6.56265 55.6912 6.57988C55.712 6.5971 55.7264 6.6198 55.7328 6.64575C55.7392 6.67169 55.7373 6.69952 55.7268 6.72413C55.7181 6.75109 55.7005 6.77423 55.6771 6.79066C55.6537 6.80709 55.6254 6.81575 55.5966 6.81503C55.5764 6.81723 55.5564 6.81347 55.5382 6.80449C55.5201 6.79551 55.5049 6.78156 55.4946 6.76431L55.4993 6.76036ZM56.5607 6.70964C56.5475 6.69865 56.5373 6.68509 56.5305 6.66946C56.5237 6.65383 56.5207 6.63636 56.5218 6.6194C56.5228 6.60244 56.5278 6.58601 56.5365 6.57131C56.5452 6.55662 56.5576 6.5444 56.5721 6.53509C56.5877 6.52422 56.6054 6.51799 56.6244 6.51664C56.6435 6.51529 56.6631 6.51862 56.6801 6.52718C56.6971 6.53574 56.711 6.54875 56.721 6.56473C56.731 6.5807 56.7363 6.59932 56.7365 6.61808C56.7356 6.64826 56.723 6.67675 56.7009 6.69778C56.6788 6.71882 56.6491 6.73073 56.6184 6.73072C56.5961 6.73333 56.5738 6.72702 56.556 6.71359L56.5607 6.70964ZM38.6351 6.67736C38.6209 6.65682 38.6143 6.63223 38.6169 6.60754C38.6196 6.58286 38.6309 6.55953 38.6491 6.54233C38.7178 6.47488 38.8612 6.54659 38.8316 6.64575C38.8307 6.65758 38.8271 6.6688 38.8216 6.67934C38.816 6.68988 38.8087 6.6994 38.7994 6.70701C38.7901 6.71461 38.7794 6.72066 38.7679 6.72413C38.7563 6.7276 38.7437 6.72863 38.7317 6.72743C38.712 6.72889 38.6923 6.7249 38.6746 6.71623C38.657 6.70756 38.6423 6.69437 38.6317 6.67802L38.6351 6.67736ZM47.415 5.63267C47.3248 5.54407 47.2593 5.43441 47.2245 5.31386C47.1898 5.19331 47.1869 5.06556 47.2165 4.94368C47.2301 4.8495 47.2679 4.76059 47.3265 4.68481C47.385 4.60902 47.4619 4.54914 47.5506 4.51091C47.6368 4.48418 47.7299 4.48608 47.8149 4.51618C47.8999 4.54628 47.9726 4.60297 48.0215 4.67756C48.1228 4.82212 48.1696 4.99686 48.1537 5.17158C48.1378 5.34631 48.0601 5.51003 47.9343 5.63465C47.8643 5.69718 47.7727 5.73113 47.678 5.73016C47.5801 5.73315 47.4842 5.69987 47.4104 5.63662L47.415 5.63267ZM46.141 5.63267C46.047 5.60136 45.9651 5.54257 45.9062 5.46405C45.8474 5.38552 45.8148 5.29078 45.8123 5.19332C45.7898 5.07578 45.8076 4.95422 45.8639 4.84816C45.9202 4.74211 46.0112 4.6576 46.1222 4.6084C46.1993 4.58741 46.2814 4.59293 46.355 4.62355C46.4286 4.65417 46.4899 4.70809 46.5281 4.77702C46.5891 4.87933 46.6207 4.99574 46.6207 5.11428C46.6207 5.23282 46.5891 5.34922 46.5281 5.45153C46.4967 5.5064 46.4517 5.55255 46.3973 5.5859C46.3429 5.61926 46.2808 5.63888 46.2168 5.64255C46.19 5.64339 46.1631 5.64085 46.137 5.63465L46.141 5.63267ZM48.9937 5.6083C48.9026 5.55195 48.8296 5.47138 48.7837 5.37578C48.7378 5.28018 48.721 5.17365 48.7347 5.06883C48.7345 4.97134 48.7627 4.87603 48.8165 4.79415C48.8704 4.71227 48.9473 4.64696 49.0379 4.60708C49.1154 4.58666 49.1975 4.59235 49.2714 4.62289C49.3453 4.65343 49.4073 4.70706 49.4465 4.77571C49.5165 4.88719 49.5503 5.01702 49.5445 5.14787C49.5386 5.27873 49.4927 5.4045 49.413 5.5095C49.3796 5.55072 49.3376 5.58432 49.2895 5.60764C49.2414 5.63096 49.1889 5.64355 49.1352 5.64453C49.0845 5.64557 49.0344 5.63387 48.9896 5.61028L48.9937 5.6083ZM50.1483 5.49039C50.095 5.43816 50.0539 5.37473 50.0282 5.3053C50.0024 5.23587 49.9928 5.1622 49.9993 5.08859C50.0059 5.01497 50.0288 4.94312 50.0664 4.87912C50.1041 4.81513 50.1557 4.76012 50.2174 4.71774C50.2746 4.69196 50.3382 4.68455 50.3999 4.69666C50.4616 4.70878 50.5182 4.7402 50.5609 4.78559C50.651 4.88539 50.698 5.01527 50.693 5.14853C50.6881 5.28179 50.6313 5.4079 50.534 5.50093C50.4845 5.54521 50.4192 5.56972 50.3522 5.56878C50.2754 5.57079 50.201 5.54328 50.1442 5.49237L50.1483 5.49039ZM44.7898 5.47393C44.7409 5.41891 44.7048 5.35429 44.6838 5.28422C44.6629 5.21415 44.6576 5.14042 44.6684 5.06817C44.6792 4.99591 44.7056 4.92711 44.7462 4.86595C44.7869 4.80479 44.8409 4.75262 44.9039 4.71379C44.9757 4.68727 45.0548 4.68847 45.126 4.71642C45.1972 4.74438 45.255 4.79684 45.2883 4.86463C45.3437 4.96448 45.3655 5.07923 45.3507 5.192C45.3359 5.30477 45.2852 5.41023 45.2058 5.49303C45.1515 5.54136 45.0812 5.56742 45.0079 5.5668C44.9661 5.56826 44.9244 5.56143 44.8858 5.54572C44.8471 5.53001 44.8123 5.50594 44.7838 5.4759L44.7898 5.47393ZM43.7902 5.46997C43.7411 5.42757 43.7027 5.37466 43.6782 5.31518C43.6536 5.2557 43.6434 5.19142 43.6486 5.12745C43.6538 5.06348 43.6745 5.00122 43.7084 4.94631C43.7422 4.8914 43.7886 4.8455 43.8439 4.81128C43.8983 4.78636 43.9599 4.78134 44.0176 4.79744C44.0754 4.81354 44.1255 4.84961 44.1585 4.89888C44.2172 4.98282 44.2441 5.08408 44.2343 5.18542C44.2245 5.28675 44.1785 5.38124 44.1049 5.45285C44.0588 5.49435 43.9983 5.51752 43.9358 5.51674C43.8814 5.51967 43.828 5.50365 43.7842 5.47195L43.7902 5.46997ZM51.2492 5.45153C51.2033 5.40788 51.1678 5.35507 51.1459 5.29608C51.124 5.23709 51.1158 5.17342 51.1224 5.11098C51.129 5.04854 51.1504 4.98842 51.1841 4.93511C51.2179 4.88181 51.2635 4.8368 51.3176 4.80337C51.3852 4.78118 51.459 4.78575 51.5236 4.81523C51.5883 4.84471 51.6388 4.89709 51.6652 4.96212C51.7061 5.0427 51.7202 5.13411 51.7054 5.22296C51.6906 5.31182 51.6476 5.39387 51.5826 5.45746C51.5376 5.49608 51.4801 5.51712 51.4203 5.51674C51.3553 5.51943 51.2913 5.49639 51.2432 5.45351L51.2492 5.45153ZM42.6618 5.32572C42.6277 5.24905 42.6239 5.16259 42.651 5.08332C42.6782 5.00405 42.7344 4.93778 42.8087 4.89691C42.856 4.87759 42.9089 4.87525 42.9576 4.89098C43.0063 4.9067 43.0473 4.93941 43.0737 4.98254C43.1013 5.02227 43.1203 5.06688 43.1287 5.11428C43.1371 5.16168 43.135 5.21064 43.1227 5.25721C43.1104 5.30379 43.0877 5.34693 43.0569 5.38434C43.0261 5.42175 42.9874 5.45238 42.9435 5.47393C42.9246 5.47973 42.905 5.48248 42.8852 5.48249C42.8353 5.48259 42.7869 5.46841 42.7456 5.44099C42.7043 5.41357 42.6722 5.37447 42.6537 5.32901L42.6618 5.32572ZM52.4387 5.4759C52.3821 5.45387 52.333 5.41701 52.2965 5.36919C52.2599 5.32138 52.2372 5.2647 52.2314 5.20518C52.2256 5.14565 52.2369 5.08566 52.2636 5.03194C52.2904 4.97822 52.3316 4.93296 52.383 4.90086C52.5651 4.8179 52.7423 5.01472 52.7265 5.18739C52.7335 5.25764 52.7126 5.32805 52.6675 5.38303C52.6224 5.438 52.5571 5.47286 52.4857 5.48117C52.4675 5.48235 52.4492 5.4813 52.4313 5.47788L52.4387 5.4759ZM56.5989 5.47195C56.489 5.44767 56.5035 5.25287 56.6258 5.26973C56.6945 5.25894 56.7238 5.32458 56.7505 5.37315C56.7334 5.42576 56.6915 5.47854 56.6352 5.47854C56.6205 5.48016 56.6054 5.47866 56.5915 5.47393L56.5989 5.47195ZM38.6652 5.46009C38.6508 5.44937 38.6393 5.43541 38.6317 5.41925C38.6241 5.4031 38.6205 5.38497 38.6216 5.36722C38.6227 5.34946 38.6282 5.3323 38.6377 5.31716C38.6472 5.30201 38.6603 5.28921 38.676 5.28027C38.7447 5.24385 38.8521 5.28024 38.837 5.3659C38.8373 5.38071 38.8346 5.39565 38.8289 5.40937C38.8233 5.42309 38.8148 5.43519 38.8041 5.4456C38.7934 5.45601 38.7806 5.46456 38.7665 5.46997C38.7525 5.47539 38.7373 5.47768 38.7223 5.47722C38.6996 5.48039 38.6767 5.47593 38.6572 5.46405L38.6652 5.46009ZM41.7701 5.45285C41.7247 5.43135 41.6867 5.39804 41.6601 5.35602C41.6335 5.31399 41.6194 5.26521 41.6199 5.21572C41.6203 5.16623 41.6354 5.11764 41.6628 5.07607C41.6902 5.0345 41.7291 5.00195 41.7748 4.98122C41.9342 4.91984 42.0708 5.10501 42.0378 5.24733C42.0343 5.30188 42.0109 5.3537 41.9721 5.39291C41.9333 5.43211 41.8813 5.45638 41.8258 5.46141C41.8044 5.46373 41.7828 5.46203 41.7621 5.45614L41.7701 5.45285ZM53.5007 5.45746C53.4529 5.44121 53.411 5.41187 53.3793 5.37315C53.3476 5.33442 53.3281 5.28744 53.3223 5.23811C53.3165 5.18878 53.3246 5.13932 53.3464 5.09452C53.3682 5.04972 53.4023 5.0117 53.445 4.98517C53.5824 4.91772 53.7273 5.04794 53.7376 5.18015C53.745 5.21134 53.7457 5.24352 53.7396 5.275C53.7334 5.30648 53.7207 5.33632 53.702 5.36261C53.6833 5.38889 53.6589 5.41129 53.6309 5.42782C53.6029 5.44434 53.572 5.45489 53.5396 5.45878C53.5242 5.46134 53.5082 5.46156 53.4927 5.45943L53.5007 5.45746ZM55.5684 5.43572C55.545 5.42612 55.5252 5.41031 55.5101 5.39027C55.4949 5.37023 55.4851 5.34659 55.4826 5.32177C55.48 5.29695 55.4845 5.2719 55.4953 5.24931C55.5061 5.22672 55.5232 5.2073 55.5443 5.19332C55.5646 5.18376 55.5868 5.17918 55.6094 5.18015C55.6319 5.18111 55.6537 5.18798 55.6731 5.19925C55.6925 5.21052 55.709 5.22579 55.7207 5.2447C55.7325 5.26361 55.7389 5.28517 55.7402 5.30728C55.7422 5.32449 55.7407 5.34209 55.7355 5.35865C55.7303 5.37522 55.7221 5.39028 55.7107 5.40345C55.6992 5.41661 55.6849 5.42749 55.6691 5.43506C55.6532 5.44264 55.6357 5.44686 55.6181 5.44758C55.5983 5.44961 55.5783 5.44634 55.5604 5.4377L55.5684 5.43572ZM39.6991 5.43572C39.6773 5.42521 39.6589 5.40879 39.6454 5.38895C39.632 5.36912 39.6241 5.3462 39.6226 5.32243C39.6211 5.29865 39.6265 5.2752 39.6374 5.25392C39.6483 5.23264 39.6647 5.21424 39.685 5.20123C39.7037 5.18734 39.726 5.17915 39.7494 5.17751C39.7728 5.17587 39.7959 5.18088 39.8165 5.192C39.8371 5.20313 39.8544 5.22043 39.8655 5.24075C39.8766 5.26106 39.8808 5.28365 39.8789 5.30662C39.8804 5.34218 39.8678 5.37717 39.8433 5.40345C39.8189 5.42972 39.7849 5.44517 39.7487 5.44692C39.7281 5.45017 39.707 5.44709 39.6884 5.4377L39.6991 5.43572ZM54.495 5.40081C54.4722 5.38261 54.454 5.3593 54.442 5.33296C54.43 5.30663 54.4245 5.27746 54.4259 5.24865C54.4273 5.21984 54.4356 5.19207 54.45 5.16697C54.4645 5.14188 54.4846 5.12038 54.5091 5.1044C54.6465 5.03695 54.7789 5.21356 54.7157 5.33362C54.7069 5.3623 54.6883 5.38742 54.6634 5.40476C54.6385 5.4221 54.6087 5.43107 54.5782 5.42979C54.5445 5.43247 54.5112 5.42284 54.4843 5.40279L54.495 5.40081ZM40.7672 5.4265C40.6133 5.41436 40.5932 5.17909 40.7175 5.11164C40.738 5.09941 40.7613 5.09235 40.7853 5.09122C40.8092 5.0901 40.8328 5.09545 40.8544 5.10571C40.876 5.11598 40.8947 5.13136 40.9087 5.15051C40.9227 5.16966 40.9313 5.19168 40.9342 5.21506C40.9406 5.23865 40.9418 5.26346 40.9376 5.28751C40.9334 5.31157 40.9241 5.33454 40.9101 5.3547C40.896 5.37486 40.8777 5.3915 40.8564 5.4041C40.8351 5.41671 40.8113 5.42505 40.7866 5.42782C40.7767 5.42985 40.7665 5.43028 40.7564 5.42913L40.7672 5.4265ZM56.5486 3.91347C56.6462 3.83186 56.7992 3.98097 56.7251 4.08012C56.7067 4.09794 56.6817 4.10809 56.6559 4.10845C56.5563 4.11047 56.4706 3.9951 56.5372 3.91282L56.5486 3.91347ZM38.6605 4.09396C38.6474 4.08149 38.637 4.0661 38.631 4.04917C38.625 4.03223 38.6233 4.01425 38.6257 3.99647C38.6281 3.97869 38.6348 3.96188 38.6451 3.94707C38.6554 3.93226 38.6694 3.92017 38.6854 3.9115C38.7369 3.87035 38.8404 3.88664 38.8383 3.96353C38.8411 3.98132 38.84 3.99959 38.835 4.01689C38.8299 4.03418 38.8208 4.05067 38.8088 4.06432C38.7969 4.07796 38.7825 4.08843 38.7659 4.09593C38.7492 4.10344 38.7312 4.1078 38.7129 4.10779C38.6911 4.11036 38.6685 4.10597 38.6491 4.09593L38.6605 4.09396ZM39.6803 3.93192C39.5828 3.87661 39.6272 3.73007 39.7179 3.68622C39.7328 3.67787 39.7497 3.67308 39.7668 3.67239C39.784 3.6717 39.8009 3.67514 39.8165 3.68227C39.8321 3.6894 39.8455 3.69987 39.8561 3.71323C39.8666 3.72659 39.8738 3.74207 39.8769 3.75868C39.8815 3.78019 39.8817 3.80241 39.8769 3.82389C39.8721 3.84537 39.8628 3.86555 39.8494 3.88317C39.836 3.9008 39.8187 3.91537 39.7991 3.92599C39.7794 3.93661 39.7576 3.94337 39.7353 3.94509C39.7127 3.94776 39.6901 3.94361 39.6696 3.93389L39.6803 3.93192ZM55.5094 3.87263C55.498 3.85789 55.49 3.8413 55.4859 3.82323C55.4818 3.80516 55.482 3.78602 55.4859 3.7679C55.4898 3.74979 55.4975 3.73271 55.5087 3.71784C55.52 3.70297 55.5345 3.69054 55.551 3.68161C55.6671 3.63507 55.7893 3.78584 55.7274 3.89174C55.7193 3.90858 55.7061 3.92232 55.6899 3.93192C55.6736 3.94152 55.6551 3.94661 55.6362 3.94575C55.6088 3.94803 55.5814 3.94249 55.557 3.92994C55.5327 3.91739 55.5123 3.89804 55.4987 3.87461L55.5094 3.87263ZM54.548 3.80545C54.5187 3.79356 54.4923 3.77488 54.4722 3.75078C54.4521 3.72667 54.4387 3.69771 54.4326 3.66712C54.4265 3.63653 54.428 3.6047 54.4373 3.5749C54.4466 3.54511 54.4637 3.51843 54.4863 3.49652C54.6237 3.41153 54.776 3.59227 54.7218 3.72245C54.7156 3.7498 54.6999 3.77428 54.6775 3.79162C54.6551 3.80895 54.6275 3.81781 54.599 3.8173C54.5776 3.8198 54.5554 3.81653 54.5359 3.80742L54.548 3.80545ZM40.7162 3.80545C40.69 3.78672 40.6692 3.76125 40.6558 3.73233C40.6424 3.70341 40.6362 3.67178 40.639 3.64011C40.6418 3.60845 40.653 3.57811 40.6712 3.55185C40.6895 3.52559 40.7147 3.50468 40.7437 3.49059C40.7639 3.48005 40.7865 3.47477 40.8094 3.47544C40.8323 3.47611 40.8543 3.48218 40.8738 3.49388C40.8934 3.50559 40.9097 3.5223 40.9208 3.54197C40.9319 3.56164 40.9372 3.58404 40.9369 3.60652C40.9407 3.63121 40.9399 3.65613 40.9335 3.6803C40.9271 3.70446 40.9156 3.72712 40.9 3.74682C40.8844 3.76653 40.8646 3.78289 40.8423 3.79491C40.82 3.80693 40.7958 3.81427 40.7705 3.81665C40.7481 3.81886 40.725 3.81584 40.7041 3.80742L40.7162 3.80545ZM47.666 3.79293C47.5957 3.7887 47.528 3.76791 47.468 3.73167C47.4081 3.69544 47.3579 3.64513 47.3225 3.58544C47.2136 3.40641 47.1802 3.19288 47.2292 2.98998C47.2449 2.8954 47.2858 2.80628 47.348 2.73243C47.4101 2.65858 47.4918 2.60263 47.5834 2.56973C47.6632 2.54917 47.7469 2.55307 47.8243 2.58093C47.9017 2.60879 47.9689 2.6589 48.0162 2.72519C48.1083 2.85279 48.1588 3.00483 48.1618 3.16124C48.1647 3.31766 48.1196 3.47171 48.0323 3.60257C47.9944 3.65845 47.9438 3.70432 47.884 3.73694C47.8242 3.76956 47.7571 3.78754 47.6888 3.78964L47.666 3.79293ZM41.6454 3.64011C41.6197 3.57812 41.6165 3.50928 41.636 3.44514C41.6554 3.381 41.6966 3.3251 41.7527 3.28705C41.7748 3.27361 41.7994 3.26486 41.8252 3.26136C41.8509 3.25787 41.8773 3.26024 41.9023 3.26729C41.9273 3.27435 41.9501 3.28647 41.9701 3.30286C41.99 3.31925 42.0063 3.33924 42.0177 3.36215C42.0482 3.43023 42.0513 3.50753 42.0258 3.57754C42.0002 3.64755 41.9478 3.70469 41.8802 3.73826C41.8586 3.74783 41.8354 3.75299 41.8117 3.75275C41.7743 3.75379 41.7374 3.744 41.7057 3.72443C41.6741 3.70485 41.6492 3.67632 41.6339 3.64275L41.6454 3.64011ZM53.4196 3.28508C53.4515 3.27056 53.4864 3.26401 53.5215 3.26532C53.5567 3.26662 53.5915 3.27613 53.6222 3.29298C53.6529 3.30983 53.6791 3.33344 53.6986 3.36215C53.7182 3.39085 53.7301 3.42336 53.7342 3.45766C53.7713 3.57569 53.7074 3.75285 53.5625 3.7488H53.5524C53.5011 3.74215 53.453 3.72098 53.4135 3.6882C53.374 3.65542 53.3448 3.61222 53.3297 3.56371C53.3145 3.51519 53.3137 3.46373 53.3276 3.41484C53.3415 3.36595 53.3696 3.32149 53.4081 3.28771L53.4196 3.28508ZM49.0567 3.70137C48.966 3.66302 48.888 3.5999 48.8326 3.51957C48.7773 3.43925 48.7467 3.34516 48.7441 3.24819C48.7243 3.13543 48.7421 3.01942 48.7951 2.91753C48.8481 2.81563 48.9333 2.7334 49.0379 2.68303C49.1108 2.66231 49.1889 2.66494 49.26 2.69093C49.3311 2.71693 49.3917 2.76481 49.4331 2.82728C49.5098 2.93446 49.5516 3.0619 49.5532 3.19286C49.5548 3.32382 49.5159 3.45213 49.4418 3.56107C49.41 3.60782 49.3678 3.64648 49.3177 3.67371C49.2676 3.70093 49.2112 3.71621 49.154 3.71784C49.1171 3.72035 49.0805 3.71543 49.0453 3.70401L49.0567 3.70137ZM46.1303 3.70533C46.0507 3.67587 45.9805 3.62587 45.9277 3.56041C45.8748 3.49496 45.8408 3.41665 45.8297 3.33382C45.7997 3.21309 45.8092 3.08588 45.8572 2.97088C45.9052 2.85588 45.9897 2.75886 46.0974 2.69357C46.1758 2.66183 46.2628 2.65964 46.343 2.68698C46.4231 2.71432 46.4907 2.76978 46.5322 2.84243C46.6 2.95239 46.6335 3.07887 46.6288 3.20735C46.624 3.33583 46.5811 3.4602 46.5053 3.56502C46.4719 3.61067 46.4284 3.64859 46.3778 3.67503C46.3273 3.70146 46.2714 3.71608 46.2141 3.71784C46.1826 3.72031 46.1503 3.71733 46.1196 3.70994L46.1303 3.70533ZM52.3052 3.58544C52.2759 3.5497 52.2549 3.50855 52.2428 3.46424C52.2307 3.41994 52.2283 3.37321 52.2354 3.32789C52.2426 3.28257 52.2592 3.23938 52.2844 3.20076C52.3096 3.16215 52.3427 3.12927 52.3817 3.10394C52.4401 3.0856 52.5036 3.08889 52.5595 3.11382C52.6153 3.13875 52.6599 3.18367 52.6843 3.23897C52.7239 3.30648 52.7381 3.38549 52.7245 3.46227C52.711 3.53904 52.6702 3.60874 52.6098 3.65922C52.5771 3.68016 52.5388 3.6911 52.4998 3.69083C52.4594 3.69291 52.4191 3.68446 52.383 3.66646C52.347 3.64847 52.3166 3.62134 52.2945 3.58808L52.3052 3.58544ZM42.704 3.61179C42.6749 3.57239 42.6545 3.52706 42.6443 3.47939C42.6341 3.43173 42.6344 3.38272 42.645 3.33514C42.6556 3.28756 42.6766 3.24257 42.706 3.2034C42.7355 3.16423 42.7728 3.13179 42.8161 3.10789C42.8659 3.08669 42.922 3.0851 42.9731 3.10328C43.0241 3.12146 43.0667 3.15773 43.0911 3.20538C43.1286 3.2783 43.1399 3.36182 43.1233 3.44185C43.1068 3.52187 43.0627 3.59393 42.9992 3.6467C42.9621 3.67497 42.9167 3.69029 42.8697 3.68952C42.8364 3.69162 42.8032 3.68541 42.7725 3.67239C42.7418 3.65938 42.7146 3.63971 42.6933 3.61443L42.704 3.61179ZM50.2375 3.64275C50.1649 3.59805 50.1051 3.5357 50.0644 3.46161C50.0237 3.38752 50.0035 3.30403 50.0054 3.21987C50.0072 3.13571 50.0312 3.0537 50.0751 2.98142C50.1191 2.90914 50.1817 2.84907 50.2563 2.80752C50.3086 2.79344 50.3635 2.79365 50.416 2.80752C50.4684 2.8214 50.5161 2.84855 50.5542 2.88657C50.6368 2.97417 50.6872 3.08637 50.6971 3.20538C50.7069 3.32438 50.6757 3.44308 50.6085 3.54263C50.5812 3.58225 50.5448 3.61492 50.5018 3.63748C50.4589 3.66004 50.411 3.67208 50.3623 3.67239C50.3153 3.67449 50.2684 3.66428 50.2268 3.64275H50.2375ZM44.7697 3.55712C44.727 3.50041 44.6965 3.43554 44.6805 3.36676C44.6645 3.29798 44.6637 3.2266 44.6771 3.15729C44.6905 3.08798 44.7184 3.02251 44.759 2.96429C44.7996 2.90608 44.8516 2.85673 44.9126 2.81938C44.9778 2.79355 45.0503 2.79093 45.1172 2.81213C45.1842 2.83334 45.2414 2.87693 45.2789 2.93531C45.3494 3.04466 45.3763 3.17597 45.3541 3.30352C45.3319 3.43107 45.2623 3.54545 45.1588 3.62562C45.1143 3.65603 45.0614 3.6723 45.0072 3.67173C44.9598 3.67392 44.9122 3.66487 44.869 3.64538C44.8258 3.6259 44.7882 3.59654 44.759 3.55975L44.7697 3.55712ZM51.2023 3.53077C51.139 3.44268 51.1131 3.33429 51.1298 3.22777C51.1464 3.12126 51.2043 3.02511 51.2915 2.95968C51.3262 2.94554 51.3632 2.93782 51.4008 2.93794C51.4384 2.93807 51.4762 2.94597 51.5109 2.96034C51.5455 2.97471 51.5765 2.99586 51.6028 3.02226C51.6291 3.04865 51.6499 3.0795 51.6638 3.11382C51.711 3.19655 51.7274 3.29314 51.7108 3.38652C51.6941 3.47989 51.6455 3.56419 51.5726 3.62628C51.5343 3.65254 51.4884 3.66683 51.4418 3.66646C51.3918 3.66765 51.3428 3.65617 51.2989 3.63287C51.2549 3.60957 51.2179 3.57506 51.1915 3.53341L51.2023 3.53077ZM43.7929 3.62233C43.7442 3.5795 43.7064 3.52652 43.6822 3.46688C43.658 3.40724 43.648 3.34247 43.6533 3.27849C43.6587 3.21451 43.6792 3.15294 43.7131 3.09801C43.7469 3.04308 43.7934 2.99671 43.8486 2.96232C43.899 2.93683 43.9568 2.92903 44.0123 2.94058C44.0677 2.95213 44.1176 2.98216 44.1532 3.02555C44.2146 3.10833 44.2445 3.20984 44.2384 3.31208C44.2322 3.41433 44.1905 3.51099 44.1196 3.5861C44.0948 3.61117 44.0645 3.63106 44.0317 3.64473C43.9989 3.65839 43.964 3.66567 43.9284 3.6658C43.877 3.66923 43.826 3.65454 43.7842 3.62496L43.7929 3.62233ZM38.633 2.80752C38.5815 2.69353 38.7245 2.53333 38.8316 2.62506C38.8396 2.64717 38.8417 2.67101 38.8383 2.69423C38.835 2.71744 38.8261 2.73905 38.8122 2.75812C38.7983 2.77719 38.7798 2.79296 38.7585 2.80357C38.7372 2.81418 38.7139 2.81964 38.6901 2.81938C38.6672 2.82176 38.6437 2.8183 38.6223 2.81016L38.633 2.80752ZM56.5546 2.60991C56.6598 2.55123 56.7973 2.70781 56.7204 2.80291C56.7034 2.81315 56.6839 2.81881 56.664 2.81872C56.5561 2.82142 56.469 2.69147 56.5439 2.61255L56.5546 2.60991ZM55.5174 2.27925C55.6459 2.19561 55.8173 2.40714 55.7053 2.51506C55.6863 2.52736 55.6643 2.53414 55.6416 2.53416C55.5179 2.53619 55.416 2.37092 55.5067 2.28188L55.5174 2.27925ZM39.7024 2.53087C39.6221 2.52682 39.609 2.41297 39.6441 2.35632C39.6606 2.32308 39.6874 2.29613 39.7206 2.27859C39.7537 2.26104 39.7919 2.2541 39.8292 2.25883C39.8514 2.28052 39.8668 2.30784 39.8735 2.33787C39.8803 2.3679 39.8777 2.39927 39.8668 2.42811C39.856 2.45696 39.8368 2.48205 39.8118 2.50057C39.7868 2.51909 39.7572 2.52987 39.7259 2.53219C39.7148 2.53383 39.7036 2.5347 39.6924 2.5335L39.7024 2.53087ZM54.5675 2.29176C54.5355 2.28176 54.5066 2.26362 54.4836 2.23973C54.4605 2.21583 54.4437 2.18661 54.4353 2.15475C54.4269 2.1229 54.427 2.08982 54.4353 2.05793C54.4436 2.02603 54.46 1.99696 54.4829 1.97295C54.6203 1.90213 54.7615 2.07402 54.7251 2.20218C54.721 2.22931 54.7072 2.25396 54.6862 2.272C54.6652 2.29005 54.6383 2.29998 54.6104 2.30033C54.5922 2.30308 54.5736 2.3009 54.5567 2.29374L54.5675 2.29176ZM40.7081 2.29176C40.5838 2.22431 40.6344 2.03159 40.7464 1.97493C40.7698 1.96036 40.7972 1.95364 40.8249 1.95583C40.8525 1.95802 40.8786 1.96872 40.8993 1.98679C40.9187 2.01528 40.9306 2.04813 40.9335 2.0823C40.9365 2.11646 40.9304 2.15113 40.9161 2.18242C40.9018 2.21371 40.8796 2.24088 40.8517 2.26146C40.8238 2.28204 40.791 2.29495 40.7564 2.29967C40.7367 2.30141 40.7169 2.29949 40.6981 2.29374L40.7081 2.29176ZM53.5276 2.1396C53.3146 2.09846 53.236 1.74051 53.4518 1.65283C53.6256 1.60898 53.7643 1.81118 53.7416 1.96834C53.7407 2.01355 53.7224 2.05683 53.6906 2.08954C53.6588 2.12226 53.6158 2.1425 53.5698 2.14553C53.5523 2.14716 53.5345 2.14589 53.5175 2.14158L53.5276 2.1396ZM41.648 2.05134C41.6317 2.01455 41.623 1.97552 41.6225 1.93541C41.6221 1.8953 41.6299 1.8553 41.6454 1.81816C41.6608 1.78102 41.6835 1.74705 41.7124 1.7187C41.7413 1.69035 41.7759 1.66794 41.8137 1.65283C41.8354 1.64618 41.8583 1.6442 41.8808 1.64624C41.9034 1.64828 41.9252 1.65427 41.9452 1.66468C41.9652 1.6751 41.9825 1.68966 41.9969 1.70684C42.0113 1.72402 42.0219 1.74352 42.0284 1.76481C42.0503 1.83343 42.047 1.90783 42.019 1.97427C41.991 2.04072 41.9403 2.09503 41.8755 2.12841C41.8528 2.13929 41.8282 2.14511 41.803 2.14487C41.7695 2.14791 41.7352 2.14059 41.7057 2.12445C41.6763 2.10832 41.653 2.08362 41.638 2.05397L41.648 2.05134ZM42.6785 1.90708C42.656 1.86418 42.6426 1.81758 42.639 1.76942C42.6353 1.72125 42.6412 1.67286 42.6571 1.62714C42.6729 1.58141 42.698 1.53928 42.7309 1.5033C42.7637 1.46732 42.8037 1.43816 42.8483 1.41767C42.8738 1.40882 42.901 1.40503 42.9281 1.40648C42.9552 1.40792 42.9815 1.41471 43.0059 1.42624C43.0304 1.43777 43.0523 1.45381 43.0703 1.47366C43.0884 1.49351 43.1023 1.51637 43.1113 1.54151C43.143 1.62292 43.1442 1.71292 43.1146 1.79511C43.085 1.87729 43.027 1.94633 42.9502 1.99008C42.923 2.00439 42.8926 2.01196 42.8617 2.01182C42.8227 2.01478 42.7835 2.0068 42.749 1.98876C42.7144 1.97073 42.6858 1.94313 42.6665 1.90972L42.6785 1.90708ZM52.3897 1.41372C52.5773 1.36111 52.7334 1.55994 52.7272 1.72924C52.7332 1.76062 52.7333 1.79286 52.7265 1.82409C52.7197 1.85532 52.7062 1.8848 52.6876 1.91104C52.6691 1.93727 52.6459 1.95974 52.6185 1.97691C52.5911 1.99408 52.56 2.00572 52.5279 2.01116H52.5226C52.2189 2.01386 52.1042 1.52696 52.3777 1.41701L52.3897 1.41372ZM47.4077 1.86295C47.3315 1.78599 47.2743 1.69279 47.2399 1.59091C47.2056 1.48903 47.1954 1.38113 47.2098 1.27474C47.2241 1.16834 47.263 1.0666 47.3231 0.977005C47.3833 0.887413 47.4633 0.811847 47.5573 0.757001C47.6435 0.728749 47.7366 0.729814 47.8223 0.759636C47.9079 0.789457 47.9808 0.846416 48.0296 0.921675C48.1298 1.06307 48.1776 1.23399 48.1651 1.40582C48.1526 1.57765 48.0808 1.74027 47.9612 1.86625C47.9248 1.90103 47.8815 1.9282 47.8344 1.94661C47.7872 1.96501 47.7368 1.97442 47.6861 1.97361C47.6327 1.97587 47.5797 1.96725 47.5298 1.94858C47.4798 1.92991 47.434 1.90149 47.3956 1.86493L47.4077 1.86295ZM43.8425 1.91104C43.7813 1.87221 43.7313 1.81807 43.6983 1.75427C43.6653 1.69046 43.6505 1.61953 43.6547 1.5481C43.6589 1.47666 43.6822 1.40751 43.7224 1.34785C43.7627 1.28819 43.8181 1.23988 43.8835 1.20821C44.0552 1.12659 44.2274 1.2913 44.2364 1.45588C44.2789 1.65418 44.1388 1.92289 43.9217 1.92289C43.891 1.92502 43.8595 1.9216 43.8298 1.91367L43.8425 1.91104ZM51.2291 1.81223C51.1913 1.76897 51.163 1.71847 51.1459 1.66403C51.1288 1.60958 51.1233 1.55201 51.1298 1.4954C51.1362 1.43878 51.1546 1.38408 51.1835 1.33468C51.2124 1.28527 51.251 1.24222 51.2975 1.20821C51.3627 1.18548 51.434 1.18733 51.4981 1.21282C51.5622 1.2383 51.6144 1.2857 51.645 1.34653C51.6984 1.42516 51.724 1.51907 51.7168 1.61331C51.7096 1.70754 51.6702 1.79701 51.6055 1.8669C51.5634 1.90379 51.5089 1.92378 51.4525 1.92289C51.4072 1.92485 51.362 1.91612 51.321 1.8972C51.28 1.87829 51.2437 1.84967 51.2163 1.81421L51.2291 1.81223ZM48.936 1.82475C48.8343 1.72781 48.7671 1.60132 48.7454 1.46378C48.7237 1.32625 48.7488 1.18524 48.8159 1.06264C48.8634 0.971254 48.9448 0.901216 49.0433 0.867003C49.1267 0.84879 49.2134 0.859227 49.2902 0.895986C49.3669 0.932744 49.4286 0.993515 49.4653 1.06922C49.5341 1.18469 49.5641 1.31876 49.5512 1.45193C49.5382 1.58509 49.4833 1.71097 49.3935 1.81157C49.3626 1.84156 49.3258 1.86542 49.2855 1.8814C49.2452 1.89737 49.2022 1.90495 49.1587 1.90445C49.0732 1.90881 48.9887 1.88092 48.9232 1.82672L48.936 1.82475ZM46.0444 1.85966C45.9659 1.80505 45.9039 1.73053 45.8646 1.64426C45.8253 1.558 45.8101 1.46281 45.821 1.36893C45.8163 1.26162 45.8458 1.1559 45.9055 1.06593C45.9653 0.975955 46.0526 0.906128 46.1544 0.867003C46.2327 0.848632 46.3149 0.857608 46.3872 0.892034C46.4596 0.926459 46.5171 0.984398 46.5509 1.05605C46.6179 1.1766 46.6443 1.31523 46.6254 1.45127C46.6065 1.58731 46.5437 1.7137 46.4463 1.81223C46.3818 1.87158 46.2965 1.90462 46.2081 1.90511C46.146 1.90842 46.0845 1.89326 46.0317 1.86098L46.0444 1.85966ZM50.2583 1.0185C50.4926 0.959147 50.6758 1.19084 50.6951 1.39791C50.7349 1.60701 50.619 1.8879 50.3724 1.89128C50.2779 1.86976 50.1924 1.82045 50.1268 1.75031C50.0612 1.68018 50.0184 1.59227 50.0047 1.49803C49.991 1.4038 50.0068 1.30742 50.0496 1.22204C50.0925 1.13666 50.161 1.06649 50.2456 1.01982L50.2583 1.0185ZM44.7181 1.70289C44.6602 1.58356 44.652 1.44707 44.6939 1.3215C44.7358 1.19594 44.8249 1.09091 44.9435 1.02838C45.0094 1.0066 45.0811 1.0088 45.1454 1.03497C45.2097 1.06114 45.2628 1.10944 45.2937 1.17066C45.36 1.28505 45.3794 1.41999 45.3487 1.5481C45.318 1.6762 45.2393 1.78828 45.128 1.86163C45.0899 1.88309 45.0464 1.89416 45.0025 1.89391C44.9395 1.89444 44.8776 1.87689 44.8247 1.84319C44.7718 1.80949 44.7305 1.76096 44.7053 1.70421L44.7181 1.70289Z" fill="#6C6C6C"/>
</svg>
