<svg xmlns="http://www.w3.org/2000/svg" width="18.028" height="14" viewBox="0 0 18.028 14">
  <g id="folder-open" transform="translate(-212.805 -154.043)">
    <path id="Path_11966" data-name="Path 11966" d="M214.988,161.134l-2.183,5.1V155.543a1.5,1.5,0,0,1,1.5-1.5h5l2,2h5a1.5,1.5,0,0,1,1.5,1.5v2.1H217.579A3.01,3.01,0,0,0,214.988,161.134Z" fill="#dadada" style="isolation: isolate"/>
    <path id="Path_11967" data-name="Path 11967" d="M217.583,160.646h12.5a.75.75,0,0,1,.648,1.128l-2.288,5.277a2,2,0,0,1-1.727.992h-12.5a.75.75,0,0,1-.75-.75.74.74,0,0,1,.091-.378l2.3-5.277A2,2,0,0,1,217.583,160.646Z" fill="#dadada"/>
  </g>
</svg>
