<svg id="sync-alt" xmlns="http://www.w3.org/2000/svg" width="18" height="18" viewBox="0 0 18 18">
  <path id="Path_11914" data-name="Path 11914" d="M8,294.026v-4.865a.871.871,0,0,1,.871-.871h4.865a.872.872,0,0,1,.617,1.488l-1.515,1.515a6.1,6.1,0,0,0,10.075-2.961.436.436,0,0,1,.423-.332h2.08a.436.436,0,0,1,.429.515,9,9,0,0,1-15.061,4.831l-1.3,1.3A.871.871,0,0,1,8,294.026Z" transform="translate(-8 -277.839)" fill="#dadada"/>
  <path id="Path_11915" data-name="Path 11915" d="M12.107,15.324a9,9,0,0,1,15.061-4.831l1.3-1.3a.872.872,0,0,1,1.488.617v4.863a.871.871,0,0,1-.871.871H24.215A.872.872,0,0,1,23.6,14.06l1.515-1.515a6.1,6.1,0,0,0-10.075,2.961.435.435,0,0,1-.423.332h-2.08a.435.435,0,0,1-.428-.515Z" transform="translate(-11.951 -8)" fill="#dadada"/>
</svg>
