<svg xmlns="http://www.w3.org/2000/svg" width="18" height="18" viewBox="0 0 18 18">
  <g id="Group_91346" data-name="Group 91346" transform="translate(-823 -1736)">
    <rect id="Rectangle_75255" data-name="Rectangle 75255" width="18" height="18" rx="1" transform="translate(823 1736)" fill="#f3f3f3" opacity="0"/>
    <g id="Group_91336" data-name="Group 91336" transform="translate(17719 25675)">
      <rect id="Rectangle_51891" data-name="Rectangle 51891" width="14" height="14" transform="translate(-16894 -23937)" fill="#919191" opacity="0"/>
      <path id="bold" d="M27.86,38.438A3.812,3.812,0,0,0,28.7,36.4,4,4,0,0,0,24.732,32H18.5a.5.5,0,0,0-.5.5V34a.5.5,0,0,0,.5.5h1v9h-1a.5.5,0,0,0-.5.5v1.5a.5.5,0,0,0,.5.5h6.542a4.37,4.37,0,0,0,4.406-3.825A4.234,4.234,0,0,0,27.86,38.438ZM21.99,34.5h2.743a1.5,1.5,0,1,1,0,3H21.99Zm2.743,9H21.99V40h2.743a1.75,1.75,0,1,1,0,3.5Z" transform="translate(-16910.734 -23969)" fill="#b7b7b7"/>
    </g>
  </g>
</svg>