<svg xmlns="http://www.w3.org/2000/svg" width="14" height="14" viewBox="0 0 14 14">
  <g id="Group_86295" data-name="Group 86295" transform="translate(16871 23937)">
    <rect id="Rectangle_51892" data-name="Rectangle 51892" width="14" height="14" transform="translate(-16871 -23937)" fill="#ccc" opacity="0"/>
    <path id="italic" d="M10,32.5v1a.5.5,0,0,1-.5.5H7.539l-2.5,10H6.5a.5.5,0,0,1,.5.5v1a.5.5,0,0,1-.5.5H.5a.5.5,0,0,1-.5-.5v-1A.5.5,0,0,1,.5,44H2.461l2.5-10H3.5a.5.5,0,0,1-.5-.5v-1a.5.5,0,0,1,.5-.5h6A.5.5,0,0,1,10,32.5Z" transform="translate(-16869 -23969)" fill="#b7b7b7"/>
  </g>
</svg>