<svg width="10" height="12" viewBox="0 0 10 12" fill="none" xmlns="http://www.w3.org/2000/svg">
<path d="M9.20078 0.475336V1.32518C9.20078 1.38103 9.18991 1.43633 9.16879 1.48793C9.14766 1.53953 9.1167 1.58641 9.07767 1.62591C9.03864 1.6654 8.9923 1.69672 8.94131 1.7181C8.89031 1.73947 8.83565 1.75047 8.78045 1.75047H7.13327L5.03381 10.2496H6.26067C6.37215 10.2496 6.47906 10.2944 6.55789 10.3742C6.63671 10.4539 6.681 10.5621 6.681 10.6749V11.5248C6.681 11.6376 6.63671 11.7457 6.55789 11.8255C6.47906 11.9052 6.37215 11.95 6.26067 11.95H1.22111C1.16585 11.95 1.11113 11.939 1.06009 11.9176C1.00904 11.8962 0.962676 11.8648 0.923636 11.8252C0.884595 11.7857 0.853649 11.7387 0.832569 11.687C0.811488 11.6353 0.800686 11.5799 0.800782 11.524V10.6742C0.800782 10.5614 0.845066 10.4532 0.923893 10.3735C1.00272 10.2937 1.10963 10.2489 1.22111 10.2489H2.8683L4.96848 1.74973H3.74089C3.62941 1.74973 3.5225 1.70493 3.44367 1.62517C3.36485 1.54541 3.32056 1.43724 3.32056 1.32445V0.475336C3.32056 0.362543 3.36485 0.254371 3.44367 0.174614C3.5225 0.0948566 3.62941 0.0500488 3.74089 0.0500488H8.78118C8.89253 0.0502434 8.99926 0.0951355 9.07793 0.174871C9.1566 0.254607 9.20078 0.36267 9.20078 0.475336Z" fill="#919191"/>
</svg>