<svg width="16" height="18" viewBox="0 0 16 18" fill="none" xmlns="http://www.w3.org/2000/svg">
<path d="M14.9759 13.7764L11.8759 16.8764C11.7323 17.0187 11.538 17.0982 11.3359 17.0974H11.1429V13.5884C11.1431 13.4451 11.2003 13.3078 11.3017 13.2065C11.4031 13.1053 11.5406 13.0484 11.6839 13.0484H15.1969V13.2414C15.197 13.442 15.1175 13.6344 14.9759 13.7764ZM10.1329 13.6984V17.0984H1.55688C1.45707 17.0984 1.35824 17.0788 1.26604 17.0406C1.17383 17.0024 1.09005 16.9464 1.01947 16.8758C0.948901 16.8053 0.89292 16.7215 0.854727 16.6293C0.816533 16.5371 0.796875 16.4382 0.796875 16.3384V1.65744C0.796875 1.55768 0.81654 1.4589 0.854746 1.36675C0.892952 1.2746 0.948949 1.19088 1.01953 1.12039C1.09012 1.0499 1.17391 0.994011 1.26611 0.955926C1.35831 0.917842 1.45712 0.898307 1.55688 0.898438H14.4379C14.6392 0.898438 14.8322 0.978404 14.9746 1.12074C15.1169 1.26308 15.1969 1.45614 15.1969 1.65744V12.0354H11.7969C11.3572 12.037 10.936 12.2125 10.6252 12.5234C10.3144 12.8344 10.1392 13.2558 10.1379 13.6954" fill="#919191"/>
</svg>