<svg height="22" viewBox="0 0 22 22" width="22" xmlns="http://www.w3.org/2000/svg">
  <g data-name="Group 35841" id="Group_35841" opacity="0.7" transform="translate(-29 -1483)">
    <rect data-name="Rectangle 16701" fill="#dadada" height="22" id="Rectangle_16701" rx="2"
          transform="translate(29 1483)"
          width="22"/>
    <g data-name="Group 35196" id="Group_35196" transform="translate(30.728 1486.693)">
      <g data-name="Path 13425" id="Path_13425" transform="translate(1.827 1.827)">
        <path d="M664.24,367.022a3.289,3.289,0,1,1-3.289,3.289A3.289,3.289,0,0,1,664.24,367.022Z" data-name="Path 13426"
              fill="#6c6c6c"
              id="Path_13426" transform="translate(-660.951 -367.022)"/>
      </g>
      <g data-name="Path 13422" id="Path_13422" transform="translate(13.412 9.027)">
        <path d="M698.778,391.022a1.827,1.827,0,1,1-1.827,1.827A1.827,1.827,0,0,1,698.778,391.022Z"
              data-name="Path 13427"
              fill="#6c6c6c"
              id="Path_13427" transform="translate(-696.951 -391.022)"/>
      </g>
      <g data-name="Path 13423" id="Path_13423" transform="translate(0 0)">
        <g data-name="Group 35198" id="Group_35198" transform="translate(0 0)">
          <path
            d="M661.067,363.118a4.02,4.02,0,1,0,2.843,1.177,3.993,3.993,0,0,0-2.843-1.177m0-1.1a5.116,5.116,0,1,1-5.116,5.116A5.116,5.116,0,0,1,661.067,362.022Z"
            data-name="Path 13429"
            fill="#6c6c6c"
            id="Path_13429" transform="translate(-655.951 -362.022)"/>
        </g>
      </g>
      <g data-name="Path 13424" id="Path_13424" transform="translate(11.95 7.565)">
        <g data-name="Group 35200" id="Group_35200" transform="translate(0 0)">
          <path
            d="M696.24,387.753a2.558,2.558,0,1,0,2.558,2.558,2.561,2.561,0,0,0-2.558-2.558m0-.731a3.289,3.289,0,1,1-3.289,3.289A3.289,3.289,0,0,1,696.24,387.022Z"
            data-name="Path 13431"
            fill="#6c6c6c"
            id="Path_13431" transform="translate(-692.951 -387.022)"/>
        </g>
      </g>
      <g data-name="Path 13420" id="Path_13420" transform="translate(3.016 8.432)">
        <path d="M0,0H.731l.705,11.907-.66.03Z" data-name="Path 13432" fill="#6c6c6c"
              id="Path_13432" transform="translate(0 1.308) rotate(-65.561)"/>
      </g>
      <g data-name="Path 13421" id="Path_13421" transform="translate(7.818 0.843)">
        <path d="M0,0H.731l.343,11.321L.36,11.315Z" data-name="Path 13433" fill="#6c6c6c"
              id="Path_13433" transform="matrix(0.648, -0.762, 0.762, 0.648, 0, 0.818)"/>
      </g>
    </g>
  </g>
</svg>
