<svg height="22" viewBox="0 0 22 22" width="22" xmlns="http://www.w3.org/2000/svg">
  <g data-name="Group 35846" id="Group_35846" opacity="0.7" transform="translate(-241 -1465)">
    <g data-name="Group 35814" id="Group_35814" transform="translate(212 -49)">
      <g data-name="Group 35815" id="Group_35815">
        <rect data-name="Rectangle 16702" fill="#dadada" height="22" id="Rectangle_16702" rx="2"
              transform="translate(29 1514)" width="22"/>
        <g data-name="Group 35201" id="Group_35201" transform="translate(33.605 1518.519)">
          <g data-name="#020304ff" id="_020304ff">
            <path
              d="M105.733,41.045a6.407,6.407,0,0,1,10.313.557,6.4,6.4,0,0,1,.036,6.907c-.263.316-.733-.16-.434-.451a5.776,5.776,0,0,0-8.742-7.333,5.937,5.937,0,0,0-1.522,2.041l-.334,1.019a6.008,6.008,0,0,0,.818,4.56c-.123.191-.383.369-.579.174A6.4,6.4,0,0,1,105.733,41.045Z"
              data-name="Path 13436"
              fill="#707070"
              id="Path_13436" transform="translate(-104.291 -38.703)"/>
            <path
              d="M146.81,52.231c.137-.353.564-.64.9-.349a.541.541,0,0,1-.33.968C147.025,52.88,146.881,52.515,146.81,52.231Z"
              data-name="Path 13437"
              fill="#707070"
              id="Path_13437" transform="translate(-140.994 -49.976)"/>
            <path
              d="M144.453,59.783c.547-.945,1.087-1.9,1.665-2.823-.265,1.063-.6,2.106-.873,3.168A1.081,1.081,0,0,1,145,61.74a1.039,1.039,0,0,1-1.559-.925A1.127,1.127,0,0,1,144.453,59.783Z"
              data-name="Path 13438"
              fill="#707070"
              id="Path_13438" transform="translate(-138.083 -54.463)"/>
            <path
              d="M126.438,61.535a.564.564,0,0,1-.007-.945c.264-.175.551,0,.776.152.011.223.1.491-.089.666C126.973,61.642,126.663,61.587,126.438,61.535Z"
              data-name="Path 13439"
              fill="#707070"
              id="Path_13439" transform="translate(-123.184 -57.533)"/>
            <path d="M168.153,61.29a.557.557,0,0,1,.535-.885.557.557,0,1,1-.535.885Z" data-name="Path 13440"
                  fill="#707070"
                  id="Path_13440" transform="translate(-159.315 -57.426)"/>
            <path d="M117.693,81.535a.536.536,0,0,1,.822.536.53.53,0,0,1-.841.352A.538.538,0,0,1,117.693,81.535Z"
                  data-name="Path 13441"
                  fill="#707070"
                  id="Path_13441" transform="translate(-115.65 -75.599)"/>
            <path d="M176.979,81.569a.524.524,0,0,1,.812.227.536.536,0,1,1-.812-.227Z" data-name="Path 13442"
                  fill="#707070"
                  id="Path_13442" transform="translate(-166.847 -75.611)"/>
            <path
              d="M125,110.6l.186-.109c2.188,0,4.38-.015,6.568.007.393-.063.369.6.021.6-2.152.014-4.3.007-6.456,0C125.045,111.176,124.765,110.8,125,110.6Z"
              data-name="Path 13443"
              fill="#707070"
              id="Path_13443" transform="translate(-122.091 -100.665)"/>
            <path d="M131,122.715l.61-.005q0,.3,0,.591L131,123.3Z" data-name="Path 13444" fill="#707070"
                  id="Path_13444" transform="translate(-127.347 -111.219)"/>
            <path d="M141,122.74l.583,0c0,.193-.005.386-.007.58h-.57C141,123.128,141,122.934,141,122.74Z"
                  data-name="Path 13445"
                  fill="#707070"
                  id="Path_13445" transform="translate(-135.979 -111.245)"/>
            <path
              d="M150.768,122.74l.613,0c0,.193-.005.386-.007.58h-.607C150.765,123.128,150.766,122.934,150.768,122.74Z"
              data-name="Path 13446"
              fill="#707070"
              id="Path_13446" transform="translate(-144.409 -111.245)"/>
            <path d="M160.411,122.734l.6,0v.587l-.632-.014C160.391,123.114,160.4,122.924,160.411,122.734Z"
                  data-name="Path 13447"
                  fill="#707070"
                  id="Path_13447" transform="translate(-152.708 -111.237)"/>
          </g>
        </g>
      </g>
    </g>
    <g data-name="Ellipse 4223" fill="none" id="Ellipse_4223" stroke="#707070" stroke-width="1.6"
       transform="translate(243 1467)">
      <circle cx="9" cy="9" r="9" stroke="none"/>
      <circle cx="9" cy="9" fill="none" r="8.2"/>
    </g>
  </g>
</svg>
