<svg height="22" viewBox="0 0 22 22" width="22" xmlns="http://www.w3.org/2000/svg">
  <g data-name="Group 35835" id="Group_35835" opacity="0.7" transform="translate(-28 -1328)">
    <rect data-name="Rectangle 16706" fill="#dadada" height="22" id="Rectangle_16706" rx="2"
          transform="translate(28 1328)"
          width="22"/>
    <g data-name="54769865-car-air-filter-vector-icon" id="_54769865-car-air-filter-vector-icon"
       transform="translate(30.366 1334.307)">
      <g data-name="#647079ff" id="_647079ff" transform="translate(0 0)">
        <path
          d="M190.614,245.343a37.707,37.707,0,0,1,8.892-.021c.753.117,1.505.239,2.245.418a5,5,0,0,1,1.8.791.566.566,0,0,1,.194.611,1.342,1.342,0,0,1-.7.6,8.267,8.267,0,0,1-1.724.573,28.875,28.875,0,0,1-4.938.552c-.429,0,.631-.5.625-.544a25.766,25.766,0,0,0,3.435-.455,3.653,3.653,0,0,0,1.568-.659.322.322,0,0,0,0-.46,3.28,3.28,0,0,0-1.256-.6,22.321,22.321,0,0,0-3.639-.489,29.506,29.506,0,0,0-7.02.369,6.712,6.712,0,0,0-1.425.432c-.208.1-.455.244-.507.49,0,.3.333.44.557.568a14.769,14.769,0,0,0,4.061.757,34.949,34.949,0,0,0,4.224.049s-.352.531-.625.544c-.8.008-1.629.052-2.428,0-.011-.02-.011-.073,0,0-.911-.037-1.823-.085-2.729-.185a20.264,20.264,0,0,1-2.814-.514,4.9,4.9,0,0,1-1.568-.653.587.587,0,0,1-.073-1.029,3.437,3.437,0,0,1,1.255-.584A14.775,14.775,0,0,1,190.614,245.343Z"
          data-name="Path 23092"
          fill="#6c6c6c"
          id="Path_23092" stroke="#6c6c6c" stroke-width="0.1" transform="translate(-186.506 -245.069)"/>
        <path
          d="M231.237,259.17a25.867,25.867,0,0,1,5.56.4,3,3,0,0,1,1.245.479.251.251,0,0,1-.025.385,2.5,2.5,0,0,1-.908.386,16.456,16.456,0,0,1-2.562.383,33.689,33.689,0,0,1-6.2-.1,10.521,10.521,0,0,1-2-.439c-.2-.1-.479-.182-.512-.437.073-.283.405-.362.64-.472a18.76,18.76,0,0,1,4.768-.577m-.782.212c.011.573,0,1.145.005,1.717.127,0,.254.006.381,0-.007-.582,0-1.164,0-1.746-.128,0-.256.012-.383.024m.84-.034c-.006.592,0,1.184,0,1.776h.375c.006-.593,0-1.185,0-1.778H231.3m.824,0c0,.591,0,1.181,0,1.773.126.006.254.007.381.008,0-.594,0-1.188,0-1.782l-.378,0m.837,0c-.009.59,0,1.181,0,1.771.126-.007.254-.014.38-.028-.008-.575,0-1.151,0-1.726l-.371-.018m-3.328.076c.009.542-.008,1.085.009,1.628l.371.024c-.013-.563.008-1.126-.011-1.689l-.37.038m4.158-.043c0,.569-.008,1.137,0,1.706.123-.008.246-.017.37-.024.007-.553,0-1.106,0-1.659l-.376-.023m-4.986.11c-.007.494,0,.987,0,1.481l.38.032c0-.514,0-1.027,0-1.54l-.375.028m5.815-.042c0,.523,0,1.047,0,1.57.119-.008.238-.016.357-.022.043-.505.008-1.014.018-1.521l-.375-.027m.828.077c.009.474-.008.948.008,1.422l.368-.049c.006-.443,0-.886,0-1.329q-.19-.028-.381-.044m-7.473.057c-.005.433-.012.866,0,1.3l.366.039c.006-.456,0-.913,0-1.369-.125.009-.25.02-.375.031m-.831.144c-.005.335,0,.67,0,1.006l.368.077c.018-.383,0-.766.011-1.149l-.376.066m9.135-.1c0,.4,0,.807.005,1.21l.371-.075c0-.358,0-.715-.006-1.072l-.371-.063m.827.178c.007.286,0,.572.006.859l.375-.135c0-.2,0-.4,0-.6-.122-.049-.251-.08-.376-.12m-10.8.2c0,.152,0,.305.007.457.121.047.244.093.368.137,0-.246,0-.492,0-.738A3.865,3.865,0,0,0,226.3,260.011Z"
          data-name="Path 23093"
          fill="#6c6c6c"
          id="Path_23093" stroke="#6c6c6c" stroke-width="0.1" transform="translate(-223.367 -258.283)"/>
        <path
          d="M455.18,285.486c.074-.113.158-.22.242-.326,0,1.647,0,3.293,0,4.94a.61.61,0,0,1-.246.455C455.178,288.866,455.175,287.176,455.18,285.486Z"
          data-name="Path 23094"
          fill="#6c6c6c"
          id="Path_23094" stroke="#6c6c6c" stroke-width="0.1" transform="translate(-438.349 -282.649)"/>
        <path
          d="M189.69,285.9a3.507,3.507,0,0,1,.328.374c.011,1.686,0,3.373,0,5.06a.674.674,0,0,1-.333-.544Q189.687,288.345,189.69,285.9Z"
          data-name="Path 23095"
          fill="#6c6c6c"
          id="Path_23095" stroke="#6c6c6c" stroke-width="0.1" transform="translate(-189.488 -283.342)"/>
        <path
          d="M439.458,295.254a3.513,3.513,0,0,0,.531-.234q0,2.477,0,4.953l-.03.157a3.894,3.894,0,0,1-.509.206C439.458,298.642,439.444,296.947,439.458,295.254Z"
          data-name="Path 23096"
          fill="#6c6c6c"
          id="Path_23096" stroke="#6c6c6c" stroke-width="0.1" transform="translate(-423.607 -291.891)"/>
        <path
          d="M202.133,295.95c.177.075.356.146.537.214,0,1.7-.006,3.4,0,5.095-.18-.08-.363-.151-.543-.229C202.139,299.336,202.133,297.643,202.133,295.95Z"
          data-name="Path 23097"
          fill="#6c6c6c"
          id="Path_23097" stroke="#6c6c6c" stroke-width="0.1" transform="translate(-201.151 -292.763)"/>
        <path
          d="M423.482,301.243a5.212,5.212,0,0,0,.535-.163c.019,1.67,0,3.34.009,5.01.028.115-.115.116-.185.145-.12.031-.24.058-.361.086C423.483,304.628,423.48,302.935,423.482,301.243Z"
          data-name="Path 23098"
          fill="#6c6c6c"
          id="Path_23098" stroke="#6c6c6c" stroke-width="0.1" transform="translate(-408.637 -297.572)"/>
        <path
          d="M218.092,301.6c.177.061.356.11.537.155,0,1.691-.008,3.381,0,5.072-.183-.036-.364-.081-.543-.13C218.1,305,218.093,303.3,218.092,301.6Z"
          data-name="Path 23099"
          fill="#6c6c6c"
          id="Path_23099" stroke="#6c6c6c" stroke-width="0.1" transform="translate(-216.112 -298.059)"/>
        <path
          d="M233.82,305.55c.179.033.359.063.538.094,0,1.7,0,3.4,0,5.1-.179-.031-.358-.062-.537-.1C233.815,308.948,233.822,307.249,233.82,305.55Z"
          data-name="Path 23100"
          fill="#6c6c6c"
          id="Path_23100" stroke="#6c6c6c" stroke-width="0.1" transform="translate(-230.856 -301.762)"/>
        <path
          d="M407.821,305.415q.268-.053.538-.095-.008,2.537,0,5.073a4.559,4.559,0,0,1-.539.119C407.819,308.813,407.816,307.114,407.821,305.415Z"
          data-name="Path 23101"
          fill="#6c6c6c"
          id="Path_23101" stroke="#6c6c6c" stroke-width="0.1" transform="translate(-393.956 -301.546)"/>
        <path
          d="M391.858,308.1c.182-.03.364-.059.547-.086q-.008,2.544,0,5.089c-.185.033-.371.058-.557.08C391.855,311.485,391.836,309.79,391.858,308.1Z"
          data-name="Path 23102"
          fill="#6c6c6c"
          id="Path_23102" stroke="#6c6c6c" stroke-width="0.1" transform="translate(-378.985 -304.068)"/>
        <path
          d="M249.453,308.19c.185.036.371.066.557.095q0,2.538,0,5.075-.281-.033-.56-.077C249.461,311.585,249.455,309.887,249.453,308.19Z"
          data-name="Path 23103"
          fill="#6c6c6c"
          id="Path_23103" stroke="#6c6c6c" stroke-width="0.1" transform="translate(-245.507 -304.236)"/>
        <path
          d="M265.45,310.41c.178.019.356.036.535.051.008,1.695,0,3.39,0,5.085l-.539-.053Q265.454,312.951,265.45,310.41Z"
          data-name="Path 23104"
          fill="#6c6c6c"
          id="Path_23104" stroke="#6c6c6c" stroke-width="0.1" transform="translate(-260.505 -306.317)"/>
        <path
          d="M376.16,310.308c.177-.018.353-.036.531-.058q.016,2.544,0,5.088-.266.022-.531.046Q376.164,312.846,376.16,310.308Z"
          data-name="Path 23105"
          fill="#6c6c6c"
          id="Path_23105" stroke="#6c6c6c" stroke-width="0.1" transform="translate(-364.281 -306.167)"/>
        <path
          d="M281.171,311.99q.273.008.546.024c.012,1.7.008,3.4,0,5.1-.183-.016-.366-.036-.548-.06C281.176,315.369,281.173,313.679,281.171,311.99Z"
          data-name="Path 23106"
          fill="#6c6c6c"
          id="Path_23106" stroke="#6c6c6c" stroke-width="0.1" transform="translate(-275.241 -307.798)"/>
        <path
          d="M360.135,311.787l.553-.037q0,2.54,0,5.079c-.185.023-.371.041-.558.048C360.144,315.181,360.133,313.484,360.135,311.787Z"
          data-name="Path 23107"
          fill="#6c6c6c"
          id="Path_23107" stroke="#6c6c6c" stroke-width="0.1" transform="translate(-349.255 -307.573)"/>
        <path
          d="M297.12,312.79q.27.008.539.021c-.011,1.7.014,3.4-.012,5.1-.176-.013-.351-.023-.527-.029Q297.127,315.338,297.12,312.79Z"
          data-name="Path 23108"
          fill="#6c6c6c"
          id="Path_23108" stroke="#6c6c6c" stroke-width="0.1" transform="translate(-290.192 -308.548)"/>
        <path
          d="M328.784,313.28c.178,0,.356,0,.534.009-.008,1.695-.006,3.39,0,5.085q-.268,0-.534.011C328.77,316.683,328.767,314.981,328.784,313.28Z"
          data-name="Path 23109"
          fill="#6c6c6c"
          id="Path_23109" stroke="#6c6c6c" stroke-width="0.1" transform="translate(-319.861 -309.008)"/>
        <path
          d="M344.483,312.744c.179,0,.358-.006.537-.014,0,1.7,0,3.4,0,5.094-.18.009-.361.018-.541.024C344.482,316.146,344.477,314.446,344.483,312.744Z"
          data-name="Path 23110"
          fill="#6c6c6c"
          id="Path_23110" stroke="#6c6c6c" stroke-width="0.1" transform="translate(-334.585 -308.492)"/>
        <path
          d="M312.688,313.31l.164.006a2.1,2.1,0,0,0,.379,0c0,.311,0,.623,0,.935-.072.068-.183.124-.177.239-.12.1-.249.187-.376.277C312.7,314.28,312.689,313.795,312.688,313.31Z"
          data-name="Path 23111"
          fill="#6c6c6c"
          id="Path_23111" stroke="#6c6c6c" stroke-width="0.1" transform="translate(-304.777 -309.036)"/>
        <path
          d="M313.334,329.93c0,1.342-.009,2.884,0,4.227-.178,0-.356.008-.534,0-.018-1.213-.036-2.658-.019-3.871A3.55,3.55,0,0,0,313.334,329.93Z"
          data-name="Path 23112"
          fill="#6c6c6c"
          id="Path_23112" stroke="#6c6c6c" stroke-width="0.1" transform="translate(-304.877 -324.79)"/>
        <path
          d="M203.63,365.507a1.593,1.593,0,0,0,.619-.687.751.751,0,0,1-.049.636,3.83,3.83,0,0,1-1.324.9s-.2.056-.262.076a15.684,15.684,0,0,1-2.724.629,32.134,32.134,0,0,1-4.45.273,25.852,25.852,0,0,1-5.412-.534c-.02.02-1.073-.286-1.578-.44a3.579,3.579,0,0,1-1.221-.71.854.854,0,0,1-.248-.652,2.364,2.364,0,0,0,.811.651,12.547,12.547,0,0,0,3.7,1,32.685,32.685,0,0,0,5.012.242,25.408,25.408,0,0,0,3.886-.363,11.639,11.639,0,0,0,1.776-.4A5.947,5.947,0,0,0,203.63,365.507Z"
          data-name="Path 23113"
          fill="#6c6c6c"
          id="Path_23113" stroke="#6c6c6c" stroke-width="0.1" transform="translate(-186.95 -357.319)"/>
      </g>
    </g>
  </g>
</svg>
