<svg xmlns="http://www.w3.org/2000/svg" width="18" height="18" viewBox="0 0 18 18">
  <g id="Group_80969" data-name="Group 80969" transform="translate(-514 -345)">
    <path id="Path_35155" data-name="Path 35155" d="M3.146,10.353l-3-3a.5.5,0,0,1,0-.707l3-3A.5.5,0,0,1,4,4v6a.5.5,0,0,1-.853.353M13.5,12H.5a.5.5,0,0,0-.5.5v1a.5.5,0,0,0,.5.5h13a.5.5,0,0,0,.5-.5v-1a.5.5,0,0,0-.5-.5m.1-4H6.4a.4.4,0,0,0-.4.4V9.6a.4.4,0,0,0,.4.4h7.2a.4.4,0,0,0,.4-.4V8.4A.4.4,0,0,0,13.6,8Zm0-4H6.4a.4.4,0,0,0-.4.4V5.6a.4.4,0,0,0,.4.4h7.2a.4.4,0,0,0,.4-.4V4.4A.4.4,0,0,0,13.6,4Zm-.1-4H.5A.5.5,0,0,0,0,.5v1A.5.5,0,0,0,.5,2h13a.5.5,0,0,0,.5-.5V.5a.5.5,0,0,0-.5-.5" transform="translate(516.001 347)" fill="#919191"/>
    <g id="Expand_Dropdown" data-name="Expand / Dropdown" transform="translate(482 346)">
      <rect id="Rectangle_62470" data-name="Rectangle 62470" width="18" height="18" transform="translate(32 -1)" fill="#b7b7b7" opacity="0"/>
    </g>
  </g>
</svg>