<svg width="14" height="14" viewBox="0 0 14 14" fill="none" xmlns="http://www.w3.org/2000/svg">
    <path d="M1.06313 9.69922H8.44313C8.5386 9.69922 8.63017 9.66129 8.69768 9.59378C8.7652 9.52627 8.80313 9.4347 8.80313 9.33922V8.25922C8.80313 8.16374 8.7652 8.07217 8.69768 8.00466C8.63017 7.93715 8.5386 7.89922 8.44313 7.89922H1.06313C0.967647 7.89922 0.87608 7.93715 0.808567 8.00466C0.741053 8.07217 0.703125 8.16374 0.703125 8.25922L0.703125 9.33922C0.703125 9.4347 0.741053 9.52627 0.808567 9.59378C0.87608 9.66129 0.967647 9.69922 1.06313 9.69922ZM1.06313 2.49922H8.44313C8.5386 2.49922 8.63017 2.46129 8.69768 2.39378C8.7652 2.32626 8.80313 2.2347 8.80313 2.13922V1.05922C8.80313 0.963742 8.7652 0.872173 8.69768 0.80466C8.63017 0.737147 8.5386 0.699219 8.44313 0.699219H1.06313C0.967647 0.699219 0.87608 0.737147 0.808567 0.80466C0.741053 0.872173 0.703125 0.963742 0.703125 1.05922L0.703125 2.13922C0.703125 2.2347 0.741053 2.32626 0.808567 2.39378C0.87608 2.46129 0.967647 2.49922 1.06313 2.49922ZM12.8531 4.29922H1.15313C1.03378 4.29922 0.919318 4.34663 0.834927 4.43102C0.750536 4.51541 0.703125 4.62987 0.703125 4.74922L0.703125 5.64922C0.703125 5.76857 0.750536 5.88303 0.834927 5.96742C0.919318 6.05181 1.03378 6.09922 1.15313 6.09922H12.8531C12.9725 6.09922 13.0869 6.05181 13.1713 5.96742C13.2557 5.88303 13.3031 5.76857 13.3031 5.64922V4.74922C13.3031 4.62987 13.2557 4.51541 13.1713 4.43102C13.0869 4.34663 12.9725 4.29922 12.8531 4.29922ZM12.8531 11.4992H1.15313C1.03378 11.4992 0.919318 11.5466 0.834927 11.631C0.750536 11.7154 0.703125 11.8299 0.703125 11.9492L0.703125 12.8492C0.703125 12.9686 0.750536 13.083 0.834927 13.1674C0.919318 13.2518 1.03378 13.2992 1.15313 13.2992H12.8531C12.9725 13.2992 13.0869 13.2518 13.1713 13.1674C13.2557 13.083 13.3031 12.9686 13.3031 12.8492V11.9492C13.3031 11.8299 13.2557 11.7154 13.1713 11.631C13.0869 11.5466 12.9725 11.4992 12.8531 11.4992Z" fill="#424242"/>
</svg>