<svg width="14" height="14" viewBox="0 0 14 14" fill="none" xmlns="http://www.w3.org/2000/svg">
    <path d="M3.76313 9.69922H10.2431C10.3386 9.69922 10.4302 9.66129 10.4977 9.59378C10.5652 9.52627 10.6031 9.4347 10.6031 9.33922V8.25922C10.6031 8.16374 10.5652 8.07217 10.4977 8.00466C10.4302 7.93715 10.3386 7.89922 10.2431 7.89922H3.76313C3.66765 7.89922 3.57608 7.93715 3.50857 8.00466C3.44105 8.07217 3.40313 8.16374 3.40313 8.25922V9.33922C3.40313 9.4347 3.44105 9.52627 3.50857 9.59378C3.57608 9.66129 3.66765 9.69922 3.76313 9.69922ZM3.76313 2.49922H10.2431C10.3386 2.49922 10.4302 2.46129 10.4977 2.39378C10.5652 2.32626 10.6031 2.2347 10.6031 2.13922V1.05922C10.6031 0.963742 10.5652 0.872173 10.4977 0.80466C10.4302 0.737147 10.3386 0.699219 10.2431 0.699219H3.76313C3.66765 0.699219 3.57608 0.737147 3.50857 0.80466C3.44105 0.872173 3.40313 0.963742 3.40313 1.05922V2.13922C3.40313 2.2347 3.44105 2.32626 3.50857 2.39378C3.57608 2.46129 3.66765 2.49922 3.76313 2.49922ZM12.8531 4.29922H1.15313C1.03378 4.29922 0.919318 4.34663 0.834927 4.43102C0.750536 4.51541 0.703125 4.62987 0.703125 4.74922L0.703125 5.64922C0.703125 5.76857 0.750536 5.88303 0.834927 5.96742C0.919318 6.05181 1.03378 6.09922 1.15313 6.09922H12.8531C12.9725 6.09922 13.0869 6.05181 13.1713 5.96742C13.2557 5.88303 13.3031 5.76857 13.3031 5.64922V4.74922C13.3031 4.62987 13.2557 4.51541 13.1713 4.43102C13.0869 4.34663 12.9725 4.29922 12.8531 4.29922ZM12.8531 11.4992H1.15313C1.03378 11.4992 0.919318 11.5466 0.834927 11.631C0.750536 11.7154 0.703125 11.8299 0.703125 11.9492L0.703125 12.8492C0.703125 12.9686 0.750536 13.083 0.834927 13.1674C0.919318 13.2518 1.03378 13.2992 1.15313 13.2992H12.8531C12.9725 13.2992 13.0869 13.2518 13.1713 13.1674C13.2557 13.083 13.3031 12.9686 13.3031 12.8492V11.9492C13.3031 11.8299 13.2557 11.7154 13.1713 11.631C13.0869 11.5466 12.9725 11.4992 12.8531 11.4992Z" fill="#919191"/>
</svg>