<svg width="14" height="14" viewBox="0 0 14 14" fill="none" xmlns="http://www.w3.org/2000/svg">
    <path d="M12.9431 9.69922H5.56313C5.46765 9.69922 5.37608 9.66129 5.30857 9.59378C5.24105 9.52627 5.20312 9.4347 5.20312 9.33922V8.25922C5.20312 8.16374 5.24105 8.07217 5.30857 8.00466C5.37608 7.93715 5.46765 7.89922 5.56313 7.89922H12.9431C13.0386 7.89922 13.1302 7.93715 13.1977 8.00466C13.2652 8.07217 13.3031 8.16374 13.3031 8.25922V9.33922C13.3031 9.4347 13.2652 9.52627 13.1977 9.59378C13.1302 9.66129 13.0386 9.69922 12.9431 9.69922ZM12.9431 2.49922H5.56313C5.46765 2.49922 5.37608 2.46129 5.30857 2.39378C5.24105 2.32626 5.20312 2.2347 5.20312 2.13922V1.05922C5.20312 0.963742 5.24105 0.872173 5.30857 0.80466C5.37608 0.737147 5.46765 0.699219 5.56313 0.699219H12.9431C13.0386 0.699219 13.1302 0.737147 13.1977 0.80466C13.2652 0.872173 13.3031 0.963742 13.3031 1.05922V2.13922C13.3031 2.2347 13.2652 2.32626 13.1977 2.39378C13.1302 2.46129 13.0386 2.49922 12.9431 2.49922ZM1.15313 4.29922H12.8531C12.9725 4.29922 13.0869 4.34663 13.1713 4.43102C13.2557 4.51541 13.3031 4.62987 13.3031 4.74922V5.64922C13.3031 5.76857 13.2557 5.88303 13.1713 5.96742C13.0869 6.05181 12.9725 6.09922 12.8531 6.09922H1.15313C1.03378 6.09922 0.919318 6.05181 0.834927 5.96742C0.750536 5.88303 0.703125 5.76857 0.703125 5.64922V4.74922C0.703125 4.62987 0.750536 4.51541 0.834927 4.43102C0.919318 4.34663 1.03378 4.29922 1.15313 4.29922ZM1.15313 11.4992H12.8531C12.9725 11.4992 13.0869 11.5466 13.1713 11.631C13.2557 11.7154 13.3031 11.8299 13.3031 11.9492V12.8492C13.3031 12.9686 13.2557 13.083 13.1713 13.1674C13.0869 13.2518 12.9725 13.2992 12.8531 13.2992H1.15313C1.03378 13.2992 0.919318 13.2518 0.834927 13.1674C0.750536 13.083 0.703125 12.9686 0.703125 12.8492V11.9492C0.703125 11.8299 0.750536 11.7154 0.834927 11.631C0.919318 11.5466 1.03378 11.4992 1.15313 11.4992Z" fill="#919191"/>
</svg>