<svg width="26" height="26" viewBox="0 0 26 26" fill="none" xmlns="http://www.w3.org/2000/svg">
<rect width="26" height="26" rx="3" fill="#EEEEEE"/>
<path d="M17.2358 13.5932L11.5868 19.2452C11.4284 19.4034 11.2137 19.4922 10.9898 19.4922C10.766 19.4922 10.5513 19.4034 10.3928 19.2452L9.59284 18.4452C9.43523 18.2867 9.34676 18.0722 9.34676 17.8487C9.34676 17.6252 9.43523 17.4107 9.59284 17.2522L13.8228 12.9932L9.58284 8.7312C9.42474 8.57294 9.33594 8.35839 9.33594 8.1347C9.33594 7.911 9.42474 7.69645 9.58284 7.5382L10.3828 6.7382C10.5411 6.5801 10.7556 6.49129 10.9793 6.49129C11.203 6.49129 11.4176 6.5801 11.5758 6.7382L17.2358 12.4032C17.3933 12.5612 17.4817 12.7752 17.4817 12.9982C17.4817 13.2212 17.3933 13.4352 17.2358 13.5932Z" fill="#424242"/>
</svg>
