<svg width="26" height="26" viewBox="0 0 26 26" fill="none" xmlns="http://www.w3.org/2000/svg">
<path d="M8.76416 13.5932L14.4132 19.2452C14.5716 19.4034 14.7863 19.4922 15.0102 19.4922C15.234 19.4922 15.4487 19.4034 15.6072 19.2452L16.4072 18.4452C16.5648 18.2867 16.6532 18.0722 16.6532 17.8487C16.6532 17.6252 16.5648 17.4107 16.4072 17.2522L12.1772 12.9932L16.4172 8.7312C16.5753 8.57294 16.6641 8.35839 16.6641 8.1347C16.6641 7.911 16.5753 7.69645 16.4172 7.5382L15.6172 6.7382C15.4589 6.5801 15.2444 6.49129 15.0207 6.49129C14.797 6.49129 14.5824 6.5801 14.4242 6.7382L8.76416 12.4032C8.60673 12.5612 8.51834 12.7752 8.51834 12.9982C8.51834 13.2212 8.60673 13.4352 8.76416 13.5932Z" fill="#919191"/>
</svg>
