<svg width="18" height="16" viewBox="0 0 18 16" fill="none" xmlns="http://www.w3.org/2000/svg">
<path d="M4.19082 8.95635H3.33582V13.7376H9.00019V3.21885H4.19082V8.95635ZM1.41207 8.0001C0.883039 8.0001 0.450195 8.42742 0.450195 8.95635V13.7376C0.450195 14.2653 0.883039 14.6938 1.41207 14.6938C1.9411 14.6938 2.37394 14.2653 2.37394 13.7376V8.95635C2.37394 8.42742 1.9411 8.0001 1.41207 8.0001ZM16.5883 3.21885H12.3651C11.9803 3.21885 11.6046 3.33061 11.298 3.54158L10.3949 4.84866C10.1244 5.02377 9.96207 5.3226 9.96207 5.64234V13.2266C9.96207 13.546 10.1256 13.8443 10.3949 14.0221L11.298 15.3274C11.6046 15.5395 11.9803 15.6501 12.3651 15.6501H16.5883C17.1174 15.6501 17.5502 15.2216 17.5502 14.6938V4.1751C17.5502 3.64617 17.1174 3.21885 16.5883 3.21885ZM15.1455 12.7813H12.2599C11.9905 12.7813 11.7789 12.5671 11.7789 12.3032C11.7789 12.0393 11.9905 11.8251 12.2599 11.8251H15.1455C15.4149 11.8251 15.6264 12.0393 15.6264 12.3032C15.6264 12.5671 15.389 12.7813 15.1455 12.7813ZM15.1455 9.9126H12.2599C11.9894 9.9126 11.7789 9.69744 11.7789 9.43447C11.7789 9.1715 11.9894 8.95635 12.2599 8.95635H15.1455C15.389 8.95635 15.6264 9.1715 15.6264 9.43447C15.6264 9.69744 15.389 9.9126 15.1455 9.9126ZM15.1455 7.04385H12.2599C11.9894 7.04385 11.7789 6.82869 11.7789 6.56572C11.7789 6.30275 11.9894 6.0876 12.2599 6.0876H15.1455C15.389 6.0876 15.6264 6.30275 15.6264 6.56572C15.6264 6.82869 15.389 7.04385 15.1455 7.04385ZM9.00019 0.350098H4.19082C3.66179 0.350098 3.22895 0.778617 3.22895 1.30635C3.22895 1.83408 3.66179 2.2626 4.19082 2.2626H9.00019C9.52923 2.2626 9.96207 1.83408 9.96207 1.30635C9.96207 0.778617 9.52923 0.350098 9.00019 0.350098Z" fill="#DADADA"/>
</svg>
