<svg xmlns="http://www.w3.org/2000/svg" width="165" height="30" viewBox="0 0 165 30"><g transform="translate(136 -9728)"><rect width="165" height="30" transform="translate(-136 9728)" fill="#aaa" opacity="0"/><path d="M107.765,13.946c0-.143.014-.286.014-.429q0-6.518,0-13.037V.068h4.654v11.5h9.751v2.376Zm-16.272,0c-.2-.041-.4-.089-.6-.123a2.572,2.572,0,0,1-2.223-2.4,9.039,9.039,0,0,1-.088-1.347c0-2.282,0-4.564.025-6.845a4.958,4.958,0,0,1,.233-1.357,2.581,2.581,0,0,1,2.5-1.813c.11-.011.22-.017.33-.017C94.233.029,96.8.007,99.365,0q1.5,0,3,.053a5.066,5.066,0,0,1,1.167.186,2.444,2.444,0,0,1,1.763,2.1,7.463,7.463,0,0,1,.13,1.342q.02,3.372,0,6.746a6.294,6.294,0,0,1-.153,1.339,2.554,2.554,0,0,1-2.427,2.109,2.4,2.4,0,0,0-.308.074ZM94,2.35c-.617,0-.779.161-.78.782q0,1.917,0,3.834,0,1.9,0,3.8c0,.639.169.81.793.81H99.99c.639,0,.82-.153.822-.789q.014-3.852,0-7.7c0-.572-.2-.737-.769-.737H94Zm-11.235,11.6c-.1-.1-.2-.207-.3-.3Q79.3,10.836,76.147,8.03c-.054-.048-.124-.12-.125-.181-.009-.69-.005-1.38-.005-2.095h.4q2.514,0,5.027,0c.421,0,.579-.095.594-.485.031-.756.014-1.514,0-2.272-.009-.577-.088-.647-.653-.648H74.714a.659.659,0,0,0-.028.084q0,5.756,0,11.512H70.06V.112h.422q6.746,0,13.493,0a2.481,2.481,0,0,1,2.681,2.554,20.619,20.619,0,0,1-.072,3.057A2.1,2.1,0,0,1,84.561,7.7c-.915.1-1.845.071-2.769.1-.137,0-.274,0-.412,0-.012.031-.024.063-.036.095.108.1.208.2.323.289q3.683,2.816,7.371,5.63a1.528,1.528,0,0,1,.139.137Zm-24.938,0a2.436,2.436,0,0,1-1.862-1.584c-1.371-3.227-2.754-6.449-4.12-9.678a.463.463,0,0,0-.5-.341c-3.362.009-6.724.006-10.087.008a2.427,2.427,0,0,0-.461.031.459.459,0,0,0-.427.437c-.015.856-.005,1.713-.005,2.608h9.771V7.74H40.344v2.725c0,1.022.09,1.113,1.1,1.113H51.01v2.367h-11.7a5.775,5.775,0,0,1-.953-.078c-.095-.016-.189-.032-.283-.049a2.5,2.5,0,0,1-2.261-2.309,12.5,12.5,0,0,1-.128-1.74c-.016-1.787-.027-3.573,0-5.36a12.778,12.778,0,0,1,.219-2.323A2.4,2.4,0,0,1,38.088.135,7.023,7.023,0,0,1,39.2.049Q47.423.041,55.641.038a.516.516,0,0,1,.571.389q2.12,5.4,4.257,10.8a.586.586,0,0,0,1.116,0C63.008,7.633,64.443,4.05,65.861.461a.545.545,0,0,1,.613-.426c1.022.028,2.047.01,3.117.01-.305.728-.59,1.416-.88,2.1q-2.165,5.117-4.332,10.233a2.21,2.21,0,0,1-1.3,1.446c-.122.039-.244.08-.364.12Zm-29.106,0V7.738H21.31c-.007.07-.015.114-.015.157q.006,3.026.014,6.051h-4.7V.069h4.673V5.463H28.7V.079h4.7v.4q0,6.518,0,13.036c0,.143.009.286.015.429Zm-25.533,0c-.256-.041-.513-.073-.767-.124a2.616,2.616,0,0,1-2.33-2.65C.026,10.139.015,9.1.009,8.069,0,6.536-.017,5,.04,3.472A6.319,6.319,0,0,1,.413,1.584,2.318,2.318,0,0,1,2.426.134,8.179,8.179,0,0,1,3.64.049Q8.931.04,14.222.045h.416v2.3h-.429q-4.315,0-8.63,0h-.1a.771.771,0,0,0-.39.054,1.061,1.061,0,0,0-.392.422,1.1,1.1,0,0,0-.057.485q0,3.639,0,7.277a2.581,2.581,0,0,0,0,.264c.058.549.19.675.745.712.143.009.286.013.43.013h9.2v2.367Zm140.368,0V2.349h-8.333v0c-1.49,0-2.808,0-4.243,0h-2.768a2.537,2.537,0,0,0-.461.031.46.46,0,0,0-.427.437c-.015.856-.006,1.713-.006,2.608h9.771V7.74H127.3v2.726c0,1.021.09,1.112,1.1,1.113h9.561v2.367h-11.7a5.885,5.885,0,0,1-.954-.078l-.283-.049a2.5,2.5,0,0,1-2.26-2.309,12.36,12.36,0,0,1-.129-1.74c-.016-1.786-.027-3.573,0-5.36a12.863,12.863,0,0,1,.219-2.323A2.4,2.4,0,0,1,125.047.135a7.017,7.017,0,0,1,1.116-.086c5.479-.005,20.512,0,26.865,0h.486v2.3h-5.333v11.6Z" transform="translate(-135.999 9736.027)" fill="#aaa"/></g></svg>