<svg width="14" height="14" viewBox="0 0 14 14" fill="none" xmlns="http://www.w3.org/2000/svg">
<path d="M13.6494 7.0001C13.6494 8.31534 13.2594 9.60105 12.5286 10.6946C11.7979 11.7882 10.7593 12.6406 9.54421 13.1439C8.32908 13.6472 6.99199 13.7789 5.70202 13.5223C4.41204 13.2657 3.22713 12.6324 2.29711 11.7024C1.36709 10.7723 0.733738 9.58742 0.477146 8.29745C0.220554 7.00747 0.352247 5.67038 0.85557 4.45525C1.35889 3.24012 2.21124 2.20154 3.30483 1.47082C4.39841 0.740114 5.68412 0.350098 6.99937 0.350098C8.76306 0.350098 10.4545 1.05072 11.7016 2.29784C12.9487 3.54495 13.6494 5.23641 13.6494 7.0001ZM6.23015 10.5211L11.1605 5.58765C11.2408 5.50716 11.286 5.39806 11.286 5.28432C11.286 5.17058 11.2408 5.06148 11.1605 4.98099L10.5538 4.37432C10.4733 4.29396 10.3642 4.24882 10.2505 4.24882C10.1367 4.24882 10.0276 4.29396 9.94715 4.37432L5.9237 8.39776L4.04537 6.51943C3.96487 6.43907 3.85578 6.39393 3.74204 6.39393C3.62829 6.39393 3.5192 6.43907 3.4387 6.51943L2.83204 7.1261C2.75167 7.20659 2.70654 7.31569 2.70654 7.42943C2.70654 7.54317 2.75167 7.65227 2.83204 7.73276L5.62037 10.5211C5.66028 10.5614 5.70778 10.5933 5.7601 10.6151C5.81243 10.6369 5.86857 10.6482 5.92526 10.6482C5.98195 10.6482 6.03808 10.6369 6.09041 10.6151C6.14274 10.5933 6.19023 10.5614 6.23015 10.5211Z" fill="#56B4AC"/>
</svg>
