<svg width="18" height="16" viewBox="0 0 18 16" fill="none" xmlns="http://www.w3.org/2000/svg">
<path d="M6.94953 0.799805H11.0509C11.7422 0.799805 12.3534 1.22473 12.5705 1.85473L12.9178 2.85695H15.4127C16.5917 2.85695 17.5502 3.77945 17.5502 4.91409V13.1427C17.5502 14.2773 16.5917 15.1998 15.4127 15.1998H2.5877C1.40706 15.1998 0.450195 14.2773 0.450195 13.1427V4.91409C0.450195 3.77945 1.40706 2.85695 2.5877 2.85695H5.08256L5.4299 1.85473C5.64699 1.22473 6.25818 0.799805 6.94953 0.799805ZM9.00019 12.1141C10.7703 12.1141 12.2064 10.7319 12.2064 9.02838C12.2064 7.29588 10.7703 5.94266 9.00019 5.94266C7.20002 5.94266 5.79394 7.29588 5.79394 9.02838C5.79394 10.7319 7.20002 12.1141 9.00019 12.1141Z" fill="#919191"/>
</svg>
