<svg width="18" height="14" viewBox="0 0 18 14" fill="none" xmlns="http://www.w3.org/2000/svg">
<path d="M9.00019 8.68757C8.29482 8.68757 7.71769 9.25709 7.71769 9.95318V11.2188H10.2827V9.95318C10.2827 9.25709 9.70557 8.68757 9.00019 8.68757ZM5.58019 3.62514C5.10994 3.62514 4.72519 4.00482 4.72519 4.46888V7.00009C4.72519 7.46605 5.10802 7.84383 5.58019 7.84383C6.05248 7.84383 6.43519 7.46605 6.43519 7.00009V4.46888C6.43519 4.00482 6.05044 3.62514 5.58019 3.62514ZM12.4202 3.62514C11.948 3.62514 11.5652 4.00293 11.5652 4.46888V7.00009C11.5652 7.46605 11.948 7.84383 12.4202 7.84383C12.8925 7.84383 13.2752 7.46605 13.2752 7.00009V4.46888C13.2752 4.00482 12.8904 3.62514 12.4202 3.62514ZM14.7982 13.4652C14.6033 13.6498 14.3416 13.75 14.0687 13.75H3.92898C3.65618 13.75 3.3946 13.6498 3.19955 13.4652C1.50772 11.8199 0.450195 9.53658 0.450195 6.95263C0.450195 4.41615 1.50772 2.13278 3.20009 0.487491C3.3946 0.350383 3.65645 0.244916 3.92898 0.250189H14.0714C14.3442 0.244937 14.6058 0.350383 14.8008 0.534951C16.4921 2.18024 17.5502 4.46361 17.5502 6.95263C17.5502 9.53658 16.4921 11.8199 14.7982 13.4652Z" fill="#DADADA"/>
</svg>
