<svg width="18" height="16" viewBox="0 0 18 16" fill="none" xmlns="http://www.w3.org/2000/svg">
<path d="M13.9504 0.799805H7.65039C7.40008 0.799805 7.20039 1.0002 7.20039 1.2498V4.3998H2.70039V1.2498C2.70039 1.0002 2.50014 0.799805 2.25039 0.799805H1.35039C1.10078 0.799805 0.900391 1.0002 0.900391 1.2498V14.7498C0.900391 15.0001 1.10078 15.1998 1.35039 15.1998H2.25039C2.50014 15.1998 2.70039 15.0001 2.70039 14.7498V13.3998H15.3004V14.7498C15.3004 14.9994 15.5008 15.1998 15.7504 15.1998H16.6504C16.9 15.1998 17.1004 14.9994 17.1004 14.7498V3.9498C17.1004 2.20943 15.6913 0.799805 13.9504 0.799805ZM15.3004 8.31762C14.8785 8.10949 14.4173 8.00262 13.9504 7.9998H7.65039C7.40008 7.9998 7.20039 8.19949 7.20039 8.4498V11.5998H2.70039V6.1998H15.3004V8.31762ZM4.95039 10.6998C5.6957 10.6998 6.30039 10.0951 6.30039 9.3498C6.30039 8.60449 5.6957 7.9998 4.95039 7.9998C4.20508 7.9998 3.60039 8.60449 3.60039 9.3498C3.60039 10.0951 4.20508 10.6998 4.95039 10.6998ZM4.95039 3.4998C5.6957 3.4998 6.30039 2.89512 6.30039 2.1498C6.30039 1.40449 5.6957 0.799805 4.95039 0.799805C4.20508 0.799805 3.60039 1.40449 3.60039 2.1498C3.60039 2.89512 4.20508 3.4998 4.95039 3.4998Z" fill="#919191"/>
</svg>
