<svg width="101" height="100" viewBox="0 0 101 100" fill="none" xmlns="http://www.w3.org/2000/svg">
<g opacity="0.75">
<path d="M79.2441 26.1609C79.2441 19.6341 73.2118 14.3401 65.7739 14.3401C58.336 14.3401 52.3037 19.6341 52.3037 26.1609C52.3037 26.1609 54.5287 29.4405 60.1513 28.6347C65.7739 27.8289 73.003 34.2752 73.003 34.2752L79.2441 26.1609Z" fill="#BED0F9"/>
<path d="M98.0633 38.6827C98.0648 40.7613 97.6239 42.8161 96.7701 44.71V44.7986C95.6234 47.2913 93.7997 49.4093 91.5082 50.91C89.2167 52.4107 86.5501 53.2333 83.8139 53.2835H16.0534C12.4319 53.2835 8.95867 51.8403 6.39787 49.2714C3.83708 46.7024 2.39844 43.2182 2.39844 39.5852C2.39844 35.9522 3.83708 32.468 6.39787 29.899C8.95867 27.3301 12.4319 25.8869 16.0534 25.8869H16.6237C19.9012 26.0265 23.019 27.3451 25.4069 29.6016C27.7949 31.858 29.2932 34.9014 29.628 38.1751L37.2346 23.0828L50.0863 23.2842L52.3674 24.6621L57.8856 27.9819L69.3879 34.9197C70.1198 32.5863 71.3835 30.4561 73.0789 28.6979C74.7743 26.9398 76.8547 25.6021 79.1552 24.791C80.555 24.3157 82.0229 24.0735 83.5007 24.0739C87.3474 24.124 91.0225 25.6792 93.7428 28.4081C96.463 31.137 98.0133 34.8238 98.0633 38.6827Z" fill="#6692F1"/>
<path d="M60.5521 52.0022C67.8717 52.0022 73.8055 46.7712 73.8055 40.3184C73.8055 33.8656 67.8717 28.6345 60.5521 28.6345C53.2325 28.6345 47.2988 33.8656 47.2988 40.3184C47.2988 46.7712 53.2325 52.0022 60.5521 52.0022Z" fill="#92B1F5"/>
<path d="M37.5397 42.3651C49.2999 42.3651 58.8334 33.2884 58.8334 22.0916C58.8334 10.8949 49.2999 1.81812 37.5397 1.81812C25.7796 1.81812 16.2461 10.8949 16.2461 22.0916C16.2461 33.2884 25.7796 42.3651 37.5397 42.3651Z" fill="#6692F1"/>
<path d="M16.3749 53.2915C24.1381 53.2915 30.4314 46.9782 30.4314 39.1903C30.4314 31.4024 24.1381 25.0891 16.3749 25.0891C8.61169 25.0891 2.31836 31.4024 2.31836 39.1903C2.31836 46.9782 8.61169 53.2915 16.3749 53.2915Z" fill="#3B73ED"/>
<path d="M58.6406 22.4866C58.6406 22.4866 58.8414 26.6605 57.251 29.6419C57.251 29.6419 65.7733 27.8289 70.5926 32.6636C71.518 30.4464 72.9948 28.5044 74.8819 27.0231C74.8819 27.0231 63.0021 30.2382 58.6406 22.4866Z" fill="#0B49D1"/>
<path d="M83.3642 53.2915C91.4823 53.2915 98.0633 46.6895 98.0633 38.5456C98.0633 30.4017 91.4823 23.7998 83.3642 23.7998C75.2461 23.7998 68.665 30.4017 68.665 38.5456C68.665 46.6895 75.2461 53.2915 83.3642 53.2915Z" fill="#92B1F5"/>
<path d="M29.628 43.1388C37.7487 54.0652 46.9537 42.5586 39.0258 39.5772C31.5237 36.757 56.6969 40.9712 56.6969 40.9712C56.6969 40.9712 61.6529 48.7148 69.3799 42.9534C69.3799 42.9534 72.7455 50.1088 84.0389 50.1088C90.4648 50.1088 94.3685 48.4972 96.7701 44.7987C95.6234 47.2913 93.7998 49.4094 91.5083 50.9101C89.2168 52.4108 86.5501 53.2334 83.814 53.2836H16.0534C13.8982 53.2851 11.7731 52.7749 9.85215 51.7945C7.93116 50.8142 6.26878 49.3916 5.00098 47.6431C7.86851 49.6978 14.1739 53.5978 21.7965 50.4956C28.0216 47.9735 29.628 43.1388 29.628 43.1388Z" fill="#0B49D1"/>
<path d="M65.4285 39.5289H59.0026C58.5441 39.5289 58.1001 39.6901 57.7479 39.9846C57.3957 40.279 57.1575 40.688 57.0749 41.1404C56.3921 44.984 55.6612 61.2286 39.8134 53.2836C42.3597 52.8243 44.2633 52.4778 45.3637 48.3925C45.8946 46.1699 46.204 43.8998 46.2875 41.6159C46.2984 41.3847 46.2713 41.1533 46.2071 40.9309C46.0875 40.5239 45.8398 40.1666 45.501 39.9124C45.1623 39.6583 44.7506 39.5209 44.3276 39.5208H38.1829C37.8377 39.5223 37.5044 39.3941 37.2487 39.1615C36.993 38.9288 36.8334 38.6086 36.8013 38.2638C36.78 38.06 36.8051 37.8541 36.8747 37.6615C36.9442 37.4689 37.0565 37.2946 37.2029 37.1518L50.8578 23.4535C51.1182 23.1937 51.4705 23.0479 51.8378 23.0479C52.205 23.0479 52.5573 23.1937 52.8177 23.4535L66.4727 37.1518C66.6702 37.3506 66.8034 37.6045 66.8547 37.8805C66.9061 38.1564 66.8732 38.4415 66.7603 38.6983C66.6475 38.9552 66.46 39.1719 66.2223 39.3201C65.9847 39.4683 65.708 39.5411 65.4285 39.5289Z" fill="white"/>
<path d="M65.4285 39.5288H59.0027C58.5442 39.5288 58.1002 39.69 57.748 39.9845C57.3958 40.2789 57.1576 40.6879 57.0749 41.1403C56.3922 44.9839 55.6612 61.2285 39.8135 53.2835C42.3597 52.8242 44.2634 52.4777 45.3638 48.3924C45.8859 48.5938 54.1993 51.6155 56.2797 41.6883C57.7898 34.4362 68.4647 42.623 64.0389 34.7747L66.4486 37.192C66.6309 37.3912 66.7515 37.6392 66.7957 37.9058C66.84 38.1725 66.806 38.4463 66.6979 38.694C66.5898 38.9416 66.4122 39.1524 66.1869 39.3006C65.9615 39.4488 65.698 39.5281 65.4285 39.5288Z" fill="#DADADA"/>
<path d="M46.2147 40.7133C46.2227 40.7883 46.2227 40.864 46.2147 40.939C46.095 40.5319 45.8473 40.1746 45.5085 39.9205C45.1698 39.6663 44.7581 39.5289 44.3351 39.5288H38.1823C37.8371 39.5303 37.5039 39.4022 37.2482 39.1695C36.9925 38.9369 36.8329 38.6166 36.8008 38.2718C37.8568 38.499 38.9445 38.5372 40.0137 38.3846C43.1865 38.1832 46.0781 37.6675 46.2147 40.7133Z" fill="#DADADA"/>
</g>
<path d="M64.5816 86.0646L33.7214 96.2738C33.6017 96.3141 33.4753 96.3302 33.3494 96.3212C33.2234 96.3122 33.1005 96.2782 32.9878 96.2213C32.875 96.1643 32.7746 96.0855 32.6923 95.9894C32.6101 95.8934 32.5476 95.7819 32.5086 95.6615L31.7053 93.2441L31.633 93.0346L21.93 63.4785C21.8886 63.3579 21.8716 63.2303 21.88 63.103C21.8884 62.9758 21.922 62.8515 21.9788 62.7375C22.0357 62.6234 22.1146 62.5219 22.2111 62.4388C22.3075 62.3557 22.4195 62.2928 22.5405 62.2537L53.1516 52.133L53.4006 52.0525C53.5203 52.0122 53.6468 51.9961 53.7727 52.0051C53.8986 52.0142 54.0215 52.0481 54.1343 52.1051C54.247 52.162 54.3475 52.2408 54.4297 52.3369C54.5119 52.4329 54.5744 52.5444 54.6135 52.6648L58.3164 63.9458L65.192 84.8962C65.2586 85.1323 65.2325 85.3851 65.1189 85.6024C65.0053 85.8198 64.813 85.9852 64.5816 86.0646Z" fill="#F2F2F2"/>
<path d="M64.5833 86.0633L33.7231 96.2726C33.6034 96.3129 33.477 96.329 33.3511 96.3199C33.2251 96.3109 33.1022 96.277 32.9895 96.22C32.8767 96.1631 32.7763 96.0843 32.694 95.9882C32.6118 95.8921 32.5493 95.7807 32.5103 95.6602L31.707 93.2429C32.2825 93.5477 32.916 93.7262 33.5655 93.7665C34.2151 93.8068 34.8657 93.7079 35.4742 93.4765C37.4031 92.8715 39.0949 91.6758 40.3121 90.0573C41.5294 88.4388 42.211 86.4786 42.2615 84.4518C42.2615 80.5196 41.2655 67.6512 58.3261 63.9204L65.2018 84.8708C65.2751 85.1112 65.2514 85.3709 65.1357 85.594C65.02 85.8171 64.8216 85.9856 64.5833 86.0633Z" fill="#EBEBEB"/>
<path d="M52.6197 56.2737L53.6157 59.2953L57.6319 71.4949L59.4472 77.0226C59.4772 77.1125 59.4892 77.2075 59.4825 77.3021C59.4757 77.3967 59.4503 77.489 59.4077 77.5737C59.3651 77.6584 59.3062 77.7338 59.2344 77.7955C59.1626 77.8571 59.0793 77.9039 58.9893 77.9331L56.2182 78.8436L33.4144 86.4261C33.2333 86.4848 33.0365 86.4695 32.8665 86.3835C32.6966 86.2975 32.5674 86.1478 32.5068 85.9668L25.6874 65.1776C25.6571 65.0881 25.6447 64.9936 25.651 64.8994C25.6572 64.8052 25.682 64.7132 25.7238 64.6286C25.7655 64.544 25.8236 64.4685 25.8945 64.4064C25.9655 64.3444 26.0479 64.297 26.1372 64.267L51.7121 55.8063C51.8942 55.7501 52.091 55.7675 52.2606 55.8548C52.4301 55.9421 52.559 56.0924 52.6197 56.2737Z" fill="white"/>
<path d="M53.6128 59.2969L57.6289 71.4964L59.4442 77.0241C59.4743 77.114 59.4863 77.209 59.4795 77.3036C59.4727 77.3982 59.4473 77.4906 59.4047 77.5752C59.3622 77.6599 59.3033 77.7353 59.2314 77.797C59.1596 77.8587 59.0763 77.9055 58.9864 77.9346L56.2152 78.8452L33.4115 86.4276C33.2304 86.4863 33.0335 86.471 32.8636 86.385C32.6937 86.299 32.5644 86.1493 32.5038 85.9683L31.7568 83.6799C32.9777 77.7574 36.9537 66.283 49.6207 60.6425C50.9075 60.0722 52.2438 59.6217 53.6128 59.2969Z" fill="#F9F9F9"/>
<path d="M57.6234 71.4912L59.4387 77.0189C59.4688 77.1088 59.4808 77.2038 59.474 77.2984C59.4673 77.393 59.4419 77.4853 59.3993 77.57C59.3567 77.6547 59.2978 77.7301 59.226 77.7918C59.1542 77.8535 59.0709 77.9002 58.9809 77.9294L56.2178 78.84C57.0738 76.4812 57.5484 74.0003 57.6234 71.4912Z" fill="#F2F2F2"/>
<path d="M47.6384 75.6428C47.3532 76.1611 46.9664 76.616 46.5011 76.9803C46.0359 77.3445 45.502 77.6104 44.9315 77.762C43.8139 78.1977 42.5703 78.1745 41.4696 77.6975L41.0117 74.7645L46.064 72.7983L47.6384 75.6428Z" fill="#FFC979"/>
<path d="M38.8444 73.2437C38.5311 73.3807 38.1054 73.1389 37.76 72.6796C37.6408 72.5159 37.5385 72.3404 37.4548 72.1559C37.1014 71.3501 37.1496 70.5443 37.5673 70.3831C37.6618 70.3498 37.763 70.3398 37.8622 70.3538C37.9614 70.3678 38.0559 70.4055 38.1376 70.4637C38.5009 70.7135 38.7808 71.0673 38.9408 71.479C39.3103 72.2606 39.2701 73.0583 38.8444 73.2437Z" fill="#FFE3BF"/>
<path d="M38.8432 73.2414C38.5299 73.3784 38.1042 73.1366 37.7588 72.6773C37.9435 72.7579 38.6263 72.9835 38.562 72.073C38.4901 71.5169 38.3386 70.9741 38.1122 70.4614C38.4755 70.7112 38.7554 71.065 38.9154 71.4767C39.309 72.2583 39.2689 73.056 38.8432 73.2414Z" fill="#FFD9A0"/>
<path d="M47.4703 68.8376C47.655 69.6433 47.4703 70.4491 46.9964 70.5458C46.5225 70.6425 46.0405 70.0462 45.8558 69.2002C45.7929 68.9365 45.7713 68.6647 45.7915 68.3944C45.8317 67.8948 46.0245 67.5241 46.3217 67.4597C46.421 67.4282 46.5276 67.4282 46.6269 67.4597C46.8621 67.6105 47.0602 67.8128 47.2063 68.0515C47.3524 68.2901 47.4426 68.5589 47.4703 68.8376Z" fill="#FFE3BF"/>
<path d="M47.4703 68.8383C47.655 69.6441 47.4703 70.4499 46.9964 70.5466C46.5225 70.6433 46.0405 70.047 45.8558 69.2009C45.7929 68.9373 45.7713 68.6655 45.7915 68.3952L46.4582 68.8706C46.5406 68.9284 46.6388 68.9593 46.7394 68.9592C46.892 68.9592 47.0847 68.8706 47.0687 68.4677C47.0432 68.0999 46.8864 67.7537 46.6269 67.4927C46.8582 67.6402 47.0538 67.8374 47.1997 68.0702C47.3456 68.3029 47.438 68.5653 47.4703 68.8383Z" fill="#FFD9A0"/>
<path d="M46.8308 69.642C47.5136 72.6959 46.365 75.4194 44.3408 76.0882C43.6324 76.2732 42.8878 76.267 42.1825 76.0703C41.4772 75.8737 40.8363 75.4934 40.3247 74.9682C39.532 74.253 38.9043 73.3731 38.4853 72.3897C37.2403 69.5614 37.6258 66.3624 39.409 64.9362C39.7238 64.6874 40.0801 64.4964 40.4612 64.3721C41.1904 64.1712 41.9607 64.177 42.6868 64.389C43.4128 64.6009 44.066 65.0107 44.5738 65.5728C45.4321 66.4097 46.0887 67.4321 46.4935 68.5622C46.6277 68.9149 46.7403 69.2755 46.8308 69.642Z" fill="#FFE3BF"/>
<path d="M46.8362 69.6432C47.519 72.6971 46.3704 75.4207 44.3462 76.0895C43.6378 76.2745 42.8932 76.2683 42.1879 76.0716C41.4826 75.8749 40.8417 75.4947 40.3301 74.9695C41.9365 75.1548 46.5632 75.0984 46.4828 68.5796C46.6218 68.9267 46.7399 69.2819 46.8362 69.6432Z" fill="#FFD9A0"/>
<path d="M37.6588 70.3077C37.6957 70.3579 37.747 70.3957 37.8059 70.4158C37.8647 70.436 37.9283 70.4376 37.9881 70.4205C38.0298 70.4167 38.0693 70.3998 38.1009 70.3724C38.1326 70.3449 38.155 70.3082 38.1648 70.2674C38.343 69.4953 38.7283 68.7869 39.279 68.2187C39.8298 67.6506 40.525 67.2444 41.2894 67.0443C42.0325 66.7681 42.8347 66.6912 43.6165 66.8212C44.3983 66.9512 45.1328 67.2836 45.7473 67.7856C45.7473 67.7856 45.8839 68.0596 46.165 67.7373C46.4462 67.415 45.0646 61.4522 40.2372 63.0476C35.4098 64.6431 37.2411 69.6792 37.6588 70.3077Z" fill="#717171"/>
<path d="M55.2852 78.1854L36.3691 84.4463C36.2923 84.4719 36.2098 84.4754 36.1311 84.4564C36.0523 84.4374 35.9805 84.3966 35.9236 84.3388C35.8668 84.2809 35.8272 84.2082 35.8094 84.129C35.7916 84.0497 35.7963 83.9671 35.8229 83.8904C35.9043 83.6364 36.0206 83.395 36.1683 83.1732L40.9877 78.274C40.9877 78.274 42.4817 79.6842 45.301 78.7495C48.1204 77.8147 48.4336 75.8164 48.4336 75.8164C50.5376 76.0687 52.6244 76.4481 54.6828 76.9526C54.9829 77.0636 55.2566 77.2365 55.486 77.4602C55.5416 77.5136 55.5818 77.5811 55.6022 77.6556C55.6226 77.73 55.6225 77.8087 55.6019 77.8831C55.5813 77.9575 55.5409 78.0249 55.4852 78.0781C55.4294 78.1314 55.3603 78.1684 55.2852 78.1854Z" fill="#919191"/>
<path d="M41.021 69.5276L38.763 70.2745C38.5692 70.3387 38.4639 70.5482 38.5278 70.7426L38.9278 71.9594C38.9917 72.1538 39.2006 72.2594 39.3944 72.1953L41.6524 71.4484C41.8462 71.3843 41.9515 71.1747 41.8875 70.9803L41.4876 69.7636C41.4237 69.5691 41.2148 69.4635 41.021 69.5276Z" fill="#717171"/>
<path d="M41.278 69.9871L41.5832 70.9219C41.5946 70.9525 41.5996 70.9851 41.598 71.0177C41.5964 71.0504 41.5882 71.0823 41.5739 71.1117C41.5596 71.1411 41.5396 71.1673 41.515 71.1886C41.4903 71.21 41.4616 71.2262 41.4306 71.2361L39.4547 71.921C39.3871 71.945 39.3134 71.945 39.2458 71.921C39.2006 71.8845 39.1647 71.8375 39.1414 71.784L38.8362 70.8574C38.816 70.7943 38.8215 70.7258 38.8517 70.6669C38.8818 70.608 38.934 70.5635 38.9968 70.5431L40.9728 69.8905C41.0161 69.8765 41.0625 69.8752 41.1066 69.8866C41.1506 69.898 41.1906 69.9217 41.2218 69.9549C41.2421 69.9627 41.2611 69.9735 41.278 69.9871Z" fill="#FFD9A0"/>
<path d="M40.7914 69.8936L40.3737 71.5857L39.45 71.9241C39.3824 71.9481 39.3087 71.9481 39.2411 71.9241C39.1959 71.8876 39.16 71.8406 39.1367 71.7871L39.5142 70.3126L40.7914 69.8936Z" fill="white"/>
<path d="M45.2956 68.1097L43.0529 68.8516C42.8549 68.9171 42.7473 69.1312 42.8126 69.3299L43.2075 70.5313C43.2728 70.73 43.4862 70.8379 43.6842 70.7724L45.927 70.0305C46.125 69.965 46.2325 69.7509 46.1673 69.5522L45.7723 68.3508C45.707 68.1522 45.4936 68.0442 45.2956 68.1097Z" fill="#717171"/>
<path d="M45.2245 68.4306L43.2869 69.0715C43.1479 69.1175 43.0723 69.2678 43.1182 69.4073L43.4125 70.3027C43.4583 70.4421 43.6082 70.5179 43.7472 70.4719L45.6848 69.831C45.8238 69.785 45.8994 69.6346 45.8535 69.4952L45.5592 68.5998C45.5134 68.4604 45.3635 68.3846 45.2245 68.4306Z" fill="#FFD9A0"/>
<path d="M44.6979 68.6006L44.3123 70.3088L43.742 70.5022C43.676 70.5227 43.6046 70.5164 43.5431 70.4848C43.4815 70.4532 43.4348 70.3987 43.4127 70.333L43.2842 69.8254C43.3404 69.5836 43.4047 69.3016 43.477 69.0196L44.6979 68.6006Z" fill="white"/>
<path d="M98.6363 55.7019L87.126 97.2803C87.038 97.594 86.8297 97.8599 86.5467 98.02C86.2637 98.18 85.9291 98.2212 85.6159 98.1344L45.7516 87.0307C45.5958 86.9897 45.4496 86.9179 45.3218 86.8196C45.1939 86.7213 45.0868 86.5984 45.0068 86.4582C44.9268 86.3179 44.8755 86.163 44.8558 86.0026C44.8361 85.8422 44.8484 85.6795 44.8921 85.5239L45.4865 83.3886L56.4024 43.9455C56.4905 43.6318 56.6988 43.3659 56.9818 43.2058C57.2647 43.0458 57.5994 43.0046 57.9125 43.0914L97.4395 54.0984L97.7769 54.1951C97.9321 54.2371 98.0776 54.3094 98.2049 54.408C98.3322 54.5065 98.4388 54.6293 98.5187 54.7693C98.5985 54.9093 98.65 55.0638 98.6702 55.2238C98.6904 55.3839 98.6789 55.5463 98.6363 55.7019Z" fill="#EEEEEE"/>
<path d="M98.6363 55.7014L87.126 97.2798C87.0379 97.5935 86.8297 97.8595 86.5467 98.0195C86.2637 98.1796 85.9291 98.2207 85.6159 98.134L45.7516 87.0303C45.5958 86.9892 45.4496 86.9175 45.3218 86.8192C45.1939 86.7208 45.0868 86.598 45.0068 86.4577C44.9268 86.3174 44.8755 86.1626 44.8558 86.0022C44.8361 85.8417 44.8484 85.679 44.8921 85.5235L45.4865 83.3881C46.1693 84.3954 47.607 85.733 50.6513 86.7482C56.2016 88.6096 84.2746 100.447 95.9375 62.2524C96.6995 59.5897 97.1999 56.8585 97.4315 54.0979L97.7688 54.1946C97.9248 54.2357 98.0711 54.3075 98.1993 54.4056C98.3275 54.5038 98.435 54.6265 98.5157 54.7666C98.5963 54.9067 98.6485 55.0614 98.6692 55.2219C98.6899 55.3823 98.6788 55.5453 98.6363 55.7014Z" fill="#DADADA"/>
<path d="M59.1751 48.4068L51.7538 75.216C51.6185 75.7048 51.9038 76.2111 52.3911 76.3469L85.423 85.549C85.9102 85.6847 86.415 85.3985 86.5503 84.9097L93.9716 58.1005C94.1069 57.6117 93.8216 57.1054 93.3343 56.9696L60.3024 47.7675C59.8152 47.6317 59.3105 47.918 59.1751 48.4068Z" fill="white"/>
<path d="M92.8812 62.0006L88.4072 78.1808L86.5437 84.9091C86.4781 85.1427 86.323 85.3407 86.1123 85.46C85.9016 85.5793 85.6524 85.6101 85.4192 85.5456L82.2062 84.6432L52.3823 76.3436C52.1494 76.2778 51.9519 76.1222 51.8331 75.9108C51.7142 75.6995 51.6835 75.4495 51.7477 75.2155L52.5509 72.2663C58.021 66.8998 70.3264 57.5527 87.6843 60.6389C89.4537 60.9359 91.193 61.3916 92.8812 62.0006Z" fill="#F7F7F7"/>
<path d="M88.406 78.1816L86.5425 84.9099C86.4769 85.1435 86.3218 85.3416 86.1111 85.4609C85.9004 85.5802 85.6513 85.6109 85.418 85.5465L82.2051 84.644C84.5763 82.8061 86.6656 80.6287 88.406 78.1816Z" fill="#EEEEEE"/>
<path d="M81.7735 83.3127L56.6564 76.3185C56.5284 76.2827 56.413 76.2113 56.3236 76.1127C56.2342 76.014 56.1743 75.8921 56.1508 75.7608C56.1273 75.6296 56.1412 75.4943 56.1908 75.3706C56.2405 75.2469 56.3239 75.1398 56.4315 75.0615C58.9083 73.2367 61.8549 72.1628 64.9217 71.9673L66.0542 72.9342C67.3699 74.0546 68.9165 74.869 70.5829 75.319C72.2494 75.769 73.9945 75.8434 75.693 75.5369L76.8979 75.3193C79.4516 77.0734 81.4459 79.5301 82.641 82.3941C82.685 82.5175 82.6941 82.6508 82.6672 82.7791C82.6403 82.9074 82.5785 83.0257 82.4887 83.1209C82.3988 83.2161 82.2844 83.2844 82.1581 83.3182C82.0318 83.3521 81.8987 83.3502 81.7735 83.3127Z" fill="#6692F1"/>
<path d="M67.4379 72.4596L66.5303 71.7021L70.0002 65.2559L76.0084 66.9319L75.6951 74.1839L74.7232 74.3531C73.4445 74.578 72.1326 74.5254 70.8759 74.1988C69.6192 73.8721 68.4469 73.2791 67.4379 72.4596Z" fill="#FFB74D"/>
<path d="M79.3165 64.9482L77.0916 68.5179L68.0713 66.0038L68.1837 61.846C68.1988 61.4139 68.2418 60.9833 68.3123 60.5567C68.5291 59.1466 69.1155 56.971 70.6818 56.0846C71.8061 55.6042 73.0474 55.4695 74.2481 55.6979C75.7063 55.8801 77.1251 56.2992 78.449 56.9388C79.4074 57.3217 80.2162 58.0058 80.7543 58.8888C80.9092 59.2213 81.0044 59.5786 81.0354 59.9443C81.164 62.1925 79.3165 64.9482 79.3165 64.9482Z" fill="#EF9A9A"/>
<path d="M79.3165 64.9544L77.0916 68.5241L68.0713 66.01L68.1837 61.8522C68.1988 61.4201 68.2418 60.9895 68.3123 60.5629C68.4809 60.7886 69.1155 61.0061 71.3083 59.5476C74.3445 57.5654 79.3406 62.4646 80.5374 61.3284C80.8673 60.9465 81.0447 60.4558 81.0354 59.9505C81.164 62.1987 79.3165 64.9544 79.3165 64.9544Z" fill="#EF5350"/>
<path d="M77.5303 61.6176C77.5303 61.6176 71.8033 61.4967 72.4137 59.2889C72.7959 57.9864 73.423 56.7692 74.2611 55.7031C75.7193 55.8854 77.1381 56.3045 78.4621 56.944C78.7673 58.6926 77.5303 61.6176 77.5303 61.6176Z" fill="#EEEEEE"/>
<path d="M68.1846 61.8512C68.1846 61.8512 70.5943 58.1043 74.8835 59.2969C79.1728 60.4894 79.3013 64.9373 79.3013 64.9373L78.3454 66.3716L68.1846 63.5514V61.8512Z" fill="#F44336"/>
<path d="M66.9852 66.483C66.5274 66.4185 66.182 65.935 66.0695 65.2743C66.0211 64.9592 66.0211 64.6385 66.0695 64.3235C66.2141 63.2115 66.8728 62.3896 67.5234 62.4782C68.174 62.5669 68.4873 63.284 68.4712 64.251C68.4788 64.3798 68.4788 64.5089 68.4712 64.6377C68.2865 65.7416 67.6358 66.5716 66.9852 66.483Z" fill="#FFDAA9"/>
<path d="M66.984 66.4807C66.5262 66.4162 66.1808 65.9327 66.0684 65.272C66.2451 65.4573 66.8716 66.0133 67.3535 64.9013C67.4404 64.6849 67.5963 64.5035 67.7969 64.3855C67.9974 64.2674 68.2313 64.2193 68.462 64.2486C68.4696 64.3774 68.4696 64.5066 68.462 64.6354C68.2853 65.7393 67.6347 66.5693 66.984 66.4807Z" fill="#FFCC80"/>
<path d="M79.8877 68.1662C79.4459 69.1896 78.5945 69.7778 77.984 69.5441C77.3736 69.3104 77.2451 68.2387 77.6869 67.2154C77.8303 66.8702 78.0344 66.5536 78.2893 66.2807C78.4372 66.0846 78.6398 65.937 78.8715 65.8567C79.1032 65.7763 79.3535 65.7669 79.5905 65.8294C79.7391 65.9085 79.8655 66.0237 79.9581 66.1645C80.0507 66.3053 80.1066 66.4671 80.1206 66.6352C80.1909 67.1574 80.1101 67.6888 79.8877 68.1662Z" fill="#FFDAA9"/>
<path d="M79.8877 68.1639C79.4459 69.1872 78.5945 69.7754 77.984 69.5417C77.3736 69.3081 77.2451 68.2364 77.6869 67.213C77.8303 66.8678 78.0344 66.5512 78.2893 66.2783L78.4258 66.9552C78.4258 66.9552 79.4218 68.2525 80.0323 66.9552C80.0805 66.8463 80.1182 66.7329 80.1447 66.6167C80.2107 67.1465 80.1214 67.6842 79.8877 68.1639Z" fill="#FFCC80"/>
<path d="M78.6965 67.7783C78.3735 68.9649 77.767 70.0547 76.9294 70.9531C76.6435 71.2491 76.3316 71.5188 75.9977 71.7589C75.3228 72.2961 74.5302 72.6644 73.6853 72.8336C72.8405 73.0027 71.9676 72.9677 71.1389 72.7315C70.3102 72.4954 69.5494 72.0648 68.9193 71.4753C68.2893 70.8858 67.8081 70.1544 67.5156 69.3415C67.3922 69.0292 67.2902 68.7089 67.2103 68.3827C66.9059 67.1218 66.9308 65.8035 67.2826 64.5552C67.4307 63.995 67.6437 63.4541 67.9172 62.9436V62.8953C69.3469 60.2604 72.1422 58.8099 74.7848 59.5432C77.9576 60.486 79.7006 64.1442 78.6965 67.7783Z" fill="#FFDAA9"/>
<path d="M78.6944 67.7832C78.3714 68.9698 77.7648 70.0595 76.9273 70.958C76.6413 71.254 76.3295 71.5236 75.9955 71.7638L74.7345 70.5309C74.7345 70.5309 78.1482 69.145 78.5498 66.8807C78.5498 66.8807 77.7466 67.2272 76.3088 64.7776C74.871 62.328 70.9834 62.3603 69.1922 63.166C68.9918 63.2802 68.7608 63.3284 68.5316 63.3039C68.3025 63.2793 68.0868 63.1832 67.915 63.0291V62.9807C69.3448 60.3458 72.14 58.8954 74.7827 59.6287C77.9554 60.4908 79.6984 64.1491 78.6944 67.7832Z" fill="#FFCC80"/>
<path d="M76.9314 70.9521C76.2277 71.7526 75.319 72.3447 74.3039 72.6643C73.2887 72.9839 72.2058 73.0188 71.1723 72.7651C70.3452 72.52 69.5854 72.0873 68.9516 71.5004C68.3179 70.9136 67.8272 70.1884 67.5176 69.3808L68.5136 66.1577L75.7427 67.9546L76.9314 70.9521Z" fill="#FFCC80"/>
<path d="M70.8965 70.4201C71.6343 70.7591 72.4387 70.9271 73.25 70.9116C75.8123 70.8552 74.8564 69.0261 73.25 68.4943C71.3945 67.8658 69.7479 67.7369 69.3061 68.873C69.0732 69.5015 70.0611 70.0495 70.8965 70.4201Z" fill="#FFDAA9"/>
<path d="M79.8441 66.0601C79.1935 67.1882 77.828 62.8369 74.6874 61.8539C71.5468 60.8708 70.1572 62.2326 68.2615 62.7322C67.2736 62.99 67.129 62.7322 67.2093 62.4582C67.2791 62.256 67.3883 62.0697 67.5306 61.9103C67.5306 61.9103 71.3941 57.7605 75.5468 59.0256C76.456 59.3056 77.2898 59.7891 77.9855 60.4396C78.6812 61.09 79.2206 61.8905 79.563 62.7805C80.0642 63.7994 80.1646 64.9703 79.8441 66.0601Z" fill="#E57373"/>
<path d="M77.8911 70.1102C77.2807 72.318 76.8309 72.6484 75.7947 72.3583C74.7585 72.0683 76.5979 69.4092 75.0718 68.8693C73.4788 68.2336 71.8101 67.8084 70.1078 67.6042C68.662 67.5397 69.1921 70.5211 67.409 70.0216C67.1786 69.9375 66.9896 69.7671 66.8818 69.5463C66.7739 69.3254 66.7556 69.0712 66.8306 68.8371C66.8306 68.6678 66.8869 68.4342 66.927 68.1683C67.1037 66.9112 67.5294 64.9451 69.3367 65.4608L76.9594 67.5881C76.9594 67.5881 78.5016 67.8943 77.8911 70.1102Z" fill="#FF9800"/>
<path d="M77.8911 70.106C77.2807 72.3138 76.8309 72.6442 75.7947 72.3541C74.7585 72.064 76.5979 69.4049 75.0718 68.8651C73.4788 68.2294 71.8101 67.8041 70.1078 67.6C68.662 67.5355 69.1921 70.5169 67.409 70.0173C67.1786 69.9333 66.9896 69.7629 66.8818 69.542C66.7739 69.3212 66.7556 69.067 66.8306 68.8328C66.8306 68.6636 66.8869 68.4299 66.927 68.164C67.168 68.6797 67.682 69.4855 68.2604 68.5589C69.2805 66.9473 69.9954 66.77 73.4332 67.8417C76.6943 68.857 76.8309 68.2204 76.9272 69.4533C77.0236 70.6861 78.7586 68.8167 77.1843 67.7128L76.9674 67.5436C76.9674 67.5436 78.5016 67.8901 77.8911 70.106Z" fill="#E28100"/>
<path d="M79.8441 66.0661C79.1935 67.1942 77.828 62.843 74.6874 61.8599C71.5468 60.8769 70.1572 62.2386 68.2615 62.7382C67.2736 62.9961 67.129 62.7382 67.2093 62.4643C67.3298 62.561 67.6591 62.6496 68.5105 62.287C69.7877 61.7391 72.0367 60.5546 74.6633 61.2798C77.2899 62.005 79.4024 65.776 79.5951 63.4473C79.6105 63.2286 79.5943 63.0087 79.5469 62.7946C80.0515 63.8092 80.1575 64.9768 79.8441 66.0661Z" fill="#F44336"/>
</svg>
