<svg width="18" height="18" viewBox="0 0 18 18" fill="none" xmlns="http://www.w3.org/2000/svg">
<path d="M7.19881 11.8186H6.28043V3.86361C6.28043 3.74066 6.22923 3.62275 6.13804 3.53581C6.04686 3.44887 5.92317 3.40002 5.79422 3.40002H4.4701C4.34115 3.40002 4.21746 3.44887 4.12627 3.53581C4.03509 3.62275 3.98389 3.74066 3.98389 3.86361V11.8186H3.06551C2.9942 11.8185 2.9244 11.8383 2.86477 11.8755C2.80514 11.9128 2.75829 11.966 2.73003 12.0284C2.70176 12.0908 2.69335 12.1598 2.70578 12.2268C2.71822 12.2937 2.75096 12.3557 2.79998 12.4051L4.8645 14.4916C4.93105 14.5584 5.02265 14.5973 5.11925 14.5999C5.21586 14.6024 5.3096 14.5684 5.37992 14.5051L5.39486 14.4916L7.45934 12.4051C7.50799 12.3556 7.54048 12.2937 7.55276 12.2269C7.56503 12.1602 7.55659 12.0914 7.52847 12.0291C7.50035 11.9668 7.45374 11.9138 7.39442 11.8764C7.3351 11.839 7.26562 11.8189 7.19451 11.8186H7.19881ZM13.2335 8.06986H8.91376C8.80419 8.07004 8.69914 8.11168 8.62173 8.18561C8.54432 8.25955 8.50085 8.35974 8.50085 8.46422V9.53665C8.50085 9.64112 8.54432 9.74133 8.62173 9.81527C8.69914 9.8892 8.80419 9.93083 8.91376 9.93101H13.2335C13.3432 9.93101 13.4484 9.88946 13.526 9.8155C13.6036 9.74155 13.6472 9.64124 13.6472 9.53665V8.46422C13.6468 8.35998 13.6031 8.26013 13.5258 8.18648C13.4484 8.11284 13.3436 8.0714 13.2342 8.07122L13.2335 8.06986ZM14.8873 4.8512H8.91376C8.80419 4.85138 8.69914 4.89302 8.62173 4.96695C8.54432 5.04089 8.50085 5.14109 8.50085 5.24557V6.318C8.50085 6.42247 8.54432 6.52268 8.62173 6.59661C8.69914 6.67055 8.80419 6.71217 8.91376 6.71235H14.8873C14.9969 6.71217 15.1019 6.67055 15.1793 6.59661C15.2567 6.52268 15.3002 6.42247 15.3002 6.318V5.24557C15.2998 5.14145 15.2563 5.0417 15.1791 4.96807C15.1018 4.89445 14.9972 4.85292 14.888 4.85256L14.8873 4.8512ZM11.5798 11.2885H8.91376C8.80419 11.2887 8.69914 11.3303 8.62173 11.4043C8.54432 11.4782 8.50085 11.5784 8.50085 11.6829V12.7553C8.50085 12.8598 8.54432 12.96 8.62173 13.0339C8.69914 13.1079 8.80419 13.1495 8.91376 13.1497H11.5819C11.6363 13.1497 11.6901 13.1395 11.7402 13.1197C11.7904 13.0998 11.836 13.0708 11.8744 13.0342C11.9128 12.9975 11.9433 12.9541 11.9641 12.9062C11.9849 12.8584 11.9956 12.8071 11.9956 12.7553V11.6829C11.995 11.5787 11.9512 11.4789 11.8737 11.4053C11.7962 11.3318 11.6913 11.2906 11.5819 11.2906L11.5798 11.2885Z" fill="#6692F1"/>
</svg>
