<svg width="20" height="20" viewBox="0 0 20 20" fill="none" xmlns="http://www.w3.org/2000/svg">
<g id="Fuel Card">
<path id="vector" d="M1 15.5C1 15.8978 1.15804 16.2794 1.43936 16.5607C1.72068 16.842 2.10224 17 2.50008 17H17.4999C17.8978 17 18.2793 16.842 18.5606 16.5607C18.842 16.2794 19 15.8978 19 15.5V10H1V15.5ZM7.00034 13.3753C7.0006 13.2758 7.04022 13.1805 7.11054 13.1102C7.18086 13.0399 7.27616 13.0003 7.37561 13H11.6253C11.7248 13.0003 11.8201 13.0399 11.8904 13.1102C11.9607 13.1805 12.0003 13.2758 12.0006 13.3753V14.6247C12.0003 14.7242 11.9607 14.8195 11.8904 14.8898C11.8201 14.9601 11.7248 14.9997 11.6253 15H7.37561C7.27616 14.9997 7.18086 14.9601 7.11054 14.8898C7.04022 14.8195 7.0006 14.7242 7.00034 14.6247V13.3753ZM3.00011 13.3753C3.00038 13.2758 3.04 13.1805 3.11032 13.1102C3.18064 13.0399 3.27594 13.0003 3.37538 13H5.62803C5.72747 13.0003 5.82277 13.0399 5.89309 13.1102C5.96341 13.1805 6.00303 13.2758 6.0033 13.3753V14.6247C6.00303 14.7242 5.96341 14.8195 5.89309 14.8898C5.82277 14.9601 5.72747 14.9997 5.62803 15H3.37538C3.27594 14.9997 3.18064 14.9601 3.11032 14.8898C3.04 14.8195 3.00038 14.7242 3.00011 14.6247V13.3753ZM18.997 4.50101V6.00101H1V4.5C1 4.10218 1.15804 3.72064 1.43936 3.43934C1.72068 3.15803 2.10224 3 2.50008 3H17.4999C17.8978 3 18.2793 3.15803 18.5606 3.43934C18.842 3.72064 19 4.10218 19 4.5L18.997 4.50101Z" fill="#919191"/>
</g>
</svg>
