<svg width="14" height="14" viewBox="0 0 14 14" fill="none" xmlns="http://www.w3.org/2000/svg">
<path d="M1.87025 8.36632L6.38125 8.38132C6.54711 8.37973 6.70561 8.3126 6.82214 8.19456C6.93868 8.07653 7.00379 7.91718 7.00325 7.75132V1.39132C7.00286 1.31031 6.98642 1.23018 6.95488 1.15556C6.92333 1.08094 6.87731 1.01332 6.81947 0.956592C6.76163 0.899869 6.69312 0.855173 6.61791 0.825088C6.54269 0.795003 6.46225 0.780126 6.38125 0.781316H1.87025C1.70439 0.7829 1.54589 0.850037 1.42936 0.968071C1.31282 1.0861 1.24771 1.24545 1.24825 1.41132V7.75432C1.24837 7.8355 1.26462 7.91584 1.29605 7.99069C1.32747 8.06554 1.37345 8.1334 1.43132 8.19034C1.48919 8.24727 1.55778 8.29215 1.63313 8.32236C1.70848 8.35257 1.78908 8.36751 1.87025 8.36632ZM8.87025 8.36632H12.1372C12.3003 8.36582 12.4568 8.3015 12.573 8.18711C12.6893 8.07273 12.7561 7.91738 12.7592 7.75432V3.45932C12.7598 3.29345 12.6947 3.1341 12.5781 3.01607C12.4616 2.89804 12.3031 2.8309 12.1372 2.82932H8.87025C8.70439 2.8309 8.54589 2.89804 8.42936 3.01607C8.31282 3.1341 8.24771 3.29345 8.24825 3.45932V7.75432C8.24837 7.8355 8.26462 7.91584 8.29605 7.99069C8.32747 8.06554 8.37345 8.1334 8.43132 8.19034C8.48919 8.24727 8.55778 8.29215 8.63313 8.32236C8.70848 8.35257 8.78908 8.36751 8.87025 8.36632ZM12.9143 10.7053C12.9971 10.7043 13.0762 10.6706 13.1344 10.6117C13.1926 10.5527 13.2253 10.4732 13.2253 10.3903V9.76032C13.2253 9.67746 13.1926 9.59794 13.1344 9.53898C13.0762 9.48002 12.9971 9.44637 12.9143 9.44532H1.09225C1.00948 9.44663 0.930536 9.48036 0.87238 9.53926C0.814223 9.59817 0.781502 9.67754 0.78125 9.76032V10.3903C0.781243 10.4732 0.813881 10.5527 0.872093 10.6117C0.930304 10.6706 1.0094 10.7043 1.09225 10.7053H2.02525V11.9653H1.09225C1.00931 11.9666 0.930214 12.0005 0.87203 12.0596C0.813845 12.1187 0.78124 12.1984 0.78125 12.2813V12.9113C0.781243 12.9942 0.813881 13.0737 0.872093 13.1327C0.930304 13.1916 1.0094 13.2253 1.09225 13.2263H12.9143C12.9971 13.2253 13.0762 13.1916 13.1344 13.1327C13.1926 13.0737 13.2253 12.9942 13.2253 12.9113V12.2813C13.2253 12.1985 13.1926 12.1189 13.1344 12.06C13.0762 12.001 12.9971 11.9674 12.9143 11.9663H11.9812V10.7053H12.9143ZM6.38125 11.9653H3.27025V10.7053H6.38125V11.9653ZM10.7373 11.9653H7.62525V10.7053H10.7373V11.9653Z" fill="#919191"/>
</svg>