<svg xmlns="http://www.w3.org/2000/svg" width="22" height="22" viewBox="0 0 22 22">
  <circle id="Ellipse_10206" data-name="Ellipse 10206" cx="11" cy="11" r="11" fill="#3074d3"/>
  <g id="Group_114959" data-name="Group 114959" transform="translate(-3291.002 10960) rotate(180)">
    <path id="Path_33425" data-name="Path 33425" d="M14,7A7,7,0,1,1,7,0a7,7,0,0,1,7,7" transform="translate(-3309 10942)" fill="#fff" opacity="0"/>
    <path id="Path_33426" data-name="Path 33426" d="M6.94.364l-5.092,10.1a.661.661,0,0,0,.962.845l3.976-2.7a1.323,1.323,0,0,1,1.487,0l3.98,2.7a.661.661,0,0,0,.962-.845L8.121.364a.662.662,0,0,0-1.182,0" transform="translate(-3309.532 10942)" fill="#fff"/>
  </g>
</svg>