<svg xmlns="http://www.w3.org/2000/svg" width="20" height="20" viewBox="0 0 20 20"><g transform="translate(-1567 -283)"><rect width="20" height="20" transform="translate(1567 283)" fill="#4db6a2" opacity="0"/><path d="M27,17.5A9.5,9.5,0,1,1,17.5,8,9.5,9.5,0,0,1,27,17.5ZM15.815,13.056V17.5H13.1a.46.46,0,0,0-.326.785l4.4,4.378a.455.455,0,0,0,.647,0l4.4-4.378A.46.46,0,0,0,21.9,17.5H19.185V13.056a.461.461,0,0,0-.46-.46H16.274A.461.461,0,0,0,15.815,13.056Z" transform="translate(1559.5 275.5)" fill="#4db6a2"/></g></svg>