<svg width="18" height="18" viewBox="0 0 18 18" fill="none" xmlns="http://www.w3.org/2000/svg">
<path d="M17.0969 8.98597C17.0956 9.22448 17.0005 9.45291 16.8322 9.6219C16.6638 9.79089 16.4357 9.88687 16.1971 9.88909H15.2973L15.3118 14.3926C15.3113 14.4687 15.3064 14.5447 15.2973 14.6202V15.0754C15.2973 15.3737 15.1788 15.6597 14.9678 15.8706C14.7568 16.0816 14.4706 16.2 14.1722 16.2H13.7217C13.6902 16.2 13.66 16.1746 13.6285 16.2C13.5885 16.177 13.5498 16.2 13.5074 16.2H11.9209C11.7732 16.2 11.6269 16.171 11.4904 16.1144C11.3539 16.0579 11.2299 15.9751 11.1254 15.8706C11.0209 15.7662 10.9381 15.6422 10.8815 15.5058C10.825 15.3693 10.7959 15.2231 10.7959 15.0754V12.5997C10.796 12.4815 10.7729 12.3645 10.7277 12.2553C10.6825 12.1461 10.6163 12.0468 10.5327 11.9633C10.4491 11.8797 10.3498 11.8135 10.2406 11.7683C10.1314 11.7232 10.0143 11.7 9.89608 11.7002H8.10132C7.98312 11.7 7.86604 11.7232 7.7568 11.7683C7.64756 11.8135 7.5483 11.8797 7.46471 11.9633C7.38113 12.0468 7.31486 12.1461 7.26969 12.2553C7.22453 12.3645 7.20137 12.4815 7.20153 12.5997V15.0742C7.20153 15.3725 7.08299 15.6585 6.872 15.8694C6.66102 16.0803 6.37486 16.1988 6.07647 16.1988H4.50213C4.45974 16.1988 4.41736 16.1988 4.38103 16.1988C4.3447 16.1988 4.31321 16.1988 4.2793 16.1988H3.82637C3.52799 16.1988 3.24183 16.0803 3.03084 15.8694C2.81985 15.6585 2.70132 15.3725 2.70132 15.0742V11.9266C2.70132 11.9011 2.70132 11.8733 2.70132 11.8479V9.88909H1.80152C1.68263 9.8904 1.56469 9.86791 1.45462 9.82296C1.34456 9.778 1.24461 9.71149 1.16065 9.62733C1.07669 9.54317 1.01042 9.44308 0.965745 9.33293C0.92107 9.22278 0.898891 9.10482 0.900514 8.98597C0.898451 8.8603 0.922337 8.73556 0.970679 8.61954C1.01902 8.50352 1.09078 8.39871 1.18147 8.31166L8.39318 2.02734C8.47509 1.94827 8.57276 1.88735 8.6798 1.84855C8.78685 1.80975 8.90088 1.79395 9.01444 1.80216C9.22891 1.79877 9.43815 1.86836 9.60785 1.99949L16.7893 8.31166C16.8938 8.38859 16.977 8.49086 17.031 8.60884C17.0851 8.72682 17.1081 8.85661 17.0981 8.98597H17.0969Z" fill="#919191"/>
</svg>
