<svg width="10" height="10" viewBox="0 0 10 10" fill="none" xmlns="http://www.w3.org/2000/svg">
<path d="M4.32711 1.10151L4.77161 0.645443C4.81623 0.599353 4.86929 0.562773 4.92775 0.537811C4.9862 0.51285 5.04889 0.5 5.1122 0.5C5.17552 0.5 5.23821 0.51285 5.29666 0.537811C5.35512 0.562773 5.40818 0.599353 5.4528 0.645443L9.35825 4.65025C9.40317 4.69603 9.43882 4.75048 9.46315 4.81046C9.48748 4.87043 9.5 4.93475 9.5 4.99971C9.5 5.06468 9.48748 5.129 9.46315 5.18897C9.43882 5.24895 9.40317 5.30339 9.35825 5.34917L5.45391 9.35456C5.40929 9.40065 5.35623 9.43722 5.29777 9.46218C5.23932 9.48715 5.17663 9.5 5.11332 9.5C5.05 9.5 4.98731 9.48715 4.92886 9.46218C4.8704 9.43722 4.81734 9.40065 4.77272 9.35456L4.32822 8.89849C4.28297 8.85185 4.24722 8.79643 4.22307 8.73545C4.19893 8.67448 4.18686 8.60918 4.18759 8.54337C4.18831 8.47756 4.20181 8.41255 4.22729 8.35215C4.25277 8.29175 4.28973 8.23717 4.336 8.19159L6.75684 5.82519H0.982286C0.91877 5.82534 0.855854 5.81259 0.797166 5.78767C0.738477 5.76275 0.685179 5.72615 0.640344 5.67999C0.595509 5.63383 0.560025 5.57902 0.535939 5.51872C0.511853 5.45841 0.499641 5.39382 0.500008 5.32865V4.66907C0.500008 4.60414 0.51249 4.53985 0.536741 4.47988C0.560991 4.4199 0.596533 4.36543 0.641331 4.31957C0.686129 4.27371 0.739304 4.23737 0.79781 4.21263C0.856316 4.18789 0.919004 4.17523 0.982286 4.17538H6.75573L4.33378 1.80841C4.2871 1.76304 4.24981 1.70849 4.22411 1.64801C4.19842 1.58754 4.18486 1.52238 4.18424 1.45641C4.18361 1.39044 4.19594 1.32502 4.22049 1.26405C4.24504 1.20307 4.2813 1.14779 4.32711 1.10151Z" fill="#CCCCCC"/>
</svg>
