<svg xmlns="http://www.w3.org/2000/svg" width="18" height="18" viewBox="0 0 18 18"><g transform="translate(19540 7931)"><rect width="18" height="18" transform="translate(-19540 -7931)" fill="#aaa" opacity="0"/><path d="M270.935,45.33,266.3,32.83a1.25,1.25,0,0,0-1.177-.83h-3.238a1.25,1.25,0,0,0-1.177.83l-4.631,12.5A1.25,1.25,0,0,0,257.258,47h1.94a1.25,1.25,0,0,0,1.19-.866l.345-1.009h5.547l.345,1.009a1.25,1.25,0,0,0,1.193.866h1.941a1.25,1.25,0,0,0,1.177-1.67Zm-8.708-4.58L263.508,37l1.281,3.75Z" transform="translate(-19794.508 -7961.5)" fill="#aaa"/></g></svg>