<svg width="26" height="26" viewBox="0 0 26 26" fill="none" xmlns="http://www.w3.org/2000/svg">
<path d="M10.6843 16.624H9.50355V6.39609C9.50355 6.23801 9.43772 6.08642 9.32048 5.97464C9.20324 5.86286 9.04422 5.80005 8.87842 5.80005H7.17598C7.01018 5.80005 6.85116 5.86286 6.73392 5.97464C6.61668 6.08642 6.55085 6.23801 6.55085 6.39609V16.624H5.37008C5.2784 16.6238 5.18866 16.6492 5.11199 16.6972C5.03532 16.7451 4.97509 16.8134 4.93875 16.8937C4.90241 16.974 4.89159 17.0626 4.90758 17.1487C4.92356 17.2348 4.96566 17.3145 5.02869 17.378L7.68307 20.0606C7.76863 20.1465 7.8864 20.1966 8.01061 20.1999C8.13482 20.2031 8.25534 20.1593 8.34575 20.0781L8.36496 20.0606L11.0193 17.378C11.0818 17.3144 11.1236 17.2348 11.1394 17.1489C11.1552 17.0631 11.1443 16.9747 11.1082 16.8946C11.072 16.8145 11.0121 16.7463 10.9358 16.6982C10.8596 16.6501 10.7702 16.6243 10.6788 16.624H10.6843ZM18.4433 11.8041H12.8893C12.7484 11.8044 12.6133 11.8579 12.5138 11.953C12.4143 12.048 12.3584 12.1768 12.3584 12.3112V13.69C12.3584 13.8243 12.4143 13.9532 12.5138 14.0482C12.6133 14.1433 12.7484 14.1968 12.8893 14.197H18.4433C18.5843 14.197 18.7196 14.1436 18.8193 14.0485C18.919 13.9534 18.9751 13.8245 18.9751 13.69V12.3112C18.9746 12.1771 18.9184 12.0488 18.819 11.9541C18.7195 11.8594 18.5847 11.8061 18.4442 11.8059L18.4433 11.8041ZM20.5695 7.66585H12.8893C12.7484 7.66608 12.6133 7.71961 12.5138 7.81467C12.4143 7.90973 12.3584 8.03857 12.3584 8.17289V9.55173C12.3584 9.68605 12.4143 9.81489 12.5138 9.90995C12.6133 10.005 12.7484 10.0585 12.8893 10.0588H20.5695C20.7104 10.0585 20.8454 10.005 20.9449 9.90995C21.0444 9.81489 21.1004 9.68605 21.1004 9.55173V8.17289C21.0999 8.03902 21.0439 7.91077 20.9446 7.81611C20.8454 7.72145 20.7108 7.66806 20.5704 7.6676L20.5695 7.66585ZM16.317 15.9424H12.8893C12.7484 15.9426 12.6133 15.9962 12.5138 16.0912C12.4143 16.1863 12.3584 16.3151 12.3584 16.4494V17.8283C12.3584 17.9626 12.4143 18.0914 12.5138 18.1865C12.6133 18.2816 12.7484 18.3351 12.8893 18.3353H16.3198C16.3896 18.3353 16.4588 18.3222 16.5233 18.2967C16.5878 18.2712 16.6464 18.2339 16.6958 18.1868C16.7452 18.1397 16.7844 18.0838 16.8111 18.0223C16.8378 17.9608 16.8516 17.8949 16.8516 17.8283V16.4494C16.8508 16.3154 16.7945 16.1871 16.6949 16.0926C16.5952 15.9981 16.4603 15.945 16.3198 15.945L16.317 15.9424Z" fill="#6692F1"/>
</svg>
