<svg width="268" height="252" viewBox="0 0 268 252" fill="none" xmlns="http://www.w3.org/2000/svg">
<path d="M228.618 22.1737C233.045 22.1737 236.634 18.5749 236.634 14.1356C236.634 9.69621 233.045 6.09741 228.618 6.09741C224.191 6.09741 220.603 9.69621 220.603 14.1356C220.603 18.5749 224.191 22.1737 228.618 22.1737Z" fill="#DADADA"/>
<path d="M48.9777 20.7912C51.4644 20.7912 53.4803 18.7697 53.4803 16.2761C53.4803 13.7825 51.4644 11.761 48.9777 11.761C46.491 11.761 44.4751 13.7825 44.4751 16.2761C44.4751 18.7697 46.491 20.7912 48.9777 20.7912Z" fill="#DADADA"/>
<path d="M31.6929 177.034L40.7741 175.147L31.8299 173.288L29.8182 158.777L27.7795 173.478L18.8623 175.148L27.9165 176.842L29.8172 191.519L31.6929 177.034Z" fill="#AAAAAA"/>
<path d="M57.9428 5.17052C57.7777 8.17391 62.4314 8.43473 62.5964 5.42531C62.7615 2.4159 58.1108 2.16311 57.9428 5.17052Z" fill="#DADADA"/>
<path d="M68.5 7.573C68.3372 7.80504 68.2709 8.09154 68.3152 8.37178C68.3594 8.65202 68.5107 8.90396 68.737 9.0742C68.9632 9.24444 69.2467 9.3196 69.5273 9.28374C69.8079 9.24787 70.0635 9.10381 70.24 8.88209C70.4028 8.65005 70.4691 8.36354 70.4248 8.0833C70.3806 7.80306 70.2293 7.55113 70.003 7.38089C69.7767 7.21065 69.4933 7.13549 69.2127 7.17135C68.9321 7.20722 68.6765 7.35128 68.5 7.573Z" fill="#DADADA"/>
<path d="M49.0464 29.5405C48.8724 29.3197 48.6201 29.1747 48.3421 29.1359C48.0641 29.0971 47.782 29.1675 47.5544 29.3323C47.3269 29.4971 47.1716 29.7437 47.1209 30.0206C47.0703 30.2975 47.1281 30.5834 47.2824 30.8185C47.4564 31.0394 47.7087 31.1843 47.9867 31.2231C48.2647 31.2619 48.5469 31.1916 48.7744 31.0267C49.0019 30.8619 49.1572 30.6153 49.2078 30.3384C49.2585 30.0615 49.2007 29.7757 49.0464 29.5405Z" fill="#DADADA"/>
<path d="M7.82681 65.6435L13.3648 64.6645L7.90884 63.6954L6.68239 56.1528L5.43893 63.7958L0 64.6655L5.52398 65.5452L6.68239 73.1691L7.82681 65.6435Z" fill="#AAAAAA"/>
<path d="M255.461 59.5585C255.296 62.5619 259.951 62.8227 260.115 59.8133C260.279 56.8038 255.629 56.551 255.461 59.5585Z" fill="#DADADA"/>
<path d="M266.061 61.9451C265.898 62.1771 265.832 62.4636 265.876 62.7439C265.92 63.0241 266.072 63.276 266.298 63.4463C266.524 63.6165 266.808 63.6917 267.088 63.6558C267.369 63.62 267.625 63.4759 267.801 63.2542C267.964 63.0221 268.03 62.7356 267.986 62.4554C267.942 62.1752 267.79 61.9232 267.564 61.753C267.338 61.5827 267.054 61.5076 266.774 61.5434C266.493 61.5793 266.237 61.7234 266.061 61.9451Z" fill="#DADADA"/>
<path d="M246.311 83.8184C246.138 83.5943 245.885 83.4465 245.605 83.406C245.326 83.3655 245.042 83.4356 244.813 83.6014C244.584 83.7673 244.428 84.0159 244.378 84.2948C244.328 84.5738 244.388 84.8611 244.546 85.0964C244.719 85.3204 244.972 85.4683 245.251 85.5087C245.531 85.5492 245.815 85.4792 246.044 85.3133C246.273 85.1475 246.429 84.8988 246.479 84.6199C246.529 84.341 246.468 84.0536 246.311 83.8184Z" fill="#DADADA"/>
<path d="M201.873 2.13292C201.708 5.13631 206.362 5.39713 206.527 2.38771C206.692 -0.621699 202.041 -0.874487 201.873 2.13292Z" fill="#DADADA"/>
<path d="M212.436 4.53443C212.274 4.76647 212.207 5.05298 212.252 5.33322C212.296 5.61346 212.447 5.8654 212.673 6.03564C212.9 6.20588 213.183 6.28106 213.464 6.24519C213.744 6.20933 214 6.06527 214.177 5.84354C214.339 5.6115 214.406 5.32499 214.361 5.04475C214.317 4.76451 214.166 4.51257 213.94 4.34233C213.713 4.17209 213.43 4.09692 213.149 4.13278C212.869 4.16864 212.613 4.31271 212.436 4.53443Z" fill="#DADADA"/>
<path d="M178.843 40.5371C178.669 40.3162 178.416 40.1713 178.138 40.1325C177.86 40.0937 177.578 40.164 177.351 40.3289C177.123 40.4937 176.968 40.7403 176.917 41.0172C176.867 41.2941 176.924 41.5799 177.079 41.8151C177.253 42.036 177.505 42.1809 177.783 42.2197C178.061 42.2585 178.343 42.1882 178.571 42.0233C178.798 41.8585 178.954 41.6119 179.004 41.335C179.055 41.0581 178.997 40.7723 178.843 40.5371Z" fill="white"/>
<path d="M138.616 59.7922L143.304 62.3663C149.959 65.9986 153.787 72.4488 153.773 81.1771C153.718 109.758 106.356 126.613 106.266 172.586L101.582 170.027C101.668 124.041 149.031 107.185 149.086 78.6181C149.103 69.8748 145.272 63.4246 138.616 59.7922Z" fill="#DADADA"/>
<path d="M174.711 19.754L179.396 22.311C166.01 15.0051 147.694 12.72 126.277 15.7374L121.591 13.1814C143.006 10.167 161.323 12.4552 174.711 19.754Z" fill="#DADADA"/>
<path d="M126.28 15.7415C171.806 9.32137 203.33 26.8853 203.275 65.6516C203.175 118.208 152.177 131.308 152.115 166.126L106.263 172.583C106.348 126.597 153.715 109.741 153.77 81.1741C153.797 65.0818 140.766 56.7377 121.037 59.5244C101.613 62.273 86.7244 73.5553 76.9839 90.0359L40.3198 71.8891C56.7457 42.6205 85.3079 21.5155 126.28 15.7415Z" fill="#F7F7F7"/>
<path d="M40.3058 71.8679L35.6211 69.3109C52.07 40.0634 80.6192 18.9604 121.592 13.1843L126.28 15.7413C85.3079 21.5174 56.7447 42.6204 40.3058 71.8679Z" fill="#DADADA"/>
<path d="M141.056 191.669L145.743 194.226C140.513 191.527 134.553 190.598 128.752 191.577L124.064 189.02C129.865 188.036 135.827 188.966 141.056 191.669Z" fill="#AAAAAA"/>
<path d="M112.181 248.045L107.493 245.478C99.6731 241.214 94.8614 232.711 94.8824 222.351C94.8871 214.189 97.8509 206.308 103.221 200.175C108.592 194.043 116.003 190.078 124.073 189.019L128.761 191.576C120.692 192.639 113.283 196.606 107.913 202.737C102.543 208.869 99.5772 216.748 99.5671 224.909C99.549 235.279 104.361 243.781 112.181 248.045Z" fill="#DADADA"/>
<path d="M128.757 191.576C145.751 189.168 157.867 199.954 157.837 216.706C157.806 233.133 145.641 248.321 128.647 250.707C111.653 253.092 99.5186 241.345 99.5636 224.933C99.5668 216.768 102.53 208.883 107.901 202.746C113.272 196.609 120.684 192.639 128.757 191.576Z" fill="#F7F7F7"/>
<path d="M109.521 196.77C112.951 194.464 116.722 192.715 120.696 191.586C122.345 191.122 123.814 190.163 124.904 188.837C131.072 181.277 133.327 173.246 129.906 169.112C125.591 163.906 113.871 166.861 103.728 175.714C97.6227 181.04 92.3317 187.237 88.0239 194.106C93.1232 196.232 98.4978 197.621 103.987 198.23C105.944 198.394 107.897 197.878 109.521 196.77Z" fill="#92B1F5"/>
<path d="M109.333 196.892C112.867 194.486 116.769 192.675 120.885 191.528C122.408 191.1 123.763 190.213 124.767 188.988C130.712 181.748 133.094 174.054 130.336 169.745C129.815 175.449 125.377 182.923 118.246 189.147C110.743 195.676 97.2382 192.312 90.6899 190.103C88.9422 192.539 88.0239 194.106 88.0239 194.106C93.192 196.266 98.6449 197.663 104.213 198.254C106.025 198.402 107.832 197.922 109.333 196.892Z" fill="#3B73ED"/>
<path d="M125.433 186.448C125.252 186.649 123.232 188.408 123.032 188.582C122.991 188.616 143.199 192.768 143.199 192.768L138.56 222.916L145.462 222.547L147.015 190.96L125.433 186.448Z" fill="#3B73ED"/>
<path d="M114.371 233.108L118.14 203.215L108.545 189.888V188.449L123.28 200.806L120.539 233.45L114.371 233.108Z" fill="#3B73ED"/>
<path d="M150.65 250.633H102.673" stroke="#919191"/>
<path d="M109.113 130.509C109.213 130.579 109.534 116.107 118.483 109.765C127.495 103.455 139.647 104.214 144.239 110.486C148.83 116.757 144.339 126.034 135.487 132.154C126.721 138.279 109.243 130.548 109.113 130.509Z" fill="#92B1F5"/>
<path d="M118.934 152.722C119.791 163.289 123.972 171.051 128.628 170.333C133.285 169.615 137.354 161.086 137.391 151.011C137.428 140.935 132.71 132.718 127.165 132.954C121.62 133.19 118.084 142.162 118.934 152.722Z" fill="#92B1F5"/>
<path d="M121.431 137.322C120.782 140.513 120.585 143.78 120.845 147.026C121.677 157.582 125.938 165.401 130.714 164.768C132.739 164.517 134.604 162.851 136.139 160.301C134.546 165.86 131.767 169.864 128.63 170.332C123.977 171.05 119.792 163.287 118.936 152.72C118.478 146.593 119.415 140.978 121.431 137.322Z" fill="#3B73ED"/>
<path d="M136.637 139.032C140.571 143.603 144.28 148.083 147.764 152.474C149.583 154.769 153.518 152.588 152.819 149.691C151.359 143.824 149.706 137.852 147.86 131.777C147.736 131.538 147.674 131.273 147.68 131.004C147.686 130.735 147.76 130.473 147.895 130.241C148.03 130.009 148.221 129.815 148.451 129.677C148.681 129.539 148.942 129.462 149.21 129.453C156.064 128.831 165.173 123.024 160.985 118.72C160.831 118.567 160.645 118.452 160.439 118.382C160.234 118.311 160.016 118.289 159.801 118.315C159.586 118.341 159.38 118.415 159.197 118.532C159.015 118.65 158.861 118.807 158.748 118.992C158.254 119.954 157.765 120.917 157.281 121.882C156.636 123.073 155.679 124.064 154.512 124.749C153.346 125.434 152.015 125.786 150.664 125.768C146.798 125.768 142.461 125.968 143.261 127.628C145.595 134.181 147.698 140.61 149.57 146.913C149.642 147.182 149.621 147.467 149.513 147.724C149.405 147.98 149.214 148.193 148.972 148.329C148.73 148.465 148.449 148.516 148.174 148.474C147.9 148.433 147.647 148.3 147.456 148.099C144.193 144.002 140.746 139.826 137.114 135.569C136.955 136.723 136.798 137.878 136.637 139.032Z" fill="#3B73ED"/>
<path d="M132.698 107.179C132.753 107.228 138.657 73.1831 147.711 69.9219C156.714 66.5614 174.441 72.0867 172.775 81.4028C171.203 90.722 168.196 84.8937 168.173 83.5164C168.15 82.1391 171.227 81.1831 171.231 81.1861C171.235 81.1892 172.783 74.5404 163.301 71.8189C153.835 69.1525 149.251 70.0764 146.376 72.6214C143.436 75.1162 136.39 94.7556 136.359 96.0948C136.328 97.434 134.07 107.216 134.07 107.216C134.07 107.216 132.773 108.596 132.698 107.179Z" fill="#3B73ED"/>
<path d="M140.996 115.953C140.765 115.785 157.444 88.0498 169.391 87.9976C181.042 87.6124 199.674 96.747 194.647 103.948C189.818 111.263 188.272 105.686 188.678 104.525C189.083 103.365 192.941 103.371 192.944 103.378C192.947 103.385 196.946 98.3229 186.889 93.6323C176.832 88.9416 171.105 88.5162 166.958 89.8825C162.612 91.0863 148.551 105.965 148.243 107.202C147.763 108.284 142.551 116.294 142.578 116.318C142.605 116.342 140.721 117.218 140.996 115.953Z" fill="#3B73ED"/>
<path d="M127.219 112.642C126.959 112.851 126.63 112.956 126.298 112.935C125.965 112.915 125.652 112.771 125.419 112.532C125.324 112.404 125.257 112.257 125.222 112.102C125.187 111.946 125.184 111.785 125.214 111.628C125.245 111.471 125.307 111.323 125.398 111.191C125.488 111.06 125.605 110.949 125.741 110.866C126.005 110.659 126.336 110.557 126.671 110.578C127.006 110.599 127.321 110.743 127.557 110.982C127.651 111.111 127.717 111.258 127.751 111.414C127.785 111.569 127.787 111.731 127.755 111.887C127.723 112.043 127.66 112.191 127.568 112.321C127.476 112.451 127.358 112.561 127.221 112.642H127.219Z" fill="#3B73ED"/>
<path d="M133.981 120.884C133.73 121.09 133.411 121.193 133.087 121.175C132.763 121.156 132.458 121.017 132.231 120.784C132.144 120.654 132.084 120.507 132.055 120.352C132.026 120.198 132.029 120.039 132.064 119.886C132.099 119.733 132.164 119.588 132.257 119.461C132.349 119.334 132.466 119.228 132.601 119.148C132.855 118.942 133.177 118.839 133.503 118.859C133.829 118.88 134.136 119.022 134.362 119.258C134.448 119.389 134.506 119.535 134.534 119.689C134.561 119.843 134.557 120.001 134.521 120.154C134.485 120.306 134.419 120.449 134.326 120.575C134.233 120.701 134.116 120.806 133.981 120.884Z" fill="#3B73ED"/>
<path d="M97.7326 148.809C100.301 141.457 103.109 134.256 106.157 127.204C106.126 127.187 111.276 125.486 105.248 121.465C99.1381 117.411 96.6402 118.946 96.5922 115.864C96.4922 113.238 101.859 108.702 97.9627 108.616C96.5904 108.536 95.2382 108.976 94.1748 109.85C93.1113 110.723 92.4145 111.966 92.2227 113.331C92.0736 114.507 92.1621 115.701 92.4828 116.842C93.4011 120.252 99.3572 123.343 103.559 125.175C100.157 133.651 97.0824 142.328 94.3334 151.205C93.4121 154.274 96.5952 156.971 98.679 154.893C104.164 149.499 109.959 144.431 116.033 139.714C115.958 138.521 115.879 137.326 115.797 136.13C110.236 140.667 104.922 145.501 99.8794 150.611C98.847 151.675 97.2154 150.31 97.7326 148.809Z" fill="#3B73ED"/>
<path d="M138.734 139.771C138.234 138.375 137.706 136.973 137.181 135.567C135.811 137.029 134.472 138.506 133.165 139.997C133.873 141.134 134.571 142.262 135.259 143.382C136.403 142.159 137.562 140.956 138.734 139.771Z" fill="#3B73ED"/>
<path d="M115.159 139.171C116.709 141.292 118.22 143.395 119.693 145.48C120.08 144.673 120.467 143.861 120.858 143.073C119.195 140.77 117.482 138.45 115.718 136.111C114.95 137.233 114.194 138.364 113.449 139.503L115.159 139.171Z" fill="#3B73ED"/>
<path d="M141.275 126.997C132.324 134.503 112.582 127.774 112.435 127.747C112.368 122.999 113.069 118.272 114.512 113.75C109.444 120.753 109.21 130.548 109.125 130.488C109.255 130.526 126.731 138.258 135.512 132.13C137.673 130.653 139.639 128.907 141.363 126.934L141.275 126.997Z" fill="#3B73ED"/>
<path d="M213.692 109.327L222.774 107.44L213.829 105.581L211.818 91.0691L209.779 105.77L200.863 107.441L209.916 109.136L211.817 123.813L213.692 109.327Z" fill="#AAAAAA"/>
</svg>
