<svg width="20" height="20" viewBox="0 0 20 20" fill="none" xmlns="http://www.w3.org/2000/svg">
    <path d="M16.5325 16.1673L14.9626 14.559C14.7543 14.3454 14.6371 14.0556 14.6371 13.7535C14.6371 13.4514 14.7543 13.1616 14.9626 12.9479L16.5325 11.3368C16.7408 11.1232 17.0234 11.003 17.318 11.003C17.6126 11.003 17.8952 11.1232 18.1035 11.3368L19.6745 12.9479C19.8828 13.1616 20 13.4514 20 13.7535C20 14.0556 19.8828 14.3454 19.6745 14.559L18.1035 16.1673C17.895 16.3806 17.6125 16.5002 17.318 16.5C17.0235 16.5002 16.741 16.3806 16.5325 16.1673ZM9.27959 16.1673L7.70858 14.559C7.5003 14.3454 7.38418 14.0556 7.38418 13.7535C7.38418 13.4514 7.5003 13.1616 7.70858 12.9479L9.27959 11.3368C9.4878 11.1243 9.77023 11.0047 10.064 11.0047C10.3578 11.0047 10.6391 11.1243 10.8473 11.3368L12.4184 12.9479C12.6266 13.1616 12.7438 13.4514 12.7438 13.7535C12.7438 14.0556 12.6266 14.3454 12.4184 14.559L10.8473 16.1673C10.7447 16.273 10.6227 16.3572 10.4882 16.4143C10.3538 16.4714 10.2095 16.5003 10.064 16.5C9.91832 16.5005 9.77443 16.4714 9.6398 16.4143C9.50516 16.3572 9.3824 16.2732 9.27959 16.1673ZM1.8965 16.1673L0.325485 14.559C0.117207 14.3454 0 14.0556 0 13.7535C0 13.4514 0.117207 13.1616 0.325485 12.9479L1.8965 11.3368C2.10484 11.1232 2.38741 11.003 2.682 11.003C2.9766 11.003 3.25916 11.1232 3.46751 11.3368L5.03743 12.9479C5.24571 13.1616 5.36292 13.4514 5.36292 13.7535C5.36292 14.0556 5.24571 14.3454 5.03743 14.559L3.46751 16.1673C3.25902 16.3806 2.97647 16.5002 2.682 16.5C2.53601 16.5003 2.39167 16.4714 2.2567 16.4143C2.12173 16.3572 1.99878 16.2731 1.89541 16.1673H1.8965ZM12.8719 12.4155L11.3009 10.8128C11.0926 10.5991 10.9754 10.3093 10.9754 10.0072C10.9754 9.70512 11.0926 9.41534 11.3009 9.20168L12.8686 7.59059C13.077 7.377 13.3595 7.2568 13.6541 7.2568C13.9487 7.2568 14.2313 7.377 14.4396 7.59059L16.0106 9.20168C16.2189 9.41534 16.3361 9.70512 16.3361 10.0072C16.3361 10.3093 16.2189 10.5991 16.0106 10.8128L14.4396 12.4216C14.2311 12.6349 13.9486 12.7546 13.6541 12.7543C13.3601 12.7533 13.0784 12.6324 12.8708 12.4189L12.8719 12.4155ZM5.55604 12.4155L3.98503 10.8072C3.77675 10.5936 3.65954 10.3038 3.65954 10.0017C3.65954 9.69956 3.77675 9.40978 3.98503 9.19612L5.55604 7.58503C5.76433 7.37178 6.04613 7.2518 6.34046 7.2518C6.63478 7.2518 6.91767 7.37178 7.12596 7.58503L8.69697 9.19612C8.90525 9.40978 9.02246 9.69956 9.02246 10.0017C9.02246 10.3038 8.90525 10.5936 8.69697 10.8072L7.12596 12.4155C7.02308 12.5213 6.90037 12.6054 6.76576 12.6625C6.63114 12.7196 6.48722 12.7485 6.34154 12.7482C6.04717 12.7496 5.76425 12.6312 5.55495 12.4189L5.55604 12.4155ZM9.21558 8.66261L7.64457 7.05375C7.43629 6.84009 7.31908 6.55087 7.31908 6.24876C7.31908 5.94665 7.43629 5.65687 7.64457 5.44321L9.21558 3.83212C9.42378 3.61957 9.70514 3.5 9.99891 3.5C10.2927 3.5 10.5751 3.61957 10.7833 3.83212L12.3565 5.44321C12.5648 5.65687 12.682 5.94665 12.682 6.24876C12.682 6.55087 12.5648 6.84009 12.3565 7.05375L10.7833 8.66261C10.681 8.76896 10.5587 8.85322 10.4242 8.91073C10.2897 8.96824 10.1457 8.99779 10 8.99752C9.8542 8.99828 9.70953 8.96931 9.5747 8.9124C9.43987 8.85549 9.31753 8.77175 9.21449 8.66595L9.21558 8.66261Z" fill="black"/>
</svg>
