 <svg width="14" height="14" viewBox="0 0 14 14" fill="none" xmlns="http://www.w3.org/2000/svg">
<path d="M9.1 11.2402L9.1 2.75899C9.10009 2.6286 9.0612 2.50111 8.98826 2.39267C8.91533 2.28423 8.81162 2.1997 8.69027 2.14979C8.56891 2.09988 8.43537 2.08683 8.30654 2.1123C8.17771 2.13776 8.05939 2.20058 7.96655 2.29283L3.69442 6.53345C3.56993 6.65711 3.5 6.82479 3.5 6.99961C3.5 7.17443 3.56993 7.3421 3.69442 7.46577L7.96655 11.7064C8.05939 11.7986 8.17771 11.8615 8.30654 11.8869C8.43537 11.9124 8.56891 11.8993 8.69026 11.8494C8.81162 11.7995 8.91533 11.715 8.98826 11.6065C9.0612 11.4981 9.10009 11.3706 9.1 11.2402Z" fill="#919191"/>
</svg>
