<svg width="26" height="26" viewBox="0 0 26 26" fill="none" xmlns="http://www.w3.org/2000/svg">
<rect width="26" height="26" rx="2" fill="#424242"/>
<path d="M7.54757 15.7L18.452 15.7C18.6197 15.7001 18.7836 15.6501 18.923 15.5563C19.0624 15.4626 19.1711 15.3292 19.2353 15.1732C19.2995 15.0172 19.3162 14.8455 19.2835 14.6798C19.2508 14.5142 19.17 14.3621 19.0514 14.2427L13.5992 8.74998C13.4402 8.58991 13.2246 8.5 12.9998 8.5C12.775 8.5 12.5595 8.58991 12.4005 8.74998L6.94823 14.2427C6.82963 14.3621 6.74885 14.5142 6.71612 14.6798C6.68338 14.8455 6.70016 15.0172 6.76433 15.1732C6.8285 15.3292 6.93717 15.4626 7.0766 15.5563C7.21602 15.6501 7.37993 15.7001 7.54757 15.7Z" fill="#DADADA"/>
</svg>
