<svg width="26" height="26" viewBox="0 0 26 26" fill="none" xmlns="http://www.w3.org/2000/svg">
<rect width="26" height="26" rx="2" fill="#6C6C6C"/>
<g clip-path="url(#clip0_27543_33989)">
<path d="M14.2111 20.0172L13.411 20.8381C13.3307 20.9211 13.2352 20.987 13.13 21.0319C13.0247 21.0768 12.9119 21.0999 12.7979 21.0999C12.684 21.0999 12.5711 21.0768 12.4659 21.0319C12.3607 20.987 12.2652 20.9211 12.1849 20.8381L5.15506 13.6294C5.0742 13.547 5.01003 13.449 4.96624 13.3411C4.92245 13.2331 4.8999 13.1174 4.8999 13.0004C4.8999 12.8835 4.92245 12.7677 4.96624 12.6598C5.01003 12.5518 5.0742 12.4538 5.15506 12.3714L12.1829 5.1617C12.2632 5.07874 12.3587 5.0129 12.4639 4.96797C12.5691 4.92304 12.682 4.8999 12.7959 4.8999C12.9099 4.8999 13.0227 4.92304 13.128 4.96797C13.2332 5.0129 13.3287 5.07874 13.409 5.1617L14.2091 5.98262C14.2906 6.06657 14.3549 6.16634 14.3984 6.27609C14.4418 6.38584 14.4636 6.50338 14.4622 6.62184C14.461 6.7403 14.4367 6.8573 14.3908 6.96602C14.345 7.07474 14.2784 7.17299 14.1951 7.25504L9.8376 11.5146H20.2318C20.3462 11.5143 20.4594 11.5372 20.565 11.5821C20.6706 11.627 20.7665 11.6928 20.8473 11.7759C20.928 11.859 20.9918 11.9577 21.0352 12.0662C21.0786 12.1748 21.1005 12.291 21.0999 12.4083V13.5956C21.0999 13.7124 21.0774 13.8282 21.0338 13.9361C20.9901 14.0441 20.9261 14.1421 20.8455 14.2247C20.7648 14.3072 20.6692 14.3727 20.5639 14.4171C20.4586 14.4617 20.3457 14.4845 20.2318 14.4842H9.8396L14.1991 18.7448C14.2831 18.8264 14.3503 18.9246 14.3965 19.0335C14.4428 19.1423 14.4672 19.2596 14.4683 19.3784C14.4694 19.4971 14.4472 19.6149 14.403 19.7246C14.3588 19.8344 14.2936 19.9339 14.2111 20.0172Z" fill="#DADADA"/>
</g>
<defs>
<clipPath id="clip0_27543_33989">
<rect width="18" height="18" fill="white" transform="translate(4 4)"/>
</clipPath>
</defs>
</svg>
