<svg width="100" height="100" viewBox="0 0 100 100" fill="none" xmlns="http://www.w3.org/2000/svg">
<path d="M10 12.5C4.47715 12.5 0 16.9772 0 22.5V77.5C0 83.0229 4.47716 87.5 10 87.5H90C95.5229 87.5 100 83.0229 100 77.5H89.1528L85.1441 72.6999L80.9782 77.5H50.166V51.9442H40L52.7075 22.5H65.0742L68.0611 29.1772V22.5H83.4149L85.9825 29.499L88.4978 22.5H100C100 16.9772 95.5228 12.5 90 12.5H10Z" fill="black"/>
<path fill-rule="evenodd" clip-rule="evenodd" d="M100 26.6565H91.1179L87.0829 37.5439L86.0088 40.4936L80.8473 26.6565H71.9651V48.1094L62.7424 26.6565H55.5896L46.3144 48.1094H52.3931L54.0175 43.9798H64.1835L65.8079 48.1094H71.9651H77.3101V34.1382L77.2839 31.3225L78.332 34.1382L83.4411 48.1094H88.524L93.6595 34.1382L94.655 31.3493V48.1094H100V26.6565ZM58.0525 33.9238L59.1004 31.2421L60.1485 33.9238L62.3231 39.3405H55.8777L58.0525 33.9238Z" fill="black"/>
<path d="M100 56.5029L94.0786 62.5901L100 68.7579V56.5029Z" fill="black"/>
<path fill-rule="evenodd" clip-rule="evenodd" d="M54.4628 51.9709V73.3435H71.9651H78.725L85.0918 66.3712L91.4323 73.3435H98.3756L88.5764 62.617L98.3756 51.9709H91.5372L85.2227 58.9164L78.9345 51.9709H71.9651H54.4628ZM71.9651 51.9709L81.738 62.6974L71.9651 73.3435V68.7042H59.8079V64.9769H71.7293V60.3645H59.8079V56.6102H71.9651V51.9709Z" fill="black"/>
</svg>
