<svg width="20" height="20" viewBox="0 0 20 20" fill="none" xmlns="http://www.w3.org/2000/svg">
<path d="M7.42659 5.97342H6.11462V17.3377C6.11462 17.5134 6.04148 17.6818 5.91121 17.806C5.78095 17.9302 5.60425 18 5.42003 18H3.52844C3.34421 18 3.16752 17.9302 3.03726 17.806C2.90699 17.6818 2.83385 17.5134 2.83385 17.3377V5.97342H1.52188C1.42001 5.97365 1.3203 5.94538 1.23511 5.89211C1.14992 5.83884 1.083 5.7629 1.04262 5.67372C1.00224 5.58455 0.990221 5.48603 1.00798 5.39039C1.02575 5.29474 1.07252 5.20617 1.14256 5.13563L4.09187 2.15492C4.18693 2.05946 4.31779 2.00382 4.4558 2.00019C4.59381 1.99655 4.72773 2.04522 4.82817 2.13554L4.84952 2.15492L7.79877 5.13563C7.86828 5.20627 7.91469 5.29471 7.93223 5.39012C7.94976 5.48552 7.9377 5.58375 7.89753 5.67272C7.85736 5.76168 7.79078 5.8375 7.70604 5.89092C7.6213 5.94434 7.52203 5.97302 7.42044 5.97342H7.42659ZM16.0476 11.3288H9.87652C9.71999 11.3285 9.56993 11.2691 9.45934 11.1634C9.34874 11.0578 9.28665 10.9147 9.28665 10.7654V9.23339C9.28665 9.08414 9.34874 8.94099 9.45934 8.83537C9.56993 8.72975 9.71999 8.67027 9.87652 8.67001H16.0476C16.2044 8.67001 16.3546 8.72938 16.4655 8.83503C16.5763 8.94068 16.6385 9.08397 16.6385 9.23339V10.7654C16.638 10.9144 16.5756 11.057 16.4651 11.1622C16.3546 11.2674 16.2048 11.3266 16.0486 11.3269L16.0476 11.3288ZM18.4101 15.9269H9.87652C9.71999 15.9266 9.56993 15.8672 9.45934 15.7615C9.34874 15.6559 9.28665 15.5128 9.28665 15.3635V13.8315C9.28665 13.6822 9.34874 13.5391 9.45934 13.4334C9.56993 13.3278 9.71999 13.2684 9.87652 13.2681H18.4101C18.5667 13.2684 18.7167 13.3278 18.8273 13.4334C18.9378 13.5391 19 13.6822 19 13.8315V15.3635C18.9995 15.5123 18.9373 15.6548 18.8269 15.7599C18.7166 15.8651 18.5671 15.9244 18.4111 15.9249L18.4101 15.9269ZM13.6852 6.73073H9.87652C9.71999 6.73047 9.56993 6.67099 9.45934 6.56537C9.34874 6.45975 9.28665 6.31658 9.28665 6.16734V4.6353C9.28665 4.48606 9.34874 4.34289 9.45934 4.23727C9.56993 4.13164 9.71999 4.0722 9.87652 4.07194H13.6882C13.7658 4.07194 13.8427 4.08651 13.9143 4.11482C13.986 4.14313 14.0512 4.18463 14.106 4.23694C14.1609 4.28926 14.2044 4.35135 14.2341 4.4197C14.2638 4.48805 14.2791 4.56132 14.2791 4.6353V6.16734C14.2783 6.31625 14.2157 6.45881 14.105 6.56383C13.9942 6.66886 13.8444 6.7278 13.6882 6.7278L13.6852 6.73073Z" fill="black"/>
</svg>
