<svg width="20" height="20" viewBox="0 0 20 20" fill="none" xmlns="http://www.w3.org/2000/svg">
<path d="M7.42659 14.0266H6.11462V2.66227C6.11462 2.48662 6.04148 2.31819 5.91121 2.19399C5.78095 2.06979 5.60425 2 5.42003 2H3.52844C3.34421 2 3.16752 2.06979 3.03726 2.19399C2.90699 2.31819 2.83385 2.48662 2.83385 2.66227V14.0266H1.52188C1.42001 14.0263 1.3203 14.0546 1.23511 14.1079C1.14992 14.1612 1.083 14.2371 1.04262 14.3263C1.00224 14.4155 0.990221 14.514 1.00798 14.6096C1.02575 14.7053 1.07252 14.7938 1.14256 14.8644L4.09187 17.8451C4.18693 17.9405 4.31779 17.9962 4.4558 17.9998C4.59381 18.0034 4.72773 17.9548 4.82817 17.8645L4.84952 17.8451L7.79877 14.8644C7.86828 14.7937 7.91469 14.7053 7.93223 14.6099C7.94976 14.5145 7.9377 14.4162 7.89753 14.3273C7.85736 14.2383 7.79078 14.1625 7.70604 14.1091C7.6213 14.0557 7.52203 14.027 7.42044 14.0266H7.42659ZM16.0476 8.6712H9.87652C9.71999 8.67146 9.56993 8.73093 9.45934 8.83656C9.34875 8.94218 9.28665 9.08531 9.28665 9.23456V10.7666C9.28665 10.9159 9.34875 11.059 9.45934 11.1646C9.56993 11.2703 9.71999 11.3297 9.87652 11.33H16.0476C16.2044 11.33 16.3546 11.2706 16.4655 11.165C16.5763 11.0593 16.6385 10.916 16.6385 10.7666V9.23456C16.638 9.08565 16.5756 8.943 16.4651 8.8378C16.3546 8.73259 16.2048 8.67339 16.0486 8.67314L16.0476 8.6712ZM18.4101 4.07311H9.87652C9.71999 4.07337 9.56993 4.13285 9.45934 4.23847C9.34875 4.34409 9.28665 4.48724 9.28665 4.63649V6.16854C9.28665 6.31778 9.34875 6.46093 9.45934 6.56656C9.56993 6.67218 9.71999 6.73164 9.87652 6.7319H18.4101C18.5667 6.73164 18.7167 6.67218 18.8273 6.56656C18.9378 6.46093 19 6.31778 19 6.16854V4.63649C18.9995 4.48775 18.9373 4.34525 18.8269 4.24007C18.7166 4.13489 18.5671 4.07556 18.4111 4.07505L18.4101 4.07311ZM13.6852 13.2693H9.87652C9.71999 13.2695 9.56993 13.329 9.45934 13.4346C9.34875 13.5403 9.28665 13.6834 9.28665 13.8327V15.3647C9.28665 15.5139 9.34875 15.6571 9.45934 15.7627C9.56993 15.8684 9.71999 15.9278 9.87652 15.9281H13.6882C13.7658 15.9281 13.8427 15.9135 13.9143 15.8852C13.986 15.8569 14.0512 15.8154 14.106 15.7631C14.1609 15.7107 14.2044 15.6487 14.2341 15.5803C14.2638 15.5119 14.2791 15.4387 14.2791 15.3647V13.8327C14.2783 13.6838 14.2157 13.5412 14.105 13.4362C13.9942 13.3311 13.8444 13.2722 13.6882 13.2722L13.6852 13.2693Z" fill="black"/>
</svg>
