<svg xmlns="http://www.w3.org/2000/svg" xmlns:xlink="http://www.w3.org/1999/xlink" width="19" height="19" viewBox="0 0 19 19"><defs><clipPath id="a"><rect width="16.2" height="14.175" fill="#4db6a2" stroke="rgba(0,0,0,0)" stroke-width="1"/></clipPath></defs><g transform="translate(-5406.5 -13568.5)"><rect width="18" height="18" transform="translate(5407 13569)" fill="none" stroke="rgba(0,0,0,0)" stroke-width="1"/><g transform="translate(5407.9 13570.912)"><g clip-path="url(#a)"><path d="M2.6,13.289V.886A.875.875,0,0,0,1.739,0H.868A.875.875,0,0,0,0,.882V13.289a.875.875,0,0,0,.864.886h.872a.875.875,0,0,0,.868-.882v0M4.339,4.725H9.257V1.485A.72.72,0,0,1,10.49.965l5.5,5.616a.726.726,0,0,1,0,1.013l-5.5,5.617a.721.721,0,0,1-1.233-.524V9.447H4.339a.875.875,0,0,1-.868-.882h0V5.611a.875.875,0,0,1,.864-.886h0" transform="translate(0)" fill="#4db6a2" stroke="rgba(0,0,0,0)" stroke-width="1"/></g></g></g></svg>