<svg xmlns="http://www.w3.org/2000/svg" width="15" height="18" viewBox="0 0 15 18">
  <g id="invoice" transform="translate(-532.667 -951.641)">
    <g id="Group_43542" data-name="Group 43542">
      <path id="Path_26347" data-name="Path 26347" d="M547.078,951.641H533.253a.586.586,0,0,0-.586.586h0v15.1a.586.586,0,0,0,.171.415l1.728,1.729a.587.587,0,0,0,.83,0h0l1.313-1.314,1.313,1.314a.587.587,0,0,0,.83,0h0l1.314-1.314,1.313,1.314a.586.586,0,0,0,.829,0h0l1.313-1.314,1.314,1.314a.586.586,0,0,0,.829,0h0l1.728-1.729a.587.587,0,0,0,.172-.415v-15.1a.586.586,0,0,0-.587-.586Zm-7.5,3.948v-.678a.587.587,0,1,1,1.174,0v.667h.668a.587.587,0,0,1,0,1.174h-1.674a.668.668,0,1,0,0,1.336h.838a1.844,1.844,0,0,1,.168,3.68v.679a.587.587,0,0,1-1.174,0v-.667h-.668a.588.588,0,0,1,0-1.175h1.676a.667.667,0,1,0,0-1.335h-.839a1.844,1.844,0,0,1-.168-3.681Zm3.73,10.6h-6.287a.587.587,0,0,1,0-1.174H543.3a.587.587,0,1,1,0,1.174h0Z" fill="#b7b7b7"/>
    </g>
  </g>
</svg>
