<svg id="Group_6064" data-name="Group 6064" xmlns="http://www.w3.org/2000/svg" width="116" height="12.119" viewBox="0 0 116 12.119">
  <g id="Group_6063" data-name="Group 6063" transform="translate(92.015)">
    <path id="Path_4752" data-name="Path 4752" d="M666.209,68.242c.713.278,1.424.575,2.116.909a44.614,44.614,0,0,0-6.406,3.191c-.691-.358-1.4-.714-2.116-1.031A45.492,45.492,0,0,1,666.209,68.242Zm-2.649-.931a38.237,38.237,0,0,0-6.623,2.834c.673.256,1.344.517,2,.793a36.5,36.5,0,0,1,6.427-3.013c-.6-.218-1.19-.436-1.8-.615Z" transform="translate(-656.937 -65.258)" fill="#2267ad" fill-rule="evenodd"/>
    <path id="Path_4753" data-name="Path 4753" d="M688.126,61.3a40.97,40.97,0,0,0-5.617-2.194c-.691.2-1.364.415-2.015.633a40.332,40.332,0,0,1,5.774,2.232c.615-.235,1.228-.455,1.86-.671Zm2.948-.87a41,41,0,0,0-5.714-2.016c-.633.12-1.247.255-1.857.415a38.089,38.089,0,0,1,5.654,2.154c.631-.2,1.282-.4,1.917-.555Zm4.746,1.583A49.833,49.833,0,0,0,682.889,68.6c.989.613,1.937,1.246,2.868,1.937a52.512,52.512,0,0,1,12.278-7.254q-1.09-.676-2.217-1.266Zm-3.2-1.506a44.64,44.64,0,0,0-13.447,6.05c.907.454,1.82.931,2.711,1.441a47.216,47.216,0,0,1,13.207-6.363c-.811-.393-1.622-.788-2.469-1.126Z" transform="translate(-674.051 -58.416)" fill="#cd2e29" fill-rule="evenodd"/>
  </g>
  <path id="Path_4754" data-name="Path 4754" d="M289.52,64.563c2.043,0,3.083,1.622,3.083,3.8,0,2.25-1,3.838-3.083,3.838-2.116,0-3.083-1.585-3.083-3.838C286.437,66.182,287.477,64.563,289.52,64.563Zm0,6.155c.554,0,.8-.516.8-2.362,0-1.694-.172-2.323-.8-2.323s-.8.628-.8,2.323C288.726,70.2,288.966,70.717,289.52,70.717Zm4.509-4.314h-.9V64.78h.9v-.813c0-1.806.83-2.468,2.288-2.468a8.755,8.755,0,0,1,1.109.112v1.806a1.377,1.377,0,0,0-.412-.072c-.59,0-.8.255-.8.7v.74h1.214v1.622h-1.215V72.05h-2.183V66.4Zm-25.755.407c0-.444-.172-.74-.554-.74-.554,0-.728.516-.728.96l-1.943-.444a2.535,2.535,0,0,1,2.738-1.99c1.318,0,2.7.59,2.7,2.213v4.056c0,.811.106,1.066.208,1.178H268.41a6.179,6.179,0,0,1-.067-.662,2.511,2.511,0,0,1-1.663.811,1.9,1.9,0,0,1-1.908-2.139c.035-1.877,2.043-2.468,3.5-2.657V66.81Zm0,1.734c-.763.072-1.353.407-1.353,1.327,0,.516.24.774.658.774a.929.929,0,0,0,.7-.444Zm5.721-1.7v5.2h-2.221V64.78h2.15l.035.74A2.559,2.559,0,0,1,275.9,64.6a1.508,1.508,0,0,1,1.525,1.694v5.753H275.2V67.031c0-.407-.14-.628-.523-.628a.879.879,0,0,0-.685.444Zm4.784-5.122H281v5.236h.035l1.63-2.171h2.183L283.012,67l1.836,5.05H282.56l-1.075-3.173h-.035l-.45.555v2.618h-2.221V61.725Zm-16.362,4.941a2.661,2.661,0,0,1,1.8,2.617c0,1.767-1.318,2.763-3.189,2.763h-3.708V61.725h3.814a2.583,2.583,0,0,1,2.843,2.505,2.478,2.478,0,0,1-1.558,2.363l-.006.072Zm-2.738,3.464h.9a1.157,1.157,0,0,0,1.248-1.29,1.175,1.175,0,0,0-1.05-1.287,1.159,1.159,0,0,0-.2,0h-.9Zm0-4.312h.83a1.064,1.064,0,0,0,1.2-.9,1.087,1.087,0,0,0,.009-.2c0-.995-.623-1.144-1.181-1.144h-.862Zm83.444.936c0-.444-.208-.74-.59-.74-.523,0-.7.516-.728.96l-1.908-.444a2.536,2.536,0,0,1,2.738-1.99c1.318,0,2.7.59,2.7,2.213v4.056a2.342,2.342,0,0,0,.172,1.178h-2.253a6.177,6.177,0,0,1-.068-.662,2.518,2.518,0,0,1-1.7.811A1.922,1.922,0,0,1,339.583,70c.067-1.877,2.081-2.468,3.536-2.657v-.587Zm0,1.734c-.763.072-1.353.407-1.353,1.327,0,.516.24.774.623.774a.985.985,0,0,0,.728-.444Zm-22.7.367c-.035.628.14,1.734,1.041,1.734a1.168,1.168,0,0,0,1.073-.995l1.49.555a2.852,2.852,0,0,1-2.738,1.99c-2.116,0-3.083-1.806-3.083-3.838,0-2.067,1.041-3.8,3.051-3.8,2.116,0,2.879,1.955,2.879,3.87v.479h-3.712Zm1.666-1.4c0-.662-.068-1.473-.83-1.473-.623,0-.868.811-.83,1.473Zm7.97-2.727h2.221V71.99h-2.221Zm0-3.059h2.221v2.1h-2.221Zm7.1,5.753a2.673,2.673,0,0,0-.105-.923.644.644,0,0,0-.622-.518c-.728,0-.83.96-.83,2.434,0,1.622.24,2.171.83,2.171.763,0,.83-.848.83-1.4L339,69.44a2.6,2.6,0,0,1-2.738,2.689c-1.976,0-3.016-1.846-3.016-3.652,0-1.99,1.041-3.979,3.118-3.979a2.737,2.737,0,0,1,2.706,2.913l-1.908.009Zm-34.935-5.756h3.225l2.043,10.32h-2.357l-.383-2.1H302.5l-.45,2.1h-2.116Zm.59,6.413h1.593l-.7-4.2h-.073l-.825,4.2Zm22.213-3.356h2.148v.96h.035a2.41,2.41,0,0,1,2.148-1.144V66.9a2.171,2.171,0,0,0-.9-.183,1.392,1.392,0,0,0-1.213.555V72h-2.221V64.725ZM313.834,66.8V71.99H311.65V67.014c0-.407-.105-.662-.517-.662a1.055,1.055,0,0,0-.728.439v5.2h-2.188V64.725h2.148l.035.74a2.91,2.91,0,0,1,1.976-.923,1.393,1.393,0,0,1,1.353.96h.035a2.587,2.587,0,0,1,1.944-.96,1.5,1.5,0,0,1,1.558,1.657v5.786h-2.183V67.014c0-.407-.105-.662-.517-.662a1.089,1.089,0,0,0-.731.441Z" transform="translate(-257.322 -60.788)" fill="#2267ad" fill-rule="evenodd"/>
</svg>
