<svg xmlns="http://www.w3.org/2000/svg" width="18" height="18" viewBox="0 0 18 18"><g transform="translate(-5283 -9327)"><rect width="18" height="18" transform="translate(5283 9327)" fill="#aaa" opacity="0"/><path d="M14.593,35.037H2.531a.506.506,0,0,1,0-1.013h12.15a.506.506,0,0,0,.506-.506A1.519,1.519,0,0,0,13.669,32H2.025A2.025,2.025,0,0,0,0,34.025V43.15a2.025,2.025,0,0,0,2.025,2.025H14.593A1.566,1.566,0,0,0,16.2,43.656v-7.1A1.566,1.566,0,0,0,14.593,35.037Zm-1.439,6.055a1.013,1.013,0,1,1,1.013-1.013A1.013,1.013,0,0,1,13.153,41.093Z" transform="translate(5283.9 9297.412)" fill="#aaa"/></g></svg>