<svg xmlns="http://www.w3.org/2000/svg" width="18" height="18" viewBox="0 0 18 18">
  <g id="Group_70842" data-name="Group 70842" transform="translate(-196 -37)">
    <rect id="Rectangle_56973" data-name="Rectangle 56973" width="18" height="18" transform="translate(196 37)" fill="none"/>
    <path id="Path_35724" data-name="Path 35724" d="M9.169,17.6a2.137,2.137,0,0,0,2.137-2.137H7.031A2.137,2.137,0,0,0,9.169,17.6m7.194-5c-.642-.69-1.85-1.733-1.85-5.153a5.273,5.273,0,0,0-4.275-5.181v-.7a1.069,1.069,0,1,0-2.137,0v.7A5.275,5.275,0,0,0,3.824,7.447c0,3.42-1.207,4.46-1.853,5.153a1.055,1.055,0,0,0-.284.725,1.069,1.069,0,0,0,1.069,1.069H15.581a1.069,1.069,0,0,0,1.068-1.069,1.04,1.04,0,0,0-.287-.725" transform="translate(195.831 36.95)" fill="#b7b7b7"/>
  </g>
</svg>
