<svg xmlns="http://www.w3.org/2000/svg" width="18" height="18" viewBox="0 0 18 18"><g transform="translate(-566 -166)"><rect width="18" height="18" transform="translate(566 166)" fill="#aaa" opacity="0"/><g transform="translate(35.583 -784.741)"><g transform="translate(532.667 951.641)"><path d="M545.637,951.641H533.194a.527.527,0,0,0-.527.527h0v13.588a.527.527,0,0,0,.154.373l1.555,1.556a.529.529,0,0,0,.747,0h0l1.182-1.183,1.182,1.183a.529.529,0,0,0,.747,0h0l1.183-1.183,1.182,1.183a.527.527,0,0,0,.746,0h0l1.182-1.183,1.183,1.183a.527.527,0,0,0,.746,0h0l1.555-1.556a.528.528,0,0,0,.155-.373V952.168a.528.528,0,0,0-.528-.527Zm-6.752,3.553v-.61a.528.528,0,1,1,1.057,0v.6h.6a.528.528,0,1,1,0,1.057h-1.507a.6.6,0,1,0,0,1.2h.754a1.659,1.659,0,0,1,.151,3.312v.611a.528.528,0,1,1-1.057,0v-.6h-.6a.529.529,0,0,1,0-1.058h1.508a.6.6,0,1,0,0-1.2h-.755a1.66,1.66,0,0,1-.151-3.313Zm3.357,9.536h-5.658a.528.528,0,0,1,0-1.057h5.657a.528.528,0,0,1,0,1.057h0Z" transform="translate(-532.667 -951.641)" fill="#aaa"/></g></g></g></svg>