<svg xmlns="http://www.w3.org/2000/svg" width="15.175" height="17.2" viewBox="0 0 15.175 17.2">
  <path id="user-visor" d="M3.322,5.524A4.05,4.05,0,0,0,7.088,8.1a3.982,3.982,0,0,0,3.737-2.575,1,1,0,0,0,.819-.969V2.531a1.015,1.015,0,0,0-1.012-1.012h-.407a4,4,0,0,0-6.276,0H3.544A1.015,1.015,0,0,0,2.531,2.531V4.556A1,1,0,0,0,3.322,5.524ZM4.05,3.037h6.075V4.05H4.05ZM8.692,9.619H5.483A5.484,5.484,0,0,0,0,15.1a1.1,1.1,0,0,0,1.1,1.1h11.98a1.1,1.1,0,0,0,1.1-1.1A5.484,5.484,0,0,0,8.692,9.619Zm2.487,5.059a.18.18,0,0,1-.041,0,.131.131,0,0,1-.1-.051,5.279,5.279,0,0,0-.629-.791.09.09,0,0,0-.044.012,5.082,5.082,0,0,0-1.171.783.133.133,0,0,1-.142.012.13.13,0,0,1-.063-.123,5.038,5.038,0,0,1,1.131-2.832.129.129,0,0,1,.1-.047.121.121,0,0,1,.095.051,4.838,4.838,0,0,1,.953,2.856A.129.129,0,0,1,11.179,14.678Z" transform="translate(0.5 0.5)" fill="#aaa" stroke="rgba(0,0,0,0)" stroke-miterlimit="10" stroke-width="1"/>
</svg>
