<svg width="126" height="13" viewBox="0 0 126 13" fill="none" xmlns="http://www.w3.org/2000/svg">
<path d="M4.53 12.112C3.242 12.112 2.22933 11.7433 1.492 11.006C0.754667 10.2687 0.386 9.19067 0.386 7.772V2.2H1.786V7.716C1.786 8.808 2.024 9.606 2.5 10.11C2.98533 10.614 3.66667 10.866 4.544 10.866C5.43067 10.866 6.112 10.614 6.588 10.11C7.07333 9.606 7.316 8.808 7.316 7.716V2.2H8.674V7.772C8.674 9.19067 8.30533 10.2687 7.568 11.006C6.84 11.7433 5.82733 12.112 4.53 12.112ZM13.4762 12.084C12.8602 12.084 12.2722 12 11.7122 11.832C11.1616 11.664 10.7276 11.4587 10.4102 11.216L10.9702 10.152C11.2876 10.3667 11.6796 10.5487 12.1462 10.698C12.6129 10.8473 13.0889 10.922 13.5742 10.922C14.1996 10.922 14.6476 10.8333 14.9182 10.656C15.1982 10.4787 15.3382 10.2313 15.3382 9.914C15.3382 9.68067 15.2542 9.49867 15.0862 9.368C14.9182 9.23733 14.6942 9.13933 14.4142 9.074C14.1436 9.00867 13.8402 8.95267 13.5042 8.906C13.1682 8.85 12.8322 8.78467 12.4962 8.71C12.1602 8.626 11.8522 8.514 11.5722 8.374C11.2922 8.22467 11.0682 8.024 10.9002 7.772C10.7322 7.51067 10.6482 7.16533 10.6482 6.736C10.6482 6.288 10.7742 5.896 11.0262 5.56C11.2782 5.224 11.6329 4.96733 12.0902 4.79C12.5569 4.60333 13.1076 4.51 13.7422 4.51C14.2276 4.51 14.7176 4.57067 15.2122 4.692C15.7162 4.804 16.1269 4.96733 16.4442 5.182L15.8702 6.246C15.5342 6.022 15.1842 5.868 14.8202 5.784C14.4562 5.7 14.0922 5.658 13.7282 5.658C13.1402 5.658 12.7016 5.756 12.4122 5.952C12.1229 6.13867 11.9782 6.38133 11.9782 6.68C11.9782 6.932 12.0622 7.128 12.2302 7.268C12.4076 7.39867 12.6316 7.50133 12.9022 7.576C13.1822 7.65067 13.4902 7.716 13.8262 7.772C14.1622 7.81867 14.4982 7.884 14.8342 7.968C15.1702 8.04267 15.4736 8.15 15.7442 8.29C16.0242 8.43 16.2482 8.626 16.4162 8.878C16.5936 9.13 16.6822 9.466 16.6822 9.886C16.6822 10.334 16.5516 10.7213 16.2902 11.048C16.0289 11.3747 15.6602 11.6313 15.1842 11.818C14.7082 11.9953 14.1389 12.084 13.4762 12.084ZM21.6659 12.084C20.8726 12.084 20.1726 11.9207 19.5659 11.594C18.9686 11.2673 18.5019 10.8193 18.1659 10.25C17.8392 9.68067 17.6759 9.02733 17.6759 8.29C17.6759 7.55267 17.8346 6.89933 18.1519 6.33C18.4786 5.76067 18.9219 5.31733 19.4819 5C20.0512 4.67333 20.6906 4.51 21.3999 4.51C22.1186 4.51 22.7532 4.66867 23.3039 4.986C23.8546 5.30333 24.2839 5.75133 24.5919 6.33C24.9092 6.89933 25.0679 7.56667 25.0679 8.332C25.0679 8.388 25.0632 8.45333 25.0539 8.528C25.0539 8.60267 25.0492 8.67267 25.0399 8.738H18.7259V7.772H24.3399L23.7939 8.108C23.8032 7.632 23.7052 7.20733 23.4999 6.834C23.2946 6.46067 23.0099 6.17133 22.6459 5.966C22.2912 5.75133 21.8759 5.644 21.3999 5.644C20.9332 5.644 20.5179 5.75133 20.1539 5.966C19.7899 6.17133 19.5052 6.46533 19.2999 6.848C19.0946 7.22133 18.9919 7.65067 18.9919 8.136V8.36C18.9919 8.85467 19.1039 9.298 19.3279 9.69C19.5612 10.0727 19.8832 10.3713 20.2939 10.586C20.7046 10.8007 21.1759 10.908 21.7079 10.908C22.1466 10.908 22.5432 10.8333 22.8979 10.684C23.2619 10.5347 23.5792 10.3107 23.8499 10.012L24.5919 10.88C24.2559 11.272 23.8359 11.5707 23.3319 11.776C22.8372 11.9813 22.2819 12.084 21.6659 12.084ZM34.1519 12.126C33.3119 12.126 32.5606 11.958 31.8979 11.622C31.2446 11.286 30.7313 10.824 30.3579 10.236C29.9846 9.63867 29.7979 8.95733 29.7979 8.192C29.7979 7.42667 29.9846 6.75 30.3579 6.162C30.7313 5.574 31.2446 5.11667 31.8979 4.79C32.5606 4.454 33.3119 4.286 34.1519 4.286C35.0106 4.286 35.7526 4.468 36.3779 4.832C37.0033 5.196 37.4466 5.70933 37.7079 6.372L35.6499 7.422C35.4726 7.06733 35.2533 6.81067 34.9919 6.652C34.7306 6.484 34.4459 6.4 34.1379 6.4C33.8299 6.4 33.5499 6.47 33.2979 6.61C33.0459 6.75 32.8453 6.95533 32.6959 7.226C32.5559 7.48733 32.4859 7.80933 32.4859 8.192C32.4859 8.584 32.5559 8.91533 32.6959 9.186C32.8453 9.45667 33.0459 9.662 33.2979 9.802C33.5499 9.942 33.8299 10.012 34.1379 10.012C34.4459 10.012 34.7306 9.93267 34.9919 9.774C35.2533 9.606 35.4726 9.34467 35.6499 8.99L37.7079 10.04C37.4466 10.7027 37.0033 11.216 36.3779 11.58C35.7526 11.944 35.0106 12.126 34.1519 12.126ZM43.3435 12V10.586L43.1615 10.236V7.632C43.1615 7.212 43.0308 6.89 42.7695 6.666C42.5175 6.43267 42.1115 6.316 41.5515 6.316C41.1875 6.316 40.8188 6.37667 40.4455 6.498C40.0721 6.61 39.7548 6.76867 39.4935 6.974L38.5975 5.168C39.0268 4.888 39.5401 4.67333 40.1375 4.524C40.7441 4.36533 41.3461 4.286 41.9435 4.286C43.1755 4.286 44.1275 4.57067 44.7995 5.14C45.4808 5.7 45.8215 6.582 45.8215 7.786V12H43.3435ZM41.1035 12.126C40.4968 12.126 39.9835 12.0233 39.5635 11.818C39.1435 11.6127 38.8215 11.3327 38.5975 10.978C38.3828 10.6233 38.2755 10.2267 38.2755 9.788C38.2755 9.32133 38.3921 8.92 38.6255 8.584C38.8681 8.23867 39.2368 7.97733 39.7315 7.8C40.2261 7.61333 40.8655 7.52 41.6495 7.52H43.4415V8.906H42.0135C41.5841 8.906 41.2808 8.976 41.1035 9.116C40.9355 9.256 40.8515 9.44267 40.8515 9.676C40.8515 9.90933 40.9401 10.096 41.1175 10.236C41.2948 10.376 41.5375 10.446 41.8455 10.446C42.1348 10.446 42.3961 10.376 42.6295 10.236C42.8721 10.0867 43.0495 9.86267 43.1615 9.564L43.5255 10.544C43.3855 11.0667 43.1101 11.4633 42.6995 11.734C42.2981 11.9953 41.7661 12.126 41.1035 12.126ZM47.5005 12V4.412H50.0345V6.624L49.6565 5.994C49.8805 5.42467 50.2445 5 50.7485 4.72C51.2525 4.43067 51.8638 4.286 52.5825 4.286V6.68C52.4612 6.66133 52.3538 6.652 52.2605 6.652C52.1765 6.64267 52.0832 6.638 51.9805 6.638C51.4392 6.638 51.0005 6.78733 50.6645 7.086C50.3285 7.37533 50.1605 7.85133 50.1605 8.514V12H47.5005ZM53.6802 12V4.412H56.2142V6.624L55.8362 5.994C56.0602 5.42467 56.4242 5 56.9282 4.72C57.4322 4.43067 58.0435 4.286 58.7622 4.286V6.68C58.6408 6.66133 58.5335 6.652 58.4402 6.652C58.3562 6.64267 58.2628 6.638 58.1602 6.638C57.6188 6.638 57.1802 6.78733 56.8442 7.086C56.5082 7.37533 56.3402 7.85133 56.3402 8.514V12H53.6802ZM59.8599 12V4.412H62.5199V12H59.8599ZM61.1899 3.572C60.7045 3.572 60.3125 3.43667 60.0139 3.166C59.7152 2.89533 59.5659 2.55933 59.5659 2.158C59.5659 1.75667 59.7152 1.42067 60.0139 1.15C60.3125 0.879333 60.7045 0.744 61.1899 0.744C61.6752 0.744 62.0672 0.874666 62.3659 1.136C62.6645 1.388 62.8139 1.71467 62.8139 2.116C62.8139 2.536 62.6645 2.886 62.3659 3.166C62.0765 3.43667 61.6845 3.572 61.1899 3.572ZM68.2245 12.126C67.3285 12.126 66.5445 11.958 65.8725 11.622C65.2099 11.2767 64.6919 10.81 64.3185 10.222C63.9545 9.62467 63.7725 8.948 63.7725 8.192C63.7725 7.436 63.9499 6.764 64.3045 6.176C64.6685 5.57867 65.1679 5.11667 65.8025 4.79C66.4372 4.454 67.1512 4.286 67.9445 4.286C68.6912 4.286 69.3725 4.44 69.9885 4.748C70.6045 5.04667 71.0945 5.49 71.4585 6.078C71.8225 6.666 72.0045 7.38 72.0045 8.22C72.0045 8.31333 71.9999 8.42067 71.9905 8.542C71.9812 8.66333 71.9719 8.77533 71.9625 8.878H65.9565V7.478H70.5485L69.5405 7.87C69.5499 7.52467 69.4845 7.226 69.3445 6.974C69.2139 6.722 69.0272 6.526 68.7845 6.386C68.5512 6.246 68.2759 6.176 67.9585 6.176C67.6412 6.176 67.3612 6.246 67.1185 6.386C66.8852 6.526 66.7032 6.72667 66.5725 6.988C66.4419 7.24 66.3765 7.53867 66.3765 7.884V8.29C66.3765 8.66333 66.4512 8.98533 66.6005 9.256C66.7592 9.52667 66.9832 9.73667 67.2725 9.886C67.5619 10.026 67.9072 10.096 68.3085 10.096C68.6819 10.096 68.9992 10.0447 69.2605 9.942C69.5312 9.83 69.7972 9.662 70.0585 9.438L71.4585 10.894C71.0945 11.2953 70.6465 11.6033 70.1145 11.818C69.5825 12.0233 68.9525 12.126 68.2245 12.126ZM73.231 12V4.412H75.765V6.624L75.387 5.994C75.611 5.42467 75.975 5 76.479 4.72C76.983 4.43067 77.5943 4.286 78.313 4.286V6.68C78.1916 6.66133 78.0843 6.652 77.991 6.652C77.907 6.64267 77.8136 6.638 77.711 6.638C77.1696 6.638 76.731 6.78733 76.395 7.086C76.059 7.37533 75.891 7.85133 75.891 8.514V12H73.231ZM94.9215 12L99.3595 2.2H100.746L105.198 12H103.728L99.7655 2.984H100.326L96.3635 12H94.9215ZM96.8115 9.55L97.1895 8.43H102.706L103.112 9.55H96.8115ZM110.905 12.112C110.158 12.112 109.467 11.9907 108.833 11.748C108.207 11.496 107.661 11.146 107.195 10.698C106.737 10.2407 106.378 9.70867 106.117 9.102C105.855 8.49533 105.725 7.828 105.725 7.1C105.725 6.372 105.855 5.70467 106.117 5.098C106.378 4.49133 106.742 3.964 107.209 3.516C107.675 3.05867 108.221 2.70867 108.847 2.466C109.481 2.214 110.172 2.088 110.919 2.088C111.675 2.088 112.37 2.21867 113.005 2.48C113.649 2.732 114.195 3.11 114.643 3.614L113.733 4.496C113.359 4.104 112.939 3.81467 112.473 3.628C112.006 3.432 111.507 3.334 110.975 3.334C110.424 3.334 109.911 3.42733 109.435 3.614C108.968 3.80067 108.562 4.062 108.217 4.398C107.871 4.734 107.601 5.13533 107.405 5.602C107.218 6.05933 107.125 6.55867 107.125 7.1C107.125 7.64133 107.218 8.14533 107.405 8.612C107.601 9.06933 107.871 9.466 108.217 9.802C108.562 10.138 108.968 10.3993 109.435 10.586C109.911 10.7727 110.424 10.866 110.975 10.866C111.507 10.866 112.006 10.7727 112.473 10.586C112.939 10.39 113.359 10.0913 113.733 9.69L114.643 10.572C114.195 11.076 113.649 11.4587 113.005 11.72C112.37 11.9813 111.67 12.112 110.905 12.112ZM123.668 2.2H125.068V12H123.668V2.2ZM118.04 12H116.64V2.2H118.04V12ZM123.794 7.632H117.9V6.414H123.794V7.632Z" fill="#AAAAAA"/>
<path d="M83.5935 12V10.586L83.4115 10.236V7.632C83.4115 7.212 83.2808 6.89 83.0195 6.666C82.7675 6.43267 82.3615 6.316 81.8015 6.316C81.4375 6.316 81.0688 6.37667 80.6955 6.498C80.3221 6.61 80.0048 6.76867 79.7435 6.974L78.8475 5.168C79.2768 4.888 79.7901 4.67333 80.3875 4.524C80.9941 4.36533 81.5961 4.286 82.1935 4.286C83.4255 4.286 84.3775 4.57067 85.0495 5.14C85.7308 5.7 86.0715 6.582 86.0715 7.786V12H83.5935ZM81.3535 12.126C80.7468 12.126 80.2335 12.0233 79.8135 11.818C79.3935 11.6127 79.0715 11.3327 78.8475 10.978C78.6328 10.6233 78.5255 10.2267 78.5255 9.788C78.5255 9.32133 78.6421 8.92 78.8755 8.584C79.1181 8.23867 79.4868 7.97733 79.9815 7.8C80.4761 7.61333 81.1155 7.52 81.8995 7.52H83.6915V8.906H82.2635C81.8341 8.906 81.5308 8.976 81.3535 9.116C81.1855 9.256 81.1015 9.44267 81.1015 9.676C81.1015 9.90933 81.1901 10.096 81.3675 10.236C81.5448 10.376 81.7875 10.446 82.0955 10.446C82.3848 10.446 82.6461 10.376 82.8795 10.236C83.1221 10.0867 83.2995 9.86267 83.4115 9.564L83.7755 10.544C83.6355 11.0667 83.3601 11.4633 82.9495 11.734C82.5481 11.9953 82.0161 12.126 81.3535 12.126ZM88.8705 12.126C88.4225 12.126 88.0445 11.9767 87.7365 11.678C87.4285 11.3793 87.2745 11.0013 87.2745 10.544C87.2745 10.068 87.4285 9.69 87.7365 9.41C88.0445 9.12067 88.4225 8.976 88.8705 8.976C89.3185 8.976 89.6965 9.12067 90.0045 9.41C90.3125 9.69 90.4665 10.068 90.4665 10.544C90.4665 11.0013 90.3125 11.3793 90.0045 11.678C89.6965 11.9767 89.3185 12.126 88.8705 12.126Z" fill="#92B1F5"/>
</svg>
