<svg xmlns="http://www.w3.org/2000/svg" xmlns:xlink="http://www.w3.org/1999/xlink" width="56" height="56" viewBox="0 0 56 56">
  <defs>
    <filter id="Path_33654" x="0" y="0" width="56" height="56" filterUnits="userSpaceOnUse">
      <feOffset input="SourceAlpha"/>
      <feGaussianBlur stdDeviation="2" result="blur"/>
      <feFlood flood-opacity="0.149"/>
      <feComposite operator="in" in2="blur"/>
      <feComposite in="SourceGraphic"/>
    </filter>
    <filter id="Ellipse_6013" x="6" y="6" width="44" height="44" filterUnits="userSpaceOnUse">
      <feOffset input="SourceAlpha"/>
      <feGaussianBlur stdDeviation="2" result="blur-2"/>
      <feFlood flood-opacity="0.149"/>
      <feComposite operator="in" in2="blur-2"/>
      <feComposite in="SourceGraphic"/>
    </filter>
  </defs>
  <g id="Group_70617" data-name="Group 70617" transform="translate(-1239 -563)">
    <g transform="matrix(1, 0, 0, 1, 1239, 563)" filter="url(#Path_33654)">
      <path id="Path_33654-2" data-name="Path 33654" d="M32.785,3.65l-1.32,2.243a.7.7,0,0,0,.236.943A18.018,18.018,0,0,1,37.164,12.3a.7.7,0,0,0,.943.236l2.243-1.32a.7.7,0,0,0,.244-.978,22.176,22.176,0,0,0-6.831-6.831.7.7,0,0,0-.978.244m9.82,13-2.528.658a.7.7,0,0,0-.5.831,17.906,17.906,0,0,1,0,7.72.7.7,0,0,0,.5.831l2.528.658a.7.7,0,0,0,.864-.517,22.251,22.251,0,0,0,0-9.664.7.7,0,0,0-.864-.517M26.7,40.079a.694.694,0,0,0-.831-.5,17.968,17.968,0,0,1-7.729,0,.7.7,0,0,0-.831.5L16.651,42.6a.7.7,0,0,0,.517.864,22.26,22.26,0,0,0,9.666,0,.7.7,0,0,0,.517-.863ZM11.214,3.649a.7.7,0,0,0-.977-.244A21.926,21.926,0,0,0,3.4,10.237a.7.7,0,0,0,.244.977L5.89,12.533a.7.7,0,0,0,.947-.237A17.977,17.977,0,0,1,12.3,6.837a.7.7,0,0,0,.237-.947Zm-7.3,13.659L1.4,16.652a.7.7,0,0,0-.865.516,22.251,22.251,0,0,0,0,9.664.7.7,0,0,0,.864.517l2.528-.658a.7.7,0,0,0,.5-.831A17.752,17.752,0,0,1,4,22a18.228,18.228,0,0,1,.413-3.859.7.7,0,0,0-.5-.833M5.893,31.465,3.65,32.785a.7.7,0,0,0-.244.978,22.176,22.176,0,0,0,6.831,6.831.7.7,0,0,0,.978-.244l1.32-2.243a.7.7,0,0,0-.236-.943A18.018,18.018,0,0,1,6.836,31.7a.7.7,0,0,0-.943-.236m31.271.236A18.018,18.018,0,0,1,31.7,37.164a.7.7,0,0,0-.236.943l1.32,2.243a.7.7,0,0,0,.978.244,22.176,22.176,0,0,0,6.831-6.831.7.7,0,0,0-.244-.978l-2.243-1.32a.7.7,0,0,0-.943.236M22,0a22,22,0,0,0-4.832.531.7.7,0,0,0-.516.865l.656,2.516a.7.7,0,0,0,.833.5A18.228,18.228,0,0,1,22,4a17.91,17.91,0,0,1,3.869.42.694.694,0,0,0,.831-.5l.651-2.527a.7.7,0,0,0-.517-.863A22.068,22.068,0,0,0,22,0" transform="translate(6 6)" fill="#fff" opacity="0.7"/>
    </g>
    <g transform="matrix(1, 0, 0, 1, 1239, 563)" filter="url(#Ellipse_6013)">
      <circle id="Ellipse_6013-2" data-name="Ellipse 6013" cx="16" cy="16" r="16" transform="translate(12 12)" fill="#fff"/>
    </g>
    <circle id="Ellipse_6012" data-name="Ellipse 6012" cx="14" cy="14" r="14" transform="translate(1253 577)" fill="#ffa726"/>
    <text id="_4" data-name="4" transform="translate(1267 596)" fill="#fff" font-size="14" font-family="Montserrat-ExtraBold, Montserrat" font-weight="800"><tspan x="-4.9" y="0">4</tspan></text>
  </g>
</svg>