<svg width="20" height="20" viewBox="0 0 20 20" fill="none" xmlns="http://www.w3.org/2000/svg">
    <path d="M4.482 8.90201L4.09421 10.3465C4.00322 10.6969 3.9776 11.0612 4.01865 11.4209L2.91859 12.3265C2.87419 12.3652 2.8188 12.389 2.76018 12.3946C2.70156 12.4003 2.64265 12.3874 2.59169 12.3579C2.54073 12.3284 2.50029 12.2837 2.47602 12.23C2.45175 12.1764 2.44487 12.1165 2.45635 12.0587L2.93859 9.66202C2.94588 9.6235 2.94505 9.58389 2.93618 9.5457C2.92731 9.50752 2.91058 9.47161 2.88706 9.44025C2.86354 9.40889 2.83374 9.38277 2.79957 9.36356C2.7654 9.34435 2.7276 9.33247 2.68858 9.32868L0.260681 9.08979C0.201537 9.08504 0.145376 9.06185 0.100117 9.02348C0.054859 8.98512 0.0227873 8.93351 0.00842569 8.87594C-0.00593598 8.81838 -0.00186298 8.75775 0.0200702 8.70263C0.0420035 8.6475 0.0806902 8.60064 0.130674 8.56868L2.16744 7.21978C2.20075 7.19821 2.22915 7.1699 2.25082 7.13666C2.27248 7.10342 2.28692 7.066 2.29321 7.02683C2.29949 6.98765 2.29748 6.94759 2.2873 6.90925C2.27712 6.8709 2.259 6.83512 2.23411 6.80422L0.678479 4.91643C0.641355 4.87151 0.618983 4.81624 0.614411 4.75815C0.60984 4.70006 0.623291 4.64197 0.652932 4.5918C0.682574 4.54163 0.726963 4.50182 0.780052 4.47779C0.833142 4.45377 0.892348 4.44669 0.949604 4.45754L3.34528 4.94198C3.38378 4.94909 3.42334 4.94815 3.46145 4.9392C3.49957 4.93026 3.53542 4.91352 3.56674 4.89003C3.59806 4.86654 3.62417 4.83681 3.64343 4.80272C3.66269 4.76864 3.67467 4.73093 3.67863 4.69198L3.91975 2.25863C3.92485 2.20036 3.94786 2.1451 3.98563 2.10042C4.02339 2.05575 4.07405 2.02386 4.13067 2.00913C4.18728 1.9944 4.24706 1.99755 4.30181 2.01815C4.35656 2.03875 4.40359 2.07579 4.43644 2.12418L5.78985 4.16531C5.81177 4.19828 5.84036 4.22628 5.87377 4.24752C5.90718 4.26876 5.94467 4.28276 5.98383 4.28863C6.02298 4.29449 6.06293 4.29208 6.1011 4.28156C6.13927 4.27104 6.1748 4.25263 6.20542 4.22753L8.09441 2.67197C8.13943 2.63457 8.19496 2.6121 8.25331 2.60765C8.31167 2.60321 8.36997 2.61701 8.42013 2.64716C8.47029 2.67731 8.50984 2.7223 8.53331 2.77591C8.55677 2.82953 8.56299 2.88911 8.5511 2.94641L8.19552 4.70198C8.11107 4.79754 8.02551 4.89198 7.94884 4.99532L6.94879 6.33866L6.61544 6.78311C6.10548 6.91869 5.64005 7.18575 5.26566 7.55758C4.89128 7.92942 4.62105 8.39301 4.482 8.90201ZM19.9383 13.0432L19.5505 14.4876C19.4563 14.8385 19.2662 15.1563 19.0016 15.4054C18.9169 15.487 18.8255 15.5614 18.7283 15.6276L18.2916 17.2598C18.2228 17.5154 18.0556 17.7333 17.8265 17.8657C17.5973 17.9982 17.3251 18.0344 17.0693 17.9665L16.1037 17.7076C15.8481 17.6389 15.6303 17.4716 15.4978 17.2425C15.3653 17.0134 15.3291 16.7412 15.397 16.4854L15.6559 15.5198L7.92329 13.4487L7.66438 14.4143C7.59561 14.6698 7.42836 14.8877 7.19925 15.0201C6.97015 15.1526 6.69788 15.1888 6.4421 15.1209L5.4765 14.8621C5.22095 14.7933 5.00307 14.626 4.87061 14.3969C4.73815 14.1679 4.70189 13.8956 4.76979 13.6398L5.20648 12.0076C5.15358 11.9022 5.10971 11.7926 5.07537 11.6798C4.97075 11.332 4.96498 10.9619 5.0587 10.6109L5.4465 9.16646C5.52445 8.87223 5.66901 8.59987 5.869 8.37041C6.06899 8.14095 6.31906 7.96054 6.59989 7.84312C6.78407 7.7654 6.97881 7.71559 7.17769 7.69534L7.74439 6.93866L8.74444 5.59532C9.05914 5.17395 9.46427 4.82844 9.93005 4.5842C10.0814 4.50481 10.2386 4.43684 10.4001 4.38087C10.7248 4.26833 11.0645 4.20467 11.4079 4.19198C11.7601 4.17922 12.1121 4.2193 12.4524 4.31087L16.2859 5.33754C16.6266 5.42848 16.9518 5.57006 17.2504 5.75754C17.6916 6.03481 18.0649 6.40758 18.3428 6.84835C18.6207 7.28911 18.7961 7.78664 18.8561 8.30423L19.055 9.97091L19.1661 10.9098C19.4908 11.1441 19.7384 11.4698 19.8772 11.8454C20.0196 12.23 20.0387 12.6494 19.9317 13.0454L19.9383 13.0432ZM7.99218 9.32646C7.86572 9.28431 7.73177 9.26943 7.59915 9.28281C7.46653 9.29619 7.33824 9.33752 7.22276 9.40408C7.10727 9.47064 7.0072 9.56092 6.92914 9.66896C6.85108 9.77701 6.79681 9.90036 6.76989 10.0309C6.72776 10.1576 6.713 10.2918 6.72659 10.4246C6.74017 10.5574 6.78179 10.6858 6.8487 10.8013C6.9156 10.9169 7.00627 11.0169 7.1147 11.0948C7.22313 11.1726 7.34686 11.2266 7.47771 11.2531C8.05774 11.4087 8.90111 11.7376 9.05556 11.1598C9.07736 10.7841 8.98843 10.4102 8.79981 10.0845C8.61119 9.75885 8.33115 9.49566 7.9944 9.32757L7.99218 9.32646ZM17.0737 10.2065L16.8748 8.53979C16.8393 8.24214 16.7154 7.96197 16.5192 7.7354C16.3229 7.50883 16.0632 7.34627 15.7737 7.26867L11.9402 6.24199C11.6501 6.16505 11.3437 6.17686 11.0604 6.2759C10.7771 6.37494 10.5301 6.55665 10.3512 6.79755L9.34558 8.13534L14.7203 9.57979L17.0737 10.2065ZM17.6515 11.9143C17.2759 11.8913 16.9017 11.9791 16.5754 12.1667C16.2491 12.3543 15.985 12.6336 15.8159 12.9698C15.6614 13.5476 16.5559 13.6843 17.136 13.8398C17.2661 13.8863 17.4044 13.9053 17.5423 13.8956C17.6801 13.886 17.8145 13.8478 17.9368 13.7836C18.0592 13.7194 18.1669 13.6306 18.2533 13.5227C18.3396 13.4148 18.4026 13.2902 18.4383 13.1567C18.4741 13.0232 18.4817 12.8838 18.4609 12.7472C18.4401 12.6106 18.3911 12.4798 18.3172 12.3631C18.2433 12.2463 18.146 12.1462 18.0314 12.0689C17.9168 11.9917 17.7875 11.939 17.6515 11.9143Z" fill="black"/>
</svg>
