<svg xmlns="http://www.w3.org/2000/svg" width="18" height="18" viewBox="0 0 18 18"><g transform="translate(-6299 -12074)"><rect width="18" height="18" transform="translate(6299 12074)" fill="#aaa" opacity="0"/><path d="M8.533,86.188l3.518-3.518a1.106,1.106,0,0,0,0-1.564l-.782-.782a1.106,1.106,0,0,0-1.564,0L6.188,83.842,2.669,80.324a1.106,1.106,0,0,0-1.564,0l-.782.782a1.106,1.106,0,0,0,0,1.564l3.518,3.518L.324,89.706a1.106,1.106,0,0,0,0,1.564l.782.782a1.106,1.106,0,0,0,1.564,0l3.518-3.518,3.518,3.518a1.106,1.106,0,0,0,1.564,0l.782-.782a1.106,1.106,0,0,0,0-1.564Z" transform="translate(6301.813 11996.813)" fill="#aaa"/></g></svg>