<svg width="18" height="18" viewBox="0 0 18 18" fill="none" xmlns="http://www.w3.org/2000/svg">
<path d="M8.99922 0.450195C7.30819 0.450195 5.65513 0.951644 4.2491 1.89113C2.84306 2.83062 1.74718 4.16594 1.10005 5.72825C0.452923 7.29056 0.283605 9.00968 0.613508 10.6682C0.943412 12.3267 1.75772 13.8502 2.95346 15.046C4.1492 16.2417 5.67266 17.056 7.3312 17.3859C8.98973 17.7158 10.7089 17.5465 12.2712 16.8994C13.8335 16.2522 15.1688 15.1564 16.1083 13.7503C17.0478 12.3443 17.5492 10.6912 17.5492 9.00019C17.5492 7.87739 17.3281 6.76558 16.8984 5.72825C16.4687 4.69092 15.8389 3.74837 15.045 2.95443C14.251 2.16049 13.3085 1.5307 12.2712 1.10103C11.2338 0.671348 10.122 0.450195 8.99922 0.450195ZM13.1919 11.2443C13.2304 11.2827 13.261 11.3284 13.2818 11.3787C13.3027 11.4289 13.3134 11.4828 13.3134 11.5372C13.3134 11.5916 13.3027 11.6455 13.2818 11.6958C13.261 11.746 13.2304 11.7917 13.1919 11.8301L11.827 13.1918C11.7886 13.2303 11.743 13.2609 11.6927 13.2817C11.6424 13.3026 11.5885 13.3133 11.5341 13.3133C11.4797 13.3133 11.4258 13.3026 11.3756 13.2817C11.3253 13.2609 11.2797 13.2303 11.2412 13.1918L8.99922 10.9308L6.75511 13.1929C6.71667 13.2314 6.67102 13.2619 6.62075 13.2828C6.57049 13.3036 6.51661 13.3144 6.46219 13.3144C6.40777 13.3144 6.35389 13.3036 6.30363 13.2828C6.25337 13.2619 6.20771 13.2314 6.16927 13.1929L4.80761 11.828C4.76909 11.7896 4.73852 11.7439 4.71767 11.6937C4.69682 11.6434 4.68608 11.5895 4.68608 11.5351C4.68608 11.4807 4.69682 11.4268 4.71767 11.3765C4.73852 11.3263 4.76909 11.2806 4.80761 11.2422L7.06861 9.00019L4.80655 6.75608C4.76803 6.71765 4.73747 6.67199 4.71662 6.62173C4.69576 6.57146 4.68503 6.51758 4.68503 6.46316C4.68503 6.40875 4.69576 6.35487 4.71662 6.3046C4.73747 6.25434 4.76803 6.20868 4.80655 6.17025L6.17139 4.80542C6.20982 4.76689 6.25548 4.73633 6.30574 4.71548C6.356 4.69462 6.40989 4.68389 6.4643 4.68389C6.51872 4.68389 6.5726 4.69462 6.62287 4.71548C6.67313 4.73633 6.71878 4.76689 6.75722 4.80542L8.99922 7.06958L11.2433 4.80753C11.2818 4.769 11.3274 4.73844 11.3777 4.71759C11.4279 4.69674 11.4818 4.686 11.5362 4.686C11.5907 4.686 11.6445 4.69674 11.6948 4.71759C11.7451 4.73844 11.7907 4.769 11.8292 4.80753L13.194 6.17236C13.2325 6.21079 13.2631 6.25645 13.2839 6.30671C13.3048 6.35698 13.3155 6.41086 13.3155 6.46528C13.3155 6.51969 13.3048 6.57358 13.2839 6.62384C13.2631 6.6741 13.2325 6.71976 13.194 6.75819L10.9298 9.00019L13.1919 11.2443Z" fill="#E66767"/>
</svg>
