<svg xmlns="http://www.w3.org/2000/svg" width="18" height="18" viewBox="0 0 18 18"><g transform="translate(-911.861 -1357)"><rect width="18" height="18" transform="translate(911.861 1357)" fill="#aaa" opacity="0"/><path d="M2160.787-9651.8a4.787,4.787,0,0,1-4.787-4.787v-6.214a1,1,0,0,1,1-1h1a1,1,0,0,1,1,1v5.307a2.694,2.694,0,0,0,2.693,2.693H2167a1,1,0,0,1,1,1v1a1,1,0,0,1-1,1Zm1.412-4.2a2,2,0,0,1-2-2v-8a2,2,0,0,1,2-2h8a2,2,0,0,1,2,2v8a2,2,0,0,1-2,2Zm1-3h6v-6h-6Z" transform="translate(-1243.238 11025.9)" fill="#aaa"/></g></svg>