<svg xmlns="http://www.w3.org/2000/svg" width="51.545" height="18" viewBox="0 0 51.545 18">
  <g id="Group_1937" data-name="Group 1937" transform="translate(-0.003 -0.001)">
    <path id="Path_1253" data-name="Path 1253" d="M2807.389,1450.57a2.475,2.475,0,1,0,2.531,2.471,2.5,2.5,0,0,0-2.531-2.471Z" transform="translate(-2795.739 -1437.555)" fill="#b7b7b7"/>
    <path id="Path_1254" data-name="Path 1254" d="M2768.179,1450.57a2.475,2.475,0,1,0,2.532,2.471A2.5,2.5,0,0,0,2768.179,1450.57Z" transform="translate(-2765.082 -1437.555)" fill="#b7b7b7"/>
    <path id="Path_1255" data-name="Path 1255" d="M2810.256,1441.65h-47.274v1.227h0v1.437h0v3.228h.176v-2.94h.3a3.053,3.053,0,0,1,5.224,0h2.936v2.94h.176v-2.94h.216a3.053,3.053,0,0,1,5.224,0H2802.9l1.179,1.329v2.535h-.336v.124h1.4v-.124h-.308v-3.923l9.68-1.667h0v-1.227h-4.267Zm-6.171,3.834-.781-.88h.781Z" transform="translate(-2762.979 -1430.591)" fill="#b7b7b7"/>
    <path id="Path_1256" data-name="Path 1256" d="M2814.527,1395.146c-1.076-3.135-5.259-4.4-5.259-4.4h0a17.323,17.323,0,0,1-5.76,0,17.316,17.316,0,0,1-5.759,0,17.322,17.322,0,0,1-5.76,0,17.317,17.317,0,0,1-5.759,0,17.317,17.317,0,0,1-5.759,0,17.315,17.315,0,0,1-5.758,0,17.317,17.317,0,0,1-5.759,0,17.316,17.316,0,0,1-5.759,0h0a.207.207,0,0,0-.15.062.223.223,0,0,0-.064.154v5.788h0v5.141h.429v-5.141h5.329v5.141h.43v-5.141h5.329v5.141h.429v-5.141h5.329v5.141h.429v-5.141h5.329v5.141h.429v-5.141h5.329v5.141h.429v-5.141h5.33v5.141h.43v-5.141h5.329v5.141h.429v-5.141h5.329v5.141h.43v-5.141h4.615v5.141h.43v-5.141h0Z" transform="translate(-2762.979 -1390.75)" fill="#b7b7b7"/>
  </g>
</svg>
