<svg xmlns="http://www.w3.org/2000/svg" width="18" height="19.001" viewBox="0 0 18 19.001">
  <g id="Money" transform="translate(-229 -666.499)">
    <rect id="Rectangle_62469" data-name="Rectangle 62469" width="18" height="18" transform="translate(229 667)" fill="#6f9ee0" opacity="0"/>
    <path id="Union_1424" data-name="Union 1424" d="M9617.887,6780a.589.589,0,0,1-.61-.562v-1.688a5.725,5.725,0,0,1-3.3-1.053.58.58,0,0,1-.249-.435.53.53,0,0,1,.181-.428l1.329-1.2a.65.65,0,0,1,.425-.159.609.609,0,0,1,.321.089,2.489,2.489,0,0,0,1.307.37h2.532a1.085,1.085,0,0,0,1.128-1.037,1.062,1.062,0,0,0-.812-1l-3.913-1.056a4.15,4.15,0,0,1-3.2-3.394,3.634,3.634,0,0,1,.952-2.819,4.33,4.33,0,0,1,3.213-1.387h.095v-1.686a.589.589,0,0,1,.61-.563h1.223a.447.447,0,0,1,.058,0,4.512,4.512,0,0,0-1.389,5.059h-.6a1.088,1.088,0,0,0-1.128,1.039,1.056,1.056,0,0,0,.812,1l4.126,1.109a4.106,4.106,0,0,1,2.611,2.065,3.551,3.551,0,0,1,.157,2.916,4.312,4.312,0,0,1-4.037,2.556v1.7a.589.589,0,0,1-.613.563Zm.614-14.5a3.5,3.5,0,1,1,3.5,3.5A3.5,3.5,0,0,1,9618.5,6765.5Zm1.372-.152v.3a.3.3,0,0,0,.3.3h1.367v1.37a.3.3,0,0,0,.3.3h.3a.3.3,0,0,0,.3-.3v-1.37h1.367a.3.3,0,0,0,.3-.3v-.3a.3.3,0,0,0-.3-.3h-1.367v-1.365a.3.3,0,0,0-.3-.3h-.3a.3.3,0,0,0-.3.3v1.365h-1.367A.306.306,0,0,0,9619.873,6765.347Z" transform="translate(-9380.5 -6095)" fill="#6f9ee0" stroke="rgba(0,0,0,0)" stroke-width="1"/>
  </g>
</svg>
