<svg xmlns="http://www.w3.org/2000/svg" width="20" height="20" viewBox="0 0 20 20">
  <g id="Dispatch" transform="translate(-92 -626)">
    <rect id="Rectangle_52459" data-name="Rectangle 52459" width="20" height="20" transform="translate(92 626)" fill="none"/>
    <path id="Path_35309" data-name="Path 35309" d="M1.844,11.3h3.8a.843.843,0,0,1,.843.844v6.013A.843.843,0,0,1,5.641,19H3.249A2.251,2.251,0,0,1,1,16.75V12.143a.844.844,0,0,1,.844-.844" transform="translate(92 626)" fill="#b7b7b7"/>
    <path id="Path_35310" data-name="Path 35310" d="M18.156,8.7h-3.8a.844.844,0,0,1-.844-.844V1.844A.844.844,0,0,1,14.354,1h2.4A2.25,2.25,0,0,1,19,3.25V7.857a.844.844,0,0,1-.844.844" transform="translate(92 626)" fill="#b7b7b7"/>
    <path id="Path_35311" data-name="Path 35311" d="M1,7.857V3.25A2.25,2.25,0,0,1,3.248,1h6.9a.843.843,0,0,1,.844.843V7.857a.844.844,0,0,1-.844.844h-8.3A.844.844,0,0,1,1,7.857" transform="translate(92 626)" fill="#b7b7b7"/>
    <path id="Path_35312" data-name="Path 35312" d="M19,12.143V16.75A2.25,2.25,0,0,1,16.747,19H9.857a.842.842,0,0,1-.843-.843V12.143a.843.843,0,0,1,.843-.844h8.3a.844.844,0,0,1,.844.844" transform="translate(92 626)" fill="#b7b7b7"/>
  </g>
</svg>
