<svg xmlns="http://www.w3.org/2000/svg" width="16" height="16" viewBox="0 0 16 16">
  <g id="Group_68899" data-name="Group 68899" transform="translate(-772 -57)">
    <rect id="Rectangle_55169" data-name="Rectangle 55169" width="16" height="16" transform="translate(772 57)" fill="none" opacity="0"/>
    <path id="download" d="M6.075,1h2.25A.673.673,0,0,1,9,1.675V5.6h2.467a.561.561,0,0,1,.4.959L7.585,10.84a.545.545,0,0,1-.768,0L2.534,6.559a.561.561,0,0,1,.4-.959H5.4V1.675A.673.673,0,0,1,6.075,1ZM14.4,10.775v3.15a.673.673,0,0,1-.675.675H.675A.673.673,0,0,1,0,13.925v-3.15A.673.673,0,0,1,.675,10.1H4.8l1.378,1.378a1.441,1.441,0,0,0,2.042,0L9.6,10.1h4.126A.673.673,0,0,1,14.4,10.775ZM10.912,13.25a.563.563,0,1,0-.562.563A.564.564,0,0,0,10.912,13.25Zm1.8,0a.563.563,0,1,0-.562.563A.564.564,0,0,0,12.712,13.25Z" transform="translate(772.8 57.2)" fill="#dadada"/>
  </g>
</svg>
