<svg width="12" height="14" viewBox="0 0 12 14" fill="none" xmlns="http://www.w3.org/2000/svg">
<path d="M2.0001 6.21237H2.3375C2.65624 6.91656 3.17124 7.51393 3.8208 7.93292C4.47036 8.3519 5.22693 8.57475 5.9999 8.57475C6.77287 8.57475 7.52945 8.3519 8.17901 7.93292C8.82857 7.51393 9.34356 6.91656 9.6623 6.21237H9.9997C10.1047 6.21274 10.2057 6.17162 10.2805 6.09794C10.3554 6.02426 10.3981 5.92399 10.3994 5.81897V3.45647C10.3981 3.35144 10.3554 3.25117 10.2805 3.17749C10.2057 3.10381 10.1047 3.06269 9.9997 3.06307H9.6623C9.34356 2.35887 8.82857 1.7615 8.17901 1.34251C7.52945 0.923526 6.77287 0.700684 5.9999 0.700684C5.22693 0.700684 4.47036 0.923526 3.8208 1.34251C3.17124 1.7615 2.65624 2.35887 2.3375 3.06307H2.0001C1.89495 3.06269 1.79391 3.10391 1.71903 3.17774C1.64416 3.25157 1.60151 3.35202 1.6004 3.45717V5.81897C1.60169 5.92399 1.64442 6.02426 1.71928 6.09794C1.79414 6.17162 1.89507 6.21274 2.0001 6.21237ZM2.9997 4.04657C3.031 3.75796 3.17431 3.49316 3.39881 3.30911C3.62331 3.12507 3.91106 3.03647 4.2002 3.06237H7.8003C8.08933 3.03666 8.37691 3.12535 8.60125 3.30938C8.82559 3.49341 8.9688 3.75809 9.0001 4.04657V4.63737C8.99781 4.95015 8.93389 5.25942 8.81199 5.54748C8.69009 5.83554 8.5126 6.09675 8.28967 6.31617C8.06674 6.53559 7.80275 6.70891 7.51279 6.82622C7.22283 6.94354 6.91259 7.00254 6.5998 6.99987H5.4C5.08722 7.00254 4.77698 6.94354 4.48702 6.82622C4.19705 6.70891 3.93306 6.53559 3.71013 6.31617C3.48721 6.09675 3.30972 5.83554 3.18782 5.54748C3.06591 5.25942 3.00199 4.95015 2.9997 4.63737V4.04657ZM4.8001 5.81897L5.1004 4.93277L5.9999 4.63737L5.0997 4.33986L4.8001 3.45647L4.4998 4.33986L3.5996 4.63527L4.4998 4.93067L4.8001 5.81897ZM8.5899 8.60987C7.81561 9.10177 6.91724 9.363 5.9999 9.363C5.08257 9.363 4.1842 9.10177 3.4099 8.60987C2.59219 8.68622 1.83183 9.06306 1.27586 9.66753C0.719879 10.272 0.407778 11.0611 0.399902 11.8824L0.399902 12.1183C0.401001 12.2747 0.432917 12.4293 0.493826 12.5733C0.554734 12.7174 0.64344 12.848 0.754871 12.9578C0.866302 13.0675 0.998273 13.1542 1.14324 13.2129C1.2882 13.2716 1.44331 13.3012 1.5997 13.2999H3.5996V11.7249C3.60033 11.6206 3.62162 11.5175 3.66224 11.4215C3.70287 11.3254 3.76203 11.2383 3.83634 11.1652C3.91066 11.092 3.99867 11.0343 4.09534 10.9952C4.19201 10.9561 4.29543 10.9364 4.3997 10.9374H7.5994C7.70367 10.9364 7.8071 10.9561 7.90377 10.9952C8.00044 11.0343 8.08844 11.092 8.16276 11.1652C8.23708 11.2383 8.29624 11.3254 8.33686 11.4215C8.37748 11.5175 8.39877 11.6206 8.3995 11.7249V13.2999H10.3994C10.5558 13.3012 10.7109 13.2718 10.8559 13.2132C11.0009 13.1546 11.1329 13.0679 11.2444 12.9583C11.3559 12.8486 11.4447 12.718 11.5057 12.574C11.5667 12.43 11.5987 12.2754 11.5999 12.119V11.8831C11.5924 11.0617 11.2804 10.2723 10.7244 9.66762C10.1683 9.06298 9.40779 8.68608 8.5899 8.60987ZM7.1997 11.7249C7.122 11.726 7.04637 11.75 6.9823 11.794C6.91823 11.838 6.86859 11.8999 6.83962 11.972C6.81065 12.0441 6.80364 12.1231 6.81947 12.1992C6.8353 12.2753 6.87327 12.345 6.92861 12.3996C6.98394 12.4541 7.05416 12.4911 7.13045 12.5059C7.20675 12.5206 7.2857 12.5125 7.35738 12.4825C7.42907 12.4525 7.49029 12.402 7.53335 12.3373C7.57642 12.2726 7.59939 12.1967 7.5994 12.119C7.59829 12.0138 7.55565 11.9134 7.48077 11.8395C7.40589 11.7657 7.30486 11.7245 7.1997 11.7249ZM4.7994 11.7249C4.69425 11.7245 4.59321 11.7657 4.51833 11.8395C4.44346 11.9134 4.40081 12.0138 4.3997 12.119V13.2999H5.1998V12.119C5.19869 12.0138 5.15605 11.9134 5.08117 11.8395C5.00629 11.7657 4.90526 11.7245 4.8001 11.7249H4.7994Z" fill="#6C6C6C"/>
</svg>
