<svg xmlns="http://www.w3.org/2000/svg" width="18" height="18" viewBox="0 0 18 18"><g transform="translate(-745 -501)"><rect width="18" height="18" transform="translate(745 501)" fill="#aaa" opacity="0"/><path d="M13.8,5.063H.38A.38.38,0,0,1,0,4.683V3.544A1.519,1.519,0,0,1,1.519,2.025H3.037V.38A.38.38,0,0,1,3.417,0H4.683a.38.38,0,0,1,.38.38V2.025h4.05V.38A.38.38,0,0,1,9.492,0h1.266a.38.38,0,0,1,.38.38V2.025h1.519a1.519,1.519,0,0,1,1.519,1.519V4.683A.38.38,0,0,1,13.8,5.063ZM.38,6.075H13.8a.38.38,0,0,1,.38.38v8.227A1.519,1.519,0,0,1,12.656,16.2H1.519A1.519,1.519,0,0,1,0,14.681V6.455A.38.38,0,0,1,.38,6.075ZM10.925,9.111l-.891-.9a.38.38,0,0,0-.537,0L6.142,11.538,4.687,10.072a.38.38,0,0,0-.537,0l-.9.891a.38.38,0,0,0,0,.537l2.614,2.635a.38.38,0,0,0,.537,0l4.523-4.487a.38.38,0,0,0,0-.537Z" transform="translate(746.912 501.9)" fill="#aaa"/></g></svg>