<svg width="18" height="18" viewBox="0 0 18 18" fill="none" xmlns="http://www.w3.org/2000/svg">
<path d="M8.99922 0.450195C7.30819 0.450195 5.65514 0.951644 4.2491 1.89113C2.84306 2.83062 1.74718 4.16594 1.10005 5.72825C0.452924 7.29056 0.283605 9.00968 0.613508 10.6682C0.943412 12.3268 1.75772 13.8502 2.95346 15.046C4.1492 16.2417 5.67266 17.056 7.3312 17.3859C8.98974 17.7158 10.7089 17.5465 12.2712 16.8994C13.8335 16.2522 15.1688 15.1564 16.1083 13.7503C17.0478 12.3443 17.5492 10.6912 17.5492 9.00019C17.5494 7.87736 17.3283 6.76549 16.8987 5.7281C16.469 4.6907 15.8392 3.74811 15.0453 2.95414C14.2513 2.16017 13.3087 1.53039 12.2713 1.10076C11.2339 0.671126 10.1221 0.450064 8.99922 0.450195ZM4.44922 10.3792C4.3395 10.3789 4.23435 10.3352 4.15677 10.2576C4.07919 10.1801 4.03549 10.0749 4.03522 9.96519V8.0352C4.03549 7.92548 4.07919 7.82033 4.15677 7.74274C4.23435 7.66516 4.3395 7.62146 4.44922 7.62119H13.5492C13.6589 7.62146 13.7641 7.66516 13.8417 7.74274C13.9193 7.82033 13.963 7.92548 13.9632 8.0352V9.9662C13.963 10.0759 13.9193 10.1811 13.8417 10.2586C13.7641 10.3362 13.6589 10.3799 13.5492 10.3802L4.44922 10.3792Z" fill="#E66767"/>
</svg>
