<svg width="20" height="20" viewBox="0 0 20 20" fill="none" xmlns="http://www.w3.org/2000/svg">
<path d="M18.9999 2.9969V16.9997C19.0015 17.1298 18.9778 17.259 18.9302 17.3797C18.8825 17.5005 18.8119 17.6105 18.7223 17.7035C18.6326 17.7964 18.5258 17.8705 18.408 17.9214C18.2901 17.9722 18.1635 17.999 18.0355 18H17.0711C16.9434 17.9984 16.8173 17.9712 16.6999 17.9201C16.5826 17.8689 16.4763 17.7948 16.3871 17.7019C16.298 17.609 16.2277 17.4992 16.1804 17.3787C16.133 17.2582 16.1094 17.1294 16.1111 16.9997V3.00028C16.1094 2.87018 16.1331 2.74103 16.1808 2.62025C16.2284 2.49948 16.2991 2.38946 16.3887 2.29651C16.4783 2.20357 16.5851 2.12953 16.703 2.07864C16.8209 2.02776 16.9474 2.00103 17.0755 2H18.0399C18.2972 2.00328 18.5427 2.11004 18.7226 2.2969C18.9026 2.48376 19.0023 2.73548 18.9999 2.9969ZM1.96451 12.6655H7.42891V16.3201C7.42558 16.4828 7.47041 16.6428 7.55758 16.7793C7.64476 16.9159 7.77027 17.0227 7.91786 17.0859C8.06545 17.1492 8.22834 17.166 8.38542 17.1341C8.5425 17.1022 8.68654 17.0231 8.7989 16.9071L14.91 10.5645C15.055 10.4117 15.136 10.2077 15.136 9.99548C15.136 9.78323 15.055 9.57925 14.91 9.42647L8.7989 3.08383C8.68654 2.96783 8.5425 2.88877 8.38542 2.85689C8.22834 2.82501 8.06545 2.84178 7.91786 2.90503C7.77027 2.96828 7.64476 3.07509 7.55758 3.21164C7.47041 3.34818 7.42558 3.50817 7.42891 3.6709V7.33108H1.96451C1.83646 7.33211 1.70987 7.35883 1.59201 7.40972C1.47415 7.4606 1.36735 7.53464 1.27774 7.62759C1.18812 7.72053 1.11746 7.83055 1.06981 7.95133C1.02216 8.0721 0.998463 8.20125 1.00008 8.33136L1.00008 11.6653C0.998463 11.7954 1.02216 11.9245 1.06981 12.0453C1.11746 12.1661 1.18812 12.2761 1.27774 12.369C1.36735 12.462 1.47415 12.536 1.59201 12.5869C1.70987 12.6378 1.83646 12.6645 1.96451 12.6655Z" fill="black"/>
</svg>
