<svg width="18" height="18" viewBox="0 0 18 18" fill="none" xmlns="http://www.w3.org/2000/svg">
<path d="M17.0998 2.69716V15.2997C17.1013 15.4168 17.08 15.533 17.0371 15.6417C16.9942 15.7504 16.9306 15.8494 16.8499 15.9331C16.7693 16.0167 16.6732 16.0834 16.5671 16.1292C16.461 16.175 16.3471 16.199 16.2318 16.2H15.3638C15.2489 16.1985 15.1354 16.174 15.0298 16.128C14.9242 16.082 14.8286 16.0153 14.7483 15.9317C14.6681 15.8481 14.6049 15.7492 14.5622 15.6408C14.5196 15.5324 14.4984 15.4165 14.4999 15.2997V2.7002C14.4984 2.58311 14.5197 2.46687 14.5626 2.35818C14.6055 2.24948 14.6691 2.15046 14.7497 2.06681C14.8304 1.98316 14.9265 1.91652 15.0326 1.87073C15.1387 1.82493 15.2526 1.80088 15.3678 1.79995L16.2358 1.79995C16.4674 1.8029 16.6883 1.89898 16.8503 2.06716C17.0122 2.23533 17.102 2.46188 17.0998 2.69716ZM1.76796 11.3989H6.68592V14.688C6.68293 14.8345 6.72327 14.9785 6.80173 15.1014C6.88018 15.2242 6.99314 15.3204 7.12598 15.3773C7.25881 15.4342 7.40541 15.4493 7.54678 15.4206C7.68815 15.3919 7.81779 15.3208 7.91891 15.2164L13.4189 9.50799C13.5494 9.3705 13.6223 9.18692 13.6223 8.99589C13.6223 8.80486 13.5494 8.62128 13.4189 8.48378L7.91891 2.7754C7.81779 2.67099 7.68815 2.59984 7.54678 2.57115C7.40541 2.54246 7.25881 2.55756 7.12598 2.61448C6.99314 2.6714 6.88018 2.76753 6.80173 2.89042C6.72327 3.01331 6.68293 3.15731 6.68592 3.30376V6.59792H1.76796C1.65272 6.59885 1.53878 6.6229 1.43271 6.66869C1.32664 6.71449 1.23052 6.78113 1.14987 6.86478C1.06921 6.94843 1.00561 7.04745 0.962731 7.15615C0.919846 7.26484 0.898519 7.38108 0.899972 7.49817L0.899972 10.4987C0.898519 10.6158 0.919846 10.732 0.962731 10.8407C1.00561 10.9494 1.06921 11.0484 1.14987 11.1321C1.23052 11.2157 1.32664 11.2824 1.43271 11.3282C1.53878 11.374 1.65272 11.398 1.76796 11.3989Z" fill="#919191"/>
</svg>
