<svg xmlns="http://www.w3.org/2000/svg" width="18" height="18" viewBox="0 0 18 18" fill="none">
<path d="M10.2116 16.0172L9.41149 16.8381C9.33118 16.9211 9.23567 16.987 9.13045 17.0319C9.02523 17.0768 8.91239 17.0999 8.79842 17.0999C8.68445 17.0999 8.57161 17.0768 8.4664 17.0319C8.36118 16.987 8.26567 16.9211 8.18535 16.8381L1.15555 9.62944C1.07469 9.54704 1.01051 9.44904 0.966724 9.34108C0.922934 9.23313 0.900391 9.11735 0.900391 9.00041C0.900391 8.88349 0.922934 8.76771 0.966724 8.65975C1.01051 8.55179 1.07469 8.45379 1.15555 8.37139L8.18335 1.1617C8.26367 1.07874 8.35918 1.0129 8.4644 0.967966C8.56962 0.923036 8.68246 0.899902 8.79642 0.899902C8.91039 0.899902 9.02323 0.923036 9.12844 0.967966C9.23366 1.0129 9.32918 1.07874 9.4095 1.1617L10.2095 1.98262C10.2911 2.06657 10.3554 2.16634 10.3989 2.27609C10.4423 2.38584 10.4641 2.50338 10.4627 2.62184C10.4615 2.7403 10.4372 2.8573 10.3913 2.96602C10.3454 3.07474 10.2788 3.17299 10.1956 3.25504L5.83809 7.51456H16.2323C16.3466 7.51429 16.4599 7.53724 16.5655 7.5821C16.6711 7.62696 16.767 7.69283 16.8478 7.77592C16.9285 7.85901 16.9923 7.95767 17.0357 8.06621C17.0791 8.17475 17.101 8.29103 17.1004 8.40833V9.59558C17.1004 9.71245 17.0779 9.82817 17.0342 9.93608C16.9906 10.0441 16.9266 10.1421 16.846 10.2247C16.7653 10.3072 16.6697 10.3727 16.5644 10.4171C16.4591 10.4617 16.3462 10.4845 16.2323 10.4842H5.84009L10.1996 14.7448C10.2836 14.8264 10.3508 14.9246 10.397 15.0335C10.4433 15.1423 10.4677 15.2596 10.4687 15.3784C10.4699 15.4971 10.4477 15.6149 10.4035 15.7246C10.3593 15.8344 10.2941 15.9339 10.2116 16.0172Z" fill="#DADADA"/>
</svg>