<svg xmlns="http://www.w3.org/2000/svg" width="15" height="18" viewBox="0 0 15 18">
  <g id="documents-case" transform="translate(-2.808)">
    <path id="Path_26346" data-name="Path 26346" d="M16.5.634H9.376L9.355.58A.92.92,0,0,0,8.5,0H4.279A1.446,1.446,0,0,0,2.808,1.411V16.588A1.447,1.447,0,0,0,4.279,18H15.247a.525.525,0,0,0,.43-.223.511.511,0,0,0,.058-.474H16.5a1.3,1.3,0,0,0,1.307-1.315V1.954A1.3,1.3,0,0,0,16.5.634Zm-.172,15.148H15.164l-.652-1.7a.741.741,0,0,0-.141-1.473h-.426l-.533-1.394H14.5a.76.76,0,1,0,0-1.521h-1.66L12.308,8.3H14.5a.73.73,0,1,0,0-1.459H11.737L11.2,5.452h3.3a.76.76,0,1,0,0-1.521H10.633L9.946,2.156h6.381V15.782Z" transform="translate(0)" fill="#b7b7b7"/>
  </g>
</svg>
