<svg xmlns="http://www.w3.org/2000/svg" width="14" height="14" viewBox="0 0 14 14">
  <g id="Height" transform="translate(-648 761) rotate(-90)">
    <rect id="Rectangle_62626" data-name="Rectangle 62626" width="14" height="14" transform="translate(747 648)" fill="#fff" opacity="0"/>
    <path id="arrows-alt-h" d="M8.581,146.725v1.594H4.639v-1.594a.831.831,0,0,0-1.418-.587L.243,149.116a.831.831,0,0,0,0,1.175l2.979,2.979a.831.831,0,0,0,1.418-.587v-1.594H8.581v1.594A.831.831,0,0,0,10,153.27l2.979-2.979a.831.831,0,0,0,0-1.175L10,146.138a.831.831,0,0,0-1.418.587Z" transform="translate(747.39 505.296)" fill="#fff"/>
  </g>
</svg>