<svg xmlns="http://www.w3.org/2000/svg" width="12.017" height="19" viewBox="0 0 12.017 19">
  <path id="dollar-sign" d="M8.027,8.205,3.9,7.095a1.056,1.056,0,0,1-.81-.995A1.084,1.084,0,0,1,4.218,5.063H6.751a2.477,2.477,0,0,1,1.307.369.635.635,0,0,0,.745-.07l1.329-1.2a.541.541,0,0,0-.069-.861,5.706,5.706,0,0,0-3.3-1.055V.563A.59.59,0,0,0,6.147,0H4.925a.59.59,0,0,0-.611.563V2.25h-.1a3.993,3.993,0,0,0-4.164,4.2,4.146,4.146,0,0,0,3.2,3.4l3.916,1.055a1.059,1.059,0,0,1,.81.995,1.084,1.084,0,0,1-1.127,1.037H4.321a2.477,2.477,0,0,1-1.307-.369.635.635,0,0,0-.745.07L.94,13.834a.541.541,0,0,0,.069.861,5.706,5.706,0,0,0,3.3,1.055v1.688A.59.59,0,0,0,4.925,18H6.147a.59.59,0,0,0,.611-.562V15.743A4.32,4.32,0,0,0,10.8,13.187a3.811,3.811,0,0,0-2.77-4.982Z" transform="translate(0.466 0.5)" fill="#dadada" stroke="rgba(0,0,0,0)" stroke-miterlimit="10" stroke-width="1"/>
</svg>
