<svg xmlns="http://www.w3.org/2000/svg" width="21" height="21" viewBox="0 0 21 21">
  <g id="Chat" transform="translate(-91.5 -827.5)">
    <rect id="Rectangle_52465" data-name="Rectangle 52465" width="20" height="20" rx="5" transform="translate(92 828)" fill="none" stroke="rgba(0,0,0,0)" stroke-width="1"/>
    <path id="minus-circle" d="M17,8a9,9,0,1,0,9,9A9,9,0,0,0,17,8ZM12.21,18.452a.437.437,0,0,1-.435-.435V15.984a.437.437,0,0,1,.435-.435H21.79a.437.437,0,0,1,.435.435v2.032a.437.437,0,0,1-.435.435Z" transform="translate(85 821)" fill="#ffb74d"/>
  </g>
</svg>
