<svg xmlns="http://www.w3.org/2000/svg" width="18" height="18" viewBox="0 0 18 18"><g transform="translate(-17038 15795)"><rect width="18" height="18" transform="translate(17038 -15795)" fill="#aaa" opacity="0"/><path d="M15.876,1.1,1.387,9.458a.75.75,0,0,0,.072,1.348L4.781,12.2l8.978-7.911a.188.188,0,0,1,.267.26L6.5,13.718v2.516a.75.75,0,0,0,1.328.493l1.985-2.415,3.894,1.631a.753.753,0,0,0,.984-.4.793.793,0,0,0,.047-.164l2.251-13.5A.75.75,0,0,0,15.876,1.1" transform="translate(17038 -15795)" fill="#aaa"/></g></svg>