<svg width="18" height="18" viewBox="0 0 18 18" fill="none" xmlns="http://www.w3.org/2000/svg">
<path d="M3.49916 15.2968V2.69694C3.5021 2.46171 3.41311 2.23488 3.25168 2.06617C3.09025 1.89746 2.86955 1.80062 2.63794 1.79688L1.76673 1.79688C1.65179 1.79781 1.53816 1.82172 1.43232 1.86725C1.32649 1.91278 1.23052 1.97904 1.14989 2.06224C1.06927 2.14545 1.00558 2.24396 0.962443 2.35217C0.91931 2.46037 0.897584 2.57614 0.898508 2.69288V15.2968C0.897054 15.4135 0.918255 15.5294 0.9609 15.6378C1.00355 15.7462 1.0668 15.8451 1.14705 15.9286C1.2273 16.0122 1.32298 16.0789 1.42862 16.125C1.53426 16.171 1.64779 16.1954 1.76272 16.1969H2.63494C2.74988 16.1959 2.86351 16.172 2.96935 16.1265C3.07518 16.081 3.17115 16.0147 3.25177 15.9315C3.3324 15.8483 3.39609 15.7498 3.43922 15.6416C3.48236 15.5334 3.50408 15.4176 3.50316 15.3009M5.2386 6.59688H10.1578V3.30545C10.1548 3.15902 10.1952 3.01506 10.2737 2.8922C10.3521 2.76933 10.4651 2.67322 10.598 2.61631C10.7309 2.5594 10.8775 2.54431 11.0189 2.57299C11.1603 2.60168 11.29 2.67281 11.3911 2.77719L16.8925 8.48234C17.0246 8.62004 17.0984 8.80466 17.0984 8.99688C17.0984 9.18909 17.0246 9.37371 16.8925 9.51142L11.3911 15.2176C11.2896 15.3217 11.1595 15.3925 11.0179 15.4208C10.8763 15.449 10.7296 15.4335 10.5967 15.3762C10.4639 15.3188 10.3511 15.2223 10.2728 15.0992C10.1946 14.976 10.1545 14.8318 10.1578 14.6853V11.3938H5.2386C5.12366 11.3929 5.01003 11.369 4.90419 11.3235C4.79836 11.2779 4.70239 11.2117 4.62176 11.1285C4.54114 11.0453 4.47745 10.9467 4.43431 10.8385C4.39118 10.7303 4.36945 10.6146 4.37038 10.4978V7.49694C4.36892 7.38021 4.39012 7.26433 4.43277 7.15591C4.47542 7.0475 4.53867 6.94869 4.61892 6.86511C4.69917 6.78153 4.79485 6.71482 4.90049 6.6688C5.00613 6.62277 5.11966 6.59833 5.23459 6.59688" fill="#E66767"/>
</svg>
