<svg width="18" height="11" viewBox="0 0 18 11" fill="none" xmlns="http://www.w3.org/2000/svg">
<path d="M8.6959 10.3086C8.60398 10.3086 8.51325 10.291 8.42833 10.2558C8.3434 10.2207 8.26676 10.1685 8.20176 10.1035C8.13676 10.0385 8.0846 9.96187 8.04942 9.87694C8.01424 9.79201 7.99668 9.69933 7.99668 9.60741V8.34764C7.99668 8.25572 8.01424 8.16499 8.04942 8.08006C8.0846 7.99514 8.13676 7.9185 8.20176 7.8535C8.26676 7.7885 8.3434 7.73634 8.42833 7.70116C8.51325 7.66598 8.60398 7.64842 8.6959 7.64842H9.29551C9.48116 7.64842 9.66033 7.72223 9.79161 7.8535C9.92288 7.98478 9.99668 8.16199 9.99668 8.34764V9.60741C9.99668 9.79306 9.92288 9.97223 9.79161 10.1035C9.66033 10.2348 9.48116 10.3086 9.29551 10.3086H8.6959ZM4.99668 9.65819L4.43809 9.45897C4.35141 9.42751 4.27168 9.37871 4.20372 9.31639C4.13575 9.25407 4.08045 9.17932 4.04161 9.09569C4.00277 9.01206 3.98092 8.92024 3.97715 8.82811C3.97338 8.73598 3.98824 8.6451 4.02012 8.55858L4.44981 7.37303C4.48087 7.286 4.52829 7.2051 4.59043 7.1367C4.65258 7.06831 4.72747 7.01383 4.81114 6.9746C4.89481 6.93536 4.98639 6.91223 5.07872 6.90819C5.17104 6.90415 5.26343 6.91938 5.3502 6.95116L5.91465 7.15819C6.00115 7.18985 6.08128 7.23641 6.14903 7.29881C6.21678 7.36122 6.27249 7.43786 6.31114 7.52147C6.34978 7.60508 6.37 7.69506 6.37364 7.7871C6.37727 7.87913 6.3626 7.97023 6.33067 8.05663L5.90098 9.24413C5.85069 9.37922 5.76147 9.49573 5.64317 9.57811C5.52487 9.66049 5.38303 9.70475 5.23887 9.70506C5.15443 9.70489 5.07163 9.68842 4.99278 9.65819H4.99668ZM12.108 9.23436L11.6783 8.05467C11.6464 7.96828 11.6317 7.87523 11.6354 7.78319C11.639 7.69115 11.6592 7.60117 11.6979 7.51756C11.7365 7.43395 11.7922 7.35926 11.86 7.29686C11.9277 7.23446 12.0078 7.18594 12.0943 7.15428L12.6549 6.95506C12.7413 6.92314 12.8324 6.90846 12.9244 6.9121C13.0165 6.91573 13.1064 6.93595 13.19 6.9746C13.2737 7.01324 13.3503 7.06896 13.4127 7.1367C13.4751 7.20445 13.5236 7.28458 13.5553 7.37108L13.985 8.55663C14.0168 8.64315 14.0317 8.73403 14.0279 8.82616C14.0242 8.91829 14.0004 9.01011 13.9615 9.09374C13.9227 9.17737 13.8693 9.25212 13.8014 9.31444C13.7334 9.37676 13.6537 9.42556 13.567 9.45702L13.0025 9.65624C12.916 9.68811 12.8232 9.70297 12.7311 9.6992C12.6389 9.69543 12.5491 9.67359 12.4654 9.63475C12.3818 9.59591 12.307 9.54061 12.2447 9.47264C12.1824 9.40468 12.1336 9.32494 12.1022 9.23827L12.108 9.23436ZM1.17833 7.57616L0.723247 7.18944C0.652083 7.13132 0.59239 7.05971 0.549419 6.9785C0.506448 6.89729 0.47931 6.80831 0.471294 6.71678C0.463278 6.62525 0.474344 6.53274 0.502544 6.4453C0.530744 6.35785 0.57733 6.27662 0.637309 6.20702L1.43614 5.23631C1.55675 5.09544 1.72795 5.00826 1.9127 4.99217C2.09745 4.97609 2.28128 5.03246 2.42442 5.15038L2.88536 5.5371C3.0263 5.65636 3.11534 5.82583 3.13145 6.00975C3.14756 6.19368 3.08936 6.37757 2.97129 6.51952L2.16075 7.49022C2.04028 7.63132 1.86901 7.72023 1.68418 7.73631C1.49935 7.7524 1.3155 7.69432 1.17247 7.57616H1.17833ZM15.8326 7.47655L15.0221 6.5117C14.904 6.36976 14.8478 6.18586 14.8639 6.00194C14.88 5.81802 14.9671 5.64854 15.108 5.52928L15.5689 5.14256C15.7119 5.02415 15.8958 4.96631 16.0807 4.98241C16.2656 4.9985 16.4369 5.08717 16.5572 5.2285L17.358 6.19335C17.4174 6.26379 17.461 6.34574 17.4889 6.43358C17.5167 6.52142 17.5281 6.61327 17.5201 6.70506C17.5121 6.79686 17.4846 6.88703 17.442 6.96874C17.3994 7.05044 17.3427 7.1225 17.2721 7.18163L16.817 7.56249C16.6912 7.66977 16.5311 7.72865 16.3658 7.7285C16.2638 7.72833 16.1633 7.70528 16.0709 7.6621C15.9785 7.61891 15.8962 7.55664 15.8307 7.4785L15.8326 7.47655ZM5.18809 5.57616C3.80981 4.89062 2.6347 3.85636 1.77989 2.57616C1.72433 2.49414 1.68596 2.40219 1.66856 2.30467C1.65116 2.20715 1.65457 2.10592 1.67833 2.00975C1.70208 1.91358 1.74642 1.82428 1.80723 1.74608C1.86805 1.66788 1.94448 1.60333 2.03184 1.55663L3.00059 1.03514C3.14881 0.951402 3.32269 0.925947 3.48887 0.962877C3.65506 0.999807 3.80218 1.09573 3.90098 1.23436C4.46307 2.07247 5.22166 2.76111 6.11192 3.23631C7.00217 3.71152 7.99535 3.96033 9.0045 3.96092C10.0136 3.96152 11.0082 3.71243 11.899 3.23827C12.7898 2.76411 13.5508 2.07963 14.1139 1.24217C14.2093 1.10216 14.3532 1.00157 14.5182 0.962877C14.6831 0.924182 14.8568 0.950207 15.0045 1.03319L15.9791 1.55272C16.0661 1.59984 16.1434 1.6657 16.2037 1.74413C16.264 1.82255 16.3055 1.91163 16.3287 2.0078C16.3519 2.10397 16.3545 2.20543 16.3365 2.30272C16.3186 2.40001 16.2811 2.49261 16.2252 2.5742C15.0657 4.3306 13.3069 5.60402 11.276 6.15624C9.24511 6.70845 7.08126 6.5016 5.192 5.5742L5.18809 5.57616Z" fill="#424242"/>
</svg>
