<svg xmlns="http://www.w3.org/2000/svg" width="18" height="18" viewBox="0 0 18 18">
  <g id="Group_70912" data-name="Group 70912" transform="translate(-1319 -646.748)">
    <rect id="Rectangle_57060" data-name="Rectangle 57060" width="18" height="18" transform="translate(1319 646.748)" fill="none"/>
    <path id="Path_35730" data-name="Path 35730" d="M4.9,76.548a.9.9,0,0,1-.9-.9v-4.5H14.8v4.5a.9.9,0,0,1-.9.9ZM4,63.948v-1.8a.9.9,0,0,1,.9-.9h9a.9.9,0,0,1,.9.9v1.8Z" transform="translate(1318.6 586.85)" fill="#aaa"/>
    <path id="Path_35731" data-name="Path 35731" d="M15.76,65.252H2.44A1.44,1.44,0,0,0,1,66.692v6.12a1.44,1.44,0,0,0,1.44,1.44H2.8v-2.7a.9.9,0,0,1,.9-.9H14.5a.891.891,0,0,1,.9.882v2.718h.36a1.44,1.44,0,0,0,1.44-1.44v-6.12a1.433,1.433,0,0,0-1.426-1.44H15.76m-1.485,3.6h-2.1a.676.676,0,0,1,0-1.35h2.1a.676.676,0,0,1,0,1.35" transform="translate(1318.9 586.45)" fill="#aaa"/>
  </g>
</svg>
