<svg width="18" height="18" viewBox="0 0 18 18" fill="none" xmlns="http://www.w3.org/2000/svg">
<path d="M8.21002 12.5477C8.21002 11.6474 8.47029 10.7673 8.9587 10.0187C9.4471 9.27006 10.1411 8.68664 10.9533 8.3421C11.7655 7.99755 12.6591 7.90738 13.5213 8.08303C14.3835 8.25868 15.1762 8.69221 15.7978 9.32884C16.4194 9.96548 16.8436 10.7766 17.0151 11.6597C17.1866 12.5427 17.0981 13.458 16.7617 14.2898C16.4253 15.1216 15.8543 15.8325 15.1234 16.3327C14.3925 16.8329 13.5336 17.0999 12.6545 17.0999C11.4759 17.0988 10.3464 16.6189 9.51306 15.7654C8.67972 14.912 8.21105 13.7547 8.21002 12.5477ZM13.1631 10.2772V11.2151C11.5323 11.2381 9.87311 11.5149 9.87311 13.3939C9.89228 13.7479 9.98724 14.0933 10.1512 14.4056C10.3153 14.7178 10.544 14.9894 10.8218 15.2009C10.8551 15.2284 10.8972 15.2427 10.9399 15.2409C10.9748 15.2413 11.0097 15.2332 11.0409 15.2172C11.0721 15.2012 11.0984 15.1778 11.119 15.149C11.1358 15.1254 11.1478 15.0978 11.1514 15.0688C11.155 15.0398 11.1505 15.0103 11.14 14.9832C11.0264 14.7365 10.9693 14.4663 10.9742 14.1936C10.9791 13.9209 11.0462 13.6531 11.1685 13.4108C11.4543 13.0112 12.0678 12.8214 13.1631 12.8045V13.8224C13.1622 13.8601 13.1685 13.8976 13.1822 13.9326C13.1958 13.9676 13.2171 13.9995 13.2431 14.0262C13.2691 14.0529 13.2985 14.0739 13.3327 14.088C13.3668 14.1021 13.4044 14.1089 13.4412 14.1081C13.5054 14.1078 13.567 14.0833 13.6146 14.0392L15.6244 12.266C15.6547 12.2414 15.6799 12.2101 15.6968 12.1745C15.7137 12.1389 15.7214 12.0998 15.7216 12.0603C15.7231 12.0171 15.7156 11.9741 15.6987 11.9345C15.6818 11.8949 15.6564 11.8597 15.6244 11.8315L13.6146 10.0644C13.5656 10.0227 13.5049 9.99843 13.4412 9.99543C13.4045 9.99436 13.3669 10.0009 13.3327 10.0146C13.2984 10.0283 13.2675 10.0488 13.2412 10.0751C13.2149 10.1014 13.1945 10.1328 13.1803 10.1676C13.1661 10.2023 13.1592 10.2395 13.1593 10.2772H13.1631ZM2.3787 17.088C2.1844 17.0881 1.99243 17.049 1.8129 16.9728C1.63338 16.8967 1.47018 16.7851 1.33284 16.6443C1.19549 16.5036 1.08509 16.3365 1.01088 16.1525C0.936677 15.9686 0.900135 15.7715 0.900392 15.5725V14.2509C0.90194 13.126 1.3372 12.0476 2.1139 11.2521C2.8906 10.4566 3.94542 10.009 5.04385 10.0074H5.56011C6.19119 10.3089 6.87602 10.4787 7.57183 10.5069C7.31783 11.1521 7.18559 11.8411 7.18511 12.5367C7.18423 13.4315 7.39561 14.3131 7.80043 15.1059C8.20526 15.8988 8.79127 16.5792 9.50925 17.0889L2.3787 17.088ZM3.86463 4.9528C3.86368 4.31919 4.00763 3.69418 4.28564 3.12814C4.56365 2.5621 4.96758 2.07082 5.46486 1.69387C5.96214 1.31692 6.53911 1.06488 7.14891 0.957955C7.75871 0.851026 8.38444 0.892205 8.97584 1.07825C9.56724 1.26429 10.1072 1.58995 10.5532 2.02902C10.9993 2.4681 11.3389 3.00836 11.5438 3.60621C11.7488 4.20406 11.8126 4.84284 11.7324 5.47112C11.6522 6.09939 11.429 6.69959 11.0809 7.22341C10.0723 7.52006 9.17419 8.11705 8.49768 8.93857C8.27233 8.98002 8.04272 9.00107 7.81377 9.00149C7.29445 9.00215 6.78109 8.89786 6.30117 8.69463C5.82126 8.49139 5.38439 8.19323 5.01718 7.81714C4.64996 7.44105 4.35835 6.99443 4.15991 6.50292C3.96147 6.01141 3.86018 5.48467 3.86082 4.9528H3.86463Z" fill="#56B4AC"/>
</svg>
