<svg width="18" height="18" viewBox="0 0 18 18" fill="none" xmlns="http://www.w3.org/2000/svg">
<g clip-path="url(#clip0_15816_45044)">
<path d="M3.5727 15.0119L3.5567 14.9999C3.52019 14.9635 3.49123 14.9202 3.47147 14.8726C3.45171 14.825 3.44154 14.774 3.44154 14.7224C3.44154 14.6709 3.45171 14.6198 3.47147 14.5722C3.49123 14.5246 3.52019 14.4813 3.5567 14.4449L4.85709 13.1509C4.92728 13.0804 5.02169 13.0393 5.12111 13.036C5.22053 13.0327 5.31749 13.0673 5.39225 13.1329C6.0619 13.7174 6.86354 14.1306 7.72825 14.3368C8.59295 14.5431 9.49484 14.5363 10.3563 14.3171C11.2178 14.0978 12.0132 13.6726 12.6739 13.0781C13.3347 12.4836 13.8411 11.7375 14.1497 10.904C14.4582 10.0705 14.5596 9.17461 14.4451 8.29329C14.3307 7.41197 14.0038 6.57163 13.4926 5.84454C12.9815 5.11745 12.3013 4.52537 11.5105 4.11921C10.7198 3.71306 9.84227 3.50499 8.95332 3.5129C7.57714 3.52044 6.25483 4.04849 5.25221 4.9909L4.25191 3.9909L6.61362 6.3509C6.72306 6.46074 6.79752 6.60051 6.82761 6.75259C6.8577 6.90468 6.84207 7.06226 6.78269 7.20548C6.72331 7.34869 6.62284 7.47113 6.49395 7.55734C6.36506 7.64355 6.21353 7.68967 6.05845 7.6899H1.68414C1.47666 7.6899 1.27764 7.60772 1.13066 7.46134C0.983671 7.31495 0.900696 7.11631 0.899902 6.9089L0.899902 2.5309C0.900049 2.37583 0.946195 2.22428 1.0325 2.09543C1.11881 1.96658 1.2414 1.8662 1.38478 1.80701C1.52815 1.74782 1.68586 1.73246 1.83797 1.76287C1.99008 1.79329 2.12974 1.86812 2.2393 1.9779L3.40065 3.1429C4.35832 2.22833 5.52564 1.56238 6.80044 1.20337C8.07523 0.844352 9.41862 0.803211 10.713 1.08355C12.0074 1.36388 13.2133 1.95715 14.2252 2.8114C15.237 3.66566 16.024 4.75486 16.5172 5.98365C17.0104 7.21245 17.1947 8.54337 17.0541 9.8599C16.9135 11.1764 16.4522 12.4384 15.7106 13.5354C14.969 14.6324 13.9697 15.5309 12.8003 16.1524C11.6308 16.7738 10.3267 17.0991 9.00233 17.0999H8.99133C6.98862 17.0997 5.05744 16.3555 3.5727 15.0119ZM10.4848 11.6499L8.19509 9.9849C8.15555 9.95604 8.12336 9.91828 8.10112 9.87467C8.07888 9.83107 8.06721 9.78285 8.06705 9.7339V5.3639C8.06758 5.28158 8.10052 5.20278 8.15875 5.14457C8.21698 5.08636 8.2958 5.05343 8.37815 5.0529H9.62552C9.70787 5.05343 9.78669 5.08636 9.84492 5.14457C9.90315 5.20278 9.93609 5.28158 9.93662 5.3639V8.9419L11.5821 10.1419C11.6153 10.1659 11.6434 10.1962 11.6648 10.2311C11.6862 10.266 11.7005 10.3048 11.7068 10.3452C11.7131 10.3857 11.7114 10.427 11.7016 10.4667C11.6919 10.5065 11.6744 10.5439 11.6501 10.5769L10.9179 11.5849C10.8885 11.6233 10.8506 11.6543 10.8073 11.6756C10.7639 11.697 10.7162 11.708 10.6678 11.7079C10.6022 11.7084 10.5382 11.6881 10.4848 11.6499Z" fill="#919191"/>
</g>
<defs>
<clipPath id="clip0_15816_45044">
<rect width="18" height="18" fill="white"/>
</clipPath>
</defs>
</svg>
