<svg xmlns="http://www.w3.org/2000/svg" width="18" height="12" viewBox="0 0 18 12" fill="none">
<path d="M14.8792 11.5505L13.4663 10.103C13.2789 9.91072 13.1734 9.64992 13.1734 9.37802C13.1734 9.10612 13.2789 8.84532 13.4663 8.65303L14.8792 7.20305C15.0668 7.01081 15.3211 6.90263 15.5862 6.90263C15.8513 6.90263 16.1056 7.01081 16.2932 7.20305L17.7071 8.65303C17.8945 8.84532 18 9.10612 18 9.37802C18 9.64992 17.8945 9.91072 17.7071 10.103L16.2932 11.5505C16.1055 11.7424 15.8512 11.8501 15.5862 11.8499C15.3212 11.8501 15.0669 11.7424 14.8792 11.5505ZM8.35163 11.5505L6.93772 10.103C6.75027 9.91072 6.64576 9.64992 6.64576 9.37802C6.64576 9.10612 6.75027 8.84532 6.93772 8.65303L8.35163 7.20305C8.53902 7.01175 8.79321 6.90414 9.05761 6.90414C9.32201 6.90414 9.57523 7.01175 9.76261 7.20305L11.1765 8.65303C11.364 8.84532 11.4695 9.10612 11.4695 9.37802C11.4695 9.64992 11.364 9.91072 11.1765 10.103L9.76261 11.5505C9.6702 11.6456 9.56039 11.7214 9.43941 11.7728C9.31842 11.8242 9.18857 11.8502 9.05761 11.8499C8.92649 11.8503 8.79699 11.8242 8.67582 11.7728C8.55465 11.7214 8.44416 11.6458 8.35163 11.5505ZM1.70685 11.5505L0.292937 10.103C0.105486 9.91072 0 9.64992 0 9.37802C0 9.10612 0.105486 8.84532 0.292937 8.65303L1.70685 7.20305C1.89435 7.01081 2.14867 6.90263 2.4138 6.90263C2.67894 6.90263 2.93325 7.01081 3.12076 7.20305L4.53369 8.65303C4.72114 8.84532 4.82662 9.10612 4.82662 9.37802C4.82662 9.64992 4.72114 9.91072 4.53369 10.103L3.12076 11.5505C2.93312 11.7424 2.67882 11.8501 2.4138 11.8499C2.2824 11.8501 2.1525 11.8242 2.03103 11.7728C1.90956 11.7214 1.7989 11.6457 1.70587 11.5505H1.70685ZM11.5847 8.17387L10.1708 6.7314C9.98332 6.53911 9.87783 6.27831 9.87783 6.00641C9.87783 5.73451 9.98332 5.47371 10.1708 5.28142L11.5818 3.83144C11.7693 3.6392 12.0236 3.53103 12.2887 3.53103C12.5538 3.53103 12.8082 3.6392 12.9957 3.83144L14.4096 5.28142C14.597 5.47371 14.7025 5.73451 14.7025 6.00641C14.7025 6.27831 14.597 6.53911 14.4096 6.7314L12.9957 8.17938C12.808 8.37132 12.5537 8.479 12.2887 8.47879C12.0241 8.47792 11.7705 8.36907 11.5837 8.17688L11.5847 8.17387ZM5.00043 8.17387L3.58652 6.72639C3.39907 6.5341 3.29359 6.2733 3.29359 6.0014C3.29359 5.7295 3.39907 5.4687 3.58652 5.27641L5.00043 3.82643C5.1879 3.63451 5.44152 3.52652 5.70641 3.52652C5.9713 3.52652 6.2259 3.63451 6.41337 3.82643L7.82728 5.27641C8.01473 5.4687 8.12021 5.7295 8.12021 6.0014C8.12021 6.2733 8.01473 6.5341 7.82728 6.72639L6.41337 8.17387C6.32077 8.26906 6.21034 8.34479 6.08918 8.39618C5.96803 8.44756 5.8385 8.47359 5.70739 8.47328C5.44245 8.47459 5.18783 8.36794 4.99946 8.17688L5.00043 8.17387ZM8.29402 4.79626L6.88011 3.34828C6.69266 3.15598 6.58718 2.89568 6.58718 2.62378C6.58718 2.35188 6.69266 2.09108 6.88011 1.89879L8.29402 0.448811C8.48141 0.257517 8.73462 0.149902 8.99902 0.149902C9.26342 0.149902 9.51762 0.257517 9.705 0.448811L11.1209 1.89879C11.3083 2.09108 11.4138 2.35188 11.4138 2.62378C11.4138 2.89568 11.3083 3.15598 11.1209 3.34828L9.705 4.79626C9.61289 4.89197 9.50282 4.9678 9.38179 5.01956C9.26077 5.07132 9.13113 5.09791 9 5.09767C8.86878 5.09836 8.73858 5.07228 8.61723 5.02106C8.49588 4.96984 8.38577 4.89448 8.29305 4.79926L8.29402 4.79626Z" fill="#919191"/>
</svg>