<svg width="18" height="18" viewBox="0 0 18 18" fill="none" xmlns="http://www.w3.org/2000/svg">
<path d="M14.961 16.1998H3.03979C2.44947 16.1998 1.91259 15.8888 1.60365 15.3678C1.27688 14.8167 1.26531 14.1521 1.57269 13.5898L7.53329 2.68615C7.83669 2.13115 8.38513 1.7998 9.00038 1.7998C9.61562 1.7998 10.1641 2.13115 10.4675 2.68615L16.4281 13.5898C16.7354 14.1521 16.7239 14.8167 16.3971 15.3678C16.0882 15.8888 15.5513 16.1998 14.961 16.1998Z" fill="#FFDE3A"/>
<path d="M8.9999 2.2501C8.54506 2.2501 8.15425 2.48781 7.92766 2.9023L1.96707 13.8059C1.73667 14.2274 1.74533 14.7256 1.99024 15.1385C2.22071 15.5272 2.60308 15.7501 3.03931 15.7501H14.9605C15.3967 15.7501 15.7791 15.5272 16.0096 15.1385C16.2545 14.7256 16.2631 14.2274 16.0327 13.8059L10.0721 2.9023C9.84555 2.48781 9.45474 2.2501 8.9999 2.2501ZM8.9999 1.3501C9.72669 1.3501 10.4535 1.7236 10.8618 2.4706L16.8224 13.3742C17.6235 14.8395 16.5944 16.6501 14.9605 16.6501H3.03931C1.40542 16.6501 0.376329 14.8395 1.17736 13.3742L7.13796 2.4706C7.54631 1.7236 8.27311 1.3501 8.9999 1.3501Z" fill="#3A3A3A"/>
<path d="M7.19995 5.8501H10.8L10.1997 11.3266H7.80025L7.19995 5.8501ZM8.99995 14.8501C8.53648 14.8688 8.0833 14.7102 7.73275 14.4064C7.57621 14.2737 7.45085 14.1081 7.3656 13.9214C7.28036 13.7348 7.23732 13.5316 7.23955 13.3264C7.2358 13.1227 7.27822 12.9207 7.36364 12.7357C7.44905 12.5507 7.57524 12.3874 7.73275 12.2581C8.0883 11.9657 8.53909 11.8145 8.99905 11.8333C9.45901 11.8145 9.9098 11.9657 10.2654 12.2581C10.4232 12.3877 10.5496 12.5514 10.6351 12.7369C10.7205 12.9224 10.7627 13.1249 10.7586 13.3291C10.7608 13.5343 10.7177 13.7375 10.6325 13.9241C10.5473 14.1108 10.4219 14.2764 10.2654 14.4091C9.91486 14.7115 9.46245 14.8691 8.99995 14.8501Z" fill="#3A3A3A"/>
</svg>
