<svg xmlns="http://www.w3.org/2000/svg" width="111.032" height="103.039" viewBox="0 0 111.032 103.039">
  <g id="Layer_x0020_1" transform="translate(2.677 -0.004)">
    <g id="_2272848414576" transform="translate(-2.677 0.004)">
      <path id="Path_35857" data-name="Path 35857" d="M59.832,101.123c-22.276,5.5-46.972-.841-56.474-18.766C-1.58,73.038-.622,62.169,8.4,53.1A66.538,66.538,0,0,0,18.846,40.251c5.374-8.824,5.124-17.2,10.782-24C46.479-3.991,72.335-4.229,90.432,9.521,108.956,23.6,113.5,44.512,107.8,62.311c-5.663,17.674-21.422,32.261-47.964,38.812Z" transform="translate(0.927 -0.004)" fill="#f7f7f7" fill-rule="evenodd"/>
      <rect id="Rectangle_59110" data-name="Rectangle 59110" width="52.251" height="64.636" rx="7.971" transform="matrix(0.9, -0.435, 0.435, 0.9, 0, 30.464)" fill="#536bc2"/>
      <path id="Path_35858" data-name="Path 35858" d="M26.741,38.659,9.4,47.035a3.372,3.372,0,0,1-3.959-.272L1.23,43.08c-1.1-.957-.332-2.454.677-2.941L22.588,30.063l20.745-9.941c1.009-.487,2.657-.16,2.726,1.3l.267,5.59a3.369,3.369,0,0,1-2.247,3.274Z" transform="translate(0.761 -11.325)" fill="#97a8dc" fill-rule="evenodd"/>
      <g id="Group_74796" data-name="Group 74796" transform="translate(22.186 20.127)">
        <rect id="Rectangle_59111" data-name="Rectangle 59111" width="0.695" height="15.401" transform="matrix(0.9, -0.435, 0.435, 0.9, 3.343, 4.01)" fill="#3c3c3c"/>
        <circle id="Ellipse_6785" data-name="Ellipse 6785" cx="2.609" cy="2.609" r="2.609" transform="translate(0 2.27) rotate(-25.786)" fill="#fffcf7"/>
        <circle id="Ellipse_6786" data-name="Ellipse 6786" cx="2.609" cy="2.609" r="2.609" transform="translate(5.785 14.469) rotate(-25.786)" fill="#fffcf7"/>
      </g>
    </g>
    <path id="Path_35859" data-name="Path 35859" d="M144.241,55.045q-38.9-.285-38.9-.28c-.535-3.847-.289-5.111,1.173-5.314,39.243-4.7,44.962-5.922,45.489-3.105,4.714,47.007,5.49,48.607,2.821,48.969q-11.1,1.08-11.1,1.083,2.174-16.064.518-41.348Z" transform="translate(-61.281 -25.504)" fill="#e8e8e8" fill-rule="evenodd"/>
    <path id="Path_35860" data-name="Path 35860" d="M140.607,62.5c-29.509,0-44.2.5-44.2.5-.867,0-1.423.66-1.423,2.113.082,31.842,0,47.628,1.6,48,25.058,1.32,45.773,1.8,45.721-1.389-.043-31.579.591-49.224-1.695-49.224Z" transform="translate(-55.538 -35.542)" fill="#fff" fill-rule="evenodd"/>
    <path id="Path_35861" data-name="Path 35861" d="M141.929,74.17c-23.432,0-35.1.388-35.1.388-.686,0-1.13.518-1.13,1.656.065,24.942,0,29.216,1.272,29.509,19.9,1.031,36.345,1.415,36.306-1.087-.035-24.735.47-30.467-1.346-30.467Z" transform="translate(-61.635 -42.179)" fill="#e5effc" fill-rule="evenodd"/>
    <path id="Path_35862" data-name="Path 35862" d="M106.06,109.226c.142,4.83.44,6.1,1.113,6.254,19.9,1.031,36.345,1.415,36.306-1.087-.009-6.232.017-11.257.03-15.289l-8.195-7.643c-1.177-1.022-5.253,3.718-15.35,14.828-.423.423-1.919-1.165-4.843-4.257-.914-1.022-3.761,1.673-9.061,7.194Z" transform="translate(-61.839 -51.935)" fill="#bac9f5" fill-rule="evenodd"/>
    <path id="Path_35863" data-name="Path 35863" d="M125.079,92.382a4.6,4.6,0,0,0,2.269-2.709,4.728,4.728,0,0,0-.285-3.554,4.511,4.511,0,0,0-4.007-2.213c-4.1.129-5.1,4.093-3.774,6.663.949,1.833,3.2,2.834,5.792,1.811Z" transform="translate(-69.046 -47.715)" fill="#fff" fill-rule="evenodd"/>
  </g>
</svg>
