<svg xmlns="http://www.w3.org/2000/svg" width="340" height="120" viewBox="0 0 340 120"><g transform="translate(-868 -257)"><path d="M337,120H3a3,3,0,0,1-3-3V3A3,3,0,0,1,3,0H337a3,3,0,0,1,3,3V117A3,3,0,0,1,337,120Z" transform="translate(868 257)" fill="#fff" opacity="0"/><g transform="translate(-835.668 -436.172)"><path d="M194.914,45.846l-1.28,27.683c-.127,2.7-3.157,4.817-6.771,4.72L51.105,75.075l-8.185-.23c-3.269-.091-5.824-2.147-5.71-4.592l.645-13.936.665-14.206c.127-2.7,3.156-4.815,6.77-4.719l143.341,3.37c3.606.113,6.415,2.386,6.282,5.084" transform="translate(1687.759 683.783)" fill="#e5e5e5"/><path d="M193.625,45.986l-1.277,27.2c-.127,2.656-3.111,4.735-6.67,4.643L50.936,74.792l-8.06-.218c-3.217-.087-5.733-2.1-5.62-4.507L37.9,56.373l.664-13.96c.126-2.657,3.109-4.735,6.668-4.644L187.442,41c3.549.109,6.314,2.34,6.183,4.991" transform="translate(1687.759 683.783)" fill="#fff"/><line x1="31.213" transform="translate(1715.667 801.014)" fill="none" stroke="#dadada" stroke-miterlimit="10" stroke-width="2"/><path d="M64.48,95.837l13.77-4.281L83.4,82.462l1.1.207a6.922,6.922,0,0,1,1.688.507c.842.529.457.746-.1,1.571l-6.307,9.394L64.82,96.776Z" transform="translate(1687.759 676)" fill="#919191"/><path d="M70.065,90.381s-4.3,3.7-7.614,2.618-4.966-4.241-3.748-6.466,4.573-2.779,7.575-1.767,3.743,5.583,3.787,5.615" transform="translate(1687.759 676)" fill="#b7b7b7"/><path d="M64.275,99.124c-1.646,2.827-4.364,4.713-6.331,3.862s-2.216-4.237-.332-7.226,4.952-4.311,6.671-3.307,1.629,3.839-.008,6.671" transform="translate(1687.759 676)" fill="#b7b7b7"/><path d="M59.283,102.88c1.357,2.1-.969,5.759-5.2,8.749-4.277,3.164-12.766-1.837-12.688-2.007a23.726,23.726,0,0,1,7.178-6.292c4.593-2.589,9.35-2.531,10.707-.45" transform="translate(1687.759 676)" fill="#b7b7b7"/><path d="M67.55,85.5a12.161,12.161,0,0,1,1.509,3.927s-4.363,3.608-7.622,2.439a6.721,6.721,0,0,1-2.53-1.611,6.337,6.337,0,0,0,3.543,2.758c3.312,1.083,7.622-2.644,7.614-2.618s-.638-3.281-2.514-4.9" transform="translate(1687.759 676)" fill="#919191"/><path d="M65.5,94.552a9.57,9.57,0,0,1-1.195,2.723c-1.746,2.779-4.5,4.6-6.427,3.714a2.763,2.763,0,0,1-1.449-2.216c-.353,1.964.214,3.652,1.51,4.219,1.964.873,4.69-1.034,6.331-3.861a7.834,7.834,0,0,0,1.23-4.579" transform="translate(1687.759 676)" fill="#919191"/><path d="M59.413,103.134c-.554,1.956-2.618,4.364-5.673,6.384-3.194,2.181-8.617.114-11.126-1.392a17.517,17.517,0,0,0-1.221,1.5c-.079.17,8.412,5.17,12.688,2.008,4.075-2.877,6.362-6.377,5.332-8.5" transform="translate(1687.759 676)" fill="#919191"/><path d="M61.225,89.913c-.225.225-8.342-5.821-11.013-5.236-2.876.872-6.979,5.053-5.065,7.8,2,2.67,1.9.284,1.667-.126s-1.256-.192-1.261-.2S44.079,90.319,46.29,88s3.534-2.962,4.728-2.875a70.482,70.482,0,0,1,6.954,3.4,26.859,26.859,0,0,0,2.9,1.832s.635-.112.356-.441" transform="translate(1687.759 676)" fill="#919191"/><path d="M49.215,82.131l-.3,9.232L59.357,96.7l-.29-1.359L51.285,91.18l.283-8.9Z" transform="translate(1687.759 676)" fill="#919191"/><path d="M48.2,108.135c-.088-.091-.275-.328-.293-.349-1.535,1.23-9.724,6.978-9.724,6.978l1.29,9.944h4.8l-5.031-9.66s7.675-5.683,8.959-6.913" transform="translate(1687.759 676)" fill="#919191"/><path d="M52.022,110.875a70.43,70.43,0,0,0,4.7,6.226l-4.6,7.654-3.665-.047,6.925-7.557a46.63,46.63,0,0,1-3.674-5.952Z" transform="translate(1687.759 676)" fill="#919191"/><path d="M62,85.682C61.565,85.9,54.432,74.4,51.84,75.35,48.75,76.528,47.1,78.8,47.6,80.084s2.015,2.234,2.033,1.081-.741-.479-.746-.479-1.509.135-.3-1.964,2.7-3.395,4.11-2.549a7.885,7.885,0,0,1,2.744,2.318c1.156,1.584,6.061,7.714,6.2,7.622,0,0,.266.33.353-.431" transform="translate(1687.759 676)" fill="#919191"/><text transform="matrix(1, 0.017, -0.017, 1, 1736.526, 744.795)" fill="#6c6c6c" font-size="12" font-family="Montserrat-SemiBold, Montserrat" font-weight="600"><tspan x="0" y="0">Add Insurance Policy</tspan></text></g><g transform="translate(905 253)"><g transform="translate(100 12)"><path d="M105.8,64.314c51.948,16.637,25.417,42.623,12.795,36.84-23.549-11.339,22.868-47.637,42.142-47.583,17.4.629,34.606,14.793,51.628,20.177,18.867,5.968,29.822,1.794,38.706-12.767s-1.843-39.43-17.786-40.2S202.6,45.366,215.418,59.191s51.573,11.367,61.473,0,15.588-18.128,12.127-45.647" transform="translate(-101.143 -11.588)" fill="none" stroke="#6d82c7" stroke-linecap="round" stroke-linejoin="round" stroke-width="2" stroke-dasharray="4 5"/><path d="M293.306,18l-5.314-5.258-4.686,6.08" transform="translate(-100.306 -12.745)" fill="none" stroke="#6d82c7" stroke-linecap="round" stroke-linejoin="round" stroke-width="2"/></g></g></g></svg>