<svg xmlns="http://www.w3.org/2000/svg" width="14" height="14" viewBox="0 0 14 14">
  <g id="Out_of_Service" data-name="Out of Service" transform="translate(-1920 -740)">
    <rect id="Rectangle_64485" data-name="Rectangle 64485" width="14" height="14" transform="translate(1920 740)" fill="#ffb74d" opacity="0"/>
    <path id="Path_37116" data-name="Path 37116" d="M.893,12.666v-.888a.334.334,0,0,1,.332-.336H13.163a.332.332,0,0,1,.332.332v.892a.332.332,0,0,1-.332.332H1.228a.335.335,0,0,1-.334-.332M10.035,9.98a1.7,1.7,0,0,1-.43-1.244V8.663A.166.166,0,0,1,9.77,8.5h.849a.164.164,0,0,1,.165.163v.009a1.922,1.922,0,0,0,.033.372.624.624,0,0,0,.123.282.582.582,0,0,0,.24.18.959.959,0,0,0,.38.067.748.748,0,0,0,.488-.177.658.658,0,0,0,.217-.544.96.96,0,0,0-.054-.338.687.687,0,0,0-.174-.26,1.226,1.226,0,0,0-.324-.208,4.325,4.325,0,0,0-.494-.192,4.152,4.152,0,0,1-.681-.288A1.8,1.8,0,0,1,10.06,7.2a1.264,1.264,0,0,1-.282-.484,1.951,1.951,0,0,1-.092-.635,1.624,1.624,0,0,1,.484-1.29,1.928,1.928,0,0,1,1.322-.428,2.947,2.947,0,0,1,.724.086,1.536,1.536,0,0,1,.574.279,1.283,1.283,0,0,1,.376.49,1.726,1.726,0,0,1,.135.716.165.165,0,0,1-.165.165h-.8a.166.166,0,0,1-.165-.156,1.04,1.04,0,0,0-.142-.486.543.543,0,0,0-.49-.225.84.84,0,0,0-.327.056A.569.569,0,0,0,11,5.447a.521.521,0,0,0-.107.217,1.172,1.172,0,0,0-.03.255.84.84,0,0,0,.115.453,1.02,1.02,0,0,0,.492.341l.908.389a2.7,2.7,0,0,1,.544.307,1.455,1.455,0,0,1,.34.344,1.125,1.125,0,0,1,.177.405,2.314,2.314,0,0,1,.048.491A1.612,1.612,0,0,1,12.953,10a2.366,2.366,0,0,1-1.494.422,1.962,1.962,0,0,1-1.42-.438Zm-4.247,0A1.7,1.7,0,0,1,5.36,8.736V8.663A.164.164,0,0,1,5.523,8.5h.851a.164.164,0,0,1,.163.163v.009a2.059,2.059,0,0,0,.033.372.664.664,0,0,0,.123.282.589.589,0,0,0,.242.18.959.959,0,0,0,.38.067A.742.742,0,0,0,7.8,9.394a.653.653,0,0,0,.217-.544.958.958,0,0,0-.052-.338.657.657,0,0,0-.177-.26,1.23,1.23,0,0,0-.321-.208,4.572,4.572,0,0,0-.5-.192,4.267,4.267,0,0,1-.678-.288,1.809,1.809,0,0,1-.48-.363,1.318,1.318,0,0,1-.282-.484,2.037,2.037,0,0,1-.089-.635,1.633,1.633,0,0,1,.482-1.29A1.932,1.932,0,0,1,7.25,4.366a2.947,2.947,0,0,1,.724.086,1.544,1.544,0,0,1,.572.279,1.3,1.3,0,0,1,.377.49,1.725,1.725,0,0,1,.134.716A.163.163,0,0,1,8.9,6.1H8.087a.166.166,0,0,1-.165-.156,1.009,1.009,0,0,0-.14-.486.543.543,0,0,0-.492-.225.84.84,0,0,0-.327.056.594.594,0,0,0-.208.156.521.521,0,0,0-.107.217,1.17,1.17,0,0,0-.027.255.861.861,0,0,0,.113.453,1.044,1.044,0,0,0,.492.341l.908.389a2.789,2.789,0,0,1,.548.307,1.5,1.5,0,0,1,.34.344,1.161,1.161,0,0,1,.175.405,2.213,2.213,0,0,1,.05.491A1.612,1.612,0,0,1,8.71,10a2.371,2.371,0,0,1-1.494.422A1.97,1.97,0,0,1,5.791,9.98Zm7.37-6.626H1.227a.334.334,0,0,1-.336-.331V2.128A.331.331,0,0,1,1.222,1.8H13.158a.332.332,0,0,1,.334.331v.889a.335.335,0,0,1-.332.336ZM.955,6.177a2.7,2.7,0,0,1,.271-.962,1.512,1.512,0,0,1,.6-.625,2.113,2.113,0,0,1,1.056-.226,2.112,2.112,0,0,1,1.055.226,1.509,1.509,0,0,1,.6.625,2.717,2.717,0,0,1,.269.962A11.194,11.194,0,0,1,4.872,7.4a11.155,11.155,0,0,1-.062,1.227,2.71,2.71,0,0,1-.269.958,1.437,1.437,0,0,1-.6.614,2.227,2.227,0,0,1-1.055.213A2.228,2.228,0,0,1,1.827,10.2a1.44,1.44,0,0,1-.6-.614,2.693,2.693,0,0,1-.271-.958A11.362,11.362,0,0,1,.893,7.4,11.4,11.4,0,0,1,.955,6.177M2.1,8.4a2.8,2.8,0,0,0,.114.671.753.753,0,0,0,.247.376.688.688,0,0,0,.422.119A.689.689,0,0,0,3.3,9.45a.747.747,0,0,0,.245-.376A2.827,2.827,0,0,0,3.665,8.4q.028-.413.028-1t-.028-1a2.879,2.879,0,0,0-.115-.671A.749.749,0,0,0,3.3,5.35a.694.694,0,0,0-.422-.119.693.693,0,0,0-.422.119.755.755,0,0,0-.247.38A2.847,2.847,0,0,0,2.1,6.4q-.029.409-.029,1t.029,1" transform="translate(1919.802 739.601)" fill="#ffb74d" stroke="rgba(0,0,0,0)" stroke-width="1"/>
  </g>
</svg>