<svg xmlns="http://www.w3.org/2000/svg" width="456" height="194" viewBox="0 0 456 194">
  <g id="Group_75753" data-name="Group 75753" transform="translate(14849 8261)">
    <g id="Rectangle_60450" data-name="Rectangle 60450" transform="translate(-14849 -8261)" fill="#fff" stroke="#e5e5e5" stroke-linecap="round" stroke-width="3" stroke-dasharray="4 8">
      <rect width="456" height="194" rx="2" stroke="none"/>
      <rect x="1.5" y="1.5" width="453" height="191" rx="0.5" fill="none"/>
    </g>
    <g id="Group_38080" data-name="Group 38080" transform="translate(-15290.986 -8538.527)">
      <g id="Layer_2" data-name="Layer 2" transform="translate(615.986 316.527)">
        <path id="Path_12815" data-name="Path 12815" d="M662.685,353.4c14.96-12.494,39.194-15.73,51.078-4.545,18.481,17.391,8,70.477-18.893,77.568C676.7,431.214,649.964,415.274,646.2,392,642.741,370.551,660.734,355.028,662.685,353.4Z" transform="translate(-621.308 -321.082)" fill="#f7f7f7"/>
        <path id="Path_12816" data-name="Path 12816" d="M636.13,393.391l-15.063,1.422a1.284,1.284,0,0,1-.366-1.549L648.751,333.6l7.481,12.27Z" transform="translate(-616.807 -319.578)" fill="#6c6c6c" opacity="0.2" style="isolation: isolate"/>
        <path id="Path_12830" data-name="Path 12830" d="M682.835,414.374l-43.321-18.315L659.6,348.528,704.22,367.39l-19.545,46.239a1.406,1.406,0,0,1-1.837.746Z" transform="translate(-620.191 -322.246)" fill="#ffc06e"/>
        <path id="Path_12831" data-name="Path 12831" d="M655.4,342.808l-16.442-25.764a.746.746,0,0,0-1.39-.077l-21.25,45.775a3.618,3.618,0,0,0,.028,3.107l18.956,24.5Z" transform="translate(-615.986 -316.527)" fill="#ffad43"/>
        <g id="Group_34772" data-name="Group 34772" transform="translate(19.826 28.465)">
          <g id="Group_34763" data-name="Group 34763" transform="translate(14.966)">
            <path id="Path_12892" data-name="Path 12892" d="M662.283,356.825l-.195-.439a1.635,1.635,0,0,0,.966-.973,2.34,2.34,0,0,0-.274-1.661c-1.606-2.033-3.885-.521-3.982-.454l-.269-.4c.027-.018,2.751-1.845,4.643.565l.016.025a2.83,2.83,0,0,1,.325,2.066A2.1,2.1,0,0,1,662.283,356.825Z" transform="translate(-658.383 -351.371)" fill="#d89444"/>
            <path id="Path_12893" data-name="Path 12893" d="M662.712,351.9a2.833,2.833,0,0,0-3.954.188,2.033,2.033,0,0,0-.237.407.342.342,0,0,0-.159.379.218.218,0,0,0,.013.052.341.341,0,0,0,.644-.216.306.306,0,0,0-.033-.082,1.581,1.581,0,0,1,.149-.247,1.748,1.748,0,0,1,.993-.641,2.791,2.791,0,0,1,2.3.545,2.926,2.926,0,0,1,1.1,1.6,1.852,1.852,0,0,1-.271,1.582,1.721,1.721,0,0,1-.781.574.34.34,0,0,0-.255-.034.331.331,0,0,0-.2.145.34.34,0,0,0,.1.471h0a.344.344,0,0,0,.472-.109l.006-.01a2.19,2.19,0,0,0,1.042-.755,2.316,2.316,0,0,0,.35-1.989A3.381,3.381,0,0,0,662.712,351.9Z" transform="translate(-658.35 -351.186)" fill="#6c6c6c"/>
          </g>
          <g id="Group_34764" data-name="Group 34764" transform="translate(13.137 4.334)">
            <path id="Path_12894" data-name="Path 12894" d="M660.061,362.1l-.195-.439a1.632,1.632,0,0,0,.966-.973,2.348,2.348,0,0,0-.271-1.663c-1.607-2.032-3.886-.518-3.982-.453l-.269-.4c.027-.019,2.751-1.845,4.644.565l.016.024a2.835,2.835,0,0,1,.325,2.065A2.086,2.086,0,0,1,660.061,362.1Z" transform="translate(-656.157 -356.648)" fill="#d89444"/>
            <path id="Path_12895" data-name="Path 12895" d="M660.484,357.178a2.832,2.832,0,0,0-3.954.187,2.1,2.1,0,0,0-.237.409.342.342,0,0,0-.159.379.241.241,0,0,0,.013.052.342.342,0,0,0,.4.2.368.368,0,0,0,.057-.021.344.344,0,0,0,.191-.393.326.326,0,0,0-.034-.082,1.557,1.557,0,0,1,.149-.248,1.748,1.748,0,0,1,.994-.641,2.784,2.784,0,0,1,2.287.549,2.911,2.911,0,0,1,1.1,1.6,1.842,1.842,0,0,1-.271,1.582,1.712,1.712,0,0,1-.781.574.342.342,0,0,0-.254-.035.337.337,0,0,0-.2.147.342.342,0,1,0,.563.388l.019-.03a2.187,2.187,0,0,0,1.041-.754,2.318,2.318,0,0,0,.351-1.986A3.388,3.388,0,0,0,660.484,357.178Z" transform="translate(-656.123 -356.464)" fill="#6c6c6c"/>
          </g>
          <g id="Group_34765" data-name="Group 34765" transform="translate(11.203 8.706)">
            <path id="Path_12896" data-name="Path 12896" d="M657.713,367.427l-.195-.439a1.63,1.63,0,0,0,.964-.977,2.348,2.348,0,0,0-.27-1.663c-1.607-2.031-3.887-.518-3.983-.453l-.269-.4c.026-.018,2.75-1.845,4.643.566l.016.026a2.828,2.828,0,0,1,.325,2.065,2.084,2.084,0,0,1-1.225,1.275Z" transform="translate(-653.803 -361.971)" fill="#d89444"/>
            <path id="Path_12897" data-name="Path 12897" d="M658.135,362.5a2.833,2.833,0,0,0-3.959.188,2.021,2.021,0,0,0-.237.407.34.34,0,0,0-.16.378.215.215,0,0,0,.013.052.341.341,0,0,0,.645-.215.287.287,0,0,0-.033-.083,1.648,1.648,0,0,1,.154-.249,1.752,1.752,0,0,1,1-.642,2.786,2.786,0,0,1,2.291.547,2.917,2.917,0,0,1,1.1,1.6,1.846,1.846,0,0,1-.271,1.582,1.706,1.706,0,0,1-.781.574.346.346,0,0,0-.254-.034.328.328,0,0,0-.2.146.34.34,0,0,0,.1.47h0a.343.343,0,0,0,.471-.109l.008-.011a2.187,2.187,0,0,0,1.04-.754,2.317,2.317,0,0,0,.351-1.989A3.392,3.392,0,0,0,658.135,362.5Z" transform="translate(-653.768 -361.787)" fill="#6c6c6c"/>
          </g>
          <g id="Group_34766" data-name="Group 34766" transform="translate(9.293 13.144)">
            <path id="Path_12898" data-name="Path 12898" d="M655.382,372.824l-.195-.439a1.631,1.631,0,0,0,.968-.975,2.333,2.333,0,0,0-.271-1.662c-1.607-2.032-3.885-.519-3.983-.453l-.269-.4c.026-.019,2.751-1.846,4.643.565l.016.024a2.831,2.831,0,0,1,.325,2.066A2.085,2.085,0,0,1,655.382,372.824Z" transform="translate(-651.477 -367.374)" fill="#d89444"/>
            <path id="Path_12899" data-name="Path 12899" d="M655.8,367.905a2.833,2.833,0,0,0-3.954.187,2.009,2.009,0,0,0-.236.409.339.339,0,0,0-.159.378.215.215,0,0,0,.013.052.341.341,0,0,0,.4.2c.02-.007.039-.013.057-.021a.341.341,0,0,0,.188-.385.291.291,0,0,0-.032-.083,1.5,1.5,0,0,1,.149-.248,1.753,1.753,0,0,1,.994-.641,2.785,2.785,0,0,1,2.292.547,2.912,2.912,0,0,1,1.1,1.6,1.844,1.844,0,0,1-.271,1.582,1.707,1.707,0,0,1-.781.574.342.342,0,0,0-.355.583h0a.34.34,0,0,0,.469-.105l0,0,.007-.011a2.179,2.179,0,0,0,1.04-.754,2.316,2.316,0,0,0,.351-1.99A3.377,3.377,0,0,0,655.8,367.905Z" transform="translate(-651.443 -367.19)" fill="#6c6c6c"/>
          </g>
          <g id="Group_34767" data-name="Group 34767" transform="translate(7.437 17.639)">
            <path id="Path_12900" data-name="Path 12900" d="M653.119,378.3l-.194-.439a1.629,1.629,0,0,0,.958-.978,2.341,2.341,0,0,0-.271-1.662c-1.607-2.033-3.886-.517-3.979-.455l-.269-.4c.028-.018,2.756-1.847,4.644.565l.017.025a2.836,2.836,0,0,1,.325,2.065A2.086,2.086,0,0,1,653.119,378.3Z" transform="translate(-649.215 -372.847)" fill="#d89444"/>
            <path id="Path_12901" data-name="Path 12901" d="M653.543,373.378a2.832,2.832,0,0,0-3.954.188,2.029,2.029,0,0,0-.237.408.342.342,0,0,0-.159.379.215.215,0,0,0,.013.052.341.341,0,0,0,.4.2.491.491,0,0,0,.057-.021.342.342,0,0,0,.191-.394.33.33,0,0,0-.033-.083,1.5,1.5,0,0,1,.148-.253,1.742,1.742,0,0,1,.994-.641,2.783,2.783,0,0,1,2.294.54,2.916,2.916,0,0,1,1.1,1.6,1.841,1.841,0,0,1-.271,1.581,1.706,1.706,0,0,1-.781.574.344.344,0,0,0-.253-.034.335.335,0,0,0-.2.147.342.342,0,0,0,.582.357h0a2.178,2.178,0,0,0,1.041-.753,2.321,2.321,0,0,0,.352-1.986,3.392,3.392,0,0,0-1.275-1.861Z" transform="translate(-649.182 -372.664)" fill="#6c6c6c"/>
          </g>
          <g id="Group_34768" data-name="Group 34768" transform="translate(5.541 22.164)">
            <path id="Path_12902" data-name="Path 12902" d="M650.808,383.806l-.195-.44a1.631,1.631,0,0,0,.964-.979,2.338,2.338,0,0,0-.272-1.662c-1.606-2.032-3.889-.518-3.981-.453l-.269-.4c.027-.019,2.751-1.845,4.643.566l.017.024a2.836,2.836,0,0,1,.325,2.065A2.09,2.09,0,0,1,650.808,383.806Z" transform="translate(-646.907 -378.355)" fill="#d89444"/>
            <path id="Path_12903" data-name="Path 12903" d="M651.235,378.888a2.832,2.832,0,0,0-3.954.188,1.951,1.951,0,0,0-.237.408.34.34,0,0,0-.16.379.222.222,0,0,0,.013.051.34.34,0,0,0,.652-.192l-.007-.023a.326.326,0,0,0-.034-.082,1.613,1.613,0,0,1,.149-.248,1.751,1.751,0,0,1,1-.643,2.788,2.788,0,0,1,2.292.548,2.915,2.915,0,0,1,1.1,1.6,1.851,1.851,0,0,1-.276,1.592,1.712,1.712,0,0,1-.781.574.342.342,0,0,0-.254-.035.337.337,0,0,0-.2.147.341.341,0,0,0,.1.471h0a.343.343,0,0,0,.471-.107h0l.007-.012a2.2,2.2,0,0,0,1.042-.754,2.321,2.321,0,0,0,.351-1.99A3.387,3.387,0,0,0,651.235,378.888Z" transform="translate(-646.874 -378.173)" fill="#6c6c6c"/>
          </g>
          <g id="Group_34769" data-name="Group 34769" transform="translate(3.685 26.635)">
            <path id="Path_12904" data-name="Path 12904" d="M648.558,389.257l-.195-.439a1.628,1.628,0,0,0,.961-.977,2.337,2.337,0,0,0-.27-1.662c-1.606-2.032-3.886-.519-3.983-.454l-.269-.4c.027-.017,2.756-1.845,4.643.566l.017.025a2.832,2.832,0,0,1,.333,2.062,2.088,2.088,0,0,1-1.229,1.277Z" transform="translate(-644.648 -383.801)" fill="#d89444"/>
            <path id="Path_12905" data-name="Path 12905" d="M648.98,384.333a2.834,2.834,0,0,0-3.959.189,2.135,2.135,0,0,0-.237.409.342.342,0,0,0-.159.379.4.4,0,0,0,.013.052.341.341,0,0,0,.646-.217.308.308,0,0,0-.033-.082,1.532,1.532,0,0,1,.154-.254,1.745,1.745,0,0,1,1-.641,2.784,2.784,0,0,1,2.292.546,2.91,2.91,0,0,1,1.1,1.6,1.846,1.846,0,0,1-.271,1.582,1.706,1.706,0,0,1-.781.574.346.346,0,0,0-.254-.034.333.333,0,0,0-.2.145.342.342,0,1,0,.568.38h0l.014-.023a2.187,2.187,0,0,0,1.041-.754,2.323,2.323,0,0,0,.351-1.991A3.393,3.393,0,0,0,648.98,384.333Z" transform="translate(-644.614 -383.617)" fill="#6c6c6c"/>
          </g>
          <g id="Group_34770" data-name="Group 34770" transform="translate(1.843 31.067)">
            <path id="Path_12906" data-name="Path 12906" d="M646.311,394.653l-.195-.44a1.626,1.626,0,0,0,.964-.981,2.342,2.342,0,0,0-.271-1.662c-1.606-2.033-3.886-.519-3.982-.453l-.269-.4c.027-.018,2.756-1.848,4.644.566l.017.023a2.836,2.836,0,0,1,.324,2.066A2.086,2.086,0,0,1,646.311,394.653Z" transform="translate(-642.404 -389.196)" fill="#d89444"/>
            <path id="Path_12907" data-name="Path 12907" d="M646.737,389.73a2.834,2.834,0,0,0-3.959.189,2.045,2.045,0,0,0-.237.409.34.34,0,0,0-.159.378.272.272,0,0,0,.012.052.34.34,0,1,0,.653-.193l-.008-.022a.3.3,0,0,0-.033-.082,1.587,1.587,0,0,1,.148-.253,1.751,1.751,0,0,1,1-.643,2.786,2.786,0,0,1,2.293.554,2.913,2.913,0,0,1,1.1,1.6,1.849,1.849,0,0,1-.271,1.582,1.714,1.714,0,0,1-.782.574.341.341,0,0,0-.355.582h0a.343.343,0,0,0,.472-.107l.006-.012a2.194,2.194,0,0,0,1.042-.754,2.318,2.318,0,0,0,.35-1.99A3.388,3.388,0,0,0,646.737,389.73Z" transform="translate(-642.371 -389.014)" fill="#6c6c6c"/>
          </g>
          <g id="Group_34771" data-name="Group 34771" transform="translate(0 35.336)">
            <path id="Path_12908" data-name="Path 12908" d="M644.064,399.849l-.195-.44a1.632,1.632,0,0,0,.965-.979,2.337,2.337,0,0,0-.272-1.662c-1.607-2.033-3.885-.52-3.983-.454l-.269-.4c.027-.018,2.753-1.84,4.643.566l.016.024a2.831,2.831,0,0,1,.325,2.066A2.085,2.085,0,0,1,644.064,399.849Z" transform="translate(-640.16 -394.395)" fill="#d89444"/>
            <path id="Path_12909" data-name="Path 12909" d="M644.488,394.926a2.833,2.833,0,0,0-3.954.187,2.008,2.008,0,0,0-.237.409.341.341,0,0,0-.159.379.24.24,0,0,0,.013.052.342.342,0,0,0,.4.2.21.21,0,0,0,.057-.021.344.344,0,0,0,.19-.4.293.293,0,0,0-.032-.082,1.462,1.462,0,0,1,.154-.249,1.759,1.759,0,0,1,1-.643,2.785,2.785,0,0,1,2.292.548,2.91,2.91,0,0,1,1.09,1.6,1.847,1.847,0,0,1-.271,1.582,1.706,1.706,0,0,1-.781.574.344.344,0,0,0-.253-.034.334.334,0,0,0-.2.147.342.342,0,1,0,.569.379l.014-.023a2.18,2.18,0,0,0,1.041-.754,2.317,2.317,0,0,0,.351-1.986A3.388,3.388,0,0,0,644.488,394.926Z" transform="translate(-640.127 -394.211)" fill="#6c6c6c"/>
          </g>
        </g>
        <circle id="Ellipse_4168" data-name="Ellipse 4168" cx="2.961" cy="2.961" r="2.961" transform="translate(64.45 18.701)" fill="#5673aa"/>
        <circle id="Ellipse_4169" data-name="Ellipse 4169" cx="1.664" cy="1.664" r="1.664" transform="translate(70.144 99.534)" fill="#5673aa"/>
        <circle id="Ellipse_4170" data-name="Ellipse 4170" cx="1.664" cy="1.664" r="1.664" transform="translate(31.333 86.259)" fill="#5673aa"/>
      </g>
      <g id="Group_38078" data-name="Group 38078" transform="translate(674.186 353.909)">
        <rect id="Rectangle_16176" data-name="Rectangle 16176" width="44.858" height="41.451" rx="1" transform="matrix(0.995, -0.103, 0.103, 0.995, 0, 9.703)" fill="#6c6c6c" opacity="0.2" style="isolation: isolate"/>
        <rect id="Rectangle_16334" data-name="Rectangle 16334" width="44.836" height="39.301" rx="1.999" transform="translate(1.388 4.694) rotate(-6.009)" fill="none" stroke="#344566" stroke-linecap="square" stroke-miterlimit="3.999" stroke-width="0.6"/>
        <rect id="Rectangle_16177" data-name="Rectangle 16177" width="44.85" height="41.444" rx="1" transform="translate(2.956 3.054)" fill="#ededed"/>
        <rect id="Rectangle_16178" data-name="Rectangle 16178" width="38.859" height="32.623" transform="translate(5.95 5.639)" fill="#fff"/>
        <path id="Path_22008" data-name="Path 22008" d="M720.709,398.632l-3.83,5.113-4.238-5.455-1.388,6.731h11.062Z" transform="translate(-691.213 -368.522)" fill="#5673aa" opacity="0.7" style="isolation: isolate"/>
        <path id="Path_22009" data-name="Path 22009" d="M736.266,393.388v-3.611L724.358,391.4c.237,1.05.439,1.989.558,2.544C728.583,393.627,732.854,393.335,736.266,393.388Z" transform="translate(-693.555 -367.001)" fill="#5673aa" opacity="0.7" style="isolation: isolate"/>
        <path id="Path_22010" data-name="Path 22010" d="M724.631,394.73l.113.527-1.977,2.639,1.606,6.391,11.611,0V394.17C732.572,394.121,728.3,394.411,724.631,394.73Z" transform="translate(-693.271 -367.785)" fill="#5673aa" opacity="0.7" style="isolation: isolate"/>
        <path id="Path_22012" data-name="Path 22012" d="M708.051,394.371l-.057-.073s.343-1.07.76-2.415l-12.1-1.269,0,3.658C700.069,394.08,704.393,394.2,708.051,394.371Z" transform="translate(-688.603 -367.15)" fill="#5673aa" opacity="0.7" style="isolation: isolate"/>
        <path id="Path_22013" data-name="Path 22013" d="M708.051,395.144c-3.659-.174-7.984-.292-11.4-.1v9.379l11.988,0,1.389-6.731Z" transform="translate(-688.603 -367.924)" fill="#5673aa" opacity="0.7" style="isolation: isolate"/>
        <path id="Path_22015" data-name="Path 22015" d="M721.191,382.264c.1-.806.028-1.482-.168-1.5s-.416.572-.519,1.339l-.667.28.012-2.483a1.706,1.706,0,0,1-.327-.583c-.383.314-1.165.433-2.655.132.133.413-.1.695-.721.3a12.89,12.89,0,0,0-1.641-.774c-.1-.016-.183-.034-.247-.049.053-.053-.367,1.543-.367,1.543l.324,2.024-.514-.193v-.01c-.128-.8-.392-1.43-.584-1.4s-.243.707-.117,1.51.39,1.429.584,1.4c.079-.013.135-.136.163-.336a4.684,4.684,0,0,0,.842,2.029,1.411,1.411,0,0,0,.489.281,17.36,17.36,0,0,0,4.035-.076,1.375,1.375,0,0,0,.476-.3,5.833,5.833,0,0,0,.859-2.4c.013.4.086.679.21.693C720.853,383.706,721.092,383.072,721.191,382.264Z" transform="translate(-691.512 -365.06)" fill="#fff"/>
        <path id="Path_22016" data-name="Path 22016" d="M710.519,393.53l1.981,2.548,4.237,5.455,3.83-5.113,1.977-2.639-.113-.527c-.118-.555-.323-1.493-.558-2.544-.225-1-.48-2.112-.719-3.082l-.1.02-.668-1.739c.03.179.057.362.078.543.182,1.566-.241,3.144-1.068,3.655a1.655,1.655,0,0,1-.75.225c-1.863.158-1.17,1.055-1.17,1.055a16.763,16.763,0,0,0-3.446-1.175c-.955-.179-1.328-2.04-1.2-3.614.018-.223.045-.446.074-.668l-.645,1.888-.03-.014c-.307.993-.682,2.2-1.007,3.244-.417,1.346-.756,2.419-.761,2.415Z" transform="translate(-691.071 -366.309)" fill="#fff"/>
        <path id="Path_22017" data-name="Path 22017" d="M713.062,384.015c-.026.223-.053.447-.074.668-.125,1.573.248,3.435,1.2,3.614a16.733,16.733,0,0,1,3.446,1.175s-.7-.894,1.171-1.055a1.663,1.663,0,0,0,.75-.224c.828-.508,1.251-2.09,1.068-3.655-.021-.182-.049-.362-.078-.542l.668,1.739c.036-.006.066-.014.1-.02,1.1-.224.706-1.091.522-2.216-.134-.83.205-1.11.42-1.821.129-.426-.09-2.5-.056-2.944a8.328,8.328,0,0,0-1.43-2.794.351.351,0,0,0-.215-.348,2.241,2.241,0,0,0-1.821-.189c-.236,0-.893.7-.9.244s-1.141-.432-2.271-.413a11.026,11.026,0,0,0-2.965.772c-.511.361-.853,2.617-.818,2.925.05.442-.56,1.628-.416,2.048a5.872,5.872,0,0,1,.273,2.487c-.142,1.141.253,2.216.751,2.421l.03.014Zm7.1-1.686a5.878,5.878,0,0,1-.859,2.4,1.375,1.375,0,0,1-.476.3,17.263,17.263,0,0,1-4.034.076,1.407,1.407,0,0,1-.49-.281,4.585,4.585,0,0,1-.842-2.029c-.031.2-.083.324-.163.336-.193.031-.448-.6-.585-1.4s-.083-1.477.117-1.509.448.6.584,1.4v.01l.515.192-.324-2.023s.424-1.594.366-1.543c.062.014.145.029.248.049a12.514,12.514,0,0,1,1.641.775c.622.4.855.112.72-.3,1.493.306,2.276.185,2.655-.132a1.7,1.7,0,0,0,.328.583l-.012,2.484.667-.281c.106-.77.331-1.368.52-1.339s.269.7.168,1.5-.338,1.443-.531,1.42c-.127-.016-.2-.291-.213-.692Z" transform="translate(-691.228 -364.4)" fill="#637daf"/>
        <path id="Path_23030" data-name="Path 23030" d="M724.632,394.731l.113.527-1.977,2.639,1.606,6.391,11.611,0V394.171C732.573,394.122,728.3,394.412,724.632,394.731Z" transform="translate(-693.271 -367.785)" fill="#5673aa" opacity="0.7" style="isolation: isolate"/>
        <path id="Path_23031" data-name="Path 23031" d="M708.05,395.143c-3.659-.174-7.984-.291-11.4-.1v9.378l11.989,0,1.388-6.731Z" transform="translate(-688.603 -367.924)" fill="#5673aa" opacity="0.7" style="isolation: isolate"/>
      </g>
      <g id="Group_38079" data-name="Group 38079" transform="translate(658.992 350.81)">
        <rect id="Rectangle_16176-2" data-name="Rectangle 16176-2" width="41.451" height="44.858" rx="1" transform="translate(1.988 42.995) rotate(-72.884)" fill="#6c6c6c" opacity="0.2" style="isolation: isolate"/>
        <rect id="Rectangle_16177-2" data-name="Rectangle 16177-2" width="41.444" height="44.85" rx="1" transform="matrix(0.391, -0.921, 0.921, 0.391, 0, 38.149)" fill="#ededed"/>
        <rect id="Rectangle_16178-2" data-name="Rectangle 16178-2" width="32.623" height="38.859" transform="matrix(0.391, -0.921, 0.921, 0.391, 5.192, 33.579)" fill="#fff"/>
        <path id="Path_22008-2" data-name="Path 22008-2" d="M702.507,400.468l-5.524,3.21L695.214,397l-3.908,5.654,10.183,4.322Z" transform="translate(-672.454 -365.193)" fill="#24c1a1" opacity="0.7" style="isolation: isolate"/>
        <path id="Path_22009-2" data-name="Path 22009-2" d="M719.2,401.927l1.411-3.324-11.6-3.158c-.192,1.059-.373,2-.481,2.56C712.039,399.145,716.085,400.544,719.2,401.927Z" transform="translate(-675.534 -364.915)" fill="#24c1a1" opacity="0.7" style="isolation: isolate"/>
        <path id="Path_22010-2" data-name="Path 22010-2" d="M707.675,398.562l-.1.53-2.851,1.656-1.018,6.511,10.69,4.533,3.951-9.31C715.222,401.1,711.175,399.7,707.675,398.562Z" transform="translate(-674.67 -365.472)" fill="#24c1a1" opacity="0.7" style="isolation: isolate"/>
        <path id="Path_22011" data-name="Path 22011" d="M707.675,398.562l-.1.53-2.851,1.656-1.018,6.511,10.69,4.533,3.951-9.31C715.222,401.1,711.175,399.7,707.675,398.562Z" transform="translate(-674.67 -365.472)" fill="#24c1a1" opacity="0.7" style="isolation: isolate"/>
        <path id="Path_22012-2" data-name="Path 22012-2" d="M692.78,391.48l-.024-.09c0,.007.733-.851,1.644-1.925l-10.643-5.9-1.43,3.366C685.547,388.094,689.482,389.892,692.78,391.48Z" transform="translate(-670.85 -362.792)" fill="#24c1a1" opacity="0.7" style="isolation: isolate"/>
        <path id="Path_22013-2" data-name="Path 22013-2" d="M691.984,392.213c-3.3-1.59-7.235-3.388-10.454-4.546l-3.665,8.633,11.034,4.688,3.908-5.654Z" transform="translate(-670.052 -363.525)" fill="#24c1a1" opacity="0.7" style="isolation: isolate"/>
        <path id="Path_22014" data-name="Path 22014" d="M691.984,392.213c-3.3-1.59-7.235-3.388-10.454-4.546l-3.665,8.633,11.034,4.688,3.908-5.654Z" transform="translate(-670.052 -363.525)" fill="#24c1a1" opacity="0.7" style="isolation: isolate"/>
        <path id="Path_22015-2" data-name="Path 22015-2" d="M709.6,385.585c.407-.7.6-1.354.433-1.45s-.606.364-1,1.03l-.724,0,.982-2.281a1.7,1.7,0,0,1-.074-.664c-.475.14-1.24-.057-2.5-.916-.039.432-.364.6-.78-.007a12.683,12.683,0,0,0-1.208-1.354c-.086-.053-.154-.1-.209-.141.071-.029-.94,1.277-.94,1.277l-.492,1.989-.4-.379,0-.01c.195-.787.2-1.468.008-1.514s-.5.557-.7,1.344-.2,1.468-.009,1.514c.078.019.178-.072.281-.246a4.686,4.686,0,0,0-.017,2.2,1.391,1.391,0,0,0,.34.449,17.342,17.342,0,0,0,3.743,1.506,1.38,1.38,0,0,0,.556-.089c.641-.259,1.166-1.15,1.73-1.878-.146.377-.186.66-.078.72C708.729,386.78,709.2,386.289,709.6,385.585Z" transform="translate(-674.341 -362.118)" fill="#fff"/>
        <path id="Path_22016-2" data-name="Path 22016-2" d="M695.051,391.883l.827,3.12,1.77,6.677,5.523-3.21,2.851-1.656.1-.529c.108-.558.287-1.5.481-2.561.185-1.013.384-2.131.542-3.118-.031-.007-.062-.011-.1-.019l.065-1.862c-.043.177-.089.355-.141.53-.443,1.513-1.449,2.8-2.41,2.948a1.663,1.663,0,0,1-.779-.086c-1.776-.582-1.49.513-1.49.513a16.751,16.751,0,0,0-2.713-2.428c-.809-.538-.425-2.4.3-3.8.1-.2.216-.393.329-.586l-1.331,1.487-.022-.025c-.671.793-1.486,1.758-2.194,2.593-.91,1.076-1.64,1.932-1.643,1.925Z" transform="translate(-673.119 -363.194)" fill="#fff"/>
        <path id="Path_22017-2" data-name="Path 22017-2" d="M701,384.17c-.112.2-.224.39-.329.586-.729,1.4-1.114,3.258-.3,3.8a16.747,16.747,0,0,1,2.713,2.429s-.292-1.1,1.49-.513a1.681,1.681,0,0,0,.778.086c.961-.144,1.968-1.435,2.41-2.948.052-.175.1-.353.14-.53l-.064,1.861c.035.009.065.014.1.02,1.1.222,1.076-.728,1.346-1.836.2-.816.622-.941,1.1-1.512.285-.342.894-2.338,1.1-2.732a8.327,8.327,0,0,0-.224-3.13.352.352,0,0,0-.062-.4,2.237,2.237,0,0,0-1.6-.885c-.218-.09-1.095.291-.926-.129s-.882-.843-1.929-1.267a11.043,11.043,0,0,0-3.031-.448c-.612.134-1.809,2.076-1.9,2.373-.127.426-1.151,1.279-1.183,1.722a5.893,5.893,0,0,1-.72,2.4c-.577.994-.633,2.138-.255,2.522l.022.025Zm7.2,1.224c-.562.721-1.087,1.616-1.73,1.878a1.376,1.376,0,0,1-.555.089,17.226,17.226,0,0,1-3.743-1.506,1.408,1.408,0,0,1-.341-.45,4.591,4.591,0,0,1,.018-2.2c-.108.173-.2.265-.281.246-.19-.046-.179-.724.008-1.514s.5-1.392.7-1.344.179.724-.009,1.514l0,.009.4.379.492-1.989s1.013-1.3.94-1.277c.052.037.122.083.209.142a12.445,12.445,0,0,1,1.208,1.354c.417.609.743.438.78.007,1.255.864,2.023,1.059,2.5.915a1.707,1.707,0,0,0,.074.665l-.981,2.281.724,0c.4-.667.839-1.131,1-1.03s-.025.747-.433,1.45-.875,1.2-1.043,1.1c-.111-.064-.071-.346.075-.72Z" transform="translate(-673.902 -361.549)" fill="#24c1a1"/>
      </g>
    </g>
    <text id="Drag_image_here_or_click_to_add" data-name="Drag image here or click to add" transform="translate(-14621 -8082)" fill="#b7b7b7" font-size="11" font-family="Montserrat-SemiBold, Montserrat" font-weight="600"><tspan x="-107.629" y="0">DRAG IMAGE HERE OR CLICK TO ADD</tspan></text>
  </g>
</svg>
