<svg xmlns="http://www.w3.org/2000/svg" width="20" height="20" viewBox="0 0 20 20">
  <g id="Whats_New" data-name="Whats New" transform="translate(-92 -928)">
    <rect id="Rectangle_52468" data-name="Rectangle 52468" width="20" height="20" transform="translate(92 928)" fill="none"/>
    <path id="Path_35324" data-name="Path 35324" d="M10,1a9,9,0,1,0,9,9,9,9,0,0,0-9-9m0,3.992A1.524,1.524,0,1,1,8.476,6.516,1.524,1.524,0,0,1,10,4.992m2.032,9.218a.437.437,0,0,1-.435.435H8.4a.437.437,0,0,1-.435-.435v-.871A.436.436,0,0,1,8.4,12.9h.437V10.581H8.4a.437.437,0,0,1-.435-.435V9.275A.437.437,0,0,1,8.4,8.84h2.323a.437.437,0,0,1,.435.435V12.9H11.6a.437.437,0,0,1,.435.435Z" transform="translate(92 928)" fill="#b7b7b7"/>
  </g>
</svg>
