<svg width="90" height="28" viewBox="0 0 90 28" fill="none" xmlns="http://www.w3.org/2000/svg">
<path d="M70.9653 27.9791C69.7841 27.9872 68.6097 27.799 67.4902 27.4221C66.5443 27.1328 65.6767 26.6318 64.9532 25.9572L65.4233 25.1941C66.1414 25.7938 66.9605 26.2607 67.8423 26.5731C68.8507 26.9476 69.9186 27.136 70.9943 27.1292C72.2624 27.222 73.5291 26.9306 74.6293 26.2931C75.0058 26.0351 75.3108 25.686 75.5157 25.2782C75.7207 24.8704 75.8189 24.4173 75.8013 23.9612C75.8174 23.6539 75.7696 23.3467 75.6608 23.0588C75.552 22.771 75.3847 22.5089 75.1693 22.2892C74.7265 21.8654 74.189 21.5533 73.6013 21.3792C72.7729 21.1358 71.9312 20.9401 71.0803 20.7931C70.0827 20.6149 69.0973 20.3735 68.1302 20.0702C67.4201 19.8414 66.7801 19.4348 66.2712 18.8892C65.7308 18.2541 65.4574 17.4345 65.5083 16.6022C65.5031 16.0429 65.6291 15.4901 65.8762 14.9884C66.1234 14.4867 66.4847 14.0499 66.9313 13.7131C68.1406 12.8621 69.606 12.4529 71.0813 12.5542C72.0358 12.5572 72.9847 12.7007 73.8973 12.9801C74.7234 13.206 75.4986 13.5879 76.1813 14.1051L75.6813 14.8672C75.0442 14.3834 74.3236 14.0209 73.5553 13.7981C72.7447 13.5527 71.9022 13.4285 71.0553 13.4292C69.8585 13.3447 68.6662 13.648 67.6553 14.2942C67.2918 14.5501 66.9969 14.8914 66.7964 15.2881C66.5959 15.6848 66.4958 16.1247 66.5052 16.5691C66.4876 16.8908 66.5356 17.2128 66.6464 17.5154C66.7571 17.818 66.9282 18.0948 67.1493 18.3291C67.5984 18.7706 68.1472 19.0975 68.7493 19.2821C69.6014 19.5412 70.4674 19.7523 71.3433 19.9142C72.3083 20.0776 73.2606 20.3084 74.1932 20.6051C74.891 20.8332 75.521 21.2316 76.0262 21.7642C76.5548 22.3709 76.8241 23.1608 76.7762 23.9641C76.7918 24.5396 76.6627 25.1098 76.4006 25.6224C76.1386 26.1351 75.7519 26.5738 75.2762 26.8982C74.1234 27.6163 72.7926 27.9973 71.4343 27.9982C71.2777 27.9955 71.1213 27.9891 70.9653 27.9791ZM35.9183 27.9791C34.7368 27.9872 33.5621 27.7989 32.4423 27.4221C31.4966 27.1327 30.6294 26.6317 29.9062 25.9572L30.3763 25.1941C31.0941 25.7941 31.9133 26.2612 32.7953 26.5731C33.804 26.9477 34.8723 27.1361 35.9482 27.1292C37.217 27.2223 38.4845 26.9309 39.5853 26.2931C39.9617 26.0352 40.2666 25.6862 40.4716 25.2786C40.6765 24.8709 40.7748 24.4181 40.7573 23.9622C40.7735 23.6549 40.7256 23.3476 40.6168 23.0598C40.508 22.772 40.3406 22.5099 40.1252 22.2902C39.6825 21.8663 39.1449 21.5543 38.5573 21.3801C37.7281 21.1368 36.8858 20.9412 36.0343 20.7942C35.0373 20.616 34.0526 20.3745 33.0863 20.0712C32.3754 19.8421 31.7345 19.4356 31.2242 18.8901C30.6844 18.2548 30.411 17.4354 30.4613 16.6031C30.4567 16.0439 30.5831 15.4914 30.8306 14.9899C31.078 14.4883 31.4396 14.0517 31.8862 13.7151C33.0956 12.8641 34.5609 12.4549 36.0363 12.5562C36.992 12.5583 37.9422 12.7011 38.8563 12.9801C39.6814 13.2063 40.4557 13.5881 41.1373 14.1051L40.6373 14.8661C40.0005 14.3825 39.2802 14.0202 38.5123 13.7971C37.6996 13.552 36.8552 13.4284 36.0063 13.4302C34.8095 13.346 33.6174 13.6492 32.6063 14.2952C32.2432 14.5512 31.9484 14.8923 31.7479 15.2888C31.5474 15.6853 31.4473 16.1249 31.4563 16.5691C31.4396 16.8912 31.4886 17.2134 31.6003 17.516C31.7121 17.8186 31.8842 18.0952 32.1063 18.3291C32.5554 18.7706 33.1042 19.0975 33.7063 19.2821C34.5584 19.5412 35.4245 19.7523 36.3003 19.9142C37.2625 20.0786 38.2121 20.3094 39.1423 20.6051C39.8401 20.8332 40.4701 21.2316 40.9753 21.7642C41.503 22.3715 41.7722 23.161 41.7253 23.9641C41.7413 24.5385 41.613 25.1078 41.3524 25.62C41.0918 26.1321 40.707 26.5709 40.2333 26.8961C39.08 27.615 37.7483 27.996 36.3893 27.9961C36.2333 27.9948 36.0759 27.9891 35.9172 27.9791H35.9183ZM49.7023 27.9791C48.5211 27.9872 47.3468 27.7989 46.2273 27.4221C45.2814 27.1326 44.4139 26.6317 43.6903 25.9572L44.1603 25.1941C44.8783 25.7938 45.6975 26.2608 46.5793 26.5731C47.5881 26.9477 48.6563 27.1361 49.7323 27.1292C51.0008 27.2221 52.2678 26.9307 53.3683 26.2931C53.745 26.0352 54.0502 25.6861 54.2554 25.2783C54.4605 24.8705 54.5588 24.4174 54.5413 23.9612C54.5571 23.6539 54.5092 23.3467 54.4004 23.059C54.2916 22.7712 54.1244 22.5091 53.9093 22.2892C53.4664 21.865 52.9284 21.5529 52.3403 21.3792C51.5119 21.1359 50.6702 20.9401 49.8193 20.7931C48.8223 20.6149 47.8377 20.3735 46.8713 20.0702C46.1607 19.8411 45.5201 19.4346 45.0103 18.8892C44.4703 18.2539 44.1969 17.4344 44.2473 16.6022C44.2424 16.043 44.3686 15.4903 44.6157 14.9886C44.8628 14.487 45.224 14.0501 45.6703 13.7131C46.8806 12.8618 48.3469 12.4526 49.8232 12.5542C50.7777 12.5575 51.7266 12.7009 52.6393 12.9801C53.465 13.2063 54.2398 13.5881 54.9222 14.1051L54.4222 14.8672C53.7851 14.3836 53.0645 14.0211 52.2963 13.7981C51.4837 13.5523 50.6392 13.4281 49.7903 13.4292C48.5935 13.345 47.4013 13.6483 46.3903 14.2942C46.0283 14.5505 45.7348 14.8916 45.5354 15.2877C45.336 15.6838 45.2367 16.1228 45.2463 16.5662C45.2282 16.8881 45.2758 17.2104 45.3864 17.5133C45.4969 17.8162 45.6681 18.0935 45.8893 18.3281C46.3388 18.7691 46.8874 19.0959 47.4893 19.2811C48.3431 19.5414 49.2112 19.7523 50.0892 19.9131C51.0522 20.077 52.0026 20.3082 52.9332 20.6051C53.6302 20.8332 54.2595 21.2313 54.7643 21.7632C55.2931 22.3698 55.5624 23.1598 55.5143 23.9631C55.5297 24.5386 55.4005 25.1089 55.1384 25.6215C54.8764 26.1341 54.4899 26.5726 54.0143 26.8971C52.8612 27.6155 51.5299 27.9967 50.1713 27.9972C50.0139 27.9952 49.8573 27.9891 49.7013 27.9791H49.7023ZM82.3633 26.9381C82.0144 26.552 81.7457 26.1005 81.5726 25.6097C81.3996 25.119 81.3258 24.5986 81.3553 24.0791V13.5192H78.4803V12.6681H81.3553V9.32812H82.3243V12.6681H87.3392V13.5182H82.3232V23.9312C82.2632 24.791 82.5361 25.641 83.0853 26.3052C83.3773 26.5925 83.7269 26.8145 84.1112 26.9564C84.4955 27.0983 84.9057 27.1569 85.3143 27.1282C86.222 27.1536 87.1046 26.8279 87.7783 26.2191L88.2733 26.9192C87.8851 27.2732 87.4245 27.5384 86.9233 27.6962C86.3759 27.8819 85.8014 27.9761 85.2233 27.9751C85.1433 27.9804 85.0636 27.9828 84.9843 27.9822C84.0089 27.9823 83.0709 27.6075 82.3643 26.9352L82.3633 26.9381ZM59.8232 27.8882V12.6692H60.7913V27.8892L59.8232 27.8882Z" fill="#CCCCCC"/>
<path d="M16.3137 18.199L16.2917 18.2121L1.51865 26.83C1.41586 26.8901 1.33566 26.9823 1.29051 27.0925C1.24535 27.2026 1.23771 27.3246 1.26878 27.4395C1.29984 27.5544 1.36788 27.6559 1.46238 27.7283C1.55688 27.8007 1.67268 27.8399 1.79173 27.84H8.84165C9.80108 27.8401 10.7432 27.585 11.5716 27.101L14.5136 25.3851C15.1583 25.0087 15.9261 24.9037 16.648 25.0933C17.37 25.2829 17.9871 25.7515 18.3636 26.3961L18.3707 26.409L18.6766 26.9371C18.8349 27.2113 19.0628 27.439 19.3373 27.597C19.6117 27.755 19.9231 27.8378 20.2397 27.8371H26.3226C26.4814 27.838 26.6376 27.7967 26.7754 27.7177C26.9131 27.6387 27.0275 27.5247 27.1069 27.3872C27.1863 27.2496 27.2279 27.0936 27.2275 26.9348C27.2271 26.776 27.1848 26.6202 27.1047 26.4831L23.4197 20.105C22.7316 18.9101 21.5971 18.0375 20.2656 17.6789C18.9341 17.3203 17.5148 17.5053 16.3197 18.1931H16.3147" fill="url(#paint0_linear_246_2155)"/>
<path d="M8.64844 22.6732C13.5764 19.7952 16.2165 22.3131 18.6985 26.8981C18.8545 27.1843 19.0847 27.4229 19.3651 27.5891C19.6455 27.7552 19.9655 27.8427 20.2914 27.8421H26.3224C26.4813 27.8431 26.6378 27.8019 26.7756 27.7229C26.9135 27.6438 27.028 27.5297 27.1074 27.392C27.1869 27.2544 27.2284 27.0981 27.2279 26.9392C27.2274 26.7802 27.1847 26.6243 27.1044 26.4871L23.4194 20.1051C23.0784 19.5128 22.6239 18.9936 22.082 18.5771C21.5402 18.1606 20.9215 17.855 20.2615 17.6778C19.6014 17.5006 18.9128 17.4553 18.2352 17.5444C17.5576 17.6335 16.9042 17.8553 16.3124 18.1971L16.2914 18.2091L8.64844 22.6732Z" fill="url(#paint1_linear_246_2155)"/>
<path d="M13.8407 2.03792e-05C13.6823 -0.000432881 13.5265 0.0410013 13.3892 0.120015C13.2518 0.19903 13.1378 0.312775 13.0586 0.449972L0.845699 21.605C0.786165 21.7085 0.762409 21.8287 0.778194 21.947C0.79398 22.0654 0.848403 22.1752 0.932979 22.2594C1.01756 22.3437 1.12759 22.3976 1.24597 22.4129C1.36435 22.4282 1.48442 22.404 1.58764 22.344L16.3166 13.744C17.5056 13.0501 18.3713 11.9136 18.7244 10.583C19.0774 9.25244 18.8892 7.83615 18.2007 6.64406L14.6227 0.449972C14.5439 0.31236 14.43 0.198237 14.2926 0.119161C14.1552 0.040085 13.9992 -0.00105029 13.8407 2.03792e-05Z" fill="url(#paint2_linear_246_2155)"/>
<path d="M24.0338 9.30967C23.3383 8.95592 22.7554 8.41493 22.3508 7.74767C21.9394 7.05637 21.7288 6.26403 21.7428 5.45967C21.7297 4.65667 21.9402 3.86585 22.3508 3.17567C22.7547 2.50657 23.3377 1.96378 24.0338 1.60867C24.779 1.22772 25.6061 1.0351 26.4428 1.04767C27.1967 1.03463 27.9447 1.18259 28.6368 1.48167C29.2639 1.75876 29.8108 2.18976 30.2268 2.73467L28.4268 4.33467C28.2199 4.03679 27.9454 3.7921 27.6257 3.62056C27.3061 3.44903 26.9505 3.35552 26.5878 3.34767C26.3219 3.33633 26.0566 3.38154 25.8094 3.48032C25.5622 3.57909 25.3388 3.72918 25.1538 3.92067C24.7775 4.34146 24.5827 4.8939 24.6118 5.45767C24.5832 6.02106 24.778 6.57302 25.1538 6.99367C25.3388 7.18503 25.5623 7.33497 25.8095 7.43357C26.0567 7.53217 26.322 7.5772 26.5878 7.56567C26.9514 7.55849 27.3081 7.4652 27.6287 7.29345C27.9492 7.12171 28.2245 6.8764 28.4318 6.57767L30.2318 8.17767C29.8158 8.72258 29.2689 9.15358 28.6418 9.43067C27.9487 9.73284 27.1989 9.88287 26.4428 9.87067C25.6061 9.88323 24.779 9.69062 24.0338 9.30967ZM75.9788 9.67767L74.5428 7.55667H73.7728V9.67767H70.9288V1.24067H74.9908C75.6894 1.22507 76.3834 1.35658 77.0278 1.62667C77.5733 1.85654 78.0388 2.24233 78.3658 2.73567C78.6849 3.2399 78.8481 3.8271 78.8348 4.42367C78.8477 4.97789 78.7057 5.5247 78.4248 6.00267C78.1392 6.46358 77.7296 6.83475 77.2428 7.07367L79.0148 9.67367L75.9788 9.67767ZM73.7728 5.41067H74.8088C75.1202 5.43434 75.4294 5.3421 75.6768 5.15167C75.7755 5.05871 75.8526 4.94527 75.9027 4.81932C75.9528 4.69338 75.9747 4.55799 75.9668 4.42267C75.9746 4.28736 75.9527 4.15199 75.9026 4.02605C75.8525 3.90012 75.7754 3.78667 75.6768 3.69367C75.4294 3.50324 75.1202 3.411 74.8088 3.43467H73.7728V5.41067ZM62.8178 9.67767V1.24067H69.6758V3.38567H65.6138V4.37367H69.1808V6.42367H65.6138V7.53167H69.8318V9.67767H62.8178ZM58.5998 9.67767V1.24067H61.4428V9.67767H58.5998ZM54.6708 9.67767L53.2358 7.55667H52.4648V9.67767H49.6208V1.24067H53.6818C54.3807 1.2251 55.0751 1.35661 55.7198 1.62667C56.2651 1.8564 56.7303 2.24224 57.0568 2.73567C57.3764 3.23972 57.54 3.82698 57.5268 4.42367C57.5397 4.97789 57.3977 5.5247 57.1168 6.00267C56.8318 6.46392 56.4225 6.83546 55.9358 7.07467L57.7078 9.67467L54.6708 9.67767ZM52.4648 5.41067H53.5008C53.8122 5.43453 54.1214 5.34227 54.3688 5.15167C54.4674 5.0587 54.5444 4.94523 54.5943 4.81927C54.6443 4.69331 54.6659 4.55792 54.6578 4.42267C54.6658 4.28743 54.6441 4.15208 54.5941 4.02614C54.5442 3.9002 54.4673 3.78672 54.3688 3.69367C54.1214 3.50307 53.8122 3.4108 53.5008 3.43467H52.4648V5.41067ZM45.6918 9.67767L44.2568 7.55667H43.4848V9.67767H40.6428V1.24067H44.7028C45.4024 1.22482 46.0974 1.35634 46.7428 1.62667C47.2879 1.8567 47.753 2.24248 48.0798 2.73567C48.3994 3.23972 48.563 3.82698 48.5498 4.42367C48.5627 4.97789 48.4207 5.5247 48.1398 6.00267C47.8548 6.46392 47.4455 6.83546 46.9588 7.07467L48.7308 9.67467L45.6918 9.67767ZM43.4858 5.41067H44.5228C44.8342 5.43453 45.1434 5.34227 45.3908 5.15167C45.4893 5.05862 45.5662 4.94513 45.6161 4.81919C45.6661 4.69325 45.6878 4.55791 45.6798 4.42267C45.6877 4.28743 45.666 4.15211 45.616 4.02618C45.5661 3.90025 45.4893 3.78676 45.3908 3.69367C45.1434 3.50307 44.8342 3.4108 44.5228 3.43467H43.4858V5.41067ZM37.2428 9.67767L36.6768 8.20767H33.4698L32.9028 9.67767H30.0108L33.6998 1.24067H36.4998L40.1838 9.67767H37.2428ZM34.2538 6.15767H35.8928L35.0728 4.03667L34.2538 6.15767Z" fill="#6F9EE0"/>
<defs>
<linearGradient id="paint0_linear_246_2155" x1="3.22429" y1="28.295" x2="4.85937" y2="18.4149" gradientUnits="userSpaceOnUse">
<stop stop-color="white"/>
<stop offset="1" stop-color="#919191"/>
</linearGradient>
<linearGradient id="paint1_linear_246_2155" x1="9.57741" y1="18.9582" x2="24.7879" y2="18.5912" gradientUnits="userSpaceOnUse">
<stop stop-color="white"/>
<stop offset="1" stop-color="#919191"/>
</linearGradient>
<linearGradient id="paint2_linear_246_2155" x1="9.83598" y1="0" x2="0.481431" y2="23.6304" gradientUnits="userSpaceOnUse">
<stop stop-color="white"/>
<stop offset="1" stop-color="#919191"/>
</linearGradient>
</defs>
</svg>
