<svg width="18" height="18" viewBox="0 0 18 18" fill="none" xmlns="http://www.w3.org/2000/svg">
<path d="M12.2617 16.3738V14.1978H1.86133C1.60374 14.1879 1.35962 14.0794 1.17969 13.8948C0.99975 13.7103 0.897926 13.4636 0.894531 13.2059C0.899524 12.9535 1.00353 12.7132 1.18457 12.5372C1.36561 12.3612 1.60886 12.2635 1.86133 12.2657H12.2617V10.0919C12.2618 9.95074 12.3024 9.81264 12.3799 9.69465C12.4573 9.57666 12.5678 9.48383 12.6973 9.42756C12.8267 9.37129 12.9693 9.35391 13.1084 9.37776C13.2475 9.4016 13.3772 9.46567 13.4805 9.56184L16.8652 12.6998C16.8782 12.7098 16.8903 12.7258 16.9062 12.7388C17.036 12.8802 17.1044 13.0669 17.0967 13.2586C17.089 13.4503 17.0058 13.6313 16.8652 13.7618L13.4805 16.9017C13.3771 16.998 13.2477 17.0623 13.1084 17.0863C12.9691 17.1102 12.8259 17.093 12.6963 17.0367C12.5667 16.9804 12.4565 16.8875 12.3789 16.7694C12.3013 16.6513 12.26 16.5132 12.2598 16.3719L12.2617 16.3738ZM12.2617 7.90266V5.72883H1.86133C1.60374 5.71886 1.35962 5.61044 1.17969 5.42585C0.99975 5.24126 0.897926 4.99464 0.894531 4.73689C0.90004 4.48463 1.00462 4.24455 1.18555 4.06867C1.36647 3.8928 1.60902 3.79506 1.86133 3.7967H12.2617V1.6258C12.2613 1.48442 12.3017 1.34605 12.3789 1.22761C12.4561 1.10917 12.5667 1.0157 12.6963 0.959054C12.8258 0.902412 12.969 0.885018 13.1084 0.908761C13.2478 0.932504 13.377 0.996505 13.4805 1.09284L16.8652 4.22785C16.8781 4.24324 16.8918 4.25787 16.9062 4.2718C17.0361 4.41268 17.1044 4.5994 17.0967 4.79084C17.089 4.98228 17.006 5.16277 16.8652 5.29279L13.4805 8.43269C13.3771 8.52904 13.2477 8.5933 13.1084 8.61726C12.9691 8.64122 12.8259 8.62397 12.6963 8.5677C12.5667 8.51142 12.4565 8.41847 12.3789 8.30036C12.3013 8.18226 12.26 8.04398 12.2598 7.90266H12.2617Z" fill="#92B1F5"/>
</svg>
