<svg xmlns="http://www.w3.org/2000/svg" xmlns:xlink="http://www.w3.org/1999/xlink" width="56" height="62" viewBox="0 0 56 62">
  <defs>
    <filter id="Path_33651" x="0" y="0" width="56" height="62" filterUnits="userSpaceOnUse">
      <feOffset input="SourceAlpha"/>
      <feGaussianBlur stdDeviation="2" result="blur"/>
      <feFlood flood-opacity="0.4"/>
      <feComposite operator="in" in2="blur"/>
      <feComposite in="SourceGraphic"/>
    </filter>
  </defs>
  <ellipse id="Ellipse_6007" data-name="Ellipse 6007" cx="12" cy="1.5" rx="12" ry="1.5" transform="translate(5 30)" fill="#6c6c6c"/>
  <g transform="matrix(1, 0, 0, 1, 0, 0)" filter="url(#Path_33651)">
    <path id="Path_33651-2" data-name="Path 33651" d="M44,21.948a21.94,21.94,0,0,1-9.7,18.208c-.048.036-.758.474-1.038.658-6.734,4.28-9.436,7.17-10.524,8.792a.881.881,0,0,1-1.218.248.915.915,0,0,1-.248-.248c-1.088-1.622-3.8-4.512-10.524-8.792-.306-.19-.988-.622-1.038-.658A21.966,21.966,0,1,1,44,21.948" transform="translate(6 6)" fill="#fff"/>
  </g>
  <circle id="Ellipse_6005" data-name="Ellipse 6005" cx="18" cy="18" r="18" transform="translate(10 9.999)" fill="#ef5350"/>
  <g id="Cancel" transform="translate(-6280 -12055)">
    <rect id="Rectangle_62292" data-name="Rectangle 62292" width="18" height="18" transform="translate(6299 12074)" fill="#fff" opacity="0"/>
    <path id="times" d="M8.533,86.188l3.518-3.518a1.106,1.106,0,0,0,0-1.564l-.782-.782a1.106,1.106,0,0,0-1.564,0L6.188,83.842,2.669,80.324a1.106,1.106,0,0,0-1.564,0l-.782.782a1.106,1.106,0,0,0,0,1.564l3.518,3.518L.324,89.706a1.106,1.106,0,0,0,0,1.564l.782.782a1.106,1.106,0,0,0,1.564,0l3.518-3.518,3.518,3.518a1.106,1.106,0,0,0,1.564,0l.782-.782a1.106,1.106,0,0,0,0-1.564Z" transform="translate(6301.813 11996.813)" fill="#fff"/>
  </g>
</svg>
