<svg width="100" height="100" viewBox="0 0 100 100" fill="none" xmlns="http://www.w3.org/2000/svg">
<path fill-rule="evenodd" clip-rule="evenodd" d="M10 12.5C4.47715 12.5 0 16.9772 0 22.5V77.5C0 83.0229 4.47716 87.5 10 87.5H90C95.5229 87.5 100 83.0229 100 77.5V22.5C100 16.9772 95.5228 12.5 90 12.5H10ZM42.573 50.0033C42.573 42.8445 45.9066 36.4726 51.1079 32.3534C56.3093 36.4726 59.6429 42.8445 59.6429 50.0033C59.6429 57.162 56.3093 63.5339 51.1079 67.6532C45.9066 63.5339 42.573 57.162 42.573 50.0033ZM49.2941 68.947C43.8707 64.4312 40.4173 57.6215 40.4173 50C40.4173 42.3785 43.8707 35.5688 49.2941 31.053C45.8066 28.8128 41.6555 27.5 37.1875 27.5C24.75 27.5 14.6875 37.5625 14.6875 50C14.6875 62.4375 24.75 72.5 37.1875 72.5C41.6555 72.5 45.8066 71.1873 49.2941 68.947ZM87.525 50C87.525 62.4375 77.4625 72.5 65.025 72.5C60.557 72.5 56.4059 71.1872 52.9183 68.947C58.3417 64.4312 61.7952 57.6215 61.7952 50C61.7952 42.3785 58.3418 35.5688 52.9184 31.053C56.4059 28.8128 60.557 27.5 65.025 27.5C77.4625 27.5 87.525 37.625 87.525 50Z" fill="black"/>
</svg>
