<svg xmlns="http://www.w3.org/2000/svg" width="100" height="100" viewBox="0 0 100 100">
  <g id="Group_91051" data-name="Group 91051" transform="translate(0 0)">
    <g id="Blob">
      <path id="Path_37836" data-name="Path 37836" d="M54.179,98.137C33.87,103.474,11.36,97.321,2.7,79.925c-4.5-9.042-3.625-19.6,4.595-28.4a63.741,63.741,0,0,0,9.521-12.47c4.9-8.565,4.67-16.7,9.827-23.293C42-3.876,65.574-4.11,82.066,9.237,98.954,22.9,103.1,43.2,97.9,60.473,92.735,77.627,78.371,91.781,54.173,98.142Z" fill="#f7f7f7" fill-rule="evenodd"/>
    </g>
    <g id="Folder">
      <path id="Path_37837" data-name="Path 37837" d="M8.645,36.771,48.883,17.322a3,3,0,0,1,4.007,1.4L77.566,69.772a3,3,0,0,1-1.4,4.007L35.932,93.227a3,3,0,0,1-4.007-1.4L7.249,40.777a3,3,0,0,1,1.4-4.007" transform="translate(-3.475 -8.512)" fill="#f44336"/>
      <path id="Path_37838" data-name="Path 37838" d="M33.051,34.86,16.228,42.989a3.266,3.266,0,0,1-3.841-.264L8.3,39.148c-1.067-.932-.322-2.382.657-2.854l20.069-9.778,20.131-9.647c.979-.472,2.58-.154,2.642,1.262l.26,5.425a3.272,3.272,0,0,1-2.179,3.176L33.055,34.86Z" transform="translate(-3.887 -8.332)" fill="#ef9a9a" fill-rule="evenodd"/>
      <path id="Path_37858" data-name="Path 37858" d="M0,0H.677V14.944H0Z" transform="matrix(0.901, -0.435, 0.435, 0.901, 27.281, 23.422)" fill="#3c3c3c"/>
      <path id="Path_37840" data-name="Path 37840" d="M51.2,41.013A2.533,2.533,0,1,1,50.016,44.4,2.533,2.533,0,0,1,51.2,41.013" transform="translate(-24.881 -20.38)" fill="#fffcf7"/>
      <path id="Path_37841" data-name="Path 37841" d="M62.423,64.691a2.533,2.533,0,1,1-1.179,3.382,2.533,2.533,0,0,1,1.179-3.382" transform="translate(-30.496 -32.22)" fill="#fffcf7"/>
    </g>
    <g id="Shadow">
      <path id="Path_37839" data-name="Path 37839" d="M85.667,45.765c4.1,26.613,6.463,43.3,7.272,49.131A2.462,2.462,0,0,0,95.6,97.009l38.142-3.465c3.1-.424,2.915-7.075-4.027-54.35-.582-4.221-2.14-4.821-4.173-4.53,0,0-12.937,2.39-38.815,6.44-1.557.512-1.571,1.46-1.063,4.667Z" transform="translate(-42.686 -17.301)" fill="#e8e8e8" fill-rule="evenodd"/>
    </g>
    <g id="Paper">
      <path id="Path_37842" data-name="Path 37842" d="M110.685,52.033q-28.9.53-28.9.533c-1.936.1-2.823.41-2.959,2.439-2.179,52.343-1.6,55.493.962,55.938,28.886,1.041,42.485.644,42.485-.9-.189-8.584-.322-25.627-.388-48.621q-11.208-9.381-11.2-9.381Z" transform="translate(-38.74 -26.017)" fill="#fff" fill-rule="evenodd"/>
      <path id="Path_37843" data-name="Path 37843" d="M155.418,69.046l-10.9-1.769c.216,3.65.529,4.442,1.535,4.442q8.687-.013,9.36-.274v-2.4Z" transform="translate(-72.262 -33.639)" fill="#e0e0e0" fill-rule="evenodd"/>
      <path id="Path_37844" data-name="Path 37844" d="M143.888,52.032q11.221,8.35,11.2,9.5c.036,0-2.92-.035-8.866.141a1.82,1.82,0,0,1-2.02-2.02s-.022-1.87-.318-7.622Z" transform="translate(-71.943 -26.016)" fill="#fff" fill-rule="evenodd"/>
      <path id="Path_37845" data-name="Path 37845" d="M121.249,79.949H107.774c-1.1.018-1.654-.4-1.535-1.521.092-.428.309-.617,1.628-.675,9.973-.123,15.614-.167,15.539,1.191q-.113,1.132-2.161,1.005Z" transform="translate(-53.111 -38.848)" fill="#f5c4c9" fill-rule="evenodd"/>
      <path id="Path_37846" data-name="Path 37846" d="M96.222,121.27a.456.456,0,1,1-.679-.609,1.693,1.693,0,0,1,2.465-.141,2.565,2.565,0,0,1,2.227-.026,2.5,2.5,0,0,0,.371.1c.181,0,.375,0,.578,0a10.561,10.561,0,0,0,2.7-.22,6.743,6.743,0,0,1,1.23-.009,19.035,19.035,0,0,0,2.9-.035,4.061,4.061,0,0,1,1.456.128,7.412,7.412,0,0,0,1.363.186c1.046,0,2-.039,2.95-.075,1-.04,2-.08,3-.08h6.109a.459.459,0,0,1,0,.918h-6.105c-1.046,0-2,.039-2.96.075-1,.04-2,.08-2.99.08a8.069,8.069,0,0,1-1.54-.2,3.782,3.782,0,0,0-1.1-.132,18.042,18.042,0,0,1-3.11.053c-.525-.018-.931-.031-.944-.027a11.226,11.226,0,0,1-2.964.256h-.568a2.149,2.149,0,0,1-.65-.141c-.485-.15-1.2-.366-1.566.009-.3.3-.516.155-.842-.062-.3-.194-.873-.569-1.337-.044Zm0-25.675a.456.456,0,0,1-.679-.609,1.693,1.693,0,0,1,2.465-.141,2.565,2.565,0,0,1,2.227-.026,2.5,2.5,0,0,0,.371.1c.181,0,.375,0,.578,0a10.561,10.561,0,0,0,2.7-.22,6.743,6.743,0,0,1,1.23-.009,19.035,19.035,0,0,0,2.9-.035,4.061,4.061,0,0,1,1.456.128,7.412,7.412,0,0,0,1.363.186c1.046,0,2-.04,2.95-.075,1-.04,2-.08,3-.08h6.109a.459.459,0,0,1,0,.918h-6.105c-1.046,0-2,.039-2.96.075-1,.04-2,.079-2.99.079a8.069,8.069,0,0,1-1.54-.2,3.782,3.782,0,0,0-1.1-.132,18.042,18.042,0,0,1-3.11.053c-.525-.017-.931-.031-.944-.026a11.227,11.227,0,0,1-2.964.256h-.568a2.149,2.149,0,0,1-.65-.141c-.485-.15-1.2-.366-1.566.009-.3.3-.516.154-.842-.062-.3-.194-.873-.569-1.337-.044Zm0,6.625a.456.456,0,0,1-.679-.609,1.693,1.693,0,0,1,2.465-.141,2.565,2.565,0,0,1,2.227-.026,2.5,2.5,0,0,0,.371.1c.181,0,.375,0,.578,0a10.561,10.561,0,0,0,2.7-.22,6.743,6.743,0,0,1,1.23-.009,19.035,19.035,0,0,0,2.9-.035,4.061,4.061,0,0,1,1.456.128,7.368,7.368,0,0,0,1.363.185c1.046,0,2-.039,2.95-.075,1-.04,2-.079,3-.079h6.109a.459.459,0,0,1,0,.917h-6.105c-1.046,0-2,.04-2.96.075-1,.04-2,.08-2.99.08a8.069,8.069,0,0,1-1.54-.2,3.782,3.782,0,0,0-1.1-.132,18.042,18.042,0,0,1-3.11.053c-.525-.017-.931-.031-.944-.026a11.227,11.227,0,0,1-2.964.256h-.568a2.149,2.149,0,0,1-.65-.141c-.485-.15-1.2-.366-1.566.009-.291.3-.516.155-.842-.062-.3-.194-.873-.569-1.337-.044Zm0,6.223a.456.456,0,1,1-.679-.608,1.693,1.693,0,0,1,2.465-.141,2.565,2.565,0,0,1,2.227-.027,2.487,2.487,0,0,0,.371.1c.181,0,.375,0,.578,0a10.561,10.561,0,0,0,2.7-.221,6.744,6.744,0,0,1,1.23-.009,19.035,19.035,0,0,0,2.9-.035,4.061,4.061,0,0,1,1.456.128,7.369,7.369,0,0,0,1.363.186c1.046,0,2-.039,2.95-.075,1-.04,2-.079,3-.079h6.109a.459.459,0,0,1,0,.917h-6.105c-1.046,0-2,.04-2.96.075-1,.039-2,.079-2.99.079a8.069,8.069,0,0,1-1.54-.2,3.782,3.782,0,0,0-1.1-.133,18.042,18.042,0,0,1-3.11.053c-.525-.017-.931-.031-.944-.026a11.226,11.226,0,0,1-2.964.256h-.568a2.149,2.149,0,0,1-.65-.141c-.485-.15-1.2-.366-1.566.009-.291.3-.516.155-.842-.062-.3-.194-.873-.569-1.337-.044Zm0,6.413a.456.456,0,1,1-.679-.608,1.693,1.693,0,0,1,2.465-.141,2.565,2.565,0,0,1,2.227-.026,2.5,2.5,0,0,0,.371.1c.181,0,.375,0,.578,0a10.561,10.561,0,0,0,2.7-.221,6.744,6.744,0,0,1,1.23-.009,19.036,19.036,0,0,0,2.9-.035,4.061,4.061,0,0,1,1.456.128,7.412,7.412,0,0,0,1.363.186c1.046,0,2-.04,2.95-.075,1-.039,2-.079,3-.079h6.109a.459.459,0,0,1,0,.918h-6.105c-1.046,0-2,.039-2.96.075-1,.039-2,.079-2.99.079a8.069,8.069,0,0,1-1.54-.2,3.782,3.782,0,0,0-1.1-.132,18.042,18.042,0,0,1-3.11.053c-.525-.017-.931-.031-.944-.026a11.226,11.226,0,0,1-2.964.256h-.568a2.148,2.148,0,0,1-.65-.141c-.485-.15-1.2-.366-1.566.009-.3.3-.516.155-.842-.062-.3-.194-.869-.569-1.337-.044Z" transform="translate(-47.713 -47.185)" fill="#f5c4c9"/>
    </g>
  </g>
</svg>
