<svg xmlns="http://www.w3.org/2000/svg" xmlns:xlink="http://www.w3.org/1999/xlink" width="34" height="37" viewBox="0 0 34 37">
  <defs>
    <filter id="Path_33651" x="0" y="0" width="34" height="37" filterUnits="userSpaceOnUse">
      <feOffset input="SourceAlpha"/>
      <feGaussianBlur stdDeviation="2" result="blur"/>
      <feFlood flood-opacity="0.149"/>
      <feComposite operator="in" in2="blur"/>
      <feComposite in="SourceGraphic"/>
    </filter>
    <filter id="f2" x="0" y="0">
      <feOffset input="SourceAlpha"/>
      <feGaussianBlur stdDeviation="1" result="blur"/>
      <feFlood flood-opacity="0.4"/>
      <feComposite operator="in" in2="blur"/>
    </filter>
  </defs>
  <ellipse id="Ellipse_6007" data-name="Ellipse 6007" cx="6" cy="1.5" rx="6" ry="1.5" transform="translate(11 30)" fill="#6c6c6c" filter="url(#f2)"/>
  <g transform="matrix(1, 0, 0, 1, 0, 0)" filter="url(#Path_33651)">
    <path id="Path_33651-2" data-name="Path 33651" d="M22,10.974a10.97,10.97,0,0,1-4.852,9.1c-.024.018-.379.237-.519.329-3.367,2.14-4.718,3.585-5.262,4.4a.441.441,0,0,1-.609.124.457.457,0,0,1-.124-.124c-.544-.811-1.9-2.256-5.262-4.4-.153-.095-.494-.311-.519-.329A10.983,10.983,0,1,1,22,10.974" transform="translate(6 6)" fill="#fff"/>
  </g>
  <circle id="Ellipse_6005" data-name="Ellipse 6005" cx="9" cy="9" r="9" transform="translate(8 8)" fill="#536bc2"/>
  <g id="Favorite" transform="translate(-1801 -202)">
    <rect id="Rectangle_61664" data-name="Rectangle 61664" width="12" height="12" transform="translate(1812 213)" fill="#fff" opacity="0"/>
    <path id="star" d="M11.37,4.8a.611.611,0,0,0-.521-.434L7.558,4.058,6.257.88a.6.6,0,0,0-1.115,0l-1.3,3.177L.55,4.369A.613.613,0,0,0,.029,4.8a.651.651,0,0,0,.177.672L2.694,7.752,1.96,11.123a.646.646,0,0,0,.236.653.584.584,0,0,0,.666.031L5.7,10.036l2.837,1.771a.585.585,0,0,0,.667-.031.646.646,0,0,0,.236-.653L8.705,7.752l2.488-2.276A.651.651,0,0,0,11.37,4.8ZM5.754,10" transform="translate(1812.301 212.804)" fill="#fff"/>
  </g>
</svg>