<svg xmlns="http://www.w3.org/2000/svg" width="18" height="18" viewBox="0 0 18 18">
  <g id="Group_77438" data-name="Group 77438" transform="translate(-294 -832.998)">
    <g id="Group_52455" data-name="Group 52455" transform="translate(296.25 833.9)">
      <path id="Path_31050" data-name="Path 31050" d="M579.161,901.556a7.839,7.839,0,0,1-1.044,3.777,17.1,17.1,0,0,1-3.63,4.431c-.591.535-1.226,1.025-1.847,1.53a.292.292,0,0,1-.439.016,20.169,20.169,0,0,1-5.283-5.6,8.293,8.293,0,0,1-1.192-3.2,6.075,6.075,0,0,1,1.1-4.456,6.633,6.633,0,0,1,4.547-2.776,6.749,6.749,0,0,1,7.6,4.913,5.131,5.131,0,0,1,.109.562C579.123,901.07,579.146,901.384,579.161,901.556Zm-11.81.123a5.391,5.391,0,1,0,0-.007v.007Z" transform="translate(-565.661 -895.202)" fill="#aaa" stroke="rgba(0,0,0,0)" stroke-width="1"/>
      <path id="Path_31051" data-name="Path 31051" d="M574.07,905.8c-.551.534-1.071,1.059-1.618,1.559a1.081,1.081,0,0,1-1.461-.02.965.965,0,0,1-.088-1.386c.53-.54,1.1-1.048,1.667-1.575A2.808,2.808,0,0,0,574.07,905.8Z" transform="translate(-567.283 -898.185)" fill="#aaa" stroke="rgba(0,0,0,0)" stroke-width="1"/>
      <path id="Path_31052" data-name="Path 31052" d="M576.768,903.871h-.007a2.286,2.286,0,0,1-.388.047,2.79,2.79,0,0,1-.508-.025h0a2.062,2.062,0,0,1-1.2-.6,2.457,2.457,0,0,1-.633-1.169,1.834,1.834,0,0,1,.025-.854v-.006a2.234,2.234,0,0,1,2.581-1.625.365.365,0,0,1,.14.064h.005a.453.453,0,0,1,.107.107l.007.01a.227.227,0,0,1-.059.279c-.012.013-.023.024-.035.036-.238.225-.481.445-.7.684a.5.5,0,0,0-.107.189,3.587,3.587,0,0,0-.033.675.35.35,0,0,0,.08.259l0,0a.369.369,0,0,0,.281.086,4.085,4.085,0,0,0,.7-.032.546.546,0,0,0,.2-.1c.248-.214.477-.447.712-.675l.038-.035a.248.248,0,0,1,.29-.055l.01.006a.439.439,0,0,1,.112.1v0a.333.333,0,0,1,.067.135A2.146,2.146,0,0,1,576.768,903.871Z" transform="translate(-568.37 -896.634)" fill="#aaa" stroke="rgba(0,0,0,0)" stroke-width="1"/>
    </g>
    <rect id="Rectangle_35127" data-name="Rectangle 35127" width="18" height="18" transform="translate(294 832.998)" fill="none"/>
  </g>
</svg>
