<svg xmlns="http://www.w3.org/2000/svg" xmlns:xlink="http://www.w3.org/1999/xlink" width="34" height="37" viewBox="0 0 34 37">
  <defs>
    <filter id="Path_33651" x="0" y="0" width="34" height="37" filterUnits="userSpaceOnUse">
      <feOffset input="SourceAlpha"/>
      <feGaussianBlur stdDeviation="2" result="blur"/>
      <feFlood flood-opacity="0.149"/>
      <feComposite operator="in" in2="blur"/>
      <feComposite in="SourceGraphic"/>
    </filter>
  </defs>
  <g id="Group_94577" data-name="Group 94577" transform="translate(-630 -2283.999)">
    <ellipse id="Ellipse_6007" data-name="Ellipse 6007" cx="6" cy="1.5" rx="6" ry="1.5" transform="translate(641 2314)" fill="#6c6c6c" filter="blur(1px)" />
    <g transform="matrix(1, 0, 0, 1, 630, 2284)" filter="url(#Path_33651)">
      <path id="Path_33651-2" data-name="Path 33651" d="M22,10.974a10.97,10.97,0,0,1-4.852,9.1c-.024.018-.379.237-.519.329-3.367,2.14-4.718,3.585-5.262,4.4a.441.441,0,0,1-.609.124.457.457,0,0,1-.124-.124c-.544-.811-1.9-2.256-5.262-4.4-.153-.095-.494-.311-.519-.329A10.983,10.983,0,1,1,22,10.974" transform="translate(6 6)" fill="#fff"/>
    </g>
    <circle id="Ellipse_6005" data-name="Ellipse 6005" cx="9" cy="9" r="9" transform="translate(638 2292)" fill="#f44336"/>
    <g id="Cancel" transform="translate(-5657 -9778)">
      <rect id="Rectangle_62292" data-name="Rectangle 62292" width="10" height="10" transform="translate(6299 12074)" fill="#fff" opacity="0"/>
      <path id="times" d="M4.741,83.438,6.7,81.483a.614.614,0,0,0,0-.869l-.434-.434a.614.614,0,0,0-.869,0L3.438,82.134,1.483,80.18a.614.614,0,0,0-.869,0l-.434.434a.614.614,0,0,0,0,.869l1.954,1.954L.18,85.392a.614.614,0,0,0,0,.869l.434.434a.614.614,0,0,0,.869,0l1.954-1.954L5.392,86.7a.614.614,0,0,0,.869,0l.434-.434a.614.614,0,0,0,0-.869Z" transform="translate(6300.563 11995.563)" fill="#fff"/>
    </g>
  </g>
</svg>
