<svg width="12" height="12" viewBox="0 0 12 12" fill="none" xmlns="http://www.w3.org/2000/svg">
<path d="M9.46606 7.85961L6.43339 10.8923C6.37672 10.9496 6.30924 10.9951 6.23485 11.0262C6.16047 11.0572 6.08066 11.0732 6.00006 11.0732C5.91945 11.0732 5.83964 11.0572 5.76526 11.0262C5.69087 10.9951 5.62339 10.9496 5.56672 10.8923L2.53272 7.85961C2.44745 7.77385 2.38946 7.66478 2.36607 7.54613C2.34267 7.42749 2.35491 7.30457 2.40125 7.19286C2.44758 7.08116 2.52594 6.98567 2.62645 6.91841C2.72696 6.85116 2.84512 6.81516 2.96606 6.81494H9.03272C9.15366 6.81516 9.27182 6.85116 9.37233 6.91841C9.47284 6.98567 9.5512 7.08116 9.59753 7.19286C9.64387 7.30457 9.65611 7.42749 9.63271 7.54613C9.60931 7.66478 9.55133 7.77385 9.46606 7.85961Z" fill="#919191"/>
<path d="M2.96872 5.18407H9.03539C9.1561 5.18333 9.27389 5.14695 9.374 5.07949C9.4741 5.01204 9.55205 4.91652 9.59805 4.80492C9.64406 4.69332 9.65608 4.57062 9.63259 4.45222C9.60911 4.33382 9.55117 4.22499 9.46606 4.1394L6.43339 1.10674C6.37672 1.04941 6.30924 1.0039 6.23486 0.972834C6.16047 0.941773 6.08066 0.925781 6.00006 0.925781C5.91945 0.925781 5.83964 0.941773 5.76526 0.972834C5.69087 1.0039 5.62339 1.04941 5.56672 1.10674L2.53272 4.1394C2.44729 4.22531 2.38925 4.33463 2.36594 4.45353C2.34263 4.57242 2.35509 4.69556 2.40176 4.80738C2.44843 4.91919 2.5272 5.01466 2.62811 5.08171C2.72903 5.14876 2.84756 5.18438 2.96872 5.18407Z" fill="#919191"/>
</svg>
