<svg xmlns="http://www.w3.org/2000/svg" width="100" height="99.997" viewBox="0 0 100 99.997">
  <g id="Group_86260" data-name="Group 86260" transform="translate(-310 -403)">
    <g id="Group_83597" data-name="Group 83597" transform="translate(310 404)">
      <circle id="Ellipse_3223" data-name="Ellipse 3223" cx="8.959" cy="8.959" r="8.959" transform="translate(21.59 98.56) rotate(-90)" fill="#b7b7b7" opacity="0.2" style="mix-blend-mode: multiply;isolation: isolate"/>
      <g id="Bcg" transform="translate(4.409)">
        <path id="Path_12272" data-name="Path 12272" d="M667.881,681.233c.371-5.454,1.926-28.327,19.149-39.329,19.71-12.59,49.573-3.01,64.516,16.066,9.1,11.622,16.027,31.055,8.482,47.554-12.83,28.055-61.206,33.881-81.352,13.5C666.172,706.366,667.515,686.62,667.881,681.233Z" transform="translate(-667.653 -637.21)" fill="#f3f3f3"/>
        <circle id="Ellipse_3224" data-name="Ellipse 3224" cx="5.463" cy="5.463" r="5.463" transform="translate(52.725 1.719)" fill="#b7b7b7"/>
        <circle id="Ellipse_3225" data-name="Ellipse 3225" cx="4.874" cy="4.874" r="4.874" transform="translate(63.188 98.997) rotate(-90)" fill="#b7b7b7"/>
      </g>
      <g id="Lock" transform="translate(20.934 79.495)">
        <circle id="Ellipse_3226" data-name="Ellipse 3226" cx="8.959" cy="8.959" r="8.959" fill="#80cbba"/>
        <g id="Group_32972" data-name="Group 32972" transform="translate(3.494 3.656)">
          <path id="Path_12292" data-name="Path 12292" d="M1252.213,3107.225l-1.732,1.632a3.971,3.971,0,0,0-.165,5.6l.32.34a3.97,3.97,0,0,0,5.6.166l1.732-1.632a.917.917,0,0,0,.038-1.3l-4.494-4.768A.916.916,0,0,0,1252.213,3107.225Z" transform="translate(-1249.242 -3105.088)" fill="#fff"/>
          <path id="Path_12293" data-name="Path 12293" d="M1389.525,3054.771l1.163-1.1a2,2,0,1,1,2.742,2.909l-1.163,1.1.755.8,1.163-1.1a3.1,3.1,0,1,0-4.252-4.511l-1.163,1.1Z" transform="translate(-1383.977 -3052.031)" fill="#fff"/>
          <path id="Path_12294" data-name="Path 12294" d="M1341.229,3210.533a.936.936,0,1,0-1.519-.354l-.583.55a.364.364,0,1,0,.5.53l.583-.55A.936.936,0,0,0,1341.229,3210.533Z" transform="translate(-1335.929 -3203.527)" fill="#80cbba"/>
        </g>
      </g>
      <g id="Pirple" transform="translate(49.412 31.552)">
        <g id="Group_32970" data-name="Group 32970" transform="translate(0)">
          <path id="Path_12275" data-name="Path 12275" d="M2465.073,1560l-20.325-5.726a1.142,1.142,0,0,1-.788-1.405h0a1.142,1.142,0,0,1,1.405-.787l20.325,5.726a1.142,1.142,0,0,1,.787,1.405h0A1.142,1.142,0,0,1,2465.073,1560Z" transform="translate(-2427.745 -1552.037)" fill="#344566"/>
          <path id="Path_12282" data-name="Path 12282" d="M2005.941,2582.508l-32.016-9.02a1.142,1.142,0,0,1-.788-1.405h0a1.142,1.142,0,0,1,1.405-.787l32.016,9.02a1.142,1.142,0,0,1,.787,1.405h0A1.142,1.142,0,0,1,2005.941,2582.508Z" transform="translate(-1973.095 -2536.24)" fill="#344566"/>
        </g>
      </g>
      <g id="Yellow" transform="translate(0 3.392)">
        <path id="Path_12274" data-name="Path 12274" d="M564,808.654h-.007c-.064,0-.12,0-.173-.007l-.023,0h-.008c-.048,0-.1-.011-.147-.02l-.01,0-.039-.007c-.053-.01-.105-.023-.157-.037l-.044-.013-.01,0c-.041-.013-.083-.027-.123-.042h0l-.056-.022c-.042-.017-.083-.036-.126-.057l-.062-.031c-.049-.026-.091-.05-.128-.073l-.055-.037-.016-.011c-.027-.019-.054-.037-.081-.057l-.063-.05c-.028-.023-.057-.048-.088-.076l-.012-.011-.036-.033c-.046-.044-.087-.087-.125-.131l-.016-.02,0,0c-.033-.039-.066-.081-.1-.125l-.031-.046,0,0c-.026-.038-.051-.077-.074-.118l-.007-.011-.022-.038c-.034-.062-.063-.12-.087-.175l-.131-.3-22.446-51.582c-.026-.06-.049-.122-.072-.19,0-.015-.009-.029-.013-.044l0-.018c-.011-.039-.024-.085-.035-.132,0-.019-.008-.038-.011-.057l0-.016c-.009-.047-.015-.086-.02-.123s-.006-.051-.008-.076c0-.041-.006-.081-.007-.12s0-.051,0-.076,0-.075,0-.119v-.013c0-.021,0-.042,0-.062,0-.042.01-.083.016-.118l0-.02c0-.018.005-.036.009-.054.007-.037.016-.072.024-.1l0-.009a2.093,2.093,0,0,1,.09-.278l.013-.03,0-.009c.025-.059.049-.11.074-.156l.023-.041.009-.016c.028-.05.054-.091.079-.129l.039-.056,0-.005c.029-.041.058-.078.087-.113l.052-.061c.029-.033.061-.066.1-.1l0,0,.055-.052c.039-.035.079-.067.109-.091l.016-.013.048-.037c.044-.032.088-.06.129-.085l.016-.01.044-.027a2.1,2.1,0,0,1,.2-.1l40.49-17.62a2.129,2.129,0,0,1,.215-.079l.05-.014.02-.005c.044-.012.1-.026.149-.036l.062-.01.02,0c.043-.007.09-.014.139-.018l.074,0h.01c.05,0,.095,0,.137,0l.084,0c.044,0,.088.007.137.013h0l.075.01c.043.007.088.016.141.029l.017,0,.052.013c.048.013.1.029.157.05l.012,0,.035.012a2.079,2.079,0,0,1,.27.127l.011.006c.027.015.055.03.084.048l.044.03.016.011c.031.021.066.045.1.071l.048.039.008.007c.035.029.066.055.094.081l.052.05c.029.029.058.059.086.09l.049.055c.025.029.049.061.078.1l.01.013.033.046c.027.039.051.078.073.116l.01.016.024.04c.035.064.065.123.09.182l22.577,51.882c.024.055.046.113.069.182l.013.041,0,.014c.013.045.025.09.036.135l0,.01c0,.016.007.032.01.048.01.052.019.1.025.157v.006c0,.008,0,.016,0,.024.006.059.01.119.011.182,0,.016,0,.032,0,.049v.016c0,.042,0,.08,0,.115s0,.054-.007.081-.008.064-.013.1a2.12,2.12,0,0,1-.072.311l-.012.035,0,.014c-.02.058-.042.115-.066.17l-.025.056h0c-.026.054-.054.108-.087.164l-.006.011-.018.031a2.072,2.072,0,0,1-.135.194l-.015.017c-.042.053-.089.105-.139.156l-.039.038-.013.013c-.041.039-.082.075-.123.108l-.065.051c-.042.031-.087.062-.138.094l-.016.011-.047.029a2.124,2.124,0,0,1-.218.111l-40.49,17.619c-.054.023-.113.046-.18.068l-.005,0-.033.011c-.059.018-.119.034-.177.047l-.023,0-.009,0c-.056.011-.111.02-.164.026h-.007l-.022,0c-.055.006-.113.009-.176.01Zm17.912-73.287-.084,0h-.011l-.057,0c-.037,0-.075.009-.111.014l-.023,0-.042.007c-.04.008-.082.019-.119.029l-.03.008-.026.007a1.677,1.677,0,0,0-.173.064l-40.49,17.62a1.7,1.7,0,0,0-.164.083l-.023.015-.025.016c-.035.021-.071.044-.1.068l-.032.025-.019.015c-.027.021-.058.046-.087.072l-.043.041,0,0c-.029.028-.055.055-.078.08l-.042.048c-.023.028-.046.058-.07.09l0,.005-.03.043c-.02.03-.04.063-.064.1l-.011.02-.015.025c-.019.036-.039.077-.059.125l-.01.022,0,.009a1.663,1.663,0,0,0-.071.223l0,.01c-.007.029-.014.056-.019.081s0,.023-.005.035l0,.025c0,.029-.01.063-.013.094,0,.015,0,.03,0,.046v.015c0,.036,0,.067,0,.1s0,.04,0,.061,0,.064.006.1,0,.041.006.061.008.059.016.1l0,.018c0,.013,0,.027.008.04.008.035.018.071.028.1l.007.026c0,.008,0,.016.007.024.018.056.037.106.057.153l22.577,51.882c.019.043.042.089.07.14l.015.026.008.013c.019.032.039.064.06.094l0,0,.024.035c.025.034.051.068.078.1l.013.016,0,0c.029.034.062.068.1.1l.024.022.014.013c.025.023.048.043.07.06l.051.04.065.046.019.013.039.026c.03.019.064.038.1.059l.05.025c.035.017.068.032.1.045l.045.017c.035.013.068.024.1.034l.01,0,.033.01c.041.011.083.021.126.03l.027,0,.012,0c.04.007.08.012.118.016l.017,0h.008c.04,0,.085.005.137.005h.036c.051,0,.1,0,.141-.008l.023,0c.042-.005.086-.012.13-.021l.026-.005c.046-.01.093-.022.141-.037l.025-.008.006,0c.056-.019.1-.036.145-.054l40.49-17.62a1.693,1.693,0,0,0,.174-.089l.03-.019.021-.013c.042-.026.078-.051.111-.075l.051-.04c.033-.027.065-.055.1-.087l.016-.015.025-.024a1.659,1.659,0,0,0,.113-.127l.012-.014a1.654,1.654,0,0,0,.106-.152l.008-.013.012-.021c.027-.045.05-.088.07-.131h0c.007-.015.014-.03.02-.045.019-.044.037-.089.053-.136l.006-.017.008-.022a1.708,1.708,0,0,0,.057-.249c0-.026.008-.051.01-.077s0-.043.006-.064,0-.058,0-.092v-.02c0-.011,0-.021,0-.032,0-.052,0-.1-.008-.145v0c0-.007,0-.013,0-.02-.005-.042-.012-.084-.02-.125,0-.012-.005-.024-.008-.036l0-.011c-.008-.036-.018-.072-.029-.107l0-.016-.009-.029c-.019-.056-.036-.1-.055-.146L583.45,736.377c-.02-.047-.044-.095-.073-.146l-.013-.021-.014-.023c-.021-.036-.039-.065-.058-.092l-.023-.032-.011-.015c-.023-.032-.043-.057-.062-.079l-.039-.045c-.022-.025-.045-.049-.068-.072l-.042-.04c-.021-.02-.045-.04-.075-.064l-.009-.007-.036-.029c-.025-.019-.053-.038-.08-.056l-.021-.014-.028-.019c-.02-.013-.042-.024-.063-.036l-.013-.007a1.692,1.692,0,0,0-.216-.1l-.014,0-.024-.008c-.049-.017-.088-.03-.126-.04l-.034-.008-.022,0c-.044-.01-.08-.018-.113-.023l-.059-.008h0c-.039,0-.074-.008-.109-.01l-.067,0Z" transform="translate(-539.313 -734.945)" fill="#6c6c6c"/>
        <path id="Path_12275-2" data-name="Path 12275" d="M688.331,898.494l.031-.047q.044-.069.082-.141l.022-.042a1.9,1.9,0,0,0,.107-.266c.009-.028.018-.056.025-.084s.012-.047.017-.07.014-.068.02-.1c0-.019.007-.039.01-.058.008-.054.013-.108.016-.163,0-.009,0-.018,0-.027q0-.071,0-.143c0-.018,0-.035,0-.053q0-.062-.013-.125c0-.017,0-.034-.007-.051-.009-.057-.02-.115-.035-.172l-.082-.315h0l-13.91-53.786h0l-.175-.677c-.016-.06-.034-.118-.055-.175-.007-.018-.015-.036-.022-.053-.015-.038-.031-.076-.048-.113-.01-.02-.02-.039-.03-.058s-.036-.067-.055-.1-.023-.038-.035-.056-.041-.062-.063-.092l-.039-.052c-.023-.029-.047-.058-.072-.085l-.043-.047c-.026-.027-.052-.052-.079-.077s-.031-.03-.048-.044-.051-.042-.077-.062a1.9,1.9,0,0,0-.222-.151l-.04-.021c-.043-.024-.087-.046-.132-.066l-.059-.024c-.04-.016-.08-.032-.122-.045l-.069-.021q-.059-.017-.12-.03l-.074-.015c-.04-.007-.081-.013-.122-.017l-.076-.007c-.042,0-.084,0-.126,0h-.074c-.046,0-.092.006-.138.012l-.064.007a1.937,1.937,0,0,0-.2.04l-42.751,11.056a1.94,1.94,0,0,0-.2.063c-.02.008-.039.017-.059.025-.043.018-.086.036-.127.057l-.064.035c-.037.021-.074.042-.11.065l-.061.042c-.034.024-.068.049-.1.076l-.055.047c-.032.028-.063.058-.094.088l-.047.048c-.031.033-.06.068-.089.1l-.036.046c-.031.042-.06.085-.088.129l-.021.032a1.914,1.914,0,0,0-.119.235c-.014.032-.028.064-.04.1s-.014.043-.021.065-.022.067-.031.1-.01.044-.016.067-.015.07-.021.1-.007.045-.01.068-.008.072-.011.108,0,.046,0,.069,0,.074,0,.112c0,.022,0,.044,0,.067,0,.041.007.081.012.122,0,.019,0,.038.007.058.01.06.021.12.037.18l.175.678h0l13.91,53.784h0l.082.317c.015.057.033.113.052.167l.019.048q.023.059.049.115l.023.048c.022.043.045.084.069.125l.014.024c.029.046.06.091.093.134.012.016.024.031.037.046s.044.054.067.08l.049.053c.021.021.042.042.064.062s.038.037.058.054.068.056.1.083l.052.037c.034.024.068.046.1.067l.051.029q.05.029.1.054l.047.022q.066.03.134.055l.043.015q.063.021.127.038l.028.008c.05.012.1.022.152.03l.041.006c.052.007.1.013.157.016h.026q.074,0,.148,0h.031c.054,0,.109-.009.163-.017l.036-.006c.057-.009.113-.02.17-.035l42.751-11.056a1.9,1.9,0,0,0,.209-.068l.062-.027c.046-.02.092-.041.136-.064l.065-.036c.043-.025.084-.051.125-.079l.054-.037a1.9,1.9,0,0,0,.148-.121l.013-.011a1.875,1.875,0,0,0,.147-.153l.027-.034C688.266,898.585,688.3,898.54,688.331,898.494Z" transform="translate(-624.915 -837.119)" fill="#6c6c6c" opacity="0.2"/>
        <g id="Group_32971" data-name="Group 32971" transform="translate(3.285 2.042)">
          <path id="Path_12286" data-name="Path 12286" d="M681.409,795.827l14.167,54.779a1.9,1.9,0,0,1-1.359,2.308l-42.751,11.056a1.9,1.9,0,0,1-2.308-1.359l-14.167-54.779a1.894,1.894,0,0,1,1.359-2.308L679.1,794.467a1.895,1.895,0,0,1,2.308,1.359Z" transform="translate(-634.93 -794.407)" fill="#ffcc80"/>
          <path id="Path_12287" data-name="Path 12287" d="M681.41,795.825l.175.677-2.112,6.573L659.9,808.4l-19.7,4.835-5.032-4.725-.175-.678a1.893,1.893,0,0,1,1.359-2.308L679.1,794.465A1.893,1.893,0,0,1,681.41,795.825Z" transform="translate(-634.931 -794.404)" fill="#3c3c3c" opacity="0.3"/>
          <path id="Path_12288" data-name="Path 12288" d="M1093.137,2327.134l.082.315a1.894,1.894,0,0,1-1.359,2.308l-42.751,11.056a1.894,1.894,0,0,1-2.308-1.359l-.082-.317,1.466-4.3a1.182,1.182,0,0,1,.809-.747l39.706-10.269a1.191,1.191,0,0,1,1.071.261Z" transform="translate(-1032.573 -2271.25)" fill="#3c3c3c" opacity="0.3"/>
          <path id="Path_12289" data-name="Path 12289" d="M1112.137,2328.67a1.89,1.89,0,0,1-1.3,1.184l-42.751,11.056a1.889,1.889,0,0,1-1.715-.4l.892-5.542a.959.959,0,0,1,.707-.776l39.706-10.269a.963.963,0,0,1,1,.336Z" transform="translate(-1051.547 -2271.347)" fill="#ffb74d"/>
          <path id="Path_12290" data-name="Path 12290" d="M685.736,794.766l-1.182,8.195a.579.579,0,0,1-.429.479l-38.349,9.918a.58.58,0,0,1-.608-.211l-5.006-6.593a1.89,1.89,0,0,1,1.241-1.03l42.751-11.056A1.889,1.889,0,0,1,685.736,794.766Z" transform="translate(-639.982 -794.407)" fill="#ffb74d"/>
          <path id="Path_12291" data-name="Path 12291" d="M1273.193,1051.81a1.8,1.8,0,0,1-1.74-1.347l-3.772-14.588a1.8,1.8,0,0,1,1.289-2.189l.873-.226a1.8,1.8,0,0,1,2.189,1.289l3.773,14.587a1.8,1.8,0,0,1-1.289,2.189h0l-.873.226A1.79,1.79,0,0,1,1273.193,1051.81Zm-2.9-17.893a1.283,1.283,0,0,0-.321.041l-.873.226a1.288,1.288,0,0,0-.921,1.563l3.773,14.588a1.285,1.285,0,0,0,1.563.921l.873-.226a1.288,1.288,0,0,0,.921-1.563l-3.772-14.587A1.286,1.286,0,0,0,1270.292,1033.917Z" transform="translate(-1245.889 -1025.194)" fill="#6c6c6c"/>
          <circle id="Ellipse_3223-2" data-name="Ellipse 3223" cx="2.508" cy="2.508" r="2.508" transform="translate(20.512 10.478) rotate(-45)" fill="#fff"/>
          <circle id="Ellipse_3224-2" data-name="Ellipse 3224" cx="2.508" cy="2.508" r="2.508" transform="translate(25.235 22.213)" fill="#fff"/>
        </g>
      </g>
      <g id="Whitepaper" transform="translate(36.308 17.485)">
        <path id="Path_12276" data-name="Path 12276" d="M1675.226,1177.444l-35.12-3.66a2.5,2.5,0,0,0-2.75,2.231l-5.739,55.063a2.5,2.5,0,0,0,2.231,2.75l42.706,4.451a2.5,2.5,0,0,0,2.75-2.231l4.948-47.477Z" transform="translate(-1630.23 -1172.712)" fill="#6c6c6c" opacity="0.2"/>
        <g id="Group_32973" data-name="Group 32973">
          <path id="Path_12296" data-name="Path 12296" d="M1635.238,1146.638l-35.12-3.66a2.5,2.5,0,0,0-2.75,2.231l-5.739,55.063a2.5,2.5,0,0,0,2.231,2.75l42.706,4.451a2.5,2.5,0,0,0,2.75-2.231l4.948-47.477Z" transform="translate(-1591.615 -1142.964)" fill="#fff"/>
          <path id="Path_12297" data-name="Path 12297" d="M2838.077,1257.5a2.5,2.5,0,0,0,2.231,2.75l7.586.791-9.026-11.127Z" transform="translate(-2795.245 -1246.244)" fill="#eee"/>
          <path id="Path_12298" data-name="Path 12298" d="M2891.991,1548.7l7.845,2.14.133-1.277Z" transform="translate(-2847.321 -1534.757)" fill="#3c3c3c" opacity="0.3"/>
          <path id="Path_12299" data-name="Path 12299" d="M2106.067,1472.17l-21.477-2.238a1.062,1.062,0,0,1-.943-1.163h0a1.062,1.062,0,0,1,1.163-.943l21.477,2.238a1.062,1.062,0,0,1,.943,1.163h0A1.061,1.061,0,0,1,2106.067,1472.17Z" transform="translate(-2066.739 -1456.661)" fill="#b2dfd1"/>
          <path id="Path_12300" data-name="Path 12300" d="M1894.234,1660.385l-35.5-3.7a1.062,1.062,0,0,1-.943-1.163h0a1.062,1.062,0,0,1,1.162-.943l35.5,3.7a1.062,1.062,0,0,1,.943,1.163h0A1.062,1.062,0,0,1,1894.234,1660.385Z" transform="translate(-1848.637 -1636.998)" fill="#eee"/>
          <path id="Path_12301" data-name="Path 12301" d="M1877.972,1816.408l-35.5-3.7a1.061,1.061,0,0,1-.943-1.162h0a1.061,1.061,0,0,1,1.162-.943l35.5,3.7a1.062,1.062,0,0,1,.943,1.163h0A1.062,1.062,0,0,1,1877.972,1816.408Z" transform="translate(-1832.934 -1787.662)" fill="#eee"/>
          <path id="Path_12302" data-name="Path 12302" d="M1861.71,1972.433l-35.5-3.7a1.062,1.062,0,0,1-.943-1.163h0a1.061,1.061,0,0,1,1.163-.943l35.5,3.7a1.062,1.062,0,0,1,.943,1.163h0A1.062,1.062,0,0,1,1861.71,1972.433Z" transform="translate(-1817.23 -1938.327)" fill="#eee"/>
          <path id="Path_12303" data-name="Path 12303" d="M1845.448,2128.458l-35.5-3.7a1.062,1.062,0,0,1-.943-1.163h0a1.062,1.062,0,0,1,1.163-.943l35.5,3.7a1.062,1.062,0,0,1,.943,1.163h0A1.062,1.062,0,0,1,1845.448,2128.458Z" transform="translate(-1801.527 -2088.991)" fill="#eee"/>
          <path id="Path_12304" data-name="Path 12304" d="M1829.185,2284.482l-35.5-3.7a1.062,1.062,0,0,1-.943-1.163h0a1.062,1.062,0,0,1,1.163-.943l35.5,3.7a1.062,1.062,0,0,1,.943,1.163h0A1.062,1.062,0,0,1,1829.185,2284.482Z" transform="translate(-1785.822 -2239.656)" fill="#eee"/>
          <path id="Path_12305" data-name="Path 12305" d="M1812.923,2440.507l-35.5-3.7a1.062,1.062,0,0,1-.943-1.163h0a1.062,1.062,0,0,1,1.163-.943l35.5,3.7a1.062,1.062,0,0,1,.943,1.163h0A1.062,1.062,0,0,1,1812.923,2440.507Z" transform="translate(-1770.119 -2390.321)" fill="#eee"/>
          <path id="Path_12306" data-name="Path 12306" d="M2282.356,2672.253a.2.2,0,0,0-.332-.16,3.364,3.364,0,0,1-.6.417l-.317.126q-.315.166-.352-.263a.2.2,0,0,0-.266-.3,1.345,1.345,0,0,1-.916.428,1.124,1.124,0,0,1-.32-.108,1.35,1.35,0,0,0,.2-.187.2.2,0,0,0,.011-.2,2.527,2.527,0,0,0-.219-.414,7.592,7.592,0,0,0,1.86-2.925.2.2,0,0,0-.322-.212,6.243,6.243,0,0,0-1.813,2.018,1.47,1.47,0,0,0-.226.92.949.949,0,0,0,.027.1,6.346,6.346,0,0,1-.616.513,3.308,3.308,0,0,1-.944.49c-.246.077-.614.2-.783-.043.557-.312,1.008-.755.768-1.307-.361-.83-1.223.422-1.268,1.121a4.571,4.571,0,0,1-.848.288c-.249.061-.166.451.084.39a5.665,5.665,0,0,0,.856-.292c.473.833,1.968-.019,2.472-.4.15-.113.3-.237.445-.368.115.2.122.171-.163.364a.2.2,0,0,0,.027.367,2.042,2.042,0,0,0,.976.288,1.1,1.1,0,0,0,.311-.09.2.2,0,0,0,.08.135,1.648,1.648,0,0,0,1.77-.293,2.663,2.663,0,0,1-.912,1.625,3,3,0,0,1-2.605.3c-.249-.049-.379.329-.127.378a3.534,3.534,0,0,0,2.847-.26A2.981,2.981,0,0,0,2282.356,2672.253Zm-5.782-.726c.309-.239.1.215-.01.325a1.391,1.391,0,0,1-.232.184A1.094,1.094,0,0,1,2276.573,2671.528Zm2.6-.561a2.933,2.933,0,0,1,.535-.908,5.855,5.855,0,0,1,.712-.785,7.647,7.647,0,0,1-1.271,1.835A1.173,1.173,0,0,1,2279.173,2670.966Z" transform="translate(-2251.45 -2616.01)" fill="#eee"/>
          <path id="Path_12307" data-name="Path 12307" d="M2614.064,2693.241a3.823,3.823,0,1,1,4.375-3.177A3.828,3.828,0,0,1,2614.064,2693.241Zm1.069-6.736a3,3,0,1,0,2.49,3.429A3,3,0,0,0,2615.133,2686.505Z" transform="translate(-2575.827 -2632.647)" fill="#eee"/>
          <path id="Path_12308" data-name="Path 12308" d="M2677.408,2718.536l-.038.006a9.073,9.073,0,0,0-1.279.307l-.607.2-.583.231a16.815,16.815,0,0,0-2.21,1.093,18.127,18.127,0,0,0-2.039,1.329c-.367.268-.721.553-1.068.848-.2-.181-.4-.358-.613-.529-.283-.248-.6-.469-.916-.7a9.339,9.339,0,0,0-1.026-.617l-.034-.017a.078.078,0,0,0-.1.113c.829,1.213,1.684,2.408,2.54,3.6a.144.144,0,0,0,.2.032c1.322-.937,2.637-1.884,3.935-2.854l1.956-1.443c.656-.476,1.293-.977,1.94-1.465a.078.078,0,0,0-.059-.139Z" transform="translate(-2630.569 -2666.133)" fill="#80cbba"/>
        </g>
      </g>
    </g>
  </g>
</svg>
