<svg xmlns="http://www.w3.org/2000/svg" width="602.414" height="103.245" viewBox="0 0 602.414 103.245">
  <g id="Group_53488" data-name="Group 53488" transform="translate(-361.001 -504.755)">
    <g id="Group_53686" data-name="Group 53686" transform="translate(361.001 512.836)">
      <g id="Group_53687" data-name="Group 53687" transform="translate(0 0)">
        <line id="Line_4867" data-name="Line 4867" x1="31.213" transform="translate(47.701 94.164)" fill="none" stroke="#dadada" stroke-miterlimit="10" stroke-width="2"/>
        <path id="Path_31486" data-name="Path 31486" d="M105.013,4.5l7.862,32.374a5.906,5.906,0,0,1-4.266,7.135l-87,21.927L12.83,83.012,9.415,68.961,4.2,47.487.17,30.868a5.906,5.906,0,0,1,4.264-7.14L97.99.165A5.822,5.822,0,0,1,105.013,4.5" transform="translate(0 0.395) rotate(-0.2)" fill="#e5e5e5"/>
        <path id="Path_31495" data-name="Path 31495" d="M104.3,4.395l7.808,31.592a5.757,5.757,0,0,1-4.237,6.963L21.46,64.348,12.742,81.007,9.351,67.3,4.173,46.341l-4-16.217A5.757,5.757,0,0,1,4.4,23.156l92.924-23A5.787,5.787,0,0,1,104.3,4.395" transform="translate(0.145 1.228)" fill="#f7f7f7"/>
        <path id="Path_31487" data-name="Path 31487" d="M73.9,72.13a3.048,3.048,0,0,0-.9.879,14.259,14.259,0,0,1-3.167,1.614,12.944,12.944,0,0,1-4.652.875c-.282.228-.556.457-.83.685A52.937,52.937,0,0,0,62.3,82.117c.445.042,1.252,3.811,1.69,3.875-.719-.065-1.812-3.845-2.546-3.871q.589-2.3,1.431-4.629a43.038,43.038,0,0,0-4.229,4.5,47.457,47.457,0,0,0-1.283,5.162,50.8,50.8,0,0,1,.7-5.3,45.107,45.107,0,0,1,5.4-6.623,3.428,3.428,0,0,1-.944-.464,4.3,4.3,0,0,1-.152.788,5.612,5.612,0,0,1-1.012,1.9,10.964,10.964,0,0,1-1.816,1.774,23.49,23.49,0,0,1-2.006,1.412c-.613-.016-8.538,5.028-8.785,5.584-.122.077-.122.077-.149-.023-.331-.738-2.608-9.28,4.876-14a14.02,14.02,0,0,1,1.877-.993,7.612,7.612,0,0,1,2.938-.579,5.121,5.121,0,0,1,2.1.453,3.8,3.8,0,0,1,1.3.967c.457-1.637,2.25-3.586,4.994-4.728a9.866,9.866,0,0,1,6.308-.59c.11.031.221.062.331.1.015,0,.042.027.038,0s-.046-.061-.046-.061a5.031,5.031,0,0,1-.727-.917,3.653,3.653,0,0,1-.559-1.755,3.142,3.142,0,0,1,.525-1.88A4.5,4.5,0,0,1,74.9,60.457l.24-.08a11.579,11.579,0,0,0,4.309-5.771c.267-.674.5-1.359.735-2.044a10.859,10.859,0,0,0,.616-2.12,2.56,2.56,0,0,0-.811-2.082,9.7,9.7,0,0,0-2.162-1.622,11.641,11.641,0,0,0-1.389-.677,2.7,2.7,0,0,0-1.39-.259.842.842,0,0,0-.141.03,1.4,1.4,0,0,1,.464.48.947.947,0,0,1,.133.472c0,.2-.22.294-.46.32a1.266,1.266,0,0,1-1.07-.434.625.625,0,0,1,.1-.853,2.376,2.376,0,0,1,2.851.026A24.527,24.527,0,0,1,79.773,47.6,3.71,3.71,0,0,1,81.3,50.053a7.083,7.083,0,0,1-.628,2.554,22.846,22.846,0,0,1-2.124,4.845A10.753,10.753,0,0,1,76.26,60.09a5.973,5.973,0,0,1,.708,0h.552a7.939,7.939,0,0,1,1.04.148c1.655-1.735,3.306-3.531,4.906-5.4a25.582,25.582,0,0,0,2.436-3.11,4.586,4.586,0,0,0,.761-3.506,2.067,2.067,0,0,0-1.306-1.568,1.147,1.147,0,0,0-.35-.038c.187.495-.251.994-.932.91a.3.3,0,0,1-.213-.126c-.286-.506.065-.955.624-1.119a.26.26,0,0,1,.137-.03,2.079,2.079,0,0,1,1.838.658,3.051,3.051,0,0,1,.788,1.873,4.426,4.426,0,0,1-.3,1.975,11.967,11.967,0,0,1-2.285,3.426q-1.449,1.728-2.973,3.38-1.315,1.431-2.641,2.809a7.261,7.261,0,0,1,1.747.761A7.689,7.689,0,0,1,84.6,68.841c-.225,1.538-5.367,1.253-7.495-.091a14.429,14.429,0,0,0-2.025-.761,2.339,2.339,0,0,1,.453.845,2.246,2.246,0,0,1,.057.944,3.647,3.647,0,0,0-1.7,2.352" transform="translate(0.145 0.799)" fill="#b7b7b7"/>
        <path id="Path_31488" data-name="Path 31488" d="M62.4,81.705c.431.194,8.607,12.04,8.607,12.04l-2.74-.639s-6.593-10.56-6.779-10.94c.305-.156.609-.313.912-.461" transform="translate(0.145 0.799)" fill="#919191"/>
        <path id="Path_31489" data-name="Path 31489" d="M58.115,81.888c-.335,1.8-1.366,11.191-1.366,11.191h2.592s-.7-9.722-.647-11.039Z" transform="translate(0.145 0.799)" fill="#919191"/>
        <path id="Path_31490" data-name="Path 31490" d="M78.592,57.485a22.877,22.877,0,0,0,2.124-4.846,6.83,6.83,0,0,0,.628-2.554,3.671,3.671,0,0,0-1.523-2.451,25.039,25.039,0,0,0-2.851-1.759,2.375,2.375,0,0,0-2.851-.026.625.625,0,0,0-.1.853,1.267,1.267,0,0,0,1.07.434c.24-.026.461-.119.461-.319a.927.927,0,0,0-.133-.472,1.393,1.393,0,0,0-.465-.479.957.957,0,0,1,.141-.031,2.706,2.706,0,0,1,1.389.259,11.782,11.782,0,0,1,1.393.678,9.764,9.764,0,0,1,2.158,1.622,2.558,2.558,0,0,1,.811,2.082,10.793,10.793,0,0,1-.617,2.12c-.234.689-.468,1.37-.734,2.044a13.423,13.423,0,0,1-2.787,4.533,3.345,3.345,0,0,1,.464.126,11.453,11.453,0,0,0,1.42-1.812Z" transform="translate(0.145 0.983)" fill="#b7b7b7"/>
        <path id="Path_31491" data-name="Path 31491" d="M48.089,82.727a13.612,13.612,0,0,0,.575,3.567c.03.1.026.1.148.023.247-.556,8.172-5.6,8.785-5.584A23.494,23.494,0,0,0,59.6,79.321a11,11,0,0,0,1.816-1.774c.084-.106.164-.217.24-.327a1.5,1.5,0,0,1,.133-.5,2.574,2.574,0,0,1,.544-.8c.03-.088.065-.176.1-.267a4.3,4.3,0,0,0,.152-.788c.27.194.674.727,2.893.727a14.928,14.928,0,0,0,4.423-.875,11.2,11.2,0,0,0,4.225-2.448,6.664,6.664,0,0,0,.693-.761h.049l.156-.228h-.038a2.83,2.83,0,0,0,.567-2.41,2.37,2.37,0,0,0-.453-.845,10.933,10.933,0,0,1,2.025.761c2.128,1.343,7.271,1.613,7.495.091a9.1,9.1,0,0,0-.045-2.2c-.571.53-4.629,3.316-10.746-3.844a2.4,2.4,0,0,1-.563-1.325,3.977,3.977,0,0,0-.651.761,3.168,3.168,0,0,0-.526,1.88,3.643,3.643,0,0,0,.56,1.755,4.986,4.986,0,0,0,.727.918c.015.019.057.061.046.061h-.038c-.1-.034-.2-.061-.3-.088a2.784,2.784,0,0,1,.114.381,1.7,1.7,0,0,1,0,1.268,4.658,4.658,0,0,1-.2.761c-.993,2.623-4.019,3.3-6.528,3.384-1.6,0-4.119.114-5.687-.761-1.089,3.7-2.92,6.84-6.346,8.526a25.221,25.221,0,0,1-6.346,2.373" transform="translate(0.145 0.799)" fill="#919191"/>
        <path id="Path_31492" data-name="Path 31492" d="M84.692,54.239a13.252,13.252,0,0,0,2.284-3.426,4.412,4.412,0,0,0,.3-1.975,3.04,3.04,0,0,0-.788-1.873,2.078,2.078,0,0,0-1.839-.659.262.262,0,0,0-.137.03c-.559.164-.909.613-.624,1.119a.309.309,0,0,0,.214.126c.681.084,1.122-.41.932-.91a1.147,1.147,0,0,1,.35.038,2.067,2.067,0,0,1,1.306,1.568,4.583,4.583,0,0,1-.761,3.506,25.483,25.483,0,0,1-2.436,3.11c-1.6,1.871-3.246,3.668-4.906,5.4a1.038,1.038,0,0,0-.126-.023l.152.224a3,3,0,0,1,.628-.274c.822-.857,1.648-1.728,2.463-2.619q1.51-1.644,2.988-3.362" transform="translate(0.145 0.978)" fill="#b7b7b7"/>
        <path id="Path_31493" data-name="Path 31493" d="M58.412,54.122l1.945,8.77,9.6,6.315-.019-.552-8.511-6.9.3-7.742Z" transform="translate(0.145 0.933)" fill="#919191"/>
        <path id="Path_31494" data-name="Path 31494" d="M71.134,52.278l-1.416,5.767.225,10.613,1.069.411V58.045l2.128-6.311Z" transform="translate(0.145 0.938)" fill="#919191"/>
        <rect id="Rectangle_36848" data-name="Rectangle 36848" width="112.281" height="93.936" transform="translate(0.145 1.228)" fill="none"/>
      </g>
      <text id="Be_first_one_to_add_review" data-name="Be first one to
add review" transform="translate(12.866 41.576) rotate(-14)" fill="#919191" font-size="12" font-family="Montserrat-SemiBold, Montserrat" font-weight="600"><tspan x="0" y="0">Be first one to</tspan><tspan x="0" y="15">add review</tspan></text>
    </g>
    <path id="Path_31279" data-name="Path 31279" d="M-11259.719,6775.419c2.242,24.166.928,31.517-13.963,43.544s-50.117,27.05-76.075,10.936-7.139-48.422,16.373-47.393,35.646,37.853,22.546,57.445-63.729,28.737-100.139,22.587-51.021-22.518-62.012-41.307-33.877-29.069-55.635-21.607-55.238,46.072-117.062,51.572-103.843-32.233-103.843-32.233" transform="translate(12216.244 -6268.099)" fill="none" stroke="#6d82c7" stroke-linecap="round" stroke-linejoin="round" stroke-width="2" stroke-dasharray="4 5"/>
    <path id="Path_31280" data-name="Path 31280" d="M0,0,3.921,6.148,9.435.991" transform="translate(961.796 512.036) rotate(169)" fill="none" stroke="#6d82c7" stroke-linecap="round" stroke-linejoin="round" stroke-width="2"/>
  </g>
</svg>
