<svg xmlns="http://www.w3.org/2000/svg" width="18" height="18" viewBox="0 0 18 18"><g transform="translate(-6 -6)"><rect width="18" height="18" transform="translate(6 6)" fill="#aaa" opacity="0"/><g transform="translate(7.71 6.9)"><g transform="translate(0)"><path d="M596.581,937.549a.653.653,0,0,1-.66-.656v-3.945h-8.232a.857.857,0,0,0-.858.852v13.63a.857.857,0,0,0,.858.852h5.591a4.936,4.936,0,0,1-1.192-2.343H588.8a.252.252,0,0,1-.258-.256v-1.618a.263.263,0,0,1,.258-.255H592.1a4.933,4.933,0,0,1,.712-1.7h-4a.252.252,0,0,1-.258-.255v-1.619a.263.263,0,0,1,.258-.255h6.921a5.143,5.143,0,0,1,4.828,1.107v-3.535Zm-2.032.468a.256.256,0,0,1-.257.255H588.8a.252.252,0,0,1-.258-.255V936.4a.263.263,0,0,1,.258-.256h5.489a.263.263,0,0,1,.257.256Z" transform="translate(-586.831 -932.948)" fill="#aaa" stroke="rgba(0,0,0,0)" stroke-width="1"/><path d="M602.656,936.1l-2.953-2.935a.729.729,0,0,0-.515-.21h-.18v3.355a.482.482,0,0,0,.482.479h3.377V936.6A.709.709,0,0,0,602.656,936.1Z" transform="translate(-589.145 -932.949)" fill="#aaa" stroke="rgba(0,0,0,0)" stroke-width="1"/></g><path d="M598.531,942.431a4.259,4.259,0,1,0,4.288,4.26A4.273,4.273,0,0,0,598.531,942.431Zm1.407,6.312-1.945-1.4a.2.2,0,0,1-.086-.166v-3.743a.207.207,0,0,1,.207-.206h.829a.206.206,0,0,1,.207.206v3.217l1.518,1.093a.205.205,0,0,1,.043.288l-.484.667a.209.209,0,0,1-.29.042Z" transform="translate(-588.239 -934.75)" fill="#aaa" stroke="rgba(0,0,0,0)" stroke-width="1"/></g></g></svg>