<svg width="468" height="120" viewBox="0 0 468 120" fill="none" xmlns="http://www.w3.org/2000/svg">
<path d="M0 3C0 1.34314 1.34315 0 3 0H465C466.657 0 468 1.34315 468 3V120H0V3Z" fill="white"/>
<path d="M96.9171 109H65.7041" stroke="#AAAAAA" stroke-width="2" stroke-miterlimit="10"/>
<path d="M123.031 19.3644L131.006 51.7108C131.384 53.221 131.151 54.8193 130.357 56.1583C129.562 57.4972 128.272 58.4684 126.765 58.8606L39.8422 81.0912L31.1228 98.1977L27.6588 84.1587L22.3689 62.7031L18.2809 46.0982C17.9012 44.5877 18.1337 42.9883 18.9276 41.6482C19.7215 40.3082 21.0127 39.336 22.5199 38.9434L115.993 15.054C116.738 14.873 117.512 14.841 118.27 14.9599C119.027 15.0787 119.754 15.3461 120.408 15.7467C121.062 16.1472 121.63 16.673 122.08 17.2938C122.531 17.9147 122.854 18.6184 123.031 19.3644Z" fill="#6F9EE0"/>
<path d="M122.448 20.4591L130.256 52.0511C130.436 52.7865 130.469 53.5502 130.353 54.2984C130.238 55.0467 129.976 55.7647 129.582 56.4115C129.188 57.0583 128.671 57.6211 128.06 58.0677C127.448 58.5143 126.755 58.8359 126.019 59.0141L39.6081 80.4121L30.8901 97.0711L27.4991 83.3641L22.3211 62.4051L18.3211 46.1881C18.1403 45.453 18.1063 44.6895 18.221 43.9412C18.3357 43.1929 18.5968 42.4746 18.9894 41.8274C19.382 41.1802 19.8985 40.6167 20.5091 40.1693C21.1197 39.722 21.8126 39.3994 22.5481 39.2201L115.472 16.2201C116.959 15.8613 118.528 16.1057 119.835 16.9001C121.142 17.6944 122.082 18.974 122.448 20.4591Z" fill="white"/>
<path d="M92.0481 87.7655C91.6903 87.9927 91.3837 88.2921 91.1481 88.6445C90.1639 89.3125 89.1 89.8547 87.9811 90.2585C86.4974 90.8336 84.9204 91.1302 83.3291 91.1335C83.0471 91.3615 82.7731 91.5905 82.4991 91.8185C81.6987 93.7542 81.0138 95.7356 80.4481 97.7525C80.8931 97.7945 81.7001 101.563 82.1381 101.627C81.4191 101.562 80.3261 97.7825 79.5921 97.7565C79.9848 96.2232 80.4618 94.6801 81.0231 93.1275C79.5075 94.5243 78.0942 96.0282 76.7941 97.6275C76.2703 99.3228 75.842 101.046 75.5111 102.789C75.6513 101.012 75.8849 99.2426 76.2111 97.4895C77.7975 95.1159 79.6056 92.8983 81.6111 90.8665C81.2745 90.7613 80.9561 90.6048 80.6671 90.4025C80.6411 90.6693 80.5903 90.9331 80.5151 91.1905C80.3036 91.8832 79.9599 92.5284 79.5031 93.0905C78.9685 93.7501 78.3591 94.3455 77.6871 94.8645C77.0435 95.3698 76.3739 95.8411 75.6811 96.2765C75.0681 96.2605 67.1431 101.304 66.8961 101.86C66.7741 101.937 66.7741 101.937 66.7471 101.837C66.4161 101.099 64.1391 92.5575 71.6231 87.8375C72.2228 87.4595 72.8503 87.1276 73.5001 86.8445C74.4315 86.4589 75.4301 86.262 76.4381 86.2655C77.1623 86.2663 77.878 86.4207 78.5381 86.7185C79.0359 86.9436 79.4794 87.2734 79.8381 87.6855C80.2951 86.0485 82.0881 84.0995 84.8321 82.9575C86.8128 82.0727 89.0298 81.8653 91.1401 82.3675C91.2501 82.3985 91.3611 82.4295 91.4711 82.4675C91.4861 82.4675 91.5131 82.4945 91.5091 82.4675C91.5051 82.4405 91.4631 82.4065 91.4631 82.4065C91.186 82.1301 90.942 81.8224 90.7361 81.4895C90.403 80.9618 90.2105 80.3576 90.1771 79.7345C90.1481 79.068 90.332 78.4095 90.7021 77.8545C91.2653 77.0216 92.0912 76.4012 93.0481 76.0925L93.2881 76.0125C95.3014 74.5958 96.8108 72.5743 97.5971 70.2415C97.8641 69.5675 98.0971 68.8825 98.3321 68.1975C98.609 67.5136 98.8154 66.8032 98.9481 66.0775C98.9791 65.6917 98.9222 65.3039 98.7818 64.9433C98.6413 64.5827 98.4209 64.2586 98.1371 63.9955C97.4957 63.3566 96.768 62.8106 95.9751 62.3735C95.5276 62.1173 95.0636 61.8911 94.5861 61.6965C94.154 61.4882 93.6742 61.3988 93.1961 61.4375C93.1484 61.4434 93.1012 61.4535 93.0551 61.4675C93.2462 61.5877 93.4054 61.7524 93.5191 61.9475C93.6041 62.0904 93.65 62.2532 93.6521 62.4195C93.6521 62.6195 93.4321 62.7135 93.1921 62.7395C92.9921 62.7572 92.7908 62.727 92.6048 62.6516C92.4187 62.5761 92.2533 62.4575 92.1221 62.3055C92.0267 62.1774 91.9838 62.0177 92.0024 61.8591C92.021 61.7005 92.0996 61.555 92.2221 61.4525C92.6362 61.1478 93.1379 60.9856 93.652 60.9903C94.166 60.995 94.6647 61.1663 95.0731 61.4785C96.0614 61.9986 97.0129 62.5857 97.9211 63.2355C98.3268 63.5214 98.671 63.8859 98.9333 64.3072C99.1955 64.7286 99.3706 65.1983 99.4481 65.6885C99.4001 66.5716 99.1871 67.4378 98.8201 68.2425C98.3021 69.9343 97.5893 71.5602 96.6961 73.0875C96.0823 74.0856 95.3094 74.9767 94.4081 75.7255C94.6439 75.7115 94.8803 75.7115 95.1161 75.7255H95.6681C96.0177 75.7518 96.3651 75.8012 96.7081 75.8735C98.3631 74.1385 100.014 72.3425 101.614 70.4735C102.505 69.5012 103.32 68.4614 104.05 67.3635C104.406 66.8602 104.657 66.2904 104.788 65.688C104.918 65.0856 104.926 64.463 104.811 63.8575C104.748 63.5055 104.594 63.1759 104.365 62.9011C104.136 62.6262 103.84 62.4155 103.505 62.2895C103.391 62.2589 103.273 62.2461 103.155 62.2515C103.342 62.7465 102.904 63.2455 102.223 63.1615C102.181 63.1568 102.14 63.1432 102.103 63.1215C102.066 63.0997 102.035 63.0704 102.01 63.0355C101.724 62.5295 102.075 62.0805 102.634 61.9165C102.676 61.8941 102.724 61.8837 102.771 61.8865C103.108 61.8373 103.452 61.8716 103.772 61.9863C104.093 62.1011 104.38 62.2927 104.609 62.5445C105.078 63.0604 105.356 63.7215 105.397 64.4175C105.449 65.0901 105.346 65.7656 105.097 66.3925C104.539 67.6579 103.766 68.8171 102.812 69.8185C101.846 70.9705 100.855 72.0971 99.8391 73.1985C98.9625 74.1525 98.0821 75.0888 97.1981 76.0075C97.8114 76.1833 98.3988 76.4392 98.9451 76.7685C100.275 77.5285 101.347 78.6682 102.024 80.0415C102.702 81.4147 102.954 82.959 102.748 84.4765C102.523 86.0145 97.3811 85.7295 95.2531 84.3855C94.5981 84.0815 93.9212 83.8271 93.2281 83.6245C93.4359 83.8718 93.5901 84.1596 93.6811 84.4695C93.7669 84.7765 93.7863 85.0983 93.7381 85.4135C93.3089 85.6683 92.9365 86.0085 92.6441 86.4131C92.3517 86.8177 92.1454 87.278 92.0381 87.7655" fill="#AAAAAA"/>
<path d="M80.5482 97.3398C80.9792 97.5338 89.1552 109.38 89.1552 109.38L86.4152 108.741C86.4152 108.741 79.8222 98.1808 79.6362 97.8008C79.9412 97.6448 80.2452 97.4878 80.5482 97.3398Z" fill="#424242"/>
<path d="M76.2632 97.5234C75.9282 99.3234 74.8972 108.714 74.8972 108.714H77.4892C77.4892 108.714 76.7892 98.9924 76.8422 97.6754L76.2632 97.5234Z" fill="#424242"/>
<path d="M96.7402 73.3046C97.6332 71.7768 98.346 70.1506 98.8642 68.4586C99.237 67.6559 99.4503 66.7885 99.4922 65.9046C99.4171 65.4143 99.2434 64.9444 98.9816 64.5231C98.7199 64.1019 98.3755 63.738 97.9692 63.4536C97.0592 62.8042 96.1067 62.2166 95.1182 61.6946C94.7098 61.3822 94.2111 61.2108 93.697 61.2062C93.1829 61.2015 92.6812 61.3637 92.2672 61.6686C92.1447 61.771 92.0661 61.9165 92.0475 62.0752C92.0289 62.2338 92.0717 62.3935 92.1672 62.5216C92.2984 62.6735 92.4638 62.7921 92.6499 62.8675C92.8359 62.943 93.0372 62.9732 93.2372 62.9556C93.4772 62.9296 93.6982 62.8366 93.6982 62.6366C93.697 62.4701 93.6511 62.3071 93.5652 62.1646C93.4513 61.9696 93.2917 61.8052 93.1002 61.6856C93.1463 61.6717 93.1935 61.6613 93.2412 61.6546C93.719 61.6164 94.1983 61.7057 94.6302 61.9136C95.1089 62.1087 95.5742 62.3352 96.0232 62.5916C96.8142 63.0297 97.5404 63.5756 98.1812 64.2136C98.4651 64.4766 98.6856 64.8007 98.826 65.1613C98.9665 65.522 99.0233 65.9098 98.9922 66.2956C98.8595 67.0215 98.6528 67.7318 98.3752 68.4156C98.1412 69.1046 97.9072 69.7856 97.6412 70.4596C97.024 72.1414 96.0764 73.6827 94.8542 74.9926C95.0117 75.0234 95.1667 75.0655 95.3182 75.1186C95.8512 74.5638 96.3269 73.9567 96.7382 73.3066L96.7402 73.3046Z" fill="#424242"/>
<path d="M66.2371 98.3626C66.2694 99.5718 66.4627 100.771 66.8121 101.93C66.8421 102.03 66.8381 102.03 66.9601 101.953C67.2071 101.397 75.1321 96.3526 75.7451 96.3686C76.4368 95.9331 77.1054 95.4617 77.7481 94.9566C78.4198 94.4373 79.0292 93.842 79.5641 93.1826C79.6481 93.0766 79.7281 92.9656 79.8041 92.8556C79.8191 92.6824 79.8641 92.5133 79.9371 92.3556C80.0662 92.0569 80.2508 91.7854 80.4811 91.5556C80.5111 91.4676 80.5461 91.3796 80.5811 91.2886C80.6562 91.0312 80.7071 90.7674 80.7331 90.5006C81.0031 90.6946 81.4071 91.2276 83.6261 91.2276C85.1362 91.1615 86.6275 90.8665 88.0491 90.3526C89.6203 89.8572 91.0629 89.0214 92.2741 87.9046C92.5243 87.6691 92.756 87.4147 92.9671 87.1436H93.0161L93.1721 86.9156H93.1341C93.405 86.5831 93.5969 86.1934 93.6951 85.7759C93.7933 85.3583 93.7954 84.924 93.7011 84.5056C93.6092 84.196 93.455 83.9084 93.2481 83.6606C93.9466 83.8467 94.6249 84.1016 95.2731 84.4216C97.4011 85.7646 102.544 86.0346 102.768 84.5126C102.842 83.7801 102.827 83.0414 102.723 82.3126C102.152 82.8426 98.0941 85.6286 91.9771 78.4686C91.6582 78.0949 91.4617 77.6324 91.4141 77.1436C91.1659 77.3688 90.9471 77.6245 90.7631 77.9046C90.3942 78.4602 90.2101 79.1181 90.2371 79.7846C90.2703 80.4079 90.4631 81.0122 90.7971 81.5396C91.0025 81.873 91.2465 82.1812 91.5241 82.4576C91.5391 82.4766 91.5811 82.5186 91.5701 82.5186H91.5321C91.4321 82.4846 91.3321 82.4576 91.2321 82.4306C91.2791 82.5547 91.3172 82.682 91.3461 82.8116C91.5096 83.2184 91.5096 83.6727 91.3461 84.0796C91.301 84.3384 91.2341 84.593 91.1461 84.8406C90.1531 87.4636 87.1271 88.1406 84.6181 88.2246C83.0181 88.2246 80.4991 88.3386 78.9311 87.4636C77.8421 91.1636 76.0111 94.3036 72.5851 95.9896C70.5861 97.0624 68.4515 97.8606 66.2391 98.3626" fill="#424242"/>
<path d="M102.84 70.0535C103.775 69.0375 104.546 67.8815 105.124 66.6275C105.374 66.0008 105.476 65.3251 105.424 64.6525C105.384 63.9563 105.106 63.295 104.636 62.7795C104.407 62.5273 104.12 62.3354 103.799 62.2204C103.478 62.1055 103.134 62.0712 102.797 62.1205C102.75 62.1179 102.702 62.1283 102.66 62.1505C102.101 62.3145 101.751 62.7635 102.036 63.2695C102.061 63.3042 102.093 63.3333 102.13 63.355C102.167 63.3766 102.208 63.3905 102.25 63.3955C102.931 63.4795 103.372 62.9855 103.182 62.4855C103.3 62.4801 103.418 62.4929 103.532 62.5235C103.867 62.6495 104.163 62.8603 104.392 63.1351C104.621 63.41 104.775 63.7395 104.838 64.0915C104.954 64.6971 104.946 65.3197 104.815 65.9221C104.684 66.5245 104.433 67.0943 104.077 67.5975C103.347 68.6957 102.532 69.7354 101.641 70.7075C100.041 72.5785 98.3951 74.3755 96.7351 76.1075C96.6936 76.0973 96.6516 76.0896 96.6091 76.0845L96.7611 76.3085C96.9593 76.1935 97.17 76.1016 97.3891 76.0345C98.2111 75.1775 99.0371 74.3065 99.8521 73.4155C100.859 72.3195 101.855 71.1988 102.84 70.0535Z" fill="#424242"/>
<path d="M76.5601 69.8912L78.5051 78.6612L88.1051 84.9762L88.0861 84.4242L79.5751 77.5242L79.8751 69.7822L76.5601 69.8912Z" fill="#424242"/>
<path d="M89.2822 68.0518L87.8662 73.8188L88.0912 84.4318L89.1602 84.8428V73.8188L91.2882 67.5078L89.2822 68.0518Z" fill="#424242"/>
<path d="M42.0204 54.6982L40.0271 47.2607L43.6609 46.287C44.5959 46.0364 45.3446 46.0256 45.907 46.2545C46.4766 46.4815 46.8391 46.8854 46.9948 47.4663C47.0992 47.8559 47.0947 48.2215 46.9813 48.5631C46.866 48.8977 46.6627 49.1875 46.3716 49.4326C46.0804 49.6776 45.7188 49.858 45.2867 49.9738L45.3718 49.4841C45.8394 49.3588 46.2746 49.3257 46.6776 49.3847C47.0788 49.4367 47.4184 49.5848 47.6964 49.8292C47.9816 50.0717 48.1821 50.4089 48.2979 50.841C48.4687 51.4785 48.3511 52.0453 47.945 52.5413C47.537 53.0302 46.8442 53.4056 45.8667 53.6676L42.0204 54.6982ZM43.3836 52.9436L45.3918 52.4055C45.838 52.2859 46.1555 52.1249 46.3442 51.9225C46.5381 51.7111 46.5923 51.4461 46.5069 51.1273C46.4234 50.8156 46.2448 50.6167 45.9712 50.5306C45.7028 50.4355 45.3454 50.4478 44.8992 50.5673L42.7635 51.1396L42.4275 49.8858L44.2656 49.3933C44.6836 49.2813 44.9833 49.1251 45.1649 48.9246C45.3518 48.7151 45.4053 48.4616 45.3256 48.1641C45.2477 47.8737 45.0765 47.688 44.8118 47.6071C44.5524 47.5172 44.2137 47.5282 43.7958 47.6402L42.0851 48.0985L43.3836 52.9436ZM52.8877 51.8774C52.2361 52.052 51.6281 52.0782 51.0639 51.9561C50.5068 51.8321 50.0349 51.5865 49.648 51.2195C49.2592 50.8453 48.9889 50.3749 48.837 49.8083C48.6833 49.2345 48.6786 48.693 48.8229 48.1836C48.9725 47.6652 49.2443 47.2204 49.6383 46.8491C50.0304 46.4707 50.5168 46.2037 51.0977 46.0481C51.6573 45.8981 52.1925 45.8838 52.7033 46.005C53.2193 46.1173 53.6681 46.3615 54.0498 46.7375C54.4296 47.1064 54.702 47.599 54.8672 48.2153C54.8843 48.279 54.9007 48.3543 54.9164 48.4412C54.9302 48.5211 54.943 48.5973 54.9549 48.6701L50.3117 49.9142L50.0526 48.9473L53.8245 47.9366L53.2639 48.3943C53.1842 48.0968 53.0547 47.8544 52.8754 47.6671C52.6961 47.4798 52.4841 47.3544 52.2393 47.2909C51.9927 47.2204 51.7276 47.223 51.4443 47.299C51.161 47.3749 50.9266 47.506 50.7412 47.6923C50.5609 47.8697 50.441 48.0879 50.3813 48.3468C50.3198 48.5986 50.3298 48.8769 50.4114 49.1814L50.4798 49.4364C50.5633 49.7481 50.7046 50.0063 50.9038 50.2111C51.1081 50.4069 51.3513 50.5353 51.6334 50.5964C51.9206 50.6485 52.2343 50.629 52.5743 50.5379C52.8789 50.4562 53.1322 50.339 53.3342 50.1862C53.5432 50.0315 53.7187 49.8364 53.8606 49.601L54.9988 50.321C54.8164 50.6887 54.5488 51.0072 54.1957 51.2764C53.8408 51.5385 53.4048 51.7388 52.8877 51.8774ZM59.942 49.8961L58.3758 44.0523C58.2031 43.4077 58.2567 42.843 58.5367 42.358C58.8148 41.8659 59.308 41.5249 60.0163 41.3351C60.2572 41.2706 60.494 41.2337 60.7269 41.2245C60.9669 41.2133 61.179 41.24 61.3633 41.3045L61.2495 42.6218C61.1403 42.5828 61.0243 42.5607 60.9015 42.5556C60.7786 42.5506 60.6535 42.5652 60.526 42.5993C60.2851 42.6639 60.1164 42.785 60.0198 42.9627C59.9284 43.1315 59.9197 43.354 59.9937 43.6302L60.1361 44.1615L60.3694 44.8619L61.5995 49.452L59.942 49.8961ZM57.904 45.8186L57.5623 44.5436L61.5255 43.4817L61.8672 44.7567L57.904 45.8186ZM63.9583 48.8199L62.4263 43.1037L64.0838 42.6595L65.6158 48.3758L63.9583 48.8199ZM63.0415 42.0847C62.7369 42.1663 62.4653 42.1442 62.2266 42.0184C61.9878 41.8925 61.8334 41.6986 61.7631 41.4365C61.6929 41.1744 61.7297 40.9292 61.8734 40.7009C62.0172 40.4725 62.2414 40.3176 62.546 40.236C62.8506 40.1543 63.1213 40.1729 63.3581 40.2917C63.593 40.4033 63.7456 40.5902 63.8159 40.8523C63.8899 41.1286 63.856 41.3844 63.7141 41.6198C63.5774 41.8462 63.3532 42.0012 63.0415 42.0847ZM67.1487 47.9651L65.6167 42.2488L67.1998 41.8246L67.6327 43.4396L67.2843 43.0319C67.346 42.5826 67.5371 42.2049 67.8575 41.8989C68.176 41.5858 68.6044 41.3571 69.1427 41.2129L69.5528 42.7429C69.48 42.7548 69.4153 42.7683 69.3587 42.7835C69.3001 42.7916 69.2389 42.8042 69.1752 42.8213C68.7219 42.9428 68.3886 43.1725 68.1755 43.5105C67.9676 43.8395 67.9368 44.2768 68.0829 44.8222L68.8062 47.5209L67.1487 47.9651ZM73.6705 46.3087C73.1818 46.4396 72.6955 46.5092 72.2118 46.5173C71.7333 46.5165 71.3392 46.4626 71.0297 46.3558L71.2633 45.0177C71.569 45.1104 71.9132 45.1624 72.2959 45.1738C72.6837 45.1761 73.0512 45.1308 73.3983 45.0378C73.7808 44.9353 74.0376 44.8172 74.1687 44.6833C74.307 44.5476 74.3543 44.3983 74.3106 44.2353C74.2745 44.1008 74.1842 44.0187 74.0396 43.9891C73.9002 43.9505 73.7231 43.941 73.5082 43.9607C73.2932 43.9803 73.0571 44.0056 72.7997 44.0366C72.5493 44.0657 72.2926 44.0852 72.0295 44.0949C71.7645 44.0976 71.5132 44.0663 71.2755 44.0009C71.0378 43.9355 70.8276 43.8172 70.6451 43.646C70.4696 43.4728 70.3382 43.2233 70.2509 42.8975C70.1541 42.5362 70.1714 42.19 70.3027 41.8587C70.4412 41.5255 70.6879 41.2278 71.0428 40.9657C71.3958 40.6965 71.8486 40.4879 72.4011 40.3398C72.7907 40.2354 73.1987 40.1716 73.6253 40.1485C74.0518 40.1253 74.4215 40.1591 74.7343 40.2499L74.4979 41.5773C74.178 41.4884 73.8688 41.4536 73.5702 41.4728C73.2769 41.4831 72.9992 41.5233 72.7371 41.5936C72.3688 41.6923 72.1129 41.814 71.9694 41.9587C71.826 42.1034 71.7752 42.2537 71.817 42.4095C71.8549 42.5512 71.9436 42.6413 72.083 42.6799C72.2295 42.7165 72.4111 42.7286 72.628 42.7161C72.8448 42.7035 73.0783 42.6827 73.3287 42.6536C73.5842 42.6155 73.8444 42.5951 74.1095 42.5924C74.3745 42.5897 74.6223 42.622 74.8529 42.6893C75.0887 42.7476 75.2978 42.8624 75.4804 43.0336C75.6611 43.1978 75.7951 43.4428 75.8824 43.7686C75.9773 44.1228 75.9555 44.4665 75.8171 44.7997C75.6767 45.1258 75.4255 45.4208 75.0635 45.6849C74.7086 45.947 74.2443 46.1549 73.6705 46.3087ZM79.7295 44.6851C79.0566 44.8655 78.4869 44.8359 78.0203 44.5965C77.5519 44.35 77.2265 43.8868 77.0443 43.2068L75.7002 38.1918L77.3577 37.7476L78.6961 42.7414C78.7607 42.9822 78.8747 43.1528 79.0383 43.2533C79.2 43.3466 79.3906 43.3638 79.6102 43.305C79.8723 43.2348 80.0764 43.1042 80.2226 42.9131L80.9821 43.9623C80.8444 44.1283 80.6636 44.2754 80.4399 44.4037C80.2213 44.523 79.9845 44.6168 79.7295 44.6851ZM75.5331 41.0949L75.1914 39.8199L79.1546 38.758L79.4963 40.033L75.5331 41.0949ZM87.7385 42.5391C87.1293 42.7024 86.5533 42.7201 86.0103 42.5922C85.4745 42.4625 85.0096 42.2151 84.6156 41.8499C84.2269 41.4758 83.9565 41.0054 83.8047 40.4387C83.6509 39.865 83.6498 39.3225 83.8012 38.8112C83.9579 38.2909 84.2367 37.8442 84.6378 37.471C85.0441 37.0888 85.5518 36.8161 86.1609 36.6529C86.763 36.4915 87.3356 36.4748 87.8785 36.6026C88.4195 36.7234 88.8835 36.9673 89.2703 37.3343C89.6572 37.7014 89.9285 38.1753 90.0842 38.7561C90.236 39.3228 90.2372 39.8653 90.0876 40.3837C89.9361 40.895 89.6573 41.3417 89.251 41.7239C88.8448 42.1061 88.3406 42.3778 87.7385 42.5391ZM87.374 41.1791C87.6503 41.1051 87.8811 40.9749 88.0665 40.7886C88.2519 40.6023 88.3771 40.3751 88.4419 40.1072C88.5049 39.8322 88.4927 39.5318 88.4054 39.206C88.3162 38.8731 88.1765 38.6068 87.9863 38.4072C87.7962 38.2076 87.5742 38.0735 87.3205 38.0048C87.0667 37.9362 86.8017 37.9389 86.5254 38.0129C86.2492 38.0869 86.0183 38.2171 85.8329 38.4034C85.6475 38.5898 85.5188 38.8178 85.4469 39.0877C85.382 39.3556 85.3942 39.656 85.4835 39.9889C85.5708 40.3147 85.7105 40.581 85.9025 40.7877C86.0997 40.9853 86.3252 41.1185 86.579 41.1872C86.8328 41.2558 87.0978 41.2532 87.374 41.1791ZM93.8777 34.5852C94.3311 34.4637 94.7595 34.4476 95.163 34.5369C95.5718 34.6171 95.9291 34.8175 96.2352 35.1379C96.5393 35.4511 96.7692 35.8982 96.9249 36.479L97.8019 39.7516L96.1444 40.1957L95.3357 37.1782C95.2123 36.7178 95.0185 36.4053 94.7542 36.2407C94.497 36.0743 94.1842 36.0404 93.8159 36.1391C93.5538 36.2094 93.3317 36.3296 93.1496 36.4999C92.9726 36.6612 92.8543 36.8713 92.7947 37.1302C92.7421 37.3872 92.7632 37.6928 92.8582 38.047L93.6156 40.8733L91.9581 41.3174L90.4261 35.6011L92.0092 35.1769L92.4335 36.7601L92.0079 36.3617C92.1108 35.9241 92.326 35.5514 92.6534 35.2435C92.9809 34.9356 93.389 34.7161 93.8777 34.5852ZM102.206 38.6627C101.554 38.8373 100.946 38.8635 100.382 38.7414C99.8247 38.6174 99.3527 38.3718 98.9659 38.0048C98.5771 37.6307 98.3068 37.1603 98.1549 36.5936C98.0011 36.0198 97.9964 35.4783 98.1408 34.9689C98.2904 34.4505 98.5622 34.0057 98.9562 33.6344C99.3482 33.256 99.8347 32.989 100.416 32.8334C100.975 32.6834 101.51 32.6691 102.021 32.7903C102.537 32.9026 102.986 33.1468 103.368 33.5228C103.747 33.8917 104.02 34.3843 104.185 35.0006C104.202 35.0643 104.219 35.1397 104.234 35.2266C104.248 35.3064 104.261 35.3826 104.273 35.4554L99.6296 36.6995L99.3705 35.7326L103.142 34.722L102.582 35.1797C102.502 34.8822 102.373 34.6397 102.193 34.4524C102.014 34.2651 101.802 34.1397 101.557 34.0762C101.311 34.0057 101.046 34.0084 100.762 34.0843C100.479 34.1602 100.244 34.2913 100.059 34.4777C99.8788 34.655 99.7589 34.8732 99.6992 35.1321C99.6376 35.3839 99.6477 35.6622 99.7293 35.9668L99.7976 36.2218C99.8812 36.5334 100.023 36.7916 100.222 36.9964C100.426 37.1922 100.669 37.3206 100.951 37.3817C101.239 37.4338 101.552 37.4143 101.892 37.3232C102.197 37.2416 102.45 37.1243 102.652 36.9715C102.861 36.8168 103.037 36.6217 103.178 36.3863L104.317 37.1063C104.134 37.474 103.867 37.7925 103.514 38.0617C103.159 38.3238 102.723 38.5241 102.206 38.6627Z" fill="#6C6C6C"/>
<path d="M42.8519 69.0316C42.179 69.2119 41.6093 69.1823 41.1427 68.9429C40.6743 68.6965 40.3489 68.2332 40.1667 67.5532L38.8226 62.5382L40.4801 62.0941L41.8185 67.0878C41.8831 67.3287 41.9971 67.4993 42.1607 67.5997C42.3224 67.693 42.513 67.7103 42.7326 67.6514C42.9947 67.5812 43.1988 67.4506 43.345 67.2596L44.1045 68.3088C43.9668 68.4747 43.786 68.6219 43.5623 68.7501C43.3437 68.8694 43.1069 68.9633 42.8519 69.0316ZM38.6555 65.4414L38.3138 64.1664L42.2769 63.1044L42.6187 64.3794L38.6555 65.4414ZM47.6754 67.7391C47.0662 67.9024 46.4902 67.9201 45.9473 67.7922C45.4114 67.6625 44.9465 67.4151 44.5525 67.0499C44.1638 66.6758 43.8935 66.2054 43.7416 65.6387C43.5878 65.065 43.5867 64.5224 43.7381 64.0112C43.8948 63.4909 44.1736 63.0441 44.5747 62.671C44.981 62.2888 45.4887 62.0161 46.0979 61.8529C46.6999 61.6915 47.2725 61.6748 47.8154 61.8026C48.3564 61.9234 48.8204 62.1673 49.2073 62.5343C49.5941 62.9014 49.8654 63.3753 50.0211 63.9561C50.1729 64.5228 50.1741 65.0653 50.0245 65.5837C49.873 66.095 49.5942 66.5417 49.1879 66.9239C48.7817 67.3061 48.2775 67.5778 47.6754 67.7391ZM47.3109 66.3791C47.5872 66.3051 47.818 66.1749 48.0034 65.9886C48.1889 65.8022 48.314 65.5751 48.3788 65.3072C48.4418 65.0322 48.4296 64.7318 48.3423 64.406C48.2531 64.073 48.1134 63.8068 47.9232 63.6072C47.7331 63.4076 47.5111 63.2735 47.2574 63.2048C47.0036 63.1362 46.7386 63.1388 46.4623 63.2129C46.1861 63.2869 45.9553 63.4171 45.7698 63.6034C45.5844 63.7898 45.4557 64.0178 45.3838 64.2876C45.319 64.5556 45.3311 64.856 45.4204 65.1889C45.5077 65.5147 45.6474 65.781 45.8394 65.9876C46.0367 66.1853 46.2622 66.3185 46.5159 66.3872C46.7697 66.4558 47.0347 66.4532 47.3109 66.3791ZM58.4104 64.7716L58.1114 63.656L57.9396 63.4401L57.4043 61.4426C57.3094 61.0884 57.1255 60.8416 56.8528 60.7021C56.5871 60.5607 56.2312 60.5498 55.7849 60.6693C55.4803 60.751 55.1926 60.8812 54.9217 61.0601C54.6559 61.23 54.4422 61.4239 54.2804 61.6419L53.375 60.6432C53.6278 60.3401 53.9577 60.0695 54.3646 59.8314C54.7715 59.5933 55.2016 59.4135 55.655 59.2921C56.5262 59.0586 57.2577 59.0828 57.8495 59.3645C58.4413 59.6463 58.854 60.2228 59.0875 61.0941L59.9617 64.3559L58.4104 64.7716ZM56.6906 65.3235C56.2444 65.4431 55.8419 65.4712 55.4833 65.4079C55.1228 65.3374 54.8224 65.194 54.5822 64.9774C54.3419 64.7609 54.1781 64.4897 54.0908 64.1639C53.9997 63.8239 54.0014 63.5046 54.096 63.2059C54.1977 62.9053 54.4101 62.6358 54.7334 62.3974C55.0548 62.1518 55.5059 61.9512 56.0868 61.7956L57.6062 61.3885L57.8653 62.3553L56.5265 62.7141C56.1369 62.8185 55.8849 62.9543 55.7703 63.1217C55.6628 63.2872 55.6347 63.4655 55.6859 63.6568C55.7429 63.8693 55.8699 64.0174 56.067 64.1013C56.2693 64.1761 56.5156 64.1747 56.806 64.0969C57.0823 64.0228 57.3131 63.8926 57.4985 63.7063C57.6821 63.5129 57.7892 63.2754 57.82 62.9938L58.2801 63.6905C58.2584 64.0911 58.1138 64.4297 57.8463 64.7064C57.5788 64.983 57.1936 65.1888 56.6906 65.3235ZM63.9805 63.3702C63.4422 63.5144 62.9247 63.524 62.428 63.399C61.9295 63.2668 61.4939 63.0154 61.1212 62.6445C60.7556 62.2718 60.493 61.7879 60.3336 61.1929C60.1722 60.5908 60.1566 60.037 60.2868 59.5314C60.4241 59.0239 60.6766 58.5918 61.0441 58.2352C61.4117 57.8786 61.8646 57.6282 62.4029 57.4839C62.8846 57.3549 63.3346 57.3482 63.7528 57.4639C64.171 57.5796 64.5372 57.8269 64.8513 58.2059C65.1654 58.5848 65.4127 59.1107 65.593 59.7836C65.7715 60.4495 65.8239 61.0276 65.7504 61.518C65.6749 62.0013 65.485 62.3977 65.1807 62.707C64.8835 63.0144 64.4834 63.2354 63.9805 63.3702ZM63.9029 61.9333C64.1721 61.8612 64.3994 61.732 64.5848 61.5456C64.7702 61.3593 64.8953 61.1322 64.9602 60.8642C65.0302 60.5874 65.0216 60.286 64.9343 59.9602C64.845 59.6272 64.7018 59.3619 64.5046 59.1642C64.3144 58.9647 64.0925 58.8305 63.8387 58.7619C63.585 58.6932 63.3235 58.6949 63.0543 58.7671C62.7781 58.8411 62.5472 58.9713 62.3618 59.1576C62.1764 59.3439 62.0477 59.572 61.9758 59.8418C61.9109 60.1097 61.9231 60.4102 62.0123 60.7431C62.0997 61.0689 62.2393 61.3352 62.4314 61.5418C62.6286 61.7395 62.8541 61.8727 63.1079 61.9414C63.3616 62.01 63.6266 62.0073 63.9029 61.9333ZM65.7428 62.8069L65.4295 61.6381L65.0058 59.9296L64.4468 58.2687L63.5555 54.9431L65.213 54.4989L67.3259 62.3827L65.7428 62.8069ZM71.3372 61.399C70.7989 61.5432 70.2814 61.5528 69.7847 61.4278C69.2862 61.2956 68.8506 61.0441 68.4779 60.6733C68.1123 60.3006 67.8497 59.8167 67.6903 59.2217C67.5289 58.6196 67.5133 58.0658 67.6435 57.5602C67.7808 57.0527 68.0333 56.6206 68.4008 56.264C68.7684 55.9074 69.2213 55.657 69.7596 55.5127C70.2413 55.3836 70.6913 55.377 71.1095 55.4927C71.5277 55.6084 71.8938 55.8557 72.208 56.2346C72.5221 56.6136 72.7694 57.1395 72.9497 57.8124C73.1282 58.4783 73.1806 59.0564 73.1071 59.5468C73.0316 60.0301 72.8417 60.4264 72.5374 60.7357C72.2402 61.0431 71.8401 61.2642 71.3372 61.399ZM71.2596 59.9621C71.5288 59.89 71.7561 59.7607 71.9415 59.5744C72.1269 59.3881 72.252 59.1609 72.3169 58.893C72.3869 58.6161 72.3783 58.3148 72.291 57.9889C72.2017 57.656 72.0585 57.3907 71.8613 57.193C71.6711 56.9934 71.4492 56.8593 71.1954 56.7907C70.9416 56.722 70.6802 56.7237 70.411 56.7958C70.1348 56.8699 69.9039 57 69.7185 57.1864C69.5331 57.3727 69.4044 57.6008 69.3325 57.8706C69.2676 58.1385 69.2798 58.4389 69.369 58.7719C69.4564 59.0977 69.596 59.3639 69.7881 59.5706C69.9853 59.7683 70.2108 59.9015 70.4646 59.9701C70.7183 60.0388 70.9833 60.0361 71.2596 59.9621ZM73.0995 60.8357L72.7862 59.6669L72.3625 57.9584L71.8035 56.2975L70.9122 52.9718L72.5697 52.5277L74.6826 60.4115L73.0995 60.8357ZM79.2258 59.1941L77.6938 53.4779L79.2769 53.0537L79.7098 54.6687L79.3613 54.261C79.4231 53.8117 79.6142 53.434 79.9346 53.128C80.2531 52.8149 80.6815 52.5862 81.2198 52.442L81.6299 53.972C81.5571 53.9839 81.4924 53.9974 81.4358 54.0126C81.3772 54.0207 81.316 54.0333 81.2523 54.0504C80.799 54.1718 80.4657 54.4016 80.2526 54.7396C80.0447 55.0686 80.0139 55.5058 80.16 56.0512L80.8833 58.75L79.2258 59.1941ZM86.5784 57.3151C85.9267 57.4897 85.3188 57.516 84.7546 57.3938C84.1975 57.2698 83.7255 57.0243 83.3386 56.6572C82.9499 56.2831 82.6795 55.8127 82.5277 55.246C82.3739 54.6723 82.3692 54.1307 82.5136 53.6213C82.6632 53.1029 82.9349 52.6581 83.3289 52.2868C83.721 51.9084 84.2075 51.6414 84.7883 51.4858C85.3479 51.3359 85.8831 51.3215 86.3939 51.4428C86.9099 51.555 87.3587 51.7992 87.7404 52.1752C88.1202 52.5442 88.3927 53.0368 88.5578 53.653C88.5749 53.7168 88.5913 53.7921 88.607 53.879C88.6208 53.9588 88.6337 54.0351 88.6456 54.1078L84.0023 55.3519L83.7432 54.3851L87.5152 53.3744L86.9545 53.8321C86.8748 53.5346 86.7453 53.2922 86.566 53.1049C86.3868 52.9175 86.1747 52.7921 85.93 52.7287C85.6833 52.6581 85.4183 52.6608 85.1349 52.7367C84.8516 52.8126 84.6172 52.9437 84.4318 53.1301C84.2516 53.3074 84.1316 53.5256 84.072 53.7845C84.0104 54.0364 84.0204 54.3146 84.1021 54.6192L84.1704 54.8742C84.2539 55.1858 84.3953 55.4441 84.5944 55.6488C84.7987 55.8446 85.0419 55.9731 85.324 56.0341C85.6113 56.0862 85.9249 56.0667 86.2649 55.9756C86.5695 55.894 86.8228 55.7768 87.0248 55.624C87.2339 55.4692 87.4094 55.2742 87.5512 55.0388L88.6894 55.7587C88.5071 56.1264 88.2394 56.4449 87.8864 56.7141C87.5315 56.9762 87.0955 57.1766 86.5784 57.3151ZM91.8692 55.8063L87.9359 50.7335L89.6465 50.2751L92.9625 54.6593L92.1125 54.887L92.866 49.4125L94.4597 48.9854L93.5798 55.348L91.8692 55.8063ZM96.6681 54.5205L95.1361 48.8042L96.7936 48.3601L98.3256 54.0763L96.6681 54.5205ZM95.7513 47.7853C95.4467 47.8669 95.1751 47.8448 94.9363 47.7189C94.6976 47.5931 94.5432 47.3991 94.4729 47.1371C94.4027 46.875 94.4394 46.6298 94.5832 46.4014C94.727 46.1731 94.9512 46.0181 95.2558 45.9365C95.5604 45.8549 95.8311 45.8735 96.0679 45.9922C96.3028 46.1039 96.4554 46.2908 96.5257 46.5529C96.5997 46.8291 96.5658 47.0849 96.4239 47.3204C96.2872 47.5468 96.063 47.7018 95.7513 47.7853ZM102.724 52.989C102.072 53.1636 101.464 53.1899 100.9 53.0677C100.343 52.9437 99.8708 52.6981 99.4839 52.3311C99.0952 51.957 98.8248 51.4866 98.673 50.9199C98.5192 50.3461 98.5145 49.8046 98.6589 49.2952C98.8085 48.7768 99.0802 48.332 99.4742 47.9607C99.8663 47.5823 100.353 47.3153 100.934 47.1597C101.493 47.0097 102.028 46.9954 102.539 47.1166C103.055 47.2289 103.504 47.4731 103.886 47.8491C104.265 48.218 104.538 48.7106 104.703 49.3269C104.72 49.3906 104.737 49.466 104.752 49.5529C104.766 49.6327 104.779 49.709 104.791 49.7817L100.148 51.0258L99.8885 50.059L103.66 49.0483L103.1 49.506C103.02 49.2085 102.891 48.966 102.711 48.7787C102.532 48.5914 102.32 48.466 102.075 48.4025C101.829 48.332 101.564 48.3347 101.28 48.4106C100.997 48.4865 100.763 48.6176 100.577 48.804C100.397 48.9813 100.277 49.1995 100.217 49.4584C100.156 49.7103 100.166 49.9885 100.247 50.2931L100.316 50.5481C100.399 50.8597 100.541 51.1179 100.74 51.3227C100.944 51.5185 101.187 51.6469 101.469 51.708C101.757 51.7601 102.07 51.7406 102.41 51.6495C102.715 51.5679 102.968 51.4506 103.17 51.2978C103.379 51.1431 103.555 50.948 103.697 50.7126L104.835 51.4326C104.652 51.8003 104.385 52.1188 104.032 52.388C103.677 52.6501 103.241 52.8504 102.724 52.989ZM107.77 51.5457L104.177 46.3818L105.739 45.9633L108.768 50.4243L108.024 50.6236L108.491 45.2259L109.893 44.8501L112.944 49.3054L112.2 49.5047L112.645 44.1127L114.111 43.7198L113.571 49.9912L111.967 50.4211L109.317 46.6101L109.806 46.4792L109.364 51.1187L107.77 51.5457Z" fill="#6C6C6C"/>
<path d="M131.339 48.8349C215.824 88.284 161.444 114.49 148.011 109.36C107.929 94.0544 191.145 46.8197 219.74 47.832C247.837 48.8282 290.557 83.9971 319.53 91.2644C351.643 99.3199 370.29 93.6859 385.411 74.0315C400.532 54.3772 382.274 20.8092 355.138 19.7698C328.001 18.7305 302.909 52.9545 324.727 71.6154C346.544 90.2763 414.971 78.4681 431.82 63.125C448.669 47.7819 449.274 34.375 450 10" stroke="#6692F1" stroke-width="2" stroke-linecap="round" stroke-linejoin="round" stroke-dasharray="4 5"/>
<path d="M455 14.9184L449.686 8L445 16" stroke="#6692F1" stroke-width="2" stroke-linecap="round" stroke-linejoin="round"/>
</svg>
