<svg xmlns="http://www.w3.org/2000/svg" width="18" height="18" viewBox="0 0 18 18">
  <g id="Print" transform="translate(-5934.592 -13493)">
    <rect id="Rectangle_56822" data-name="Rectangle 56822" width="18" height="18" transform="translate(5934.592 13493)" fill="#aaa" opacity="0"/>
    <path id="Path_35705" data-name="Path 35705" d="M64.531,16.594a.9.9,0,0,1-.9-.893V11.234h10.8V15.7a.9.9,0,0,1-.9.893Zm-.9-12.507V2.3a.9.9,0,0,1,.9-.893h9a.9.9,0,0,1,.9.892h0V4.087Z" transform="translate(5874.564 13493)" fill="#aaa"/>
    <path id="Path_35706" data-name="Path 35706" d="M75.689,4.983H62.368a1.434,1.434,0,0,0-1.44,1.428v6.076a1.438,1.438,0,0,0,1.44,1.43h.36v-2.68a.894.894,0,0,1,.9-.893H74.428a.888.888,0,0,1,.9.876v2.7h.36a1.433,1.433,0,0,0,1.44-1.426V6.413A1.428,1.428,0,0,0,75.7,4.983h-.013M74.2,8.552h-2.1a.671.671,0,0,1,0-1.34h2.1a.67.67,0,0,1,0,1.34Z" transform="translate(5874.564 13493)" fill="#aaa"/>
  </g>
</svg>
