<svg width="468" height="120" viewBox="0 0 468 120" fill="none" xmlns="http://www.w3.org/2000/svg">
<path d="M0 3C0 1.34314 1.34315 0 3 0H465C466.657 0 468 1.34315 468 3V120H0V3Z" fill="white"/>
<path d="M115.987 36.9898L114.707 64.727C114.58 67.4323 111.549 69.5534 107.933 69.4562L41.2 67.7599L33.0124 67.5294C29.7423 67.4383 27.1865 65.3782 27.3005 62.9285L27.9458 48.9652L28.611 34.7314C28.738 32.0261 31.768 29.907 35.3831 30.0031L109.707 31.8969C113.314 32.0101 116.124 34.2875 115.991 36.9908" fill="#6692F1"/>
<path d="M114.689 37.1651L113.412 64.4184C113.285 67.0796 110.3 69.1626 106.74 69.0705L41.0318 67.4673L32.9692 67.2489C29.7512 67.1617 27.2344 65.1448 27.3474 62.7331L27.9916 49.0183L28.6558 35.031C28.7819 32.3688 31.7658 30.2867 35.326 30.3779L108.504 32.1654C112.055 32.2746 114.82 34.51 114.689 37.1661" fill="white"/>
<path d="M49.223 110H18" stroke="#AAAAAA" stroke-width="2" stroke-miterlimit="10"/>
<path d="M54.5859 80.7632L68.3604 76.4739L73.512 67.3621L74.6124 67.5695C75.1945 67.666 75.762 67.8368 76.3009 68.0775C77.1432 68.6075 76.758 68.8249 76.2009 69.6515L69.8918 79.0639L54.926 81.7041L54.5859 80.7632Z" fill="#424242"/>
<path d="M60.1721 75.2997C60.1721 75.2997 55.8707 79.007 52.5557 77.9229C49.2406 76.8387 47.5881 73.6736 48.8065 71.4442C50.0248 69.2149 53.3809 68.6598 56.3839 69.6737C59.3868 70.6877 60.1281 75.2677 60.1721 75.2997Z" fill="#AAAAAA"/>
<path d="M54.3737 84.0538C52.7272 86.8863 50.0083 88.776 48.0407 87.9233C46.0731 87.0707 45.824 83.6781 47.7086 80.6832C49.5932 77.6884 52.6622 76.3638 54.3817 77.3697C56.1013 78.3757 56.0113 81.2162 54.3737 84.0538Z" fill="#AAAAAA"/>
<path d="M49.3865 87.8219C50.7439 89.926 48.4172 93.5922 44.1848 96.588C39.9064 99.7582 31.4147 94.7474 31.4927 94.5771C33.4351 92.0101 35.8779 89.8653 38.673 88.2728C43.2675 85.6787 48.026 85.7368 49.3835 87.8219" fill="#AAAAAA"/>
<path d="M57.6536 70.4042C58.3811 71.6179 58.8919 72.9494 59.1631 74.3389C59.1631 74.3389 54.7987 77.9539 51.5386 76.7826C50.5844 76.4424 49.7193 75.8906 49.0078 75.1685C49.8129 76.492 51.0735 77.4749 52.5519 77.9319C55.865 79.017 60.1764 75.2827 60.1684 75.3088C60.1604 75.3348 59.5302 72.0213 57.6536 70.3992" fill="#424242"/>
<path d="M55.6066 79.4795C55.3525 80.4458 54.9492 81.3663 54.4112 82.2078C52.6647 84.9923 49.9098 86.8168 47.9822 85.9291C47.5743 85.7101 47.2279 85.3921 46.9746 85.0041C46.7214 84.6162 46.5694 84.1708 46.5327 83.7088C46.1796 85.6766 46.7468 87.3679 48.0432 87.936C50.0078 88.8107 52.7347 86.9 54.3762 84.0674C55.2496 82.7021 55.6794 81.0994 55.6066 79.4795Z" fill="#424242"/>
<path d="M49.5185 88.0745C48.9643 90.0343 46.8997 92.447 43.8437 94.471C40.6487 96.6562 35.2239 94.5852 32.7141 93.0762C32.2797 93.5543 31.8719 94.056 31.4927 94.5792C31.4137 94.7495 39.9074 99.7593 44.1848 96.5911C48.2611 93.7085 50.5488 90.2016 49.5185 88.0745Z" fill="#424242"/>
<path d="M51.3321 74.8321C51.1071 75.0576 42.9875 68.9997 40.3156 69.5859C37.4387 70.4596 33.3344 74.6488 35.249 77.4011C37.2496 80.0764 37.1496 77.6857 36.9165 77.2749C36.6834 76.8641 35.6601 77.0825 35.6551 77.0745C35.6501 77.0665 34.1806 75.2389 36.3923 72.9154C38.6041 70.5918 39.9275 69.9476 41.1219 70.0347C43.5012 71.0418 45.8234 72.1791 48.0781 73.4414C49.005 74.1145 49.974 74.7277 50.979 75.277C50.979 75.277 51.6142 75.1648 51.3351 74.8351" fill="#424242"/>
<path d="M39.3157 67.0332L39.0156 76.2833L49.461 81.6307L49.1709 80.2691L41.3864 76.0999L41.6695 67.1825L39.3157 67.0332Z" fill="#424242"/>
<path d="M38.2937 93.0894C38.2056 92.9983 38.0186 92.7608 38.0006 92.7397C36.4651 93.9722 28.2734 99.7314 28.2734 99.7314L29.5639 109.695H34.3654L29.3328 100.016C29.3328 100.016 37.0102 94.3218 38.2947 93.0894" fill="#424242"/>
<path d="M42.1208 95.8318C43.5717 97.9966 45.1413 100.079 46.8223 102.07L42.2209 109.739L38.5547 109.692L45.4819 102.12C44.1095 100.227 42.881 98.2337 41.8067 96.1564L42.1208 95.8318Z" fill="#424242"/>
<path d="M52.1024 70.592C51.6672 70.8104 44.532 59.2879 41.9391 60.2397C38.8481 61.42 37.1976 63.6965 37.6978 64.983C38.1979 66.2695 39.7134 67.2214 39.7314 66.0661C39.7494 64.9109 38.9902 65.5862 38.9852 65.5862C38.9802 65.5862 37.4757 65.7214 38.6851 63.6183C39.8945 61.5152 41.3859 60.2167 42.7964 61.0643C43.8776 61.6167 44.8169 62.4115 45.5413 63.3869C46.6977 64.974 51.6042 71.116 51.7433 71.0238C51.7433 71.0238 52.0094 71.3544 52.0964 70.592" fill="#424242"/>
<path d="M46.2417 46.2672L49.8701 38.658L51.6296 38.7032L54.8738 46.4893L53.0044 46.4412L50.3638 39.573L51.0676 39.5911L48.0671 46.3141L46.2417 46.2672ZM47.9994 44.6618L48.507 43.3215L52.4657 43.4233L52.9148 44.7883L47.9994 44.6618ZM58.0357 46.6586C57.4785 46.6443 56.9795 46.5068 56.5388 46.246C56.0982 45.9779 55.7517 45.6132 55.4995 45.1519C55.2546 44.6908 55.14 44.1523 55.1558 43.5365C55.1718 42.9134 55.314 42.3779 55.5822 41.93C55.8578 41.4822 56.2224 41.1395 56.676 40.9018C57.1296 40.664 57.6349 40.5523 58.1921 40.5667C58.6906 40.5795 59.1239 40.7007 59.4922 40.9302C59.8604 41.1598 60.1414 41.5008 60.3352 41.9532C60.529 42.4057 60.6169 42.9802 60.599 43.6766C60.5813 44.3657 60.4677 44.935 60.2581 45.3844C60.0487 45.8265 59.7542 46.1527 59.3747 46.363C59.0025 46.5735 58.5562 46.672 58.0357 46.6586ZM58.3687 45.2587C58.6473 45.2659 58.9019 45.2064 59.1325 45.0803C59.3632 44.9542 59.5476 44.7719 59.6858 44.5334C59.8314 44.2877 59.9086 43.9963 59.9173 43.659C59.9261 43.3145 59.864 43.0195 59.7309 42.774C59.6052 42.5286 59.4304 42.3371 59.2065 42.1993C58.9826 42.0615 58.7314 41.989 58.4528 41.9818C58.1669 41.9745 57.9087 42.0338 57.678 42.16C57.4474 42.2861 57.2593 42.4683 57.1138 42.7066C56.9756 42.9451 56.9021 43.2367 56.8933 43.5812C56.8846 43.9185 56.9431 44.2134 57.0686 44.466C57.2017 44.7115 57.3802 44.9032 57.604 45.041C57.8279 45.1788 58.0828 45.2514 58.3687 45.2587ZM59.8853 46.6182L59.9164 45.4086L59.9945 43.65L59.9294 41.8988L60.0178 38.4569L61.7332 38.5011L61.5238 46.6604L59.8853 46.6182ZM65.6494 46.8545C65.0922 46.8402 64.5932 46.7027 64.1524 46.4419C63.7119 46.1738 63.3654 45.8091 63.1132 45.3478C62.8683 44.8867 62.7537 44.3482 62.7695 43.7324C62.7855 43.1093 62.9277 42.5738 63.1959 42.1259C63.4715 41.6781 63.8361 41.3354 64.2897 41.0977C64.7432 40.8599 65.2486 40.7482 65.8058 40.7626C66.3043 40.7754 66.7376 40.8966 67.1059 41.1261C67.4741 41.3557 67.7551 41.6967 67.9489 42.1491C68.1427 42.6016 68.2306 43.1761 68.2127 43.8725C68.195 44.5616 68.0814 45.1309 67.8718 45.5803C67.6624 46.0224 67.3679 46.3486 66.9884 46.5589C66.6162 46.7694 66.1698 46.8679 65.6494 46.8545ZM65.9824 45.4546C66.261 45.4618 66.5156 45.4023 66.7462 45.2762C66.9769 45.1501 67.1613 44.9678 67.2994 44.7293C67.4451 44.4836 67.5223 44.1922 67.531 43.8549C67.5398 43.5104 67.4777 43.2154 67.3446 42.9699C67.2189 42.7245 67.0441 42.533 66.8202 42.3952C66.5963 42.2574 66.3451 42.1849 66.0665 42.1777C65.7806 42.1704 65.5223 42.2297 65.2917 42.3559C65.0611 42.482 64.873 42.6642 64.7275 42.9025C64.5893 43.141 64.5158 43.4326 64.507 43.7771C64.4983 44.1144 64.5568 44.4093 64.6823 44.6619C64.8154 44.9074 64.9939 45.0991 65.2177 45.2369C65.4416 45.3747 65.6965 45.4473 65.9824 45.4546ZM67.499 46.8141L67.5301 45.6045L67.6082 43.8459L67.5431 42.0947L67.6315 38.6528L69.3469 38.697L69.1375 46.8563L67.499 46.8141ZM74.0483 46.9826L74.2036 40.9346C74.2207 40.2675 74.4323 39.7411 74.8383 39.3554C75.2445 38.9624 75.8142 38.7753 76.5473 38.7942C76.7965 38.8006 77.0341 38.8324 77.2601 38.8896C77.4933 38.9469 77.6892 39.0326 77.8476 39.1468L77.3649 40.3777C77.2713 40.3093 77.1663 40.2553 77.0499 40.2156C76.9336 40.1759 76.8094 40.1544 76.6775 40.151C76.4282 40.1446 76.2321 40.2129 76.089 40.3559C75.9535 40.4918 75.8821 40.7027 75.8747 40.9886L75.8606 41.5384L75.8857 42.2763L75.7637 47.0268L74.0483 46.9826ZM73.2502 42.4946L73.2841 41.175L77.3857 41.2806L77.3518 42.6001L73.2502 42.4946ZM78.2049 47.0896L78.3568 41.1735L80.0722 41.2177L79.9203 47.1337L78.2049 47.0896ZM79.2357 40.3709C78.9205 40.3627 78.6662 40.2645 78.473 40.0761C78.2798 39.8878 78.1866 39.658 78.1936 39.3867C78.2006 39.1155 78.3054 38.8908 78.508 38.7126C78.7106 38.5344 78.9696 38.4494 79.2848 38.4575C79.6 38.4656 79.8544 38.5602 80.0478 38.7412C80.2414 38.9149 80.3347 39.1374 80.3277 39.4086C80.3204 39.6945 80.2153 39.9302 80.0125 40.1158C79.8172 40.2941 79.5582 40.3792 79.2357 40.3709ZM81.5067 47.1745L81.6586 41.2585L83.2971 41.3006L83.2542 42.9721L83.0357 42.4823C83.2223 42.069 83.5127 41.761 83.9067 41.5584C84.3008 41.3485 84.7765 41.2507 85.3337 41.265L85.293 42.8485C85.2199 42.8393 85.154 42.8339 85.0954 42.8324C85.0369 42.8236 84.9747 42.8183 84.9087 42.8166C84.4395 42.8045 84.0548 42.9303 83.7546 43.194C83.462 43.4506 83.3084 43.8611 83.2939 44.4256L83.2222 47.2187L81.5067 47.1745ZM88.2306 47.4356C87.7247 47.4225 87.2387 47.3513 86.7726 47.222C86.3139 47.0855 85.9513 46.9221 85.6848 46.7318L86.2882 45.515C86.5551 45.6906 86.8704 45.838 87.2342 45.9574C87.6054 46.0697 87.9706 46.1304 88.3298 46.1397C88.7257 46.1499 89.0055 46.1094 89.1692 46.0182C89.3403 45.9273 89.428 45.7975 89.4323 45.6289C89.4359 45.4896 89.3725 45.3853 89.2423 45.3159C89.1195 45.2394 88.9523 45.18 88.7407 45.1379C88.529 45.0958 88.2954 45.0531 88.0397 45.0098C87.7914 44.9668 87.5397 44.9126 87.2847 44.8474C87.0298 44.7748 86.7976 44.6735 86.5882 44.5434C86.3788 44.4133 86.2109 44.2402 86.0844 44.0242C85.9652 43.8084 85.91 43.5319 85.9186 43.1947C85.9282 42.8208 86.043 42.4937 86.2629 42.2132C86.4902 41.933 86.8112 41.7175 87.2258 41.5668C87.6407 41.4087 88.134 41.3371 88.7059 41.3518C89.1091 41.3621 89.5185 41.4167 89.9341 41.5154C90.3497 41.6141 90.6946 41.7514 90.9688 41.9272L90.3657 43.1331C90.0841 42.9571 89.7975 42.836 89.5057 42.7698C89.2215 42.6965 88.9438 42.6563 88.6725 42.6493C88.2913 42.6395 88.0114 42.6837 87.8329 42.7818C87.6543 42.8799 87.5629 43.0096 87.5588 43.1709C87.555 43.3175 87.6145 43.4291 87.7373 43.5056C87.8673 43.5823 88.0381 43.6454 88.2496 43.6948C88.461 43.7443 88.6909 43.7905 88.9392 43.8336C89.1951 43.8695 89.4504 43.9238 89.7053 43.9964C89.9602 44.0689 90.1887 44.1702 90.3907 44.3001C90.6003 44.4228 90.7684 44.5922 90.8949 44.8082C91.0215 45.0169 91.0806 45.2898 91.0719 45.627C91.0625 45.9936 90.9442 46.317 90.7169 46.5972C90.4898 46.8701 90.1653 47.0819 89.7433 47.2324C89.3286 47.3831 88.8244 47.4508 88.2306 47.4356ZM94.5012 47.5969C93.8048 47.579 93.2668 47.3891 92.8873 47.0272C92.508 46.658 92.3274 46.1215 92.3454 45.4177L92.4787 40.2274L94.1941 40.2716L94.0614 45.4399C94.055 45.6891 94.116 45.8851 94.2444 46.0278C94.373 46.1631 94.5509 46.2337 94.7782 46.2396C95.0494 46.2466 95.2822 46.1792 95.4766 46.0375L95.9074 47.259C95.7282 47.3791 95.5132 47.4689 95.2622 47.5285C95.0188 47.5809 94.7651 47.6037 94.5012 47.5969ZM91.4951 42.964L91.529 41.6445L95.6307 41.75L95.5968 43.0696L91.4951 42.964Z" fill="#6C6C6C"/>
<path d="M52.7544 60.5228C52.1166 60.5063 51.5517 60.3634 51.0598 60.094C50.5681 59.8173 50.1852 59.4443 49.9111 58.9751C49.6444 58.5061 49.5186 57.9784 49.5337 57.3919C49.5489 56.7981 49.7016 56.2775 49.9919 55.8301C50.2896 55.3757 50.6911 55.0265 51.1962 54.7828C51.7014 54.5317 52.273 54.4144 52.9108 54.4308C53.5339 54.4468 54.073 54.5927 54.5281 54.8685C54.9833 55.137 55.3147 55.516 55.5222 56.0055L54.1733 56.686C54.0265 56.4034 53.8375 56.1932 53.6063 56.0552C53.3824 55.9174 53.1349 55.845 52.8636 55.838C52.5704 55.8305 52.3048 55.8897 52.0668 56.0156C51.8288 56.1415 51.6371 56.3236 51.4916 56.562C51.3534 56.8005 51.2799 57.092 51.2711 57.4366C51.2622 57.7811 51.3207 58.0761 51.4464 58.3214C51.5795 58.5669 51.7616 58.7586 51.9928 58.8966C52.224 59.0346 52.4863 59.1074 52.7795 59.1149C53.0507 59.1219 53.3016 59.066 53.5321 58.9472C53.77 58.8213 53.9697 58.6174 54.1309 58.3354L55.4429 59.0954C55.2107 59.5663 54.8603 59.9277 54.3917 60.1798C53.9233 60.4245 53.3775 60.5388 52.7544 60.5228ZM59.1321 60.6869C58.5016 60.6706 57.9442 60.5242 57.4598 60.2477C56.9827 59.9713 56.6071 59.6022 56.3328 59.1403C56.0661 58.6713 55.9403 58.1436 55.9554 57.5571C55.9706 56.9633 56.1233 56.4427 56.4136 55.9954C56.7114 55.5409 57.1054 55.1916 57.5959 54.9474C58.0938 54.6962 58.658 54.5786 59.2885 54.5949C59.9116 54.6109 60.4654 54.7572 60.9498 55.0337C61.4343 55.303 61.8101 55.6684 62.077 56.1301C62.3439 56.5918 62.4696 57.1232 62.4542 57.7243C62.4391 58.3108 62.2864 58.8314 61.996 59.2861C61.7057 59.7334 61.3116 60.0827 60.8137 60.334C60.3157 60.5853 59.7552 60.7029 59.1321 60.6869ZM59.1682 59.2793C59.4541 59.2867 59.7124 59.2273 59.943 59.1012C60.1737 58.9751 60.3581 58.7928 60.4963 58.5542C60.6346 58.3084 60.7081 58.0168 60.7168 57.6796C60.7256 57.3351 60.6672 57.0401 60.5414 56.7948C60.4157 56.5495 60.2409 56.3579 60.017 56.2201C59.7931 56.0823 59.5383 56.0098 59.2523 56.0024C58.9664 55.995 58.7082 56.0544 58.4775 56.1805C58.2469 56.3066 58.0588 56.4889 57.9133 56.7272C57.7751 56.9657 57.7016 57.2573 57.6928 57.6018C57.6841 57.939 57.7426 58.234 57.8681 58.4866C58.0012 58.7321 58.1797 58.9238 58.4035 59.0616C58.6274 59.1994 58.8823 59.272 59.1682 59.2793ZM67.2748 54.8004C67.744 54.8124 68.1594 54.9185 68.5211 55.1185C68.8903 55.3114 69.1762 55.6049 69.3788 55.9989C69.5816 56.3855 69.6753 56.8794 69.6598 57.4806L69.5729 60.8675L67.8575 60.8233L67.9376 57.7004C67.9499 57.2238 67.8526 56.8692 67.6458 56.6365C67.4464 56.404 67.1561 56.2828 66.7749 56.273C66.5036 56.266 66.2566 56.3183 66.0336 56.43C65.8182 56.5345 65.6452 56.7024 65.5145 56.9338C65.3912 57.1653 65.3248 57.4644 65.3154 57.831L65.2403 60.756L63.5249 60.7119L63.6768 54.7958L65.3152 54.838L65.2732 56.4764L64.978 55.9737C65.2007 55.5833 65.5128 55.2869 65.9141 55.0844C66.3154 54.882 66.769 54.7873 67.2748 54.8004ZM73.5448 61.0577C72.8483 61.0398 72.3104 60.8499 71.9309 60.488C71.5516 60.1188 71.3709 59.5823 71.389 58.8785L71.5223 53.6882L73.2377 53.7324L73.105 58.9007C73.0986 59.1499 73.1596 59.3459 73.288 59.4886C73.4165 59.6239 73.5945 59.6945 73.8217 59.7004C74.093 59.7073 74.3258 59.64 74.5201 59.4983L74.9509 60.7197C74.7718 60.8398 74.5567 60.9297 74.3058 60.9892C74.0624 61.0417 73.8087 61.0645 73.5448 61.0577ZM70.5387 56.4248L70.5726 55.1053L74.6742 55.2108L74.6403 56.5304L70.5387 56.4248ZM79.5353 61.1238L79.565 59.9692L79.4615 59.7134L79.5146 57.6461C79.524 57.2796 79.4177 56.9907 79.1957 56.7796C78.9811 56.5687 78.6428 56.4573 78.181 56.4454C77.8657 56.4373 77.5529 56.4806 77.2423 56.5753C76.9393 56.6629 76.6793 56.7882 76.4624 56.9514L75.8774 55.7369C76.2058 55.518 76.5988 55.352 77.0566 55.2391C77.5143 55.1262 77.9777 55.0757 78.4469 55.0878C79.3486 55.111 80.0432 55.3416 80.5308 55.7796C81.0184 56.2177 81.2506 56.8875 81.2275 57.7892L81.1408 61.1651L79.5353 61.1238ZM77.7297 61.1654C77.2678 61.1535 76.8739 61.0663 76.548 60.9039C76.2222 60.7341 75.9749 60.5114 75.8059 60.2356C75.6369 59.9598 75.5568 59.6533 75.5654 59.3161C75.5745 58.9642 75.6667 58.6585 75.8421 58.3989C76.0248 58.1395 76.3049 57.9413 76.6826 57.8043C77.0604 57.66 77.5499 57.5956 78.151 57.611L79.7235 57.6515L79.6978 58.6522L78.3123 58.6165C77.9091 58.6061 77.6288 58.6649 77.4715 58.7929C77.3215 58.9211 77.2439 59.0842 77.2388 59.2821C77.2332 59.502 77.313 59.6802 77.4782 59.8165C77.651 59.9456 77.8876 60.0141 78.1882 60.0218C78.4741 60.0291 78.7324 59.9698 78.963 59.8437C79.1938 59.7102 79.364 59.5129 79.4734 59.2516L79.7169 60.0501C79.5825 60.4281 79.3478 60.7118 79.0129 60.9013C78.6779 61.0907 78.2502 61.1788 77.7297 61.1654ZM85.5931 61.3677C84.9553 61.3513 84.3905 61.2084 83.8985 60.939C83.4068 60.6622 83.0239 60.2893 82.7499 59.8201C82.4832 59.351 82.3573 58.8233 82.3724 58.2368C82.3876 57.643 82.5404 57.1224 82.8306 56.6751C83.1284 56.2206 83.5298 55.8715 84.0349 55.6277C84.5402 55.3766 85.1117 55.2593 85.7495 55.2757C86.3726 55.2917 86.9117 55.4376 87.3668 55.7134C87.8221 55.9819 88.1534 56.3609 88.361 56.8504L87.012 57.5309C86.8652 57.2484 86.6762 57.0381 86.445 56.9001C86.2212 56.7623 85.9736 56.6899 85.7024 56.683C85.4091 56.6754 85.1435 56.7346 84.9056 56.8605C84.6676 56.9864 84.4758 57.1686 84.3303 57.4069C84.1922 57.6454 84.1187 57.937 84.1098 58.2815C84.101 58.6261 84.1594 58.921 84.2852 59.1663C84.4182 59.4118 84.6004 59.6036 84.8316 59.7416C85.0628 59.8796 85.325 59.9523 85.6182 59.9599C85.8895 59.9669 86.1403 59.911 86.3708 59.7922C86.6088 59.6663 86.8084 59.4623 86.9697 59.1804L88.2816 59.9404C88.0495 60.4112 87.6991 60.7727 87.2304 61.0247C86.762 61.2694 86.2162 61.3837 85.5931 61.3677ZM91.736 61.5258C91.0396 61.5078 90.5016 61.3179 90.1221 60.9561C89.7428 60.5868 89.5622 60.0503 89.5802 59.3466L89.7135 54.1563L91.4289 54.2004L91.2962 59.3687C91.2898 59.618 91.3508 59.8139 91.4792 59.9566C91.6078 60.092 91.7857 60.1626 92.013 60.1684C92.2842 60.1754 92.517 60.108 92.7114 59.9663L93.1422 61.1878C92.963 61.3079 92.748 61.3977 92.497 61.4573C92.2536 61.5097 91.9999 61.5325 91.736 61.5258ZM88.7299 56.8929L88.7638 55.5733L92.8655 55.6789L92.8316 56.9984L88.7299 56.8929Z" fill="#6C6C6C"/>
<path d="M115.995 48.8349C204.548 88.284 147.549 114.49 133.47 109.36C91.4574 94.0544 178.681 46.8197 208.653 47.832C238.102 48.8282 282.88 83.9971 313.248 91.2644C346.907 99.3199 366.451 93.6859 382.301 74.0315C398.15 54.3772 379.013 20.8092 350.57 19.7698C322.127 18.7305 295.826 52.9545 318.694 71.6154C341.562 90.2763 413.284 78.4681 430.944 63.125C448.604 47.7819 449.239 34.375 450 10" stroke="#6692F1" stroke-width="2" stroke-linecap="round" stroke-linejoin="round" stroke-dasharray="4 5"/>
<path d="M455 14.9184L449.686 8L445 16" stroke="#6692F1" stroke-width="2" stroke-linecap="round" stroke-linejoin="round"/>
</svg>
