<svg width="16" height="16" viewBox="0 0 16 16" fill="none" xmlns="http://www.w3.org/2000/svg">
<path d="M14.0101 0.350098H1.98916C1.55433 0.350098 1.1373 0.522834 0.829824 0.830311C0.522348 1.13779 0.349609 1.55482 0.349609 1.98965L0.349609 14.0105C0.349609 14.4454 0.522348 14.8624 0.829824 15.1699C1.1373 15.4774 1.55433 15.6501 1.98916 15.6501H14.0101C14.4449 15.6501 14.8619 15.4774 15.1694 15.1699C15.4769 14.8624 15.6496 14.4454 15.6496 14.0105V1.98965C15.6496 1.55482 15.4769 1.13779 15.1694 0.830311C14.8619 0.522834 14.4449 0.350098 14.0101 0.350098ZM8.54644 10.1855H6.90689V11.8251C6.90664 11.9701 6.84894 12.109 6.74645 12.2115C6.64395 12.314 6.50501 12.3717 6.36005 12.3719H5.26733C5.12238 12.3717 4.98343 12.314 4.88094 12.2115C4.77844 12.109 4.72075 11.9701 4.7205 11.8251V4.1751C4.72075 4.03014 4.77844 3.8912 4.88094 3.7887C4.98343 3.68621 5.12238 3.62851 5.26733 3.62826H8.54644C9.41599 3.62826 10.2499 3.97369 10.8648 4.58855C11.4797 5.20342 11.8251 6.03735 11.8251 6.9069C11.8251 7.77645 11.4797 8.61039 10.8648 9.22525C10.2499 9.84011 9.41599 10.1855 8.54644 10.1855ZM8.54644 5.81371H6.90689V8.0001H8.54644C8.83625 8.0001 9.11419 7.88497 9.31911 7.68005C9.52404 7.47512 9.63916 7.19718 9.63916 6.90738C9.63916 6.61757 9.52404 6.33963 9.31911 6.1347C9.11419 5.92978 8.83625 5.81465 8.54644 5.81465V5.81371Z" fill="#919191"/>
</svg>
