<svg xmlns="http://www.w3.org/2000/svg" width="18" height="18" viewBox="0 0 18 18">
  <g id="Group_70911" data-name="Group 70911" transform="translate(-1319 -617.334)">
    <rect id="Rectangle_57058" data-name="Rectangle 57058" width="18" height="18" transform="translate(1319 617.334)" fill="none"/>
    <path id="Path_35729" data-name="Path 35729" d="M17.2,32.85A14.68,14.68,0,0,1,2.525,47.534H2.519a.759.759,0,0,1-.739-.589l-.409-1.769-.231-1-.122-.521a.769.769,0,0,1,.445-.875L5,41.261a.755.755,0,0,1,.886.218l.4.488.668.815.5.618a11.735,11.735,0,0,0,5.608-5.605l-.614-.5-.814-.669-.488-.4a.754.754,0,0,1-.218-.887l1.516-3.546a.762.762,0,0,1,.869-.436l.525.118,1,.23,1.764.408a.76.76,0,0,1,.588.74" transform="translate(1318.9 586.9)" fill="#aaa"/>
  </g>
</svg>
