<svg id="Profile_Pic" data-name="Profile Pic" xmlns="http://www.w3.org/2000/svg" width="32" height="32" viewBox="0 0 32 32">
  <path id="Path_24414" data-name="Path 24414" d="M16,0A16,16,0,1,1,0,16,16,16,0,0,1,16,0Z" fill="#dadada"/>
  <path id="Intersection_4" data-name="Intersection 4" d="M.507,3.791a23.015,23.015,0,0,1,25.31,0A15.973,15.973,0,0,1,13.163,10,15.973,15.973,0,0,1,.507,3.791Z" transform="translate(2.838 22)" fill="#b7b7b7"/>
  <path id="Path_24411" data-name="Path 24411" d="M10,0A10,10,0,1,1,0,10,10,10,0,0,1,10,0Z" transform="translate(6 6)" fill="#919191" opacity="0.7"/>
</svg>
