<svg width="10" height="14" viewBox="0 0 10 14" fill="none" xmlns="http://www.w3.org/2000/svg">
<path d="M8.54395 2.2752H6.57539C6.57539 1.85748 6.40945 1.45687 6.11408 1.1615C5.81871 0.866132 5.41811 0.700195 5.00039 0.700195C4.58267 0.700195 4.18207 0.866132 3.8867 1.1615C3.59133 1.45687 3.42539 1.85748 3.42539 2.2752H1.45684C1.1435 2.2752 0.842992 2.39967 0.621428 2.62123C0.399864 2.8428 0.275391 3.1433 0.275391 3.45664L0.275391 12.1187C0.275391 12.2739 0.30595 12.4275 0.365323 12.5709C0.424696 12.7142 0.51172 12.8445 0.621428 12.9542C0.731135 13.0639 0.861376 13.1509 1.00472 13.2103C1.14806 13.2696 1.30169 13.3002 1.45684 13.3002H8.54395C8.6991 13.3002 8.85273 13.2696 8.99607 13.2103C9.13941 13.1509 9.26965 13.0639 9.37935 12.9542C9.48906 12.8445 9.57609 12.7142 9.63546 12.5709C9.69483 12.4275 9.72539 12.2739 9.72539 12.1187V3.45664C9.72539 3.1433 9.60092 2.8428 9.37935 2.62123C9.15779 2.39967 8.85729 2.2752 8.54395 2.2752ZM5.00039 1.68486C5.11715 1.68486 5.23128 1.71948 5.32836 1.78435C5.42544 1.84922 5.50111 1.94142 5.54579 2.04928C5.59047 2.15715 5.60216 2.27585 5.57938 2.39036C5.5566 2.50488 5.50038 2.61006 5.41782 2.69262C5.33526 2.77518 5.23007 2.83141 5.11556 2.85419C5.00105 2.87696 4.88235 2.86527 4.77448 2.82059C4.66661 2.77591 4.57441 2.70025 4.50955 2.60317C4.44468 2.50609 4.41006 2.39195 4.41006 2.2752C4.40996 2.19764 4.42516 2.12083 4.45479 2.04916C4.48442 1.97749 4.5279 1.91238 4.58273 1.85754C4.63757 1.8027 4.70269 1.75922 4.77436 1.72959C4.84603 1.69996 4.92284 1.68476 5.00039 1.68486ZM1.88928 5.85375L2.20039 5.54264C2.22517 5.51794 2.25874 5.50407 2.29372 5.50407C2.32871 5.50407 2.36227 5.51794 2.38706 5.54264L2.89417 6.05442L4.06784 4.89397C4.09262 4.86928 4.12618 4.85541 4.16117 4.85541C4.19616 4.85541 4.22972 4.86928 4.2545 4.89397L4.56561 5.20508C4.59031 5.22987 4.60418 5.26343 4.60418 5.29842C4.60418 5.33341 4.59031 5.36697 4.56561 5.39175L2.98517 6.95819C2.96039 6.98289 2.92682 6.99676 2.89184 6.99676C2.85685 6.99676 2.82329 6.98289 2.7985 6.95819L1.89006 6.04042C1.86536 6.01563 1.85149 5.98207 1.85149 5.94708C1.85149 5.9121 1.86536 5.87853 1.89006 5.85375H1.88928ZM2.6375 10.3446C2.52075 10.3446 2.40661 10.31 2.30953 10.2451C2.21245 10.1803 2.13679 10.0881 2.09211 9.98022C2.04742 9.87235 2.03573 9.75365 2.05851 9.63914C2.08129 9.52462 2.13751 9.41944 2.22007 9.33688C2.30263 9.25432 2.40782 9.19809 2.52233 9.17531C2.63685 9.15254 2.75554 9.16423 2.86341 9.20891C2.97128 9.25359 3.06348 9.32925 3.12835 9.42633C3.19321 9.52341 3.22784 9.63755 3.22784 9.75431C3.22794 9.83186 3.21274 9.90867 3.18311 9.98034C3.15348 10.052 3.11 10.1171 3.05516 10.172C3.00032 10.2268 2.9352 10.2703 2.86353 10.2999C2.79187 10.3295 2.71505 10.3447 2.6375 10.3446ZM8.15039 9.95108C8.15019 10.0032 8.12939 10.0531 8.09253 10.09C8.05567 10.1269 8.00574 10.1477 7.95361 10.1479H4.41006C4.35793 10.1477 4.308 10.1269 4.27114 10.09C4.23428 10.0531 4.21348 10.0032 4.21328 9.95108V9.55753C4.21348 9.5054 4.23428 9.45547 4.27114 9.41861C4.308 9.38175 4.35793 9.36096 4.41006 9.36075H7.95361C8.00574 9.36096 8.05567 9.38175 8.09253 9.41861C8.12939 9.45547 8.15019 9.5054 8.15039 9.55753V9.95108ZM8.15039 6.80108C8.14467 6.85776 8.11712 6.90999 8.07357 6.94672C8.03002 6.98344 7.97389 7.00179 7.91706 6.99786H4.06784L4.86428 6.21231H7.91395C7.97078 6.20838 8.02691 6.22672 8.07046 6.26345C8.11401 6.30018 8.14156 6.3524 8.14728 6.40908V6.80264L8.15039 6.80108Z" fill="#6C6C6C"/>
</svg>
