<svg xmlns="http://www.w3.org/2000/svg" width="19.021" height="19.016" viewBox="0 0 19.021 19.016">
  <path id="Union_596" data-name="Union 596" d="M13103.69-6599a.843.843,0,0,1-.823-.652l-.454-1.966-.257-1.113-.135-.58a.848.848,0,0,1,.494-.972l3.935-1.689a.84.84,0,0,1,.984.244l.444.54.741.905.56.685a13.028,13.028,0,0,0,6.233-6.227l-.682-.56-.906-.741-.54-.445a.834.834,0,0,1-.243-.984l1.686-3.938a.843.843,0,0,1,.965-.487l.583.131,1.116.257,1.959.455a.844.844,0,0,1,.655.823,16.312,16.312,0,0,1-16.312,16.312Zm2.309-9a.5.5,0,0,1-.5-.5v-2h-2a.5.5,0,0,1-.5-.5v-2a.5.5,0,0,1,.5-.5h2v-2a.5.5,0,0,1,.5-.5h2a.5.5,0,0,1,.5.5v2h2a.5.5,0,0,1,.5.5v2a.5.5,0,0,1-.5.5h-2v2a.5.5,0,0,1-.5.5Z" transform="translate(-13101.484 6617.517)" fill="#b7b7b7" stroke="rgba(0,0,0,0)" stroke-width="1"/>
</svg>
