<svg width="18" height="18" viewBox="0 0 18 18" fill="none" xmlns="http://www.w3.org/2000/svg">
<path d="M3.50062 15.3V2.70011C3.50357 2.46488 3.41457 2.23806 3.25314 2.06934C3.09171 1.90063 2.87101 1.80379 2.63941 1.80005L1.76819 1.80005C1.65325 1.80098 1.53962 1.82489 1.43379 1.87043C1.32795 1.91596 1.23198 1.98222 1.15136 2.06542C1.07074 2.14862 1.00704 2.24714 0.963907 2.35534C0.920774 2.46354 0.899049 2.57932 0.899972 2.69605V15.3C0.898518 15.4167 0.91972 15.5326 0.962365 15.641C1.00501 15.7494 1.06827 15.8482 1.14852 15.9318C1.22877 16.0154 1.32445 16.0821 1.43008 16.1281C1.53572 16.1742 1.64925 16.1986 1.76419 16.2H2.63641C2.75134 16.1991 2.86497 16.1752 2.97081 16.1297C3.07665 16.0841 3.17262 16.0179 3.25324 15.9347C3.33386 15.8515 3.39756 15.753 3.44069 15.6448C3.48382 15.5366 3.50555 15.4208 3.50463 15.304M5.24006 6.60005H10.1593V3.30862C10.1563 3.1622 10.1967 3.01824 10.2751 2.89537C10.3536 2.7725 10.4666 2.67639 10.5995 2.61948C10.7323 2.56257 10.879 2.54748 11.0204 2.57617C11.1618 2.60485 11.2915 2.67599 11.3926 2.78037L16.894 8.48551C17.026 8.62322 17.0999 8.80784 17.0999 9.00005C17.0999 9.19226 17.026 9.37688 16.894 9.51459L11.3926 15.2207C11.291 15.3249 11.161 15.3957 11.0194 15.4239C10.8778 15.4522 10.731 15.4367 10.5982 15.3793C10.4654 15.322 10.3525 15.2255 10.2743 15.1023C10.196 14.9792 10.156 14.835 10.1593 14.6884V11.397H5.24006C5.12512 11.3961 5.01149 11.3722 4.90566 11.3266C4.79982 11.2811 4.70385 11.2148 4.62323 11.1316C4.54261 11.0484 4.47891 10.9499 4.43578 10.8417C4.39264 10.7335 4.37092 10.6177 4.37184 10.501V7.50011C4.37039 7.38338 4.39159 7.2675 4.43424 7.15909C4.47688 7.05068 4.54014 6.95186 4.62039 6.86828C4.70064 6.7847 4.79632 6.71799 4.90195 6.67197C5.00759 6.62595 5.12112 6.60151 5.23606 6.60005" fill="#919191"/>
</svg>
