<svg width="20" height="20" viewBox="0 0 20 20" fill="none" xmlns="http://www.w3.org/2000/svg">
<path d="M3.88969 16.9999V3.00007C3.89296 2.7387 3.79408 2.48667 3.61471 2.29922C3.43534 2.11176 3.19012 2.00416 2.93278 2H1.96476C1.83706 2.00103 1.7108 2.0276 1.5932 2.0782C1.47561 2.12879 1.36898 2.20241 1.2794 2.29486C1.18982 2.3873 1.11904 2.49676 1.07112 2.61699C1.02319 2.73722 0.999052 2.86585 1.00008 2.99556V16.9999C0.998462 17.1296 1.02202 17.2584 1.0694 17.3788C1.11679 17.4993 1.18707 17.6091 1.27624 17.702C1.36541 17.7948 1.47172 17.869 1.58909 17.9201C1.70647 17.9712 1.83261 17.9984 1.96032 18H2.92945C3.05716 17.999 3.18341 17.9724 3.30101 17.9218C3.41861 17.8712 3.52524 17.7976 3.61482 17.7051C3.7044 17.6127 3.77517 17.5032 3.8231 17.383C3.87102 17.2628 3.89516 17.1341 3.89414 17.0044M5.8224 7.33333H11.2882V3.67619C11.2849 3.5135 11.3297 3.35354 11.4169 3.21702C11.5041 3.08051 11.6297 2.97372 11.7773 2.91048C11.9249 2.84725 12.0878 2.83048 12.245 2.86235C12.4021 2.89422 12.5462 2.97326 12.6586 3.08924L18.7712 9.42829C18.9179 9.5813 19 9.78643 19 10C19 10.2136 18.9179 10.4187 18.7712 10.5717L12.6586 16.9119C12.5457 17.0276 12.4012 17.1062 12.2439 17.1377C12.0865 17.1691 11.9235 17.1518 11.7759 17.0881C11.6283 17.0244 11.5029 16.9172 11.416 16.7803C11.329 16.6435 11.2845 16.4833 11.2882 16.3204V12.6633H5.8224C5.69469 12.6622 5.56843 12.6357 5.45084 12.5851C5.33324 12.5345 5.22661 12.4609 5.13703 12.3684C5.04745 12.276 4.97668 12.1665 4.92875 12.0463C4.88082 11.9261 4.85669 11.7974 4.85771 11.6677V8.3334C4.8561 8.2037 4.87965 8.07494 4.92704 7.95449C4.97442 7.83403 5.0447 7.72424 5.13387 7.63137C5.22304 7.5385 5.32935 7.46438 5.44672 7.41324C5.5641 7.36211 5.69024 7.33495 5.81795 7.33333" fill="black"/>
</svg>
