<svg xmlns="http://www.w3.org/2000/svg" width="20" height="20" viewBox="0 0 20 20">
  <g id="Places" transform="translate(-92 -889)">
    <rect id="Rectangle_52467" data-name="Rectangle 52467" width="20" height="19.994" transform="translate(92 889)" fill="#b7b7b7" opacity="0"/>
    <path id="Union_811" data-name="Union 811" d="M8.595,19.943a.643.643,0,0,1-.1-.1A13.986,13.986,0,0,0,4.284,16.1c-.076-.049-.193-.125-.285-.178-.068-.049-.123-.076-.131-.084A8.6,8.6,0,0,1,.161,10.3a8.5,8.5,0,0,1,1.357-6.5A8.874,8.874,0,0,1,13.743,1.5a8.574,8.574,0,0,1-.025,14.342c-.008,0-.016.008-.029.014a.1.1,0,0,1-.035.021l-.055.035c-.1.061-.23.143-.3.191a13.85,13.85,0,0,0-4.213,3.743.368.368,0,0,1-.3.152A.374.374,0,0,1,8.595,19.943ZM2.71,8.673a6.093,6.093,0,0,0,12.184,0,6.093,6.093,0,0,0-12.184,0Zm2.711,0A3.382,3.382,0,1,1,8.8,12,3.358,3.358,0,0,1,5.421,8.673Z" transform="translate(93.198 889)" fill="#b7b7b7"/>
  </g>
</svg>
