<svg width="14" height="14" viewBox="0 0 14 14" fill="none" xmlns="http://www.w3.org/2000/svg"> <path d="M7.00156 0.351562C5.68632 0.351562 4.40061 0.741578 3.30702 1.47229C2.21344 2.203 1.36109 3.24159 0.857767 4.45672C0.354444 5.67185 0.222752 7.00894 0.479343 8.29891C0.735935 9.58889 1.36929 10.7738 2.29931 11.7038C3.22932 12.6338 4.41424 13.2672 5.70422 13.5238C6.99419 13.7804 8.33128 13.6487 9.54641 13.1454C10.7615 12.642 11.8001 11.7897 12.5308 10.6961C13.2615 9.60252 13.6516 8.31681 13.6516 7.00156C13.6514 5.23794 12.9507 3.5466 11.7036 2.29953C10.4565 1.05246 8.76519 0.351769 7.00156 0.351562ZM7.00156 12.3643C5.94014 12.3643 4.90255 12.0496 4.02 11.4599C3.13746 10.8702 2.4496 10.032 2.04341 9.05141C1.63722 8.07078 1.53094 6.99172 1.73802 5.95069C1.94509 4.90966 2.45622 3.95341 3.20676 3.20287C3.9573 2.45233 4.91355 1.9412 5.95458 1.73413C6.99561 1.52705 8.07467 1.63333 9.0553 2.03952C10.0359 2.44571 10.8741 3.13357 11.4638 4.01611C12.0535 4.89866 12.3682 5.93625 12.3682 6.99767C12.3692 7.70269 12.231 8.40097 11.9616 9.0525C11.6922 9.70403 11.297 10.296 10.7984 10.7945C10.2999 11.2931 9.70792 11.6883 9.05639 11.9577C8.40486 12.2271 7.70658 12.3653 7.00156 12.3643ZM8.12934 9.57601C8.12934 9.79875 8.06329 10.0165 7.93954 10.2017C7.81579 10.3869 7.6399 10.5313 7.43411 10.6165C7.22832 10.7017 7.00187 10.724 6.78341 10.6806C6.56494 10.6371 6.36427 10.5299 6.20676 10.3724C6.04926 10.2149 5.94199 10.0142 5.89854 9.79572C5.85508 9.57726 5.87739 9.35081 5.96263 9.14502C6.04787 8.93923 6.19222 8.76334 6.37743 8.63959C6.56263 8.51584 6.78038 8.44978 7.00312 8.44978C7.30169 8.4502 7.58791 8.56898 7.79903 8.7801C8.01014 8.99122 8.12893 9.27744 8.12934 9.57601ZM5.94768 3.90756L6.12968 7.55456C6.13386 7.63696 6.16952 7.71462 6.22929 7.7715C6.28906 7.82837 6.36839 7.86014 6.4509 7.86023H7.55379C7.6363 7.86014 7.71562 7.82837 7.7754 7.7715C7.83517 7.71462 7.87083 7.63696 7.87501 7.55456L8.05701 3.90756C8.05911 3.86405 8.05237 3.82057 8.03718 3.77974C8.02199 3.73891 7.99868 3.70159 7.96865 3.67003C7.93862 3.63847 7.9025 3.61334 7.86247 3.59615C7.82245 3.57895 7.77935 3.57006 7.73579 3.57001H6.26734C6.22385 3.57007 6.18082 3.57894 6.14085 3.59608C6.10088 3.61323 6.0648 3.63829 6.03478 3.66976C6.00476 3.70124 5.98143 3.73846 5.96619 3.7792C5.95095 3.81994 5.94412 3.86334 5.94612 3.90678L5.94768 3.90756Z" fill="#FAB15C"/> </svg>