<svg width="18" height="18" viewBox="0 0 18 18" fill="none" xmlns="http://www.w3.org/2000/svg">
<path d="M1.16581 6.84899L6.73363 1.98665C6.84381 1.8904 6.97875 1.82828 7.1225 1.80763C7.26625 1.78699 7.4128 1.80869 7.54482 1.87016C7.67684 1.93163 7.78882 2.03031 7.86752 2.15452C7.94622 2.27874 7.98835 2.4233 7.98892 2.57112V5.14815C13.0698 5.17701 17.0999 6.21401 17.0999 11.1166C17.0499 12.0909 16.7879 13.0418 16.3326 13.9004C15.8774 14.759 15.2405 15.5038 14.4678 16.0809C14.3748 16.154 14.2616 16.1955 14.1442 16.1997C14.0268 16.2039 13.911 16.1706 13.8131 16.1045C13.7152 16.0383 13.6401 15.9426 13.5983 15.8308C13.5565 15.719 13.5501 15.5967 13.58 15.481C15.0105 10.8125 12.8957 9.57239 7.98892 9.49818V12.3308C7.98835 12.4787 7.94622 12.6232 7.86752 12.7474C7.78882 12.8717 7.67684 12.9703 7.54482 13.0318C7.4128 13.0933 7.26625 13.115 7.1225 13.0943C6.97875 13.0737 6.84381 13.0116 6.73363 12.9153L1.16581 8.04782C1.08224 7.97285 1.01531 7.88063 0.969463 7.77727C0.923615 7.67392 0.899902 7.56181 0.899902 7.44841C0.899902 7.335 0.923615 7.22289 0.969463 7.11954C1.01531 7.01619 1.08224 6.92396 1.16581 6.84899Z" fill="#6692F1"/>
</svg>
