<svg width="18" height="18" viewBox="0 0 18 18" fill="none" xmlns="http://www.w3.org/2000/svg">
<g clip-path="url(#clip0_11477_13346)">
<path d="M6.36554 17.0999C6.19523 17.0962 6.03338 17.0257 5.91503 16.9032C5.79667 16.7808 5.73136 16.6168 5.73354 16.4466V8.91248C5.7322 8.82826 5.74749 8.74469 5.77854 8.66638C5.80959 8.58808 5.85583 8.51631 5.91453 8.45587C5.97323 8.39542 6.04336 8.34691 6.12075 8.31355C6.19815 8.28018 6.28126 8.26334 6.36554 8.26215H16.4712C16.5554 8.26333 16.6385 8.28114 16.7158 8.31453C16.793 8.34793 16.8628 8.39538 16.9212 8.45587C16.9797 8.51635 17.0255 8.5881 17.0562 8.66638C17.087 8.74467 17.102 8.82841 17.1003 8.91248V16.4466C17.1035 16.6166 17.0392 16.7806 16.9212 16.9032C16.8033 17.0258 16.6413 17.0964 16.4712 17.0999H6.36554ZM14.5215 14.8603C14.5524 14.8879 14.5865 14.912 14.6229 14.9315C14.7236 14.9852 14.8416 14.9967 14.951 14.9641C15.0605 14.9315 15.1524 14.8576 15.2072 14.7575C15.2661 14.6529 15.2823 14.5289 15.2525 14.4126C15.2226 14.2963 15.1492 14.1964 15.0472 14.1329L13.1574 12.681L15.0472 11.2272C15.0772 11.2118 15.1041 11.1903 15.1263 11.1649C15.2125 11.0812 15.2628 10.9677 15.2665 10.8477C15.2703 10.7276 15.2274 10.6105 15.1466 10.5215L15.1345 10.5067C15.054 10.4268 14.9455 10.3815 14.8321 10.3802C14.7187 10.3788 14.6091 10.4218 14.5267 10.4998L11.4236 12.8826L8.31942 10.4998C8.29466 10.4758 8.26743 10.454 8.23832 10.4355L8.22423 10.4286C8.17415 10.4011 8.11909 10.3834 8.06227 10.3772C8.00544 10.3711 7.94795 10.3768 7.89314 10.393C7.83833 10.4092 7.78715 10.4361 7.7428 10.4721C7.69845 10.5081 7.6618 10.5522 7.63475 10.6025C7.57466 10.7068 7.55762 10.83 7.58752 10.9465C7.61742 11.063 7.69186 11.1637 7.79473 11.2262L9.68654 12.68L7.79473 14.1319C7.72165 14.2034 7.67426 14.2966 7.65997 14.3978C7.64568 14.499 7.66517 14.6024 7.7156 14.6913L7.72277 14.7061C7.75187 14.7551 7.79036 14.7986 7.83602 14.8326C7.88169 14.8667 7.93359 14.8909 7.98883 14.9048C8.04407 14.9187 8.1016 14.922 8.15796 14.9137C8.21432 14.9054 8.26836 14.8857 8.3172 14.8564L10.4189 13.2434L11.1612 13.8097C11.2359 13.8684 11.3281 13.9006 11.4231 13.9006C11.518 13.9006 11.6103 13.8684 11.6849 13.8097L12.4272 13.2434L14.5215 14.8603ZM4.5081 15.5798C3.44851 14.8904 2.56903 13.9585 1.94274 12.8609C0.89771 11.0168 0.62533 8.83365 1.18512 6.78952C1.74491 4.7454 3.09134 3.00606 4.93042 1.9506C5.86854 1.41272 6.90698 1.07224 7.98166 0.950399C9.05634 0.828563 10.1447 0.927752 11.1795 1.24196C12.5103 1.63261 13.7151 2.36508 14.6736 3.36689L15.725 2.31431C15.8575 2.18454 16.0357 2.11167 16.2212 2.1117C16.4067 2.11223 16.5844 2.18624 16.7155 2.31728C16.8466 2.44831 16.9205 2.62515 16.921 2.81046V6.7065C16.9205 6.89181 16.8466 7.06865 16.7155 7.19968C16.5844 7.33072 16.4067 7.40473 16.2212 7.40526H12.3239C12.1381 7.40616 11.9597 7.33316 11.8276 7.20265C11.6977 7.07022 11.6251 6.89293 11.6251 6.70749C11.6251 6.52205 11.6977 6.34377 11.8276 6.21134L13.0835 4.95615C12.3936 4.21863 11.5196 3.67805 10.5515 3.38963C9.08771 2.95528 7.51138 3.11791 6.16749 3.84229C4.82359 4.56667 3.82154 5.79413 3.38082 7.25503C3.16395 7.97956 3.09261 8.73943 3.17065 9.49165C3.24869 10.2439 3.47479 10.9737 3.83579 11.6383C4.05163 12.0312 4.30974 12.3994 4.60552 12.7364C4.77874 12.923 4.87682 13.1668 4.88097 13.4213V15.3713C4.88018 15.4364 4.85374 15.4993 4.80753 15.5452C4.76133 15.5912 4.69891 15.6169 4.63371 15.6174C4.588 15.6165 4.54361 15.602 4.50612 15.5759L4.5081 15.5798Z" fill="#919191"/>
</g>
<defs>
<clipPath id="clip0_11477_13346">
<rect width="18" height="18" fill="white"/>
</clipPath>
</defs>
</svg>
