<svg xmlns="http://www.w3.org/2000/svg" width="18" height="18" viewBox="0 0 18 18">
  <g id="Reload_Refresh" data-name="Reload / Refresh" opacity="1">
    <rect id="Rectangle_61640" data-name="Rectangle 61640" width="18" height="18" fill="#fff" opacity="0"/>
    <path id="Union_677" data-name="Union 677" d="M2.673,2.088,2.657,2.1a.388.388,0,0,0,0,.553l1.3,1.3a.391.391,0,0,0,.534.019A5.428,5.428,0,0,1,8.1,2.613a5.486,5.486,0,1,1-3.747,9.5L2.5,13.957A8.1,8.1,0,1,0,2.673,2.088ZM.784,9.408a.781.781,0,0,0-.784.78v4.381a.785.785,0,0,0,1.34.553l4.378-4.377a.783.783,0,0,0-.556-1.337Z" transform="translate(17.1 17.1) rotate(180)" fill="#fff"/>
  </g>
</svg>
