<svg xmlns="http://www.w3.org/2000/svg" width="19" height="19" viewBox="0 0 19 19"><g transform="translate(0.5 0.5)"><path d="M-5468.432-10887.891h-.017a8.5,8.5,0,0,1-6.057-2.511,8.475,8.475,0,0,1-2.492-6.05,8.563,8.563,0,0,1,8.558-8.55,8.521,8.521,0,0,1,6.042,2.513,8.51,8.51,0,0,1,2.508,6.037v.011A8.566,8.566,0,0,1-5468.432-10887.891Zm-.017-15.049a6.511,6.511,0,0,0-6.5,6.508,6.517,6.517,0,0,0,6.508,6.491h.011a6.461,6.461,0,0,0,4.59-1.913,6.449,6.449,0,0,0,1.891-4.6A6.5,6.5,0,0,0-5468.449-10902.939Zm.02,12.378h-.031a5.881,5.881,0,0,1-5.87-5.879,5.887,5.887,0,0,1,5.881-5.881h.014a5.9,5.9,0,0,1,5.875,5.881A5.881,5.881,0,0,1-5468.43-10890.562Zm2.328-3.963a1.281,1.281,0,0,0-.768.255,1.3,1.3,0,0,0-.535,1.036,1.281,1.281,0,0,0,.256.783,1.311,1.311,0,0,0,1.054.527,1.294,1.294,0,0,0,.766-.248,1.3,1.3,0,0,0,.529-1.044,1.287,1.287,0,0,0-.25-.775A1.317,1.317,0,0,0-5466.1-10894.524Zm-4.671.016a1.3,1.3,0,0,0-1.036.519,1.261,1.261,0,0,0-.249.769,1.314,1.314,0,0,0,.519,1.032,1.267,1.267,0,0,0,.756.247,1.3,1.3,0,0,0,1.042-.519,1.281,1.281,0,0,0,.248-.744,1.3,1.3,0,0,0-.527-1.057A1.257,1.257,0,0,0-5470.773-10894.509Zm2.322-3.937a1.992,1.992,0,0,0-1.416.592,1.994,1.994,0,0,0-.584,1.42,2.008,2.008,0,0,0,2.006,2h.005a2.007,2.007,0,0,0,2-2.009,2.008,2.008,0,0,0-2-2Zm3.791-.518a1.3,1.3,0,0,0-.4.063,1.313,1.313,0,0,0-.891,1.246,1.3,1.3,0,0,0,.062.385,1.286,1.286,0,0,0,1.229.883,1.285,1.285,0,0,0,.4-.064,1.274,1.274,0,0,0,.892-1.229,1.264,1.264,0,0,0-.063-.38v-.011A1.288,1.288,0,0,0-5464.661-10898.964Zm-7.569.01a1.281,1.281,0,0,0-1.219.894,1.313,1.313,0,0,0-.055.378,1.306,1.306,0,0,0,.884,1.231,1.245,1.245,0,0,0,.4.064,1.284,1.284,0,0,0,1.224-.894,1.263,1.263,0,0,0,.062-.38,1.285,1.285,0,0,0-.892-1.229A1.276,1.276,0,0,0-5472.23-10898.954Zm3.789-2.776a1.313,1.313,0,0,0-1.3,1.3,1.3,1.3,0,0,0,1.3,1.3,1.3,1.3,0,0,0,1.3-1.3,1.324,1.324,0,0,0-1.3-1.3Z" transform="translate(5477.44 10905.44)" fill="#aaa" stroke="rgba(0,0,0,0)" stroke-width="1"/><rect width="18" height="18" fill="none" stroke="rgba(0,0,0,0)" stroke-width="1"/></g></svg>