<svg xmlns="http://www.w3.org/2000/svg" width="19" height="19" viewBox="0 0 19 19"><g transform="translate(-746.5 -647.5)"><rect width="18" height="18" transform="translate(747 648)" fill="#aaa" stroke="rgba(0,0,0,0)" stroke-width="1" opacity="0"/><path d="M11.033,146.963v2.05H5.965v-2.05a1.068,1.068,0,0,0-1.823-.755l-3.83,3.83a1.068,1.068,0,0,0,0,1.51l3.83,3.83a1.068,1.068,0,0,0,1.823-.755v-2.05h5.068v2.05a1.068,1.068,0,0,0,1.823.755l3.83-3.83a1.068,1.068,0,0,0,0-1.51l-3.83-3.83a1.068,1.068,0,0,0-1.823.755Z" transform="translate(747.501 506.207)" fill="#aaa" stroke="rgba(0,0,0,0)" stroke-width="1"/></g></svg>