<svg width="20" height="20" viewBox="0 0 20 20" fill="none" xmlns="http://www.w3.org/2000/svg">
<path d="M4.30807 16.6043L16.6039 4.30724C16.7931 4.11818 16.9219 3.87723 16.974 3.61491C17.0262 3.35258 16.9994 3.08067 16.8969 2.83361C16.7944 2.58655 16.621 2.37546 16.3985 2.22706C16.176 2.07867 15.9144 1.99965 15.647 2H3.35227C2.99381 2 2.65002 2.14234 2.39645 2.39573C2.14288 2.64913 2.00028 2.99284 2 3.35134V15.6495C2.00037 15.9167 2.07991 16.1779 2.2286 16.4C2.37728 16.6221 2.58843 16.7951 2.83538 16.8973C3.08233 16.9995 3.35402 17.0262 3.61613 16.974C3.87824 16.9219 4.11902 16.7932 4.30807 16.6043Z" fill="black"/>
</svg>
