<svg id="Group_78149" data-name="Group 78149" xmlns="http://www.w3.org/2000/svg" width="14" height="14" viewBox="0 0 14 14">
  <rect id="Rectangle_61667" data-name="Rectangle 61667" width="14" height="14" fill="#4db6a2" opacity="0"/>
  <path id="thumbs-up" d="M3.15,42.215V36.7a.769.769,0,0,0-.788-.765H.787A.783.783,0,0,0,0,36.7v5.49a.769.769,0,0,0,.787.765H2.362A.714.714,0,0,0,3.15,42.215Zm9.45-5.488a1.181,1.181,0,0,0-1.181-1.181H7.813a6.007,6.007,0,0,0,.85-2.363A1.19,1.19,0,0,0,7.444,32c-1.554,0-.649,1.874-2.663,3.485l-.4.32a1.186,1.186,0,0,0-.441.92h0l0,3.938a1.181,1.181,0,0,0,.472.945l.84.63a3.926,3.926,0,0,0,2.362.788H9.056a1.174,1.174,0,0,0,1.151-1.44,1.169,1.169,0,0,0,.642-1.731A1.174,1.174,0,0,0,11.5,37.9,1.178,1.178,0,0,0,12.6,36.727Z" transform="translate(0.7 -31.3)" fill="#4db6a2"/>
</svg>
