<svg width="14" height="14" viewBox="0 0 14 14" fill="none" xmlns="http://www.w3.org/2000/svg">
<path d="M12.4443 5.44466V3.88911C12.4443 3.68283 12.3624 3.485 12.2165 3.33913C12.0707 3.19327 11.8728 3.11133 11.6666 3.11133L10.111 3.11133C9.90472 3.11133 9.70689 3.19327 9.56103 3.33913C9.41517 3.485 9.33323 3.68283 9.33323 3.88911V5.44466C9.33323 5.65094 9.41517 5.84877 9.56103 5.99463C9.70689 6.14049 9.90472 6.22244 10.111 6.22244H11.6666C11.8728 6.22244 12.0707 6.14049 12.2165 5.99463C12.3624 5.84877 12.4443 5.65094 12.4443 5.44466ZM8.55545 5.44466V3.88911C8.55545 3.68283 8.4735 3.485 8.32764 3.33913C8.18178 3.19327 7.98395 3.11133 7.77767 3.11133H6.22211C6.01583 3.11133 5.818 3.19327 5.67214 3.33913C5.52628 3.485 5.44434 3.68283 5.44434 3.88911V5.44466C5.44434 5.65094 5.52628 5.84877 5.67214 5.99463C5.818 6.14049 6.01583 6.22244 6.22211 6.22244H7.77767C7.98395 6.22244 8.18178 6.14049 8.32764 5.99463C8.4735 5.84877 8.55545 5.65094 8.55545 5.44466ZM4.66656 5.44466V3.88911C4.66656 3.68283 4.58462 3.485 4.43875 3.33913C4.29289 3.19327 4.09506 3.11133 3.88878 3.11133L2.33323 3.11133C2.12695 3.11133 1.92911 3.19327 1.78325 3.33913C1.63739 3.485 1.55545 3.68283 1.55545 3.88911V5.44466C1.55545 5.65094 1.63739 5.84877 1.78325 5.99463C1.92911 6.14049 2.12695 6.22244 2.33323 6.22244H3.88878C4.09506 6.22244 4.29289 6.14049 4.43875 5.99463C4.58462 5.84877 4.66656 5.65094 4.66656 5.44466ZM12.4443 10.1113V8.55577C12.4443 8.34949 12.3624 8.15166 12.2165 8.0058C12.0707 7.85994 11.8728 7.77799 11.6666 7.77799H10.111C9.90472 7.77799 9.70689 7.85994 9.56103 8.0058C9.41517 8.15166 9.33323 8.34949 9.33323 8.55577V10.1113C9.33323 10.3176 9.41517 10.5154 9.56103 10.6613C9.70689 10.8072 9.90472 10.8891 10.111 10.8891H11.6666C11.8728 10.8891 12.0707 10.8072 12.2165 10.6613C12.3624 10.5154 12.4443 10.3176 12.4443 10.1113ZM8.55545 10.1113V8.55577C8.55545 8.34949 8.4735 8.15166 8.32764 8.0058C8.18178 7.85994 7.98395 7.77799 7.77767 7.77799H6.22211C6.01583 7.77799 5.818 7.85994 5.67214 8.0058C5.52628 8.15166 5.44434 8.34949 5.44434 8.55577V10.1113C5.44434 10.3176 5.52628 10.5154 5.67214 10.6613C5.818 10.8072 6.01583 10.8891 6.22211 10.8891H7.77767C7.98395 10.8891 8.18178 10.8072 8.32764 10.6613C8.4735 10.5154 8.55545 10.3176 8.55545 10.1113ZM4.66656 10.1113V8.55577C4.66656 8.34949 4.58462 8.15166 4.43875 8.0058C4.29289 7.85994 4.09506 7.77799 3.88878 7.77799H2.33323C2.12695 7.77799 1.92911 7.85994 1.78325 8.0058C1.63739 8.15166 1.55545 8.34949 1.55545 8.55577V10.1113C1.55545 10.3176 1.63739 10.5154 1.78325 10.6613C1.92911 10.8072 2.12695 10.8891 2.33323 10.8891H3.88878C4.09506 10.8891 4.29289 10.8072 4.43875 10.6613C4.58462 10.5154 4.66656 10.3176 4.66656 10.1113Z" fill="#424242"/>
</svg>
