<svg xmlns="http://www.w3.org/2000/svg" width="18" height="18" viewBox="0 0 18 18"><g transform="translate(-1812 -213)"><g transform="translate(1812.45 213.45)"><g transform="translate(0 0)"><path d="M17.055,6.957a.917.917,0,0,0-.782-.651l-4.936-.468L9.386,1.072a.895.895,0,0,0-1.672,0L5.763,5.838.826,6.306a.919.919,0,0,0-.782.651A.977.977,0,0,0,.309,7.965L4.041,11.38l-1.1,5.057a.969.969,0,0,0,.353.979.876.876,0,0,0,1,.046L8.55,14.806l4.256,2.656a.877.877,0,0,0,1-.046.969.969,0,0,0,.353-.979l-1.1-5.057L16.79,7.965a.977.977,0,0,0,.265-1.008Zm-8.423,7.8" transform="translate(0 -0.496)" fill="#6d82c7"/></g></g><rect width="18" height="18" transform="translate(1812 213)" fill="none"/></g></svg>