<svg xmlns="http://www.w3.org/2000/svg" width="18" height="18" viewBox="0 0 18 18">
    <rect id="Rectangle_62612" data-name="Rectangle 62612" width="18" height="18" fill="none"/>
    <path id="DOWN" d="M17.854,65.782h9.1a.919.919,0,0,1,.65,1.567L23.053,71.9a.914.914,0,0,1-1.3,0L17.2,67.349A.919.919,0,0,1,17.854,65.782Z" transform="translate(-13.402 -55.95)" fill="#6d82c7"/>
    <path id="DOWN-2" data-name="DOWN" d="M27.6,61.768l-4.549-4.549a.914.914,0,0,0-1.3,0L17.2,61.768a.919.919,0,0,0,.65,1.567h9.1A.919.919,0,0,0,27.6,61.768Z" transform="translate(-13.402 -55.95)" fill="#aaa"/>
</svg> 