<svg xmlns="http://www.w3.org/2000/svg" width="19" height="19" viewBox="0 0 19 19">
  <g id="Group_77406" data-name="Group 77406" transform="translate(-531.5 -630.5)">
    <rect id="Rectangle_43663" data-name="Rectangle 43663" width="18" height="18" transform="translate(532 631)" fill="#aaa" stroke="rgba(0,0,0,0)" stroke-width="1" opacity="0"/>
    <path id="Path_33527" data-name="Path 33527" d="M0,18.411c.016-.026.033-.051.048-.077a.473.473,0,0,1,.9.207c0,.285,0,.569,0,.854v.157a3.5,3.5,0,0,0,2.776-.694l.07-.064a.232.232,0,0,0,.022-.041c-.1-.067-.195-.135-.292-.205a.472.472,0,0,1-.125-.691c.1-.153.212-.3.318-.453a.662.662,0,0,1,.046-.051L7.607,20.1c-.118.173-.222.338-.34.492a.46.46,0,0,1-.646.107c-.159-.1-.312-.214-.474-.326a6.232,6.232,0,0,1-5.2,2.036c0,.339,0,.654,0,.969a.462.462,0,0,1-.33.452.459.459,0,0,1-.51-.152A1.952,1.952,0,0,1,0,23.5V18.411" transform="translate(532.9 623.332)" fill="#aaa" stroke="rgba(0,0,0,0)" stroke-width="1"/>
    <path id="Path_33528" data-name="Path 33528" d="M17.03,8.989a.5.5,0,0,1-.235.4q-1.2.955-2.4,1.914l-2.076,1.657a.5.5,0,0,1-.714.021L3.659,7.306a.948.948,0,0,1-.2-1.456Q4.915,4.038,6.373,2.227a.945.945,0,0,1,1.394-.192L16.789,8.55a.5.5,0,0,1,.241.439m-3.077-.033a.474.474,0,1,0-.479.466.475.475,0,0,0,.479-.466" transform="translate(531.317 631.006)" fill="#aaa" stroke="rgba(0,0,0,0)" stroke-width="1"/>
    <path id="Path_33529" data-name="Path 33529" d="M24.055,21.168l1.754-1.4c.588-.47,1.178-.938,1.762-1.413a.177.177,0,0,1,.256-.008.483.483,0,0,1,.113.761q-1.078,1.341-2.162,2.679a.479.479,0,0,1-.733.095c-.326-.232-.649-.467-.99-.713" transform="translate(521.023 622.867)" fill="#aaa" stroke="rgba(0,0,0,0)" stroke-width="1"/>
  </g>
</svg>
