<svg xmlns="http://www.w3.org/2000/svg" width="18" height="18" viewBox="0 0 18 18"><rect width="18" height="18" fill="#aaa" opacity="0"/><path d="M1.331,16.2A.431.431,0,0,1,.9,15.773V14.631a.431.431,0,0,1,.429-.433H16.672a.43.43,0,0,1,.428.432h0v1.14a.429.429,0,0,1-.428.429Z" fill="#aaa"/><path d="M1.327,3.8A.431.431,0,0,1,.894,3.37V2.226A.429.429,0,0,1,1.325,1.8H16.668a.429.429,0,0,1,.428.429v1.14a.431.431,0,0,1-.427.433H1.327Z" fill="#aaa"/><path d="M2.409,10.634a2.508,2.508,0,0,0,.042.478.834.834,0,0,0,.158.364.774.774,0,0,0,.31.231,1.24,1.24,0,0,0,.489.084.966.966,0,0,0,.626-.226.849.849,0,0,0,.279-.7,1.263,1.263,0,0,0-.068-.436.859.859,0,0,0-.227-.332A1.6,1.6,0,0,0,3.6,9.829a6.093,6.093,0,0,0-.636-.248,5.346,5.346,0,0,1-.874-.368,2.373,2.373,0,0,1-.615-.467,1.678,1.678,0,0,1-.363-.622A2.581,2.581,0,0,1,1,7.309,2.1,2.1,0,0,1,1.62,5.648a2.482,2.482,0,0,1,1.7-.548,3.732,3.732,0,0,1,.931.11,1.961,1.961,0,0,1,.736.358,1.686,1.686,0,0,1,.485.631,2.238,2.238,0,0,1,.173.92.212.212,0,0,1-.211.212H4.4a.213.213,0,0,1-.211-.2,1.314,1.314,0,0,0-.182-.626.7.7,0,0,0-.631-.29,1.052,1.052,0,0,0-.421.074.709.709,0,0,0-.268.194.662.662,0,0,0-.137.28,1.4,1.4,0,0,0-.037.326,1.083,1.083,0,0,0,.147.583,1.318,1.318,0,0,0,.632.437l1.167.505a3.585,3.585,0,0,1,.7.394A1.96,1.96,0,0,1,5.6,9.45a1.463,1.463,0,0,1,.226.521,2.919,2.919,0,0,1,.063.631A2.07,2.07,0,0,1,5.2,12.333a3.035,3.035,0,0,1-1.92.542,2.516,2.516,0,0,1-1.836-.558,2.178,2.178,0,0,1-.552-1.6v-.094a.211.211,0,0,1,.211-.211H2.2a.21.21,0,0,1,.211.211Z" fill="#aaa"/><path d="M7.869,10.634a2.508,2.508,0,0,0,.042.478.834.834,0,0,0,.158.364.774.774,0,0,0,.31.231,1.24,1.24,0,0,0,.489.084.966.966,0,0,0,.626-.226.849.849,0,0,0,.279-.7,1.263,1.263,0,0,0-.068-.436.859.859,0,0,0-.227-.332,1.6,1.6,0,0,0-.415-.268,6.093,6.093,0,0,0-.636-.248,5.346,5.346,0,0,1-.874-.368,2.373,2.373,0,0,1-.615-.467,1.678,1.678,0,0,1-.363-.622,2.581,2.581,0,0,1-.116-.815A2.1,2.1,0,0,1,7.08,5.648a2.482,2.482,0,0,1,1.7-.548,3.732,3.732,0,0,1,.931.11,1.961,1.961,0,0,1,.736.358,1.686,1.686,0,0,1,.485.631,2.238,2.238,0,0,1,.173.92.212.212,0,0,1-.211.212H9.861a.213.213,0,0,1-.211-.2,1.314,1.314,0,0,0-.182-.626.7.7,0,0,0-.631-.29,1.052,1.052,0,0,0-.421.074.709.709,0,0,0-.268.194.662.662,0,0,0-.137.28,1.4,1.4,0,0,0-.037.326,1.083,1.083,0,0,0,.147.583,1.318,1.318,0,0,0,.632.437l1.167.505a3.585,3.585,0,0,1,.7.394,1.96,1.96,0,0,1,.437.442,1.463,1.463,0,0,1,.226.521,2.919,2.919,0,0,1,.063.631,2.07,2.07,0,0,1-.689,1.731,3.035,3.035,0,0,1-1.92.542,2.516,2.516,0,0,1-1.836-.558,2.178,2.178,0,0,1-.552-1.6v-.094a.211.211,0,0,1,.211-.211H7.658a.21.21,0,0,1,.211.211Z" fill="#aaa"/><path d="M15.686,10.392h.021V5.459a.211.211,0,0,1,.211-.211h.967a.211.211,0,0,1,.211.211v7.089a.212.212,0,0,1-.211.211H15.52a.21.21,0,0,1-.2-.141L13.519,7.5H13.5v5.049a.212.212,0,0,1-.211.211H12.32a.211.211,0,0,1-.211-.211V5.459a.21.21,0,0,1,.211-.211h1.386a.211.211,0,0,1,.2.14Z" fill="#aaa"/></svg>