<svg xmlns="http://www.w3.org/2000/svg" width="19" height="19" viewBox="0 0 19 19">
  <g id="Group_77407" data-name="Group 77407" transform="translate(-443.5 -664.5)">
    <rect id="Rectangle_43666" data-name="Rectangle 43666" width="18" height="18" transform="translate(444 665)" fill="#aaa" stroke="rgba(0,0,0,0)" stroke-width="1" opacity="0"/>
    <path id="Path_33530" data-name="Path 33530" d="M0,14.467c.015-.044.031-.088.045-.131a1.175,1.175,0,0,1,1.093-.855c.062,0,.125,0,.214,0v-.212c0-2.456,0-6.937,0-9.393A1.826,1.826,0,0,1,1.97,2.412,1.549,1.549,0,0,1,3.7,2.145,1.616,1.616,0,0,1,4.714,3.571c.013.146,0,1.306,0,1.464H6.439c-.044.07-.071.118-.1.164-.511.766-1.024,1.533-1.531,2.3a.5.5,0,0,0-.083.261c-.005,1.513,0,4.038,0,5.551v.169c.084,0,.155,0,.226,0a1.17,1.17,0,0,1,1.123,1.13,2.786,2.786,0,0,1-.015.552,1.146,1.146,0,0,1-.921.984.719.719,0,0,0-.073.027H1.012a1.236,1.236,0,0,1-.866-.62A3.673,3.673,0,0,1,0,15.195v-.727" transform="translate(444.9 664.915)" fill="#aaa" stroke="rgba(0,0,0,0)" stroke-width="1"/>
    <path id="Path_33531" data-name="Path 33531" d="M0,28.069a3.664,3.664,0,0,0,.146.36,1.237,1.237,0,0,0,.866.621H0v-.981" transform="translate(444.9 652.041)" fill="#aaa" stroke="rgba(0,0,0,0)" stroke-width="1"/>
    <path id="Path_33532" data-name="Path 33532" d="M15.561,8.011l-.543.814q-1.038,1.557-2.074,3.116a.239.239,0,0,1-.229.122c-.647-.005-1.3,0-1.943,0H10.61c.041-.065.067-.108.1-.15q1.257-1.886,2.511-3.774a.252.252,0,0,1,.242-.128c.69,0,1.379,0,2.1,0" transform="translate(439.661 661.946)" fill="#aaa" stroke="rgba(0,0,0,0)" stroke-width="1"/>
    <path id="Path_33533" data-name="Path 33533" d="M18.29,12.051c.035-.058.059-.1.087-.144q1.258-1.887,2.514-3.775a.237.237,0,0,1,.226-.126c.637.006,1.274,0,1.937,0-.035.06-.059.1-.086.145q-1.261,1.893-2.526,3.784a.268.268,0,0,1-.178.114c-.632.008-1.265.005-1.9,0-.019,0-.038,0-.076-.007" transform="translate(435.869 661.947)" fill="#aaa" stroke="rgba(0,0,0,0)" stroke-width="1"/>
    <path id="Path_33534" data-name="Path 33534" d="M28.2,8.291a1.136,1.136,0,0,1,.628.988c.016.6.013,1.191,0,1.787a1.159,1.159,0,0,1-1.11,1.127c-.7.016-1.391,0-2.122,0l2.6-3.905" transform="translate(432.261 661.806)" fill="#aaa" stroke="rgba(0,0,0,0)" stroke-width="1"/>
  </g>
</svg>
