<svg width="20" height="20" viewBox="0 0 20 20" fill="none" xmlns="http://www.w3.org/2000/svg">
<path d="M19.6277 17.2608L17.5167 15.1508C17.4316 15.0656 17.3304 14.9982 17.219 14.9526C17.1076 14.9069 16.9882 14.8839 16.8677 14.8848H16.2677C17.5364 13.3176 18.2268 11.3613 18.2227 9.34484C18.2261 7.33302 17.5459 5.37973 16.2938 3.80507C15.0416 2.23042 13.2917 1.12781 11.3308 0.677927C9.36993 0.228047 7.31439 0.457586 5.50105 1.32893C3.6877 2.20027 2.22412 3.66173 1.35014 5.47381C0.47617 7.28588 0.243646 9.34109 0.690678 11.3026C1.13771 13.2642 2.23778 15.0157 3.81062 16.2701C5.38345 17.5246 7.33575 18.2075 9.34758 18.2071C11.3594 18.2067 13.3114 17.5229 14.8837 16.2678V16.8558C14.8828 16.9758 14.9058 17.0948 14.9515 17.2057C14.9972 17.3166 15.0646 17.4173 15.1497 17.5018L17.2617 19.6228C17.433 19.792 17.664 19.8869 17.9047 19.8869C18.1455 19.8869 18.3765 19.792 18.5477 19.6228L19.6277 18.5588C19.796 18.3855 19.8901 18.1534 19.8901 17.9118C19.8901 17.6703 19.796 17.4382 19.6277 17.2648M9.34375 15.1758C8.1922 15.1727 7.06742 14.8283 6.11147 14.1863C5.15552 13.5442 4.41127 12.6333 3.97274 11.5685C3.53421 10.5037 3.42106 9.33289 3.64758 8.20384C3.8741 7.07479 4.43013 6.03819 5.24544 5.22497C6.06076 4.41175 7.09878 3.85838 8.22841 3.63477C9.35804 3.41115 10.5286 3.52731 11.5922 3.96858C12.6559 4.40985 13.5649 5.15643 14.2045 6.11403C14.8441 7.07163 15.1855 8.1973 15.1857 9.34884C15.1855 10.1152 15.0341 10.8741 14.7402 11.5819C14.4464 12.2897 14.0158 12.9326 13.4732 13.4739C12.9305 14.0151 12.2865 14.444 11.5779 14.7361C10.8694 15.0281 10.1101 15.1776 9.34375 15.1758Z" fill="#AAAAAA"/>
</svg>
