<svg width="14" height="14" viewBox="0 0 14 14" fill="none" xmlns="http://www.w3.org/2000/svg">
<path d="M6.99937 0.350098C5.68412 0.350098 4.39841 0.740114 3.30483 1.47082C2.21124 2.20154 1.35889 3.24012 0.85557 4.45525C0.352247 5.67038 0.220554 7.00747 0.477146 8.29745C0.733738 9.58742 1.36709 10.7723 2.29711 11.7024C3.22713 12.6324 4.41204 13.2657 5.70202 13.5223C6.99199 13.7789 8.32908 13.6472 9.54421 13.1439C10.7593 12.6406 11.7979 11.7882 12.5286 10.6946C13.2594 9.60105 13.6494 8.31534 13.6494 7.0001C13.6495 6.12678 13.4775 5.26199 13.1434 4.45513C12.8092 3.64827 12.3194 2.91514 11.7019 2.29761C11.0843 1.68008 10.3512 1.19025 9.54433 0.856091C8.73747 0.521933 7.87269 0.349996 6.99937 0.350098ZM6.99937 12.3629C5.93794 12.3629 4.90035 12.0481 4.01781 11.4584C3.13526 10.8687 2.4474 10.0306 2.04121 9.04994C1.63502 8.06931 1.52875 6.99025 1.73582 5.94922C1.94289 4.90819 2.45402 3.95194 3.20456 3.2014C3.9551 2.45086 4.91135 1.93973 5.95238 1.73266C6.99341 1.52559 8.07247 1.63186 9.0531 2.03805C10.0337 2.44425 10.8719 3.1321 11.4616 4.01465C12.0513 4.89719 12.366 5.93478 12.366 6.99621C12.3668 7.70117 12.2284 8.39935 11.959 9.05079C11.6895 9.70223 11.2943 10.2941 10.7958 10.7926C10.2973 11.2911 9.70539 11.6864 9.05395 11.9558C8.40251 12.2253 7.70433 12.3636 6.99937 12.3629ZM8.65681 9.56287L6.38026 7.90854C6.33957 7.87852 6.30649 7.83939 6.28367 7.79427C6.26084 7.74916 6.2489 7.69932 6.24881 7.64876V3.24576C6.24922 3.16043 6.28341 3.07873 6.3439 3.01853C6.40439 2.95833 6.48625 2.92454 6.57159 2.92454H7.42715C7.51248 2.92475 7.59426 2.95874 7.65461 3.01908C7.71495 3.07942 7.74894 3.16121 7.74915 3.24654V7.04599L9.53803 8.34954C9.57231 8.37443 9.60133 8.40585 9.62341 8.44199C9.6455 8.47813 9.66022 8.51829 9.66673 8.56014C9.67323 8.602 9.6714 8.64473 9.66132 8.68587C9.65125 8.72701 9.63314 8.76576 9.60803 8.79988L9.10404 9.49443C9.05326 9.56297 8.97752 9.60875 8.89324 9.62186C8.80895 9.63496 8.72289 9.61433 8.6537 9.56443L8.65681 9.56287Z" fill="#6C6C6C"/>
</svg>
