<svg xmlns="http://www.w3.org/2000/svg" width="18" height="18" viewBox="0 0 18 18">
  <g id="Group_77435" data-name="Group 77435" transform="translate(-122 -885)">
    <path id="Path_31058" data-name="Path 31058" d="M408.794,1004.227a1.217,1.217,0,0,1,.877.862c.278.742.582,1.478.883,2.214a1.176,1.176,0,0,1,0,.934c-.319.779-.627,1.563-.94,2.344a1.033,1.033,0,0,1-1.079.73h-.393c-.122.921-.751,1.072-1.517,1.005-.01.235-.015.45-.032.664a2.952,2.952,0,0,1-.9,1.966,5.316,5.316,0,0,1-.854.614,1.511,1.511,0,0,0-.757,1.274,1.552,1.552,0,0,0,1.318,1.541,1.484,1.484,0,0,0,1.63-1.033,3.261,3.261,0,0,0,.091-.558,1.012,1.012,0,0,1,1.921-.333,1.55,1.55,0,0,1,.054.945,3.479,3.479,0,0,1-2.766,2.935,3.351,3.351,0,0,1-3.5-1.287,3.479,3.479,0,0,1,1.134-5.311,1.1,1.1,0,0,0,.615-1.008c.005-.126,0-.253,0-.4-.1,0-.2-.007-.3,0a1.065,1.065,0,0,1-1.221-.882,1.046,1.046,0,0,1-.013-.13H402.6a.99.99,0,0,1-.979-.643c-.343-.832-.67-1.669-1-2.5a1.037,1.037,0,0,1,0-.8q.5-1.238.99-2.477a1.087,1.087,0,0,1,.791-.659Zm-6.622,1.518.2.594q.554,1.659,1.11,3.319c.017.051.067.128.1.128.329.01.659.006,1.006.006l-.44-1.318c-.287-.863-.572-1.725-.863-2.586-.019-.056-.083-.135-.128-.135C402.835,1005.74,402.514,1005.745,402.172,1005.745Zm6.856,4.048-1.349-4.036h-1.064c.043.135.082.252.121.371q.588,1.765,1.178,3.529c.017.051.067.13.1.13.332.009.662.005,1.014.005Zm-2.221,0-1.346-4.036h-1.066c.444,1.33.882,2.645,1.324,3.96a.135.135,0,0,0,.1.074c.325,0,.652,0,.993,0Z" transform="translate(-274.596 -118.323)" fill="#aaa" stroke="rgba(0,0,0,0)" stroke-width="1"/>
    <rect id="Rectangle_35129" data-name="Rectangle 35129" width="18" height="18" transform="translate(122 885)" fill="none"/>
  </g>
</svg>
