<svg xmlns="http://www.w3.org/2000/svg" width="18" height="18" viewBox="0 0 18 18">
  <g id="Department" transform="translate(-17222 15828)">
    <rect id="Rectangle_52813" data-name="Rectangle 52813" width="18" height="18" transform="translate(17222 -15828)" fill="#aaa" opacity="0"/>
    <path id="Path_35364" data-name="Path 35364" d="M16.935,6.428l.258-1.446a.433.433,0,0,0-.35-.5.37.37,0,0,0-.077-.007h-2.7L14.59,1.51a.433.433,0,0,0-.35-.5A.376.376,0,0,0,14.163,1h-1.47a.434.434,0,0,0-.427.36l-.556,3.114H8.143l.529-2.961a.434.434,0,0,0-.347-.506A.473.473,0,0,0,8.245,1H6.775a.434.434,0,0,0-.427.36L5.792,4.474H2.932a.434.434,0,0,0-.428.36L2.247,6.28a.433.433,0,0,0,.35.5.37.37,0,0,0,.077.007h2.7l-.826,4.629H1.692a.433.433,0,0,0-.428.36l-.257,1.439a.433.433,0,0,0,.35.5.37.37,0,0,0,.077.007h2.7L3.61,16.69a.433.433,0,0,0,.35.5.37.37,0,0,0,.077.007h1.47a.434.434,0,0,0,.427-.36l.556-3.114h3.567l-.529,2.961a.434.434,0,0,0,.347.506.463.463,0,0,0,.079.007h1.47a.434.434,0,0,0,.427-.36l.556-3.114h2.86a.434.434,0,0,0,.427-.36l.258-1.446a.433.433,0,0,0-.35-.5.37.37,0,0,0-.077-.007H12.821l.826-4.629h2.86a.434.434,0,0,0,.427-.36ZM10.47,11.414H6.9l.826-4.629H11.3Z" transform="translate(17221.9 -15828.1)" fill="#aaa"/>
  </g>
</svg>
