<svg xmlns="http://www.w3.org/2000/svg" width="18" height="18" viewBox="0 0 18 18">
  <g id="Group_77437" data-name="Group 77437" transform="translate(-208 -833)">
    <rect id="Rectangle_35189" data-name="Rectangle 35189" width="18" height="18" transform="translate(208 833)" fill="none" opacity="0"/>
    <g id="Group_52480" data-name="Group 52480" transform="translate(209.55 833.9)">
      <path id="Path_31065" data-name="Path 31065" d="M486.322,894.907h5.51a.454.454,0,0,1,.517.52v11.13a.44.44,0,0,1-.27.447.548.548,0,0,1-.211.035H480.841a.827.827,0,0,1-.248-.027.418.418,0,0,1-.294-.409c0-.96.005-1.922.007-2.882,0-.369-.005-.738-.007-1.107v-7.172c0-.375.16-.535.54-.535Zm5.084,11.184V895.86H481.244v10.232Z" transform="translate(-478.868 -894.902)" fill="#aaa" stroke="rgba(0,0,0,0)" stroke-width="1"/>
      <path id="Path_31066" data-name="Path 31066" d="M480.949,913.566h11.164v3.1a.448.448,0,0,1-.4.5.408.408,0,0,1-.1,0h-1.133a.45.45,0,0,1-.489-.407.461.461,0,0,1,0-.086v-.893c0-.08-.025-.1-.1-.1h-6.732c-.026,0-.052,0-.1.007v1a.449.449,0,0,1-.408.486.468.468,0,0,1-.076,0h-1.147a.447.447,0,0,1-.489-.4.5.5,0,0,1,0-.09V913.7Zm5.572,1.413h1.1c.135,0,.187-.053.19-.186v-.331c0-.153-.048-.209-.2-.209-.3,0-.608,0-.909,0h-1.272a.168.168,0,0,0-.184.15.156.156,0,0,0,0,.036v.331c0,.162.048.208.213.209Z" transform="translate(-479.077 -900.968)" fill="#aaa" stroke="rgba(0,0,0,0)" stroke-width="1"/>
      <path id="Path_31067" data-name="Path 31067" d="M479.137,900.235c-.253,0-.5.005-.753,0a.22.22,0,0,1-.2-.248c0-.225,0-.45,0-.675v-.788c0-.2.088-.279.288-.277s.387,0,.582-.007c.059,0,.1.005.1.084V900.2A.263.263,0,0,1,479.137,900.235Z" transform="translate(-478.179 -895.986)" fill="#aaa" stroke="rgba(0,0,0,0)" stroke-width="1"/>
      <path id="Path_31068" data-name="Path 31068" d="M498.826,900.234v-1.883c0-.086.019-.123.113-.119.2.007.4,0,.593,0a.235.235,0,0,1,.263.2.24.24,0,0,1,0,.058q0,.731,0,1.463c0,.2-.087.276-.282.276Z" transform="translate(-484.889 -895.983)" fill="#aaa" stroke="rgba(0,0,0,0)" stroke-width="1"/>
      <g id="Group_52546" data-name="Group 52546" transform="translate(2.819 1.396)">
        <path id="Path_31067-2" data-name="Path 31067" d="M486.89,906.628l.317-.189-.317-.189Z" transform="translate(-483.83 -899.986)" fill="#aaa" stroke="rgba(0,0,0,0)" stroke-width="1"/>
        <path id="Path_31068-2" data-name="Path 31068" d="M486.746,896.977a.325.325,0,0,0-.081-.007h-4.208c-.095,0-.1.041-.1.115v9.092c0,.115.034.135.135.135h4.262Zm-.317,1.424a.052.052,0,0,1-.047.054h-.108v4.7h.108a.048.048,0,0,1,.047.054v.419a.052.052,0,0,1-.047.054h-.108v1.148h.108a.046.046,0,0,1,.047.047v.425a.046.046,0,0,1-.047.047h-.108v.628a.046.046,0,0,1-.047.047h-.2a.046.046,0,0,1-.047-.047v-.628h-.108a.046.046,0,0,1-.047-.047v-.425a.046.046,0,0,1,.047-.047h.108v-1.168l-.034.02-.479.284a.307.307,0,0,1-.135.034.3.3,0,0,1-.128-.034.263.263,0,0,1-.128-.229v-.635a.26.26,0,0,1,.391-.229l.486.284.027.013v-4.718h-.108a.052.052,0,0,1-.047-.054v-.419a.052.052,0,0,1,.047-.054h.108v-.621a.052.052,0,0,1,.047-.054h.2a.052.052,0,0,1,.047.054v.621h.108a.052.052,0,0,1,.047.054Z" transform="translate(-482.356 -896.97)" fill="#aaa" stroke="rgba(0,0,0,0)" stroke-width="1"/>
      </g>
      <g id="Group_52547" data-name="Group 52547" transform="translate(7.677 1.396)">
        <path id="Path_31069" data-name="Path 31069" d="M491.38,906.628l-.317-.189.317-.189Z" transform="translate(-490.044 -899.986)" fill="#aaa" stroke="rgba(0,0,0,0)" stroke-width="1"/>
        <path id="Path_31070" data-name="Path 31070" d="M489.56,896.977a.325.325,0,0,1,.081-.007h4.215c.094,0,.1.041.1.115v9.092c0,.115-.033.135-.135.135h-4.269Zm.317,1.424a.052.052,0,0,0,.047.054h.108v4.7h-.108a.048.048,0,0,0-.047.054v.419a.052.052,0,0,0,.047.054h.108v1.148h-.108a.046.046,0,0,0-.047.047v.425a.046.046,0,0,0,.047.047h.108v.628a.046.046,0,0,0,.047.047h.2a.046.046,0,0,0,.047-.047v-.628h.108a.046.046,0,0,0,.047-.047v-.425a.046.046,0,0,0-.047-.047h-.108v-1.168l.034.02.479.284a.307.307,0,0,0,.135.034.3.3,0,0,0,.128-.034.263.263,0,0,0,.128-.229v-.635a.26.26,0,0,0-.391-.229l-.486.284-.027.013v-4.718h.108a.052.052,0,0,0,.047-.054v-.419a.052.052,0,0,0-.047-.054h-.108v-.621a.052.052,0,0,0-.047-.054h-.2a.052.052,0,0,0-.047.054v.621h-.108a.052.052,0,0,0-.047.054Z" transform="translate(-489.553 -896.97)" fill="#aaa" stroke="rgba(0,0,0,0)" stroke-width="1"/>
      </g>
      <path id="Path_31071" data-name="Path 31071" d="M487.717,906.14v.013l-.027-.013Z" transform="translate(-481.27 -898.554)" fill="#aaa" stroke="rgba(0,0,0,0)" stroke-width="1"/>
      <path id="Path_31072" data-name="Path 31072" d="M487.68,906.91l.034-.02v.02Z" transform="translate(-481.267 -898.798)" fill="#aaa" stroke="rgba(0,0,0,0)" stroke-width="1"/>
    </g>
  </g>
</svg>
