<svg xmlns="http://www.w3.org/2000/svg" width="8.769" height="17.876" viewBox="0 0 8.769 17.876">
  <g id="Group_77679" data-name="Group 77679" transform="translate(-7320.615 -8018.062)">
    <rect id="Rectangle_41581" data-name="Rectangle 41581" width="4" height="4" transform="translate(7323 8025)" fill="#536bc2"/>
    <path id="Polygon_364" data-name="Polygon 364" d="M4.232.922a1,1,0,0,1,1.536,0L8.633,4.36A1,1,0,0,1,7.865,6H2.135a1,1,0,0,1-.768-1.64Z" transform="translate(7320 8018)" fill="#536bc2" stroke="rgba(0,0,0,0)" stroke-width="1"/>
    <path id="Polygon_365" data-name="Polygon 365" d="M4.232.922a1,1,0,0,1,1.536,0L8.633,4.36A1,1,0,0,1,7.865,6H2.135a1,1,0,0,1-.768-1.64Z" transform="translate(7330 8036) rotate(180)" fill="#536bc2" stroke="rgba(0,0,0,0)" stroke-width="1"/>
  </g>
</svg>
