<svg xmlns="http://www.w3.org/2000/svg" width="18" height="18" viewBox="0 0 18 18"><g transform="translate(-745 -557)"><rect width="18" height="18" transform="translate(745 557)" fill="#aaa" opacity="0"/><path d="M13.8,5.063H.38A.381.381,0,0,1,0,4.683V3.544A1.519,1.519,0,0,1,1.519,2.025H3.037V.38A.381.381,0,0,1,3.417,0H4.683a.381.381,0,0,1,.38.38V2.025h4.05V.38A.381.381,0,0,1,9.492,0h1.266a.381.381,0,0,1,.38.38V2.025h1.519a1.519,1.519,0,0,1,1.519,1.519V4.683A.381.381,0,0,1,13.8,5.063ZM.38,6.075H13.8a.381.381,0,0,1,.38.38v8.227A1.519,1.519,0,0,1,12.656,16.2H1.519A1.519,1.519,0,0,1,0,14.681V6.455A.381.381,0,0,1,.38,6.075ZM10,12.15a.381.381,0,0,0,.38-.38V10.5a.381.381,0,0,0-.38-.38H4.177a.381.381,0,0,0-.38.38V11.77a.381.381,0,0,0,.38.38Z" transform="translate(746.912 557.9)" fill="#aaa"/></g></svg>