<svg id="trash" xmlns="http://www.w3.org/2000/svg" width="16" height="18" viewBox="0 0 16 18">
  <path id="Path_7317" data-name="Path 7317" d="M32.759,108.361,32,96H45.749l-.759,12.361a1.672,1.672,0,0,1-1.715,1.5h-8.8a1.671,1.671,0,0,1-1.715-1.5Z" transform="translate(-30.875 -91.861)" fill="#ff6a6a"/>
  <path id="Path_7318" data-name="Path 7318" d="M0,2.813V1.688a.567.567,0,0,1,.571-.563H4.857L5.193.468A.849.849,0,0,1,5.957,0h4.082a.859.859,0,0,1,.768.468l.336.658h4.286A.567.567,0,0,1,16,1.688V2.813a.567.567,0,0,1-.571.563H.571A.567.567,0,0,1,0,2.813Z" transform="translate(0 0)" fill="#ff6a6a"/>
</svg>
