<svg xmlns="http://www.w3.org/2000/svg" width="18" height="18" viewBox="0 0 18 18">
  <g id="Violation_-_Unsafe_Driving" data-name="Violation - Unsafe Driving" transform="translate(-1818.886 -954.399)">
    <rect id="Rectangle_63576" data-name="Rectangle 63576" width="18" height="18" transform="translate(1818.886 954.399)" fill="#ccc" opacity="0"/>
    <path id="Path_37049" data-name="Path 37049" d="M103.063,11.694l-.24-2.33a2.515,2.515,0,0,0-1.75-2.14l-.71-6.76a.188.188,0,0,0-.22-.17l-1.62.17a.2.2,0,0,0-.18.22l.26,2.49a1.405,1.405,0,0,0-1.56-1.22l-6.23.65a1.414,1.414,0,0,0-1.26,1.57l-.27-2.54a.2.2,0,0,0-.22-.18l-1.62.17a.2.2,0,0,0-.18.22l.71,6.75a2.511,2.511,0,0,0-1.26,2.46l.24,2.33a2.517,2.517,0,0,0,1.22,1.91l.16,1.51a1.01,1.01,0,0,0,1.11.9l1.01-.11a1,1,0,0,0,.9-1.11l-.11-1.01,8.06-.84.11,1v.01a1,1,0,0,0,1.11.89l1-.1h.01a1.017,1.017,0,0,0,.9-1.11l-.16-1.51a2.531,2.531,0,0,0,.79-2.12m-13.14.87a1,1,0,0,1-1.11-.9,1.01,1.01,0,0,1,.9-1.11c.04,0,.07-.01.11-.01a1.023,1.023,0,0,1,1,.91,1,1,0,0,1-.9,1.11M90,8.484l.32-2.32a.979.979,0,0,1,.88-.86l6-.63a.976.976,0,0,1,1.06.66l.8,2.2Zm2.61,2.78a.436.436,0,0,1,.4-.49l3.58-.38a.448.448,0,1,1,.1.89l-3.59.38a.447.447,0,0,1-.49-.4m4.28,2.01-3.58.38a.452.452,0,0,1-.09-.9l3.58-.37a.447.447,0,0,1,.09.89m3.1-1.77c-.04,0-.07.01-.11.01a1.052,1.052,0,1,1,.11-.01" transform="translate(1732.997 954.399)" fill="#ccc"/>
  </g>
</svg>
