<svg xmlns="http://www.w3.org/2000/svg" width="16" height="18" viewBox="0 0 16 18">
  <path id="user-astronaut" d="M2.286,7.875h.482a5.743,5.743,0,0,0,10.464,0h.482a.569.569,0,0,0,.571-.562V3.938a.569.569,0,0,0-.571-.562h-.482a5.743,5.743,0,0,0-10.464,0H2.286a.569.569,0,0,0-.571.563V7.313A.569.569,0,0,0,2.286,7.875ZM3.714,4.781A1.583,1.583,0,0,1,5.429,3.375h5.143a1.583,1.583,0,0,1,1.714,1.406v.844A3.4,3.4,0,0,1,8.857,9H7.143A3.4,3.4,0,0,1,3.714,5.625ZM6.286,7.313l.429-1.266L8,5.625,6.714,5.2,6.286,3.938,5.857,5.2l-1.286.422,1.286.422ZM11.7,11.3a6.9,6.9,0,0,1-7.4,0A4.741,4.741,0,0,0,0,15.975v.338A1.7,1.7,0,0,0,1.714,18H4.571V15.75a1.133,1.133,0,0,1,1.143-1.125h4.571a1.133,1.133,0,0,1,1.143,1.125V18h2.857A1.7,1.7,0,0,0,16,16.313v-.338A4.74,4.74,0,0,0,11.7,11.3ZM9.714,15.75a.563.563,0,1,0,.571.563A.569.569,0,0,0,9.714,15.75Zm-3.429,0a.569.569,0,0,0-.571.563V18H6.857V16.313A.569.569,0,0,0,6.286,15.75Z" fill="#b7b7b7"/>
</svg>
