<svg xmlns="http://www.w3.org/2000/svg" width="19.022" height="18" viewBox="0 0 19.022 18">
  <g id="Violation_-_Vehicle_Maintenance" data-name="Violation - Vehicle Maintenance" transform="translate(-1960.146 -956.793)">
    <rect id="Rectangle_63579" data-name="Rectangle 63579" width="18" height="18" transform="translate(1960.657 956.793)" fill="#ccc" opacity="0"/>
    <path id="Path_37044" data-name="Path 37044" d="M245.54,10.924l-4.05-7.18a.883.883,0,0,0-.77-.45h-8.11a.887.887,0,0,0-.78.45l-4.05,7.18a.942.942,0,0,0,0,.92l.94,1.67,3.13-1.77a4.8,4.8,0,0,1,7.16-4.45.41.41,0,0,1,.16.16.4.4,0,0,1-.15.54l-3.07,1.73-.24,2.3,2.09.97,3.06-1.73a.406.406,0,0,1,.21-.05.4.4,0,0,1,.39.41,4.8,4.8,0,0,1-7.51,3.85l-3.13,1.77,1.01,1.78a.905.905,0,0,0,.78.47h8.1a.905.905,0,0,0,.78-.47l4.05-7.18a.942.942,0,0,0,0-.92" transform="translate(1732.997 954.399)" fill="#ccc" stroke="rgba(0,0,0,0)" stroke-width="1"/>
  </g>
</svg>
