<svg xmlns="http://www.w3.org/2000/svg" width="18" height="18" viewBox="0 0 18 18">
  <g id="Group_70916" data-name="Group 70916" transform="translate(-1319 -792.01)">
    <rect id="Rectangle_57068" data-name="Rectangle 57068" width="18" height="18" transform="translate(1319 792.01)" fill="none"/>
    <path id="Path_35735" data-name="Path 35735" d="M7.742,209.359a4.945,4.945,0,1,0,4.945,4.945,4.945,4.945,0,0,0-4.945-4.945M6.62,217.22a3.132,3.132,0,0,1,0-5.85Zm2.245.008v-5.855a3.138,3.138,0,0,1,0,5.855m6.986-9.219H2.35A1.35,1.35,0,0,0,1,209.359v9.9a1.35,1.35,0,0,0,1.35,1.35h13.5a1.35,1.35,0,0,0,1.35-1.35v-9.9a1.35,1.35,0,0,0-1.35-1.35m-5.58,11.7H7.733a5.422,5.422,0,0,1-5.45-5.35,5.333,5.333,0,0,1,5.214-5.45c.079,0,.157,0,.237,0H10.27a5.515,5.515,0,0,1,5.644,5.384c0,.023,0,.044,0,.067a5.617,5.617,0,0,1-5.645,5.35" transform="translate(1318.9 586.7)" fill="#ccc"/>
  </g>
</svg>
