<svg xmlns="http://www.w3.org/2000/svg" width="18" height="18" viewBox="0 0 18 18">
  <g id="Weight" transform="translate(-648 765) rotate(-90)">
    <rect id="Rectangle_62626" data-name="Rectangle 62626" width="18" height="18" transform="translate(747 648)" fill="#b7b7b7" opacity="0"/>
    <path id="weight-hanging" d="M16.13,13.5,13.82,4.656a1.021,1.021,0,0,0-.978-.781H10.935a2.618,2.618,0,0,0,.186-.969A2.957,2.957,0,0,0,8.083,0,2.981,2.981,0,0,0,5.018,2.906a2.73,2.73,0,0,0,.186.969H3.325a1.019,1.019,0,0,0-.977.78L.038,13.5a1.573,1.573,0,0,0,1.464,2H14.664A1.574,1.574,0,0,0,16.13,13.5ZM8.084,3.875a1.02,1.02,0,0,1-1.041-.969,1.02,1.02,0,0,1,1.041-.969A.993.993,0,0,1,9.1,2.906.994.994,0,0,1,8.084,3.875Z" transform="translate(764 648.916) rotate(90)" fill="#ccc" stroke="rgba(0,0,0,0)" stroke-width="1"/>
  </g>
</svg>
