<svg width="14" height="14" viewBox="0 0 14 14" fill="none" xmlns="http://www.w3.org/2000/svg">
<path d="M10.5403 0.434514L7.00474 3.97005L3.46921 0.434514C3.20134 0.166647 2.83808 0.0161029 2.45926 0.0159706C2.08043 0.0158383 1.71706 0.166127 1.44901 0.433806L0.438551 1.44426C0.305856 1.57696 0.200596 1.73449 0.128782 1.90786C0.0569682 2.08124 0.020006 2.26706 0.0200061 2.45472C0.0200063 2.64238 0.0569678 2.8282 0.128782 3.00157C0.200596 3.17495 0.305856 3.33248 0.438551 3.46517L3.97408 7.00071L0.438551 10.5362C0.170994 10.8042 0.0207137 11.1673 0.0207137 11.546C0.0207137 11.9246 0.170992 12.2878 0.438549 12.5557L1.44901 13.5662C1.71699 13.8342 2.08047 13.9847 2.45946 13.9847C2.83846 13.9847 3.20193 13.8342 3.46992 13.5662L7.00545 10.0307L10.541 13.5662C10.809 13.8342 11.1724 13.9847 11.5514 13.9847C11.9304 13.9847 12.2939 13.8342 12.5619 13.5662L13.5724 12.5557C13.8403 12.2877 13.9909 11.9243 13.9909 11.5453C13.9909 11.1663 13.8403 10.8028 13.5724 10.5348L10.0368 6.99929L13.5724 3.46376C13.8403 3.19577 13.9909 2.8323 13.9909 2.4533C13.9909 2.07431 13.8403 1.71084 13.5724 1.44285L12.5619 0.432391C12.429 0.299729 12.2714 0.194546 12.0978 0.122852C11.9243 0.0511582 11.7384 0.0143582 11.5506 0.0145558C11.3629 0.0147534 11.177 0.0519414 11.0037 0.124C10.8303 0.196059 10.6728 0.301573 10.5403 0.434514Z" fill="white"/>
</svg>
