<svg xmlns="http://www.w3.org/2000/svg" width="24.042" height="24.042" viewBox="0 0 24.042 24.042">
  <path id="plus" d="M14.857,38.286H9.714V33.143A1.143,1.143,0,0,0,8.571,32H7.429a1.143,1.143,0,0,0-1.143,1.143v5.143H1.143A1.143,1.143,0,0,0,0,39.429v1.143a1.143,1.143,0,0,0,1.143,1.143H6.286v5.143A1.143,1.143,0,0,0,7.429,48H8.571a1.143,1.143,0,0,0,1.143-1.143V41.714h5.143A1.143,1.143,0,0,0,16,40.571V39.429A1.143,1.143,0,0,0,14.857,38.286Z" transform="translate(-21.92 -10.607) rotate(-45)" fill="#b7b7b7" stroke="rgba(0,0,0,0)" stroke-width="1"/>
</svg>
