<svg xmlns="http://www.w3.org/2000/svg" width="18" height="18" viewBox="0 0 18 18">
  <g id="Mileage" transform="translate(-5283 -9327)">
    <rect id="Rectangle_40959" data-name="Rectangle 40959" width="18" height="18" transform="translate(5283 9327)" fill="#aaa" opacity="0"/>
    <path id="road" d="M16.713,73.878l-4.077-9.333A.888.888,0,0,0,11.828,64H8.981l.071.676a.233.233,0,0,1-.232.258H7.97a.233.233,0,0,1-.232-.258L7.81,64H4.963a.888.888,0,0,0-.809.545L.077,73.878A.931.931,0,0,0,.886,75.2H6.627l.3-2.849a.467.467,0,0,1,.464-.418H9.4a.467.467,0,0,1,.464.418l.3,2.849H15.9a.931.931,0,0,0,.809-1.322Zm-9.123-7.8a.233.233,0,0,1,.232-.209H8.969a.234.234,0,0,1,.232.209l.134,1.271a.35.35,0,0,1-.348.387H7.8a.35.35,0,0,1-.348-.387ZM9.2,71H7.589a.467.467,0,0,1-.464-.516l.148-1.4a.467.467,0,0,1,.464-.418H9.054a.467.467,0,0,1,.464.418l.148,1.4A.467.467,0,0,1,9.2,71Z" transform="translate(5283.604 9266.4)" fill="#aaa"/>
  </g>
</svg>
