<svg xmlns="http://www.w3.org/2000/svg" xmlns:xlink="http://www.w3.org/1999/xlink" width="409" height="97.5" viewBox="0 0 409 97.5">
  <defs>
    <clipPath id="clip-path">
      <path id="Union_822" data-name="Union 822" d="M215,77.842a1,1,0,0,1-1-1V32.936a1,1,0,0,1,1-1h16a1,1,0,0,1,1,1V76.842a1,1,0,0,1-1,1Zm71-23.951a1,1,0,0,1-1-1V1a1,1,0,0,1,1-1h16a1,1,0,0,1,1,1V52.891a1,1,0,0,1-1,1Zm-143-2a1,1,0,0,1-1-1V1a1,1,0,0,1,1-1h16a1,1,0,0,1,1,1V50.9a1,1,0,0,1-1,1ZM1,49.9a1,1,0,0,1-1-1V1A1,1,0,0,1,1,0H17a1,1,0,0,1,1,1V48.9a1,1,0,0,1-1,1ZM357,39.92a1,1,0,0,1-1-1V10.98a1,1,0,0,1,1-1h16a1,1,0,0,1,1,1V38.919a1,1,0,0,1-1,1ZM72,29.939a1,1,0,0,1-1-1V1a1,1,0,0,1,1-1H88a1,1,0,0,1,1,1V28.94a1,1,0,0,1-1,1Z" transform="translate(0 0)" fill="#6d82c7"/>
    </clipPath>
    <linearGradient id="linear-gradient" x1="0.5" x2="0.5" y2="1" gradientUnits="objectBoundingBox">
      <stop offset="0" stop-color="#80cbba"/>
      <stop offset="1" stop-color="#ffcc80"/>
    </linearGradient>
  </defs>
  <g id="_3" data-name="3" transform="translate(16479.5 6088.5)">
    <path id="Path_38800" data-name="Path 38800" d="M0,0H408" transform="translate(-16479 -6040.079)" fill="none" stroke="#dadada" stroke-linecap="round" stroke-width="1" stroke-dasharray="0 3"/>
    <path id="Path_38801" data-name="Path 38801" d="M0,0H408" transform="translate(-16479 -6064.04)" fill="none" stroke="#dadada" stroke-linecap="round" stroke-width="1" stroke-dasharray="0 3"/>
    <path id="Path_38802" data-name="Path 38802" d="M0,0H408" transform="translate(-16479 -5992.158)" fill="none" stroke="#dadada" stroke-linecap="round" stroke-width="1" stroke-dasharray="0 3"/>
    <path id="Path_38803" data-name="Path 38803" d="M0,0H408" transform="translate(-16479 -6088)" fill="none" stroke="#dadada" stroke-linecap="round" stroke-width="1" stroke-dasharray="0 3"/>
    <path id="Path_38804" data-name="Path 38804" d="M0,0H408" transform="translate(-16479 -6016.118)" fill="none" stroke="#dadada" stroke-linecap="round" stroke-width="1" stroke-dasharray="0 3"/>
    <g id="Mask_Group_63780" data-name="Mask Group 63780" transform="translate(-16452.998 -6079)" opacity="0.4" clip-path="url(#clip-path)">
      <rect id="Rectangle_70240" data-name="Rectangle 70240" width="404" height="84.828" transform="translate(-24.002 -6.986)" fill="url(#linear-gradient)"/>
    </g>
    <path id="Path_38039" data-name="Path 38039" d="M-22329-6257s44.266-10,71-10,55.162,3.559,71,11,45.783,28.856,72,29,44.541-25.418,71-28,71-2,71-2" transform="translate(5885 202.933)" fill="none" stroke="#e0eaf8" stroke-width="3"/>
    <g id="Path_38805" data-name="Path 38805" transform="translate(-16448 -6058.054)" fill="#fff">
      <path d="M 4 7 C 2.345789909362793 7 1 5.654210090637207 1 4 C 1 2.345789909362793 2.345789909362793 1 4 1 C 5.654210090637207 1 7 2.345789909362793 7 4 C 7 5.654210090637207 5.654210090637207 7 4 7 Z" stroke="none"/>
      <path d="M 4 2 C 2.897200107574463 2 2 2.897200107574463 2 4 C 2 5.102799892425537 2.897200107574463 6 4 6 C 5.102799892425537 6 6 5.102799892425537 6 4 C 6 2.897200107574463 5.102799892425537 2 4 2 M 4 0 C 6.209139823913574 0 8 1.790860176086426 8 4 C 8 6.209139823913574 6.209139823913574 8 4 8 C 1.790860176086426 8 0 6.209139823913574 0 4 C 0 1.790860176086426 1.790860176086426 0 4 0 Z" stroke="none" fill="#e0eaf8"/>
    </g>
    <g id="Path_38806" data-name="Path 38806" transform="translate(-16377 -6068.036)" fill="#fff">
      <path d="M4,0A4,4,0,1,1,0,4,4,4,0,0,1,4,0Z" stroke="none"/>
      <path d="M 4 2 C 2.897200107574463 2 2 2.897200107574463 2 4 C 2 5.102799892425537 2.897200107574463 6 4 6 C 5.102799892425537 6 6 5.102799892425537 6 4 C 6 2.897200107574463 5.102799892425537 2 4 2 M 4 0 C 6.209139823913574 0 8 1.790860176086426 8 4 C 8 6.209139823913574 6.209139823913574 8 4 8 C 1.790860176086426 8 0 6.209139823913574 0 4 C 0 1.790860176086426 1.790860176086426 0 4 0 Z" stroke="none" fill="rgba(109,130,199,0.4)"/>
    </g>
    <g id="Path_38807" data-name="Path 38807" transform="translate(-16306 -6057.056)" fill="#fff">
      <path d="M4,0A4,4,0,1,1,0,4,4,4,0,0,1,4,0Z" stroke="none"/>
      <path d="M 4 2 C 2.897200107574463 2 2 2.897200107574463 2 4 C 2 5.102799892425537 2.897200107574463 6 4 6 C 5.102799892425537 6 6 5.102799892425537 6 4 C 6 2.897200107574463 5.102799892425537 2 4 2 M 4 0 C 6.209139823913574 0 8 1.790860176086426 8 4 C 8 6.209139823913574 6.209139823913574 8 4 8 C 1.790860176086426 8 0 6.209139823913574 0 4 C 0 1.790860176086426 1.790860176086426 0 4 0 Z" stroke="none" fill="rgba(109,130,199,0.4)"/>
    </g>
    <g id="Path_38808" data-name="Path 38808" transform="translate(-16234 -6028.107)" fill="#fff">
      <path d="M 4 7 C 2.345789909362793 7 1 5.654210090637207 1 4 C 1 2.345789909362793 2.345789909362793 1 4 1 C 5.654210090637207 1 7 2.345789909362793 7 4 C 7 5.654210090637207 5.654210090637207 7 4 7 Z" stroke="none"/>
      <path d="M 4 2 C 2.897200107574463 2 2 2.897200107574463 2 4 C 2 5.102799892425537 2.897200107574463 6 4 6 C 5.102799892425537 6 6 5.102799892425537 6 4 C 6 2.897200107574463 5.102799892425537 2 4 2 M 4 0 C 6.209139823913574 0 8 1.790860176086426 8 4 C 8 6.209139823913574 6.209139823913574 8 4 8 C 1.790860176086426 8 0 6.209139823913574 0 4 C 0 1.790860176086426 1.790860176086426 0 4 0 Z" stroke="none" fill="#e0eaf8"/>
    </g>
    <g id="Path_38809" data-name="Path 38809" transform="translate(-16163 -6056.057)" fill="#fff">
      <path d="M 4 7 C 2.345789909362793 7 1 5.654210090637207 1 4 C 1 2.345789909362793 2.345789909362793 1 4 1 C 5.654210090637207 1 7 2.345789909362793 7 4 C 7 5.654210090637207 5.654210090637207 7 4 7 Z" stroke="none"/>
      <path d="M 4 2 C 2.897200107574463 2 2 2.897200107574463 2 4 C 2 5.102799892425537 2.897200107574463 6 4 6 C 5.102799892425537 6 6 5.102799892425537 6 4 C 6 2.897200107574463 5.102799892425537 2 4 2 M 4 0 C 6.209139823913574 0 8 1.790860176086426 8 4 C 8 6.209139823913574 6.209139823913574 8 4 8 C 1.790860176086426 8 0 6.209139823913574 0 4 C 0 1.790860176086426 1.790860176086426 0 4 0 Z" stroke="none" fill="#e0eaf8"/>
    </g>
    <g id="Path_38810" data-name="Path 38810" transform="translate(-16092 -6058.054)" fill="#fff">
      <path d="M 4 7 C 2.345789909362793 7 1 5.654210090637207 1 4 C 1 2.345789909362793 2.345789909362793 1 4 1 C 5.654210090637207 1 7 2.345789909362793 7 4 C 7 5.654210090637207 5.654210090637207 7 4 7 Z" stroke="none"/>
      <path d="M 4 2 C 2.897200107574463 2 2 2.897200107574463 2 4 C 2 5.102799892425537 2.897200107574463 6 4 6 C 5.102799892425537 6 6 5.102799892425537 6 4 C 6 2.897200107574463 5.102799892425537 2 4 2 M 4 0 C 6.209139823913574 0 8 1.790860176086426 8 4 C 8 6.209139823913574 6.209139823913574 8 4 8 C 1.790860176086426 8 0 6.209139823913574 0 4 C 0 1.790860176086426 1.790860176086426 0 4 0 Z" stroke="none" fill="#e0eaf8"/>
    </g>
    <path id="Path_31497" data-name="Path 31497" d="M235.928,46.5l-1.613,29.823c-.16,2.914-3.978,5.189-8.531,5.085L54.72,77.988,44.407,77.74c-4.119-.1-7.339-2.313-7.2-4.947l.813-15.013.838-15.3c.16-2.913,3.977-5.188,8.53-5.084l180.619,3.631c4.543.121,8.083,2.571,7.916,5.477" transform="translate(-16462.934 -6111.254)" fill="#e5e5e5"/>
    <path id="Path_31498" data-name="Path 31498" d="M234.642,46.634,233.03,75.982c-.16,2.865-3.928,5.108-8.419,5.009L54.525,77.71l-10.174-.235c-4.061-.093-7.236-2.27-7.094-4.862l.813-14.774.838-15.06c.159-2.866,3.925-5.108,8.417-5.01L226.837,41.25c4.48.118,7.971,2.525,7.8,5.385" transform="translate(-16462.934 -6111.253)" fill="#fff"/>
    <path id="Path_38811" data-name="Path 38811" d="M31.132,0H0" transform="translate(-16435 -5992)" fill="none" stroke="#dadada" stroke-width="2"/>
    <path id="Path_31499" data-name="Path 31499" d="M64.48,95.841l13.734-4.282,5.141-9.1,1.1.207a6.889,6.889,0,0,1,1.684.507c.84.529.456.746-.1,1.571l-6.291,9.4L64.819,96.78Z" transform="translate(-16463.004 -6117.026)" fill="#919191"/>
    <path id="Path_31500" data-name="Path 31500" d="M70.034,90.383S65.744,94.088,62.44,93s-4.953-4.242-3.738-6.468,4.561-2.78,7.555-1.768,3.733,5.585,3.777,5.617" transform="translate(-16462.988 -6117.025)" fill="#b7b7b7"/>
    <path id="Path_31501" data-name="Path 31501" d="M64.254,99.126c-1.642,2.828-4.353,4.714-6.315,3.863s-2.21-4.238-.331-7.228,4.939-4.312,6.654-3.308,1.625,3.84-.008,6.673" transform="translate(-16462.982 -6117.023)" fill="#b7b7b7"/>
    <path id="Path_31502" data-name="Path 31502" d="M59.237,102.88c1.353,2.1-.966,5.761-5.184,8.751-4.266,3.165-12.733-1.838-12.655-2.008a23.685,23.685,0,0,1,7.159-6.294c4.581-2.59,9.326-2.532,10.679-.45" transform="translate(-16462.943 -6117.02)" fill="#b7b7b7"/>
    <path id="Path_31503" data-name="Path 31503" d="M67.528,85.5a12.186,12.186,0,0,1,1.505,3.928s-4.352,3.609-7.6,2.44a6.7,6.7,0,0,1-2.523-1.611,6.323,6.323,0,0,0,3.534,2.759c3.3,1.083,7.6-2.645,7.594-2.619s-.636-3.282-2.507-4.9" transform="translate(-16462.99 -6117.025)" fill="#919191"/>
    <path id="Path_31504" data-name="Path 31504" d="M65.481,94.552a9.587,9.587,0,0,1-1.192,2.724c-1.741,2.78-4.49,4.6-6.41,3.715a2.764,2.764,0,0,1-1.445-2.217c-.352,1.965.213,3.653,1.506,4.22,1.959.873,4.678-1.034,6.315-3.862a7.853,7.853,0,0,0,1.227-4.58" transform="translate(-16462.982 -6117.022)" fill="#919191"/>
    <path id="Path_31505" data-name="Path 31505" d="M59.366,103.134c-.553,1.957-2.611,4.365-5.658,6.386-3.186,2.182-8.595.114-11.1-1.392a17.514,17.514,0,0,0-1.218,1.5c-.079.17,8.39,5.171,12.655,2.009,4.064-2.878,6.345-6.379,5.318-8.5" transform="translate(-16462.943 -6117.02)" fill="#919191"/>
    <path id="Path_31506" data-name="Path 31506" d="M61.182,89.915c-.224.225-8.32-5.823-10.984-5.237-2.869.872-6.961,5.054-5.052,7.8,1.993,2.671,1.9.284,1.663-.126s-1.253-.192-1.258-.2-1.47-1.838.735-4.159S49.811,85.036,51,85.123a70.214,70.214,0,0,1,6.936,3.4,26.779,26.779,0,0,0,2.889,1.833s.633-.112.355-.441" transform="translate(-16462.953 -6117.025)" fill="#919191"/>
    <path id="Path_31507" data-name="Path 31507" d="M49.215,82.131l-.3,9.235L59.33,96.706l-.289-1.359-7.762-4.164.282-8.907Z" transform="translate(-16462.963 -6117.026)" fill="#919191"/>
    <path id="Path_31508" data-name="Path 31508" d="M48.177,108.135c-.088-.091-.274-.328-.292-.349-1.531,1.23-9.7,6.98-9.7,6.98l1.287,9.947H44.26l-5.018-9.663s7.655-5.685,8.936-6.915" transform="translate(-16462.936 -6117.019)" fill="#919191"/>
    <path id="Path_31509" data-name="Path 31509" d="M52.013,110.875A70.431,70.431,0,0,0,56.7,117.1l-4.583,7.656-3.655-.047,6.907-7.559a46.667,46.667,0,0,1-3.664-5.954Z" transform="translate(-16462.963 -6117.018)" fill="#919191"/>
    <path id="Path_31512" data-name="Path 31512" d="M61.964,85.685c-.436.214-7.55-11.286-10.136-10.335C48.747,76.528,47.1,78.8,47.6,80.085s2.01,2.235,2.028,1.081-.739-.479-.744-.479-1.505.135-.3-1.965,2.694-3.4,4.1-2.55a7.87,7.87,0,0,1,2.737,2.319c1.153,1.584,6.045,7.716,6.185,7.624,0,0,.265.33.352-.431" transform="translate(-16462.961 -6117.028)" fill="#919191"/>
    <path id="Path_38767" data-name="Path 38767" d="M6.588.719V7.707H5.518L1.658,2.975V7.707H.368V.719h1.07L5.3,5.451V.719Zm4.16,7.058a3.034,3.034,0,0,1-1.46-.349,2.55,2.55,0,0,1-1.015-.973,2.745,2.745,0,0,1-.365-1.413,2.719,2.719,0,0,1,.365-1.408,2.561,2.561,0,0,1,1.015-.968,3.246,3.246,0,0,1,2.93,0,2.56,2.56,0,0,1,1.015.968A2.719,2.719,0,0,1,13.6,5.041a2.746,2.746,0,0,1-.365,1.413,2.55,2.55,0,0,1-1.015.973A3.055,3.055,0,0,1,10.748,7.777Zm0-1.068a1.529,1.529,0,0,0,1.14-.459,1.652,1.652,0,0,0,.45-1.208,1.652,1.652,0,0,0-.45-1.208,1.528,1.528,0,0,0-1.14-.459,1.512,1.512,0,0,0-1.135.459,1.663,1.663,0,0,0-.445,1.208,1.662,1.662,0,0,0,.445,1.208A1.512,1.512,0,0,0,10.748,6.709Zm7.26.709a1.473,1.473,0,0,1-.535.27,2.413,2.413,0,0,1-.665.09,1.889,1.889,0,0,1-1.36-.459,1.766,1.766,0,0,1-.48-1.338V3.414h-.88v-1h.88V1.2h1.25V2.416h1.43v1h-1.43V5.95a.843.843,0,0,0,.19.594.714.714,0,0,0,.55.2,1.1,1.1,0,0,0,.7-.22Zm8.81-2.346q0,.13-.02.369h-4.19a1.449,1.449,0,0,0,.575.933,1.887,1.887,0,0,0,1.155.344,1.948,1.948,0,0,0,1.45-.579l.67.769a2.258,2.258,0,0,1-.91.649,3.611,3.611,0,0,1-2.79-.13,2.519,2.519,0,0,1-1.035-.973,2.745,2.745,0,0,1-.365-1.413,2.786,2.786,0,0,1,.355-1.4,2.516,2.516,0,0,1,.985-.973,2.878,2.878,0,0,1,1.42-.349,2.805,2.805,0,0,1,1.395.344,2.441,2.441,0,0,1,.96.968A2.932,2.932,0,0,1,26.818,5.071Zm-2.7-1.757a1.509,1.509,0,0,0-1.015.354,1.49,1.49,0,0,0-.505.943h3.03a1.47,1.47,0,0,0-.49-.938A1.492,1.492,0,0,0,24.118,3.314Zm6.93-1a2.233,2.233,0,0,1,1.62.589,2.321,2.321,0,0,1,.61,1.747V7.706h-1.25v-2.9a1.5,1.5,0,0,0-.33-1.053,1.221,1.221,0,0,0-.94-.354,1.444,1.444,0,0,0-1.09.414,1.65,1.65,0,0,0-.4,1.193v2.7h-1.25V2.375h1.19v.689a1.954,1.954,0,0,1,.78-.559A2.811,2.811,0,0,1,31.048,2.315Zm6.27,5.461a3.034,3.034,0,0,1-1.46-.349,2.55,2.55,0,0,1-1.015-.973,2.745,2.745,0,0,1-.365-1.413,2.719,2.719,0,0,1,.365-1.408,2.561,2.561,0,0,1,1.015-.968,3.246,3.246,0,0,1,2.93,0,2.56,2.56,0,0,1,1.015.968,2.719,2.719,0,0,1,.365,1.408A2.746,2.746,0,0,1,39.8,6.453a2.55,2.55,0,0,1-1.015.973A3.055,3.055,0,0,1,37.318,7.776Zm0-1.068a1.529,1.529,0,0,0,1.14-.459,1.652,1.652,0,0,0,.45-1.208,1.652,1.652,0,0,0-.45-1.208,1.528,1.528,0,0,0-1.14-.459,1.512,1.512,0,0,0-1.135.459,1.663,1.663,0,0,0-.445,1.208,1.662,1.662,0,0,0,.445,1.208A1.512,1.512,0,0,0,37.318,6.708Zm9.22-4.333V7.706h-1.19V7.027a1.989,1.989,0,0,1-.75.554,2.417,2.417,0,0,1-.97.195,2.323,2.323,0,0,1-1.685-.594,2.341,2.341,0,0,1-.615-1.762V2.375h1.25V5.25A1.543,1.543,0,0,0,42.9,6.323a1.192,1.192,0,0,0,.925.354,1.4,1.4,0,0,0,1.065-.414,1.663,1.663,0,0,0,.4-1.193v-2.7Zm6.94,0V6.9q0,2.815-2.88,2.815a5.353,5.353,0,0,1-1.46-.195A3.1,3.1,0,0,1,48,8.954l.56-.938a2.677,2.677,0,0,0,.885.464,3.475,3.475,0,0,0,1.085.175,1.793,1.793,0,0,0,1.29-.4,1.631,1.631,0,0,0,.41-1.218v-.28a2.055,2.055,0,0,1-.78.529,2.753,2.753,0,0,1-1.01.18,2.9,2.9,0,0,1-1.375-.324,2.44,2.44,0,0,1-.97-.913,2.559,2.559,0,0,1-.355-1.348,2.534,2.534,0,0,1,.355-1.343,2.416,2.416,0,0,1,.97-.9,2.938,2.938,0,0,1,1.375-.32,2.821,2.821,0,0,1,1.055.19,1.946,1.946,0,0,1,.795.579V2.375Zm-2.85,4.033a1.64,1.64,0,0,0,1.165-.424,1.439,1.439,0,0,0,.455-1.1,1.412,1.412,0,0,0-.455-1.088,1.842,1.842,0,0,0-2.34,0A1.412,1.412,0,0,0,49,4.881a1.439,1.439,0,0,0,.455,1.1A1.654,1.654,0,0,0,50.628,6.408Zm7.52-4.093a2.233,2.233,0,0,1,1.62.589,2.321,2.321,0,0,1,.61,1.747V7.706h-1.25V4.81a1.5,1.5,0,0,0-.33-1.053,1.221,1.221,0,0,0-.94-.354,1.444,1.444,0,0,0-1.09.414,1.65,1.65,0,0,0-.4,1.193v2.7h-1.25V.3h1.25v2.7a2.034,2.034,0,0,1,.765-.5A2.812,2.812,0,0,1,58.148,2.315ZM69.958.3V7.705h-1.2V7.017a1.934,1.934,0,0,1-.765.569,2.587,2.587,0,0,1-1,.19A2.818,2.818,0,0,1,65.6,7.436a2.441,2.441,0,0,1-.965-.963,2.878,2.878,0,0,1-.35-1.433,2.85,2.85,0,0,1,.35-1.428,2.45,2.45,0,0,1,.965-.958,2.818,2.818,0,0,1,1.385-.339,2.542,2.542,0,0,1,.97.18,1.951,1.951,0,0,1,.75.539V.3Zm-2.82,6.41a1.61,1.61,0,0,0,.81-.2,1.48,1.48,0,0,0,.57-.584,1.784,1.784,0,0,0,.21-.879,1.784,1.784,0,0,0-.21-.879,1.48,1.48,0,0,0-.57-.584,1.705,1.705,0,0,0-1.62,0,1.48,1.48,0,0,0-.57.584,1.784,1.784,0,0,0-.21.879,1.784,1.784,0,0,0,.21.879,1.48,1.48,0,0,0,.57.584A1.61,1.61,0,0,0,67.138,6.707Zm6.5-4.393a2.606,2.606,0,0,1,1.8.564,2.178,2.178,0,0,1,.625,1.7V7.705h-1.18V7.056a1.454,1.454,0,0,1-.655.534,2.564,2.564,0,0,1-1.025.185,2.515,2.515,0,0,1-1.05-.2A1.622,1.622,0,0,1,71.463,7a1.442,1.442,0,0,1-.245-.824,1.411,1.411,0,0,1,.535-1.153,2.66,2.66,0,0,1,1.685-.434h1.38V4.51a1.092,1.092,0,0,0-.335-.859,1.451,1.451,0,0,0-.995-.3,2.876,2.876,0,0,0-.885.14,2.175,2.175,0,0,0-.735.389l-.49-.908a3.036,3.036,0,0,1,1.01-.489A4.5,4.5,0,0,1,73.638,2.314Zm-.17,4.553a1.616,1.616,0,0,0,.835-.215,1.168,1.168,0,0,0,.515-.614V5.419h-1.29q-1.08,0-1.08.709a.636.636,0,0,0,.27.539A1.239,1.239,0,0,0,73.468,6.867Zm7.41.549a1.473,1.473,0,0,1-.535.27,2.413,2.413,0,0,1-.665.09,1.889,1.889,0,0,1-1.36-.459,1.766,1.766,0,0,1-.48-1.338V3.412h-.88v-1h.88V1.2h1.25V2.414h1.43v1h-1.43V5.948a.843.843,0,0,0,.19.594.714.714,0,0,0,.55.2,1.1,1.1,0,0,0,.7-.22Zm3.07-5.1a2.606,2.606,0,0,1,1.8.564,2.178,2.178,0,0,1,.625,1.7V7.7H85.2V7.056a1.454,1.454,0,0,1-.655.534,2.564,2.564,0,0,1-1.025.185,2.515,2.515,0,0,1-1.05-.2A1.622,1.622,0,0,1,81.773,7a1.442,1.442,0,0,1-.245-.824,1.411,1.411,0,0,1,.535-1.153,2.66,2.66,0,0,1,1.685-.434h1.38V4.51a1.092,1.092,0,0,0-.335-.859,1.451,1.451,0,0,0-.995-.3,2.876,2.876,0,0,0-.885.14,2.175,2.175,0,0,0-.735.389l-.49-.908a3.036,3.036,0,0,1,1.01-.489A4.5,4.5,0,0,1,83.948,2.314Zm-.17,4.553a1.616,1.616,0,0,0,.835-.215,1.168,1.168,0,0,0,.515-.614V5.419h-1.29q-1.08,0-1.08.709a.636.636,0,0,0,.27.539A1.239,1.239,0,0,0,83.778,6.866Zm9.13-5.631q-.79,0-.79.859v.319h1.47v1h-1.43V7.7h-1.25V3.412h-.88v-1h.88V2.074a1.816,1.816,0,0,1,.5-1.353,2.3,2.3,0,0,1,2.54-.2l-.35.938A1.2,1.2,0,0,0,92.908,1.235Zm3.84,6.539a3.034,3.034,0,0,1-1.46-.349,2.55,2.55,0,0,1-1.015-.973,2.745,2.745,0,0,1-.365-1.413,2.719,2.719,0,0,1,.365-1.408,2.561,2.561,0,0,1,1.015-.968,3.246,3.246,0,0,1,2.93,0,2.56,2.56,0,0,1,1.015.968A2.719,2.719,0,0,1,99.6,5.039a2.746,2.746,0,0,1-.365,1.413,2.55,2.55,0,0,1-1.015.973A3.055,3.055,0,0,1,96.748,7.774Zm0-1.068a1.529,1.529,0,0,0,1.14-.459,1.652,1.652,0,0,0,.45-1.208,1.652,1.652,0,0,0-.45-1.208,1.528,1.528,0,0,0-1.14-.459,1.512,1.512,0,0,0-1.135.459,1.662,1.662,0,0,0-.445,1.208,1.662,1.662,0,0,0,.445,1.208A1.512,1.512,0,0,0,96.748,6.706Zm5.24-3.554a2.084,2.084,0,0,1,1.9-.839V3.5a1.589,1.589,0,0,0-.29-.03,1.511,1.511,0,0,0-1.14.424,1.69,1.69,0,0,0-.41,1.223V7.7H100.8V2.373h1.19Zm8.22,4.622a3.135,3.135,0,0,1-1.49-.349,2.568,2.568,0,0,1-1.03-.973,2.716,2.716,0,0,1-.37-1.413,2.69,2.69,0,0,1,.37-1.408,2.587,2.587,0,0,1,1.025-.968,3.127,3.127,0,0,1,1.5-.349,2.884,2.884,0,0,1,1.385.319,2.074,2.074,0,0,1,.895.918l-.96.559a1.524,1.524,0,0,0-.575-.554,1.68,1.68,0,0,0-1.915.27,1.628,1.628,0,0,0-.46,1.213,1.638,1.638,0,0,0,.455,1.213,1.688,1.688,0,0,0,1.92.27,1.524,1.524,0,0,0,.575-.554l.96.559a2.162,2.162,0,0,1-.905.924A2.826,2.826,0,0,1,110.208,7.774Zm6.34-5.461a2.233,2.233,0,0,1,1.62.589,2.321,2.321,0,0,1,.61,1.747V7.7h-1.25v-2.9a1.5,1.5,0,0,0-.33-1.053,1.221,1.221,0,0,0-.94-.354,1.444,1.444,0,0,0-1.09.414,1.65,1.65,0,0,0-.4,1.193V7.7h-1.25V.3h1.25v2.7a2.034,2.034,0,0,1,.765-.5A2.812,2.812,0,0,1,116.548,2.313Zm5.86,0a2.606,2.606,0,0,1,1.8.564,2.178,2.178,0,0,1,.625,1.7V7.7h-1.18V7.055a1.454,1.454,0,0,1-.655.534,2.564,2.564,0,0,1-1.025.185,2.515,2.515,0,0,1-1.05-.2A1.622,1.622,0,0,1,120.233,7a1.442,1.442,0,0,1-.245-.824,1.411,1.411,0,0,1,.535-1.153,2.66,2.66,0,0,1,1.685-.434h1.38v-.08a1.092,1.092,0,0,0-.335-.859,1.451,1.451,0,0,0-.995-.3,2.876,2.876,0,0,0-.885.14,2.175,2.175,0,0,0-.735.389l-.49-.908a3.036,3.036,0,0,1,1.01-.489A4.5,4.5,0,0,1,122.408,2.313Zm-.17,4.553a1.616,1.616,0,0,0,.835-.215,1.168,1.168,0,0,0,.515-.614V5.418H122.3q-1.08,0-1.08.709a.636.636,0,0,0,.27.539A1.239,1.239,0,0,0,122.238,6.865Zm5.39-3.714a2.084,2.084,0,0,1,1.9-.839V3.5a1.589,1.589,0,0,0-.29-.03,1.511,1.511,0,0,0-1.14.424,1.691,1.691,0,0,0-.41,1.223V7.7h-1.25V2.372h1.19ZM134,7.414a1.473,1.473,0,0,1-.535.27,2.413,2.413,0,0,1-.665.09,1.889,1.889,0,0,1-1.36-.459,1.766,1.766,0,0,1-.48-1.338V3.411h-.88v-1h.88V1.194h1.25V2.412h1.43v1h-1.43V5.946a.843.843,0,0,0,.19.594.714.714,0,0,0,.55.2,1.1,1.1,0,0,0,.7-.22Zm8.79-5.042L140.5,7.7h-1.29l-2.29-5.331h1.3l1.66,3.953,1.71-3.954Zm.78,0h1.25V7.7h-1.25Zm.63-.879a.8.8,0,0,1-.57-.215.7.7,0,0,1-.23-.534.7.7,0,0,1,.23-.534A.8.8,0,0,1,144.2,0a.826.826,0,0,1,.57.2.659.659,0,0,1,.23.514.752.752,0,0,1-.225.554A.779.779,0,0,1,144.2,1.493Zm7.28,3.574q0,.13-.02.369h-4.19a1.45,1.45,0,0,0,.575.933A1.887,1.887,0,0,0,149,6.715a1.948,1.948,0,0,0,1.45-.579l.67.769a2.258,2.258,0,0,1-.91.649,3.611,3.611,0,0,1-2.79-.13,2.519,2.519,0,0,1-1.035-.973,2.745,2.745,0,0,1-.365-1.413,2.786,2.786,0,0,1,.355-1.4,2.516,2.516,0,0,1,.985-.973,2.878,2.878,0,0,1,1.42-.349,2.805,2.805,0,0,1,1.395.344,2.441,2.441,0,0,1,.96.968A2.933,2.933,0,0,1,151.478,5.067Zm-2.7-1.757a1.509,1.509,0,0,0-1.015.354,1.49,1.49,0,0,0-.505.943h3.03a1.47,1.47,0,0,0-.49-.938A1.492,1.492,0,0,0,148.778,3.31Zm12.13-.939L158.938,7.7h-1.2l-1.38-3.674-1.4,3.674h-1.2L151.8,2.372h1.18l1.41,3.933,1.47-3.934h1.05l1.44,3.953,1.45-3.954Zm.93,5.4a.811.811,0,1,1,.58-.235A.8.8,0,0,1,161.838,7.773ZM4.861,23.811a5.131,5.131,0,0,1-2.489-.6A4.453,4.453,0,0,1,.63,21.54a4.865,4.865,0,0,1,.007-4.8A4.5,4.5,0,0,1,2.385,15.07a5.132,5.132,0,0,1,2.49-.6,5.2,5.2,0,0,1,2.041.389,4.162,4.162,0,0,1,1.56,1.129L7.384,17.01a3.187,3.187,0,0,0-2.431-1.064,3.413,3.413,0,0,0-1.677.409A2.948,2.948,0,0,0,2.118,17.49a3.473,3.473,0,0,0,0,3.3,2.947,2.947,0,0,0,1.157,1.136,3.413,3.413,0,0,0,1.677.409,3.17,3.17,0,0,0,2.431-1.077l1.092,1.038a4.152,4.152,0,0,1-1.567,1.129A5.248,5.248,0,0,1,4.861,23.811Zm7.943-.039a3.944,3.944,0,0,1-1.9-.454,3.315,3.315,0,0,1-1.319-1.265,3.779,3.779,0,0,1,0-3.666,3.329,3.329,0,0,1,1.32-1.259,4.219,4.219,0,0,1,3.809,0,3.329,3.329,0,0,1,1.319,1.259,3.779,3.779,0,0,1,0,3.666,3.315,3.315,0,0,1-1.32,1.265A3.971,3.971,0,0,1,12.8,23.772Zm0-1.389a1.987,1.987,0,0,0,1.482-.6,2.4,2.4,0,0,0,0-3.141,1.987,1.987,0,0,0-1.482-.6,1.966,1.966,0,0,0-1.476.6,2.421,2.421,0,0,0,0,3.141A1.966,1.966,0,0,0,12.8,22.383Zm14.027-5.711a2.827,2.827,0,0,1,2.08.759,3.074,3.074,0,0,1,.767,2.278V23.68H28.053V19.916a2.027,2.027,0,0,0-.4-1.369,1.455,1.455,0,0,0-1.157-.461,1.7,1.7,0,0,0-1.313.539,2.2,2.2,0,0,0-.494,1.538V23.68H23.061V19.917a2.027,2.027,0,0,0-.4-1.369,1.455,1.455,0,0,0-1.157-.461,1.7,1.7,0,0,0-1.32.532,2.21,2.21,0,0,0-.488,1.544v3.517H18.069V16.75h1.547v.883a2.526,2.526,0,0,1,.975-.714,3.315,3.315,0,0,1,1.3-.247,3.145,3.145,0,0,1,1.384.292,2.246,2.246,0,0,1,.955.863,2.893,2.893,0,0,1,1.105-.85A3.594,3.594,0,0,1,26.832,16.672Zm11.518,3.582q0,.169-.026.48H32.876a1.884,1.884,0,0,0,.747,1.213,2.453,2.453,0,0,0,1.5.448,2.533,2.533,0,0,0,1.885-.753l.871,1a2.935,2.935,0,0,1-1.183.844,4.695,4.695,0,0,1-3.627-.169,3.274,3.274,0,0,1-1.345-1.265,3.569,3.569,0,0,1-.474-1.836,3.622,3.622,0,0,1,.462-1.824,3.271,3.271,0,0,1,1.281-1.265,3.741,3.741,0,0,1,1.846-.454,3.647,3.647,0,0,1,1.813.448A3.173,3.173,0,0,1,37.9,18.378,3.812,3.812,0,0,1,38.349,20.254Zm-3.51-2.284a1.962,1.962,0,0,0-1.32.461,1.937,1.937,0,0,0-.657,1.227H36.8a1.911,1.911,0,0,0-.637-1.22A1.939,1.939,0,0,0,34.839,17.969Zm12.506-1.3a3.69,3.69,0,0,1,1.813.441,3.185,3.185,0,0,1,1.254,1.246,4.026,4.026,0,0,1,0,3.718,3.174,3.174,0,0,1-1.255,1.252,3.69,3.69,0,0,1-1.814.441,3.363,3.363,0,0,1-1.306-.247,2.514,2.514,0,0,1-.994-.74v.9H43.5V14.05h1.625v3.543A2.729,2.729,0,0,1,46.1,16.9,3.221,3.221,0,0,1,47.346,16.671Zm-.182,5.711a1.966,1.966,0,0,0,1.476-.6,2.421,2.421,0,0,0,0-3.141,1.966,1.966,0,0,0-1.475-.6,2.093,2.093,0,0,0-1.053.266,1.924,1.924,0,0,0-.741.759,2.526,2.526,0,0,0,0,2.284,1.924,1.924,0,0,0,.741.759A2.093,2.093,0,0,0,47.163,22.382Zm7.813-5.711a3.388,3.388,0,0,1,2.346.733,2.832,2.832,0,0,1,.812,2.213v4.062H56.6v-.844a1.89,1.89,0,0,1-.852.694,3.333,3.333,0,0,1-1.333.24,3.269,3.269,0,0,1-1.365-.266,2.108,2.108,0,0,1-.9-.74,1.875,1.875,0,0,1-.318-1.071,1.834,1.834,0,0,1,.7-1.5,3.458,3.458,0,0,1,2.191-.565H56.51v-.1a1.419,1.419,0,0,0-.435-1.116,1.886,1.886,0,0,0-1.293-.389,3.739,3.739,0,0,0-1.151.182,2.828,2.828,0,0,0-.956.506l-.637-1.181a3.947,3.947,0,0,1,1.313-.636A5.851,5.851,0,0,1,54.976,16.671Zm-.221,5.918a2.1,2.1,0,0,0,1.086-.279,1.519,1.519,0,0,0,.67-.8v-.8H54.833q-1.4,0-1.4.922a.827.827,0,0,0,.351.7A1.611,1.611,0,0,0,54.755,22.589Zm8.71,1.181a4.075,4.075,0,0,1-1.937-.454,3.338,3.338,0,0,1-1.339-1.265,3.734,3.734,0,0,1,0-3.666,3.364,3.364,0,0,1,1.333-1.259,4.065,4.065,0,0,1,1.944-.454,3.749,3.749,0,0,1,1.8.415,2.7,2.7,0,0,1,1.163,1.194l-1.248.727a1.981,1.981,0,0,0-.747-.72,2.184,2.184,0,0,0-2.49.35,2.388,2.388,0,0,0-.007,3.154,2.194,2.194,0,0,0,2.5.35,1.981,1.981,0,0,0,.748-.72l1.248.727a2.811,2.811,0,0,1-1.177,1.2A3.674,3.674,0,0,1,63.465,23.77ZM70.6,20.707l-1.209,1.142v1.83H67.768v-9.63h1.625v5.814l3.367-3.115h1.95l-2.9,2.907,3.172,4.023H73.007ZM81.769,23.77a6.225,6.225,0,0,1-1.651-.221,4.157,4.157,0,0,1-1.287-.558l.624-1.233a4.015,4.015,0,0,0,1.124.5,4.679,4.679,0,0,0,1.294.188q1.456,0,1.456-.766a.512.512,0,0,0-.37-.506,6.406,6.406,0,0,0-1.189-.273,9.664,9.664,0,0,1-1.4-.3,2.145,2.145,0,0,1-.936-.591,1.647,1.647,0,0,1-.4-1.175,1.846,1.846,0,0,1,.826-1.577,3.762,3.762,0,0,1,2.23-.591,6.444,6.444,0,0,1,1.43.162,4.013,4.013,0,0,1,1.17.435L84.07,18.5a3.854,3.854,0,0,0-1.989-.519A2.208,2.208,0,0,0,81,18.2a.639.639,0,0,0-.371.565.564.564,0,0,0,.4.552,6.309,6.309,0,0,0,1.228.3,9.492,9.492,0,0,1,1.365.3,2.137,2.137,0,0,1,.916.571,1.59,1.59,0,0,1,.383,1.142,1.807,1.807,0,0,1-.845,1.557A3.989,3.989,0,0,1,81.769,23.77Zm7.67,0a3.944,3.944,0,0,1-1.9-.454,3.315,3.315,0,0,1-1.319-1.265,3.779,3.779,0,0,1,0-3.666,3.329,3.329,0,0,1,1.32-1.259,4.219,4.219,0,0,1,3.809,0,3.329,3.329,0,0,1,1.319,1.259,3.779,3.779,0,0,1,0,3.666,3.315,3.315,0,0,1-1.32,1.265A3.971,3.971,0,0,1,89.439,23.769Zm0-1.389a1.987,1.987,0,0,0,1.482-.6,2.4,2.4,0,0,0,0-3.141,1.987,1.987,0,0,0-1.482-.6,1.966,1.966,0,0,0-1.476.6,2.421,2.421,0,0,0,0,3.141A1.966,1.966,0,0,0,89.439,22.381Zm8.385,1.388a3.944,3.944,0,0,1-1.9-.454,3.315,3.315,0,0,1-1.319-1.265,3.779,3.779,0,0,1,0-3.666,3.329,3.329,0,0,1,1.32-1.259,4.219,4.219,0,0,1,3.809,0,3.329,3.329,0,0,1,1.319,1.259,3.779,3.779,0,0,1,0,3.666,3.316,3.316,0,0,1-1.32,1.265A3.971,3.971,0,0,1,97.824,23.769Zm0-1.389a1.987,1.987,0,0,0,1.482-.6,2.4,2.4,0,0,0,0-3.141,1.987,1.987,0,0,0-1.482-.6,1.966,1.966,0,0,0-1.476.6,2.421,2.421,0,0,0,0,3.141A1.966,1.966,0,0,0,97.824,22.38Zm9.2-5.711a2.9,2.9,0,0,1,2.106.766,3.017,3.017,0,0,1,.793,2.271v3.971H108.3V19.914a1.944,1.944,0,0,0-.429-1.369,1.588,1.588,0,0,0-1.222-.461,1.878,1.878,0,0,0-1.417.539,2.145,2.145,0,0,0-.52,1.551v3.5h-1.625V16.748h1.547v.9a2.541,2.541,0,0,1,1.014-.727A3.655,3.655,0,0,1,107.028,16.67Zm4.758-2.077h1.924l-.325,6.074H112.1Zm.962,9.176a1.035,1.035,0,0,1-.754-.292.967.967,0,0,1-.3-.72.946.946,0,0,1,.3-.714,1.048,1.048,0,0,1,.754-.286,1.009,1.009,0,0,1,.734.286.957.957,0,0,1,.292.714.978.978,0,0,1-.293.72A1,1,0,0,1,112.748,23.769Z" transform="matrix(1, 0.017, -0.017, 1, -16413.473, -6065.953)" fill="#6c6c6c"/>
  </g>
</svg>
