<svg width="18" height="18" viewBox="0 0 18 18" fill="none" xmlns="http://www.w3.org/2000/svg">
<path fill-rule="evenodd" clip-rule="evenodd" d="M9.97125 0.956855C10.3012 0.994824 10.5487 1.26061 10.5899 1.58967L10.6788 2.30158C10.7042 2.50408 10.8533 2.67178 11.05 2.73506C11.3673 2.83631 11.675 2.96287 11.9701 3.10842C12.1509 3.20018 12.373 3.18752 12.5348 3.06096L13.1154 2.61166C13.3756 2.40916 13.7373 2.39334 13.9975 2.59584C14.0863 2.66545 14.172 2.73506 14.2576 2.80783L15.2316 3.78553L15.403 3.99436C15.606 4.25381 15.5933 4.61768 15.3903 4.87713L14.9461 5.4435C14.8192 5.60803 14.8033 5.82951 14.8985 6.01303C15.0508 6.31045 15.1809 6.62369 15.2888 6.94643C15.3522 7.1426 15.5204 7.28814 15.7234 7.31346L16.4468 7.40205C16.7736 7.44318 17.0401 7.68998 17.0814 8.01588C17.0845 8.04277 17.0877 8.07046 17.0909 8.09815C17.094 8.12583 17.0972 8.15352 17.1004 8.18041V9.82572C17.0972 9.85262 17.094 9.8803 17.0909 9.90799C17.0877 9.93567 17.0845 9.96336 17.0814 9.99025C17.0433 10.3162 16.7736 10.563 16.4468 10.6041L15.7234 10.6927C15.5204 10.718 15.3522 10.8635 15.2888 11.0597C15.1841 11.3824 15.0508 11.6957 14.8985 11.9931C14.8065 12.1766 14.8192 12.4013 14.9461 12.5626L15.3903 13.129C15.5933 13.3885 15.6092 13.7523 15.403 14.0118L15.2316 14.2206L14.2576 15.192C14.172 15.2647 14.0863 15.3344 13.9975 15.404C13.7373 15.6033 13.3756 15.5906 13.1154 15.3881L12.5412 14.9388C12.3794 14.8155 12.1604 14.7996 11.9764 14.8914C11.6814 15.0369 11.3736 15.1635 11.0563 15.2647C10.8596 15.328 10.7105 15.4957 10.6851 15.7014L10.5963 16.4133C10.555 16.7392 10.3076 17.0081 9.97759 17.0461C9.66667 17.0809 9.34939 17.0999 9.02895 17.0999C8.67677 17.0999 8.32777 17.0778 7.98829 17.0335C7.6615 16.9923 7.41719 16.7265 7.37595 16.4006L7.28394 15.6697C7.25856 15.4672 7.11261 15.3027 6.91907 15.2363C6.61449 15.135 6.31943 15.0116 6.03388 14.8661C5.84986 14.7743 5.6246 14.787 5.46279 14.9135L4.8917 15.3565C4.63153 15.559 4.26667 15.5717 4.0065 15.3692C3.47983 14.9578 3.00709 14.4832 2.59781 13.9548C2.39792 13.6954 2.41061 13.3347 2.61367 13.0752L3.0642 12.4994C3.18793 12.338 3.2038 12.1197 3.11179 11.9362C2.97219 11.6577 2.85162 11.3666 2.75327 11.066C2.68981 10.8699 2.52166 10.7243 2.3186 10.699L1.59522 10.6072C1.26843 10.5661 1.00192 10.3193 0.960673 9.99342C0.919427 9.66752 0.900391 9.33529 0.900391 8.9999C0.900391 8.66135 0.9226 8.32912 0.954327 8.00639C0.995573 7.68049 1.26208 7.43369 1.58887 7.39256L2.31226 7.3008C2.51531 7.27549 2.68347 7.12994 2.74692 6.93377C2.84528 6.63318 2.96584 6.34525 3.10544 6.06682C3.19745 5.8833 3.18476 5.66498 3.05785 5.50361L2.60732 4.92459C2.40427 4.66514 2.39158 4.30443 2.59146 4.04498C3.00074 3.51658 3.47348 3.04197 4.00016 2.63064C4.26032 2.42814 4.62519 2.4408 4.88535 2.6433L5.45644 3.08627C5.62143 3.21283 5.84352 3.22865 6.02754 3.13373C6.30991 2.99135 6.60815 2.86479 6.91273 2.76354C7.10627 2.69709 7.25221 2.53256 7.27759 2.33006L7.3696 1.59916C7.41085 1.27326 7.65515 1.00748 7.98194 0.966348C8.32142 0.922051 8.67043 0.899902 9.0226 0.899902C9.34305 0.899902 9.66032 0.918887 9.97125 0.956855ZM9.00039 13.5972C11.5394 13.5972 13.5977 11.5389 13.5977 8.9999C13.5977 6.46089 11.5394 4.40261 9.00039 4.40261C6.46137 4.40261 4.40309 6.46089 4.40309 8.9999C4.40309 11.5389 6.46137 13.5972 9.00039 13.5972Z" fill="#919191"/>
<path d="M7.49792 10.7601C7.913 11.1155 8.46182 11.3126 9.03151 11.3108C9.53045 11.31 10.0149 11.158 10.4085 10.8786C10.802 10.5992 11.0823 10.2084 11.2049 9.76791C11.2135 9.73653 11.2332 9.70861 11.261 9.68848C11.2888 9.66836 11.3231 9.65717 11.3586 9.65666H12.1236C12.1472 9.65661 12.1704 9.66129 12.1918 9.67035C12.2131 9.67942 12.232 9.69266 12.247 9.70913C12.2621 9.7256 12.273 9.74489 12.279 9.76563C12.2849 9.78637 12.2858 9.80805 12.2815 9.82914C12.1377 10.5194 11.734 11.1422 11.14 11.5903C10.546 12.0384 9.79891 12.2836 9.02766 12.2837C8.17544 12.2847 7.35584 11.9854 6.74054 11.4482L6.26353 11.8824C6.21873 11.9233 6.16163 11.9511 6.09947 11.9623C6.03731 11.9736 5.97287 11.9678 5.91431 11.9457C5.85576 11.9236 5.80572 11.8862 5.77052 11.8382C5.73533 11.7902 5.71657 11.7337 5.71661 11.676V10.0457C5.71661 9.96831 5.75036 9.8941 5.81043 9.83938C5.8705 9.78466 5.95197 9.75392 6.03693 9.75392H7.82669C7.89007 9.75388 7.95203 9.77097 8.00475 9.80303C8.05746 9.83509 8.09855 9.88067 8.12281 9.93401C8.14707 9.98735 8.15342 10.046 8.14104 10.1027C8.12866 10.1593 8.09812 10.2113 8.05328 10.2521L7.49792 10.7601Z" fill="#919191"/>
<path d="M10.5029 7.23972C10.0878 6.88429 9.53897 6.68723 8.96928 6.68905C8.47033 6.68979 7.98587 6.84184 7.59231 7.1212C7.19876 7.40057 6.91852 7.79136 6.79584 8.23189C6.78728 8.26327 6.76758 8.2912 6.7398 8.31132C6.71201 8.33144 6.6777 8.34263 6.64221 8.34315H5.87715C5.85361 8.3432 5.83035 8.33852 5.80902 8.32945C5.7877 8.32038 5.76882 8.30714 5.75375 8.29068C5.73868 8.27421 5.72778 8.25492 5.72182 8.23417C5.71586 8.21343 5.715 8.19175 5.71929 8.17067C5.86309 7.48045 6.26681 6.85759 6.86082 6.4095C7.45482 5.96141 8.20187 5.71618 8.97312 5.71612C9.82534 5.71507 10.6449 6.01445 11.2602 6.55156L11.7373 6.1174C11.7821 6.07656 11.8392 6.04874 11.9013 6.03746C11.9635 6.02619 12.0279 6.03197 12.0865 6.05407C12.145 6.07617 12.1951 6.11359 12.2303 6.16161C12.2655 6.20963 12.2842 6.26608 12.2842 6.32381V7.95411C12.2842 8.0315 12.2504 8.10571 12.1903 8.16043C12.1303 8.21515 12.0488 8.24589 11.9639 8.24589H10.1741C10.1107 8.24593 10.0487 8.22883 9.99603 8.19677C9.94332 8.16472 9.90223 8.11913 9.87797 8.0658C9.85371 8.01246 9.84737 7.95376 9.85974 7.89714C9.87212 7.84051 9.90266 7.78851 9.9475 7.7477L10.5029 7.23972Z" fill="#919191"/>
</svg>
