<svg width="12" height="16" viewBox="0 0 12 16" fill="none" xmlns="http://www.w3.org/2000/svg">
<path fill-rule="evenodd" clip-rule="evenodd" d="M2.0207 0.350098C0.987109 0.350098 0.150391 1.20791 0.150391 2.2626V14.5321C0.150391 15.1509 0.642578 15.6501 1.24023 15.6501H10.7605C11.3582 15.6501 11.8504 15.1509 11.8504 14.5321V2.2626C11.8504 1.20791 11.0137 0.350098 9.98008 0.350098H2.0207ZM6.4293 6.12275C6.70352 5.96807 6.89336 5.66572 6.89336 5.32119C6.89336 4.81494 6.49258 4.4001 6.00039 4.4001C5.50117 4.4001 5.10039 4.81494 5.10039 5.32119C5.10039 5.67275 5.29727 5.9751 5.57852 6.12979V7.24072L4.63633 6.68525C4.65039 6.35478 4.48867 6.03135 4.19336 5.85557C3.76445 5.60244 3.21602 5.75713 2.96992 6.19307C2.72383 6.63603 2.87148 7.19853 3.30039 7.45166C3.39883 7.51494 3.5043 7.5501 3.6168 7.56416C3.8207 7.59932 4.03164 7.55713 4.20742 7.44463L5.14258 8.0001L4.21445 8.54854C3.94023 8.37978 3.5957 8.36572 3.30039 8.5415C2.87148 8.79463 2.72383 9.35713 2.96992 9.79307C3.21602 10.236 3.76445 10.3837 4.19336 10.1306C4.48867 9.96182 4.65039 9.63838 4.64336 9.31494L5.57852 8.75947V9.87041C5.29727 10.0251 5.10039 10.3274 5.10039 10.679C5.10039 11.1853 5.50117 11.6001 6.00039 11.6001C6.49258 11.6001 6.89336 11.1853 6.89336 10.679C6.89336 10.3345 6.70352 10.0321 6.4293 9.87744V8.7665L7.35742 9.31494C7.35742 9.63838 7.51211 9.96182 7.80742 10.1306C8.23633 10.3837 8.78477 10.236 9.03086 9.79307C9.27695 9.35713 9.1293 8.79463 8.70039 8.5415C8.53867 8.44307 8.35586 8.40088 8.18008 8.41494C8.03945 8.429 7.90586 8.47822 7.78633 8.55557L6.85117 8.0001L7.79336 7.44463C8.06055 7.61338 8.41211 7.62744 8.70039 7.45166C9.1293 7.19853 9.27695 6.63603 9.03086 6.19307C8.78477 5.75713 8.23633 5.60244 7.80742 5.85557C7.51211 6.03135 7.35039 6.35478 7.36445 6.67822L6.4293 7.23369V6.12275Z" fill="#919191"/>
</svg>
