<svg width="18" height="10" viewBox="0 0 18 10" fill="none" xmlns="http://www.w3.org/2000/svg">
<path d="M12.2938 1.28171C12.4813 1.09455 12.7354 0.989425 13.0003 0.989425C13.2652 0.989425 13.5193 1.09455 13.7068 1.28171L16.7068 4.28171C16.8943 4.46924 16.9996 4.72355 16.9996 4.98871C16.9996 5.25388 16.8943 5.50818 16.7068 5.69571L13.7068 8.69571C13.5182 8.87787 13.2656 8.97866 13.0034 8.97639C12.7412 8.97411 12.4904 8.86894 12.305 8.68353C12.1196 8.49812 12.0144 8.24731 12.0121 7.98511C12.0098 7.72292 12.1106 7.47031 12.2928 7.28171L13.5878 5.98771L4.41579 5.98771L5.70679 7.28071C5.8023 7.37296 5.87848 7.4833 5.93089 7.60531C5.9833 7.72731 6.01088 7.85853 6.01204 7.99131C6.01319 8.12409 5.98789 8.25577 5.93761 8.37867C5.88733 8.50156 5.81307 8.61321 5.71918 8.70711C5.62529 8.801 5.51364 8.87525 5.39074 8.92553C5.26784 8.97581 5.13616 9.00112 5.00339 8.99996C4.87061 8.99881 4.73939 8.97122 4.61738 8.91881C4.49538 8.8664 4.38503 8.79022 4.29279 8.69471L1.29279 5.69471C1.10532 5.50718 1 5.25288 1 4.98771C1 4.72255 1.10532 4.46824 1.29279 4.28071L4.29279 1.28071C4.48139 1.09855 4.73399 0.997759 4.99619 1.00004C5.25838 1.00232 5.5092 1.10749 5.6946 1.29289C5.88001 1.4783 5.98518 1.72911 5.98746 1.99131C5.98974 2.25351 5.88894 2.50611 5.70679 2.69471L4.41579 3.98771L13.5878 3.98771L12.2948 2.69471C12.1075 2.50736 12.0022 2.25334 12.002 1.98842C12.0018 1.7235 12.1068 1.46933 12.2938 1.28171Z" fill="#FFFFFE" stroke="#000001"/>
</svg>
