<svg xmlns="http://www.w3.org/2000/svg" width="18" height="18" viewBox="0 0 18 18">
  <g id="Group_103296" data-name="Group 103296" transform="translate(-2024 -1100)">
    <rect id="Rectangle_70954" data-name="Rectangle 70954" width="18" height="18" transform="translate(2024 1100)" fill="#aaa" opacity="0"/>
    <path id="Union_823" data-name="Union 823" d="M21201.414,24474l2-2h8.279a.313.313,0,0,1,.314.3v1.389a.315.315,0,0,1-.314.313Zm-5.41-.67a.591.591,0,0,1,0-.166l.4-3.574,8.408-8.408a.37.37,0,0,1,.529,0l3.471,3.471a.371.371,0,0,1,0,.527l-8.41,8.408-3.574.406c-.025,0-.053,0-.078,0A.758.758,0,0,1,21196,24473.332Zm13.666-9.525-3.471-3.471a.377.377,0,0,1,0-.535l1.363-1.363a1.508,1.508,0,0,1,2.125,0l1.879,1.881a1.508,1.508,0,0,1-.006,2.125h.006l-1.363,1.363a.38.38,0,0,1-.533,0Z" transform="translate(-19171 -23357)" fill="#aaa"/>
  </g>
</svg>
