<svg xmlns="http://www.w3.org/2000/svg" width="131.993" height="48" viewBox="0 0 131.993 48"><rect width="131.993" height="47.997" fill="#aaa" opacity="0"/><path d="M71.7,44.39a4.8,4.8,0,0,1-.422-1.492,3.993,3.993,0,0,1-.094-.908,4.8,4.8,0,0,1,.094-.99,4.53,4.53,0,0,1,.3-1.111,5.859,5.859,0,0,1,2.873-3.24A6,6,0,0,1,83.082,41a4.809,4.809,0,0,1,.1.99,6.6,6.6,0,0,1-.07.908,6.111,6.111,0,0,1-.431,1.492A6.041,6.041,0,0,1,77.19,48,5.977,5.977,0,0,1,71.7,44.39ZM20.377,41.976a6,6,0,1,1,6,6.007A6,6,0,0,1,20.377,41.976Zm-15.877,0a6,6,0,1,1,6,6.007A6,6,0,0,1,4.5,41.976ZM84.286,44.39a7.322,7.322,0,0,0,.328-1.492,6.589,6.589,0,0,0,.066-.908,7.951,7.951,0,0,0-.066-.99,7.493,7.493,0,0,0-7.425-6.507,7.362,7.362,0,0,0-2.742.516,7.518,7.518,0,0,0-4.463,4.881A5.453,5.453,0,0,0,69.741,41c-.023.339-.052.663-.052.99,0,.3.028.609.052.908a7.649,7.649,0,0,0,.328,1.492H50.208V42.9H36.989V39.889H33.6a7.258,7.258,0,0,0-2.1-3.349H52.458a2.282,2.282,0,0,1-2.25-2.251V2.251A2.255,2.255,0,0,1,52.458,0h4.65A18.024,18.024,0,0,1,73.557,10.616h1.313a.593.593,0,0,1,.6.6V12.27a.593.593,0,0,1-.6.6h-.323l3.736,8.543,3.848.907c3.023.691,4.828,1.166,7.678,1.709,5.072.921,8.831,4.2,8.831,9.722v3.889c0,3.011-1.308,5.262-6.581,5.262V44.39ZM96.1,31.7a7.155,7.155,0,0,0-5.123-5.1S90.8,31.7,96.1,31.7ZM61.308,13.111a.9.9,0,0,0-.3.65V18.29a1.6,1.6,0,0,0,1.5,1.559l11.063.612a.493.493,0,0,0,.473-.691l-2.48-5.94a1.584,1.584,0,0,0-1.434-.88L62,12.866A1.01,1.01,0,0,0,61.308,13.111ZM.9,44.268a.923.923,0,0,1-.9-.9V37.136a.585.585,0,0,1,.6-.6H5.353a8.381,8.381,0,0,0-.647.691,8.846,8.846,0,0,0-.67.949c-.1.217-.225.421-.319.638A6.1,6.1,0,0,0,3.3,39.889a8.189,8.189,0,0,0-.3,2.1v1.383a.907.907,0,0,1-.909.9Zm16.8-4.379a7.48,7.48,0,0,0-2.077-3.349l7.866-3.091a.684.684,0,0,1,.9.3l.108.271a.683.683,0,0,1-.473.84l-3.038,1.193.272.489A7.287,7.287,0,0,0,19.2,39.889Z" transform="translate(3 0.004)" fill="#aaa"/></svg>