<svg width="14" height="14" viewBox="0 0 14 14" fill="none" xmlns="http://www.w3.org/2000/svg">
<path d="M5.19881 4.1815H4.28043V12.1365C4.28043 12.2595 4.22923 12.3774 4.13804 12.4643C4.04686 12.5512 3.92317 12.6001 3.79422 12.6001H2.4701C2.34115 12.6001 2.21746 12.5512 2.12627 12.4643C2.03509 12.3774 1.98389 12.2595 1.98389 12.1365V4.1815H1.06551C0.994199 4.18165 0.924403 4.16186 0.86477 4.12457C0.805137 4.08729 0.758294 4.03413 0.730029 3.9717C0.701764 3.90928 0.69335 3.84032 0.705784 3.77337C0.718218 3.70642 0.750957 3.64442 0.799985 3.59504L2.8645 1.50854C2.93105 1.44172 3.02265 1.40277 3.11925 1.40023C3.21586 1.39769 3.3096 1.43176 3.37992 1.49498L3.39486 1.50854L5.45934 3.59504C5.50799 3.64449 5.54048 3.7064 5.55276 3.77318C5.56503 3.83996 5.55659 3.90873 5.52847 3.971C5.50035 4.03327 5.45374 4.08635 5.39442 4.12374C5.3351 4.16114 5.26562 4.18122 5.19451 4.1815H5.19881ZM11.2335 7.93026H6.91376C6.80419 7.93008 6.69914 7.88844 6.62173 7.81451C6.54432 7.74057 6.50085 7.64038 6.50085 7.5359V6.46347C6.50085 6.359 6.54432 6.25879 6.62173 6.18486C6.69914 6.11092 6.80419 6.06929 6.91376 6.06911H11.2335C11.3432 6.06911 11.4484 6.11066 11.526 6.18462C11.6036 6.25857 11.6472 6.35888 11.6472 6.46347V7.5359C11.6468 7.64014 11.6031 7.73999 11.5258 7.81364C11.4484 7.88728 11.3436 7.92872 11.2342 7.9289L11.2335 7.93026ZM12.8873 11.1489H6.91376C6.80419 11.1487 6.69914 11.1071 6.62173 11.0332C6.54432 10.9592 6.50085 10.859 6.50085 10.7546V9.68212C6.50085 9.57765 6.54432 9.47744 6.62173 9.40351C6.69914 9.32957 6.80419 9.28795 6.91376 9.28777H12.8873C12.9969 9.28795 13.1019 9.32957 13.1793 9.40351C13.2567 9.47744 13.3002 9.57765 13.3002 9.68212V10.7546C13.2998 10.8587 13.2563 10.9584 13.1791 11.0321C13.1018 11.1057 12.9972 11.1472 12.888 11.1476L12.8873 11.1489ZM9.57981 4.71161H6.91376C6.80419 4.71143 6.69914 4.66979 6.62173 4.59586C6.54432 4.52192 6.50085 4.42171 6.50085 4.31723V3.24481C6.50085 3.14034 6.54432 3.04012 6.62173 2.96619C6.69914 2.89225 6.80419 2.85064 6.91376 2.85046H9.58194C9.63626 2.85046 9.69005 2.86065 9.74023 2.88047C9.79041 2.90029 9.836 2.92934 9.87441 2.96596C9.91282 3.00258 9.94331 3.04604 9.96409 3.09389C9.98488 3.14173 9.99555 3.19302 9.99555 3.24481V4.31723C9.99499 4.42147 9.95118 4.52126 9.87367 4.59478C9.79616 4.6683 9.69127 4.70956 9.58194 4.70956L9.57981 4.71161Z" fill="#6692F1"/>
</svg>
