<svg xmlns="http://www.w3.org/2000/svg" width="409" height="97.5" viewBox="0 0 409 97.5">
  <g id="Group_95194" data-name="Group 95194" transform="translate(-7625.5 -403.5)">
    <line id="Line_6900" data-name="Line 6900" x2="408" transform="translate(7626 452)" fill="none" stroke="#dadada" stroke-linecap="round" stroke-width="1" stroke-dasharray="0 3"/>
    <line id="Line_6898" data-name="Line 6898" x2="408" transform="translate(7626 428)" fill="none" stroke="#dadada" stroke-linecap="round" stroke-width="1" stroke-dasharray="0 3"/>
    <line id="Line_6901" data-name="Line 6901" x2="408" transform="translate(7626 500)" fill="none" stroke="#dadada" stroke-linecap="round" stroke-width="1" stroke-dasharray="0 3"/>
    <line id="Line_6899" data-name="Line 6899" x2="408" transform="translate(7626 404)" fill="none" stroke="#dadada" stroke-linecap="round" stroke-width="1" stroke-dasharray="0 3"/>
    <line id="Line_6902" data-name="Line 6902" x2="408" transform="translate(7626 476)" fill="none" stroke="#dadada" stroke-linecap="round" stroke-width="1" stroke-dasharray="0 3"/>
    <rect id="Rectangle_69629" data-name="Rectangle 69629" width="42" height="44" transform="translate(7642 456)" fill="#fff3e0"/>
    <path id="Rectangle_79660" data-name="Rectangle 79660" d="M1,0H41a1,1,0,0,1,1,1V28a0,0,0,0,1,0,0H0a0,0,0,0,1,0,0V1A1,1,0,0,1,1,0Z" transform="translate(7642 428)" fill="#e0eaf8"/>
    <rect id="Rectangle_69630" data-name="Rectangle 69630" width="42" height="41" transform="translate(7809 459)" fill="#fff3e0"/>
    <path id="Rectangle_79662" data-name="Rectangle 79662" d="M1,0H41a1,1,0,0,1,1,1V48a0,0,0,0,1,0,0H0a0,0,0,0,1,0,0V1A1,1,0,0,1,1,0Z" transform="translate(7809 411)" fill="#e0eaf8"/>
    <rect id="Rectangle_69631" data-name="Rectangle 69631" width="42" height="41" transform="translate(7893 459)" fill="#fff3e0"/>
    <path id="Rectangle_79663" data-name="Rectangle 79663" d="M1,0H41a1,1,0,0,1,1,1V17a0,0,0,0,1,0,0H0a0,0,0,0,1,0,0V1A1,1,0,0,1,1,0Z" transform="translate(7893 442)" fill="#e0eaf8"/>
    <rect id="Rectangle_69632" data-name="Rectangle 69632" width="42" height="20" transform="translate(7976 480)" fill="#fff3e0"/>
    <path id="Rectangle_79664" data-name="Rectangle 79664" d="M1,0H41a1,1,0,0,1,1,1V14a0,0,0,0,1,0,0H0a0,0,0,0,1,0,0V1A1,1,0,0,1,1,0Z" transform="translate(7976 466)" fill="#e0eaf8"/>
    <rect id="Rectangle_69628" data-name="Rectangle 69628" width="42" height="48" transform="translate(7726 452)" fill="#fff3e0"/>
    <path id="Rectangle_79661" data-name="Rectangle 79661" d="M1,0H41a1,1,0,0,1,1,1V34a0,0,0,0,1,0,0H0a0,0,0,0,1,0,0V1A1,1,0,0,1,1,0Z" transform="translate(7726 418)" fill="#e0eaf8"/>
    <g id="Group_87892" data-name="Group 87892" transform="translate(5956.332 -301.014)">
      <path id="Path_31497" data-name="Path 31497" d="M236.445,46.5l-1.618,29.814c-.16,2.913-3.989,5.188-8.554,5.084L54.766,77.976l-10.34-.247c-4.129-.1-7.358-2.312-7.214-4.946l.815-15.009.84-15.3c.16-2.912,3.987-5.186,8.552-5.083l181.089,3.63c4.555.121,8.1,2.57,7.937,5.476" transform="translate(1687.758 681.783)" fill="#e5e5e5"/>
      <path id="Path_31498" data-name="Path 31498" d="M235.156,46.632,233.54,75.971c-.161,2.864-3.938,5.107-8.441,5.008L54.57,77.7l-10.2-.235c-4.072-.093-7.255-2.269-7.113-4.861l.815-14.77.841-15.056c.159-2.865,3.935-5.107,8.438-5.009l179.979,3.48c4.492.118,7.991,2.524,7.825,5.383" transform="translate(1687.758 681.783)" fill="#fff"/>
      <line id="Line_4868" data-name="Line 4868" x1="31.213" transform="translate(1715.667 801.014)" fill="none" stroke="#dadada" stroke-miterlimit="10" stroke-width="2"/>
      <path id="Path_31499" data-name="Path 31499" d="M64.48,95.837l13.77-4.281L83.4,82.462l1.1.207a6.922,6.922,0,0,1,1.688.507c.842.529.457.746-.1,1.571l-6.307,9.394L64.82,96.776Z" transform="translate(1687.759 676)" fill="#919191"/>
      <path id="Path_31500" data-name="Path 31500" d="M70.065,90.381s-4.3,3.7-7.614,2.618-4.966-4.241-3.748-6.466,4.573-2.779,7.575-1.767,3.743,5.583,3.787,5.615" transform="translate(1687.759 676)" fill="#b7b7b7"/>
      <path id="Path_31501" data-name="Path 31501" d="M64.275,99.124c-1.646,2.827-4.364,4.713-6.331,3.862s-2.216-4.237-.332-7.226,4.952-4.311,6.671-3.307,1.629,3.839-.008,6.671" transform="translate(1687.759 676)" fill="#b7b7b7"/>
      <path id="Path_31502" data-name="Path 31502" d="M59.283,102.88c1.357,2.1-.969,5.759-5.2,8.749-4.277,3.164-12.766-1.837-12.688-2.007a23.726,23.726,0,0,1,7.178-6.292c4.593-2.589,9.35-2.531,10.707-.45" transform="translate(1687.759 676)" fill="#b7b7b7"/>
      <path id="Path_31503" data-name="Path 31503" d="M67.55,85.5a12.161,12.161,0,0,1,1.509,3.927s-4.363,3.608-7.622,2.439a6.721,6.721,0,0,1-2.53-1.611,6.337,6.337,0,0,0,3.543,2.758c3.312,1.083,7.622-2.644,7.614-2.618s-.638-3.281-2.514-4.9" transform="translate(1687.759 676)" fill="#919191"/>
      <path id="Path_31504" data-name="Path 31504" d="M65.5,94.552a9.57,9.57,0,0,1-1.195,2.723c-1.746,2.779-4.5,4.6-6.427,3.714a2.763,2.763,0,0,1-1.449-2.216c-.353,1.964.214,3.652,1.51,4.219,1.964.873,4.69-1.034,6.331-3.861a7.834,7.834,0,0,0,1.23-4.579" transform="translate(1687.759 676)" fill="#919191"/>
      <path id="Path_31505" data-name="Path 31505" d="M59.413,103.134c-.554,1.956-2.618,4.364-5.673,6.384-3.194,2.181-8.617.114-11.126-1.392a17.517,17.517,0,0,0-1.221,1.5c-.079.17,8.412,5.17,12.688,2.008,4.075-2.877,6.362-6.377,5.332-8.5" transform="translate(1687.759 676)" fill="#919191"/>
      <path id="Path_31506" data-name="Path 31506" d="M61.225,89.913c-.225.225-8.342-5.821-11.013-5.236-2.876.872-6.979,5.053-5.065,7.8,2,2.67,1.9.284,1.667-.126s-1.256-.192-1.261-.2S44.079,90.319,46.29,88s3.534-2.962,4.728-2.875a70.482,70.482,0,0,1,6.954,3.4,26.859,26.859,0,0,0,2.9,1.832s.635-.112.356-.441" transform="translate(1687.759 676)" fill="#919191"/>
      <path id="Path_31507" data-name="Path 31507" d="M49.215,82.131l-.3,9.232L59.357,96.7l-.29-1.359L51.285,91.18l.283-8.9Z" transform="translate(1687.759 676)" fill="#919191"/>
      <path id="Path_31508" data-name="Path 31508" d="M48.2,108.135c-.088-.091-.275-.328-.293-.349-1.535,1.23-9.724,6.978-9.724,6.978l1.29,9.944h4.8l-5.031-9.66s7.675-5.683,8.959-6.913" transform="translate(1687.759 676)" fill="#919191"/>
      <path id="Path_31509" data-name="Path 31509" d="M52.022,110.875a70.43,70.43,0,0,0,4.7,6.226l-4.6,7.654-3.665-.047,6.925-7.557a46.63,46.63,0,0,1-3.674-5.952Z" transform="translate(1687.759 676)" fill="#919191"/>
      <path id="Path_31512" data-name="Path 31512" d="M62,85.682C61.565,85.9,54.432,74.4,51.84,75.35,48.75,76.528,47.1,78.8,47.6,80.084s2.015,2.234,2.033,1.081-.741-.479-.746-.479-1.509.135-.3-1.964,2.7-3.395,4.11-2.549a7.885,7.885,0,0,1,2.744,2.318c1.156,1.584,6.061,7.714,6.2,7.622,0,0,.266.33.353-.431" transform="translate(1687.759 676)" fill="#919191"/>
      <text id="Not_enough_data_for_chart_view._Come_back_soon_" data-name="Not enough data for chart view.
Come back soon!" transform="matrix(1, 0.017, -0.017, 1, 1736.526, 735.795)" fill="#6c6c6c" font-size="11" font-family="Montserrat-SemiBold, Montserrat" font-weight="600"><tspan x="0" y="0">Not enough data for chart view.</tspan><tspan font-size="14"><tspan x="0" y="17">Come back soon!</tspan></tspan></text>
    </g>
  </g>
</svg>
