<svg xmlns="http://www.w3.org/2000/svg" width="55" height="20" viewBox="0 0 55 20"><g transform="translate(-146 -217.729)"><rect width="55" height="20" transform="translate(146 217.729)" fill="none"/><path d="M53.5,111.979v.9a.251.251,0,0,1-.25.25h-1.8l-4.15,11.5a.253.253,0,0,1-.225.175H33.625v.525H47a.251.251,0,0,1,.25.25v.9a.251.251,0,0,1-.25.25H39.875l-1.187,1.962h-.85V131.1h.038a.251.251,0,0,1,.25.25v.125a.251.251,0,0,1-.25.25H36.537a.251.251,0,0,1-.25-.25v-.125a.251.251,0,0,1,.25-.25h.05v-2.413h-.85l-1.188-1.962H33.475l-1.862,3.063H25.587l-1.1-1.812H18.025a3.12,3.12,0,0,0-2.862-1.875,3.013,3.013,0,0,0-1.863.625,2.972,2.972,0,0,0-1,1.25h-.9A3.12,3.12,0,0,0,8.538,126.1a3.013,3.013,0,0,0-1.863.625,3.1,3.1,0,0,0-.988,1.25H5v-1.25H3.438L2.25,128.663V129.8a.376.376,0,0,1-.375.375h-.5A.368.368,0,0,1,1,129.8v-4.225a.251.251,0,0,1,.25-.25H30.263V124.8H1.25a.251.251,0,0,1-.25-.25v-9.225a.928.928,0,0,1,.938-.937h46.55l.9-2.5a.262.262,0,0,1,.238-.163H53.25a.251.251,0,0,1,.25.25" transform="translate(146.25 106)" fill="#aaa"/><path d="M10.035,126.229a2.5,2.5,0,1,0-2.5,2.5,2.5,2.5,0,0,0,2.5-2.5" transform="translate(147.259 109)" fill="#aaa"/><path d="M15.33,126.229a2.5,2.5,0,1,0-2.5,2.5,2.5,2.5,0,0,0,2.5-2.5" transform="translate(148.583 109)" fill="#aaa"/></g></svg>