<svg width="14" height="14" viewBox="0 0 14 14" fill="none" xmlns="http://www.w3.org/2000/svg">
<path d="M1.4707 1.94454V2.72231C1.4707 2.77391 1.48096 2.82499 1.50089 2.87259C1.52082 2.92018 1.55002 2.96333 1.5868 2.99952C1.62357 3.03572 1.66718 3.06423 1.71508 3.08341C1.76298 3.10258 1.81422 3.11203 1.86581 3.1112H12.134C12.1856 3.11203 12.2369 3.10258 12.2848 3.08341C12.3327 3.06423 12.3763 3.03572 12.4131 2.99952C12.4498 2.96333 12.479 2.92018 12.499 2.87259C12.5189 2.82499 12.5292 2.77391 12.5291 2.72231V1.94454C12.5292 1.89294 12.5189 1.84186 12.499 1.79426C12.479 1.74667 12.4498 1.70352 12.4131 1.66733C12.3763 1.63113 12.3327 1.60262 12.2848 1.58344C12.2369 1.56427 12.1856 1.55482 12.134 1.55565H9.1707L8.94281 1.10142C8.89287 1.00362 8.81678 0.921598 8.72299 0.864474C8.6292 0.807351 8.5214 0.77737 8.41159 0.777869H5.59293C5.48316 0.776634 5.37525 0.806232 5.28148 0.863294C5.1877 0.920356 5.11183 1.00259 5.06248 1.10065L4.82915 1.55565H1.86581C1.81422 1.55482 1.76298 1.56427 1.71508 1.58344C1.66718 1.60262 1.62357 1.63113 1.5868 1.66733C1.55002 1.70352 1.52082 1.74667 1.50089 1.79426C1.48096 1.84186 1.4707 1.89294 1.4707 1.94454Z" fill="#919191"/>
<path d="M2.24727 3.63936L2.77226 12.1856H2.77304C2.80299 12.4762 2.94189 12.7447 3.16181 12.9371C3.38173 13.1294 3.66634 13.2314 3.95838 13.2224H10.0422C10.3343 13.2316 10.6191 13.1297 10.8392 12.9374C11.0593 12.745 11.1983 12.4764 11.2283 12.1856L11.7533 3.63936H2.24727Z" fill="#919191"/>
</svg>