<svg width="13" height="8" viewBox="0 0 13 8" fill="none" xmlns="http://www.w3.org/2000/svg">
<path d="M1.6534 7.5C1.57061 7.5004 1.491 7.46932 1.432 7.41361L0.123399 6.16977C0.0945558 6.14178 0.0717575 6.1086 0.0563127 6.07214C0.0408678 6.03568 0.0330805 5.99664 0.0333981 5.95728C0.0326745 5.87725 0.0650393 5.80022 0.123399 5.74307L3.2428 2.75357C3.35695 2.64349 3.49265 2.55614 3.64207 2.49653C3.79151 2.43693 3.95173 2.40624 4.11356 2.40624C4.27538 2.40624 4.43561 2.43693 4.58503 2.49653C4.73447 2.55614 4.87015 2.64349 4.98431 2.75357L6.76271 4.46124L8.58343 2.71038L6.92741 1.0079C6.8854 0.964993 6.8574 0.911222 6.84686 0.853221C6.83633 0.795221 6.84372 0.73553 6.86813 0.681515C6.89253 0.627501 6.93289 0.581527 6.98421 0.549271C7.03552 0.517014 7.09556 0.499886 7.15692 0.500001H12.1456C12.275 0.500229 12.3991 0.549745 12.4906 0.63768C12.5821 0.725614 12.6334 0.844782 12.6334 0.969026V5.78107C12.6337 5.82117 12.6256 5.86091 12.6096 5.89797C12.5936 5.93503 12.5702 5.96866 12.5405 5.9969C12.5108 6.02513 12.4755 6.0474 12.4368 6.0624C12.3981 6.0774 12.3566 6.08483 12.3148 6.08425C12.2352 6.0833 12.1592 6.05226 12.1033 5.99788L10.3312 4.3835L7.63122 6.97479C7.39967 7.19518 7.08652 7.31845 6.76043 7.3177C6.43432 7.31688 6.12186 7.19201 5.8915 6.97048L4.09511 5.26627L1.8766 7.41184C1.84728 7.43959 1.81255 7.46143 1.77441 7.47626C1.73626 7.49109 1.69545 7.49857 1.6543 7.49823" fill="#E66767"/>
</svg>
