<svg width="14" height="8" viewBox="0 0 14 8" fill="none" xmlns="http://www.w3.org/2000/svg">
<path d="M2.32002 0.500004C2.23723 0.499579 2.15763 0.530635 2.09862 0.586381L0.790024 1.83021C0.761182 1.8582 0.738383 1.89137 0.722939 1.92784C0.707494 1.9643 0.699707 2.00334 0.700024 2.0427C0.6993 2.12272 0.731665 2.19975 0.790024 2.25691L3.90942 5.24642C4.02357 5.3565 4.15926 5.44385 4.30869 5.50346C4.45812 5.56306 4.61835 5.59375 4.78017 5.59375C4.94199 5.59375 5.10222 5.56306 5.25165 5.50346C5.40108 5.44385 5.53677 5.3565 5.65092 5.24642L7.42932 3.53875L9.25001 5.28961L7.59401 6.9921C7.552 7.03501 7.524 7.08878 7.51347 7.14678C7.50294 7.20478 7.51033 7.26447 7.53474 7.31848C7.55914 7.3725 7.5995 7.41847 7.65082 7.45073C7.70213 7.48299 7.76217 7.50011 7.82351 7.5H12.8122C12.9417 7.49977 13.0657 7.45025 13.1572 7.36232C13.2486 7.27438 13.3 7.15522 13.3 7.03097V2.21891C13.3003 2.17881 13.2922 2.13907 13.2762 2.10201C13.2602 2.06495 13.2367 2.03132 13.2071 2.00308C13.1774 1.97485 13.1422 1.95258 13.1034 1.93758C13.0647 1.92258 13.0232 1.91515 12.9814 1.91572C12.9018 1.91668 12.8258 1.94771 12.7699 2.0021L10.9978 3.61649L8.29781 1.02518C8.06627 0.804794 7.75313 0.681497 7.42704 0.682307C7.10094 0.683116 6.78847 0.807966 6.55812 1.0295L4.76172 2.73371L2.54322 0.588109C2.5139 0.560401 2.47917 0.538511 2.44103 0.52369C2.40288 0.508869 2.36207 0.501408 2.32092 0.501732" fill="#56B4AC"/>
</svg>
