<svg width="14" height="14" viewBox="0 0 14 14" fill="none" xmlns="http://www.w3.org/2000/svg">
<path fill-rule="evenodd" clip-rule="evenodd" d="M6.99961 13.65C10.6723 13.65 13.6496 10.6727 13.6496 6.99998C13.6496 3.32728 10.6723 0.349976 6.99961 0.349976C3.32692 0.349976 0.349609 3.32728 0.349609 6.99998C0.349609 10.6727 3.32692 13.65 6.99961 13.65ZM7.64614 3.68289C7.64614 3.92346 7.5233 4.13711 7.33904 4.25487L8.26519 6.18278C8.41227 6.48895 8.79372 6.57643 9.05072 6.36278L10.4909 5.16331C10.41 5.05059 10.3616 4.91096 10.3616 4.75956C10.3616 4.38777 10.6509 4.08664 11.0081 4.08664C11.3653 4.08664 11.6546 4.38777 11.6546 4.75956C11.6546 5.13134 11.3653 5.43248 11.0081 5.43248H10.9968L10.2581 9.66176C10.1676 10.1749 9.73927 10.5466 9.23983 10.5466H4.75939C4.25833 10.5466 3.83001 10.1732 3.74111 9.66176L3.00245 5.43248H2.99114C2.63393 5.43248 2.34461 5.13134 2.34461 4.75956C2.34461 4.38777 2.63393 4.08664 2.99114 4.08664C3.34834 4.08664 3.63766 4.38777 3.63766 4.75956C3.63766 4.91096 3.58917 5.05059 3.50836 5.16331L4.9485 6.36278C5.20549 6.57643 5.58695 6.48895 5.73403 6.18278L6.66018 4.25487C6.47592 4.13711 6.35308 3.92514 6.35308 3.68289C6.35308 3.31111 6.6424 3.00998 6.99961 3.00998C7.35682 3.00998 7.64614 3.31111 7.64614 3.68289Z" fill="#56B4AC"/>
</svg>
