<svg width="14" height="14" viewBox="0 0 14 14" fill="none" xmlns="http://www.w3.org/2000/svg">
<path fill-rule="evenodd" clip-rule="evenodd" d="M6.99961 13.65C10.6727 13.65 13.6496 10.6713 13.6496 6.99998C13.6496 3.32862 10.6727 0.349976 6.99961 0.349976C3.32652 0.349976 0.349609 3.32862 0.349609 6.99998C0.349609 10.6713 3.32652 13.65 6.99961 13.65ZM11.045 5.59724C11.1143 5.64919 11.1628 5.72193 11.1888 5.80159C11.2165 5.88471 11.2182 5.9713 11.1957 6.05789C11.1732 6.14102 11.1247 6.21375 11.0589 6.27263L9.22147 7.86586L9.76178 10.228C9.78256 10.3111 9.77737 10.3977 9.7462 10.4808C9.71502 10.5605 9.66134 10.6298 9.58861 10.6852C9.51933 10.7337 9.43448 10.7648 9.34616 10.7683C9.25784 10.7718 9.17125 10.751 9.09678 10.706L6.99961 9.46602L4.90417 10.706C4.8297 10.751 4.74138 10.7718 4.65306 10.7683C4.56647 10.7648 4.48161 10.7337 4.41061 10.6852C4.33961 10.6298 4.28419 10.5605 4.25302 10.4808C4.22358 10.3977 4.21665 10.3111 4.23743 10.228L4.77948 7.86586L2.94034 6.27263C2.87453 6.21375 2.82604 6.14102 2.80353 6.05789C2.78102 5.9713 2.78275 5.88471 2.81046 5.80159C2.83643 5.72193 2.88665 5.64919 2.95419 5.59724C3.00095 5.55914 3.0529 5.53143 3.10832 5.51412L3.19491 5.50026L5.62631 5.28206L6.58745 3.05847C6.62035 2.9788 6.67577 2.90953 6.75023 2.86104C6.82297 2.81255 6.91129 2.78831 6.99961 2.78831C7.08966 2.78831 7.17625 2.81255 7.24898 2.86104C7.32345 2.90953 7.3806 2.9788 7.41177 3.05847L8.3729 5.28206L10.8043 5.50026C10.8926 5.50719 10.9758 5.54182 11.045 5.59724Z" fill="#6692F1"/>
</svg>
