<svg width="14" height="14" viewBox="0 0 14 14" fill="none" xmlns="http://www.w3.org/2000/svg">
<path d="M6.99961 0.350159C5.68437 0.350159 4.39866 0.740175 3.30507 1.47089C2.21148 2.2016 1.35914 3.24019 0.855814 4.45531C0.352491 5.67044 0.220798 7.00753 0.47739 8.29751C0.733982 9.58748 1.36733 10.7724 2.29735 11.7024C3.22737 12.6324 4.41229 13.2658 5.70226 13.5224C6.99224 13.779 8.32933 13.6473 9.54446 13.144C10.7596 12.6406 11.7982 11.7883 12.5289 10.6947C13.2596 9.60111 13.6496 8.3154 13.6496 7.00016C13.6497 6.12684 13.4778 5.26205 13.1436 4.45519C12.8095 3.64833 12.3196 2.9152 11.7021 2.29767C11.0846 1.68014 10.3514 1.19031 9.54458 0.856152C8.73772 0.521994 7.87293 0.350057 6.99961 0.350159ZM8.53106 9.73794L6.16583 8.01905C6.12515 7.98903 6.09207 7.94989 6.06924 7.90478C6.04642 7.85966 6.03448 7.80983 6.03439 7.75927V3.24816C6.0346 3.16282 6.06859 3.08104 6.12893 3.0207C6.18927 2.96036 6.27105 2.92636 6.35639 2.92616H7.64361C7.72895 2.92636 7.81073 2.96036 7.87107 3.0207C7.93142 3.08104 7.96541 3.16282 7.96561 3.24816V6.94027L9.66817 8.17927C9.70245 8.20415 9.73146 8.23557 9.75355 8.27172C9.77563 8.30786 9.79036 8.34802 9.79686 8.38987C9.80337 8.43173 9.80153 8.47446 9.79146 8.5156C9.78138 8.55674 9.76327 8.59549 9.73817 8.6296L8.98295 9.66794C8.93214 9.73692 8.8561 9.78301 8.77144 9.79612C8.68677 9.80924 8.60035 9.78832 8.53106 9.73794Z" fill="#CCCCCC"/>
</svg>
