<svg xmlns="http://www.w3.org/2000/svg" width="19" height="19" viewBox="0 0 19 19"><g transform="translate(0.5 0.5)"><rect width="18" height="18" fill="#aaa" stroke="rgba(0,0,0,0)" stroke-width="1" opacity="0"/><path d="M15649.431,6158.4a.43.43,0,0,1-.433-.429v-1.14a.431.431,0,0,1,.433-.433h15.341a.43.43,0,0,1,.428.433v1.14a.429.429,0,0,1-.428.429Zm13.3-3.24a.36.36,0,0,1-.338-.24l-1.867-5.308h-.023v5.186a.361.361,0,0,1-.362.362h-.743a.361.361,0,0,1-.361-.362v-7.2a.361.361,0,0,1,.361-.362h1.227a.362.362,0,0,1,.343.24l1.844,5.186h.023V6147.6a.36.36,0,0,1,.357-.362h.743a.361.361,0,0,1,.362.362v7.2a.361.361,0,0,1-.362.362Zm-6.479,0v-7.922h1.6v7.922Zm-4.25,0a.358.358,0,0,1-.35-.279l-1.655-7.2a.361.361,0,0,1,.35-.44h.959a.36.36,0,0,1,.354.291l1.065,5.567h.031l1.12-5.567a.357.357,0,0,1,.35-.291h.908a.36.36,0,0,1,.351.44l-1.651,7.2a.366.366,0,0,1-.354.279Zm-2.575-9.16a.431.431,0,0,1-.433-.433v-1.14a.43.43,0,0,1,.433-.429h15.341a.429.429,0,0,1,.428.429v1.14a.43.43,0,0,1-.428.433Z" transform="translate(-15648.1 -6142.2)" fill="#aaa" stroke="rgba(0,0,0,0)" stroke-width="1"/></g></svg>