<svg width="14" height="12" viewBox="0 0 14 12" fill="none" xmlns="http://www.w3.org/2000/svg">
<path d="M13.06 10.0164L11.321 3.45544C11.2796 3.29112 11.185 3.14515 11.0518 3.04038C10.9186 2.93561 10.7544 2.87795 10.585 2.87644H9.148C9.24045 2.648 9.28798 2.40388 9.288 2.15744C9.28078 1.86528 9.21572 1.57745 9.09661 1.31058C8.97749 1.0437 8.80667 0.80308 8.59402 0.602609C8.38137 0.402138 8.1311 0.245793 7.85767 0.142608C7.58425 0.039423 7.29308 -0.00855638 7.001 0.00144201C6.7077 -0.00911055 6.41521 0.0383369 6.14028 0.141064C5.86536 0.24379 5.61341 0.399776 5.3989 0.600075C5.18439 0.800375 5.01152 1.04105 4.89022 1.3083C4.76891 1.57554 4.70155 1.86411 4.692 2.15744C4.69401 2.40368 4.74147 2.64744 4.832 2.87644H3.418C3.24865 2.87773 3.08451 2.93517 2.95131 3.03977C2.81812 3.14437 2.7234 3.29022 2.682 3.45444L0.942003 10.0154C0.893771 10.1872 0.88546 10.3677 0.917707 10.5432C0.949953 10.7187 1.0219 10.8845 1.12805 11.0279C1.2342 11.1713 1.37174 11.2885 1.53015 11.3706C1.68855 11.4526 1.86364 11.4974 2.042 11.5014H11.954C12.1327 11.4981 12.3083 11.4538 12.4672 11.3722C12.6262 11.2905 12.7643 11.1735 12.8711 11.0301C12.9779 10.8868 13.0504 10.7209 13.0831 10.5452C13.1159 10.3695 13.108 10.1886 13.06 10.0164ZM7.001 2.87644C6.80244 2.88224 6.60945 2.81036 6.46304 2.6761C6.31664 2.54183 6.22837 2.35576 6.217 2.15744C6.22862 1.9593 6.317 1.77348 6.46338 1.63943C6.60975 1.50538 6.8026 1.43364 7.001 1.43944C7.19724 1.43432 7.38752 1.50707 7.53029 1.64178C7.67307 1.7765 7.75673 1.96224 7.763 2.15844C7.75647 2.35446 7.6727 2.53995 7.52995 2.67446C7.38721 2.80896 7.19707 2.88157 7.001 2.87644Z" fill="#919191"/>
</svg>
