<svg xmlns="http://www.w3.org/2000/svg" width="18" height="18" viewBox="0 0 18 18"><g transform="translate(-827 -645)"><rect width="18" height="18" transform="translate(827 645)" fill="#aaa" opacity="0"/><path d="M.38,6.075H13.8a.381.381,0,0,1,.38.38v8.227A1.519,1.519,0,0,1,12.656,16.2H1.519A1.519,1.519,0,0,1,0,14.681V6.455A.381.381,0,0,1,.38,6.075Zm13.8-1.392V3.544a1.519,1.519,0,0,0-1.519-1.519H11.137V.38a.381.381,0,0,0-.38-.38H9.492a.381.381,0,0,0-.38.38V2.025H5.063V.38A.381.381,0,0,0,4.683,0H3.417a.381.381,0,0,0-.38.38V2.025H1.519A1.519,1.519,0,0,0,0,3.544V4.683a.381.381,0,0,0,.38.38H13.8A.381.381,0,0,0,14.175,4.683Z" transform="translate(828.912 645.9)" fill="#aaa" stroke="rgba(0,0,0,0)" stroke-miterlimit="10" stroke-width="1"/></g></svg>