<svg xmlns="http://www.w3.org/2000/svg" width="409" height="97.5" viewBox="0 0 409 97.5">
  <g id="_2" data-name="2" transform="translate(16491.5 6228.5)">
    <path id="Path_38812" data-name="Path 38812" d="M0,0H408" transform="translate(-16491 -6180)" fill="none" stroke="#dadada" stroke-linecap="round" stroke-width="1" stroke-dasharray="0 3"/>
    <path id="Path_38813" data-name="Path 38813" d="M0,0H408" transform="translate(-16491 -6204)" fill="none" stroke="#dadada" stroke-linecap="round" stroke-width="1" stroke-dasharray="0 3"/>
    <path id="Path_38814" data-name="Path 38814" d="M0,0H408" transform="translate(-16491 -6132)" fill="none" stroke="#dadada" stroke-linecap="round" stroke-width="1" stroke-dasharray="0 3"/>
    <path id="Path_38815" data-name="Path 38815" d="M0,0H408" transform="translate(-16491 -6228)" fill="none" stroke="#dadada" stroke-linecap="round" stroke-width="1" stroke-dasharray="0 3"/>
    <path id="Path_38816" data-name="Path 38816" d="M0,0H408" transform="translate(-16491 -6156)" fill="none" stroke="#dadada" stroke-linecap="round" stroke-width="1" stroke-dasharray="0 3"/>
    <path id="Path_38817" data-name="Path 38817" d="M1,0H41a1,1,0,0,1,1,1V55H0V1A1,1,0,0,1,1,0Z" transform="translate(-16475 -6187)" fill="#fff3e0"/>
    <path id="Path_38818" data-name="Path 38818" d="M1,0H41a1,1,0,0,1,1,1V89H0V1A1,1,0,0,1,1,0Z" transform="translate(-16308 -6221)" fill="#fff3e0"/>
    <path id="Path_38819" data-name="Path 38819" d="M1,0H41a1,1,0,0,1,1,1V58H0V1A1,1,0,0,1,1,0Z" transform="translate(-16224 -6190)" fill="#fff3e0"/>
    <path id="Path_38820" data-name="Path 38820" d="M1,0H41a1,1,0,0,1,1,1V34H0V1A1,1,0,0,1,1,0Z" transform="translate(-16141 -6166)" fill="#fff3e0"/>
    <path id="Path_38821" data-name="Path 38821" d="M1,0H41a1,1,0,0,1,1,1V82H0V1A1,1,0,0,1,1,0Z" transform="translate(-16391 -6214)" fill="#fff3e0"/>
    <path id="Path_37111" data-name="Path 37111" d="M-22326-6259s60.574,30,84,30,50.1-57,83-57,57.834,60,84,60,83-44,83-44" transform="translate(5872 66)" fill="none" stroke="#e0eaf8" stroke-width="3"/>
    <g id="Path_38822" data-name="Path 38822" transform="translate(-16458 -6197)" fill="#fff">
      <path d="M 4 7 C 2.345789909362793 7 1 5.654210090637207 1 4 C 1 2.345789909362793 2.345789909362793 1 4 1 C 5.654210090637207 1 7 2.345789909362793 7 4 C 7 5.654210090637207 5.654210090637207 7 4 7 Z" stroke="none"/>
      <path d="M 4 2 C 2.897200107574463 2 2 2.897200107574463 2 4 C 2 5.102799892425537 2.897200107574463 6 4 6 C 5.102799892425537 6 6 5.102799892425537 6 4 C 6 2.897200107574463 5.102799892425537 2 4 2 M 4 0 C 6.209139823913574 0 8 1.790860176086426 8 4 C 8 6.209139823913574 6.209139823913574 8 4 8 C 1.790860176086426 8 0 6.209139823913574 0 4 C 0 1.790860176086426 1.790860176086426 0 4 0 Z" stroke="none" fill="#e0eaf8"/>
    </g>
    <g id="Path_38823" data-name="Path 38823" transform="translate(-16374 -6167)" fill="#fff">
      <path d="M 4 7 C 2.345789909362793 7 1 5.654210090637207 1 4 C 1 2.345789909362793 2.345789909362793 1 4 1 C 5.654210090637207 1 7 2.345789909362793 7 4 C 7 5.654210090637207 5.654210090637207 7 4 7 Z" stroke="none"/>
      <path d="M 4 2 C 2.897200107574463 2 2 2.897200107574463 2 4 C 2 5.102799892425537 2.897200107574463 6 4 6 C 5.102799892425537 6 6 5.102799892425537 6 4 C 6 2.897200107574463 5.102799892425537 2 4 2 M 4 0 C 6.209139823913574 0 8 1.790860176086426 8 4 C 8 6.209139823913574 6.209139823913574 8 4 8 C 1.790860176086426 8 0 6.209139823913574 0 4 C 0 1.790860176086426 1.790860176086426 0 4 0 Z" stroke="none" fill="#e0eaf8"/>
    </g>
    <g id="Path_38824" data-name="Path 38824" transform="translate(-16291 -6224)" fill="#fff">
      <path d="M 4 7 C 2.345789909362793 7 1 5.654210090637207 1 4 C 1 2.345789909362793 2.345789909362793 1 4 1 C 5.654210090637207 1 7 2.345789909362793 7 4 C 7 5.654210090637207 5.654210090637207 7 4 7 Z" stroke="none"/>
      <path d="M 4 2 C 2.897200107574463 2 2 2.897200107574463 2 4 C 2 5.102799892425537 2.897200107574463 6 4 6 C 5.102799892425537 6 6 5.102799892425537 6 4 C 6 2.897200107574463 5.102799892425537 2 4 2 M 4 0 C 6.209139823913574 0 8 1.790860176086426 8 4 C 8 6.209139823913574 6.209139823913574 8 4 8 C 1.790860176086426 8 0 6.209139823913574 0 4 C 0 1.790860176086426 1.790860176086426 0 4 0 Z" stroke="none" fill="#e0eaf8"/>
    </g>
    <g id="Path_38825" data-name="Path 38825" transform="translate(-16207 -6164)" fill="#fff">
      <path d="M 4 7 C 2.345789909362793 7 1 5.654210090637207 1 4 C 1 2.345789909362793 2.345789909362793 1 4 1 C 5.654210090637207 1 7 2.345789909362793 7 4 C 7 5.654210090637207 5.654210090637207 7 4 7 Z" stroke="none"/>
      <path d="M 4 2 C 2.897200107574463 2 2 2.897200107574463 2 4 C 2 5.102799892425537 2.897200107574463 6 4 6 C 5.102799892425537 6 6 5.102799892425537 6 4 C 6 2.897200107574463 5.102799892425537 2 4 2 M 4 0 C 6.209139823913574 0 8 1.790860176086426 8 4 C 8 6.209139823913574 6.209139823913574 8 4 8 C 1.790860176086426 8 0 6.209139823913574 0 4 C 0 1.790860176086426 1.790860176086426 0 4 0 Z" stroke="none" fill="#e0eaf8"/>
    </g>
    <g id="Path_38826" data-name="Path 38826" transform="translate(-16124 -6208)" fill="#fff">
      <path d="M 4 7 C 2.345789909362793 7 1 5.654210090637207 1 4 C 1 2.345789909362793 2.345789909362793 1 4 1 C 5.654210090637207 1 7 2.345789909362793 7 4 C 7 5.654210090637207 5.654210090637207 7 4 7 Z" stroke="none"/>
      <path d="M 4 2 C 2.897200107574463 2 2 2.897200107574463 2 4 C 2 5.102799892425537 2.897200107574463 6 4 6 C 5.102799892425537 6 6 5.102799892425537 6 4 C 6 2.897200107574463 5.102799892425537 2 4 2 M 4 0 C 6.209139823913574 0 8 1.790860176086426 8 4 C 8 6.209139823913574 6.209139823913574 8 4 8 C 1.790860176086426 8 0 6.209139823913574 0 4 C 0 1.790860176086426 1.790860176086426 0 4 0 Z" stroke="none" fill="#e0eaf8"/>
    </g>
    <path id="Path_31497" data-name="Path 31497" d="M236.445,46.5l-1.618,29.814c-.16,2.913-3.989,5.188-8.554,5.084L54.766,77.976l-10.34-.247c-4.129-.1-7.358-2.312-7.214-4.946l.815-15.009.84-15.3c.16-2.912,3.987-5.186,8.552-5.083l181.089,3.63c4.555.121,8.1,2.57,7.937,5.476" transform="translate(-16472.91 -6251.23)" fill="#e5e5e5"/>
    <path id="Path_31498" data-name="Path 31498" d="M235.156,46.632,233.54,75.971c-.161,2.864-3.938,5.107-8.441,5.008L54.57,77.7l-10.2-.235c-4.072-.093-7.255-2.269-7.113-4.861l.815-14.77.841-15.056c.159-2.865,3.935-5.107,8.438-5.009l179.979,3.48c4.492.118,7.991,2.524,7.825,5.383" transform="translate(-16472.91 -6251.23)" fill="#fff"/>
    <path id="Path_38827" data-name="Path 38827" d="M31.213,0H0" transform="translate(-16445 -6132)" fill="none" stroke="#dadada" stroke-width="2"/>
    <path id="Path_31499" data-name="Path 31499" d="M64.48,95.837l13.77-4.281L83.4,82.462l1.1.207a6.922,6.922,0,0,1,1.688.507c.842.529.457.746-.1,1.571l-6.307,9.394L64.82,96.776Z" transform="translate(-16472.91 -6257.014)" fill="#919191"/>
    <path id="Path_31500" data-name="Path 31500" d="M70.065,90.381s-4.3,3.7-7.614,2.618-4.966-4.241-3.748-6.466,4.573-2.779,7.575-1.767,3.743,5.583,3.787,5.615" transform="translate(-16472.91 -6257.014)" fill="#b7b7b7"/>
    <path id="Path_31501" data-name="Path 31501" d="M64.275,99.124c-1.646,2.827-4.364,4.713-6.331,3.862s-2.216-4.237-.332-7.226,4.952-4.311,6.671-3.307,1.629,3.839-.008,6.671" transform="translate(-16472.91 -6257.014)" fill="#b7b7b7"/>
    <path id="Path_31502" data-name="Path 31502" d="M59.283,102.88c1.357,2.1-.969,5.759-5.2,8.749-4.277,3.164-12.766-1.837-12.688-2.007a23.726,23.726,0,0,1,7.178-6.292c4.593-2.589,9.35-2.531,10.707-.45" transform="translate(-16472.91 -6257.014)" fill="#b7b7b7"/>
    <path id="Path_31503" data-name="Path 31503" d="M67.55,85.5a12.161,12.161,0,0,1,1.509,3.927s-4.363,3.608-7.622,2.439a6.721,6.721,0,0,1-2.53-1.611,6.337,6.337,0,0,0,3.543,2.758c3.312,1.083,7.622-2.644,7.614-2.618s-.638-3.281-2.514-4.9" transform="translate(-16472.91 -6257.014)" fill="#919191"/>
    <path id="Path_31504" data-name="Path 31504" d="M65.5,94.552a9.57,9.57,0,0,1-1.195,2.723c-1.746,2.779-4.5,4.6-6.427,3.714a2.763,2.763,0,0,1-1.449-2.216c-.353,1.964.214,3.652,1.51,4.219,1.964.873,4.69-1.034,6.331-3.861a7.834,7.834,0,0,0,1.23-4.579" transform="translate(-16472.91 -6257.014)" fill="#919191"/>
    <path id="Path_31505" data-name="Path 31505" d="M59.413,103.134c-.554,1.956-2.618,4.364-5.673,6.384-3.194,2.181-8.617.114-11.126-1.392a17.517,17.517,0,0,0-1.221,1.5c-.079.17,8.412,5.17,12.688,2.008,4.075-2.877,6.362-6.377,5.332-8.5" transform="translate(-16472.91 -6257.014)" fill="#919191"/>
    <path id="Path_31506" data-name="Path 31506" d="M61.225,89.913c-.225.225-8.342-5.821-11.013-5.236-2.876.872-6.979,5.053-5.065,7.8,2,2.67,1.9.284,1.667-.126s-1.256-.192-1.261-.2S44.079,90.319,46.29,88s3.534-2.962,4.728-2.875a70.482,70.482,0,0,1,6.954,3.4,26.859,26.859,0,0,0,2.9,1.832s.635-.112.356-.441" transform="translate(-16472.91 -6257.014)" fill="#919191"/>
    <path id="Path_31507" data-name="Path 31507" d="M49.215,82.131l-.3,9.232L59.357,96.7l-.29-1.359L51.285,91.18l.283-8.9Z" transform="translate(-16472.91 -6257.014)" fill="#919191"/>
    <path id="Path_31508" data-name="Path 31508" d="M48.2,108.135c-.088-.091-.275-.328-.293-.349-1.535,1.23-9.724,6.978-9.724,6.978l1.29,9.944h4.8l-5.031-9.66s7.675-5.683,8.959-6.913" transform="translate(-16472.91 -6257.014)" fill="#919191"/>
    <path id="Path_31509" data-name="Path 31509" d="M52.022,110.875a70.43,70.43,0,0,0,4.7,6.226l-4.6,7.654-3.665-.047,6.925-7.557a46.63,46.63,0,0,1-3.674-5.952Z" transform="translate(-16472.91 -6257.014)" fill="#919191"/>
    <path id="Path_31512" data-name="Path 31512" d="M62,85.682C61.565,85.9,54.432,74.4,51.84,75.35,48.75,76.528,47.1,78.8,47.6,80.084s2.015,2.234,2.033,1.081-.741-.479-.746-.479-1.509.135-.3-1.964,2.7-3.395,4.11-2.549a7.885,7.885,0,0,1,2.744,2.318c1.156,1.584,6.061,7.714,6.2,7.622,0,0,.266.33.353-.431" transform="translate(-16472.91 -6257.014)" fill="#919191"/>
    <path id="Path_38828" data-name="Path 38828" d="M7.876-7.7V0H6.7L2.453-5.214V0H1.034V-7.7H2.211L6.457-2.486V-7.7ZM12.452.077a3.333,3.333,0,0,1-1.606-.385A2.807,2.807,0,0,1,9.729-1.381a3.029,3.029,0,0,1-.4-1.557,3,3,0,0,1,.4-1.551,2.819,2.819,0,0,1,1.116-1.067,3.333,3.333,0,0,1,1.606-.385,3.356,3.356,0,0,1,1.617.385,2.819,2.819,0,0,1,1.116,1.067,3,3,0,0,1,.4,1.551,3.029,3.029,0,0,1-.4,1.557A2.807,2.807,0,0,1,14.069-.308,3.356,3.356,0,0,1,12.452.077Zm0-1.177a1.68,1.68,0,0,0,1.254-.506,1.822,1.822,0,0,0,.5-1.331,1.822,1.822,0,0,0-.5-1.331,1.68,1.68,0,0,0-1.254-.506,1.662,1.662,0,0,0-1.248.506,1.833,1.833,0,0,0-.49,1.331,1.833,1.833,0,0,0,.49,1.331A1.662,1.662,0,0,0,12.452-1.1Zm7.986.781a1.619,1.619,0,0,1-.589.3,2.65,2.65,0,0,1-.731.1,2.076,2.076,0,0,1-1.5-.506A1.947,1.947,0,0,1,17.094-1.9V-4.73h-.968v-1.1h.968V-7.172h1.375V-5.83h1.573v1.1H18.469v2.794a.929.929,0,0,0,.209.655.784.784,0,0,0,.6.226,1.208,1.208,0,0,0,.77-.242ZM30.129-2.9q0,.143-.022.407H25.5a1.6,1.6,0,0,0,.633,1.029,2.073,2.073,0,0,0,1.271.38A2.141,2.141,0,0,0,29-1.727l.737.847a2.483,2.483,0,0,1-1,.715,3.646,3.646,0,0,1-1.364.242,3.63,3.63,0,0,1-1.7-.385,2.773,2.773,0,0,1-1.139-1.073,3.029,3.029,0,0,1-.4-1.557,3.074,3.074,0,0,1,.391-1.545A2.77,2.77,0,0,1,25.6-5.555a3.161,3.161,0,0,1,1.562-.385,3.082,3.082,0,0,1,1.535.379,2.688,2.688,0,0,1,1.056,1.067A3.235,3.235,0,0,1,30.129-2.9ZM27.159-4.84a1.659,1.659,0,0,0-1.117.391,1.643,1.643,0,0,0-.556,1.039H28.82a1.621,1.621,0,0,0-.539-1.034A1.639,1.639,0,0,0,27.159-4.84Zm7.623-1.1a2.455,2.455,0,0,1,1.782.649,2.56,2.56,0,0,1,.671,1.925V0H35.86V-3.19a1.649,1.649,0,0,0-.363-1.16,1.342,1.342,0,0,0-1.034-.391,1.587,1.587,0,0,0-1.2.457,1.82,1.82,0,0,0-.44,1.315V0H31.449V-5.874h1.309v.759a2.15,2.15,0,0,1,.858-.616A3.088,3.088,0,0,1,34.782-5.94Zm6.9,6.017a3.333,3.333,0,0,1-1.606-.385,2.807,2.807,0,0,1-1.117-1.073,3.029,3.029,0,0,1-.4-1.557,3,3,0,0,1,.4-1.551,2.819,2.819,0,0,1,1.117-1.067,3.333,3.333,0,0,1,1.606-.385,3.356,3.356,0,0,1,1.617.385,2.819,2.819,0,0,1,1.117,1.067,3,3,0,0,1,.4,1.551,3.029,3.029,0,0,1-.4,1.557A2.807,2.807,0,0,1,43.3-.308,3.356,3.356,0,0,1,41.679.077Zm0-1.177a1.68,1.68,0,0,0,1.254-.506,1.822,1.822,0,0,0,.495-1.331,1.822,1.822,0,0,0-.495-1.331,1.68,1.68,0,0,0-1.254-.506,1.662,1.662,0,0,0-1.249.506,1.833,1.833,0,0,0-.489,1.331,1.833,1.833,0,0,0,.489,1.331A1.662,1.662,0,0,0,41.679-1.1ZM51.821-5.874V0H50.512V-.748a2.188,2.188,0,0,1-.825.611A2.654,2.654,0,0,1,48.62.077a2.553,2.553,0,0,1-1.854-.655,2.582,2.582,0,0,1-.676-1.942V-5.874h1.375v3.168a1.7,1.7,0,0,0,.357,1.183,1.31,1.31,0,0,0,1.018.39,1.541,1.541,0,0,0,1.171-.456A1.834,1.834,0,0,0,50.446-2.9v-2.97Zm7.634,0V-.891q0,3.1-3.168,3.1A5.879,5.879,0,0,1,54.681,2a3.407,3.407,0,0,1-1.254-.622L54.043.341a2.943,2.943,0,0,0,.973.512,3.817,3.817,0,0,0,1.194.193,1.97,1.97,0,0,0,1.419-.44A1.8,1.8,0,0,0,58.08-.737v-.308a2.26,2.26,0,0,1-.858.583,3.024,3.024,0,0,1-1.111.2A3.187,3.187,0,0,1,54.6-.622a2.686,2.686,0,0,1-1.067-1.007,2.824,2.824,0,0,1-.39-1.485,2.8,2.8,0,0,1,.39-1.48,2.659,2.659,0,0,1,1.067-1,3.227,3.227,0,0,1,1.513-.352,3.1,3.1,0,0,1,1.16.209,2.141,2.141,0,0,1,.875.638v-.781ZM56.32-1.43A1.8,1.8,0,0,0,57.6-1.9a1.587,1.587,0,0,0,.5-1.215,1.557,1.557,0,0,0-.5-1.2,1.815,1.815,0,0,0-1.282-.462,1.83,1.83,0,0,0-1.292.462,1.557,1.557,0,0,0-.5,1.2,1.587,1.587,0,0,0,.5,1.215A1.818,1.818,0,0,0,56.32-1.43Zm8.272-4.51a2.455,2.455,0,0,1,1.782.649,2.56,2.56,0,0,1,.671,1.925V0H65.67V-3.19a1.649,1.649,0,0,0-.363-1.16,1.342,1.342,0,0,0-1.034-.391,1.587,1.587,0,0,0-1.2.457,1.82,1.82,0,0,0-.44,1.315V0H61.259V-8.162h1.375v2.97a2.237,2.237,0,0,1,.841-.556A3.088,3.088,0,0,1,64.592-5.94ZM77.583-8.162V0h-1.32V-.759a2.127,2.127,0,0,1-.841.627,2.842,2.842,0,0,1-1.105.209A3.1,3.1,0,0,1,72.793-.3a2.687,2.687,0,0,1-1.062-1.061,3.175,3.175,0,0,1-.385-1.579,3.145,3.145,0,0,1,.385-1.573,2.7,2.7,0,0,1,1.062-1.056,3.1,3.1,0,0,1,1.523-.374,2.792,2.792,0,0,1,1.067.2,2.146,2.146,0,0,1,.825.594V-8.162ZM74.481-1.1a1.768,1.768,0,0,0,.891-.225A1.63,1.63,0,0,0,76-1.969a1.969,1.969,0,0,0,.231-.968A1.969,1.969,0,0,0,76-3.905a1.63,1.63,0,0,0-.627-.643,1.768,1.768,0,0,0-.891-.226,1.768,1.768,0,0,0-.891.226,1.63,1.63,0,0,0-.627.643,1.969,1.969,0,0,0-.231.968,1.969,1.969,0,0,0,.231.968,1.63,1.63,0,0,0,.627.644A1.768,1.768,0,0,0,74.481-1.1Zm7.15-4.84a2.864,2.864,0,0,1,1.985.621A2.4,2.4,0,0,1,84.3-3.443V0h-1.3V-.715a1.6,1.6,0,0,1-.72.589,2.816,2.816,0,0,1-1.128.2A2.762,2.762,0,0,1,80-.149a1.785,1.785,0,0,1-.764-.627,1.591,1.591,0,0,1-.27-.908,1.555,1.555,0,0,1,.589-1.27,2.923,2.923,0,0,1,1.854-.479h1.518V-3.52a1.2,1.2,0,0,0-.368-.946,1.594,1.594,0,0,0-1.094-.33,3.159,3.159,0,0,0-.974.154,2.392,2.392,0,0,0-.809.429l-.539-1a3.338,3.338,0,0,1,1.111-.539A4.943,4.943,0,0,1,81.631-5.94ZM81.444-.924a1.775,1.775,0,0,0,.919-.236,1.287,1.287,0,0,0,.566-.677v-.682H81.51q-1.188,0-1.188.781a.7.7,0,0,0,.3.594A1.362,1.362,0,0,0,81.444-.924ZM89.6-.319a1.619,1.619,0,0,1-.589.3,2.65,2.65,0,0,1-.731.1,2.076,2.076,0,0,1-1.5-.506A1.947,1.947,0,0,1,86.251-1.9V-4.73h-.968v-1.1h.968V-7.172h1.375V-5.83H89.2v1.1H87.626v2.794a.929.929,0,0,0,.209.655.784.784,0,0,0,.605.226,1.208,1.208,0,0,0,.77-.242ZM92.972-5.94a2.864,2.864,0,0,1,1.985.621,2.4,2.4,0,0,1,.688,1.876V0h-1.3V-.715a1.6,1.6,0,0,1-.72.589,2.816,2.816,0,0,1-1.128.2,2.762,2.762,0,0,1-1.155-.226,1.785,1.785,0,0,1-.764-.627,1.591,1.591,0,0,1-.27-.908,1.555,1.555,0,0,1,.589-1.27,2.923,2.923,0,0,1,1.854-.479H94.27V-3.52a1.2,1.2,0,0,0-.368-.946,1.594,1.594,0,0,0-1.094-.33,3.159,3.159,0,0,0-.974.154,2.392,2.392,0,0,0-.809.429l-.539-1A3.338,3.338,0,0,1,91.6-5.753,4.943,4.943,0,0,1,92.972-5.94ZM92.785-.924a1.775,1.775,0,0,0,.919-.236,1.287,1.287,0,0,0,.566-.677v-.682H92.851q-1.188,0-1.188.781a.7.7,0,0,0,.3.594A1.362,1.362,0,0,0,92.785-.924Zm10.043-6.2q-.869,0-.869.946v.352h1.617v1.1H102V0h-1.375V-4.73H99.66v-1.1h.968V-6.2a2,2,0,0,1,.55-1.491,2.11,2.11,0,0,1,1.551-.544,2.121,2.121,0,0,1,1.243.319l-.385,1.034A1.314,1.314,0,0,0,102.828-7.128ZM107.052.077a3.333,3.333,0,0,1-1.606-.385,2.807,2.807,0,0,1-1.116-1.073,3.029,3.029,0,0,1-.4-1.557,3,3,0,0,1,.4-1.551,2.819,2.819,0,0,1,1.116-1.067,3.333,3.333,0,0,1,1.606-.385,3.356,3.356,0,0,1,1.617.385,2.819,2.819,0,0,1,1.117,1.067,3,3,0,0,1,.4,1.551,3.029,3.029,0,0,1-.4,1.557,2.807,2.807,0,0,1-1.117,1.073A3.356,3.356,0,0,1,107.052.077Zm0-1.177a1.68,1.68,0,0,0,1.254-.506,1.822,1.822,0,0,0,.5-1.331,1.822,1.822,0,0,0-.5-1.331,1.68,1.68,0,0,0-1.254-.506,1.662,1.662,0,0,0-1.248.506,1.833,1.833,0,0,0-.49,1.331,1.833,1.833,0,0,0,.49,1.331A1.662,1.662,0,0,0,107.052-1.1Zm5.764-3.916a2.291,2.291,0,0,1,2.09-.924v1.309a1.746,1.746,0,0,0-.319-.033,1.661,1.661,0,0,0-1.254.468,1.864,1.864,0,0,0-.451,1.347V0h-1.375V-5.874h1.309ZM121.858.077a3.444,3.444,0,0,1-1.639-.385,2.827,2.827,0,0,1-1.133-1.073,3,3,0,0,1-.407-1.557,2.968,2.968,0,0,1,.407-1.551,2.848,2.848,0,0,1,1.128-1.067,3.435,3.435,0,0,1,1.645-.385,3.168,3.168,0,0,1,1.523.352,2.284,2.284,0,0,1,.985,1.012l-1.056.616a1.677,1.677,0,0,0-.632-.611,1.73,1.73,0,0,0-.831-.2,1.74,1.74,0,0,0-1.276.5,1.8,1.8,0,0,0-.506,1.336,1.806,1.806,0,0,0,.5,1.337,1.735,1.735,0,0,0,1.282.5,1.73,1.73,0,0,0,.831-.2,1.677,1.677,0,0,0,.632-.611l1.056.616a2.38,2.38,0,0,1-1,1.018A3.1,3.1,0,0,1,121.858.077Zm6.974-6.017a2.455,2.455,0,0,1,1.782.649,2.56,2.56,0,0,1,.671,1.925V0H129.91V-3.19a1.649,1.649,0,0,0-.363-1.16,1.342,1.342,0,0,0-1.034-.391,1.587,1.587,0,0,0-1.2.457,1.82,1.82,0,0,0-.44,1.315V0H125.5V-8.162h1.375v2.97a2.237,2.237,0,0,1,.841-.556A3.088,3.088,0,0,1,128.832-5.94Zm6.446,0a2.864,2.864,0,0,1,1.986.621,2.4,2.4,0,0,1,.688,1.876V0h-1.3V-.715a1.6,1.6,0,0,1-.72.589,2.816,2.816,0,0,1-1.128.2,2.762,2.762,0,0,1-1.155-.226,1.785,1.785,0,0,1-.765-.627,1.591,1.591,0,0,1-.27-.908,1.555,1.555,0,0,1,.589-1.27,2.923,2.923,0,0,1,1.854-.479h1.518V-3.52a1.2,1.2,0,0,0-.368-.946,1.594,1.594,0,0,0-1.094-.33,3.159,3.159,0,0,0-.973.154,2.392,2.392,0,0,0-.809.429l-.539-1a3.338,3.338,0,0,1,1.111-.539A4.943,4.943,0,0,1,135.278-5.94Zm-.187,5.016a1.775,1.775,0,0,0,.919-.236,1.287,1.287,0,0,0,.566-.677v-.682h-1.419q-1.188,0-1.188.781a.7.7,0,0,0,.3.594A1.362,1.362,0,0,0,135.091-.924Zm5.929-4.092a2.291,2.291,0,0,1,2.09-.924v1.309a1.746,1.746,0,0,0-.319-.033,1.661,1.661,0,0,0-1.254.468,1.864,1.864,0,0,0-.451,1.347V0h-1.375V-5.874h1.309Zm7.007,4.7a1.619,1.619,0,0,1-.589.3,2.65,2.65,0,0,1-.731.1,2.076,2.076,0,0,1-1.5-.506,1.947,1.947,0,0,1-.528-1.474V-4.73h-.968v-1.1h.968V-7.172h1.375V-5.83h1.573v1.1h-1.573v2.794a.929.929,0,0,0,.209.655.784.784,0,0,0,.6.226,1.208,1.208,0,0,0,.77-.242ZM157.7-5.874,155.177,0h-1.419l-2.519-5.874h1.43L154.5-1.518l1.881-4.356Zm.858,0h1.375V0h-1.375Zm.693-.968a.883.883,0,0,1-.627-.236.773.773,0,0,1-.253-.589.773.773,0,0,1,.253-.588.883.883,0,0,1,.627-.237.908.908,0,0,1,.627.226.727.727,0,0,1,.253.566.829.829,0,0,1-.248.611A.857.857,0,0,1,159.247-6.842ZM167.255-2.9q0,.143-.022.407h-4.609a1.6,1.6,0,0,0,.633,1.029,2.073,2.073,0,0,0,1.27.38,2.141,2.141,0,0,0,1.6-.638l.737.847a2.483,2.483,0,0,1-1,.715,3.646,3.646,0,0,1-1.364.242,3.63,3.63,0,0,1-1.705-.385,2.773,2.773,0,0,1-1.138-1.073,3.029,3.029,0,0,1-.4-1.557,3.074,3.074,0,0,1,.391-1.545,2.77,2.77,0,0,1,1.083-1.072,3.161,3.161,0,0,1,1.562-.385,3.082,3.082,0,0,1,1.535.379,2.688,2.688,0,0,1,1.056,1.067A3.235,3.235,0,0,1,167.255-2.9Zm-2.97-1.936a1.659,1.659,0,0,0-1.117.391,1.643,1.643,0,0,0-.555,1.039h3.333a1.621,1.621,0,0,0-.539-1.034A1.639,1.639,0,0,0,164.285-4.84Zm13.343-1.034L175.461,0h-1.32l-1.518-4.048L171.083,0h-1.32l-2.156-5.874h1.3l1.551,4.334,1.617-4.334h1.155l1.584,4.356,1.6-4.356ZM178.651.077a.879.879,0,0,1-.638-.259.877.877,0,0,1-.264-.655.882.882,0,0,1,.258-.66.883.883,0,0,1,.643-.253.883.883,0,0,1,.644.253.882.882,0,0,1,.258.66.877.877,0,0,1-.264.655A.879.879,0,0,1,178.651.077ZM5.852,17.14a5.519,5.519,0,0,1-2.681-.651A4.8,4.8,0,0,1,1.3,14.69,4.991,4.991,0,0,1,.616,12.1,4.951,4.951,0,0,1,1.3,9.51a4.849,4.849,0,0,1,1.883-1.8A5.519,5.519,0,0,1,5.866,7.06a5.592,5.592,0,0,1,2.2.42A4.483,4.483,0,0,1,9.744,8.7L8.568,9.8A3.43,3.43,0,0,0,5.95,8.656,3.671,3.671,0,0,0,4.144,9.1,3.177,3.177,0,0,0,2.9,10.322a3.752,3.752,0,0,0,0,3.556A3.177,3.177,0,0,0,4.144,15.1a3.671,3.671,0,0,0,1.806.441,3.411,3.411,0,0,0,2.618-1.162L9.744,15.5A4.471,4.471,0,0,1,8.057,16.72,5.644,5.644,0,0,1,5.852,17.14Zm8.554-.042a4.242,4.242,0,0,1-2.044-.49,3.573,3.573,0,0,1-1.421-1.365,4.082,4.082,0,0,1,0-3.955A3.587,3.587,0,0,1,12.362,9.93a4.537,4.537,0,0,1,4.1,0,3.587,3.587,0,0,1,1.421,1.358,4.082,4.082,0,0,1,0,3.955,3.573,3.573,0,0,1-1.421,1.365A4.271,4.271,0,0,1,14.406,17.1Zm0-1.5a2.138,2.138,0,0,0,1.6-.644,2.319,2.319,0,0,0,.63-1.694A2.319,2.319,0,0,0,16,11.568a2.138,2.138,0,0,0-1.6-.644,2.115,2.115,0,0,0-1.589.644,2.333,2.333,0,0,0-.623,1.694,2.333,2.333,0,0,0,.623,1.694A2.115,2.115,0,0,0,14.406,15.6ZM29.512,9.44a3.041,3.041,0,0,1,2.24.819,3.32,3.32,0,0,1,.826,2.457V17h-1.75V12.94a2.189,2.189,0,0,0-.434-1.477,1.565,1.565,0,0,0-1.246-.5,1.825,1.825,0,0,0-1.414.581,2.37,2.37,0,0,0-.532,1.659V17h-1.75V12.94a2.189,2.189,0,0,0-.434-1.477,1.565,1.565,0,0,0-1.246-.5,1.831,1.831,0,0,0-1.421.574,2.386,2.386,0,0,0-.525,1.666V17h-1.75V9.524h1.666v.952a2.721,2.721,0,0,1,1.05-.77,3.565,3.565,0,0,1,1.4-.266,3.382,3.382,0,0,1,1.491.315,2.42,2.42,0,0,1,1.029.931,3.116,3.116,0,0,1,1.19-.917A3.865,3.865,0,0,1,29.512,9.44Zm12.4,3.864q0,.182-.028.518H36.022a2.033,2.033,0,0,0,.805,1.309,2.639,2.639,0,0,0,1.617.483,2.725,2.725,0,0,0,2.03-.812l.938,1.078a3.16,3.16,0,0,1-1.274.91,5.048,5.048,0,0,1-3.906-.182,3.529,3.529,0,0,1-1.449-1.365,3.855,3.855,0,0,1-.511-1.981,3.912,3.912,0,0,1,.5-1.967A3.525,3.525,0,0,1,36.148,9.93a4.024,4.024,0,0,1,1.988-.49,3.923,3.923,0,0,1,1.953.483,3.421,3.421,0,0,1,1.344,1.358A4.118,4.118,0,0,1,41.916,13.3Zm-3.78-2.464a2.068,2.068,0,0,0-2.128,1.82H40.25a2.063,2.063,0,0,0-.686-1.316A2.086,2.086,0,0,0,38.136,10.84ZM51.6,9.44a3.968,3.968,0,0,1,1.953.476,3.433,3.433,0,0,1,1.351,1.344,4,4,0,0,1,.49,2,4.041,4.041,0,0,1-.49,2.009,3.42,3.42,0,0,1-1.351,1.351A3.968,3.968,0,0,1,51.6,17.1a3.617,3.617,0,0,1-1.407-.266,2.708,2.708,0,0,1-1.071-.8V17H47.46V6.612h1.75v3.822a2.939,2.939,0,0,1,1.057-.742A3.463,3.463,0,0,1,51.6,9.44Zm-.2,6.16A2.115,2.115,0,0,0,53,14.956a2.333,2.333,0,0,0,.623-1.694A2.333,2.333,0,0,0,53,11.568a2.115,2.115,0,0,0-1.589-.644,2.251,2.251,0,0,0-1.134.287,2.074,2.074,0,0,0-.8.819,2.728,2.728,0,0,0,0,2.464,2.074,2.074,0,0,0,.8.819A2.251,2.251,0,0,0,51.408,15.6Zm8.414-6.16a3.645,3.645,0,0,1,2.527.791,3.058,3.058,0,0,1,.875,2.387V17H61.572v-.91a2.036,2.036,0,0,1-.917.749,3.585,3.585,0,0,1-1.435.259,3.516,3.516,0,0,1-1.47-.287,2.271,2.271,0,0,1-.973-.8,2.025,2.025,0,0,1-.343-1.155,1.98,1.98,0,0,1,.749-1.617,3.72,3.72,0,0,1,2.359-.609h1.932V12.52a1.532,1.532,0,0,0-.469-1.2,2.029,2.029,0,0,0-1.393-.42,4.021,4.021,0,0,0-1.239.2,3.044,3.044,0,0,0-1.029.546l-.686-1.274a4.248,4.248,0,0,1,1.414-.686A6.291,6.291,0,0,1,59.822,9.44Zm-.238,6.384a2.26,2.26,0,0,0,1.169-.3,1.638,1.638,0,0,0,.721-.861v-.868H59.668q-1.512,0-1.512.994a.892.892,0,0,0,.378.756A1.733,1.733,0,0,0,59.584,15.824Zm9.38,1.274a4.383,4.383,0,0,1-2.086-.49,3.6,3.6,0,0,1-1.442-1.365,4.034,4.034,0,0,1,0-3.955A3.625,3.625,0,0,1,66.871,9.93a4.372,4.372,0,0,1,2.093-.49,4.032,4.032,0,0,1,1.939.448,2.907,2.907,0,0,1,1.253,1.288l-1.344.784a2.135,2.135,0,0,0-.805-.777,2.349,2.349,0,0,0-2.681.378,2.285,2.285,0,0,0-.644,1.7,2.3,2.3,0,0,0,.637,1.7,2.36,2.36,0,0,0,2.688.378,2.135,2.135,0,0,0,.805-.777l1.344.784a3.029,3.029,0,0,1-1.267,1.3A3.952,3.952,0,0,1,68.964,17.1Zm7.686-3.3-1.3,1.232V17H73.6V6.612h1.75v6.272l3.626-3.36h2.1L77.952,12.66,81.368,17H79.24Zm12.026,3.3A6.693,6.693,0,0,1,86.9,16.86a4.474,4.474,0,0,1-1.386-.6l.672-1.33a4.32,4.32,0,0,0,1.211.539,5.031,5.031,0,0,0,1.393.2q1.568,0,1.568-.826a.552.552,0,0,0-.4-.546A6.889,6.889,0,0,0,88.676,14a10.392,10.392,0,0,1-1.5-.322,2.31,2.31,0,0,1-1.008-.637,1.779,1.779,0,0,1-.427-1.267,1.992,1.992,0,0,1,.889-1.7,4.046,4.046,0,0,1,2.4-.637,6.929,6.929,0,0,1,1.54.175,4.318,4.318,0,0,1,1.26.469l-.672,1.33a4.145,4.145,0,0,0-2.142-.56,2.374,2.374,0,0,0-1.169.231.689.689,0,0,0-.4.609.608.608,0,0,0,.427.595,6.786,6.786,0,0,0,1.323.329,10.208,10.208,0,0,1,1.47.322,2.3,2.3,0,0,1,.987.616,1.717,1.717,0,0,1,.413,1.232,1.949,1.949,0,0,1-.91,1.68A4.291,4.291,0,0,1,88.676,17.1Zm8.26,0a4.242,4.242,0,0,1-2.044-.49,3.573,3.573,0,0,1-1.421-1.365,4.082,4.082,0,0,1,0-3.955A3.587,3.587,0,0,1,94.892,9.93a4.537,4.537,0,0,1,4.1,0,3.587,3.587,0,0,1,1.421,1.358,4.082,4.082,0,0,1,0,3.955,3.573,3.573,0,0,1-1.421,1.365A4.271,4.271,0,0,1,96.936,17.1Zm0-1.5a2.138,2.138,0,0,0,1.6-.644,2.319,2.319,0,0,0,.63-1.694,2.319,2.319,0,0,0-.63-1.694,2.138,2.138,0,0,0-1.6-.644,2.115,2.115,0,0,0-1.589.644,2.333,2.333,0,0,0-.623,1.694,2.333,2.333,0,0,0,.623,1.694A2.115,2.115,0,0,0,96.936,15.6Zm9.03,1.5a4.242,4.242,0,0,1-2.044-.49,3.573,3.573,0,0,1-1.421-1.365,4.082,4.082,0,0,1,0-3.955,3.587,3.587,0,0,1,1.421-1.358,4.537,4.537,0,0,1,4.1,0,3.587,3.587,0,0,1,1.421,1.358,4.082,4.082,0,0,1,0,3.955,3.573,3.573,0,0,1-1.421,1.365A4.271,4.271,0,0,1,105.966,17.1Zm0-1.5a2.138,2.138,0,0,0,1.6-.644,2.319,2.319,0,0,0,.63-1.694,2.319,2.319,0,0,0-.63-1.694,2.138,2.138,0,0,0-1.6-.644,2.115,2.115,0,0,0-1.589.644,2.333,2.333,0,0,0-.623,1.694,2.333,2.333,0,0,0,.623,1.694A2.115,2.115,0,0,0,105.966,15.6Zm9.912-6.16a3.124,3.124,0,0,1,2.268.826,3.258,3.258,0,0,1,.854,2.45V17h-1.75V12.94a2.1,2.1,0,0,0-.462-1.477,1.708,1.708,0,0,0-1.316-.5,2.02,2.02,0,0,0-1.526.581,2.316,2.316,0,0,0-.56,1.673V17h-1.75V9.524H113.3v.966a2.736,2.736,0,0,1,1.092-.784A3.93,3.93,0,0,1,115.878,9.44ZM121,7.2h2.072l-.35,6.552h-1.386Zm1.036,9.9a1.114,1.114,0,0,1-.812-.315,1.044,1.044,0,0,1-.322-.777,1.021,1.021,0,0,1,.322-.77,1.128,1.128,0,0,1,.812-.308,1.086,1.086,0,0,1,.791.308,1.033,1.033,0,0,1,.315.77,1.056,1.056,0,0,1-.315.777A1.073,1.073,0,0,1,122.038,17.1Z" transform="matrix(1, 0.017, -0.017, 1, -16424.141, -6197.219)" fill="#6c6c6c"/>
  </g>
</svg>
