<svg width="16" height="18" viewBox="0 0 16 18" fill="none" xmlns="http://www.w3.org/2000/svg">
<path d="M6.87538 11.4339C7.14157 11.7956 7.52654 12.0522 7.96286 12.1586L7.58323 8.63219C7.17712 8.81976 6.85239 9.14766 6.66876 9.55556L4.91199 9.73747C4.72031 9.43379 4.45988 9.17945 4.15175 8.99501L5.40828 1.45486C5.41732 1.37377 5.39518 1.29229 5.34635 1.22692C5.29751 1.16156 5.22563 1.11722 5.14531 1.10291L3.8779 0.905191C3.83742 0.897674 3.79584 0.898319 3.75561 0.907076C3.71537 0.915833 3.67729 0.932531 3.64359 0.956193C3.60989 0.979856 3.58126 1.01001 3.55936 1.04488C3.53746 1.07975 3.52275 1.11864 3.51607 1.15927L2.65598 6.30006V6.30994L2.23977 8.83486C1.78323 9.0019 1.3951 9.31586 1.13635 9.72742C0.877602 10.139 0.762891 10.6248 0.810235 11.1087C0.868238 11.607 1.09266 12.0713 1.44721 12.4263C1.80176 12.7813 2.26569 13.0063 2.76399 13.065C3.26228 13.1236 3.76579 13.0125 4.19309 12.7495C4.62038 12.4865 4.94647 12.0871 5.11861 11.6158L6.87538 11.4339Z" fill="#919191"/>
<path d="M14.1691 16.7119L12.9739 16.8573L11.317 3.15112L12.5122 3.00678C12.9874 2.9501 13.4657 3.08398 13.8423 3.37914C14.219 3.6743 14.4634 4.10668 14.522 4.58163L15.745 14.6942C15.8031 15.1706 15.67 15.6506 15.3748 16.029C15.0795 16.4074 14.6463 16.6534 14.1701 16.7129L14.1691 16.7119Z" fill="#919191"/>
<path d="M10.6516 3.23386L12.2996 16.942L11.1133 17.0873C10.8774 17.1159 10.6382 17.0975 10.4094 17.0334C10.1806 16.9693 9.96666 16.8607 9.77993 16.7137C9.5932 16.5668 9.43733 16.3844 9.32124 16.1771C9.20516 15.9697 9.13115 15.7415 9.10346 15.5055L7.88153 5.38805C7.85185 5.15263 7.86911 4.91366 7.93231 4.68495C7.9955 4.45624 8.10338 4.24232 8.24972 4.05554C8.39606 3.86876 8.57795 3.71282 8.78489 3.59673C8.99183 3.48064 9.21973 3.4067 9.45541 3.37919L10.6516 3.23386Z" fill="#919191"/>
</svg>
