<svg width="20" height="20" viewBox="0 0 20 20" fill="none" xmlns="http://www.w3.org/2000/svg">
<path d="M8.75064 12.7044C9.04641 13.1063 9.47415 13.3913 9.95895 13.5095L9.53714 9.59133C9.08591 9.79974 8.7251 10.1641 8.52106 10.6173L6.5691 10.8194C6.35612 10.482 6.06675 10.1994 5.72438 9.99447L7.12053 1.61652C7.13058 1.52642 7.10598 1.43588 7.05171 1.36326C6.99745 1.29063 6.91759 1.24136 6.82833 1.22546L5.42011 1.00577C5.37513 0.997422 5.32893 0.99814 5.28422 1.00787C5.23952 1.0176 5.19721 1.03615 5.15976 1.06244C5.12232 1.08874 5.0905 1.12224 5.06617 1.16098C5.04184 1.19973 5.02549 1.24294 5.01807 1.28808L4.06241 7.00007V7.01105L3.59996 9.81651C3.09269 10.0021 2.66144 10.351 2.37394 10.8083C2.08644 11.2655 1.95898 11.8054 2.01159 12.343C2.07604 12.8967 2.3254 13.4125 2.71934 13.807C3.11328 14.2015 3.62877 14.4515 4.18243 14.5167C4.73608 14.5818 5.29554 14.4583 5.77031 14.1661C6.24508 13.8739 6.6074 13.4301 6.79868 12.9065L8.75064 12.7044Z" fill="black"/>
<path d="M16.8548 18.5688L15.5267 18.7303L13.6857 3.50125L15.0138 3.34088C15.5417 3.27789 16.0732 3.42665 16.4917 3.75461C16.9103 4.08257 17.1818 4.56299 17.2469 5.09071L18.6057 16.3269C18.6703 16.8562 18.5224 17.3896 18.1944 17.81C17.8664 18.2305 17.385 18.5038 16.8559 18.5699L16.8548 18.5688Z" fill="black"/>
<path d="M12.9465 3.59318L14.7776 18.8244L13.4595 18.9859C13.1973 19.0176 12.9315 18.9973 12.6773 18.9261C12.4231 18.8548 12.1854 18.7341 11.9779 18.5708C11.7704 18.4076 11.5972 18.2049 11.4683 17.9745C11.3393 17.7442 11.257 17.4906 11.2263 17.2284L9.86859 5.98672C9.83561 5.72515 9.85479 5.45963 9.925 5.2055C9.99522 4.95138 10.1151 4.7137 10.2777 4.50616C10.4403 4.29863 10.6424 4.12536 10.8723 3.99637C11.1023 3.86738 11.3555 3.78523 11.6173 3.75466L12.9465 3.59318Z" fill="black"/>
</svg>
