<svg width="14" height="14" viewBox="0 0 14 14" fill="none" xmlns="http://www.w3.org/2000/svg">
<path d="M7.7874 0.700195H10.5437C11.1958 0.700195 11.7249 1.22905 11.7249 1.88145V7.0002H2.2749V1.88145C2.2749 1.22905 2.80376 0.700195 3.45615 0.700195H3.8499L4.6374 2.2752L5.4249 0.700195H6.2124L6.9999 2.2752L7.7874 0.700195ZM11.7249 7.7877V8.5752C11.7249 9.44391 11.0186 10.1502 10.1499 10.1502H8.5749V11.7252C8.5749 12.5939 7.86861 13.3002 6.9999 13.3002C6.13119 13.3002 5.4249 12.5939 5.4249 11.7252V10.1502H3.8499C2.97996 10.1502 2.2749 9.44391 2.2749 8.5752V7.7877H11.7249ZM6.9999 12.1189C7.21647 12.1189 7.39365 11.9418 7.39365 11.7252C7.39365 11.5086 7.21647 11.3314 6.9999 11.3314C6.78334 11.3314 6.60615 11.5086 6.60615 11.7252C6.60615 11.9418 6.78334 12.1189 6.9999 12.1189Z" fill="#919191"/>
</svg>
