<svg width="14" height="18" viewBox="0 0 14 18" fill="none" xmlns="http://www.w3.org/2000/svg">
<path d="M8.0123 0.899994H11.5561C12.3945 0.899994 13.0748 1.57995 13.0748 2.41874V8.99999H0.924805V2.41874C0.924805 1.57995 1.60476 0.899994 2.44355 0.899994H2.9498L3.9623 2.92499L4.9748 0.899994H5.9873L6.9998 2.92499L8.0123 0.899994ZM13.0748 10.0125V11.025C13.0748 12.1419 12.1667 13.05 11.0498 13.05H9.0248V15.075C9.0248 16.1919 8.11672 17.1 6.9998 17.1C5.88289 17.1 4.9748 16.1919 4.9748 15.075V13.05H2.9498C1.83131 13.05 0.924805 12.1419 0.924805 11.025V10.0125H13.0748ZM6.9998 15.5812C7.27824 15.5812 7.50605 15.3534 7.50605 15.075C7.50605 14.7966 7.27824 14.5687 6.9998 14.5687C6.72137 14.5687 6.49355 14.7966 6.49355 15.075C6.49355 15.3534 6.72137 15.5812 6.9998 15.5812Z" fill="#919191" fill-opacity="0.4"/>
</svg>
