<svg xmlns="http://www.w3.org/2000/svg" width="18" height="18" viewBox="0 0 18 18">
  <g id="Group_77440" data-name="Group 77440" transform="translate(-380 -885)">
    <g id="_1UsHqj.tif" data-name=" 1UsHqj.tif" transform="translate(380.9 886.12)">
      <g id="Group_52474" data-name="Group 52474">
        <path id="Path_31062" data-name="Path 31062" d="M668.662,1005.952v.1a.737.737,0,0,1-.2.514.867.867,0,0,1-.441.276c-.441.107-.878.235-1.315.355-.023.006-.046.014-.095.03l.113.027c.4.091.8.18,1.2.275a.8.8,0,0,1-.042,1.576.727.727,0,0,1-.219-.02q-1.209-.243-2.417-.49c-.217-.044-.433-.091-.65-.135l-.084-.013c.036.142.067.27.1.4.135.534.27,1.067.393,1.6.049.209.079.424.111.637.01.068.051.084.1.1a1.721,1.721,0,0,1,1.006,2.1c-.027.078-.053.155-.081.232a.119.119,0,0,0,.036.146.627.627,0,0,1,.2.337c.1.412.211.821.308,1.234a.77.77,0,0,1-.375.835.089.089,0,0,0-.048.123c.109.421.213.844.321,1.265a.128.128,0,0,1-.03.142.434.434,0,0,0-.105.514c.087.265.14.54.21.81a.162.162,0,0,1-.022.145c-.135.2-.267.4-.4.612-.013.02-.028.039-.045.063-.246-.135-.491-.27-.732-.411a.152.152,0,0,1-.047-.088q-.337-1.321-.667-2.642l-.025-.1c-.032,0-.061-.007-.091-.007a.884.884,0,0,1-.709-.427.185.185,0,0,1-.021-.061c-.114-.451-.231-.9-.337-1.354a.457.457,0,0,1,.024-.239.26.26,0,0,0-.113-.343,1.575,1.575,0,0,1-.466-.614c-.009-.017-.018-.034-.028-.05a.208.208,0,0,0-.026-.03l-.869.219c-.571.142-1.142.282-1.712.426a.188.188,0,0,1-.153-.024q-1.492-.9-2.986-1.787a.165.165,0,0,0-.146-.022c-.118.034-.238.061-.367.094l-.023-.091q-.571-2.3-1.147-4.6a.1.1,0,0,1,.051-.132l.007,0c.5-.294,1-.592,1.5-.887a.326.326,0,0,1,.113-.041l1.814-.229,1.855-.236a9.928,9.928,0,0,0,1.629-.337,8.5,8.5,0,0,0,2.7-1.35c.092-.068.182-.138.277-.2s.181-.111.27-.165l.111-.028a1.582,1.582,0,0,1,.348.009.76.76,0,0,1,.585.581.732.732,0,0,1-.208.772c-.075.068-.149.139-.224.209a.191.191,0,0,0,.083-.006c.426-.1.855-.187,1.276-.3a.8.8,0,0,1,.8.372l.068.113Zm-5.607,3.442a.168.168,0,0,0-.068-.1c-.2-.126-.394-.259-.6-.364a1.618,1.618,0,0,0-1.386-.086,1.656,1.656,0,0,0-.986,1.943,1.709,1.709,0,0,0,.749,1.013.153.153,0,0,0,.135.025q.584-.15,1.17-.294c.173-.042.348-.076.52-.119a1,1,0,0,1,.736.11c.1.052.135-.027.194-.068a.12.12,0,0,0,.043-.151c-.088-.319-.42-1.594-.5-1.915Zm2.485,4.066a.3.3,0,0,0,.24-.191,1.455,1.455,0,0,0,.056-.735,1.3,1.3,0,0,0-.716-.9.309.309,0,0,0-.373.014.731.731,0,0,1-.626.109,1.043,1.043,0,0,0-.177-.032.212.212,0,0,0-.219.246c.017.088.035.177.057.265a.745.745,0,0,1-.006.389,1.052,1.052,0,0,1-.306.514c-.091.084-.091.1-.033.211a1.562,1.562,0,0,0,.423.495.121.121,0,0,0,.117.027c.259-.072,1.3-.346,1.562-.416Zm.068,1.137a.226.226,0,0,0,.151-.282.186.186,0,0,0-.016-.038c-.042-.12-.078-.135-.185-.068a1.583,1.583,0,0,1-.594.244c-.19.03-.384.036-.576.047-.094.005-.114.019-.117.114a.251.251,0,0,0,.24.262.244.244,0,0,0,.063,0c.163-.035.857-.209,1.033-.277Z" transform="translate(-652.463 -1003.99)" fill="#aaa" stroke="rgba(0,0,0,0)" stroke-width="1"/>
        <path id="Path_31063" data-name="Path 31063" d="M650.98,1008.863c.027-.008.053-.018.078-.024l2.236-.565c.072-.018.1-.007.117.068q.761,3.038,1.528,6.072c.007.026.011.052.016.076l-1.822.46Z" transform="translate(-650.98 -1005.38)" fill="#aaa" stroke="rgba(0,0,0,0)" stroke-width="1"/>
      </g>
    </g>
    <rect id="Rectangle_35133" data-name="Rectangle 35133" width="18" height="18" transform="translate(380 885)" fill="none"/>
  </g>
</svg>
