<svg width="17" height="14" viewBox="0 0 17 14" fill="none" xmlns="http://www.w3.org/2000/svg">
<path d="M11.1484 6.51793C10.9024 6.55331 10.7 6.34853 10.7 6.10001V5.6455C10.7 5.39698 10.9045 5.20106 11.1453 5.13941C11.4546 5.06021 11.74 4.89922 11.9696 4.66962C12.3063 4.33289 12.4955 3.8762 12.4955 3.40001C12.4955 2.92381 12.3063 2.46712 11.9696 2.13039C11.74 1.90079 11.4546 1.7398 11.1453 1.6606C10.9045 1.59895 10.7 1.40303 10.7 1.15451V0.700005C10.7 0.451477 10.9024 0.246701 11.1484 0.282083C11.8181 0.378396 12.4433 0.688625 12.9273 1.17262C13.5181 1.76336 13.85 2.56457 13.85 3.40001C13.85 3.59133 13.8325 3.78086 13.7986 3.96647C14.3153 4.11103 14.7913 4.38654 15.1773 4.77262C15.7681 5.36336 16.1 6.16457 16.1 7.00001C16.1 7.83544 15.7681 8.63665 15.1773 9.22739C14.7913 9.61347 14.3153 9.88898 13.7986 10.0335C13.8325 10.2192 13.85 10.4087 13.85 10.6C13.85 11.4354 13.5181 12.2367 12.9273 12.8274C12.4433 13.3114 11.8181 13.6216 11.1484 13.7179C10.9024 13.7533 10.7 13.5485 10.7 13.3V12.8455C10.7 12.597 10.9045 12.4011 11.1453 12.3394C11.4546 12.2602 11.74 12.0992 11.9696 11.8696C12.3063 11.5329 12.4955 11.0762 12.4955 10.6C12.4955 10.1238 12.3063 9.66712 11.9696 9.3304C11.74 9.10079 11.4546 8.9398 11.1453 8.8606C10.9045 8.79895 10.7 8.60303 10.7 8.35451V7.90001C10.7 7.65148 10.9024 7.4467 11.1484 7.48208C11.8181 7.5784 12.4433 7.88863 12.9273 8.37262C13.0551 8.50034 13.1707 8.63789 13.2735 8.7835C13.3124 8.76501 13.3533 8.75017 13.3953 8.73941C13.7046 8.66021 13.99 8.49922 14.2196 8.26962C14.5563 7.93289 14.7455 7.4762 14.7455 7C14.7455 6.52381 14.5563 6.06712 14.2196 5.73039C13.99 5.50079 13.7046 5.3398 13.3953 5.2606C13.3533 5.24984 13.3124 5.235 13.2735 5.21651C13.1707 5.36212 13.0551 5.49967 12.9273 5.62739C12.4433 6.11139 11.8181 6.42161 11.1484 6.51793Z" fill="#919191" fill-opacity="0.4"/>
<path d="M3.94995 2.50001C3.70142 2.50001 3.49995 2.70148 3.49995 2.95001V3.4C3.49995 3.64853 3.70142 3.85 3.94995 3.85H7.09995C7.34848 3.85 7.54995 3.64853 7.54995 3.4V2.95001C7.54995 2.70148 7.34848 2.50001 7.09995 2.50001H3.94995Z" fill="#919191" fill-opacity="0.4"/>
<path d="M5.29995 5.65C5.29995 6.14706 4.89701 6.55 4.39995 6.55C3.9029 6.55 3.49995 6.14706 3.49995 5.65C3.49995 5.15295 3.9029 4.75 4.39995 4.75C4.89701 4.75 5.29995 5.15295 5.29995 5.65Z" fill="#919191" fill-opacity="0.4"/>
<path d="M5.29995 8.35001C5.29995 8.84706 4.89701 9.25001 4.39995 9.25001C3.9029 9.25001 3.49995 8.84706 3.49995 8.35001C3.49995 7.85295 3.9029 7.45001 4.39995 7.45001C4.89701 7.45001 5.29995 7.85295 5.29995 8.35001Z" fill="#919191" fill-opacity="0.4"/>
<path d="M6.64995 6.55C7.14701 6.55 7.54995 6.14706 7.54995 5.65C7.54995 5.15295 7.14701 4.75 6.64995 4.75C6.1529 4.75 5.74995 5.15295 5.74995 5.65C5.74995 6.14706 6.1529 6.55 6.64995 6.55Z" fill="#919191" fill-opacity="0.4"/>
<path d="M7.54995 8.35001C7.54995 8.84706 7.14701 9.25001 6.64995 9.25001C6.1529 9.25001 5.74995 8.84706 5.74995 8.35001C5.74995 7.85295 6.1529 7.45001 6.64995 7.45001C7.14701 7.45001 7.54995 7.85295 7.54995 8.35001Z" fill="#919191" fill-opacity="0.4"/>
<path d="M0.0164216 5.8834C-0.0479022 5.64334 0.09456 5.39659 0.33462 5.33227L2.07329 4.86639C2.31335 4.80207 2.5601 4.94453 2.62442 5.18459L2.74089 5.61926C2.80521 5.85932 2.66275 6.10607 2.42269 6.17039L0.684025 6.63627C0.443966 6.70059 0.197214 6.55813 0.13289 6.31807L0.0164216 5.8834Z" fill="#919191" fill-opacity="0.4"/>
<path d="M8.43462 3.53227C8.19456 3.59659 8.0521 3.84334 8.11642 4.0834L8.23289 4.51807C8.29721 4.75813 8.54397 4.90059 8.78403 4.83627L10.5227 4.37039C10.7628 4.30607 10.9052 4.05932 10.8409 3.81926L10.7244 3.38459C10.6601 3.14453 10.4133 3.00207 10.1733 3.06639L8.43462 3.53227Z" fill="#919191" fill-opacity="0.4"/>
<path d="M0.0164216 8.18516C-0.0479022 8.42522 0.09456 8.67197 0.33462 8.7363L2.07329 9.20217C2.31335 9.2665 2.5601 9.12403 2.62442 8.88397L2.74089 8.44931C2.80521 8.20925 2.66275 7.9625 2.42269 7.89817L0.684025 7.4323C0.443966 7.36797 0.197214 7.51044 0.13289 7.7505L0.0164216 8.18516Z" fill="#919191" fill-opacity="0.4"/>
<path d="M8.43462 10.5363C8.19456 10.472 8.0521 10.2252 8.11642 9.98516L8.23289 9.5505C8.29721 9.31044 8.54397 9.16797 8.78403 9.2323L10.5227 9.69817C10.7628 9.7625 10.9052 10.0092 10.8409 10.2493L10.7244 10.684C10.6601 10.924 10.4133 11.0665 10.1733 11.0022L8.43462 10.5363Z" fill="#919191" fill-opacity="0.4"/>
<path d="M3.49995 10.6C3.49995 10.3515 3.70142 10.15 3.94995 10.15H7.09995C7.34848 10.15 7.54995 10.3515 7.54995 10.6V11.05C7.54995 11.2985 7.34848 11.5 7.09995 11.5H3.94995C3.70142 11.5 3.49995 11.2985 3.49995 11.05V10.6Z" fill="#919191" fill-opacity="0.4"/>
</svg>
