<svg width="18" height="12" viewBox="0 0 18 12" fill="none" xmlns="http://www.w3.org/2000/svg">
<path d="M17.0914 4.925V9.555C17.1133 9.8535 17.0897 10.1536 17.0214 10.445C16.941 10.7213 16.7928 10.9732 16.5902 11.1775C16.3876 11.3819 16.137 11.5323 15.8614 11.615C15.503 11.6883 15.1362 11.7119 14.7714 11.685C14.6202 11.685 14.4752 11.6249 14.3683 11.518C14.2614 11.4112 14.2014 11.2662 14.2014 11.115V9.4H12.4714V10.175C12.4701 10.252 12.4634 10.3289 12.4514 10.405C12.4115 10.6866 12.269 10.9434 12.0512 11.1262C11.8333 11.309 11.5556 11.4047 11.2714 11.395H7.24137C6.93569 11.3965 6.6361 11.3095 6.37879 11.1445C6.12148 10.9795 5.91746 10.7435 5.79137 10.465H4.87137C4.59212 10.4482 4.32853 10.3303 4.1298 10.1334C3.93107 9.93655 3.81077 9.67408 3.79137 9.395V8.275H2.63137C2.63137 8.845 2.64137 9.405 2.63137 9.985C2.63163 10.089 2.60271 10.191 2.54791 10.2794C2.49312 10.3677 2.41463 10.439 2.32137 10.485C2.1457 10.5497 1.95685 10.5703 1.77137 10.545C1.59319 10.5687 1.41197 10.5516 1.24137 10.495C1.14321 10.4496 1.05951 10.3779 0.999514 10.2879C0.939517 10.1979 0.905551 10.0931 0.901367 9.985V4.855C0.904661 4.70994 0.961745 4.57128 1.06153 4.46594C1.16132 4.36061 1.2967 4.29612 1.44137 4.285C1.66137 4.275 1.88137 4.275 2.10137 4.285C2.24604 4.29612 2.38141 4.36061 2.4812 4.46594C2.58099 4.57128 2.63807 4.70994 2.64137 4.855V6.565H3.79137C3.79137 5.775 3.78137 4.995 3.79137 4.215C3.81242 3.93651 3.93325 3.67497 4.13165 3.47841C4.33004 3.28185 4.5927 3.16346 4.87137 3.145C5.67137 3.135 6.47137 3.145 7.26137 3.145V2.015H4.94137C4.78866 2.01144 4.64319 1.94919 4.53518 1.84118C4.42718 1.73317 4.36493 1.5877 4.36137 1.435V1.405C4.3566 1.17792 4.36662 0.950773 4.39137 0.724997H4.38137C4.41975 0.597823 4.4998 0.487256 4.60862 0.411077C4.71745 0.334898 4.84874 0.297535 4.98137 0.304997H11.3004C11.4091 0.306323 11.5154 0.337894 11.6072 0.396176C11.6991 0.454458 11.7729 0.537151 11.8204 0.634997C11.8702 0.769094 11.8906 0.912317 11.8804 1.055C11.8804 1.205 11.8804 1.355 11.8704 1.515C11.8528 1.65356 11.7851 1.7809 11.6801 1.87301C11.5751 1.96512 11.44 2.01562 11.3004 2.015H9.00037V3.145H11.2704C11.576 3.13574 11.873 3.24688 12.0975 3.4545C12.3219 3.66212 12.4558 3.94959 12.4704 4.255V5.425H14.2004V3.715C14.2009 3.60088 14.2354 3.4895 14.2995 3.39509C14.3637 3.30069 14.4545 3.22754 14.5604 3.185C14.6876 3.15203 14.8191 3.13854 14.9504 3.145C15.2181 3.13142 15.4864 3.14819 15.7504 3.195C16.004 3.25207 16.2417 3.36523 16.4459 3.52616C16.65 3.68709 16.8156 3.89171 16.9304 4.125C17.0436 4.37611 17.0993 4.64966 17.0914 4.925Z" fill="#919191"/>
</svg>
