<svg xmlns="http://www.w3.org/2000/svg" width="18.001" height="18.001" viewBox="0 0 18.001 18.001">
  <g id="PM_-_Reefer_Unit" data-name="PM - Reefer Unit" transform="translate(-18412.354 2937.857)">
    <rect id="Rectangle_53345" data-name="Rectangle 53345" width="18.001" height="18.001" transform="translate(18412.354 -2937.857)" fill="#ccc" opacity="0"/>
    <path id="Path_35404" data-name="Path 35404" d="M16.073,13.416l-1.01-.582.777-.21a.462.462,0,0,0,.326-.564l-.12-.446a.462.462,0,0,0-.564-.326l-2.116.568-1.91-1.106,1.906-1.1,2.116.568a.463.463,0,0,0,.565-.326l.12-.446a.462.462,0,0,0-.326-.564l-.778-.21,1.011-.582a.465.465,0,0,0,.17-.631l-.464-.8a.464.464,0,0,0-.63-.17l-1.011.583.21-.778a.462.462,0,0,0-.326-.564l-.446-.12a.462.462,0,0,0-.564.326l-.568,2.116L10.566,9.13V6.814l1.6-1.6a.479.479,0,0,0,0-.675L11.832,4.2a.479.479,0,0,0-.675,0l-.591.589V3.578a.48.48,0,0,0-.479-.479H9.131a.48.48,0,0,0-.478.479V4.785L8.064,4.2a.48.48,0,0,0-.676,0l-.34.338a.473.473,0,0,0,0,.675l1.6,1.6V9.13L6.776,8.049,6.208,5.932a.463.463,0,0,0-.565-.326l-.446.12a.462.462,0,0,0-.326.564l.21.778-1.01-.583a.462.462,0,0,0-.631.17l-.464.8a.462.462,0,0,0,.171.631l1.01.582-.777.209a.464.464,0,0,0-.329.568l.12.446a.463.463,0,0,0,.565.326l2.116-.568,1.906,1.1-1.906,1.1-2.116-.567a.462.462,0,0,0-.565.326l-.12.445a.463.463,0,0,0,.326.565l.778.209-1.011.586a.465.465,0,0,0-.17.631l.464.8a.463.463,0,0,0,.63.171l1.011-.583-.21.777a.463.463,0,0,0,.326.565l.446.12a.462.462,0,0,0,.564-.326l.568-2.116,1.877-1.082v2.316l-1.6,1.6a.475.475,0,0,0,0,.676l.338.338a.479.479,0,0,0,.675,0l.589-.589v1.2a.479.479,0,0,0,.478.478h.957a.479.479,0,0,0,.478-.478V16.716l.589.589a.48.48,0,0,0,.676,0l.338-.338a.48.48,0,0,0,0-.676l-1.6-1.6V12.37l1.877,1.082.568,2.116a.462.462,0,0,0,.564.326l.446-.12a.463.463,0,0,0,.326-.565l-.21-.777,1.011.582a.46.46,0,0,0,.63-.17l.464-.8A.456.456,0,0,0,16.073,13.416Z" transform="translate(18411.744 -2939.607)" fill="#ccc"/>
  </g>
</svg>
