<svg xmlns="http://www.w3.org/2000/svg" width="18" height="18" viewBox="0 0 18 18">
  <g id="Group_77441" data-name="Group 77441" transform="translate(-294 -885)">
    <g id="_000000ff" data-name=" 000000ff" transform="translate(294.9 885.898)">
      <path id="Path_31047" data-name="Path 31047" d="M579.776,1003.745h.286a8.113,8.113,0,0,1,7.958,7.956v.288a8.125,8.125,0,0,1-5.856,7.64,8.28,8.28,0,0,1-2.1.316h-.288a8.113,8.113,0,0,1-7.957-7.956v-.287a8.117,8.117,0,0,1,7.956-7.957m-.2,2.036a6.316,6.316,0,0,0-1.269.213,6.087,6.087,0,0,0-3.645,2.815,5.989,5.989,0,0,0-.719,1.99,6.074,6.074,0,0,0,4.554,6.946,5.956,5.956,0,0,0,3.038-.049,6.074,6.074,0,0,0,4.364-6.9,5.975,5.975,0,0,0-.57-1.708,6.085,6.085,0,0,0-5.752-3.311Z" transform="translate(-571.82 -1003.745)" fill="#aaa" stroke="rgba(0,0,0,0)" stroke-width="1"/>
      <path id="Path_31048" data-name="Path 31048" d="M580.575,1007.789a5.393,5.393,0,1,1-4.743,5.182,5.3,5.3,0,0,1,.506-2.111,5.4,5.4,0,0,1,3.559-2.942,5.252,5.252,0,0,1,.675-.13m.068.7a4.73,4.73,0,0,0-.843.184.338.338,0,0,0-.244.331,3.037,3.037,0,0,0,.29,1.127,1.944,1.944,0,0,0,.7.818,1.266,1.266,0,0,0,.932.172,1.55,1.55,0,0,0,.952-.693,2.844,2.844,0,0,0,.466-1.426.338.338,0,0,0-.244-.329,4.723,4.723,0,0,0-2.009-.184m-2.543,1.185a.683.683,0,0,0-.213.166,4.686,4.686,0,0,0-1.282,2.355.345.345,0,0,0,.223.383,2.431,2.431,0,0,0,1.1.227,1.868,1.868,0,0,0,1.057-.312,1.031,1.031,0,0,0,.412-.772,2.108,2.108,0,0,0-.322-1.114,5.054,5.054,0,0,0-.619-.837.339.339,0,0,0-.363-.1m6.013.008a.716.716,0,0,0-.242.225,3.623,3.623,0,0,0-.763,1.312,1.223,1.223,0,0,0,.083.977,1.182,1.182,0,0,0,.664.5,2.464,2.464,0,0,0,1.634-.06.56.56,0,0,0,.321-.222.481.481,0,0,0,0-.372,4.712,4.712,0,0,0-1.326-2.279.346.346,0,0,0-.372-.08m-3.187,2.153a1.35,1.35,0,1,0,.906.109,1.35,1.35,0,0,0-.906-.109m3.375,1.668a1.441,1.441,0,0,0-1.106.593,1.23,1.23,0,0,0-.074,1.013,3.7,3.7,0,0,0,.768,1.3.568.568,0,0,0,.253.214.335.335,0,0,0,.332-.075,4.668,4.668,0,0,0,1.375-2.448.337.337,0,0,0-.176-.358,2.484,2.484,0,0,0-1.37-.237m-6.77.059a2.355,2.355,0,0,0-.749.231.333.333,0,0,0-.178.3,1.145,1.145,0,0,0,.043.225,4.693,4.693,0,0,0,1.328,2.269.337.337,0,0,0,.344.082c.144-.048.222-.189.318-.3a4.514,4.514,0,0,0,.423-.591,1.97,1.97,0,0,0,.326-1.314,1.038,1.038,0,0,0-.562-.721,2.214,2.214,0,0,0-1.293-.184m3.463,1.633a1.409,1.409,0,0,0-.614.3,2.476,2.476,0,0,0-.779,1.478c-.011.172-.09.36,0,.522a.469.469,0,0,0,.326.192,4.718,4.718,0,0,0,2.728-.039.337.337,0,0,0,.241-.35,2.65,2.65,0,0,0-.768-1.759A1.321,1.321,0,0,0,580.987,1015.2Z" transform="translate(-573.123 -1005.047)" fill="#aaa" stroke="rgba(0,0,0,0)" stroke-width="1"/>
    </g>
    <rect id="Rectangle_35132" data-name="Rectangle 35132" width="18" height="18" transform="translate(294 885)" fill="none"/>
  </g>
</svg>
