<svg xmlns="http://www.w3.org/2000/svg" width="32" height="32" viewBox="0 0 32 32"><g transform="translate(-570.082 -940)"><rect width="32" height="32" transform="translate(570.082 940)" fill="#aaa" opacity="0"/><path d="M27,13.748V1.34a.357.357,0,0,0-.356-.356h-2.9a.357.357,0,0,0-.356.356v4.2a2.534,2.534,0,0,0-2.524-2.524H9.718A2.534,2.534,0,0,0,7.193,5.535V1.34A.357.357,0,0,0,6.838.984H3.94a.357.357,0,0,0-.356.356V13.766A4.486,4.486,0,0,0,.9,17.873v4.16a4.447,4.447,0,0,0,1.8,3.609v2.7a1.791,1.791,0,0,0,1.8,1.8H6.3a1.814,1.814,0,0,0,1.8-1.8V26.531H22.5v1.813a1.791,1.791,0,0,0,1.8,1.8h1.8a1.8,1.8,0,0,0,1.8-1.8v-2.7A4.513,4.513,0,0,0,29.7,22.033v-4.16A4.508,4.508,0,0,0,27,13.748m-18.9,5.6a1.8,1.8,0,1,1,0-.018ZM18.5,23.7H12.1a.8.8,0,1,1,0-1.6h6.4a.8.8,0,0,1,0,1.6m0-3.556H12.1a.8.8,0,1,1,0-1.6h6.4a.8.8,0,0,1,0,1.6m-11.307-6.2L8.207,9.891A1.718,1.718,0,0,1,9.9,8.54H20.633a1.775,1.775,0,0,1,1.76,1.351l1,4.053Zm17.1,7.2a1.8,1.8,0,1,1,1.8-1.8,1.8,1.8,0,0,1-1.8,1.8" transform="translate(570.782 940.26)" fill="#aaa"/></g></svg>