<svg xmlns="http://www.w3.org/2000/svg" width="18" height="18" viewBox="0 0 18 18">
  <g id="Group_77436" data-name="Group 77436" transform="translate(-122 -833)">
    <g id="Group_41151" data-name="Group 41151" transform="translate(124.111 833.9)">
      <g id="Group_41150" data-name="Group 41150">
        <path id="Path_24451" data-name="Path 24451" d="M408.63,914.4a.5.5,0,0,1-.473.492.484.484,0,0,0,.486-.482v-.652h-.013Zm-1.958-4.24a.639.639,0,0,0,0,1.262.643.643,0,0,1,0-1.262Zm-2.025-1.053h-.027a.418.418,0,0,1,.412.424v.008a.426.426,0,0,1-.4.412.434.434,0,0,0,.432-.4.424.424,0,0,0-.408-.439h0Zm.364,1.546a.375.375,0,0,0-.094-.135.46.46,0,0,1,.094.136Zm.028.169a.4.4,0,0,1-.094.263.4.4,0,0,0,.067-.432.381.381,0,0,1,.027.169Zm-.337.418a.4.4,0,0,0,.243-.155.442.442,0,0,1-.236.142Zm-3.645-3.024a.415.415,0,0,1,.4-.4.423.423,0,0,0-.068.842h.074a.417.417,0,0,1-.405-.429v-.009ZM399.7,914.4a.513.513,0,0,1-.29.452.472.472,0,0,0,.3-.445v-.648H399.7Zm-1.924-5.94a.984.984,0,0,0-.54.162,1.037,1.037,0,0,1,.54-.155h.25Zm.567,1.7a.639.639,0,0,0,0,1.262.645.645,0,0,1,0-1.262ZM396.8,911.94v-.013h-.412Z" transform="translate(-396.149 -898.691)" fill="#aaa" stroke="rgba(0,0,0,0)" stroke-width="1"/>
        <path id="Path_31046" data-name="Path 31046" d="M409.566,907.538l-.412.013V905.04a.749.749,0,0,0-.04-.25.385.385,0,0,0-.041-.128.962.962,0,0,0-.209-.311.985.985,0,0,0-.682-.277h-.257v-9.126a.257.257,0,0,0-.108-.209l-.621-.405a.3.3,0,0,0-.135-.034.241.241,0,0,0-.243.24v2.926l-.176-.472a1.693,1.693,0,0,0-1.593-1.127h-4.259a1.694,1.694,0,0,0-1.593,1.127l-.182.472v-2.923a.24.24,0,0,0-.236-.243h-.007a.307.307,0,0,0-.135.034l-.621.405a.279.279,0,0,0-.108.209v9.126h-.25a1.026,1.026,0,0,0-.54.155,1,1,0,0,0-.351.432.4.4,0,0,0-.04.128.821.821,0,0,0-.04.257v2.5l-.412-.013h-.007a.24.24,0,0,0-.236.243v1.343a.242.242,0,0,0,.242.242h1.054v.642a.5.5,0,0,0,.473.492h1.3a.5.5,0,0,0,.182-.04h.007a.513.513,0,0,0,.29-.452v-.642h6.676v.642a.5.5,0,0,0,.29.452c0,.007.007,0,.007,0a.5.5,0,0,0,.182.04h1.3a.5.5,0,0,0,.473-.492v-.642h1.053a.241.241,0,0,0,.243-.242h0v-1.343a.241.241,0,0,0-.242-.243Zm-10.226-8.7,2.99-.007h1.181l2.983.007v2.4H399.34Zm-.054,8.195a.815.815,0,0,1-.128.013h-.83a.272.272,0,0,1-.1-.013.639.639,0,0,1,0-1.262.244.244,0,0,1,.1-.013h.83a.677.677,0,0,1,.128.013.639.639,0,0,1,0,1.262Zm5.542-.338a.407.407,0,0,1-.243.155.418.418,0,0,1-.088.007h-3.159l-.081-.007a.417.417,0,0,1-.317-.277.444.444,0,0,1-.027-.135v-.007a.452.452,0,0,1,.121-.3c.007-.014.02-.021.034-.034a.381.381,0,0,1,.176-.081.3.3,0,0,1,.081-.013h3.2a.21.21,0,0,1,.068.013.307.307,0,0,1,.148.061.223.223,0,0,1,.061.054.411.411,0,0,1,.128.3.4.4,0,0,1-.1.27Zm-.317-1.134h-3.186a.429.429,0,0,1-.425-.4.422.422,0,0,1,.4-.439h3.226a.423.423,0,0,1,.412.435v0A.435.435,0,0,1,404.51,905.56Zm.027-1.3H401.3a.423.423,0,1,1,0-.845h3.2a.423.423,0,0,1,.034.844Zm3.078,2.768a.816.816,0,0,1-.128.013h-.83a.272.272,0,0,1-.1-.013.639.639,0,0,1,0-1.262.244.244,0,0,1,.1-.013h.83a.677.677,0,0,1,.128.013.639.639,0,0,1,0,1.262Z" transform="translate(-396.032 -894.301)" fill="#aaa" stroke="rgba(0,0,0,0)" stroke-width="1"/>
      </g>
    </g>
    <rect id="Rectangle_35125" data-name="Rectangle 35125" width="18" height="18" transform="translate(122 833)" fill="none"/>
  </g>
</svg>
