<svg width="18" height="18" viewBox="0 0 18 18" fill="none" xmlns="http://www.w3.org/2000/svg">
<path d="M1.89063 2.50005V3.50005C1.89062 3.56639 1.90381 3.63207 1.92944 3.69326C1.95506 3.75445 1.99261 3.80992 2.03989 3.85646C2.08717 3.903 2.14324 3.93966 2.20483 3.96431C2.26641 3.98896 2.33229 4.00111 2.39863 4.00005H15.6006C15.667 4.00111 15.7328 3.98896 15.7944 3.96431C15.856 3.93966 15.9121 3.903 15.9594 3.85646C16.0066 3.80992 16.0442 3.75445 16.0698 3.69326C16.0954 3.63207 16.1086 3.56639 16.1086 3.50005V2.50005C16.1086 2.43371 16.0954 2.36803 16.0698 2.30684C16.0442 2.24565 16.0066 2.19017 15.9594 2.14364C15.9121 2.0971 15.856 2.06044 15.7944 2.03579C15.7328 2.01114 15.667 1.99899 15.6006 2.00005H11.7906L11.4976 1.41605C11.4334 1.2903 11.3356 1.18484 11.215 1.1114C11.0944 1.03795 10.9558 0.999406 10.8146 1.00005H7.19063C7.0495 0.99846 6.91076 1.03651 6.79019 1.10988C6.66963 1.18325 6.57207 1.28898 6.50863 1.41505L6.20862 2.00005H2.39863C2.33229 1.99899 2.26641 2.01114 2.20483 2.03579C2.14324 2.06044 2.08717 2.0971 2.03989 2.14364C1.99261 2.19017 1.95506 2.24565 1.92944 2.30684C1.90381 2.36803 1.89062 2.43371 1.89063 2.50005Z" fill="#DF3C3C" />
<path d="M2.88906 4.6791L3.56406 15.6671H3.56506C3.60356 16.0408 3.78216 16.386 4.06491 16.6333C4.34766 16.8806 4.71359 17.0117 5.08906 17.0001H12.9111C13.2867 17.0119 13.6529 16.881 13.9358 16.6337C14.2188 16.3863 14.3976 16.041 14.4361 15.6671L15.1111 4.6791H2.88906Z" fill="#DF3C3C" fill-opacity="0.4"/>
</svg>
