<svg height="17.126" viewBox="0 0 17.12 17.126" width="17.12" xmlns="http://www.w3.org/2000/svg">
  <g transform="translate(-676.499 -377.882)">
    <path
      d="M690.041,380.819l-1.878-1.88a1.506,1.506,0,0,0-2.123,0l-1.362,1.361h0a.376.376,0,0,0,0,.532l3.468,3.466h0a.377.377,0,0,0,.532,0l1.362-1.361h-.008A1.5,1.5,0,0,0,690.041,380.819Z"
      fill="#b7b7b7" stroke="rgba(0,0,0,0)" stroke-width="1" transform="translate(2.525)"/>
    <path
      d="M689.807,384.4l-3.468-3.466h0a.377.377,0,0,0-.532,0l-8.4,8.4L677,392.9a.686.686,0,0,0,0,.167.749.749,0,0,0,.827.66l3.57-.4,8.4-8.4h0A.376.376,0,0,0,689.807,384.4Z"
      fill="#b7b7b7" stroke="rgba(0,0,0,0)" stroke-width="1" transform="translate(0 0.772)"/>
  </g>
</svg>
