<svg width="20" height="20" viewBox="0 0 20 20" fill="none" xmlns="http://www.w3.org/2000/svg">
<path d="M14.5713 12.2484C13.7953 12.2471 13.042 12.5063 12.4357 12.9832L8.77158 10.7297C8.87983 10.2471 8.87983 9.74703 8.77158 9.26442L12.4357 7.01091C13.0679 7.50526 13.8573 7.76356 14.6642 7.74018C15.4712 7.7168 16.2437 7.41324 16.8454 6.88314C17.4471 6.35304 17.8392 5.63053 17.9523 4.84329C18.0655 4.05604 17.8924 3.25475 17.4638 2.58099C17.0351 1.90724 16.3785 1.40441 15.6098 1.16136C14.8412 0.918306 14.01 0.950678 13.2633 1.25275C12.5165 1.55483 11.9022 2.10716 11.5289 2.81215C11.1557 3.51713 11.0474 4.32939 11.2233 5.10537L7.56264 7.35555C7.05793 6.96003 6.45017 6.71277 5.80919 6.64216C5.1682 6.57156 4.51999 6.68048 3.93904 6.95641C3.35809 7.23235 2.86795 7.6641 2.52495 8.20206C2.18195 8.74003 2 9.36238 2 9.99762C2 10.6329 2.18195 11.2552 2.52495 11.7932C2.86795 12.3311 3.35809 12.7629 3.93904 13.0388C4.51999 13.3148 5.1682 13.4237 5.80919 13.3531C6.45017 13.2825 7.05793 13.0352 7.56264 12.6397L11.2233 14.8888C11.069 15.5716 11.1338 16.2848 11.4087 16.9298C11.6837 17.5748 12.1552 18.1199 12.7581 18.4896C13.3611 18.8594 14.0657 19.0356 14.7747 18.994C15.4838 18.9524 16.1622 18.695 16.7163 18.2573C17.2704 17.8196 17.6728 17.2233 17.868 16.5506C18.0632 15.878 18.0415 15.1623 17.8059 14.5023C17.5703 13.8424 17.1325 13.2707 16.5529 12.8664C15.9733 12.462 15.2805 12.2449 14.5702 12.245L14.5713 12.2484Z" fill="black"/>
</svg>
