<svg xmlns="http://www.w3.org/2000/svg" width="18" height="18" viewBox="0 0 18 18"><g transform="translate(-575 -1220)"><rect width="18" height="18" transform="translate(575 1220)" fill="#aaa" opacity="0"/><path d="M15.564,6.274a3.151,3.151,0,0,0-.76-3.08,3.047,3.047,0,0,0-3.09-.76A3.056,3.056,0,0,0,9,.794a3.1,3.1,0,0,0-2.73,1.64,3.076,3.076,0,0,0-3.84,3.85,3.088,3.088,0,0,0,0,5.44,3.077,3.077,0,0,0,3.85,3.84,3.04,3.04,0,0,0,1.28,1.28,3.086,3.086,0,0,0,4.16-1.28,3.132,3.132,0,0,0,3.08-.77,3.094,3.094,0,0,0,.76-3.08,3.072,3.072,0,0,0,0-5.44m-2.45,1.17-4.86,4.82a.41.41,0,0,1-.58,0l-2.81-2.83a.41.41,0,0,1,0-.58l.96-.96a.41.41,0,0,1,.58,0l1.57,1.58,3.61-3.58a.4.4,0,0,1,.57,0l.96.97a.41.41,0,0,1,0,.58" transform="translate(575 1220)" fill="#dadada"/></g></svg>