<svg xmlns="http://www.w3.org/2000/svg" xmlns:xlink="http://www.w3.org/1999/xlink" width="18" height="18" viewBox="0 0 18 18"><defs><clipPath id="a"><rect width="18" height="18" transform="translate(0.082)" fill="#dadada" opacity="0"/></clipPath></defs><g transform="translate(-570.082 -1020)"><g transform="translate(570 1020)" opacity="0"><g clip-path="url(#a)"><rect width="18" height="18" transform="translate(0.082)" fill="#dadada"/></g></g><path d="M13.61,2.056h.005A7.263,7.263,0,0,0,7.671.584,6.971,6.971,0,0,0,3.345,11.6c1,1.329,3.894,4.4,5.09,5.662a.89.89,0,0,0,1.257.043c.015-.014.029-.028.043-.043C10.925,16,13.8,12.925,14.8,11.606a6.9,6.9,0,0,0-1.187-9.55m-.294,4.4L8.453,11.275a.408.408,0,0,1-.577,0L5.065,8.44a.408.408,0,0,1,0-.577l.966-.958a.408.408,0,0,1,.577,0L8.175,8.484l3.608-3.579a.408.408,0,0,1,.577,0l.958.967a.408.408,0,0,1,0,.577" transform="translate(570 1020)" fill="#dadada"/></g></svg>