<svg xmlns="http://www.w3.org/2000/svg" width="18" height="18" viewBox="0 0 18 18"><g transform="translate(-570.082 -940)"><rect width="18" height="18" transform="translate(570.082 940)" fill="#aaa" opacity="0"/><path d="M15.58,8.164V1.184a.2.2,0,0,0-.2-.2H13.75a.2.2,0,0,0-.2.2v2.36a1.425,1.425,0,0,0-1.42-1.42H5.86a1.425,1.425,0,0,0-1.42,1.42V1.184a.2.2,0,0,0-.2-.2H2.61a.2.2,0,0,0-.2.2v6.99A2.523,2.523,0,0,0,.9,10.484v2.34a2.5,2.5,0,0,0,1.01,2.03v1.52a1.007,1.007,0,0,0,1.01,1.01H3.94a1.02,1.02,0,0,0,1.01-1.01v-1.02h8.1v1.02a1.007,1.007,0,0,0,1.01,1.01h1.01a1.014,1.014,0,0,0,1.01-1.01v-1.52a2.539,2.539,0,0,0,1.02-2.03v-2.34a2.536,2.536,0,0,0-1.52-2.32M4.95,11.314a1.015,1.015,0,1,1,0-.01Zm5.85,2.45H7.2a.45.45,0,0,1,0-.9h3.6a.45.45,0,1,1,0,.9m0-2H7.2a.45.45,0,0,1,0-.9h3.6a.45.45,0,1,1,0,.9M4.44,8.274l.57-2.28a.966.966,0,0,1,.95-.76H12a1,1,0,0,1,.99.76l.56,2.28Zm9.62,4.05a1.015,1.015,0,1,1,1.01-1.01,1.014,1.014,0,0,1-1.01,1.01" transform="translate(570.082 939.716)" fill="#dadada"/></g></svg>