<svg width="5" height="10" viewBox="0 0 5 10" fill="none" xmlns="http://www.w3.org/2000/svg">
<path d="M0.200195 8.63487L0.200195 1.36523C0.200121 1.25347 0.233452 1.14419 0.295969 1.05124C0.358487 0.958292 0.44738 0.885842 0.551398 0.843063C0.655415 0.800283 0.769881 0.789098 0.880306 0.810922C0.990731 0.832746 1.09215 0.886598 1.17173 0.965662L4.83355 4.60048C4.94025 4.70648 5.0002 4.8502 5.0002 5.00005C5.0002 5.1499 4.94025 5.29362 4.83355 5.39961L1.17173 9.03443C1.09215 9.1135 0.990731 9.16735 0.880306 9.18917C0.769881 9.211 0.655415 9.19981 0.551398 9.15703C0.44738 9.11425 0.358487 9.04181 0.295969 8.94885C0.233452 8.8559 0.200121 8.74663 0.200195 8.63487Z" fill="#424242"/>
</svg>
