<svg width="18" height="18" viewBox="0 0 18 18" fill="none" xmlns="http://www.w3.org/2000/svg">
<path d="M12.7757 8.52128C13.2112 8.02719 13.4798 7.42467 13.5478 6.78935C13.5986 6.31733 13.5424 5.84067 13.383 5.38999C13.2235 4.93932 12.9643 4.52459 12.622 4.17244C12.2797 3.8203 11.8618 3.53853 11.3952 3.34523C10.9286 3.15194 10.4236 3.05139 9.9127 3.05005H4.20805C4.08657 3.05005 3.97006 3.09485 3.88416 3.17461C3.79826 3.25436 3.75 3.36253 3.75 3.47532V4.7504C3.75 4.86319 3.79826 4.97136 3.88416 5.05111C3.97006 5.13086 4.08657 5.17567 4.20805 5.17567H5.12019V12.8239H4.20805C4.08657 12.8239 3.97006 12.8687 3.88416 12.9485C3.79826 13.0282 3.75 13.1364 3.75 13.2492V14.5243C3.75 14.6371 3.79826 14.7452 3.88416 14.825C3.97006 14.9047 4.08657 14.9496 4.20805 14.9496H10.1967C11.1825 14.9645 12.1395 14.6409 12.8841 14.041C13.6287 13.441 14.1085 12.6069 14.2313 11.6987C14.295 11.0982 14.1951 10.4926 13.9407 9.93733C13.6864 9.38211 13.2858 8.89517 12.7757 8.52128ZM7.40253 5.17494H9.9127C10.0958 5.17086 10.2779 5.20081 10.4483 5.26303C10.6187 5.32526 10.774 5.4185 10.905 5.53727C11.0361 5.65604 11.1402 5.79795 11.2113 5.95464C11.2824 6.11132 11.319 6.27963 11.319 6.44965C11.319 6.61967 11.2824 6.78797 11.2113 6.94465C11.1402 7.10134 11.0361 7.24325 10.905 7.36202C10.774 7.48079 10.6187 7.57403 10.4483 7.63626C10.2779 7.69848 10.0958 7.72844 9.9127 7.72435H7.40253V5.17494ZM9.9127 12.8239H7.40253V9.84924H9.9127C10.1231 9.84924 10.3314 9.88771 10.5258 9.96246C10.7201 10.0372 10.8967 10.1468 11.0455 10.2849C11.1942 10.423 11.3122 10.587 11.3927 10.7674C11.4733 10.9479 11.5147 11.1413 11.5147 11.3366C11.5147 11.5319 11.4733 11.7253 11.3927 11.9058C11.3122 12.0862 11.1942 12.2502 11.0455 12.3883C10.8967 12.5264 10.7201 12.636 10.5258 12.7107C10.3314 12.7855 10.1231 12.8239 9.9127 12.8239Z" fill="#919191"/>
</svg>
