<svg width="14" height="14" viewBox="0 0 14 14" fill="none" xmlns="http://www.w3.org/2000/svg">
<path d="M11.1998 1.47534V2.32518C11.1998 2.38103 11.1889 2.43633 11.1678 2.48793C11.1467 2.53953 11.1157 2.58641 11.0767 2.62591C11.0377 2.6654 10.9913 2.69672 10.9403 2.7181C10.8893 2.73947 10.8347 2.75047 10.7795 2.75047H9.13229L7.03284 11.2496H8.2597C8.37117 11.2496 8.47808 11.2944 8.55691 11.3742C8.63574 11.4539 8.68002 11.5621 8.68002 11.6749V12.5248C8.68002 12.6376 8.63574 12.7457 8.55691 12.8255C8.47808 12.9052 8.37117 12.95 8.2597 12.95H3.22013C3.16487 12.95 3.11016 12.939 3.05911 12.9176C3.00807 12.8962 2.9617 12.8648 2.92266 12.8252C2.88362 12.7857 2.85267 12.7387 2.83159 12.687C2.81051 12.6353 2.79971 12.5799 2.79981 12.524V11.6742C2.79981 11.5614 2.84409 11.4532 2.92292 11.3735C3.00174 11.2937 3.10865 11.2489 3.22013 11.2489H4.86732L6.9675 2.74973H5.73991C5.62844 2.74973 5.52152 2.70493 5.4427 2.62517C5.36387 2.54541 5.31959 2.43724 5.31959 2.32445V1.47534C5.31959 1.36254 5.36387 1.25437 5.4427 1.17461C5.52152 1.09486 5.62844 1.05005 5.73991 1.05005H10.7802C10.8916 1.05024 10.9983 1.09514 11.077 1.17487C11.1556 1.25461 11.1998 1.36267 11.1998 1.47534Z" fill="#919191"/>
</svg>
