<svg width="18" height="18" viewBox="0 0 18 18" fill="none" xmlns="http://www.w3.org/2000/svg">
<path d="M15.9759 13.7764L12.8759 16.8764C12.7323 17.0187 12.538 17.0982 12.3359 17.0974H12.1429V13.5884C12.1431 13.4451 12.2003 13.3078 12.3017 13.2065C12.4031 13.1053 12.5406 13.0484 12.6839 13.0484H16.1969V13.2414C16.197 13.442 16.1175 13.6344 15.9759 13.7764ZM11.1329 13.6984V17.0984H2.55688C2.45707 17.0984 2.35824 17.0788 2.26604 17.0406C2.17383 17.0024 2.09005 16.9464 2.01947 16.8758C1.9489 16.8053 1.89292 16.7215 1.85473 16.6293C1.81653 16.5371 1.79688 16.4382 1.79688 16.3384V1.65744C1.79687 1.55768 1.81654 1.4589 1.85475 1.36675C1.89295 1.2746 1.94895 1.19088 2.01953 1.12039C2.09012 1.0499 2.17391 0.994011 2.26611 0.955926C2.35831 0.917842 2.45712 0.898307 2.55688 0.898438H15.4379C15.6392 0.898438 15.8322 0.978404 15.9746 1.12074C16.1169 1.26308 16.1969 1.45614 16.1969 1.65744V12.0354H12.7969C12.3572 12.037 11.936 12.2125 11.6252 12.5234C11.3144 12.8344 11.1392 13.2558 11.1379 13.6954" fill="#919191"/>
</svg>
