<svg width="16" height="18" viewBox="0 0 16 18" fill="none" xmlns="http://www.w3.org/2000/svg">
<path d="M14.9759 13.7764L11.8759 16.8764C11.8049 16.9471 11.7207 17.003 11.628 17.041C11.5353 17.0789 11.436 17.0981 11.3359 17.0974H11.1429V13.5884C11.1429 13.4452 11.1998 13.3079 11.301 13.2066C11.4023 13.1053 11.5397 13.0484 11.6829 13.0484H15.1929V13.2414C15.193 13.3408 15.1736 13.4392 15.1357 13.531C15.0978 13.6228 15.0421 13.7062 14.9719 13.7764M10.1309 13.6984V17.0984H1.55688C1.45712 17.0986 1.35831 17.079 1.26611 17.041C1.17391 17.0029 1.09012 16.947 1.01954 16.8765C0.948949 16.806 0.892952 16.7223 0.854746 16.6301C0.81654 16.538 0.796875 16.4392 0.796875 16.3394V1.65844C0.796875 1.45687 0.876946 1.26356 1.01947 1.12104C1.162 0.978509 1.35531 0.898438 1.55688 0.898438H14.4369C14.6384 0.898437 14.8317 0.978509 14.9743 1.12104C15.1168 1.26356 15.1969 1.45687 15.1969 1.65844V12.0364H11.7969C11.5784 12.0362 11.3619 12.079 11.1599 12.1623C10.958 12.2457 10.7744 12.3681 10.6197 12.5224C10.465 12.6767 10.3422 12.86 10.2583 13.0618C10.1744 13.2636 10.1311 13.4799 10.1309 13.6984ZM4.65388 7.98644C4.54942 7.99488 4.4515 8.04067 4.37804 8.11541C4.30458 8.19015 4.2605 8.28885 4.25387 8.39344V9.60644C4.26211 9.70978 4.3069 9.80681 4.3802 9.88011C4.45351 9.95342 4.55053 9.99821 4.65388 10.0064H7.58988C7.69322 9.99821 7.79024 9.95342 7.86355 9.88011C7.93686 9.80681 7.98164 9.70978 7.98987 9.60644V8.39844C7.98319 8.29406 7.93904 8.19561 7.86555 8.1212C7.79205 8.04679 7.69416 8.00142 7.58988 7.99344L4.65388 7.98644ZM4.65388 4.48644C4.55053 4.49467 4.45351 4.53946 4.3802 4.61276C4.3069 4.68607 4.26211 4.7831 4.25387 4.88644V6.10444C4.26096 6.20867 4.30525 6.30689 4.37866 6.38122C4.45207 6.45555 4.54974 6.50105 4.65388 6.50944H11.3309C11.4351 6.50126 11.5329 6.45582 11.6063 6.38145C11.6798 6.30708 11.724 6.20874 11.7309 6.10444V4.88944C11.7228 4.78602 11.6781 4.68888 11.6048 4.61554C11.5314 4.54219 11.4343 4.49747 11.3309 4.48944L4.65388 4.48644Z" fill="#919191"/>
</svg>