<svg width="18" height="18" viewBox="0 0 18 18" fill="none" xmlns="http://www.w3.org/2000/svg">
<path d="M15.9759 13.7764L12.8759 16.8764C12.8049 16.9471 12.7207 17.003 12.628 17.041C12.5353 17.0789 12.436 17.0981 12.3359 17.0974H12.1429V13.5884C12.1429 13.4452 12.1998 13.3079 12.301 13.2066C12.4023 13.1053 12.5397 13.0484 12.6829 13.0484H16.1929V13.2414C16.193 13.3408 16.1736 13.4392 16.1357 13.531C16.0978 13.6228 16.0421 13.7062 15.9719 13.7764M11.1309 13.6984V17.0984H2.55688C2.45712 17.0986 2.35831 17.079 2.26611 17.041C2.17391 17.0029 2.09012 16.947 2.01954 16.8765C1.94895 16.806 1.89295 16.7223 1.85475 16.6301C1.81654 16.538 1.79687 16.4392 1.79688 16.3394V1.65844C1.79688 1.45687 1.87695 1.26356 2.01947 1.12104C2.162 0.978509 2.35531 0.898438 2.55688 0.898438H15.4369C15.6384 0.898437 15.8317 0.978509 15.9743 1.12104C16.1168 1.26356 16.1969 1.45687 16.1969 1.65844V12.0364H12.7969C12.5784 12.0362 12.3619 12.079 12.1599 12.1623C11.958 12.2457 11.7744 12.3681 11.6197 12.5224C11.465 12.6767 11.3422 12.86 11.2583 13.0618C11.1744 13.2636 11.1311 13.4799 11.1309 13.6984ZM5.65388 7.98644C5.54942 7.99488 5.4515 8.04067 5.37804 8.11541C5.30458 8.19015 5.2605 8.28885 5.25387 8.39344V9.60644C5.26211 9.70978 5.3069 9.80681 5.3802 9.88011C5.45351 9.95342 5.55053 9.99821 5.65388 10.0064H8.58988C8.69322 9.99821 8.79024 9.95342 8.86355 9.88011C8.93686 9.80681 8.98164 9.70978 8.98987 9.60644V8.39844C8.98319 8.29406 8.93904 8.19561 8.86555 8.1212C8.79205 8.04679 8.69416 8.00142 8.58988 7.99344L5.65388 7.98644ZM5.65388 4.48644C5.55053 4.49467 5.45351 4.53946 5.3802 4.61276C5.3069 4.68607 5.26211 4.7831 5.25387 4.88644V6.10444C5.26096 6.20867 5.30525 6.30689 5.37866 6.38122C5.45207 6.45555 5.54974 6.50105 5.65388 6.50944H12.3309C12.4351 6.50126 12.5329 6.45582 12.6063 6.38145C12.6798 6.30708 12.724 6.20874 12.7309 6.10444V4.88944C12.7228 4.78602 12.6781 4.68888 12.6048 4.61554C12.5314 4.54219 12.4343 4.49747 12.3309 4.48944L5.65388 4.48644Z" fill="#424242"/>
</svg>
