<svg width="10" height="8" viewBox="0 0 10 8" fill="none" xmlns="http://www.w3.org/2000/svg">
<path d="M3.37204 7.3731L0.594258 4.59532C0.547812 4.54889 0.510967 4.49377 0.48583 4.43309C0.460692 4.37242 0.447754 4.30739 0.447754 4.24171C0.447754 4.17604 0.460692 4.11101 0.48583 4.05033C0.510967 3.98966 0.547812 3.93453 0.594258 3.8881L1.30259 3.18199C1.34902 3.13554 1.40415 3.0987 1.46482 3.07356C1.5255 3.04843 1.59053 3.03549 1.6562 3.03549C1.72188 3.03549 1.78691 3.04843 1.84758 3.07356C1.90826 3.0987 1.96338 3.13554 2.00981 3.18199L3.72537 4.89755L7.98926 0.630879C8.03569 0.584433 8.09081 0.547588 8.15149 0.522451C8.21216 0.497313 8.27719 0.484375 8.34287 0.484375C8.40854 0.484375 8.47357 0.497313 8.53425 0.522451C8.59492 0.547588 8.65005 0.584433 8.69648 0.630879L9.4037 1.3381C9.45015 1.38453 9.48699 1.43966 9.51213 1.50033C9.53727 1.56101 9.55021 1.62604 9.55021 1.69171C9.55021 1.75739 9.53727 1.82242 9.51213 1.88309C9.48699 1.94377 9.45015 1.99889 9.4037 2.04532L4.07926 7.37088C4.03283 7.41733 3.9777 7.45417 3.91703 7.47931C3.85635 7.50445 3.79132 7.51739 3.72565 7.51739C3.65997 7.51739 3.59494 7.50445 3.53427 7.47931C3.47359 7.45417 3.41847 7.41733 3.37204 7.37088V7.3731Z" fill="#424242"/>
</svg>
