<svg width="14" height="14" viewBox="0 0 14 14" fill="none" xmlns="http://www.w3.org/2000/svg">
<path d="M1.8997 2.74984H2.74959V5.83135C2.76429 6.94881 3.2185 8.01551 4.0139 8.80052C4.80931 9.58554 5.88189 10.0257 6.99944 10.0257C8.11698 10.0257 9.18957 9.58554 9.98497 8.80052C10.7804 8.01551 11.2346 6.94881 11.2493 5.83135V2.74984H12.0992C12.212 2.74984 12.3202 2.70503 12.3999 2.62527C12.4797 2.54551 12.5245 2.43733 12.5245 2.32452V1.47537C12.5245 1.36269 12.4798 1.25462 12.4002 1.17488C12.3206 1.09514 12.2126 1.05024 12.0999 1.05005H8.27501C8.16221 1.05005 8.05403 1.09486 7.97427 1.17462C7.89451 1.25438 7.8497 1.36256 7.8497 1.47537V2.32526C7.8497 2.43806 7.89451 2.54624 7.97427 2.626C8.05403 2.70577 8.16221 2.75058 8.27501 2.75058H9.12491V5.83209C9.12491 6.3957 8.90101 6.93623 8.50248 7.33476C8.10395 7.73329 7.56342 7.95719 6.9998 7.95719C6.43619 7.95719 5.89566 7.73329 5.49713 7.33476C5.09859 6.93623 4.8747 6.3957 4.8747 5.83209V2.74984H5.72459C5.83739 2.74984 5.94558 2.70503 6.02534 2.62527C6.1051 2.54551 6.14991 2.43733 6.14991 2.32452V1.47537C6.14991 1.36256 6.1051 1.25438 6.02534 1.17462C5.94558 1.09486 5.83739 1.05005 5.72459 1.05005H1.8997C1.7869 1.05005 1.67872 1.09486 1.59896 1.17462C1.51919 1.25438 1.47438 1.36256 1.47438 1.47537V2.32526C1.47438 2.43806 1.51919 2.54624 1.59896 2.626C1.67872 2.70577 1.7869 2.74984 1.8997 2.74984ZM12.5245 11.2503H1.47512C1.36245 11.2503 1.25438 11.295 1.17464 11.3746C1.0949 11.4542 1.05 11.5622 1.0498 11.6748L1.0498 12.5247C1.0498 12.6375 1.09461 12.7457 1.17438 12.8255C1.25414 12.9052 1.36232 12.95 1.47512 12.95H12.5245C12.6373 12.95 12.7455 12.9052 12.8252 12.8255C12.905 12.7457 12.9498 12.6375 12.9498 12.5247V11.6748C12.9496 11.5622 12.9047 11.4542 12.825 11.3746C12.7452 11.295 12.6372 11.2503 12.5245 11.2503Z" fill="#919191"/>
</svg>
