<svg xmlns="http://www.w3.org/2000/svg" xmlns:xlink="http://www.w3.org/1999/xlink" width="18" height="18" viewBox="0 0 18 18"><defs><clipPath id="a"><rect width="18" height="18" transform="translate(0.08 120.193)" fill="#aaa" opacity="0"/></clipPath></defs><g transform="translate(-570.08 -1140.193)"><g transform="translate(570 1020)" opacity="0"><g clip-path="url(#a)"><rect width="18" height="18" transform="translate(0.08 120.193)" fill="#aaa"/></g></g><path d="M5.439,137.08A1.915,1.915,0,0,1,3.757,135.8a1.873,1.873,0,0,1,.574-2.052.257.257,0,0,0,.1-.249q-.5-4.992-.989-9.984l-.016-.165a1.021,1.021,0,0,0-.165.008c-.517.046-1.035.078-1.55.139a.742.742,0,0,1-.858-.421l-.026-.263a.744.744,0,0,1,.452-.552l1.241-.124c.233-.015.461-.025.694-.043a1.273,1.273,0,0,1,1.461,1.049v0a1.355,1.355,0,0,1,.018.18q.483,4.89.963,9.78l.021.185c.071.01.139.018.2.033a1.848,1.848,0,0,1,1.3.917.222.222,0,0,0,.257.127c2.36-.238,4.722-.462,7.082-.705a2.019,2.019,0,0,1,1.616.5,8.194,8.194,0,0,0,.776.571,1.19,1.19,0,0,1,.4.427l.025.264a.742.742,0,0,1-.451.55l-.264.028a1.455,1.455,0,0,1-.253-.1c-.363-.258-.726-.515-1.073-.791a.761.761,0,0,0-.586-.187l-7.193.707a.165.165,0,0,0-.165.132,1.856,1.856,0,0,1-1.012,1.154c-.133.059-.269.1-.4.148l-.413.04a.346.346,0,0,0-.078-.021M7.51,133.6a2.365,2.365,0,0,0-1.121-.791.179.179,0,0,1-.142-.173q-.2-2.119-.413-4.236a.483.483,0,0,1,.36-.58H6.2a.427.427,0,0,1,.133-.013l3.864-.383,3.82-.376c.408-.04.594.112.637.528q.237,2.415.475,4.825a.493.493,0,0,1-.338.61h0a.461.461,0,0,1-.165.015l-6.863.68a.209.209,0,0,1-.05,0,.233.233,0,0,1-.2-.1Zm5.693-3.3h-.057c-.611.056-1.222.118-1.833.18a.488.488,0,0,0-.462.51v.023a.479.479,0,0,0,.538.407H11.4c.306-.03.611-.062.917-.093s.6-.056.9-.089a.472.472,0,0,0,.461-.483h0a.478.478,0,0,0-.478-.465Zm-7.539-3.542a.482.482,0,0,1-.013-.126q-.186-2.069-.407-4.131a.6.6,0,0,1,.289-.664l5.6-.554a.6.6,0,0,1,.413.6q.2,2.067.408,4.131a.538.538,0,0,1-.408.64.559.559,0,0,1-.129.012q-2.562.232-5.117.509a.581.581,0,0,1-.117.012.538.538,0,0,1-.519-.42Zm4.475-1.877h-.02q-.659.045-1.31.131a.467.467,0,0,0-.4.521.477.477,0,0,0,.523.414c.213-.018.424-.044.634-.063l.591-.059h.028a.481.481,0,0,0,.431-.5.464.464,0,0,0-.463-.447Z" transform="translate(570 1020)" fill="#aaa"/></g></svg>