<svg xmlns="http://www.w3.org/2000/svg" xmlns:xlink="http://www.w3.org/1999/xlink" width="18" height="18" viewBox="0 0 18 18"><defs><clipPath id="a"><rect width="18" height="18" transform="translate(0.082 39.508)" fill="#dadada" opacity="0"/></clipPath><clipPath id="b"><rect width="16.6" height="13.216" fill="#aaa"/></clipPath></defs><g transform="translate(-570.082 -1059.508)"><g transform="translate(570 1020)" opacity="0"><g clip-path="url(#a)"><rect width="18" height="18" transform="translate(0.082 39.508)" fill="#dadada"/></g></g><g transform="translate(570.781 1061.898)"><g clip-path="url(#b)"><path d="M1.043,2.838,7.991.059a.832.832,0,0,1,.617,0l6.949,2.779A1.66,1.66,0,0,1,16.6,4.379v8.214a.621.621,0,0,1-.623.622H14.733a.621.621,0,0,1-.623-.622V5.722a.844.844,0,0,0-.83-.83H3.32a.844.844,0,0,0-.83.83v6.871a.622.622,0,0,1-.623.622H.623A.622.622,0,0,1,0,12.593V4.379A1.66,1.66,0,0,1,1.043,2.838M3.32,5.722h9.96V7.694H3.32Zm0,2.825h9.96v2.594H3.32Zm3.735,1.712h2.49a.415.415,0,0,0,0-.83H7.055a.415.415,0,0,0,0,.83" transform="translate(0 0)" fill="#aaa"/></g></g></g></svg>