<svg xmlns="http://www.w3.org/2000/svg" width="18" height="18" viewBox="0 0 18 18"><g transform="translate(-570 -1180.188)"><rect width="18" height="18" transform="translate(570 1180.188)" fill="#aaa" opacity="0"/><path d="M8.65,160.638a8.2,8.2,0,1,0,8.2,8.2,8.2,8.2,0,0,0-8.2-8.2m0,13.09a4.89,4.89,0,1,1,4.89-4.89,4.9,4.9,0,0,1-4.89,4.89m-2.038-4.89a2.024,2.024,0,0,1,.4-1.207L5.788,165.94A3.923,3.923,0,0,0,4.641,169.5l1.973-.641,0-.018m.383,1.181-1.972.641a4.055,4.055,0,0,0,3.016,2.192v-2.08a2.027,2.027,0,0,1-1.044-.753M8.65,166.8a2.037,2.037,0,0,1,.643.113l1.221-1.68a3.93,3.93,0,0,0-3.727,0l1.221,1.68a2.037,2.037,0,0,1,.643-.113m2.862-.86-1.229,1.691a2.024,2.024,0,0,1,.4,1.207l0,.018,1.973.642a3.925,3.925,0,0,0-1.147-3.558Zm-2.251,4.832v2.08a4.055,4.055,0,0,0,3.016-2.192l-1.972-.641a2.027,2.027,0,0,1-1.044.753m-.611-2.749a.815.815,0,1,0,.815.815.816.816,0,0,0-.815-.815" transform="translate(570.35 1020.35)" fill="#aaa" stroke="rgba(0,0,0,0)" stroke-width="1"/></g></svg>