<svg xmlns="http://www.w3.org/2000/svg" width="23.009" height="23" viewBox="0 0 23.009 23"><g transform="translate(-486.014 -1003.405)"><g transform="translate(486.519 1004.365)"><path d="M488.777,1005.636c.309-.019.615-.031.924-.059a1.7,1.7,0,0,1,1.951,1.4,1.776,1.776,0,0,1,.022.242q.643,6.52,1.286,13.039l.025.247c.1.016.186.027.274.044a2.458,2.458,0,0,1,1.73,1.23.294.294,0,0,0,.342.167c3.146-.315,6.294-.615,9.44-.939a2.689,2.689,0,0,1,2.154.662,11.663,11.663,0,0,0,1.033.763,1.523,1.523,0,0,1,.527.567l.035.351a1,1,0,0,1-.6.735l-.352.035a1.624,1.624,0,0,1-.339-.143c-.482-.344-.966-.686-1.429-1.054a1.03,1.03,0,0,0-.781-.25q-4.795.475-9.589.944a.215.215,0,0,0-.217.176,2.469,2.469,0,0,1-1.352,1.537c-.176.081-.356.132-.534.2l-.55.055a.6.6,0,0,0-.113-.025,2.547,2.547,0,0,1-2.239-1.7,2.5,2.5,0,0,1,.762-2.737.336.336,0,0,0,.138-.332q-.663-6.656-1.317-13.313l-.022-.223c-.088,0-.154.005-.219.012-.689.06-1.38.1-2.066.185a.986.986,0,0,1-1.142-.562l-.035-.351a.991.991,0,0,1,.6-.735Z" transform="translate(-486.519 -1004.503)" fill="#dadada" stroke="rgba(0,0,0,0)" stroke-width="1"/><path d="M500.8,1004.407a.811.811,0,0,1,.551.8q.254,2.754.544,5.506a.714.714,0,0,1-.544.851.762.762,0,0,1-.172.016q-3.414.311-6.824.673a.716.716,0,0,1-.854-.543.709.709,0,0,1-.017-.17q-.25-2.755-.542-5.508a.8.8,0,0,1,.385-.886Zm-2.1,6.135.786-.077.039,0a.634.634,0,0,0,.573-.661.615.615,0,0,0-.634-.595l-.027,0q-.879.06-1.747.175a.621.621,0,0,0-.533.694.632.632,0,0,0,.7.551C498.137,1010.6,498.419,1010.57,498.7,1010.542Z" transform="translate(-487.052 -1004.407)" fill="#dadada" stroke="rgba(0,0,0,0)" stroke-width="1"/><path d="M499.606,1013.287l5.094-.5c.548-.053.79.15.848.7q.318,3.216.634,6.432a.658.658,0,0,1-.456.809.65.65,0,0,1-.222.022l-9.146.9a.324.324,0,0,1-.333-.136,3.129,3.129,0,0,0-1.492-1.054.232.232,0,0,1-.186-.232q-.271-2.823-.552-5.647a.645.645,0,0,1,.485-.775.675.675,0,0,1,.176-.015Zm2.844,5.221c.4-.039.8-.076,1.2-.118a.632.632,0,1,0-.109-1.258q-1.218.111-2.436.24a.648.648,0,0,0-.617.677l0,.031a.64.64,0,0,0,.719.55l.019,0c.412-.04.816-.082,1.223-.123Z" transform="translate(-487.124 -1005.105)" fill="#dadada" stroke="rgba(0,0,0,0)" stroke-width="1"/></g><rect width="22" height="22" transform="translate(486.519 1003.905)" fill="#dadada" stroke="rgba(0,0,0,0)" stroke-width="1" opacity="0"/></g></svg>