<svg xmlns="http://www.w3.org/2000/svg" width="23" height="23" viewBox="0 0 23 23"><g transform="translate(-658.544 -894.852)"><path d="M659.048,896.437a.172.172,0,0,1,.173-.172h4.267a.323.323,0,0,1,.313.245l.81,3.231h16.121a.31.31,0,0,1,.311.309.3.3,0,0,1-.01.076l-2.241,8.972a.912.912,0,0,1-.883.689H667.125l.508,2.033h8.7a2.383,2.383,0,1,1-2.283,2.75,2.63,2.63,0,0,1,.15-1.283h-5.257a2.4,2.4,0,0,1-.2,2.2,2.3,2.3,0,0,1-1.389,1.024,2.39,2.39,0,0,1-2.865-1.5,2.42,2.42,0,0,1,1.5-3.076c.055-.019.111-.036.168-.051l-3.512-14.045a.15.15,0,0,0-.146-.114h-3.286a.173.173,0,0,1-.173-.173Zm5.947,4.748a.871.871,0,0,0,.007.12c.216.869.434,1.742.648,2.608.028.116.092.138.2.137h1.833a.914.914,0,0,0,.158-.027c-.1-.772-.194-1.518-.286-2.266-.07-.57-.066-.571-.642-.571ZM675,904.039l.354-2.835h-2.475v2.835Zm-6.068-2.841c.115.922.224,1.82.342,2.716a.2.2,0,0,0,.145.127c.642.008,1.282.006,1.918,0a.248.248,0,0,0,.078-.025V901.2Zm7.521,2.841h2.115l.661-2.643a.16.16,0,0,0-.117-.193.177.177,0,0,0-.038-.006h-2.263Zm-8.081,4.308-.358-2.854h-1.941a.227.227,0,0,0-.005.07c.22.891.439,1.782.666,2.672a.182.182,0,0,0,.128.107c.494.006.987,0,1.511,0Zm4.5,0c.506,0,.986,0,1.467-.007.048,0,.122-.085.134-.141.038-.183.052-.367.075-.555l.266-2.149H672.88Zm-3.408-2.851.357,2.842h1.578V905.5Zm8.736,0h-1.932l-.356,2.847c.512,0,1,0,1.484-.007.044,0,.109-.081.125-.136.067-.227.119-.458.176-.687Zm-10.53,8.7a.944.944,0,1,0,0,.007V914.2Zm9.662,0a.945.945,0,1,0,0,.006V914.2Z" transform="translate(0 -0.076)" fill="#dadada" stroke="rgba(0,0,0,0)" stroke-width="1"/><rect width="22" height="22" transform="translate(659.044 895.352)" fill="#dadada" stroke="rgba(0,0,0,0)" stroke-width="1" opacity="0"/></g></svg>