<svg width="20" height="20" viewBox="0 0 20 20" fill="none" xmlns="http://www.w3.org/2000/svg">
<path fill-rule="evenodd" clip-rule="evenodd" d="M4.93199 16.8535V16.8577L4.92936 16.8586C4.91164 16.8646 4.89286 16.87 4.87454 16.8752C4.76302 16.9071 4.64966 16.9396 4.64966 17.1359C4.55641 16.9778 4.46658 17.0151 4.36373 17.0578C4.34873 17.064 4.33345 17.0704 4.31785 17.0763C4.2545 17.0953 4.19569 17.1271 4.14502 17.1696C4.09436 17.2122 4.05289 17.2646 4.02315 17.3237C4.0063 17.3722 3.99461 17.4224 3.98828 17.4733C4.00948 17.4733 4.03565 17.4762 4.06156 17.4791C4.11262 17.4849 4.16267 17.4905 4.17163 17.4733C4.24401 17.3375 4.36709 17.3381 4.48043 17.3387C4.56611 17.3391 4.64623 17.3395 4.69466 17.2809L4.7419 16.9626L4.76617 16.9901C4.78347 17.0099 4.79914 17.0277 4.81389 17.0425C4.82831 17.0569 4.84374 17.0703 4.8747 17.0972L4.93199 17.1471L4.93275 16.862L5.06661 17.0116C5.20414 17.0116 5.25253 16.9094 5.3047 16.7992C5.3481 16.7075 5.39412 16.6102 5.49628 16.5617L5.44454 16.7518L5.49628 16.7968L6.22403 16.4189L6.24203 16.4965C6.29013 16.4677 6.33693 16.4387 6.38362 16.4097C6.48105 16.3493 6.57799 16.2892 6.6852 16.2321C6.8438 16.1478 6.8573 16.1107 6.73807 15.9656L7.15425 15.7406C7.15658 15.737 7.15945 15.731 7.16296 15.7236C7.17471 15.699 7.19368 15.6592 7.22399 15.6427C7.26514 15.6207 7.31123 15.6039 7.35717 15.5872C7.51088 15.5311 7.66287 15.4756 7.62217 15.2288C7.61992 15.2164 7.64467 15.1962 7.66154 15.1849C7.73783 15.1305 7.81442 15.0764 7.89104 15.0223C8.07409 14.893 8.25777 14.7632 8.43765 14.6293C8.49387 14.5741 8.54402 14.513 8.58725 14.4471C8.61881 14.408 8.65283 14.3698 8.68712 14.3313C8.72977 14.2834 8.77295 14.235 8.81221 14.1839L8.82686 14.1652C8.876 14.1029 8.93257 14.0311 8.93257 13.9668C8.93145 13.9184 8.82009 13.8644 8.74922 13.8318C8.69533 13.8217 8.64002 13.8217 8.58613 13.8318C8.57895 13.8051 8.57704 13.7772 8.5805 13.7497C8.60821 13.651 8.66005 13.5608 8.73133 13.4872C8.80261 13.4135 8.8911 13.3588 8.98881 13.3279C9.01832 13.3187 9.04481 13.2799 9.06518 13.2502C9.06965 13.2436 9.07382 13.2375 9.07767 13.2323C9.0858 13.2212 9.09214 13.2069 9.09842 13.1928C9.10865 13.1699 9.11874 13.1473 9.13616 13.1389C9.27789 13.0703 9.29363 12.9893 9.19915 12.869C9.21708 12.8534 9.23925 12.8394 9.26165 12.8253C9.30248 12.7995 9.34409 12.7733 9.36225 12.7362C9.48286 12.493 9.65117 12.2765 9.85716 12.0996C9.92072 12.0377 9.99782 11.9914 10.0824 11.9645C10.1669 11.9375 10.2565 11.9307 10.3442 11.9444L10.5242 12.2188L10.1462 12.1772L9.85266 12.3853C9.83926 12.4404 9.82691 12.4923 9.81513 12.5419C9.78144 12.6838 9.7524 12.806 9.71656 12.9252C9.70354 12.9665 9.68198 13.0053 9.66033 13.0442C9.63896 13.0826 9.61749 13.1212 9.60408 13.1625C9.59058 13.2042 9.60071 13.284 9.6277 13.3009C9.67989 13.3231 9.73777 13.3282 9.79305 13.3155C9.83381 13.3031 9.87194 13.2833 9.90553 13.257L9.9359 13.302L9.51297 13.6395C9.57108 13.6968 9.648 13.7311 9.72949 13.7361C9.81098 13.7411 9.89151 13.7163 9.95615 13.6665C10.1451 13.5293 10.3182 13.3716 10.4724 13.1963C10.5375 13.1488 10.6091 13.1109 10.685 13.0838C10.7373 13.0575 10.8011 13.0703 10.8634 13.0828C10.9686 13.104 11.0695 13.1243 11.1034 12.9533L11.2069 13.0084L11.2306 12.9826L11.1181 12.8228L11.2778 12.5731L11.0596 12.6058L11.2013 12.4427L11.0236 12.3651L11.2013 12.1322L11.235 12.1468L11.1957 12.3437L11.2306 12.3729L11.4555 12.1705L11.5061 12.2481L11.766 12.1536L11.9201 12.3651L11.8537 12.4112L12.2193 12.491L12.1495 12.6035L12.4442 12.7621L12.5567 12.5484C12.5654 12.5901 12.5705 12.6303 12.575 12.6657C12.5832 12.7304 12.5893 12.7785 12.6118 12.788C12.6714 12.8146 12.7258 12.8546 12.7803 12.8946C12.9027 12.9845 13.0251 13.0744 13.2057 13.0129C13.4314 12.9503 13.6716 12.9657 13.8873 13.0568C13.9234 13.0696 13.971 13.0522 14.0258 13.0323C14.0531 13.0223 14.0821 13.0118 14.1123 13.0039C14.1089 13.0377 14.1022 13.1029 14.0954 13.1659C14.335 13.3234 14.5825 13.4021 14.8221 13.1153L14.8704 13.1614L14.7984 13.5135C15.1255 13.5923 15.3462 13.8263 15.5643 14.0575C15.7226 14.2255 15.8797 14.392 16.0751 14.4966L16.3833 14.4234C16.3736 14.4016 16.3646 14.3803 16.3558 14.3596C16.3361 14.313 16.3174 14.2687 16.2933 14.2244C16.2681 14.178 16.2382 14.1345 16.2082 14.0911C16.1967 14.0744 16.1853 14.0578 16.1741 14.041L15.9626 13.8667L15.7467 13.9522C15.7614 13.7555 15.6451 13.6405 15.5291 13.5258C15.4773 13.4746 15.4255 13.4234 15.3856 13.365C15.3502 13.3133 15.3019 13.2684 15.2531 13.2228C15.1234 13.102 14.9896 12.9774 15.0819 12.7126L14.632 12.8577C14.632 12.8566 14.5656 12.8004 14.5195 12.8116C14.2445 12.8809 14.2452 12.7188 14.2461 12.5409L14.2462 12.5113V3.22712C14.0458 3.12548 13.855 3.00616 13.6759 2.87055C13.567 2.74214 13.4164 2.65612 13.2504 2.62753C13.0845 2.59895 12.9138 2.62963 12.7682 2.71421C12.7042 2.75253 12.6299 2.76979 12.5556 2.76353C12.4813 2.75728 12.4109 2.72782 12.3542 2.67934C12.1737 2.54607 11.9498 2.48509 11.7266 2.50837C11.5948 2.49932 11.4647 2.47324 11.3397 2.43075C11.2557 2.4032 11.1737 2.36975 11.0944 2.33065C11.0678 2.31811 11.0422 2.30344 11.018 2.28678L10.9877 2.26755C10.7865 2.13938 10.5857 2.01149 10.333 2.1743C10.3127 2.18442 10.2655 2.19567 10.2565 2.18442C10.1677 2.0703 10.0829 2.10861 9.99759 2.14711C9.96183 2.16326 9.926 2.17944 9.88978 2.18442C9.78116 2.19145 9.6722 2.19145 9.56358 2.18442L9.6007 2.0337C9.44329 1.99168 9.36427 1.97059 9.34156 1.92277C9.31867 1.87456 9.35298 1.7992 9.42186 1.64789C9.3241 1.64664 9.22692 1.63265 9.13278 1.60627C9.05395 1.57485 8.96844 1.56394 8.88424 1.57456C8.80005 1.58519 8.71993 1.61699 8.65137 1.66701C8.5827 1.68967 8.50857 1.68967 8.4399 1.66701C8.41066 1.66139 8.36679 1.5894 8.37579 1.56465C8.4613 1.34375 8.33307 1.32646 8.22456 1.31182C8.21317 1.31029 8.202 1.30878 8.19132 1.30707L7.87863 1.71425L7.82688 1.68163L7.79202 1.50166C7.80192 1.49763 7.81218 1.49455 7.82197 1.49161C7.84223 1.48554 7.86053 1.48005 7.86962 1.46792C7.90113 1.4238 7.92934 1.37748 7.9577 1.33089C7.96984 1.31095 7.98201 1.29096 7.99448 1.27108L7.52094 1C7.39359 1.20826 7.23758 1.39758 7.05751 1.5624C6.84445 1.66924 6.61718 1.745 6.38263 1.78737L6.36463 1.74575L6.431 1.65351C6.2562 1.73952 6.12598 1.88316 5.99714 2.02528C5.81424 2.22704 5.63411 2.42573 5.33319 2.45213L5.27807 2.33065C5.26064 2.35626 5.2441 2.37963 5.22851 2.40167C5.19485 2.44923 5.16542 2.49082 5.14084 2.53536C4.93899 2.79593 4.8035 3.10165 4.74604 3.42621C4.71878 3.58927 4.64031 3.73941 4.522 3.85489C4.4037 3.97037 4.25169 4.04517 4.08802 4.06847C3.94003 4.08745 3.79153 4.10232 3.65288 4.11621C3.58604 4.12291 3.52148 4.12938 3.46038 4.13596L3.32653 4.75911L3.39964 4.64663C3.44293 4.77274 3.50596 4.89119 3.58636 4.99756C3.77771 5.16798 3.97903 5.32686 4.18926 5.47336C4.27475 5.54107 4.34478 5.62629 4.39463 5.72329C4.44449 5.82029 4.47303 5.92683 4.47833 6.03576C4.48175 6.06053 4.4907 6.08422 4.50453 6.10505C4.51836 6.12589 4.5367 6.14334 4.5582 6.15612C4.65322 6.19136 4.75287 6.21258 4.85402 6.21911C4.97354 6.22351 5.09355 6.22217 5.22494 6.2207C5.29498 6.21992 5.36863 6.21911 5.44679 6.21911C5.22481 6.51323 5.25253 6.63103 5.53645 6.78972L5.25895 6.85462C5.3073 6.89169 5.36995 6.90567 5.43106 6.9193C5.54054 6.94372 5.64509 6.96704 5.65376 7.12008L5.43892 7.05146L5.30844 7.2978C5.23219 7.29242 5.15774 7.28654 5.08453 7.28077C4.91264 7.2672 4.74744 7.25416 4.58182 7.24943C4.43784 7.24493 4.3906 7.18981 4.41984 7.05034C4.43391 6.98146 4.44408 6.91161 4.4542 6.84207C4.45944 6.80607 4.46471 6.76993 4.47046 6.73427C4.2455 6.66453 3.55262 6.92998 3.57061 7.08071L3.71459 7.19319C3.69024 7.19855 3.66816 7.20589 3.64869 7.21236C3.61509 7.22352 3.58924 7.2321 3.57286 7.22356C3.3299 7.09196 3.21742 7.22806 3.10494 7.41365C3.09144 7.43615 3.06445 7.46877 3.0487 7.46877C2.92424 7.44989 2.86505 7.52382 2.80624 7.59727C2.7529 7.66387 2.69988 7.73009 2.59878 7.72635L2.59766 7.79609L3.39177 8.07954L3.19605 8.25726C3.21491 8.3193 3.23093 8.37916 3.24651 8.43741C3.26624 8.51115 3.28528 8.58231 3.30853 8.65206C3.32428 8.69931 3.36477 8.76342 3.40527 8.77242C3.4673 8.78669 3.52763 8.8084 3.58766 8.83C3.74531 8.88674 3.90093 8.94274 4.08015 8.86128C4.18463 8.79965 4.30566 8.77197 4.42654 8.78204C4.54742 8.79211 4.6622 8.83945 4.75504 8.91752L4.6538 8.76229L4.70667 8.7218L4.88664 8.96026C4.9963 8.85688 5.11158 8.75962 5.23195 8.66894C5.3588 8.59424 5.49029 8.52774 5.62563 8.46984C5.6343 8.49118 5.64919 8.51537 5.66488 8.54088C5.70216 8.60146 5.74399 8.66944 5.71787 8.72405C5.692 8.77814 5.62298 8.81693 5.55001 8.85794C5.51827 8.87577 5.48579 8.89403 5.45579 8.91414C5.59902 8.98755 5.63823 9.1265 5.67946 9.2726C5.69003 9.31007 5.70074 9.34801 5.71337 9.38544C5.74865 9.46441 5.75322 9.5537 5.72618 9.63587C5.69914 9.71803 5.64244 9.78715 5.56715 9.82974C5.42825 9.87888 5.28133 9.90139 5.13409 9.8961C5.0891 9.87923 5.05761 9.92197 5.02836 9.96809C4.81915 10.2977 4.78315 10.3044 4.44571 10.1312C4.37328 10.1035 4.29318 10.1035 4.22075 10.1312C4.19542 10.1404 4.18319 10.1863 4.16975 10.2366C4.1635 10.2601 4.15698 10.2845 4.14876 10.3067C3.96586 10.3538 3.98713 10.4826 4.00799 10.6089C4.01651 10.6604 4.02496 10.7116 4.01941 10.7566C3.89558 10.8099 3.79225 10.9017 3.72477 11.0185C3.65729 11.1352 3.62926 11.2705 3.64485 11.4045L3.53237 11.4382L3.43901 11.68L3.53237 11.6969L3.68197 12.0591L3.97779 12.0962L3.83607 12.2256L4.02279 12.2469L3.77758 12.6001C3.81804 12.5978 3.8586 12.5978 3.89906 12.6001C3.91262 12.7267 4.00107 12.7869 4.08927 12.847C4.15471 12.8915 4.22001 12.9359 4.2545 13.0073C4.26299 13.0266 4.27034 13.0482 4.27763 13.0697C4.29544 13.1221 4.31287 13.1734 4.3456 13.1862C4.44686 13.2184 4.55489 13.223 4.65852 13.1995C4.76215 13.1759 4.85761 13.1251 4.935 13.0523C4.96471 13.0332 4.96773 12.9799 4.97092 12.9236C4.9728 12.8904 4.97473 12.8562 4.98225 12.8273C5.00026 12.777 5.02285 12.7285 5.04973 12.6822C5.05719 12.7104 5.05499 12.7373 5.05299 12.7619C5.05106 12.7855 5.04932 12.8069 5.05648 12.8251C5.09217 12.9164 5.13283 13.006 5.17359 13.0957C5.19703 13.1473 5.22063 13.1993 5.2432 13.2514L5.25465 13.2782C5.29961 13.3824 5.34135 13.4791 5.2522 13.6046C5.17796 13.7092 5.18921 13.8363 5.37818 13.8037L5.24883 14.2142C5.32017 14.218 5.3915 14.2065 5.45804 14.1805C5.57336 14.1085 5.68095 14.0252 5.78471 13.9449C5.8236 13.9148 5.86206 13.8851 5.90009 13.8565L6.13067 14.0748L6.21953 13.9623L6.5851 14.4516C6.60118 14.3754 6.59277 14.3015 6.58506 14.2338C6.57069 14.1075 6.55878 14.0029 6.71332 13.9465C6.74594 14.1625 6.81906 14.2514 6.95741 14.185C7.04812 14.1415 7.13642 14.0941 7.22483 14.0466C7.27105 14.0218 7.31794 13.9967 7.36459 13.9724C7.16341 14.3039 7.06442 14.6873 7.08001 15.0747C7.04747 15.0996 7.01692 15.1225 6.98828 15.144C6.74411 15.3274 6.63915 15.4063 6.63009 15.681C6.47848 15.7048 6.3339 15.7614 6.20645 15.8469C6.079 15.9324 5.97176 16.0447 5.89221 16.1759C5.87899 16.2628 5.87899 16.3511 5.89221 16.438C5.88141 16.438 5.86467 16.4405 5.84531 16.4433C5.79216 16.4512 5.71929 16.462 5.69537 16.4324C5.5424 16.2389 5.38268 16.3311 5.2702 16.4324C5.14572 16.5623 5.03368 16.7047 4.9365 16.8562L4.93199 16.8535ZM4.9365 16.8562L4.93275 16.862L4.93199 16.8613V16.8577L4.9365 16.8562ZM5.98783 6.88387L5.98443 6.88675C6.04016 6.71599 5.94203 6.70301 5.84341 6.68995C5.78749 6.68255 5.73141 6.67513 5.70314 6.6389L5.71337 6.62854C5.74093 6.66543 5.79684 6.6728 5.85256 6.68015C5.95143 6.6932 6.0497 6.70617 5.98783 6.88387ZM4.28037 12.464L4.31973 12.3999L4.17014 12.3189C4.17576 12.3032 4.17576 12.2886 4.17576 12.2739L4.59081 12.392L4.59021 12.3933L4.20093 12.2822C4.19531 12.2968 4.19531 12.3126 4.19531 12.3272L4.34828 12.4127L4.3434 12.4207L4.28037 12.464ZM4.41982 12.4025L4.49295 12.6001L4.50719 12.5699L4.43939 12.3891L4.41982 12.4025Z" fill="black"/>
<path d="M15.9648 13.8215L16.1797 13.9981L16.3968 14.0307L16.4676 14.3153L16.8174 14.5223L16.6589 13.7113C16.7678 13.9069 16.8552 14.1033 16.9421 14.2986C16.9601 14.3391 16.9781 14.3795 16.9963 14.4199C17.0168 14.4553 17.0453 14.4853 17.0795 14.5077C17.141 14.5465 17.2003 14.5885 17.2572 14.6337C17.3827 14.7414 17.463 14.8924 17.4822 15.0566C17.4883 15.1245 17.5016 15.1918 17.5166 15.2674C17.5237 15.3033 17.5312 15.3411 17.5384 15.3817C17.6999 15.3716 17.7658 15.4967 17.8358 15.6296C17.8594 15.6744 17.8835 15.7201 17.9119 15.7618L17.8963 15.7467C17.7199 15.5755 17.5518 15.4124 17.2798 15.4626L17.3742 15.6572L17.1335 15.6156L17.2044 15.9103C17.1954 16.032 17.1876 16.1315 17.1798 16.2309L17.1796 16.2331L17.237 16.2421L17.3731 15.8226C17.4687 15.9396 17.5441 15.9902 17.6723 15.8653C17.7103 15.8296 17.7853 15.8323 17.8763 15.8356C17.9228 15.8373 17.9734 15.8391 18.0255 15.8361L17.8455 16.1893L18.0368 16.3546L18.129 16.1836C18.1812 16.2567 18.1472 16.3274 18.1136 16.3974C18.0711 16.4858 18.0292 16.573 18.1616 16.6628C18.1725 16.6365 18.1829 16.6106 18.1927 16.5862C18.2092 16.545 18.2242 16.5077 18.2369 16.4795C18.2493 16.452 18.2637 16.425 18.2782 16.3979C18.2875 16.3805 18.2968 16.3632 18.3056 16.3456L18.3404 16.3681L18.1976 16.9305C18.4372 16.7618 18.5474 16.8484 18.6318 17.2038C18.6866 17.1976 18.7397 17.1804 18.7878 17.1533C18.8359 17.1262 18.8781 17.0896 18.9118 17.0459C18.9455 17.0021 18.97 16.952 18.9839 16.8986C18.9978 16.8451 19.0009 16.7894 18.9928 16.7348C18.9853 16.6156 18.9872 16.496 18.9984 16.3771C18.9984 16.3684 18.9987 16.3589 18.999 16.3491C19.0003 16.3069 19.0017 16.2588 18.9816 16.2432C18.8618 16.1466 18.7317 16.0636 18.5935 15.9958C18.3347 15.879 18.1303 15.6678 18.0221 15.4053C17.8295 14.9823 17.6155 14.5693 17.381 14.168C17.2314 13.9703 17.063 13.7876 16.8782 13.6224C16.8502 13.5845 16.8286 13.5424 16.8141 13.4976C16.7899 13.4413 16.766 13.3851 16.7421 13.3288C16.7182 13.2726 16.6943 13.2164 16.6701 13.1602C16.6169 13.1858 16.5617 13.206 16.5106 13.2247C16.4093 13.2618 16.324 13.293 16.3023 13.3491C16.2346 13.5342 16.118 13.6975 15.9648 13.8215Z" fill="black"/>
<path d="M16.6203 15.2894L16.5315 15.5087C16.5224 15.242 16.4103 14.9893 16.2187 14.8035C16.205 14.7687 16.2003 14.731 16.2048 14.6939C16.2093 14.6568 16.223 14.6214 16.2446 14.5909C16.2699 14.58 16.2961 14.5631 16.3228 14.5459C16.4148 14.4864 16.5139 14.4224 16.6124 14.5819C16.6201 14.5937 16.6433 14.5952 16.6676 14.5968C16.6826 14.5977 16.6979 14.5987 16.7103 14.6021L16.7136 14.6031C16.8088 14.6307 16.8865 14.6533 16.8509 14.799C16.8483 14.9139 16.867 15.0283 16.906 15.1364L16.7047 15.0892C16.8355 15.2208 16.9253 15.3876 16.9632 15.5693C17.0011 15.751 16.9856 15.9398 16.9184 16.1128C16.8217 15.8439 16.7249 15.5762 16.6203 15.2894Z" fill="black"/>
<path d="M9.09223 14.7576L8.92969 14.6541C9.01794 14.5965 9.10077 14.531 9.17715 14.4584C9.22957 14.3761 9.29189 14.3005 9.36273 14.2334L9.32113 14.3808L9.53258 14.4932L9.1726 14.7956L9.33916 14.813L9.41341 15.1223L9.20644 15.1729L9.25031 15.2314L8.96911 15.5205L8.91062 15.417L8.67442 15.7387L8.62717 15.7083L8.70928 15.543L8.4562 15.5587V15.507L8.53268 15.4598C8.51431 15.438 8.4915 15.4163 8.46844 15.3944C8.41529 15.3439 8.3608 15.2921 8.35609 15.2348C8.34147 15.0604 8.5878 14.9682 8.74077 15.0987C8.73345 15.032 8.72731 14.9747 8.72149 14.9205L8.7149 14.8591L8.90162 14.8693L8.88137 14.8389L9.09223 14.7576Z" fill="black"/>
<path d="M18.0981 17.2938L17.8507 16.9958L17.8214 17.0306L17.6437 16.8057C17.619 16.6516 17.5908 16.4761 17.5605 16.2815L17.3906 16.34L17.4874 16.0408C17.4969 16.0408 17.5071 16.0402 17.5178 16.0395C17.5852 16.0354 17.6685 16.0303 17.6831 16.1769C17.6831 16.2033 17.7168 16.2281 17.747 16.2503C17.7542 16.2556 17.7612 16.2608 17.7674 16.2658C17.8889 16.3614 17.9845 16.4637 17.9316 16.6392C17.9238 16.6651 17.9643 16.7213 17.9958 16.7416C18.1683 16.8491 18.143 16.9987 18.1167 17.1544C18.1089 17.2006 18.101 17.2475 18.0981 17.2938Z" fill="black"/>
<path d="M1.13017 9.73225C1.09538 9.70746 1.06625 9.67557 1.04472 9.63867C1.03954 9.65075 1.03288 9.66272 1.0263 9.67456C1.01143 9.70129 0.99695 9.72732 1.00085 9.75228C0.995966 9.83667 1.0122 9.92095 1.04809 9.99749C1.06091 10.0167 1.13246 9.99943 1.19373 9.98464C1.2185 9.97865 1.24159 9.97308 1.25843 9.97049C1.27675 9.96767 1.29694 9.96209 1.31712 9.95652C1.36134 9.94431 1.40546 9.93213 1.4294 9.94912C1.60937 10.074 1.77922 10.2112 1.91644 10.3237C1.94589 10.3109 1.97619 10.2979 2.00705 10.2848C2.07638 10.2552 2.14853 10.2244 2.22014 10.1909C2.25696 10.1706 2.29229 10.1477 2.32587 10.1223C2.31504 10.1135 2.3041 10.1024 2.29303 10.0911C2.26733 10.0649 2.24091 10.038 2.21339 10.038C2.11313 10.0399 2.01413 10.0155 1.92629 9.96709C1.83844 9.91873 1.76484 9.84815 1.71285 9.7624C1.68148 9.73783 1.64437 9.72162 1.60502 9.71532C1.56567 9.70903 1.52536 9.71285 1.48789 9.72641C1.45393 9.75232 1.41484 9.77069 1.37323 9.78035C1.33162 9.79001 1.28843 9.79073 1.24653 9.78243C1.20462 9.77413 1.16496 9.75703 1.13017 9.73225Z" fill="black"/>
<path d="M3.64069 12.8227L3.68793 13.1298C3.29762 13.2558 3.05579 13.1827 2.91406 12.8778C3.01571 12.8944 3.1081 12.8509 3.19979 12.8077C3.33843 12.7424 3.4755 12.6779 3.64069 12.8227Z" fill="black"/>
<path d="M17.0039 15.1701L17.0038 15.1691C16.9644 14.9323 16.925 14.6951 16.8828 14.4688L17.1539 14.642C17.1514 14.7295 17.1675 14.8165 17.2011 14.8973C17.3878 15.1673 17.3237 15.2977 17.056 15.4811C17.0386 15.3784 17.0212 15.274 17.0039 15.1701Z" fill="black"/>
<path d="M3.39458 17.8871L3.30009 17.9995L3.44182 17.9692L3.46319 18.0096L2.78156 18.3752L2.74219 18.2976C2.76233 18.29 2.78473 18.284 2.80717 18.2781C2.85735 18.2648 2.90776 18.2515 2.93341 18.2189C2.98532 18.1384 3.02547 18.0509 3.05264 17.959C3.05795 17.9457 3.0603 17.929 3.06257 17.9127C3.06607 17.8878 3.06937 17.8642 3.08301 17.8567C3.13003 17.8307 3.18347 17.8186 3.2371 17.8218C3.29239 17.836 3.34541 17.858 3.39458 17.8871Z" fill="black"/>
<path d="M2.34286 18.4385C2.31337 18.4771 2.28386 18.5157 2.25391 18.5539L2.31015 18.5955L2.77694 18.1703C2.73744 18.1662 2.70214 18.1599 2.67234 18.1545C2.62067 18.1451 2.58548 18.1388 2.57335 18.1523C2.49194 18.2434 2.41745 18.3409 2.34286 18.4385Z" fill="black"/>
<path d="M5.13369 6.64392L4.94922 6.40209C4.9787 6.38042 5.00993 6.36124 5.04258 6.34473C5.09402 6.40719 5.14096 6.47265 5.1883 6.53866L5.2203 6.58317L5.13369 6.64392Z" fill="black"/>
<path d="M11.2852 13.2291L11.6305 12.7725C11.6766 12.8838 11.4809 13.1684 11.2852 13.2291Z" fill="black"/>
</svg>
