<svg width="20" height="20" viewBox="0 0 20 20" fill="none" xmlns="http://www.w3.org/2000/svg">
<path d="M5.47039 18.6017C5.38414 18.0895 5.29789 17.5769 5.21164 17.0639C5.00839 15.8398 4.80551 14.6162 4.60301 13.3929C4.59278 13.3365 4.58676 13.2793 4.58501 13.2219C4.51151 9.63388 4.43876 6.04734 4.36675 2.4623C4.3686 2.4252 4.35999 2.38834 4.34188 2.35592C4.32378 2.32349 4.29692 2.29681 4.26438 2.27892C4.16395 2.18697 4.07516 2.08307 4 1.96954C4.05124 1.95014 4.10389 1.93472 4.1575 1.92341C5.29602 1.78729 6.43566 1.65904 7.57304 1.51391C8.76781 1.36091 9.96257 1.19665 11.1517 1.02903C11.5646 0.971652 11.5635 0.961527 11.6951 1.36653C12.4451 3.65781 13.197 5.94834 13.9507 8.23812C14.037 8.43293 14.1377 8.62097 14.2523 8.80062C14.3029 8.8985 14.3333 9.00875 14.385 9.10663C14.436 9.21181 14.5007 9.30979 14.5774 9.39801C14.6719 9.49701 14.7788 9.57463 14.79 9.72989C14.79 9.76814 14.8508 9.80189 14.8958 9.85251C14.8811 9.95264 14.8643 10.0775 14.844 10.2091L15.1061 10.3216C15.2186 10.3734 15.2063 10.451 15.1421 10.5331C15.1005 10.586 15.0623 10.6591 15.006 10.6805C14.7518 10.7806 14.781 10.9843 14.8215 11.1789C14.8684 11.3901 14.8397 11.611 14.7405 11.8033C14.6505 11.9709 14.7405 12.107 14.7563 12.2432C14.7888 12.438 14.8821 12.6176 15.0229 12.7562C15.0849 12.8202 15.1288 12.8996 15.1499 12.9862C15.1711 13.0728 15.1688 13.1635 15.1433 13.2489C15.1208 13.4245 15.1208 13.6021 15.1433 13.7777C15.1401 13.8533 15.131 13.9285 15.1163 14.0027C15.1163 14.0263 15.0904 14.0544 15.0983 14.0713C15.152 14.25 15.2412 14.416 15.3604 14.5596C15.4632 14.6796 15.5564 14.8075 15.6394 14.9421C12.9675 15.4292 10.3237 15.7993 7.70805 16.1211C7.67655 16.2662 7.66192 16.381 7.62704 16.4901C7.60897 16.5332 7.60698 16.5813 7.62144 16.6257C7.63589 16.6701 7.66583 16.7078 7.7058 16.732C7.89591 16.9296 8.12046 17.0908 8.36843 17.2079C8.41343 17.2236 8.44155 17.3372 8.44605 17.4081C8.44157 17.4809 8.42364 17.5522 8.39318 17.6185C8.32568 17.8131 8.37405 17.9166 8.57318 17.992C8.58547 17.9966 8.59718 18.0026 8.60806 18.01C8.49556 18.1911 8.38305 18.3475 8.28743 18.5151C8.30369 18.5316 8.32139 18.5467 8.3403 18.5601C7.88779 18.8066 7.38899 18.9564 6.87554 19C6.92054 18.9381 6.93966 18.8774 7.04204 18.9359C7.14441 18.9944 7.42904 18.8706 7.52579 18.7244C7.38292 18.6209 7.24341 18.5072 7.09041 18.415C7.02295 18.3692 6.96886 18.3064 6.93368 18.2328C6.89849 18.1593 6.88348 18.0777 6.89016 17.9965C6.91176 17.9416 6.92169 17.8829 6.91932 17.824C6.91695 17.7651 6.90233 17.7074 6.87639 17.6544C6.85046 17.6015 6.81378 17.5546 6.76869 17.5166C6.72361 17.4787 6.6711 17.4505 6.61453 17.434C6.59232 17.424 6.57089 17.4123 6.55041 17.3991C6.50878 17.4441 6.46603 17.4869 6.42778 17.5319C6.40978 17.5521 6.3839 17.5825 6.3884 17.6027C6.39698 17.7637 6.37483 17.9248 6.32315 18.0775C6.31586 18.1909 6.32649 18.3048 6.35465 18.415C6.39515 18.6321 6.35465 18.7019 6.1454 18.7525C6.11526 18.6989 6.06984 18.6555 6.01494 18.6279C5.96003 18.6002 5.89814 18.5896 5.83715 18.5972C5.71508 18.6057 5.59263 18.6072 5.47039 18.6017Z" fill="black"/>
</svg>
