<svg width="20" height="20" viewBox="0 0 20 20" fill="none" xmlns="http://www.w3.org/2000/svg">
<path d="M4.32872 4.4165C4.33654 4.39527 4.34457 4.37344 4.35237 4.35078C4.34218 4.32681 4.33316 4.3014 4.32408 4.27581C4.28503 4.16579 4.24478 4.05239 4.10615 4.03598C3.92263 4.01376 3.7379 4.00961 3.55285 4.00545C3.4851 4.00393 3.4173 4.00241 3.34951 4C3.33208 4.00138 3.31573 4.00896 3.30341 4.02136C3.23364 4.08453 3.15067 4.12844 3.06727 4.17259C2.92355 4.24866 2.77853 4.32542 2.69743 4.50255C2.60074 4.71279 2.62772 4.88593 2.85258 4.96463C2.93079 4.98058 3.00336 5.01705 3.06282 5.07031C3.16808 5.18987 3.31556 5.26401 3.4743 5.27718C3.58167 5.31575 3.69814 5.32115 3.80861 5.29268C3.91908 5.26421 4.01844 5.20319 4.09378 5.11753C4.14392 5.055 4.18205 4.98372 4.20621 4.90729C4.22579 4.84223 4.23899 4.77326 4.25197 4.70538C4.2621 4.65245 4.27211 4.60015 4.28491 4.5509C4.29569 4.50625 4.31174 4.46265 4.32872 4.4165Z" fill="black"/>
<path d="M6.33984 5.77506C6.36571 5.77506 6.38969 5.7729 6.4127 5.77083C6.4367 5.76868 6.45968 5.76661 6.48263 5.76719C6.72547 5.77281 6.95033 5.74583 7.06501 5.48387C7.08855 5.4448 7.12042 5.41141 7.15833 5.38606C7.36183 5.21629 7.52821 5.27363 7.59792 5.54233C7.62001 5.62232 7.65829 5.69694 7.71035 5.76156C7.72687 5.78173 7.74543 5.80042 7.76385 5.81896C7.83065 5.88622 7.89544 5.95145 7.85313 6.07749C7.84639 6.09885 7.96556 6.17642 8.03414 6.20566C8.07308 6.22249 8.12876 6.20781 8.16061 6.19941L8.1668 6.19779C8.1672 6.31336 8.19731 6.42689 8.2542 6.52749C8.3111 6.62809 8.39288 6.71239 8.49172 6.77229C8.47487 6.78761 8.45888 6.80383 8.44318 6.81975C8.36667 6.89736 8.29725 6.96777 8.17131 6.89034C8.16369 6.88631 8.1552 6.8842 8.14657 6.8842C8.13795 6.8842 8.12945 6.88631 8.12183 6.89034C7.99437 6.99488 7.89308 6.93711 7.78747 6.87688C7.7636 6.86326 7.73951 6.84952 7.71485 6.8375C7.616 6.79058 7.50873 6.76402 7.39941 6.75938C7.2901 6.75475 7.18097 6.77214 7.07851 6.81052C6.94472 6.85549 6.89186 6.81052 6.84127 6.67786C6.76975 6.53869 6.6894 6.40425 6.60069 6.27536C6.57467 6.22877 6.55516 6.17893 6.53569 6.12916C6.51897 6.08644 6.50228 6.04378 6.48151 6.00329C6.4486 5.93912 6.4187 5.89421 6.38256 5.83994C6.36933 5.82006 6.35521 5.79886 6.33984 5.77506Z" fill="black"/>
<path d="M11.9889 7.91338C11.9522 7.98702 11.9232 8.06426 11.9023 8.14386C11.908 8.22492 11.9301 8.30397 11.9672 8.37627C12.0043 8.44857 12.0556 8.5126 12.1182 8.5645C12.1807 8.61641 12.2531 8.6551 12.3309 8.67826C12.4088 8.70142 12.4906 8.70856 12.5713 8.69925C12.6024 8.69826 12.6332 8.70529 12.6608 8.71966C12.6883 8.73404 12.7117 8.75527 12.7287 8.78132C12.7651 8.91243 12.7881 9.04692 12.7973 9.18269C12.8187 9.41879 12.8602 9.46039 13.1008 9.46039C13.1803 9.45892 13.2592 9.44759 13.3358 9.42666C13.3772 9.41545 13.4186 9.4044 13.4601 9.39333C13.6722 9.3367 13.8852 9.27986 14.0902 9.2018C14.2042 9.15493 14.3027 9.07703 14.3746 8.97695C14.4904 8.8128 14.4342 8.67451 14.2442 8.59469C14.0266 8.52199 13.8253 8.40742 13.6517 8.25741C13.5838 8.16899 13.4866 8.1078 13.3775 8.08491C13.2684 8.06202 13.1547 8.07894 13.057 8.13262L13.0193 8.14879C12.9639 8.17249 12.908 8.19641 12.8558 8.22481C12.7377 8.28889 12.6635 8.26303 12.5949 8.14048C12.5337 8.03274 12.4551 7.93588 12.3622 7.85379C12.3363 7.82733 12.3044 7.80747 12.2693 7.79586C12.2341 7.78425 12.1967 7.78124 12.1602 7.78708C12.1236 7.79291 12.089 7.80742 12.0592 7.8294C12.0294 7.85137 12.0053 7.88018 11.9889 7.91338Z" fill="black"/>
<path d="M18.0306 12.4173L18.0018 12.423C17.9992 12.3787 18.0011 12.3343 18.0074 12.2903C18.033 12.1734 18.0211 12.0515 17.9735 11.9417C17.9258 11.8319 17.8449 11.7399 17.7421 11.6787C17.3514 11.3727 16.9062 11.1438 16.43 11.0041C16.4061 10.9932 16.38 10.9922 16.3538 10.9912C16.3343 10.9905 16.3149 10.9898 16.2962 10.985C16.215 10.9713 16.136 10.9467 16.0613 10.912C15.9797 10.8643 15.9009 10.8122 15.8221 10.7601C15.6947 10.6759 15.5672 10.5917 15.4283 10.5263C15.1753 10.406 15.0258 10.5241 15.0798 10.804C15.1242 10.9723 15.1952 11.1325 15.29 11.2785C15.3496 11.3819 15.3822 11.4696 15.3058 11.5742C15.2697 11.6232 15.2343 11.6724 15.1989 11.7215C15.1453 11.7961 15.0914 11.8709 15.0359 11.944C15.0091 11.9704 14.9801 11.9944 14.9493 12.016C14.8209 12.1203 14.7017 12.2354 14.593 12.36C14.512 12.4635 14.6323 12.7367 14.7369 12.8221C14.8019 12.8806 14.8507 12.955 14.8785 13.038C14.9092 13.1244 14.9349 13.2123 14.9605 13.2999C15.0016 13.4404 15.0425 13.5804 15.1034 13.7125C15.1823 13.8833 15.2036 14.075 15.1641 14.2589C15.1401 14.3871 15.1176 14.516 15.0966 14.6457C15.0948 14.7544 15.1237 14.8615 15.1799 14.9546C15.2362 15.0477 15.3176 15.123 15.4148 15.1719C15.5688 15.2391 15.7189 15.3217 15.8803 15.4106C15.9321 15.4391 15.9853 15.4684 16.0399 15.4979C16.2084 15.3542 16.3389 15.1711 16.4199 14.965C16.4673 14.8544 16.5405 14.7569 16.6335 14.6805C16.736 14.6011 16.8454 14.5305 16.9548 14.4599C17.0481 14.3996 17.1415 14.3393 17.2305 14.2736C17.3283 14.1982 17.4172 14.1353 17.5532 14.1915C17.6137 14.2049 17.677 14.1978 17.7331 14.1712C18.1481 14.03 18.5272 13.7998 18.8439 13.4967C19.0665 13.2718 19.0563 13.1841 18.7831 13.047C18.5796 12.9447 18.3829 12.821 18.3829 12.5444C18.375 12.4185 18.2783 12.3758 18.158 12.3938C18.1208 12.3995 18.0831 12.4069 18.0306 12.4173Z" fill="black"/>
<path d="M11.8612 7.27499C11.6689 7.66849 11.3496 7.82927 10.9977 7.664C10.6552 7.56592 10.2957 7.54178 9.94312 7.59317C9.90106 7.59317 9.859 7.5891 9.80748 7.58412C9.77776 7.58124 9.74487 7.57806 9.70703 7.57518L9.95662 7.09961C10.0601 7.09961 10.1673 7.1248 10.2788 7.15101C10.4859 7.19969 10.7078 7.25185 10.9482 7.15246C11.0517 7.30086 11.2361 7.28624 11.4351 7.26488C11.5771 7.2564 11.7196 7.25978 11.8612 7.27499Z" fill="black"/>
<path d="M11.3843 8.39783C11.2233 8.25714 11.0208 8.17269 10.8076 8.15723C10.7406 8.19712 10.6778 8.24343 10.6198 8.29551C10.6074 8.30338 10.6412 8.40457 10.6715 8.41581C10.8345 8.4754 10.857 8.60356 10.8761 8.75309C10.884 8.8138 10.9593 8.91049 11.0077 8.91049C11.1206 8.91346 11.2326 8.88998 11.3348 8.84191C11.5462 8.73511 11.5485 8.5631 11.3843 8.39783Z" fill="black"/>
<path d="M1.67433 4.82617C1.66706 4.87046 1.66075 4.91103 1.65485 4.94901C1.64156 5.03444 1.63031 5.10682 1.61474 5.17919C1.60912 5.20843 1.58326 5.2534 1.5619 5.25565C1.32917 5.28375 1.23361 5.45352 1.1684 5.65027C1.02449 5.61429 0.971653 5.5221 1.01438 5.41754C1.06802 5.30198 1.13975 5.19572 1.22686 5.10275C1.30673 5.01182 1.39777 4.93136 1.49782 4.86327C1.5536 4.83929 1.61361 4.82668 1.67433 4.82617Z" fill="black"/>
<path d="M12.3668 9.72635C12.4073 9.71983 12.4489 9.71313 12.4919 9.7068C12.4745 9.65573 12.4624 9.60298 12.456 9.5494C12.456 9.39425 12.3919 9.34253 12.2581 9.40437C12.1647 9.44643 12.0761 9.49845 11.9939 9.55952C11.9579 9.5865 11.9231 9.66182 11.9366 9.6933C11.9516 9.71491 11.9716 9.73261 11.9949 9.74493C12.0181 9.75725 12.044 9.76384 12.0703 9.76413C12.1672 9.75848 12.2635 9.74297 12.3668 9.72635Z" fill="black"/>
</svg>
