<svg width="20" height="20" viewBox="0 0 20 20" fill="none" xmlns="http://www.w3.org/2000/svg">
<path d="M14.6228 18.2272C14.6363 18.2539 14.6505 18.2821 14.6654 18.3125C14.6998 18.2931 14.7351 18.2744 14.7705 18.2556C14.982 18.1434 15.2001 18.0276 15.283 17.7444C15.211 17.7283 15.1683 17.7188 15.1527 17.693C15.13 17.6554 15.1642 17.5834 15.2481 17.4069L15.4236 17.4643C15.4025 17.437 15.3839 17.4137 15.3673 17.393C15.3325 17.3495 15.3066 17.317 15.2852 17.282C15.276 17.2666 15.2846 17.2371 15.2913 17.2141C15.2919 17.2119 15.2925 17.2098 15.2931 17.2078C15.3078 17.1771 15.3194 17.145 15.328 17.1121V16.8556L14.716 16.5496L14.8094 16.4889C14.7212 16.4312 14.758 16.3916 14.7986 16.348C14.8134 16.3321 14.8287 16.3157 14.8386 16.2976L14.9657 16.4574C14.9993 16.4574 15.0296 16.454 15.0568 16.451C15.1035 16.4459 15.1409 16.4417 15.1694 16.4574C15.227 16.4888 15.2815 16.5266 15.3358 16.5642C15.4077 16.6139 15.4793 16.6635 15.5575 16.6981C15.6964 16.748 15.8395 16.7857 15.985 16.8106L16.0278 16.6981L16.1133 16.7296C16.1133 16.7576 16.1114 16.7846 16.1097 16.8095C16.1061 16.8626 16.1032 16.9061 16.12 16.9299C16.1378 16.9549 16.1846 16.9608 16.225 16.9659C16.2408 16.9679 16.2557 16.9698 16.2674 16.9726C16.2767 16.9927 16.2891 17.0134 16.3015 17.0339C16.3293 17.0802 16.3566 17.1258 16.3472 17.1616C16.333 17.2132 16.2913 17.2574 16.2495 17.3019C16.2319 17.3206 16.2144 17.3392 16.1987 17.3585C16.2237 17.362 16.2489 17.3662 16.2743 17.3703C16.4512 17.3993 16.6362 17.4296 16.8074 17.2663C16.8029 17.5914 16.8096 17.5981 17.2023 17.6847L17.4059 17.5723C17.391 17.6582 17.3979 17.7465 17.426 17.829C17.4541 17.9116 17.5025 17.9858 17.5667 18.0448C17.5814 18.0581 17.5894 18.0781 17.5974 18.0983C17.6029 18.1122 17.6084 18.1262 17.6163 18.1381C17.6248 18.1513 17.6337 18.1668 17.643 18.1828C17.6715 18.2321 17.7024 18.2855 17.7288 18.2855C17.7527 18.2869 17.7766 18.2827 17.7987 18.2733C17.8208 18.264 17.8404 18.2497 17.8561 18.2315C17.8717 18.2133 17.883 18.1918 17.889 18.1686C17.895 18.1454 17.8956 18.1211 17.8908 18.0976C17.8872 18.0429 17.8872 17.9881 17.8908 17.9334H17.9324L17.9661 18.1584L18.0415 18.0144L18.0809 18.0369C18.0596 18.0749 18.0467 18.1173 18.0339 18.1597C18.0054 18.2538 17.9769 18.3477 17.8559 18.3935C17.8331 18.404 17.8145 18.4218 17.803 18.4441C17.78 18.4881 17.7556 18.5321 17.731 18.5763C17.699 18.6338 17.6669 18.6916 17.6376 18.7501C17.6144 18.8054 17.5948 18.8621 17.5791 18.92L17.6252 18.9403C17.7548 18.8385 17.855 18.7042 17.9155 18.551C17.9184 18.5453 17.9215 18.5391 17.9247 18.5326C17.9436 18.4941 17.9671 18.4464 17.9931 18.4464C18.1202 18.4318 18.199 18.3811 18.1833 18.2214C18.2542 18.2809 18.2962 18.3583 18.3379 18.4353C18.394 18.5389 18.4496 18.6416 18.5747 18.6984C18.4971 18.4779 18.5871 18.3012 18.7547 18.29L18.73 18.1775L18.775 18.146L18.856 18.2934L18.9685 18.0549L18.7154 18.038L18.7008 17.9998C18.7182 17.9893 18.7383 17.9745 18.7581 17.9599C18.7983 17.9301 18.8376 17.9011 18.8526 17.9109C18.9497 17.973 18.9615 17.9236 18.9744 17.87C18.9801 17.846 18.9861 17.8211 19 17.8051C18.9197 17.8188 18.8372 17.8138 18.7592 17.7903C18.6811 17.7669 18.6095 17.7258 18.55 17.6701L18.6625 17.5959L18.334 17.2393C18.313 17.2501 18.2938 17.2748 18.2746 17.2995C18.23 17.3569 18.1856 17.414 18.1203 17.2944C18.0651 17.1931 18.019 17.1931 17.9391 17.2167C17.8959 17.2378 17.8463 17.242 17.8001 17.2284C17.7539 17.2149 17.7145 17.1847 17.6894 17.1436L17.8232 17.075V17.0368H17.1651V16.7307C16.9887 16.7032 16.825 16.6222 16.696 16.4987C16.5671 16.3751 16.4791 16.2151 16.444 16.04L16.84 16.1176L16.642 15.8094L17.3541 16.0557C17.3179 16.0237 17.2886 15.9879 17.261 15.9541C17.1918 15.8695 17.1331 15.7978 17.002 15.8307C16.9829 15.8352 16.9154 15.7362 16.9154 15.6969C16.9154 15.6575 16.9874 15.6091 17.0279 15.5844C17.0461 15.5732 17.0704 15.5691 17.0941 15.5652C17.1231 15.5603 17.1513 15.5555 17.1674 15.5382C17.2154 15.4862 17.2562 15.4295 17.3063 15.36C17.3384 15.3155 17.3743 15.2658 17.4182 15.2086L17.5915 15.4674L17.7715 15.3796C17.6838 15.2947 17.7284 15.233 17.7759 15.1674C17.8057 15.1261 17.8368 15.0832 17.8368 15.032H17.6804L17.7479 14.9195C17.7267 14.9215 17.706 14.9255 17.6861 14.9293C17.6054 14.9448 17.5385 14.9577 17.515 14.825L17.6084 14.8014L17.7265 14.7721C17.714 14.7622 17.7021 14.7509 17.6903 14.7396C17.666 14.7164 17.642 14.6935 17.614 14.6844C17.5712 14.6782 17.5276 14.6805 17.4858 14.6911C17.4407 14.5108 17.5479 14.4714 17.653 14.4328C17.6921 14.4185 17.7309 14.4042 17.7614 14.3829L17.731 14.3322L17.5352 14.3975L17.5566 14.3637L17.3316 14.2276C17.3323 14.2948 17.3106 14.3603 17.2698 14.4137C17.229 14.4671 17.1716 14.5053 17.1066 14.5224C17.0653 14.5332 17.0377 14.6196 17.0186 14.6793L17.0166 14.6855C17.0025 14.7674 16.9841 14.8485 16.9615 14.9285C16.9348 14.9872 16.8865 15.0333 16.8266 15.0572C16.7667 15.081 16.6999 15.0808 16.6401 15.0565C16.5804 15.0323 16.5324 14.9858 16.5061 14.9269C16.4798 14.8681 16.4773 14.8013 16.4991 14.7406C16.4669 14.7475 16.4342 14.7593 16.4017 14.771C16.2959 14.8093 16.1914 14.847 16.1054 14.7136C16.0705 14.6729 16.0514 14.621 16.0514 14.5674C16.0514 14.5137 16.0705 14.4619 16.1054 14.4211C16.2129 14.3098 16.3146 14.3704 16.4002 14.4213C16.4149 14.4301 16.4292 14.4386 16.4429 14.4459L16.7635 13.9959C16.7487 13.9829 16.7352 13.9675 16.7219 13.9523C16.6766 13.9005 16.6334 13.8511 16.5464 13.9059C16.5418 13.9089 16.5393 13.9155 16.5361 13.9239C16.5346 13.928 16.5328 13.9326 16.5306 13.9374L16.6544 13.9711L16.3562 14.1365L16.4395 13.8676L16.4204 13.862L16.21 14.1882C16.1442 14.1344 16.0839 14.0741 16.03 14.0082C15.9737 13.9216 15.9231 13.8991 15.8759 14.0026C15.7454 14.1793 15.5654 14.3133 15.3588 14.3878C15.1522 14.4623 14.9281 14.4739 14.7149 14.4211C14.6219 14.3892 14.5263 14.3628 14.4308 14.3365C14.3715 14.3202 14.3122 14.3038 14.2536 14.2861C14.1809 14.2713 14.1137 14.2369 14.059 14.1868C14.0043 14.1367 13.9642 14.0726 13.9431 14.0015C13.9282 13.9319 13.9328 13.8596 13.9565 13.7925C13.9801 13.7254 14.0218 13.6661 14.077 13.6213C14.1562 13.5408 14.2302 13.4551 14.3042 13.3693C14.3668 13.2967 14.4295 13.224 14.4955 13.1544C14.5545 13.0764 14.6318 13.0142 14.7205 12.9732C14.8719 12.9523 15.0262 12.9756 15.1647 13.0402C15.3032 13.1049 15.4201 13.2082 15.5013 13.3378C15.5233 13.3968 15.566 13.4459 15.6214 13.4761C15.6767 13.5063 15.7411 13.5155 15.8027 13.502C15.8772 13.5084 15.9505 13.5243 16.021 13.5492C16.094 13.5731 16.1695 13.5886 16.246 13.5954C16.253 13.5953 16.26 13.5951 16.2669 13.5949C16.3348 13.5929 16.397 13.5911 16.3889 13.682C16.375 13.8324 16.4502 13.8321 16.5577 13.8317C16.5636 13.8316 16.5696 13.8316 16.5756 13.8316H16.9311L16.9075 13.9137L16.9368 13.943L17.2034 13.7754C17.1635 13.7672 17.1264 13.7628 17.0945 13.7591C17.0391 13.7527 16.9996 13.7481 16.9896 13.7281C16.9104 13.5706 16.842 13.4078 16.7849 13.241C16.7396 13.111 16.7008 12.9791 16.6619 12.8471C16.6399 12.7725 16.6179 12.6978 16.5948 12.6234C16.5839 12.5994 16.5673 12.5785 16.5464 12.5626C16.5115 12.5308 16.4761 12.4994 16.4408 12.468C16.37 12.4053 16.2993 12.3425 16.2325 12.2758C16.1912 12.2353 16.161 12.185 16.1448 12.1295C16.1365 12.0982 16.1363 12.0624 16.1361 12.0274C16.1358 11.9769 16.1356 11.9283 16.111 11.8978C15.977 11.7382 16.0383 11.5925 16.0977 11.4514C16.1195 11.3995 16.1411 11.3481 16.1526 11.297C16.2226 11.0739 16.3087 10.8562 16.4102 10.6456C16.4265 10.5767 16.4349 10.5061 16.435 10.4353H9.56575L9.65575 10.3554C9.83827 10.2003 9.83811 10.2001 9.72142 10.0016C9.71872 9.99701 9.71595 9.99231 9.71313 9.9875C9.6769 9.92575 9.66601 9.85236 9.68275 9.78275C9.70946 9.73632 9.71934 9.68209 9.71073 9.62922C9.70213 9.57635 9.67556 9.52806 9.6355 9.4925C9.532 9.39125 9.5635 9.27763 9.676 9.2945C9.96962 9.33725 10.063 9.18875 10.0743 8.9345C10.0753 8.92255 10.0817 8.91086 10.0879 8.89931C10.0946 8.88694 10.1013 8.87472 10.1012 8.8625C10.1112 8.79256 10.1066 8.72133 10.0878 8.65325C9.96625 8.3945 9.98425 8.3225 10.2092 8.15038C10.2735 8.10855 10.324 8.04867 10.3544 7.97825C10.3749 7.90992 10.3838 7.83843 10.3928 7.76697C10.4016 7.69724 10.4103 7.62755 10.4298 7.56087C10.4931 7.34617 10.5682 7.1351 10.6547 6.92863C10.6709 6.89947 10.6932 6.87425 10.7203 6.85479C10.7473 6.83534 10.7784 6.82213 10.8111 6.81612C10.989 6.79329 11.0841 6.67474 11.1806 6.55433C11.1982 6.53234 11.2159 6.51029 11.2341 6.48875C11.2886 6.41784 11.3558 6.35758 11.4321 6.311C11.4785 6.29427 11.5204 6.26683 11.5542 6.2309C11.588 6.19498 11.6129 6.15159 11.6268 6.10424C11.6408 6.0569 11.6433 6.00694 11.6343 5.95842C11.6253 5.9099 11.605 5.86419 11.575 5.825C11.5075 5.72263 11.5458 5.64275 11.6594 5.65287C11.773 5.663 11.8146 5.60225 11.8619 5.52012C11.9631 5.34013 12.0666 5.1725 12.1791 5.00262C12.25 4.89125 12.2084 4.84062 12.0959 4.81362C12.0792 4.80935 12.0617 4.80648 12.0441 4.8036C11.9737 4.79208 11.9035 4.78057 11.8945 4.67975C11.8898 4.62691 11.8687 4.57685 11.8342 4.53653C11.7998 4.49621 11.7536 4.46763 11.7021 4.45475C11.6667 4.44639 11.6333 4.4308 11.6042 4.40895C11.5751 4.3871 11.5507 4.35946 11.5328 4.32777C11.5148 4.29608 11.5036 4.26103 11.4998 4.2248C11.4961 4.18857 11.4998 4.15196 11.5109 4.11725C11.5379 4.05295 11.5414 3.9812 11.5209 3.91455C11.5003 3.84791 11.4569 3.79063 11.3984 3.75275C11.332 3.7055 11.3129 3.566 11.3129 3.467C11.3123 3.45351 11.3501 3.44035 11.3943 3.42498C11.4312 3.41215 11.4725 3.39778 11.4996 3.38037C11.5485 3.34235 11.5934 3.29937 11.6335 3.25213C11.6208 3.23978 11.6084 3.22486 11.5961 3.20998C11.5668 3.17469 11.5377 3.13963 11.5052 3.13963C11.3444 3.125 11.3162 3.03612 11.35 2.9C11.3682 2.76046 11.4319 2.63079 11.5311 2.531C11.665 2.414 11.629 2.26437 11.4872 2.23175C11.3455 2.19913 11.2859 2.13162 11.2859 2H1.009V2.20138C1.00868 2.56271 1.00917 2.92405 1.00965 3.28538C1.01089 4.2088 1.01213 5.13221 1 6.05562C1.00089 6.16604 1.03038 6.27433 1.08558 6.36996C1.14079 6.46558 1.21983 6.54527 1.315 6.60125C1.50784 6.75477 1.65236 6.96061 1.73125 7.19413C1.8225 7.36716 1.84267 7.56895 1.7875 7.75663C1.75899 7.83716 1.75958 7.92514 1.78917 8.00529C1.81876 8.08544 1.87549 8.15269 1.9495 8.19538C2.0139 8.24013 2.08292 8.27785 2.15538 8.30787C2.06537 8.40462 2.03838 8.48225 2.17788 8.53288C2.1939 8.53853 2.20519 8.56237 2.21505 8.58318C2.21695 8.5872 2.2188 8.59111 2.22062 8.59475C2.24834 8.64898 2.27574 8.70645 2.30385 8.76541C2.32822 8.81652 2.35313 8.86876 2.37925 8.921C2.28925 9.02225 2.31175 9.11337 2.42425 9.22587C2.49063 9.30509 2.53762 9.3987 2.5615 9.49925C2.56585 9.51194 2.56952 9.52479 2.5731 9.53733C2.59271 9.60592 2.60962 9.66503 2.719 9.6365C2.73925 9.632 2.8 9.6905 2.8 9.72425C2.8134 9.79506 2.80557 9.86825 2.7775 9.93462C2.72575 10.037 2.773 10.1045 2.82475 10.1776C2.83959 10.1989 2.85518 10.2195 2.87278 10.2427C2.88586 10.2599 2.90005 10.2787 2.91587 10.3003C2.87624 10.3221 2.83484 10.3405 2.79212 10.3554C2.6875 10.3813 2.65825 10.4431 2.72237 10.5253C2.80787 10.6344 2.84387 10.73 2.71563 10.8313C2.70674 10.8438 2.70082 10.8583 2.69828 10.8735C2.69575 10.8886 2.69668 10.9042 2.701 10.919C2.71546 10.9938 2.71485 11.0707 2.69921 11.1453C2.68356 11.2199 2.65319 11.2906 2.60987 11.3533C2.58434 11.4054 2.56641 11.4612 2.54851 11.5169C2.50961 11.638 2.47083 11.7587 2.3545 11.8404C2.34295 11.8487 2.33982 11.8673 2.33654 11.8868C2.33408 11.9014 2.33153 11.9165 2.32525 11.9281C2.31033 11.953 2.29398 11.9777 2.27748 12.0027C2.24546 12.0511 2.21288 12.1004 2.18913 12.1531C2.15496 12.2127 2.14113 12.2818 2.14975 12.35C2.19489 12.4347 2.21386 12.531 2.20425 12.6265C2.19463 12.722 2.15687 12.8126 2.09575 12.8866C2.05114 12.9436 2.0269 13.0139 2.0269 13.0863C2.0269 13.1587 2.05114 13.229 2.09575 13.286C2.17112 13.3962 2.22513 13.484 2.15987 13.6134C2.14872 13.6427 2.14872 13.6751 2.15987 13.7045C2.20989 13.8274 2.22259 13.9623 2.19638 14.0923C2.17017 14.2224 2.10621 14.3418 2.0125 14.4358C1.972 14.4884 1.93444 14.5432 1.9 14.6H1.95288C1.97676 14.6891 1.98663 14.7813 1.98213 14.8734C1.95767 15.0011 1.90959 15.1232 1.84037 15.2334C1.82191 15.2621 1.7731 15.2684 1.72199 15.2749C1.68902 15.2792 1.6551 15.2835 1.62775 15.2941C1.58725 15.3088 1.52762 15.3537 1.52762 15.3796C1.53614 15.4729 1.56009 15.5642 1.5985 15.6496C1.65363 15.7644 1.73013 15.8015 1.86287 15.7183C1.99291 15.6226 2.14426 15.5601 2.30387 15.536C2.76885 15.5343 3.23326 15.5035 3.69438 15.4437C3.77791 15.4307 3.86333 15.4368 3.94413 15.4618C4.32212 15.5754 4.69563 15.698 5.06913 15.8206C5.09013 15.8274 5.10808 15.8427 5.12615 15.8581C5.14098 15.8707 5.15589 15.8834 5.17263 15.8915C5.39955 16.0196 5.63614 16.1299 5.88025 16.2211C6.14728 16.2883 6.41928 16.3338 6.69362 16.3573C6.91352 16.4159 7.14236 16.4335 7.36862 16.409C7.59167 16.3115 7.83285 16.2625 8.07625 16.265C8.08134 16.265 8.08691 16.2603 8.09264 16.2554C8.09577 16.2528 8.09895 16.2501 8.10213 16.2481L8.08075 16.2234L8.2225 16.0546L7.94125 16.1244L7.82875 15.8757L7.94125 15.779L7.93112 15.7554L7.68475 15.8229L7.61275 15.6069L7.8085 15.5349L7.85125 15.6474L8.4565 15.3099C8.47426 15.3062 8.49493 15.3026 8.51745 15.2987C8.5634 15.2907 8.61702 15.2815 8.66912 15.2671C8.69771 15.2557 8.72857 15.2512 8.75922 15.254C8.78987 15.2568 8.81943 15.2667 8.84551 15.283C8.8716 15.2994 8.89346 15.3216 8.90933 15.348C8.92521 15.3743 8.93464 15.4041 8.93687 15.4348C8.89941 15.4325 8.86184 15.4325 8.82438 15.4348C8.81232 15.5154 8.80562 15.5945 8.79734 15.6923C8.79557 15.7131 8.79373 15.7349 8.79175 15.7576C8.8274 15.7475 8.85565 15.7389 8.87946 15.7317C8.9165 15.7205 8.94279 15.7125 8.9695 15.707C9.13531 15.6665 9.30318 15.635 9.47237 15.6125C9.60287 15.6001 9.68163 15.6687 9.65125 15.8184C9.63912 15.8758 9.63222 15.9332 9.62386 16.0028C9.6206 16.03 9.61711 16.059 9.613 16.0906L9.89087 16.0513L9.9685 16.5013L10.405 16.3888L10.3769 16.5271L10.8269 16.6756L11.0125 16.175C11.1464 16.2515 11.1531 16.2999 11.0496 16.4124C10.9942 16.4615 10.958 16.5288 10.9475 16.6021C10.9369 16.6754 10.9528 16.7501 10.9923 16.8129C11.029 16.8531 11.0581 16.9002 11.0872 16.9473C11.1427 17.0372 11.1984 17.1275 11.3084 17.1717C11.3595 17.1999 11.4043 17.2381 11.44 17.2843C11.4605 17.315 11.474 17.3499 11.4797 17.3864C11.4855 17.4229 11.4832 17.4603 11.4732 17.4959C11.4632 17.5314 11.4455 17.5644 11.4216 17.5926C11.3976 17.6207 11.3678 17.6433 11.3342 17.6589L11.3005 17.3112C11.1565 17.3517 11.1003 17.2606 11.0687 17.1268C11.0099 17.1474 10.9753 17.1995 10.9414 17.2506C10.8867 17.3332 10.8338 17.4129 10.6829 17.3517C10.72 17.446 10.781 17.5289 10.8599 17.5924C10.9388 17.6559 11.0329 17.6978 11.1329 17.714C11.1923 17.7319 11.2512 17.7515 11.31 17.7711C11.4027 17.802 11.4953 17.8328 11.5896 17.8569C11.6451 17.8578 11.7 17.8451 11.7494 17.8197C11.7805 17.8094 11.8107 17.7956 11.8511 17.7771C11.872 17.7675 11.8957 17.7567 11.9237 17.7444L11.8574 17.9165C12.029 17.8655 12.1262 17.9551 12.226 18.047C12.2584 18.0768 12.291 18.1069 12.3265 18.1325L12.4907 17.9604L12.7 18.0211L12.7473 18.0706L12.5819 18.1077C12.8365 18.2378 12.9941 18.1247 13.1641 18.0026C13.1707 17.9979 13.1772 17.9932 13.1838 17.9885C13.1873 17.9641 13.191 17.9384 13.1949 17.9112C13.2047 17.843 13.2159 17.7657 13.2288 17.678L13.3413 17.7658L13.3941 17.534L13.2872 17.4541L13.447 17.3585C13.4825 17.5304 13.5886 17.4866 13.6693 17.4533C13.6858 17.4465 13.7012 17.4401 13.7148 17.4361C13.769 17.4201 13.8134 17.3662 13.8651 17.3033C13.8896 17.2736 13.9158 17.2418 13.9454 17.2111L14.0995 17.6296L14.2176 17.4046L14.4426 17.6938L14.5259 17.5813L14.5754 17.5936C14.5711 17.6238 14.5666 17.6536 14.5621 17.6834C14.5503 17.7623 14.5385 17.8404 14.5304 17.9221C14.5234 17.9646 14.5265 18.0082 14.5394 18.0492C14.5624 18.1072 14.5905 18.163 14.6228 18.2272Z" fill="black"/>
<path d="M9.0695 16.6083L9.32036 16.3226C9.24703 16.2849 9.17457 16.2451 9.10163 16.2049C9.00898 16.154 8.91556 16.1026 8.81861 16.0548C8.7429 16.0192 8.65851 16.0063 8.57563 16.0177C8.48166 16.0407 8.392 16.0787 8.31012 16.1302C8.26509 16.1629 8.22395 16.2006 8.1875 16.2427C8.22004 16.2826 8.25788 16.3177 8.29999 16.3473C8.35647 16.3784 8.41823 16.4078 8.47922 16.4368C8.5725 16.4812 8.66397 16.5247 8.73199 16.5723C8.84449 16.6511 8.957 16.6927 9.0695 16.6083Z" fill="black"/>
</svg>
