<svg width="20" height="20" viewBox="0 0 20 20" fill="none" xmlns="http://www.w3.org/2000/svg">
<path d="M13.629 7.91511L13.6065 8.09055C13.6272 8.09676 13.649 8.10128 13.6704 8.10572C13.7188 8.11577 13.7655 8.12546 13.7943 8.15353C13.8207 8.17919 13.8136 8.2175 13.8049 8.26474C13.7999 8.29203 13.7943 8.3223 13.7943 8.35483L14.1699 8.26598L14.1879 8.30647C14.2576 8.25924 14.2869 8.21763 14.2048 8.13553C14.1564 8.0665 14.1185 7.99071 14.0923 7.91062L14.1328 7.887C14.1715 7.93705 14.2152 7.98302 14.2633 8.0242C14.3663 8.10717 14.4797 8.17636 14.6006 8.23C14.719 8.26659 14.824 8.33716 14.9025 8.43293C14.9811 8.5287 15.0298 8.64545 15.0426 8.76867C15.0415 8.79339 15.0461 8.81802 15.0561 8.84065C15.1685 9.00821 15.29 9.17802 15.407 9.33884C15.4092 9.34198 15.4118 9.34522 15.4146 9.34853C15.4169 9.35137 15.4194 9.35425 15.4219 9.35714C15.4352 9.37259 15.4487 9.38836 15.4463 9.39956C15.4134 9.5256 15.4727 9.61663 15.532 9.70759C15.5537 9.7408 15.5754 9.77401 15.5925 9.80891C15.6116 9.84827 15.6386 9.92137 15.624 9.93262C15.5701 9.96542 15.5112 9.98934 15.4497 10.0035C15.4896 9.93304 15.5017 9.85024 15.4836 9.77135C15.4655 9.69247 15.4185 9.62322 15.3519 9.57725L15.2833 9.91462L15.1089 9.92474C15.149 9.96548 15.1868 10.005 15.2234 10.0432C15.313 10.1368 15.3951 10.2226 15.4846 10.2992C15.5407 10.3317 15.6071 10.3413 15.6701 10.3262C15.6942 10.3182 15.7197 10.3155 15.7449 10.3182C15.7701 10.3209 15.7945 10.329 15.8163 10.3419C15.8381 10.3548 15.857 10.3722 15.8715 10.393C15.8861 10.4137 15.896 10.4374 15.9006 10.4623C15.9505 10.6476 15.9702 10.8397 15.9591 11.0313C15.9457 11.1116 15.9549 11.1939 15.9857 11.2692C16.0165 11.3445 16.0676 11.4097 16.1334 11.4576C16.3836 11.6711 16.7044 11.7838 17.0331 11.7736C17.062 11.7736 17.0909 11.7768 17.1196 11.78C17.1355 11.7818 17.1513 11.7836 17.1669 11.7848C17.1669 11.7848 17.1748 11.7848 17.1962 11.7994L16.9364 11.8512C16.9857 11.8946 17.0465 11.9229 17.1115 11.9329C17.1764 11.9429 17.2429 11.934 17.303 11.9074C17.524 11.8199 17.7418 11.7248 17.9597 11.6297C18.0556 11.5879 18.1515 11.546 18.2477 11.5048C18.2527 11.5027 18.2578 11.4996 18.2628 11.4966C18.2713 11.4915 18.2797 11.4864 18.2881 11.4857C18.3608 11.4915 18.4332 11.4723 18.4935 11.4315C18.5538 11.3906 18.5984 11.3304 18.6199 11.2607C18.6495 11.1753 18.6608 11.0846 18.6531 10.9945C18.6453 10.9044 18.6187 10.8169 18.5749 10.7378L18.5423 10.6658L18.7234 10.5849C18.6725 10.5651 18.6229 10.5422 18.5749 10.5163L18.5732 10.5152C18.4815 10.4557 18.4358 10.426 18.408 10.438C18.3804 10.4499 18.3704 10.5028 18.3506 10.6084L18.35 10.6119C18.3467 10.6312 18.341 10.6501 18.3331 10.6681C18.3161 10.5931 18.2996 10.5177 18.283 10.4418C18.2382 10.2367 18.1927 10.0287 18.1352 9.82016C18.1 9.73405 18.0381 9.66151 17.9586 9.61324C17.8462 9.54014 17.7618 9.59074 17.6876 9.74256L17.7607 9.79429L17.7382 9.83815C17.686 9.82219 17.6364 9.7987 17.5909 9.76843C17.5283 9.7119 17.4731 9.64766 17.4267 9.57725C17.4168 9.56034 17.4111 9.54136 17.4099 9.52182C17.4088 9.50229 17.4122 9.48275 17.42 9.46479C17.458 9.42489 17.5075 9.39778 17.5617 9.38719C17.6293 9.38035 17.6975 9.38035 17.7652 9.38719C17.7996 9.38344 17.8344 9.3865 17.8675 9.39619C18.0725 9.48323 18.2573 9.61152 18.4105 9.77307C18.5638 9.93462 18.6821 10.126 18.7582 10.3352C18.8151 10.5161 18.8666 10.6981 18.9225 10.8953C18.9472 10.9826 18.9728 11.073 19 11.1674L18.7886 11.0381L18.7436 11.3518C18.9348 11.2967 18.9595 11.3136 18.9685 11.5172V12.1514L18.2555 12.247L17.8248 12.301C17.7255 12.2982 17.6271 12.3214 17.5394 12.3681C17.4516 12.4148 17.3775 12.4835 17.3244 12.5675C17.3196 12.577 17.3108 12.584 17.2977 12.5945C17.289 12.6014 17.2784 12.6099 17.2659 12.6215L17.3053 12.4134L16.6496 12.536L16.5372 12.4157C16.5176 12.4457 16.4982 12.4741 16.4794 12.5016C16.4397 12.5596 16.4027 12.6137 16.373 12.671C16.3266 12.7656 16.2546 12.8453 16.1651 12.901C16.0756 12.9567 15.9723 12.9861 15.8669 12.9859C15.7253 13.0083 15.5865 13.046 15.4531 13.0983C15.3796 13.1241 15.3045 13.1448 15.2281 13.1602C15.367 12.8863 15.4067 12.5728 15.3406 12.2729C15.3275 12.1858 15.348 12.0969 15.398 12.0243C15.439 11.945 15.4671 11.8595 15.4812 11.7713L15.4283 11.7544L15.3372 11.8781L15.0179 11.6802V12.0929C14.9023 12.074 14.8739 12.1483 14.844 12.2265C14.8224 12.283 14.8001 12.3416 14.7435 12.3685C14.676 12.2954 14.6242 12.274 14.5725 12.4011C14.5556 12.4412 14.5037 12.467 14.4492 12.4941C14.4242 12.5066 14.3987 12.5193 14.3757 12.5338C14.3757 12.5784 14.3792 12.6301 14.3829 12.6837L14.3851 12.7161L14.387 12.7463L14.351 12.7598L14.1384 12.4416L14.0957 12.4596C14.0915 12.5381 14.0587 12.6094 14.0257 12.6811C13.9788 12.7828 13.9316 12.8853 13.9652 13.0106C13.9742 13.0432 13.864 13.1174 13.7999 13.1568C13.7676 13.1767 13.7289 13.1908 13.6892 13.2053C13.6504 13.2195 13.6106 13.234 13.575 13.2546C13.4772 13.3154 13.385 13.3435 13.322 13.2929L13.367 13.0061L13.1229 13.1186C13.0817 13.1791 13.0366 13.237 12.988 13.2917C12.9159 13.3629 12.8401 13.4303 12.7474 13.5126C12.7171 13.5395 12.685 13.568 12.6506 13.5988C12.6449 13.5652 12.6394 13.534 12.6342 13.5044C12.6219 13.4347 12.6113 13.3742 12.6034 13.3142C12.5999 13.2887 12.5995 13.2627 12.5991 13.2367C12.5985 13.2033 12.598 13.1699 12.591 13.1377C12.5338 12.9271 12.5214 12.7069 12.5547 12.4913C12.5881 12.2757 12.6663 12.0695 12.7844 11.886C12.8773 11.735 12.9614 11.5788 13.0363 11.4182L12.9812 11.3867C12.9566 11.4314 12.9313 11.4742 12.9063 11.5164C12.8684 11.5805 12.8311 11.6435 12.7979 11.7106L12.7955 11.7154C12.7415 11.8247 12.6956 11.9176 12.5415 11.8444C12.5206 11.8344 12.479 11.868 12.4513 11.8905C12.4418 11.8982 12.4339 11.9045 12.4291 11.9074C12.2788 11.7873 12.135 11.6593 11.9983 11.5239C11.9337 11.4457 11.8944 11.3495 11.8859 11.2484C11.8841 11.1202 11.8913 10.9921 11.9073 10.8649C11.9073 10.7929 11.9073 10.7165 11.8015 10.7288C11.6958 10.7412 11.6823 10.6681 11.6823 10.5871C11.6774 10.4488 11.6711 10.3108 11.6645 10.1683C11.6607 10.085 11.6568 9.99981 11.6531 9.91237H11.3292C11.1965 9.91503 11.0628 9.91856 10.9285 9.92211C10.6079 9.93059 10.2838 9.93916 9.96285 9.93599C9.8456 9.93599 9.7256 9.91949 9.60492 9.90289C9.49411 9.88765 9.38271 9.87233 9.27236 9.86964C9.07529 9.86491 8.87844 9.85987 8.68173 9.85483C7.75591 9.83113 6.83347 9.80751 5.90873 9.81678C5.5266 9.78644 5.14266 9.78644 4.76053 9.81678C4.76053 9.96298 4.65819 9.97985 4.52549 9.9641L4.48501 9.78979L4.24574 9.77731C4.01527 9.76516 3.78212 9.75286 3.54935 9.74369C2.84262 9.7169 2.1321 9.68917 1.41954 9.66136L1.22371 9.65372C1.18815 9.65662 1.15245 9.65027 1.12007 9.63529C1.08768 9.62031 1.05972 9.59722 1.0389 9.56825C1.01808 9.53928 1.0051 9.50541 1.00122 9.46994C0.99735 9.43448 1.00271 9.39861 1.01679 9.36583C1.39615 7.94885 1.77514 6.5345 2.15374 5.12277C2.15728 5.09247 2.16695 5.06321 2.18216 5.03676C2.19736 5.01031 2.21779 4.98724 2.24219 4.96893C2.2666 4.95063 2.29447 4.93748 2.32412 4.93029C2.35377 4.9231 2.38457 4.92201 2.41465 4.9271C4.58884 5.00957 6.76004 5.08829 8.92823 5.16326C9.34895 5.17839 9.76966 5.19192 10.1903 5.20546C10.7703 5.22412 11.3502 5.24278 11.9297 5.2656C12.0017 5.27043 12.0737 5.25746 12.1394 5.22784C12.2051 5.19822 12.2625 5.15287 12.3065 5.09579L12.3198 5.08016C12.3515 5.04253 12.3874 4.99992 12.4268 4.99007C12.5019 4.97207 12.5705 4.93366 12.6251 4.87908C12.6797 4.82449 12.7181 4.75588 12.7361 4.68081C12.808 4.48514 12.889 4.4559 13.1083 4.46377C13.1493 4.46232 13.1896 4.45272 13.2269 4.43554C13.2642 4.41836 13.2976 4.39393 13.3254 4.36368C13.5088 4.19337 13.7312 4.07058 13.9731 4.00606C14.0033 3.99212 14.0453 4.00486 14.0879 4.01781C14.1072 4.02366 14.1266 4.02955 14.1452 4.03305L14.5275 4.11065L14.5703 4.41204L14.2779 4.42891C14.3057 4.44715 14.3282 4.46432 14.3477 4.47913C14.381 4.50448 14.4053 4.5229 14.4308 4.52787C14.5968 4.55553 14.6408 4.68446 14.6851 4.81394L14.6872 4.82026C14.7206 4.91792 14.7478 5.00072 14.7757 5.08565L14.8053 5.17563L14.7626 5.19475L14.5894 4.95859C14.5768 5.02436 14.5684 5.06777 14.5787 5.10619C14.5987 5.18076 14.6888 5.23653 14.9538 5.40055L14.8177 5.46577C14.8294 5.47678 14.8403 5.48922 14.851 5.50142C14.8731 5.52661 14.8943 5.55078 14.92 5.55911C14.9502 5.56901 14.9833 5.57119 15.0163 5.57335C15.0546 5.57587 15.0926 5.57836 15.1258 5.59285C15.166 5.61039 15.1886 5.6398 15.2199 5.68046C15.2368 5.70237 15.2561 5.72757 15.2821 5.75592C15.2821 5.54224 15.2821 5.36568 15.4722 5.33757L15.6521 5.531L15.6791 5.50963C15.6791 5.54925 15.6828 5.58933 15.686 5.62455C15.6879 5.6443 15.6895 5.66256 15.6904 5.67832L15.654 5.71776C15.6198 5.75476 15.5892 5.78789 15.5599 5.82227L15.5529 5.83029C15.4984 5.89256 15.4486 5.94942 15.3451 5.89874C15.3245 5.88845 15.2824 5.91737 15.2441 5.94366C15.2321 5.95186 15.2206 5.9598 15.2102 5.96621C15.1456 6.01993 15.075 6.06597 14.9999 6.10341C14.8199 6.16301 14.6355 6.208 14.4511 6.24961C14.2666 6.29122 14.207 6.42504 14.1384 6.6196L14.3274 6.49139L14.4263 6.64546C14.387 6.66605 14.348 6.68584 14.3095 6.7054C14.2111 6.75528 14.1156 6.80371 14.026 6.86026C13.999 6.87712 13.9956 6.95922 14.0102 7.00195C14.0202 7.0312 14.046 7.0557 14.0718 7.08015C14.0837 7.09143 14.0955 7.1027 14.1058 7.11441C14.078 7.13073 14.06 7.14127 14.0419 7.14145C14.0088 7.1418 13.9754 7.1076 13.8809 7.01095C13.8531 7.01602 13.8269 7.0274 13.8042 7.04421C13.7815 7.06103 13.763 7.08282 13.7501 7.10792C13.7372 7.13302 13.7302 7.16075 13.7296 7.18897C13.7291 7.2172 13.7351 7.24517 13.7471 7.27073C13.7739 7.37747 13.7949 7.48559 13.81 7.59461L13.5941 7.43829L13.5649 7.46978L13.611 7.59798L13.3861 7.52151L13.3692 7.56649L13.5244 7.70032C13.5071 7.71039 13.489 7.71905 13.4714 7.72744C13.3987 7.76213 13.336 7.79206 13.385 7.89712C13.4457 8.02757 13.521 7.99159 13.629 7.91511Z" fill="black"/>
<path d="M14.4062 14.2603C14.7436 14.3503 14.8819 14.1591 15.0439 13.923C15.1083 13.822 15.1946 13.7368 15.2964 13.6738C15.3982 13.6107 15.513 13.5713 15.632 13.5586L15.6118 13.7307L15.7602 13.5609C15.9255 13.6598 15.9233 13.7116 15.7265 13.8904L16.029 13.9781L16.0378 14.0407C16.049 14.1209 16.0619 14.2125 16.0796 14.3312H15.5555C15.4186 14.3144 15.2797 14.3273 15.1483 14.3693C15.0169 14.4112 14.8961 14.4811 14.7942 14.5741C14.7716 14.584 14.7469 14.588 14.7224 14.5858C14.6978 14.5837 14.6742 14.5754 14.6537 14.5617C14.5695 14.4807 14.4899 14.3951 14.4152 14.3053L14.4062 14.2603Z" fill="black"/>
<path d="M18.1222 14.7641C17.9015 14.7123 17.67 14.7316 17.4609 14.8192C17.58 14.8738 17.703 14.9197 17.8287 14.9564C18.0456 15.0072 18.2664 15.0396 18.4888 15.0531C18.7081 15.061 18.8194 14.9115 18.7531 14.7304C18.6787 14.53 18.5931 14.3327 18.5079 14.1365L18.4967 14.1108C18.4884 14.0919 18.469 14.0776 18.4493 14.0631C18.4396 14.056 18.4298 14.0488 18.4213 14.041L18.3685 14.0489C18.4755 14.2124 18.4179 14.3416 18.3581 14.4753C18.3369 14.5228 18.3155 14.5709 18.301 14.6213C18.3433 14.5997 18.3667 14.5689 18.3891 14.5394C18.3971 14.5289 18.405 14.5185 18.4135 14.5088C18.4534 14.4717 18.4962 14.4378 18.5417 14.4076C18.4922 14.601 18.2347 14.8091 18.1222 14.7641Z" fill="black"/>
<path d="M16.3616 13.8752V14.3082C16.3362 14.313 16.31 14.3125 16.2847 14.3069C16.2594 14.3013 16.2355 14.2906 16.2144 14.2754C16.1934 14.2603 16.1756 14.241 16.1623 14.2188C16.1489 14.1966 16.1402 14.1719 16.1367 14.1462C16.1415 14.0748 16.1876 14.0063 16.2337 13.9377C16.253 13.9091 16.2723 13.8804 16.2885 13.8516L16.3616 13.8752Z" fill="black"/>
<path d="M18.7776 12.3604L18.5234 13.0419C18.6109 12.9522 18.6787 12.8453 18.7224 12.7279C18.7662 12.6106 18.785 12.4854 18.7776 12.3604Z" fill="black"/>
</svg>
