<svg width="20" height="20" viewBox="0 0 20 20" fill="none" xmlns="http://www.w3.org/2000/svg">
<path d="M5.34201 1.0697C5.27546 1.12535 5.21238 1.18505 5.15315 1.24844C5.13708 1.26752 5.12797 1.29557 5.11919 1.32258C5.10833 1.35603 5.09798 1.38788 5.07559 1.39907C4.95621 1.45218 4.8334 1.49725 4.70799 1.53397L4.19988 1.70484L4.20775 1.7543L4.27407 1.78803C4.24597 1.86784 3.80868 1.92517 3.71875 1.86672C3.74755 1.63721 3.91844 1.57436 4.08667 1.51249C4.12197 1.49951 4.15716 1.48657 4.19089 1.47214C4.26115 1.44235 4.33506 1.42015 4.40897 1.39795C4.48289 1.37575 4.5568 1.35354 4.62706 1.32375C4.67797 1.30244 4.7242 1.26991 4.77052 1.23732C4.81216 1.20802 4.85386 1.17867 4.8991 1.15738C4.98989 1.11433 5.08449 1.08001 5.17912 1.04567C5.2204 1.03069 5.26169 1.01571 5.30267 1L5.34201 1.0697Z" fill="black"/>
<path d="M15.0687 6.46317C14.9394 6.4969 14.9 6.44856 14.8506 6.35076L15.0248 6.20575L14.9596 6.036C14.9438 5.99532 14.9284 5.95429 14.913 5.91322C14.8803 5.82604 14.8476 5.7386 14.8101 5.65379C14.804 5.63339 14.7931 5.61478 14.7781 5.5996C14.7632 5.58442 14.7448 5.57312 14.7245 5.56668C14.7042 5.56025 14.6827 5.55889 14.6617 5.56271C14.6408 5.56653 14.6211 5.57541 14.6044 5.58859L14.1547 5.82916C14.003 5.58859 13.9895 5.58747 13.7354 5.69201C13.6733 5.7115 13.6073 5.71575 13.5432 5.70438C13.4253 5.69543 13.3085 5.67472 13.1947 5.64255C13.134 5.62457 13.0452 5.5515 13.0452 5.51215C13.0624 5.34807 13.0953 5.18597 13.128 5.02533C13.138 4.97583 13.1481 4.92624 13.1576 4.87701C13.1067 4.89449 13.0528 4.90174 12.9991 4.89837C12.7376 4.87504 12.4753 4.93316 12.2482 5.06474C12.0928 5.11912 11.9294 5.14687 11.7648 5.1468C11.6331 5.15126 11.501 5.1449 11.3689 5.13855C11.2677 5.13368 11.1665 5.12882 11.0656 5.12882C10.8941 5.13761 10.7233 5.15675 10.5541 5.18615C10.5139 5.19879 10.4759 5.21776 10.4417 5.24235L10.3204 5.3065C10.1979 5.3711 10.0758 5.43554 9.95493 5.50316C9.82611 5.57805 9.69829 5.65295 9.57046 5.72785L9.37825 5.8404C9.35703 5.84633 9.3346 5.84633 9.31338 5.84038C9.29217 5.83443 9.273 5.82277 9.25796 5.80668C9.17253 5.71337 9.10508 5.69426 9.01627 5.80668C8.99716 5.83028 8.91622 5.82804 8.88475 5.80668C8.84866 5.78225 8.81723 5.75123 8.78585 5.72027C8.75371 5.68855 8.72163 5.65689 8.68465 5.63243C8.63373 5.60152 8.57424 5.58773 8.5149 5.59309C8.4279 5.60211 8.34115 5.61563 8.2543 5.62918C8.15711 5.64433 8.05977 5.6595 7.96183 5.66841C7.93554 5.67376 7.90842 5.67342 7.88228 5.66741C7.85614 5.6614 7.83159 5.64986 7.81028 5.63356C7.78898 5.61726 7.77141 5.59659 7.75877 5.57293C7.74613 5.54927 7.73871 5.52318 7.737 5.49641C7.73055 5.45865 7.69618 5.42391 7.66419 5.39156C7.65713 5.38443 7.65019 5.37742 7.64369 5.37051C7.51149 5.26452 7.39492 5.14039 7.29746 5.00179C7.27867 4.94558 7.24809 4.89404 7.20777 4.85061C7.16744 4.80718 7.1183 4.77287 7.06363 4.74998C6.96539 4.69202 6.86365 4.64021 6.75899 4.59485C6.58995 4.56806 6.41958 4.55043 6.24863 4.54201C6.17422 4.52156 6.09534 4.52438 6.02258 4.55011C5.94983 4.57583 5.8867 4.62322 5.84169 4.6859C5.81235 4.72576 5.78003 4.76334 5.74501 4.79832L5.72365 4.77696L5.86305 4.54314L5.8327 4.50829L5.29873 4.95795C5.28816 4.88347 5.2829 4.80834 5.28299 4.73312C5.29207 4.57879 5.384 4.47305 5.47632 4.36685C5.53263 4.30209 5.58908 4.23715 5.62698 4.16093C5.64903 4.11811 5.6874 4.08511 5.72626 4.05169C5.7884 3.99823 5.85181 3.94369 5.85181 3.84617C5.85392 3.83554 5.8582 3.82545 5.86439 3.81656C5.87058 3.80766 5.87855 3.80013 5.88778 3.79446C6.03714 3.70111 6.18714 3.60968 6.33874 3.51728L6.48695 3.42686L6.43074 3.30321L6.99281 3.26161L7.0153 3.2054C7.00077 3.19352 6.98673 3.18018 6.97275 3.1669C6.93911 3.13495 6.90582 3.10331 6.86691 3.09299C6.5364 3.03682 6.19746 3.05603 5.87541 3.1492C5.86271 3.15187 5.8516 3.15931 5.84043 3.1668C5.83281 3.1719 5.82516 3.17703 5.81696 3.18067C5.52844 3.28722 5.26565 3.45347 5.0458 3.66855C5.03784 3.67717 5.02481 3.68032 5.01154 3.68352C5.00229 3.68575 4.99294 3.68801 4.98509 3.69216C4.67264 3.81288 4.40011 4.01845 4.19819 4.28571C4.1809 4.31338 4.1402 4.32487 4.09835 4.33669C4.07219 4.34408 4.04557 4.3516 4.02395 4.36328C3.97801 4.38865 3.92696 4.39053 3.8751 4.39243C3.79374 4.39542 3.7104 4.39848 3.64174 4.49255C3.51349 4.6272 3.35652 4.73119 3.18252 4.79678C3.00852 4.86237 2.82197 4.88787 2.63675 4.87139C2.41227 4.85855 2.19081 4.9281 2.01398 5.06699C1.95039 5.14933 1.86881 5.21605 1.77549 5.26203C1.68216 5.30801 1.57955 5.33204 1.47551 5.33229V5.18502L1.01124 5.35252L1 5.41885C1.43729 5.39974 1.60367 5.66279 1.66212 6.01914L3.23592 6.39123C3.63159 6.45682 4.01535 6.58069 4.37468 6.75882C4.56014 6.83787 4.75515 6.8923 4.95474 6.92071C4.96697 6.9242 4.98328 6.91615 4.99838 6.9087C5.00271 6.90656 5.00694 6.90447 5.01095 6.90272C5.05908 6.87532 5.11351 6.86091 5.16889 6.86091C5.22427 6.86091 5.2787 6.87532 5.32683 6.90272C5.38374 6.9352 5.4463 6.95656 5.51119 6.96567C5.58427 6.97736 5.65797 6.98611 5.73159 6.99484C5.85616 7.00962 5.98055 7.02438 6.10137 7.05335C6.26437 7.09607 6.30709 7.23771 6.21378 7.3906C6.22479 7.39983 6.23715 7.41255 6.24962 7.42537C6.27659 7.45313 6.30408 7.48141 6.31945 7.47603C6.41405 7.44148 6.48578 7.47676 6.55887 7.51271C6.58565 7.52589 6.61262 7.53915 6.64096 7.5491C6.74404 7.58461 6.83179 7.65447 6.8895 7.74698C6.94722 7.83948 6.97139 7.94901 6.95796 8.05721C6.95173 8.14028 6.95173 8.2237 6.95796 8.30677L6.78035 8.64402L6.81632 8.69798L6.88262 8.68653C6.95275 8.67435 7.02304 8.66215 7.09399 8.65189C7.14795 8.63952 7.24237 8.62378 7.24912 8.63952C7.28008 8.70016 7.28959 8.7695 7.2761 8.83624C7.23191 8.93969 7.17927 9.03933 7.11872 9.13414L7.30308 9.29827C7.40963 9.23123 7.5071 9.15076 7.59311 9.05883C7.688 8.92641 7.7704 8.78818 7.85408 8.64781C7.90323 8.56536 7.95284 8.48214 8.00567 8.39895C8.03901 8.34643 8.06929 8.29141 8.0996 8.23633C8.19905 8.0556 8.2988 7.87432 8.50816 7.77955C8.56886 7.75257 8.65655 7.67275 8.64868 7.63116C8.62728 7.51061 8.68373 7.42537 8.73963 7.34096C8.77182 7.29235 8.80383 7.24402 8.82067 7.18937C8.82531 7.17468 8.84486 7.16371 8.86429 7.1528C8.8731 7.14786 8.88188 7.14293 8.88924 7.13767L8.93983 7.14778C8.80023 7.30515 8.83702 7.45489 8.87335 7.60273C8.88528 7.65131 8.89717 7.6997 8.90273 7.74808C9.19951 7.7211 9.37038 7.57945 9.39174 7.32314C9.42868 7.32314 9.46417 7.32406 9.4987 7.32496C9.56507 7.32669 9.62791 7.32832 9.69076 7.32314C9.70841 7.32143 9.72664 7.30992 9.74559 7.29795C9.76405 7.28629 9.7832 7.27419 9.80317 7.27031C9.84589 7.26848 9.88865 7.27264 9.9302 7.28268C9.92428 7.32072 9.91564 7.35829 9.90435 7.39509C9.888 7.43812 9.86835 7.47984 9.85146 7.51569L9.8369 7.54685L9.47942 7.87173L9.65366 7.98415C9.70396 7.86277 9.78153 7.75461 9.88037 7.66806C9.97921 7.5815 10.0967 7.51887 10.2236 7.48502C10.2561 7.43559 10.2835 7.38349 10.3092 7.33449C10.3619 7.23418 10.4078 7.14685 10.4765 7.12193C10.6754 7.06654 10.8817 7.04227 11.0881 7.04998C11.1116 7.04928 11.1338 7.05319 11.1559 7.05707C11.2046 7.06563 11.2526 7.07408 11.3129 7.03312C11.4008 6.98395 11.5045 6.97105 11.6018 6.99715C11.676 7.023 11.757 7.02146 11.8302 6.9928C11.9034 6.96414 11.9639 6.91027 12.0009 6.84089C12.0432 6.76866 12.1074 6.71174 12.1842 6.6784C12.261 6.64506 12.3464 6.63701 12.4281 6.65541C12.652 6.69572 12.8738 6.7475 13.0924 6.81054C13.2301 6.86008 13.3605 6.92775 13.4803 7.01176C13.5622 7.06531 13.6405 7.12522 13.7189 7.18514C13.7804 7.2321 13.842 7.27921 13.9052 7.32314C13.9259 7.33543 13.9561 7.3367 13.9886 7.33807C14.0036 7.3387 14.0191 7.33936 14.0345 7.34114C14.031 7.32513 14.0273 7.30926 14.0236 7.29364C13.9962 7.17649 13.9719 7.07299 14.0929 7.02637C14.0918 7.00333 14.0902 6.98173 14.0887 6.96028C14.0857 6.91896 14.0828 6.87808 14.0828 6.82852C14.1147 6.83796 14.1495 6.84635 14.1819 6.85417C14.2499 6.87056 14.3076 6.88448 14.3076 6.90047C14.311 6.98578 14.3538 6.97427 14.3942 6.96342C14.422 6.95597 14.4486 6.94882 14.4605 6.97354C14.5772 6.87418 14.6983 6.90289 14.8195 6.93165C14.8629 6.94194 14.9063 6.95223 14.9495 6.95668C15.0046 6.96239 15.0601 6.9687 15.1159 6.97505C15.2467 6.98993 15.3792 7.00501 15.5116 7.01289C15.5799 7.00889 15.6475 6.99643 15.7128 6.97578L15.7167 6.94845C15.838 6.99503 15.963 7.03139 16.0904 7.05713C16.1831 7.04993 16.2764 7.05945 16.3658 7.08523C16.4602 7.12907 16.6243 7.1392 16.6389 6.97283C16.5784 6.88201 16.5087 6.79764 16.431 6.72102C16.3508 6.67027 16.2647 6.6295 16.1747 6.59961L16.1544 6.65582C16.2365 6.75474 16.2298 6.77723 16.1241 6.77723C16.0761 6.77635 16.0342 6.8039 15.9924 6.83135C15.9274 6.874 15.8629 6.9164 15.7767 6.85142L15.7197 6.92781L15.7218 6.91283C15.6651 6.88878 15.6069 6.8685 15.5476 6.85213C15.3801 6.81615 15.2935 6.65765 15.4059 6.52612C15.3682 6.51802 15.3304 6.50616 15.2933 6.49453C15.2121 6.46905 15.1343 6.44465 15.0687 6.46317Z" fill="black"/>
<path d="M18.0191 16.2988C18.0459 16.2778 18.0769 16.2629 18.1099 16.2549C18.1082 16.2339 18.1044 16.2126 18.1007 16.1922C18.0924 16.1458 18.0848 16.1037 18.1043 16.0796C18.1319 16.0458 18.1663 16.0184 18.2054 15.9991C18.2444 15.9797 18.2871 15.9689 18.3306 15.9675C18.3742 15.966 18.4175 15.9738 18.4578 15.9904C18.498 16.007 18.5343 16.0321 18.5641 16.0638C18.6596 16.1594 18.7664 16.1527 18.7979 16.0133C18.8122 15.9498 18.8224 15.8844 18.8325 15.8195C18.8445 15.7418 18.8565 15.6646 18.8755 15.5917C18.8896 15.5374 18.9064 15.4838 18.9231 15.4304C18.9475 15.3523 18.9719 15.2742 18.9879 15.1949C19.0074 15.128 19.003 15.0565 18.9755 14.9925C18.8369 14.7377 18.7678 14.4507 18.7754 14.1607C18.7666 14.0445 18.7512 13.9289 18.7293 13.8144C18.6737 13.6461 18.636 13.4724 18.6169 13.2962C18.6009 12.995 18.4886 12.707 18.2965 12.4744C18.219 12.3795 18.1122 12.313 17.9928 12.2851C17.8735 12.2573 17.7482 12.2697 17.6367 12.3204C17.5556 12.4094 17.4441 12.4648 17.3242 12.4756C17.2495 12.4772 17.1767 12.499 17.1134 12.5385C17.0501 12.5781 16.9986 12.634 16.9644 12.7004C16.8724 12.8382 16.7722 12.9703 16.6643 13.0961C16.6228 13.1393 16.5689 13.1702 16.515 13.201C16.4624 13.2311 16.4097 13.2613 16.3686 13.3029L16.3517 13.3202C16.2202 13.4545 16.1005 13.5768 15.9032 13.4086C15.8856 13.391 15.8575 13.389 15.8293 13.3871C15.8161 13.3862 15.803 13.3852 15.7908 13.3827C15.7296 13.3727 15.6729 13.3443 15.6282 13.3014C15.5834 13.2584 15.5527 13.2029 15.5401 13.1422C15.5303 13.0979 15.5447 13.0491 15.5593 12.9996C15.568 12.97 15.5768 12.94 15.5806 12.9106L15.5821 12.8987C15.6244 12.5551 15.6259 12.5434 15.946 12.4801C16.0148 12.4662 16.0545 12.42 16.0907 12.3781C16.1189 12.3453 16.1449 12.315 16.1809 12.3047C16.3239 12.2622 16.3349 12.1748 16.348 12.0705C16.3501 12.0534 16.3523 12.0359 16.3552 12.018C16.3589 11.9954 16.3616 11.9714 16.3643 11.9471C16.3794 11.8111 16.3958 11.6639 16.6103 11.6639C16.624 11.6647 16.6377 11.6516 16.6517 11.6382C16.6584 11.6317 16.6652 11.6252 16.6722 11.6201C16.7416 11.5646 16.7958 11.4924 16.8296 11.4102C16.8635 11.328 16.8758 11.2385 16.8655 11.1502C16.8604 10.9893 16.8907 10.8293 16.9543 10.6814C17.0246 10.5425 17.0007 10.4138 16.9769 10.2857C16.9673 10.2334 16.9576 10.1811 16.9543 10.1284C16.9515 10.0827 16.9354 10.0388 16.9081 10.002C16.8807 9.96532 16.8433 9.93734 16.8003 9.92151C16.734 9.88517 16.6838 9.82524 16.6597 9.7536C16.6355 9.68197 16.6392 9.60388 16.6699 9.53481C16.7104 9.44601 16.7688 9.38754 16.8711 9.47747C16.9253 9.51533 16.9829 9.54808 17.0431 9.57528C17.0287 9.55275 17.0142 9.53408 17.0021 9.51848C16.9823 9.49286 16.9688 9.47543 16.9723 9.46286C17.003 9.34588 16.9411 9.26388 16.8829 9.18678L16.8707 9.17066L16.8599 9.15597L16.8532 9.14679C16.7912 9.06195 16.7156 8.95865 16.8599 8.81872L16.6931 8.75814C16.524 8.69657 16.3677 8.63968 16.2101 8.58602C16.1547 8.56694 16.0979 8.55102 16.0411 8.53508C15.9908 8.52097 15.9405 8.50684 15.8909 8.49048C15.8424 8.4789 15.7975 8.45532 15.7605 8.4219C15.7056 8.35811 15.6359 8.30868 15.5575 8.27792C15.4792 8.24716 15.3945 8.23601 15.3108 8.24542C15.2776 8.24376 15.2451 8.23473 15.2157 8.21898C15.1863 8.20324 15.1609 8.18116 15.1411 8.15435C15.0921 8.03526 15.0048 7.9359 14.8931 7.87198C14.7813 7.80805 14.6514 7.7832 14.5239 7.80137C14.4307 7.80659 14.3376 7.79004 14.2519 7.75304C14.1417 7.70207 14.0365 7.64111 13.9313 7.58014C13.8788 7.5497 13.8261 7.51919 13.773 7.48999C13.7494 7.47763 13.7089 7.46075 13.6965 7.47087C13.6028 7.54474 13.5032 7.5293 13.4037 7.51388C13.3458 7.5049 13.2878 7.49592 13.2312 7.50461C13.2265 7.50616 13.2218 7.51146 13.2168 7.51718C13.2146 7.51975 13.2122 7.5224 13.2098 7.52483L13.3008 7.64737C13.2563 7.7054 13.205 7.75785 13.148 7.80362C12.9793 7.90817 12.9198 8.01722 12.9602 8.18246C12.9733 8.2638 13.0171 8.33701 13.0826 8.387C13.148 8.43699 13.2302 8.45995 13.3121 8.45113C13.346 8.45553 13.3794 8.46267 13.4121 8.47249L13.4189 8.51745C13.3691 8.5405 13.3176 8.55968 13.2649 8.57479C13.1873 8.591 13.1079 8.5921 13.0284 8.59321C12.8763 8.59531 12.7235 8.59743 12.5803 8.70519C12.4589 8.79737 12.4015 8.8547 12.4443 9.00871C12.47 9.13325 12.4806 9.26045 12.4757 9.38754C12.4678 9.54473 12.4283 9.69872 12.3595 9.84029C12.2908 9.98187 12.1942 10.1081 12.0755 10.2115L12.007 10.1216L11.9002 10.2037C11.896 10.1827 11.8915 10.1622 11.8872 10.142C11.8554 9.99546 11.8277 9.86742 11.9215 9.73602C11.9368 9.71457 11.9182 9.6686 11.8995 9.62228C11.8907 9.60062 11.8819 9.57887 11.8766 9.55953H11.817L11.971 9.38529L11.8945 9.21218L12.0991 9.01096L12.062 8.96823C12.0358 8.98083 12.0066 8.99136 11.9773 9.00192C11.9125 9.02529 11.8473 9.04882 11.8125 9.09527C11.7043 9.24989 11.6088 9.41306 11.527 9.58315C11.4752 9.6832 11.4112 9.7113 11.3122 9.65734L11.2077 9.60001C11.1391 9.74165 11.0559 9.83607 10.8851 9.74164C10.8797 9.78528 10.8771 9.82921 10.8772 9.87317C10.8983 10.1708 10.8975 10.1711 10.6199 10.2632L10.6096 10.2666L10.5855 10.2742C10.5067 10.2987 10.401 10.3314 10.4478 10.433C10.5065 10.6127 10.5089 10.8061 10.4545 10.9872C10.3733 11.3782 10.1754 11.7353 9.88683 12.0113C9.87034 12.0328 9.85852 12.0575 9.85213 12.0838C9.84574 12.1101 9.84492 12.1375 9.84973 12.1642C9.87232 12.2567 9.90244 12.3478 9.93259 12.439C9.95042 12.493 9.96834 12.5472 9.98462 12.6015C10.0076 12.6732 10.0105 12.7499 9.99306 12.8232C9.97563 12.8965 9.9385 12.9637 9.8857 13.0174C9.85084 13.0583 9.82478 13.106 9.80911 13.1575C9.79345 13.2089 9.78853 13.263 9.79465 13.3164C9.8657 13.5545 9.95399 13.787 10.0588 14.0123C10.0947 14.0949 10.139 14.1741 10.1834 14.2534C10.2264 14.3304 10.2695 14.4074 10.305 14.4878C10.5192 15.0486 10.5546 15.662 10.4062 16.2437C10.3013 16.664 10.1236 17.0628 9.88121 17.4218C9.83951 17.4932 9.80088 17.5663 9.76239 17.6391C9.6173 17.9137 9.47414 18.1846 9.17748 18.3436C9.17188 18.347 9.17188 18.3626 9.17188 18.385L13.6358 18.3852L13.6696 18.5606L16.6025 18.5032C16.6499 18.392 16.7082 18.2858 16.7767 18.1862C16.8667 18.0933 16.9645 18.0083 17.069 17.9322C17.1924 17.8272 17.2123 17.6854 17.2323 17.5435C17.2391 17.4953 17.2459 17.4472 17.2567 17.4004C17.2683 17.2607 17.3252 17.1285 17.4187 17.024C17.5122 16.9195 17.6373 16.8484 17.775 16.8215C17.8033 16.8183 17.8306 16.809 17.855 16.7942C17.8794 16.7795 17.9003 16.7596 17.9163 16.736C17.9323 16.7124 17.9431 16.6857 17.9478 16.6575C17.9525 16.6294 17.951 16.6006 17.9436 16.5731C17.9312 16.5414 17.9258 16.5074 17.9277 16.4735C17.9296 16.4395 17.9387 16.4064 17.9545 16.3762C17.9702 16.3461 17.9923 16.3197 18.0191 16.2988Z" fill="black"/>
<path d="M11.9515 7.55762C12.064 7.64305 12.1505 7.90835 12.0864 7.97917L12.0788 7.98761C12.0151 8.05852 11.9245 8.15932 11.7852 8.02751L11.9515 7.55762Z" fill="black"/>
<path d="M15.1732 5.43945L14.8359 5.57323C14.8802 5.63036 14.9142 5.69138 14.9468 5.74995C15.0195 5.88041 15.0854 5.99879 15.2429 6.03525C15.1975 6.00403 15.1603 5.96237 15.1343 5.91377C15.1084 5.86517 15.0945 5.81105 15.0939 5.75596C15.0932 5.70088 15.1058 5.64644 15.1305 5.59723C15.1553 5.54802 15.1915 5.50548 15.2361 5.47318L15.1732 5.43945Z" fill="black"/>
<path d="M14.1602 7.3916L14.6345 7.50963C14.5266 7.7221 14.4929 7.71535 14.1602 7.3916Z" fill="black"/>
<path d="M12.1304 10.0353L12.2676 9.60254C12.0828 9.64911 12.0892 9.75643 12.0953 9.85989C12.0987 9.91626 12.102 9.97149 12.0742 10.0151L12.1304 10.0353Z" fill="black"/>
<path d="M10.9323 9.48165L10.8086 9.25681L10.9615 9.21973L11.0155 9.44455L10.9323 9.48165Z" fill="black"/>
<path d="M9.37109 5.43236L9.44079 5.64708L9.56669 5.61672C9.56283 5.59837 9.56029 5.5785 9.55775 5.55858C9.5455 5.46254 9.5331 5.36532 9.37109 5.43236Z" fill="black"/>
</svg>
