<svg width="20" height="20" viewBox="0 0 20 20" fill="none" xmlns="http://www.w3.org/2000/svg">
<path d="M15.4583 11.2258L15.6642 11.3833C15.4035 11.5162 15.1717 11.6995 14.9823 11.9226C14.7929 12.1456 14.6495 12.404 14.5605 12.6827L14.5233 12.6613L14.4457 12.3801L14.4176 12.3857C14.4334 12.5115 14.442 12.6381 14.4435 12.7648C14.4366 12.848 14.4137 12.929 14.376 13.0034C14.361 13.0423 14.3317 13.0741 14.294 13.0921C14.2563 13.1101 14.2132 13.113 14.1734 13.1001C14.0366 13.0774 13.8973 13.0736 13.7594 13.0889C13.5625 13.095 13.3675 13.1306 13.1811 13.1946C13.1508 13.2081 13.0686 13.1327 13.0248 13.0821C12.3137 12.3486 11.6045 11.6135 10.8972 10.877C10.8588 10.8326 10.8111 10.7972 10.7574 10.7735C10.7037 10.7498 10.6454 10.7382 10.5867 10.7397C9.92293 10.7341 9.25914 10.7195 8.59535 10.7071C8.5346 10.7071 8.47384 10.6992 8.38721 10.6936C8.52222 10.3561 8.2747 10.1873 8.1307 9.9533L7.88431 10.1063C7.8708 10.0748 7.8438 10.0422 7.85168 10.0287C7.95518 9.85317 7.8573 9.84191 7.71217 9.83179C6.99325 9.78454 6.27545 9.72828 5.55654 9.67765C5.44403 9.66978 5.33152 9.67765 5.21901 9.67765C5.16716 9.66983 5.11625 9.65664 5.06713 9.63828L4.57885 9.79354C4.54172 9.80591 4.49222 9.80929 4.46634 9.83516C4.43622 9.87295 4.39658 9.90203 4.3515 9.91943C4.30642 9.93683 4.25752 9.94192 4.20983 9.93417C4.05916 9.95551 3.91127 9.99324 3.7688 10.0467C3.63294 10.0829 3.49312 10.1022 3.35252 10.1041C2.59872 10.0793 1.84493 10.0433 1.09113 10.0107C1.063 10.0107 1.036 10.0039 1 9.9983C1.02363 9.84191 1.04613 9.69228 1.07088 9.54265C1.09563 9.39301 1.19126 9.33001 1.3454 9.37389C1.41221 9.39509 1.4826 9.40274 1.55241 9.39639C1.65479 9.38964 1.72905 9.36826 1.73467 9.2175C1.73762 9.13858 1.75963 9.06155 1.79881 8.99298C1.83799 8.92441 1.89319 8.86634 1.95968 8.82373C2.21055 8.64844 2.51581 8.56863 2.82036 8.59871C2.93287 8.59871 3.04538 8.48621 3.14888 8.41645C3.31764 8.31069 3.47965 8.19144 3.65517 8.09918C3.75034 8.0682 3.84985 8.05263 3.94993 8.05305L4.00169 8.11268C4.04886 7.98298 4.1041 7.85635 4.16707 7.73353C4.21509 7.67935 4.2802 7.64323 4.35158 7.63115C4.43821 7.55015 4.51922 7.46239 4.6126 7.39039C4.70598 7.31838 4.76111 7.33301 4.74873 7.46914C4.74873 7.51189 4.75661 7.58165 4.78249 7.59627C4.80584 7.60206 4.83019 7.60254 4.85375 7.59767C4.87731 7.59281 4.89948 7.58272 4.91862 7.56815C4.98349 7.52298 5.03733 7.46375 5.07613 7.39489C5.17176 7.19012 5.37877 7.19687 5.54753 7.14512C5.59479 7.1305 5.67579 7.22163 5.7658 7.31051C5.85553 7.2277 5.94042 7.1398 6.02006 7.04724C6.08644 6.96399 6.11794 6.8526 6.18882 6.77272C6.28221 6.66697 6.39134 6.56234 6.53985 6.68947C6.56685 6.48696 6.5871 6.30357 6.61635 6.12693C6.63885 5.9908 6.74123 5.99417 6.85149 6.0043C8.62173 6.15015 10.3985 6.20197 12.1742 6.15956C14.1712 6.12693 16.1682 6.0628 18.1652 6.01443H18.2507C18.1787 6.23156 18.4397 6.29344 18.406 6.48583L18.4566 6.47233L18.4915 6.40708L18.8144 7.2385L18.7671 7.2655C18.7334 7.20138 18.7007 7.13725 18.6681 7.07199C18.6355 7.00674 18.5995 6.93023 18.5635 6.86048C18.5275 6.79072 18.4881 6.72097 18.4397 6.63546C18.4622 6.77947 18.4802 6.89873 18.505 7.06074L18.0257 6.70072L18.0066 6.72885L18.3306 7.08324C18.248 7.12935 18.1519 7.14503 18.059 7.12755C17.9661 7.11008 17.8822 7.06056 17.8221 6.98761L17.9661 7.21263L17.9458 7.25088L17.4958 7.02586L17.4812 7.04724L17.7467 7.2385L17.534 7.261L17.5565 7.28576C17.4865 7.35181 17.4068 7.40682 17.3203 7.44889C17.2708 7.46577 17.1943 7.40051 17.1065 7.36226C17.0638 7.38589 17.0086 7.43426 16.9625 7.28688C16.9255 7.21168 16.9084 7.12827 16.9127 7.04459C16.9171 6.9609 16.9427 6.87971 16.9872 6.80873C17.0041 6.78397 16.9872 6.7311 16.9782 6.69622H16.9164C16.8995 6.87623 16.8759 7.05624 16.8691 7.23625C16.8691 7.29251 16.9141 7.34876 16.9276 7.40839C16.9411 7.46802 16.9512 7.55915 16.9681 7.68516C17.102 7.6604 17.2775 7.62328 17.4553 7.5974C17.5182 7.59538 17.5812 7.59991 17.6432 7.6109C17.7062 7.6109 17.7613 7.68628 17.8277 7.5749C17.9121 7.43201 18.2462 7.42639 18.3801 7.5389L18.3002 7.61428L18.3598 7.64578C18.334 7.88092 18.3103 8.10256 18.2845 8.33207L18.4532 8.3737C18.469 8.20381 18.4847 8.03618 18.4982 7.87529C18.514 7.68853 18.5691 7.63228 18.7536 7.62215L18.7154 7.52427L18.7604 7.48939C18.82 7.56477 18.9077 7.63115 18.9325 7.71441C18.9709 7.87418 18.9935 8.03736 19 8.20156C19 8.22181 18.9291 8.24882 18.8717 8.28482L18.9404 8.43783L18.8279 8.58859L18.6602 8.50533C18.5477 8.66059 18.4206 8.8271 18.2991 8.99699C18.2642 9.04649 18.253 9.12412 18.208 9.1545C18.0493 9.267 17.8986 9.17362 17.7332 9.11849L17.6769 9.21413L17.579 8.93961L17.39 9.11062L17.3574 8.86985L17.3945 8.86085L17.2528 8.77535C17.3439 8.72585 17.5217 8.83273 17.4778 8.65159H17.057L17.1583 8.73822L16.9839 8.85073C17.2629 8.77872 17.12 8.96886 17.2213 9.06112L16.4 8.90698L16.4135 8.98011L17.1054 9.28276L17.1493 9.38176C17.1808 9.33901 17.219 9.26925 17.2348 9.26925C17.3081 9.29405 17.3774 9.32929 17.4407 9.37389C17.4393 9.41032 17.425 9.44506 17.4002 9.47177C17.2989 9.53702 17.1898 9.58427 17.0874 9.65178C17.0577 9.67768 17.0323 9.70805 17.012 9.74178L17.3293 9.70016L17.3518 9.72828L17.1391 9.85992L17.2258 9.90829C17.0975 10.0073 16.9715 10.1074 16.8421 10.2031C16.8301 10.2094 16.8168 10.2127 16.8033 10.2127C16.7898 10.2127 16.7765 10.2094 16.7645 10.2031C16.6464 10.0906 16.5316 9.9848 16.418 9.87342C16.3718 9.82729 16.3291 9.77779 16.2661 9.71028C16.283 9.82279 16.292 9.88579 16.3043 9.96342L16.3527 9.94092L16.6081 10.3246C16.6365 10.3105 16.6674 10.3023 16.699 10.3003C16.7306 10.2984 16.7623 10.3028 16.7921 10.3133C16.822 10.3237 16.8495 10.3401 16.8729 10.3614C16.8964 10.3826 16.9154 10.4084 16.9287 10.4371C17.0064 10.3763 17.0154 10.1783 17.1796 10.3077L17.228 10.1569L17.3405 10.2413L17.3878 10.1176L17.4935 10.1761L17.5577 9.88354C17.6184 10.0388 17.6578 10.1491 17.5385 10.2649L17.5768 10.2886L17.8524 10.1142C17.8783 10.1596 17.8952 10.2097 17.9019 10.2616C17.9019 10.2908 17.8299 10.3212 17.8153 10.3741C17.8007 10.427 17.7759 10.4686 17.7534 10.4697C17.6679 10.4697 17.6409 10.5361 17.6094 10.5923C17.5498 10.688 17.4879 10.7825 17.4024 10.913L17.282 10.7397L17.2055 10.9726L17.0863 10.7622C17.0368 10.8387 17.0019 10.9265 16.9737 10.9231C16.7599 10.8941 16.5424 10.9302 16.3493 11.0266C16.3273 11.0341 16.304 11.0376 16.2807 11.0367L16.1941 10.8309C16.2402 11.1684 15.8813 11.1762 15.798 11.4013L15.6259 11.2753C15.6504 11.2468 15.6676 11.2128 15.6761 11.1762C15.6846 11.1397 15.6842 11.1016 15.6748 11.0652C15.6654 11.0288 15.6473 10.9953 15.6222 10.9674C15.597 10.9395 15.5655 10.9182 15.5303 10.9051C15.438 11.0007 15.7868 11.1571 15.4583 11.2258Z" fill="black"/>
</svg>
