<svg width="20" height="20" viewBox="0 0 20 20" fill="none" xmlns="http://www.w3.org/2000/svg">
<path d="M1.05513 15.8194C1.03713 12.2092 1.018 8.61022 1 5H17.3624C17.4637 5.35326 17.5728 5.70427 17.6617 6.05978C17.6861 6.16528 17.6771 6.27578 17.6358 6.37591C17.5697 6.5213 17.5561 6.68516 17.5975 6.83942C17.6114 6.95564 17.6114 7.07309 17.5975 7.18931C17.594 7.21393 17.594 7.23893 17.5975 7.26356C17.6446 7.49257 17.6557 7.72754 17.6302 7.95995C17.6366 8.07571 17.6617 8.18968 17.7044 8.29746C17.7697 8.48421 17.8541 8.66422 17.9159 8.8521C17.9396 8.92297 17.9058 9.01185 17.9294 9.0771C17.9958 9.27286 18.0813 9.46074 18.1544 9.65424C18.2641 9.93369 18.3027 10.236 18.2669 10.534C18.2655 10.5963 18.2731 10.6584 18.2894 10.7185C18.299 10.7461 18.3069 10.7743 18.3131 10.8029C18.3221 11.0808 18.3243 11.3598 18.3389 11.6377C18.3502 11.848 18.3738 12.0596 18.3997 12.2688C18.3997 12.3059 18.4458 12.3374 18.4661 12.3734C18.4863 12.4094 18.5066 12.4398 18.4976 12.4589C18.3614 12.7436 18.4976 13.0485 18.4312 13.3376C18.4279 13.3471 18.4279 13.3574 18.4312 13.3668C18.6191 13.7043 18.5257 14.1544 18.8475 14.439C18.8808 14.4763 18.9017 14.5231 18.9071 14.5729C18.9408 14.7866 18.969 15.0015 18.9971 15.2164C19.001 15.256 19.001 15.296 18.9971 15.3356C18.987 15.4909 18.9735 15.6473 18.9611 15.8183L1.05513 15.8194Z" fill="black"/>
</svg>
