<svg width="20" height="20" viewBox="0 0 20 20" fill="none" xmlns="http://www.w3.org/2000/svg">
<path d="M5.09613 14.2867V11.5283H1C1.14062 9.6765 1.279 7.8495 1.41737 6.0135C1.45903 6.00625 1.50113 6.00174 1.54338 6L10.3184 6.17212C10.9225 6.18338 11.5221 6.216 12.1229 6.20138C12.2384 6.20108 12.3515 6.23514 12.4476 6.29925C12.5438 6.36335 12.6187 6.45459 12.6629 6.56138C12.7124 6.64463 12.7551 6.68625 12.8496 6.67387C12.8766 6.67387 12.9205 6.66712 12.934 6.68287C13.1196 6.8955 13.3086 6.73125 13.4965 6.69075C13.7035 6.64575 13.9082 6.58388 14.1175 6.5535C14.3254 6.52698 14.5346 6.5127 14.7441 6.51075C14.773 6.50942 14.8017 6.51447 14.8284 6.52556C14.855 6.53665 14.8789 6.55349 14.8983 6.57487C15.0299 6.82237 15.2898 6.88763 15.5013 7.02488C15.5249 7.0395 15.5586 7.04062 15.5822 7.05525C15.7186 7.15314 15.8619 7.24111 16.0109 7.3185C16.1685 7.37309 16.3303 7.41485 16.4946 7.44337L16.3889 7.90125C16.6285 7.93725 16.6465 8.11162 16.6892 8.29387C16.7267 8.45483 16.8041 8.60378 16.9142 8.727C16.9973 8.80459 17.0593 8.90187 17.0947 9.00983C17.1301 9.1178 17.1377 9.23295 17.1168 9.34462C17.1005 9.45418 17.0911 9.56465 17.0886 9.67538C17.0785 9.75756 17.0971 9.84073 17.1415 9.91069C17.1858 9.98064 17.253 10.0331 17.3316 10.059C17.4492 10.1051 17.5498 10.1861 17.62 10.2911C17.6902 10.3961 17.7265 10.52 17.7243 10.6463C17.7524 10.9703 17.794 11.2931 17.8165 11.6171C17.8255 11.742 17.7861 11.8702 17.7884 11.9963C17.7897 12.0907 17.8096 12.184 17.8469 12.2708C17.9057 12.3952 17.9741 12.5148 18.0516 12.6285C18.1169 12.7298 18.1956 12.822 18.2676 12.9176L18.3081 12.8929L18.388 13.4554C18.5283 13.5135 18.655 13.5999 18.7604 13.7093C18.8657 13.8187 18.9473 13.9486 19 14.091L5.09613 14.2867Z" fill="black"/>
</svg>
