<svg width="20" height="20" viewBox="0 0 20 20" fill="none" xmlns="http://www.w3.org/2000/svg">
<path d="M10.276 1.23643C10.3879 1.30774 10.4999 1.37918 10.6124 1.45007C11.8291 2.19044 13.0465 2.93044 14.2647 3.67006C14.3693 3.73307 14.411 3.80733 14.3772 3.91084C14.2954 4.21853 14.1901 4.51947 14.0622 4.81099C13.9136 5.06418 13.8104 5.3414 13.7572 5.63012C13.7431 5.69267 13.711 5.74974 13.665 5.7944C13.5645 5.90539 13.4578 6.01057 13.3454 6.10945C13.2821 6.1476 13.214 6.17711 13.1429 6.19721L13.2385 5.83153L13.1913 5.80002L13.045 5.98568L13.0167 6.02231C12.9699 6.08259 12.9236 6.14237 12.8796 6.21071C12.8072 6.30842 12.7486 6.41556 12.7052 6.52914C12.6687 6.69829 12.5861 6.85405 12.4667 6.97921C12.4235 7.01997 12.4181 7.10114 12.4127 7.182C12.4103 7.21723 12.408 7.25239 12.4025 7.28414C12.3999 7.33857 12.3912 7.39254 12.3766 7.44504C12.3609 7.47264 12.3517 7.50344 12.3495 7.53513C12.3474 7.56682 12.3525 7.59858 12.3644 7.62803C12.3763 7.65747 12.3948 7.68384 12.4183 7.70515C12.4419 7.72647 12.4699 7.74217 12.5004 7.75109C12.6652 7.80664 12.8385 7.83254 13.0124 7.8276C13.2786 7.88257 13.5385 7.96515 13.7876 8.07402C13.8463 8.09904 13.9074 8.11789 13.9699 8.13027C13.9567 8.08454 13.9385 8.04084 13.9207 7.99811C13.8764 7.89155 13.8346 7.79103 13.8788 7.6802L13.9474 7.66107C13.9919 7.75909 14.0255 7.86173 14.0475 7.96712C14.0725 8.22049 14.0868 8.47537 14.1011 8.7299L14.1105 8.8954C14.118 8.93979 14.1129 8.98536 14.0959 9.02704C13.9559 9.40687 13.8398 9.79506 13.7482 10.1894C13.7089 10.276 13.6695 10.3615 13.629 10.447C13.7007 10.5085 13.7494 10.5925 13.7672 10.6853C13.785 10.7781 13.7708 10.8742 13.7269 10.9579C13.6703 11.1724 13.6278 11.3904 13.5997 11.6105C13.5423 11.9548 13.4872 12.2991 13.4343 12.6434C13.4343 12.6585 13.4234 12.6723 13.4065 12.6938C13.3957 12.7076 13.3824 12.7245 13.3679 12.7469L13.3859 12.4926C13.4076 12.182 13.4279 11.8917 13.4546 11.6015C13.4581 11.5619 13.4766 11.5238 13.4953 11.4855C13.5127 11.4498 13.5301 11.4139 13.5356 11.3764C13.5626 11.1863 13.5783 10.9939 13.5907 10.8026C13.5907 10.7772 13.5774 10.7504 13.5611 10.7178C13.5529 10.7012 13.5439 10.6831 13.5356 10.6631L13.4231 10.7564C13.4358 10.7744 13.4513 10.7929 13.4659 10.8104C13.4952 10.8453 13.521 10.8761 13.5142 10.8903C13.4688 10.9687 13.4065 11.036 13.3319 11.0873C13.313 11.0983 13.2911 11.1048 13.2691 11.1114C13.2126 11.1282 13.1555 11.1452 13.1474 11.2392L13.2959 11.2605L13.1429 11.6273L13.3544 11.7185C13.2751 11.7681 13.2122 11.8401 13.1738 11.9254C13.1354 12.0107 13.123 12.1055 13.1384 12.1978C13.1384 12.2197 13.1246 12.2426 13.1107 12.2658C13.1031 12.2783 13.0955 12.291 13.09 12.3036C13.0633 12.3618 13.0357 12.4198 13.0081 12.4779C12.9589 12.5812 12.9096 12.6849 12.865 12.7908C12.8355 12.8442 12.8278 12.9069 12.8436 12.9658C12.8593 13.0248 12.8972 13.0753 12.9494 13.107C12.9741 13.1238 12.9809 13.2082 12.9629 13.2442C12.895 13.3773 12.8199 13.5065 12.7378 13.6313C12.7021 13.6713 12.6612 13.7065 12.6163 13.7359C12.5979 13.7515 12.58 13.7673 12.5622 13.7829C12.5364 13.8056 12.5111 13.8278 12.4858 13.8484C12.4137 13.9286 12.3363 14.0038 12.254 14.0735C12.1837 14.1184 12.1324 14.1877 12.1102 14.2681C12.088 14.3485 12.0963 14.4343 12.1336 14.5089C12.1396 14.5206 12.1471 14.5324 12.1546 14.5443C12.1725 14.5727 12.1907 14.6016 12.1899 14.6293C12.1891 14.6569 12.1696 14.685 12.1502 14.7128C12.1419 14.7248 12.1336 14.7368 12.1269 14.7486C12.119 14.74 12.1098 14.7318 12.1007 14.7237C12.0825 14.7075 12.0642 14.6912 12.056 14.671C12.0322 14.6053 11.9863 14.55 11.926 14.5147C11.8658 14.4794 11.7952 14.4662 11.7263 14.4774C11.665 14.4726 11.6047 14.459 11.5474 14.4369C11.5321 14.5135 11.5336 14.5924 11.5517 14.6683C11.5697 14.7442 11.604 14.8154 11.652 14.8769C11.6847 14.9111 11.6678 14.9923 11.6514 15.0715C11.644 15.1067 11.6368 15.1415 11.634 15.1717C11.5937 15.1717 11.5533 15.1677 11.5156 15.164C11.4396 15.1566 11.3746 15.1502 11.3437 15.1795C11.266 15.2789 11.2034 15.3892 11.1581 15.507C11.3584 15.507 11.409 15.5643 11.4956 15.8445L10.8734 16.1956L10.8329 16.1562L11.0996 15.7984L10.9612 15.6982C10.933 15.7399 10.8997 15.7781 10.8667 15.8158C10.776 15.9198 10.6878 16.0209 10.7159 16.1843C10.6487 16.2016 10.5769 16.1978 10.5053 16.194C10.3674 16.1866 10.2304 16.1793 10.1297 16.3238C10.2124 16.3865 10.3103 16.426 10.4134 16.438C10.5165 16.4501 10.6209 16.4344 10.7159 16.3925C10.5381 16.5538 10.3715 16.7271 10.2174 16.9112C10.0909 17.1009 9.97806 17.2995 9.87986 17.5053L9.64583 17.566L9.6582 17.6088C9.85736 17.6729 9.86749 17.7213 9.72684 17.8822C9.7006 17.9127 9.67817 17.9475 9.65571 17.9822C9.59532 18.0757 9.53473 18.1695 9.39941 18.1826C9.38703 18.1826 9.36678 18.2243 9.37016 18.2412C9.42346 18.4977 9.24006 18.6249 9.07626 18.7385L9.06973 18.743C8.90505 18.8461 8.72961 18.931 8.54652 18.9962C8.51921 19.0016 8.49105 19.0013 8.4639 18.9951C8.43674 18.9888 8.41121 18.9769 8.389 18.9601C8.37557 18.9504 8.37995 18.916 8.38442 18.8808C8.3867 18.8629 8.389 18.8448 8.389 18.8296C8.389 18.8058 8.39811 18.7883 8.40637 18.7725C8.41374 18.7583 8.42044 18.7455 8.41938 18.7306C8.443 18.3962 8.54308 18.0717 8.71193 17.7821C8.77362 17.6474 8.79548 17.4979 8.77494 17.3511C8.71418 17.0811 8.52065 17.0035 8.21235 17.0721C8.16316 17.0828 8.11398 17.0904 8.06576 17.0979L8.0582 17.0991C8.00644 16.8921 7.83316 16.8471 7.60812 16.9719C7.57502 16.9943 7.54309 17.0183 7.51248 17.044C7.39996 17.1295 7.20306 17.0608 7.21656 16.9224C7.23453 16.7301 7.12187 16.657 7.00642 16.582C6.97733 16.5631 6.94804 16.5441 6.92064 16.523C6.91065 16.5151 6.89744 16.5084 6.88453 16.5019C6.86251 16.4908 6.84133 16.4801 6.8385 16.4645C6.80273 16.3069 6.69591 16.2981 6.56105 16.2869L6.55833 16.2867C6.49307 16.2867 6.42218 16.1899 6.37717 16.1224C6.3644 16.1033 6.35399 16.0818 6.34381 16.0607C6.30734 15.9854 6.2738 15.9161 6.14539 15.9829C6.12851 15.9919 6.07675 15.9559 6.052 15.93C5.79171 15.6622 5.53254 15.3929 5.2745 15.1222C5.23029 15.0827 5.19235 15.0368 5.16198 14.986C5.15794 14.9776 5.15318 14.9693 5.14843 14.961C5.12402 14.9186 5.0996 14.8762 5.17211 14.8094C5.22863 14.7036 5.25378 14.5838 5.24461 14.4643C5.23544 14.3447 5.19233 14.2302 5.12035 14.1342C4.95044 13.9553 4.95832 13.9092 5.15748 13.7607C5.21652 13.7204 5.25891 13.66 5.27675 13.5908C5.30704 13.4616 5.37475 13.3442 5.4714 13.2532C5.47686 13.2465 5.48309 13.2395 5.48944 13.2324C5.5106 13.2086 5.53303 13.1835 5.53216 13.161C5.53578 13.0452 5.56836 12.9323 5.62694 12.8324C5.68552 12.7326 5.76822 12.649 5.86747 12.5894C6.1131 12.3882 6.41083 12.261 6.72598 12.2226C6.80833 12.211 6.88826 12.1789 6.96814 12.1467C7.05198 12.113 7.13575 12.0793 7.22219 12.0695C7.35265 12.0547 7.4347 11.9761 7.51616 11.898C7.54009 11.8751 7.56396 11.8522 7.58899 11.831L7.49786 11.5666C7.60935 11.5065 7.71165 11.4307 7.80165 11.3415C7.89757 11.1487 8.05632 10.9944 8.25173 10.9038C8.29272 10.8852 8.32777 10.8556 8.35299 10.8183C8.48834 10.6771 8.64904 10.5626 8.82669 10.4808C9.04911 10.3552 9.27952 10.2443 9.51643 10.1488C9.74147 10.0498 9.75834 9.89006 9.59519 9.7089C9.46738 9.56383 9.33484 9.42021 9.20213 9.2764C9.10121 9.16704 9.00009 9.05747 8.90096 8.94716C8.88302 8.92717 8.86975 8.90204 8.85657 8.87709C8.84083 8.84728 8.82522 8.81772 8.80194 8.79751C8.56878 8.62807 8.40807 8.37696 8.35187 8.09427C8.33391 8.08602 8.31502 8.07998 8.29561 8.07627C8.26725 8.07881 8.23373 8.08582 8.20028 8.09281C8.13019 8.10746 8.06039 8.12205 8.03907 8.09539C7.93737 7.98471 7.86063 7.85348 7.81403 7.71058C7.78461 7.56852 7.77177 7.42353 7.77577 7.27851C7.77532 7.22327 7.76258 7.16883 7.73849 7.11912C7.71439 7.06941 7.67954 7.02568 7.63645 6.99111C7.59337 6.95654 7.54313 6.93198 7.48939 6.91922C7.43564 6.90646 7.37973 6.90581 7.3257 6.91733C7.1828 6.94321 7.11642 6.90833 7.10967 6.76205C7.10629 6.686 7.101 6.61011 7.09572 6.53425C7.08694 6.40811 7.07816 6.28205 7.07816 6.15558C7.07497 5.94754 7.08738 5.73954 7.11529 5.53336C7.12452 5.47262 7.16579 5.41713 7.20716 5.36152C7.22634 5.33574 7.24553 5.30993 7.26157 5.28357C7.51811 5.32745 7.57662 5.28357 7.62613 5.02927C7.64226 4.94899 7.68135 4.87512 7.73864 4.81662C7.78553 4.78184 7.81883 4.7318 7.83279 4.67511C7.84676 4.61843 7.84052 4.55865 7.81516 4.50606C7.74037 4.3681 7.6443 4.2428 7.53049 4.13476C7.49247 4.10477 7.46162 4.06668 7.4402 4.02326C7.41879 3.97983 7.40734 3.93218 7.40669 3.88376C7.40604 3.83535 7.41621 3.7874 7.43646 3.74342C7.45671 3.69944 7.48653 3.66053 7.52373 3.62955C7.59258 3.56436 7.67262 3.51214 7.76002 3.4754C7.88412 3.43197 7.9961 3.35963 8.08669 3.26434C8.17728 3.16905 8.24388 3.05357 8.28098 2.92744C8.29492 2.89555 8.31803 2.86852 8.34737 2.8498C8.68442 2.59844 8.91745 2.23208 9.00222 1.82026C9.03978 1.71542 9.09413 1.61738 9.16312 1.52996C9.23471 1.42307 9.31938 1.32555 9.41516 1.23966C9.50392 1.17987 9.59902 1.13006 9.69871 1.09114L9.87649 1H9.90349C10.0278 1.07815 10.1518 1.15724 10.276 1.23643Z" fill="black"/>
<path d="M11.3596 15.3659C11.4031 15.392 11.4432 15.4233 11.4789 15.4593C11.5633 15.5718 11.6263 15.565 11.6803 15.4402C11.7156 15.3586 11.7446 15.2848 11.779 15.1973C11.7972 15.1508 11.8171 15.1003 11.8401 15.043L12.1349 15.0632C12.0552 15.2055 11.9649 15.3417 11.8648 15.4705C11.7938 15.5454 11.7008 15.5958 11.5993 15.6146C11.4575 15.6382 11.3743 15.5324 11.3281 15.4098L11.3596 15.3659Z" fill="black"/>
<path d="M12.882 13.8403C13.1057 13.5973 13.2416 13.2863 13.2679 12.957C13.2232 13.0433 13.179 13.1298 13.1348 13.2162C13.0391 13.4038 12.9435 13.591 12.8426 13.7751C12.6564 14.0218 12.5189 14.3017 12.4375 14.5998C12.5045 14.5006 12.5599 14.396 12.6154 14.2912C12.6354 14.2534 12.6554 14.2155 12.676 14.1779C12.727 14.0555 12.7964 13.9416 12.882 13.8403Z" fill="black"/>
</svg>
