<svg width="20" height="20" viewBox="0 0 20 20" fill="none" xmlns="http://www.w3.org/2000/svg">
<path d="M4.2948 1L15.835 1.0405C15.8474 1.40388 15.862 1.78413 15.8722 2.1655C15.9644 5.34025 16.0563 8.515 16.1478 11.6897C16.1894 13.1027 16.2412 14.5146 16.285 15.9276C16.2794 15.9846 16.263 16.0399 16.2367 16.0907C16.1815 16.2314 16.1242 16.3709 16.0612 16.525C15.9104 16.4688 15.7664 16.4046 15.6112 16.3619C15.4582 16.3124 15.3 16.2811 15.1398 16.2685C15.0818 16.2594 15.0225 16.2683 14.9697 16.294C14.917 16.3197 14.8734 16.361 14.8448 16.4122C14.8162 16.4635 14.8041 16.5223 14.8099 16.5807C14.8158 16.639 14.8395 16.6942 14.8777 16.7387C14.9499 16.8714 14.9886 17.0197 14.9902 17.1707C15.0083 17.5347 15.0508 17.897 15.1173 18.2553C15.1566 18.5049 15.135 18.7605 15.0543 19C15.0297 18.985 15.006 18.9684 14.9834 18.9505C12.4117 16.5835 9.84142 14.2184 7.27267 11.8551C6.20392 10.8651 5.1678 9.84025 4.11367 8.8345C4.07456 8.80189 4.0439 8.7603 4.02432 8.71329C4.00473 8.66628 3.99679 8.61524 4.00117 8.5645C4.05405 7.2505 4.10017 5.9365 4.14967 4.627C4.19617 3.4345 4.24155 2.24387 4.2858 1.05512C4.28702 1.0365 4.29003 1.01804 4.2948 1V1Z" fill="black"/>
</svg>
