<svg width="20" height="20" viewBox="0 0 20 20" fill="none" xmlns="http://www.w3.org/2000/svg">
<path fill-rule="evenodd" clip-rule="evenodd" d="M6.83391 12.3055C6.66179 12.2908 6.53355 12.229 6.52905 12.0355C6.52905 11.8874 6.4102 11.8094 6.31413 11.7464C6.30001 11.7371 6.28638 11.7282 6.27369 11.7194C6.12169 11.6148 6.16974 11.4867 6.20432 11.3946C6.20915 11.3818 6.21372 11.3696 6.21744 11.3583C6.26694 11.2087 6.24669 11.1333 6.1207 11.0579C6.03864 11.0016 5.9696 10.9283 5.91821 10.8431C5.87157 10.7606 5.80893 10.6883 5.73399 10.6303C5.65904 10.5724 5.57328 10.53 5.48174 10.5056C5.41714 10.488 5.35792 10.4546 5.30942 10.4085C5.26092 10.3623 5.22465 10.3049 5.20388 10.2412C5.12794 9.93841 4.95968 9.66675 4.7224 9.46388C4.62596 9.40102 4.53216 9.33421 4.43847 9.26748L4.3523 9.20627C4.08447 9.02314 3.86985 8.77243 3.73021 8.47956C3.625 8.30381 3.51008 8.13405 3.38598 7.97109C3.31505 7.87498 3.26871 7.76299 3.25099 7.64486C3.23313 7.4108 3.14709 7.1871 3.0035 7.0014C2.93368 6.90225 2.88225 6.79137 2.85164 6.67404C2.77289 6.34331 2.70089 6.27469 2.36791 6.33656C2.29153 6.35061 2.21267 6.3405 2.1423 6.30763C2.07193 6.27477 2.01356 6.22079 1.97531 6.1532L1.94546 6.11435C1.84282 5.98074 1.73918 5.84583 1.62433 5.7156C1.60964 5.7009 1.58695 5.69554 1.5646 5.69026C1.54589 5.68583 1.52742 5.68146 1.51409 5.67172L1.48733 5.65275C1.32991 5.54114 1.17403 5.43062 1.02924 5.30499C0.994367 5.27575 0.994367 5.17675 1.01012 5.1205C1.10466 4.86988 1.25554 4.64434 1.45109 4.46129C1.54166 4.36582 1.65341 4.29299 1.77732 4.24868C1.81863 4.23802 1.85549 4.21453 1.88258 4.18157C1.90968 4.14861 1.9256 4.10791 1.92806 4.06531C1.93528 4.01655 1.95744 3.97121 1.99149 3.93556C2.02553 3.8999 2.06979 3.87567 2.11818 3.8662C2.30179 3.81649 2.48305 3.75896 2.66428 3.70145C2.79061 3.66136 2.91693 3.62127 3.044 3.58384C3.06001 3.57916 3.07564 3.5727 3.09138 3.5662C3.14752 3.543 3.20503 3.51924 3.28586 3.57372C3.31577 3.59474 3.39738 3.54198 3.47559 3.49142C3.50622 3.47162 3.53632 3.45216 3.5626 3.4376C3.57031 3.43374 3.57533 3.42313 3.58016 3.41291C3.58518 3.40228 3.59001 3.39207 3.59747 3.39035C3.70232 3.3616 3.80781 3.33444 3.91316 3.30732C4.08811 3.26227 4.26268 3.21732 4.4333 3.16537C4.51953 3.12238 4.59879 3.06663 4.66841 3L4.72578 3.11249H4.88439C5.22188 3.11249 5.54923 3.11249 5.88109 3.13049C7.00602 3.19911 8.13771 3.27673 9.26602 3.35548C9.34364 3.35548 9.42239 3.36335 9.49888 3.37123C9.66312 3.3881 9.70924 3.4691 9.65862 3.62884C9.64061 3.70279 9.6282 3.778 9.6215 3.85383L9.67212 3.86845L10.0883 3.60184C10.1354 3.66736 10.1827 3.73233 10.2299 3.79715C10.3634 3.98053 10.496 4.16268 10.6182 4.35217C10.6468 4.39599 10.6389 4.46443 10.6312 4.53053C10.6286 4.55267 10.6261 4.57455 10.6249 4.59516C10.6202 4.66797 10.6115 4.74077 10.6025 4.81671C10.5987 4.84872 10.5949 4.88129 10.5912 4.91464C10.6279 4.91464 10.6595 4.91722 10.689 4.91964C10.7111 4.92145 10.732 4.92316 10.7532 4.92364L11.6195 4.93698C12.6239 4.95232 13.6287 4.96767 14.6308 4.98776C14.7273 4.99369 14.8185 5.03353 14.8884 5.10026C16.2106 6.42318 17.5279 7.75173 18.8403 9.0859C18.9089 9.16695 18.9626 9.2595 18.999 9.35926C19.008 9.37951 18.9562 9.44926 18.9202 9.46163C17.9932 9.84459 17.2492 10.5697 16.8425 11.4865C16.7982 11.5952 16.7657 11.7083 16.7457 11.824L16.6951 11.8049C16.6831 12.0126 16.6715 12.2192 16.6602 12.4247L16.6186 12.4337L16.5612 12.0197H16.4915L16.3092 12.0107C16.3331 11.9622 16.3505 11.9108 16.361 11.8577C16.3593 11.7871 16.3514 11.7167 16.3374 11.6474C16.1326 11.9264 16.1754 12.1277 16.4499 12.2773C16.4862 12.3057 16.5158 12.3416 16.5367 12.3826C16.5576 12.4236 16.5693 12.4687 16.5709 12.5147C16.5725 12.5607 16.564 12.6065 16.546 12.6489C16.528 12.6913 16.501 12.7292 16.4667 12.7599C16.4191 12.6938 16.3664 12.6314 16.3092 12.5732C16.2985 12.5639 16.2708 12.5729 16.2334 12.585C16.2122 12.5918 16.1879 12.5997 16.1619 12.6058C16.1906 12.6219 16.2209 12.6337 16.2498 12.645C16.3339 12.6778 16.4053 12.7056 16.3869 12.8196L16.136 12.6947L16.1281 12.7149C16.1412 12.7291 16.1584 12.7446 16.1754 12.7599C16.2083 12.7896 16.2406 12.8186 16.2406 12.8364C16.2281 12.8766 16.1907 12.9092 16.1534 12.9418C16.1405 12.9531 16.1276 12.9644 16.1158 12.9759C16.1022 12.9857 16.0869 12.9929 16.0708 12.9973C15.8536 13.0862 15.8536 13.0862 15.9256 13.2875L15.5105 13.3865C15.499 13.3723 15.4877 13.3551 15.4762 13.3375C15.4486 13.2954 15.4199 13.2516 15.3834 13.2437C15.3492 13.2426 15.3151 13.2488 15.2834 13.262C15.2518 13.2752 15.2234 13.295 15.2001 13.3202C15.138 13.369 15.0917 13.4351 15.0671 13.5102C15.0424 13.5852 15.0406 13.6659 15.0617 13.742L15.1989 13.697L15.2304 13.7341C15.194 13.7745 15.152 13.8093 15.1056 13.8376C15.0058 13.8639 14.9132 13.9121 14.8344 13.9787C14.7556 14.0452 14.6926 14.1285 14.65 14.2224C14.6384 14.2551 14.5931 14.2789 14.556 14.2984L14.5487 14.3022C14.4307 14.3643 14.3109 14.4236 14.2033 14.4768L14.1696 14.4935L13.9379 14.2977L14.0177 14.0086L13.8996 14.1447L13.7219 13.9389L13.8344 14.372L13.7849 14.3956L13.6724 14.2235L13.6454 14.2415C13.6815 14.3145 13.7289 14.3813 13.786 14.4395C13.8715 14.4898 13.9625 14.5302 14.0571 14.5598C13.9986 14.8726 13.7781 14.9682 13.5025 15.0098L13.5745 15.1324C13.1821 15.118 12.8766 15.2979 12.5677 15.4798C12.3948 15.5816 12.2209 15.684 12.03 15.7534L12.0502 15.6004C11.7735 15.7376 11.6486 15.5723 11.5249 15.3687L11.6036 15.5937L11.5721 15.6252L11.3674 15.4002L11.4248 15.6252L11.0074 15.5487L10.9838 15.5745C10.9903 15.5814 10.9966 15.5896 11.0028 15.5977C11.0169 15.6162 11.0311 15.6348 11.049 15.6387C11.1272 15.6559 11.2059 15.6684 11.2848 15.6809C11.3138 15.6855 11.3429 15.6901 11.3719 15.6949C11.385 15.6949 11.4007 15.6989 11.4157 15.7028C11.438 15.7084 11.4588 15.7138 11.4675 15.705C11.5447 15.6278 11.5965 15.663 11.6632 15.7082C11.6937 15.7289 11.7273 15.7517 11.7679 15.7669L11.3708 15.8479V15.8794C11.472 15.8794 11.5744 15.8794 11.6734 15.8963C11.7172 15.8976 11.7599 15.91 11.7977 15.9323C11.8354 15.9546 11.867 15.986 11.8894 16.0236C11.9118 16.0613 11.9244 16.104 11.926 16.1478C11.9275 16.1916 11.918 16.2351 11.8984 16.2742C11.888 16.2936 11.8697 16.309 11.8487 16.3266C11.838 16.3357 11.8266 16.3453 11.8151 16.3564L11.8747 16.4599L11.1345 16.7467L11.0839 16.2585C10.9507 16.1963 10.977 16.0978 11.0036 15.9985C11.0179 15.9452 11.0323 15.8917 11.022 15.8434C10.9828 15.9073 10.9587 15.9794 10.9515 16.054C10.9443 16.1287 10.9542 16.204 10.9804 16.2742C11.0029 16.3607 11.0157 16.4493 11.0187 16.5386C10.9888 16.5245 10.9637 16.5151 10.943 16.5073C10.9109 16.4953 10.8897 16.4873 10.8781 16.4722C10.7453 16.2979 10.6126 16.1213 10.49 15.939C10.427 15.8456 10.4056 15.7433 10.5192 15.6803L10.2942 15.4845L10.3058 15.5416C10.3366 15.6937 10.3708 15.8627 10.4067 16.0313C10.4067 16.047 10.4067 16.0718 10.4213 16.0763C10.5523 16.1447 10.5208 16.2333 10.4894 16.3219C10.4733 16.3673 10.4572 16.4127 10.463 16.4554C10.463 16.4747 10.431 16.4989 10.3961 16.5255C10.3781 16.5391 10.3594 16.5533 10.3437 16.5679C10.4558 16.662 10.4942 16.5685 10.5401 16.4565L10.5406 16.4554C10.5614 16.4986 10.5871 16.5394 10.6171 16.5769C10.6564 16.6271 10.7085 16.6659 10.7678 16.6893C10.9658 16.7276 11.0389 16.8795 10.9073 17.0268C10.8101 17.1692 10.6791 17.2851 10.5259 17.3643C10.3362 17.4533 10.1654 17.5782 10.0231 17.7322C9.98753 17.6893 9.94628 17.6514 9.90048 17.6197C9.80942 17.563 9.70814 17.5248 9.60238 17.5072C9.35264 17.497 9.2559 17.3947 9.28289 17.1494C9.28845 17.0809 9.26661 17.0129 9.22215 16.9605C9.2055 16.9483 9.19152 16.9329 9.18107 16.9151C9.17062 16.8974 9.16392 16.8776 9.16139 16.8572C9.15886 16.8367 9.16055 16.816 9.16636 16.7962C9.17216 16.7764 9.18196 16.7581 9.19515 16.7422C9.32047 16.5351 9.31038 16.5186 9.20176 16.3417L9.17153 16.2922C9.15602 16.2664 9.13899 16.2409 9.12179 16.215C9.04538 16.1004 8.96544 15.9805 8.99941 15.8051C9.01628 15.7174 8.88017 15.5745 8.78117 15.4958C8.62831 15.3832 8.46611 15.2838 8.29633 15.1988C8.18383 15.1381 8.11859 15.0751 8.18946 14.9389C8.2033 14.8916 8.2033 14.8412 8.18946 14.7938C8.15828 14.6899 8.13903 14.5827 8.13208 14.4743C8.15374 14.2693 8.10192 14.0632 7.98584 13.8928C7.92237 13.7837 7.87035 13.6683 7.8306 13.5485C7.82232 13.5241 7.82193 13.4978 7.82948 13.4732C7.89247 13.2909 7.86322 13.2605 7.70011 13.1694C7.43859 13.026 7.18749 12.8644 6.94865 12.6857C6.90068 12.6493 6.88677 12.5688 6.87288 12.4884C6.86657 12.4519 6.86027 12.4154 6.85078 12.3831C6.84795 12.3718 6.84541 12.3593 6.84272 12.3462C6.84006 12.3332 6.83726 12.3194 6.83391 12.3055ZM12.3258 15.0402H12.4722L12.3281 15.0393L12.4371 14.933L12.3258 15.0402ZM12.5137 15.0402H12.5106L12.8085 14.6332L12.7801 14.6027L12.7826 14.6003L12.8129 14.633L12.5137 15.0402ZM10.5979 16.8232L10.5642 16.8142L10.5113 16.9616L10.2782 16.9426L10.279 16.9471L10.5141 16.9662L10.567 16.8188L10.5962 16.8245L10.5619 17.0002C10.5732 16.9579 10.5814 16.9133 10.5896 16.8682L10.5979 16.8232ZM10.2155 17.0049L10.2385 16.8717H10.2646L10.2638 16.8671H10.2346L10.211 17.0043L10.2155 17.0049Z" fill="black"/>
</svg>
