<svg width="20" height="20" viewBox="0 0 20 20" fill="none" xmlns="http://www.w3.org/2000/svg">
<path d="M18.3731 14.8568C18.2449 14.8365 18.1223 14.8253 18.0785 14.6859C18.0785 14.6746 18.0526 14.6656 18.0369 14.66C17.8919 14.5983 17.7412 14.5509 17.5871 14.5183C17.4914 14.5161 17.3977 14.4903 17.3144 14.4432C17.231 14.3961 17.1605 14.3292 17.1092 14.2484C17.0959 14.2355 17.08 14.2254 17.0626 14.219C17.0451 14.2126 17.0265 14.21 17.008 14.2113C16.6875 14.2214 16.3659 14.2406 16.0454 14.2462C15.9578 14.245 15.8713 14.2258 15.7913 14.19C15.6507 14.1304 15.5844 14.19 15.5338 14.3114C15.4348 14.5442 15.2538 14.5813 15.084 14.3946C14.8966 14.2368 14.6772 14.1217 14.4408 14.0573C14.3137 13.9977 14.1867 13.9538 14.1406 13.7986C14.1316 13.7672 14.0686 13.7424 14.0281 13.7312C13.9841 13.7255 13.9395 13.7255 13.8954 13.7312H1C1 10.4792 1 7.24185 1 4H18.6542C18.6845 4.1515 18.6669 4.30867 18.6038 4.44971C18.5407 4.59075 18.4353 4.70868 18.3022 4.78713C18.2327 4.82246 18.1681 4.86669 18.11 4.91869C18.0624 4.95303 18.0302 5.00457 18.0201 5.06233C18.01 5.1201 18.0229 5.17952 18.056 5.22792C18.1055 5.30214 18.1504 5.3786 18.201 5.45282C18.3135 5.62036 18.39 5.79578 18.6508 5.84301C18.9117 5.89024 18.9634 6.01393 18.9634 6.2928C18.9634 8.16092 18.9634 10.029 18.9634 11.8972V12.0962H18.6497C18.6126 12.2086 18.5912 12.2919 18.6936 12.3717C18.7297 12.3949 18.7586 12.4277 18.7773 12.4663C18.7959 12.505 18.8035 12.5481 18.7992 12.5908C18.7949 12.6335 18.7789 12.6742 18.7529 12.7083C18.7269 12.7425 18.692 12.7688 18.652 12.7844C18.652 12.953 18.7138 13.0621 18.905 13.0239C19.0511 13.4388 19.0264 13.4928 18.8465 13.6007C18.8669 13.8552 18.7954 14.1085 18.6452 14.3148C18.5822 14.4205 18.4743 14.5093 18.5597 14.6442C18.6078 14.724 18.6686 14.7954 18.7397 14.8557C18.878 14.9681 18.7824 15.0918 18.7678 15.2087C18.7678 15.2492 18.6936 15.2852 18.6486 15.3144C18.6366 15.3201 18.6236 15.323 18.6104 15.323C18.5971 15.323 18.5841 15.3201 18.5721 15.3144C18.5051 15.2593 18.4522 15.1891 18.4176 15.1095C18.383 15.03 18.3677 14.9434 18.3731 14.8568Z" fill="black"/>
</svg>
