<svg height="15.997" viewBox="0 0 15.997 15.997" width="15.997" xmlns="http://www.w3.org/2000/svg">
  <g data-name="Group 11058" id="Group_11058" transform="translate(-1321 -1606.002)">
    <g id="Save" transform="translate(1321 1606.001)">
      <path
        d="M629.981,379.267a8,8,0,1,0,8,8A8,8,0,0,0,629.981,379.267Zm4.664,5.534-6.045,6.045a.8.8,0,0,1-.468.218.728.728,0,0,1-.794-.156l-2.055-2.055a.728.728,0,0,1,0-1.028l.123-.123a.726.726,0,0,1,1.028,0l1.5,1.5,5.556-5.555h0a.813.813,0,0,1,1.15,0,.016.016,0,0,1,.016,0A.809.809,0,0,1,634.645,384.8Z"
        data-name="Path 7164"
        fill="#919191"
        id="Path_7164" transform="translate(-621.982 -379.266)"/>
    </g>
  </g>
</svg>
