<svg width="20" height="21" viewBox="0 0 20 21" fill="none" xmlns="http://www.w3.org/2000/svg">
<path fill-rule="evenodd" clip-rule="evenodd" d="M4.17894 3.01509C3.93757 2.97541 3.69006 2.99813 3.45994 3.08109C3.35317 3.14076 3.26528 3.22918 3.20623 3.3363C3.14719 3.44342 3.11938 3.56495 3.12594 3.68709V13.2871C3.12442 13.4447 3.18031 13.5975 3.28317 13.7169C3.38604 13.8363 3.52885 13.9142 3.68494 13.9361C3.82161 13.9479 3.95828 13.9513 4.09494 13.9546H4.09497C4.2583 13.9586 4.42162 13.9626 4.58494 13.9811C5.86775 14.0519 7.11718 14.4162 8.23694 15.0461C8.71522 15.3288 9.1543 15.6731 9.54294 16.0701V6.04309C9.551 5.86299 9.49503 5.68586 9.38495 5.54309C9.03984 5.01829 8.59878 4.56333 8.08494 4.20209C6.92202 3.44367 5.56722 3.03196 4.17894 3.01509ZM15.2276 3.06096C15.1414 3.0701 15.0552 3.07925 14.9688 3.08712C13.8092 3.21409 12.7024 3.63998 11.7568 4.32312C11.2713 4.69391 10.8581 5.15085 10.5378 5.67112C10.4674 5.83342 10.4402 6.01118 10.4588 6.18712V16.0761C10.8473 15.6783 11.2868 15.3336 11.7658 15.0511C12.9863 14.3703 14.3538 13.9963 15.7508 13.9611C15.8155 13.9586 15.8803 13.9571 15.9451 13.9556H15.9452H15.9452C16.0587 13.953 16.1722 13.9504 16.2848 13.9421C16.4119 13.9317 16.5332 13.8841 16.6333 13.8051C16.7335 13.7261 16.8081 13.6193 16.8478 13.4981C16.8773 13.3836 16.8885 13.2651 16.8808 13.1471V3.65312C16.882 3.52572 16.8455 3.40083 16.7759 3.29409C16.7063 3.18735 16.6068 3.10353 16.4898 3.05312C16.295 2.99732 16.0905 2.98335 15.8898 3.01212C15.6677 3.01428 15.4477 3.03761 15.2276 3.06096ZM1 5.79622C1.00635 5.64943 1.06203 5.50907 1.15802 5.39783C1.25401 5.2866 1.38472 5.21098 1.529 5.18322C1.72425 5.16758 1.92025 5.16324 2.116 5.17022V13.1992C2.10974 13.4847 2.1718 13.7676 2.297 14.0242C2.42198 14.2732 2.60808 14.4863 2.8379 14.6437C3.06771 14.8011 3.33372 14.8976 3.611 14.9242C3.75131 14.9394 3.89162 14.9429 4.03246 14.9464H4.03248C4.14258 14.9491 4.253 14.9519 4.364 14.9602C5.09134 15.0009 5.81017 15.1371 6.502 15.3652C7.29938 15.6123 8.03106 16.0354 8.643 16.6032C7.45855 16.3328 6.24213 16.2291 5.029 16.2952C3.9639 16.3451 2.90521 16.488 1.865 16.7222C1.77444 16.7487 1.67951 16.7568 1.58576 16.7462C1.49201 16.7355 1.40132 16.7063 1.319 16.6602C1.2284 16.6055 1.15218 16.53 1.09669 16.4399C1.0412 16.3498 1.00805 16.2477 1 16.1422V5.79622ZM18.4684 5.18207C18.2745 5.16748 18.0799 5.16348 17.8855 5.17006C17.8855 7.76406 17.8821 10.3557 17.8755 12.9451C17.8927 13.2191 17.8663 13.4942 17.7975 13.7601C17.7205 14.011 17.5848 14.2399 17.4017 14.4279C17.2186 14.6159 16.9932 14.7575 16.7444 14.8411C16.4179 14.9239 16.0811 14.9596 15.7444 14.9471C14.9966 14.982 14.2567 15.1165 13.5445 15.3471C12.7288 15.5923 11.98 16.0209 11.3555 16.6001C12.8318 16.2715 14.3521 16.1884 15.8555 16.3541C16.6524 16.4334 17.4438 16.5607 18.2255 16.7351C18.3166 16.7524 18.4103 16.7502 18.5005 16.7286C18.5906 16.707 18.6752 16.6665 18.7485 16.6098C18.8219 16.5531 18.8824 16.4814 18.926 16.3996C18.9696 16.3177 18.9953 16.2276 19.0015 16.1351V5.79407C18.9947 5.64688 18.9383 5.50632 18.8416 5.39521C18.7448 5.2841 18.6133 5.20899 18.4684 5.18207Z" fill="black"/>
</svg>
