<svg xmlns="http://www.w3.org/2000/svg" width="18" height="18.222" viewBox="0 0 18 18.222">
  <g id="Group_89693" data-name="Group 89693" transform="translate(-571.081 -940.778)">
    <path id="Path_37047" data-name="Path 37047" d="M17.211,8.962V1.206a.223.223,0,0,0-.222-.222H15.178a.223.223,0,0,0-.222.222V3.828a1.584,1.584,0,0,0-1.578-1.578H6.411A1.584,1.584,0,0,0,4.833,3.828V1.206A.223.223,0,0,0,4.611.984H2.8a.223.223,0,0,0-.222.222V8.973A2.8,2.8,0,0,0,.9,11.54v2.6A2.779,2.779,0,0,0,2.022,16.4v1.689a1.119,1.119,0,0,0,1.122,1.122H4.278A1.134,1.134,0,0,0,5.4,18.084V16.951h9v1.133a1.119,1.119,0,0,0,1.122,1.122h1.122a1.126,1.126,0,0,0,1.122-1.122V16.4A2.821,2.821,0,0,0,18.9,14.14v-2.6a2.817,2.817,0,0,0-1.689-2.578M5.4,12.462a1.128,1.128,0,1,1,0-.011Zm6.5,2.722h-4a.5.5,0,0,1,0-1h4a.5.5,0,0,1,0,1m0-2.222h-4a.5.5,0,0,1,0-1h4a.5.5,0,0,1,0,1M4.833,9.084l.633-2.533a1.074,1.074,0,0,1,1.056-.844h6.711a1.109,1.109,0,0,1,1.1.844l.622,2.533Zm10.689,4.5a1.128,1.128,0,1,1,1.122-1.122,1.126,1.126,0,0,1-1.122,1.122" transform="translate(570.182 939.794)" fill="#b7b7b7"/>
  </g>
</svg>
