<svg xmlns="http://www.w3.org/2000/svg" width="19" height="15" viewBox="0 0 19 15">
  <g id="Group_89699" data-name="Group 89699" transform="translate(-2098.452 -957.182)">
    <path id="Path_37046" data-name="Path 37046" d="M382.354,2.983h-15a1.5,1.5,0,0,0-1.5,1.5v.5h18v-.5a1.5,1.5,0,0,0-1.5-1.5m-16.5,12.5a1.5,1.5,0,0,0,1.5,1.5h15a1.5,1.5,0,0,0,1.5-1.5v-9.5h-18Zm11.5-7.5h4a.5.5,0,0,1,0,1h-4a.5.5,0,1,1,0-1m0,2h4a.5.5,0,1,1,0,1h-4a.5.5,0,1,1,0-1m0,2h4a.5.5,0,1,1,0,1h-4a.5.5,0,1,1,0-1m-6-4a2,2,0,1,1-2,2,2,2,0,0,1,2-2m-2,5h4a1.5,1.5,0,0,1,1.5,1.5.5.5,0,0,1-.5.5h-6a.5.5,0,0,1-.5-.5,1.5,1.5,0,0,1,1.5-1.5" transform="translate(1733.098 954.699)" fill="#b7b7b7" stroke="rgba(0,0,0,0)" stroke-width="1"/>
  </g>
</svg>
