<svg width="24" height="20" viewBox="0 0 24 20" fill="none" xmlns="http://www.w3.org/2000/svg">
<path d="M7.7672 18.7701L0.544974 11.5478C0.424213 11.4271 0.328417 11.2838 0.26306 11.126C0.197702 10.9683 0.164063 10.7992 0.164063 10.6285C0.164063 10.4577 0.197702 10.2886 0.26306 10.1309C0.328417 9.97311 0.424213 9.82978 0.544974 9.70906L2.38664 7.87317C2.50736 7.75241 2.65069 7.65662 2.80844 7.59126C2.96619 7.5259 3.13527 7.49226 3.30603 7.49226C3.47678 7.49226 3.64587 7.5259 3.80362 7.59126C3.96137 7.65662 4.1047 7.75241 4.22542 7.87317L8.68586 12.3336L19.772 1.24029C19.8927 1.11953 20.036 1.02373 20.1938 0.958372C20.3515 0.893015 20.5206 0.859375 20.6914 0.859375C20.8621 0.859375 21.0312 0.893015 21.1889 0.958372C21.3467 1.02373 21.49 1.11953 21.6108 1.24029L23.4495 3.07906C23.5703 3.19979 23.6661 3.34312 23.7314 3.50087C23.7968 3.65862 23.8304 3.8277 23.8304 3.99845C23.8304 4.16921 23.7968 4.33829 23.7314 4.49604C23.6661 4.65379 23.5703 4.79712 23.4495 4.91784L9.60597 18.7643C9.48525 18.885 9.34192 18.9808 9.18417 19.0462C9.02642 19.1116 8.85734 19.1452 8.68658 19.1452C8.51583 19.1452 8.34675 19.1116 8.189 19.0462C8.03125 18.9808 7.88792 18.885 7.7672 18.7643V18.7701Z" fill="#6F9EE0"/>
</svg>
