<svg xmlns="http://www.w3.org/2000/svg" width="22" height="22" viewBox="0 0 22 22">
  <g id="Group_89656" data-name="Group 89656" transform="translate(-6299 -12074)">
    <rect id="Rectangle_62292" data-name="Rectangle 62292" width="22" height="22" transform="translate(6299 12074)" fill="none"/>
    <path id="times" d="M10.429,87.563l4.3-4.3a1.352,1.352,0,0,0,0-1.911l-.956-.956a1.352,1.352,0,0,0-1.911,0l-4.3,4.3-4.3-4.3a1.352,1.352,0,0,0-1.911,0L.4,81.351a1.352,1.352,0,0,0,0,1.911l4.3,4.3-4.3,4.3a1.352,1.352,0,0,0,0,1.911l.956.956a1.352,1.352,0,0,0,1.911,0l4.3-4.3,4.3,4.3a1.352,1.352,0,0,0,1.911,0l.956-.956a1.352,1.352,0,0,0,0-1.911Z" transform="translate(6302.438 11997.438)" fill="#b7b7b7"/>
  </g>
</svg>
