<svg xmlns="http://www.w3.org/2000/svg" width="19" height="20.002" viewBox="0 0 19 20.002">
  <g id="Group_89767" data-name="Group 89767" transform="translate(-532 -215.29)">
    <g id="Group_89760" data-name="Group 89760" transform="translate(61 -1.279)">
      <path id="check" d="M6.453,78.4.278,72.488a.883.883,0,0,1,0-1.287l1.343-1.287a.98.98,0,0,1,1.344,0L7.125,73.9l8.91-8.534a.98.98,0,0,1,1.344,0l1.343,1.287a.883.883,0,0,1,0,1.287L7.8,78.4a.98.98,0,0,1-1.344,0Z" transform="translate(471 157.901)" fill="#fff"/>
    </g>
    <g id="Group_89761" data-name="Group 89761" transform="translate(62.43 -7.71)">
      <path id="check-2" data-name="check" d="M5.435,76.3l-5.2-4.981a.744.744,0,0,1,0-1.084l1.131-1.084a.825.825,0,0,1,1.131,0L6,72.509l7.5-7.187a.825.825,0,0,1,1.131,0l1.131,1.084a.744.744,0,0,1,0,1.084L6.566,76.3a.825.825,0,0,1-1.131,0Z" transform="translate(471 157.901)" fill="#fff"/>
    </g>
  </g>
</svg>
