<svg id="Layer_3" data-name="Layer 3" xmlns="http://www.w3.org/2000/svg" width="437.057" height="402.701" viewBox="0 0 437.057 402.701">
  <path id="Path_12815" data-name="Path 12815" d="M747.139,371.432c84.123,24.8,155.723,107.837,142.238,180.75C868.441,665.56,594.376,738.92,501.6,655.6c-62.7-56.326-24.241-184.584,55.08-257.383C629.807,331.125,736.187,368.2,747.139,371.432Z" transform="translate(-457.414 -335.736)" fill="#f2f2f2"/>
  <path id="Path_23835" data-name="Path 23835" d="M858.55,434.369s15.633-12.1,26.294-2.357-5.331,36.975,17.759,33.947" transform="translate(-582.677 -358.291)" fill="none" stroke="#4db6a2" stroke-miterlimit="10" stroke-width="2"/>
  <path id="Path_23836" data-name="Path 23836" d="M844.316,481.75s-34.943,13.262-17.224,35.478" transform="translate(-570.908 -375.565)" fill="none" stroke="#4db6a2" stroke-miterlimit="10" stroke-width="2"/>
  <path id="Path_23837" data-name="Path 23837" d="M696.76,413.171s-2.526-19.358-16.811-19.642S657.882,423.65,643.78,405.68" transform="translate(-513.375 -347.097)" fill="none" stroke="#4db6a2" stroke-miterlimit="10" stroke-width="2"/>
  <path id="Path_23838" data-name="Path 23838" d="M581.463,335.85s15.267,33.412-12.673,37.192" transform="translate(-489.178 -328.486)" fill="none" stroke="#4db6a2" stroke-miterlimit="10" stroke-width="2"/>
  <path id="Path_23839" data-name="Path 23839" d="M454,494.309s15.633-12.1,26.294-2.357-5.331,36.975,17.759,33.947" transform="translate(-452.137 -377.632)" fill="none" stroke="#4db6a2" stroke-miterlimit="10" stroke-width="2"/>
  <path id="Path_23840" data-name="Path 23840" d="M983.736,327.68s-34.943,13.269-17.224,35.485" transform="translate(-615.896 -325.85)" fill="none" stroke="#4db6a2" stroke-miterlimit="10" stroke-width="2"/>
  <path id="Path_23841" data-name="Path 23841" d="M621.471,743.439s-15.145,1.951-21.789-5.866-7.654-17.868-2.262-22.447,15.152-1.957,21.789,5.859S621.471,743.439,621.471,743.439Z" transform="translate(-497.297 -450.143)" fill="#919191"/>
  <ellipse id="Ellipse_4365" data-name="Ellipse 4365" cx="17.936" cy="10.248" rx="17.936" ry="10.248" transform="matrix(0.122, -0.993, 0.993, 0.122, 93.554, 321.046)" fill="#919191"/>
  <path id="Path_23842" data-name="Path 23842" d="M589.948,797.86c5.276,4.741,1.9,17.089-7.525,27.635s-33.033,4.064-33.033,4.064a86.183,86.183,0,0,1,13.96-21.139C572.751,797.874,584.672,793.146,589.948,797.86Z" transform="translate(-482.918 -476.977)" fill="#919191"/>
  <path id="Path_23843" data-name="Path 23843" d="M621.68,731.08a38.227,38.227,0,0,1-1.212,13.723s-15.145,1.957-21.789-5.866a25.287,25.287,0,0,1-4.558-7.776,23.381,23.381,0,0,0,5.615,12.273c6.645,7.816,21.789,5.866,21.789,5.866S624.6,739.011,621.68,731.08Z" transform="translate(-497.351 -456.018)" fill="#6c6c6c"/>
  <path id="Path_23844" data-name="Path 23844" d="M610.891,755a28.73,28.73,0,0,1,.291,9.123c-1.206,9.835-6.773,17.245-12.354,16.554-2.357-.284-4.342-1.964-5.778-4.525,1.111,5.5,3.942,9.483,7.694,9.923,5.615.677,11.149-6.719,12.354-16.554C613.8,763.805,612.875,758.529,610.891,755Z" transform="translate(-497.006 -463.736)" fill="#6c6c6c"/>
  <path id="Path_23845" data-name="Path 23845" d="M590.49,799.61c.257,5.92-3.387,14.224-9.984,21.641-6.97,7.8-21.674,6.292-28.881,4.978-1.49,2.75-2.235,4.491-2.235,4.491s23.6,6.482,33.033-4.064C591.492,816.5,594.933,804.69,590.49,799.61Z" transform="translate(-482.918 -478.131)" fill="#6c6c6c"/>
  <path id="Path_23846" data-name="Path 23846" d="M663.566,715.044l-10.282,20.245-31.34,12.571-.515,4.172,33.3-10.979,17.041-29.633Z" transform="translate(-506.163 -449.674)" fill="#6c6c6c"/>
  <path id="Path_23847" data-name="Path 23847" d="M594.41,704.29s3.542-31.489-2.316-37.774-19.954-8.805-21.884,0,2.255,4.944,2.709,3.746-1.5-3.3-1.5-3.3,1.036-6.448,8.683-4.958,10.837,4.023,12.307,7.322,2.1,22.866,1.822,24.025-1.009,10.458-1.009,10.458S593.963,705.509,594.41,704.29Z" transform="translate(-489.472 -433.346)" fill="#6c6c6c"/>
  <path id="Path_23848" data-name="Path 23848" d="M616.165,695.473s14.772-39.61,7.715-46.342-13.953-6.577-15.3-2.973-.732,9.3,1.355,7.342-.3-2.845-.3-2.845-2.709-3.746,2.994-4.355,10.5,1.179,11.108,6.875.61,5.7-.427,12.151-8.345,29.7-8.345,29.7S614.52,696.225,616.165,695.473Z" transform="translate(-501.786 -427.821)" fill="#6c6c6c"/>
  <path id="Path_23849" data-name="Path 23849" d="M563.3,703.98l-7.166-32.85a3.386,3.386,0,0,0-3.508-1.605s-3.61,3.278-2.154,5.3c6.949,9.659,11.2,35.39,11.2,35.39L584.6,734.941l1.084-2.032Z" transform="translate(-483.156 -436.138)" fill="#6c6c6c"/>
  <path id="Path_23850" data-name="Path 23850" d="M599.09,830.09a1.231,1.231,0,0,0,.122.142h0Z" transform="translate(-498.955 -487.966)" fill="#6c6c6c"/>
  <path id="Path_23851" data-name="Path 23851" d="M620.539,874.048h7.247l-11.311-33.541-12.341-11.183c-.23-.183-1.063.176-1.355,0l10.986,12.781Z" transform="translate(-500.145 -487.702)" fill="#6c6c6c"/>
  <path id="Path_23852" data-name="Path 23852" d="M552.033,873.313H544l12.551-34.7,13.716-11.562c.251-.2,1.179.183,1.524,0L559.6,840.267Z" transform="translate(-481.178 -486.967)" fill="#6c6c6c"/>
  <line id="Line_3167" data-name="Line 3167" x1="90.45" transform="translate(51.219 386.346)" fill="none" stroke="#b5b5b5" stroke-miterlimit="10" stroke-width="2"/>
  <path id="Path_23853" data-name="Path 23853" d="M891,735.5s12.476,7.992,22.785,4.186,16.811-11.867,14.556-17.983-12.422-7.965-22.731-4.159S891,735.5,891,735.5Z" transform="translate(-593.147 -451.013)" fill="#919191"/>
  <path id="Path_23854" data-name="Path 23854" d="M903.624,767.305c-.284,9.835,4.064,17.245,9.774,16.554s10.485-9.218,10.742-19.046-4.111-17.245-9.76-16.554S903.908,757.477,903.624,767.305Z" transform="translate(-597.217 -461.547)" fill="#919191"/>
  <path id="Path_23855" data-name="Path 23855" d="M911.82,797.86c-5.94,4.741-4.443,17.089,3.387,27.635s32.3,4.064,32.3,4.064a72.083,72.083,0,0,0-10.8-21.146C928.875,797.874,917.753,793.146,911.82,797.86Z" transform="translate(-598.693 -476.977)" fill="#919191"/>
  <path id="Path_23856" data-name="Path 23856" d="M901.106,722.26a38.148,38.148,0,0,0-6.611,12.056s12.463,7.992,22.778,4.179a30.882,30.882,0,0,0,8.412-4.646,28.15,28.15,0,0,1-11.873,8C903.5,745.655,891,737.662,891,737.662S894.048,727.712,901.106,722.26Z" transform="translate(-593.147 -453.172)" fill="#6c6c6c"/>
  <path id="Path_23857" data-name="Path 23857" d="M907.993,755a30.477,30.477,0,0,0-1.659,9.123c-.278,9.835,4.064,17.245,9.767,16.554,2.377-.284,4.6-1.964,6.4-4.525-1.924,5.5-5.317,9.483-9.1,9.923-5.676.677-10.058-6.719-9.774-16.554A27.138,27.138,0,0,1,907.993,755Z" transform="translate(-597.217 -463.736)" fill="#6c6c6c"/>
  <path id="Path_23858" data-name="Path 23858" d="M911.2,799.61c-1.138,5.92,1.219,14.224,6.705,21.641,5.791,7.8,20.645,6.292,28.007,4.978,1.091,2.75,1.585,4.491,1.585,4.491s-24.465,6.482-32.3-4.064C907.681,816.5,906.035,804.69,911.2,799.61Z" transform="translate(-598.7 -478.131)" fill="#6c6c6c"/>
  <path id="Path_23859" data-name="Path 23859" d="M821.112,711.02l25.779,24.14,29.071,12.571-.122,4.172-31.259-10.979-31.191-29.9Z" transform="translate(-568.105 -449.545)" fill="#6c6c6c"/>
  <path id="Path_23860" data-name="Path 23860" d="M934.865,713.964s14.434-28.014,23.158-30.879,22.643.867,19.439,9.137-4.741,3.231-4.491,2.032,3.177-2.154,3.177-2.154,2.662-5.872-4.965-7.8-11.846-1.1-15.023,1.057-14.637,18.4-15.036,19.493-4.938,9.232-4.938,9.232S934.594,715.163,934.865,713.964Z" transform="translate(-607.292 -440.222)" fill="#6c6c6c"/>
  <path id="Path_23861" data-name="Path 23861" d="M925.17,698.554s9.036-39.495,19.08-42.231,16.059.257,15.24,3.847-4.538,8.128-5.31,5.622,1.863-2.276,1.863-2.276,4.491-2.032-.224-4.9-9.977-3.387-13.709,1.179-3.732,4.538-6.428,10.4-9.191,28.488-9.191,28.488S926.22,699.882,925.17,698.554Z" transform="translate(-604.173 -431.552)" fill="#6c6c6c"/>
  <path id="Path_23862" data-name="Path 23862" d="M951.782,705.765l-6.523-29.524c.881-1.219,9.442-2.032,7.722,0l3.089,30.879-29.89,29.606-.779-2.032Z" transform="translate(-604.247 -437.923)" fill="#6c6c6c"/>
  <path id="Path_23863" data-name="Path 23863" d="M918.932,830.09a1.418,1.418,0,0,1-.142.142h0Z" transform="translate(-602.115 -487.966)" fill="#6c6c6c"/>
  <path id="Path_23864" data-name="Path 23864" d="M875.937,874.048H868.69l16.344-33.541,13.953-11.183c.257-.183,1.03.176,1.355,0l-12.815,12.781Z" transform="translate(-585.948 -487.702)" fill="#6c6c6c"/>
  <path id="Path_23865" data-name="Path 23865" d="M945.135,873.313h8.047l-17.854-26.219-1.612-20.042c-.224-.2-1.206.183-1.517,0l-2.628,21.959Z" transform="translate(-605.593 -486.967)" fill="#6c6c6c"/>
  <line id="Line_3168" data-name="Line 3168" x1="82.769" transform="translate(273.835 386.346)" fill="none" stroke="#b5b5b5" stroke-miterlimit="10" stroke-width="2"/>
  <path id="Path_23866" data-name="Path 23866" d="M862.11,889.976l7.837.677-9.631-50.379-44.1-9.11c-.217-.2.312,2.1,0,1.917l41.831,9.482Z" transform="translate(-568.999 -488.309)" fill="#6c6c6c"/>
  <path id="Path_23867" data-name="Path 23867" d="M823.274,717.848,835.764,685a3.888,3.888,0,0,1,3.7-1.612s3,3.278,1.24,5.3c-8.426,9.659-16.892,35.39-16.892,35.39l-26.775,24.729-.732-2.032Z" transform="translate(-562.593 -440.619)" fill="#6c6c6c"/>
  <path id="Path_23868" data-name="Path 23868" d="M766.448,741.727c-3.6,6.773-.318,13.987,6.651,14.623a18.928,18.928,0,0,0,11.318-2.127c9.482-5.5,14.935-14.8,12.192-20.773s-12.591-6.353-22.054-.86C770.966,734.683,768.331,738.185,766.448,741.727Z" transform="translate(-552.482 -455.252)" fill="#919191"/>
  <path id="Path_23869" data-name="Path 23869" d="M774.325,785.666c3.387,8.615,10.444,13.336,15.8,10.539s6.936-12.036,3.556-20.652-10.417-13.337-15.755-10.546S770.966,777.051,774.325,785.666Z" transform="translate(-554.934 -466.707)" fill="#919191"/>
  <path id="Path_23870" data-name="Path 23870" d="M795.206,807.959c-7.112,1.131-12.991,13.364-13.127,27.337S804,856.537,804,856.537a90.658,90.658,0,0,0,3.895-25.318C807.994,817.232,802.345,806.822,795.206,807.959Z" transform="translate(-558.001 -480.798)" fill="#919191"/>
  <path id="Path_23871" data-name="Path 23871" d="M770.35,739.35a33.159,33.159,0,0,0-1.619,2.94c-2.994,6.1-.095,12.557,6.055,13.384,3.928.528,8.48.318,12.476-2.032a32.2,32.2,0,0,0,7.593-6.1,29.8,29.8,0,0,1-10.58,10.058c-4,2.31-8.555,2.526-12.483,2.032-6.1-.82-9.063-7.193-6.1-13.276A28.7,28.7,0,0,1,770.35,739.35Z" transform="translate(-552.341 -458.686)" fill="#6c6c6c"/>
  <path id="Path_23872" data-name="Path 23872" d="M773.279,774.84a25.319,25.319,0,0,0,1.727,8.534c3.387,8.616,10.438,13.337,15.788,10.546a10.018,10.018,0,0,0,4.64-6.4c.142,5.513-1.741,10.255-5.31,12.117-5.351,2.8-12.429-1.924-15.8-10.539A22.923,22.923,0,0,1,773.279,774.84Z" transform="translate(-554.937 -470.138)" fill="#6c6c6c"/>
  <path id="Path_23873" data-name="Path 23873" d="M794.4,808.29c-4.2,4.85-7.139,13.8-7.227,23.611-.095,10.329,11.914,16.994,18.2,19.771-.745,3.116-1.355,4.985-1.355,4.985s-22.074-7.247-21.938-21.241C782.208,821.979,787.661,810.18,794.4,808.29Z" transform="translate(-558.001 -480.932)" fill="#6c6c6c"/>
  <path id="Path_23874" data-name="Path 23874" d="M720.92,728.9l6.577,20.245L756.27,761.72l-.2,4.172-30.994-10.979L713.49,725.28Z" transform="translate(-535.869 -454.146)" fill="#6c6c6c"/>
  <path id="Path_23875" data-name="Path 23875" d="M775.539,725.5s-2.459-29.924,0-34.645,8.663-4.375,9.774,4.213-.867,4.166-1.1,2.96a5.262,5.262,0,0,1,.582-2.77s-.677-6.191-4.016-6.265-4.741,1.68-5.29,4.45-.3,20.841-.149,21.972.752,9.9.752,9.9S775.777,726.7,775.539,725.5Z" transform="translate(-555.538 -442.059)" fill="#6c6c6c"/>
  <path id="Path_23876" data-name="Path 23876" d="M797.8,714.888s-6.97-35.586-1.456-41.012,10.3-4.836,10.939-1.605-.278,8.175-1.571,6.333.454-2.472.454-2.472,2.2-3.1-1.72-4-7.451.352-8.351,5.29-.914,4.938-.738,10.641,3.326,26.51,3.326,26.51S798.892,715.653,797.8,714.888Z" transform="translate(-561.918 -436.249)" fill="#6c6c6c"/>
  <path id="Path_23877" data-name="Path 23877" d="M788.432,844c-.047.047-.088.1-.142.149h0Z" transform="translate(-560.005 -492.454)" fill="#6c6c6c"/>
  <path id="Path_23878" data-name="Path 23878" d="M731.166,892.483l-6.1-1.355,10.79-42.549,29.85-11.752c.257-.183-.413,4.5-.075,4.328l-27.316,9.022Z" transform="translate(-539.606 -490.138)" fill="#6c6c6c"/>
  <path id="Path_23879" data-name="Path 23879" d="M745.149,553.959S742.846,568.7,733.7,572.8s-18.857,2.3-21.674-4.01,2.3-14.745,11.454-18.843S745.149,553.959,745.149,553.959Z" transform="translate(-535.145 -397.198)" fill="#6d82c7"/>
  <ellipse id="Ellipse_4366" data-name="Ellipse 4366" cx="10.018" cy="17.529" rx="10.018" ry="17.529" transform="matrix(0.214, -0.977, 0.977, 0.214, 192.143, 187.871)" fill="#6d82c7"/>
  <path id="Path_23880" data-name="Path 23880" d="M785.965,593.194c5.066-4.7,16.8-.291,26.206,9.848s.942,32.511.942,32.511a84.128,84.128,0,0,1-19.3-15.49C784.407,609.923,780.9,597.874,785.965,593.194Z" transform="translate(-558.507 -410.918)" fill="#6d82c7"/>
  <path id="Path_23881" data-name="Path 23881" d="M732.581,548.84a37.426,37.426,0,0,1,12.544,4.884s-2.3,14.745-11.453,18.843a24.719,24.719,0,0,1-8.541,2.154,22.847,22.847,0,0,0,13.045-1.917c9.151-4.064,11.453-18.843,11.453-18.843S740.817,548.258,732.581,548.84Z" transform="translate(-539.625 -397.2)" fill="#536bc2"/>
  <path id="Path_23882" data-name="Path 23882" d="M745.41,579.527a28.36,28.36,0,0,1,8.907.549c9.482,2.073,16.161,8.128,14.976,13.547-.494,2.269-2.31,4.064-4.931,5.209,5.452-.583,9.571-2.973,10.356-6.583,1.185-5.419-5.52-11.46-14.976-13.547C754.249,577.5,749.047,577.915,745.41,579.527Z" transform="translate(-546.169 -406.625)" fill="#536bc2"/>
  <path id="Path_23883" data-name="Path 23883" d="M788,592.73c5.784.291,13.547,4.565,20.15,11.691,6.949,7.5,4.138,21.674,2.2,28.556,2.54,1.7,4.166,2.587,4.166,2.587s8.46-22.352-.941-32.512C804.533,593.3,793.351,588.876,788,592.73Z" transform="translate(-559.912 -410.928)" fill="#536bc2"/>
  <path id="Path_23884" data-name="Path 23884" d="M824.176,614.081a8.481,8.481,0,0,1-.271.894c0,.061-.054.115-.074.176l11.84-20.53,33.019,20.746,1.226-6.773L836.557,589.63Z" transform="translate(-571.473 -410.375)" fill="#536bc2"/>
  <path id="Path_23885" data-name="Path 23885" d="M700.9,569.842s-28.576-11.928-36.081-8.128-13.716,16.317-5.94,20.55,5.256-.772,4.247-1.517-3.5.508-3.5.508-5.764-2.709-2.283-9.483,6.733-9.036,10.234-9.55,22.033,4.287,23.029,4.856,9.537,3.807,9.537,3.807S701.906,570.587,700.9,569.842Z" transform="translate(-517.091 -401.126)" fill="#536bc2"/>
  <path id="Path_23886" data-name="Path 23886" d="M698.156,549.877s-33.128-24.682-41.378-19.9-10,11.332-6.97,13.547,8.527,3.224,7.268.725-2.757-.488-2.757-.488-4.254,1.51-3.272-4,3.983-9.53,9.482-8.548,5.513.989,11.277,3.725S697.4,550.886,697.4,550.886,698.406,551.631,698.156,549.877Z" transform="translate(-514.872 -390.928)" fill="#536bc2"/>
  <path id="Path_23887" data-name="Path 23887" d="M848.721,586.692,823.89,579.37l-8.311,15.138-1.219-.271,7.62-17.847,26.226,5.446Z" transform="translate(-568.418 -406.103)" fill="#536bc2"/>
  <path id="Path_23888" data-name="Path 23888" d="M751.07,593.17l11.514,26.863,26.869-11.514-5.757-3.834-19.188,9.591-11.515-19.189Z" transform="translate(-547.995 -411.517)" fill="#536bc2"/>
  <path id="Path_23889" data-name="Path 23889" d="M765.24,562.543l15.355-11.515L771,528h5.757l7.674,23.029L767.157,564.46Z" transform="translate(-552.568 -390.488)" fill="#536bc2"/>
  <path id="Path_23890" data-name="Path 23890" d="M602.679,530s-2.5,19.642-16.933,20.252-22.352-29.911-36.575-11.44" transform="translate(-482.847 -391.134)" fill="none" stroke="#ffb74d" stroke-miterlimit="10" stroke-width="2"/>
  <path id="Path_23891" data-name="Path 23891" d="M593.179,478.253S608.507,444.17,580.31,441" transform="translate(-492.895 -362.416)" fill="none" stroke="#ffb74d" stroke-miterlimit="10" stroke-width="2"/>
  <path id="Path_23892" data-name="Path 23892" d="M735.18,428.5s15.484,11.907,25.806,2.032-5.7-36.9,16.981-34.164" transform="translate(-542.868 -347.951)" fill="none" stroke="#ffb74d" stroke-miterlimit="10" stroke-width="2"/>
  <path id="Path_23893" data-name="Path 23893" d="M881.04,393.311s-34.422-12.828-17.312-35.261" transform="translate(-582.808 -335.65)" fill="none" stroke="#ffb74d" stroke-miterlimit="10" stroke-width="2"/>
  <path id="Path_23894" data-name="Path 23894" d="M1054.379,488.58s-2.5,19.608-16.933,20.252-22.352-29.911-36.575-11.447" transform="translate(-628.6 -377.769)" fill="none" stroke="#ffb74d" stroke-miterlimit="10" stroke-width="2"/>
  <path id="Path_23895" data-name="Path 23895" d="M489.52,412.813s15.328-34.09-12.91-37.253" transform="translate(-459.433 -341.299)" fill="none" stroke="#ffb74d" stroke-miterlimit="10" stroke-width="2"/>
  <line id="Line_3169" data-name="Line 3169" x1="130.744" transform="translate(175.962 401.701)" fill="none" stroke="#b5b5b5" stroke-miterlimit="10" stroke-width="2"/>
  <path id="Path_23896" data-name="Path 23896" d="M939.618,567c-1.619-2.242-5.114.271-3.488,2.52S941.243,569.252,939.618,567Z" transform="translate(-607.574 -402.791)" fill="#fff"/>
  <path id="Path_23897" data-name="Path 23897" d="M989.618,517c-1.619-2.242-5.114.271-3.488,2.52S991.243,519.252,989.618,517Z" transform="translate(-623.708 -386.658)" fill="#fff"/>
  <path id="Path_23898" data-name="Path 23898" d="M912.765,529.2c1.578-2.276-1.951-4.741-3.536-2.459S911.18,531.471,912.765,529.2Z" transform="translate(-598.901 -389.788)" fill="#fff"/>
  <path id="Path_23899" data-name="Path 23899" d="M976.515,559.786c1.578-2.276-1.951-4.741-3.536-2.459S974.93,562.061,976.515,559.786Z" transform="translate(-619.471 -399.658)" fill="#fff"/>
  <path id="Path_23900" data-name="Path 23900" d="M1061.038,376.853c-1.619-2.242-5.114.271-3.488,2.52S1062.663,379.1,1061.038,376.853Z" transform="translate(-646.753 -341.434)" fill="#fff"/>
  <path id="Path_23901" data-name="Path 23901" d="M984.185,389.046c1.578-2.276-1.951-4.741-3.536-2.459S982.6,391.315,984.185,389.046Z" transform="translate(-621.946 -344.564)" fill="#fff"/>
  <path id="Path_23902" data-name="Path 23902" d="M1047.936,419.636c1.578-2.276-1.951-4.741-3.536-2.459S1046.351,421.911,1047.936,419.636Z" transform="translate(-642.517 -354.435)" fill="#fff"/>
  <path id="Path_23903" data-name="Path 23903" d="M831.038,375.853c-1.619-2.242-5.114.271-3.488,2.52S832.663,378.1,831.038,375.853Z" transform="translate(-572.537 -341.112)" fill="#fff"/>
  <path id="Path_23904" data-name="Path 23904" d="M754.185,388.046c1.578-2.276-1.951-4.741-3.536-2.459S752.6,390.315,754.185,388.046Z" transform="translate(-547.731 -344.242)" fill="#fff"/>
  <path id="Path_23905" data-name="Path 23905" d="M817.935,418.636c1.578-2.276-1.951-4.741-3.536-2.459S816.35,420.911,817.935,418.636Z" transform="translate(-568.301 -354.112)" fill="#fff"/>
  <path id="Path_23906" data-name="Path 23906" d="M656.038,457.853c-1.619-2.242-5.114.271-3.488,2.52S657.663,460.1,656.038,457.853Z" transform="translate(-516.069 -367.571)" fill="#fff"/>
  <path id="Path_23907" data-name="Path 23907" d="M579.185,470.046c1.578-2.276-1.951-4.741-3.536-2.459S577.6,472.315,579.185,470.046Z" transform="translate(-491.262 -370.701)" fill="#fff"/>
  <path id="Path_23908" data-name="Path 23908" d="M642.935,500.636c1.578-2.276-1.951-4.741-3.536-2.459S641.35,502.911,642.935,500.636Z" transform="translate(-511.833 -380.572)" fill="#fff"/>
  <path id="Path_23909" data-name="Path 23909" d="M620.038,487.853c-1.619-2.242-5.114.271-3.488,2.52S621.663,490.1,620.038,487.853Z" transform="translate(-504.453 -377.251)" fill="#fff"/>
  <path id="Path_23910" data-name="Path 23910" d="M543.185,500.046c1.578-2.276-1.951-4.741-3.536-2.459S541.6,502.315,543.185,500.046Z" transform="translate(-479.646 -380.382)" fill="#fff"/>
  <path id="Path_23911" data-name="Path 23911" d="M606.935,530.636c1.578-2.276-1.951-4.741-3.536-2.459S605.35,532.911,606.935,530.636Z" transform="translate(-500.216 -390.252)" fill="#fff"/>
  <path id="Path_23912" data-name="Path 23912" d="M532.038,430.853c-1.619-2.242-5.114.271-3.488,2.52S533.663,433.1,532.038,430.853Z" transform="translate(-476.057 -358.859)" fill="#fff"/>
  <path id="Path_23913" data-name="Path 23913" d="M455.185,443.046c1.578-2.276-1.951-4.741-3.536-2.459S453.6,445.315,455.185,443.046Z" transform="translate(-451.25 -361.989)" fill="#fff"/>
  <path id="Path_23914" data-name="Path 23914" d="M518.935,473.636c1.578-2.276-1.951-4.741-3.536-2.459S517.35,475.911,518.935,473.636Z" transform="translate(-471.821 -371.86)" fill="#fff"/>
  <path id="Path_23915" data-name="Path 23915" d="M749.038,325.853c-1.619-2.242-5.114.271-3.488,2.52S750.663,328.1,749.038,325.853Z" transform="translate(-546.078 -324.978)" fill="#fff"/>
  <path id="Path_23916" data-name="Path 23916" d="M672.185,338.046c1.578-2.276-1.951-4.741-3.536-2.459S670.6,340.315,672.185,338.046Z" transform="translate(-521.271 -328.108)" fill="#fff"/>
  <path id="Path_23917" data-name="Path 23917" d="M735.935,368.636c1.578-2.276-1.951-4.741-3.536-2.459S734.35,370.911,735.935,368.636Z" transform="translate(-541.842 -337.978)" fill="#fff"/>
  <path id="Path_23918" data-name="Path 23918" d="M1094.038,497.853c-1.619-2.242-5.114.271-3.488,2.52S1095.663,500.1,1094.038,497.853Z" transform="translate(-657.402 -380.478)" fill="#fff"/>
  <path id="Path_23919" data-name="Path 23919" d="M1017.185,510.046c1.578-2.276-1.951-4.741-3.536-2.459S1015.6,512.315,1017.185,510.046Z" transform="translate(-632.595 -383.608)" fill="#fff"/>
  <path id="Path_23920" data-name="Path 23920" d="M1080.935,540.636c1.578-2.276-1.95-4.741-3.535-2.459S1079.35,542.911,1080.935,540.636Z" transform="translate(-653.166 -393.479)" fill="#fff"/>
  <path id="Path_23921" data-name="Path 23921" d="M1002.707,563.54s19.209,8.04,24.329,11.711,10.316,10.316,7.451,18.084,14.034,19.351,14.034,19.351-25.061-2.242-28.678-10.058-2.242-11.433-9.625-15.355-16.019-7.708-16.019-7.708l10.458-4.369Z" transform="translate(-626.448 -401.956)" fill="#26a690"/>
  <line id="Line_3170" data-name="Line 3170" x1="52.845" y2="94.724" transform="translate(335.105 164.476)" fill="none" stroke="#000" stroke-miterlimit="10" stroke-width="3.26"/>
  <path id="Path_23922" data-name="Path 23922" d="M452.31,599.283s10.973-17.7,15.409-22.176,11.813-8.561,19.026-4.484,21.329-10.8,21.329-10.8-6.177,24.431-14.461,26.734-11.65.406-16.682,7.078-10.16,14.583-10.16,14.583l-2.642-11.02Z" transform="translate(-451.592 -401.401)" fill="#6d82c7"/>
  <line id="Line_3171" data-name="Line 3171" x2="85.2" y2="67.136" transform="translate(5.419 186.794)" fill="none" stroke="#000" stroke-miterlimit="10" stroke-width="3.26"/>
  <path id="Path_23923" data-name="Path 23923" d="M554.524,677.331s-10.837-6.773-6.1-10.837,10.16,4.741,9.482,6.1a3.61,3.61,0,0,1-2.222,1.714S553.17,673.944,554.524,677.331Z" transform="translate(-482.22 -434.834)" fill="#6c6c6c"/>
  <path id="Path_23924" data-name="Path 23924" d="M954.826,671.839s6.1-1.355,7.451,1.355-.677,6.773-.677,6.773l-4.741,4.064s.677-4.741-.677-4.741-.806,1.267-.806,1.267-1.226,2.12-1.9-.589S950.762,674.548,954.826,671.839Z" transform="translate(-612.948 -436.793)" fill="#6c6c6c"/>
</svg>
