<svg width="159" height="28" viewBox="0 0 159 28" fill="none" xmlns="http://www.w3.org/2000/svg">
<path d="M40.1815 23.5789C38.4191 23.5789 36.8367 23.2385 35.4344 22.5575C34.051 21.8765 32.9614 20.9212 32.1654 19.6917C31.3885 18.4621 31 17.0718 31 15.5207C31 13.9696 31.3885 12.5887 32.1654 11.378C32.9614 10.1485 34.051 9.19323 35.4344 8.51225C36.8367 7.83127 38.4191 7.49078 40.1815 7.49078C42.0765 7.49078 43.6968 7.89748 45.0422 8.71087C46.3877 9.52427 47.3163 10.6498 47.8279 12.0874L42.8535 14.5276C42.2471 13.1656 41.3469 12.4846 40.153 12.4846C39.395 12.4846 38.7602 12.7495 38.2485 13.2791C37.7558 13.8088 37.5095 14.556 37.5095 15.5207C37.5095 16.5043 37.7558 17.261 38.2485 17.7906C38.7602 18.3203 39.395 18.5851 40.153 18.5851C41.3469 18.5851 42.2471 17.9041 42.8535 16.5421L47.8279 18.9823C47.3163 20.4199 46.3877 21.5455 45.0422 22.3589C43.6968 23.1722 42.0765 23.5789 40.1815 23.5789Z" fill="white"/>
<path d="M56.277 7.49078C59.0059 7.49078 61.0904 8.10556 62.5306 9.3351C63.9709 10.5457 64.691 12.4184 64.691 14.9532V23.2952H58.7216V21.2523C57.9825 22.8034 56.5139 23.5789 54.3156 23.5789C53.0839 23.5789 52.0321 23.3709 51.1604 22.9547C50.3076 22.5196 49.6538 21.9427 49.199 21.2239C48.7632 20.4862 48.5452 19.6633 48.5452 18.7553C48.5452 17.2231 49.1327 16.0598 50.3076 15.2653C51.4826 14.4708 53.2639 14.0736 55.6516 14.0736H58.2384C58.0299 12.863 57.054 12.2576 55.3105 12.2576C54.6094 12.2576 53.8987 12.3711 53.1786 12.5981C52.4585 12.8062 51.8426 13.0994 51.3309 13.4777L49.2843 9.24998C50.175 8.70141 51.2457 8.2758 52.4964 7.97314C53.7661 7.65157 55.0263 7.49078 56.277 7.49078ZM56.2486 19.7201C56.7034 19.7201 57.1108 19.5971 57.4709 19.3512C57.8309 19.1053 58.0962 18.7364 58.2668 18.2446V17.1664H56.675C55.3674 17.1664 54.7136 17.6014 54.7136 18.4716C54.7136 18.831 54.8462 19.1337 55.1115 19.3796C55.3958 19.6066 55.7748 19.7201 56.2486 19.7201Z" fill="white"/>
<path d="M73.5788 9.4486C74.7159 8.14339 76.393 7.49078 78.6102 7.49078V13.1656C78.0985 13.09 77.6248 13.0521 77.1889 13.0521C74.9906 13.0521 73.8915 14.1682 73.8915 16.4003V23.2952H67.4673V7.77452H73.5788V9.4486Z" fill="white"/>
<path d="M86.5425 9.4486C87.6795 8.14339 89.3566 7.49078 91.5738 7.49078V13.1656C91.0621 13.09 90.5884 13.0521 90.1525 13.0521C87.9543 13.0521 86.8552 14.1682 86.8552 16.4003V23.2952H80.431V7.77452H86.5425V9.4486Z" fill="white"/>
<path d="M93.3946 7.77452H99.8188V23.2952H93.3946V7.77452ZM96.6067 6.52606C95.4507 6.52606 94.5127 6.2234 93.7925 5.61809C93.0914 4.99386 92.7408 4.20884 92.7408 3.26303C92.7408 2.31722 93.0914 1.54166 93.7925 0.936348C94.5127 0.312116 95.4507 0 96.6067 0C97.7816 0 98.7196 0.2932 99.4208 0.8796C100.122 1.466 100.473 2.22264 100.473 3.14953C100.473 4.13317 100.122 4.94656 99.4208 5.58971C98.7196 6.21395 97.7816 6.52606 96.6067 6.52606Z" fill="white"/>
<path d="M119.21 15.5207C119.21 15.6153 119.181 16.1165 119.125 17.0245H108.323C108.55 17.6109 108.929 18.0649 109.46 18.3865C109.991 18.6891 110.654 18.8405 111.45 18.8405C112.132 18.8405 112.7 18.7553 113.155 18.5851C113.629 18.4148 114.141 18.1216 114.69 17.7055L118.044 21.082C116.528 22.7466 114.264 23.5789 111.251 23.5789C109.375 23.5789 107.726 23.2385 106.305 22.5575C104.883 21.8576 103.784 20.8929 103.007 19.6633C102.23 18.4338 101.842 17.0529 101.842 15.5207C101.842 13.9696 102.221 12.5887 102.979 11.378C103.756 10.1485 104.808 9.19323 106.134 8.51225C107.48 7.83127 108.986 7.49078 110.654 7.49078C112.227 7.49078 113.657 7.8029 114.946 8.42713C116.254 9.05136 117.286 9.9688 118.044 11.1794C118.821 12.3901 119.21 13.8371 119.21 15.5207ZM110.711 11.8604C110.047 11.8604 109.498 12.0401 109.062 12.3995C108.626 12.7589 108.342 13.2697 108.209 13.9317H113.212C113.079 13.2886 112.795 12.7873 112.359 12.4279C111.923 12.0496 111.374 11.8604 110.711 11.8604Z" fill="white"/>
<path d="M127.349 9.4486C128.486 8.14339 130.163 7.49078 132.38 7.49078V13.1656C131.868 13.09 131.395 13.0521 130.959 13.0521C128.761 13.0521 127.661 14.1682 127.661 16.4003V23.2952H121.237V7.77452H127.349V9.4486Z" fill="white"/>
<path d="M141.161 7.48438C143.89 7.48438 145.975 8.09915 147.415 9.3287C148.855 10.5393 149.575 12.412 149.575 14.9468V23.2888H143.606V21.2459C142.867 22.797 141.398 23.5725 139.2 23.5725C137.968 23.5725 136.917 23.3645 136.045 22.9483C135.192 22.5132 134.538 21.9363 134.083 21.2175C133.648 20.4797 133.43 19.6569 133.43 18.7489C133.43 17.2167 134.017 16.0534 135.192 15.2589C136.367 14.4644 138.148 14.0672 140.536 14.0672H143.123C142.914 12.8566 141.938 12.2512 140.195 12.2512C139.494 12.2512 138.783 12.3647 138.063 12.5917C137.343 12.7998 136.727 13.093 136.215 13.4713L134.169 9.24357C135.059 8.69501 136.13 8.26939 137.381 7.96674C138.651 7.64516 139.911 7.48438 141.161 7.48438ZM141.133 19.7136C141.588 19.7136 141.995 19.5907 142.355 19.3448C142.715 19.0989 142.981 18.73 143.151 18.2382V17.16H141.559C140.252 17.16 139.598 17.595 139.598 18.4652C139.598 18.8246 139.731 19.1272 139.996 19.3732C140.28 19.6001 140.659 19.7136 141.133 19.7136Z" fill="#6F9EE0"/>
<path d="M155.251 23.5725C154.171 23.5725 153.271 23.232 152.551 22.5511C151.85 21.8512 151.499 20.9621 151.499 19.8839C151.499 18.8057 151.85 17.9355 152.551 17.2735C153.271 16.5925 154.171 16.252 155.251 16.252C156.331 16.252 157.222 16.5925 157.923 17.2735C158.643 17.9355 159.003 18.8057 159.003 19.8839C159.003 20.9621 158.643 21.8512 157.923 22.5511C157.222 23.232 156.331 23.5725 155.251 23.5725Z" fill="#6F9EE0"/>
<path d="M16.3154 18.1665L16.2944 18.1787L1.5192 26.7793C1.41624 26.8391 1.33591 26.9311 1.29064 27.0411C1.24537 27.1511 1.23768 27.2729 1.26877 27.3877C1.29986 27.5025 1.36799 27.6038 1.46262 27.676C1.55724 27.7483 1.67308 27.7873 1.7922 27.7872H8.84032C9.79961 27.7867 10.7416 27.5324 11.5703 27.05L14.5129 25.3364C14.8322 25.1502 15.185 25.0286 15.5513 24.9786C15.9176 24.9286 16.2902 24.9512 16.6478 25.045C17.0054 25.1389 17.3409 25.3022 17.6352 25.5256C17.9295 25.749 18.1768 26.0281 18.3629 26.3469L18.3699 26.3583L18.6762 26.8824C18.8346 27.1562 19.0624 27.3837 19.3367 27.5419C19.611 27.7001 19.9221 27.7835 20.2389 27.7837H26.3263C26.4849 27.7838 26.6406 27.7421 26.7779 27.663C26.9152 27.5839 27.0292 27.4702 27.1085 27.3331C27.1878 27.1961 27.2295 27.0407 27.2296 26.8824C27.2296 26.7242 27.1878 26.5687 27.1086 26.4317L23.4239 20.0645C23.0822 19.4737 22.6273 18.956 22.085 18.5408C21.5428 18.1257 20.9239 17.8213 20.2637 17.6451C19.6036 17.4688 18.9151 17.4241 18.2376 17.5136C17.5601 17.6031 16.907 17.8249 16.3154 18.1665" fill="url(#paint0_linear_675_10652)"/>
<path d="M8.65625 22.6283C13.5842 19.7556 16.2241 22.2693 18.7065 26.846C18.8625 27.1315 19.0928 27.3696 19.3731 27.5353C19.6534 27.701 19.9732 27.7882 20.299 27.7876H26.3304C26.4889 27.7876 26.6446 27.746 26.782 27.6669C26.9193 27.5878 27.0333 27.474 27.1126 27.337C27.1918 27.2 27.2336 27.0445 27.2336 26.8863C27.2336 26.728 27.1919 26.5726 27.1126 26.4355L23.4271 20.0657C22.7373 18.8729 21.601 18.0024 20.2682 17.6458C18.9355 17.2892 17.5154 17.4757 16.3204 18.1643L16.2994 18.1765L8.65625 22.6283Z" fill="url(#paint1_linear_675_10652)"/>
<path d="M13.0611 0.450323L0.846977 21.5661C0.786774 21.6692 0.762511 21.7893 0.777985 21.9077C0.79346 22.026 0.847797 22.1359 0.932499 22.2202C1.0172 22.3044 1.12749 22.3583 1.24611 22.3733C1.36474 22.3883 1.485 22.3637 1.5881 22.3032L16.3187 13.7202C17.5064 13.0275 18.3711 11.8937 18.7238 10.5665C19.0765 9.23937 18.8885 7.82681 18.2009 6.63761L14.6247 0.450323C14.5454 0.313396 14.4315 0.199701 14.2942 0.120656C14.157 0.0416117 14.0014 0 13.8429 0C13.6845 0 13.5288 0.0416117 13.3916 0.120656C13.2544 0.199701 13.1404 0.313396 13.0611 0.450323" fill="url(#paint2_linear_675_10652)"/>
<defs>
<linearGradient id="paint0_linear_675_10652" x1="3.90831" y1="27.7325" x2="7.7307" y2="20.161" gradientUnits="userSpaceOnUse">
<stop stop-color="#98B9EA"/>
<stop offset="1" stop-color="#3074D3"/>
</linearGradient>
<linearGradient id="paint1_linear_675_10652" x1="15.7807" y1="18.6596" x2="25.5202" y2="26.4134" gradientUnits="userSpaceOnUse">
<stop stop-color="#98B9EA"/>
<stop offset="1" stop-color="#3074D3"/>
</linearGradient>
<linearGradient id="paint2_linear_675_10652" x1="9.83561" y1="0" x2="0.509424" y2="23.5996" gradientUnits="userSpaceOnUse">
<stop stop-color="#98B9EA"/>
<stop offset="1" stop-color="#3074D3"/>
</linearGradient>
</defs>
</svg>
