<svg width="20" height="20" viewBox="0 0 20 20" fill="none" xmlns="http://www.w3.org/2000/svg">
<path d="M13.4475 9.99844L18.6207 4.8248C18.9257 4.51978 19.097 4.10612 19.097 3.67478C19.097 3.24345 18.9257 2.82979 18.6207 2.52476L17.4708 1.37473C17.1658 1.06976 16.7521 0.898437 16.3208 0.898437C15.8895 0.898437 15.4759 1.06976 15.1709 1.37473L9.99917 6.54837L4.82449 1.37473C4.51949 1.06976 4.10586 0.898437 3.67456 0.898437C3.24326 0.898437 2.82963 1.06976 2.52463 1.37473L1.3747 2.52476C1.06975 2.82979 0.898438 3.24345 0.898438 3.67478C0.898438 4.10612 1.06975 4.51978 1.3747 4.8248L6.54791 9.99844L1.37617 15.1721C1.07122 15.4771 0.899908 15.8908 0.899908 16.3221C0.899908 16.7534 1.07122 17.1671 1.37617 17.4721L2.5261 18.6221C2.8311 18.9271 3.24473 19.0984 3.67603 19.0984C4.10733 19.0984 4.52096 18.9271 4.82596 18.6221L9.99917 13.4485L15.1724 18.6221C15.4774 18.9271 15.891 19.0984 16.3223 19.0984C16.7536 19.0984 17.1672 18.9271 17.4722 18.6221L18.6222 17.4721C18.9271 17.1671 19.0984 16.7534 19.0984 16.3221C19.0984 15.8908 18.9271 15.4771 18.6222 15.1721L13.4475 9.99844Z" fill="#E57373"/>
</svg>
