<svg width="130" height="130" viewBox="0 0 130 130" fill="none" xmlns="http://www.w3.org/2000/svg">
<path d="M75.7514 84.4955L75.6539 84.5524L7.05454 124.556C6.57653 124.834 6.20356 125.262 5.99338 125.774C5.78319 126.285 5.7475 126.852 5.89185 127.386C6.03619 127.919 6.35251 128.391 6.79184 128.727C7.23116 129.063 7.76898 129.245 8.32204 129.244H41.0455C45.4993 129.242 49.8729 128.059 53.7205 125.815L67.3827 117.845C68.8647 116.978 70.5029 116.413 72.2037 116.18C73.9044 115.948 75.6344 116.053 77.2945 116.489C78.9546 116.926 80.5125 117.685 81.8788 118.724C83.2452 119.764 84.3934 121.062 85.2577 122.545L85.2902 122.598L86.712 125.035C87.4475 126.309 88.505 127.367 89.7786 128.103C91.0521 128.839 92.4968 129.227 93.9677 129.228H122.23C122.966 129.228 123.69 129.034 124.327 128.666C124.965 128.299 125.494 127.769 125.862 127.132C126.23 126.495 126.424 125.771 126.424 125.035C126.424 124.299 126.23 123.576 125.862 122.939L108.755 93.3233C107.169 90.5756 105.056 88.1675 102.539 86.2366C100.021 84.3057 97.1477 82.8899 94.0827 82.0701C91.0176 81.2502 87.8211 81.0425 84.6757 81.4586C81.5303 81.8748 78.4978 82.9067 75.7514 84.4955Z" fill="url(#paint0_linear_646_11375)"/>
<path d="M75.7514 84.4955L75.6539 84.5524L7.05454 124.556C6.57653 124.834 6.20356 125.262 5.99338 125.774C5.78319 126.285 5.7475 126.852 5.89185 127.386C6.03619 127.919 6.35251 128.391 6.79184 128.727C7.23116 129.063 7.76898 129.245 8.32204 129.244H41.0455C45.4993 129.242 49.8729 128.059 53.7205 125.815L67.3827 117.845C68.8647 116.978 70.5029 116.413 72.2037 116.18C73.9044 115.948 75.6344 116.053 77.2945 116.489C78.9546 116.926 80.5125 117.685 81.8788 118.724C83.2452 119.764 84.3934 121.062 85.2577 122.545L85.2902 122.598L86.712 125.035C87.4475 126.309 88.505 127.367 89.7786 128.103C91.0521 128.839 92.4968 129.227 93.9677 129.228H122.23C122.966 129.228 123.69 129.034 124.327 128.666C124.965 128.299 125.494 127.769 125.862 127.132C126.23 126.495 126.424 125.771 126.424 125.035C126.424 124.299 126.23 123.576 125.862 122.939L108.755 93.3233C107.169 90.5756 105.056 88.1675 102.539 86.2366C100.021 84.3057 97.1477 82.8899 94.0827 82.0701C91.0176 81.2502 87.8211 81.0425 84.6757 81.4586C81.5303 81.8748 78.4978 82.9067 75.7514 84.4955Z" fill="black" fill-opacity="0.5" style="mix-blend-mode:soft-light"/>
<path d="M40.1797 105.248C63.0597 91.8869 75.3162 103.579 86.8416 124.866C87.566 126.194 88.6352 127.301 89.9365 128.072C91.2378 128.843 92.7229 129.248 94.2353 129.246H122.238C122.974 129.246 123.697 129.052 124.335 128.684C124.972 128.316 125.502 127.787 125.87 127.15C126.238 126.512 126.432 125.789 126.432 125.053C126.432 124.317 126.238 123.594 125.87 122.957L108.759 93.3291C105.556 87.7809 100.28 83.7322 94.0925 82.0737C87.9047 80.4151 81.3115 81.2825 75.7631 84.485L75.6656 84.5419L40.1797 105.248Z" fill="url(#paint1_linear_646_11375)"/>
<path d="M60.6358 2.09457L3.92737 100.31C3.64785 100.789 3.53521 101.348 3.60705 101.899C3.6789 102.449 3.93118 102.96 4.32444 103.352C4.7177 103.744 5.22975 103.994 5.7805 104.064C6.33125 104.134 6.88964 104.02 7.36831 103.738L75.7605 63.8161C81.2748 60.5944 85.2894 55.3207 86.9269 49.1477C88.5643 42.9748 87.6914 36.4046 84.4989 30.8733L67.8955 2.09457C67.5274 1.45769 66.9982 0.928863 66.3611 0.561205C65.7239 0.193547 65.0013 0 64.2657 0C63.53 0 62.8074 0.193547 62.1702 0.561205C61.5331 0.928863 61.0039 1.45769 60.6358 2.09457Z" fill="url(#paint2_linear_646_11375)"/>
<path d="M60.6358 2.09457L3.92737 100.31C3.64785 100.789 3.53521 101.348 3.60705 101.899C3.6789 102.449 3.93118 102.96 4.32444 103.352C4.7177 103.744 5.22975 103.994 5.7805 104.064C6.33125 104.134 6.88964 104.02 7.36831 103.738L75.7605 63.8161C81.2748 60.5944 85.2894 55.3207 86.9269 49.1477C88.5643 42.9748 87.6914 36.4046 84.4989 30.8733L67.8955 2.09457C67.5274 1.45769 66.9982 0.928863 66.3611 0.561205C65.7239 0.193547 65.0013 0 64.2657 0C63.53 0 62.8074 0.193547 62.1702 0.561205C61.5331 0.928863 61.0039 1.45769 60.6358 2.09457Z" fill="black" fill-opacity="0.1" style="mix-blend-mode:soft-light"/>
<defs>
<linearGradient id="paint0_linear_646_11375" x1="14.9718" y1="131.356" x2="34.0065" y2="81.6015" gradientUnits="userSpaceOnUse">
<stop stop-color="#98B9EA"/>
<stop offset="1" stop-color="#255BB9"/>
</linearGradient>
<linearGradient id="paint1_linear_646_11375" x1="54.6171" y1="81.25" x2="131.732" y2="103.979" gradientUnits="userSpaceOnUse">
<stop stop-color="#98B9EA"/>
<stop offset="1" stop-color="#255BB9"/>
</linearGradient>
<linearGradient id="paint2_linear_646_11375" x1="45.6603" y1="1.54492e-06" x2="-15.4503" y2="85.7457" gradientUnits="userSpaceOnUse">
<stop stop-color="#98B9EA"/>
<stop offset="1" stop-color="#255BB9"/>
</linearGradient>
</defs>
</svg>
