<svg xmlns="http://www.w3.org/2000/svg" xmlns:xlink="http://www.w3.org/1999/xlink" width="52" height="53.195" viewBox="0 0 52 53.195">
  <defs>
    <linearGradient id="linear-gradient" x1="0.076" y1="1.044" x2="0.424" y2="0.207" gradientUnits="objectBoundingBox">
      <stop offset="0" stop-color="#6d82c7"/>
      <stop offset="1" stop-color="#3551b7"/>
    </linearGradient>
    <linearGradient id="linear-gradient-2" x1="0.5" y1="0" x2="0.146" y2="1.106" xlink:href="#linear-gradient"/>
  </defs>
  <g id="Group_83528" data-name="Group 83528" transform="translate(-240 -20.001)">
    <g id="Group_26112" data-name="Group 26112" transform="translate(240 20.001)">
      <path id="Path_11665" data-name="Path 11665" d="M2230.227,1195.143a9.628,9.628,0,0,0-13.19-3.5l-30.545,17.819h19.463l7.785-4.542a5.208,5.208,0,0,1,7.135,1.895l1.53,2.647h16.087Z" transform="translate(-2186.493 -1156.264)" fill="url(#linear-gradient)"/>
      <path id="Path_11666" data-name="Path 11666" d="M2217.24,1199.894c9.728-5.675,14.638,0,19.514,9.566h16.088l-8.266-14.316a9.628,9.628,0,0,0-13.19-3.5Z" transform="translate(-2200.842 -1156.264)" fill="#6d82c7"/>
      <path id="Path_11667" data-name="Path 11667" d="M2220.074,1150.922c.094-.129.18-.261.267-.393.074-.114.15-.224.219-.339s.138-.254.207-.381a9.459,9.459,0,0,0,.416-.877c.03-.073.064-.145.093-.218.069-.179.127-.362.185-.545.026-.083.055-.163.078-.246.055-.189.1-.379.143-.571.017-.076.034-.152.049-.229.04-.2.073-.4.1-.608.008-.061.014-.122.021-.183.025-.222.044-.443.054-.666,0-.024,0-.048,0-.073a9.573,9.573,0,0,0-.4-3.118h0a9.588,9.588,0,0,0-.871-2.03l-8.073-13.984-20.094,34.8h0l-2.515,4.357-.876,1.517,0,0-2.453,4.249,30.523-17.806c.268-.156.524-.325.77-.5.082-.059.158-.123.238-.183.16-.123.318-.247.468-.378.09-.079.175-.16.262-.241.13-.122.257-.246.378-.374.088-.092.172-.183.255-.278.111-.126.217-.254.319-.385C2219.917,1151.129,2220,1151.027,2220.074,1150.922Z" transform="translate(-2186.552 -1126.458)" fill="url(#linear-gradient-2)"/>
    </g>
  </g>
</svg>
