<svg xmlns="http://www.w3.org/2000/svg" xmlns:xlink="http://www.w3.org/1999/xlink" width="52" height="52" viewBox="0 0 52 52">
  <defs>
    <linearGradient id="linear-gradient" x1="0.076" y1="1.044" x2="0.424" y2="0.207" gradientUnits="objectBoundingBox">
      <stop offset="0" stop-color="#6f9ee0"/>
      <stop offset="1" stop-color="#255bb9"/>
    </linearGradient>
    <linearGradient id="linear-gradient-2" x1="0.05" y1="0.141" x2="0.869" y2="0.13" xlink:href="#linear-gradient"/>
    <linearGradient id="linear-gradient-3" x1="0.5" y1="0" x2="0.146" y2="1.106" xlink:href="#linear-gradient"/>
  </defs>
  <g id="Group_102117" data-name="Group 102117" transform="translate(-188 -193)">
    <rect id="Rectangle_87507" data-name="Rectangle 87507" width="52" height="52" transform="translate(188 193)" fill="#fff" opacity="0"/>
    <path id="Path_41652" data-name="Path 41652" d="M29.493,21.3l-.039.023L1.932,37.376a1.009,1.009,0,0,0,.509,1.881H15.569a10.1,10.1,0,0,0,5.085-1.376l5.481-3.2A5.24,5.24,0,0,1,33.3,36.569l.013.021.57.984A3.364,3.364,0,0,0,36.8,39.257H48.137a1.682,1.682,0,0,0,1.457-2.523L42.731,24.852A9.688,9.688,0,0,0,29.493,21.3" transform="translate(188.901 205.597)" fill="url(#linear-gradient)"/>
    <path id="Path_41653" data-name="Path 41653" d="M9.887,29.634c9.179-5.361,14.1-.67,18.721,7.871a3.372,3.372,0,0,0,2.966,1.757H42.809a1.683,1.683,0,0,0,1.457-2.523L37.4,24.852A9.691,9.691,0,0,0,24.163,21.3l-.039.023Z" transform="translate(194.227 205.597)" fill="url(#linear-gradient-2)"/>
    <path id="Path_41654" data-name="Path 41654" d="M23.773.841,1.022,40.245A1.008,1.008,0,0,0,2.4,41.62L29.841,25.6A9.7,9.7,0,0,0,33.35,12.38L26.686.841a1.681,1.681,0,0,0-2.913,0" transform="translate(188.554 193)" fill="url(#linear-gradient-3)"/>
  </g>
</svg>
