<svg width="190" height="28" viewBox="0 0 190 28" fill="none" xmlns="http://www.w3.org/2000/svg">
<path d="M123.727 8.58833C125.952 8.58833 127.652 9.10083 128.826 10.1258C130.001 11.1351 130.588 12.6962 130.588 14.8093V21.7635H125.72V20.0604C125.117 21.3535 123.92 22 122.127 22C121.123 22 120.265 21.8265 119.554 21.4796C118.859 21.1169 118.326 20.636 117.955 20.0367C117.6 19.4217 117.422 18.7358 117.422 17.9789C117.422 16.7016 117.901 15.7318 118.859 15.0695C119.817 14.4072 121.27 14.076 123.217 14.076H125.326C125.156 13.0668 124.36 12.5622 122.939 12.5622C122.367 12.5622 121.787 12.6568 121.2 12.846C120.613 13.0195 120.111 13.2639 119.693 13.5793L118.025 10.0549C118.751 9.59756 119.624 9.24275 120.644 8.99045C121.679 8.72237 122.707 8.58833 123.727 8.58833ZM123.703 18.7831C124.074 18.7831 124.407 18.6806 124.7 18.4756C124.994 18.2706 125.21 17.9631 125.349 17.5531V16.6543H124.051C122.985 16.6543 122.452 17.0169 122.452 17.7423C122.452 18.0419 122.56 18.2942 122.776 18.4992C123.008 18.6885 123.317 18.7831 123.703 18.7831Z" fill="#6F9EE0" fill-opacity="0.5"/>
<path d="M137.812 22C136.73 22 135.664 21.8817 134.613 21.6452C133.563 21.4087 132.713 21.1012 132.064 20.7227L133.501 17.1983C134.088 17.561 134.783 17.8448 135.587 18.0498C136.39 18.2548 137.171 18.3573 137.928 18.3573C138.531 18.3573 138.948 18.31 139.18 18.2154C139.427 18.105 139.551 17.9473 139.551 17.7423C139.551 17.5373 139.396 17.3954 139.087 17.3166C138.793 17.2377 138.307 17.1589 137.627 17.08C136.591 16.9539 135.711 16.7962 134.984 16.6069C134.258 16.4019 133.617 16.0156 133.06 15.4479C132.52 14.8802 132.249 14.0681 132.249 13.0116C132.249 12.1758 132.496 11.4268 132.991 10.7645C133.485 10.1022 134.219 9.57391 135.193 9.17968C136.182 8.78545 137.364 8.58833 138.739 8.58833C139.697 8.58833 140.632 8.68295 141.544 8.87218C142.471 9.04564 143.259 9.30583 143.908 9.65275L142.471 13.1772C141.359 12.5464 140.138 12.231 138.809 12.231C137.665 12.231 137.094 12.436 137.094 12.846C137.094 13.051 137.248 13.2008 137.557 13.2954C137.866 13.3743 138.353 13.4531 139.017 13.532C140.053 13.6581 140.926 13.8237 141.637 14.0287C142.363 14.2337 142.997 14.62 143.537 15.1877C144.094 15.7554 144.372 16.5675 144.372 17.6241C144.372 18.4283 144.125 19.1616 143.63 19.8239C143.136 20.4862 142.394 21.0144 141.405 21.4087C140.416 21.8029 139.218 22 137.812 22Z" fill="#6F9EE0" fill-opacity="0.5"/>
<path d="M150.918 22C149.837 22 148.771 21.8817 147.72 21.6452C146.669 21.4087 145.819 21.1012 145.17 20.7227L146.607 17.1983C147.194 17.561 147.89 17.8448 148.693 18.0498C149.497 18.2548 150.277 18.3573 151.034 18.3573C151.637 18.3573 152.054 18.31 152.286 18.2154C152.533 18.105 152.657 17.9473 152.657 17.7423C152.657 17.5373 152.502 17.3954 152.193 17.3166C151.9 17.2377 151.413 17.1589 150.733 17.08C149.698 16.9539 148.817 16.7962 148.091 16.6069C147.364 16.4019 146.723 16.0156 146.167 15.4479C145.626 14.8802 145.355 14.0681 145.355 13.0116C145.355 12.1758 145.603 11.4268 146.097 10.7645C146.592 10.1022 147.326 9.57391 148.299 9.17968C149.288 8.78545 150.47 8.58833 151.846 8.58833C152.804 8.58833 153.739 8.68295 154.65 8.87218C155.578 9.04564 156.366 9.30583 157.015 9.65275L155.578 13.1772C154.465 12.5464 153.244 12.231 151.915 12.231C150.772 12.231 150.2 12.436 150.2 12.846C150.2 13.051 150.354 13.2008 150.664 13.2954C150.973 13.3743 151.459 13.4531 152.124 13.532C153.159 13.6581 154.032 13.8237 154.743 14.0287C155.469 14.2337 156.103 14.62 156.644 15.1877C157.2 15.7554 157.478 16.5675 157.478 17.6241C157.478 18.4283 157.231 19.1616 156.737 19.8239C156.242 20.4862 155.5 21.0144 154.511 21.4087C153.522 21.8029 152.325 22 150.918 22Z" fill="#6F9EE0" fill-opacity="0.5"/>
<path d="M159.064 8.82487H164.303V21.7635H159.064V8.82487ZM161.684 7.78411C160.741 7.78411 159.976 7.5318 159.389 7.02719C158.817 6.50681 158.531 5.85239 158.531 5.06393C158.531 4.27547 158.817 3.62894 159.389 3.12432C159.976 2.60394 160.741 2.34375 161.684 2.34375C162.642 2.34375 163.407 2.58817 163.978 3.07702C164.55 3.56586 164.836 4.19662 164.836 4.96931C164.836 5.78931 164.55 6.46738 163.978 7.00353C163.407 7.52392 162.642 7.78411 161.684 7.78411Z" fill="#6F9EE0" fill-opacity="0.5"/>
<path d="M171.585 22C170.504 22 169.437 21.8817 168.387 21.6452C167.336 21.4087 166.486 21.1012 165.837 20.7227L167.274 17.1983C167.861 17.561 168.557 17.8448 169.36 18.0498C170.164 18.2548 170.944 18.3573 171.701 18.3573C172.304 18.3573 172.721 18.31 172.953 18.2154C173.2 18.105 173.324 17.9473 173.324 17.7423C173.324 17.5373 173.169 17.3954 172.86 17.3166C172.567 17.2377 172.08 17.1589 171.4 17.08C170.365 16.9539 169.484 16.7962 168.757 16.6069C168.031 16.4019 167.39 16.0156 166.834 15.4479C166.293 14.8802 166.022 14.0681 166.022 13.0116C166.022 12.1758 166.269 11.4268 166.764 10.7645C167.258 10.1022 167.992 9.57391 168.966 9.17968C169.955 8.78545 171.137 8.58833 172.512 8.58833C173.471 8.58833 174.405 8.68295 175.317 8.87218C176.244 9.04564 177.032 9.30583 177.681 9.65275L176.244 13.1772C175.132 12.5464 173.911 12.231 172.582 12.231C171.438 12.231 170.867 12.436 170.867 12.846C170.867 13.051 171.021 13.2008 171.33 13.2954C171.639 13.3743 172.126 13.4531 172.791 13.532C173.826 13.6581 174.699 13.8237 175.41 14.0287C176.136 14.2337 176.77 14.62 177.311 15.1877C177.867 15.7554 178.145 16.5675 178.145 17.6241C178.145 18.4283 177.898 19.1616 177.403 19.8239C176.909 20.4862 176.167 21.0144 175.178 21.4087C174.189 21.8029 172.992 22 171.585 22Z" fill="#6F9EE0" fill-opacity="0.5"/>
<path d="M189.073 21.314C188.284 21.7713 187.21 22 185.851 22C184.074 22 182.706 21.5663 181.748 20.699C180.79 19.816 180.311 18.4992 180.311 16.7489V13.4373H178.572V9.53448H180.311V5.91546H185.549V9.53448H188.145V13.4373H185.549V16.7016C185.549 17.0958 185.65 17.4033 185.851 17.6241C186.051 17.8448 186.314 17.9552 186.639 17.9552C187.087 17.9552 187.481 17.8369 187.821 17.6004L189.073 21.314Z" fill="#6F9EE0" fill-opacity="0.5"/>
<path d="M123.727 8.58594C125.952 8.58594 127.652 9.09844 128.826 10.1234C130.001 11.1327 130.588 12.6938 130.588 14.8069V21.7611H125.72V20.058C125.117 21.3511 123.92 21.9976 122.127 21.9976C121.123 21.9976 120.265 21.8241 119.554 21.4772C118.859 21.1145 118.326 20.6336 117.955 20.0343C117.6 19.4193 117.422 18.7334 117.422 17.9765C117.422 16.6992 117.901 15.7294 118.859 15.0671C119.817 14.4048 121.27 14.0736 123.217 14.0736H125.326C125.156 13.0644 124.36 12.5598 122.939 12.5598C122.367 12.5598 121.787 12.6544 121.2 12.8436C120.613 13.0171 120.111 13.2615 119.693 13.5769L118.025 10.0525C118.751 9.59516 119.624 9.24036 120.644 8.98805C121.679 8.71998 122.707 8.58594 123.727 8.58594ZM123.703 18.7807C124.074 18.7807 124.407 18.6782 124.7 18.4732C124.994 18.2682 125.21 17.9607 125.349 17.5507V16.6519H124.051C122.985 16.6519 122.452 17.0145 122.452 17.7399C122.452 18.0395 122.56 18.2918 122.776 18.4968C123.008 18.6861 123.317 18.7807 123.703 18.7807Z" fill="#6F9EE0"/>
<path d="M41.487 22C40.0498 22 38.7595 21.7162 37.616 21.1485C36.4879 20.5808 35.5994 19.7844 34.9504 18.7594C34.3168 17.7344 34 16.5754 34 15.2823C34 13.9893 34.3168 12.8381 34.9504 11.8289C35.5994 10.8039 36.4879 10.0076 37.616 9.43987C38.7595 8.87218 40.0498 8.58833 41.487 8.58833C43.0322 8.58833 44.3535 8.92737 45.4506 9.60544C46.5478 10.2835 47.305 11.2218 47.7222 12.4202L43.6658 14.4545C43.1713 13.3191 42.4373 12.7514 41.4638 12.7514C40.8457 12.7514 40.328 12.9722 39.9108 13.4137C39.509 13.8552 39.3081 14.4781 39.3081 15.2823C39.3081 16.1023 39.509 16.7331 39.9108 17.1746C40.328 17.6162 40.8457 17.8369 41.4638 17.8369C42.4373 17.8369 43.1713 17.2693 43.6658 16.1339L47.7222 18.1681C47.305 19.3665 46.5478 20.3048 45.4506 20.9829C44.3535 21.661 43.0322 22 41.487 22Z" fill="white"/>
<path d="M54.6119 8.58833C56.8372 8.58833 58.537 9.10083 59.7114 10.1258C60.8858 11.1351 61.473 12.6962 61.473 14.8093V21.7635H56.6054V20.0604C56.0027 21.3535 54.8051 22 53.0126 22C52.0081 22 51.1505 21.8265 50.4396 21.4796C49.7443 21.1169 49.2111 20.636 48.8403 20.0367C48.4848 19.4217 48.3071 18.7358 48.3071 17.9789C48.3071 16.7016 48.7862 15.7318 49.7443 15.0695C50.7023 14.4072 52.1549 14.076 54.102 14.076H56.2113C56.0413 13.0668 55.2455 12.5622 53.8238 12.5622C53.2521 12.5622 52.6726 12.6568 52.0854 12.846C51.4982 13.0195 50.9959 13.2639 50.5787 13.5793L48.9098 10.0549C49.6361 9.59756 50.5092 9.24275 51.5291 8.99045C52.5644 8.72237 53.592 8.58833 54.6119 8.58833ZM54.5888 18.7831C54.9596 18.7831 55.2919 18.6806 55.5855 18.4756C55.8791 18.2706 56.0954 17.9631 56.2345 17.5531V16.6543H54.9364C53.8702 16.6543 53.3371 17.0169 53.3371 17.7423C53.3371 18.0419 53.4452 18.2942 53.6616 18.4992C53.8934 18.6885 54.2024 18.7831 54.5888 18.7831Z" fill="white"/>
<path d="M68.7206 10.2204C69.6478 9.13237 71.0154 8.58833 72.8234 8.58833V13.3191C72.4061 13.256 72.0198 13.2245 71.6644 13.2245C69.8718 13.2245 68.9756 14.1548 68.9756 16.0156V21.7635H63.737V8.82487H68.7206V10.2204Z" fill="white"/>
<path d="M79.2917 10.2204C80.2189 9.13237 81.5864 8.58833 83.3944 8.58833V13.3191C82.9772 13.256 82.5909 13.2245 82.2355 13.2245C80.4429 13.2245 79.5467 14.1548 79.5467 16.0156V21.7635H74.3081V8.82487H79.2917V10.2204Z" fill="white"/>
<path d="M84.8792 8.82487H90.1177V21.7635H84.8792V8.82487ZM87.4985 7.78411C86.5558 7.78411 85.7909 7.5318 85.2037 7.02719C84.6319 6.50681 84.3461 5.85239 84.3461 5.06393C84.3461 4.27547 84.6319 3.62894 85.2037 3.12432C85.7909 2.60394 86.5558 2.34375 87.4985 2.34375C88.4565 2.34375 89.2215 2.58817 89.7932 3.07702C90.365 3.56586 90.6509 4.19662 90.6509 4.96931C90.6509 5.78931 90.365 6.46738 89.7932 7.00353C89.2215 7.52392 88.4565 7.78411 87.4985 7.78411Z" fill="white"/>
<path d="M105.93 15.2823C105.93 15.3612 105.907 15.7791 105.861 16.536H97.0524C97.2378 17.0248 97.5469 17.4033 97.9795 17.6714C98.4122 17.9237 98.9531 18.0498 99.6021 18.0498C100.158 18.0498 100.622 17.9789 100.993 17.8369C101.379 17.695 101.796 17.4506 102.245 17.1037L104.98 19.9185C103.743 21.3062 101.897 22 99.4398 22C97.91 22 96.5656 21.7162 95.4066 21.1485C94.2477 20.565 93.3514 19.7608 92.7178 18.7358C92.0842 17.7108 91.7675 16.5596 91.7675 15.2823C91.7675 13.9893 92.0765 12.8381 92.6946 11.8289C93.3282 10.8039 94.1858 10.0076 95.2675 9.43987C96.3647 8.87218 97.5932 8.58833 98.9531 8.58833C100.236 8.58833 101.402 8.84852 102.453 9.36891C103.519 9.88929 104.362 10.6541 104.98 11.6633C105.613 12.6725 105.93 13.8789 105.93 15.2823ZM98.9994 12.231C98.4586 12.231 98.0104 12.3808 97.655 12.6804C97.2996 12.98 97.0678 13.4058 96.9597 13.9577H101.039C100.931 13.4216 100.699 13.0037 100.344 12.7041C99.9884 12.3887 99.5403 12.231 98.9994 12.231Z" fill="white"/>
<path d="M112.567 10.2204C113.494 9.13237 114.862 8.58833 116.67 8.58833V13.3191C116.252 13.256 115.866 13.2245 115.511 13.2245C113.718 13.2245 112.822 14.1548 112.822 16.0156V21.7635H107.583V8.82487H112.567V10.2204Z" fill="white"/>
<path d="M16.3154 18.199L16.2944 18.2113L1.5192 26.8274C1.41624 26.8873 1.33591 26.9795 1.29064 27.0897C1.24537 27.1999 1.23768 27.3219 1.26877 27.4369C1.29986 27.5519 1.36799 27.6534 1.46262 27.7258C1.55724 27.7981 1.67308 27.8373 1.7922 27.8372H8.84032C9.79961 27.8367 10.7416 27.5819 11.5703 27.0987L14.5129 25.3819C14.8322 25.1953 15.185 25.0735 15.5513 25.0235C15.9176 24.9734 16.2902 24.996 16.6478 25.09C17.0054 25.184 17.3409 25.3476 17.6352 25.5714C17.9295 25.7952 18.1768 26.0748 18.3629 26.3943L18.3699 26.4057L18.6762 26.9307C18.8346 27.205 19.0624 27.4329 19.3367 27.5914C19.611 27.7499 19.9221 27.8334 20.2389 27.8337H26.3263C26.4849 27.8337 26.6406 27.792 26.7779 27.7128C26.9152 27.6335 27.0292 27.5195 27.1085 27.3823C27.1878 27.245 27.2295 27.0892 27.2296 26.9307C27.2296 26.7722 27.1878 26.6164 27.1086 26.4792L23.4239 20.1004C23.0822 19.5086 22.6273 18.9899 22.085 18.574C21.5428 18.1582 20.9239 17.8532 20.2637 17.6766C19.6036 17.5001 18.9151 17.4553 18.2376 17.5449C17.5601 17.6346 16.907 17.8568 16.3154 18.199" fill="url(#paint0_linear_675_11389)"/>
<path d="M8.65625 22.6689C13.5842 19.791 16.2241 22.3093 18.7065 26.8943C18.8625 27.1802 19.0928 27.4188 19.3731 27.5848C19.6534 27.7508 19.9732 27.8381 20.299 27.8375H26.3304C26.4889 27.8376 26.6446 27.7959 26.782 27.7166C26.9193 27.6374 27.0333 27.5234 27.1126 27.3861C27.1918 27.2488 27.2336 27.0931 27.2336 26.9346C27.2336 26.776 27.1919 26.6203 27.1126 26.483L23.4271 20.1016C22.7373 18.9067 21.601 18.0346 20.2682 17.6774C18.9355 17.3202 17.5154 17.507 16.3204 18.1968L16.2994 18.209L8.65625 22.6689Z" fill="url(#paint1_linear_675_11389)"/>
<path d="M13.0611 0.451139L0.846977 21.6051C0.786774 21.7085 0.762511 21.8288 0.777985 21.9474C0.79346 22.0659 0.847797 22.176 0.932499 22.2604C1.0172 22.3448 1.12749 22.3988 1.24611 22.4138C1.36474 22.4289 1.485 22.4042 1.5881 22.3436L16.3187 13.745C17.5064 13.0511 18.3711 11.9152 18.7238 10.5857C19.0765 9.25611 18.8885 7.84099 18.2009 6.64964L14.6247 0.451139C14.5454 0.313964 14.4315 0.200063 14.2942 0.120875C14.157 0.0416871 14.0014 0 13.8429 0C13.6845 0 13.5288 0.0416871 13.3916 0.120875C13.2544 0.200063 13.1404 0.313964 13.0611 0.451139" fill="url(#paint2_linear_675_11389)"/>
<defs>
<linearGradient id="paint0_linear_675_11389" x1="3.90831" y1="27.7824" x2="7.74174" y2="20.2027" gradientUnits="userSpaceOnUse">
<stop stop-color="#6F9EE0"/>
<stop offset="1" stop-color="#255BB9"/>
</linearGradient>
<linearGradient id="paint1_linear_675_11389" x1="15.7807" y1="18.693" x2="25.5339" y2="26.4436" gradientUnits="userSpaceOnUse">
<stop stop-color="#6F9EE0"/>
<stop offset="1" stop-color="#255BB9"/>
</linearGradient>
<linearGradient id="paint2_linear_675_11389" x1="9.83561" y1="0" x2="0.480186" y2="23.6308" gradientUnits="userSpaceOnUse">
<stop stop-color="#6F9EE0"/>
<stop offset="1" stop-color="#255BB9"/>
</linearGradient>
</defs>
</svg>
