<svg width="127" height="28" viewBox="0 0 127 28" fill="none" xmlns="http://www.w3.org/2000/svg">
<path d="M37.8829 22C36.5617 22 35.3755 21.7401 34.3243 21.2202C33.2872 20.7004 32.4703 19.9711 31.8737 19.0325C31.2912 18.0939 31 17.0325 31 15.8484C31 14.6643 31.2912 13.6101 31.8737 12.6859C32.4703 11.7473 33.2872 11.0181 34.3243 10.4982C35.3755 9.97834 36.5617 9.71841 37.8829 9.71841C39.3035 9.71841 40.5182 10.0289 41.5268 10.6498C42.5355 11.2708 43.2316 12.13 43.6151 13.2274L39.886 15.0903C39.4314 14.0505 38.7566 13.5307 37.8616 13.5307C37.2934 13.5307 36.8175 13.7329 36.4339 14.1372C36.0645 14.5415 35.8798 15.1119 35.8798 15.8484C35.8798 16.5993 36.0645 17.1769 36.4339 17.5812C36.8175 17.9856 37.2934 18.1877 37.8616 18.1877C38.7566 18.1877 39.4314 17.6679 39.886 16.6282L43.6151 18.491C43.2316 19.5884 42.5355 20.4477 41.5268 21.0686C40.5182 21.6895 39.3035 22 37.8829 22Z" fill="white"/>
<path d="M49.949 9.71841C51.9947 9.71841 53.5574 10.1877 54.6371 11.1264C55.7167 12.0505 56.2566 13.4801 56.2566 15.4152V21.7834H51.7816V20.2238C51.2276 21.4079 50.1266 22 48.4787 22C47.5553 22 46.7668 21.8412 46.1133 21.5235C45.474 21.1913 44.9839 20.7509 44.643 20.2022C44.3162 19.639 44.1529 19.0108 44.1529 18.3177C44.1529 17.148 44.5933 16.2599 45.474 15.6534C46.3548 15.0469 47.6902 14.7437 49.4802 14.7437H51.4194C51.2631 13.8195 50.5315 13.3574 49.2245 13.3574C48.6989 13.3574 48.1661 13.444 47.6263 13.6173C47.0865 13.7762 46.6248 14 46.2412 14.2888L44.7069 11.0614C45.3746 10.6426 46.1773 10.3177 47.1149 10.0866C48.0667 9.84116 49.0114 9.71841 49.949 9.71841ZM49.9277 19.0542C50.2687 19.0542 50.5741 18.9603 50.844 18.7726C51.1139 18.5848 51.3128 18.3032 51.4407 17.9278V17.1047H50.2473C49.2671 17.1047 48.777 17.4368 48.777 18.1011C48.777 18.3755 48.8764 18.6065 49.0753 18.7942C49.2884 18.9675 49.5725 19.0542 49.9277 19.0542Z" fill="white"/>
<path d="M62.9194 11.213C63.7718 10.2166 65.029 9.71841 66.6912 9.71841V14.0505C66.3076 13.9928 65.9525 13.9639 65.6257 13.9639C63.9778 13.9639 63.1538 14.8159 63.1538 16.5199V21.7834H58.3379V9.93502H62.9194V11.213Z" fill="white"/>
<path d="M72.6377 11.213C73.49 10.2166 74.7473 9.71841 76.4094 9.71841V14.0505C76.0258 13.9928 75.6707 13.9639 75.3439 13.9639C73.696 13.9639 72.8721 14.8159 72.8721 16.5199V21.7834H68.0561V9.93502H72.6377V11.213Z" fill="white"/>
<path d="M77.7744 9.93502H82.5903V21.7834H77.7744V9.93502ZM80.1823 8.98195C79.3158 8.98195 78.6125 8.7509 78.0727 8.28881C77.5471 7.81227 77.2843 7.213 77.2843 6.49098C77.2843 5.76895 77.5471 5.1769 78.0727 4.7148C78.6125 4.23827 79.3158 4 80.1823 4C81.0631 4 81.7663 4.22383 82.292 4.67148C82.8176 5.11913 83.0804 5.69675 83.0804 6.40433C83.0804 7.15523 82.8176 7.77617 82.292 8.26715C81.7663 8.74368 81.0631 8.98195 80.1823 8.98195Z" fill="white"/>
<path d="M97.1269 15.8484C97.1269 15.9206 97.1056 16.3032 97.063 16.9964H88.9655C89.1359 17.444 89.4201 17.7906 89.8178 18.0361C90.2156 18.2671 90.7128 18.3827 91.3095 18.3827C91.8209 18.3827 92.2471 18.3177 92.5881 18.1877C92.9432 18.0578 93.3268 17.8339 93.7388 17.5162L96.2533 20.0939C95.1168 21.3646 93.4191 22 91.1603 22C89.7539 22 88.518 21.7401 87.4525 21.2202C86.387 20.6859 85.5631 19.9495 84.9806 19.0108C84.3982 18.0722 84.1069 17.0181 84.1069 15.8484C84.1069 14.6643 84.391 13.6101 84.9593 12.6859C85.5418 11.7473 86.3302 11.0181 87.3246 10.4982C88.3333 9.97834 89.4627 9.71841 90.7128 9.71841C91.8919 9.71841 92.9645 9.95668 93.9305 10.4332C94.9108 10.9097 95.685 11.6101 96.2533 12.5343C96.8357 13.4585 97.1269 14.5632 97.1269 15.8484ZM90.7554 13.0542C90.2582 13.0542 89.8462 13.1913 89.5195 13.4657C89.1928 13.7401 88.9797 14.13 88.8802 14.6354H92.6307C92.5312 14.1444 92.3181 13.7617 91.9914 13.4874C91.6646 13.1986 91.2527 13.0542 90.7554 13.0542Z" fill="white"/>
<path d="M103.228 11.213C104.081 10.2166 105.338 9.71841 107 9.71841V14.0505C106.616 13.9928 106.261 13.9639 105.935 13.9639C104.287 13.9639 103.463 14.8159 103.463 16.5199V21.7834H98.6467V9.93502H103.228V11.213Z" fill="white"/>
<path d="M113.744 10C115.772 10 117.32 10.4586 118.39 11.3757C119.46 12.2787 119.995 13.6755 119.995 15.5661V21.7884H115.561V20.2646C115.011 21.4215 113.92 22 112.287 22C111.372 22 110.591 21.8448 109.943 21.5344C109.309 21.2099 108.824 20.7795 108.486 20.2434C108.162 19.6931 108 19.0794 108 18.4021C108 17.2593 108.436 16.3915 109.309 15.7989C110.182 15.2063 111.506 14.9101 113.28 14.9101H115.202C115.047 14.0071 114.322 13.5556 113.026 13.5556C112.505 13.5556 111.977 13.6402 111.442 13.8095C110.907 13.9647 110.45 14.1834 110.07 14.4656L108.549 11.3122C109.211 10.903 110.006 10.5855 110.936 10.3598C111.879 10.1199 112.815 10 113.744 10ZM113.723 19.1217C114.061 19.1217 114.364 19.03 114.631 18.8466C114.899 18.6631 115.096 18.388 115.223 18.0212V17.2169H114.04C113.069 17.2169 112.583 17.5414 112.583 18.1905C112.583 18.4586 112.681 18.6843 112.878 18.8677C113.09 19.037 113.371 19.1217 113.723 19.1217Z" fill="#6F9EE0"/>
<path d="M124.212 22C123.41 22 122.741 21.746 122.206 21.2381C121.685 20.7161 121.425 20.0529 121.425 19.2487C121.425 18.4444 121.685 17.7954 122.206 17.3016C122.741 16.7937 123.41 16.5397 124.212 16.5397C125.015 16.5397 125.677 16.7937 126.197 17.3016C126.732 17.7954 127 18.4444 127 19.2487C127 20.0529 126.732 20.7161 126.197 21.2381C125.677 21.746 125.015 22 124.212 22Z" fill="#6F9EE0"/>
<path d="M16.3154 18.199L16.2944 18.2113L1.5192 26.8274C1.41624 26.8873 1.33591 26.9795 1.29064 27.0897C1.24537 27.1999 1.23768 27.3219 1.26877 27.4369C1.29986 27.5519 1.36799 27.6534 1.46262 27.7258C1.55724 27.7981 1.67308 27.8373 1.7922 27.8372H8.84032C9.79961 27.8367 10.7416 27.5819 11.5703 27.0987L14.5129 25.3819C14.8322 25.1953 15.185 25.0735 15.5513 25.0235C15.9176 24.9734 16.2902 24.996 16.6478 25.09C17.0054 25.184 17.3409 25.3476 17.6352 25.5714C17.9295 25.7952 18.1768 26.0748 18.3629 26.3943L18.3699 26.4057L18.6762 26.9307C18.8346 27.205 19.0624 27.4329 19.3367 27.5914C19.611 27.7499 19.9221 27.8334 20.2389 27.8337H26.3263C26.4849 27.8337 26.6406 27.792 26.7779 27.7128C26.9152 27.6335 27.0292 27.5195 27.1085 27.3823C27.1878 27.245 27.2295 27.0892 27.2296 26.9307C27.2296 26.7722 27.1878 26.6164 27.1086 26.4792L23.4239 20.1004C23.0822 19.5086 22.6273 18.9899 22.085 18.574C21.5428 18.1582 20.9239 17.8532 20.2637 17.6766C19.6036 17.5001 18.9151 17.4553 18.2376 17.5449C17.5601 17.6346 16.907 17.8568 16.3154 18.199Z" fill="url(#paint0_linear_1661_22198)"/>
<path d="M16.3154 18.199L16.2944 18.2113L1.5192 26.8274C1.41624 26.8873 1.33591 26.9795 1.29064 27.0897C1.24537 27.1999 1.23768 27.3219 1.26877 27.4369C1.29986 27.5519 1.36799 27.6534 1.46262 27.7258C1.55724 27.7981 1.67308 27.8373 1.7922 27.8372H8.84032C9.79961 27.8367 10.7416 27.5819 11.5703 27.0987L14.5129 25.3819C14.8322 25.1953 15.185 25.0735 15.5513 25.0235C15.9176 24.9734 16.2902 24.996 16.6478 25.09C17.0054 25.184 17.3409 25.3476 17.6352 25.5714C17.9295 25.7952 18.1768 26.0748 18.3629 26.3943L18.3699 26.4057L18.6762 26.9307C18.8346 27.205 19.0624 27.4329 19.3367 27.5914C19.611 27.7499 19.9221 27.8334 20.2389 27.8337H26.3263C26.4849 27.8337 26.6406 27.792 26.7779 27.7128C26.9152 27.6335 27.0292 27.5195 27.1085 27.3823C27.1878 27.245 27.2295 27.0892 27.2296 26.9307C27.2296 26.7722 27.1878 26.6164 27.1086 26.4792L23.4239 20.1004C23.0822 19.5086 22.6273 18.9899 22.085 18.574C21.5428 18.1582 20.9239 17.8532 20.2637 17.6766C19.6036 17.5001 18.9151 17.4553 18.2376 17.5449C17.5601 17.6346 16.907 17.8568 16.3154 18.199Z" fill="black" fill-opacity="0.5" style="mix-blend-mode:soft-light"/>
<path d="M8.65625 22.6689C13.5842 19.791 16.2241 22.3093 18.7065 26.8943C18.8625 27.1802 19.0928 27.4188 19.3731 27.5848C19.6534 27.7508 19.9732 27.8381 20.299 27.8375H26.3304C26.4889 27.8376 26.6446 27.7959 26.782 27.7166C26.9193 27.6374 27.0333 27.5234 27.1126 27.3861C27.1918 27.2488 27.2336 27.0931 27.2336 26.9346C27.2336 26.776 27.1919 26.6203 27.1126 26.483L23.4271 20.1016C22.7373 18.9067 21.601 18.0346 20.2682 17.6774C18.9355 17.3202 17.5154 17.507 16.3204 18.1968L16.2994 18.209L8.65625 22.6689Z" fill="url(#paint1_linear_1661_22198)"/>
<path d="M13.0611 0.451139L0.846977 21.6051C0.786774 21.7085 0.762511 21.8288 0.777985 21.9474C0.79346 22.0659 0.847797 22.176 0.932499 22.2604C1.0172 22.3448 1.12749 22.3988 1.24611 22.4138C1.36474 22.4289 1.485 22.4042 1.5881 22.3436L16.3187 13.745C17.5064 13.0511 18.3711 11.9152 18.7238 10.5857C19.0765 9.25611 18.8885 7.84099 18.2009 6.64964L14.6247 0.451139C14.5454 0.313964 14.4315 0.200063 14.2942 0.120875C14.157 0.0416871 14.0014 0 13.8429 0C13.6845 0 13.5288 0.0416871 13.3916 0.120875C13.2544 0.200063 13.1404 0.313964 13.0611 0.451139Z" fill="url(#paint2_linear_1661_22198)"/>
<path d="M13.0611 0.451139L0.846977 21.6051C0.786774 21.7085 0.762511 21.8288 0.777985 21.9474C0.79346 22.0659 0.847797 22.176 0.932499 22.2604C1.0172 22.3448 1.12749 22.3988 1.24611 22.4138C1.36474 22.4289 1.485 22.4042 1.5881 22.3436L16.3187 13.745C17.5064 13.0511 18.3711 11.9152 18.7238 10.5857C19.0765 9.25611 18.8885 7.84099 18.2009 6.64964L14.6247 0.451139C14.5454 0.313964 14.4315 0.200063 14.2942 0.120875C14.157 0.0416871 14.0014 0 13.8429 0C13.6845 0 13.5288 0.0416871 13.3916 0.120875C13.2544 0.200063 13.1404 0.313964 13.0611 0.451139Z" fill="black" fill-opacity="0.1" style="mix-blend-mode:soft-light"/>
<defs>
<linearGradient id="paint0_linear_1661_22198" x1="3.22445" y1="28.292" x2="7.32423" y2="17.5757" gradientUnits="userSpaceOnUse">
<stop stop-color="#98B9EA"/>
<stop offset="1" stop-color="#255BB9"/>
</linearGradient>
<linearGradient id="paint1_linear_1661_22198" x1="11.7658" y1="17.5" x2="28.3752" y2="22.3955" gradientUnits="userSpaceOnUse">
<stop stop-color="#98B9EA"/>
<stop offset="1" stop-color="#255BB9"/>
</linearGradient>
<linearGradient id="paint2_linear_1661_22198" x1="9.83561" y1="3.32752e-07" x2="-3.32668" y2="18.4683" gradientUnits="userSpaceOnUse">
<stop stop-color="#98B9EA"/>
<stop offset="1" stop-color="#255BB9"/>
</linearGradient>
</defs>
</svg>
