<svg width="99" height="16" viewBox="0 0 99 16" fill="none" xmlns="http://www.w3.org/2000/svg">
<path d="M9.32758 10.3994L9.31558 10.4064L0.872578 15.3299C0.813746 15.3642 0.767843 15.4169 0.741973 15.4798C0.716104 15.5428 0.711712 15.6125 0.729477 15.6782C0.747243 15.7439 0.786174 15.802 0.840245 15.8433C0.894316 15.8846 0.960509 15.907 1.02858 15.9069H5.05608C5.60424 15.9067 6.14253 15.7611 6.61608 15.4849L8.29758 14.5039C8.47998 14.3973 8.68161 14.3277 8.89093 14.2991C9.10026 14.2705 9.31317 14.2834 9.5175 14.3372C9.72182 14.3909 9.91355 14.4844 10.0817 14.6122C10.2499 14.7401 10.3912 14.8999 10.4976 15.0824L10.5016 15.0889L10.6766 15.3889C10.7671 15.5457 10.8973 15.6759 11.054 15.7665C11.2107 15.8571 11.3885 15.9048 11.5696 15.9049H15.0481C15.1387 15.905 15.2277 15.8811 15.3061 15.8359C15.3846 15.7906 15.4497 15.7254 15.495 15.647C15.5403 15.5686 15.5642 15.4796 15.5642 15.389C15.5642 15.2984 15.5404 15.2094 15.4951 15.1309L13.3896 11.4859C13.1943 11.1478 12.9343 10.8514 12.6245 10.6137C12.3146 10.3761 11.961 10.2018 11.5837 10.1009C11.2065 10 10.8131 9.97446 10.4259 10.0257C10.0388 10.0769 9.66559 10.2039 9.32758 10.3994Z" fill="url(#paint0_linear_1464_18346)"/>
<path d="M9.32758 10.3994L9.31558 10.4064L0.872578 15.3299C0.813746 15.3642 0.767843 15.4169 0.741973 15.4798C0.716104 15.5428 0.711712 15.6125 0.729477 15.6782C0.747243 15.7439 0.786174 15.802 0.840245 15.8433C0.894316 15.8846 0.960509 15.907 1.02858 15.9069H5.05608C5.60424 15.9067 6.14253 15.7611 6.61608 15.4849L8.29758 14.5039C8.47998 14.3973 8.68161 14.3277 8.89093 14.2991C9.10026 14.2705 9.31317 14.2834 9.5175 14.3372C9.72182 14.3909 9.91355 14.4844 10.0817 14.6122C10.2499 14.7401 10.3912 14.8999 10.4976 15.0824L10.5016 15.0889L10.6766 15.3889C10.7671 15.5457 10.8973 15.6759 11.054 15.7665C11.2107 15.8571 11.3885 15.9048 11.5696 15.9049H15.0481C15.1387 15.905 15.2277 15.8811 15.3061 15.8359C15.3846 15.7906 15.4497 15.7254 15.495 15.647C15.5403 15.5686 15.5642 15.4796 15.5642 15.389C15.5642 15.2984 15.5404 15.2094 15.4951 15.1309L13.3896 11.4859C13.1943 11.1478 12.9343 10.8514 12.6245 10.6137C12.3146 10.3761 11.961 10.2018 11.5837 10.1009C11.2065 10 10.8131 9.97446 10.4259 10.0257C10.0388 10.0769 9.66559 10.2039 9.32758 10.3994Z" fill="black" fill-opacity="0.5" style="mix-blend-mode:soft-light"/>
<path d="M4.94531 12.9537C7.76131 11.3092 9.26981 12.7482 10.6883 15.3682C10.7775 15.5316 10.9091 15.6679 11.0692 15.7627C11.2294 15.8576 11.4122 15.9075 11.5983 15.9072H15.0448C15.1354 15.9072 15.2244 15.8834 15.3029 15.8381C15.3813 15.7928 15.4465 15.7277 15.4918 15.6492C15.5371 15.5708 15.5609 15.4818 15.5609 15.3912C15.5609 15.3006 15.5371 15.2116 15.4918 15.1332L13.3858 11.4867C12.9916 10.8038 12.3423 10.3055 11.5807 10.1014C10.8192 9.89724 10.0077 10.004 9.32481 10.3982L9.31281 10.4052L4.94531 12.9537Z" fill="url(#paint1_linear_1464_18346)"/>
<path d="M7.45902 0.257794L0.479523 12.3458C0.445121 12.4048 0.431256 12.4736 0.440099 12.5414C0.448941 12.6091 0.479991 12.672 0.528392 12.7203C0.576794 12.7685 0.639815 12.7993 0.7076 12.8079C0.775385 12.8165 0.844109 12.8024 0.903023 12.7678L9.32052 7.85429C9.9992 7.45778 10.4933 6.8087 10.6948 6.04895C10.8964 5.2892 10.7889 4.48057 10.396 3.79979L8.35252 0.257794C8.30722 0.179408 8.24209 0.114322 8.16367 0.0690714C8.08525 0.0238212 7.99631 0 7.90577 0C7.81524 0 7.72629 0.0238212 7.64788 0.0690714C7.56946 0.114322 7.50433 0.179408 7.45902 0.257794Z" fill="url(#paint2_linear_1464_18346)"/>
<path d="M7.45902 0.257794L0.479523 12.3458C0.445121 12.4048 0.431256 12.4736 0.440099 12.5414C0.448941 12.6091 0.479991 12.672 0.528392 12.7203C0.576794 12.7685 0.639815 12.7993 0.7076 12.8079C0.775385 12.8165 0.844109 12.8024 0.903023 12.7678L9.32052 7.85429C9.9992 7.45778 10.4933 6.8087 10.6948 6.04895C10.8964 5.2892 10.7889 4.48057 10.396 3.79979L8.35252 0.257794C8.30722 0.179408 8.24209 0.114322 8.16367 0.0690714C8.08525 0.0238212 7.99631 0 7.90577 0C7.81524 0 7.72629 0.0238212 7.64788 0.0690714C7.56946 0.114322 7.50433 0.179408 7.45902 0.257794Z" fill="black" fill-opacity="0.1" style="mix-blend-mode:soft-light"/>
<path d="M24.7378 15.262C23.6364 15.262 22.6476 15.0488 21.7712 14.6225C20.9067 14.1961 20.2257 13.5981 19.7283 12.8283C19.2428 12.0585 19 11.1881 19 10.217C19 9.24586 19.2428 8.38134 19.7283 7.6234C20.2257 6.85362 20.9067 6.25557 21.7712 5.82923C22.6476 5.40289 23.6364 5.18972 24.7378 5.18972C25.9221 5.18972 26.9346 5.44434 27.7755 5.95358C28.6163 6.46281 29.1966 7.16746 29.5163 8.0675L26.4076 9.59521C26.0287 8.74254 25.4661 8.3162 24.72 8.3162C24.2463 8.3162 23.8496 8.482 23.5298 8.81359C23.2219 9.14519 23.068 9.61298 23.068 10.217C23.068 10.8328 23.2219 11.3065 23.5298 11.6381C23.8496 11.9697 24.2463 12.1355 24.72 12.1355C25.4661 12.1355 26.0287 11.7091 26.4076 10.8565L29.5163 12.3842C29.1966 13.2842 28.6163 13.9889 27.7755 14.4981C26.9346 15.0073 25.9221 15.262 24.7378 15.262Z" fill="#2F2F2F"/>
<path d="M34.7964 5.18972C36.5018 5.18972 37.8045 5.57461 38.7045 6.34439C39.6046 7.10232 40.0546 8.27475 40.0546 9.86168V15.0843H36.3242V13.8053C35.8623 14.7764 34.9445 15.262 33.5707 15.262C32.8009 15.262 32.1437 15.1317 31.5989 14.8712C31.066 14.5988 30.6574 14.2376 30.3732 13.7875C30.1008 13.3257 29.9646 12.8105 29.9646 12.2421C29.9646 11.2828 30.3317 10.5545 31.066 10.0571C31.8002 9.55969 32.9134 9.31099 34.4056 9.31099H36.0222C35.8919 8.55305 35.282 8.17409 34.1925 8.17409C33.7543 8.17409 33.3102 8.24514 32.8602 8.38726C32.4101 8.51753 32.0252 8.70109 31.7055 8.93794L30.4265 6.29109C30.9831 5.94765 31.6522 5.68119 32.4338 5.49171C33.2273 5.29038 34.0148 5.18972 34.7964 5.18972ZM34.7787 12.846C35.0629 12.846 35.3175 12.7691 35.5425 12.6151C35.7675 12.4612 35.9333 12.2302 36.0399 11.9223V11.2473H35.0451C34.228 11.2473 33.8194 11.5197 33.8194 12.0644C33.8194 12.2894 33.9023 12.4789 34.0681 12.6329C34.2458 12.775 34.4826 12.846 34.7787 12.846Z" fill="#2F2F2F"/>
<path d="M45.6089 6.41544C46.3195 5.59829 47.3676 5.18972 48.7532 5.18972V8.74254C48.4334 8.69517 48.1374 8.67148 47.865 8.67148C46.4912 8.67148 45.8043 9.3702 45.8043 10.7676V15.0843H41.7897V5.36736H45.6089V6.41544Z" fill="#2F2F2F"/>
<path d="M53.7103 6.41544C54.4209 5.59829 55.469 5.18972 56.8546 5.18972V8.74254C56.5348 8.69517 56.2388 8.67148 55.9664 8.67148C54.5926 8.67148 53.9058 9.3702 53.9058 10.7676V15.0843H49.8911V5.36736H53.7103V6.41544Z" fill="#2F2F2F"/>
<path d="M57.9925 5.36736H62.0071V15.0843H57.9925V5.36736ZM59.9998 4.58574C59.2774 4.58574 58.6912 4.39626 58.2412 4.01729C57.803 3.62648 57.5839 3.13501 57.5839 2.54287C57.5839 1.95073 57.803 1.46518 58.2412 1.08621C58.6912 0.695405 59.2774 0.5 59.9998 0.5C60.7341 0.5 61.3203 0.683563 61.7584 1.05069C62.1966 1.41781 62.4157 1.89152 62.4157 2.47181C62.4157 3.08764 62.1966 3.59687 61.7584 3.99953C61.3203 4.39034 60.7341 4.58574 59.9998 4.58574Z" fill="#2F2F2F"/>
<path d="M74.1253 10.217C74.1253 10.2762 74.1075 10.59 74.072 11.1585H67.3217C67.4638 11.5256 67.7006 11.8098 68.0322 12.0111C68.3638 12.2006 68.7783 12.2954 69.2757 12.2954C69.702 12.2954 70.0573 12.2421 70.3416 12.1355C70.6376 12.0289 70.9574 11.8453 71.3008 11.5848L73.397 13.6987C72.4496 14.7409 71.0344 15.262 69.1514 15.262C67.9789 15.262 66.9486 15.0488 66.0604 14.6225C65.1722 14.1843 64.4853 13.5803 63.9998 12.8105C63.5142 12.0407 63.2714 11.1762 63.2714 10.217C63.2714 9.24586 63.5083 8.38134 63.982 7.6234C64.4676 6.85362 65.1248 6.25557 65.9538 5.82923C66.7947 5.40289 67.7362 5.18972 68.7783 5.18972C69.7613 5.18972 70.6554 5.38513 71.4607 5.77593C72.2778 6.16675 72.9233 6.74112 73.397 7.49905C73.8825 8.25699 74.1253 9.16296 74.1253 10.217ZM68.8138 7.92539C68.3993 7.92539 68.0559 8.0379 67.7835 8.26291C67.5111 8.48792 67.3335 8.80767 67.2506 9.22217H70.3771C70.2942 8.81952 70.1165 8.50568 69.8442 8.28067C69.5718 8.04382 69.2283 7.92539 68.8138 7.92539Z" fill="#2F2F2F"/>
<path d="M79.2115 6.41544C79.9221 5.59829 80.9702 5.18972 82.3558 5.18972V8.74254C82.036 8.69517 81.74 8.67148 81.4676 8.67148C80.0938 8.67148 79.4069 9.3702 79.4069 10.7676V15.0843H75.3922V5.36736H79.2115V6.41544Z" fill="#2F2F2F"/>
<path d="M87.8475 5.14062C89.5528 5.14062 90.8555 5.52551 91.7556 6.29529C92.6556 7.05322 93.1056 8.22565 93.1056 9.81258V15.0352H89.3752V13.7562C88.9133 14.7273 87.9955 15.2129 86.6217 15.2129C85.852 15.2129 85.1947 15.0826 84.6499 14.8221C84.117 14.5497 83.7084 14.1885 83.4242 13.7384C83.1518 13.2766 83.0156 12.7614 83.0156 12.193C83.0156 11.2337 83.3828 10.5054 84.117 10.008C84.8512 9.51059 85.9645 9.26189 87.4566 9.26189H89.0732C88.9429 8.50396 88.333 8.12499 87.2435 8.12499C86.8053 8.12499 86.3612 8.19605 85.9112 8.33816C85.4611 8.46843 85.0763 8.65199 84.7565 8.88885L83.4775 6.242C84.0341 5.89856 84.7032 5.6321 85.4848 5.44261C86.2783 5.24129 87.0658 5.14062 87.8475 5.14062ZM87.8297 12.7969C88.1139 12.7969 88.3685 12.72 88.5936 12.566C88.8186 12.4121 88.9844 12.1811 89.0909 11.8732V11.1982H88.0961C87.279 11.1982 86.8704 11.4706 86.8704 12.0153C86.8704 12.2403 86.9533 12.4298 87.1191 12.5838C87.2968 12.7259 87.5336 12.7969 87.8297 12.7969Z" fill="#3074D3"/>
<path d="M96.6526 15.2129C95.9776 15.2129 95.4151 14.9997 94.965 14.5734C94.5268 14.1352 94.3078 13.5786 94.3078 12.9035C94.3078 12.2285 94.5268 11.6837 94.965 11.2692C95.4151 10.8429 95.9776 10.6297 96.6526 10.6297C97.3276 10.6297 97.8843 10.8429 98.3224 11.2692C98.7725 11.6837 98.9975 12.2285 98.9975 12.9035C98.9975 13.5786 98.7725 14.1352 98.3224 14.5734C97.8843 14.9997 97.3276 15.2129 96.6526 15.2129Z" fill="#3074D3"/>
<defs>
<linearGradient id="paint0_linear_1464_18346" x1="1.847" y1="16.1669" x2="4.18974" y2="10.0433" gradientUnits="userSpaceOnUse">
<stop stop-color="#98B9EA"/>
<stop offset="1" stop-color="#255BB9"/>
</linearGradient>
<linearGradient id="paint1_linear_1464_18346" x1="6.72222" y1="10" x2="16.2133" y2="12.7974" gradientUnits="userSpaceOnUse">
<stop stop-color="#98B9EA"/>
<stop offset="1" stop-color="#255BB9"/>
</linearGradient>
<linearGradient id="paint2_linear_1464_18346" x1="5.61588" y1="1.90144e-07" x2="-1.90542" y2="10.5533" gradientUnits="userSpaceOnUse">
<stop stop-color="#98B9EA"/>
<stop offset="1" stop-color="#255BB9"/>
</linearGradient>
</defs>
</svg>
