<svg id="Artboard_8_3_" data-name="Artboard 8 (3)" xmlns="http://www.w3.org/2000/svg" width="484.296" height="403.672" viewBox="0 0 484.296 403.672">
  <path id="Path_12815" data-name="Path 12815" d="M687.313,368.6c65.94,19.442,122.064,84.528,111.494,141.682C782.4,599.15,567.569,656.654,494.848,591.34c-49.147-44.151-19-144.687,43.174-201.75C595.341,337,678.728,366.065,687.313,368.6Z" transform="translate(-376.676 -285.296)" fill="#f2f2f2"/>
  <ellipse id="Ellipse_4168" data-name="Ellipse 4168" cx="12.418" cy="12.418" rx="12.418" ry="12.418" transform="translate(284.425 68.776)" fill="#ffb74d"/>
  <circle id="Ellipse_4169" data-name="Ellipse 4169" cx="6.976" cy="6.976" r="6.976" transform="translate(96.261 188.387)" fill="#ffb74d"/>
  <circle id="Ellipse_4170" data-name="Ellipse 4170" cx="6.976" cy="6.976" r="6.976" transform="translate(227.893 65.399)" fill="#ffb74d"/>
  <path id="Path_23925" data-name="Path 23925" d="M561.184,258.864c-.255,4.64,6.96,5.038,7.21.393S561.439,254.2,561.184,258.864Z" transform="translate(-419.28 -237.096)" fill="#fff"/>
  <path id="Path_23926" data-name="Path 23926" d="M591.815,268.183a1.687,1.687,0,0,0,2.7,2.023A1.687,1.687,0,0,0,591.815,268.183Z" transform="translate(-433.489 -242.704)" fill="#fff"/>
  <path id="Path_23927" data-name="Path 23927" d="M531.792,332.094a1.687,1.687,0,0,0-2.734,1.975A1.687,1.687,0,0,0,531.792,332.094Z" transform="translate(-404.058 -272.673)" fill="#fff"/>
  <path id="Path_23928" data-name="Path 23928" d="M1140.184,417.864c-.255,4.64,6.96,5.038,7.21.393S1140.439,413.2,1140.184,417.864Z" transform="translate(-690.876 -311.68)" fill="#fff"/>
  <path id="Path_23929" data-name="Path 23929" d="M1170.815,427.183a1.687,1.687,0,0,0,2.7,2.023A1.687,1.687,0,0,0,1170.815,427.183Z" transform="translate(-705.085 -317.287)" fill="#fff"/>
  <path id="Path_23930" data-name="Path 23930" d="M1110.792,491.094a1.687,1.687,0,0,0-2.734,1.975A1.687,1.687,0,0,0,1110.792,491.094Z" transform="translate(-675.654 -347.257)" fill="#fff"/>
  <path id="Path_23931" data-name="Path 23931" d="M942.184,290.864c-.255,4.64,6.96,5.038,7.21.393S942.439,286.2,942.184,290.864Z" transform="translate(-597.999 -252.107)" fill="#fff"/>
  <path id="Path_23932" data-name="Path 23932" d="M972.815,300.183a1.687,1.687,0,0,0,2.7,2.023A1.687,1.687,0,0,0,972.815,300.183Z" transform="translate(-612.208 -257.714)" fill="#fff"/>
  <path id="Path_23933" data-name="Path 23933" d="M912.793,364.094a1.687,1.687,0,0,0-2.734,1.975A1.687,1.687,0,0,0,912.793,364.094Z" transform="translate(-582.777 -287.684)" fill="#fff"/>
  <path id="Path_23934" data-name="Path 23934" d="M682.855,780.456a60.873,60.873,0,0,1,17.319-8.012,12.97,12.97,0,0,0,6.515-4.247c9.557-11.68,13.05-24.088,7.751-30.475-6.679-8.044-24.837-3.478-40.557,10.2a127.65,127.65,0,0,0-24.332,28.436,90.39,90.39,0,0,0,24.73,6.371A13.273,13.273,0,0,0,682.855,780.456Z" transform="translate(-460.733 -461.404)" fill="#6d82c7"/>
  <path id="Path_23935" data-name="Path 23935" d="M682.563,785.033a60.89,60.89,0,0,1,17.9-8.288,11.972,11.972,0,0,0,6.015-3.924c9.212-11.187,12.9-23.074,8.628-29.732-.8,8.813-7.677,20.361-18.726,29.976-11.617,10.088-32.556,4.89-42.7,1.476-2.7,3.764-4.131,6.185-4.131,6.185a89.754,89.754,0,0,0,25.081,6.408,12.27,12.27,0,0,0,7.932-2.1Z" transform="translate(-460.733 -465.784)" fill="#536bc2"/>
  <path id="Path_23936" data-name="Path 23936" d="M751.325,769.926c-1.439.462-12.333,8.266-8.495,7.964.09,0,39.288-18.582,39.288-18.582l-11.781,52.211,10.719-.568,7.433-61.73Z" transform="translate(-504.107 -468.66)" fill="#536bc2"/>
  <path id="Path_23937" data-name="Path 23937" d="M610.039,799.087l40.78,24.852,15.737-35.19,2.108.706-16.841,43.217L602.67,806.3Z" transform="translate(-438.743 -487.203)" fill="#536bc2"/>
  <line id="Line_3172" data-name="Line 3172" x1="73.798" transform="translate(185.631 402.672)" fill="none" stroke="#b5b5b5" stroke-miterlimit="10" stroke-width="2"/>
  <path id="Path_23938" data-name="Path 23938" d="M776.567,596.129c-.17.1.743-22.251-12.482-32.917-13.321-10.618-32.184-10.618-39.893-1.391s-1.662,23.966,11.431,34.266C748.587,606.4,776.36,596.172,776.567,596.129Z" transform="translate(-494.148 -377.586)" fill="#6d82c7"/>
  <path id="Path_23939" data-name="Path 23939" d="M739.831,666.117c1.333,16.326,7.81,28.314,15.02,27.21s13.517-14.287,13.576-29.854-7.252-28.261-15.843-27.9S738.531,649.8,739.831,666.117Z" transform="translate(-502.993 -415.347)" fill="#6d82c7"/>
  <path id="Path_23940" data-name="Path 23940" d="M743.737,648.32a53.763,53.763,0,0,0-.908,14.993c1.29,16.3,7.889,28.388,15.291,27.411,3.143-.388,6.026-2.963,8.4-6.9-2.469,8.59-6.775,14.776-11.632,15.492-7.21,1.11-13.687-10.884-15.02-27.21C739.155,662.644,740.615,653.99,743.737,648.32Z" transform="translate(-503.017 -421.33)" fill="#536bc2"/>
  <path id="Path_23941" data-name="Path 23941" d="M709.775,508.622c-.09.064-2.363-53.278-15.62-60.09-13.156-6.95-41.486-2.033-40.8,12.572.531,14.6,6.334,6.265,6.647,4.157s-4.247-4.189-4.247-4.178-1.062-10.5,14.053-12.742,21.954.149,25.845,4.619c4.014,4.407,10.916,35.906,10.7,37.961s1.279,17.489,1.274,17.494S709.361,510.772,709.775,508.622Z" transform="translate(-462.514 -326.155)" fill="#536bc2"/>
  <path id="Path_23942" data-name="Path 23942" d="M660.552,543.512c.382-.212-19.692-46.042-38.046-48.516-17.839-2.92-48.271,7.343-41.98,19.384,5.952,12.174,9.44,3.939,9.052,2.081s-6.323-2.623-6.329-2.617-5.134-8.543,11.25-13.719,25.272-4.677,31.372-1.752c6.43,2.713,25.06,28.325,25.288,30.263.531,1.757,6.9,15.073,6.9,15.1S660.721,545.5,660.552,543.512Z" transform="translate(-427.96 -349.174)" fill="#536bc2"/>
  <path id="Path_23943" data-name="Path 23943" d="M775.695,574.339a2.087,2.087,0,0,0,2.8,0,1.779,1.779,0,0,0-.334-2.6,2.124,2.124,0,0,0-2.819,0A1.78,1.78,0,0,0,775.695,574.339Z" transform="translate(-519.541 -385.155)" fill="#536bc2"/>
  <path id="Path_23944" data-name="Path 23944" d="M754.4,597.169a2.012,2.012,0,0,0,2.718,0,1.784,1.784,0,0,0-.414-2.559,2.017,2.017,0,0,0-2.734,0A1.8,1.8,0,0,0,754.4,597.169Z" transform="translate(-509.544 -395.887)" fill="#536bc2"/>
  <path id="Path_23945" data-name="Path 23945" d="M732.751,600.652c13.109,12.44,44.29,3.982,44.518,3.955-.127.058,1.232-10.767-1.858-21.768,7.162,11.293,6.578,26.413,6.716,26.334-.207.042-27.98,10.268-40.945,0a48.526,48.526,0,0,1-8.542-8.585Z" transform="translate(-499.709 -390.615)" fill="#536bc2"/>
  <path id="Path_23946" data-name="Path 23946" d="M784.54,590.709l77.52-68.489,8.495,1.062L784.54,593.448Z" transform="translate(-524.054 -362.179)" fill="#536bc2"/>
  <path id="Path_23947" data-name="Path 23947" d="M858.55,433.039s12.254-9.488,20.61-1.848-4.178,28.983,13.921,26.61" transform="translate(-558.771 -318.084)" fill="none" stroke="#6d82c7" stroke-miterlimit="10" stroke-width="3"/>
  <path id="Path_23948" data-name="Path 23948" d="M839.51,481.75s-27.39,10.4-13.5,27.81" transform="translate(-541.663 -343.195)" fill="none" stroke="#6d82c7" stroke-miterlimit="10" stroke-width="3"/>
  <path id="Path_23949" data-name="Path 23949" d="M927.86,400.67s19.989.823,25.829,2.416,12.742,5.84,12.742,13.8,19.113,12.742,19.113,12.742-23.361,6.371-29.2.531-5.84-9.557-13.8-10.618-16.99-1.593-16.99-1.593l7.964-7.433Z" transform="translate(-590.199 -305.163)" fill="#26a690"/>
  <line id="Line_3173" data-name="Line 3173" x1="15.928" y2="102.999" transform="translate(333.227 94.207)" fill="none" stroke="#000" stroke-miterlimit="10" stroke-width="4"/>
  <path id="Path_23950" data-name="Path 23950" d="M923.4,509.22s7.964,6.371,5.309,11.68a12.381,12.381,0,0,1-7.964,6.371s-12.742-1.593-12.211-4.778S923.4,509.22,923.4,509.22Z" transform="translate(-582.21 -356.081)" fill="#536bc2"/>
  <path id="Path_23951" data-name="Path 23951" d="M421.915,243.589l-.239-4.03-.292-4.03c-.218-2.686-.425-5.373-.706-8.059h-.35c-.281,2.686-.494,5.373-.706,8.059l-.292,4.03-.239,4.03c-.074,1.343-.218,2.686-.334,4.03a24.312,24.312,0,0,0,0,4.03,40.228,40.228,0,0,0,.531,4.03,23.1,23.1,0,0,0,1.062,4.03h.35a24.072,24.072,0,0,0,1.062-4.03,38.717,38.717,0,0,0,.531-4.03,24.318,24.318,0,0,0,0-4.03C422.133,246.275,421.99,244.932,421.915,243.589Z" transform="translate(-352.434 -223.918)" fill="#6d82c7"/>
  <path id="Path_23952" data-name="Path 23952" d="M422.688,403.32a23.554,23.554,0,0,0-1.062-4.03h-.356a24.076,24.076,0,0,0-1.062,4.03,38.716,38.716,0,0,0-.531,4.03,24.9,24.9,0,0,0,0,4.03c.122,1.343.26,2.686.334,4.03l.239,4.03.292,4.03c.218,2.686.43,5.373.706,8.059h.356c.276-2.686.488-5.373.706-8.059l.292-4.03.234-4.03c.08-1.343.218-2.686.34-4.03a24.907,24.907,0,0,0,0-4.03A37.352,37.352,0,0,0,422.688,403.32Z" transform="translate(-352.867 -304.515)" fill="#6d82c7"/>
  <path id="Path_23953" data-name="Path 23953" d="M482.025,269.486A40.157,40.157,0,0,0,485.242,267a24.885,24.885,0,0,0,2.835-2.862c.865-1.035,1.715-2.087,2.612-3.09l2.681-3.016,2.655-3.058c1.747-2.049,3.493-4.1,5.2-6.2l-.249-.25c-2.124,1.7-4.147,3.451-6.2,5.2l-3.058,2.655-3.021,2.649c-1,.9-2.055,1.747-3.09,2.612a24.888,24.888,0,0,0-2.862,2.835,40.144,40.144,0,0,0-2.485,3.217,24.219,24.219,0,0,0-2.092,3.6l.255.25A23.751,23.751,0,0,0,482.025,269.486Z" transform="translate(-380.343 -233.797)" fill="#6d82c7"/>
  <path id="Path_23954" data-name="Path 23954" d="M373.163,360.512A38.872,38.872,0,0,0,369.951,363a24.948,24.948,0,0,0-2.84,2.862c-.865,1.035-1.715,2.081-2.612,3.085l-2.681,3.021-2.655,3.053c-1.747,2.055-3.5,4.1-5.2,6.2l.25.25c2.124-1.7,4.146-3.451,6.2-5.2l3.053-2.655,3.021-2.681c1-.9,2.049-1.747,3.085-2.612a24.952,24.952,0,0,0,2.862-2.84,38.882,38.882,0,0,0,2.485-3.212,24.012,24.012,0,0,0,2.092-3.61l-.25-.25A24.015,24.015,0,0,0,373.163,360.512Z" transform="translate(-322.078 -285.339)" fill="#6d82c7"/>
  <path id="Path_23955" data-name="Path 23955" d="M457.438,340.763l-4.03-.292-4.03-.239c-1.343-.074-2.686-.218-4.03-.335a24.9,24.9,0,0,0-4.03,0,38.724,38.724,0,0,0-4.03.531,24.073,24.073,0,0,0-4.03,1.062v.356a23.559,23.559,0,0,0,4.03,1.062,38.757,38.757,0,0,0,4.03.531,24.91,24.91,0,0,0,4.03,0c1.343-.122,2.686-.26,4.03-.34l4.03-.239,4.03-.287c2.686-.218,5.373-.43,8.059-.706v-.356C462.811,341.188,460.125,340.976,457.438,340.763Z" transform="translate(-359.276 -276.617)" fill="#6d82c7"/>
  <path id="Path_23956" data-name="Path 23956" d="M310.029,343.975c1.343.074,2.686.218,4.03.335a24.9,24.9,0,0,0,4.03,0,38.715,38.715,0,0,0,4.03-.531,24.074,24.074,0,0,0,4.03-1.062v-.356a23.554,23.554,0,0,0-4.03-1.062,38.758,38.758,0,0,0-4.03-.531,24.9,24.9,0,0,0-4.03,0c-1.343.122-2.686.26-4.03.34l-4.03.239-4.03.287c-2.686.218-5.373.43-8.059.706v.356c2.686.281,5.373.488,8.059.706l4.03.292Z" transform="translate(-293.91 -277.025)" fill="#6d82c7"/>
  <path id="Path_23957" data-name="Path 23957" d="M463.95,395.848l-2.681-3.016c-.9-1-1.747-2.055-2.612-3.085a24.049,24.049,0,0,0-2.835-2.862A37.822,37.822,0,0,0,452.6,384.4a23.517,23.517,0,0,0-3.6-2.092l-.25.25a23.514,23.514,0,0,0,2.092,3.6,37.832,37.832,0,0,0,2.485,3.217,24.053,24.053,0,0,0,2.862,2.835c1.03.865,2.081,1.715,3.085,2.612l3.016,2.681,3.058,2.655c2.055,1.747,4.1,3.5,6.2,5.2l.255-.25c-1.7-2.1-3.456-4.141-5.2-6.2Z" transform="translate(-366.542 -296.55)" fill="#6d82c7"/>
  <path id="Path_23958" data-name="Path 23958" d="M371.511,287.281a24.886,24.886,0,0,0-2.862-2.835c-1.035-.865-2.086-1.715-3.09-2.612l-3.016-2.681-3.058-2.655c-2.049-1.747-4.1-3.5-6.2-5.2l-.25.25c1.7,2.1,3.451,4.141,5.2,6.2l2.655,3.058,2.681,3.016c.9,1,1.747,2.055,2.612,3.085a24.058,24.058,0,0,0,2.835,2.862,37.822,37.822,0,0,0,3.217,2.485,23.507,23.507,0,0,0,3.6,2.092l.25-.25a23.081,23.081,0,0,0-2.092-3.6,38.892,38.892,0,0,0-2.49-3.207Z" transform="translate(-321.647 -244.478)" fill="#6d82c7"/>
  <g id="Group_38086" data-name="Group 38086" transform="translate(4.561 0)" opacity="0.5">
    <path id="Path_23959" data-name="Path 23959" d="M507.755,330.068c-4.98.531-9.96.908-14.94,1.311l-7.47.531-7.475.441c-2.49.138-4.98.4-7.47.621a45.58,45.58,0,0,1-7.47.032,73.313,73.313,0,0,1-7.47-.956,44.213,44.213,0,0,1-7.46-1.98v-.653a43.688,43.688,0,0,1,7.47-1.986,71.842,71.842,0,0,1,7.47-.961,45.573,45.573,0,0,1,7.47.032c2.49.223,4.98.483,7.47.621l7.475.446,7.47.531c4.98.4,9.96.8,14.94,1.311Z" transform="translate(-370.751 -270.291)" fill="#97a8dc"/>
    <path id="Path_23960" data-name="Path 23960" d="M387.475,220.78c1.959,4.608,3.791,9.259,5.638,13.9l2.708,6.987,2.612,7.013c.865,2.336,1.848,4.64,2.787,6.96a45.279,45.279,0,0,1,2.225,7.13,73.192,73.192,0,0,1,1.274,7.433,44.322,44.322,0,0,1,.292,7.73l-.626.191a43.773,43.773,0,0,1-4.088-6.562,71.427,71.427,0,0,1-3.111-6.86,46.035,46.035,0,0,1-2.14-7.173c-.531-2.448-1-4.906-1.593-7.327l-1.768-7.274-1.678-7.3c-1.062-4.879-2.161-9.753-3.127-14.669Z" transform="translate(-342.081 -220.78)" fill="#97a8dc"/>
    <path id="Path_23961" data-name="Path 23961" d="M446.381,415.08c-1.954-4.608-3.791-9.254-5.633-13.9l-2.708-6.982-2.617-7.013c-.86-2.341-1.842-4.646-2.787-6.96a45.886,45.886,0,0,1-2.219-7.136,72.926,72.926,0,0,1-1.274-7.433,43.748,43.748,0,0,1-.292-7.725l.626-.191a44.159,44.159,0,0,1,4.088,6.557,72.1,72.1,0,0,1,3.111,6.854,45.862,45.862,0,0,1,2.161,7.151c.531,2.442,1,4.9,1.593,7.321L442.2,392.9l1.672,7.3c1.062,4.879,2.166,9.758,3.132,14.669Z" transform="translate(-361.742 -285.025)" fill="#97a8dc"/>
    <path id="Path_23962" data-name="Path 23962" d="M460.219,230.268c-1.874,4.64-3.865,9.222-5.84,13.8l-3.021,6.854-3.111,6.806c-1.062,2.267-1.98,4.592-2.952,6.9a45.618,45.618,0,0,1-3.472,6.615,71.235,71.235,0,0,1-4.348,6.148,44.2,44.2,0,0,1-5.256,5.67l-.579-.308a43.953,43.953,0,0,1,1.747-7.528,71.842,71.842,0,0,1,2.655-7.051,46.189,46.189,0,0,1,3.525-6.589c1.364-2.092,2.761-4.173,4.051-6.307l3.892-6.371,3.982-6.371c2.686-4.21,5.368-8.426,8.155-12.583Z" transform="translate(-363.077 -225.086)" fill="#97a8dc"/>
    <path id="Path_23963" data-name="Path 23963" d="M364.5,409.35c1.874-4.64,3.865-9.227,5.84-13.8l3.026-6.854,3.111-6.806c1.062-2.267,1.98-4.587,2.952-6.9a45.136,45.136,0,0,1,3.472-6.615,71.3,71.3,0,0,1,4.348-6.153,43.8,43.8,0,0,1,5.256-5.665l.579.3a44.522,44.522,0,0,1-1.747,7.534,72.878,72.878,0,0,1-2.655,7.051,45.9,45.9,0,0,1-3.531,6.589c-1.359,2.1-2.761,4.173-4.051,6.307L377.21,390.7l-3.977,6.371c-2.686,4.21-5.368,8.431-8.155,12.588Z" transform="translate(-331.583 -284.467)" fill="#97a8dc"/>
    <path id="Path_23964" data-name="Path 23964" d="M302.5,364.661c4.608-1.954,9.259-3.791,13.9-5.633l6.987-2.708L330.4,353.7c2.341-.865,4.646-1.842,6.96-2.787a46,46,0,0,1,7.13-2.219,71.587,71.587,0,0,1,7.433-1.274,43.727,43.727,0,0,1,7.725-.292l.191.626a44.21,44.21,0,0,1-6.562,4.088,71.407,71.407,0,0,1-6.859,3.111,46.032,46.032,0,0,1-7.157,2.166c-2.448.531-4.906,1-7.327,1.593l-7.274,1.773-7.3,1.672c-4.879,1.062-9.753,2.166-14.669,3.132Z" transform="translate(-302.5 -280.022)" fill="#97a8dc"/>
    <path id="Path_23965" data-name="Path 23965" d="M491.07,378.495c-4.64-1.874-9.227-3.865-13.8-5.84l-6.854-3.021-6.8-3.117c-2.267-1.062-4.587-1.98-6.9-2.952a46.15,46.15,0,0,1-6.615-3.472,72.738,72.738,0,0,1-6.148-4.348,43.846,43.846,0,0,1-5.67-5.256l.3-.579a44.012,44.012,0,0,1,7.513,1.747,71.848,71.848,0,0,1,7.051,2.655,45.583,45.583,0,0,1,6.583,3.525c2.1,1.364,4.173,2.761,6.307,4.051l6.4,3.892,6.371,3.977c4.21,2.692,8.431,5.368,12.588,8.16Z" transform="translate(-366.192 -281.352)" fill="#97a8dc"/>
    <path id="Path_23966" data-name="Path 23966" d="M312.03,282.77c4.64,1.879,9.222,3.87,13.8,5.84l6.849,3.026,6.817,3.117c2.262,1.062,4.587,1.98,6.9,2.947a46.154,46.154,0,0,1,6.615,3.472,72.478,72.478,0,0,1,6.148,4.354,43.433,43.433,0,0,1,5.67,5.251l-.308.579a44.069,44.069,0,0,1-7.507-1.741,71.837,71.837,0,0,1-7.051-2.655,45.337,45.337,0,0,1-6.583-3.531c-2.1-1.365-4.178-2.761-6.313-4.051l-6.371-3.892-6.345-3.977c-4.216-2.686-8.431-5.368-12.588-8.16Z" transform="translate(-306.848 -249.858)" fill="#97a8dc"/>
  </g>
  <path id="Path_23967" data-name="Path 23967" d="M685.309,408.925s-1.98-15.174-13.177-15.4-17.3,23.61-28.351,9.525" transform="translate(-458.027 -301.812)" fill="none" stroke="#6d82c7" stroke-miterlimit="10" stroke-width="2.97"/>
  <path id="Path_23968" data-name="Path 23968" d="M578.724,335.85S590.69,362.04,568.79,365" transform="translate(-422.85 -274.757)" fill="none" stroke="#6d82c7" stroke-miterlimit="10" stroke-width="2.97"/>
  <path id="Path_23969" data-name="Path 23969" d="M454,492.979s12.254-9.488,20.61-1.848-4.178,28.983,13.921,26.61" transform="translate(-369.005 -346.201)" fill="none" stroke="#6d82c7" stroke-miterlimit="10" stroke-width="3"/>
  <path id="Path_23970" data-name="Path 23970" d="M978.929,327.68s-27.39,10.4-13.5,27.815" transform="translate(-607.061 -270.925)" fill="none" stroke="#6d82c7" stroke-miterlimit="10" stroke-width="3"/>
  <path id="Path_23971" data-name="Path 23971" d="M1124.31,466.65l-.138-2.379L1124,461.9c-.127-1.593-.25-3.186-.414-4.778h-.207c-.165,1.593-.292,3.186-.419,4.778l-.17,2.373-.143,2.379c-.042.791-.127,1.593-.2,2.379a14.211,14.211,0,0,0,0,2.379,22.691,22.691,0,0,0,.308,2.373,13.472,13.472,0,0,0,.632,2.378h.207a13.941,13.941,0,0,0,.632-2.379c.143-.791.244-1.593.308-2.373a15.456,15.456,0,0,0,0-2.379C1124.437,468.238,1124.357,467.441,1124.31,466.65Z" transform="translate(-682.535 -331.642)" fill="#ffa726"/>
  <path id="Path_23972" data-name="Path 23972" d="M1124.768,560.9a13.6,13.6,0,0,0-.632-2.379h-.207a14.086,14.086,0,0,0-.632,2.379c-.143.791-.244,1.593-.308,2.378a15.372,15.372,0,0,0,0,2.373c.074.8.154,1.593.2,2.379l.138,2.378.175,2.373c.127,1.593.25,3.186.414,4.778h.207c.165-1.593.292-3.185.419-4.778l.17-2.373.144-2.378c.042-.791.127-1.593.2-2.379a14.174,14.174,0,0,0,0-2.373A22.533,22.533,0,0,0,1124.768,560.9Z" transform="translate(-682.792 -379.207)" fill="#ffa726"/>
  <path id="Path_23973" data-name="Path 23973" d="M1159.782,481.92a22.427,22.427,0,0,0,1.9-1.46,14.771,14.771,0,0,0,1.672-1.688c.531-.611,1.014-1.232,1.545-1.821l1.593-1.784,1.561-1.8c1.03-1.211,2.065-2.421,3.069-3.658l-.149-.149c-1.237,1.009-2.448,2.039-3.658,3.069l-1.8,1.561-1.779,1.593c-.595.531-1.211,1.03-1.821,1.54a13.954,13.954,0,0,0-1.688,1.672,23.137,23.137,0,0,0-1.465,1.9,14.208,14.208,0,0,0-1.237,2.124l.149.149A14.21,14.21,0,0,0,1159.782,481.92Z" transform="translate(-699.011 -337.477)" fill="#ffa726"/>
  <path id="Path_23974" data-name="Path 23974" d="M1095.56,535.642a23.468,23.468,0,0,0-1.9,1.465,15.23,15.23,0,0,0-1.672,1.688c-.531.611-1.009,1.232-1.54,1.821l-1.593,1.779-1.561,1.805c-1.03,1.211-2.06,2.421-3.063,3.653l.143.149c1.237-1,2.448-2.033,3.658-3.063l1.805-1.561,1.779-1.593c.589-.531,1.21-1.03,1.821-1.54a15.226,15.226,0,0,0,1.688-1.672q.77-.908,1.465-1.9a14.314,14.314,0,0,0,1.232-2.124l-.149-.149A14.355,14.355,0,0,0,1095.56,535.642Z" transform="translate(-664.632 -367.892)" fill="#ffa726"/>
  <path id="Path_23975" data-name="Path 23975" d="M1145.271,524l-2.379-.175-2.373-.138c-.8-.042-1.593-.127-2.379-.2a14.224,14.224,0,0,0-2.379,0,22.945,22.945,0,0,0-2.379.3,14.016,14.016,0,0,0-2.373.632v.212a14.549,14.549,0,0,0,2.373.632,22.932,22.932,0,0,0,2.379.3,14.237,14.237,0,0,0,2.379,0c.791-.069,1.593-.154,2.379-.2l2.373-.143,2.379-.17c1.593-.127,3.186-.25,4.778-.414v-.212C1148.44,524.266,1146.858,524.123,1145.271,524Z" transform="translate(-686.576 -362.75)" fill="#ffad43"/>
  <path id="Path_23976" data-name="Path 23976" d="M1058.29,525.9c.791.048,1.593.127,2.379.2a14.821,14.821,0,0,0,2.379,0,22.662,22.662,0,0,0,2.373-.3,13.951,13.951,0,0,0,2.379-.632v-.207a13.466,13.466,0,0,0-2.379-.632,22.675,22.675,0,0,0-2.373-.308,14.224,14.224,0,0,0-2.379,0c-.791.069-1.593.154-2.379.2l-2.379.143-2.373.17c-1.593.127-3.186.255-4.778.419v.207c1.593.165,3.186.287,4.778.414l2.373.175Z" transform="translate(-647.994 -362.998)" fill="#ffa726"/>
  <path id="Path_23977" data-name="Path 23977" d="M1149.073,556.49l-1.593-1.784c-.531-.589-1.03-1.211-1.54-1.821a14.789,14.789,0,0,0-1.672-1.688,23.3,23.3,0,0,0-1.9-1.46,14.2,14.2,0,0,0-2.124-1.237l-.149.149a14.208,14.208,0,0,0,1.237,2.124,23.083,23.083,0,0,0,1.465,1.9,14.3,14.3,0,0,0,1.683,1.672c.61.531,1.232,1.014,1.821,1.54l1.784,1.593,1.8,1.561c1.21,1.03,2.421,2.06,3.658,3.069l.149-.149c-1-1.237-2.039-2.448-3.069-3.658Z" transform="translate(-690.84 -374.507)" fill="#ffa726"/>
  <path id="Path_23978" data-name="Path 23978" d="M1094.575,492.444a14.4,14.4,0,0,0-1.688-1.678c-.605-.531-1.226-1.009-1.816-1.54l-1.784-1.593-1.8-1.556c-1.21-1.03-2.421-2.065-3.658-3.069l-.149.149c1,1.237,2.039,2.442,3.069,3.653l1.561,1.805,1.593,1.779c.531.595,1.03,1.211,1.54,1.821a13.944,13.944,0,0,0,1.672,1.688,23.341,23.341,0,0,0,1.9,1.465,13.743,13.743,0,0,0,2.124,1.232l.149-.143a13.7,13.7,0,0,0-1.237-2.124A21.445,21.445,0,0,0,1094.575,492.444Z" transform="translate(-664.374 -343.786)" fill="#ffa726"/>
  <g id="Group_38087" data-name="Group 38087" transform="translate(403.479 123.407)" opacity="0.3">
    <path id="Path_23979" data-name="Path 23979" d="M1174.943,517.663c-2.936.3-5.872.531-8.813.77l-4.407.319-4.407.26c-1.471.085-2.936.239-4.407.366a26.552,26.552,0,0,1-4.407,0,41.487,41.487,0,0,1-4.407-.568,25.875,25.875,0,0,1-4.407-1.168v-.388a25.9,25.9,0,0,1,4.407-1.173c1.465-.265,2.936-.451,4.407-.568a27.762,27.762,0,0,1,4.407,0c1.471.133,2.936.287,4.407.366l4.407.26,4.407.318c2.941.239,5.877.467,8.813.775Z" transform="translate(-1094.126 -482.399)" fill="#ffb74d"/>
    <path id="Path_23980" data-name="Path 23980" d="M1103.988,453.22c1.157,2.718,2.24,5.458,3.329,8.2l1.593,4.12,1.545,4.141c.531,1.38,1.062,2.74,1.641,4.1a26.414,26.414,0,0,1,1.311,4.2,42.866,42.866,0,0,1,.754,4.38,25.919,25.919,0,0,1,.17,4.561l-.366.112a26.02,26.02,0,0,1-2.416-3.87,43.05,43.05,0,0,1-1.832-4.046,27.046,27.046,0,0,1-1.274-4.221c-.308-1.444-.589-2.894-.945-4.322l-1.062-4.29-.987-4.306c-.637-2.878-1.28-5.755-1.848-8.654Z" transform="translate(-1077.198 -453.22)" fill="#ffb74d"/>
    <path id="Path_23981" data-name="Path 23981" d="M1138.749,567.84c-1.152-2.718-2.235-5.463-3.324-8.2l-1.593-4.12-1.54-4.136c-.531-1.38-1.062-2.74-1.646-4.1a27.937,27.937,0,0,1-1.311-4.2,42.818,42.818,0,0,1-.749-4.38,25.921,25.921,0,0,1-.175-4.561l.372-.112a25.962,25.962,0,0,1,2.41,3.87,42.473,42.473,0,0,1,1.837,4.046,27.045,27.045,0,0,1,1.274,4.247c.3,1.439.589,2.894.94,4.322l1.062,4.29.987,4.306c.637,2.878,1.274,5.755,1.848,8.654Z" transform="translate(-1088.821 -491.121)" fill="#ffb74d"/>
    <path id="Path_23982" data-name="Path 23982" d="M1146.907,458.841c-1.1,2.74-2.278,5.442-3.446,8.15l-1.784,4.046-1.832,4.014c-.616,1.338-1.168,2.708-1.741,4.067a27.334,27.334,0,0,1-2.049,3.9,44.36,44.36,0,0,1-2.564,3.626,26.137,26.137,0,0,1-3.1,3.345l-.34-.181a26.055,26.055,0,0,1,1.025-4.444,42.325,42.325,0,0,1,1.593-4.157,27.614,27.614,0,0,1,2.081-3.886c.807-1.237,1.63-2.463,2.389-3.716l2.3-3.77,2.347-3.743c1.593-2.485,3.185-4.975,4.81-7.433Z" transform="translate(-1089.605 -455.772)" fill="#ffb74d"/>
    <path id="Path_23983" data-name="Path 23983" d="M1090.44,564.479c1.11-2.74,2.283-5.447,3.451-8.15l1.784-4.046,1.832-4.014c.616-1.338,1.168-2.708,1.741-4.067a27.03,27.03,0,0,1,2.049-3.9,43.178,43.178,0,0,1,2.564-3.626,25.807,25.807,0,0,1,3.1-3.345l.34.181a25.581,25.581,0,0,1-1.03,4.444,42.349,42.349,0,0,1-1.593,4.157A26.524,26.524,0,0,1,1102.6,546c-.8,1.237-1.625,2.458-2.389,3.716l-2.294,3.769-2.347,3.743c-1.593,2.485-3.186,4.975-4.816,7.433Z" transform="translate(-1071.024 -490.798)" fill="#ffb74d"/>
    <path id="Path_23984" data-name="Path 23984" d="M1053.87,538.1c2.724-1.152,5.463-2.235,8.2-3.324l4.12-1.593,4.136-1.545c1.38-.531,2.74-1.062,4.1-1.641a26.662,26.662,0,0,1,4.21-1.311,42.624,42.624,0,0,1,4.38-.754,25.858,25.858,0,0,1,4.555-.17l.111.366a25.714,25.714,0,0,1-3.87,2.416,42.389,42.389,0,0,1-4.046,1.832,26.574,26.574,0,0,1-4.215,1.274c-1.444.308-2.893.589-4.322.945l-4.29,1.062-4.306.993c-2.883.632-5.755,1.274-8.654,1.842Z" transform="translate(-1053.87 -488.17)" fill="#ffb74d"/>
    <path id="Path_23985" data-name="Path 23985" d="M1165.123,546.238c-2.74-1.1-5.442-2.278-8.149-3.446l-4.041-1.784-4.019-1.837c-1.333-.616-2.7-1.168-4.062-1.741a27.265,27.265,0,0,1-3.9-2.044,42.33,42.33,0,0,1-3.632-2.57A25.751,25.751,0,0,1,1134,529.7l.181-.34a25.944,25.944,0,0,1,4.444,1.03,42.369,42.369,0,0,1,4.157,1.566,26.779,26.779,0,0,1,3.886,2.081c1.237.8,2.463,1.63,3.716,2.389l3.77,2.294,3.748,2.347c2.485,1.593,4.97,3.185,7.433,4.815Z" transform="translate(-1091.458 -488.936)" fill="#ffb74d"/>
    <path id="Path_23986" data-name="Path 23986" d="M1059.49,489.79c2.74,1.1,5.442,2.278,8.15,3.446l4.04,1.784,4.014,1.837c1.338.616,2.708,1.168,4.067,1.741a27.261,27.261,0,0,1,3.9,2.044,41.529,41.529,0,0,1,3.626,2.57,25.733,25.733,0,0,1,3.345,3.1l-.18.345a26.393,26.393,0,0,1-4.439-1.03,42.5,42.5,0,0,1-4.162-1.593,27,27,0,0,1-3.881-2.081c-1.237-.807-2.463-1.63-3.716-2.389l-3.775-2.294-3.716-2.347c-2.485-1.593-4.969-3.185-7.433-4.815Z" transform="translate(-1056.431 -470.374)" fill="#ffb74d"/>
  </g>
  <path id="Path_23987" data-name="Path 23987" d="M695.895,636.717l-54.86,10.9L627.953,603.98c-2.278-6.663,4.279-12.986,11.017-10.618l.881,7.534,7.518,39.384,48.224-8.962Z" transform="translate(-450.386 -395.312)" fill="#536bc2"/>
  <path id="Path_23988" data-name="Path 23988" d="M623.556,569.762c0-.5-1.386-21.03,1.9-24.863.042-.117.064-.186.064-.186v.09h0v-.09c-.3-1.141-.388-2.262-.68-3.382a8.878,8.878,0,0,0-.828-2.75c-.244-.382,0-.616-.138-.924a5.794,5.794,0,0,1-.4-1.062,4.35,4.35,0,0,0-2.416-2.527c-.207-.106-.382-.25-.579-.372l-.281-.308c-.462-1.014-1.55-2.809.048-3.971a7.792,7.792,0,0,1,4.932-.977c1.842.584,3.536,1.157,5.309,1.8a17.084,17.084,0,0,1,3.276,3.106,27.078,27.078,0,0,1,4.5,8.033c.159.446.308.531.812.35,1.5-.462,3.637-.988,5.729-1.46a13.273,13.273,0,0,1,12,3.265L658,544.671a13.273,13.273,0,0,1,4.125,11.054l-.679,6.5a13.273,13.273,0,0,1-5.93,9.742c-1.879,1.226-3.6,2.331-3.844,2.416h0a51.945,51.945,0,0,1-10.48,3.01c-2.782.223-6.435-3.531-10.618-1.672C630.665,575.623,623.556,574.222,623.556,569.762Z" transform="translate(-446.589 -365.081)" fill="#536bc2"/>
</svg>
