<svg xmlns="http://www.w3.org/2000/svg" width="54.997" height="20.5" viewBox="0 0 54.997 20.5"><g transform="translate(-146 -243.621)"><rect width="54.997" height="19.999" transform="translate(146 244.121)" fill="none"/><path d="M52.559,138.121H1.937a.928.928,0,0,0-.937.937v11.874a.25.25,0,0,0,.25.25h52a.25.25,0,0,0,.25-.25V139.058a.928.928,0,0,0-.937-.937m-44.4.989h.562V150.2H8.162Zm7.437,0h.7V150.2h-.7Zm7.575,0h.7V150.2h-.7Zm7.575,0h.712V150.2h-.712Zm7.587,0h.7V150.2h-.7Zm7.575,0h.7V150.2h-.7Z" transform="translate(146.25 106)" fill="#ccc" stroke="rgba(0,0,0,0)" stroke-width="1"/><path d="M53.5,149.242v.9a.251.251,0,0,1-.25.25h-7.8l-1.2,1.962H43.4v2.425h.05a.243.243,0,0,1,.25.25v.125a.251.251,0,0,1-.25.25H42.11a.251.251,0,0,1-.25-.25v-.125a.243.243,0,0,1,.25-.25h.037v-2.425H41.3l-1.187-1.962h-21.4v1.25h-.687a3.12,3.12,0,0,0-2.862-1.875,3.013,3.013,0,0,0-1.862.625,2.972,2.972,0,0,0-1,1.25h-.9a3.12,3.12,0,0,0-2.862-1.875,3.013,3.013,0,0,0-1.862.625,3.1,3.1,0,0,0-.987,1.25H5v-1.25H3.437L2.25,152.329v1.15a.384.384,0,0,1-.375.375h-.5A.376.376,0,0,1,1,153.479v-4.237a.251.251,0,0,1,.25-.25h52a.251.251,0,0,1,.25.25" transform="translate(146.25 108.717)" fill="#dadada"/><path d="M10.035,152.617a2.5,2.5,0,1,0-2.5,2.5,2.5,2.5,0,0,0,2.5-2.5" transform="translate(147.258 108.998)" fill="#dadada"/><path d="M15.33,152.617a2.5,2.5,0,1,0-2.5,2.5,2.5,2.5,0,0,0,2.5-2.5" transform="translate(148.582 108.998)" fill="#dadada"/></g></svg>