<svg height="14.75" viewBox="0 0 43.716 14.75" width="43.716" xmlns="http://www.w3.org/2000/svg">
  <g data-name="Group 1937" id="Group_1937" transform="translate(-0.003 -0.001)">
    <g data-name="Group 2188" id="Group_2188" opacity="0.2" transform="translate(0.365 4.888)">
      <path d="M0,0H4.52V4.213H0Z" data-name="Path 10489" fill="#929292" id="Path_10489" transform="translate(9.768)"/>
      <path d="M0,0H4.52V4.213H0Z" data-name="Path 10488" fill="#929292" id="Path_10488" transform="translate(4.884)"/>
      <path d="M0,0H4.52V4.213H0Z" data-name="Path 10487" fill="#929292" id="Path_10487" transform="translate(14.652)"/>
      <path d="M0,0H4.52V4.213H0Z" data-name="Path 10486" fill="#929292" id="Path_10486" transform="translate(19.536)"/>
      <path d="M0,0H4.52V4.213H0Z" data-name="Path 10485" fill="#929292" id="Path_10485"/>
      <path d="M0,0H3.913V4.213H0Z" data-name="Path 10484" fill="#929292" id="Path_10484"
            transform="translate(39.072)"/>
      <path d="M0,0H4.52V4.213H0Z" data-name="Path 10483" fill="#929292" id="Path_10483" transform="translate(29.304)"/>
      <path d="M0,0H4.52V4.213H0Z" data-name="Path 10482" fill="#929292" id="Path_10482" transform="translate(24.42)"/>
      <path d="M0,0H4.52V4.213H0Z" data-name="Path 10481" fill="#929292" id="Path_10481" transform="translate(34.188)"/>
    </g>
    <path d="M2807.046,1450.57a2.028,2.028,0,1,0,2.147,2.025,2.09,2.09,0,0,0-2.147-2.025Z" data-name="Path 1253"
          fill="#929292"
          id="Path_1253" transform="translate(-2797.166 -1439.904)"/>
    <path d="M2767.836,1450.57a2.028,2.028,0,1,0,2.148,2.025A2.089,2.089,0,0,0,2767.836,1450.57Z" data-name="Path 1254"
          fill="#929292"
          id="Path_1254" transform="translate(-2765.209 -1439.904)"/>
    <path
      d="M2803.075,1441.65h-40.094v1.005h0v1.178h0v2.645h.149v-2.409h.258a2.636,2.636,0,0,1,4.43,0h2.49v2.409h.15v-2.409h.183a2.636,2.636,0,0,1,4.43,0h21.768l1,1.089v2.078h-.285v.1h1.191v-.1h-.262v-3.215l8.21-1.366h0v-1.005h-3.619Zm-5.234,3.141-.662-.721h.662Z"
      data-name="Path 1255"
      fill="#929292"
      id="Path_1255" transform="translate(-2762.978 -1432.587)"/>
    <path
      d="M2806.7,1394.353c-.913-2.569-4.46-3.6-4.46-3.6h0a15.2,15.2,0,0,1-4.885,0,15.212,15.212,0,0,1-4.884,0,15.2,15.2,0,0,1-4.885,0,15.212,15.212,0,0,1-4.884,0,15.212,15.212,0,0,1-4.884,0,15.21,15.21,0,0,1-4.884,0,15.212,15.212,0,0,1-4.884,0,15.21,15.21,0,0,1-4.884,0h0a.178.178,0,0,0-.127.051.18.18,0,0,0-.054.126v4.743h0v4.213h.364v-4.213h4.52v4.213h.365v-4.213h4.52v4.213h.364v-4.213h4.52v4.213H2778v-4.213h4.52v4.213h.364v-4.213h4.52v4.213h.364v-4.213h4.52v4.213h.365v-4.213h4.52v4.213h.364v-4.213h4.52v4.213h.365v-4.213h3.913v4.213h.365v-4.213h0Z"
      data-name="Path 1256"
      fill="#929292"
      id="Path_1256" transform="translate(-2762.978 -1390.75)"/>
  </g>
</svg>
