<svg xmlns="http://www.w3.org/2000/svg" width="14" height="14" viewBox="0 0 14 14"><g transform="translate(7)"><rect width="14" height="14" transform="translate(-7)" fill="#919191" opacity="0"/><path d="M11.556,36.889h-4v-4A.889.889,0,0,0,6.667,32H5.778a.889.889,0,0,0-.889.889v4h-4A.889.889,0,0,0,0,37.778v.889a.889.889,0,0,0,.889.889h4v4a.889.889,0,0,0,.889.889h.889a.889.889,0,0,0,.889-.889v-4h4a.889.889,0,0,0,.889-.889v-.889A.889.889,0,0,0,11.556,36.889Z" transform="translate(-6.222 -31.222)" fill="#919191"/></g></svg>